g antenna
v 0.7655993 -5.751496E-05 0.04979892
v -0.04668588 3.83361 -2.373936
v -0.04351572 -0.3669716 -0.6712668
v 0.7646764 4.089161 -1.615483
v -0.04351572 0.3669151 0.7709817
v 0.763745 8.399903 -2.552827
v -0.04985727 8.259264 -3.336915
v -0.04218148 4.345665 -0.8525326
v -0.8526307 1.078783E-06 0.0499161
v 0.7636486 12.81077 -2.881451
v -0.0520765 12.75898 -3.676327
v -0.8535438 4.090114 -1.610986
v -0.04351572 -0.3669716 -0.6712668
v -0.04668588 3.83361 -2.373936
v -0.854452 8.400772 -2.543786
v -0.04985727 8.259264 -3.336915
v -0.8545179 12.811 -2.868103
v -0.0520765 12.75898 -3.676327
v -0.05430429 17.26847 -3.648726
v -0.0408497 8.541412 -1.759697
v 0.7635766 17.23642 -2.855762
v -0.05430429 17.26847 -3.648726
v -0.03879282 12.86279 -2.073227
v -0.8545484 17.23518 -2.838156
v -0.05785043 21.79998 -3.360317
v -0.8555555 21.64088 -2.563862
v -0.0351954 21.48643 -1.789519
v -0.03666879 17.20314 -2.045192
v 0.7625096 21.64553 -2.585974
v -0.05785043 21.79998 -3.360317
v 1.055668 20.00751 -4.321573
v 1.495536 22.13138 -5.083448
v -1.508074 22.13138 -5.083448
v -1.068206 20.00751 -4.321574
v -3.009879 22.13138 -2.482246
v 2.117604 20.00751 -2.482246
v 2.99734 22.13138 -2.482246
v -2.130142 20.00751 -2.482246
v -1.508075 22.13138 0.1189566
v -0.006269623 19.12777 -2.482246
v 1.055666 20.00751 -0.6429172
v 1.495536 22.13138 0.1189566
v -1.068206 20.00751 -0.6429184
v 1.495536 22.13138 -5.083448
v 1.055668 24.25525 -4.321573
v -1.068206 24.25525 -4.321574
v -1.508074 22.13138 -5.083448
v 2.99734 22.13138 -2.482246
v -2.130142 24.25525 -2.482246
v -3.009879 22.13138 -2.482246
v 2.117604 24.25525 -2.482246
v 1.495536 22.13138 0.1189566
v -0.006269623 25.13498 -2.482246
v -1.068206 24.25525 -0.6429184
v -1.508075 22.13138 0.1189566
v 1.055666 24.25525 -0.6429172
vt 0.6771365 0.8230124
vt 0.7116641 0.8138632
vt 0.6764856 0.8140416
vt 0.7118333 0.8228474
vt 0.6777707 0.8319057
vt 0.7464488 0.8229113
vt 0.7463093 0.813969
vt 0.7119868 0.8318844
vt 0.6771441 0.8407984
vt 0.7811922 0.8229053
vt 0.7810534 0.8139564
vt 0.7118374 0.8409214
vt 0.676495 0.8497701
vt 0.7116735 0.8499059
vt 0.7464509 0.8408162
vt 0.7463178 0.8497581
vt 0.7811947 0.8407824
vt 0.7810616 0.8497309
vt 0.8160747 0.8497154
vt 0.7466255 0.8318635
vt 0.8159829 0.8228766
vt 0.8160669 0.8139319
vt 0.7813666 0.8318437
vt 0.8159831 0.8407719
vt 0.8516281 0.8495798
vt 0.8507102 0.8406758
vt 0.8498229 0.8318017
vt 0.8159191 0.8318235
vt 0.8507295 0.8229303
vt 0.8516204 0.8140221
vt 0.8776551 0.4234039
vt 0.8780475 0.4028581
vt 0.8397611 0.4231386
vt 0.8575315 0.4337634
vt 0.8358072 0.4668168
vt 0.8979079 0.4345503
vt 0.9138404 0.4227467
vt 0.8564258 0.4563734
vt 0.8763689 0.49072
vt 0.8765525 0.4460285
vt 0.895585 0.4582849
vt 0.9146073 0.4664653
vt 0.8754604 0.4686481
vt 0.9146073 0.4664653
vt 0.8947324 0.4580366
vt 0.8747659 0.4687468
vt 0.8760742 0.4907453
vt 0.9138404 0.4227467
vt 0.8555034 0.4568124
vt 0.8358072 0.4668168
vt 0.895407 0.4354101
vt 0.8780475 0.4028581
vt 0.8754702 0.4461404
vt 0.8562323 0.4341998
vt 0.8397611 0.4231386
vt 0.8761608 0.4235047
vn 0.998607 -0.01914314 -0.04917105
vn -0.002646808 -0.2963159 -0.9550863
vn -0.001063535 -0.3761713 -0.9265496
vn 0.9984812 -0.01493719 -0.05303084
vn 0.00135602 0.377245 0.9261125
vn 0.9987968 -0.006425489 -0.04861604
vn -0.005360055 -0.1448115 -0.9894448
vn 0.003014929 0.2947293 0.955576
vn -0.9987291 -0.01863817 -0.04682771
vn 0.9993383 -0.001025881 -0.03635526
vn -0.00800566 -0.03474595 -0.9993641
vn -0.9987754 -0.01387016 -0.04748996
vn -0.001063535 -0.3761713 -0.9265496
vn -0.002646808 -0.2963159 -0.9550863
vn -0.999284 -0.00520392 -0.03747574
vn -0.005360055 -0.1448115 -0.9894448
vn -0.9998046 -0.0005859286 -0.01976195
vn -0.00800566 -0.03474595 -0.9993641
vn -0.01064628 0.03450565 -0.9993477
vn 0.005805696 0.1414879 0.9899229
vn 0.9993659 0.001794964 -0.03556123
vn -0.01064628 0.03450565 -0.9993477
vn 0.008485786 0.03280894 0.9994256
vn -0.9999102 0.0007281788 -0.01338431
vn -0.01161879 0.06256451 -0.9979733
vn -0.9980401 0.004608508 -0.06240818
vn 0.01353913 -0.06060496 0.9980701
vn 0.01124384 -0.03331892 0.9993815
vn 0.9960942 0.006662346 -0.08804581
vn -0.01161879 0.06256451 -0.9979733
vn 0.4275941 -0.5183191 -0.7406136
vn 0.4999999 2.629489E-07 -0.8660255
vn -0.4999993 2.028462E-07 -0.8660258
vn -0.4275933 -0.5183185 -0.7406147
vn -1 0 -2.103592E-07
vn 0.8551874 -0.518319 3.949878E-07
vn 1 0 3.305644E-07
vn -0.8551874 -0.5183188 -1.702534E-06
vn -0.5 -3.230514E-07 0.8660254
vn 0 -1 0
vn 0.4275928 -0.5183185 0.7406148
vn 0.4999998 -2.55436E-07 0.8660255
vn -0.4275936 -0.5183187 0.7406142
vn 0.4999999 2.629489E-07 -0.8660255
vn 0.4275934 0.5183186 -0.7406144
vn -0.4275931 0.5183187 -0.7406145
vn -0.4999993 2.028462E-07 -0.8660258
vn 1 0 3.305644E-07
vn -0.8551874 0.5183188 4.176884E-07
vn -1 0 -2.103592E-07
vn 0.8551874 0.518319 4.176881E-07
vn 0.4999998 -2.55436E-07 0.8660255
vn 0 1 0
vn -0.4275941 0.518319 0.7406137
vn -0.5 -3.230514E-07 0.8660254
vn 0.4275935 0.5183188 0.7406142
g antenna_0
f 3/3/3 2/2/2 1/1/1
f 2/2/2 4/4/4 1/1/1
f 1/1/1 4/4/4 5/5/5
f 6/6/6 4/4/4 2/2/2
f 7/7/7 6/6/6 2/2/2
f 4/4/4 8/8/8 5/5/5
f 8/8/8 4/4/4 6/6/6
f 5/5/5 8/8/8 9/9/9
f 10/10/10 6/6/6 7/7/7
f 11/11/11 10/10/10 7/7/7
f 8/8/8 12/12/12 9/9/9
f 9/9/9 12/12/12 13/13/13
f 12/12/12 14/14/14 13/13/13
f 14/14/14 12/12/12 15/15/15
f 15/15/15 12/12/12 8/8/8
f 16/16/16 14/14/14 15/15/15
f 16/16/16 15/15/15 17/17/17
f 18/18/18 16/16/16 17/17/17
f 18/18/18 17/17/17 19/19/19
f 20/20/20 8/8/8 6/6/6
f 20/20/20 15/15/15 8/8/8
f 20/20/20 6/6/6 10/10/10
f 17/17/17 15/15/15 20/20/20
f 21/21/21 10/10/10 11/11/11
f 22/22/22 21/21/21 11/11/11
f 23/23/23 20/20/20 10/10/10
f 23/23/23 17/17/17 20/20/20
f 23/23/23 10/10/10 21/21/21
f 17/17/17 24/24/24 19/19/19
f 19/19/19 24/24/24 25/25/25
f 24/24/24 26/26/26 25/25/25
f 27/27/27 26/26/26 24/24/24
f 23/23/23 28/28/28 17/17/17
f 28/28/28 24/24/24 17/17/17
f 28/28/28 27/27/27 24/24/24
f 28/28/28 23/23/23 21/21/21
f 27/27/27 28/28/28 29/29/29
f 28/28/28 21/21/21 29/29/29
f 29/29/29 21/21/21 22/22/22
f 30/30/30 29/29/29 22/22/22
f 33/33/33 32/32/32 31/31/31
f 34/34/34 33/33/33 31/31/31
f 35/35/35 33/33/33 34/34/34
f 31/31/31 32/32/32 36/36/36
f 32/32/32 37/37/37 36/36/36
f 38/38/38 35/35/35 34/34/34
f 39/39/39 35/35/35 38/38/38
f 31/31/31 40/40/40 34/34/34
f 36/36/36 40/40/40 31/31/31
f 34/34/34 40/40/40 38/38/38
f 36/36/36 37/37/37 41/41/41
f 41/41/41 40/40/40 36/36/36
f 37/37/37 42/42/42 41/41/41
f 43/43/43 39/39/39 38/38/38
f 38/38/38 40/40/40 43/43/43
f 43/43/43 40/40/40 41/41/41
f 42/42/42 39/39/39 43/43/43
f 41/41/41 42/42/42 43/43/43
f 46/46/46 45/45/45 44/44/44
f 47/47/47 46/46/46 44/44/44
f 44/44/44 45/45/45 48/48/48
f 49/49/49 46/46/46 47/47/47
f 50/50/50 49/49/49 47/47/47
f 45/45/45 51/51/51 48/48/48
f 48/48/48 51/51/51 52/52/52
f 46/46/46 53/53/53 45/45/45
f 49/49/49 53/53/53 46/46/46
f 45/45/45 53/53/53 51/51/51
f 54/54/54 49/49/49 50/50/50
f 54/54/54 53/53/53 49/49/49
f 55/55/55 54/54/54 50/50/50
f 52/52/52 56/56/56 55/55/55
f 51/51/51 56/56/56 52/52/52
f 51/51/51 53/53/53 56/56/56
f 56/56/56 54/54/54 55/55/55
f 56/56/56 53/53/53 54/54/54
