g Antenna
v 0.1261805 18.1045 -1.477674
v 0.1261805 14.68595 -1.477674
v 0.4777661 14.68595 -1.171398
v 0.4777661 18.1045 -1.171398
v 0.1261805 14.68595 -0.8651225
v 0.1261805 21.21155 -1.477674
v 0.1261805 18.1045 -0.8651225
v -0.4426953 14.68595 -0.9821094
v 0.4777661 21.21155 -1.171398
v 0.1261805 24.06425 -1.477674
v 0.4777661 24.06425 -1.171398
v 0.1261805 21.21155 -0.8651225
v 0.1261805 24.06425 -0.8651225
v -0.4426953 18.1045 -0.9821094
v -0.4426953 14.68595 -1.360687
v -0.4426953 21.21155 -0.9821094
v -0.4426953 24.06425 -0.9821094
v -0.4426953 18.1045 -1.360687
v 0.1261805 14.68595 -1.477674
v 0.1261805 18.1045 -1.477674
v -0.4426953 21.21155 -1.360687
v -0.4426953 24.06425 -1.360687
v 0.1261805 21.21155 -1.477674
v 0.1261805 24.06425 -1.477674
v 0 25.14751 0.6352998
v -1.277529 25.14751 0.1061301
v -1.043098 26.19061 -0.1283006
v -1.806698 25.14751 -1.171398
v 0 26.42504 0.1061301
v 0 26.95421 -1.171398
v 1.043098 26.19061 -0.1283006
v 1.277528 25.14751 0.1061301
v 1.806698 25.14751 -1.171398
v -1.277529 26.42504 -1.171398
v -1.043098 26.19061 -2.214496
v -1.277529 25.14751 -2.448927
v 0 25.14751 -2.978096
v 1.277528 26.42504 -1.171398
v 1.043098 26.19061 -2.214496
v 1.277528 25.14751 -2.448927
v 0 26.42504 -2.448927
v -1.043098 24.10442 -0.1283006
v -1.277529 25.14751 0.1061301
v 0 25.14751 0.6352998
v -1.806698 25.14751 -1.171398
v 0 23.86999 0.1061301
v 0 23.34081 -1.171398
v 1.043098 24.10442 -0.1283006
v 1.277528 25.14751 0.1061301
v 1.806698 25.14751 -1.171398
v -1.277529 23.86999 -1.171398
v -1.043098 24.10442 -2.214496
v -1.277529 25.14751 -2.448927
v 0 25.14751 -2.978096
v 1.277528 23.86999 -1.171398
v 1.043098 24.10442 -2.214496
v 1.277528 25.14751 -2.448927
v 0 23.86999 -2.448927
vt 0.831126 0.09430155
vt 0.831126 0.01133427
vt 0.7818881 0.01133427
vt 0.7818881 0.09430155
vt 0.7573812 0.01133427
vt 0.831126 0.1798341
vt 0.7573812 0.09430155
vt 0.7328743 0.01133427
vt 0.7818881 0.1798341
vt 0.831126 0.251187
vt 0.7818881 0.251187
vt 0.7573812 0.1798341
vt 0.7573812 0.251187
vt 0.7328743 0.09430155
vt 0.6836364 0.01133427
vt 0.7328743 0.1798341
vt 0.7328743 0.251187
vt 0.6836364 0.09430155
vt 0.6467636 0.01133427
vt 0.6467636 0.09430155
vt 0.6836364 0.1798341
vt 0.6836364 0.251187
vt 0.6467636 0.1798341
vt 0.6467636 0.251187
vt 0.8969488 0.8222949
vt 0.8363999 0.847375
vt 0.8573931 0.8683681
vt 0.8113196 0.9079238
vt 0.8969488 0.8594782
vt 0.8969488 0.9079238
vt 0.9365042 0.8683681
vt 0.9574972 0.847375
vt 0.9825773 0.9079238
vt 0.8485031 0.9079238
vt 0.8573931 0.9474792
vt 0.8363999 0.9684721
vt 0.8969488 0.9935524
vt 0.9453943 0.9079238
vt 0.9365042 0.9474792
vt 0.9574972 0.9684721
vt 0.8969488 0.9563692
vt 0.9778113 0.8994097
vt 0.9756844 0.8972828
vt 0.9818189 0.8947418
vt 0.9731434 0.9034172
vt 0.9818189 0.898509
vt 0.9818189 0.9034172
vt 0.9858264 0.8994097
vt 0.9879533 0.8972828
vt 0.9904943 0.9034172
vt 0.9769106 0.9034172
vt 0.9778113 0.9074247
vt 0.9756844 0.9095517
vt 0.9818189 0.9120927
vt 0.9867271 0.9034172
vt 0.9858264 0.9074247
vt 0.9879533 0.9095517
vt 0.9818189 0.9083255
vn 0.2540903 0 -0.9671805
vn 0.0932103 0 -0.9956464
vn 0.9339605 0 -0.3573764
vn 1 0 0
vn 0.4081879 0 0.9128979
vn 0.2540903 0 -0.9671805
vn 0.2540902 0 0.9671805
vn -0.5822194 0 0.8130319
vn 1 0 0
vn 0.408188 0 -0.9128979
vn 0.9339605 0 0.3573764
vn 0.2540902 0 0.9671805
vn 0.09321021 0 0.9956464
vn -0.7750582 0 0.6318898
vn -0.9136437 0 -0.4065159
vn -0.7750583 0 0.6318898
vn -0.9136437 0 0.4065159
vn -0.7750582 0 -0.6318898
vn 0.0932103 0 -0.9956464
vn 0.2540903 0 -0.9671805
vn -0.7750582 0 -0.6318898
vn -0.5822192 0 -0.8130319
vn 0.2540903 0 -0.9671805
vn 0.408188 0 -0.9128979
vn 0 0 1
vn -0.7071068 0 0.7071066
vn -0.5773502 0.5773503 0.5773502
vn -1 0 0
vn 0 0.7071064 0.7071071
vn 0 1 0
vn 0.5773502 0.5773503 0.5773502
vn 0.7071068 0 0.7071068
vn 1 0 0
vn -0.7071072 0.7071063 0
vn -0.5773502 0.5773503 -0.5773503
vn -0.7071068 0 -0.7071068
vn 0 0 -1
vn 0.7071072 0.7071064 0
vn 0.5773502 0.5773503 -0.5773502
vn 0.7071068 0 -0.7071068
vn 0 0.7071064 -0.7071072
vn -0.5773502 -0.5773503 0.5773502
vn -0.7071068 0 0.7071066
vn 0 0 1
vn -1 0 0
vn 0 -0.7071064 0.7071071
vn 0 -1 0
vn 0.5773503 -0.5773504 0.5773502
vn 0.7071068 0 0.7071068
vn 1 0 0
vn -0.7071072 -0.7071063 0
vn -0.5773502 -0.5773503 -0.5773503
vn -0.7071068 0 -0.7071068
vn 0 0 -1
vn 0.7071072 -0.7071064 0
vn 0.5773502 -0.5773503 -0.5773502
vn 0.7071068 0 -0.7071068
vn 0 -0.7071064 -0.7071072
g Antenna_0
f 3/3/3 2/2/2 1/1/1
f 1/1/1 4/4/4 3/3/3
f 5/5/5 3/3/3 4/4/4
f 6/6/6 4/4/4 1/1/1
f 5/5/5 4/4/4 7/7/7
f 8/8/8 5/5/5 7/7/7
f 6/6/6 9/9/9 4/4/4
f 7/7/7 4/4/4 9/9/9
f 9/9/9 6/6/6 10/10/10
f 10/10/10 11/11/11 9/9/9
f 12/12/12 9/9/9 11/11/11
f 7/7/7 9/9/9 12/12/12
f 12/12/12 11/11/11 13/13/13
f 8/8/8 7/7/7 14/14/14
f 14/14/14 7/7/7 12/12/12
f 15/15/15 8/8/8 14/14/14
f 16/16/16 12/12/12 13/13/13
f 14/14/14 12/12/12 16/16/16
f 16/16/16 13/13/13 17/17/17
f 14/14/14 18/18/18 15/15/15
f 18/18/18 14/14/14 16/16/16
f 18/18/18 19/19/19 15/15/15
f 18/18/18 20/20/20 19/19/19
f 21/21/21 16/16/16 17/17/17
f 16/16/16 21/21/21 18/18/18
f 21/21/21 20/20/20 18/18/18
f 17/17/17 22/22/22 21/21/21
f 21/21/21 23/23/23 20/20/20
f 22/22/22 23/23/23 21/21/21
f 22/22/22 24/24/24 23/23/23
f 27/27/27 26/26/26 25/25/25
f 28/28/28 26/26/26 27/27/27
f 25/25/25 29/29/29 27/27/27
f 27/27/27 29/29/29 30/30/30
f 31/31/31 29/29/29 25/25/25
f 30/30/30 29/29/29 31/31/31
f 25/25/25 32/32/32 31/31/31
f 31/31/31 32/32/32 33/33/33
f 27/27/27 34/34/34 28/28/28
f 30/30/30 34/34/34 27/27/27
f 28/28/28 34/34/34 35/35/35
f 35/35/35 34/34/34 30/30/30
f 35/35/35 36/36/36 28/28/28
f 37/37/37 36/36/36 35/35/35
f 33/33/33 38/38/38 31/31/31
f 31/31/31 38/38/38 30/30/30
f 39/39/39 38/38/38 33/33/33
f 30/30/30 38/38/38 39/39/39
f 33/33/33 40/40/40 39/39/39
f 39/39/39 40/40/40 37/37/37
f 35/35/35 41/41/41 37/37/37
f 30/30/30 41/41/41 35/35/35
f 37/37/37 41/41/41 39/39/39
f 39/39/39 41/41/41 30/30/30
f 44/44/44 43/43/43 42/42/42
f 42/42/42 43/43/43 45/45/45
f 42/42/42 46/46/46 44/44/44
f 47/47/47 46/46/46 42/42/42
f 44/44/44 46/46/46 48/48/48
f 48/48/48 46/46/46 47/47/47
f 48/48/48 49/49/49 44/44/44
f 50/50/50 49/49/49 48/48/48
f 45/45/45 51/51/51 42/42/42
f 42/42/42 51/51/51 47/47/47
f 52/52/52 51/51/51 45/45/45
f 47/47/47 51/51/51 52/52/52
f 45/45/45 53/53/53 52/52/52
f 52/52/52 53/53/53 54/54/54
f 48/48/48 55/55/55 50/50/50
f 47/47/47 55/55/55 48/48/48
f 50/50/50 55/55/55 56/56/56
f 56/56/56 55/55/55 47/47/47
f 56/56/56 57/57/57 50/50/50
f 54/54/54 57/57/57 56/56/56
f 54/54/54 58/58/58 52/52/52
f 52/52/52 58/58/58 47/47/47
f 56/56/56 58/58/58 54/54/54
f 47/47/47 58/58/58 56/56/56
