g Antler
v -1.197124 0.6543738 0.6920224
v -1.336638 0.3820276 0.0643843
v -2.85029 2.07871 0.0643843
v -2.615658 2.222682 0.541195
v -3.563521 3.949029 0.0643843
v -2.146384 2.510626 0.541195
v -0.8958823 1.242433 0.6920224
v -0.7452622 1.536459 0.06438415
v -3.247597 3.975533 0.6542463
v -3.247605 5.628644 0.0643843
v -1.911741 2.654593 0.06438415
v -0.8958823 1.242433 -0.5632539
v -2.978662 5.569886 0.541195
v -2.709718 5.511131 0.0643843
v -2.615747 4.028529 0.6542463
v -2.14638 2.510621 -0.4124266
v -1.197126 0.6543713 -0.5632535
v -2.440775 5.452376 0.541195
v -2.299823 4.05503 0.06438415
v -2.615658 2.222682 -0.4124264
v -1.336638 0.3820276 0.0643843
v -2.85029 2.07871 0.0643843
v -2.171836 5.393622 0.06438415
v -2.615747 4.028529 -0.5254778
v -3.247597 3.975533 -0.5254778
v -3.563521 3.949029 0.0643843
v -2.440774 5.452379 -0.4124266
v -2.978667 5.569889 -0.4124266
v -3.247605 5.628644 0.0643843
v 1.426703 -5.689117 0.7662076
v 1.030497 -6.026659 -0.01611481
v 0.7882961 -5.165323 0.0643843
v 1.044721 -4.895484 0.7984364
v 2.524736 -5.237494 0.7662076
v -0.07930458 -3.652064 0.0643843
v 1.83739 -4.603954 0.7984364
v 3.563521 -5.365836 -0.01611511
v 0.09952293 -3.382194 0.6538972
v 2.233726 -4.458192 0.06438415
v 2.545686 -5.196598 -0.7984364
v -1.36981 -0.7397107 0.7409422
v -1.667365 -0.882611 0.0643843
v -1.909895 1.600465 0.0643843
v 0.7611602 -3.222177 0.6538972
v 1.83739 -4.603954 -0.6696683
v 1.426703 -5.689117 -0.7984363
v -0.6002659 -0.6718054 0.7409422
v -1.521458 1.576637 0.7384492
v -1.071653 4.118084 0.0643843
v 1.091978 -3.142169 0.06438415
v 1.044721 -4.895484 -0.6696681
v 1.030497 -6.026659 -0.01611481
v 0.7882961 -5.165323 0.0643843
v -0.2154942 -0.6378577 0.06438415
v -0.744575 1.528978 0.7384492
v -0.7420011 3.953043 0.7525802
v 0.7021126 6.026659 0.06438415
v 0.7611596 -3.222177 -0.5251288
v 0.09952354 -3.382194 -0.5251287
v -0.07930458 -3.652064 0.0643843
v -1.667365 -0.882611 0.0643843
v -0.6002659 -0.6718054 -0.6121739
v -1.36981 -0.7397107 -0.6121737
v -0.3561313 1.505143 0.06438415
v -0.08269875 3.622962 0.7525802
v 0.93868 5.769691 0.6693558
v 1.175245 5.512721 0.06438415
v -1.521458 1.576637 -0.6096805
v -1.909895 1.600465 0.0643843
v -0.7445744 1.528978 -0.6096808
v 0.246954 3.457919 0.06438415
v 1.411809 5.255753 0.6693558
v -0.7420036 3.953046 -0.6238117
v -1.071653 4.118084 0.0643843
v -0.08269691 3.62296 -0.6238118
v 1.648376 4.998785 0.06438415
v 1.411813 5.255753 -0.5405874
v 0.9386775 5.769693 -0.5405874
v 0.7021126 6.026659 0.06438415
v 0.6905483 -3.506991 -0.3672522
v 0.9922588 -3.780294 0.06438415
v 1.083793 -2.479652 0.06438415
v 0.8065087 -2.2288 -0.3898393
v 0.08712486 -2.960382 -0.3672519
v 1.625724 -1.171908 0.06438415
v 0.2519357 -1.727101 -0.3898392
v -0.1736997 -2.835975 0.0643843
v 1.406912 -1.00486 -0.4124266
v 2.430056 -0.1009192 0.06438415
v -0.01104225 -1.53964 0.0643843
v 0.08712669 -2.960384 0.4960206
v 2.228042 0.0860852 -0.4124266
v 2.02603 0.2730969 0.0643843
v 0.9692901 -0.6707653 -0.4124264
v 1.824015 0.4601111 -0.4124266
v 0.7504745 -0.5037243 0.0643843
v 0.2519357 -1.727103 0.5186079
v 1.622004 0.6471179 0.0643843
v 0.8065081 -2.228798 0.5186079
v 0.6905483 -3.506991 0.4960206
v 0.9922588 -3.780294 0.06438415
v 1.083793 -2.479652 0.06438415
v 0.9692901 -0.6707653 0.541195
v 1.406912 -1.00486 0.541195
v 1.625724 -1.171908 0.06438415
v 2.228042 0.08608764 0.541195
v 2.430056 -0.1009192 0.06438415
v 1.824017 0.4601111 0.541195
vt 0.4204538 0.4934136
vt 0.4262112 0.4628072
vt 0.2823007 0.4687836
vt 0.2831663 0.4934118
vt 0.150856 0.4628822
vt 0.2829055 0.5189112
vt 0.4036941 0.5199143
vt 0.3925753 0.54803
vt 0.1642939 0.4901251
vt 0.04661185 0.5070033
vt 0.2820798 0.5467631
vt 0.4019465 0.576405
vt 0.07641268 0.5188489
vt 0.05885285 0.545342
vt 0.176482 0.5168055
vt 0.2813468 0.5745853
vt 0.4169136 0.6033226
vt 0.09249187 0.5322566
vt 0.1826613 0.5458916
vt 0.2801504 0.600025
vt 0.4205341 0.6340358
vt 0.2772211 0.6245233
vt 0.09599638 0.5454992
vt 0.1750825 0.5748839
vt 0.1616435 0.6013756
vt 0.1476941 0.6285908
vt 0.0919202 0.5587044
vt 0.07530326 0.5719855
vt 0.04506707 0.5836191
vt 0.837499 0.4748664
vt 0.8347411 0.4356472
vt 0.7824066 0.450538
vt 0.7841266 0.4856094
vt 0.8595941 0.5176075
vt 0.6822014 0.4661181
vt 0.8014493 0.5177908
vt 0.9175022 0.5516663
vt 0.6741685 0.4944791
vt 0.8121732 0.5521314
vt 0.8626027 0.5882169
vt 0.4908864 0.4851638
vt 0.4969303 0.4534845
vt 0.3516091 0.4477733
vt 0.6869371 0.5227595
vt 0.803182 0.587301
vt 0.8380933 0.6304787
vt 0.4981283 0.5170804
vt 0.3522812 0.4809426
vt 0.1897168 0.4514648
vt 0.6936136 0.552261
vt 0.7840334 0.6201328
vt 0.8290932 0.668867
vt 0.7770545 0.6552382
vt 0.5017356 0.5508976
vt 0.3512473 0.5150045
vt 0.2007749 0.4834378
vt 0.02937442 0.4977639
vt 0.6863804 0.5815612
vt 0.6723372 0.6094733
vt 0.678881 0.6377623
vt 0.4924567 0.6481574
vt 0.4966533 0.5846243
vt 0.487918 0.6164166
vt 0.3506255 0.5498196
vt 0.2087414 0.5145755
vt 0.06310806 0.5145772
vt 0.03930297 0.5476394
vt 0.3490403 0.6186896
vt 0.3467781 0.6518371
vt 0.3496281 0.5846283
vt 0.2122184 0.54885
vt 0.08055884 0.5317437
vt 0.1976756 0.6140782
vt 0.1850982 0.6458846
vt 0.207119 0.5830643
vt 0.08404011 0.5479526
vt 0.07978994 0.5641074
vt 0.06152847 0.5810238
vt 0.02700579 0.5973592
vt 0.3360333 0.4852697
vt 0.3429887 0.4607787
vt 0.260711 0.4724983
vt 0.2572059 0.4964994
vt 0.3174563 0.5187819
vt 0.1597171 0.4810311
vt 0.2457467 0.5245332
vt 0.3173423 0.5445139
vt 0.1667409 0.5024068
vt 0.06502539 0.5084403
vt 0.2433602 0.5461296
vt 0.3195433 0.5701931
vt 0.08659917 0.5226142
vt 0.06532252 0.5499336
vt 0.1720982 0.5247355
vt 0.09518138 0.5364358
vt 0.175394 0.5475968
vt 0.2474838 0.5675809
vt 0.09656784 0.5492902
vt 0.2612035 0.5950612
vt 0.3408222 0.6028309
vt 0.3497738 0.6269739
vt 0.2666693 0.6188655
vt 0.1739183 0.5705617
vt 0.1703789 0.5930806
vt 0.1651085 0.6147205
vt 0.08870822 0.5763429
vt 0.06828046 0.5913977
vt 0.09618965 0.562182
vn -0.5119724 -0.3994871 0.7604567
vn -0.7554464 -0.6552104 3.417642E-07
vn -0.848755 -0.5287864 4.918685E-07
vn -0.5265585 -0.3221199 0.7867495
vn -0.994054 -0.1088879 1.092534E-06
vn 0.3576745 0.2331655 0.9042692
vn 0.2410567 0.3345989 0.9110078
vn 0.6857071 0.7278776 0
vn -0.5779006 -0.06380776 0.813609
vn -0.95696 0.2902199 1.249168E-06
vn 0.8474115 0.5309369 1.226394E-06
vn 0.2410556 0.3345981 -0.9110084
vn -0.5222309 0.2478998 0.8159782
vn 0.2134335 0.9769576 3.967998E-06
vn 0.4318479 0.0427645 0.9009321
vn 0.3576736 0.2331662 -0.9042693
vn -0.5119725 -0.3994868 -0.7604567
vn 0.5002964 0.1114937 0.8586458
vn 0.9952255 0.09760226 1.398236E-06
vn -0.5265582 -0.3221197 -0.7867498
vn -0.7554464 -0.6552104 3.417642E-07
vn -0.848755 -0.5287864 4.918685E-07
vn 0.9997132 0.02394401 -3.565977E-07
vn 0.4318473 0.04276459 -0.9009323
vn -0.5778998 -0.06380793 -0.8136094
vn -0.994054 -0.1088879 1.092534E-06
vn 0.5002957 0.1114943 -0.8586462
vn -0.5222312 0.2478995 -0.8159782
vn -0.95696 0.2902199 1.249168E-06
vn -0.4423361 -0.2093235 0.8720794
vn -0.9412642 -0.3362466 -0.03098488
vn -0.901247 -0.4331824 0.01034197
vn -0.4423702 -0.2015287 0.8738962
vn 0.4360313 0.5235944 0.7319328
vn -0.8675927 -0.4972756 0
vn 0.3651436 0.3758364 0.8517143
vn 0.5906922 0.806891 -0.003090901
vn -0.483865 -0.2743137 0.8310395
vn 0.6753575 0.7372472 0.0189443
vn 0.3806854 0.6353756 -0.6718455
vn -0.5555826 -0.186218 0.8103399
vn -0.9456164 -0.325284 3.470214E-07
vn -0.9925271 0.122024 2.51279E-07
vn 0.4354492 0.2897759 0.8522993
vn 0.3381166 0.453682 -0.8245301
vn -0.4934776 -0.05438675 -0.8680565
vn 0.4265772 0.1097546 0.8977671
vn -0.5739014 0.07379591 0.8155928
vn -0.8653749 0.5011249 1.189844E-06
vn 0.8358955 0.5488886 -1.041873E-07
vn -0.4781273 -0.1514771 -0.8651295
vn -0.9412642 -0.3362466 -0.03098488
vn -0.901247 -0.4331824 0.01034197
vn 0.9541321 0.2993862 0
vn 0.4417056 -0.05241019 0.8956279
vn -0.4978843 0.30085 0.8133883
vn -0.6640703 0.7476702 1.865489E-06
vn 0.4354494 0.2897758 -0.8522991
vn -0.4838651 -0.274314 -0.8310393
vn -0.8675927 -0.4972756 0
vn -0.9456164 -0.325284 3.470214E-07
vn 0.4265771 0.1097546 -0.8977672
vn -0.5555828 -0.1862182 -0.8103397
vn 0.9926986 -0.1206208 7.593841E-07
vn 0.3874018 -0.2037542 0.8991129
vn -0.331616 0.4653094 0.8206815
vn 0.7357104 0.6772962 -6.16211E-07
vn -0.5739013 0.07379583 -0.8155926
vn -0.9925271 0.122024 2.51279E-07
vn 0.441705 -0.05241023 -0.8956282
vn 0.869841 -0.4933322 8.750768E-07
vn 0.4427619 -0.2359135 0.8650473
vn -0.4978851 0.3008504 -0.8133877
vn -0.8653749 0.5011249 1.189844E-06
vn 0.3874015 -0.2037541 -0.8991131
vn 0.8067822 -0.590849 -2.147859E-07
vn 0.4427615 -0.2359124 -0.8650478
vn -0.3316165 0.4653097 -0.8206811
vn -0.6640703 0.7476702 1.865489E-06
vn 0.589536 -0.0578751 -0.8056661
vn 0.9962683 -0.0863108 2.266745E-07
vn 0.9722374 -0.2339968 1.609546E-07
vn 0.3722301 -0.1289446 -0.9191399
vn -0.3431408 0.02925538 -0.9388283
vn 0.861506 -0.5077474 1.095391E-06
vn -0.4596603 0.1592959 -0.8736917
vn -0.9924256 0.1228471 2.418746E-06
vn 0.3791343 -0.23466 -0.8950933
vn 0.8696032 -0.4937512 2.435555E-06
vn -0.9225211 0.3859467 1.29981E-06
vn -0.3431401 0.02925501 0.9388286
vn 0.4580747 -0.1828649 -0.8699012
vn 0.679332 0.733831 -9.919878E-07
vn -0.3895511 0.2774325 -0.8782262
vn -0.3335899 0.4170786 -0.8454367
vn -0.8080266 0.589146 7.188143E-07
vn -0.4596597 0.1592951 0.8736922
vn -0.7106017 0.7035945 8.888881E-07
vn 0.3722306 -0.1289449 0.9191396
vn 0.5895374 -0.05787537 0.805665
vn 0.9962683 -0.0863108 2.266745E-07
vn 0.9722374 -0.2339968 1.609546E-07
vn -0.3895506 0.2774324 0.8782264
vn 0.3791344 -0.2346598 0.8950933
vn 0.861506 -0.5077474 1.095391E-06
vn 0.4580743 -0.1828645 0.8699014
vn 0.8696032 -0.4937512 2.435555E-06
vn -0.3335888 0.4170783 0.8454373
g Antler_0
f 3/3/3 2/2/2 1/1/1
f 4/4/4 3/3/3 1/1/1
f 5/5/5 3/3/3 4/4/4
f 6/6/6 4/4/4 1/1/1
f 7/7/7 6/6/6 1/1/1
f 6/6/6 7/7/7 8/8/8
f 9/9/9 5/5/5 4/4/4
f 9/9/9 4/4/4 6/6/6
f 10/10/10 5/5/5 9/9/9
f 11/11/11 6/6/6 8/8/8
f 11/11/11 8/8/8 12/12/12
f 13/13/13 10/10/10 9/9/9
f 14/14/14 10/10/10 13/13/13
f 15/15/15 9/9/9 6/6/6
f 13/13/13 9/9/9 15/15/15
f 15/15/15 6/6/6 11/11/11
f 16/16/16 11/11/11 12/12/12
f 16/16/16 12/12/12 17/17/17
f 18/18/18 13/13/13 15/15/15
f 14/14/14 13/13/13 18/18/18
f 19/19/19 15/15/15 11/11/11
f 18/18/18 15/15/15 19/19/19
f 19/19/19 11/11/11 16/16/16
f 20/20/20 16/16/16 17/17/17
f 20/20/20 17/17/17 21/21/21
f 22/22/22 20/20/20 21/21/21
f 23/23/23 18/18/18 19/19/19
f 14/14/14 18/18/18 23/23/23
f 24/24/24 19/19/19 16/16/16
f 24/24/24 16/16/16 20/20/20
f 23/23/23 19/19/19 24/24/24
f 25/25/25 20/20/20 22/22/22
f 25/25/25 24/24/24 20/20/20
f 26/26/26 25/25/25 22/22/22
f 27/27/27 23/23/23 24/24/24
f 14/14/14 23/23/23 27/27/27
f 27/27/27 24/24/24 25/25/25
f 28/28/28 25/25/25 26/26/26
f 28/28/28 27/27/27 25/25/25
f 14/14/14 27/27/27 28/28/28
f 29/29/29 28/28/28 26/26/26
f 14/14/14 28/28/28 29/29/29
f 32/32/32 31/31/31 30/30/30
f 33/33/33 32/32/32 30/30/30
f 33/33/33 30/30/30 34/34/34
f 35/35/35 32/32/32 33/33/33
f 36/36/36 33/33/33 34/34/34
f 36/36/36 34/34/34 37/37/37
f 38/38/38 35/35/35 33/33/33
f 38/38/38 33/33/33 36/36/36
f 39/39/39 36/36/36 37/37/37
f 39/39/39 37/37/37 40/40/40
f 38/38/38 41/41/41 35/35/35
f 41/41/41 42/42/42 35/35/35
f 43/43/43 42/42/42 41/41/41
f 44/44/44 38/38/38 36/36/36
f 44/44/44 36/36/36 39/39/39
f 45/45/45 39/39/39 40/40/40
f 45/45/45 40/40/40 46/46/46
f 47/47/47 41/41/41 38/38/38
f 44/44/44 47/47/47 38/38/38
f 48/48/48 43/43/43 41/41/41
f 49/49/49 43/43/43 48/48/48
f 50/50/50 44/44/44 39/39/39
f 50/50/50 39/39/39 45/45/45
f 51/51/51 45/45/45 46/46/46
f 51/51/51 46/46/46 52/52/52
f 53/53/53 51/51/51 52/52/52
f 54/54/54 47/47/47 44/44/44
f 50/50/50 54/54/54 44/44/44
f 47/47/47 55/55/55 41/41/41
f 55/55/55 48/48/48 41/41/41
f 55/55/55 47/47/47 54/54/54
f 56/56/56 49/49/49 48/48/48
f 56/56/56 48/48/48 55/55/55
f 57/57/57 49/49/49 56/56/56
f 58/58/58 45/45/45 51/51/51
f 58/58/58 50/50/50 45/45/45
f 59/59/59 51/51/51 53/53/53
f 59/59/59 58/58/58 51/51/51
f 60/60/60 59/59/59 53/53/53
f 60/60/60 61/61/61 59/59/59
f 62/62/62 54/54/54 50/50/50
f 58/58/58 62/62/62 50/50/50
f 59/59/59 63/63/63 58/58/58
f 61/61/61 63/63/63 59/59/59
f 63/63/63 62/62/62 58/58/58
f 64/64/64 55/55/55 54/54/54
f 64/64/64 54/54/54 62/62/62
f 65/65/65 56/56/56 55/55/55
f 65/65/65 55/55/55 64/64/64
f 66/66/66 57/57/57 56/56/56
f 66/66/66 56/56/56 65/65/65
f 67/67/67 57/57/57 66/66/66
f 68/68/68 63/63/63 61/61/61
f 69/69/69 68/68/68 61/61/61
f 70/70/70 62/62/62 63/63/63
f 70/70/70 64/64/64 62/62/62
f 68/68/68 70/70/70 63/63/63
f 71/71/71 65/65/65 64/64/64
f 71/71/71 64/64/64 70/70/70
f 72/72/72 66/66/66 65/65/65
f 67/67/67 66/66/66 72/72/72
f 72/72/72 65/65/65 71/71/71
f 73/73/73 68/68/68 69/69/69
f 74/74/74 73/73/73 69/69/69
f 75/75/75 70/70/70 68/68/68
f 75/75/75 71/71/71 70/70/70
f 73/73/73 75/75/75 68/68/68
f 76/76/76 72/72/72 71/71/71
f 76/76/76 71/71/71 75/75/75
f 67/67/67 72/72/72 76/76/76
f 77/77/77 76/76/76 75/75/75
f 77/77/77 75/75/75 73/73/73
f 67/67/67 76/76/76 77/77/77
f 78/78/78 73/73/73 74/74/74
f 78/78/78 77/77/77 73/73/73
f 67/67/67 77/77/77 78/78/78
f 79/79/79 78/78/78 74/74/74
f 67/67/67 78/78/78 79/79/79
f 82/82/82 81/81/81 80/80/80
f 83/83/83 82/82/82 80/80/80
f 83/83/83 80/80/80 84/84/84
f 85/85/85 82/82/82 83/83/83
f 86/86/86 83/83/83 84/84/84
f 86/86/86 84/84/84 87/87/87
f 88/88/88 85/85/85 83/83/83
f 88/88/88 83/83/83 86/86/86
f 89/89/89 85/85/85 88/88/88
f 90/90/90 86/86/86 87/87/87
f 90/90/90 87/87/87 91/91/91
f 92/92/92 89/89/89 88/88/88
f 93/93/93 89/89/89 92/92/92
f 94/94/94 88/88/88 86/86/86
f 92/92/92 88/88/88 94/94/94
f 94/94/94 86/86/86 90/90/90
f 95/95/95 92/92/92 94/94/94
f 93/93/93 92/92/92 95/95/95
f 96/96/96 94/94/94 90/90/90
f 95/95/95 94/94/94 96/96/96
f 97/97/97 90/90/90 91/91/91
f 96/96/96 90/90/90 97/97/97
f 98/98/98 95/95/95 96/96/96
f 93/93/93 95/95/95 98/98/98
f 99/99/99 97/97/97 91/91/91
f 100/100/100 99/99/99 91/91/91
f 99/99/99 100/100/100 101/101/101
f 102/102/102 99/99/99 101/101/101
f 103/103/103 96/96/96 97/97/97
f 98/98/98 96/96/96 103/103/103
f 103/103/103 97/97/97 99/99/99
f 104/104/104 99/99/99 102/102/102
f 104/104/104 103/103/103 99/99/99
f 105/105/105 104/104/104 102/102/102
f 106/106/106 104/104/104 105/105/105
f 103/103/103 104/104/104 106/106/106
f 107/107/107 106/106/106 105/105/105
f 93/93/93 106/106/106 107/107/107
f 108/108/108 98/98/98 103/103/103
f 108/108/108 103/103/103 106/106/106
f 93/93/93 108/108/108 106/106/106
f 93/93/93 98/98/98 108/108/108
