g Arm_R
v 1.775548 18.76875 5.622254
v 1.726626 21.51213 5.675076
v 1.085413 21.10515 7.074835
v 1.420483 18.03703 6.612535
v 3.485705 18.26543 6.713043
v 2.20806 18.85692 4.873658
v 5.090154 18.04905 4.383175
v 6.085642 19.34191 3.902469
v 3.601498 17.81368 3.24732
v 4.629236 17.74781 2.073504
v 5.833443 18.01427 2.674777
v 6.276922 18.60849 -0.2537555
v 5.763116 17.85809 -0.0265802
v 5.360085 18.96039 0.8353619
v 0.7748798 20.81332 6.864705
v 0.496994 21.08466 7.88738
v 1.975085 21.28746 7.991744
v 0.4743095 17.86157 7.209768
v 0.6002195 18.01328 6.4301
v 0.4743095 17.86157 7.209768
v 1.493068 17.90737 7.612313
v 0.496994 21.08466 7.88738
v 1.975085 21.28746 7.991744
v 4.215497 20.80289 6.779217
v 2.117582 21.7005 6.325257
v 1.085413 21.10515 7.074835
v 2.966771 21.39745 5.228286
v 4.598455 19.90565 2.977245
v 4.629236 17.74781 2.073504
v 4.5653 17.77078 0.2103564
v 3.601498 17.81368 3.24732
v 2.20806 18.85692 4.873658
v 1.726626 21.51213 5.675076
v 1.775548 18.76875 5.622254
v 0.8784005 21.73627 6.575807
v 0.5911416 21.72317 6.246405
v 0.6725172 21.28131 6.82444
v 0.5911416 21.72317 6.246405
v 1.726626 21.51213 5.675076
vt 0.08937578 0.05561293
vt 0.04978066 0.0388588
vt 0.04397917 0.06496596
vt 0.08541131 0.08070782
vt 0.1286928 0.07267103
vt 0.1053999 0.04536236
vt 0.1562237 0.04556416
vt 0.1868131 0.05463606
vt 0.1350329 0.02701383
vt 0.1502291 0.01306066
vt 0.1710493 0.02993809
vt 0.2098169 0.01784097
vt 0.194048 0.0042096
vt 0.2344175 0.02906565
vt 0.04334728 0.08477392
vt 0.03030852 0.09283
vt 0.01918834 0.07584195
vt 0.07403389 0.1114714
vt 0.07937607 0.09811556
vt 0.08963886 0.1073308
vt 0.1027552 0.09677327
vt 0.1207235 0.1403001
vt 0.1353393 0.1258515
vt 0.1604097 0.09446967
vt 0.1705699 0.1250307
vt 0.1538726 0.1410465
vt 0.1923494 0.1123186
vt 0.2090474 0.07128031
vt 0.2440823 0.07511231
vt 0.263898 0.03501064
vt 0.2376907 0.0944507
vt 0.2281625 0.1273599
vt 0.1852271 0.1316367
vt 0.2242152 0.1457758
vt 0.1704689 0.1463657
vt 0.178153 0.1504338
vt 0.1628796 0.1469142
vt 0.1674478 0.158319
vt 0.148613 0.1669161
vn -0.7045297 -0.4745072 -0.5277131
vn -0.5381379 0.5180187 -0.664879
vn -0.719334 0.6013299 -0.3477944
vn 0.02331286 -0.7342107 -0.6785213
vn 0.397174 -0.8478761 0.3512247
vn -0.6758741 -0.4477 -0.5854563
vn 0.261447 -0.9230525 0.2821692
vn 0.9004325 0.4015432 0.1672858
vn -0.677352 -0.6338028 -0.3734813
vn -0.865619 -0.3960899 -0.3062949
vn 0.7597049 -0.6320869 0.1526913
vn 0.9969597 0.07155793 -0.03083723
vn 0.8266174 -0.5626565 0.0110109
vn -0.3887358 0.8847821 -0.2569925
vn -0.528881 0.3666449 -0.7654126
vn -0.7135591 0.5514283 0.4321575
vn 0.1600851 0.5971936 0.7859597
vn -0.7264773 -0.684435 0.06147694
vn -0.4265466 -0.4591932 -0.7792301
vn -0.7264773 -0.684435 0.06147694
vn 0.06658107 -0.6908739 0.7199029
vn -0.7135591 0.5514283 0.4321575
vn 0.1600851 0.5971936 0.7859597
vn 0.6499258 0.6110166 0.451946
vn 0.08761282 0.9876757 0.1296947
vn -0.719334 0.6013299 -0.3477944
vn 0.08159634 0.8823453 -0.4634746
vn -0.4622125 0.6006466 -0.6523675
vn -0.865619 -0.3960899 -0.3062949
vn -0.8394878 0.5422179 0.03549423
vn -0.677352 -0.6338028 -0.3734813
vn -0.6758741 -0.4477 -0.5854563
vn -0.5381379 0.5180187 -0.664879
vn -0.7045297 -0.4745072 -0.5277131
vn -0.1509508 0.9018635 0.4047916
vn -0.7994236 -0.06950644 -0.5967335
vn -0.7328899 0.2849127 0.6178164
vn -0.7994236 -0.06950644 -0.5967335
vn -0.5381379 0.5180187 -0.664879
g Arm_R_0
f 3/3/3 2/2/2 1/1/1
f 3/3/3 1/1/1 4/4/4
f 4/4/4 1/1/1 5/5/5
f 5/5/5 1/1/1 6/6/6
f 7/7/7 5/5/5 6/6/6
f 5/5/5 7/7/7 8/8/8
f 6/6/6 9/9/9 7/7/7
f 7/7/7 9/9/9 10/10/10
f 11/11/11 7/7/7 10/10/10
f 7/7/7 11/11/11 8/8/8
f 12/12/12 8/8/8 11/11/11
f 11/11/11 13/13/13 12/12/12
f 8/8/8 12/12/12 14/14/14
f 4/4/4 15/15/15 3/3/3
f 3/3/3 15/15/15 16/16/16
f 17/17/17 3/3/3 16/16/16
f 18/18/18 16/16/16 15/15/15
f 15/15/15 19/19/19 18/18/18
f 15/15/15 4/4/4 19/19/19
f 20/20/20 19/19/19 4/4/4
f 4/4/4 21/21/21 20/20/20
f 22/22/22 20/20/20 21/21/21
f 5/5/5 21/21/21 4/4/4
f 21/21/21 23/23/23 22/22/22
f 23/23/23 21/21/21 5/5/5
f 5/5/5 24/24/24 23/23/23
f 8/8/8 24/24/24 5/5/5
f 25/25/25 23/23/23 24/24/24
f 26/26/26 23/23/23 25/25/25
f 24/24/24 8/8/8 27/27/27
f 27/27/27 25/25/25 24/24/24
f 27/27/27 8/8/8 28/28/28
f 14/14/14 28/28/28 8/8/8
f 14/14/14 29/29/29 28/28/28
f 29/29/29 14/14/14 30/30/30
f 28/28/28 29/29/29 31/31/31
f 28/28/28 31/31/31 32/32/32
f 27/27/27 28/28/28 32/32/32
f 33/33/33 27/27/27 32/32/32
f 27/27/27 33/33/33 25/25/25
f 32/32/32 34/34/34 33/33/33
f 35/35/35 25/25/25 33/33/33
f 26/26/26 25/25/25 35/35/35
f 33/33/33 36/36/36 35/35/35
f 35/35/35 37/37/37 26/26/26
f 38/38/38 37/37/37 35/35/35
f 26/26/26 37/37/37 38/38/38
f 38/38/38 39/39/39 26/26/26
