g Arm_L
v -1.772706 18.76875 5.622254
v -1.082571 21.10515 7.074835
v -1.723785 21.51213 5.675076
v -1.417642 18.03703 6.612535
v -3.482863 18.26543 6.713043
v -2.205219 18.85692 4.873658
v -5.087313 18.04905 4.383175
v -6.0828 19.34191 3.902469
v -3.598656 17.81368 3.24732
v -4.626394 17.74781 2.073504
v -5.830601 18.01427 2.674777
v -6.274081 18.60849 -0.2537555
v -5.760274 17.85809 -0.0265802
v -5.357244 18.96039 0.8353619
v -0.7720383 20.81332 6.864705
v -0.4941525 21.08466 7.88738
v -1.972243 21.28746 7.991744
v -0.4714679 17.86157 7.209768
v -0.5973781 18.01328 6.4301
v -0.4714679 17.86157 7.209768
v -1.490226 17.90737 7.612313
v -0.4941525 21.08466 7.88738
v -1.972243 21.28746 7.991744
v -4.212656 20.80289 6.779217
v -2.11474 21.7005 6.325257
v -1.082571 21.10515 7.074835
v -2.96393 21.39745 5.228286
v -4.595613 19.90565 2.977245
v -4.626394 17.74781 2.073504
v -4.562458 17.77078 0.2103564
v -3.598656 17.81368 3.24732
v -2.205219 18.85692 4.873658
v -1.723785 21.51213 5.675076
v -1.772706 18.76875 5.622254
v -0.875559 21.73627 6.575807
v -0.5883008 21.72317 6.246405
v -0.6696757 21.28131 6.82444
v -0.5883008 21.72317 6.246405
v -1.723785 21.51213 5.675076
vt 0.08937578 0.05561293
vt 0.04397917 0.06496596
vt 0.04978066 0.0388588
vt 0.08541131 0.08070782
vt 0.1286928 0.07267103
vt 0.1053999 0.04536236
vt 0.1562237 0.04556416
vt 0.1868131 0.05463606
vt 0.1350329 0.02701383
vt 0.1502291 0.01306066
vt 0.1710493 0.02993809
vt 0.2098169 0.01784097
vt 0.194048 0.0042096
vt 0.2344175 0.02906565
vt 0.04334728 0.08477392
vt 0.03030852 0.09283
vt 0.01918834 0.07584195
vt 0.07403389 0.1114714
vt 0.07937607 0.09811556
vt 0.08963886 0.1073308
vt 0.1027552 0.09677327
vt 0.1207235 0.1403001
vt 0.1353393 0.1258515
vt 0.1604097 0.09446967
vt 0.1705699 0.1250307
vt 0.1538726 0.1410465
vt 0.1923494 0.1123186
vt 0.2090474 0.07128031
vt 0.2440823 0.07511231
vt 0.263898 0.03501064
vt 0.2376907 0.0944507
vt 0.2281625 0.1273599
vt 0.1852271 0.1316367
vt 0.2242152 0.1457758
vt 0.1704689 0.1463657
vt 0.178153 0.1504338
vt 0.1628796 0.1469142
vt 0.1674478 0.158319
vt 0.148613 0.1669161
vn 0.7045298 -0.4745071 -0.5277129
vn 0.719334 0.6013298 -0.3477943
vn 0.5381379 0.5180188 -0.664879
vn -0.02331277 -0.7342107 -0.6785213
vn -0.3971741 -0.8478761 0.3512247
vn 0.6758741 -0.4477 -0.5854562
vn -0.2614471 -0.9230525 0.2821692
vn -0.9004325 0.4015432 0.1672857
vn 0.677352 -0.6338028 -0.3734812
vn 0.865619 -0.39609 -0.3062949
vn -0.7597048 -0.6320871 0.1526914
vn -0.9969597 0.07155764 -0.03083714
vn -0.8266171 -0.5626569 0.01101093
vn 0.3887358 0.8847821 -0.2569925
vn 0.5288809 0.3666449 -0.7654126
vn 0.713559 0.5514284 0.4321576
vn -0.1600851 0.5971936 0.7859597
vn 0.7264773 -0.684435 0.06147684
vn 0.4265465 -0.4591932 -0.7792302
vn 0.7264773 -0.684435 0.06147684
vn -0.06658109 -0.6908738 0.719903
vn 0.713559 0.5514284 0.4321576
vn -0.1600851 0.5971936 0.7859597
vn -0.6499259 0.6110166 0.451946
vn -0.08761279 0.9876757 0.1296947
vn 0.719334 0.6013298 -0.3477943
vn -0.08159634 0.8823453 -0.4634746
vn 0.4622125 0.6006466 -0.6523675
vn 0.865619 -0.39609 -0.3062949
vn 0.8394878 0.5422179 0.03549423
vn 0.677352 -0.6338028 -0.3734812
vn 0.6758741 -0.4477 -0.5854562
vn 0.5381379 0.5180188 -0.664879
vn 0.7045298 -0.4745071 -0.5277129
vn 0.1509509 0.9018635 0.4047915
vn 0.7994236 -0.06950642 -0.5967333
vn 0.7328904 0.2849126 0.6178158
vn 0.7994236 -0.06950642 -0.5967333
vn 0.5381379 0.5180188 -0.664879
g Arm_L_0
f 3/3/3 2/2/2 1/1/1
f 4/4/4 1/1/1 2/2/2
f 1/1/1 4/4/4 5/5/5
f 6/6/6 1/1/1 5/5/5
f 6/6/6 5/5/5 7/7/7
f 8/8/8 7/7/7 5/5/5
f 7/7/7 9/9/9 6/6/6
f 7/7/7 10/10/10 9/9/9
f 7/7/7 11/11/11 10/10/10
f 11/11/11 7/7/7 8/8/8
f 11/11/11 8/8/8 12/12/12
f 12/12/12 13/13/13 11/11/11
f 14/14/14 12/12/12 8/8/8
f 2/2/2 15/15/15 4/4/4
f 16/16/16 15/15/15 2/2/2
f 2/2/2 17/17/17 16/16/16
f 15/15/15 16/16/16 18/18/18
f 18/18/18 19/19/19 15/15/15
f 19/19/19 4/4/4 15/15/15
f 4/4/4 19/19/19 20/20/20
f 21/21/21 4/4/4 20/20/20
f 21/21/21 20/20/20 22/22/22
f 21/21/21 5/5/5 4/4/4
f 22/22/22 23/23/23 21/21/21
f 5/5/5 21/21/21 23/23/23
f 23/23/23 24/24/24 5/5/5
f 5/5/5 24/24/24 8/8/8
f 23/23/23 25/25/25 24/24/24
f 23/23/23 26/26/26 25/25/25
f 8/8/8 24/24/24 27/27/27
f 25/25/25 27/27/27 24/24/24
f 27/27/27 28/28/28 8/8/8
f 8/8/8 28/28/28 14/14/14
f 29/29/29 14/14/14 28/28/28
f 30/30/30 14/14/14 29/29/29
f 29/29/29 28/28/28 31/31/31
f 32/32/32 31/31/31 28/28/28
f 28/28/28 27/27/27 32/32/32
f 32/32/32 27/27/27 33/33/33
f 33/33/33 27/27/27 25/25/25
f 33/33/33 34/34/34 32/32/32
f 33/33/33 25/25/25 35/35/35
f 35/35/35 25/25/25 26/26/26
f 35/35/35 36/36/36 33/33/33
f 26/26/26 37/37/37 35/35/35
f 37/37/37 38/38/38 35/35/35
f 38/38/38 37/37/37 26/26/26
f 26/26/26 39/39/39 38/38/38
