g Arm_White_Glove_R
v -10.18301 10.89772 1.20545
v -10.32471 8.886922 0.6177458
v -12.31907 8.670577 1.258572
v -12.29291 11.30209 1.750561
v -12.79873 8.965433 1.369569
v -10.59464 12.73021 0.5636407
v -13.21041 10.42507 1.760113
v -14.17149 10.84614 0.7692091
v -14.53208 10.13704 1.104287
v -14.10328 13.04988 0.8211603
v -12.54037 12.87159 0.3843665
v -10.69582 13.34859 -2.095617
v -13.52211 13.55142 -1.865426
v -12.72329 13.56175 -2.00369
v -10.425 12.66587 -4.100508
v -12.85713 12.76696 -4.435722
v -14.35822 12.98785 -4.437406
v -14.51789 10.6 -4.4584
v -12.85614 10.56776 -4.673246
v -10.3238 10.7971 -4.676818
v -10.60264 8.974493 -4.19
v -12.82975 8.996758 -4.377054
v -14.38588 10.77176 -2.42076
v -12.21299 8.286019 -2.001406
v -10.71699 8.287485 -1.992726
v -10.32471 8.886922 0.6177458
v -14.40073 10.77047 -0.8336226
v -12.31907 8.670577 1.258572
v -14.17149 10.84614 0.7692091
v -10.56275 13.29988 -2.096354
v -10.29722 12.644 -4.08468
v -7.097393 13.48163 -2.310117
v -7.166686 12.80021 -4.129455
v -6.236442 13.54262 -2.373358
v -6.557502 12.78144 0.2497957
v -10.46073 12.68631 0.5349861
v -10.56275 13.29988 -2.096354
v -10.05954 10.87906 1.159853
v -6.451789 11.08109 0.4322058
v -6.408668 9.416879 -0.1222895
v -10.19698 8.911549 0.6014251
v -2.457095 11.49182 0.5785439
v -2.46058 13.56242 0.5509935
v -2.389057 9.931799 0.4022961
v -6.075274 8.803754 -2.209209
v -6.919091 8.768264 -2.03143
v -10.19698 8.911549 0.6014251
v -10.58046 8.361468 -1.992193
v -2.472581 8.156721 -2.95811
v -0.06935912 10.30573 0.177885
v -0.08088989 8.877753 -2.877689
v 1.728868 11.7337 -2.928414
v -0.06924837 11.7337 0.177616
v 1.728868 11.7337 -2.928414
v -0.06955338 13.16167 0.1783528
v 1.728868 11.7337 -2.928414
v -2.433336 14.81224 -2.319003
v -0.07936513 14.58965 -2.475584
v 1.728868 11.7337 -2.928414
v -0.08444814 13.57903 -3.848099
v 1.728868 11.7337 -2.928414
v -2.477495 14.41051 -3.978277
v -6.295227 12.87665 -4.186798
v -2.477752 11.86768 -5.233823
v -6.275099 11.27746 -4.939096
v -0.08826436 12.00481 -4.896077
v 1.728868 11.7337 -2.928414
v -0.08627797 10.15723 -4.314086
v 1.728868 11.7337 -2.928414
v -7.141586 11.17384 -4.981558
v -10.29722 12.644 -4.08468
v -10.19821 10.80052 -4.624748
v -2.476957 9.639799 -5.076238
v -7.049182 9.515516 -4.213318
v -10.46792 9.053555 -4.00914
v -6.193406 9.637938 -4.398076
v -2.472581 8.156721 -2.95811
v -0.08088989 8.877753 -2.877689
v 1.728868 11.7337 -2.928414
v -6.075274 8.803754 -2.209209
v -6.919091 8.768264 -2.03143
v -10.46792 9.053555 -4.00914
v -10.58046 8.361468 -1.992193
v -10.19698 8.911549 0.6014251
v -10.32471 8.886922 0.6177458
v -10.18301 10.89772 1.20545
v -10.05954 10.87906 1.159853
v -10.46073 12.68631 0.5349861
v -10.59464 12.73021 0.5636407
v -10.69582 13.34859 -2.095617
v -10.56275 13.29988 -2.096354
v -10.425 12.66587 -4.100508
v -10.29722 12.644 -4.08468
v -10.3238 10.7971 -4.676818
v -10.19821 10.80052 -4.624748
v -10.60264 8.974493 -4.19
v -10.46792 9.053555 -4.00914
v -10.71699 8.287485 -1.992726
v -10.58046 8.361468 -1.992193
v -10.32471 8.886922 0.6177458
v -10.19698 8.911549 0.6014251
v -12.79873 8.965433 1.369569
v -14.05583 9.652792 1.966134
v -13.21041 10.42507 1.760113
v -14.05095 8.76195 1.961735
v -14.05583 9.652792 1.966134
v -14.53208 10.13704 1.104287
v -13.21041 10.42507 1.760113
v -14.77815 9.701448 1.329042
v -14.05095 8.76195 1.961735
v -14.53208 10.13704 1.104287
v -12.79873 8.965433 1.369569
v -15.64367 12.79229 0.4419417
v -14.24334 12.95433 0.6396213
v -14.41123 11.00834 0.5435451
v -15.3845 11.05307 0.5481127
v -16.84473 12.09366 0.2091353
v -16.29235 10.83221 0.4526825
v -16.738 12.08705 -0.5722166
v -15.67909 12.78036 -0.7690501
v -14.43345 13.34983 -1.00024
v -14.24334 12.95433 0.6396213
v -13.71546 13.34111 -1.871448
v -14.42821 13.32723 -2.516082
v -14.40597 12.76229 -4.273843
v -15.70666 12.81877 -1.2112
v -15.51439 12.78517 -2.991916
v -15.62655 12.80224 -2.564878
v -17.07895 12.06477 -1.439372
v -16.91797 12.05481 -2.617884
v -15.44684 12.77133 -4.343887
v -16.55612 12.06915 -3.450021
v -16.42848 12.06125 -4.384468
v -12.79873 8.965433 1.369569
v -14.17149 10.84614 0.7692091
v -14.53208 10.13704 1.104287
v -12.31907 8.670577 1.258572
v -16.738 12.08705 -0.5722166
v -16.17339 10.84015 -0.5639554
v -15.40996 11.05699 -0.6921286
v -15.67909 12.78036 -0.7690501
v -14.55114 11.04948 -0.8703639
v -14.43345 13.34983 -1.00024
v -16.17339 10.84015 -0.5639554
v -16.738 12.08705 -0.5722166
v -16.84473 12.09366 0.2091353
v -16.29235 10.83221 0.4526825
v -15.3845 11.05307 0.5481127
v -15.40996 11.05699 -0.6921286
v -14.41123 11.00834 0.5435451
v -14.55114 11.04948 -0.8703639
v -15.47794 11.0671 -1.117721
v -16.51907 10.85134 -1.415025
v -17.07895 12.06477 -1.439372
v -15.70666 12.81877 -1.2112
v -14.55114 11.04948 -0.8703639
v -14.43345 13.34983 -1.00024
v -16.91797 12.05481 -2.617884
v -16.3803 10.8606 -2.600963
v -15.40394 11.07302 -2.506297
v -15.62655 12.80224 -2.564878
v -14.56591 11.01746 -2.421061
v -14.42821 13.32723 -2.516082
v -15.27433 11.0695 -2.933612
v -16.01891 10.85723 -3.429064
v -16.55612 12.06915 -3.450021
v -15.51439 12.78517 -2.991916
v -14.56591 11.01746 -2.421061
v -14.42821 13.32723 -2.516082
v -16.3803 10.8606 -2.600963
v -16.91797 12.05481 -2.617884
v -17.07895 12.06477 -1.439372
v -16.51907 10.85134 -1.415025
v -15.40394 11.07302 -2.506297
v -15.47794 11.0671 -1.117721
v -14.56591 11.01746 -2.421061
v -14.55114 11.04948 -0.8703639
v -15.27433 11.0695 -2.933612
v -14.56591 11.01746 -2.421061
v -14.54016 10.93828 -4.319776
v -15.21024 11.075 -4.369242
v -16.01891 10.85723 -3.429064
v -15.90656 10.86473 -4.389146
v -16.55612 12.06915 -3.450021
v -16.42848 12.06125 -4.384468
v -16.42848 12.06125 -4.384468
v -15.44684 12.77133 -4.343887
v -14.40597 12.76229 -4.273843
v -14.54016 10.93828 -4.319776
v -14.17149 10.84614 0.7692091
v -14.41123 11.00834 0.5435451
v -14.10328 13.04988 0.8211603
v -14.24334 12.95433 0.6396213
v -13.52211 13.55142 -1.865426
v -13.71546 13.34111 -1.871448
v -14.40597 12.76229 -4.273843
v -14.35822 12.98785 -4.437406
v -14.54016 10.93828 -4.319776
v -14.51789 10.6 -4.4584
v -14.38588 10.77176 -2.42076
v -14.56591 11.01746 -2.421061
v -14.55114 11.04948 -0.8703639
v -14.40073 10.77047 -0.8336226
v -14.41123 11.00834 0.5435451
v -14.17149 10.84614 0.7692091
vt 0.7940295 0.3071493
vt 0.7970555 0.3429866
vt 0.8368827 0.3419561
vt 0.8360878 0.2980807
vt 0.8464369 0.3373076
vt 0.7927756 0.2709327
vt 0.8554932 0.3171313
vt 0.8748142 0.2962715
vt 0.8728882 0.3087613
vt 0.8760598 0.2598439
vt 0.840617 0.2594241
vt 0.779955 0.2144618
vt 0.8550603 0.2059284
vt 0.8360404 0.206083
vt 0.7687799 0.167755
vt 0.8305773 0.1521324
vt 0.8662775 0.1478444
vt 0.8645348 0.120078
vt 0.8200833 0.1311399
vt 0.764071 0.14546
vt 0.7628069 0.1131329
vt 0.8109192 0.1070443
vt 0.8619378 0.07955185
vt 0.7998486 0.06528055
vt 0.7650764 0.06302413
vt 0.7692409 0.009995671
vt 0.8577484 0.04728512
vt 0.8134758 0.003387463
vt 0.8498461 0.01666067
vt 0.2376592 0.2429946
vt 0.2554033 0.2412981
vt 0.2357237 0.2180807
vt 0.255681 0.2158622
vt 0.2360864 0.2092544
vt 0.2162432 0.2097457
vt 0.2165022 0.2451911
vt 0.2376592 0.2429946
vt 0.1978042 0.2524443
vt 0.1980028 0.2105739
vt 0.170985 0.2053901
vt 0.1760455 0.2527556
vt 0.1982461 0.1712702
vt 0.2164179 0.1702365
vt 0.1752818 0.1665339
vt 0.1458039 0.2018321
vt 0.1471746 0.2098839
vt 0.1760455 0.2527556
vt 0.1458284 0.2561795
vt 0.1421836 0.1659395
vt 0.1769635 0.1440375
vt 0.1431807 0.1427913
vt 0.1533556 0.1117434
vt 0.1908928 0.1418923
vt 0.1793217 0.1117434
vt 0.2051369 0.142935
vt 0.1954214 0.1117434
vt 0.234908 0.1637487
vt 0.2347052 0.141044
vt 0.2228165 0.1117434
vt 0.2526763 0.1403227
vt 0.256006 0.1117434
vt 0.248867 0.1645452
vt 0.2560845 0.2068795
vt 0.2736281 0.1663027
vt 0.2742782 0.2077229
vt 0.2728061 0.1409364
vt 0.2642542 0.1117434
vt 0.2939458 0.1415763
vt 0.2817743 0.1117434
vt 0.2741452 0.2163738
vt 0.2554033 0.2412981
vt 0.2730885 0.2427959
vt 0.2938117 0.1673311
vt 0.2925661 0.2187234
vt 0.2895483 0.2490431
vt 0.2920935 0.2094683
vt 0.3190743 0.1685647
vt 0.314859 0.1410841
vt 0.2911319 0.1117434
vt 0.3150209 0.207228
vt 0.3150987 0.2161402
vt 0.2895483 0.2490431
vt 0.3090625 0.2555495
vt 0.7797207 0.3454686
vt 0.7970555 0.3429866
vt 0.7940295 0.3071493
vt 0.7826596 0.308211
vt 0.7789009 0.2738274
vt 0.7927756 0.2709327
vt 0.779955 0.2144618
vt 0.7630849 0.2216888
vt 0.7687799 0.167755
vt 0.7534244 0.1718515
vt 0.764071 0.14546
vt 0.7464449 0.1445043
vt 0.7628069 0.1131329
vt 0.7448756 0.1088046
vt 0.7650764 0.06302413
vt 0.7432325 0.06334159
vt 0.7692409 0.009995671
vt 0.7490569 0.009996563
vt 0.8755792 0.7867252
vt 0.8984483 0.7711038
vt 0.8824574 0.7590805
vt 0.9005729 0.7868254
vt 0.8984483 0.7711038
vt 0.9044279 0.7562968
vt 0.8824574 0.7590805
vt 0.9045704 0.7622755
vt 0.9126496 0.7744369
vt 0.9044279 0.7562968
vt 0.9288005 0.7668342
vt 0.9350863 0.6981416
vt 0.9063427 0.7050611
vt 0.9154108 0.721749
vt 0.9407346 0.7128422
vt 0.9636524 0.6916307
vt 0.9633469 0.7045979
vt 0.9608468 0.675494
vt 0.9343177 0.6730058
vt 0.9055945 0.6700812
vt 0.9063427 0.7050611
vt 0.8870224 0.6485722
vt 0.9013041 0.6364545
vt 0.8944021 0.5936692
vt 0.9362094 0.6617263
vt 0.9256781 0.6189131
vt 0.9306114 0.6311057
vt 0.9716418 0.651697
vt 0.9647459 0.6249321
vt 0.9178377 0.5887245
vt 0.9518236 0.602291
vt 0.9448511 0.581695
vt 0.8748142 0.2962715
vt 0.8862262 0.3068465
vt 0.8728883 0.3090917
vt 0.8859037 0.2949188
vt 0.8651381 0.4973755
vt 0.8645321 0.4906512
vt 0.8595966 0.4901907
vt 0.8574376 0.4985232
vt 0.8545837 0.4885079
vt 0.8489226 0.4987466
vt 0.9224035 0.485624
vt 0.9521399 0.484577
vt 0.9524726 0.4674412
vt 0.9223003 0.4635494
vt 0.9021024 0.4641477
vt 0.9058222 0.4902109
vt 0.8854445 0.4664586
vt 0.8888894 0.4949664
vt 0.8575283 0.4901923
vt 0.8635853 0.4902046
vt 0.866071 0.4964769
vt 0.8577999 0.4985106
vt 0.8522547 0.4891777
vt 0.8502268 0.4996305
vt 0.8619447 0.4980874
vt 0.8613313 0.4912215
vt 0.8571844 0.4907297
vt 0.8559974 0.4997196
vt 0.8537283 0.4894521
vt 0.8506871 0.500392
vt 0.8574035 0.4903597
vt 0.8624619 0.4900812
vt 0.864494 0.4970419
vt 0.8573312 0.4993246
vt 0.8525655 0.4896374
vt 0.8500471 0.500721
vt 0.9306731 0.5264938
vt 0.9575239 0.5255892
vt 0.9579172 0.5011736
vt 0.9304858 0.501971
vt 0.9101496 0.5270807
vt 0.9079925 0.4985537
vt 0.893223 0.526768
vt 0.8892646 0.496562
vt 0.9086301 0.5373649
vt 0.8934073 0.5289263
vt 0.8951041 0.5675573
vt 0.9095789 0.5675327
vt 0.9255396 0.5464678
vt 0.9248523 0.5667797
vt 0.9534252 0.5466017
vt 0.9523814 0.5664486
vt 0.9248135 0.5759186
vt 0.9102713 0.5788321
vt 0.8950596 0.5787371
vt 0.8951041 0.5675573
vt 0.8748142 0.2962715
vt 0.8859037 0.2949188
vt 0.8760598 0.2598439
vt 0.885242 0.2521147
vt 0.8550603 0.2059284
vt 0.869762 0.202729
vt 0.8789011 0.1445867
vt 0.8662775 0.1478444
vt 0.8764641 0.1172545
vt 0.8645348 0.120078
vt 0.8619378 0.07955185
vt 0.8728524 0.07872634
vt 0.8684968 0.04311735
vt 0.8577484 0.04728512
vt 0.8635851 0.01942465
vt 0.8498461 0.01666067
vn 0.2354666 0.05037678 0.9705759
vn 0.2064956 -0.7389911 0.641289
vn -0.130236 -0.7967231 0.5901448
vn 0.1055496 0.1731954 0.9792154
vn -0.09459151 -0.9672663 0.2354751
vn 0.1224923 0.8004078 0.5868075
vn -0.2102965 0.2303821 0.950105
vn -0.8202887 -0.2181705 0.5287041
vn -0.9120877 -0.002178254 -0.4099892
vn -0.02033756 0.7534121 0.657234
vn 0.1382036 0.8728316 0.4680435
vn 0.08574408 0.9949439 -0.0522917
vn 0.1040792 0.9945673 -0.001869787
vn 0.09126068 0.9950959 -0.03815169
vn 0.08303929 0.655507 -0.7506098
vn 0.04705293 0.6061803 -0.7939341
vn -0.00765077 0.5324472 -0.8464286
vn -0.4136314 -0.3449843 -0.8425526
vn 0.007271711 -0.004945537 -0.9999614
vn 0.05635996 0.02768197 -0.9980267
vn 0.03296046 -0.6863817 -0.7264942
vn -0.2967394 -0.7482179 -0.5933934
vn -0.7387679 -0.6736457 0.02057612
vn -0.3011446 -0.9531399 -0.028919
vn 0.05644854 -0.9975668 -0.04091386
vn 0.2064956 -0.7389911 0.641289
vn -0.7490612 -0.6604059 0.05264313
vn -0.130236 -0.7967231 0.5901448
vn -0.8202887 -0.2181705 0.5287041
vn -0.06127544 0.9407369 -0.3335559
vn -0.06127544 0.9407369 -0.3335558
vn -0.0432905 0.9990296 0.008106643
vn -0.08231259 0.7457198 -0.6611555
vn -0.2689171 0.9600055 0.07792986
vn -0.08912563 0.7135018 0.6949618
vn 0.04030441 0.7925513 0.6084719
vn -0.01963404 0.9686713 0.2475691
vn 0.1727731 -0.03118549 0.9844678
vn 0.05436728 -0.05859644 0.9968002
vn 0.08014006 -0.750519 0.6559716
vn 0.2109658 -0.2914058 0.9330466
vn 0.01223202 -0.05267575 0.9985368
vn -0.0684917 0.7104594 0.7003973
vn 0.07409952 -0.7151719 0.6950096
vn -0.06007115 -0.9970217 0.04836337
vn 0.1197786 -0.9924676 -0.02571281
vn 0.141329 -0.9632605 0.2283755
vn 0.141329 -0.9632605 0.2283755
vn 0.05662138 -0.9983546 -0.009054462
vn 0.452955 -0.6345018 0.62629
vn 0.472806 -0.8802281 0.04065759
vn 0.999377 -0.03391242 -0.009782116
vn 0.4783693 -0.01270881 0.8780667
vn 0.999377 -0.03391242 -0.009782116
vn 0.443435 0.5849007 0.6791588
vn 0.999377 -0.03391242 -0.009782116
vn -0.1108327 0.9861346 0.12351
vn 0.438831 0.889596 0.1266734
vn 0.999377 -0.03391242 -0.009782116
vn 0.3615552 0.6289966 -0.688216
vn 0.999377 -0.03391242 -0.009782116
vn -0.09224693 0.7518094 -0.6528959
vn -0.1980501 0.6756555 -0.7101167
vn 0.004481016 0.1812233 -0.9834318
vn -0.1150673 0.1275893 -0.9851297
vn 0.3565082 0.1766573 -0.9174389
vn 0.999377 -0.03391242 -0.009782116
vn 0.4374976 -0.4858203 -0.7566865
vn 0.999377 -0.03391242 -0.009782116
vn -0.06294585 0.01452431 -0.9979112
vn -0.09155221 0.3679799 -0.9253156
vn -0.06311589 -0.04543075 -0.9969716
vn 0.01838457 -0.5808451 -0.8138065
vn 0.0372222 -0.762347 -0.6460971
vn -0.03191431 -0.3748643 -0.9265302
vn -0.133648 -0.6502807 -0.7478458
vn 0.05662138 -0.9983546 -0.009054462
vn 0.472806 -0.8802281 0.04065759
vn 0.999377 -0.03391242 -0.009782116
vn -0.06007115 -0.9970217 0.04836337
vn 0.1197786 -0.9924676 -0.02571281
vn 0.1043226 -0.9406684 -0.3228927
vn 0.1043226 -0.9406684 -0.3228927
vn 0.3472076 -0.7311327 0.5872747
vn 0.355224 -0.7859296 0.5060936
vn 0.3109357 0.08300915 0.946799
vn 0.29734 -0.001768419 0.9547701
vn 0.3760818 0.7484866 0.546196
vn 0.3724603 0.8026789 0.465811
vn 0.3197123 0.9474576 0.01040197
vn 0.3169035 0.9484153 -0.008979565
vn 0.2981522 0.7262927 -0.6193579
vn 0.2989267 0.6739733 -0.6755759
vn 0.5578539 -0.06943653 -0.8270294
vn 0.5402556 -0.04276131 -0.8404138
vn 0.6794832 -0.5424094 -0.4940594
vn 0.6626643 -0.6182818 -0.4226151
vn 0.4871117 -0.8723304 -0.04197508
vn 0.4836631 -0.8744947 -0.03645466
vn 0.355224 -0.7859296 0.5060936
vn 0.3472076 -0.7311327 0.5872747
vn 0.3887405 -0.08525091 0.9173948
vn 0.002549292 0.1776871 0.9840837
vn 0.3887406 -0.08525091 0.9173948
vn 0.04735539 -0.9974124 0.05409214
vn 0.002549292 0.1776871 0.9840837
vn -0.4635722 0.6381372 0.6147208
vn -0.4635721 0.6381373 0.6147208
vn -0.6600036 -0.3990911 -0.6364916
vn 0.04735539 -0.9974124 0.05409214
vn -0.1944838 -0.5671118 -0.8003501
vn -0.1944838 -0.5671118 -0.8003501
vn -0.3090853 0.6101079 0.7295441
vn -0.08112599 0.000720803 0.9967036
vn -0.081126 0.000720803 0.9967036
vn -0.07434525 -0.4163548 0.9061575
vn -0.7787558 0.2523728 0.5743233
vn -0.45545 -0.5038799 0.7339417
vn -0.7439579 0.2218543 -0.6303232
vn -0.3803751 0.6009232 -0.7029978
vn -0.3142003 0.9418014 0.1195337
vn -0.2227743 0.9625435 0.1545366
vn 0.1159786 0.9925293 -0.03787379
vn -0.3087331 0.9367243 -0.1650196
vn -0.08088118 0.7167051 -0.6926702
vn -0.4346411 0.6034443 0.6685373
vn -0.5681145 0.5938779 0.5696973
vn -0.2640235 0.6257361 -0.7339931
vn -0.8016804 0.3077689 0.5124323
vn -0.6802317 0.3208203 -0.6590593
vn -0.249842 0.7038211 -0.6649924
vn -0.8734179 0.2178433 0.435529
vn -0.7139596 0.2641963 -0.6484303
vn -0.09459151 -0.9672663 0.2354751
vn -0.8202887 -0.2181705 0.5287041
vn -0.9120877 -0.002178254 -0.4099892
vn -0.130236 -0.7967231 0.5901448
vn -0.7439579 0.2218543 -0.6303232
vn -0.3876611 -0.634973 -0.6682277
vn -0.10016 -0.5210049 -0.8476568
vn -0.3803751 0.6009232 -0.7029978
vn -0.1759375 -0.05712953 -0.9827422
vn -0.3142003 0.9418014 0.1195337
vn -0.3876611 -0.634973 -0.6682277
vn -0.7439579 0.2218543 -0.6303232
vn -0.7787558 0.2523728 0.5743233
vn -0.45545 -0.5038799 0.7339417
vn -0.07434525 -0.4163548 0.9061575
vn -0.10016 -0.5210049 -0.8476568
vn -0.03000452 -0.9994356 -0.01510253
vn -0.03000452 -0.9994356 -0.01510253
vn -0.1522599 -0.4794371 0.8642668
vn -0.4742121 -0.630302 0.6146888
vn -0.8016804 0.3077689 0.5124323
vn -0.4346411 0.6034443 0.6685373
vn -0.2144131 0.04790057 0.9755678
vn -0.3142003 0.9418014 0.1195337
vn -0.6802317 0.3208203 -0.6590593
vn -0.3085541 -0.6314437 -0.7113882
vn 0.1058079 -0.5367852 -0.8370581
vn -0.2640235 0.6257361 -0.7339931
vn 0.07397313 -0.0363454 -0.9965977
vn -0.3087331 0.9367243 -0.1650196
vn -0.4130678 -0.4832741 0.7718946
vn -0.5651914 -0.6395471 0.5210934
vn -0.8734179 0.2178433 0.435529
vn -0.5681145 0.5938779 0.5696973
vn -0.4866896 0.02088916 0.8733253
vn -0.3087331 0.9367243 -0.1650196
vn -0.3085541 -0.6314437 -0.7113882
vn -0.6802317 0.3208203 -0.6590593
vn -0.8016804 0.3077689 0.5124323
vn -0.4742121 -0.630302 0.6146888
vn 0.1058079 -0.5367852 -0.8370581
vn -0.1522599 -0.4794371 0.8642668
vn -0.04293104 -0.9990459 0.00800505
vn -0.04293104 -0.9990459 0.008005051
vn -0.4130678 -0.4832741 0.7718946
vn -0.1428478 -0.9895806 0.0180204
vn -0.1428478 -0.9895806 0.0180204
vn 0.06716804 -0.5056907 -0.8600962
vn -0.5651914 -0.6395471 0.5210934
vn -0.3509221 -0.6120819 -0.7086673
vn -0.8734179 0.2178433 0.435529
vn -0.7139596 0.2641963 -0.6484303
vn -0.7139596 0.2641963 -0.6484303
vn -0.249842 0.7038211 -0.6649924
vn -0.08088118 0.7167051 -0.6926702
vn 0.0715514 0.02227469 -0.9971882
vn -0.8182115 -0.2254399 0.5288731
vn -0.8329955 -0.3172413 0.4532952
vn -0.8108222 0.4424104 0.3831975
vn -0.8076383 0.4711105 0.354648
vn -0.7657327 0.6402571 0.06102595
vn -0.7736518 0.6299273 0.06822421
vn -0.9317343 0.3630151 -0.009547362
vn -0.8939584 0.4432976 0.06576905
vn -0.9823899 -0.1673703 -0.08304907
vn -0.9616139 -0.2743975 -0.002200364
vn -0.9042897 -0.4259593 0.02861625
vn -0.9030777 -0.4285592 0.02806688
vn -0.818211 -0.5730503 0.04630642
vn -0.812025 -0.5810524 0.05471369
vn -0.8329955 -0.3172413 0.4532952
vn -0.8182115 -0.2254399 0.5288731
g Arm_White_Glove_R_0
f 3/3/3 2/2/2 1/1/1
f 3/3/3 1/1/1 4/4/4
f 5/5/5 3/3/3 4/4/4
f 4/4/4 1/1/1 6/6/6
f 4/4/4 7/7/7 5/5/5
f 7/7/7 4/4/4 8/8/8
f 8/8/8 9/9/9 7/7/7
f 10/10/10 8/8/8 4/4/4
f 4/4/4 6/6/6 11/11/11
f 11/11/11 10/10/10 4/4/4
f 6/6/6 12/12/12 11/11/11
f 13/13/13 10/10/10 11/11/11
f 12/12/12 14/14/14 11/11/11
f 11/11/11 14/14/14 13/13/13
f 14/14/14 12/12/12 15/15/15
f 13/13/13 14/14/14 16/16/16
f 15/15/15 16/16/16 14/14/14
f 16/16/16 17/17/17 13/13/13
f 17/17/17 16/16/16 18/18/18
f 19/19/19 16/16/16 15/15/15
f 18/18/18 16/16/16 19/19/19
f 15/15/15 20/20/20 19/19/19
f 19/19/19 20/20/20 21/21/21
f 18/18/18 19/19/19 22/22/22
f 22/22/22 19/19/19 21/21/21
f 18/18/18 22/22/22 23/23/23
f 24/24/24 22/22/22 21/21/21
f 23/23/23 22/22/22 24/24/24
f 21/21/21 25/25/25 24/24/24
f 24/24/24 25/25/25 26/26/26
f 27/27/27 23/23/23 24/24/24
f 24/24/24 26/26/26 28/28/28
f 24/24/24 28/28/28 27/27/27
f 27/27/27 28/28/28 29/29/29
f 32/32/32 31/31/31 30/30/30
f 31/31/31 32/32/32 33/33/33
f 32/32/32 34/34/34 33/33/33
f 34/34/34 32/32/32 35/35/35
f 36/36/36 35/35/35 32/32/32
f 32/32/32 37/37/37 36/36/36
f 36/36/36 38/38/38 35/35/35
f 38/38/38 39/39/39 35/35/35
f 38/38/38 40/40/40 39/39/39
f 40/40/40 38/38/38 41/41/41
f 42/42/42 35/35/35 39/39/39
f 34/34/34 35/35/35 43/43/43
f 35/35/35 42/42/42 43/43/43
f 44/44/44 39/39/39 40/40/40
f 39/39/39 44/44/44 42/42/42
f 40/40/40 45/45/45 44/44/44
f 46/46/46 45/45/45 40/40/40
f 46/46/46 40/40/40 47/47/47
f 47/47/47 48/48/48 46/46/46
f 45/45/45 49/49/49 44/44/44
f 50/50/50 44/44/44 49/49/49
f 50/50/50 42/42/42 44/44/44
f 49/49/49 51/51/51 50/50/50
f 52/52/52 50/50/50 51/51/51
f 42/42/42 50/50/50 53/53/53
f 54/54/54 53/53/53 50/50/50
f 42/42/42 53/53/53 55/55/55
f 55/55/55 53/53/53 56/56/56
f 42/42/42 55/55/55 43/43/43
f 57/57/57 43/43/43 55/55/55
f 43/43/43 57/57/57 34/34/34
f 55/55/55 58/58/58 57/57/57
f 59/59/59 58/58/58 55/55/55
f 57/57/57 58/58/58 60/60/60
f 61/61/61 60/60/60 58/58/58
f 57/57/57 62/62/62 34/34/34
f 60/60/60 62/62/62 57/57/57
f 62/62/62 63/63/63 34/34/34
f 63/63/63 33/33/33 34/34/34
f 64/64/64 62/62/62 60/60/60
f 63/63/63 62/62/62 64/64/64
f 33/33/33 63/63/63 65/65/65
f 65/65/65 63/63/63 64/64/64
f 60/60/60 66/66/66 64/64/64
f 66/66/66 60/60/60 67/67/67
f 64/64/64 66/66/66 68/68/68
f 68/68/68 66/66/66 69/69/69
f 33/33/33 65/65/65 70/70/70
f 71/71/71 33/33/33 70/70/70
f 70/70/70 72/72/72 71/71/71
f 65/65/65 64/64/64 73/73/73
f 64/64/64 68/68/68 73/73/73
f 72/72/72 70/70/70 74/74/74
f 74/74/74 75/75/75 72/72/72
f 70/70/70 65/65/65 76/76/76
f 73/73/73 76/76/76 65/65/65
f 74/74/74 70/70/70 76/76/76
f 77/77/77 73/73/73 68/68/68
f 76/76/76 73/73/73 77/77/77
f 68/68/68 78/78/78 77/77/77
f 78/78/78 68/68/68 79/79/79
f 80/80/80 76/76/76 77/77/77
f 74/74/74 76/76/76 80/80/80
f 74/74/74 80/80/80 81/81/81
f 82/82/82 74/74/74 81/81/81
f 81/81/81 83/83/83 82/82/82
f 86/86/86 85/85/85 84/84/84
f 84/84/84 87/87/87 86/86/86
f 86/86/86 87/87/87 88/88/88
f 86/86/86 88/88/88 89/89/89
f 90/90/90 89/89/89 88/88/88
f 88/88/88 91/91/91 90/90/90
f 92/92/92 90/90/90 91/91/91
f 91/91/91 93/93/93 92/92/92
f 94/94/94 92/92/92 93/93/93
f 93/93/93 95/95/95 94/94/94
f 96/96/96 94/94/94 95/95/95
f 95/95/95 97/97/97 96/96/96
f 98/98/98 96/96/96 97/97/97
f 97/97/97 99/99/99 98/98/98
f 100/100/100 98/98/98 99/99/99
f 99/99/99 101/101/101 100/100/100
f 104/104/104 103/103/103 102/102/102
f 103/103/103 105/105/105 102/102/102
f 108/108/108 107/107/107 106/106/106
f 107/107/107 109/109/109 106/106/106
f 109/109/109 110/110/110 106/106/106
f 110/110/110 109/109/109 111/111/111
f 111/111/111 112/112/112 110/110/110
f 115/115/115 114/114/114 113/113/113
f 113/113/113 116/116/116 115/115/115
f 116/116/116 113/113/113 117/117/117
f 117/117/117 118/118/118 116/116/116
f 113/113/113 119/119/119 117/117/117
f 120/120/120 119/119/119 113/113/113
f 121/121/121 120/120/120 113/113/113
f 122/122/122 121/121/121 113/113/113
f 121/121/121 122/122/122 123/123/123
f 121/121/121 123/123/123 124/124/124
f 123/123/123 125/125/125 124/124/124
f 124/124/124 126/126/126 121/121/121
f 125/125/125 127/127/127 124/124/124
f 124/124/124 128/128/128 126/126/126
f 128/128/128 129/129/129 126/126/126
f 128/128/128 130/130/130 129/129/129
f 125/125/125 131/131/131 127/127/127
f 131/131/131 132/132/132 127/127/127
f 131/131/131 133/133/133 132/132/132
f 136/136/136 135/135/135 134/134/134
f 137/137/137 134/134/134 135/135/135
f 140/140/140 139/139/139 138/138/138
f 138/138/138 141/141/141 140/140/140
f 142/142/142 140/140/140 141/141/141
f 141/141/141 143/143/143 142/142/142
f 146/146/146 145/145/145 144/144/144
f 144/144/144 147/147/147 146/146/146
f 148/148/148 147/147/147 144/144/144
f 144/144/144 149/149/149 148/148/148
f 149/149/149 150/150/150 148/148/148
f 149/149/149 151/151/151 150/150/150
f 154/154/154 153/153/153 152/152/152
f 152/152/152 155/155/155 154/154/154
f 155/155/155 152/152/152 156/156/156
f 156/156/156 157/157/157 155/155/155
f 160/160/160 159/159/159 158/158/158
f 158/158/158 161/161/161 160/160/160
f 162/162/162 160/160/160 161/161/161
f 161/161/161 163/163/163 162/162/162
f 166/166/166 165/165/165 164/164/164
f 164/164/164 167/167/167 166/166/166
f 167/167/167 164/164/164 168/168/168
f 168/168/168 169/169/169 167/167/167
f 172/172/172 171/171/171 170/170/170
f 170/170/170 173/173/173 172/172/172
f 173/173/173 170/170/170 174/174/174
f 174/174/174 175/175/175 173/173/173
f 175/175/175 174/174/174 176/176/176
f 176/176/176 177/177/177 175/175/175
f 180/180/180 179/179/179 178/178/178
f 178/178/178 181/181/181 180/180/180
f 181/181/181 178/178/178 182/182/182
f 182/182/182 183/183/183 181/181/181
f 183/183/183 182/182/182 184/184/184
f 184/184/184 185/185/185 183/183/183
f 181/181/181 183/183/183 186/186/186
f 186/186/186 187/187/187 181/181/181
f 187/187/187 188/188/188 181/181/181
f 189/189/189 181/181/181 188/188/188
f 192/192/192 191/191/191 190/190/190
f 192/192/192 193/193/193 191/191/191
f 193/193/193 192/192/192 194/194/194
f 194/194/194 195/195/195 193/193/193
f 196/196/196 195/195/195 194/194/194
f 194/194/194 197/197/197 196/196/196
f 198/198/198 196/196/196 197/197/197
f 197/197/197 199/199/199 198/198/198
f 199/199/199 200/200/200 198/198/198
f 198/198/198 200/200/200 201/201/201
f 202/202/202 201/201/201 200/200/200
f 200/200/200 203/203/203 202/202/202
f 204/204/204 202/202/202 203/203/203
f 203/203/203 205/205/205 204/204/204
