g Arm_L
v 9.838023 8.500331 -1.978193
v 9.982482 9.094298 -3.782947
v 6.920681 8.767846 -2.03694
v 7.051003 9.515099 -4.218807
v 10.12289 10.8169 -4.471302
v 6.076885 8.803336 -2.214808
v 7.143486 11.17342 -4.987036
v 10.18479 12.53604 -3.944285
v 6.195259 9.637519 -4.403656
v 2.474314 8.156302 -2.964231
v 7.16849 12.79979 -4.134935
v 6.277012 11.27704 -4.944664
v 2.47899 9.63938 -5.082345
v 0.08824196 10.15682 -4.320632
v 0.08262621 8.877336 -2.884237
v -1.727121 11.73328 -2.935236
v 2.479819 11.86726 -5.239942
v 7.09901 13.48121 -2.315613
v 10.08705 13.11999 -2.103566
v 9.929498 12.54826 0.4686879
v 6.297056 12.87624 -4.192367
v 6.238071 13.5422 -2.378938
v 6.558845 12.78102 0.2442419
v 0.09031214 12.00439 -4.902602
v -1.727121 11.73328 -2.935236
v 2.47937 14.41009 -3.984383
v 0.08633437 13.57861 -3.854632
v -1.727121 11.73328 -2.935236
v 2.434977 14.81182 -2.32513
v 6.45311 11.08067 0.4266401
v 9.801541 10.80279 0.9194404
v 2.461803 13.56201 0.5448582
v 0.0810367 14.58923 -2.482101
v -1.727121 11.73328 -2.935236
v 0.07081088 13.16125 0.1718065
v -1.727121 11.73328 -2.935236
v 2.458281 11.4914 0.5723662
v 6.410048 9.416461 -0.1278579
v 9.752825 9.060795 0.324896
v 6.920681 8.767846 -2.03694
v 9.838023 8.500331 -1.978193
v 6.076885 8.803336 -2.214808
v 2.390279 9.931381 0.3961191
v 2.474314 8.156302 -2.964231
v 0.07060826 10.30531 0.1713179
v 0.08262621 8.877336 -2.884237
v -1.727121 11.73328 -2.935236
v 0.07049334 11.73328 0.1710386
v -1.727121 11.73328 -2.935236
v -1.727121 11.73328 -2.935236
v 9.801541 10.80279 0.9194404
v 12.30498 8.847114 1.129853
v 9.752825 9.060795 0.324896
v 12.31131 11.24555 1.534993
v 9.929498 12.54826 0.4686879
v 14.05637 9.649166 1.960339
v 14.05086 8.758328 1.955871
v 12.57984 12.68577 0.2678795
v 10.08705 13.11999 -2.103566
v 14.3149 10.91731 0.653652
v 14.7787 9.697361 1.323224
v 14.05086 8.758328 1.955871
v 12.30498 8.847114 1.129853
v 14.22699 12.9344 0.7082474
v 12.74348 13.34267 -2.002057
v 10.18479 12.53604 -3.944285
v 14.4365 13.34617 -1.005765
v 12.8735 12.62909 -4.271765
v 10.12289 10.8169 -4.471302
v 14.43119 13.32369 -2.521609
v 15.64638 12.78765 0.4363317
v 15.68175 12.7758 -0.7746623
v 16.74018 12.08172 -0.5779192
v 16.84694 12.08819 0.2034295
v 15.70933 12.81422 -1.21681
v 15.38598 11.04861 0.542378
v 14.3149 10.91731 0.653652
v 16.29367 10.82712 0.446899
v 15.62916 12.79786 -2.570487
v 17.08108 12.05927 -1.445089
v 16.92005 12.04951 -2.623595
v 14.41854 12.87388 -4.308311
v 15.51697 12.78089 -2.997522
v 15.44937 12.7672 -4.349492
v 16.55818 12.06417 -3.455718
v 16.4305 12.05643 -4.390162
v 14.48155 10.92307 -4.354872
v 12.85759 10.57744 -4.461778
v 12.76098 9.149265 -4.246353
v 9.982482 9.094298 -3.782947
v 12.14459 8.49072 -1.997031
v 9.838023 8.500331 -1.978193
v 9.752825 9.060795 0.324896
v 12.30498 8.847114 1.129853
v 14.49556 10.91949 -2.424944
v 14.50965 10.91652 -0.8487722
v 14.3149 10.91731 0.653652
v 15.38598 11.04861 0.542378
v 15.4114 11.05261 -0.6978638
v 16.17468 10.83522 -0.5697341
v 16.29367 10.82712 0.446899
v 16.84694 12.08819 0.2034295
v 16.74018 12.08172 -0.5779192
v 15.47938 11.0627 -1.123458
v 15.40533 11.06878 -2.512031
v 16.52034 10.84623 -1.420815
v 16.38153 10.85567 -2.606747
v 17.08108 12.05927 -1.445089
v 16.92005 12.04951 -2.623595
v 15.2757 11.06539 -2.939342
v 15.21157 11.07104 -4.374969
v 14.41854 12.87388 -4.308311
v 15.44937 12.7672 -4.349492
v 16.4305 12.05643 -4.390162
v 16.02011 10.85263 -3.434836
v 15.90774 10.86028 -4.394914
v 16.55818 12.06417 -3.455718
v 16.4305 12.05643 -4.390162
v 16.55818 12.06417 -3.455718
v 16.02011 10.85263 -3.434836
v 15.2757 11.06539 -2.939342
v 15.51697 12.78089 -2.997522
v 14.49556 10.91949 -2.424944
v 14.43119 13.32369 -2.521609
v 15.40533 11.06878 -2.512031
v 16.38153 10.85567 -2.606747
v 16.92005 12.04951 -2.623595
v 15.62916 12.79786 -2.570487
v 14.49556 10.91949 -2.424944
v 14.43119 13.32369 -2.521609
v 17.08108 12.05927 -1.445089
v 16.52034 10.84623 -1.420815
v 15.47938 11.0627 -1.123458
v 15.70933 12.81422 -1.21681
v 14.50965 10.91652 -0.8487722
v 14.4365 13.34617 -1.005765
v 15.4114 11.05261 -0.6978638
v 16.17468 10.83522 -0.5697341
v 16.74018 12.08172 -0.5779192
v 15.68175 12.7758 -0.7746623
v 14.50965 10.91652 -0.8487722
v 14.4365 13.34617 -1.005765
vt 0.311866 0.2463236
vt 0.2923039 0.2439837
vt 0.3150987 0.2161402
vt 0.2925661 0.2128114
vt 0.2732033 0.2415093
vt 0.3150209 0.207228
vt 0.2741452 0.2104618
vt 0.2547112 0.2400235
vt 0.2920935 0.2035563
vt 0.3190743 0.1685647
vt 0.255681 0.2090406
vt 0.2742782 0.2018108
vt 0.2938117 0.1673311
vt 0.2939458 0.1415763
vt 0.314859 0.1410841
vt 0.2911319 0.1117434
vt 0.2736281 0.1663027
vt 0.2392371 0.2079497
vt 0.2348801 0.2388834
vt 0.2079717 0.2389649
vt 0.2560845 0.2000579
vt 0.239061 0.1998601
vt 0.2112184 0.2077061
vt 0.2728061 0.1409364
vt 0.2817743 0.1117434
vt 0.2492834 0.1638704
vt 0.2526763 0.1403227
vt 0.2642542 0.1117434
vt 0.2358308 0.1628514
vt 0.1898649 0.2092522
vt 0.1898104 0.2398225
vt 0.2093426 0.1655739
vt 0.2347052 0.141044
vt 0.256006 0.1117434
vt 0.2051369 0.142935
vt 0.2228165 0.1117434
vt 0.1903411 0.1675757
vt 0.170985 0.2053901
vt 0.1713363 0.24051
vt 0.1471746 0.2098839
vt 0.1476274 0.2394061
vt 0.1458039 0.2018321
vt 0.1752818 0.1665339
vt 0.1421836 0.1659395
vt 0.1769635 0.1440375
vt 0.1431807 0.1427913
vt 0.1533556 0.1117434
vt 0.1908928 0.1418923
vt 0.1954214 0.1117434
vt 0.1793217 0.1117434
vt 0.816582 0.7568004
vt 0.8662145 0.7901455
vt 0.815903 0.7914473
vt 0.8654196 0.7462701
vt 0.8138621 0.7211056
vt 0.8984484 0.7711038
vt 0.9005729 0.7868254
vt 0.8699487 0.7076135
vt 0.8039188 0.6634531
vt 0.904146 0.7444609
vt 0.9045704 0.7622756
vt 0.9126496 0.7744369
vt 0.934149 0.7643165
vt 0.9061553 0.706664
vt 0.8653721 0.6542724
vt 0.7936851 0.6170635
vt 0.9055945 0.6700812
vt 0.8599089 0.6003218
vt 0.7903575 0.5944279
vt 0.901304 0.6364545
vt 0.9350864 0.6981416
vt 0.9343177 0.6730058
vt 0.9608468 0.675494
vt 0.9636524 0.6916307
vt 0.9362093 0.6617263
vt 0.9407346 0.7128422
vt 0.9057557 0.7251447
vt 0.9633469 0.7045979
vt 0.9306114 0.6311057
vt 0.9716418 0.651697
vt 0.9647459 0.6249321
vt 0.8946523 0.5944999
vt 0.9256781 0.6189131
vt 0.9178377 0.5887245
vt 0.9518236 0.602291
vt 0.9448511 0.581695
vt 0.8938665 0.5682674
vt 0.8494149 0.5793293
vt 0.840251 0.5552337
vt 0.7801034 0.5628453
vt 0.8291804 0.5134699
vt 0.7824289 0.5104362
vt 0.7869281 0.4599246
vt 0.8428075 0.4515769
vt 0.8912696 0.5277413
vt 0.8870802 0.4954745
vt 0.8791779 0.4648501
vt 0.9021024 0.4641477
vt 0.9058222 0.4902109
vt 0.9224035 0.485624
vt 0.9223003 0.4635494
vt 0.9524726 0.4674412
vt 0.9521399 0.484577
vt 0.9079925 0.4985537
vt 0.9101496 0.5270807
vt 0.9304858 0.501971
vt 0.9306731 0.5264938
vt 0.9579172 0.5011736
vt 0.9575239 0.5255892
vt 0.9086301 0.5373649
vt 0.9095789 0.5675327
vt 0.895228 0.580215
vt 0.9102713 0.5788321
vt 0.9248135 0.5759186
vt 0.9255396 0.5464678
vt 0.9248523 0.5667797
vt 0.9534252 0.5466017
vt 0.9523814 0.5664486
vt 0.8788876 0.5024395
vt 0.8768556 0.4954788
vt 0.8717971 0.4957573
vt 0.8717248 0.5047222
vt 0.8668141 0.4941158
vt 0.8644407 0.5061187
vt 0.8571844 0.4907296
vt 0.8613313 0.4912215
vt 0.8619447 0.4980874
vt 0.8559974 0.4997196
vt 0.8537517 0.488524
vt 0.8506871 0.500392
vt 0.876043 0.5150564
vt 0.8733922 0.5083675
vt 0.8669329 0.5083544
vt 0.8672225 0.5172251
vt 0.8611348 0.5065948
vt 0.8591465 0.5184194
vt 0.8607001 0.4728252
vt 0.8660277 0.4733223
vt 0.8666818 0.4805809
vt 0.8583696 0.4818197
vt 0.85534 0.4702952
vt 0.849178 0.4820609
vn -0.1453067 -0.9699742 -0.1950285
vn 0.4757784 -0.6978275 -0.5354173
vn 0.01177195 -0.9947777 -0.101385
vn 0.5026264 -0.675173 -0.5399148
vn 0.8101237 -0.01510027 -0.5860646
vn 0.07228215 -0.9970255 0.02674652
vn 0.7279239 0.01100479 -0.6855696
vn 0.7033493 0.6429226 -0.3032331
vn 0.3714501 -0.6061098 -0.7033178
vn -0.04692809 -0.997572 -0.05145684
vn 0.5974221 0.6529993 -0.4654876
vn 0.4176392 0.1203941 -0.9006013
vn 0.1996653 -0.5533719 -0.808649
vn -0.2557652 -0.4682947 -0.8457448
vn -0.4743459 -0.8770988 -0.07545604
vn -0.9668395 -0.02601256 -0.2540562
vn 0.2513953 0.1663705 -0.9534786
vn 0.1782172 0.9835491 -0.02948932
vn 0.2327327 0.9667867 0.1056359
vn -0.2837381 0.8862937 0.3660274
vn 0.4168837 0.6373936 -0.6480258
vn 0.2548587 0.9550561 0.1513768
vn -0.1539026 0.794373 0.5876101
vn -0.1376118 0.1593121 -0.9775903
vn -0.9668395 -0.02601256 -0.2540562
vn 0.26818 0.726832 -0.6322933
vn -0.1947675 0.6007679 -0.7753344
vn -0.9668395 -0.02601256 -0.2540562
vn 0.08043224 0.9847734 0.1541167
vn -0.4944163 -0.04530804 0.8680435
vn -0.9090769 0.2083306 0.3608014
vn -0.107566 0.7147846 0.6910228
vn -0.4588118 0.8884433 0.01265517
vn -0.9668395 -0.02601256 -0.2540562
vn -0.5952227 0.5865279 0.5492678
vn -0.9668395 -0.02601256 -0.2540562
vn -0.253039 -0.02889962 0.9670243
vn -0.2858224 -0.7989959 0.5290661
vn -0.7370604 -0.673726 0.05324582
vn 0.01177195 -0.9947777 -0.101385
vn -0.1453067 -0.9699742 -0.1950285
vn 0.07228215 -0.9970255 0.02674652
vn -0.2431663 -0.7153284 0.6551149
vn -0.04692809 -0.997572 -0.05145684
vn -0.5903859 -0.6285407 0.5063407
vn -0.4743459 -0.8770988 -0.07545604
vn -0.9668395 -0.02601256 -0.2540562
vn -0.6629619 0.01181037 0.7485599
vn -0.9668395 -0.02601256 -0.2540562
vn -0.9668395 -0.02601256 -0.2540562
vn -0.9090769 0.2083306 0.3608014
vn -0.7023193 -0.7118441 0.005054548
vn -0.7370604 -0.673726 0.05324582
vn -0.8251764 0.3794552 0.4184468
vn -0.2837381 0.8862937 0.3660274
vn -0.7730725 0.3347534 0.5387939
vn -0.3440073 -0.868422 -0.3570746
vn -0.271163 0.8375088 0.4743939
vn 0.2327327 0.9667867 0.1056359
vn -0.4628284 -0.3066167 0.8317308
vn 0.714207 -0.6134778 0.3369769
vn -0.3440073 -0.868422 -0.3570746
vn -0.7023193 -0.7118441 0.005054548
vn -0.4611262 0.5818977 0.6698938
vn 0.3122186 0.9245307 0.2185465
vn 0.7033493 0.6429226 -0.3032331
vn 0.2729902 0.7967988 0.5390623
vn 0.8494127 0.4614882 -0.2559819
vn 0.8101237 -0.01510027 -0.5860646
vn 0.5448782 0.7320166 0.4089738
vn -0.295742 0.509383 0.8081247
vn 0.9515948 0.2739694 0.1393128
vn 0.9060879 -0.206198 0.3694415
vn -0.1077062 -0.01794995 0.9940206
vn -0.2212388 0.4481503 0.8661492
vn -0.8518267 -0.308177 0.4235779
vn -0.4628284 -0.3066167 0.8317308
vn -0.6169513 -0.5358303 0.5764173
vn 0.9428371 0.3314184 0.03493149
vn -0.0274739 0.01298684 0.9995382
vn 0.937955 -0.09496078 0.3335011
vn 0.9097929 0.3597822 -0.2069631
vn -0.09713236 0.3511291 0.9312754
vn 0.911016 0.397893 0.1083099
vn 0.03769271 -0.1089216 0.9933355
vn 0.9236571 -0.1583016 0.3489957
vn 0.7123877 -0.6366581 -0.2952459
vn 0.8453744 -0.1311633 -0.5178207
vn 0.3852031 -0.8467196 -0.3669941
vn 0.4757784 -0.6978275 -0.5354173
vn -0.1508469 -0.9871823 -0.05211966
vn -0.1453067 -0.9699742 -0.1950285
vn -0.7370604 -0.673726 0.05324582
vn -0.7023193 -0.7118441 0.005054548
vn 0.01993635 -0.9678227 0.2508422
vn -0.02966171 -0.9583492 0.2840543
vn -0.4628284 -0.3066167 0.8317308
vn -0.8518267 -0.308177 0.4235779
vn 0.6136265 -0.6385725 -0.4644218
vn 0.5214021 -0.8290408 -0.2020672
vn -0.6169513 -0.5358303 0.5764173
vn -0.1077062 -0.01794995 0.9940206
vn 0.9060879 -0.206198 0.3694415
vn -0.8197538 -0.3735063 0.434162
vn 0.5297047 -0.5650662 -0.6325449
vn -0.5478979 -0.6743038 0.4950982
vn 0.5287267 -0.7988899 -0.2867455
vn -0.0274739 0.01298684 0.9995382
vn 0.937955 -0.09496078 0.3335011
vn -0.6496907 -0.497494 0.5748059
vn 0.5574602 -0.5768219 -0.5970885
vn 0.9097929 0.3597822 -0.2069631
vn 0.911016 0.397893 0.1083099
vn 0.9236571 -0.1583016 0.3489957
vn -0.4346643 -0.7344981 0.5211328
vn 0.5492567 -0.7989799 -0.2448433
vn 0.03769271 -0.1089216 0.9933355
vn 0.9236571 -0.1583016 0.3489957
vn 0.03769271 -0.1089216 0.9933355
vn -0.4346643 -0.7344981 0.5211328
vn -0.6496907 -0.497494 0.5748059
vn -0.09713236 0.3511291 0.9312754
vn 0.01993635 -0.9678227 0.2508422
vn 0.5448782 0.7320166 0.4089738
vn 0.5297047 -0.5650662 -0.6325449
vn 0.5287267 -0.7988899 -0.2867455
vn 0.937955 -0.09496078 0.3335011
vn 0.9428371 0.3314184 0.03493149
vn 0.01993635 -0.9678227 0.2508422
vn 0.5448782 0.7320166 0.4089738
vn -0.0274739 0.01298684 0.9995382
vn -0.5478979 -0.6743038 0.4950982
vn -0.8197538 -0.3735063 0.434162
vn -0.2212388 0.4481503 0.8661492
vn -0.02966171 -0.9583492 0.2840543
vn 0.2729902 0.7967988 0.5390623
vn 0.6136265 -0.6385725 -0.4644218
vn 0.5214021 -0.8290408 -0.2020672
vn 0.9060879 -0.206198 0.3694415
vn 0.9515948 0.2739694 0.1393128
vn -0.02966171 -0.9583492 0.2840543
vn 0.2729902 0.7967988 0.5390623
g Arm_L_0
f 3/3/3 2/2/2 1/1/1
f 2/2/2 3/3/3 4/4/4
f 4/4/4 5/5/5 2/2/2
f 4/4/4 3/3/3 6/6/6
f 5/5/5 4/4/4 7/7/7
f 7/7/7 8/8/8 5/5/5
f 6/6/6 9/9/9 4/4/4
f 9/9/9 7/7/7 4/4/4
f 9/9/9 6/6/6 10/10/10
f 8/8/8 7/7/7 11/11/11
f 12/12/12 7/7/7 9/9/9
f 12/12/12 11/11/11 7/7/7
f 10/10/10 13/13/13 9/9/9
f 12/12/12 9/9/9 13/13/13
f 14/14/14 13/13/13 10/10/10
f 15/15/15 14/14/14 10/10/10
f 14/14/14 15/15/15 16/16/16
f 13/13/13 17/17/17 12/12/12
f 14/14/14 17/17/17 13/13/13
f 8/8/8 11/11/11 18/18/18
f 19/19/19 8/8/8 18/18/18
f 20/20/20 19/19/19 18/18/18
f 21/21/21 11/11/11 12/12/12
f 17/17/17 21/21/21 12/12/12
f 22/22/22 18/18/18 11/11/11
f 11/11/11 21/21/21 22/22/22
f 18/18/18 23/23/23 20/20/20
f 18/18/18 22/22/22 23/23/23
f 24/24/24 17/17/17 14/14/14
f 24/24/24 14/14/14 25/25/25
f 21/21/21 17/17/17 26/26/26
f 22/22/22 21/21/21 26/26/26
f 17/17/17 24/24/24 27/27/27
f 27/27/27 26/26/26 17/17/17
f 27/27/27 24/24/24 28/28/28
f 26/26/26 29/29/29 22/22/22
f 26/26/26 27/27/27 29/29/29
f 20/20/20 23/23/23 30/30/30
f 30/30/30 31/31/31 20/20/20
f 23/23/23 22/22/22 32/32/32
f 22/22/22 29/29/29 32/32/32
f 29/29/29 27/27/27 33/33/33
f 27/27/27 34/34/34 33/33/33
f 29/29/29 33/33/33 35/35/35
f 35/35/35 32/32/32 29/29/29
f 33/33/33 36/36/36 35/35/35
f 23/23/23 32/32/32 37/37/37
f 37/37/37 32/32/32 35/35/35
f 37/37/37 30/30/30 23/23/23
f 31/31/31 30/30/30 38/38/38
f 38/38/38 39/39/39 31/31/31
f 39/39/39 38/38/38 40/40/40
f 40/40/40 41/41/41 39/39/39
f 42/42/42 40/40/40 38/38/38
f 43/43/43 38/38/38 30/30/30
f 43/43/43 42/42/42 38/38/38
f 37/37/37 43/43/43 30/30/30
f 44/44/44 42/42/42 43/43/43
f 44/44/44 43/43/43 45/45/45
f 45/45/45 43/43/43 37/37/37
f 45/45/45 46/46/46 44/44/44
f 45/45/45 47/47/47 46/46/46
f 35/35/35 48/48/48 37/37/37
f 37/37/37 48/48/48 45/45/45
f 48/48/48 35/35/35 49/49/49
f 48/48/48 50/50/50 45/45/45
f 53/53/53 52/52/52 51/51/51
f 51/51/51 52/52/52 54/54/54
f 54/54/54 55/55/55 51/51/51
f 56/56/56 54/54/54 52/52/52
f 52/52/52 57/57/57 56/56/56
f 55/55/55 54/54/54 58/58/58
f 59/59/59 55/55/55 58/58/58
f 60/60/60 54/54/54 56/56/56
f 58/58/58 54/54/54 60/60/60
f 56/56/56 61/61/61 60/60/60
f 62/62/62 61/61/61 56/56/56
f 60/60/60 61/61/61 62/62/62
f 62/62/62 63/63/63 60/60/60
f 60/60/60 64/64/64 58/58/58
f 58/58/58 65/65/65 59/59/59
f 66/66/66 59/59/59 65/65/65
f 64/64/64 67/67/67 58/58/58
f 65/65/65 58/58/58 67/67/67
f 65/65/65 68/68/68 66/66/66
f 69/69/69 66/66/66 68/68/68
f 67/67/67 70/70/70 65/65/65
f 65/65/65 70/70/70 68/68/68
f 67/67/67 64/64/64 71/71/71
f 71/71/71 72/72/72 67/67/67
f 73/73/73 72/72/72 71/71/71
f 71/71/71 74/74/74 73/73/73
f 70/70/70 67/67/67 75/75/75
f 64/64/64 76/76/76 71/71/71
f 74/74/74 71/71/71 76/76/76
f 77/77/77 76/76/76 64/64/64
f 76/76/76 78/78/78 74/74/74
f 75/75/75 79/79/79 70/70/70
f 79/79/79 75/75/75 80/80/80
f 80/80/80 81/81/81 79/79/79
f 82/82/82 68/68/68 70/70/70
f 82/82/82 70/70/70 83/83/83
f 83/83/83 84/84/84 82/82/82
f 84/84/84 83/83/83 85/85/85
f 85/85/85 86/86/86 84/84/84
f 68/68/68 82/82/82 87/87/87
f 68/68/68 87/87/87 88/88/88
f 68/68/68 88/88/88 69/69/69
f 69/69/69 88/88/88 89/89/89
f 88/88/88 87/87/87 89/89/89
f 90/90/90 69/69/69 89/89/89
f 90/90/90 89/89/89 91/91/91
f 90/90/90 91/91/91 92/92/92
f 93/93/93 92/92/92 91/91/91
f 91/91/91 94/94/94 93/93/93
f 89/89/89 95/95/95 91/91/91
f 89/89/89 87/87/87 95/95/95
f 94/94/94 91/91/91 96/96/96
f 95/95/95 96/96/96 91/91/91
f 94/94/94 96/96/96 97/97/97
f 97/97/97 96/96/96 98/98/98
f 96/96/96 99/99/99 98/98/98
f 98/98/98 99/99/99 100/100/100
f 100/100/100 101/101/101 98/98/98
f 101/101/101 100/100/100 102/102/102
f 100/100/100 103/103/103 102/102/102
f 96/96/96 95/95/95 104/104/104
f 95/95/95 105/105/105 104/104/104
f 104/104/104 105/105/105 106/106/106
f 105/105/105 107/107/107 106/106/106
f 107/107/107 108/108/108 106/106/106
f 107/107/107 109/109/109 108/108/108
f 87/87/87 110/110/110 95/95/95
f 87/87/87 111/111/111 110/110/110
f 111/111/111 87/87/87 112/112/112
f 112/112/112 113/113/113 111/111/111
f 111/111/111 113/113/113 114/114/114
f 115/115/115 110/110/110 111/111/111
f 114/114/114 116/116/116 111/111/111
f 111/111/111 116/116/116 115/115/115
f 115/115/115 116/116/116 117/117/117
f 116/116/116 118/118/118 117/117/117
f 121/121/121 120/120/120 119/119/119
f 119/119/119 122/122/122 121/121/121
f 123/123/123 121/121/121 122/122/122
f 123/123/123 122/122/122 124/124/124
f 127/127/127 126/126/126 125/125/125
f 125/125/125 128/128/128 127/127/127
f 128/128/128 125/125/125 129/129/129
f 129/129/129 130/130/130 128/128/128
f 133/133/133 132/132/132 131/131/131
f 133/133/133 131/131/131 134/134/134
f 135/135/135 133/133/133 134/134/134
f 135/135/135 134/134/134 136/136/136
f 139/139/139 138/138/138 137/137/137
f 137/137/137 140/140/140 139/139/139
f 140/140/140 137/137/137 141/141/141
f 141/141/141 142/142/142 140/140/140
