g BanglesLvl20L
v 6.31502 8.293293 -1.206706
v 6.31502 7.923364 -0.6530639
v 7.220137 7.923364 -0.6530638
v 7.220137 8.293293 -1.206706
v 6.31502 8.846934 -1.576637
v 7.220137 8.846934 -1.576637
v 6.31502 10.15306 -1.576638
v 7.220137 10.15306 -1.576638
v 6.31502 10.70671 -1.206707
v 7.220137 10.70671 -1.206707
v 6.31502 11.07664 -0.6530654
v 7.220137 11.07664 -0.6530653
v 6.31502 11.07664 0.6530643
v 6.31502 11.07664 -0.6530654
v 7.220137 11.07664 -0.6530653
v 7.220137 11.07664 0.6530643
v 6.31502 10.70671 1.206706
v 7.220137 10.70671 1.206706
v 6.31502 10.15307 1.576638
v 6.31502 10.70671 1.206706
v 7.220137 10.70671 1.206706
v 7.220137 10.15307 1.576638
v 6.31502 8.846938 1.576638
v 7.220137 8.846938 1.576638
v 6.31502 8.293293 1.206707
v 7.220137 8.293294 1.206706
v 6.31502 7.923364 0.6530648
v 6.31502 8.293293 1.206707
v 7.220137 8.293294 1.206706
v 7.220137 7.923364 0.6530647
v 6.31502 7.923364 -0.6530639
v 7.220137 7.923364 -0.6530638
v 6.094928 10.54803 -1.048029
v 6.094928 10.86932 -0.5671896
v 6.094928 10.86932 0.5671887
v 6.094928 10.54803 1.048029
v 6.094928 10.06719 -1.369316
v 6.094928 10.06719 1.369316
v 6.094928 8.93281 -1.369316
v 6.094928 8.932811 1.369316
v 6.094928 8.45197 -1.048028
v 6.094928 8.451971 1.048029
v 6.094928 8.130684 -0.5671885
v 6.094928 8.130684 0.5671894
v 7.440229 10.54803 1.048029
v 7.440229 10.86932 0.5671887
v 7.440229 10.86932 -0.5671896
v 7.440229 10.54803 -1.048029
v 7.440229 10.06719 1.369316
v 7.440229 10.06719 -1.369316
v 7.440229 8.932812 1.369316
v 7.440229 8.93281 -1.369315
v 7.440229 8.45197 -1.048028
v 7.440229 8.451972 1.048029
v 7.440229 8.130685 0.5671893
v 7.440229 8.130684 -0.5671884
v 6.094928 8.130684 -0.5671885
v 6.31502 7.923364 -0.6530639
v 6.31502 8.293293 -1.206706
v 6.094928 8.45197 -1.048028
v 6.094928 8.130684 0.5671894
v 6.31502 8.846934 -1.576637
v 6.31502 7.923364 0.6530648
v 6.094928 8.93281 -1.369316
v 6.094928 8.451971 1.048029
v 6.31502 10.15306 -1.576638
v 6.31502 8.293293 1.206707
v 6.094928 10.06719 -1.369316
v 6.094928 8.932811 1.369316
v 6.31502 10.70671 -1.206707
v 6.31502 8.846938 1.576638
v 6.094928 10.54803 -1.048029
v 6.094928 10.06719 1.369316
v 6.31502 11.07664 -0.6530654
v 6.31502 10.15307 1.576638
v 6.094928 10.86932 -0.5671896
v 6.094928 10.54803 1.048029
v 6.31502 11.07664 0.6530643
v 6.31502 10.70671 1.206706
v 6.094928 10.86932 0.5671887
v 7.220137 7.923364 -0.6530638
v 7.440229 8.130684 -0.5671884
v 7.440229 8.45197 -1.048028
v 7.220137 8.293293 -1.206706
v 7.220137 7.923364 0.6530647
v 7.440229 8.93281 -1.369315
v 7.440229 8.130685 0.5671893
v 7.220137 8.846934 -1.576637
v 7.220137 8.293294 1.206706
v 7.440229 10.06719 -1.369316
v 7.440229 8.451972 1.048029
v 7.220137 10.15306 -1.576638
v 7.220137 8.846938 1.576638
v 7.440229 10.54803 -1.048029
v 7.440229 8.932812 1.369316
v 7.220137 10.70671 -1.206707
v 7.220137 10.15307 1.576638
v 7.440229 10.86932 -0.5671896
v 7.440229 10.06719 1.369316
v 7.220137 11.07664 -0.6530653
v 7.220137 10.70671 1.206706
v 7.440229 10.86932 0.5671887
v 7.440229 10.54803 1.048029
v 7.220137 11.07664 0.6530643
vt 0.2199304 0.02331984
vt 0.2199304 0.02331984
vt 0.2199304 0.02331984
vt 0.2199304 0.02331984
vt 0.2199304 0.02331984
vt 0.2199304 0.02331984
vt 0.2199304 0.02331984
vt 0.2199304 0.02331984
vt 0.2199304 0.02331984
vt 0.2199304 0.02331984
vt 0.2199304 0.02331984
vt 0.2199304 0.02331984
vt 0.2687935 0.02290127
vt 0.2687935 0.02290124
vt 0.2687935 0.02290124
vt 0.2687935 0.02290127
vt 0.2687935 0.02290127
vt 0.2687935 0.02290127
vt 0.2199304 0.02331984
vt 0.2199304 0.02331984
vt 0.2199304 0.02331984
vt 0.2199304 0.02331984
vt 0.2199304 0.02331984
vt 0.2199304 0.02331984
vt 0.2199304 0.02331984
vt 0.2199304 0.02331984
vt 0.2687935 0.0229013
vt 0.2687935 0.0229013
vt 0.2687935 0.0229013
vt 0.2687935 0.0229013
vt 0.2687935 0.02290127
vt 0.2687935 0.02290127
vt 0.4234495 0.02618438
vt 0.4234495 0.02618438
vt 0.4234495 0.02618438
vt 0.4234495 0.02618438
vt 0.4234495 0.02618438
vt 0.4234495 0.02618438
vt 0.4234495 0.02618438
vt 0.4234495 0.02618438
vt 0.4234495 0.02618438
vt 0.4234495 0.02618438
vt 0.4234495 0.02618438
vt 0.4234495 0.02618438
vt 0.4234495 0.02618438
vt 0.4234495 0.02618438
vt 0.4234495 0.02618438
vt 0.4234495 0.02618438
vt 0.4234495 0.02618438
vt 0.4234495 0.02618438
vt 0.4234495 0.02618438
vt 0.4234495 0.02618438
vt 0.4234495 0.02618438
vt 0.4234495 0.02618438
vt 0.4234495 0.02618438
vt 0.4234495 0.02618438
vt 0.3667004 0.01219308
vt 0.3663631 0.01137887
vt 0.3641888 0.01283169
vt 0.364812 0.01345486
vt 0.3711554 0.01219308
vt 0.362736 0.01500599
vt 0.3714927 0.01137887
vt 0.3635502 0.01534327
vt 0.3730438 0.01345487
vt 0.362736 0.02013554
vt 0.373667 0.01283169
vt 0.3635502 0.0197983
vt 0.3743056 0.01534327
vt 0.3641888 0.02230986
vt 0.3751198 0.01500602
vt 0.364812 0.02168669
vt 0.3743056 0.0197983
vt 0.3663631 0.02376272
vt 0.3751198 0.0201356
vt 0.3667004 0.02294846
vt 0.3730438 0.02168669
vt 0.3714927 0.02376272
vt 0.373667 0.02230986
vt 0.3711554 0.02294846
vt 0.3766544 0.03043418
vt 0.3764195 0.02925311
vt 0.3792865 0.02806555
vt 0.3799556 0.02906679
vt 0.3697803 0.02906679
vt 0.3814809 0.02587126
vt 0.3704493 0.02806555
vt 0.3824821 0.02654027
vt 0.3672537 0.02654027
vt 0.3826684 0.01990093
vt 0.368255 0.02587126
vt 0.3838495 0.01966609
vt 0.3658864 0.02323912
vt 0.3814809 0.01703395
vt 0.3670674 0.02300422
vt 0.3824821 0.01636495
vt 0.3672537 0.01636495
vt 0.3792866 0.01483967
vt 0.368255 0.01703395
vt 0.3799556 0.01383843
vt 0.3697803 0.01383837
vt 0.3733163 0.01365204
vt 0.3704493 0.01483961
vt 0.3730814 0.01247104
vn 1.652113E-07 -0.7071078 -0.7071056
vn 0 -0.9807855 -0.1950891
vn 0 -0.9807855 -0.1950891
vn 1.652113E-07 -0.7071079 -0.7071056
vn 1.99149E-07 -0.1950909 -0.9807851
vn 1.99149E-07 -0.1950907 -0.9807853
vn 2.275986E-07 0.1950895 -0.9807854
vn 2.275987E-07 0.1950898 -0.9807854
vn 1.032569E-06 0.7071061 -0.7071074
vn 1.032568E-06 0.7071059 -0.7071075
vn 1.990915E-06 0.9807854 -0.1950902
vn 1.990916E-06 0.9807853 -0.1950905
vn 1.606843E-06 0.9807853 0.1950903
vn 1.990915E-06 0.9807854 -0.1950902
vn 1.990916E-06 0.9807853 -0.1950905
vn 1.606842E-06 0.9807853 0.1950904
vn 3.923766E-07 0.7071075 0.7071059
vn 3.923767E-07 0.7071077 0.7071059
vn 2.844988E-07 0.1950907 0.9807853
vn 3.923766E-07 0.7071075 0.7071059
vn 3.923767E-07 0.7071077 0.7071059
vn 2.844988E-07 0.1950907 0.9807853
vn 3.413978E-07 -0.19509 0.9807854
vn 3.413978E-07 -0.19509 0.9807854
vn 3.717249E-07 -0.7071064 0.7071072
vn 3.717248E-07 -0.7071063 0.7071072
vn 1.422493E-07 -0.9807854 0.1950896
vn 3.717249E-07 -0.7071064 0.7071072
vn 3.717248E-07 -0.7071063 0.7071072
vn 1.422493E-07 -0.9807854 0.1950895
vn 0 -0.9807855 -0.1950891
vn 0 -0.9807855 -0.1950891
vn -1 2.314971E-07 0
vn -1 -3.387249E-06 0
vn -1 -3.387248E-06 0
vn -1 2.314974E-07 0
vn -1 -4.354857E-07 0
vn -1 -4.35486E-07 0
vn -1 -1.807157E-07 0
vn -1 -1.807157E-07 0
vn -1 2.001772E-06 0
vn -1 2.001772E-06 0
vn -1 1.881814E-06 0
vn -1 1.881814E-06 0
vn 1 -5.038481E-07 0
vn 1 2.258166E-06 0
vn 1 2.258166E-06 0
vn 1 -5.038478E-07 0
vn 1 0 0
vn 1 0 0
vn 1 1.114526E-07 0
vn 1 1.114526E-07 0
vn 1 0 0
vn 1 0 0
vn 1 0 0
vn 1 0 0
vn -0.7063668 -0.6956186 -0.1309983
vn -0.7080364 -0.690647 -0.1472796
vn -0.7139319 -0.4951274 -0.4951264
vn -0.7139319 -0.4951274 -0.4951263
vn -0.7063667 -0.6956189 0.1309982
vn -0.7080383 -0.14728 -0.6906449
vn -0.7080362 -0.6906471 0.1472795
vn -0.7063687 -0.1309989 -0.6956165
vn -0.7139313 -0.4951274 0.4951271
vn -0.7080382 0.147279 -0.6906452
vn -0.7139314 -0.4951274 0.4951271
vn -0.7063688 0.130999 -0.6956164
vn -0.7063689 -0.1309993 0.6956162
vn -0.7139322 0.495127 -0.4951263
vn -0.7080382 -0.147279 0.6906453
vn -0.7139322 0.4951268 -0.4951266
vn -0.7063696 0.1309984 0.6956159
vn -0.7080392 0.6906441 -0.1472797
vn -0.7080391 0.1472804 0.6906441
vn -0.7063698 0.6956156 -0.1309989
vn -0.7139326 0.4951266 0.495126
vn -0.708039 0.6906443 0.1472794
vn -0.7139326 0.4951268 0.4951258
vn -0.7063697 0.6956156 0.1309988
vn 0.7080354 -0.690648 -0.1472799
vn 0.7063658 -0.6956196 -0.1309985
vn 0.7139306 -0.4951283 -0.4951275
vn 0.7139306 -0.4951282 -0.4951275
vn 0.7080356 -0.6906477 0.1472801
vn 0.7063676 -0.1309994 -0.6956176
vn 0.706366 -0.6956193 0.130999
vn 0.708037 -0.14728 -0.6906462
vn 0.7139306 -0.4951279 0.4951278
vn 0.7063674 0.1309985 -0.695618
vn 0.7139305 -0.4951277 0.4951281
vn 0.7080368 0.1472789 -0.6906468
vn 0.7080368 -0.1472791 0.6906466
vn 0.713931 0.4951271 -0.495128
vn 0.7063675 -0.1309991 0.6956179
vn 0.713931 0.4951268 -0.4951282
vn 0.7080375 0.1472804 0.6906456
vn 0.706368 0.6956173 -0.1309991
vn 0.7063679 0.1309986 0.6956176
vn 0.7080375 0.6906456 -0.1472804
vn 0.7139321 0.4951271 0.4951264
vn 0.7063682 0.6956173 0.1309983
vn 0.713932 0.4951271 0.4951265
vn 0.7080377 0.6906457 0.1472793
g BanglesLvl20L_0
f 3/3/3 2/2/2 1/1/1
f 4/4/4 3/3/3 1/1/1
f 4/4/4 1/1/1 5/5/5
f 6/6/6 4/4/4 5/5/5
f 6/6/6 5/5/5 7/7/7
f 8/8/8 6/6/6 7/7/7
f 8/8/8 7/7/7 9/9/9
f 10/10/10 8/8/8 9/9/9
f 10/10/10 9/9/9 11/11/11
f 12/12/12 10/10/10 11/11/11
f 15/15/15 14/14/14 13/13/13
f 16/16/16 15/15/15 13/13/13
f 16/16/16 13/13/13 17/17/17
f 18/18/18 16/16/16 17/17/17
f 21/21/21 20/20/20 19/19/19
f 22/22/22 21/21/21 19/19/19
f 22/22/22 19/19/19 23/23/23
f 24/24/24 22/22/22 23/23/23
f 24/24/24 23/23/23 25/25/25
f 26/26/26 24/24/24 25/25/25
f 29/29/29 28/28/28 27/27/27
f 30/30/30 29/29/29 27/27/27
f 30/30/30 27/27/27 31/31/31
f 32/32/32 30/30/30 31/31/31
f 35/35/35 34/34/34 33/33/33
f 36/36/36 35/35/35 33/33/33
f 36/36/36 33/33/33 37/37/37
f 38/38/38 36/36/36 37/37/37
f 38/38/38 37/37/37 39/39/39
f 40/40/40 38/38/38 39/39/39
f 40/40/40 39/39/39 41/41/41
f 42/42/42 40/40/40 41/41/41
f 42/42/42 41/41/41 43/43/43
f 44/44/44 42/42/42 43/43/43
f 47/47/47 46/46/46 45/45/45
f 48/48/48 47/47/47 45/45/45
f 48/48/48 45/45/45 49/49/49
f 50/50/50 48/48/48 49/49/49
f 50/50/50 49/49/49 51/51/51
f 52/52/52 50/50/50 51/51/51
f 52/52/52 51/51/51 53/53/53
f 51/51/51 54/54/54 53/53/53
f 54/54/54 55/55/55 53/53/53
f 55/55/55 56/56/56 53/53/53
f 59/59/59 58/58/58 57/57/57
f 60/60/60 59/59/59 57/57/57
f 61/61/61 57/57/57 58/58/58
f 62/62/62 59/59/59 60/60/60
f 63/63/63 61/61/61 58/58/58
f 64/64/64 62/62/62 60/60/60
f 61/61/61 63/63/63 65/65/65
f 66/66/66 62/62/62 64/64/64
f 63/63/63 67/67/67 65/65/65
f 68/68/68 66/66/66 64/64/64
f 65/65/65 67/67/67 69/69/69
f 70/70/70 66/66/66 68/68/68
f 67/67/67 71/71/71 69/69/69
f 72/72/72 70/70/70 68/68/68
f 69/69/69 71/71/71 73/73/73
f 74/74/74 70/70/70 72/72/72
f 71/71/71 75/75/75 73/73/73
f 76/76/76 74/74/74 72/72/72
f 73/73/73 75/75/75 77/77/77
f 78/78/78 74/74/74 76/76/76
f 75/75/75 79/79/79 77/77/77
f 80/80/80 78/78/78 76/76/76
f 77/77/77 79/79/79 80/80/80
f 79/79/79 78/78/78 80/80/80
f 83/83/83 82/82/82 81/81/81
f 84/84/84 83/83/83 81/81/81
f 85/85/85 81/81/81 82/82/82
f 86/86/86 83/83/83 84/84/84
f 87/87/87 85/85/85 82/82/82
f 88/88/88 86/86/86 84/84/84
f 85/85/85 87/87/87 89/89/89
f 90/90/90 86/86/86 88/88/88
f 87/87/87 91/91/91 89/89/89
f 92/92/92 90/90/90 88/88/88
f 89/89/89 91/91/91 93/93/93
f 94/94/94 90/90/90 92/92/92
f 91/91/91 95/95/95 93/93/93
f 96/96/96 94/94/94 92/92/92
f 93/93/93 95/95/95 97/97/97
f 98/98/98 94/94/94 96/96/96
f 95/95/95 99/99/99 97/97/97
f 100/100/100 98/98/98 96/96/96
f 97/97/97 99/99/99 101/101/101
f 102/102/102 98/98/98 100/100/100
f 99/99/99 103/103/103 101/101/101
f 104/104/104 102/102/102 100/100/100
f 101/101/101 103/103/103 104/104/104
f 103/103/103 102/102/102 104/104/104
