g BanglesLvl20LDark
v 6.31502 8.293293 -1.206706
v 6.31502 7.923364 -0.6530639
v 7.220137 7.923364 -0.6530638
v 7.220137 8.293293 -1.206706
v 6.31502 8.846934 -1.576637
v 7.220137 8.846934 -1.576637
v 6.31502 10.15306 -1.576638
v 7.220137 10.15306 -1.576638
v 6.31502 10.70671 -1.206707
v 7.220137 10.70671 -1.206707
v 6.31502 11.07664 -0.6530654
v 7.220137 11.07664 -0.6530653
v 6.31502 11.07664 0.6530643
v 6.31502 11.07664 -0.6530654
v 7.220137 11.07664 -0.6530653
v 7.220137 11.07664 0.6530643
v 6.31502 10.70671 1.206706
v 7.220137 10.70671 1.206706
v 6.31502 10.15307 1.576638
v 6.31502 10.70671 1.206706
v 7.220137 10.70671 1.206706
v 7.220137 10.15307 1.576638
v 6.31502 8.846938 1.576638
v 7.220137 8.846938 1.576638
v 6.31502 8.293293 1.206707
v 7.220137 8.293294 1.206706
v 6.31502 7.923364 0.6530648
v 6.31502 8.293293 1.206707
v 7.220137 8.293294 1.206706
v 7.220137 7.923364 0.6530647
v 6.31502 7.923364 -0.6530639
v 7.220137 7.923364 -0.6530638
v 6.094928 10.54803 -1.048029
v 6.094928 10.86932 -0.5671896
v 6.094928 10.86932 0.5671887
v 6.094928 10.54803 1.048029
v 6.094928 10.06719 -1.369316
v 6.094928 10.06719 1.369316
v 6.094928 8.93281 -1.369316
v 6.094928 8.932811 1.369316
v 6.094928 8.45197 -1.048028
v 6.094928 8.451971 1.048029
v 6.094928 8.130684 -0.5671885
v 6.094928 8.130684 0.5671894
v 7.440229 10.54803 1.048029
v 7.440229 10.86932 0.5671887
v 7.440229 10.86932 -0.5671896
v 7.440229 10.54803 -1.048029
v 7.440229 10.06719 1.369316
v 7.440229 10.06719 -1.369316
v 7.440229 8.932812 1.369316
v 7.440229 8.93281 -1.369315
v 7.440229 8.45197 -1.048028
v 7.440229 8.451972 1.048029
v 7.440229 8.130685 0.5671893
v 7.440229 8.130684 -0.5671884
v 6.094928 8.130684 -0.5671885
v 6.31502 7.923364 -0.6530639
v 6.31502 8.293293 -1.206706
v 6.094928 8.45197 -1.048028
v 6.094928 8.130684 0.5671894
v 6.31502 8.846934 -1.576637
v 6.31502 7.923364 0.6530648
v 6.094928 8.93281 -1.369316
v 6.094928 8.451971 1.048029
v 6.31502 10.15306 -1.576638
v 6.31502 8.293293 1.206707
v 6.094928 10.06719 -1.369316
v 6.094928 8.932811 1.369316
v 6.31502 10.70671 -1.206707
v 6.31502 8.846938 1.576638
v 6.094928 10.54803 -1.048029
v 6.094928 10.06719 1.369316
v 6.31502 11.07664 -0.6530654
v 6.31502 10.15307 1.576638
v 6.094928 10.86932 -0.5671896
v 6.094928 10.54803 1.048029
v 6.31502 11.07664 0.6530643
v 6.31502 10.70671 1.206706
v 6.094928 10.86932 0.5671887
v 7.220137 7.923364 -0.6530638
v 7.440229 8.130684 -0.5671884
v 7.440229 8.45197 -1.048028
v 7.220137 8.293293 -1.206706
v 7.220137 7.923364 0.6530647
v 7.440229 8.93281 -1.369315
v 7.440229 8.130685 0.5671893
v 7.220137 8.846934 -1.576637
v 7.220137 8.293294 1.206706
v 7.440229 10.06719 -1.369316
v 7.440229 8.451972 1.048029
v 7.220137 10.15306 -1.576638
v 7.220137 8.846938 1.576638
v 7.440229 10.54803 -1.048029
v 7.440229 8.932812 1.369316
v 7.220137 10.70671 -1.206707
v 7.220137 10.15307 1.576638
v 7.440229 10.86932 -0.5671896
v 7.440229 10.06719 1.369316
v 7.220137 11.07664 -0.6530653
v 7.220137 10.70671 1.206706
v 7.440229 10.86932 0.5671887
v 7.440229 10.54803 1.048029
v 7.220137 11.07664 0.6530643
vt 0.2672623 0.07053213
vt 0.2672623 0.07053213
vt 0.2672623 0.07053213
vt 0.2672623 0.07053213
vt 0.2672623 0.07053213
vt 0.2672623 0.07053213
vt 0.2672623 0.07053213
vt 0.2672623 0.07053213
vt 0.2672623 0.07053213
vt 0.2672623 0.07053213
vt 0.2672623 0.07053213
vt 0.2672623 0.07053213
vt 0.2672623 0.02290127
vt 0.2672623 0.02290124
vt 0.2672623 0.02290124
vt 0.2672623 0.02290127
vt 0.2672623 0.02290127
vt 0.2672623 0.02290127
vt 0.2672623 0.07053213
vt 0.2672623 0.07053213
vt 0.2672623 0.07053213
vt 0.2672623 0.07053213
vt 0.2672623 0.07053213
vt 0.2672623 0.07053213
vt 0.2672623 0.07053213
vt 0.2672623 0.07053213
vt 0.2672623 0.0229013
vt 0.2672623 0.0229013
vt 0.2672623 0.0229013
vt 0.2672623 0.0229013
vt 0.2672623 0.02290127
vt 0.2672623 0.02290127
vt 0.374882 0.0240626
vt 0.374882 0.0240626
vt 0.374882 0.0240626
vt 0.374882 0.0240626
vt 0.374882 0.0240626
vt 0.374882 0.02406261
vt 0.374882 0.0240626
vt 0.374882 0.02406261
vt 0.374882 0.0240626
vt 0.374882 0.0240626
vt 0.374882 0.0240626
vt 0.374882 0.0240626
vt 0.374882 0.0240626
vt 0.374882 0.0240626
vt 0.374882 0.0240626
vt 0.374882 0.0240626
vt 0.374882 0.02406261
vt 0.374882 0.0240626
vt 0.374882 0.02406261
vt 0.374882 0.0240626
vt 0.374882 0.0240626
vt 0.374882 0.0240626
vt 0.374882 0.0240626
vt 0.374882 0.0240626
vt 0.2028394 0.06384931
vt 0.2025021 0.06303511
vt 0.2003278 0.06448792
vt 0.200951 0.06511109
vt 0.2072944 0.06384931
vt 0.198875 0.06666222
vt 0.2076317 0.06303511
vt 0.1996892 0.0669995
vt 0.2091828 0.0651111
vt 0.198875 0.07179177
vt 0.209806 0.06448792
vt 0.1996892 0.07145452
vt 0.2104446 0.0669995
vt 0.2003278 0.07396609
vt 0.2112588 0.06666225
vt 0.200951 0.07334292
vt 0.2104446 0.07145452
vt 0.2025021 0.07541895
vt 0.2112588 0.07179183
vt 0.2028394 0.07460469
vt 0.2091828 0.07334292
vt 0.2076317 0.07541895
vt 0.209806 0.07396609
vt 0.2072944 0.07460469
vt 0.2127935 0.08209041
vt 0.2125586 0.08090934
vt 0.2154256 0.07972178
vt 0.2160946 0.08072302
vt 0.2059193 0.08072302
vt 0.2176199 0.07752749
vt 0.2065883 0.07972178
vt 0.2186211 0.0781965
vt 0.2033928 0.0781965
vt 0.2188075 0.07155716
vt 0.204394 0.07752749
vt 0.2199885 0.07132232
vt 0.2020254 0.07489535
vt 0.2176199 0.06869018
vt 0.2032064 0.07466045
vt 0.2186211 0.06802118
vt 0.2033928 0.06802118
vt 0.2154256 0.0664959
vt 0.204394 0.06869018
vt 0.2160946 0.06549466
vt 0.2059193 0.0654946
vt 0.2094553 0.06530827
vt 0.2065883 0.06649584
vt 0.2092204 0.06412727
vn -0.1722237 -0.6965421 -0.6965401
vn -0.1605195 -0.9676353 -0.1947184
vn 0.1605196 -0.9676353 -0.1947184
vn 0.1722237 -0.6965421 -0.6965401
vn -0.1605201 -0.19472 -0.9676349
vn 0.1605205 -0.1947198 -0.9676349
vn -0.1605202 0.1947186 -0.9676353
vn 0.1605203 0.1947188 -0.9676352
vn -0.1722233 0.6965407 -0.6965415
vn 0.1722243 0.6965402 -0.6965418
vn -0.1605194 0.9676353 -0.1947194
vn 0.1605214 0.9676348 -0.1947196
vn -0.1605196 0.9676352 0.1947194
vn -0.1605194 0.9676353 -0.1947194
vn 0.1605214 0.9676348 -0.1947196
vn 0.1605212 0.9676349 0.1947194
vn -0.1722243 0.6965418 0.6965402
vn 0.1722247 0.6965418 0.6965402
vn -0.1605202 0.1947199 0.9676349
vn -0.1722243 0.6965418 0.6965402
vn 0.1722247 0.6965418 0.6965402
vn 0.1605204 0.1947199 0.9676349
vn -0.1605202 -0.194719 0.9676352
vn 0.1605205 -0.1947189 0.9676352
vn -0.1722232 -0.6965409 0.6965415
vn 0.1722239 -0.6965407 0.6965414
vn -0.1605195 -0.9676353 0.1947187
vn -0.1722232 -0.6965409 0.6965415
vn 0.1722239 -0.6965407 0.6965414
vn 0.1605199 -0.9676353 0.1947188
vn -0.1605195 -0.9676353 -0.1947184
vn 0.1605196 -0.9676353 -0.1947184
vn -0.9903601 0.09794564 -0.09794541
vn -0.9447457 0.3221415 -0.06066633
vn -0.9447457 0.3221413 0.06066627
vn -0.9903603 0.09794559 0.09794527
vn -0.9945759 0.01924913 -0.1022167
vn -0.9945759 0.01924906 0.1022167
vn -0.9945759 -0.01924967 -0.1022168
vn -0.9945759 -0.01924972 0.1022166
vn -0.9903604 -0.09794351 -0.097945
vn -0.9903604 -0.09794359 0.09794524
vn -0.9447451 -0.3221432 -0.06066596
vn -0.944745 -0.3221435 0.06066592
vn 0.9903603 0.09794497 0.0979453
vn 0.9447448 0.3221445 0.06066584
vn 0.9447448 0.3221444 -0.06066616
vn 0.9903603 0.09794482 -0.09794543
vn 0.9945759 0.01924947 0.1022171
vn 0.9945759 0.01924945 -0.1022171
vn 0.9945759 -0.01924945 0.102217
vn 0.9945759 -0.01924951 -0.102217
vn 0.9903601 -0.09794556 -0.09794539
vn 0.9903601 -0.09794554 0.09794562
vn 0.9447445 -0.3221451 0.06066635
vn 0.9447446 -0.322145 -0.0606661
vn -0.9447451 -0.3221432 -0.06066596
vn -0.1605195 -0.9676353 -0.1947184
vn -0.1722237 -0.6965421 -0.6965401
vn -0.9903604 -0.09794351 -0.097945
vn -0.944745 -0.3221435 0.06066592
vn -0.1605201 -0.19472 -0.9676349
vn -0.1605195 -0.9676353 0.1947187
vn -0.9945759 -0.01924967 -0.1022168
vn -0.9903604 -0.09794359 0.09794524
vn -0.1605202 0.1947186 -0.9676353
vn -0.1722232 -0.6965409 0.6965415
vn -0.9945759 0.01924913 -0.1022167
vn -0.9945759 -0.01924972 0.1022166
vn -0.1722233 0.6965407 -0.6965415
vn -0.1605202 -0.194719 0.9676352
vn -0.9903601 0.09794564 -0.09794541
vn -0.9945759 0.01924906 0.1022167
vn -0.1605194 0.9676353 -0.1947194
vn -0.1605202 0.1947199 0.9676349
vn -0.9447457 0.3221415 -0.06066633
vn -0.9903603 0.09794559 0.09794527
vn -0.1605196 0.9676352 0.1947194
vn -0.1722243 0.6965418 0.6965402
vn -0.9447457 0.3221413 0.06066627
vn 0.1605196 -0.9676353 -0.1947184
vn 0.9447446 -0.322145 -0.0606661
vn 0.9903601 -0.09794556 -0.09794539
vn 0.1722237 -0.6965421 -0.6965401
vn 0.1605199 -0.9676353 0.1947188
vn 0.9945759 -0.01924951 -0.102217
vn 0.9447445 -0.3221451 0.06066635
vn 0.1605205 -0.1947198 -0.9676349
vn 0.1722239 -0.6965407 0.6965414
vn 0.9945759 0.01924945 -0.1022171
vn 0.9903601 -0.09794554 0.09794562
vn 0.1605203 0.1947188 -0.9676352
vn 0.1605205 -0.1947189 0.9676352
vn 0.9903603 0.09794482 -0.09794543
vn 0.9945759 -0.01924945 0.102217
vn 0.1722243 0.6965402 -0.6965418
vn 0.1605204 0.1947199 0.9676349
vn 0.9447448 0.3221444 -0.06066616
vn 0.9945759 0.01924947 0.1022171
vn 0.1605214 0.9676348 -0.1947196
vn 0.1722247 0.6965418 0.6965402
vn 0.9447448 0.3221445 0.06066584
vn 0.9903603 0.09794497 0.0979453
vn 0.1605212 0.9676349 0.1947194
g BanglesLvl20LDark_0
f 3/3/3 2/2/2 1/1/1
f 4/4/4 3/3/3 1/1/1
f 4/4/4 1/1/1 5/5/5
f 6/6/6 4/4/4 5/5/5
f 6/6/6 5/5/5 7/7/7
f 8/8/8 6/6/6 7/7/7
f 8/8/8 7/7/7 9/9/9
f 10/10/10 8/8/8 9/9/9
f 10/10/10 9/9/9 11/11/11
f 12/12/12 10/10/10 11/11/11
f 15/15/15 14/14/14 13/13/13
f 16/16/16 15/15/15 13/13/13
f 16/16/16 13/13/13 17/17/17
f 18/18/18 16/16/16 17/17/17
f 21/21/21 20/20/20 19/19/19
f 22/22/22 21/21/21 19/19/19
f 22/22/22 19/19/19 23/23/23
f 24/24/24 22/22/22 23/23/23
f 24/24/24 23/23/23 25/25/25
f 26/26/26 24/24/24 25/25/25
f 29/29/29 28/28/28 27/27/27
f 30/30/30 29/29/29 27/27/27
f 30/30/30 27/27/27 31/31/31
f 32/32/32 30/30/30 31/31/31
f 35/35/35 34/34/34 33/33/33
f 36/36/36 35/35/35 33/33/33
f 36/36/36 33/33/33 37/37/37
f 38/38/38 36/36/36 37/37/37
f 38/38/38 37/37/37 39/39/39
f 40/40/40 38/38/38 39/39/39
f 40/40/40 39/39/39 41/41/41
f 42/42/42 40/40/40 41/41/41
f 42/42/42 41/41/41 43/43/43
f 44/44/44 42/42/42 43/43/43
f 47/47/47 46/46/46 45/45/45
f 48/48/48 47/47/47 45/45/45
f 48/48/48 45/45/45 49/49/49
f 50/50/50 48/48/48 49/49/49
f 50/50/50 49/49/49 51/51/51
f 52/52/52 50/50/50 51/51/51
f 52/52/52 51/51/51 53/53/53
f 51/51/51 54/54/54 53/53/53
f 54/54/54 55/55/55 53/53/53
f 55/55/55 56/56/56 53/53/53
f 59/59/59 58/58/58 57/57/57
f 60/60/60 59/59/59 57/57/57
f 61/61/61 57/57/57 58/58/58
f 62/62/62 59/59/59 60/60/60
f 63/63/63 61/61/61 58/58/58
f 64/64/64 62/62/62 60/60/60
f 61/61/61 63/63/63 65/65/65
f 66/66/66 62/62/62 64/64/64
f 63/63/63 67/67/67 65/65/65
f 68/68/68 66/66/66 64/64/64
f 65/65/65 67/67/67 69/69/69
f 70/70/70 66/66/66 68/68/68
f 67/67/67 71/71/71 69/69/69
f 72/72/72 70/70/70 68/68/68
f 69/69/69 71/71/71 73/73/73
f 74/74/74 70/70/70 72/72/72
f 71/71/71 75/75/75 73/73/73
f 76/76/76 74/74/74 72/72/72
f 73/73/73 75/75/75 77/77/77
f 78/78/78 74/74/74 76/76/76
f 75/75/75 79/79/79 77/77/77
f 80/80/80 78/78/78 76/76/76
f 77/77/77 79/79/79 80/80/80
f 79/79/79 78/78/78 80/80/80
f 83/83/83 82/82/82 81/81/81
f 84/84/84 83/83/83 81/81/81
f 85/85/85 81/81/81 82/82/82
f 86/86/86 83/83/83 84/84/84
f 87/87/87 85/85/85 82/82/82
f 88/88/88 86/86/86 84/84/84
f 85/85/85 87/87/87 89/89/89
f 90/90/90 86/86/86 88/88/88
f 87/87/87 91/91/91 89/89/89
f 92/92/92 90/90/90 88/88/88
f 89/89/89 91/91/91 93/93/93
f 94/94/94 90/90/90 92/92/92
f 91/91/91 95/95/95 93/93/93
f 96/96/96 94/94/94 92/92/92
f 93/93/93 95/95/95 97/97/97
f 98/98/98 94/94/94 96/96/96
f 95/95/95 99/99/99 97/97/97
f 100/100/100 98/98/98 96/96/96
f 97/97/97 99/99/99 101/101/101
f 102/102/102 98/98/98 100/100/100
f 99/99/99 103/103/103 101/101/101
f 104/104/104 102/102/102 100/100/100
f 101/101/101 103/103/103 104/104/104
f 103/103/103 102/102/102 104/104/104
