g Base_Base
v -11.41769 0.01490874 -4.577637E-07
v -10.85886 4.148226 3.528258
v -10.85886 0.01490874 3.528258
v -11.41769 4.148226 -4.577637E-07
v -10.85886 0.01490874 -3.528259
v -10.85886 4.148226 -3.528259
v -9.237102 0.01490874 -6.711147
v -9.237102 4.148226 -6.711147
v -6.711147 0.01490874 -9.237103
v -6.711147 4.148226 -9.237103
v -3.528259 0.01490874 -10.85887
v -3.528259 4.148226 -10.85887
v 8.508565E-08 0.01490874 -11.41769
v 8.508565E-08 4.148226 -11.41769
v 3.52826 0.01490874 -10.85887
v 3.52826 4.148226 -10.85887
v 6.71115 0.01490874 -9.237104
v 6.71115 4.148226 -9.237104
v 9.237105 0.01490874 -6.71115
v 9.237105 4.148226 -6.71115
v 10.85887 0.01490874 -3.52826
v 10.85887 4.148226 -3.52826
v 11.41768 0.01490874 -4.577637E-07
v 11.41768 4.148226 -4.577637E-07
v 10.85886 0.01490874 3.528258
v 10.85886 4.148226 3.528258
v 9.237101 0.01490874 6.711143
v 9.237101 4.148226 6.711143
v 6.711145 4.148226 9.237098
v 6.711145 0.01490874 9.237098
v 3.528258 0.01490874 10.85886
v 3.528258 4.148226 10.85886
v -2.551878E-07 0.01490874 11.41768
v -2.551878E-07 4.148226 11.41768
v -3.528258 0.01490874 10.85886
v -3.528258 4.148226 10.85886
v -6.711146 0.01490874 9.237098
v -6.711146 4.148226 9.237098
v -9.237101 4.148226 6.711147
v -9.237101 0.01490874 6.711147
v -10.85886 0.01490874 3.528258
v -10.85886 4.148226 3.528258
v 9.237105 0.01490874 -6.71115
v 8.508565E-08 0.01490874 -4.577637E-07
v 10.85887 0.01490874 -3.52826
v 6.71115 0.01490874 -9.237104
v 11.41768 0.01490874 -4.577637E-07
v 3.52826 0.01490874 -10.85887
v 10.85886 0.01490874 3.528258
v 8.508565E-08 0.01490874 -11.41769
v 9.237101 0.01490874 6.711143
v -3.528259 0.01490874 -10.85887
v 6.711145 0.01490874 9.237098
v -6.711147 0.01490874 -9.237103
v 3.528258 0.01490874 10.85886
v -9.237102 0.01490874 -6.711147
v -2.551878E-07 0.01490874 11.41768
v -10.85886 0.01490874 -3.528259
v -3.528258 0.01490874 10.85886
v -11.41769 0.01490874 -4.577637E-07
v -6.711146 0.01490874 9.237098
v -10.85886 0.01490874 3.528258
v -9.237101 0.01490874 6.711147
v 8.581686 4.148226 -2.78836
v -7.360504E-08 4.148226 -4.577637E-07
v 7.300017 4.148226 -5.303775
v 9.023312 4.148226 -1.220703E-06
v 5.303773 4.148226 -7.300019
v 8.581681 4.148226 2.788357
v 2.788358 4.148226 -8.581686
v 7.300013 4.148226 5.30377
v -2.3206E-07 4.148226 -9.023319
v 5.303771 4.148226 7.300014
v -2.788358 4.148226 -8.581686
v 2.788356 4.148226 8.58168
v -5.303773 4.148226 -7.300017
v -5.009755E-07 4.148226 9.023314
v -7.300016 4.148226 -5.303772
v -2.788358 4.148226 8.58168
v -8.581684 4.148226 -2.788359
v -5.303771 4.148226 7.300014
v -9.023315 4.148226 -1.220703E-06
v -7.300016 4.148226 5.30377
v -8.581684 4.148226 2.788357
v 10.85887 4.148226 -3.52826
v 8.581686 4.148226 -2.78836
v 7.300017 4.148226 -5.303775
v 9.237105 4.148226 -6.71115
v 11.41768 4.148226 -4.577637E-07
v 5.303773 4.148226 -7.300019
v 9.023312 4.148226 -1.220703E-06
v 6.71115 4.148226 -9.237104
v 10.85886 4.148226 3.528258
v 2.788358 4.148226 -8.581686
v 8.581681 4.148226 2.788357
v 3.52826 4.148226 -10.85887
v 9.237101 4.148226 6.711143
v -2.3206E-07 4.148226 -9.023319
v 7.300013 4.148226 5.30377
v 8.508565E-08 4.148226 -11.41769
v 6.711145 4.148226 9.237098
v -2.788358 4.148226 -8.581686
v 5.303771 4.148226 7.300014
v -3.528259 4.148226 -10.85887
v 3.528258 4.148226 10.85886
v -5.303773 4.148226 -7.300017
v 2.788356 4.148226 8.58168
v -6.711147 4.148226 -9.237103
v -2.551878E-07 4.148226 11.41768
v -7.300016 4.148226 -5.303772
v -5.009755E-07 4.148226 9.023314
v -9.237102 4.148226 -6.711147
v -3.528258 4.148226 10.85886
v -8.581684 4.148226 -2.788359
v -2.788358 4.148226 8.58168
v -10.85886 4.148226 -3.528259
v -6.711146 4.148226 9.237098
v -9.023315 4.148226 -1.220703E-06
v -5.303771 4.148226 7.300014
v -11.41769 4.148226 -4.577637E-07
v -9.237101 4.148226 6.711147
v -8.581684 4.148226 2.788357
v -7.300016 4.148226 5.30377
v -10.85886 4.148226 3.528258
vt 0.5481324 0.4643988
vt 0.5481323 0.4643987
vt 0.5481323 0.4643988
vt 0.5481324 0.4643987
vt 0.5481324 0.4643988
vt 0.5481324 0.4643987
vt 0.5481324 0.4643988
vt 0.5481324 0.4643987
vt 0.5481324 0.4643988
vt 0.5481324 0.4643987
vt 0.5481324 0.4643988
vt 0.5481324 0.4643987
vt 0.5481324 0.4643988
vt 0.5481324 0.4643987
vt 0.5481324 0.4643988
vt 0.5481324 0.4643987
vt 0.5481324 0.4643988
vt 0.5481324 0.4643987
vt 0.5481324 0.4643988
vt 0.5481324 0.4643987
vt 0.5481324 0.4643988
vt 0.5481324 0.4643987
vt 0.5481324 0.4643988
vt 0.5481324 0.4643987
vt 0.5481324 0.4643988
vt 0.5481324 0.4643987
vt 0.5481324 0.4643988
vt 0.5481324 0.4643987
vt 0.5481324 0.4643987
vt 0.5481324 0.4643988
vt 0.5481324 0.4643988
vt 0.5481324 0.4643987
vt 0.5481324 0.4643988
vt 0.5481324 0.4643987
vt 0.5481324 0.4643988
vt 0.5481324 0.4643987
vt 0.5481324 0.4643988
vt 0.5481324 0.4643987
vt 0.5481324 0.4643987
vt 0.5481324 0.4643988
vt 0.5481323 0.4643988
vt 0.5481323 0.4643987
vt 0.05349317 0.9200537
vt 0.04423246 0.9263241
vt 0.05511913 0.9232447
vt 0.05096075 0.9175212
vt 0.05567935 0.926782
vt 0.04776976 0.9158953
vt 0.05511907 0.9303192
vt 0.04423246 0.9153351
vt 0.05349317 0.9335103
vt 0.04069516 0.9158953
vt 0.05096075 0.9360427
vt 0.03750414 0.9175212
vt 0.04776976 0.9376686
vt 0.03497174 0.9200537
vt 0.04423246 0.9382288
vt 0.03334582 0.9232447
vt 0.04069516 0.9376686
vt 0.03278556 0.926782
vt 0.03750414 0.9360427
vt 0.03334582 0.9303192
vt 0.03497174 0.9335103
vt 0.0487584 0.4646978
vt 0.03990044 0.4614472
vt 0.04743548 0.4672943
vt 0.04921426 0.4618198
vt 0.04537494 0.4693547
vt 0.0487584 0.4589418
vt 0.04277857 0.4706777
vt 0.04743548 0.4563453
vt 0.03990044 0.4711336
vt 0.04537494 0.4542848
vt 0.03702231 0.4706777
vt 0.04277857 0.4529619
vt 0.03442593 0.4693547
vt 0.03990044 0.452506
vt 0.03236543 0.4672943
vt 0.03702231 0.4529619
vt 0.0310425 0.4646978
vt 0.03442593 0.4542848
vt 0.03058665 0.4618198
vt 0.03236543 0.4563453
vt 0.0310425 0.4589418
vt 0.6459441 0.4436014
vt 0.6459441 0.4573345
vt 0.6459441 0.4573345
vt 0.6459441 0.4436014
vt 0.6459441 0.4436014
vt 0.6459441 0.4573345
vt 0.6459441 0.4573345
vt 0.6459441 0.4436014
vt 0.6459441 0.4436014
vt 0.6459441 0.4573345
vt 0.6459441 0.4573345
vt 0.6459441 0.4436014
vt 0.6459441 0.4436014
vt 0.6459441 0.4573345
vt 0.6459441 0.4573345
vt 0.6459441 0.4436014
vt 0.6459441 0.4436014
vt 0.6459441 0.4573345
vt 0.6459441 0.4573345
vt 0.6459441 0.4436014
vt 0.6459441 0.4436014
vt 0.6459441 0.4573345
vt 0.6459441 0.4573345
vt 0.6459441 0.4436014
vt 0.6459441 0.4436014
vt 0.6459441 0.4573345
vt 0.6459441 0.4573345
vt 0.6459441 0.4436014
vt 0.6459441 0.4436014
vt 0.6459441 0.4573345
vt 0.6459441 0.4573345
vt 0.6459441 0.4436014
vt 0.6459441 0.4436014
vt 0.6459441 0.4573345
vt 0.6459441 0.4573345
vt 0.6459441 0.4436014
vt 0.6459441 0.4436014
vt 0.6459441 0.4573345
vt 0.6459441 0.4573345
vt 0.6459441 0.4436014
vn -0.6268151 -0.7791681 0
vn -0.8618234 0.4229033 0.2800237
vn -0.5961364 -0.7791681 0.1936966
vn -0.9061748 0.4229034 0
vn -0.5961365 -0.7791681 -0.1936965
vn -0.8618235 0.4229032 -0.2800235
vn -0.5071039 -0.7791682 -0.3684325
vn -0.7331108 0.4229033 -0.5326362
vn -0.3684327 -0.7791682 -0.5071038
vn -0.5326363 0.4229033 -0.7331107
vn -0.1936965 -0.7791681 -0.5961365
vn -0.2800234 0.4229031 -0.8618236
vn 0 -0.7791682 -0.6268148
vn 0 0.4229032 -0.9061748
vn 0.1936963 -0.7791681 -0.5961365
vn 0.2800231 0.4229032 -0.8618236
vn 0.3684324 -0.7791682 -0.507104
vn 0.532636 0.4229033 -0.733111
vn 0.5071037 -0.7791682 -0.3684326
vn 0.7331107 0.4229033 -0.5326364
vn 0.5961369 -0.7791679 -0.1936959
vn 0.8618239 0.4229032 -0.2800225
vn 0.6268147 -0.7791683 7.642337E-07
vn 0.9061746 0.4229037 1.104839E-06
vn 0.5961366 -0.7791681 0.1936964
vn 0.8618235 0.4229034 0.2800232
vn 0.5071041 -0.779168 0.3684327
vn 0.7331108 0.4229032 0.5326362
vn 0.5326362 0.4229032 0.7331108
vn 0.3684327 -0.7791681 0.507104
vn 0.1936965 -0.779168 0.5961365
vn 0.2800235 0.4229031 0.8618236
vn 0 -0.779168 0.6268151
vn 0 0.422903 0.9061749
vn -0.1936965 -0.7791681 0.5961365
vn -0.2800235 0.4229031 0.8618236
vn -0.3684325 -0.7791681 0.5071041
vn -0.532636 0.4229034 0.733111
vn -0.7331107 0.4229033 0.5326364
vn -0.5071039 -0.7791681 0.3684328
vn -0.5961364 -0.7791681 0.1936966
vn -0.8618234 0.4229033 0.2800237
vn 0.5071037 -0.7791682 -0.3684326
vn 0 -1 0
vn 0.5961369 -0.7791679 -0.1936959
vn 0.3684324 -0.7791682 -0.507104
vn 0.6268147 -0.7791683 7.642337E-07
vn 0.1936963 -0.7791681 -0.5961365
vn 0.5961366 -0.7791681 0.1936964
vn 0 -0.7791682 -0.6268148
vn 0.5071041 -0.779168 0.3684327
vn -0.1936965 -0.7791681 -0.5961365
vn 0.3684327 -0.7791681 0.507104
vn -0.3684327 -0.7791682 -0.5071038
vn 0.1936965 -0.779168 0.5961365
vn -0.5071039 -0.7791682 -0.3684325
vn 0 -0.779168 0.6268151
vn -0.5961365 -0.7791681 -0.1936965
vn -0.1936965 -0.7791681 0.5961365
vn -0.6268151 -0.7791681 0
vn -0.3684325 -0.7791681 0.5071041
vn -0.5961364 -0.7791681 0.1936966
vn -0.5071039 -0.7791681 0.3684328
vn 0 1 0
vn 0 1 0
vn 0 1 0
vn 0 1 0
vn 0 1 0
vn 0 1 0
vn 0 1 0
vn 0 1 0
vn 0 1 0
vn 0 1 0
vn 0 1 0
vn 0 1 0
vn 0 1 0
vn 0 1 0
vn 0 1 0
vn 0 1 0
vn 0 1 0
vn 0 1 0
vn 0 1 0
vn 0 1 0
vn 0 1 0
vn 0.8618239 0.4229032 -0.2800225
vn 0 1 0
vn 0 1 0
vn 0.7331107 0.4229033 -0.5326364
vn 0.9061746 0.4229037 1.104839E-06
vn 0 1 0
vn 0 1 0
vn 0.532636 0.4229033 -0.733111
vn 0.8618235 0.4229034 0.2800232
vn 0 1 0
vn 0 1 0
vn 0.2800231 0.4229032 -0.8618236
vn 0.7331108 0.4229032 0.5326362
vn 0 1 0
vn 0 1 0
vn 0 0.4229032 -0.9061748
vn 0.5326362 0.4229032 0.7331108
vn 0 1 0
vn 0 1 0
vn -0.2800234 0.4229031 -0.8618236
vn 0.2800235 0.4229031 0.8618236
vn 0 1 0
vn 0 1 0
vn -0.5326363 0.4229033 -0.7331107
vn 0 0.422903 0.9061749
vn 0 1 0
vn 0 1 0
vn -0.7331108 0.4229033 -0.5326362
vn -0.2800235 0.4229031 0.8618236
vn 0 1 0
vn 0 1 0
vn -0.8618235 0.4229032 -0.2800235
vn -0.532636 0.4229034 0.733111
vn 0 1 0
vn 0 1 0
vn -0.9061748 0.4229034 0
vn -0.7331107 0.4229033 0.5326364
vn 0 1 0
vn 0 1 0
vn -0.8618234 0.4229033 0.2800237
g Base_Base_0
f 3/3/3 2/2/2 1/1/1
f 2/2/2 4/4/4 1/1/1
f 1/1/1 4/4/4 5/5/5
f 4/4/4 6/6/6 5/5/5
f 5/5/5 6/6/6 7/7/7
f 6/6/6 8/8/8 7/7/7
f 7/7/7 8/8/8 9/9/9
f 8/8/8 10/10/10 9/9/9
f 9/9/9 10/10/10 11/11/11
f 10/10/10 12/12/12 11/11/11
f 11/11/11 12/12/12 13/13/13
f 12/12/12 14/14/14 13/13/13
f 13/13/13 14/14/14 15/15/15
f 14/14/14 16/16/16 15/15/15
f 15/15/15 16/16/16 17/17/17
f 16/16/16 18/18/18 17/17/17
f 17/17/17 18/18/18 19/19/19
f 18/18/18 20/20/20 19/19/19
f 19/19/19 20/20/20 21/21/21
f 20/20/20 22/22/22 21/21/21
f 21/21/21 22/22/22 23/23/23
f 22/22/22 24/24/24 23/23/23
f 23/23/23 24/24/24 25/25/25
f 24/24/24 26/26/26 25/25/25
f 25/25/25 26/26/26 27/27/27
f 26/26/26 28/28/28 27/27/27
f 27/27/27 28/28/28 29/29/29
f 30/30/30 27/27/27 29/29/29
f 30/30/30 29/29/29 31/31/31
f 29/29/29 32/32/32 31/31/31
f 31/31/31 32/32/32 33/33/33
f 32/32/32 34/34/34 33/33/33
f 33/33/33 34/34/34 35/35/35
f 34/34/34 36/36/36 35/35/35
f 35/35/35 36/36/36 37/37/37
f 36/36/36 38/38/38 37/37/37
f 37/37/37 38/38/38 39/39/39
f 40/40/40 37/37/37 39/39/39
f 40/40/40 39/39/39 41/41/41
f 39/39/39 42/42/42 41/41/41
f 45/45/45 44/44/44 43/43/43
f 43/43/43 44/44/44 46/46/46
f 47/47/47 44/44/44 45/45/45
f 46/46/46 44/44/44 48/48/48
f 49/49/49 44/44/44 47/47/47
f 48/48/48 44/44/44 50/50/50
f 51/51/51 44/44/44 49/49/49
f 50/50/50 44/44/44 52/52/52
f 53/53/53 44/44/44 51/51/51
f 52/52/52 44/44/44 54/54/54
f 55/55/55 44/44/44 53/53/53
f 54/54/54 44/44/44 56/56/56
f 57/57/57 44/44/44 55/55/55
f 56/56/56 44/44/44 58/58/58
f 59/59/59 44/44/44 57/57/57
f 58/58/58 44/44/44 60/60/60
f 61/61/61 44/44/44 59/59/59
f 60/60/60 44/44/44 62/62/62
f 63/63/63 44/44/44 61/61/61
f 62/62/62 44/44/44 63/63/63
f 66/66/66 65/65/65 64/64/64
f 64/64/64 65/65/65 67/67/67
f 68/68/68 65/65/65 66/66/66
f 67/67/67 65/65/65 69/69/69
f 70/70/70 65/65/65 68/68/68
f 69/69/69 65/65/65 71/71/71
f 72/72/72 65/65/65 70/70/70
f 71/71/71 65/65/65 73/73/73
f 74/74/74 65/65/65 72/72/72
f 73/73/73 65/65/65 75/75/75
f 76/76/76 65/65/65 74/74/74
f 75/75/75 65/65/65 77/77/77
f 78/78/78 65/65/65 76/76/76
f 77/77/77 65/65/65 79/79/79
f 80/80/80 65/65/65 78/78/78
f 79/79/79 65/65/65 81/81/81
f 82/82/82 65/65/65 80/80/80
f 81/81/81 65/65/65 83/83/83
f 84/84/84 65/65/65 82/82/82
f 83/83/83 65/65/65 84/84/84
f 87/87/87 86/86/86 85/85/85
f 88/88/88 87/87/87 85/85/85
f 85/85/85 86/86/86 89/89/89
f 90/90/90 87/87/87 88/88/88
f 86/86/86 91/91/91 89/89/89
f 92/92/92 90/90/90 88/88/88
f 89/89/89 91/91/91 93/93/93
f 94/94/94 90/90/90 92/92/92
f 91/91/91 95/95/95 93/93/93
f 96/96/96 94/94/94 92/92/92
f 93/93/93 95/95/95 97/97/97
f 98/98/98 94/94/94 96/96/96
f 95/95/95 99/99/99 97/97/97
f 100/100/100 98/98/98 96/96/96
f 97/97/97 99/99/99 101/101/101
f 102/102/102 98/98/98 100/100/100
f 99/99/99 103/103/103 101/101/101
f 104/104/104 102/102/102 100/100/100
f 101/101/101 103/103/103 105/105/105
f 106/106/106 102/102/102 104/104/104
f 103/103/103 107/107/107 105/105/105
f 108/108/108 106/106/106 104/104/104
f 105/105/105 107/107/107 109/109/109
f 110/110/110 106/106/106 108/108/108
f 107/107/107 111/111/111 109/109/109
f 112/112/112 110/110/110 108/108/108
f 109/109/109 111/111/111 113/113/113
f 114/114/114 110/110/110 112/112/112
f 111/111/111 115/115/115 113/113/113
f 116/116/116 114/114/114 112/112/112
f 113/113/113 115/115/115 117/117/117
f 118/118/118 114/114/114 116/116/116
f 115/115/115 119/119/119 117/117/117
f 120/120/120 118/118/118 116/116/116
f 117/117/117 119/119/119 121/121/121
f 122/122/122 118/118/118 120/120/120
f 119/119/119 123/123/123 121/121/121
f 124/124/124 122/122/122 120/120/120
f 121/121/121 123/123/123 124/124/124
f 123/123/123 122/122/122 124/124/124
