g BatarangBlackR
v -10.82795 7.550722 -1.742601
v -9.144708 7.474697 -1.837235
v -8.561206 7.584665 -1.700349
v -9.246229 8.743567 -0.2577535
v -8.132661 7.802858 -1.428743
v -7.853122 8.201515 -0.932496
v -7.862422 8.689791 -0.3246921
v -8.542789 9.365291 0.5161669
v -8.290153 9.60158 0.8102971
v -10.56884 9.148056 0.2457533
v -12.23288 9.42435 0.5896826
v -8.674894 9.511641 0.6983412
v -11.35359 9.105613 0.1929206
v -10.43835 8.894889 -0.06938791
v -12.75749 9.905735 1.188909
v -10.88298 9.840796 1.108072
v -8.672796 10.13623 1.475824
v -11.43411 11.38698 3.032752
v -12.75437 10.33283 1.720557
v -12.30575 10.83552 2.346303
v -9.824122 10.27909 1.653656
v -6.787292 10.73246 2.218011
v -10.21194 10.31575 1.699289
v -9.373661 10.83825 2.3497
v -6.253821 9.859982 1.131955
v -6.212898 9.789393 1.044087
v -7.269804 11.06866 2.636513
v -8.506002 11.15698 2.746452
v -7.729698 11.21473 2.818341
v -8.561206 7.415664 -1.564582
v -9.144708 7.305696 -1.701468
v -10.82795 7.381721 -1.606834
v -9.246229 8.574565 -0.121987
v -8.132661 7.633857 -1.292977
v -7.853122 8.032514 -0.7967296
v -7.862422 8.52079 -0.1889257
v -8.542789 9.196289 0.6519334
v -8.290153 9.432578 0.9460635
v -10.56884 8.979054 0.3815197
v -12.23288 9.255348 0.725449
v -8.674894 9.342639 0.8341076
v -11.35359 8.936611 0.328687
v -10.43835 8.725887 0.06637851
v -12.75749 9.736734 1.324676
v -10.88298 9.671794 1.243839
v -8.672796 9.967226 1.611591
v -11.43411 11.21798 3.168518
v -12.75437 10.16383 1.856324
v -12.30575 10.66652 2.482069
v -9.824122 10.11009 1.789422
v -6.787292 10.56346 2.353777
v -10.21194 10.14675 1.835056
v -9.373661 10.66925 2.485466
v -6.253821 9.69098 1.267722
v -6.212898 9.620392 1.179853
v -7.269804 10.89966 2.77228
v -8.506002 10.98798 2.882218
v -7.729698 11.04573 2.954108
v -9.246229 8.574565 -0.121987
v -10.82795 7.550722 -1.742601
v -9.246229 8.743567 -0.2577535
v -10.82795 7.381721 -1.606834
v -9.144708 7.474697 -1.837235
v -9.144708 7.305696 -1.701468
v -8.561206 7.584665 -1.700349
v -8.561206 7.415664 -1.564582
v -8.132661 7.802858 -1.428743
v -8.132661 7.633857 -1.292977
v -7.853122 8.201515 -0.932496
v -7.853122 8.032514 -0.7967296
v -7.862422 8.689791 -0.3246921
v -7.862422 8.52079 -0.1889257
v -7.862422 8.52079 -0.1889257
v -8.290153 9.60158 0.8102971
v -7.862422 8.689791 -0.3246921
v -8.290153 9.432578 0.9460635
v -8.542789 9.365291 0.5161669
v -8.542789 9.196289 0.6519334
v -8.674894 9.511641 0.6983412
v -8.674894 9.342639 0.8341076
v -8.674894 9.342639 0.8341076
v -8.672796 10.13623 1.475824
v -8.674894 9.511641 0.6983412
v -8.672796 9.967226 1.611591
v -6.212898 9.789393 1.044087
v -6.212898 9.620392 1.179853
v -6.253821 9.859982 1.131955
v -6.253821 9.69098 1.267722
v -6.787292 10.73246 2.218011
v -6.787292 10.56346 2.353777
v -6.787292 10.56346 2.353777
v -7.269804 10.89966 2.77228
v -7.269804 11.06866 2.636513
v -6.787292 10.73246 2.218011
v -7.269804 10.89966 2.77228
v -7.729698 11.04573 2.954108
v -7.729698 11.21473 2.818341
v -7.269804 11.06866 2.636513
v -7.729698 11.04573 2.954108
v -8.506002 10.98798 2.882218
v -8.506002 11.15698 2.746452
v -7.729698 11.21473 2.818341
v -8.506002 10.98798 2.882218
v -9.373661 10.83825 2.3497
v -8.506002 11.15698 2.746452
v -9.373661 10.66925 2.485466
v -10.21194 10.31575 1.699289
v -10.21194 10.14675 1.835056
v -10.21194 10.14675 1.835056
v -9.824122 10.11009 1.789422
v -9.824122 10.27909 1.653656
v -10.21194 10.31575 1.699289
v -9.824122 10.11009 1.789422
v -10.88298 9.840796 1.108072
v -9.824122 10.27909 1.653656
v -10.88298 9.671794 1.243839
v -11.43411 11.38698 3.032752
v -11.43411 11.21798 3.168518
v -11.43411 11.21798 3.168518
v -12.30575 10.66652 2.482069
v -12.30575 10.83552 2.346303
v -11.43411 11.38698 3.032752
v -12.30575 10.66652 2.482069
v -12.75437 10.16383 1.856324
v -12.75437 10.33283 1.720557
v -12.30575 10.83552 2.346303
v -12.75437 10.16383 1.856324
v -12.75749 9.905735 1.188909
v -12.75437 10.33283 1.720557
v -12.75749 9.736734 1.324676
v -12.23288 9.42435 0.5896826
v -12.23288 9.255348 0.725449
v -12.23288 9.255348 0.725449
v -11.35359 8.936611 0.328687
v -11.35359 9.105613 0.1929206
v -12.23288 9.42435 0.5896826
v -11.35359 8.936611 0.328687
v -10.43835 8.725887 0.06637851
v -10.43835 8.894889 -0.06938791
v -11.35359 9.105613 0.1929206
v -10.43835 8.725887 0.06637851
v -10.56884 8.979054 0.3815197
v -10.56884 9.148056 0.2457533
v -10.43835 8.894889 -0.06938791
v -10.56884 8.979054 0.3815197
v -9.246229 8.574565 -0.121987
v -9.246229 8.743567 -0.2577535
v -10.56884 9.148056 0.2457533
vt 0.6343532 0.6461472
vt 0.618188 0.6091984
vt 0.6079886 0.5988065
vt 0.5765409 0.6338388
vt 0.5958647 0.5936105
vt 0.5793148 0.5947652
vt 0.5629572 0.6036175
vt 0.5477543 0.6299821
vt 0.5369775 0.6288275
vt 0.5776201 0.6689828
vt 0.58682 0.7090757
vt 0.5442904 0.6353705
vt 0.5877823 0.684828
vt 0.5847032 0.661735
vt 0.5764281 0.7287048
vt 0.5577613 0.6879071
vt 0.5232106 0.6463982
vt 0.5117676 0.7269729
vt 0.561995 0.73621
vt 0.5400566 0.7356327
vt 0.5312043 0.6732815
vt 0.4821316 0.6170885
vt 0.5342834 0.6821339
vt 0.5073414 0.6736664
vt 0.5056096 0.5903391
vt 0.507534 0.5882222
vt 0.4761659 0.6332536
vt 0.4869427 0.6609651
vt 0.4763584 0.6455699
vt 0.6079886 0.5988065
vt 0.618188 0.6091984
vt 0.6343532 0.6461472
vt 0.5765409 0.6338388
vt 0.5958647 0.5936105
vt 0.5793148 0.5947652
vt 0.5629572 0.6036175
vt 0.5477543 0.6299821
vt 0.5369775 0.6288275
vt 0.5776201 0.6689828
vt 0.58682 0.7090757
vt 0.5442904 0.6353705
vt 0.5877823 0.684828
vt 0.5847032 0.661735
vt 0.5764281 0.7287048
vt 0.5577613 0.6879071
vt 0.5232106 0.6463982
vt 0.5117676 0.7269729
vt 0.561995 0.73621
vt 0.5400566 0.7356327
vt 0.5312043 0.6732815
vt 0.4821316 0.6170885
vt 0.5342834 0.6821339
vt 0.5073414 0.6736664
vt 0.5056096 0.5903391
vt 0.507534 0.5882222
vt 0.4761659 0.6332536
vt 0.4869427 0.6609651
vt 0.4763584 0.6455699
vt 0.4646789 0.7057272
vt 0.4646788 0.705727
vt 0.4646788 0.7057272
vt 0.4646788 0.705727
vt 0.4646788 0.705727
vt 0.4646789 0.705727
vt 0.4646788 0.705727
vt 0.4646789 0.705727
vt 0.4646788 0.705727
vt 0.4646789 0.705727
vt 0.4646788 0.7057271
vt 0.4646789 0.7057271
vt 0.4646788 0.7057272
vt 0.4646789 0.7057272
vt 0.4646789 0.7057272
vt 0.4646788 0.7057271
vt 0.4646788 0.7057272
vt 0.4646789 0.7057271
vt 0.4646788 0.7057271
vt 0.4646789 0.7057271
vt 0.4646788 0.705727
vt 0.4646789 0.705727
vt 0.4646789 0.705727
vt 0.4646788 0.7057271
vt 0.4646788 0.705727
vt 0.4646789 0.7057271
vt 0.4646788 0.7057271
vt 0.4646789 0.7057271
vt 0.4646788 0.7057271
vt 0.4646789 0.7057271
vt 0.4646788 0.705727
vt 0.4646789 0.705727
vt 0.4646789 0.705727
vt 0.4646789 0.7057272
vt 0.4646788 0.7057272
vt 0.4646788 0.705727
vt 0.4646789 0.7057272
vt 0.4646789 0.7057271
vt 0.4646788 0.7057271
vt 0.4646788 0.7057272
vt 0.4646789 0.7057271
vt 0.4646789 0.7057272
vt 0.4646788 0.7057272
vt 0.4646788 0.7057271
vt 0.4646789 0.7057272
vt 0.4646788 0.7057271
vt 0.4646788 0.7057272
vt 0.4646789 0.7057271
vt 0.4646788 0.705727
vt 0.4646788 0.705727
vt 0.4646788 0.705727
vt 0.4646788 0.7057271
vt 0.4646788 0.7057271
vt 0.4646788 0.705727
vt 0.4646788 0.7057271
vt 0.4646788 0.705727
vt 0.4646788 0.7057271
vt 0.4646788 0.705727
vt 0.4646788 0.705727
vt 0.4646788 0.705727
vt 0.4646788 0.705727
vt 0.4646788 0.7057271
vt 0.4646788 0.7057271
vt 0.4646788 0.705727
vt 0.4646788 0.7057271
vt 0.4646788 0.705727
vt 0.4646788 0.705727
vt 0.4646788 0.7057271
vt 0.4646788 0.705727
vt 0.4646788 0.7057271
vt 0.4646788 0.705727
vt 0.4646788 0.7057271
vt 0.4646788 0.7057271
vt 0.4646788 0.7057271
vt 0.4646788 0.7057271
vt 0.4646788 0.705727
vt 0.4646788 0.705727
vt 0.4646788 0.7057271
vt 0.4646788 0.705727
vt 0.4646788 0.7057272
vt 0.4646788 0.7057272
vt 0.4646788 0.705727
vt 0.4646788 0.7057272
vt 0.4646788 0.705727
vt 0.4646788 0.705727
vt 0.4646788 0.7057272
vt 0.4646788 0.705727
vt 0.4646789 0.7057272
vt 0.4646788 0.7057272
vt 0.4646788 0.705727
vn -0.3825301 0.6068925 -0.6966722
vn 0.0979936 -0.2015786 -0.9745581
vn 0.2563627 0.3495771 -0.9011515
vn -0.1972119 0.7370185 -0.6464605
vn 0.5544468 0.2945075 -0.7783663
vn 0.6849274 0.4701414 -0.5566341
vn 0.5449975 0.7017114 -0.4588886
vn 0.007751715 0.8915107 -0.4529333
vn 0.09802489 0.9949672 0.02077003
vn 0.1258255 0.6742114 -0.7277409
vn -0.2981734 0.4996048 -0.8133189
vn 0.4210173 0.7709624 -0.4778716
vn -0.299658 0.1520737 -0.9418486
vn 0.4563821 0.2890345 -0.841531
vn -0.4119493 0.6245254 -0.6635253
vn 0.1021197 0.9084891 -0.4052394
vn 0.1514065 0.6374849 -0.7554396
vn 0.08423476 0.9258096 -0.3684849
vn -0.6727527 0.6708533 -0.3120249
vn -0.7134157 0.6873596 0.1362891
vn -0.2271366 0.7268345 -0.648167
vn 0.3122371 0.8451065 -0.4339388
vn -0.3897389 0.6310456 -0.6707346
vn -0.3367923 0.9238647 -0.1817826
vn 0.6625118 0.7060233 -0.2502184
vn 0.5196887 0.2758461 -0.8085991
vn 0.3334531 0.9245012 -0.1846796
vn -0.2229258 0.9723666 0.06933414
vn 0.1548085 0.9075379 0.3903961
vn 0.2563631 -0.9553169 0.1471315
vn 0.09799419 -0.908205 -0.4068919
vn -0.3825303 -0.8111027 0.4424737
vn -0.197212 -0.790121 0.5803587
vn 0.5544464 -0.8235489 0.1198179
vn 0.6849273 -0.6448839 0.3391154
vn 0.5449979 -0.5993474 0.5863104
vn 0.007751957 -0.6344405 0.7729327
vn 0.09802633 -0.19417 0.9760578
vn 0.1258256 -0.8559533 0.5015096
vn -0.2981734 -0.9018854 0.3125628
vn 0.4210173 -0.6328099 0.6498431
vn -0.2996578 -0.9524886 -0.05450374
vn 0.4563827 -0.8840488 0.1008597
vn -0.4119488 -0.7825383 0.4668319
vn 0.1021197 -0.5915276 0.7997916
vn 0.1514062 -0.8750852 0.4596759
vn 0.08423334 -0.5593692 0.8246276
vn -0.6727535 -0.4492832 0.5878329
vn -0.7134161 -0.01506432 0.7005787
vn -0.2271366 -0.7895924 0.5700464
vn 0.3122375 -0.6058919 0.7317122
vn -0.3897381 -0.7909847 0.4716432
vn -0.3367923 -0.3766373 0.862969
vn 0.6625118 -0.3965121 0.6354969
vn 0.5196878 -0.8490494 0.09507739
vn 0.3334528 -0.3796039 0.8629659
vn -0.2229265 -0.1418772 0.9644556
vn 0.1548081 0.1856106 0.9703522
vn -0.197212 -0.790121 0.5803587
vn -0.3825301 0.6068925 -0.6966722
vn -0.1972119 0.7370185 -0.6464605
vn -0.3825303 -0.8111027 0.4424737
vn 0.0979936 -0.2015786 -0.9745581
vn 0.09799419 -0.908205 -0.4068919
vn 0.2563627 0.3495771 -0.9011515
vn 0.2563631 -0.9553169 0.1471315
vn 0.5544468 0.2945075 -0.7783663
vn 0.5544464 -0.8235489 0.1198179
vn 0.6849274 0.4701414 -0.5566341
vn 0.6849273 -0.6448839 0.3391154
vn 0.5449975 0.7017114 -0.4588886
vn 0.5449979 -0.5993474 0.5863104
vn 0.5449979 -0.5993474 0.5863104
vn 0.09802489 0.9949672 0.02077003
vn 0.5449975 0.7017114 -0.4588886
vn 0.09802633 -0.19417 0.9760578
vn 0.007751715 0.8915107 -0.4529333
vn 0.007751957 -0.6344405 0.7729327
vn 0.4210173 0.7709624 -0.4778716
vn 0.4210173 -0.6328099 0.6498431
vn 0.4210173 -0.6328099 0.6498431
vn 0.1514065 0.6374849 -0.7554396
vn 0.4210173 0.7709624 -0.4778716
vn 0.1514062 -0.8750852 0.4596759
vn 0.5196887 0.2758461 -0.8085991
vn 0.5196878 -0.8490494 0.09507739
vn 0.6625118 0.7060233 -0.2502184
vn 0.6625118 -0.3965121 0.6354969
vn 0.3122371 0.8451065 -0.4339388
vn 0.3122375 -0.6058919 0.7317122
vn 0.3122375 -0.6058919 0.7317122
vn 0.3334528 -0.3796039 0.8629659
vn 0.3334531 0.9245012 -0.1846796
vn 0.3122371 0.8451065 -0.4339388
vn 0.3334528 -0.3796039 0.8629659
vn 0.1548081 0.1856106 0.9703522
vn 0.1548085 0.9075379 0.3903961
vn 0.3334531 0.9245012 -0.1846796
vn 0.1548081 0.1856106 0.9703522
vn -0.2229265 -0.1418772 0.9644556
vn -0.2229258 0.9723666 0.06933414
vn 0.1548085 0.9075379 0.3903961
vn -0.2229265 -0.1418772 0.9644556
vn -0.3367923 0.9238647 -0.1817826
vn -0.2229258 0.9723666 0.06933414
vn -0.3367923 -0.3766373 0.862969
vn -0.3897389 0.6310456 -0.6707346
vn -0.3897381 -0.7909847 0.4716432
vn -0.3897381 -0.7909847 0.4716432
vn -0.2271366 -0.7895924 0.5700464
vn -0.2271366 0.7268345 -0.648167
vn -0.3897389 0.6310456 -0.6707346
vn -0.2271366 -0.7895924 0.5700464
vn 0.1021197 0.9084891 -0.4052394
vn -0.2271366 0.7268345 -0.648167
vn 0.1021197 -0.5915276 0.7997916
vn 0.08423476 0.9258096 -0.3684849
vn 0.08423334 -0.5593692 0.8246276
vn 0.08423334 -0.5593692 0.8246276
vn -0.7134161 -0.01506432 0.7005787
vn -0.7134157 0.6873596 0.1362891
vn 0.08423476 0.9258096 -0.3684849
vn -0.7134161 -0.01506432 0.7005787
vn -0.6727535 -0.4492832 0.5878329
vn -0.6727527 0.6708533 -0.3120249
vn -0.7134157 0.6873596 0.1362891
vn -0.6727535 -0.4492832 0.5878329
vn -0.4119493 0.6245254 -0.6635253
vn -0.6727527 0.6708533 -0.3120249
vn -0.4119488 -0.7825383 0.4668319
vn -0.2981734 0.4996048 -0.8133189
vn -0.2981734 -0.9018854 0.3125628
vn -0.2981734 -0.9018854 0.3125628
vn -0.2996578 -0.9524886 -0.05450374
vn -0.299658 0.1520737 -0.9418486
vn -0.2981734 0.4996048 -0.8133189
vn -0.2996578 -0.9524886 -0.05450374
vn 0.4563827 -0.8840488 0.1008597
vn 0.4563821 0.2890345 -0.841531
vn -0.299658 0.1520737 -0.9418486
vn 0.4563827 -0.8840488 0.1008597
vn 0.1258256 -0.8559533 0.5015096
vn 0.1258255 0.6742114 -0.7277409
vn 0.4563821 0.2890345 -0.841531
vn 0.1258256 -0.8559533 0.5015096
vn -0.197212 -0.790121 0.5803587
vn -0.1972119 0.7370185 -0.6464605
vn 0.1258255 0.6742114 -0.7277409
g BatarangBlackR_0
f 3/3/3 2/2/2 1/1/1
f 1/1/1 4/4/4 3/3/3
f 4/4/4 5/5/5 3/3/3
f 4/4/4 6/6/6 5/5/5
f 4/4/4 7/7/7 6/6/6
f 4/4/4 8/8/8 7/7/7
f 8/8/8 9/9/9 7/7/7
f 4/4/4 10/10/10 8/8/8
f 11/11/11 8/8/8 10/10/10
f 11/11/11 12/12/12 8/8/8
f 13/13/13 11/11/11 10/10/10
f 10/10/10 14/14/14 13/13/13
f 11/11/11 15/15/15 12/12/12
f 15/15/15 16/16/16 12/12/12
f 17/17/17 12/12/12 16/16/16
f 15/15/15 18/18/18 16/16/16
f 15/15/15 19/19/19 18/18/18
f 19/19/19 20/20/20 18/18/18
f 16/16/16 21/21/21 17/17/17
f 17/17/17 21/21/21 22/22/22
f 21/21/21 23/23/23 22/22/22
f 23/23/23 24/24/24 22/22/22
f 17/17/17 22/22/22 25/25/25
f 25/25/25 26/26/26 17/17/17
f 24/24/24 27/27/27 22/22/22
f 24/24/24 28/28/28 27/27/27
f 28/28/28 29/29/29 27/27/27
f 32/32/32 31/31/31 30/30/30
f 30/30/30 33/33/33 32/32/32
f 30/30/30 34/34/34 33/33/33
f 34/34/34 35/35/35 33/33/33
f 35/35/35 36/36/36 33/33/33
f 36/36/36 37/37/37 33/33/33
f 36/36/36 38/38/38 37/37/37
f 37/37/37 39/39/39 33/33/33
f 39/39/39 37/37/37 40/40/40
f 37/37/37 41/41/41 40/40/40
f 39/39/39 40/40/40 42/42/42
f 42/42/42 43/43/43 39/39/39
f 41/41/41 44/44/44 40/40/40
f 41/41/41 45/45/45 44/44/44
f 45/45/45 41/41/41 46/46/46
f 45/45/45 47/47/47 44/44/44
f 47/47/47 48/48/48 44/44/44
f 47/47/47 49/49/49 48/48/48
f 46/46/46 50/50/50 45/45/45
f 51/51/51 50/50/50 46/46/46
f 51/51/51 52/52/52 50/50/50
f 51/51/51 53/53/53 52/52/52
f 54/54/54 51/51/51 46/46/46
f 46/46/46 55/55/55 54/54/54
f 51/51/51 56/56/56 53/53/53
f 56/56/56 57/57/57 53/53/53
f 56/56/56 58/58/58 57/57/57
f 61/61/61 60/60/60 59/59/59
f 60/60/60 62/62/62 59/59/59
f 60/60/60 63/63/63 62/62/62
f 63/63/63 64/64/64 62/62/62
f 63/63/63 65/65/65 64/64/64
f 65/65/65 66/66/66 64/64/64
f 65/65/65 67/67/67 66/66/66
f 67/67/67 68/68/68 66/66/66
f 67/67/67 69/69/69 68/68/68
f 69/69/69 70/70/70 68/68/68
f 69/69/69 71/71/71 70/70/70
f 71/71/71 72/72/72 70/70/70
f 75/75/75 74/74/74 73/73/73
f 74/74/74 76/76/76 73/73/73
f 74/74/74 77/77/77 76/76/76
f 77/77/77 78/78/78 76/76/76
f 77/77/77 79/79/79 78/78/78
f 79/79/79 80/80/80 78/78/78
f 83/83/83 82/82/82 81/81/81
f 82/82/82 84/84/84 81/81/81
f 82/82/82 85/85/85 84/84/84
f 85/85/85 86/86/86 84/84/84
f 85/85/85 87/87/87 86/86/86
f 87/87/87 88/88/88 86/86/86
f 87/87/87 89/89/89 88/88/88
f 89/89/89 90/90/90 88/88/88
f 93/93/93 92/92/92 91/91/91
f 94/94/94 93/93/93 91/91/91
f 97/97/97 96/96/96 95/95/95
f 98/98/98 97/97/97 95/95/95
f 101/101/101 100/100/100 99/99/99
f 102/102/102 101/101/101 99/99/99
f 105/105/105 104/104/104 103/103/103
f 104/104/104 106/106/106 103/103/103
f 104/104/104 107/107/107 106/106/106
f 107/107/107 108/108/108 106/106/106
f 111/111/111 110/110/110 109/109/109
f 112/112/112 111/111/111 109/109/109
f 115/115/115 114/114/114 113/113/113
f 114/114/114 116/116/116 113/113/113
f 114/114/114 117/117/117 116/116/116
f 117/117/117 118/118/118 116/116/116
f 121/121/121 120/120/120 119/119/119
f 122/122/122 121/121/121 119/119/119
f 125/125/125 124/124/124 123/123/123
f 126/126/126 125/125/125 123/123/123
f 129/129/129 128/128/128 127/127/127
f 128/128/128 130/130/130 127/127/127
f 128/128/128 131/131/131 130/130/130
f 131/131/131 132/132/132 130/130/130
f 135/135/135 134/134/134 133/133/133
f 136/136/136 135/135/135 133/133/133
f 139/139/139 138/138/138 137/137/137
f 140/140/140 139/139/139 137/137/137
f 143/143/143 142/142/142 141/141/141
f 144/144/144 143/143/143 141/141/141
f 147/147/147 146/146/146 145/145/145
f 148/148/148 147/147/147 145/145/145
