g Belt
v -1.069939 7.016096 2.308187
v -0.821223 6.906394 1.770822
v -0.8401873 5.915517 2.168546
v -2.341976 6.672168 1.114769
v -2.590692 6.781871 1.652134
v -2.36094 5.681293 1.512494
v -1.087078 6.120571 2.667639
v -2.607831 5.886347 2.011586
v -2.224115 5.464717 1.669159
v -1.233026 5.860444 2.702315
v -0.9861358 5.65539 2.203223
v -2.471005 5.669771 2.168251
v 1.069939 7.016096 2.308187
v 0.840188 5.915517 2.168546
v 0.8212238 6.906394 1.770822
v 2.341977 6.672167 1.114769
v 2.590692 6.78187 1.652134
v 2.360941 5.681293 1.512494
v 1.087079 6.120571 2.667639
v 2.607832 5.886346 2.011586
v 2.224116 5.464717 1.669159
v 1.233027 5.860444 2.702315
v 0.9861364 5.65539 2.203223
v 2.471006 5.669771 2.168251
v -0.6235744 6.736349 2.200681
v -0.6235744 6.771777 1.843957
v 0.7906389 6.771777 1.843957
v -0.6235744 5.364487 1.704194
v 0.7906389 6.736349 2.200681
v 0.790639 5.364487 1.704194
v 0.790639 5.329059 2.060919
v -0.6235744 5.329059 2.060919
vt 0.9805909 0.1258033
vt 0.9905872 0.1169048
vt 0.918667 0.1048364
vt 0.9905872 0.2050514
vt 0.9805909 0.1972584
vt 0.918667 0.223805
vt 0.918667 0.1264025
vt 0.918667 0.2023695
vt 0.918667 0.2078111
vt 0.918667 0.1332459
vt 0.918667 0.1192283
vt 0.918667 0.194939
vt 0.9805909 0.1258033
vt 0.918667 0.1048364
vt 0.9905872 0.1169048
vt 0.9905872 0.2050514
vt 0.9805909 0.1972584
vt 0.918667 0.223805
vt 0.918667 0.1264025
vt 0.918667 0.2023695
vt 0.918667 0.2078111
vt 0.918667 0.1332459
vt 0.918667 0.1192283
vt 0.918667 0.194939
vt 0.9883392 0.07344931
vt 0.9944438 0.08031418
vt 0.9936873 0.002904389
vt 0.9165843 0.08031418
vt 0.9883392 0.007558799
vt 0.9165843 0.001202373
vt 0.9223036 0.007558799
vt 0.9223036 0.07344931
vn 0.2404789 0.7980912 0.5524675
vn 0.6050383 0.7872031 0.119331
vn 0.8709096 -0.1145848 0.4778983
vn -0.6807017 0.5891743 -0.4353374
vn -0.7542655 0.6448815 0.1233348
vn -0.8804581 -0.3843291 -0.2776415
vn 0.3044949 0.1694039 0.9373288
vn -0.9104712 -0.01772426 0.4131925
vn -0.4618407 -0.8771012 0.131897
vn 0.1666063 -0.4694427 0.867102
vn 0.4308994 -0.739602 0.5170248
vn -0.6076704 -0.5886962 0.5330793
vn -0.2404786 0.7980913 0.5524675
vn -0.8709096 -0.1145847 0.4778983
vn -0.6050382 0.7872033 0.1193309
vn 0.6807019 0.5891743 -0.4353373
vn 0.7542656 0.6448813 0.1233348
vn 0.8804581 -0.3843292 -0.2776415
vn -0.3044948 0.1694042 0.9373288
vn 0.9104712 -0.01772406 0.4131925
vn 0.4618405 -0.8771012 0.1318969
vn -0.1666064 -0.4694425 0.8671021
vn -0.4308994 -0.7396019 0.5170248
vn 0.6076705 -0.5886961 0.5330791
vn -0.5773501 0.5174657 0.6315822
vn -0.7071068 0.7036452 0.06988204
vn 0.7071066 0.7036451 0.06988204
vn -0.7071066 -0.7036453 -0.06988151
vn 0.57735 0.5174658 0.6315821
vn 0.7071069 -0.7036451 -0.06988149
vn 0.5773504 -0.6315818 0.5174659
vn -0.5773502 -0.631582 0.5174659
g Belt_0
f 3/3/3 2/2/2 1/1/1
f 2/2/2 4/4/4 1/1/1
f 4/4/4 5/5/5 1/1/1
f 4/4/4 6/6/6 5/5/5
f 7/7/7 3/3/3 1/1/1
f 1/1/1 5/5/5 7/7/7
f 6/6/6 8/8/8 5/5/5
f 5/5/5 8/8/8 7/7/7
f 6/6/6 9/9/9 8/8/8
f 7/7/7 10/10/10 3/3/3
f 7/7/7 8/8/8 10/10/10
f 10/10/10 11/11/11 3/3/3
f 9/9/9 11/11/11 10/10/10
f 9/9/9 12/12/12 8/8/8
f 12/12/12 9/9/9 10/10/10
f 8/8/8 12/12/12 10/10/10
f 15/15/15 14/14/14 13/13/13
f 16/16/16 15/15/15 13/13/13
f 17/17/17 16/16/16 13/13/13
f 18/18/18 16/16/16 17/17/17
f 14/14/14 19/19/19 13/13/13
f 13/13/13 19/19/19 17/17/17
f 20/20/20 18/18/18 17/17/17
f 19/19/19 20/20/20 17/17/17
f 21/21/21 18/18/18 20/20/20
f 19/19/19 14/14/14 22/22/22
f 19/19/19 22/22/22 20/20/20
f 14/14/14 23/23/23 22/22/22
f 22/22/22 23/23/23 21/21/21
f 24/24/24 21/21/21 20/20/20
f 24/24/24 22/22/22 21/21/21
f 22/22/22 24/24/24 20/20/20
f 27/27/27 26/26/26 25/25/25
f 25/25/25 26/26/26 28/28/28
f 29/29/29 27/27/27 25/25/25
f 30/30/30 27/27/27 29/29/29
f 31/31/31 30/30/30 29/29/29
f 28/28/28 30/30/30 31/31/31
f 29/29/29 25/25/25 31/31/31
f 32/32/32 25/25/25 28/28/28
f 25/25/25 32/32/32 31/31/31
f 32/32/32 28/28/28 31/31/31
