g BladeLVL3
v 11.19959 9.207195 2.957469
v 11.19959 8.77242 2.957469
v 11.00546 8.810088 10.29424
v 11.00546 9.123032 10.29424
v 8.585819 9.305035 2.957469
v 8.585819 9.305035 10.29424
v 10.2503 8.844296 13.0792
v 10.2503 9.159719 13.07502
v 8.688897 9.241529 12.5532
v 8.897777 9.169432 13.7499
v 9.786667 9.149388 14.01081
v 9.786666 8.872998 14.01291
v 9.106656 9.12837 14.94661
v 9.106655 8.891355 14.94661
v 11.00546 8.810088 10.29424
v 11.19959 8.77242 2.957469
v 8.585819 8.696209 2.957469
v 8.585819 8.696209 10.29424
v 8.688897 8.75128 12.5532
v 10.2503 8.844296 13.0792
v 8.897776 8.827722 13.7499
v 9.786666 8.872998 14.01291
v 9.106655 8.891355 14.94661
v 8.585819 8.696209 10.29424
v 8.585819 8.696209 2.957469
v 8.585819 9.305035 2.957469
v 8.585819 9.305035 10.29424
v 8.688897 9.241529 12.5532
v 8.688897 8.75128 12.5532
v 8.897777 9.169432 13.7499
v 8.897776 8.827722 13.7499
v 9.106655 8.891355 14.94661
v 9.106656 9.12837 14.94661
v -11.20775 9.207195 2.957469
v -11.01302 8.810088 10.29424
v -11.20775 8.77242 2.957469
v -11.01302 9.123032 10.29424
v -8.585819 9.305035 2.957469
v -10.25042 8.844296 13.0792
v -8.585819 9.305035 10.29424
v -10.25042 9.159719 13.08008
v -8.688897 9.241529 12.5532
v -8.897741 9.174176 13.7497
v -9.786693 8.872998 14.0127
v -9.786692 9.153278 14.01314
v -9.106586 9.13786 14.94621
v -9.106586 8.891355 14.94621
v -11.01302 8.810088 10.29424
v -8.585819 8.696209 2.957469
v -11.20775 8.77242 2.957469
v -8.585819 8.696209 10.29424
v -8.688897 8.75128 12.5532
v -10.25042 8.844296 13.0792
v -8.897741 8.827722 13.7497
v -9.786693 8.872998 14.0127
v -9.106586 8.891355 14.94621
v -8.585819 8.696209 10.29424
v -8.585819 9.305035 2.957469
v -8.585819 8.696209 2.957469
v -8.585819 9.305035 10.29424
v -8.688897 9.241529 12.5532
v -8.688897 8.75128 12.5532
v -8.897741 9.174176 13.7497
v -8.897741 8.827722 13.7497
v -9.106586 9.13786 14.94621
v -9.106586 8.891355 14.94621
vt 0.1931286 0.2874599
vt 0.1938099 0.2874599
vt 0.1938338 0.4101826
vt 0.1931525 0.4101826
vt 0.1389809 0.2874599
vt 0.1390048 0.4101826
vt 0.1769769 0.457602
vt 0.1764746 0.4575378
vt 0.1440953 0.4486315
vt 0.1486069 0.4690746
vt 0.1647966 0.4735277
vt 0.1650855 0.4737308
vt 0.1531186 0.4895177
vt 0.153194 0.4898596
vt 0.1938338 0.4101826
vt 0.1938099 0.2874598
vt 0.1389809 0.2874598
vt 0.1390049 0.4101826
vt 0.1440952 0.4486313
vt 0.1769769 0.457602
vt 0.1486446 0.4692455
vt 0.1650854 0.4737308
vt 0.153194 0.4898597
vt 0.1310746 0.4102124
vt 0.1310746 0.2873195
vt 0.1180128 0.2873195
vt 0.1180128 0.4102125
vt 0.1201738 0.4487146
vt 0.1283813 0.4487146
vt 0.1221537 0.4691861
vt 0.126274 0.4693573
vt 0.1241667 0.4899999
vt 0.1241336 0.4896575
vt 0.1934687 0.2874599
vt 0.1938338 0.4101826
vt 0.1938099 0.2874599
vt 0.1934926 0.4101827
vt 0.1389809 0.2874599
vt 0.1769769 0.457602
vt 0.1390048 0.4101826
vt 0.1765532 0.4575706
vt 0.1440953 0.4486315
vt 0.1486054 0.4690677
vt 0.1650855 0.4737308
vt 0.1648344 0.4735373
vt 0.1531156 0.4895039
vt 0.153194 0.4898596
vt 0.1938338 0.4101826
vt 0.1389809 0.2874598
vt 0.1938099 0.2874598
vt 0.1390049 0.4101826
vt 0.1440952 0.4486313
vt 0.1769769 0.457602
vt 0.1486446 0.4692455
vt 0.1650854 0.4737308
vt 0.153194 0.4898597
vt 0.1310746 0.4102124
vt 0.1180128 0.2873195
vt 0.1310746 0.2873195
vt 0.1180128 0.4102125
vt 0.1201738 0.4487146
vt 0.1283813 0.4487146
vt 0.122153 0.4691792
vt 0.126274 0.4693573
vt 0.1241323 0.4896438
vt 0.1241667 0.4899999
vn 0.2013261 0.9794709 0.01022446
vn 0.1850926 -0.9826967 0.006929054
vn 0.1932978 -0.9809375 0.01993701
vn 0.2107555 0.9773157 0.02088604
vn -0.1831609 0.9830624 0.006361673
vn -0.1822886 0.9831923 0.01019298
vn 0.2266228 -0.9699951 0.08804267
vn 0.2358233 0.968712 0.0773585
vn -0.1783066 0.9833076 0.03623497
vn -0.3532413 0.9298111 0.1033051
vn 0.2785949 0.9412058 0.1910927
vn 0.2918484 -0.9346426 0.2031447
vn -0.288688 0.6922512 0.6613982
vn -0.2827972 -0.6864409 0.6699439
vn 0.1932978 -0.9809375 0.01993701
vn 0.1850926 -0.9826967 0.006929054
vn -0.2000215 -0.9797869 0.003004737
vn -0.198769 -0.9799985 0.009680673
vn -0.1890024 -0.9808791 0.0464122
vn 0.2266228 -0.9699951 0.08804267
vn -0.3408069 -0.9330677 0.1150453
vn 0.2918484 -0.9346426 0.2031447
vn -0.2827972 -0.6864409 0.6699439
vn -0.198769 -0.9799985 0.009680673
vn -0.2000215 -0.9797869 0.003004737
vn -0.1831609 0.9830624 0.006361673
vn -0.1822886 0.9831923 0.01019298
vn -0.1783066 0.9833076 0.03623497
vn -0.1890024 -0.9808791 0.0464122
vn -0.3532413 0.9298111 0.1033051
vn -0.3408069 -0.9330677 0.1150453
vn -0.2827972 -0.6864409 0.6699439
vn -0.288688 0.6922512 0.6613982
vn -0.2007328 0.9795927 0.01022591
vn -0.1928098 -0.9810321 0.02001252
vn -0.1845438 -0.9827999 0.006930043
vn -0.2102128 0.9774308 0.0209706
vn 0.18261 0.9831648 0.006362278
vn -0.2271217 -0.9698353 0.08851641
vn 0.1817238 0.9832966 0.01019969
vn -0.2352648 0.9688784 0.07697553
vn 0.1778948 0.9833977 0.03580891
vn 0.3562605 0.9289744 0.1004243
vn -0.2947057 -0.9332909 0.2052236
vn -0.2838039 0.9397833 0.1904279
vn 0.2916789 0.6851418 0.6674609
vn 0.2860656 -0.6787735 0.676338
vn -0.1928098 -0.9810321 0.02001252
vn 0.199424 -0.9799086 0.003005154
vn -0.1845438 -0.9827999 0.006930043
vn 0.1982164 -0.9801104 0.00968367
vn 0.1890206 -0.9808723 0.04648455
vn -0.2271217 -0.9698353 0.08851641
vn 0.3451144 -0.931401 0.1157076
vn -0.2947057 -0.9332909 0.2052236
vn 0.2860656 -0.6787735 0.676338
vn 0.1982164 -0.9801104 0.00968367
vn 0.18261 0.9831648 0.006362278
vn 0.199424 -0.9799086 0.003005154
vn 0.1817238 0.9832966 0.01019969
vn 0.1778948 0.9833977 0.03580891
vn 0.1890206 -0.9808723 0.04648455
vn 0.3562605 0.9289744 0.1004243
vn 0.3451144 -0.931401 0.1157076
vn 0.2916789 0.6851418 0.6674609
vn 0.2860656 -0.6787735 0.676338
g BladeLVL3_0
f 3/3/3 2/2/2 1/1/1
f 4/4/4 3/3/3 1/1/1
f 4/4/4 1/1/1 5/5/5
f 6/6/6 4/4/4 5/5/5
f 7/7/7 3/3/3 4/4/4
f 8/8/8 4/4/4 6/6/6
f 8/8/8 7/7/7 4/4/4
f 9/9/9 8/8/8 6/6/6
f 9/9/9 10/10/10 8/8/8
f 8/8/8 11/11/11 7/7/7
f 10/10/10 11/11/11 8/8/8
f 11/11/11 12/12/12 7/7/7
f 13/13/13 11/11/11 10/10/10
f 14/14/14 12/12/12 11/11/11
f 13/13/13 14/14/14 11/11/11
f 17/17/17 16/16/16 15/15/15
f 18/18/18 17/17/17 15/15/15
f 19/19/19 18/18/18 15/15/15
f 20/20/20 19/19/19 15/15/15
f 19/19/19 20/20/20 21/21/21
f 20/20/20 22/22/22 21/21/21
f 22/22/22 23/23/23 21/21/21
f 26/26/26 25/25/25 24/24/24
f 27/27/27 26/26/26 24/24/24
f 28/28/28 27/27/27 24/24/24
f 29/29/29 28/28/28 24/24/24
f 30/30/30 28/28/28 29/29/29
f 31/31/31 30/30/30 29/29/29
f 31/31/31 32/32/32 30/30/30
f 32/32/32 33/33/33 30/30/30
f 36/36/36 35/35/35 34/34/34
f 35/35/35 37/37/37 34/34/34
f 34/34/34 37/37/37 38/38/38
f 35/35/35 39/39/39 37/37/37
f 37/37/37 40/40/40 38/38/38
f 39/39/39 41/41/41 37/37/37
f 37/37/37 41/41/41 40/40/40
f 41/41/41 42/42/42 40/40/40
f 42/42/42 41/41/41 43/43/43
f 39/39/39 44/44/44 41/41/41
f 41/41/41 45/45/45 43/43/43
f 44/44/44 45/45/45 41/41/41
f 45/45/45 46/46/46 43/43/43
f 45/45/45 44/44/44 46/46/46
f 44/44/44 47/47/47 46/46/46
f 50/50/50 49/49/49 48/48/48
f 49/49/49 51/51/51 48/48/48
f 51/51/51 52/52/52 48/48/48
f 52/52/52 53/53/53 48/48/48
f 52/52/52 54/54/54 53/53/53
f 54/54/54 55/55/55 53/53/53
f 54/54/54 56/56/56 55/55/55
f 59/59/59 58/58/58 57/57/57
f 58/58/58 60/60/60 57/57/57
f 60/60/60 61/61/61 57/57/57
f 61/61/61 62/62/62 57/57/57
f 61/61/61 63/63/63 62/62/62
f 63/63/63 64/64/64 62/62/62
f 63/63/63 65/65/65 64/64/64
f 65/65/65 66/66/66 64/64/64
