g BloonAreaDenial_Dark_3
v 3.24673 11.69594 9.094131
v 2.761833 12.6476 17.80735
v 2.761833 12.6476 9.094131
v 3.24673 11.69594 17.80735
v 3.413812 10.64101 9.094131
v 3.413812 10.64101 17.80735
v 3.246728 9.586087 9.094131
v 3.246728 9.586087 17.80735
v 2.761832 8.634425 9.094131
v 2.761832 8.634425 17.80735
v 2.006588 7.879181 9.094131
v 2.006588 7.879181 17.80735
v 1.054926 7.394286 9.094131
v 1.054926 7.394286 17.80735
v 1.592861E-07 7.227201 9.094131
v 1.592861E-07 7.227201 17.80735
v -1.054926 7.394286 9.094131
v -1.054926 7.394286 17.80735
v -2.006588 7.879181 9.094131
v -2.006588 7.879181 17.80735
v -2.761832 8.634425 9.094131
v -2.761832 8.634425 17.80735
v -3.246728 9.586087 9.094131
v -3.246728 9.586087 17.80735
v -3.413812 10.64101 9.094131
v -3.413812 10.64101 17.80735
v -3.246728 11.69594 9.094131
v -3.246728 11.69594 17.80735
v -2.761832 12.6476 9.094131
v -2.761832 12.6476 17.80735
v 2.761833 12.6476 9.094131
v 2.761833 12.6476 17.80735
v 2.006589 13.40285 17.80735
v 2.006589 13.40285 9.094131
v 1.054926 13.88774 17.80735
v 1.054926 13.88774 9.094131
v 1.054926 13.88774 9.094131
v 1.054926 13.88774 17.80735
v 2.610256E-07 14.05483 17.80735
v 2.610256E-07 14.05483 9.094131
v -1.054926 13.88774 17.80735
v -1.054926 13.88774 9.094131
v -1.054926 13.88774 9.094131
v -1.054926 13.88774 17.80735
v -2.006588 13.40285 17.80735
v -2.006588 13.40285 9.094131
v -2.761832 12.6476 17.80735
v -2.761832 12.6476 9.094131
v 2.021836 12.10997 17.80735
v 1.468951 12.66285 16.28595
v 1.468951 12.66285 17.80735
v 2.021836 12.10997 16.28595
v 2.37681 11.41329 17.80735
v 2.37681 11.41329 16.28595
v 2.499125 10.64101 17.80735
v 2.499125 10.64101 16.28595
v 2.376809 9.868744 17.80735
v 2.376809 9.868744 16.28595
v 2.021834 9.172067 17.80735
v 2.021834 9.172067 16.28595
v 1.468949 8.619178 17.80735
v 1.468949 8.619178 16.28595
v 0.772272 8.264205 17.80735
v 0.772272 8.264205 16.28595
v 6.880016E-08 8.141891 17.80735
v 6.880016E-08 8.141891 16.28595
v -0.7722721 8.264205 17.80735
v -0.7722721 8.264205 16.28595
v -1.468949 8.619178 17.80735
v -1.468949 8.619178 16.28595
v 1.468951 12.66285 17.80735
v 1.468951 12.66285 16.28595
v 0.7722725 13.01782 16.28595
v 0.7722725 13.01782 17.80735
v 1.432799E-07 13.14014 16.28595
v 1.432799E-07 13.14014 17.80735
v -0.7722723 13.01782 16.28595
v -0.7722723 13.01782 17.80735
v -1.468949 12.66285 16.28595
v -1.468949 12.66285 17.80735
v -2.021835 12.10996 16.28595
v -2.021835 12.10996 17.80735
v -2.376809 11.41329 16.28595
v -2.376809 11.41329 17.80735
v -2.499126 10.64101 16.28595
v -2.499126 10.64101 17.80735
v -2.376809 9.868744 16.28595
v -2.376809 9.868744 17.80735
v -2.021835 9.172067 16.28595
v -2.021835 9.172067 17.80735
v -1.468949 8.619178 16.28595
v -1.468949 8.619178 17.80735
v 2.37681 11.41329 16.28595
v 1.432799E-07 10.64101 16.28595
v 2.021836 12.10997 16.28595
v 2.499125 10.64101 16.28595
v 1.468951 12.66285 16.28595
v 2.376809 9.868744 16.28595
v 0.7722725 13.01782 16.28595
v 2.021834 9.172067 16.28595
v 1.432799E-07 13.14014 16.28595
v 1.468949 8.619178 16.28595
v -0.7722723 13.01782 16.28595
v 0.772272 8.264205 16.28595
v -1.468949 12.66285 16.28595
v 6.880016E-08 8.141891 16.28595
v -2.021835 12.10996 16.28595
v -0.7722721 8.264205 16.28595
v -2.376809 11.41329 16.28595
v -1.468949 8.619178 16.28595
v -2.499126 10.64101 16.28595
v -2.021835 9.172067 16.28595
v -2.376809 9.868744 16.28595
v 3.24673 11.69594 17.80735
v 2.37681 11.41329 17.80735
v 2.021836 12.10997 17.80735
v 2.761833 12.6476 17.80735
v 3.413812 10.64101 17.80735
v 1.468951 12.66285 17.80735
v 2.499125 10.64101 17.80735
v 2.006589 13.40285 17.80735
v 3.246728 9.586087 17.80735
v 0.7722725 13.01782 17.80735
v 2.376809 9.868744 17.80735
v 1.054926 13.88774 17.80735
v 2.761832 8.634425 17.80735
v 1.432799E-07 13.14014 17.80735
v 2.021834 9.172067 17.80735
v 2.610256E-07 14.05483 17.80735
v 2.006588 7.879181 17.80735
v -0.7722723 13.01782 17.80735
v 1.468949 8.619178 17.80735
v -1.054926 13.88774 17.80735
v 1.054926 7.394286 17.80735
v -1.468949 12.66285 17.80735
v 0.772272 8.264205 17.80735
v -2.006588 13.40285 17.80735
v 1.592861E-07 7.227201 17.80735
v -2.021835 12.10996 17.80735
v 6.880016E-08 8.141891 17.80735
v -2.761832 12.6476 17.80735
v -1.054926 7.394286 17.80735
v -2.376809 11.41329 17.80735
v -0.7722721 8.264205 17.80735
v -3.246728 11.69594 17.80735
v -2.006588 7.879181 17.80735
v -2.499126 10.64101 17.80735
v -1.468949 8.619178 17.80735
v -3.413812 10.64101 17.80735
v -2.761832 8.634425 17.80735
v -2.376809 9.868744 17.80735
v -2.021835 9.172067 17.80735
v -3.246728 9.586087 17.80735
vt 0.06996307 0.8867977
vt 0.06996307 0.8867977
vt 0.06996307 0.8867977
vt 0.06996307 0.8867977
vt 0.06996307 0.8867977
vt 0.06996307 0.8867977
vt 0.06996307 0.8867977
vt 0.06996307 0.8867977
vt 0.06996307 0.8867977
vt 0.06996307 0.8867977
vt 0.06996307 0.8867977
vt 0.06996307 0.8867977
vt 0.06996307 0.8867977
vt 0.06996307 0.8867977
vt 0.06996307 0.8867977
vt 0.06996307 0.8867977
vt 0.06996307 0.8867977
vt 0.06996307 0.8867977
vt 0.06996307 0.8867977
vt 0.06996307 0.8867977
vt 0.06996307 0.8867977
vt 0.06996307 0.8867977
vt 0.06996307 0.8867977
vt 0.06996307 0.8867977
vt 0.06996307 0.8867977
vt 0.06996307 0.8867977
vt 0.06996307 0.8867977
vt 0.06996307 0.8867977
vt 0.06996307 0.8867977
vt 0.06996307 0.8867977
vt 0.1782425 0.9112704
vt 0.1782425 0.9006608
vt 0.1757384 0.9006608
vt 0.1757384 0.9112704
vt 0.172583 0.9006608
vt 0.172583 0.9112704
vt 0.4255795 0.9063609
vt 0.4255795 0.924676
vt 0.4316179 0.924676
vt 0.4316179 0.9063609
vt 0.437656 0.924676
vt 0.437656 0.9063609
vt 0.1655873 0.9112704
vt 0.1655873 0.9006608
vt 0.1624318 0.9006608
vt 0.1624318 0.9112704
vt 0.1599277 0.9006608
vt 0.1599277 0.9112704
vt 0.2549019 0.901163
vt 0.2420321 0.9010042
vt 0.2549019 0.9010042
vt 0.2420321 0.901163
vt 0.2549019 0.9015709
vt 0.2420321 0.9015709
vt 0.2549019 0.9021879
vt 0.2420321 0.9021879
vt 0.2549019 0.9029538
vt 0.2420321 0.9029538
vt 0.2549019 0.9037935
vt 0.2420321 0.9037935
vt 0.2549019 0.9046248
vt 0.2420321 0.9046248
vt 0.2549019 0.9053662
vt 0.2420321 0.9053662
vt 0.2549019 0.9059455
vt 0.2420321 0.9059455
vt 0.2549019 0.9063056
vt 0.2420321 0.9063056
vt 0.2549019 0.9064115
vt 0.2420321 0.9064115
vt 0.2549019 0.9010042
vt 0.2420321 0.9010042
vt 0.2420321 0.9011101
vt 0.2549019 0.9011101
vt 0.2420321 0.9014703
vt 0.2549019 0.9014703
vt 0.2420321 0.9020495
vt 0.2549019 0.9020495
vt 0.2420321 0.902791
vt 0.2549019 0.902791
vt 0.2420321 0.9036223
vt 0.2549019 0.9036223
vt 0.2420321 0.9044619
vt 0.2549019 0.9044619
vt 0.2420321 0.9052278
vt 0.2549019 0.9052278
vt 0.2420321 0.9058449
vt 0.2549019 0.9058449
vt 0.2420321 0.9062527
vt 0.2549019 0.9062527
vt 0.2420321 0.9064115
vt 0.2549019 0.9064115
vt 0.03755738 0.9257105
vt 0.0453874 0.9285839
vt 0.03872682 0.9234155
vt 0.03715445 0.9282547
vt 0.04054822 0.9215941
vt 0.03755738 0.9307988
vt 0.0428433 0.9204246
vt 0.03872676 0.9330938
vt 0.0453874 0.9200217
vt 0.04054816 0.9349152
vt 0.04793151 0.9204246
vt 0.04284324 0.9360847
vt 0.05022658 0.9215941
vt 0.0453874 0.9364876
vt 0.05204798 0.9234155
vt 0.04793151 0.9360847
vt 0.05321743 0.9257105
vt 0.05022658 0.9349152
vt 0.05362035 0.9282547
vt 0.05204798 0.9330938
vt 0.05321743 0.9307988
vt 0.444055 0.8917091
vt 0.444055 0.8917091
vt 0.4435276 0.8927442
vt 0.4435276 0.8927442
vt 0.4442366 0.8905619
vt 0.4427061 0.8935656
vt 0.4442366 0.8905619
vt 0.4427061 0.8935656
vt 0.444055 0.8894145
vt 0.4416711 0.894093
vt 0.444055 0.8894145
vt 0.4416711 0.894093
vt 0.4435276 0.8883795
vt 0.4405237 0.8942748
vt 0.4435276 0.8883795
vt 0.4405237 0.8942748
vt 0.4427061 0.887558
vt 0.4393765 0.894093
vt 0.4427061 0.887558
vt 0.4393765 0.894093
vt 0.4416711 0.8870307
vt 0.4383414 0.8935656
vt 0.4416711 0.8870307
vt 0.4383414 0.8935656
vt 0.4405237 0.8868489
vt 0.43752 0.8927442
vt 0.4405237 0.8868489
vt 0.43752 0.8927442
vt 0.4393765 0.8870307
vt 0.4369926 0.8917091
vt 0.4393765 0.8870307
vt 0.4369926 0.8917091
vt 0.4383414 0.887558
vt 0.4368109 0.8905619
vt 0.4383414 0.887558
vt 0.4368109 0.8905619
vt 0.43752 0.8883795
vt 0.4369926 0.8894145
vt 0.43752 0.8883795
vt 0.4369926 0.8894145
vn 0.9510596 0.3090075 0
vn 0.8062124 0.5857468 0.08320078
vn 0.8090219 0.5877785 0
vn 0.9477596 0.3079441 0.0832001
vn 1 -9.60526E-06 0
vn 0.9965329 -1.733006E-06 0.08319934
vn 0.9510543 -0.3090239 0
vn 0.947759 -0.3079461 0.08319854
vn 0.8090137 -0.5877898 0
vn 0.8062119 -0.5857478 0.08319806
vn 0.5877823 -0.8090191 0
vn 0.5857472 -0.8062124 0.08319751
vn 0.3090153 -0.9510571 0
vn 0.3079455 -0.9477594 0.08319728
vn 0 -1 0
vn 0 -0.996533 0.08319726
vn -0.3090153 -0.9510571 0
vn -0.3079455 -0.9477593 0.08319736
vn -0.5877822 -0.8090192 0
vn -0.5857471 -0.8062124 0.08319754
vn -0.8090136 -0.5877899 0
vn -0.8062118 -0.5857479 0.08319805
vn -0.9510543 -0.309024 0
vn -0.947759 -0.3079462 0.08319854
vn -1 -8.735819E-06 0
vn -0.9965329 -8.665576E-07 0.08319928
vn -0.9510593 0.3090084 0
vn -0.9477593 0.3079448 0.08319999
vn -0.8090221 0.5877782 0
vn -0.8062126 0.5857465 0.08320086
vn 0.8090219 0.5877785 0
vn 0.8062124 0.5857468 0.08320078
vn 0.5857477 0.8062117 0.08320156
vn 0.5877904 0.8090132 0
vn 0.3079458 0.9477589 0.08320224
vn 0.3090203 0.9510555 0
vn 0.3090203 0.9510555 0
vn 0.3079458 0.9477589 0.08320224
vn 0 0.9965327 0.08320238
vn 0 1 0
vn -0.3079457 0.9477589 0.08320221
vn -0.3090203 0.9510555 0
vn -0.3090203 0.9510555 0
vn -0.3079457 0.9477589 0.08320221
vn -0.585748 0.8062114 0.08320175
vn -0.5877908 0.809013 0
vn -0.8062126 0.5857465 0.08320086
vn -0.8090221 0.5877782 0
vn -0.6370828 -0.4628682 0.616343
vn -0.4630537 -0.6373417 0.6159357
vn -0.4628663 -0.6370841 0.616343
vn -0.6373401 -0.4630555 0.6159361
vn -0.7489368 -0.2433434 0.616342
vn -0.7492387 -0.2434416 0.6159363
vn -0.7874781 6.565414E-07 0.6163425
vn -0.7877967 6.666815E-07 0.6159353
vn -0.7489358 0.2433446 0.616343
vn -0.7492388 0.243443 0.6159355
vn -0.6370839 0.4628673 0.6163423
vn -0.6373411 0.463054 0.6159359
vn -0.4628686 0.6370826 0.616343
vn -0.4630557 0.6373408 0.6159351
vn -0.2433432 0.7489364 0.6163427
vn -0.2434414 0.7492393 0.6159355
vn -5.783817E-07 0.7874778 0.616343
vn 0 0.7877963 0.6159359
vn 0.2433422 0.7489362 0.6163433
vn 0.2434413 0.7492393 0.6159357
vn 0.4628682 0.6370826 0.6163431
vn 0.4630555 0.6373407 0.6159354
vn -0.4628663 -0.6370841 0.616343
vn -0.4630537 -0.6373417 0.6159357
vn -0.2434413 -0.749239 0.6159361
vn -0.2433429 -0.7489364 0.6163429
vn 0 -0.7877967 0.6159351
vn 5.783815E-07 -0.7874779 0.616343
vn 0.2434415 -0.7492389 0.6159361
vn 0.2433438 -0.748936 0.6163429
vn 0.4630556 -0.6373405 0.6159354
vn 0.4628676 -0.6370825 0.6163436
vn 0.6373401 -0.4630554 0.615936
vn 0.6370832 -0.4628683 0.6163423
vn 0.7492388 -0.2434429 0.6159356
vn 0.7489365 -0.2433444 0.6163421
vn 0.787797 0 0.615935
vn 0.787478 0 0.6163427
vn 0.7492386 0.2434429 0.615936
vn 0.7489358 0.2433445 0.6163428
vn 0.637341 0.4630542 0.615936
vn 0.6370839 0.4628673 0.6163424
vn 0.4630555 0.6373407 0.6159354
vn 0.4628682 0.6370826 0.6163431
vn -0.7492387 -0.2434416 0.6159363
vn 0 0 1
vn -0.6373401 -0.4630555 0.6159361
vn -0.7877967 6.666815E-07 0.6159353
vn -0.4630537 -0.6373417 0.6159357
vn -0.7492388 0.243443 0.6159355
vn -0.2434413 -0.749239 0.6159361
vn -0.6373411 0.463054 0.6159359
vn 0 -0.7877967 0.6159351
vn -0.4630557 0.6373408 0.6159351
vn 0.2434415 -0.7492389 0.6159361
vn -0.2434414 0.7492393 0.6159355
vn 0.4630556 -0.6373405 0.6159354
vn 0 0.7877963 0.6159359
vn 0.6373401 -0.4630554 0.615936
vn 0.2434413 0.7492393 0.6159357
vn 0.7492388 -0.2434429 0.6159356
vn 0.4630555 0.6373407 0.6159354
vn 0.787797 0 0.615935
vn 0.637341 0.4630542 0.615936
vn 0.7492386 0.2434429 0.615936
vn 0.9477596 0.3079441 0.0832001
vn -0.7489368 -0.2433434 0.616342
vn -0.6370828 -0.4628682 0.616343
vn 0.8062124 0.5857468 0.08320078
vn 0.9965329 -1.733006E-06 0.08319934
vn -0.4628663 -0.6370841 0.616343
vn -0.7874781 6.565414E-07 0.6163425
vn 0.5857477 0.8062117 0.08320156
vn 0.947759 -0.3079461 0.08319854
vn -0.2433429 -0.7489364 0.6163429
vn -0.7489358 0.2433446 0.616343
vn 0.3079458 0.9477589 0.08320224
vn 0.8062119 -0.5857478 0.08319806
vn 5.783815E-07 -0.7874779 0.616343
vn -0.6370839 0.4628673 0.6163423
vn 0 0.9965327 0.08320238
vn 0.5857472 -0.8062124 0.08319751
vn 0.2433438 -0.748936 0.6163429
vn -0.4628686 0.6370826 0.616343
vn -0.3079457 0.9477589 0.08320221
vn 0.3079455 -0.9477594 0.08319728
vn 0.4628676 -0.6370825 0.6163436
vn -0.2433432 0.7489364 0.6163427
vn -0.585748 0.8062114 0.08320175
vn 0 -0.996533 0.08319726
vn 0.6370832 -0.4628683 0.6163423
vn -5.783817E-07 0.7874778 0.616343
vn -0.8062126 0.5857465 0.08320086
vn -0.3079455 -0.9477593 0.08319736
vn 0.7489365 -0.2433444 0.6163421
vn 0.2433422 0.7489362 0.6163433
vn -0.9477593 0.3079448 0.08319999
vn -0.5857471 -0.8062124 0.08319754
vn 0.787478 0 0.6163427
vn 0.4628682 0.6370826 0.6163431
vn -0.9965329 -8.665576E-07 0.08319928
vn -0.8062118 -0.5857479 0.08319805
vn 0.7489358 0.2433445 0.6163428
vn 0.6370839 0.4628673 0.6163424
vn -0.947759 -0.3079462 0.08319854
g BloonAreaDenial_Dark_3_0
f 3/3/3 2/2/2 1/1/1
f 2/2/2 4/4/4 1/1/1
f 1/1/1 4/4/4 5/5/5
f 4/4/4 6/6/6 5/5/5
f 5/5/5 6/6/6 7/7/7
f 6/6/6 8/8/8 7/7/7
f 7/7/7 8/8/8 9/9/9
f 8/8/8 10/10/10 9/9/9
f 9/9/9 10/10/10 11/11/11
f 10/10/10 12/12/12 11/11/11
f 11/11/11 12/12/12 13/13/13
f 12/12/12 14/14/14 13/13/13
f 13/13/13 14/14/14 15/15/15
f 14/14/14 16/16/16 15/15/15
f 15/15/15 16/16/16 17/17/17
f 16/16/16 18/18/18 17/17/17
f 17/17/17 18/18/18 19/19/19
f 18/18/18 20/20/20 19/19/19
f 19/19/19 20/20/20 21/21/21
f 20/20/20 22/22/22 21/21/21
f 21/21/21 22/22/22 23/23/23
f 22/22/22 24/24/24 23/23/23
f 23/23/23 24/24/24 25/25/25
f 24/24/24 26/26/26 25/25/25
f 25/25/25 26/26/26 27/27/27
f 26/26/26 28/28/28 27/27/27
f 27/27/27 28/28/28 29/29/29
f 28/28/28 30/30/30 29/29/29
f 33/33/33 32/32/32 31/31/31
f 34/34/34 33/33/33 31/31/31
f 35/35/35 33/33/33 34/34/34
f 36/36/36 35/35/35 34/34/34
f 39/39/39 38/38/38 37/37/37
f 40/40/40 39/39/39 37/37/37
f 41/41/41 39/39/39 40/40/40
f 42/42/42 41/41/41 40/40/40
f 45/45/45 44/44/44 43/43/43
f 46/46/46 45/45/45 43/43/43
f 47/47/47 45/45/45 46/46/46
f 48/48/48 47/47/47 46/46/46
f 51/51/51 50/50/50 49/49/49
f 50/50/50 52/52/52 49/49/49
f 49/49/49 52/52/52 53/53/53
f 52/52/52 54/54/54 53/53/53
f 53/53/53 54/54/54 55/55/55
f 54/54/54 56/56/56 55/55/55
f 55/55/55 56/56/56 57/57/57
f 56/56/56 58/58/58 57/57/57
f 57/57/57 58/58/58 59/59/59
f 58/58/58 60/60/60 59/59/59
f 59/59/59 60/60/60 61/61/61
f 60/60/60 62/62/62 61/61/61
f 61/61/61 62/62/62 63/63/63
f 62/62/62 64/64/64 63/63/63
f 63/63/63 64/64/64 65/65/65
f 64/64/64 66/66/66 65/65/65
f 65/65/65 66/66/66 67/67/67
f 66/66/66 68/68/68 67/67/67
f 67/67/67 68/68/68 69/69/69
f 68/68/68 70/70/70 69/69/69
f 73/73/73 72/72/72 71/71/71
f 74/74/74 73/73/73 71/71/71
f 75/75/75 73/73/73 74/74/74
f 76/76/76 75/75/75 74/74/74
f 77/77/77 75/75/75 76/76/76
f 78/78/78 77/77/77 76/76/76
f 79/79/79 77/77/77 78/78/78
f 80/80/80 79/79/79 78/78/78
f 81/81/81 79/79/79 80/80/80
f 82/82/82 81/81/81 80/80/80
f 83/83/83 81/81/81 82/82/82
f 84/84/84 83/83/83 82/82/82
f 85/85/85 83/83/83 84/84/84
f 86/86/86 85/85/85 84/84/84
f 87/87/87 85/85/85 86/86/86
f 88/88/88 87/87/87 86/86/86
f 89/89/89 87/87/87 88/88/88
f 90/90/90 89/89/89 88/88/88
f 91/91/91 89/89/89 90/90/90
f 92/92/92 91/91/91 90/90/90
f 95/95/95 94/94/94 93/93/93
f 93/93/93 94/94/94 96/96/96
f 97/97/97 94/94/94 95/95/95
f 96/96/96 94/94/94 98/98/98
f 99/99/99 94/94/94 97/97/97
f 98/98/98 94/94/94 100/100/100
f 101/101/101 94/94/94 99/99/99
f 100/100/100 94/94/94 102/102/102
f 103/103/103 94/94/94 101/101/101
f 102/102/102 94/94/94 104/104/104
f 105/105/105 94/94/94 103/103/103
f 104/104/104 94/94/94 106/106/106
f 107/107/107 94/94/94 105/105/105
f 106/106/106 94/94/94 108/108/108
f 109/109/109 94/94/94 107/107/107
f 108/108/108 94/94/94 110/110/110
f 111/111/111 94/94/94 109/109/109
f 110/110/110 94/94/94 112/112/112
f 113/113/113 94/94/94 111/111/111
f 112/112/112 94/94/94 113/113/113
f 116/116/116 115/115/115 114/114/114
f 117/117/117 116/116/116 114/114/114
f 114/114/114 115/115/115 118/118/118
f 119/119/119 116/116/116 117/117/117
f 115/115/115 120/120/120 118/118/118
f 121/121/121 119/119/119 117/117/117
f 118/118/118 120/120/120 122/122/122
f 123/123/123 119/119/119 121/121/121
f 120/120/120 124/124/124 122/122/122
f 125/125/125 123/123/123 121/121/121
f 122/122/122 124/124/124 126/126/126
f 127/127/127 123/123/123 125/125/125
f 124/124/124 128/128/128 126/126/126
f 129/129/129 127/127/127 125/125/125
f 126/126/126 128/128/128 130/130/130
f 131/131/131 127/127/127 129/129/129
f 128/128/128 132/132/132 130/130/130
f 133/133/133 131/131/131 129/129/129
f 130/130/130 132/132/132 134/134/134
f 135/135/135 131/131/131 133/133/133
f 132/132/132 136/136/136 134/134/134
f 137/137/137 135/135/135 133/133/133
f 134/134/134 136/136/136 138/138/138
f 139/139/139 135/135/135 137/137/137
f 136/136/136 140/140/140 138/138/138
f 141/141/141 139/139/139 137/137/137
f 138/138/138 140/140/140 142/142/142
f 143/143/143 139/139/139 141/141/141
f 140/140/140 144/144/144 142/142/142
f 145/145/145 143/143/143 141/141/141
f 142/142/142 144/144/144 146/146/146
f 147/147/147 143/143/143 145/145/145
f 144/144/144 148/148/148 146/146/146
f 149/149/149 147/147/147 145/145/145
f 146/146/146 148/148/148 150/150/150
f 151/151/151 147/147/147 149/149/149
f 148/148/148 152/152/152 150/150/150
f 153/153/153 151/151/151 149/149/149
f 150/150/150 152/152/152 153/153/153
f 152/152/152 151/151/151 153/153/153
