g Bloon3
v 9.469076 -3.327471 -1.755308
v 9.562583 -2.534882 -1.903828
v 9.635657 -2.890807 -1.898458
v 9.038188 2.342687 -2.231641
v 8.858086 -3.305528 -1.432404
v 9.664719 2.01356 -2.524581
v 9.981134 -1.939418 -2.201041
v 10.26556 1.198176 -2.743289
v 10.39905 -1.110515 -2.526981
v 10.51464 0.1949776 -2.751133
v 8.262347 2.278193 -1.810115
v 8.550484 -2.640014 -1.351325
v 8.414165 -2.856598 -1.251705
v 7.926919 -2.343501 -1.055904
v 7.526312 1.982131 -1.380972
v 7.163841 -1.593785 -0.7425559
v 6.869517 1.251192 -0.9399149
v 6.685336 -0.5698466 -0.6150178
v 6.633486 0.4269795 -0.7114969
v 5.24449 -1.692072 0.1182436
v 5.503249 -2.458191 0.2185903
v 5.408092 -3.401022 0.3420827
v 4.988094 -4.242634 0.4523177
v 4.793804 -1.160848 0.04866352
v 4.548865 -4.693436 0.5113637
v 4.014298 -0.8537626 0.008441358
v 4.489908 -5.304986 0.591465
v 4.730358 -4.805797 0.5260817
v 3.977957 -5.545389 0.6229537
v 3.299619 -0.9016606 0.01471516
v 3.703932 -5.279173 0.5880843
v 3.657852 -4.985625 0.5496346
v 3.121718 -4.69275 0.511274
v 2.621487 -1.137707 0.04563252
v 2.515221 -4.224679 0.4499666
v 2.189646 -1.61404 0.1080227
v 2.020583 -3.288593 0.3273574
v 1.9273 -2.445404 0.2169161
v -0.4754508 -2.649572 0.1884606
v -0.1122249 -2.092818 0.1923177
v -0.0001551505 -2.288666 0.2335002
v -0.7526274 2.00268 -0.366797
v -1.072654 -2.630677 0.08048145
v -0.1109208 2.248608 -0.2797331
v 0.5234746 -1.874927 0.2813661
v 0.6385841 2.144703 -0.1354936
v 1.327182 1.842909 0.01947132
v 1.338385 -1.273559 0.3604833
v 1.897027 1.169758 0.1937712
v 1.902335 -0.4172813 0.3673589
v 2.04813 0.4419893 0.2997423
v -1.087961 -1.939106 0.002533765
v -1.193161 -2.242534 0.01688282
v -1.415801 1.334436 -0.4117259
v -1.438707 -1.397943 -0.1185472
v -1.754306 0.4818806 -0.3790208
v -1.766518 -0.6548399 -0.2575285
vt 0.6221867 0.23252
vt 0.6395822 0.2580417
vt 0.637078 0.2428318
vt 0.6959015 0.4574163
vt 0.5943656 0.244541
vt 0.7193691 0.4327357
vt 0.6687174 0.2732166
vt 0.7336259 0.3896598
vt 0.7016764 0.297469
vt 0.7285566 0.3459711
vt 0.6590497 0.4696467
vt 0.5911616 0.273181
vt 0.5873919 0.2647479
vt 0.5672926 0.2965387
vt 0.6202117 0.4721285
vt 0.5444686 0.3401457
vt 0.5778509 0.4562172
vt 0.5392974 0.3889972
vt 0.5533592 0.4286926
vt 0.7573708 0.2758131
vt 0.7152736 0.2746852
vt 0.671536 0.2523193
vt 0.6390312 0.2153607
vt 0.7918537 0.2628368
vt 0.6258007 0.1846969
vt 0.8219131 0.2290131
vt 0.6002206 0.1714237
vt 0.6165764 0.1851875
vt 0.59899 0.1411417
vt 0.833541 0.1918737
vt 0.6139607 0.1309455
vt 0.6290555 0.1340693
vt 0.6536793 0.112325
vt 0.8353573 0.1530879
vt 0.6881481 0.09027114
vt 0.8207481 0.1223238
vt 0.7430673 0.08259717
vt 0.7856629 0.09355173
vt 0.8241833 0.244541
vt 0.8209794 0.273181
vt 0.8172096 0.2647479
vt 0.9491869 0.4327357
vt 0.8520044 0.23252
vt 0.9257193 0.4574163
vt 0.7971103 0.2965387
vt 0.8888675 0.4696467
vt 0.8500295 0.4721285
vt 0.7742864 0.3401457
vt 0.8076687 0.4562172
vt 0.7691152 0.3889972
vt 0.7831769 0.4286926
vt 0.8693999 0.2580417
vt 0.8668958 0.2428318
vt 0.9634436 0.3896598
vt 0.8985351 0.2732166
vt 0.9583744 0.3459711
vt 0.9314941 0.297469
vn 0.4675216 0.1092197 0.8772084
vn 0.4675216 0.1092197 0.8772084
vn 0.4675216 0.1092197 0.8772084
vn 0.4675216 0.1092197 0.8772084
vn 0.4675216 0.1092197 0.8772084
vn 0.4675216 0.1092197 0.8772084
vn 0.4675216 0.1092197 0.8772084
vn 0.4675216 0.1092197 0.8772084
vn 0.4675215 0.1092197 0.8772084
vn 0.4675216 0.1092197 0.8772084
vn 0.4675216 0.1092197 0.8772084
vn 0.4675216 0.1092197 0.8772084
vn 0.4675216 0.1092197 0.8772084
vn 0.4675216 0.1092197 0.8772084
vn 0.4675216 0.1092197 0.8772084
vn 0.4675216 0.1092197 0.8772084
vn 0.4675216 0.1092197 0.8772084
vn 0.4675215 0.1092197 0.8772084
vn 0.4675216 0.1092197 0.8772084
vn 2.315141E-07 0.1298713 0.9915309
vn 2.31514E-07 0.1298713 0.9915309
vn 2.315141E-07 0.1298713 0.9915309
vn 2.315141E-07 0.1298713 0.9915309
vn 2.315141E-07 0.1298713 0.9915309
vn 2.315141E-07 0.1298713 0.9915309
vn 2.31514E-07 0.1298713 0.9915309
vn 2.31514E-07 0.1298713 0.9915309
vn 2.31514E-07 0.1298713 0.9915309
vn 2.31514E-07 0.1298713 0.9915309
vn 2.31514E-07 0.1298713 0.9915309
vn 2.31514E-07 0.1298713 0.9915309
vn 2.315141E-07 0.1298713 0.9915309
vn 2.31514E-07 0.1298713 0.9915309
vn 2.31514E-07 0.1298713 0.9915309
vn 2.31514E-07 0.1298713 0.9915309
vn 2.315141E-07 0.1298713 0.9915309
vn 2.31514E-07 0.1298713 0.9915309
vn 2.315141E-07 0.1298713 0.9915309
vn -0.1736471 0.106504 0.9790319
vn -0.1736471 0.106504 0.9790319
vn -0.173647 0.106504 0.9790319
vn -0.1736471 0.1065041 0.9790319
vn -0.1736471 0.106504 0.9790319
vn -0.1736471 0.1065041 0.9790319
vn -0.173647 0.1065041 0.9790319
vn -0.173647 0.106504 0.9790319
vn -0.173647 0.106504 0.9790319
vn -0.173647 0.106504 0.9790319
vn -0.1736471 0.1065041 0.9790319
vn -0.1736471 0.1065041 0.9790319
vn -0.1736471 0.1065041 0.9790319
vn -0.1736471 0.1065041 0.9790319
vn -0.1736471 0.1065041 0.9790319
vn -0.173647 0.106504 0.9790319
vn -0.1736471 0.1065041 0.9790319
vn -0.1736471 0.106504 0.9790319
vn -0.173647 0.1065041 0.9790319
g Bloon3_0
f 3/3/3 2/2/2 1/1/1
f 4/4/4 1/1/1 2/2/2
f 4/4/4 5/5/5 1/1/1
f 6/6/6 4/4/4 2/2/2
f 6/6/6 2/2/2 7/7/7
f 8/8/8 6/6/6 7/7/7
f 8/8/8 7/7/7 9/9/9
f 9/9/9 10/10/10 8/8/8
f 4/4/4 11/11/11 5/5/5
f 11/11/11 12/12/12 5/5/5
f 5/5/5 12/12/12 13/13/13
f 11/11/11 14/14/14 12/12/12
f 11/11/11 15/15/15 14/14/14
f 15/15/15 16/16/16 14/14/14
f 15/15/15 17/17/17 16/16/16
f 17/17/17 18/18/18 16/16/16
f 17/17/17 19/19/19 18/18/18
f 22/22/22 21/21/21 20/20/20
f 20/20/20 23/23/23 22/22/22
f 20/20/20 24/24/24 23/23/23
f 24/24/24 25/25/25 23/23/23
f 24/24/24 26/26/26 25/25/25
f 26/26/26 27/27/27 25/25/25
f 28/28/28 25/25/25 27/27/27
f 26/26/26 29/29/29 27/27/27
f 26/26/26 30/30/30 29/29/29
f 30/30/30 31/31/31 29/29/29
f 30/30/30 32/32/32 31/31/31
f 30/30/30 33/33/33 32/32/32
f 30/30/30 34/34/34 33/33/33
f 34/34/34 35/35/35 33/33/33
f 34/34/34 36/36/36 35/35/35
f 36/36/36 37/37/37 35/35/35
f 36/36/36 38/38/38 37/37/37
f 41/41/41 40/40/40 39/39/39
f 42/42/42 39/39/39 40/40/40
f 42/42/42 43/43/43 39/39/39
f 44/44/44 42/42/42 40/40/40
f 44/44/44 40/40/40 45/45/45
f 46/46/46 44/44/44 45/45/45
f 47/47/47 46/46/46 45/45/45
f 47/47/47 45/45/45 48/48/48
f 49/49/49 47/47/47 48/48/48
f 49/49/49 48/48/48 50/50/50
f 50/50/50 51/51/51 49/49/49
f 42/42/42 52/52/52 43/43/43
f 43/43/43 52/52/52 53/53/53
f 42/42/42 54/54/54 52/52/52
f 54/54/54 55/55/55 52/52/52
f 54/54/54 56/56/56 55/55/55
f 56/56/56 57/57/57 55/55/55
