g BlueHeadbands
v 2.114617 31.35303 -5.51391
v 7.105427E-17 31.82101 -6.6314
v 9.307072E-17 31.49 -6.07205
v 2.256869 31.68651 -6.03825
v 3.754064 31.24404 -4.717485
v 2.417614 33.75954 -5.141844
v 1.421085E-16 33.85604 -5.840961
v 1.245591E-16 33.76766 -5.322182
v 2.25864 33.67322 -4.669606
v 3.891236 33.66502 -4.076816
v 3.640788 33.58288 -3.671745
v 4.113487 31.56426 -5.12868
v 5.120321 31.32115 -3.251206
v 4.633431 33.68073 -3.198877
v 4.216351 33.60231 -3.005101
v 5.536016 31.64257 -3.613359
v 5.839484 31.35109 -1.236467
v 6.472791 31.64301 -1.455086
v 5.834865 31.34002 1.896088
v 5.312951 33.6743 -1.417028
v 4.804029 33.62455 -1.201153
v 5.474981 33.39355 2.252479
v 5.061534 33.29896 2.223414
v 6.408241 31.64329 1.901741
v 5.030681 31.16675 3.96561
v 5.437747 31.43302 4.119284
v 4.426715 32.65648 4.51587
v 3.977261 32.45985 4.570509
v 3.977261 32.45985 4.570509
v 5.030681 31.16675 3.96561
v -5.834865 31.34002 1.896088
v -5.437747 31.43302 4.119284
v -5.030681 31.16675 3.96561
v -6.408241 31.64329 1.901741
v -5.839484 31.35109 -1.236467
v -4.426715 32.65648 4.51587
v -5.030681 31.16675 3.96561
v -3.977261 32.45985 4.570509
v -6.472791 31.64301 -1.455086
v -5.120321 31.32115 -3.251206
v -5.474981 33.39355 2.252479
v -3.977261 32.45985 4.570509
v -5.061534 33.29896 2.223414
v -5.312951 33.6743 -1.417028
v -4.804029 33.62455 -1.201153
v -4.633431 33.68073 -3.198877
v -4.216351 33.60231 -3.005101
v -5.536016 31.64257 -3.613359
v -3.754064 31.24404 -4.717485
v -4.113487 31.56426 -5.12868
v -2.114617 31.35303 -5.51391
v -3.891236 33.66502 -4.076816
v -3.640788 33.58288 -3.671745
v -2.256869 31.68651 -6.03825
v 9.307072E-17 31.49 -6.07205
v 7.105427E-17 31.82101 -6.6314
v -2.417614 33.75954 -5.141844
v -2.25864 33.67322 -4.669606
v 1.421085E-16 33.85604 -5.840961
v 1.245591E-16 33.76766 -5.322182
vt 0.9045566 0.6291116
vt 0.9031492 0.6399978
vt 0.9031492 0.6291116
vt 0.9045566 0.6399978
vt 0.9057562 0.6291116
vt 0.9045566 0.6802869
vt 0.9031492 0.6802869
vt 0.9031492 0.6920725
vt 0.9045566 0.6920725
vt 0.9057562 0.6802869
vt 0.9057562 0.6920725
vt 0.9057562 0.6399978
vt 0.9103143 0.6291116
vt 0.9103143 0.6802869
vt 0.9103143 0.6920725
vt 0.9103143 0.6399975
vt 0.9158574 0.6291116
vt 0.9158574 0.6399978
vt 0.9235445 0.6291116
vt 0.9158574 0.6802869
vt 0.9158574 0.6920725
vt 0.9235445 0.6802869
vt 0.9235445 0.6920725
vt 0.9235445 0.6399978
vt 0.9596272 0.6291116
vt 0.9596272 0.6399978
vt 0.9596272 0.6802869
vt 0.9596272 0.6920725
vt 0.9721838 0.6802869
vt 0.9721838 0.6399975
vt 0.923481 0.6291116
vt 0.959712 0.6399978
vt 0.959712 0.6291116
vt 0.923481 0.6399978
vt 0.9157977 0.6291116
vt 0.959712 0.6802869
vt 0.9722397 0.6399975
vt 0.9722397 0.6802869
vt 0.9157977 0.6399978
vt 0.9102561 0.6291116
vt 0.923481 0.6802869
vt 0.959712 0.6920725
vt 0.923481 0.6920725
vt 0.9157977 0.6802869
vt 0.9157977 0.6920725
vt 0.9102561 0.6802869
vt 0.9102561 0.6920725
vt 0.9102561 0.6399975
vt 0.9056984 0.6291116
vt 0.9056984 0.6399978
vt 0.9044995 0.6291116
vt 0.9056984 0.6802869
vt 0.9056984 0.6920725
vt 0.9044995 0.6399978
vt 0.9030933 0.6291116
vt 0.9030933 0.6399978
vt 0.9044995 0.6802869
vt 0.9044995 0.6920725
vt 0.9030933 0.6802869
vt 0.9030933 0.6920725
vn 0.1328479 -0.8531013 -0.5045488
vn 0 0.1566742 -0.9876503
vn 0 -0.8572838 -0.5148443
vn 0.3644705 0.1330409 -0.9216623
vn 0.290704 -0.8634158 -0.4123157
vn 0.3582834 0.5269281 -0.7707009
vn 0 0.5261829 -0.8503714
vn 0 0.9850743 0.1721297
vn -0.02961443 0.985272 0.1684103
vn 0.5505338 0.5183879 -0.6543597
vn -0.0914768 0.9860858 0.1388054
vn 0.6067993 0.1148045 -0.7865205
vn 0.4145988 -0.8799834 -0.2318125
vn 0.7079769 0.5555145 -0.4360874
vn -0.1290877 0.9898136 0.06004427
vn 0.8474735 0.1602157 -0.5060827
vn 0.4391052 -0.8965355 -0.05840116
vn 0.9633811 0.230886 -0.1363396
vn 0.4608788 -0.8858473 0.05352885
vn 0.7817469 0.6120476 -0.1194554
vn -0.1309739 0.9885029 0.07554913
vn 0.7652348 0.6141499 0.1929654
vn -0.210453 0.9691442 0.128332
vn 0.9622133 0.2288386 0.1475753
vn 0.3734808 -0.7648469 0.5249012
vn 0.8262746 0.1333928 0.5472444
vn 0.5568463 0.5575359 0.6156914
vn -0.1805743 0.4442324 0.8775252
vn -0.1805743 0.4442324 0.8775252
vn 0.3734808 -0.7648469 0.5249012
vn -0.4608788 -0.8858473 0.05352885
vn -0.8262745 0.1333926 0.5472448
vn -0.3734803 -0.7648467 0.5249019
vn -0.9622133 0.2288387 0.1475752
vn -0.4391053 -0.8965355 -0.05840154
vn -0.5568461 0.5575352 0.6156923
vn -0.3734803 -0.7648467 0.5249019
vn 0.1805735 0.4442298 0.8775268
vn -0.9633811 0.2308861 -0.1363399
vn -0.4145988 -0.8799835 -0.2318123
vn -0.7652348 0.6141499 0.1929654
vn 0.1805735 0.4442298 0.8775268
vn 0.2104529 0.9691441 0.1283326
vn -0.7817469 0.6120477 -0.1194557
vn 0.1309739 0.988503 0.07554865
vn -0.7079768 0.5555145 -0.4360875
vn 0.1290878 0.9898137 0.06004265
vn -0.8474736 0.1602155 -0.5060825
vn -0.2907044 -0.8634162 -0.4123148
vn -0.6067998 0.1148047 -0.7865202
vn -0.1328478 -0.8531016 -0.5045485
vn -0.5505339 0.5183878 -0.6543596
vn 0.09147681 0.9860858 0.1388049
vn -0.3644707 0.1330411 -0.9216622
vn 0 -0.8572838 -0.5148443
vn 0 0.1566742 -0.9876503
vn -0.3582837 0.5269282 -0.7707006
vn 0.02961443 0.9852719 0.168411
vn 0 0.5261829 -0.8503714
vn 0 0.9850743 0.1721297
g BlueHeadbands_0
f 3/3/3 2/2/2 1/1/1
f 2/2/2 4/4/4 1/1/1
f 1/1/1 4/4/4 5/5/5
f 6/6/6 4/4/4 2/2/2
f 7/7/7 6/6/6 2/2/2
f 6/6/6 7/7/7 8/8/8
f 9/9/9 6/6/6 8/8/8
f 10/10/10 6/6/6 9/9/9
f 6/6/6 10/10/10 4/4/4
f 11/11/11 10/10/10 9/9/9
f 4/4/4 12/12/12 5/5/5
f 10/10/10 12/12/12 4/4/4
f 5/5/5 12/12/12 13/13/13
f 14/14/14 10/10/10 11/11/11
f 10/10/10 14/14/14 12/12/12
f 15/15/15 14/14/14 11/11/11
f 12/12/12 16/16/16 13/13/13
f 14/14/14 16/16/16 12/12/12
f 13/13/13 16/16/16 17/17/17
f 16/16/16 18/18/18 17/17/17
f 16/16/16 14/14/14 18/18/18
f 17/17/17 18/18/18 19/19/19
f 20/20/20 14/14/14 15/15/15
f 14/14/14 20/20/20 18/18/18
f 21/21/21 20/20/20 15/15/15
f 22/22/22 20/20/20 21/21/21
f 20/20/20 22/22/22 18/18/18
f 23/23/23 22/22/22 21/21/21
f 18/18/18 24/24/24 19/19/19
f 22/22/22 24/24/24 18/18/18
f 19/19/19 24/24/24 25/25/25
f 24/24/24 26/26/26 25/25/25
f 26/26/26 24/24/24 22/22/22
f 27/27/27 22/22/22 23/23/23
f 27/27/27 26/26/26 22/22/22
f 28/28/28 27/27/27 23/23/23
f 26/26/26 27/27/27 29/29/29
f 30/30/30 26/26/26 29/29/29
f 33/33/33 32/32/32 31/31/31
f 32/32/32 34/34/34 31/31/31
f 31/31/31 34/34/34 35/35/35
f 34/34/34 32/32/32 36/36/36
f 36/36/36 32/32/32 37/37/37
f 38/38/38 36/36/36 37/37/37
f 34/34/34 39/39/39 35/35/35
f 35/35/35 39/39/39 40/40/40
f 41/41/41 34/34/34 36/36/36
f 34/34/34 41/41/41 39/39/39
f 41/41/41 36/36/36 42/42/42
f 43/43/43 41/41/41 42/42/42
f 44/44/44 41/41/41 43/43/43
f 41/41/41 44/44/44 39/39/39
f 45/45/45 44/44/44 43/43/43
f 46/46/46 44/44/44 45/45/45
f 44/44/44 46/46/46 39/39/39
f 47/47/47 46/46/46 45/45/45
f 39/39/39 48/48/48 40/40/40
f 46/46/46 48/48/48 39/39/39
f 40/40/40 48/48/48 49/49/49
f 48/48/48 50/50/50 49/49/49
f 48/48/48 46/46/46 50/50/50
f 49/49/49 50/50/50 51/51/51
f 52/52/52 46/46/46 47/47/47
f 46/46/46 52/52/52 50/50/50
f 53/53/53 52/52/52 47/47/47
f 50/50/50 54/54/54 51/51/51
f 50/50/50 52/52/52 54/54/54
f 51/51/51 54/54/54 55/55/55
f 54/54/54 56/56/56 55/55/55
f 57/57/57 52/52/52 53/53/53
f 52/52/52 57/57/57 54/54/54
f 54/54/54 57/57/57 56/56/56
f 58/58/58 57/57/57 53/53/53
f 57/57/57 59/59/59 56/56/56
f 59/59/59 57/57/57 58/58/58
f 60/60/60 59/59/59 58/58/58
