g Body
v -2.289035 7.824012 2.959738
v -3.6191 6.742115 0.7871338
v -3.705449 8.005332 0.3648123
v -2.293429 10.92651 2.13579
v 3.304101E-06 8.308626 3.370736
v 3.304101E-06 10.78534 2.49706
v -3.797066 11.09966 0.7116834
v -5.106732 11.08865 0.2269808
v -5.974395 9.050273 0.01906053
v -7.741375 12.04532 0.4136356
v -10.10473 8.47621 -0.1275916
v -8.534888 14.1554 0.3615153
v -13.58023 9.296494 -0.1364016
v -7.701805 16.65173 0.2761788
v -16.92119 6.936898 -0.1302471
v -17.4453 10.70256 -0.1502699
v -20.2318 12.11324 -0.1612954
v -13.63017 19.07158 0.2051907
v -23.0248 11.62237 -0.1625788
v -21.76463 14.75938 -0.1766202
v -24.03964 17.37532 -0.1906906
v -28.26959 19.05045 -0.2020106
v -2.289035 7.824012 2.959738
v -3.167906 4.485245 0.7220296
v -3.6191 6.742115 0.7871338
v -1.868264 4.485244 2.015041
v 3.304101E-06 4.749748 2.390585
v -2.49003 3.140472 0.5534687
v -1.589008 3.140472 1.737187
v 3.304101E-06 8.308626 3.370736
v -0.7408718 3.140472 1.278161
v 2.289038 7.824012 2.959738
v 0.7408784 3.140472 1.278161
v -0.683017 3.140472 -0.9794894
v 1.589018 3.140472 1.737187
v 0.6830237 3.140472 -0.9794894
v 1.868271 4.485244 2.015041
v 2.490036 3.140472 0.5534687
v 3.167915 4.485245 0.7220296
v 3.619104 6.742115 0.7871338
v 3.304101E-06 4.750008 -2.495229
v 2.769854 4.485252 -1.37684
v 1.63061 3.140472 -1.024074
v 3.167915 4.485245 0.7220296
v 2.490036 3.140472 0.5534687
v 3.250253 6.742121 -1.616579
v 3.619104 6.742115 0.7871338
v 3.304101E-06 6.847392 -2.863588
v -3.25025 6.742121 -1.616579
v -2.769854 4.485252 -1.37684
v -1.6306 3.140472 -1.024074
v -3.167906 4.485245 0.7220296
v -3.6191 6.742115 0.7871338
v -2.49003 3.140472 0.5534687
v -1.589008 3.140472 1.737187
v -1.917381 0.612648 0.262814
v -2.49003 3.140472 0.5534687
v -1.43419 0.612648 0.9146289
v -0.7408718 3.140472 1.278161
v -1.395148 0 -1.032531E-07
v -0.98166 0.612648 0.6067617
v -0.683017 3.140472 -0.9794894
v -0.98166 0.612648 -0.7653356
v -1.6306 3.140472 -1.024074
v -0.98166 0.612648 -0.7653356
v -0.683017 3.140472 -0.9794894
v -1.608891 0.612648 -0.7952386
v -2.49003 3.140472 0.5534687
v -1.395148 0 -1.032531E-07
v -1.917381 0.612648 0.262814
v -3.25025 6.742121 -1.616579
v -3.705449 8.005332 0.3648123
v -3.6191 6.742115 0.7871338
v -3.58035 8.005334 -1.07996
v 3.304101E-06 6.847392 -2.863588
v -5.974395 9.050273 0.01906053
v -3.410076 11.30646 -1.599985
v 3.304101E-06 12.02572 -2.568561
v -5.974388 9.050273 -0.6356534
v -10.10473 8.47621 -0.1275916
v -5.106732 11.08866 -0.822951
v -3.797066 11.09966 0.7116834
v -5.106732 11.08865 0.2269808
v -10.09756 8.449229 -0.4209562
v -13.58023 9.296494 -0.1364016
v -7.734212 12.01835 -0.8287386
v -7.741375 12.04532 0.4136356
v -13.57307 9.26951 -0.4297664
v -16.92119 6.936898 -0.1302471
v -16.91403 6.909915 -0.4236119
v -8.527719 14.12843 -0.8808589
v -7.694642 16.62475 -0.9661953
v -8.534888 14.1554 0.3615153
v -7.701805 16.65173 0.2761788
v -13.623 19.04461 -1.037183
v -13.63017 19.07158 0.2051907
v -28.26959 19.05045 -0.2020106
v -28.26243 19.02346 -0.4953753
v -24.03248 17.34834 -0.4840553
v -28.26959 19.05045 -0.2020106
v -24.03964 17.37532 -0.1906906
v -21.75747 14.73239 -0.4699849
v -21.76463 14.75938 -0.1766202
v -23.01764 11.59539 -0.4559434
v -23.0248 11.62237 -0.1625788
v -20.22464 12.08626 -0.4546599
v -23.0248 11.62237 -0.1625788
v -20.2318 12.11324 -0.1612954
v -17.43813 10.67558 -0.4436346
v -17.4453 10.70256 -0.1502699
v -16.92119 6.936898 -0.1302471
v 3.705449 8.005332 0.3648123
v 3.619104 6.742115 0.7871338
v 2.289038 7.824012 2.959738
v 2.293436 10.92651 2.13579
v 3.304101E-06 8.308626 3.370736
v 3.304101E-06 10.78534 2.49706
v 3.797072 11.09966 0.7116834
v 5.106742 11.08865 0.2269808
v 5.974399 9.050273 0.01906053
v 7.741385 12.04532 0.4136356
v 10.10473 8.476211 -0.1275917
v 8.534895 14.1554 0.3615153
v 13.58024 9.296494 -0.1364016
v 7.701815 16.65173 0.2761788
v 16.9212 6.936898 -0.1302471
v 17.4453 10.70256 -0.1502699
v 20.23181 12.11324 -0.1612954
v 13.63017 19.07158 0.2051907
v 23.0248 11.62237 -0.1625788
v 21.76463 14.75938 -0.1766202
v 24.03964 17.37532 -0.1906906
v 28.2696 19.05045 -0.2020106
v 1.589018 3.140472 1.737187
v 2.490036 3.140472 0.5534687
v 1.974195 0.612648 0.262814
v 1.484422 0.612648 0.9146289
v 1.444839 0 -1.032531E-07
v 0.7408784 3.140472 1.278161
v 1.025724 0.612648 0.6067617
v 0.6830237 3.140472 -0.9794894
v 1.025724 0.612648 -0.7653356
v 1.63061 3.140472 -1.024074
v 0.6830237 3.140472 -0.9794894
v 1.025724 0.612648 -0.7653356
v 1.661505 0.612648 -0.7952386
v 2.490036 3.140472 0.5534687
v 1.974195 0.612648 0.262814
v 1.444839 0 -1.032531E-07
v 1.025724 0.612648 0.6067617
v 3.250253 6.742121 -1.616579
v 3.619104 6.742115 0.7871338
v 3.705449 8.005332 0.3648123
v 3.58036 8.005334 -1.07996
v 3.304101E-06 6.847392 -2.863588
v 5.974395 9.050273 -0.6356534
v 5.974399 9.050273 0.01906053
v 10.10473 8.476211 -0.1275917
v 3.410086 11.30646 -1.599985
v 3.304101E-06 12.02572 -2.568561
v 10.09757 8.449229 -0.4209562
v 13.58024 9.296494 -0.1364016
v 5.106739 11.08866 -0.822951
v 3.797072 11.09966 0.7116834
v 5.106742 11.08865 0.2269808
v 7.734219 12.01835 -0.8287386
v 7.741385 12.04532 0.4136356
v 13.57307 9.26951 -0.4297664
v 16.9212 6.936898 -0.1302471
v 16.91403 6.909915 -0.4236119
v 8.527724 14.12843 -0.8808589
v 7.694649 16.62475 -0.9661953
v 8.534895 14.1554 0.3615153
v 7.701815 16.65173 0.2761788
v 13.623 19.04461 -1.037183
v 13.63017 19.07158 0.2051907
v 28.2696 19.05045 -0.2020106
v 28.26243 19.02346 -0.4953753
v 24.03249 17.34834 -0.4840553
v 28.2696 19.05045 -0.2020106
v 24.03964 17.37532 -0.1906906
v 21.75747 14.73239 -0.4699849
v 21.76463 14.75938 -0.1766202
v 23.01765 11.59539 -0.4559434
v 23.0248 11.62237 -0.1625788
v 20.22465 12.08626 -0.4546599
v 23.0248 11.62237 -0.1625788
v 20.23181 12.11324 -0.1612954
v 17.43814 10.67558 -0.4436346
v 17.4453 10.70256 -0.1502699
v 16.9212 6.936898 -0.1302471
v -3.797066 11.09966 0.7116834
v 3.304101E-06 12.01779 -0.03575058
v -2.293429 10.92651 2.13579
v -3.410076 11.30646 -1.599985
v 3.304101E-06 10.78534 2.49706
v 3.304101E-06 12.02572 -2.568561
v 2.293436 10.92651 2.13579
v 3.410086 11.30646 -1.599985
v 3.797072 11.09966 0.7116834
vt 0.793305 0.07340503
vt 0.6846392 0.1464346
vt 0.7335165 0.1931307
vt 0.8906182 0.1235323
vt 0.8472155 0.02336344
vt 0.9166094 0.08151737
vt 0.8717614 0.1782027
vt 0.8508822 0.2265413
vt 0.7585775 0.2390665
vt 0.846185 0.3144085
vt 0.7420263 0.3505157
vt 0.8962366 0.3642472
vt 0.6927568 0.4477922
vt 0.9732845 0.3937024
vt 0.5896647 0.507251
vt 0.684229 0.5766775
vt 0.6893902 0.6743841
vt 0.9725333 0.573244
vt 0.6400409 0.7482415
vt 0.7459008 0.751987
vt 0.7921122 0.8502673
vt 0.7867439 0.9926751
vt 0.5279428 0.5260814
vt 0.6072154 0.6613016
vt 0.6251214 0.586946
vt 0.524422 0.6503562
vt 0.4320335 0.6362105
vt 0.5874041 0.718066
vt 0.5143349 0.7082224
vt 0.4295555 0.5060524
vt 0.4497166 0.7160826
vt 0.3320021 0.529812
vt 0.4174038 0.7166978
vt 0.44954 0.8095415
vt 0.3525332 0.7113029
vt 0.4211373 0.8100821
vt 0.3402507 0.6538625
vt 0.2798914 0.7239206
vt 0.2579339 0.6679515
vt 0.2372107 0.5943313
vt 0.4370554 0.9000095
vt 0.3007631 0.8739754
vt 0.3521119 0.8142201
vt 0.2267274 0.8296237
vt 0.269923 0.7844388
vt 0.2756215 0.9459246
vt 0.184444 0.8958349
vt 0.4382792 0.9643101
vt 0.6001194 0.9397486
vt 0.5722584 0.8688081
vt 0.5186729 0.81105
vt 0.6445527 0.8216715
vt 0.6893249 0.8862258
vt 0.5996691 0.778163
vt 0.03626353 0.08852239
vt 0.1495449 0.1127445
vt 0.03126281 0.1490604
vt 0.1528473 0.07276583
vt 0.0418818 0.02050775
vt 0.1808648 0.07182744
vt 0.1559401 0.03532392
vt 0.04207927 0.01811764
vt 0.1559401 0.03532392
vt 0.03603262 0.0913168
vt 0.1559401 0.03532392
vt 0.04207927 0.01811764
vt 0.1516533 0.08722038
vt 0.03126281 0.1490604
vt 0.1808648 0.07182744
vt 0.1495449 0.1127445
vt 0.194631 0.5799665
vt 0.1817596 0.6128054
vt 0.2011029 0.5945972
vt 0.1779824 0.6016281
vt 0.1633752 0.5285671
vt 0.1681595 0.6273176
vt 0.1450393 0.5812823
vt 0.1292349 0.5410708
vt 0.1599839 0.6237929
vt 0.1635492 0.676379
vt 0.1444892 0.6194993
vt 0.1287171 0.5936385
vt 0.131036 0.6216648
vt 0.1597928 0.6769097
vt 0.1771573 0.7180181
vt 0.1328407 0.658455
vt 0.1180645 0.6502011
vt 0.174236 0.7205089
vt 0.210113 0.7563935
vt 0.2079555 0.7595648
vt 0.09875369 0.676139
vt 0.07217842 0.6775711
vt 0.09074521 0.6623621
vt 0.0605725 0.6672181
vt 0.05168247 0.7481393
vt 0.03575462 0.746915
vt 0.07077092 0.9325114
vt 0.07457918 0.9319867
vt 0.08801168 0.8774978
vt 0.07813859 0.9334297
vt 0.09129852 0.8794945
vt 0.1208344 0.8463143
vt 0.1215148 0.8498423
vt 0.15983 0.8594236
vt 0.1580718 0.862748
vt 0.1496618 0.8241151
vt 0.1635407 0.8584501
vt 0.1534919 0.8237615
vt 0.1670096 0.7768117
vt 0.1697572 0.7791829
vt 0.2091213 0.7631077
vt 0.733516 0.1931311
vt 0.6846389 0.146435
vt 0.7933042 0.07340527
vt 0.8906175 0.1235322
vt 0.8472143 0.02336308
vt 0.9166088 0.08151779
vt 0.8717608 0.1782023
vt 0.8508817 0.2265411
vt 0.7585767 0.2390671
vt 0.8461848 0.3144083
vt 0.7420257 0.350516
vt 0.8962364 0.3642474
vt 0.6927568 0.4477925
vt 0.9732837 0.3937026
vt 0.5896644 0.5072516
vt 0.6842291 0.5766777
vt 0.6893907 0.6743842
vt 0.972533 0.5732439
vt 0.6400409 0.7482424
vt 0.745901 0.751987
vt 0.7921126 0.8502667
vt 0.7867444 0.9926751
vt 0.03624284 0.08852071
vt 0.03131977 0.1490649
vt 0.1495552 0.1125973
vt 0.1528063 0.07261467
vt 0.1808226 0.07164018
vt 0.04177392 0.02049874
vt 0.1558512 0.03516874
vt 0.04196835 0.01810849
vt 0.1558512 0.03516886
vt 0.0360156 0.09131529
vt 0.04196835 0.01810849
vt 0.1558512 0.03516886
vt 0.1516309 0.08707067
vt 0.03131977 0.1490649
vt 0.1495552 0.1125973
vt 0.1808226 0.07164018
vt 0.1558512 0.03516874
vt 0.1946155 0.5799623
vt 0.2010869 0.5945926
vt 0.1817474 0.6127998
vt 0.1779787 0.6016212
vt 0.1633604 0.5285633
vt 0.1599675 0.6237886
vt 0.1681433 0.6273128
vt 0.1635405 0.6763712
vt 0.145025 0.5812791
vt 0.1292206 0.5410671
vt 0.1597843 0.6769024
vt 0.1771587 0.7180064
vt 0.1444717 0.6194965
vt 0.1286999 0.5936275
vt 0.1310173 0.6216601
vt 0.1328273 0.6584545
vt 0.118049 0.6502035
vt 0.1742381 0.7204976
vt 0.2101224 0.7563735
vt 0.2079654 0.7595455
vt 0.09874463 0.6761442
vt 0.07216996 0.6775827
vt 0.09073222 0.6623694
vt 0.06056082 0.667233
vt 0.05169088 0.7481564
vt 0.03576243 0.7469362
vt 0.07082343 0.9325271
vt 0.07463157 0.9320014
vt 0.0880509 0.8775073
vt 0.07819128 0.9334433
vt 0.0913381 0.8795031
vt 0.1208647 0.8463148
vt 0.121546 0.8498427
vt 0.1598611 0.8594129
vt 0.1581021 0.8627369
vt 0.1496876 0.8241088
vt 0.1635717 0.8584386
vt 0.1535175 0.8237562
vt 0.1670251 0.7768025
vt 0.1697735 0.779173
vt 0.209132 0.7630879
vt 0.9281285 0.0916675
vt 0.9172022 0.1010259
vt 0.9302703 0.09822044
vt 0.9190462 0.08890453
vt 0.9271582 0.1054078
vt 0.9082153 0.09707069
vt 0.9210058 0.1112571
vt 0.9050441 0.108608
vt 0.9127899 0.1132514
vn -0.5869214 -0.03076389 0.8090593
vn -0.965481 -0.1328413 0.2240525
vn -0.8424265 -0.2720898 0.465064
vn -0.3506085 0.6466832 0.6774029
vn 0 0.007671214 0.9999706
vn 0 0.6492253 0.7605962
vn -0.4000693 0.7581441 0.5149388
vn 0.007868871 0.6556361 0.755036
vn -0.1758862 -0.7191845 0.6721887
vn 0.4725211 0.4267943 0.771084
vn -0.05005639 -0.7160624 0.6962392
vn 0.6658416 -0.02326063 0.7457304
vn 0.08713457 -0.6531101 0.7522331
vn 0.2884232 0.1205765 0.9498808
vn -0.2095819 -0.4180817 0.8839023
vn -0.5451825 -0.3850915 0.7446346
vn -0.1083452 -0.6642311 0.739634
vn 0.05418253 0.4206287 0.9056135
vn -0.3649529 -0.2698198 0.8910706
vn -0.6639882 -0.1039635 0.7404804
vn -0.4019864 -0.5674022 0.7186525
vn -0.3566338 0.008375548 0.9342068
vn -0.5869214 -0.03076389 0.8090593
vn -0.8973903 -0.3762406 0.2305075
vn -0.965481 -0.1328413 0.2240525
vn -0.4074534 -0.3501263 0.8434412
vn 0 -0.3894573 0.9210445
vn -0.9050356 -0.3974472 0.1514811
vn -0.2684957 -0.3904731 0.8805912
vn 0 0.007671214 0.9999706
vn 0.4224795 -0.5835404 0.6935357
vn 0.5869216 -0.03076406 0.8090591
vn -0.4222115 -0.5830562 0.6941059
vn 0.2116831 -0.6462487 -0.7331799
vn 0.2684847 -0.3899013 0.8808479
vn -0.211727 -0.6458321 -0.7335343
vn 0.4074535 -0.350126 0.8434414
vn 0.9051853 -0.3970084 0.1517359
vn 0.8973908 -0.3762397 0.2305066
vn 0.9654812 -0.1328405 0.2240526
vn 0 -0.4311753 -0.9022682
vn 0.6598886 -0.4214347 -0.622045
vn 0.5449855 -0.4030579 -0.7352109
vn 0.8973908 -0.3762397 0.2305066
vn 0.9051853 -0.3970084 0.1517359
vn 0.7811025 -0.07136693 -0.6203108
vn 0.9654812 -0.1328405 0.2240526
vn 0 -0.06459529 -0.9979115
vn -0.7811025 -0.07136609 -0.6203111
vn -0.6598886 -0.4214356 -0.6220444
vn -0.5450407 -0.4035768 -0.7348853
vn -0.8973903 -0.3762406 0.2305075
vn -0.965481 -0.1328413 0.2240525
vn -0.9050356 -0.3974472 0.1514811
vn -0.2684957 -0.3904731 0.8805912
vn -0.8627253 -0.493999 0.108027
vn -0.9050356 -0.3974472 0.1514811
vn -0.1567625 -0.6296386 0.7609078
vn 0.4224795 -0.5835404 0.6935357
vn -0.04553163 -0.9983407 0.03525233
vn 0.7890429 -0.4596407 0.4076047
vn 0.2116831 -0.6462487 -0.7331799
vn 0.6616498 -0.5055564 -0.553744
vn -0.5450407 -0.4035768 -0.7348853
vn 0.6616498 -0.5055564 -0.553744
vn 0.2116831 -0.6462487 -0.7331799
vn -0.5031945 -0.5075629 -0.6994106
vn -0.9050356 -0.3974472 0.1514811
vn -0.04553163 -0.9983407 0.03525233
vn -0.8627253 -0.493999 0.108027
vn -0.7811025 -0.07136609 -0.6203111
vn -0.8424265 -0.2720898 0.465064
vn -0.965481 -0.1328413 0.2240525
vn -0.6513754 -0.2620272 -0.7120757
vn 0 -0.06459529 -0.9979115
vn -0.1758862 -0.7191845 0.6721887
vn -0.3356952 0.8040012 -0.4908062
vn -1.22743E-07 0.719882 -0.6940965
vn -0.2079144 -0.7108076 -0.6719555
vn -0.05005639 -0.7160624 0.6962392
vn -0.02549283 0.683336 -0.7296588
vn -0.4000693 0.7581441 0.5149388
vn 0.007868871 0.6556361 0.755036
vn -0.05558345 -0.7464581 -0.6631069
vn 0.08713457 -0.6531101 0.7522331
vn 0.4629053 0.4371819 -0.771097
vn 0.4725211 0.4267943 0.771084
vn 0.1255359 -0.7250049 -0.6772065
vn -0.2095819 -0.4180817 0.8839023
vn -0.1952417 -0.4735339 -0.8588634
vn 0.6867148 -0.04720973 -0.7253924
vn 0.3030291 0.08955477 -0.9487641
vn 0.6658416 -0.02326063 0.7457304
vn 0.2884232 0.1205765 0.9498808
vn 0.0455543 0.3943125 -0.9178466
vn 0.05418253 0.4206287 0.9056135
vn -0.3566338 0.008375548 0.9342068
vn -0.3913736 -0.02593613 -0.9198663
vn -0.427073 -0.6127201 -0.6649683
vn -0.3566338 0.008375548 0.9342068
vn -0.4019864 -0.5674022 0.7186525
vn -0.6656348 -0.1098326 -0.7381511
vn -0.6639882 -0.1039635 0.7404804
vn -0.3802999 -0.293456 -0.8770722
vn -0.3649529 -0.2698198 0.8910706
vn -0.1133321 -0.7325047 -0.6712621
vn -0.3649529 -0.2698198 0.8910706
vn -0.1083452 -0.6642311 0.739634
vn -0.5616393 -0.4058846 -0.7209847
vn -0.5451825 -0.3850915 0.7446346
vn -0.2095819 -0.4180817 0.8839023
vn 0.8424261 -0.2720899 0.4650648
vn 0.9654812 -0.1328405 0.2240526
vn 0.5869216 -0.03076406 0.8090591
vn 0.3506087 0.6466828 0.6774031
vn 0 0.007671214 0.9999706
vn 0 0.6492253 0.7605962
vn 0.4000695 0.758144 0.5149391
vn -0.007869004 0.6556357 0.7550364
vn 0.1758859 -0.7191842 0.6721892
vn -0.4725208 0.4267936 0.7710845
vn 0.05005638 -0.7160619 0.6962397
vn -0.6658412 -0.02326057 0.7457309
vn -0.08713473 -0.65311 0.7522333
vn -0.2884232 0.1205767 0.9498808
vn 0.2095817 -0.4180821 0.8839021
vn 0.5451828 -0.3850921 0.7446339
vn 0.1083455 -0.6642321 0.739633
vn -0.0541826 0.4206288 0.9056134
vn 0.3649519 -0.269819 0.8910711
vn 0.6639862 -0.103963 0.7404823
vn 0.4019861 -0.5674017 0.7186533
vn 0.3566343 0.008375722 0.9342065
vn 0.2684847 -0.3899013 0.8808479
vn 0.9051853 -0.3970084 0.1517359
vn 0.8612466 -0.4964901 0.1084067
vn 0.1563092 -0.6294302 0.7611734
vn 0.04500191 -0.9983596 0.03539463
vn -0.4222115 -0.5830562 0.6941059
vn -0.7873996 -0.4614173 0.4087736
vn -0.211727 -0.6458321 -0.7335343
vn -0.6605311 -0.5067206 -0.5540151
vn 0.5449855 -0.4030579 -0.7352109
vn -0.211727 -0.6458321 -0.7335343
vn -0.6605311 -0.5067206 -0.5540151
vn 0.5017186 -0.5082365 -0.6999815
vn 0.9051853 -0.3970084 0.1517359
vn 0.8612466 -0.4964901 0.1084067
vn 0.04500191 -0.9983596 0.03539463
vn -0.7873996 -0.4614173 0.4087736
vn 0.7811025 -0.07136693 -0.6203108
vn 0.9654812 -0.1328405 0.2240526
vn 0.8424261 -0.2720899 0.4650648
vn 0.645552 -0.2693041 -0.7146592
vn 0 -0.06459529 -0.9979115
vn 0.2079147 -0.7108082 -0.6719548
vn 0.1758859 -0.7191842 0.6721892
vn 0.05005638 -0.7160619 0.6962397
vn 0.3273419 0.8028256 -0.4983157
vn -1.22743E-07 0.719882 -0.6940965
vn 0.0555835 -0.7464586 -0.6631064
vn -0.08713473 -0.65311 0.7522333
vn 0.02549293 0.6833363 -0.7296585
vn 0.4000695 0.758144 0.5149391
vn -0.007869004 0.6556357 0.7550364
vn -0.4629058 0.437182 -0.7710966
vn -0.4725208 0.4267936 0.7710845
vn -0.1255361 -0.725005 -0.6772063
vn 0.2095817 -0.4180821 0.8839021
vn 0.1952415 -0.4735343 -0.8588632
vn -0.6867154 -0.04720968 -0.7253917
vn -0.3030293 0.08955506 -0.948764
vn -0.6658412 -0.02326057 0.7457309
vn -0.2884232 0.1205767 0.9498808
vn -0.04555431 0.3943124 -0.9178467
vn -0.0541826 0.4206288 0.9056134
vn 0.3566343 0.008375722 0.9342065
vn 0.3913729 -0.0259362 -0.9198666
vn 0.4270734 -0.6127205 -0.6649675
vn 0.3566343 0.008375722 0.9342065
vn 0.4019861 -0.5674017 0.7186533
vn 0.6656371 -0.1098328 -0.738149
vn 0.6639862 -0.103963 0.7404823
vn 0.3803011 -0.2934567 -0.8770715
vn 0.3649519 -0.269819 0.8910711
vn 0.113332 -0.7325035 -0.6712633
vn 0.3649519 -0.269819 0.8910711
vn 0.1083455 -0.6642321 0.739633
vn 0.5616389 -0.4058846 -0.720985
vn 0.5451828 -0.3850921 0.7446339
vn 0.2095817 -0.4180821 0.8839021
vn -0.4000693 0.7581441 0.5149388
vn 0 0.9793144 0.2023448
vn -0.3506085 0.6466832 0.6774029
vn -0.3356952 0.8040012 -0.4908062
vn 0 0.6492253 0.7605962
vn -1.22743E-07 0.719882 -0.6940965
vn 0.3506087 0.6466828 0.6774031
vn 0.3273419 0.8028256 -0.4983157
vn 0.4000695 0.758144 0.5149391
g Body_0
f 3/3/3 2/2/2 1/1/1
f 3/3/3 1/1/1 4/4/4
f 1/1/1 5/5/5 4/4/4
f 5/5/5 6/6/6 4/4/4
f 7/7/7 3/3/3 4/4/4
f 7/7/7 8/8/8 3/3/3
f 8/8/8 9/9/9 3/3/3
f 8/8/8 10/10/10 9/9/9
f 10/10/10 11/11/11 9/9/9
f 10/10/10 12/12/12 11/11/11
f 12/12/12 13/13/13 11/11/11
f 12/12/12 14/14/14 13/13/13
f 14/14/14 15/15/15 13/13/13
f 14/14/14 16/16/16 15/15/15
f 14/14/14 17/17/17 16/16/16
f 14/14/14 18/18/18 17/17/17
f 18/18/18 19/19/19 17/17/17
f 18/18/18 20/20/20 19/19/19
f 18/18/18 21/21/21 20/20/20
f 18/18/18 22/22/22 21/21/21
f 25/25/25 24/24/24 23/23/23
f 24/24/24 26/26/26 23/23/23
f 26/26/26 27/27/27 23/23/23
f 24/24/24 28/28/28 26/26/26
f 28/28/28 29/29/29 26/26/26
f 27/27/27 30/30/30 23/23/23
f 26/26/26 29/29/29 31/31/31
f 27/27/27 26/26/26 31/31/31
f 30/30/30 27/27/27 32/32/32
f 27/27/27 31/31/31 33/33/33
f 31/31/31 34/34/34 33/33/33
f 33/33/33 35/35/35 27/27/27
f 34/34/34 36/36/36 33/33/33
f 35/35/35 37/37/37 27/27/27
f 27/27/27 37/37/37 32/32/32
f 35/35/35 38/38/38 37/37/37
f 38/38/38 39/39/39 37/37/37
f 37/37/37 39/39/39 32/32/32
f 39/39/39 40/40/40 32/32/32
f 34/34/34 41/41/41 36/36/36
f 36/36/36 41/41/41 42/42/42
f 43/43/43 36/36/36 42/42/42
f 43/43/43 42/42/42 44/44/44
f 45/45/45 43/43/43 44/44/44
f 44/44/44 42/42/42 46/46/46
f 42/42/42 41/41/41 46/46/46
f 47/47/47 44/44/44 46/46/46
f 41/41/41 48/48/48 46/46/46
f 48/48/48 41/41/41 49/49/49
f 41/41/41 34/34/34 50/50/50
f 41/41/41 50/50/50 49/49/49
f 34/34/34 51/51/51 50/50/50
f 50/50/50 52/52/52 49/49/49
f 50/50/50 51/51/51 52/52/52
f 52/52/52 53/53/53 49/49/49
f 51/51/51 54/54/54 52/52/52
f 57/57/57 56/56/56 55/55/55
f 56/56/56 58/58/58 55/55/55
f 55/55/55 58/58/58 59/59/59
f 56/56/56 60/60/60 58/58/58
f 58/58/58 61/61/61 59/59/59
f 58/58/58 60/60/60 61/61/61
f 59/59/59 61/61/61 62/62/62
f 61/61/61 60/60/60 63/63/63
f 61/61/61 63/63/63 62/62/62
f 66/66/66 65/65/65 64/64/64
f 65/65/65 67/67/67 64/64/64
f 64/64/64 67/67/67 68/68/68
f 65/65/65 69/69/69 67/67/67
f 67/67/67 70/70/70 68/68/68
f 67/67/67 69/69/69 70/70/70
f 73/73/73 72/72/72 71/71/71
f 72/72/72 74/74/74 71/71/71
f 75/75/75 71/71/71 74/74/74
f 72/72/72 76/76/76 74/74/74
f 75/75/75 74/74/74 77/77/77
f 78/78/78 75/75/75 77/77/77
f 76/76/76 79/79/79 74/74/74
f 74/74/74 79/79/79 77/77/77
f 76/76/76 80/80/80 79/79/79
f 79/79/79 81/81/81 77/77/77
f 77/77/77 81/81/81 82/82/82
f 81/81/81 83/83/83 82/82/82
f 80/80/80 84/84/84 79/79/79
f 79/79/79 84/84/84 81/81/81
f 80/80/80 85/85/85 84/84/84
f 81/81/81 86/86/86 83/83/83
f 84/84/84 86/86/86 81/81/81
f 86/86/86 87/87/87 83/83/83
f 85/85/85 88/88/88 84/84/84
f 84/84/84 88/88/88 86/86/86
f 85/85/85 89/89/89 88/88/88
f 89/89/89 90/90/90 88/88/88
f 86/86/86 91/91/91 87/87/87
f 88/88/88 91/91/91 86/86/86
f 88/88/88 90/90/90 91/91/91
f 90/90/90 92/92/92 91/91/91
f 91/91/91 93/93/93 87/87/87
f 91/91/91 92/92/92 93/93/93
f 92/92/92 94/94/94 93/93/93
f 92/92/92 95/95/95 94/94/94
f 95/95/95 96/96/96 94/94/94
f 97/97/97 96/96/96 95/95/95
f 98/98/98 97/97/97 95/95/95
f 99/99/99 98/98/98 95/95/95
f 100/100/100 98/98/98 99/99/99
f 101/101/101 100/100/100 99/99/99
f 101/101/101 99/99/99 102/102/102
f 102/102/102 99/99/99 95/95/95
f 103/103/103 101/101/101 102/102/102
f 104/104/104 102/102/102 95/95/95
f 103/103/103 102/102/102 104/104/104
f 104/104/104 95/95/95 92/92/92
f 105/105/105 103/103/103 104/104/104
f 106/106/106 104/104/104 92/92/92
f 107/107/107 104/104/104 106/106/106
f 108/108/108 107/107/107 106/106/106
f 109/109/109 106/106/106 92/92/92
f 108/108/108 106/106/106 109/109/109
f 90/90/90 109/109/109 92/92/92
f 110/110/110 108/108/108 109/109/109
f 110/110/110 109/109/109 90/90/90
f 111/111/111 110/110/110 90/90/90
f 114/114/114 113/113/113 112/112/112
f 114/114/114 112/112/112 115/115/115
f 116/116/116 114/114/114 115/115/115
f 117/117/117 116/116/116 115/115/115
f 112/112/112 118/118/118 115/115/115
f 119/119/119 118/118/118 112/112/112
f 120/120/120 119/119/119 112/112/112
f 121/121/121 119/119/119 120/120/120
f 122/122/122 121/121/121 120/120/120
f 123/123/123 121/121/121 122/122/122
f 124/124/124 123/123/123 122/122/122
f 125/125/125 123/123/123 124/124/124
f 126/126/126 125/125/125 124/124/124
f 127/127/127 125/125/125 126/126/126
f 128/128/128 125/125/125 127/127/127
f 129/129/129 125/125/125 128/128/128
f 130/130/130 129/129/129 128/128/128
f 131/131/131 129/129/129 130/130/130
f 132/132/132 129/129/129 131/131/131
f 133/133/133 129/129/129 132/132/132
f 136/136/136 135/135/135 134/134/134
f 137/137/137 136/136/136 134/134/134
f 138/138/138 136/136/136 137/137/137
f 137/137/137 134/134/134 139/139/139
f 138/138/138 137/137/137 140/140/140
f 140/140/140 137/137/137 139/139/139
f 140/140/140 139/139/139 141/141/141
f 142/142/142 140/140/140 141/141/141
f 145/145/145 144/144/144 143/143/143
f 146/146/146 145/145/145 143/143/143
f 146/146/146 143/143/143 147/147/147
f 148/148/148 146/146/146 147/147/147
f 149/149/149 146/146/146 148/148/148
f 149/149/149 145/145/145 146/146/146
f 149/149/149 150/150/150 145/145/145
f 153/153/153 152/152/152 151/151/151
f 154/154/154 153/153/153 151/151/151
f 154/154/154 151/151/151 155/155/155
f 154/154/154 156/156/156 153/153/153
f 156/156/156 157/157/157 153/153/153
f 158/158/158 157/157/157 156/156/156
f 154/154/154 155/155/155 159/159/159
f 156/156/156 154/154/154 159/159/159
f 155/155/155 160/160/160 159/159/159
f 161/161/161 158/158/158 156/156/156
f 162/162/162 158/158/158 161/161/161
f 163/163/163 156/156/156 159/159/159
f 161/161/161 156/156/156 163/163/163
f 163/163/163 159/159/159 164/164/164
f 165/165/165 163/163/163 164/164/164
f 166/166/166 163/163/163 165/165/165
f 166/166/166 161/161/161 163/163/163
f 167/167/167 166/166/166 165/165/165
f 168/168/168 162/162/162 161/161/161
f 168/168/168 161/161/161 166/166/166
f 169/169/169 162/162/162 168/168/168
f 170/170/170 169/169/169 168/168/168
f 171/171/171 166/166/166 167/167/167
f 171/171/171 168/168/168 166/166/166
f 170/170/170 168/168/168 171/171/171
f 172/172/172 170/170/170 171/171/171
f 173/173/173 171/171/171 167/167/167
f 172/172/172 171/171/171 173/173/173
f 174/174/174 172/172/172 173/173/173
f 175/175/175 172/172/172 174/174/174
f 176/176/176 175/175/175 174/174/174
f 176/176/176 177/177/177 175/175/175
f 177/177/177 178/178/178 175/175/175
f 178/178/178 179/179/179 175/175/175
f 178/178/178 180/180/180 179/179/179
f 180/180/180 181/181/181 179/179/179
f 179/179/179 181/181/181 182/182/182
f 179/179/179 182/182/182 175/175/175
f 181/181/181 183/183/183 182/182/182
f 182/182/182 184/184/184 175/175/175
f 182/182/182 183/183/183 184/184/184
f 175/175/175 184/184/184 172/172/172
f 183/183/183 185/185/185 184/184/184
f 184/184/184 186/186/186 172/172/172
f 184/184/184 187/187/187 186/186/186
f 187/187/187 188/188/188 186/186/186
f 186/186/186 189/189/189 172/172/172
f 186/186/186 188/188/188 189/189/189
f 189/189/189 170/170/170 172/172/172
f 188/188/188 190/190/190 189/189/189
f 189/189/189 190/190/190 170/170/170
f 190/190/190 191/191/191 170/170/170
f 194/194/194 193/193/193 192/192/192
f 192/192/192 193/193/193 195/195/195
f 196/196/196 193/193/193 194/194/194
f 195/195/195 193/193/193 197/197/197
f 198/198/198 193/193/193 196/196/196
f 197/197/197 193/193/193 199/199/199
f 200/200/200 193/193/193 198/198/198
f 199/199/199 193/193/193 200/200/200
