g BodyLVL3
v 2.45301 6.76872 1.241189
v 2.280752 8.814975 1.477255
v 2.126081 8.658523 -1.578367
v 2.799602 6.721621 -0.78484
v 2.719919 4.928329 1.630869
v 3.221542 4.906711 -0.949182
v 2.999532 3.019665 2.183069
v 3.705093 3.019665 -1.215841
v 1.556461 3.019665 -3.83104
v 1.607998 4.873962 -2.938747
v -0.0003035381 4.87396 -2.938746
v -5.696264E-06 3.019665 -3.83104
v 7.629394E-08 6.650265 -2.353328
v 1.556845 6.65027 -2.35333
v 7.629394E-08 8.657944 -1.580142
v 7.629394E-08 11.32331 -1.166486
v 1.896503 11.23413 -1.16462
v 7.629394E-08 11.90459 -0.7501595
v 1.921562 11.19653 0.9067936
v 7.629394E-08 11.90459 -0.7501595
v 1.896503 11.23413 -1.16462
v 7.629394E-08 11.91256 1.018909
v 7.629394E-08 9.218639 1.949679
v 2.280752 8.814975 1.477255
v 7.629394E-08 6.777102 2.400237
v 2.45301 6.76872 1.241189
v 2.719919 4.928329 1.630869
v -1.921562 11.19653 0.9067936
v -1.896503 11.23413 -1.16462
v -2.280751 8.814975 1.477252
v -0.008015066 4.932176 2.987254
v 2.999532 3.019665 2.183069
v -2.936476E-05 3.019665 3.881149
v -2.999532 3.019665 2.183069
v -2.719919 4.928329 1.63087
v -3.705093 3.019665 -1.215841
v -2.45301 6.76872 1.24119
v -2.126081 8.658523 -1.578367
v -3.221542 4.906711 -0.949182
v -1.556461 3.019665 -3.83104
v -2.799602 6.721621 -0.78484
v -1.607997 4.873962 -2.938747
v -5.696264E-06 3.019665 -3.83104
v -0.0003035381 4.87396 -2.938746
v 7.629394E-08 6.650265 -2.353328
v -1.556845 6.65027 -2.35333
v 7.629394E-08 8.657944 -1.580142
v 7.629394E-08 11.32331 -1.166486
v -1.896503 11.23413 -1.16462
v 7.629394E-08 11.90459 -0.7501595
v 1.921562 11.19653 0.9067936
v 4.445508 8.383454 1.631677
v 2.280752 8.814975 1.477255
v 4.305074 11.01901 1.249253
v 1.896503 11.23413 -1.16462
v 6.473113 7.98818 1.722327
v 3.526996 11.13885 -1.306568
v 2.126081 8.658523 -1.578367
v 6.51309 11.0677 1.408327
v 7.804093 7.72871 1.781832
v 7.962497 11.09966 1.512748
v 3.59555 8.383931 -1.684611
v 2.280752 8.814975 1.477255
v 4.445508 8.383454 1.631677
v 5.218997 10.99819 -1.674842
v 7.031714 11.03737 -1.917071
v 8.221638 11.06308 -2.076078
v 5.315793 8.268096 -1.862818
v 6.92608 7.934978 -1.88177
v 7.983121 7.716309 -1.894211
v 6.473113 7.98818 1.722327
v 7.804093 7.72871 1.781832
v -1.921562 11.19653 0.9067936
v -2.280751 8.814975 1.477252
v -4.445508 8.383454 1.631677
v -4.305074 11.01901 1.249253
v -6.475923 11.06688 1.405649
v -6.438983 7.994834 1.720801
v -7.804093 7.72871 1.781832
v -7.962497 11.09966 1.512748
v -1.896503 11.23413 -1.16462
v -8.221638 11.06308 -2.076078
v -3.526996 11.13885 -1.306568
v -2.126081 8.658523 -1.578367
v -5.218997 10.99819 -1.674842
v -3.59555 8.383931 -1.684611
v -2.280751 8.814975 1.477252
v -4.445508 8.383454 1.631677
v -7.001202 11.03671 -1.912994
v -5.315793 8.268096 -1.862818
v -6.898975 7.940585 -1.881451
v -7.983121 7.716309 -1.894211
v -6.438983 7.994834 1.720801
v -7.804093 7.72871 1.781832
v 3.705093 3.019665 -1.215841
v -1.468156E-06 4.134895 0.02156672
v 2.999532 3.019665 2.183069
v 1.556461 3.019665 -3.83104
v -2.936476E-05 3.019665 3.881149
v -5.696264E-06 3.019665 -3.83104
v -2.999532 3.019665 2.183069
v -1.556461 3.019665 -3.83104
v -3.705093 3.019665 -1.215841
v 7.983121 7.716309 -1.894211
v 7.804093 7.72871 1.781832
v 7.170729 9.428479 -0.1989681
v 8.221638 11.06308 -2.076078
v 7.962497 11.09966 1.512748
v -7.983121 7.716309 -1.894211
v -7.170729 9.428479 -0.1989681
v -7.804093 7.72871 1.781832
v -8.221638 11.06308 -2.076078
v -7.962497 11.09966 1.512748
vt 0.8564553 0.4225201
vt 0.8690231 0.4654176
vt 0.8076755 0.4814061
vt 0.8112015 0.4331892
vt 0.8513999 0.3807652
vt 0.7955414 0.3956722
vt 0.8474025 0.3371758
vt 0.7773743 0.3571793
vt 0.7120531 0.3878854
vt 0.7442024 0.419697
vt 0.7178559 0.4429665
vt 0.6871572 0.4106897
vt 0.7434951 0.473098
vt 0.770209 0.4512735
vt 0.7711875 0.5095857
vt 0.8067532 0.5564951
vt 0.8384995 0.5298205
vt 0.8163414 0.5688477
vt 0.9606669 0.5193458
vt 0.9186942 0.5628406
vt 0.9640999 0.5657815
vt 0.9186959 0.5259025
vt 0.9186984 0.4678645
vt 0.9686722 0.4654176
vt 0.918701 0.4137424
vt 0.9812399 0.4225201
vt 0.9862953 0.3807652
vt 0.8767253 0.5193458
vt 0.8732883 0.5657815
vt 0.8690231 0.4654176
vt 0.9185426 0.3711163
vt 0.9902928 0.3371758
vt 0.9187004 0.3243968
vt 0.8474025 0.3371758
vt 0.8513999 0.3807652
vt 0.7773743 0.3571793
vt 0.8564553 0.4225201
vt 0.8076755 0.4814061
vt 0.7955414 0.3956722
vt 0.7120531 0.3878854
vt 0.8112015 0.4331892
vt 0.7442024 0.419697
vt 0.6871572 0.4106897
vt 0.7178559 0.4429665
vt 0.7434951 0.473098
vt 0.770209 0.4512735
vt 0.7711875 0.5095857
vt 0.8067532 0.5564951
vt 0.8384995 0.5298205
vt 0.8163414 0.5688477
vt 0.623165 0.4951482
vt 0.6651662 0.4702478
vt 0.623165 0.4702478
vt 0.6651662 0.4951482
vt 0.623165 0.5202125
vt 0.6985184 0.4702478
vt 0.6552315 0.5202125
vt 0.623165 0.5443406
vt 0.6985184 0.4951482
vt 0.7204118 0.4702478
vt 0.7204118 0.4951482
vt 0.6552315 0.5443406
vt 0.623165 0.5725852
vt 0.6651662 0.5725852
vt 0.6760426 0.5202125
vt 0.7028286 0.5202125
vt 0.7204118 0.5202125
vt 0.6760426 0.5443406
vt 0.7028286 0.5443406
vt 0.7204118 0.5443406
vt 0.6985184 0.5725852
vt 0.7204118 0.5725852
vt 0.623165 0.4951482
vt 0.623165 0.4702478
vt 0.6651662 0.4702478
vt 0.6651662 0.4951482
vt 0.697957 0.4951482
vt 0.697957 0.4702478
vt 0.7204118 0.4702478
vt 0.7204118 0.4951482
vt 0.623165 0.5202125
vt 0.7204118 0.5202125
vt 0.6552315 0.5202125
vt 0.623165 0.5443406
vt 0.6760426 0.5202125
vt 0.6552315 0.5443406
vt 0.623165 0.5725852
vt 0.6651662 0.5725852
vt 0.7023777 0.5202125
vt 0.6760426 0.5443406
vt 0.7023777 0.5443406
vt 0.7204118 0.5443406
vt 0.697957 0.5725852
vt 0.7204118 0.5725852
vt 0.7529494 0.5313193
vt 0.7454458 0.5337964
vt 0.7514986 0.5381899
vt 0.7486211 0.5260146
vt 0.7454187 0.5416038
vt 0.7454729 0.5260033
vt 0.7393628 0.538148
vt 0.7423247 0.5259928
vt 0.7379597 0.5312674
vt 0.7511923 0.5555369
vt 0.7397552 0.5555369
vt 0.7456193 0.5634554
vt 0.7511923 0.5715449
vt 0.7397552 0.571545
vt 0.7511923 0.5555369
vt 0.7456193 0.5634554
vt 0.7397552 0.5555369
vt 0.7511923 0.5715449
vt 0.7397552 0.571545
vn 0.7804636 0.2127095 0.5879042
vn 0.3248933 -0.173389 0.9297206
vn 0.2523897 -0.1680198 -0.9529265
vn 0.9648358 0.2078684 -0.1608803
vn 0.7543771 0.2850894 0.5913029
vn 0.9429814 0.2503121 -0.2193853
vn 0.613438 -0.5761226 0.5401635
vn 0.725973 -0.6618909 -0.1867181
vn 0.3722207 -0.6326929 -0.6790813
vn 0.5184786 0.3285709 -0.7894436
vn 0 0.3769819 -0.9262207
vn 0 -0.6090258 -0.7931504
vn 0 0.3398115 -0.9404935
vn 0.3800249 0.2973609 -0.8758754
vn 0 0.2442674 -0.9697078
vn 0 0.2088673 -0.977944
vn 0.09617959 0.7104163 -0.6971787
vn 0 0.9961475 -0.0876941
vn 0.1489225 0.783498 0.6032851
vn 0 0.9961475 -0.0876941
vn 0.09617959 0.7104163 -0.6971787
vn 0 0.8978621 0.4402767
vn -2.809095E-07 0.1491888 0.9888087
vn 0.3248933 -0.173389 0.9297206
vn 0.0005379749 0.1790855 0.9838334
vn 0.7804636 0.2127095 0.5879042
vn 0.7543771 0.2850894 0.5913029
vn -0.1489224 0.7834978 0.6032854
vn -0.09617957 0.7104164 -0.6971787
vn -0.3248936 -0.1733891 0.9297206
vn -0.00110087 0.3460053 0.9382319
vn 0.613438 -0.5761226 0.5401635
vn 0.001525872 -0.4863783 0.873747
vn -0.6132954 -0.5779662 0.5383529
vn -0.7551638 0.2847842 0.5904452
vn -0.7259733 -0.6618905 -0.1867181
vn -0.7807871 0.2131439 0.5873169
vn -0.2523896 -0.1680197 -0.9529265
vn -0.9429814 0.2503121 -0.2193853
vn -0.3722345 -0.6327581 -0.679013
vn -0.9648358 0.2078684 -0.1608803
vn -0.5185126 0.3285635 -0.7894244
vn 0 -0.6090258 -0.7931504
vn 0 0.3769819 -0.9262207
vn 0 0.3398115 -0.9404935
vn -0.3800409 0.2973591 -0.875869
vn 0 0.2442674 -0.9697078
vn 0 0.2088673 -0.977944
vn -0.09617957 0.7104164 -0.6971787
vn 0 0.9961475 -0.0876941
vn 0.1489225 0.783498 0.6032851
vn -0.1830082 -0.6126782 0.768852
vn 0.3248933 -0.173389 0.9297206
vn -0.03804122 0.6851606 0.727398
vn 0.09617959 0.7104163 -0.6971787
vn -0.187476 -0.6807778 0.708092
vn -0.0322183 0.7065054 -0.706974
vn 0.2523897 -0.1680198 -0.9529265
vn -0.04825554 0.7565684 0.6521316
vn 0.3894719 -0.6507764 0.6517682
vn 0.494048 0.6328884 0.5961282
vn -0.2059455 -0.6900299 -0.6938625
vn 0.3248933 -0.173389 0.9297206
vn -0.1830082 -0.6126782 0.768852
vn -0.08211909 0.708624 -0.7007913
vn -0.06473138 0.7680877 -0.6370645
vn 0.5705869 0.6282482 -0.5288994
vn -0.1961139 -0.659628 -0.725555
vn -0.1987936 -0.7623198 -0.6159137
vn 0.4611422 -0.7437096 -0.4839874
vn -0.187476 -0.6807778 0.708092
vn 0.3894719 -0.6507764 0.6517682
vn -0.1489224 0.7834978 0.6032854
vn -0.3248936 -0.1733891 0.9297206
vn 0.1831549 -0.6133493 0.7682818
vn 0.03793165 0.6849361 0.7276151
vn 0.04826777 0.7561755 0.6525863
vn 0.1873125 -0.679527 0.7093357
vn -0.3759342 -0.6549787 0.655497
vn -0.4821723 0.6386521 0.5996943
vn -0.09617957 0.7104164 -0.6971787
vn -0.5568451 0.635051 -0.535382
vn 0.03221828 0.7065055 -0.7069739
vn -0.2523896 -0.1680197 -0.9529265
vn 0.08237097 0.706816 -0.7025852
vn 0.2059455 -0.6900297 -0.6938627
vn -0.3248936 -0.1733891 0.9297206
vn 0.1831549 -0.6133493 0.7682818
vn 0.06466877 0.7689683 -0.6360076
vn 0.1960587 -0.6582698 -0.7268025
vn 0.1987745 -0.7621537 -0.6161254
vn -0.4457716 -0.7490388 -0.4901311
vn 0.1873125 -0.679527 0.7093357
vn -0.3759342 -0.6549787 0.655497
vn 0.725973 -0.6618909 -0.1867181
vn -3.226988E-07 -0.9994593 -0.03288097
vn 0.613438 -0.5761226 0.5401635
vn 0.3722207 -0.6326929 -0.6790813
vn 0.001525872 -0.4863783 0.873747
vn 0 -0.6090258 -0.7931504
vn -0.6132954 -0.5779662 0.5383529
vn -0.3722345 -0.6327581 -0.679013
vn -0.7259733 -0.6618905 -0.1867181
vn 0.4611422 -0.7437096 -0.4839874
vn 0.3894719 -0.6507764 0.6517682
vn 0.9969724 -0.05118761 0.05852944
vn 0.5705869 0.6282482 -0.5288994
vn 0.494048 0.6328884 0.5961282
vn -0.4457716 -0.7490388 -0.4901311
vn -0.9969724 -0.05118753 0.05852946
vn -0.3759342 -0.6549787 0.655497
vn -0.5568451 0.635051 -0.535382
vn -0.4821723 0.6386521 0.5996943
g BodyLVL3_0
f 3/3/3 2/2/2 1/1/1
f 4/4/4 3/3/3 1/1/1
f 1/1/1 5/5/5 4/4/4
f 5/5/5 6/6/6 4/4/4
f 5/5/5 7/7/7 6/6/6
f 7/7/7 8/8/8 6/6/6
f 6/6/6 8/8/8 9/9/9
f 4/4/4 6/6/6 10/10/10
f 10/10/10 6/6/6 9/9/9
f 10/10/10 9/9/9 11/11/11
f 9/9/9 12/12/12 11/11/11
f 10/10/10 11/11/11 13/13/13
f 14/14/14 4/4/4 10/10/10
f 14/14/14 10/10/10 13/13/13
f 14/14/14 3/3/3 4/4/4
f 14/14/14 13/13/13 3/3/3
f 13/13/13 15/15/15 3/3/3
f 15/15/15 16/16/16 3/3/3
f 16/16/16 17/17/17 3/3/3
f 17/17/17 16/16/16 18/18/18
f 21/21/21 20/20/20 19/19/19
f 20/20/20 22/22/22 19/19/19
f 19/19/19 22/22/22 23/23/23
f 24/24/24 19/19/19 23/23/23
f 24/24/24 23/23/23 25/25/25
f 26/26/26 24/24/24 25/25/25
f 27/27/27 26/26/26 25/25/25
f 22/22/22 20/20/20 28/28/28
f 22/22/22 28/28/28 23/23/23
f 20/20/20 29/29/29 28/28/28
f 28/28/28 30/30/30 23/23/23
f 23/23/23 30/30/30 25/25/25
f 31/31/31 27/27/27 25/25/25
f 32/32/32 27/27/27 31/31/31
f 33/33/33 32/32/32 31/31/31
f 34/34/34 33/33/33 31/31/31
f 35/35/35 34/34/34 31/31/31
f 35/35/35 31/31/31 25/25/25
f 36/36/36 34/34/34 35/35/35
f 30/30/30 37/37/37 25/25/25
f 37/37/37 35/35/35 25/25/25
f 30/30/30 38/38/38 37/37/37
f 39/39/39 36/36/36 35/35/35
f 36/36/36 39/39/39 40/40/40
f 35/35/35 37/37/37 41/41/41
f 39/39/39 35/35/35 41/41/41
f 38/38/38 41/41/41 37/37/37
f 39/39/39 42/42/42 40/40/40
f 39/39/39 41/41/41 42/42/42
f 43/43/43 40/40/40 42/42/42
f 44/44/44 43/43/43 42/42/42
f 44/44/44 42/42/42 45/45/45
f 41/41/41 46/46/46 42/42/42
f 42/42/42 46/46/46 45/45/45
f 38/38/38 46/46/46 41/41/41
f 45/45/45 46/46/46 38/38/38
f 47/47/47 45/45/45 38/38/38
f 48/48/48 47/47/47 38/38/38
f 49/49/49 48/48/48 38/38/38
f 48/48/48 49/49/49 50/50/50
f 53/53/53 52/52/52 51/51/51
f 52/52/52 54/54/54 51/51/51
f 55/55/55 51/51/51 54/54/54
f 54/54/54 52/52/52 56/56/56
f 57/57/57 55/55/55 54/54/54
f 55/55/55 57/57/57 58/58/58
f 59/59/59 54/54/54 56/56/56
f 59/59/59 56/56/56 60/60/60
f 61/61/61 59/59/59 60/60/60
f 57/57/57 62/62/62 58/58/58
f 63/63/63 58/58/58 62/62/62
f 64/64/64 63/63/63 62/62/62
f 65/65/65 57/57/57 54/54/54
f 54/54/54 59/59/59 65/65/65
f 57/57/57 65/65/65 62/62/62
f 59/59/59 61/61/61 66/66/66
f 59/59/59 66/66/66 65/65/65
f 61/61/61 67/67/67 66/66/66
f 65/65/65 68/68/68 62/62/62
f 64/64/64 62/62/62 68/68/68
f 68/68/68 65/65/65 66/66/66
f 69/69/69 66/66/66 67/67/67
f 69/69/69 68/68/68 66/66/66
f 68/68/68 69/69/69 64/64/64
f 70/70/70 69/69/69 67/67/67
f 69/69/69 71/71/71 64/64/64
f 69/69/69 70/70/70 71/71/71
f 70/70/70 72/72/72 71/71/71
f 75/75/75 74/74/74 73/73/73
f 76/76/76 75/75/75 73/73/73
f 75/75/75 76/76/76 77/77/77
f 78/78/78 75/75/75 77/77/77
f 78/78/78 77/77/77 79/79/79
f 77/77/77 80/80/80 79/79/79
f 73/73/73 81/81/81 76/76/76
f 82/82/82 80/80/80 77/77/77
f 81/81/81 83/83/83 76/76/76
f 83/83/83 81/81/81 84/84/84
f 77/77/77 76/76/76 85/85/85
f 83/83/83 85/85/85 76/76/76
f 86/86/86 83/83/83 84/84/84
f 85/85/85 83/83/83 86/86/86
f 84/84/84 87/87/87 86/86/86
f 87/87/87 88/88/88 86/86/86
f 89/89/89 82/82/82 77/77/77
f 89/89/89 77/77/77 85/85/85
f 90/90/90 85/85/85 86/86/86
f 86/86/86 88/88/88 90/90/90
f 85/85/85 90/90/90 89/89/89
f 89/89/89 91/91/91 82/82/82
f 90/90/90 91/91/91 89/89/89
f 91/91/91 90/90/90 88/88/88
f 91/91/91 92/92/92 82/82/82
f 93/93/93 91/91/91 88/88/88
f 92/92/92 91/91/91 93/93/93
f 94/94/94 92/92/92 93/93/93
f 97/97/97 96/96/96 95/95/95
f 95/95/95 96/96/96 98/98/98
f 99/99/99 96/96/96 97/97/97
f 100/100/100 98/98/98 96/96/96
f 96/96/96 99/99/99 101/101/101
f 102/102/102 100/100/100 96/96/96
f 96/96/96 101/101/101 103/103/103
f 96/96/96 103/103/103 102/102/102
f 106/106/106 105/105/105 104/104/104
f 106/106/106 104/104/104 107/107/107
f 106/106/106 108/108/108 105/105/105
f 106/106/106 107/107/107 108/108/108
f 111/111/111 110/110/110 109/109/109
f 109/109/109 110/110/110 112/112/112
f 113/113/113 110/110/110 111/111/111
f 112/112/112 110/110/110 113/113/113
