g Body
v -3.04306 21.52423 -2.384289
v 0 21.90444 -3.521808
v -1.347694E-07 22.98394 -1.882106
v 0 17.23622 -4.669426
v -3.881479 17.23622 -3.094306
v 0 14.06716 -5.246943
v -4.308489 14.06716 -3.540444
v 0 11.87436 -4.768474
v -3.95384 11.87436 -3.051816
v -0.007542798 9.699533 -6.192165
v -4.746094 9.535693 -4.162237
v -0.06149716 8.469688 -6.826289
v -5.265775 11.87436 0.3942764
v -5.738101 14.06716 0.3677687
v -5.155798 7.742882 -4.896245
v -0.08440384 6.775489 -7.235265
v -4.906373 17.23622 0.3942764
v -3.717402 14.06716 4.908924
v -6.314349 9.206041 -0.07792346
v -4.112377 6.006241 -5.928749
v -0.04348646 4.648336 -6.97905
v -3.411409 11.87436 4.482661
v -6.81305 6.268721 -0.9815999
v -1.772598 4.2254 -6.557956
v -0.003808531 2.944758 -7.340849
v -5.40388 4.408487 -3.215062
v -4.085049 8.814562 4.77245
v -2.324234 3.321975 -5.658461
v -4.367488 4.512011 3.683358
v -1.475664 2.222154 -4.563421
v 0.03890301 1.804424 -4.147506
v 0.08341905 1.77219 1.262533
v -3.438138 2.48538 0.05121963
v 0.06187143 3.874521 5.376217
v 0.007575353 8.673583 6.519153
v 0 11.87436 5.951692
v 0 14.06716 6.430161
v 0 17.23622 5.852644
v -3.348974 17.23622 4.421381
v 0 21.90444 4.705026
v -4.052785 21.52423 0.3942764
v -2.625579 21.75965 3.711364
v -1.673365 22.75927 -1.48281
v -2.392739 22.90154 0.3942766
v -1.347694E-07 23.28554 0.3942751
v -1.347694E-07 22.98394 2.819639
v -1.673363 22.92681 2.428503
v 0 21.90444 -3.521808
v 1.673365 22.92681 -1.48281
v -1.347694E-07 22.98394 -1.882106
v -1.347694E-07 23.28554 0.3942751
v 2.392739 22.90154 0.3942764
v -1.347694E-07 22.98394 2.819639
v 3.04306 21.75965 -2.384289
v 3.881479 17.23622 -3.094306
v 0 17.23622 -4.669426
v 4.308489 14.06716 -3.540444
v 0 14.06716 -5.246943
v 3.95384 11.87436 -3.155586
v 0 11.87436 -4.768474
v 4.735703 9.544725 -4.274121
v -0.007542798 9.699533 -6.192165
v 5.071122 7.769295 -4.966392
v -0.06149716 8.469688 -6.826289
v 3.995694 5.990777 -5.902472
v -0.08440384 6.775489 -7.235265
v 1.711215 4.187987 -6.5207
v -0.04348646 4.648336 -6.97905
v -0.003808531 2.944758 -7.340849
v 2.316617 3.235483 -5.572339
v 5.396717 4.32339 -3.070516
v 1.53089 2.166121 -4.507627
v 0.03890301 1.804424 -4.147506
v 3.558981 2.430249 0.1448651
v 0.08341905 1.77219 1.262533
v 6.808881 6.244659 -0.9177099
v 4.45742 4.496422 3.72475
v 0.06187143 3.874521 5.376217
v 6.313824 9.204844 -0.06305972
v 4.096056 8.813786 4.782079
v 0.007575353 8.673583 6.519153
v 5.265775 11.87436 0.3942764
v 3.411409 11.87436 4.482661
v 0 11.87436 5.951692
v 5.738101 14.06716 0.3677687
v 3.717402 14.06716 4.908924
v 0 14.06716 6.430161
v 4.906373 17.23622 0.3942764
v 3.348975 17.23622 4.421381
v 0 17.23622 5.852644
v 0 21.90444 4.705026
v 4.052785 21.75965 0.3942764
v 2.625579 21.75965 3.711364
v 1.673363 22.92681 2.428503
vt 0.1739747 0.8781137
vt 0.1175179 0.9177239
vt 0.1667157 0.9513078
vt 0.06005797 0.8108001
vt 0.155714 0.7854886
vt 0.05174169 0.7214269
vt 0.1492762 0.7109329
vt 0.04346162 0.6624002
vt 0.1489603 0.6602128
vt 0.02792728 0.591424
vt 0.1432241 0.5992624
vt 0.02747813 0.5216732
vt 0.2470171 0.664412
vt 0.2437204 0.7104459
vt 0.1448188 0.5386699
vt 0.04258031 0.4723128
vt 0.2401726 0.7823616
vt 0.3536636 0.7228019
vt 0.2425751 0.6048567
vt 0.1318579 0.4864813
vt 0.07255983 0.4154857
vt 0.3596739 0.6721076
vt 0.2352404 0.5411402
vt 0.1139549 0.425475
vt 0.0983088 0.3727068
vt 0.2014039 0.4762114
vt 0.3616593 0.6008446
vt 0.1491044 0.416271
vt 0.345896 0.5233175
vt 0.1812613 0.3851653
vt 0.1939731 0.3480336
vt 0.337083 0.3751122
vt 0.2798016 0.4349126
vt 0.4435125 0.4897548
vt 0.460021 0.593071
vt 0.4465305 0.6797295
vt 0.4357787 0.7374877
vt 0.420473 0.8247653
vt 0.3347185 0.803564
vt 0.3576768 0.9274379
vt 0.2363597 0.8700134
vt 0.3106729 0.8886011
vt 0.1875585 0.9197456
vt 0.233775 0.9150871
vt 0.2307316 0.968788
vt 0.3007125 0.9582604
vt 0.2826078 0.9256187
vt 0.1175179 0.9177239
vt 0.1875585 0.9197456
vt 0.1667157 0.9513078
vt 0.2307316 0.968788
vt 0.233775 0.9150871
vt 0.3007125 0.9582605
vt 0.1739747 0.8781137
vt 0.155714 0.7854886
vt 0.06005797 0.8108001
vt 0.1492762 0.7109329
vt 0.05174169 0.7214269
vt 0.1489603 0.6602128
vt 0.04346162 0.6624002
vt 0.1432241 0.5992624
vt 0.02792728 0.591424
vt 0.1448188 0.5386699
vt 0.02747813 0.5216732
vt 0.1318579 0.4864813
vt 0.04258031 0.4723128
vt 0.1139549 0.425475
vt 0.07255983 0.4154857
vt 0.0983088 0.3727068
vt 0.1491044 0.416271
vt 0.2014039 0.4762114
vt 0.1812613 0.3851653
vt 0.1939731 0.3480336
vt 0.2798016 0.4349126
vt 0.337083 0.3751122
vt 0.2352404 0.5411402
vt 0.345896 0.5233175
vt 0.4435125 0.4897548
vt 0.2425751 0.6048567
vt 0.3616593 0.6008446
vt 0.460021 0.593071
vt 0.2470171 0.664412
vt 0.3596739 0.6721076
vt 0.4465305 0.6797295
vt 0.2437204 0.7104459
vt 0.3536636 0.7228019
vt 0.4357787 0.7374877
vt 0.2401726 0.7823616
vt 0.3347185 0.803564
vt 0.420473 0.8247654
vt 0.3576768 0.9274379
vt 0.2363597 0.8700134
vt 0.3106729 0.8886011
vt 0.2826078 0.9256187
vn -0.659229 0.3513093 -0.6648299
vn 0.001646861 0.354048 -0.9352258
vn -0.0271234 0.9184731 -0.3945522
vn 0.0008195202 0.2113969 -0.9774
vn -0.6910493 0.222354 -0.6877569
vn -0.00256865 0.01252612 -0.9999182
vn -0.7001926 0.0236505 -0.7135621
vn -0.01033748 0.2255563 -0.9741753
vn -0.7115341 0.1909837 -0.6761987
vn -0.007150617 0.4964042 -0.868062
vn -0.6828119 0.4329742 -0.5884737
vn -0.009289623 0.3593448 -0.9331586
vn -0.9870347 0.1088488 0.1179588
vn -0.9971083 0.03748546 0.06610469
vn -0.762798 0.1855073 -0.6194565
vn -0.002700492 0.1433037 -0.9896751
vn -0.9744125 0.2135611 0.07008475
vn -0.7259921 0.02996813 0.6870497
vn -0.9669276 0.188155 0.1721879
vn -0.6068162 -0.08392582 -0.790399
vn 0.009530023 -0.03282378 -0.9994158
vn -0.7091553 0.04222379 0.703787
vn -0.9679686 -0.2268814 0.1075246
vn -0.4472981 -0.2474089 -0.8594843
vn 0.0007264029 -0.6020803 -0.7984353
vn -0.7744328 -0.5932353 -0.2198309
vn -0.6790685 0.002246623 0.7340715
vn -0.5756794 -0.6984079 -0.4252288
vn -0.6498416 -0.4676754 0.5991541
vn -0.3747247 -0.9137061 -0.1572342
vn -0.01237818 -0.9983647 -0.05580932
vn -0.007819662 -0.9566143 0.2912522
vn -0.4995853 -0.8539535 0.1455265
vn -0.003958454 -0.5693417 0.8220915
vn -0.003653347 -0.07531035 0.9971534
vn -0.0007043417 0.01544208 0.9998806
vn 0 0.01731406 0.9998502
vn 0 0.2096586 0.9777747
vn -0.7201107 0.2104758 0.661166
vn 0 0.3696122 0.9291862
vn -0.9383714 0.3401172 0.06147629
vn -0.6831023 0.3492999 0.6413741
vn -0.3551224 0.8736779 -0.3325281
vn -0.4649193 0.8853013 -0.009577883
vn -0.01106344 0.9998716 -0.01159478
vn 0 0.9381924 0.3461142
vn -0.3543021 0.8939742 0.2743723
vn 0.001646861 0.354048 -0.9352258
vn 0.3027682 0.9008447 -0.3111437
vn -0.0271234 0.9184731 -0.3945522
vn -0.01106344 0.9998716 -0.01159478
vn 0.424845 0.9051325 0.01555037
vn 0 0.9381924 0.3461142
vn 0.6622958 0.3491034 -0.6629412
vn 0.6924422 0.2183959 -0.6876242
vn 0.0008195202 0.2113969 -0.9774
vn 0.7026294 0.02962614 -0.7109389
vn -0.00256865 0.01252612 -0.9999182
vn 0.7085561 0.2003774 -0.676607
vn -0.01033748 0.2255563 -0.9741753
vn 0.6869774 0.4218066 -0.5917273
vn -0.007150617 0.4964042 -0.868062
vn 0.7601903 0.162154 -0.6291397
vn -0.009289623 0.3593448 -0.9331586
vn 0.6055822 -0.09829786 -0.7896883
vn -0.002700492 0.1433037 -0.9896751
vn 0.4585354 -0.2399078 -0.8556808
vn 0.009530023 -0.03282378 -0.9994158
vn 0.0007264029 -0.6020803 -0.7984353
vn 0.5843056 -0.6813043 -0.440921
vn 0.7810118 -0.5799265 -0.2317453
vn 0.3680568 -0.9159456 -0.1599305
vn -0.01237818 -0.9983647 -0.05580932
vn 0.5022387 -0.8515747 0.1502565
vn -0.007819662 -0.9566143 0.2912522
vn 0.9728809 -0.2100399 0.0968812
vn 0.6535951 -0.4544996 0.6051807
vn -0.003958454 -0.5693417 0.8220915
vn 0.9672071 0.1940642 0.1638576
vn 0.6780649 0.01165801 0.7349095
vn -0.003653347 -0.07531035 0.9971534
vn 0.9868738 0.1121436 0.1162065
vn 0.7090333 0.04428197 0.7037833
vn -0.0007043417 0.01544208 0.9998806
vn 0.9970794 0.03855871 0.06592416
vn 0.7259921 0.0299681 0.6870497
vn 0 0.01731406 0.9998502
vn 0.9753239 0.2096262 0.06928188
vn 0.7211267 0.2088428 0.6605762
vn 0 0.2096586 0.9777747
vn 0 0.3696122 0.9291862
vn 0.9391963 0.3376735 0.06234304
vn 0.6863511 0.3425776 0.6415315
vn 0.3291692 0.9021512 0.278874
g Body_0
f 3/3/3 2/2/2 1/1/1
f 1/1/1 2/2/2 4/4/4
f 5/5/5 1/1/1 4/4/4
f 5/5/5 4/4/4 6/6/6
f 7/7/7 5/5/5 6/6/6
f 6/6/6 8/8/8 7/7/7
f 8/8/8 9/9/9 7/7/7
f 8/8/8 10/10/10 9/9/9
f 10/10/10 11/11/11 9/9/9
f 10/10/10 12/12/12 11/11/11
f 7/7/7 9/9/9 13/13/13
f 9/9/9 11/11/11 13/13/13
f 5/5/5 7/7/7 14/14/14
f 14/14/14 7/7/7 13/13/13
f 12/12/12 15/15/15 11/11/11
f 12/12/12 16/16/16 15/15/15
f 17/17/17 5/5/5 14/14/14
f 1/1/1 5/5/5 17/17/17
f 14/14/14 13/13/13 18/18/18
f 17/17/17 14/14/14 18/18/18
f 11/11/11 19/19/19 13/13/13
f 11/11/11 15/15/15 19/19/19
f 16/16/16 20/20/20 15/15/15
f 16/16/16 21/21/21 20/20/20
f 13/13/13 22/22/22 18/18/18
f 13/13/13 19/19/19 22/22/22
f 15/15/15 23/23/23 19/19/19
f 15/15/15 20/20/20 23/23/23
f 21/21/21 24/24/24 20/20/20
f 24/24/24 21/21/21 25/25/25
f 20/20/20 24/24/24 26/26/26
f 20/20/20 26/26/26 23/23/23
f 19/19/19 23/23/23 27/27/27
f 19/19/19 27/27/27 22/22/22
f 28/28/28 24/24/24 25/25/25
f 24/24/24 28/28/28 26/26/26
f 23/23/23 26/26/26 29/29/29
f 23/23/23 29/29/29 27/27/27
f 30/30/30 28/28/28 25/25/25
f 30/30/30 25/25/25 31/31/31
f 30/30/30 31/31/31 32/32/32
f 26/26/26 28/28/28 33/33/33
f 28/28/28 30/30/30 33/33/33
f 33/33/33 30/30/30 32/32/32
f 26/26/26 33/33/33 29/29/29
f 33/33/33 32/32/32 34/34/34
f 29/29/29 33/33/33 34/34/34
f 29/29/29 34/34/34 35/35/35
f 27/27/27 29/29/29 35/35/35
f 27/27/27 35/35/35 36/36/36
f 22/22/22 27/27/27 36/36/36
f 22/22/22 36/36/36 37/37/37
f 18/18/18 22/22/22 37/37/37
f 37/37/37 38/38/38 18/18/18
f 38/38/38 39/39/39 18/18/18
f 39/39/39 17/17/17 18/18/18
f 38/38/38 40/40/40 39/39/39
f 41/41/41 17/17/17 39/39/39
f 41/41/41 1/1/1 17/17/17
f 40/40/40 42/42/42 39/39/39
f 42/42/42 41/41/41 39/39/39
f 43/43/43 1/1/1 41/41/41
f 43/43/43 3/3/3 1/1/1
f 44/44/44 43/43/43 41/41/41
f 3/3/3 43/43/43 44/44/44
f 44/44/44 41/41/41 42/42/42
f 45/45/45 3/3/3 44/44/44
f 45/45/45 44/44/44 46/46/46
f 40/40/40 46/46/46 47/47/47
f 42/42/42 40/40/40 47/47/47
f 47/47/47 44/44/44 42/42/42
f 44/44/44 47/47/47 46/46/46
f 50/50/50 49/49/49 48/48/48
f 49/49/49 50/50/50 51/51/51
f 52/52/52 49/49/49 51/51/51
f 52/52/52 51/51/51 53/53/53
f 49/49/49 54/54/54 48/48/48
f 54/54/54 49/49/49 52/52/52
f 48/48/48 54/54/54 55/55/55
f 56/56/56 48/48/48 55/55/55
f 56/56/56 55/55/55 57/57/57
f 58/58/58 56/56/56 57/57/57
f 57/57/57 59/59/59 58/58/58
f 59/59/59 60/60/60 58/58/58
f 59/59/59 61/61/61 60/60/60
f 61/61/61 62/62/62 60/60/60
f 61/61/61 63/63/63 62/62/62
f 63/63/63 64/64/64 62/62/62
f 63/63/63 65/65/65 64/64/64
f 65/65/65 66/66/66 64/64/64
f 65/65/65 67/67/67 66/66/66
f 67/67/67 68/68/68 66/66/66
f 69/69/69 68/68/68 67/67/67
f 70/70/70 67/67/67 65/65/65
f 69/69/69 67/67/67 70/70/70
f 71/71/71 65/65/65 63/63/63
f 71/71/71 70/70/70 65/65/65
f 69/69/69 70/70/70 72/72/72
f 72/72/72 70/70/70 71/71/71
f 69/69/69 72/72/72 73/73/73
f 73/73/73 72/72/72 74/74/74
f 74/74/74 72/72/72 71/71/71
f 75/75/75 73/73/73 74/74/74
f 76/76/76 71/71/71 63/63/63
f 76/76/76 63/63/63 61/61/61
f 74/74/74 71/71/71 76/76/76
f 75/75/75 74/74/74 77/77/77
f 77/77/77 74/74/74 76/76/76
f 78/78/78 75/75/75 77/77/77
f 79/79/79 76/76/76 61/61/61
f 77/77/77 76/76/76 79/79/79
f 79/79/79 61/61/61 59/59/59
f 78/78/78 77/77/77 80/80/80
f 80/80/80 77/77/77 79/79/79
f 81/81/81 78/78/78 80/80/80
f 82/82/82 79/79/79 59/59/59
f 80/80/80 79/79/79 82/82/82
f 82/82/82 59/59/59 57/57/57
f 81/81/81 80/80/80 83/83/83
f 83/83/83 80/80/80 82/82/82
f 84/84/84 81/81/81 83/83/83
f 85/85/85 82/82/82 57/57/57
f 83/83/83 82/82/82 85/85/85
f 85/85/85 57/57/57 55/55/55
f 84/84/84 83/83/83 86/86/86
f 86/86/86 83/83/83 85/85/85
f 87/87/87 84/84/84 86/86/86
f 88/88/88 85/85/85 55/55/55
f 86/86/86 85/85/85 88/88/88
f 88/88/88 55/55/55 54/54/54
f 87/87/87 86/86/86 89/89/89
f 89/89/89 86/86/86 88/88/88
f 90/90/90 87/87/87 89/89/89
f 90/90/90 89/89/89 91/91/91
f 92/92/92 88/88/88 54/54/54
f 89/89/89 88/88/88 92/92/92
f 92/92/92 54/54/54 52/52/52
f 89/89/89 93/93/93 91/91/91
f 93/93/93 89/89/89 92/92/92
f 91/91/91 93/93/93 53/53/53
f 92/92/92 52/52/52 94/94/94
f 94/94/94 52/52/52 53/53/53
f 93/93/93 92/92/92 94/94/94
f 93/93/93 94/94/94 53/53/53
