g Body
v -2.725077 2.953134 2.029512
v -2.725077 7.112942 -1.869598
v -2.725077 7.112942 2.029512
v -2.725077 2.953134 -1.869598
v -2.097374 2.412656 -1.869598
v -2.097374 2.412656 2.029512
v 2.10605 2.412656 2.029512
v 2.10605 2.412656 -1.869598
v 2.733753 2.953134 2.029512
v 2.733753 2.953134 -1.869598
v 2.733753 7.112942 -1.869598
v 2.733753 7.112942 2.029512
v 2.10605 2.412656 -1.869598
v 2.733753 2.953134 -1.869598
v 2.733753 7.112942 -1.869598
v -2.725077 7.112942 -1.869598
v -2.097374 2.412656 -1.869598
v -2.725077 2.953134 -1.869598
v -2.725077 7.112942 -1.869598
v 2.733753 7.112942 -1.869598
v 2.733753 7.112942 2.029512
v -2.725077 7.112942 2.029512
v -0.9352707 6.615371 1.224421
v -0.9352707 8.624584 1.224421
v 0.9352701 8.623291 1.224421
v 0.9352701 6.615371 1.224421
v -0.9352707 8.624584 -1.224421
v -0.9352707 6.615371 -1.224421
v 0.9352701 6.615371 -1.224421
v 0.9352701 8.623291 -1.224421
v 0.9352701 6.615371 1.224421
v 0.9352701 8.623291 1.224421
v 0.9352701 8.623291 -1.224421
v 0.9352701 6.615371 -1.224421
v -0.9352707 6.615371 -1.224421
v -0.9352707 8.624584 -1.224421
v -0.9352707 8.624584 1.224421
v -0.9352707 6.615371 1.224421
v -2.097374 2.412656 2.029512
v -2.725077 2.953134 2.029512
v -1.370883 3.995009 2.302568
v -2.725077 7.112942 2.029512
v -0.7742705 4.090526 2.302568
v 0.004338059 4.090526 2.302568
v 2.10605 2.412656 2.029512
v 0.7829467 4.090526 2.302568
v 2.733753 2.953134 2.029512
v 1.379559 3.995009 2.302568
v 2.733753 7.112942 2.029512
v 0.004338047 4.168948 1.785225
v 0.6978936 4.168948 1.785225
v -0.6892174 4.168948 1.785225
v 1.229334 4.083865 1.785225
v 1.525186 5.420881 1.785225
v 0.004338047 5.532993 1.785225
v 1.711693 5.495987 2.302568
v 0.7647622 5.532993 1.785225
v 0.8580156 5.621849 2.302568
v 0.004338059 5.621849 2.302568
v -0.7560861 5.532994 1.785225
v -0.8493395 5.62185 2.302568
v -1.51651 5.420881 1.785225
v -1.703017 5.495987 2.302568
v -1.220657 4.083865 1.785225
vt 0.3232775 0.9895659
vt 0.1659605 0.8421163
vt 0.1659646 0.9895703
vt 0.3232733 0.8421119
vt 0.3538402 0.8421111
vt 0.3538443 0.989565
vt 0.506043 0.9895607
vt 0.5060388 0.8421067
vt 0.5366098 0.9895599
vt 0.5366057 0.8421059
vt 0.6939186 0.8421015
vt 0.6939228 0.9895554
vt 0.009430557 0.9731044
vt 0.02222146 0.9873274
vt 0.1206667 0.9873273
vt 0.1206665 0.8636364
vt 0.009430408 0.8778596
vt 0.02222127 0.8636366
vt 0.8314879 0.7122546
vt 0.8314934 0.5974565
vt 0.7458519 0.5974523
vt 0.7458464 0.7122505
vt 0.6110822 0.390051
vt 0.6620143 0.3900542
vt 0.7076699 0.4325555
vt 0.6110796 0.4325495
vt 0.6622406 0.3901002
vt 0.6113085 0.3901461
vt 0.6113467 0.4326445
vt 0.7079371 0.4325576
vt 0.7317079 0.7188916
vt 0.731715 0.6197946
vt 0.6851384 0.6197912
vt 0.685131 0.7188882
vt 0.5962886 0.4957522
vt 0.6516812 0.4956764
vt 0.6516135 0.4463018
vt 0.596221 0.4463778
vt 0.735889 0.7289222
vt 0.7075968 0.7600049
vt 0.7760482 0.812544
vt 0.7083896 0.9875908
vt 0.8075707 0.8104084
vt 0.8457813 0.8071153
vt 0.9556887 0.7289445
vt 0.8839949 0.8104155
vt 0.9839768 0.7600239
vt 0.9155174 0.8125578
vt 0.9831503 0.9876119
vt 0.8457807 0.8308153
vt 0.8748016 0.8316038
vt 0.8167597 0.8315984
vt 0.8969367 0.8305243
vt 0.909378 0.8865121
vt 0.8457767 0.8929864
vt 0.9305879 0.8987777
vt 0.8785169 0.89252
vt 0.887815 0.9139963
vt 0.8457737 0.9162174
vt 0.8130373 0.8925137
vt 0.8037342 0.9139888
vt 0.7821779 0.8864999
vt 0.7609661 0.8987603
vt 0.7946251 0.8305148
vn -0.9788609 -0.1361573 0.1526192
vn -0.440276 0.577765 -0.6872733
vn -0.6050569 0.7896986 0.1014016
vn -0.445226 -0.05945798 -0.893442
vn -0.04841932 -0.4328012 -0.9001881
vn -0.1106744 -0.9840834 0.139036
vn 0.1106745 -0.9840834 0.139036
vn 0.04841933 -0.4328012 -0.9001881
vn 0.9788609 -0.1361573 0.1526192
vn 0.4452261 -0.05945801 -0.8934419
vn 0.440276 0.577765 -0.6872733
vn 0.6050569 0.7896986 0.1014016
vn 0.04841933 -0.4328012 -0.9001881
vn 0.4452261 -0.05945801 -0.8934419
vn 0.440276 0.577765 -0.6872733
vn -0.440276 0.577765 -0.6872733
vn -0.04841932 -0.4328012 -0.9001881
vn -0.445226 -0.05945798 -0.893442
vn -0.440276 0.577765 -0.6872733
vn 0.440276 0.577765 -0.6872733
vn 0.6050569 0.7896986 0.1014016
vn -0.6050569 0.7896986 0.1014016
vn -0.7947813 0 0.6068959
vn -0.7949101 0 0.6067272
vn 0.7944639 0 0.6073113
vn 0.7945929 0 0.6071426
vn -0.7949101 0 -0.6067272
vn -0.7947813 0 -0.6068959
vn 0.7945929 0 -0.6071426
vn 0.7944639 0 -0.6073113
vn 0.7945929 0 0.6071426
vn 0.7944639 0 0.6073113
vn 0.7944639 0 -0.6073113
vn 0.7945929 0 -0.6071426
vn -0.7947813 0 -0.6068959
vn -0.7949101 0 -0.6067272
vn -0.7949101 0 0.6067272
vn -0.7947813 0 0.6068959
vn -0.1106744 -0.9840834 0.139036
vn -0.9788609 -0.1361573 0.1526192
vn -0.06845987 0.007989923 0.9976218
vn -0.6050569 0.7896986 0.1014016
vn -0.05003208 0.2685799 0.9619572
vn 0 0.004004375 0.999992
vn 0.1106745 -0.9840834 0.139036
vn 0.0500321 0.26858 0.9619572
vn 0.9788609 -0.1361573 0.1526192
vn 0.06845993 0.007989915 0.9976218
vn 0.6050569 0.7896986 0.1014016
vn 0 0.3411233 0.9400185
vn 0.01894037 0.3109566 0.9502353
vn -0.0189403 0.3109564 0.9502354
vn -0.4786668 0.3437547 0.8079052
vn -0.5822884 -0.2049087 0.7867354
vn -2.778234E-07 -0.3654806 0.9308189
vn 0.09809274 -0.01753367 0.9950228
vn -0.02621263 -0.3962454 0.9177704
vn -0.03527658 -0.3529162 0.9349897
vn 0 0.04111972 0.9991542
vn 0.02621262 -0.3962457 0.9177703
vn 0.03527671 -0.3529166 0.9349895
vn 0.5822885 -0.2049085 0.7867354
vn -0.09809268 -0.01753372 0.9950228
vn 0.4786665 0.3437544 0.8079055
g Body_0
f 3/3/3 2/2/2 1/1/1
f 2/2/2 4/4/4 1/1/1
f 4/4/4 5/5/5 1/1/1
f 5/5/5 6/6/6 1/1/1
f 6/6/6 5/5/5 7/7/7
f 5/5/5 8/8/8 7/7/7
f 7/7/7 8/8/8 9/9/9
f 8/8/8 10/10/10 9/9/9
f 10/10/10 11/11/11 9/9/9
f 11/11/11 12/12/12 9/9/9
f 15/15/15 14/14/14 13/13/13
f 13/13/13 16/16/16 15/15/15
f 13/13/13 17/17/17 16/16/16
f 17/17/17 18/18/18 16/16/16
f 21/21/21 20/20/20 19/19/19
f 22/22/22 21/21/21 19/19/19
f 25/25/25 24/24/24 23/23/23
f 26/26/26 25/25/25 23/23/23
f 29/29/29 28/28/28 27/27/27
f 30/30/30 29/29/29 27/27/27
f 33/33/33 32/32/32 31/31/31
f 34/34/34 33/33/33 31/31/31
f 37/37/37 36/36/36 35/35/35
f 38/38/38 37/37/37 35/35/35
f 41/41/41 40/40/40 39/39/39
f 40/40/40 41/41/41 42/42/42
f 43/43/43 41/41/41 39/39/39
f 44/44/44 43/43/43 39/39/39
f 44/44/44 39/39/39 45/45/45
f 44/44/44 45/45/45 46/46/46
f 45/45/45 47/47/47 46/46/46
f 47/47/47 48/48/48 46/46/46
f 48/48/48 47/47/47 49/49/49
f 44/44/44 50/50/50 43/43/43
f 46/46/46 51/51/51 44/44/44
f 51/51/51 50/50/50 44/44/44
f 50/50/50 52/52/52 43/43/43
f 43/43/43 52/52/52 41/41/41
f 48/48/48 53/53/53 46/46/46
f 53/53/53 51/51/51 46/46/46
f 54/54/54 53/53/53 48/48/48
f 51/51/51 53/53/53 54/54/54
f 55/55/55 50/50/50 51/51/51
f 50/50/50 55/55/55 52/52/52
f 56/56/56 54/54/54 48/48/48
f 56/56/56 48/48/48 49/49/49
f 57/57/57 51/51/51 54/54/54
f 57/57/57 54/54/54 56/56/56
f 57/57/57 55/55/55 51/51/51
f 58/58/58 57/57/57 56/56/56
f 58/58/58 56/56/56 49/49/49
f 55/55/55 57/57/57 58/58/58
f 59/59/59 58/58/58 49/49/49
f 59/59/59 55/55/55 58/58/58
f 42/42/42 59/59/59 49/49/49
f 60/60/60 55/55/55 59/59/59
f 55/55/55 60/60/60 52/52/52
f 42/42/42 61/61/61 59/59/59
f 61/61/61 60/60/60 59/59/59
f 52/52/52 60/60/60 62/62/62
f 62/62/62 60/60/60 61/61/61
f 42/42/42 63/63/63 61/61/61
f 63/63/63 62/62/62 61/61/61
f 41/41/41 63/63/63 42/42/42
f 64/64/64 52/52/52 62/62/62
f 64/64/64 62/62/62 63/63/63
f 41/41/41 64/64/64 63/63/63
f 52/52/52 64/64/64 41/41/41
