g BodyOddyOddy
v -0.7888873 2.14763E-08 3.823725
v -0.7888876 2.14763E-08 3.103105
v -1.519421 2.14763E-08 3.103105
v -1.519421 2.14763E-08 3.823725
v -0.7174916 2.415305 3.728036
v -1.738881 2.415311 3.689451
v -1.519421 2.14763E-08 3.103105
v -0.7012799 2.415303 2.516336
v -0.7888876 2.14763E-08 3.103105
v -0.6996427 3.019131 3.704113
v -0.679378 3.019129 2.369644
v -1.793746 3.019138 3.655883
v -1.549347 3.019136 2.321419
v -1.543362 2.415309 2.477756
v -0.7888876 2.14763E-08 3.103105
v -0.679378 3.019129 2.369644
v -0.7012799 2.415303 2.516336
v -2.140327 -0.01393672 -2.221231
v -0.9454564 -0.01512705 -1.715545
v -1.342929 -0.02346784 -2.54219
v -1.831351 -0.005595929 -1.389681
v -0.7973068 2.419554 -1.785357
v -1.833066 2.243816 -1.282495
v -2.140327 -0.01393672 -2.221231
v -1.833495 2.80617 -1.255698
v -0.7602694 3.028225 -1.80281
v -2.200507 3.014271 -2.410302
v -2.188472 2.40863 -2.372489
v -1.342929 -0.02346784 -2.54219
v -1.226318 3.221626 -2.928175
v -1.24964 2.572607 -2.850979
v -0.9454564 -0.01512705 -1.715545
v -0.7602694 3.028225 -1.80281
v -0.7973068 2.419554 -1.785357
v -0.9093639 3.769717 -1.431167
v -1.226318 3.221626 -2.928175
v -0.7602694 3.028225 -1.80281
v -1.457979 4.143096 -2.466286
v -1.021151 4.315916 -1.478214
v -2.200507 3.014271 -2.410302
v -1.291415 5.203749 -2.786821
v -2.566558 3.924401 -1.889118
v -1.833495 2.80617 -1.255698
v -2.28547 3.926284 -0.1961982
v -0.7602694 3.028225 -1.80281
v -0.9093639 3.769717 -1.431167
v -1.021151 4.315916 -1.478214
v -2.735108 5.553172 -1.897026
v -1.689113 4.416205 -0.2961407
v -0.8445565 3.854441 0.5950961
v -2.124772 5.553172 -0.002766275
v -1.939098 4.299591 2.393858
v -0.8905559 3.939027 2.197955
v -2.313078 5.27535 2.056653
v -1.549347 3.019136 2.321419
v -0.679378 3.019129 2.369644
v -2.178822 4.030238 3.954541
v -1.793746 3.019138 3.655883
v -0.6731901 4.04336 4.08427
v -0.6996427 3.019131 3.704113
v -0.8905559 3.939027 2.197955
v -0.679378 3.019129 2.369644
v -2.302103 5.261946 4.138056
v 0 5.348926 4.729138
v 0 7.707217 4.621612
v -1.468774 7.265252 2.008224
v -1.393833 7.315197 3.565551
v 0 7.767285 3.582421
v 0 7.496011 2.008224
v 0 7.578642 -0.3730695
v -1.406156 7.261318 -0.3730695
v 0 7.74216 -1.658775
v -1.741583 7.45589 -1.658775
v 0 6.827394 -2.780195
v -0.4425916 6.64818 -2.780195
v 0 6.176537 -2.883427
v 0.7888873 2.14763E-08 3.823725
v 1.519421 2.14763E-08 3.103105
v 0.7888876 2.14763E-08 3.103105
v 1.519421 2.14763E-08 3.823725
v 1.738881 2.415311 3.689451
v 0.7174916 2.415305 3.728036
v 0.7888876 2.14763E-08 3.103105
v 0.7012799 2.415303 2.516336
v 0.6996427 3.019131 3.704113
v 0.679378 3.019129 2.369644
v 1.793746 3.019138 3.655883
v 1.549347 3.019136 2.321419
v 1.543362 2.415309 2.477756
v 0.679378 3.019129 2.369644
v 1.519421 2.14763E-08 3.103105
v 0.7012799 2.415303 2.516336
v 0.7888876 2.14763E-08 3.103105
v -0.6731901 4.04336 4.08427
v 0 5.348926 4.729138
v 0.6731901 4.04336 4.08427
v -0.8905559 3.939027 2.197955
v 0.8905559 3.939027 2.197955
v 0.8445565 3.854441 0.5950961
v -0.8445565 3.854441 0.5950961
v 1.021151 4.315916 -1.478214
v -1.021151 4.315916 -1.478214
v 1.291415 5.203749 -2.786821
v -1.291415 5.203749 -2.786821
v 0 6.176537 -2.883427
v 2.140326 -0.01393689 -2.221231
v 1.342928 -0.02346799 -2.542189
v 0.9454564 -0.01512719 -1.715545
v 1.831351 -0.005596098 -1.389681
v 1.833067 2.243816 -1.282495
v 0.7973067 2.419554 -1.785357
v 1.833496 2.80617 -1.255698
v 0.7602693 3.028225 -1.802809
v 2.200506 3.014271 -2.410302
v 2.18847 2.40863 -2.372488
v 2.140326 -0.01393689 -2.221231
v 1.226318 3.221626 -2.928175
v 1.24964 2.572607 -2.850977
v 0.7602693 3.028225 -1.802809
v 1.342928 -0.02346799 -2.542189
v 0.7973067 2.419554 -1.785357
v 0.9454564 -0.01512719 -1.715545
v 0.9093639 3.769717 -1.431167
v 0.7602693 3.028225 -1.802809
v 1.226318 3.221626 -2.928175
v 1.457979 4.143096 -2.466286
v 1.021151 4.315916 -1.478214
v 2.200506 3.014271 -2.410302
v 1.291415 5.203749 -2.786821
v 2.566558 3.924401 -1.889118
v 1.833496 2.80617 -1.255698
v 2.28547 3.926284 -0.1961982
v 0.7602693 3.028225 -1.802809
v 0.9093639 3.769717 -1.431167
v 1.021151 4.315916 -1.478214
v 2.735108 5.553172 -1.897026
v 1.689113 4.416205 -0.2961407
v 0.8445565 3.854441 0.5950961
v 2.124772 5.553172 -0.002766275
v 1.939098 4.299591 2.393858
v 0.8905559 3.939027 2.197955
v 2.313078 5.27535 2.056653
v 1.549347 3.019136 2.321419
v 0.679378 3.019129 2.369644
v 2.178822 4.030238 3.954541
v 1.793746 3.019138 3.655883
v 0.6731901 4.04336 4.08427
v 0.6996427 3.019131 3.704113
v 0.8905559 3.939027 2.197955
v 0.679378 3.019129 2.369644
v 2.302103 5.261946 4.138056
v 0 5.348926 4.729138
v 0 7.707217 4.621612
v 1.468774 7.265252 2.008224
v 1.393833 7.315197 3.565551
v 0 7.767285 3.582421
v 0 7.496011 2.008224
v 0 7.578642 -0.3730695
v 1.406156 7.261318 -0.3730695
v 0 7.74216 -1.658775
v 1.741583 7.45589 -1.658775
v 0 6.827394 -2.780195
v 0.4425916 6.64818 -2.780195
v 0 6.176537 -2.883427
v -0.4425916 6.64818 -2.780195
v 0 8.218983 -5.230055
v 0 6.827394 -2.780195
v -1.673176 7.684227 -5.217467
v 0 6.176537 -2.883427
v 0 7.502221 -7.655627
v -1.770728 5.090938 -5.50078
v 0 4.250167 -5.48099
v -1.442469 7.073671 -7.859872
v 0 7.454213 -10.47213
v -1.526571 5.403042 -8.656082
v 0 4.729253 -8.977206
v 0 6.827394 -2.780195
v 0 8.218983 -5.230055
v 1.673176 7.684227 -5.217467
v 0.4425916 6.64818 -2.780195
v 1.442469 7.073671 -7.859872
v 0 7.502221 -7.655627
v 0 7.454213 -10.47213
v 1.526571 5.403042 -8.656082
v 0 4.729253 -8.977206
v 1.770728 5.090938 -5.50078
v 0 6.176537 -2.883427
v 0 4.250167 -5.48099
vt 0.9663696 0.4773812
vt 0.9663696 0.4330523
vt 0.9551882 0.4330523
vt 0.9551882 0.4773812
vt 0.9663696 0.6122363
vt 0.9551882 0.6122361
vt 0.9449332 0.477381
vt 0.9778734 0.6122363
vt 0.9778734 0.4773812
vt 0.9663696 0.64595
vt 0.9778734 0.64595
vt 0.9551882 0.6459498
vt 0.9449331 0.6459498
vt 0.9449332 0.6122361
vt 0.9332556 0.477381
vt 0.9332556 0.6459498
vt 0.9332556 0.6122361
vt 0.936956 0.1622869
vt 0.9281801 0.2067519
vt 0.9281802 0.1622869
vt 0.9369557 0.2067519
vt 0.9281802 0.3399136
vt 0.936956 0.3399136
vt 0.9455365 0.2067519
vt 0.936956 0.373204
vt 0.9281801 0.373204
vt 0.9455365 0.3732041
vt 0.9455365 0.3399137
vt 0.9549322 0.2067519
vt 0.9549322 0.3732041
vt 0.9549322 0.3399137
vt 0.9651407 0.2067519
vt 0.9651407 0.3732041
vt 0.9651407 0.3399137
vt 0.9385175 0.749713
vt 0.8987002 0.7136906
vt 0.9337124 0.7286733
vt 0.8879951 0.7499371
vt 0.9356269 0.7721322
vt 0.8661451 0.7097188
vt 0.8876022 0.8214738
vt 0.835439 0.7292046
vt 0.8214927 0.6817575
vt 0.7584658 0.7117398
vt 0.8203077 0.6361821
vt 0.7959847 0.6488418
vt 0.7713863 0.6377004
vt 0.8061224 0.7951392
vt 0.7290649 0.6983144
vt 0.6677129 0.6548069
vt 0.7076927 0.7717722
vt 0.5732889 0.7113143
vt 0.585659 0.6543177
vt 0.6000609 0.7630205
vt 0.548557 0.6688097
vt 0.5700458 0.6318933
vt 0.4914201 0.7284126
vt 0.4829215 0.697987
vt 0.4144826 0.7345229
vt 0.4191485 0.6994208
vt 0.3449305 0.6669636
vt 0.3684128 0.6535633
vt 0.5019116 0.779919
vt 0.3866677 0.8213598
vt 0.4537458 0.9368113
vt 0.6075981 0.8772202
vt 0.491403 0.8808169
vt 0.5131075 0.9552266
vt 0.6004107 0.9543781
vt 0.7184384 0.9557613
vt 0.7200693 0.8797193
vt 0.7843952 0.9627485
vt 0.7799169 0.8817433
vt 0.8604941 0.9417088
vt 0.8559008 0.9190366
vt 0.8961391 0.9117257
vt 0.9663696 0.4773812
vt 0.9551882 0.4330523
vt 0.9663696 0.4330523
vt 0.9551882 0.4773812
vt 0.9551882 0.6122361
vt 0.9663696 0.6122363
vt 0.9778734 0.4773812
vt 0.9778734 0.6122363
vt 0.9663696 0.64595
vt 0.9778734 0.64595
vt 0.9551882 0.6459498
vt 0.9449334 0.6459498
vt 0.9449334 0.6122361
vt 0.9332559 0.6459498
vt 0.9449332 0.477381
vt 0.9332559 0.6122361
vt 0.9332557 0.477381
vt 0.02799598 0.4396268
vt 0.03811391 0.513739
vt 0.04896408 0.440725
vt 0.02508582 0.344009
vt 0.05282427 0.3454619
vt 0.05251155 0.2643368
vt 0.0262058 0.2629592
vt 0.05579581 0.1571763
vt 0.02398962 0.1555105
vt 0.06040246 0.07750797
vt 0.02017819 0.0754013
vt 0.04053618 0.02706879
vt 0.936956 0.1622869
vt 0.9281801 0.1622869
vt 0.92818 0.2067518
vt 0.9369558 0.2067518
vt 0.9369561 0.3399136
vt 0.9281802 0.3399137
vt 0.9369562 0.373204
vt 0.9281802 0.3732041
vt 0.9455366 0.3732041
vt 0.9455366 0.3399137
vt 0.9455365 0.2067518
vt 0.9549322 0.3732041
vt 0.9549322 0.3399137
vt 0.9651407 0.3732041
vt 0.9549322 0.2067518
vt 0.9651407 0.3399137
vt 0.9651407 0.2067518
vt 0.9385084 0.7496833
vt 0.9336988 0.7286441
vt 0.8986827 0.7136682
vt 0.8879864 0.7499176
vt 0.935622 0.7721036
vt 0.8661283 0.7097039
vt 0.8876035 0.8214543
vt 0.8354284 0.7291965
vt 0.821475 0.6817538
vt 0.7584541 0.7117447
vt 0.8202842 0.6361801
vt 0.7959644 0.648845
vt 0.7713703 0.6377041
vt 0.8061197 0.7951339
vt 0.7290533 0.6983212
vt 0.6677055 0.6548167
vt 0.7076868 0.7717786
vt 0.5732843 0.7113271
vt 0.5856566 0.6543296
vt 0.6000557 0.7630332
vt 0.548555 0.668821
vt 0.5700458 0.6319047
vt 0.4914178 0.7284257
vt 0.4829208 0.6979994
vt 0.4144815 0.7345336
vt 0.4191494 0.6994316
vt 0.3449342 0.666969
vt 0.3684175 0.6535706
vt 0.5019079 0.7799339
vt 0.3866663 0.8213721
vt 0.4537472 0.9368286
vt 0.6075991 0.8772331
vt 0.4914026 0.8808341
vt 0.5131131 0.955244
vt 0.6004212 0.9543908
vt 0.718455 0.9557623
vt 0.7200749 0.8797211
vt 0.7844138 0.9627414
vt 0.779924 0.8817387
vt 0.8605109 0.9416917
vt 0.8559139 0.9190204
vt 0.8961518 0.9117038
vt 0.8612006 0.3800324
vt 0.8300346 0.5301036
vt 0.8804674 0.3880236
vt 0.7774835 0.4783651
vt 0.8425434 0.3416194
vt 0.7040709 0.5963452
vt 0.7025515 0.3999434
vt 0.6652872 0.3192375
vt 0.6699544 0.5334922
vt 0.5546737 0.6179343
vt 0.601327 0.4832954
vt 0.5330805 0.4541808
vt 0.8804449 0.3879794
vt 0.8300483 0.5300784
vt 0.7774859 0.4783497
vt 0.8611757 0.3799958
vt 0.6699722 0.5335049
vt 0.7041044 0.5963488
vt 0.5547211 0.6179851
vt 0.6013288 0.4833305
vt 0.5330724 0.454241
vt 0.7025307 0.3999474
vt 0.8425074 0.3415873
vt 0.6652411 0.3192535
vn 0.5617213 -0.5299647 0.6353003
vn 0.5299972 -0.7221814 -0.4444739
vn -0.5057643 -0.7109924 -0.4885615
vn -0.6075397 -0.5426446 0.5800281
vn 0.6958885 0.0690602 0.7148215
vn -0.7552767 0.05924686 0.6527228
vn -0.5057643 -0.7109924 -0.4885615
vn 0.7162936 -0.2384491 -0.6557938
vn 0.5299972 -0.7221814 -0.4444739
vn 0.7214528 -0.07498284 0.6883919
vn 0.6993301 0.01342543 -0.7146727
vn -0.7786751 -0.2640643 0.5691529
vn -0.6231183 -0.1479861 -0.7679998
vn -0.6476581 -0.2440114 -0.7218016
vn 0.5299972 -0.7221814 -0.4444739
vn 0.6993301 0.01342543 -0.7146727
vn 0.7162936 -0.2384491 -0.6557938
vn -0.7663489 -0.5916932 -0.2502172
vn 0.7104068 -0.6127645 0.3461819
vn 0.2429742 -0.7098811 -0.6610841
vn -0.3405192 -0.512584 0.7882286
vn 0.9312192 -0.05856453 0.3597234
vn -0.3955501 0.08250995 0.9147307
vn -0.7663489 -0.5916932 -0.2502172
vn -0.3389712 -0.3884801 0.8568441
vn 0.9480376 -0.0234072 0.317296
vn -0.9064696 -0.06890114 -0.4166118
vn -0.9230679 -0.05368805 -0.380872
vn 0.2429742 -0.7098811 -0.6610841
vn 0.320935 0.248871 -0.9138183
vn 0.3384545 -0.188492 -0.9219106
vn 0.7104068 -0.6127645 0.3461819
vn 0.9480376 -0.0234072 0.317296
vn 0.9312192 -0.05856453 0.3597234
vn 0.9698249 -0.1175182 0.2136096
vn 0.320935 0.248871 -0.9138183
vn 0.9480376 -0.0234072 0.317296
vn 0.3161654 0.2934607 -0.9021754
vn 0.4410454 -0.8721884 -0.2115806
vn -0.9064696 -0.06890114 -0.4166118
vn -0.03651765 -0.130128 -0.9908246
vn -0.9001095 -0.09147969 -0.4259512
vn -0.3389712 -0.3884801 0.8568441
vn -0.1285202 -0.5146644 0.8477046
vn 0.9480376 -0.0234072 0.317296
vn 0.9698249 -0.1175182 0.2136096
vn 0.4410454 -0.8721884 -0.2115806
vn -0.9030967 0.202278 -0.3788138
vn -0.29945 -0.8585649 0.4161682
vn -0.1414866 -0.9848721 -0.100042
vn -0.9327017 0.0495878 0.3572235
vn -0.8384379 -0.4181629 -0.3495165
vn 0.1695744 -0.926799 -0.3350942
vn -0.9971302 0.05183211 -0.05517983
vn -0.6231183 -0.1479861 -0.7679998
vn 0.6993301 0.01342543 -0.7146727
vn -0.7372805 -0.4165683 0.5318723
vn -0.7786751 -0.2640643 0.5691529
vn 0.2059664 -0.5810965 0.7873403
vn 0.7214528 -0.07498284 0.6883919
vn 0.1695744 -0.926799 -0.3350942
vn 0.6993301 0.01342543 -0.7146727
vn -0.8108178 0.05694992 0.5825213
vn 6.660783E-06 -0.01602901 0.9998715
vn 6.040343E-06 0.7888206 0.6146235
vn -0.6366435 0.7705562 -0.03046782
vn -0.5733446 0.7787731 0.2545355
vn -9.174838E-05 0.9994817 -0.03219045
vn -0.000161672 0.9987949 -0.04907901
vn -7.123373E-05 0.995881 0.09067002
vn -0.6109201 0.7820402 0.1232461
vn 0 0.961109 -0.2761696
vn -0.5334467 0.7800684 -0.3269984
vn 0 0.9953969 -0.0958387
vn -0.6353409 0.5981749 -0.488394
vn -7.651705E-05 -0.8950269 -0.4460122
vn -0.5617216 -0.5299645 0.6353003
vn 0.5057641 -0.7109926 -0.4885614
vn -0.5299973 -0.7221814 -0.4444738
vn 0.6075393 -0.5426446 0.5800282
vn 0.7552764 0.05924701 0.6527229
vn -0.6958887 0.06906048 0.7148213
vn -0.5299973 -0.7221814 -0.4444738
vn -0.7162937 -0.2384491 -0.6557937
vn -0.7214527 -0.07498259 0.688392
vn -0.6993303 0.01342571 -0.7146726
vn 0.7786753 -0.264064 0.5691529
vn 0.6231181 -0.1479857 -0.7679999
vn 0.6476579 -0.2440117 -0.7218016
vn -0.6993303 0.01342571 -0.7146726
vn 0.5057641 -0.7109926 -0.4885614
vn -0.7162937 -0.2384491 -0.6557937
vn -0.5299973 -0.7221814 -0.4444738
vn 0.2059664 -0.5810965 0.7873403
vn 6.660783E-06 -0.01602901 0.9998715
vn -0.2059642 -0.5811018 0.7873368
vn 0.1695744 -0.926799 -0.3350942
vn -0.1695741 -0.9267989 -0.3350946
vn 0.1414808 -0.9848731 -0.1000414
vn -0.1414866 -0.9848721 -0.100042
vn -0.4412536 -0.8719367 -0.212183
vn 0.4410454 -0.8721884 -0.2115806
vn 0.03681285 -0.1302166 -0.9908019
vn -0.03651765 -0.130128 -0.9908246
vn -7.651705E-05 -0.8950269 -0.4460122
vn 0.7668235 -0.5919579 -0.2481282
vn -0.2414528 -0.7098919 -0.66163
vn -0.7114998 -0.6125045 0.3443924
vn 0.338292 -0.5125865 0.7891855
vn 0.3931718 0.08250543 0.9157559
vn -0.9321784 -0.05823689 0.357284
vn 0.3366574 -0.3885468 0.8577255
vn -0.9488531 -0.02322899 0.3148622
vn 0.9075337 -0.0691387 -0.4142492
vn 0.9240487 -0.05401731 -0.3784393
vn 0.7668235 -0.5919579 -0.2481282
vn -0.3186054 0.2488806 -0.9146305
vn -0.336089 -0.1885064 -0.9227726
vn -0.9488531 -0.02322899 0.3148622
vn -0.2414528 -0.7098919 -0.66163
vn -0.9321784 -0.05823689 0.357284
vn -0.7114998 -0.6125045 0.3443924
vn -0.97026 -0.117261 0.2117676
vn -0.9488531 -0.02322899 0.3148622
vn -0.3186054 0.2488806 -0.9146305
vn -0.3144812 0.2931991 -0.9028488
vn -0.4412536 -0.8719367 -0.212183
vn 0.9075337 -0.0691387 -0.4142492
vn 0.03681285 -0.1302166 -0.9908019
vn 0.9008819 -0.09169012 -0.4242696
vn 0.3366574 -0.3885468 0.8577255
vn 0.1265996 -0.514242 0.8482498
vn -0.9488531 -0.02322899 0.3148622
vn -0.97026 -0.117261 0.2117676
vn -0.4412536 -0.8719367 -0.212183
vn 0.9033757 0.2021897 -0.3781952
vn 0.2986697 -0.8587532 0.4163403
vn 0.1414808 -0.9848731 -0.1000414
vn 0.9325077 0.04971791 0.3577116
vn 0.8384372 -0.4181634 -0.3495173
vn -0.1695741 -0.9267989 -0.3350946
vn 0.9971302 0.05183083 -0.05518051
vn 0.6231181 -0.1479857 -0.7679999
vn -0.6993303 0.01342571 -0.7146726
vn 0.7372811 -0.4165727 0.5318681
vn 0.7786753 -0.264064 0.5691529
vn -0.2059642 -0.5811018 0.7873368
vn -0.7214527 -0.07498259 0.688392
vn -0.1695741 -0.9267989 -0.3350946
vn -0.6993303 0.01342571 -0.7146726
vn 0.8108227 0.05695381 0.5825142
vn 6.660783E-06 -0.01602901 0.9998715
vn 6.040343E-06 0.7888206 0.6146235
vn 0.6365232 0.7706535 -0.03051758
vn 0.5732833 0.7788484 0.2544437
vn -9.174838E-05 0.9994817 -0.03219045
vn -0.000161672 0.9987949 -0.04907901
vn -7.123373E-05 0.995881 0.09067002
vn 0.6108395 0.782091 0.1233235
vn 0 0.961109 -0.2761696
vn 0.5334542 0.7800913 -0.3269313
vn 0 0.9953969 -0.0958387
vn 0.6353352 0.5982162 -0.4883506
vn -7.651705E-05 -0.8950269 -0.4460122
vn -0.6353409 0.5981749 -0.488394
vn 0 0.9863738 0.1645199
vn 0 0.9953969 -0.0958387
vn -0.799777 0.5511027 0.2379969
vn -7.651705E-05 -0.8950269 -0.4460122
vn 0 0.9957362 -0.09224533
vn -0.8055348 -0.5418325 0.2398566
vn 0 -0.9768184 0.2140695
vn -0.7176997 0.6662007 -0.2026911
vn -1.508077E-07 0.5637549 -0.8259422
vn -0.8293476 -0.2959454 -0.4739187
vn -2.003852E-07 -0.7882054 -0.6154122
vn 0 0.9953969 -0.0958387
vn 0 0.9863738 0.1645199
vn 0.799777 0.5511027 0.2379969
vn 0.6353352 0.5982162 -0.4883506
vn 0.7176997 0.6662008 -0.2026911
vn 0 0.9957362 -0.09224533
vn -1.508077E-07 0.5637549 -0.8259422
vn 0.8293474 -0.2959454 -0.4739188
vn -2.003852E-07 -0.7882054 -0.6154122
vn 0.8055348 -0.5418326 0.2398566
vn -7.651705E-05 -0.8950269 -0.4460122
vn 0 -0.9768184 0.2140695
g BodyOddyOddy_0
f 3/3/3 2/2/2 1/1/1
f 4/4/4 3/3/3 1/1/1
f 4/4/4 1/1/1 5/5/5
f 6/6/6 4/4/4 5/5/5
f 7/7/7 4/4/4 6/6/6
f 5/5/5 1/1/1 8/8/8
f 1/1/1 9/9/9 8/8/8
f 5/5/5 8/8/8 10/10/10
f 8/8/8 11/11/11 10/10/10
f 5/5/5 10/10/10 12/12/12
f 6/6/6 5/5/5 12/12/12
f 6/6/6 12/12/12 13/13/13
f 14/14/14 7/7/7 6/6/6
f 14/14/14 6/6/6 13/13/13
f 15/15/15 7/7/7 14/14/14
f 14/14/14 13/13/13 16/16/16
f 17/17/17 15/15/15 14/14/14
f 17/17/17 14/14/14 16/16/16
f 20/20/20 19/19/19 18/18/18
f 19/19/19 21/21/21 18/18/18
f 21/21/21 19/19/19 22/22/22
f 23/23/23 21/21/21 22/22/22
f 24/24/24 21/21/21 23/23/23
f 23/23/23 22/22/22 25/25/25
f 22/22/22 26/26/26 25/25/25
f 23/23/23 25/25/25 27/27/27
f 28/28/28 24/24/24 23/23/23
f 28/28/28 23/23/23 27/27/27
f 29/29/29 24/24/24 28/28/28
f 28/28/28 27/27/27 30/30/30
f 31/31/31 29/29/29 28/28/28
f 31/31/31 28/28/28 30/30/30
f 32/32/32 29/29/29 31/31/31
f 31/31/31 30/30/30 33/33/33
f 34/34/34 32/32/32 31/31/31
f 34/34/34 31/31/31 33/33/33
f 37/37/37 36/36/36 35/35/35
f 36/36/36 38/38/38 35/35/35
f 35/35/35 38/38/38 39/39/39
f 36/36/36 40/40/40 38/38/38
f 38/38/38 41/41/41 39/39/39
f 40/40/40 42/42/42 38/38/38
f 38/38/38 42/42/42 41/41/41
f 40/40/40 43/43/43 42/42/42
f 43/43/43 44/44/44 42/42/42
f 43/43/43 45/45/45 44/44/44
f 45/45/45 46/46/46 44/44/44
f 46/46/46 47/47/47 44/44/44
f 42/42/42 48/48/48 41/41/41
f 42/42/42 44/44/44 48/48/48
f 47/47/47 49/49/49 44/44/44
f 47/47/47 50/50/50 49/49/49
f 44/44/44 51/51/51 48/48/48
f 44/44/44 49/49/49 51/51/51
f 49/49/49 50/50/50 52/52/52
f 50/50/50 53/53/53 52/52/52
f 51/51/51 49/49/49 54/54/54
f 49/49/49 52/52/52 54/54/54
f 55/55/55 52/52/52 53/53/53
f 56/56/56 55/55/55 53/53/53
f 52/52/52 55/55/55 57/57/57
f 52/52/52 57/57/57 54/54/54
f 55/55/55 58/58/58 57/57/57
f 57/57/57 58/58/58 59/59/59
f 58/58/58 60/60/60 59/59/59
f 59/59/59 60/60/60 61/61/61
f 60/60/60 62/62/62 61/61/61
f 57/57/57 59/59/59 63/63/63
f 57/57/57 63/63/63 54/54/54
f 59/59/59 64/64/64 63/63/63
f 63/63/63 64/64/64 65/65/65
f 51/51/51 54/54/54 66/66/66
f 66/66/66 54/54/54 63/63/63
f 67/67/67 63/63/63 65/65/65
f 67/67/67 66/66/66 63/63/63
f 65/65/65 68/68/68 67/67/67
f 67/67/67 68/68/68 69/69/69
f 66/66/66 67/67/67 69/69/69
f 66/66/66 69/69/69 70/70/70
f 71/71/71 51/51/51 66/66/66
f 71/71/71 66/66/66 70/70/70
f 48/48/48 51/51/51 71/71/71
f 71/71/71 70/70/70 72/72/72
f 73/73/73 48/48/48 71/71/71
f 73/73/73 71/71/71 72/72/72
f 73/73/73 72/72/72 74/74/74
f 41/41/41 48/48/48 73/73/73
f 75/75/75 73/73/73 74/74/74
f 75/75/75 41/41/41 73/73/73
f 75/75/75 76/76/76 41/41/41
f 79/79/79 78/78/78 77/77/77
f 78/78/78 80/80/80 77/77/77
f 77/77/77 80/80/80 81/81/81
f 82/82/82 77/77/77 81/81/81
f 83/83/83 77/77/77 82/82/82
f 84/84/84 83/83/83 82/82/82
f 84/84/84 82/82/82 85/85/85
f 86/86/86 84/84/84 85/85/85
f 85/85/85 82/82/82 87/87/87
f 82/82/82 81/81/81 87/87/87
f 87/87/87 81/81/81 88/88/88
f 81/81/81 80/80/80 89/89/89
f 81/81/81 89/89/89 88/88/88
f 88/88/88 89/89/89 90/90/90
f 80/80/80 91/91/91 89/89/89
f 89/89/89 92/92/92 90/90/90
f 89/89/89 91/91/91 92/92/92
f 91/91/91 93/93/93 92/92/92
f 96/96/96 95/95/95 94/94/94
f 96/96/96 94/94/94 97/97/97
f 98/98/98 96/96/96 97/97/97
f 99/99/99 98/98/98 97/97/97
f 100/100/100 99/99/99 97/97/97
f 101/101/101 99/99/99 100/100/100
f 102/102/102 101/101/101 100/100/100
f 101/101/101 102/102/102 103/103/103
f 102/102/102 104/104/104 103/103/103
f 103/103/103 104/104/104 105/105/105
f 108/108/108 107/107/107 106/106/106
f 109/109/109 108/108/108 106/106/106
f 108/108/108 109/109/109 110/110/110
f 111/111/111 108/108/108 110/110/110
f 111/111/111 110/110/110 112/112/112
f 113/113/113 111/111/111 112/112/112
f 112/112/112 110/110/110 114/114/114
f 110/110/110 109/109/109 115/115/115
f 110/110/110 115/115/115 114/114/114
f 109/109/109 116/116/116 115/115/115
f 114/114/114 115/115/115 117/117/117
f 115/115/115 116/116/116 118/118/118
f 115/115/115 118/118/118 117/117/117
f 117/117/117 118/118/118 119/119/119
f 116/116/116 120/120/120 118/118/118
f 118/118/118 121/121/121 119/119/119
f 118/118/118 120/120/120 121/121/121
f 120/120/120 122/122/122 121/121/121
f 125/125/125 124/124/124 123/123/123
f 126/126/126 125/125/125 123/123/123
f 126/126/126 123/123/123 127/127/127
f 128/128/128 125/125/125 126/126/126
f 129/129/129 126/126/126 127/127/127
f 130/130/130 128/128/128 126/126/126
f 130/130/130 126/126/126 129/129/129
f 131/131/131 128/128/128 130/130/130
f 132/132/132 131/131/131 130/130/130
f 133/133/133 131/131/131 132/132/132
f 134/134/134 133/133/133 132/132/132
f 135/135/135 134/134/134 132/132/132
f 136/136/136 130/130/130 129/129/129
f 132/132/132 130/130/130 136/136/136
f 137/137/137 135/135/135 132/132/132
f 138/138/138 135/135/135 137/137/137
f 139/139/139 132/132/132 136/136/136
f 137/137/137 132/132/132 139/139/139
f 138/138/138 137/137/137 140/140/140
f 141/141/141 138/138/138 140/140/140
f 137/137/137 139/139/139 142/142/142
f 140/140/140 137/137/137 142/142/142
f 140/140/140 143/143/143 141/141/141
f 143/143/143 144/144/144 141/141/141
f 143/143/143 140/140/140 145/145/145
f 145/145/145 140/140/140 142/142/142
f 146/146/146 143/143/143 145/145/145
f 146/146/146 145/145/145 147/147/147
f 148/148/148 146/146/146 147/147/147
f 148/148/148 147/147/147 149/149/149
f 150/150/150 148/148/148 149/149/149
f 147/147/147 145/145/145 151/151/151
f 151/151/151 145/145/145 142/142/142
f 152/152/152 147/147/147 151/151/151
f 152/152/152 151/151/151 153/153/153
f 142/142/142 139/139/139 154/154/154
f 142/142/142 154/154/154 151/151/151
f 151/151/151 155/155/155 153/153/153
f 154/154/154 155/155/155 151/151/151
f 156/156/156 153/153/153 155/155/155
f 156/156/156 155/155/155 157/157/157
f 155/155/155 154/154/154 157/157/157
f 157/157/157 154/154/154 158/158/158
f 139/139/139 159/159/159 154/154/154
f 154/154/154 159/159/159 158/158/158
f 139/139/139 136/136/136 159/159/159
f 158/158/158 159/159/159 160/160/160
f 136/136/136 161/161/161 159/159/159
f 159/159/159 161/161/161 160/160/160
f 160/160/160 161/161/161 162/162/162
f 136/136/136 129/129/129 161/161/161
f 161/161/161 163/163/163 162/162/162
f 129/129/129 163/163/163 161/161/161
f 129/129/129 164/164/164 163/163/163
f 167/167/167 166/166/166 165/165/165
f 166/166/166 168/168/168 165/165/165
f 165/165/165 168/168/168 169/169/169
f 166/166/166 170/170/170 168/168/168
f 168/168/168 171/171/171 169/169/169
f 171/171/171 172/172/172 169/169/169
f 170/170/170 173/173/173 168/168/168
f 168/168/168 173/173/173 171/171/171
f 170/170/170 174/174/174 173/173/173
f 171/171/171 175/175/175 172/172/172
f 173/173/173 175/175/175 171/171/171
f 173/173/173 174/174/174 175/175/175
f 175/175/175 176/176/176 172/172/172
f 175/175/175 174/174/174 176/176/176
f 179/179/179 178/178/178 177/177/177
f 180/180/180 179/179/179 177/177/177
f 179/179/179 181/181/181 178/178/178
f 181/181/181 182/182/182 178/178/178
f 181/181/181 183/183/183 182/182/182
f 184/184/184 183/183/183 181/181/181
f 184/184/184 181/181/181 179/179/179
f 185/185/185 183/183/183 184/184/184
f 186/186/186 179/179/179 180/180/180
f 186/186/186 184/184/184 179/179/179
f 185/185/185 184/184/184 186/186/186
f 187/187/187 186/186/186 180/180/180
f 188/188/188 185/185/185 186/186/186
f 188/188/188 186/186/186 187/187/187
