g BodyGEO
v -1.814646 1.531145 -0.2886434
v -0.9570899 1.580993 -0.2516639
v -1.041451 2.735699 -0.1797335
v -1.913028 2.761459 -0.208048
v -0.9765005 4.146571 -0.3755469
v -1.93964 4.484356 -0.395744
v -1.856263 2.376898 0.720762
v -1.820906 1.53253 0.591387
v -0.9635082 1.506536 0.549845
v -1.906131 3.3181 0.745833
v -1.869396 4.52463 0.650501
v -0.9333262 4.196088 0.66129
v -1.058514 2.344466 0.7140779
v -0.9570899 1.580993 -0.2516639
v -1.041451 2.735699 -0.1797335
v -1.014037 3.258273 0.775594
v -0.9765005 4.146571 -0.3755469
v 1.184432 4.143761 -0.3596067
v -0.9765005 4.146571 -0.3755469
v -0.9333262 4.196088 0.66129
v 1.096619 4.196088 0.66129
v 0.08353175 5.609155 1.474109
v -1.744413 5.729259 1.068516
v 1.91148 5.729259 1.068516
v 0.08353212 7.669064 1.812831
v -1.869396 4.52463 0.650501
v 2.03269 4.52463 0.650501
v -1.93964 4.484356 -0.395744
v 2.142461 4.480396 -0.3732849
v -2.063371 5.721389 -0.467974
v 2.249544 5.719472 -0.4571153
v -2.135698 6.856409 -0.548959
v 2.306392 6.856045 -0.5468946
v -2.071498 7.653667 1.286353
v -2.68854 8.831113 -1.108687
v -2.885576 8.916222 1.269701
v 2.23856 7.653667 1.286353
v 2.848228 8.831113 -1.108687
v 3.052633 8.916222 1.269701
v 0.08353212 9.036644 1.734855
v -2.687585 10.73408 0.995976
v 2.854647 10.73172 0.995976
v 0.08353212 12.34426 1.043378
v 0.08353212 12.42909 -0.7400436
v -2.651683 10.83259 -0.8220715
v 0.08353212 12.42909 -0.7400436
v 2.818744 10.8301 -0.8220715
v 1.184432 4.143761 -0.3596067
v 2.142461 4.480396 -0.3732849
v 2.249544 5.719472 -0.4571153
v 1.368142 5.552787 -1.588253
v -0.9765005 4.146571 -0.3755469
v 2.306392 6.856045 -0.5468946
v -1.04598 5.559089 -1.623995
v -1.93964 4.484356 -0.395744
v -2.063371 5.721389 -0.467974
v -1.132435 6.789882 -1.780949
v -2.135698 6.856409 -0.548959
v -2.68854 8.831113 -1.108687
v 1.382199 6.785367 -1.755342
v 2.848228 8.831113 -1.108687
v -2.651683 10.83259 -0.8220715
v 2.818744 10.8301 -0.8220715
v 0.08353212 12.42909 -0.7400436
v 1.255824 2.732492 -0.1615447
v 2.142461 4.480396 -0.3732849
v 1.184432 4.143761 -0.3596067
v 2.127472 2.756335 -0.1789867
v 1.189167 1.577414 -0.2313633
v 2.047722 1.525276 -0.255359
v 2.069423 3.3181 0.745833
v 2.03269 4.52463 0.650501
v 2.023188 2.376534 0.7228264
v 1.992491 1.531699 0.5960981
v 1.177331 3.258273 0.775594
v 1.096619 4.196088 0.66129
v 1.184432 4.143761 -0.3596067
v 1.255824 2.732492 -0.1615447
v 1.221806 2.344466 0.7140779
v 1.132401 1.505975 0.5530266
v 1.189167 1.577414 -0.2313633
v -1.861207 0.5912073 3.003837
v -2.704686 0.6731924 2.558501
v -1.02267 0.8428704 2.813249
v -0.7304912 0.9319885 2.235218
v -2.819016 0.9371855 1.847519
v -0.9635082 1.506536 0.549845
v -0.5656814 0.7780823 -0.838249
v -1.820906 1.53253 0.591387
v -0.9570899 1.580993 -0.2516639
v -1.814646 1.531145 -0.2886434
v -1.898659 0.7699072 -1.148766
v 1.918894 0.590942 3.023613
v 1.150451 0.8427819 2.819841
v 2.798332 0.6730157 2.571685
v 0.8937837 0.9319885 2.235218
v 2.982311 0.9371855 1.847519
v 1.992491 1.531699 0.5960981
v 1.132401 1.505975 0.5530266
v 2.047722 1.525276 -0.255359
v 2.275542 0.7573434 -1.077512
v 0.8979362 0.7740151 -0.815183
v 1.189167 1.577414 -0.2313633
v 2.854647 10.73172 0.995976
v 2.818744 10.8301 -0.8220715
v 2.848228 8.831113 -1.108687
v 3.052633 8.916222 1.269701
v -2.687585 10.73408 0.995976
v -2.885576 8.916222 1.269701
v -2.68854 8.831113 -1.108687
v -2.651683 10.83259 -0.8220715
v -0.7854544 5.637595 -4.877431
v -0.5990656 7.053975 -1.629099
v -0.7974269 5.941631 -1.77432
v -0.9902885 4.793679 -4.61573
v 0.06266937 5.502167 -4.547073
v 0.36616 6.96427 -1.566701
v 0.1635755 5.853508 -1.694025
v 0.01137043 4.693244 -7.777634
v -0.01160519 3.786616 -7.655608
v 0.9193884 4.659762 -7.171206
v -0.2073639 4.62387 -4.1098
v -0.7974269 5.941631 -1.77432
v -0.9902885 4.793679 -4.61573
v -0.01160519 3.786616 -7.655608
v 0.9446679 3.753254 -7.102296
v 1.764015 3.168771 -9.938126
v 2.369133 2.959657 -9.129074
v 4.121491 2.684353 -9.827991
v 1.829796 4.070735 -10.03082
v 1.764015 3.168771 -9.938126
v 2.19409 3.963158 -8.772759
v 3.705691 2.613345 -8.920331
v 5.389588 2.070026 -7.903479
v 4.143854 3.589887 -9.939775
v 4.121491 2.684353 -9.827991
v 3.690936 3.518434 -8.896497
v 4.558312 2.065263 -7.695948
v 5.13108 1.486053 -5.811399
v 5.403276 2.968384 -7.897947
v 5.389588 2.070026 -7.903479
v 5.13108 1.486053 -5.811399
v 4.58038 2.963632 -7.66502
v 4.315173 1.486056 -6.116683
v 4.515119 1.972398 -5.538779
v 4.315164 2.391397 -6.108305
v 5.120527 2.391401 -5.82882
v 2.982311 0.9371855 1.847519
v 2.93951 0.035784 2.576294
v 2.798332 0.6730157 2.571685
v 1.918894 0.590942 3.023613
v 3.040621 0.035784 1.851226
v 2.275542 0.7573434 -1.077512
v 1.903489 0.03578399 3.073636
v 1.106523 0.03578399 2.73384
v 1.150451 0.8427819 2.819841
v 0.8937837 0.9319885 2.235218
v 0.9025427 0.03578399 2.326551
v 0.7969314 0.02679634 -0.7853964
v 0.8979362 0.7740151 -0.815183
v 2.298952 0.01952598 -1.110348
v -2.819016 0.9371855 1.847519
v -2.704686 0.6731924 2.558501
v -2.851335 0.035784 2.55946
v -2.87733 0.035784 1.851226
v -1.898659 0.7699072 -1.148766
v -1.852807 0.035784 3.048386
v -1.861207 0.5912073 3.003837
v -0.9807248 0.035784 2.725424
v -1.02267 0.8428704 2.813249
v -0.7392502 0.035784 2.326551
v -0.7304912 0.9319885 2.235218
v -0.4872255 0.03010372 -0.8041536
v -0.5656814 0.7780823 -0.838249
v -1.933846 0.03182386 -1.180093
vt 0.179131 0.846601
vt 0.21479 0.85632
vt 0.20011 0.913119
vt 0.163276 0.906961
vt 0.190943 0.974556
vt 0.147486 0.980974
vt 0.127375 0.880819
vt 0.141283 0.838086
vt 0.105397 0.824572
vt 0.117035 0.918766
vt 0.103587 0.9689
vt 0.066335 0.94388
vt 0.094829 0.868556
vt 0.071107 0.814737
vt 0.051408 0.870548
vt 0.082428 0.905758
vt 0.024135 0.927133
vt 0.518505 0.834864
vt 0.60457 0.834265
vt 0.603021 0.792184
vt 0.519466 0.792767
vt 0.560722 0.726954
vt 0.635054 0.726697
vt 0.486404 0.727724
vt 0.560099 0.637984
vt 0.642122 0.777744
vt 0.480154 0.778854
vt 0.68387 0.786743
vt 0.438538 0.788493
vt 0.696422 0.737698
vt 0.425217 0.739625
vt 0.706639 0.693116
vt 0.414362 0.695183
vt 0.643895 0.639441
vt 0.744099 0.61847
vt 0.669361 0.590535
vt 0.476324 0.640611
vt 0.375871 0.621124
vt 0.450188 0.592078
vt 0.559764 0.58986
vt 0.663455 0.521008
vt 0.455113 0.522475
vt 0.559028 0.485409
vt 0.58887 0.427702
vt 0.684739 0.473274
vt 0.52838 0.428129
vt 0.433159 0.475042
vt 0.970413 0.813884
vt 0.94709 0.771498
vt 0.888915 0.75233
vt 0.889123 0.816919
vt 0.969986 0.908092
vt 0.835542 0.756174
vt 0.89345 0.912334
vt 0.951453 0.9542
vt 0.896928 0.976885
vt 0.845483 0.914448
vt 0.844307 0.977011
vt 0.750808 0.916211
vt 0.840637 0.818283
vt 0.749764 0.823284
vt 0.67642 0.943004
vt 0.674551 0.798538
vt 0.637853 0.871299
vt 0.20011 0.913119
vt 0.147486 0.980974
vt 0.190943 0.974556
vt 0.163276 0.906961
vt 0.21479 0.85632
vt 0.179131 0.846601
vt 0.117035 0.918766
vt 0.103587 0.9689
vt 0.127375 0.880819
vt 0.141283 0.838086
vt 0.082428 0.905758
vt 0.066335 0.94388
vt 0.024135 0.927133
vt 0.051408 0.870548
vt 0.094829 0.868556
vt 0.105397 0.824572
vt 0.071107 0.814737
vt 0.7458453 0.08273071
vt 0.7533547 0.07205845
vt 0.7545844 0.1086353
vt 0.7608123 0.128683
vt 0.7633753 0.050349
vt 0.818174 0.1046056
vt 0.881156 0.129234
vt 0.814121 0.07708863
vt 0.845295 0.1028556
vt 0.843818 0.07847163
vt 0.884868 0.058194
vt 0.7458453 0.08273071
vt 0.7545844 0.1086353
vt 0.7533547 0.07205845
vt 0.7608123 0.128683
vt 0.7633753 0.050349
vt 0.814121 0.07708863
vt 0.818174 0.1046056
vt 0.843818 0.07847163
vt 0.884868 0.058194
vt 0.881156 0.129234
vt 0.845295 0.1028556
vt 0.7356714 0.8015437
vt 0.7356714 0.8015437
vt 0.7356714 0.8015437
vt 0.7356714 0.8015437
vt 0.7356714 0.8015437
vt 0.7356714 0.8015437
vt 0.7356714 0.8015437
vt 0.7356714 0.8015437
vt 0.299795 0.966848
vt 0.2232692 0.9663359
vt 0.23482 0.9875655
vt 0.2995788 0.9866183
vt 0.2976204 0.9469018
vt 0.2232658 0.9460466
vt 0.2363522 0.9262021
vt 0.3666323 0.968258
vt 0.367338 0.9883071
vt 0.3625871 0.9459794
vt 0.2948898 0.924405
vt 0.2365432 0.9056467
vt 0.3004349 0.9048492
vt 0.3685969 0.9059638
vt 0.3663514 0.9279863
vt 0.4268489 0.902472
vt 0.4313421 0.9212843
vt 0.466856 0.9077445
vt 0.4219625 0.9698436
vt 0.4236201 0.9896893
vt 0.417404 0.944333
vt 0.4638105 0.9256345
vt 0.507863 0.9110053
vt 0.4568312 0.9663733
vt 0.4635054 0.9852818
vt 0.4551075 0.946389
vt 0.5029478 0.928987
vt 0.5519065 0.9294285
vt 0.4939206 0.9663134
vt 0.5027516 0.985158
vt 0.5486889 0.9744832
vt 0.4939905 0.9472811
vt 0.5390443 0.9396339
vt 0.5474926 0.9521454
vt 0.5313435 0.9499421
vt 0.5342619 0.9625046
vt 0.5588868 0.4498953
vt 0.5588868 0.4498953
vt 0.5588868 0.4498953
vt 0.5588868 0.4498953
vt 0.5588868 0.4498953
vt 0.5588868 0.4498953
vt 0.5588868 0.4498953
vt 0.5588868 0.4498953
vt 0.5588868 0.4498953
vt 0.5588868 0.4498953
vt 0.5588868 0.4498953
vt 0.5588868 0.4498953
vt 0.5588868 0.4498953
vt 0.5588868 0.4498953
vt 0.5588868 0.4498953
vt 0.5588868 0.4498953
vt 0.5588868 0.4498953
vt 0.5588868 0.4498953
vt 0.5588868 0.4498953
vt 0.5588868 0.4498953
vt 0.5588868 0.4498953
vt 0.5588868 0.4498953
vt 0.5588868 0.4498953
vt 0.5588868 0.4498953
vt 0.5588868 0.4498953
vt 0.5588868 0.4498953
vt 0.5588868 0.4498953
vt 0.5588868 0.4498953
vn -0.585782 0.4441026 -0.6779619
vn 0.6978755 0.4369966 -0.5674538
vn 0.8380603 -0.02275195 -0.545103
vn -0.8401751 -0.04762771 -0.5402198
vn 0.1416484 -0.6694397 -0.7292368
vn -0.8372496 -0.1811574 -0.515941
vn -0.6938837 -0.117379 0.7104558
vn -0.7255719 0.5099875 0.4620152
vn 0.7030873 0.4769191 0.5274622
vn -0.6976134 0.001310772 0.7164733
vn -0.7029722 -0.07677051 0.7070618
vn 0.1491074 -0.4905009 0.8585895
vn 0.702528 -0.06323077 0.7088416
vn 0.6978755 0.4369966 -0.5674538
vn 0.8380603 -0.02275195 -0.545103
vn 0.7076676 -0.02212805 0.7061989
vn 0.1416484 -0.6694397 -0.7292368
vn -0.1265323 -0.6705869 -0.7309602
vn 0.1416484 -0.6694397 -0.7292368
vn 0.1491074 -0.4905009 0.8585895
vn -0.1501279 -0.4966981 0.8548408
vn -2.253632E-06 -0.3144556 0.9492722
vn -0.6159698 -0.2377241 0.7510449
vn 0.6123021 -0.2349846 0.7548963
vn 0 -0.09040342 0.9959052
vn -0.7029722 -0.07677051 0.7070618
vn 0.6908008 -0.07214966 0.7194365
vn -0.8372496 -0.1811574 -0.515941
vn 0.8526385 -0.1827578 -0.4894969
vn -0.9308569 -0.1938209 -0.3097398
vn 0.9404988 -0.1859188 -0.2844225
vn -0.9222603 -0.2708584 -0.2758109
vn 0.9307082 -0.2590418 -0.2582242
vn -0.7187463 -0.2140758 0.6614948
vn -0.7226155 -0.06495412 -0.6881917
vn -0.7568516 -0.05963185 0.6508608
vn 0.7185593 -0.2115454 0.6625113
vn 0.7288372 -0.0634056 -0.6817449
vn 0.7575372 -0.05936213 0.6500873
vn 2.951436E-05 0.1166351 0.9931749
vn -0.6116798 0.4403353 0.657231
vn 0.6122779 0.4399089 0.6569597
vn 0.0002514621 0.7262168 0.6874657
vn 0.0002953433 0.8878697 -0.4600948
vn -0.5470736 0.4076115 -0.7311384
vn 0.0002953433 0.8878697 -0.4600948
vn 0.5471628 0.4066981 -0.7315802
vn -0.1265323 -0.6705869 -0.7309602
vn 0.8526385 -0.1827578 -0.4894969
vn 0.9404988 -0.1859188 -0.2844225
vn 0.3792 -0.3604594 -0.8522186
vn 0.1416484 -0.6694397 -0.7292368
vn 0.9307082 -0.2590418 -0.2582242
vn -0.3521025 -0.3632038 -0.8626163
vn -0.8372496 -0.1811574 -0.515941
vn -0.9308569 -0.1938209 -0.3097398
vn -0.4230433 -0.08741432 -0.9018831
vn -0.9222603 -0.2708584 -0.2758109
vn -0.7226155 -0.06495412 -0.6881917
vn 0.4479144 -0.07903441 -0.8905764
vn 0.7288372 -0.0634056 -0.6817449
vn -0.5470736 0.4076115 -0.7311384
vn 0.5471628 0.4066981 -0.7315802
vn 0.0002953433 0.8878697 -0.4600948
vn -0.8137508 -0.02634573 -0.5806164
vn 0.8526385 -0.1827578 -0.4894969
vn -0.1265323 -0.6705869 -0.7309602
vn 0.8622455 -0.04578621 -0.5044169
vn -0.6898299 0.3916615 -0.6088809
vn 0.5953227 0.4656791 -0.6547776
vn 0.6792516 0.005465956 0.733885
vn 0.6908008 -0.07214966 0.7194365
vn 0.6722451 -0.1100049 0.7321102
vn 0.6925823 0.5234331 0.4963341
vn -0.7257077 -0.02407829 0.6875817
vn -0.1501279 -0.4966981 0.8548408
vn -0.1265323 -0.6705869 -0.7309602
vn -0.8137508 -0.02634573 -0.5806164
vn -0.7251986 -0.06340738 0.685614
vn -0.7389479 0.4560038 0.4960006
vn -0.6898299 0.3916615 -0.6088809
vn -0.1255769 0.3744323 0.9187115
vn -0.5295013 0.6499265 0.5451826
vn 0.3106951 0.6173902 0.7227017
vn 0.7047879 0.6350878 0.316129
vn -0.7300496 0.6809509 0.05773526
vn 0.7030873 0.4769191 0.5274622
vn 0.7484236 0.3925374 -0.5345806
vn -0.7255719 0.5099875 0.4620152
vn 0.6978755 0.4369966 -0.5674538
vn -0.585782 0.4441026 -0.6779619
vn -0.4813244 0.4506918 -0.7518003
vn 0.1076343 0.3768212 0.9200112
vn -0.3347147 0.6226309 0.7073166
vn 0.5159401 0.6380607 0.571563
vn -0.7322047 0.6219895 0.2774984
vn 0.7173144 0.6881304 0.1092546
vn 0.6925823 0.5234331 0.4963341
vn -0.7389479 0.4560038 0.4960006
vn 0.5953227 0.4656791 -0.6547776
vn 0.4998761 0.4671142 -0.7293341
vn -0.7352838 0.3588734 -0.5749501
vn -0.6898299 0.3916615 -0.6088809
vn 0.6122779 0.4399089 0.6569597
vn 0.5471628 0.4066981 -0.7315802
vn 0.7288372 -0.0634056 -0.6817449
vn 0.7575372 -0.05936213 0.6500873
vn -0.6116798 0.4403353 0.657231
vn -0.7568516 -0.05963185 0.6508608
vn -0.7226155 -0.06495412 -0.6881917
vn -0.5470736 0.4076115 -0.7311384
vn -0.5472098 0.7560835 -0.3590252
vn -0.5529816 0.770137 -0.3179629
vn -0.8496165 -0.4529066 0.2702359
vn -0.8383763 -0.5349349 0.1047368
vn 0.8246396 0.5538474 -0.1149894
vn 0.8329388 0.4618143 -0.3048613
vn 0.5138253 -0.8025517 0.303141
vn -0.4767325 0.7338404 -0.4839467
vn -0.7498035 -0.6319807 -0.1959467
vn 0.7512578 0.6291127 0.1995722
vn 0.5218019 -0.772875 0.3610914
vn -0.8496165 -0.4529066 0.2702359
vn -0.8383763 -0.5349349 0.1047368
vn -0.7498035 -0.6319807 -0.1959467
vn 0.4715756 -0.7368814 0.4843783
vn -0.4236272 -0.7140152 -0.5574246
vn 0.0949454 -0.8036317 0.5875044
vn 0.1694299 -0.7252046 -0.6673618
vn -0.1084371 0.7315307 -0.6731302
vn -0.4236272 -0.7140152 -0.5574246
vn 0.4670611 0.6567336 0.5920767
vn -0.4619921 -0.7784166 0.4250068
vn 0.6113122 -0.7102879 -0.3489821
vn 0.5071359 0.7076151 -0.4920305
vn 0.1694299 -0.7252046 -0.6673618
vn -0.1922002 0.6630424 0.7234873
vn -0.7132773 -0.6994002 -0.04555105
vn 0.4804658 -0.6630725 0.5740101
vn 0.7294954 0.6827483 0.04112275
vn 0.6113122 -0.7102879 -0.3489821
vn 0.4804658 -0.6630725 0.5740101
vn -0.6100774 0.7095122 0.3527009
vn -0.7815728 -0.5915565 0.1980022
vn -0.364801 0.02629477 0.9307141
vn -0.7275077 0.5771124 0.371044
vn 0.4122203 0.6009691 0.6847704
vn 0.7173144 0.6881304 0.1092546
vn 0.5565979 -0.7060077 0.4378948
vn 0.5159401 0.6380607 0.571563
vn 0.1076343 0.3768212 0.9200112
vn 0.7286053 -0.6848825 -0.008386329
vn 0.4998761 0.4671142 -0.7293341
vn 0.05331233 -0.4482075 0.8923384
vn -0.4555529 -0.7338821 0.5038735
vn -0.3347147 0.6226309 0.7073166
vn -0.7322047 0.6219895 0.2774984
vn -0.6946904 -0.701043 0.161071
vn -0.6675627 -0.5180131 -0.5348107
vn -0.7352838 0.3588734 -0.5749501
vn 0.4480007 -0.5450215 -0.7086938
vn -0.7300496 0.6809509 0.05773526
vn -0.5295013 0.6499265 0.5451826
vn -0.5725358 -0.7130415 0.4046906
vn -0.7293904 -0.6809805 -0.06523143
vn -0.4813244 0.4506918 -0.7518003
vn -0.07588352 -0.4499262 0.889836
vn -0.1255769 0.3744323 0.9187115
vn 0.4279726 -0.7341132 0.5271786
vn 0.3106951 0.6173902 0.7227017
vn 0.6815397 -0.7041046 0.1993499
vn 0.7047879 0.6350878 0.316129
vn 0.6863322 -0.5263163 -0.5019355
vn 0.7484236 0.3925374 -0.5345806
vn -0.4132374 -0.5412074 -0.7323452
g BodyGEO_0
f 3/3/3 2/2/2 1/1/1
f 4/4/4 3/3/3 1/1/1
f 5/5/5 3/3/3 4/4/4
f 6/6/6 5/5/5 4/4/4
f 7/7/7 4/4/4 1/1/1
f 8/8/8 7/7/7 1/1/1
f 8/8/8 9/9/9 7/7/7
f 6/6/6 4/4/4 10/10/10
f 7/7/7 10/10/10 4/4/4
f 11/11/11 6/6/6 10/10/10
f 11/11/11 10/10/10 12/12/12
f 9/9/9 13/13/13 7/7/7
f 7/7/7 13/13/13 10/10/10
f 13/13/13 9/9/9 14/14/14
f 15/15/15 13/13/13 14/14/14
f 10/10/10 16/16/16 12/12/12
f 13/13/13 16/16/16 10/10/10
f 13/13/13 15/15/15 16/16/16
f 12/12/12 16/16/16 17/17/17
f 16/16/16 15/15/15 17/17/17
f 20/20/20 19/19/19 18/18/18
f 21/21/21 20/20/20 18/18/18
f 20/20/20 21/21/21 22/22/22
f 23/23/23 20/20/20 22/22/22
f 21/21/21 24/24/24 22/22/22
f 23/23/23 22/22/22 25/25/25
f 22/22/22 24/24/24 25/25/25
f 23/23/23 26/26/26 20/20/20
f 21/21/21 27/27/27 24/24/24
f 28/28/28 26/26/26 23/23/23
f 27/27/27 29/29/29 24/24/24
f 30/30/30 28/28/28 23/23/23
f 29/29/29 31/31/31 24/24/24
f 30/30/30 23/23/23 32/32/32
f 24/24/24 31/31/31 33/33/33
f 23/23/23 34/34/34 32/32/32
f 34/34/34 23/23/23 25/25/25
f 35/35/35 32/32/32 34/34/34
f 36/36/36 35/35/35 34/34/34
f 36/36/36 34/34/34 25/25/25
f 37/37/37 24/24/24 33/33/33
f 24/24/24 37/37/37 25/25/25
f 33/33/33 38/38/38 37/37/37
f 38/38/38 39/39/39 37/37/37
f 37/37/37 39/39/39 25/25/25
f 40/40/40 36/36/36 25/25/25
f 39/39/39 40/40/40 25/25/25
f 40/40/40 41/41/41 36/36/36
f 39/39/39 42/42/42 40/40/40
f 40/40/40 43/43/43 41/41/41
f 42/42/42 43/43/43 40/40/40
f 43/43/43 44/44/44 41/41/41
f 44/44/44 45/45/45 41/41/41
f 46/46/46 43/43/43 42/42/42
f 47/47/47 46/46/46 42/42/42
f 50/50/50 49/49/49 48/48/48
f 51/51/51 50/50/50 48/48/48
f 48/48/48 52/52/52 51/51/51
f 53/53/53 50/50/50 51/51/51
f 52/52/52 54/54/54 51/51/51
f 54/54/54 52/52/52 55/55/55
f 56/56/56 54/54/54 55/55/55
f 57/57/57 54/54/54 56/56/56
f 51/51/51 54/54/54 57/57/57
f 58/58/58 57/57/57 56/56/56
f 57/57/57 58/58/58 59/59/59
f 60/60/60 53/53/53 51/51/51
f 60/60/60 51/51/51 57/57/57
f 60/60/60 61/61/61 53/53/53
f 60/60/60 57/57/57 61/61/61
f 57/57/57 59/59/59 61/61/61
f 59/59/59 62/62/62 61/61/61
f 62/62/62 63/63/63 61/61/61
f 62/62/62 64/64/64 63/63/63
f 67/67/67 66/66/66 65/65/65
f 66/66/66 68/68/68 65/65/65
f 65/65/65 68/68/68 69/69/69
f 68/68/68 70/70/70 69/69/69
f 68/68/68 66/66/66 71/71/71
f 66/66/66 72/72/72 71/71/71
f 68/68/68 73/73/73 70/70/70
f 71/71/71 73/73/73 68/68/68
f 73/73/73 74/74/74 70/70/70
f 75/75/75 71/71/71 72/72/72
f 73/73/73 71/71/71 75/75/75
f 76/76/76 75/75/75 72/72/72
f 75/75/75 76/76/76 77/77/77
f 78/78/78 75/75/75 77/77/77
f 74/74/74 73/73/73 79/79/79
f 79/79/79 73/73/73 75/75/75
f 78/78/78 79/79/79 75/75/75
f 80/80/80 74/74/74 79/79/79
f 79/79/79 78/78/78 81/81/81
f 80/80/80 79/79/79 81/81/81
f 84/84/84 83/83/83 82/82/82
f 84/84/84 85/85/85 83/83/83
f 85/85/85 86/86/86 83/83/83
f 85/85/85 87/87/87 86/86/86
f 85/85/85 88/88/88 87/87/87
f 87/87/87 89/89/89 86/86/86
f 88/88/88 90/90/90 87/87/87
f 86/86/86 89/89/89 91/91/91
f 90/90/90 88/88/88 92/92/92
f 92/92/92 86/86/86 91/91/91
f 91/91/91 90/90/90 92/92/92
f 95/95/95 94/94/94 93/93/93
f 96/96/96 94/94/94 95/95/95
f 97/97/97 96/96/96 95/95/95
f 97/97/97 98/98/98 96/96/96
f 98/98/98 99/99/99 96/96/96
f 98/98/98 97/97/97 100/100/100
f 97/97/97 101/101/101 100/100/100
f 102/102/102 96/96/96 99/99/99
f 100/100/100 101/101/101 102/102/102
f 103/103/103 102/102/102 99/99/99
f 103/103/103 100/100/100 102/102/102
f 106/106/106 105/105/105 104/104/104
f 107/107/107 106/106/106 104/104/104
f 110/110/110 109/109/109 108/108/108
f 111/111/111 110/110/110 108/108/108
f 114/114/114 113/113/113 112/112/112
f 115/115/115 114/114/114 112/112/112
f 112/112/112 113/113/113 116/116/116
f 113/113/113 117/117/117 116/116/116
f 117/117/117 118/118/118 116/116/116
f 115/115/115 112/112/112 119/119/119
f 120/120/120 115/115/115 119/119/119
f 116/116/116 121/121/121 112/112/112
f 121/121/121 119/119/119 112/112/112
f 118/118/118 122/122/122 116/116/116
f 118/118/118 123/123/123 122/122/122
f 123/123/123 124/124/124 122/122/122
f 122/122/122 124/124/124 125/125/125
f 122/122/122 126/126/126 116/116/116
f 126/126/126 122/122/122 125/125/125
f 126/126/126 121/121/121 116/116/116
f 126/126/126 125/125/125 127/127/127
f 128/128/128 126/126/126 127/127/127
f 126/126/126 128/128/128 121/121/121
f 128/128/128 127/127/127 129/129/129
f 120/120/120 119/119/119 130/130/130
f 131/131/131 120/120/120 130/130/130
f 121/121/121 132/132/132 119/119/119
f 128/128/128 132/132/132 121/121/121
f 132/132/132 130/130/130 119/119/119
f 133/133/133 128/128/128 129/129/129
f 128/128/128 133/133/133 132/132/132
f 133/133/133 129/129/129 134/134/134
f 131/131/131 130/130/130 135/135/135
f 136/136/136 131/131/131 135/135/135
f 132/132/132 137/137/137 130/130/130
f 133/133/133 137/137/137 132/132/132
f 137/137/137 135/135/135 130/130/130
f 138/138/138 133/133/133 134/134/134
f 133/133/133 138/138/138 137/137/137
f 138/138/138 134/134/134 139/139/139
f 136/136/136 135/135/135 140/140/140
f 141/141/141 136/136/136 140/140/140
f 141/141/141 140/140/140 142/142/142
f 137/137/137 143/143/143 135/135/135
f 138/138/138 143/143/143 137/137/137
f 143/143/143 140/140/140 135/135/135
f 144/144/144 138/138/138 139/139/139
f 138/138/138 144/144/144 143/143/143
f 145/145/145 144/144/144 139/139/139
f 144/144/144 146/146/146 143/143/143
f 143/143/143 146/146/146 140/140/140
f 145/145/145 146/146/146 144/144/144
f 140/140/140 147/147/147 142/142/142
f 146/146/146 147/147/147 140/140/140
f 146/146/146 145/145/145 147/147/147
f 145/145/145 142/142/142 147/147/147
f 150/150/150 149/149/149 148/148/148
f 150/150/150 151/151/151 149/149/149
f 149/149/149 152/152/152 148/148/148
f 148/148/148 152/152/152 153/153/153
f 151/151/151 154/154/154 149/149/149
f 155/155/155 154/154/154 151/151/151
f 149/149/149 154/154/154 155/155/155
f 156/156/156 155/155/155 151/151/151
f 156/156/156 157/157/157 155/155/155
f 149/149/149 155/155/155 158/158/158
f 157/157/157 158/158/158 155/155/155
f 152/152/152 149/149/149 158/158/158
f 159/159/159 158/158/158 157/157/157
f 152/152/152 158/158/158 159/159/159
f 160/160/160 159/159/159 157/157/157
f 160/160/160 153/153/153 159/159/159
f 152/152/152 161/161/161 153/153/153
f 153/153/153 161/161/161 159/159/159
f 161/161/161 152/152/152 159/159/159
f 164/164/164 163/163/163 162/162/162
f 165/165/165 164/164/164 162/162/162
f 165/165/165 162/162/162 166/166/166
f 164/164/164 167/167/167 163/163/163
f 167/167/167 168/168/168 163/163/163
f 169/169/169 167/167/167 164/164/164
f 167/167/167 169/169/169 168/168/168
f 169/169/169 164/164/164 165/165/165
f 169/169/169 170/170/170 168/168/168
f 169/169/169 171/171/171 170/170/170
f 171/171/171 169/169/169 165/165/165
f 171/171/171 172/172/172 170/170/170
f 171/171/171 173/173/173 172/172/172
f 171/171/171 165/165/165 173/173/173
f 173/173/173 174/174/174 172/172/172
f 175/175/175 165/165/165 166/166/166
f 166/166/166 174/174/174 175/175/175
f 174/174/174 173/173/173 175/175/175
f 165/165/165 175/175/175 173/173/173
