g Body
v 1.924472 4.98112 2.745702
v -0.0008368351 4.237664 0
v 2.534756 4.403065 1.020952
v 2.534756 4.403065 1.020952
v 2.615645 4.275939 0.7736439
v 3.433614 4.271309 1.405531
v 1.773031 0.7588591 -1.461275
v 2.066924 2.793975 -3.370559
v -1.196687E-06 2.668302 -4.114276
v -1.196687E-06 0.5044839 -2.645954
v 2.641709 1.151522 -0.1002509
v -1.773032 0.7588591 -1.461275
v -2.066925 2.793975 -3.370559
v -8.975152E-07 0.4557054 -0.9348091
v -2.64171 1.151522 -0.1002509
v -5.983434E-07 0.4069269 0.7763356
v 2.794871 1.544186 1.260773
v -3.643365E-16 1.419317 3.113443
v -2.794872 1.544186 1.260773
v 2.197898 2.273901 2.854326
v 3.415283 4.036019 1.450084
v -2.197898 2.273901 2.854326
v -3.415292 4.036053 1.450087
v 1.24425 3.491835 3.746805
v -2.933844E-09 3.136912 3.807215
v 1.497536 4.852757 3.932577
v 2.664004 4.65678 3.2696
v 2.587774 4.800417 3.219221
v 3.342628 4.180775 1.40997
v 1.47764 4.985069 3.838284
v 2.587774 4.800417 3.219221
v 3.444593 4.122772 1.334464
v 3.433811 4.269134 1.406512
v 3.447265 3.78492 -0.06698833
v 2.794871 1.544186 1.260773
v 2.641709 1.151522 -0.1002509
v -1.24425 3.491835 3.746805
v -1.497535 4.852757 3.932577
v 1.395993E-07 4.892605 4.09517
v 1.483085E-07 5.022895 3.996509
v 1.47764 4.985069 3.838284
v -1.47764 4.985069 3.838284
v 1.483085E-07 5.022895 3.996509
v -2.664004 4.65678 3.2696
v -2.587774 4.800417 3.219221
v -1.47764 4.985069 3.838284
v -3.342912 4.180637 1.409409
v -2.587774 4.800417 3.219221
v -3.445751 4.125191 1.331476
v -3.433615 4.271297 1.405537
v -3.461075 3.822169 -0.06849239
v -2.794872 1.544186 1.260773
v -2.64171 1.151522 -0.1002509
v 2.590414 4.952787 2.855303
v 3.346525 5.232273 0.9723877
v 3.433614 4.271309 1.405531
v 2.458457 5.965512 2.478106
v 2.656883 6.587789 1.350011
v 1.737605 7.534944 1.600423
v 1.482331 6.234818 3.129488
v -1.196687E-06 6.411034 3.445543
v 2.663738 6.695924 -0.4270178
v 3.36634 5.080173 -0.3286199
v 2.876951 4.928073 -1.629627
v 1.922052 5.614232 -2.72245
v 2.066924 2.793975 -3.370559
v -1.196687E-06 2.668302 -4.114276
v 1.729305 7.339428 -1.164442
v -1.196687E-06 5.919227 -3.056638
v -1.196687E-06 7.712475 -1.576098
v -1.922053 5.614232 -2.72245
v -2.066925 2.793975 -3.370559
v -2.876953 4.928073 -1.629627
v -1.196687E-06 7.915401 1.782935
v -1.737607 7.534944 1.600423
v -1.482333 6.234818 3.129488
v -2.458458 5.965512 2.478106
v -2.66374 6.695924 -0.4270178
v -3.366341 5.080173 -0.3286199
v -3.346526 5.232273 0.9723877
v -1.729308 7.339428 -1.164442
v -2.656885 6.587789 1.350011
v -3.433614 4.271309 1.405531
v -2.590415 4.952787 2.855303
v 1.402516 5.155655 3.550678
v 2.458457 5.965512 2.478106
v 2.590414 4.952787 2.855303
v 1.482331 6.234818 3.129488
v -1.196687E-06 5.21041 3.706891
v -1.196687E-06 6.411034 3.445543
v -2.590415 4.952787 2.855303
v -2.458458 5.965512 2.478106
v -1.482333 6.234818 3.129488
v -1.402518 5.155655 3.550678
v -1.196687E-06 6.411034 3.445543
v -1.196687E-06 5.21041 3.706891
v -3.163357 3.37078 -1.564036
v -1.773032 0.7588591 -1.461275
v -2.066925 2.793975 -3.370559
v -2.64171 1.151522 -0.1002509
v -3.461075 3.822169 -0.06849239
v 3.433614 4.271309 1.405531
v 3.346525 5.232273 0.9723877
v 3.36634 5.080173 -0.3286199
v 3.447265 3.78492 -0.06698833
v 3.129918 3.37078 -1.559175
v 2.876951 4.928073 -1.629627
v 2.066924 2.793975 -3.370559
v 2.066924 2.793975 -3.370559
v 1.773031 0.7588591 -1.461275
v 3.129918 3.37078 -1.559175
v 3.447265 3.78492 -0.06698833
v 2.641709 1.151522 -0.1002509
v -3.346526 5.232273 0.9723877
v -3.433614 4.271309 1.405531
v -3.461075 3.822169 -0.06849239
v -3.366341 5.080173 -0.3286199
v -2.876953 4.928073 -1.629627
v -3.163357 3.37078 -1.564036
v -2.066925 2.793975 -3.370559
v -3.433614 4.271309 1.405531
v -3.433615 4.271297 1.405537
v -3.445751 4.125191 1.331476
v -3.461075 3.822169 -0.06849239
v 1.402516 5.155655 3.550678
v -1.196861E-06 5.613737 2.697074
v -1.196687E-06 5.21041 3.706891
v 1.118307 5.547185 2.586882
v -0.0008368351 4.237664 0
v 2.590414 4.952787 2.855303
v 1.118307 5.547185 2.586882
v 1.402516 5.155655 3.550678
v 1.95611 5.328731 2.072297
v 3.433614 4.271309 1.405531
v 2.615645 4.275939 0.7736439
v -0.0008368351 4.237664 0
v 2.534756 4.403065 1.020952
v -1.196861E-06 5.613737 2.697074
v -1.118309 5.547185 2.586882
v -1.196687E-06 5.21041 3.706891
v -1.956111 5.328731 2.072298
v -1.402518 5.155655 3.550678
v -2.590415 4.952787 2.855303
v -1.956111 5.328731 2.072298
v -2.61955 4.274334 0.7692975
v -3.433614 4.271309 1.405531
v -1.956111 5.328731 2.072298
v -0.0008368351 4.237664 0
v -2.538661 4.401461 1.016605
v -1.924472 4.98112 2.745702
v -0.0008368351 4.237664 0
v -1.186738 5.113935 3.061216
v 1.430511E-07 5.119946 3.168394
v 1.186739 5.113935 3.061216
v 1.924472 4.98112 2.745702
v -3.433614 4.271309 1.405531
v -2.61955 4.274334 0.7692975
v -2.538661 4.401461 1.016605
v -3.342912 4.180637 1.409409
v -3.433615 4.271297 1.405537
v 3.433614 4.271309 1.405531
v 3.433811 4.269134 1.406512
v 3.342628 4.180775 1.40997
v 2.534756 4.403065 1.020952
v 2.587774 4.800417 3.219221
v 1.924472 4.98112 2.745702
v 3.433811 4.269134 1.406512
v 3.433614 4.271309 1.405531
v 3.447265 3.78492 -0.06698833
v 3.444593 4.122772 1.334464
v -2.587774 4.800417 3.219221
v -1.186738 5.113935 3.061216
v -1.47764 4.985069 3.838284
v -1.924472 4.98112 2.745702
v -3.342912 4.180637 1.409409
v -2.538661 4.401461 1.016605
v -2.587774 4.800417 3.219221
v -1.47764 4.985069 3.838284
v -1.186738 5.113935 3.061216
v 1.430511E-07 5.119946 3.168394
v 1.483085E-07 5.022895 3.996509
v 1.47764 4.985069 3.838284
v 1.186739 5.113935 3.061216
v 1.924472 4.98112 2.745702
v 2.587774 4.800417 3.219221
v 1.483085E-07 5.022895 3.996509
v 1.430511E-07 5.119946 3.168394
v 1.186739 5.113935 3.061216
v 1.47764 4.985069 3.838284
vt 0.8601705 0.02508675
vt 0.944307 0.02508687
vt 0.8601704 0.02508681
vt 0.8601704 0.02508681
vt 0.8601704 0.02508681
vt 0.6902857 0.0250868
vt 0.8261035 0.2090104
vt 0.858004 0.1318878
vt 0.7711639 0.1061936
vt 0.7716376 0.1759821
vt 0.8406631 0.2504585
vt 0.7175174 0.2092597
vt 0.6844689 0.132922
vt 0.7717568 0.2228292
vt 0.7029817 0.2507158
vt 0.7718759 0.2696763
vt 0.8552228 0.2919066
vt 0.7718935 0.3403241
vt 0.688446 0.2921719
vt 0.8393214 0.3446798
vt 0.9197559 0.3321758
vt 0.7044321 0.3447684
vt 0.6240656 0.3319753
vt 0.8151144 0.3949261
vt 0.7719098 0.3889418
vt 0.8314801 0.4326143
vt 0.8787009 0.4049773
vt 0.8810153 0.4072518
vt 0.922699 0.3341273
vt 0.8333443 0.4353654
vt 0.8786431 0.4089619
vt 0.9220925 0.3286006
vt 0.9227799 0.3340628
vt 0.9143538 0.2671112
vt 0.8552228 0.2919066
vt 0.8406631 0.2504585
vt 0.728705 0.3949572
vt 0.7123869 0.4326394
vt 0.7719404 0.4435731
vt 0.7724124 0.4469925
vt 0.8316779 0.4359872
vt 0.7121935 0.4360113
vt 0.771472 0.4469927
vt 0.6651388 0.4049778
vt 0.6652018 0.4089592
vt 0.7105264 0.4353896
vt 0.621116 0.3338827
vt 0.6628284 0.4072459
vt 0.6215797 0.3282958
vt 0.6210498 0.3338398
vt 0.6273994 0.2674113
vt 0.688446 0.2921719
vt 0.7029817 0.2507158
vt 0.05690342 0.4821484
vt 0.06761071 0.3664147
vt 0.01527213 0.3735413
vt 0.1194892 0.4747789
vt 0.1414263 0.4083849
vt 0.2049968 0.4300216
vt 0.1898956 0.5289375
vt 0.2940527 0.5480646
vt 0.1561939 0.3211352
vt 0.08224037 0.2912966
vt 0.116735 0.2196241
vt 0.1946759 0.1950042
vt 0.153885 0.0543638
vt 0.2928561 0.02039545
vt 0.2140104 0.3006466
vt 0.293446 0.1812313
vt 0.2937148 0.2910659
vt 0.3922953 0.1944986
vt 0.4320326 0.0535077
vt 0.4704001 0.2187362
vt 0.2939487 0.4467482
vt 0.3828369 0.429693
vt 0.3981423 0.5286059
vt 0.468369 0.4742323
vt 0.4313857 0.3205464
vt 0.5053226 0.2904369
vt 0.5200315 0.3656977
vt 0.3734768 0.3002895
vt 0.4463308 0.4078516
vt 0.5723833 0.3730239
vt 0.5308883 0.4815657
vt 0.7487908 0.7914354
vt 0.5729069 0.9830431
vt 0.5509272 0.803089
vt 0.7354962 0.984386
vt 0.9824026 0.7902374
vt 0.9824026 0.9920815
vt 0.5503928 0.803089
vt 0.5723726 0.9830431
vt 0.7349618 0.984386
vt 0.7482563 0.7914354
vt 0.981868 0.9920815
vt 0.981868 0.7902374
vt 0.6337489 0.2009828
vt 0.7175174 0.2092597
vt 0.6844689 0.132922
vt 0.7029817 0.2507158
vt 0.6273994 0.2674113
vt 0.01527213 0.3735413
vt 0.06761071 0.3664147
vt 0.08224037 0.2912966
vt 0.01717807 0.2682759
vt 0.06051952 0.1672398
vt 0.116735 0.2196241
vt 0.153885 0.0543638
vt 0.858004 0.1318878
vt 0.8261035 0.2090104
vt 0.9059279 0.2001597
vt 0.9143538 0.2671112
vt 0.8406631 0.2504585
vt 0.5200315 0.3656977
vt 0.5723833 0.3730239
vt 0.5688118 0.268417
vt 0.5053226 0.2904369
vt 0.4704001 0.2187362
vt 0.526893 0.1660675
vt 0.4320326 0.0535077
vt 0.5723833 0.3730239
vt 0.572384 0.373024
vt 0.578407 0.3648672
vt 0.5688118 0.268417
vt 0.6902858 0.0250868
vt 0.8601704 0.02508681
vt 0.6902857 0.0250868
vt 0.8601705 0.02508681
vt 0.944307 0.02508687
vt 0.6902858 0.0250868
vt 0.8601705 0.02508681
vt 0.6902858 0.0250868
vt 0.8601704 0.02508681
vt 0.6902857 0.0250868
vt 0.8601704 0.02508681
vt 0.944307 0.02508687
vt 0.8601704 0.02508681
vt 0.8601704 0.02508681
vt 0.8601705 0.02508681
vt 0.6902857 0.0250868
vt 0.8601704 0.02508675
vt 0.6902858 0.0250868
vt 0.6902858 0.0250868
vt 0.8601704 0.02508675
vt 0.8601704 0.02508681
vt 0.6902858 0.0250868
vt 0.8601704 0.02508675
vt 0.944307 0.02508687
vt 0.8601704 0.02508681
vt 0.8601704 0.02508681
vt 0.944307 0.02508687
vt 0.8601704 0.02508681
vt 0.8601704 0.02508681
vt 0.8601705 0.02508681
vt 0.8601705 0.02508675
vt 0.6902858 0.0250868
vt 0.8601704 0.02508681
vt 0.8601704 0.02508681
vt 0.7093139 0.02508686
vt 0.6902858 0.0250868
vt 0.6902857 0.0250868
vt 0.6902857 0.0250868
vt 0.7092854 0.0250868
vt 0.8601704 0.02508681
vt 0.712358 0.02508685
vt 0.8601705 0.02508675
vt 0.01514549 0.3735516
vt 0.01527213 0.3735413
vt 0.01717807 0.2682759
vt 0.00908867 0.3654702
vt 0.7123579 0.0250868
vt 0.8601704 0.02508681
vt 0.7113299 0.0250868
vt 0.8601704 0.02508681
vt 0.7093139 0.02508686
vt 0.8601704 0.02508681
vt 0.7123579 0.0250868
vt 0.7113299 0.0250868
vt 0.8601704 0.02508681
vt 0.8601704 0.02508681
vt 0.7114373 0.0250868
vt 0.7113299 0.02508685
vt 0.8601705 0.02508681
vt 0.8601705 0.02508675
vt 0.712358 0.02508685
vt 0.7114373 0.0250868
vt 0.8601704 0.02508681
vt 0.8601705 0.02508681
vt 0.7113299 0.02508685
vn 0.1870212 0.9644882 -0.1865089
vn -0.0002262481 0.4186186 0.9081621
vn 0.1694427 0.9503718 -0.2609265
vn 0.1694427 0.9503718 -0.2609265
vn -0.3279046 -0.8207049 0.4678909
vn 0.8484541 -0.2964545 0.4384522
vn 0.5385443 -0.7663962 -0.3501528
vn 0.507503 -0.1763288 -0.843415
vn 0 -0.1644706 -0.9863819
vn 0 -0.78938 -0.613905
vn 0.7139621 -0.6979572 -0.05580214
vn -0.5384672 -0.7674659 -0.3479212
vn -0.5063211 -0.1769795 -0.8439889
vn 0 -0.9970393 0.07689308
vn -0.7145172 -0.697761 -0.05093894
vn 0 -0.9613994 0.2751564
vn 0.6850928 -0.6694847 0.28712
vn 0 -0.7855389 0.6188124
vn -0.6859154 -0.6687468 0.286876
vn 0.4937861 -0.6180017 0.6117591
vn 0.919605 0.01728019 0.392464
vn -0.4937861 -0.6180016 0.6117592
vn -0.9205248 0.017398 0.3902967
vn 0.2862323 -0.2806278 0.9161435
vn 0 -0.3330607 0.9429054
vn 0.3275762 0.2047251 0.9223782
vn 0.7658609 0.1590483 0.6230254
vn 0.5496305 0.8143822 0.1862472
vn 0.6472094 0.7378928 0.1914008
vn 0.2141133 0.8520377 0.4776895
vn 0.5496305 0.8143822 0.1862472
vn 0.941242 -0.1568249 0.2991144
vn 0.7121761 0.6473 0.2716763
vn 0.9730689 -0.1911471 -0.1288398
vn 0.6850928 -0.6694847 0.28712
vn 0.7139621 -0.6979572 -0.05580214
vn -0.2862323 -0.2806278 0.9161435
vn -0.3275763 0.2047255 0.922378
vn 0 0.2382675 0.9711996
vn 0 0.8614455 0.5078499
vn 0.2141133 0.8520377 0.4776895
vn -0.2141134 0.8520377 0.4776893
vn 0 0.8614455 0.5078499
vn -0.7658593 0.1590138 0.6230362
vn -0.5497167 0.8142955 0.1863718
vn -0.2141134 0.8520377 0.4776893
vn -0.6486515 0.7371388 0.1894133
vn -0.5497167 0.8142955 0.1863718
vn -0.9417732 -0.1566388 0.2975354
vn -0.8985475 0.02763202 0.4380058
vn -0.974318 -0.1881041 -0.1237792
vn -0.6859154 -0.6687468 0.286876
vn -0.7145172 -0.697761 -0.05093894
vn 0.5154356 -0.4742022 0.7137636
vn 0.9532208 0.2541006 0.1637159
vn 0.8484541 -0.2964545 0.4384522
vn 0.7222285 0.4205549 0.549108
vn 0.7475414 0.6322321 0.2036279
vn 0.3810172 0.8976512 0.2214684
vn 0.357698 0.5651959 0.7433746
vn 0 0.6077077 0.7941607
vn 0.7736546 0.5952092 -0.2172204
vn 0.9634532 0.1905555 -0.1882726
vn 0.8503811 0.266382 -0.4537539
vn 0.4446274 0.4120608 -0.7953066
vn 0.507503 -0.1763288 -0.843415
vn 0 -0.1644706 -0.9863819
vn 0.4328847 0.8242866 -0.3649144
vn 0 0.4490147 -0.8935244
vn 0 0.905543 -0.4242546
vn -0.4446274 0.4120607 -0.7953066
vn -0.5063211 -0.1769795 -0.8439889
vn -0.8477362 0.2725498 -0.4550385
vn 0 0.9689949 0.2470807
vn -0.3810173 0.8976511 0.2214685
vn -0.3576981 0.5651959 0.7433746
vn -0.7222287 0.4205547 0.5491078
vn -0.7736548 0.5952088 -0.2172204
vn -0.9617407 0.2002582 -0.1869533
vn -0.9518155 0.2578802 0.1659667
vn -0.4328849 0.8242865 -0.3649144
vn -0.7475417 0.6322319 0.203628
vn -0.8985475 0.02763202 0.4380058
vn -0.5150009 -0.4748696 0.7136335
vn 0.239837 -0.4950471 0.8351088
vn 0.7222285 0.4205549 0.549108
vn 0.5154356 -0.4742022 0.7137636
vn 0.357698 0.5651959 0.7433746
vn 0 -0.5064238 0.8622847
vn 0 0.6077077 0.7941607
vn -0.5150009 -0.4748696 0.7136335
vn -0.7222287 0.4205547 0.5491078
vn -0.3576981 0.5651959 0.7433746
vn -0.2398372 -0.4950468 0.8351088
vn 0 0.6077077 0.7941607
vn 0 -0.5064238 0.8622847
vn -0.910991 -0.2322352 -0.3408259
vn -0.5384672 -0.7674659 -0.3479212
vn -0.5063211 -0.1769795 -0.8439889
vn -0.7145172 -0.697761 -0.05093894
vn -0.974318 -0.1881041 -0.1237792
vn 0.8484541 -0.2964545 0.4384522
vn 0.9532208 0.2541006 0.1637159
vn 0.9634532 0.1905555 -0.1882726
vn 0.9730689 -0.1911471 -0.1288398
vn 0.9110275 -0.2308789 -0.3416489
vn 0.8503811 0.266382 -0.4537539
vn 0.507503 -0.1763288 -0.843415
vn 0.507503 -0.1763288 -0.843415
vn 0.5385443 -0.7663962 -0.3501528
vn 0.9110275 -0.2308789 -0.3416489
vn 0.9730689 -0.1911471 -0.1288398
vn 0.7139621 -0.6979572 -0.05580214
vn -0.9518155 0.2578802 0.1659667
vn -0.8985475 0.02763202 0.4380058
vn -0.974318 -0.1881041 -0.1237792
vn -0.9617407 0.2002582 -0.1869533
vn -0.8477362 0.2725498 -0.4550385
vn -0.910991 -0.2322352 -0.3408259
vn -0.5063211 -0.1769795 -0.8439889
vn -0.8985475 0.02763202 0.4380058
vn -0.8985475 0.02763202 0.4380058
vn -0.9417732 -0.1566388 0.2975354
vn -0.974318 -0.1881041 -0.1237792
vn 0.239837 -0.4950471 0.8351088
vn -8.990619E-07 -0.9973142 0.07324255
vn 0 -0.5064238 0.8622847
vn -0.1060656 -0.9921095 0.06684884
vn -0.0002262481 0.4186186 0.9081621
vn 0.5154356 -0.4742022 0.7137636
vn -0.1060656 -0.9921095 0.06684884
vn 0.239837 -0.4950471 0.8351088
vn -0.2664207 -0.9182118 0.2930993
vn 0.8484541 -0.2964545 0.4384522
vn -0.3279046 -0.8207049 0.4678909
vn -0.0002262481 0.4186186 0.9081621
vn 0.1694427 0.9503718 -0.2609265
vn -8.990619E-07 -0.9973142 0.07324255
vn 0.1060784 -0.9921101 0.06682092
vn 0 -0.5064238 0.8622847
vn 0.2663163 -0.918284 0.2929678
vn -0.2398372 -0.4950468 0.8351088
vn -0.5150009 -0.4748696 0.7136335
vn 0.2663163 -0.918284 0.2929678
vn 0.327328 -0.8212618 0.4673174
vn -0.8985475 0.02763202 0.4380058
vn 0.2663163 -0.918284 0.2929678
vn -0.0002262481 0.4186186 0.9081621
vn -0.1692675 0.9503912 -0.2609697
vn -0.1869646 0.9644955 -0.1865282
vn -0.0002262481 0.4186186 0.9081621
vn -0.04913034 0.9919383 -0.1168101
vn -2.077309E-06 0.9933676 -0.1149814
vn 0.04913478 0.9919368 -0.1168212
vn 0.1870212 0.9644882 -0.1865089
vn -0.8985475 0.02763202 0.4380058
vn 0.327328 -0.8212618 0.4673174
vn -0.1692675 0.9503912 -0.2609697
vn -0.6486515 0.7371388 0.1894133
vn -0.8985475 0.02763202 0.4380058
vn 0.8484541 -0.2964545 0.4384522
vn 0.7121761 0.6473 0.2716763
vn 0.6472094 0.7378928 0.1914008
vn 0.1694427 0.9503718 -0.2609265
vn 0.5496305 0.8143822 0.1862472
vn 0.1870212 0.9644882 -0.1865089
vn 0.7121761 0.6473 0.2716763
vn 0.8484541 -0.2964545 0.4384522
vn 0.9730689 -0.1911471 -0.1288398
vn 0.941242 -0.1568249 0.2991144
vn -0.5497167 0.8142955 0.1863718
vn -0.04913034 0.9919383 -0.1168101
vn -0.2141134 0.8520377 0.4776893
vn -0.1869646 0.9644955 -0.1865282
vn -0.6486515 0.7371388 0.1894133
vn -0.1692675 0.9503912 -0.2609697
vn -0.5497167 0.8142955 0.1863718
vn -0.2141134 0.8520377 0.4776893
vn -0.04913034 0.9919383 -0.1168101
vn -2.077309E-06 0.9933676 -0.1149814
vn 0 0.8614455 0.5078499
vn 0.2141133 0.8520377 0.4776895
vn 0.04913478 0.9919368 -0.1168212
vn 0.1870212 0.9644882 -0.1865089
vn 0.5496305 0.8143822 0.1862472
vn 0 0.8614455 0.5078499
vn -2.077309E-06 0.9933676 -0.1149814
vn 0.04913478 0.9919368 -0.1168212
vn 0.2141133 0.8520377 0.4776895
g Body_0
f 3/3/3 2/2/2 1/1/1
f 6/6/6 5/5/5 4/4/4
f 9/9/9 8/8/8 7/7/7
f 10/10/10 9/9/9 7/7/7
f 10/10/10 7/7/7 11/11/11
f 9/9/9 10/10/10 12/12/12
f 13/13/13 9/9/9 12/12/12
f 12/12/12 10/10/10 14/14/14
f 14/14/14 10/10/10 11/11/11
f 15/15/15 12/12/12 14/14/14
f 14/14/14 11/11/11 16/16/16
f 15/15/15 14/14/14 16/16/16
f 11/11/11 17/17/17 16/16/16
f 16/16/16 17/17/17 18/18/18
f 19/19/19 15/15/15 16/16/16
f 19/19/19 16/16/16 18/18/18
f 17/17/17 20/20/20 18/18/18
f 17/17/17 21/21/21 20/20/20
f 22/22/22 19/19/19 18/18/18
f 23/23/23 19/19/19 22/22/22
f 20/20/20 24/24/24 18/18/18
f 24/24/24 25/25/25 18/18/18
f 26/26/26 24/24/24 20/20/20
f 24/24/24 26/26/26 25/25/25
f 21/21/21 27/27/27 20/20/20
f 27/27/27 26/26/26 20/20/20
f 27/27/27 21/21/21 28/28/28
f 21/21/21 29/29/29 28/28/28
f 26/26/26 27/27/27 30/30/30
f 27/27/27 31/31/31 30/30/30
f 21/21/21 32/32/32 29/29/29
f 32/32/32 33/33/33 29/29/29
f 34/34/34 32/32/32 21/21/21
f 34/34/34 21/21/21 35/35/35
f 35/35/35 36/36/36 34/34/34
f 25/25/25 37/37/37 18/18/18
f 37/37/37 22/22/22 18/18/18
f 38/38/38 37/37/37 25/25/25
f 37/37/37 38/38/38 22/22/22
f 26/26/26 39/39/39 25/25/25
f 39/39/39 38/38/38 25/25/25
f 39/39/39 26/26/26 40/40/40
f 26/26/26 41/41/41 40/40/40
f 38/38/38 39/39/39 42/42/42
f 39/39/39 43/43/43 42/42/42
f 38/38/38 44/44/44 22/22/22
f 44/44/44 23/23/23 22/22/22
f 44/44/44 38/38/38 45/45/45
f 38/38/38 46/46/46 45/45/45
f 47/47/47 23/23/23 44/44/44
f 48/48/48 47/47/47 44/44/44
f 49/49/49 23/23/23 47/47/47
f 50/50/50 49/49/49 47/47/47
f 23/23/23 49/49/49 51/51/51
f 52/52/52 23/23/23 51/51/51
f 51/51/51 53/53/53 52/52/52
f 56/56/56 55/55/55 54/54/54
f 55/55/55 57/57/57 54/54/54
f 55/55/55 58/58/58 57/57/57
f 57/57/57 58/58/58 59/59/59
f 60/60/60 57/57/57 59/59/59
f 61/61/61 60/60/60 59/59/59
f 58/58/58 55/55/55 62/62/62
f 59/59/59 58/58/58 62/62/62
f 63/63/63 62/62/62 55/55/55
f 63/63/63 64/64/64 62/62/62
f 62/62/62 64/64/64 65/65/65
f 65/65/65 64/64/64 66/66/66
f 66/66/66 67/67/67 65/65/65
f 68/68/68 62/62/62 65/65/65
f 68/68/68 59/59/59 62/62/62
f 67/67/67 69/69/69 65/65/65
f 65/65/65 69/69/69 68/68/68
f 68/68/68 70/70/70 59/59/59
f 69/69/69 70/70/70 68/68/68
f 69/69/69 67/67/67 71/71/71
f 70/70/70 69/69/69 71/71/71
f 67/67/67 72/72/72 71/71/71
f 73/73/73 71/71/71 72/72/72
f 74/74/74 61/61/61 59/59/59
f 70/70/70 74/74/74 59/59/59
f 61/61/61 74/74/74 75/75/75
f 74/74/74 70/70/70 75/75/75
f 76/76/76 61/61/61 75/75/75
f 77/77/77 76/76/76 75/75/75
f 73/73/73 78/78/78 71/71/71
f 78/78/78 73/73/73 79/79/79
f 78/78/78 79/79/79 80/80/80
f 81/81/81 70/70/70 71/71/71
f 70/70/70 81/81/81 75/75/75
f 78/78/78 81/81/81 71/71/71
f 75/75/75 81/81/81 78/78/78
f 82/82/82 75/75/75 78/78/78
f 78/78/78 80/80/80 82/82/82
f 82/82/82 77/77/77 75/75/75
f 82/82/82 80/80/80 77/77/77
f 77/77/77 80/80/80 83/83/83
f 84/84/84 77/77/77 83/83/83
f 87/87/87 86/86/86 85/85/85
f 86/86/86 88/88/88 85/85/85
f 85/85/85 88/88/88 89/89/89
f 88/88/88 90/90/90 89/89/89
f 93/93/93 92/92/92 91/91/91
f 94/94/94 93/93/93 91/91/91
f 95/95/95 93/93/93 94/94/94
f 96/96/96 95/95/95 94/94/94
f 99/99/99 98/98/98 97/97/97
f 97/97/97 98/98/98 100/100/100
f 101/101/101 97/97/97 100/100/100
f 104/104/104 103/103/103 102/102/102
f 105/105/105 104/104/104 102/102/102
f 104/104/104 105/105/105 106/106/106
f 107/107/107 104/104/104 106/106/106
f 107/107/107 106/106/106 108/108/108
f 111/111/111 110/110/110 109/109/109
f 110/110/110 111/111/111 112/112/112
f 113/113/113 110/110/110 112/112/112
f 116/116/116 115/115/115 114/114/114
f 117/117/117 116/116/116 114/114/114
f 117/117/117 118/118/118 116/116/116
f 118/118/118 119/119/119 116/116/116
f 120/120/120 119/119/119 118/118/118
f 123/123/123 122/122/122 121/121/121
f 124/124/124 123/123/123 121/121/121
f 127/127/127 126/126/126 125/125/125
f 126/126/126 128/128/128 125/125/125
f 126/126/126 129/129/129 128/128/128
f 132/132/132 131/131/131 130/130/130
f 131/131/131 133/133/133 130/130/130
f 130/130/130 133/133/133 134/134/134
f 133/133/133 135/135/135 134/134/134
f 131/131/131 136/136/136 133/133/133
f 133/133/133 136/136/136 135/135/135
f 135/135/135 136/136/136 137/137/137
f 139/139/139 136/136/136 138/138/138
f 139/139/139 138/138/138 140/140/140
f 141/141/141 136/136/136 139/139/139
f 142/142/142 139/139/139 140/140/140
f 141/141/141 139/139/139 142/142/142
f 143/143/143 141/141/141 142/142/142
f 145/145/145 144/144/144 143/143/143
f 146/146/146 145/145/145 143/143/143
f 145/145/145 148/148/148 147/147/147
f 149/149/149 148/148/148 145/145/145
f 150/150/150 148/148/148 149/149/149
f 152/152/152 151/151/151 150/150/150
f 153/153/153 151/151/151 152/152/152
f 154/154/154 151/151/151 153/153/153
f 155/155/155 151/151/151 154/154/154
f 158/158/158 157/157/157 156/156/156
f 156/156/156 159/159/159 158/158/158
f 156/156/156 160/160/160 159/159/159
f 163/163/163 162/162/162 161/161/161
f 164/164/164 163/163/163 161/161/161
f 163/163/163 164/164/164 165/165/165
f 164/164/164 166/166/166 165/165/165
f 169/169/169 168/168/168 167/167/167
f 170/170/170 169/169/169 167/167/167
f 173/173/173 172/172/172 171/171/171
f 172/172/172 174/174/174 171/171/171
f 174/174/174 176/176/176 175/175/175
f 177/177/177 174/174/174 175/175/175
f 180/180/180 179/179/179 178/178/178
f 181/181/181 180/180/180 178/178/178
f 184/184/184 183/183/183 182/182/182
f 185/185/185 184/184/184 182/182/182
f 188/188/188 187/187/187 186/186/186
f 189/189/189 188/188/188 186/186/186
