g BodySash
v 1.192224 6.050714 2.896492
v 1.507161 5.900809 2.405395
v 1.599663 5.111115 2.766077
v 1.245789 5.258885 3.310605
v 0.6625181 5.950627 2.763827
v 0.7026784 5.164435 3.153754
v 1.17275 6.559599 2.6547
v 1.404675 6.469037 2.203585
v 1.252553 6.178586 2.399639
v 1.126968 6.210142 2.630534
v 0.6906993 6.510757 2.499904
v 0.8893984 6.199897 2.551894
v 1.076393 6.818835 2.369056
v 1.228221 6.785133 2.124024
v 1.404675 6.469037 2.203585
v 1.17275 6.559599 2.6547
v 0.8174146 6.810362 2.302056
v 0.6906993 6.510757 2.499904
v 1.126968 6.210142 2.630534
v 1.252553 6.178586 2.399639
v 1.507161 5.900809 2.405395
v 1.192224 6.050714 2.896492
v 0.8893984 6.199897 2.551894
v 0.6625181 5.950627 2.763827
v 0.7759617 7.969279 2.017186
v 1.076393 6.818835 2.369056
v 0.8174146 6.810362 2.302056
v 1.043349 7.975431 2.106551
v 0.9697817 8.074072 1.931129
v 1.228221 6.785133 2.124024
v 1.176469 7.941015 1.896457
vt 0.29764 0.7912185
vt 0.3105094 0.7912185
vt 0.3113567 0.7677457
vt 0.2978818 0.7677457
vt 0.2852541 0.7912185
vt 0.2844068 0.7677457
vt 0.2981804 0.8209174
vt 0.3096152 0.8209174
vt 0.3041711 0.8120714
vt 0.2978482 0.8120714
vt 0.287641 0.8209174
vt 0.2924456 0.8120714
vt 0.2978326 0.7651563
vt 0.3041711 0.7651563
vt 0.3096152 0.7560536
vt 0.2981804 0.7560536
vt 0.2924456 0.7651563
vt 0.287641 0.7560536
vt 0.2978482 0.752342
vt 0.3041711 0.752342
vt 0.3105094 0.7446953
vt 0.29764 0.7446953
vt 0.2924456 0.752342
vt 0.2852541 0.7446953
vt 0.3041712 0.7690468
vt 0.2987841 0.7998645
vt 0.3041712 0.7998645
vt 0.2983994 0.7690468
vt 0.2985802 0.7657694
vt 0.2924456 0.7998645
vt 0.2924456 0.7690468
vn 0.3769326 0.5192173 0.7670302
vn 0.8285954 0.3548608 0.4330168
vn 0.8382894 0.3003494 0.4550395
vn 0.3465838 0.4515001 0.8222088
vn -0.3051333 0.4744549 0.8257034
vn -0.306556 0.4176143 0.8553489
vn 0.3864439 0.3457988 0.8550347
vn 0.8611886 0.2986682 0.4112803
vn 0.8689989 0.2729335 0.4127326
vn 0.3635381 0.511432 0.7786381
vn -0.3016253 0.3821211 0.873502
vn -0.3216825 0.4048713 0.8559203
vn 0.3453597 0.4284596 0.8349544
vn 0.840885 0.2876776 0.4584255
vn 0.8611886 0.2986682 0.4112803
vn 0.3864439 0.3457988 0.8550347
vn -0.2850188 0.3595035 0.8885501
vn -0.3016253 0.3821211 0.873502
vn 0.3635381 0.511432 0.7786381
vn 0.8689989 0.2729335 0.4127326
vn 0.8285954 0.3548608 0.4330168
vn 0.3769326 0.5192173 0.7670302
vn -0.3216825 0.4048713 0.8559203
vn -0.3051333 0.4744549 0.8257034
vn -0.2832198 0.2391328 0.9287637
vn 0.3453597 0.4284596 0.8349544
vn -0.2850188 0.3595035 0.8885501
vn 0.3394892 0.2611529 0.9036294
vn 0.1543217 0.8874478 0.4343052
vn 0.840885 0.2876776 0.4584255
vn 0.8467377 0.168546 0.5046062
g BodySash_0
f 3/3/3 2/2/2 1/1/1
f 4/4/4 3/3/3 1/1/1
f 4/4/4 1/1/1 5/5/5
f 6/6/6 4/4/4 5/5/5
f 9/9/9 8/8/8 7/7/7
f 10/10/10 9/9/9 7/7/7
f 10/10/10 7/7/7 11/11/11
f 12/12/12 10/10/10 11/11/11
f 15/15/15 14/14/14 13/13/13
f 16/16/16 15/15/15 13/13/13
f 16/16/16 13/13/13 17/17/17
f 18/18/18 16/16/16 17/17/17
f 21/21/21 20/20/20 19/19/19
f 22/22/22 21/21/21 19/19/19
f 22/22/22 19/19/19 23/23/23
f 24/24/24 22/22/22 23/23/23
f 27/27/27 26/26/26 25/25/25
f 26/26/26 28/28/28 25/25/25
f 25/25/25 28/28/28 29/29/29
f 26/26/26 30/30/30 28/28/28
f 28/28/28 31/31/31 29/29/29
f 30/30/30 31/31/31 28/28/28
