g Bottom
v -7.806713 6.25199 5.598985
v -7.806713 6.744017 5.598984
v -6.691468 6.692883 5.598984
v -6.691469 6.25199 5.598985
v -8.921957 6.25199 2.762896
v -8.921957 6.664023 2.762896
v -8.921957 6.741282 4.287254
v -8.921957 6.25199 4.287254
v -8.921958 6.25199 -2.762896
v -8.921958 6.664023 -2.762896
v -8.921957 6.664023 2.762896
v -8.921957 6.25199 2.762896
v -8.921958 6.25199 -4.287254
v -8.921958 6.741282 -4.287254
v -8.921958 6.664023 -2.762896
v -8.921958 6.25199 -2.762896
v -7.806713 6.744017 -5.598984
v -7.806713 6.25199 -5.598984
v -6.691468 6.25199 -5.598984
v -6.691468 6.692883 -5.598984
v -6.691468 6.692883 -5.598984
v -6.691468 6.25199 -5.598984
v 6.691468 6.25199 -5.598984
v 6.691468 6.692883 -5.598984
v 7.806713 6.25199 -5.598984
v 7.806713 6.744017 -5.598984
v 6.691468 6.692883 -5.598984
v 6.691468 6.25199 -5.598984
v 8.921958 6.741282 -4.287254
v 8.921958 6.25199 -4.287254
v 8.921958 6.25199 -2.762896
v 8.921958 6.664023 -2.762896
v 8.921957 6.25199 2.762896
v 8.921957 6.664023 2.762896
v 8.921958 6.664023 -2.762896
v 8.921958 6.25199 -2.762896
v 8.921957 6.25199 4.287254
v 8.921957 6.741282 4.287254
v 8.921957 6.664023 2.762896
v 8.921957 6.25199 2.762896
v 7.806713 6.744017 5.598984
v 7.806713 6.25199 5.598985
v 6.691469 6.25199 5.598985
v 6.691468 6.692883 5.598984
v 6.691468 6.692883 5.598984
v 6.691469 6.25199 5.598985
v -6.691469 6.25199 5.598985
v -6.691468 6.692883 5.598984
v 6.691468 6.25199 -5.598984
v -6.691468 6.25199 -5.598984
v -6.691468 1.555779 -5.598984
v 6.691468 1.555779 -5.598984
v -7.806713 0.667166 -5.598984
v -6.691468 6.25199 -5.598984
v -7.806713 6.25199 -5.598984
v -6.691468 1.555779 -5.598984
v 6.691468 1.555779 -5.598984
v 7.806713 0.667166 -5.598984
v 6.691468 6.25199 -5.598984
v 7.806713 6.25199 -5.598984
v -8.921958 6.25199 -2.762896
v -8.921957 6.25199 2.762896
v -8.921957 2.629226 2.762896
v -8.921957 2.629226 -2.762896
v -8.921957 1.067818 4.287254
v -8.921957 6.25199 2.762896
v -8.921957 6.25199 4.287254
v -8.921957 2.629226 2.762896
v -8.921957 2.629226 -2.762896
v -8.921957 1.067818 -4.287254
v -8.921958 6.25199 -2.762896
v -8.921958 6.25199 -4.287254
v 6.691468 1.555779 5.598984
v -6.691468 1.555779 5.598984
v -6.691469 6.25199 5.598985
v 6.691469 6.25199 5.598985
v 7.806713 0.6671656 5.598984
v 6.691469 6.25199 5.598985
v 7.806713 6.25199 5.598985
v 6.691468 1.555779 5.598984
v -6.691468 1.555779 5.598984
v -7.806713 0.6671656 5.598984
v -6.691469 6.25199 5.598985
v -7.806713 6.25199 5.598985
v 8.921957 2.629226 -2.762896
v 8.921957 2.629226 2.762896
v 8.921957 6.25199 2.762896
v 8.921958 6.25199 -2.762896
v 8.921957 1.067819 -4.287254
v 8.921958 6.25199 -2.762896
v 8.921958 6.25199 -4.287254
v 8.921957 2.629226 -2.762896
v 8.921957 2.629226 2.762896
v 8.921957 1.067818 4.287254
v 8.921957 6.25199 2.762896
v 8.921957 6.25199 4.287254
v -7.701047 7.492354 4.442822
v -6.97054 1.645311 4.021385
v 6.97054 1.645311 4.021385
v 7.701047 7.492354 4.442822
v 7.701047 7.492354 4.442822
v 6.97054 1.645311 4.021385
v 6.97054 1.645311 -4.021385
v 7.701047 7.492354 -4.442822
v 7.701047 7.492354 -4.442822
v 6.97054 1.645311 -4.021385
v -6.97054 1.645311 -4.021385
v -7.701047 7.492354 -4.442822
v -7.701047 7.492354 -4.442822
v -6.97054 1.645311 -4.021385
v -6.97054 1.645311 4.021385
v -7.701047 7.492354 4.442822
v 6.97054 1.645311 4.021385
v -6.97054 1.645311 4.021385
v -6.97054 1.645311 -4.021385
v 6.97054 1.645311 -4.021385
v -8.48997 -7.629394E-08 -5.205699
v 8.48997 -7.629394E-08 -5.205699
v 8.818046 0.3280753 -5.533775
v -8.818046 0.3280753 -5.533775
v -8.818047 6.677967 -5.533775
v 8.818047 6.677967 -5.533775
v -8.818046 0.3280753 -5.533775
v -8.48997 -7.629394E-08 5.205698
v -8.48997 -7.629394E-08 -5.205699
v -8.818046 0.3280753 5.533774
v -8.818047 6.677967 -5.533775
v -8.818046 6.677967 5.533774
v 8.48997 -7.629394E-08 -5.205699
v 8.48997 -7.629394E-08 5.205698
v 8.818046 0.3280753 5.533774
v 8.818046 0.3280753 -5.533775
v 8.818046 6.677967 5.533774
v 8.818047 6.677967 -5.533775
v -8.818046 0.3280753 5.533774
v 8.48997 -7.629394E-08 5.205698
v -8.48997 -7.629394E-08 5.205698
v 8.818046 0.3280753 5.533774
v -8.818046 6.677967 5.533774
v 8.818046 6.677967 5.533774
v 8.48997 -7.629394E-08 -5.205699
v -8.48997 -7.629394E-08 -5.205699
v -8.48997 -7.629394E-08 5.205698
v 8.48997 -7.629394E-08 5.205698
v -8.818047 6.677967 -5.533775
v -8.818046 7.164279 5.533774
v -8.818046 6.677967 5.533774
v -8.818046 7.164279 -5.533774
v 8.818046 7.164279 5.533774
v 8.818047 6.677967 -5.533775
v 8.818046 6.677967 5.533774
v 8.818046 7.164279 -5.533774
v -8.818046 7.164279 5.533774
v -7.701047 7.492354 4.442822
v 7.701047 7.492354 4.442822
v 8.818046 7.164279 5.533774
v -8.818046 7.164279 -5.533774
v 7.701047 7.492354 -4.442822
v -7.701047 7.492354 -4.442822
v 8.818046 7.164279 -5.533774
v 6.418005 7.191743 -5.314726
v 4.146609 7.191743 -5.314726
v 4.146609 7.467344 -4.931819
v 6.418005 7.467344 -4.931819
v 6.418005 7.692358 -5.818907
v 6.418005 7.579851 -5.375364
v 4.146609 7.911706 -5.214229
v 4.146609 7.579851 -5.375364
v 6.418005 7.911706 -5.214229
v 4.146609 7.692357 -5.818908
v 6.418005 8.024213 -5.657774
v 4.146609 8.024213 -5.657774
v -6.418005 7.191743 -5.314726
v -6.418005 7.467344 -4.931819
v -4.146609 7.467344 -4.931819
v -4.146609 7.191743 -5.314726
v -4.146609 7.911706 -5.214229
v -4.146609 7.579851 -5.375364
v -6.418005 7.692358 -5.818907
v -6.418005 7.579851 -5.375364
v -6.418005 7.911706 -5.214229
v -4.146609 8.024213 -5.657774
v -4.146609 7.692357 -5.818908
v -6.418005 8.024213 -5.657774
v 6.418005 7.191743 5.359554
v 6.418005 7.467344 4.976648
v 4.146609 7.467344 4.976648
v 4.146609 7.191743 5.359554
v 4.146609 7.911706 5.259058
v 4.146609 7.579851 5.420192
v 6.418005 7.692358 5.863736
v 6.418005 7.579851 5.420192
v 6.418005 7.911706 5.259058
v 4.146609 8.024213 5.702603
v 4.146609 7.692357 5.863737
v 6.418005 8.024213 5.702603
v -6.418005 7.191743 5.359554
v -4.146609 7.191743 5.359554
v -4.146609 7.467344 4.976648
v -6.418005 7.467344 4.976648
v -6.418005 7.692358 5.863736
v -6.418005 7.579851 5.420192
v -4.146609 7.911706 5.259058
v -4.146609 7.579851 5.420192
v -6.418005 7.911706 5.259058
v -4.146609 7.692357 5.863737
v -6.418005 8.024213 5.702603
v -4.146609 8.024213 5.702603
vt 0.957172 0.7463646
vt 0.957172 0.7463646
vt 0.957172 0.7463646
vt 0.957172 0.7463646
vt 0.957172 0.7463646
vt 0.957172 0.7463646
vt 0.957172 0.7463646
vt 0.957172 0.7463646
vt 0.957172 0.9383505
vt 0.957172 0.9383504
vt 0.957172 0.9383504
vt 0.957172 0.9383505
vt 0.957172 0.7463646
vt 0.957172 0.7463646
vt 0.957172 0.7463646
vt 0.957172 0.7463646
vt 0.957172 0.7463646
vt 0.957172 0.7463646
vt 0.957172 0.7463646
vt 0.957172 0.7463646
vt 0.957172 0.9383505
vt 0.957172 0.9383505
vt 0.957172 0.9383505
vt 0.957172 0.9383505
vt 0.957172 0.7463646
vt 0.957172 0.7463646
vt 0.957172 0.7463646
vt 0.957172 0.7463646
vt 0.957172 0.7463646
vt 0.957172 0.7463646
vt 0.957172 0.7463646
vt 0.957172 0.7463646
vt 0.957172 0.9383505
vt 0.957172 0.9383504
vt 0.957172 0.9383504
vt 0.957172 0.9383505
vt 0.957172 0.7463646
vt 0.957172 0.7463646
vt 0.957172 0.7463646
vt 0.957172 0.7463646
vt 0.957172 0.7463646
vt 0.957172 0.7463646
vt 0.957172 0.7463646
vt 0.957172 0.7463646
vt 0.957172 0.9383505
vt 0.957172 0.9383505
vt 0.957172 0.9383505
vt 0.957172 0.9383505
vt 0.957172 0.8397307
vt 0.957172 0.8397307
vt 0.957172 0.8397307
vt 0.957172 0.8397307
vt 0.957172 0.6645514
vt 0.957172 0.6645514
vt 0.957172 0.6645514
vt 0.957172 0.6645514
vt 0.957172 0.6645514
vt 0.957172 0.6645514
vt 0.957172 0.6645514
vt 0.957172 0.6645514
vt 0.957172 0.8397307
vt 0.957172 0.8397307
vt 0.957172 0.8397307
vt 0.957172 0.8397307
vt 0.957172 0.6645514
vt 0.957172 0.6645514
vt 0.957172 0.6645514
vt 0.957172 0.6645514
vt 0.957172 0.6645514
vt 0.957172 0.6645514
vt 0.957172 0.6645514
vt 0.957172 0.6645514
vt 0.957172 0.8397307
vt 0.957172 0.8397307
vt 0.957172 0.8397307
vt 0.957172 0.8397307
vt 0.957172 0.6645514
vt 0.957172 0.6645514
vt 0.957172 0.6645514
vt 0.957172 0.6645514
vt 0.957172 0.6645514
vt 0.957172 0.6645514
vt 0.957172 0.6645514
vt 0.957172 0.6645514
vt 0.957172 0.8397307
vt 0.957172 0.8397307
vt 0.957172 0.8397307
vt 0.957172 0.8397307
vt 0.957172 0.6645514
vt 0.957172 0.6645514
vt 0.957172 0.6645514
vt 0.957172 0.6645514
vt 0.957172 0.6645514
vt 0.957172 0.6645514
vt 0.957172 0.6645514
vt 0.957172 0.6645514
vt 0.7124928 0.7297215
vt 0.7124928 0.7297215
vt 0.7124928 0.7297215
vt 0.7124928 0.7297215
vt 0.6994634 0.6239257
vt 0.6994634 0.6239257
vt 0.6994634 0.6239257
vt 0.6994634 0.6239257
vt 0.7124928 0.7297215
vt 0.7124928 0.7297215
vt 0.7124928 0.7297215
vt 0.7124928 0.7297215
vt 0.6994633 0.6239257
vt 0.6994633 0.6239257
vt 0.6994633 0.6239257
vt 0.6994633 0.6239257
vt 0.957172 0.8424407
vt 0.957172 0.8424407
vt 0.957172 0.8424407
vt 0.957172 0.8424407
vt 0.8331378 0.628702
vt 0.8331378 0.6287021
vt 0.8331378 0.6287021
vt 0.8331378 0.6287021
vt 0.8331378 0.6287021
vt 0.8331378 0.6287021
vt 0.7244035 0.3171757
vt 0.7244036 0.3171757
vt 0.7244036 0.3171757
vt 0.7244035 0.3171757
vt 0.7244035 0.3171757
vt 0.7244035 0.3171757
vt 0.7244036 0.3171757
vt 0.7244036 0.3171757
vt 0.7244036 0.3171757
vt 0.7244036 0.3171757
vt 0.7244036 0.3171757
vt 0.7244036 0.3171757
vt 0.8331378 0.6287021
vt 0.8331378 0.6287021
vt 0.8331378 0.6287021
vt 0.8331378 0.6287021
vt 0.8331378 0.6287021
vt 0.8331378 0.6287021
vt 0.957172 0.3216183
vt 0.957172 0.3216183
vt 0.957172 0.3216182
vt 0.957172 0.3216182
vt 0.7508324 0.6430406
vt 0.7508325 0.6430406
vt 0.7508324 0.6430406
vt 0.7508324 0.6430406
vt 0.7508324 0.6430406
vt 0.7508324 0.6430406
vt 0.7508324 0.6430406
vt 0.7508324 0.6430406
vt 0.8375401 0.3087985
vt 0.83754 0.3087985
vt 0.83754 0.3087985
vt 0.8375401 0.3087985
vt 0.83754 0.3087985
vt 0.83754 0.3087985
vt 0.83754 0.3087985
vt 0.8375401 0.3087985
vt 0.1493531 0.9473442
vt 0.1493531 0.9473442
vt 0.1493531 0.9473442
vt 0.1493531 0.9473442
vt 0.1493531 0.9473442
vt 0.1493531 0.9473442
vt 0.1493531 0.9473442
vt 0.1493531 0.9473442
vt 0.1493531 0.9473442
vt 0.1493531 0.9473442
vt 0.1493531 0.9473442
vt 0.1493531 0.9473442
vt 0.1493531 0.9473442
vt 0.1493531 0.9473442
vt 0.1493531 0.9473442
vt 0.1493531 0.9473442
vt 0.1493531 0.9473442
vt 0.1493531 0.9473442
vt 0.1493531 0.9473442
vt 0.1493531 0.9473442
vt 0.1493531 0.9473442
vt 0.1493531 0.9473442
vt 0.1493531 0.9473442
vt 0.1493531 0.9473442
vt 0.1493531 0.9473442
vt 0.1493531 0.9473442
vt 0.1493531 0.9473442
vt 0.1493531 0.9473442
vt 0.1493531 0.9473442
vt 0.1493531 0.9473442
vt 0.1493531 0.9473442
vt 0.1493531 0.9473442
vt 0.1493531 0.9473442
vt 0.1493531 0.9473442
vt 0.1493531 0.9473442
vt 0.1493531 0.9473442
vt 0.1493531 0.9473442
vt 0.1493531 0.9473442
vt 0.1493531 0.9473442
vt 0.1493531 0.9473442
vt 0.1493531 0.9473442
vt 0.1493531 0.9473442
vt 0.1493531 0.9473442
vt 0.1493531 0.9473442
vt 0.1493531 0.9473442
vt 0.1493531 0.9473442
vt 0.1493531 0.9473442
vt 0.1493531 0.9473442
vn 0 0 1
vn 0 0 1
vn 0 0 1
vn 0 0 1
vn -1 0 0
vn -1 0 0
vn -1 0 0
vn -1 0 0
vn -1 0 0
vn -1 0 0
vn -1 0 0
vn -1 0 0
vn -1 0 0
vn -1 0 0
vn -1 0 0
vn -1 0 0
vn 0 0 -1
vn 0 0 -1
vn 0 0 -1
vn 0 0 -1
vn 0 0 -1
vn 0 0 -1
vn 0 0 -1
vn 0 0 -1
vn 0 0 -1
vn 0 0 -1
vn 0 0 -1
vn 0 0 -1
vn 1 0 0
vn 1 0 0
vn 1 0 0
vn 1 0 0
vn 1 0 0
vn 1 0 0
vn 1 0 0
vn 1 0 0
vn 1 0 0
vn 1 0 0
vn 1 0 0
vn 1 0 0
vn 0 0 1
vn 0 0 1
vn 0 0 1
vn 0 0 1
vn 0 0 1
vn 0 0 1
vn 0 0 1
vn 0 0 1
vn 0 0 -1
vn 0 0 -1
vn 0 0 -1
vn 0 0 -1
vn 0 0 -1
vn 0 0 -1
vn 0 0 -1
vn 0 0 -1
vn 0 0 -1
vn 0 0 -1
vn 0 0 -1
vn 0 0 -1
vn -1 0 0
vn -1 0 0
vn -1 0 0
vn -1 0 0
vn -1 0 0
vn -1 0 0
vn -1 0 0
vn -1 0 0
vn -1 0 0
vn -1 0 0
vn -1 0 0
vn -1 0 0
vn 0 0 1
vn 0 0 1
vn 0 0 1
vn 0 0 1
vn 0 0 1
vn 0 0 1
vn 0 0 1
vn 0 0 1
vn 0 0 1
vn 0 0 1
vn 0 0 1
vn 0 0 1
vn 1 0 0
vn 1 0 0
vn 1 0 0
vn 1 0 0
vn 1 0 0
vn 1 0 0
vn 1 0 0
vn 1 0 0
vn 1 0 0
vn 1 0 0
vn 1 0 0
vn 1 0 0
vn 0.4271526 0.554123 -0.7144847
vn 0.3152674 0.7632462 -0.5639696
vn -0.3152674 0.7632462 -0.5639696
vn -0.4271526 0.554123 -0.7144847
vn -0.4271526 0.554123 -0.7144847
vn -0.3152674 0.7632462 -0.5639696
vn -0.3152674 0.7632462 0.5639696
vn -0.4271526 0.554123 0.7144848
vn -0.4271526 0.554123 0.7144848
vn -0.3152674 0.7632462 0.5639696
vn 0.3152674 0.7632462 0.5639696
vn 0.4271525 0.554123 0.7144848
vn 0.4271525 0.554123 0.7144848
vn 0.3152674 0.7632462 0.5639696
vn 0.3152674 0.7632462 -0.5639696
vn 0.4271526 0.554123 -0.7144847
vn -0.3152674 0.7632462 -0.5639696
vn 0.3152674 0.7632462 -0.5639696
vn 0.3152674 0.7632462 0.5639696
vn -0.3152674 0.7632462 0.5639696
vn -0.02583448 -0.9987988 -0.04163552
vn 0.02583448 -0.9987988 -0.04163552
vn 0.5309761 -0.04103069 -0.8463929
vn -0.5309761 -0.0410307 -0.8463929
vn -0.531552 0 -0.8470257
vn 0.531552 0 -0.8470257
vn -0.5309761 -0.0410307 -0.8463929
vn -0.02583448 -0.9987988 0.04163552
vn -0.02583448 -0.9987988 -0.04163552
vn -0.5309761 -0.04103077 0.8463929
vn -0.531552 0 -0.8470257
vn -0.5315519 0 0.8470257
vn 0.02583448 -0.9987988 -0.04163552
vn 0.02583448 -0.9987988 0.04163552
vn 0.5309761 -0.04103077 0.8463929
vn 0.5309761 -0.04103069 -0.8463929
vn 0.531552 0 0.8470257
vn 0.531552 0 -0.8470257
vn -0.5309761 -0.04103077 0.8463929
vn 0.02583448 -0.9987988 0.04163552
vn -0.02583448 -0.9987988 0.04163552
vn 0.5309761 -0.04103077 0.8463929
vn -0.5315519 0 0.8470257
vn 0.531552 0 0.8470257
vn 0.02583448 -0.9987988 -0.04163552
vn -0.02583448 -0.9987988 -0.04163552
vn -0.02583448 -0.9987988 0.04163552
vn 0.02583448 -0.9987988 0.04163552
vn -0.531552 0 -0.8470257
vn -0.3538134 0.7452247 0.5652046
vn -0.5315519 0 0.8470257
vn -0.3538134 0.7452247 -0.5652045
vn 0.3538135 0.7452247 0.5652044
vn 0.531552 0 -0.8470257
vn 0.531552 0 0.8470257
vn 0.3538135 0.7452247 -0.5652046
vn -0.3538134 0.7452247 0.5652046
vn 0.4271526 0.554123 -0.7144847
vn -0.4271526 0.554123 -0.7144847
vn 0.3538135 0.7452247 0.5652044
vn -0.3538134 0.7452247 -0.5652045
vn -0.4271526 0.554123 0.7144848
vn 0.4271525 0.554123 0.7144848
vn 0.3538135 0.7452247 -0.5652046
vn 0.04390153 -0.968369 -0.2456302
vn -0.04390129 -0.968369 -0.2456302
vn -0.05183147 -0.13806 0.9890667
vn 0.05183147 -0.13806 0.9890667
vn 0.0488468 -0.3805486 -0.92347
vn 1 0 0
vn -0.06029147 0.7920032 0.6075326
vn -1 0 0
vn 0.06029147 0.7920032 0.6075326
vn -0.04884653 -0.3805487 -0.92347
vn 0.06377994 0.9381461 -0.3403145
vn -0.06378 0.9381461 -0.3403145
vn -0.04390153 -0.968369 -0.2456302
vn -0.05183147 -0.13806 0.9890667
vn 0.05183147 -0.13806 0.9890667
vn 0.04390129 -0.968369 -0.2456302
vn 0.06029147 0.7920032 0.6075326
vn 1 0 0
vn -0.0488468 -0.3805486 -0.92347
vn -1 0 0
vn -0.06029147 0.7920032 0.6075326
vn 0.06378 0.9381461 -0.3403145
vn 0.04884652 -0.3805487 -0.92347
vn -0.06377994 0.9381461 -0.3403145
vn 0.04390153 -0.968369 0.2456302
vn 0.05183147 -0.13806 -0.9890667
vn -0.05183147 -0.13806 -0.9890667
vn -0.04390129 -0.968369 0.2456302
vn -0.06029147 0.7920032 -0.6075326
vn -1 0 0
vn 0.0488468 -0.3805486 0.92347
vn 1 0 0
vn 0.06029147 0.7920032 -0.6075326
vn -0.06378 0.9381461 0.3403145
vn -0.04884652 -0.3805487 0.92347
vn 0.06377994 0.9381461 0.3403145
vn -0.04390153 -0.968369 0.2456302
vn 0.04390129 -0.968369 0.2456302
vn 0.05183147 -0.13806 -0.9890667
vn -0.05183147 -0.13806 -0.9890667
vn -0.0488468 -0.3805486 0.92347
vn -1 0 0
vn 0.06029147 0.7920032 -0.6075326
vn 1 0 0
vn -0.06029147 0.7920032 -0.6075326
vn 0.04884653 -0.3805487 0.92347
vn -0.06377994 0.9381461 0.3403145
vn 0.06378 0.9381461 0.3403145
g Bottom_0
f 3/3/3 2/2/2 1/1/1
f 4/4/4 3/3/3 1/1/1
f 7/7/7 6/6/6 5/5/5
f 8/8/8 7/7/7 5/5/5
f 11/11/11 10/10/10 9/9/9
f 12/12/12 11/11/11 9/9/9
f 15/15/15 14/14/14 13/13/13
f 16/16/16 15/15/15 13/13/13
f 19/19/19 18/18/18 17/17/17
f 20/20/20 19/19/19 17/17/17
f 23/23/23 22/22/22 21/21/21
f 24/24/24 23/23/23 21/21/21
f 27/27/27 26/26/26 25/25/25
f 28/28/28 27/27/27 25/25/25
f 31/31/31 30/30/30 29/29/29
f 32/32/32 31/31/31 29/29/29
f 35/35/35 34/34/34 33/33/33
f 36/36/36 35/35/35 33/33/33
f 39/39/39 38/38/38 37/37/37
f 40/40/40 39/39/39 37/37/37
f 43/43/43 42/42/42 41/41/41
f 44/44/44 43/43/43 41/41/41
f 47/47/47 46/46/46 45/45/45
f 48/48/48 47/47/47 45/45/45
f 51/51/51 50/50/50 49/49/49
f 52/52/52 51/51/51 49/49/49
f 55/55/55 54/54/54 53/53/53
f 54/54/54 56/56/56 53/53/53
f 56/56/56 57/57/57 53/53/53
f 57/57/57 58/58/58 53/53/53
f 57/57/57 59/59/59 58/58/58
f 59/59/59 60/60/60 58/58/58
f 63/63/63 62/62/62 61/61/61
f 64/64/64 63/63/63 61/61/61
f 67/67/67 66/66/66 65/65/65
f 66/66/66 68/68/68 65/65/65
f 68/68/68 69/69/69 65/65/65
f 69/69/69 70/70/70 65/65/65
f 69/69/69 71/71/71 70/70/70
f 71/71/71 72/72/72 70/70/70
f 75/75/75 74/74/74 73/73/73
f 76/76/76 75/75/75 73/73/73
f 79/79/79 78/78/78 77/77/77
f 78/78/78 80/80/80 77/77/77
f 80/80/80 81/81/81 77/77/77
f 81/81/81 82/82/82 77/77/77
f 81/81/81 83/83/83 82/82/82
f 83/83/83 84/84/84 82/82/82
f 87/87/87 86/86/86 85/85/85
f 88/88/88 87/87/87 85/85/85
f 91/91/91 90/90/90 89/89/89
f 90/90/90 92/92/92 89/89/89
f 92/92/92 93/93/93 89/89/89
f 93/93/93 94/94/94 89/89/89
f 93/93/93 95/95/95 94/94/94
f 95/95/95 96/96/96 94/94/94
f 99/99/99 98/98/98 97/97/97
f 100/100/100 99/99/99 97/97/97
f 103/103/103 102/102/102 101/101/101
f 104/104/104 103/103/103 101/101/101
f 107/107/107 106/106/106 105/105/105
f 108/108/108 107/107/107 105/105/105
f 111/111/111 110/110/110 109/109/109
f 112/112/112 111/111/111 109/109/109
f 115/115/115 114/114/114 113/113/113
f 116/116/116 115/115/115 113/113/113
f 119/119/119 118/118/118 117/117/117
f 120/120/120 119/119/119 117/117/117
f 120/120/120 121/121/121 119/119/119
f 121/121/121 122/122/122 119/119/119
f 125/125/125 124/124/124 123/123/123
f 124/124/124 126/126/126 123/123/123
f 127/127/127 123/123/123 126/126/126
f 128/128/128 127/127/127 126/126/126
f 131/131/131 130/130/130 129/129/129
f 132/132/132 131/131/131 129/129/129
f 133/133/133 131/131/131 132/132/132
f 134/134/134 133/133/133 132/132/132
f 137/137/137 136/136/136 135/135/135
f 136/136/136 138/138/138 135/135/135
f 139/139/139 135/135/135 138/138/138
f 140/140/140 139/139/139 138/138/138
f 143/143/143 142/142/142 141/141/141
f 144/144/144 143/143/143 141/141/141
f 147/147/147 146/146/146 145/145/145
f 146/146/146 148/148/148 145/145/145
f 149/149/149 146/146/146 147/147/147
f 145/145/145 148/148/148 150/150/150
f 151/151/151 149/149/149 147/147/147
f 148/148/148 152/152/152 150/150/150
f 152/152/152 149/149/149 151/151/151
f 150/150/150 152/152/152 151/151/151
f 155/155/155 154/154/154 153/153/153
f 156/156/156 155/155/155 153/153/153
f 153/153/153 154/154/154 157/157/157
f 158/158/158 155/155/155 156/156/156
f 154/154/154 159/159/159 157/157/157
f 160/160/160 158/158/158 156/156/156
f 157/157/157 159/159/159 160/160/160
f 159/159/159 158/158/158 160/160/160
f 163/163/163 162/162/162 161/161/161
f 164/164/164 163/163/163 161/161/161
f 161/161/161 162/162/162 165/165/165
f 161/161/161 166/166/166 164/164/164
f 165/165/165 166/166/166 161/161/161
f 167/167/167 163/163/163 164/164/164
f 163/163/163 168/168/168 162/162/162
f 167/167/167 168/168/168 163/163/163
f 164/164/164 166/166/166 169/169/169
f 169/169/169 167/167/167 164/164/164
f 162/162/162 170/170/170 165/165/165
f 162/162/162 168/168/168 170/170/170
f 171/171/171 166/166/166 165/165/165
f 169/169/169 166/166/166 171/171/171
f 165/165/165 170/170/170 171/171/171
f 172/172/172 167/167/167 169/169/169
f 172/172/172 168/168/168 167/167/167
f 171/171/171 172/172/172 169/169/169
f 170/170/170 172/172/172 171/171/171
f 170/170/170 168/168/168 172/172/172
f 175/175/175 174/174/174 173/173/173
f 176/176/176 175/175/175 173/173/173
f 175/175/175 177/177/177 174/174/174
f 178/178/178 175/175/175 176/176/176
f 178/178/178 177/177/177 175/175/175
f 176/176/176 173/173/173 179/179/179
f 180/180/180 173/173/173 174/174/174
f 180/180/180 179/179/179 173/173/173
f 177/177/177 181/181/181 174/174/174
f 180/180/180 174/174/174 181/181/181
f 178/178/178 182/182/182 177/177/177
f 177/177/177 182/182/182 181/181/181
f 178/178/178 176/176/176 183/183/183
f 183/183/183 176/176/176 179/179/179
f 178/178/178 183/183/183 182/182/182
f 180/180/180 181/181/181 184/184/184
f 180/180/180 184/184/184 179/179/179
f 182/182/182 184/184/184 181/181/181
f 183/183/183 179/179/179 184/184/184
f 182/182/182 183/183/183 184/184/184
f 187/187/187 186/186/186 185/185/185
f 188/188/188 187/187/187 185/185/185
f 187/187/187 189/189/189 186/186/186
f 190/190/190 187/187/187 188/188/188
f 190/190/190 189/189/189 187/187/187
f 188/188/188 185/185/185 191/191/191
f 192/192/192 185/185/185 186/186/186
f 192/192/192 191/191/191 185/185/185
f 189/189/189 193/193/193 186/186/186
f 192/192/192 186/186/186 193/193/193
f 190/190/190 194/194/194 189/189/189
f 189/189/189 194/194/194 193/193/193
f 190/190/190 188/188/188 195/195/195
f 195/195/195 188/188/188 191/191/191
f 190/190/190 195/195/195 194/194/194
f 192/192/192 193/193/193 196/196/196
f 192/192/192 196/196/196 191/191/191
f 194/194/194 196/196/196 193/193/193
f 195/195/195 191/191/191 196/196/196
f 194/194/194 195/195/195 196/196/196
f 199/199/199 198/198/198 197/197/197
f 200/200/200 199/199/199 197/197/197
f 197/197/197 198/198/198 201/201/201
f 197/197/197 202/202/202 200/200/200
f 201/201/201 202/202/202 197/197/197
f 203/203/203 199/199/199 200/200/200
f 199/199/199 204/204/204 198/198/198
f 203/203/203 204/204/204 199/199/199
f 200/200/200 202/202/202 205/205/205
f 205/205/205 203/203/203 200/200/200
f 198/198/198 206/206/206 201/201/201
f 198/198/198 204/204/204 206/206/206
f 207/207/207 202/202/202 201/201/201
f 205/205/205 202/202/202 207/207/207
f 201/201/201 206/206/206 207/207/207
f 208/208/208 203/203/203 205/205/205
f 208/208/208 204/204/204 203/203/203
f 207/207/207 208/208/208 205/205/205
f 206/206/206 208/208/208 207/207/207
f 206/206/206 204/204/204 208/208/208
