g Bracelets
v 16.49989 28.29368 3.518959
v 16.64994 28.43458 -0.2057413
v 16.49989 25.72079 2.701864
v 12.30141 29.02496 3.453466
v 12.28692 28.97485 -0.3948551
v 12.30141 31.6268 2.230545
v -16.49989 28.29368 3.518959
v -16.49989 25.72079 2.701864
v -16.64994 28.43458 -0.2057413
v -12.30085 29.02046 3.158688
v -12.30085 31.42129 2.030247
v -12.28748 28.97422 -0.3923198
v 12.30141 28.91345 -4.177546
v 16.49989 25.8445 -3.193125
v 16.49989 28.5708 -3.883083
v 12.30141 26.38543 -3.230136
v 12.30141 25.59236 -0.3195805
v 16.49989 25.15135 -0.1761349
v 12.30141 26.42736 2.668507
v 16.49989 25.72079 2.701864
v 16.49989 28.29368 3.518959
v 12.30141 29.02496 3.453466
v 12.30141 31.46811 -3.270669
v 12.30141 28.91345 -4.177546
v 16.49989 28.5708 -3.883083
v 16.49989 30.88207 -3.409321
v 12.30141 32.34112 -0.6183668
v 16.49989 32.06126 -0.7325086
v 12.30141 31.6268 2.230545
v 16.49989 31.24193 2.6152
v 12.30141 29.02496 3.453466
v 16.49989 28.29368 3.518959
v 16.49989 30.88207 -3.409321
v 16.64994 28.43458 -0.2057413
v 16.49989 32.06126 -0.7325086
v 16.64994 28.43458 -0.2057413
v 16.49989 28.5708 -3.883083
v 16.49989 25.8445 -3.193125
v 16.49989 25.15135 -0.1761349
v 16.49989 25.72079 2.701864
v 16.64994 28.43458 -0.2057413
v 16.49989 25.15135 -0.1761349
v 16.49989 32.06126 -0.7325086
v 16.64994 28.43458 -0.2057414
v 16.49989 31.24193 2.6152
v 16.64994 28.43458 -0.2057413
v 16.49989 28.29368 3.518959
v 12.30141 28.91345 -4.177546
v 12.28692 28.97485 -0.3948549
v 12.30141 26.38543 -3.230136
v 12.28692 28.97485 -0.3948551
v 12.30141 31.46811 -3.270669
v 12.30141 26.42736 2.668507
v 12.30141 29.02496 3.453466
v 12.30141 25.59236 -0.3195805
v 12.28692 28.97485 -0.394855
v 12.30141 26.38543 -3.230136
v 12.28692 28.97485 -0.394855
v 12.30141 25.59236 -0.3195805
v 12.30141 32.34112 -0.6183668
v 12.28692 28.97485 -0.3948551
v 12.30141 31.46811 -3.270669
v 12.28692 28.97485 -0.394855
v 12.30141 31.6268 2.230545
v 12.28692 28.97485 -0.3948551
v 12.30141 32.34112 -0.6183668
v -12.30085 28.91757 -3.882768
v -16.49989 28.5708 -3.883083
v -16.49989 25.8445 -3.193125
v -12.30085 26.58486 -3.008554
v -12.30085 25.85305 -0.3228608
v -16.49989 25.15135 -0.1761349
v -12.30085 26.62355 2.434374
v -16.49989 25.72079 2.701864
v -16.49989 28.29368 3.518959
v -12.30085 29.02046 3.158688
v -12.30085 31.27486 -3.045954
v -16.49989 28.5708 -3.883083
v -12.30085 28.91757 -3.882768
v -16.49989 30.88207 -3.409321
v -12.30085 32.08043 -0.5985636
v -16.49989 32.06126 -0.7325086
v -12.30085 31.42129 2.030247
v -16.49989 31.24193 2.6152
v -12.30085 29.02046 3.158688
v -16.49989 28.29368 3.518959
v -16.49989 30.88207 -3.409321
v -16.49989 32.06126 -0.7325086
v -16.64994 28.43458 -0.2057413
v -16.64994 28.43458 -0.2057413
v -16.49989 28.5708 -3.883083
v -16.49989 25.8445 -3.193125
v -16.49989 25.15135 -0.1761349
v -16.49989 25.72079 2.701864
v -16.49989 25.15135 -0.1761349
v -16.64994 28.43458 -0.2057413
v -16.49989 32.06126 -0.7325086
v -16.64994 28.43458 -0.2057414
v -16.49989 31.24193 2.6152
v -16.64994 28.43458 -0.2057413
v -16.49989 28.29368 3.518959
v -12.30085 28.91757 -3.882768
v -12.30085 26.58486 -3.008554
v -12.28748 28.97422 -0.3923196
v -12.28748 28.97422 -0.3923198
v -12.30085 31.27486 -3.045954
v -12.30085 26.62355 2.434374
v -12.30085 29.02046 3.158688
v -12.30085 25.85305 -0.3228608
v -12.28748 28.97422 -0.3923197
v -12.30085 26.58486 -3.008554
v -12.28748 28.97422 -0.3923197
v -12.30085 25.85305 -0.3228608
v -12.30085 32.08043 -0.5985636
v -12.30085 31.27486 -3.045954
v -12.28748 28.97422 -0.3923198
v -12.28748 28.97422 -0.3923197
v -12.30085 31.42129 2.030247
v -12.30085 32.08043 -0.5985636
v -12.28748 28.97422 -0.3923198
vt 0.8049638 0.0540247
vt 0.8237897 0.05402458
vt 0.8049638 0.0540247
vt 0.8049638 0.05402476
vt 0.8237895 0.05402464
vt 0.8049638 0.05402464
vt 0.8049638 0.0540247
vt 0.8049638 0.0540247
vt 0.8237897 0.05402458
vt 0.8049638 0.05402476
vt 0.8049638 0.05402464
vt 0.8237895 0.05402464
vt 0.8903252 0.05454801
vt 0.8788062 0.08132468
vt 0.8903252 0.08132462
vt 0.8788062 0.05454807
vt 0.8580033 0.05454807
vt 0.8580032 0.08132468
vt 0.8397376 0.05454801
vt 0.8397376 0.08132468
vt 0.8278814 0.08132468
vt 0.8278816 0.05454801
vt 0.8397376 0.05454801
vt 0.8278814 0.05454801
vt 0.8278814 0.08132462
vt 0.8397376 0.08132468
vt 0.8580032 0.05454807
vt 0.8580035 0.08132468
vt 0.8788062 0.05454807
vt 0.878806 0.08132468
vt 0.8903252 0.05454801
vt 0.8903252 0.08132468
vt 0.8049638 0.05402464
vt 0.8237897 0.05402458
vt 0.8049638 0.05402458
vt 0.8237897 0.05402458
vt 0.8049638 0.0540247
vt 0.8049638 0.0540247
vt 0.8049638 0.0540247
vt 0.8049638 0.0540247
vt 0.8237897 0.05402458
vt 0.8049638 0.0540247
vt 0.8049638 0.05402458
vt 0.8237897 0.05402458
vt 0.8049638 0.0540247
vt 0.8237897 0.05402458
vt 0.8049638 0.0540247
vt 0.8049638 0.0540247
vt 0.8237895 0.05402464
vt 0.8049638 0.0540247
vt 0.8237895 0.05402464
vt 0.8049638 0.0540247
vt 0.8049638 0.0540247
vt 0.8049638 0.05402476
vt 0.8049638 0.0540247
vt 0.8237895 0.05402464
vt 0.8049638 0.0540247
vt 0.8237895 0.05402464
vt 0.8049638 0.0540247
vt 0.8049638 0.0540247
vt 0.8237895 0.05402464
vt 0.8049638 0.0540247
vt 0.8237895 0.05402464
vt 0.8049638 0.05402464
vt 0.8237895 0.05402464
vt 0.8049638 0.0540247
vt 0.8903252 0.05454801
vt 0.8903252 0.08132462
vt 0.8788062 0.08132468
vt 0.8788062 0.05454807
vt 0.8580033 0.05454807
vt 0.8580032 0.08132468
vt 0.8397376 0.05454801
vt 0.8397376 0.08132468
vt 0.8278814 0.08132468
vt 0.8278816 0.05454801
vt 0.8397376 0.05454801
vt 0.8278814 0.08132462
vt 0.8278814 0.05454801
vt 0.8397376 0.08132468
vt 0.8580032 0.05454807
vt 0.8580035 0.08132468
vt 0.8788062 0.05454807
vt 0.878806 0.08132468
vt 0.8903252 0.05454801
vt 0.8903252 0.08132468
vt 0.8049638 0.05402464
vt 0.8049638 0.05402458
vt 0.8237897 0.05402458
vt 0.8237897 0.05402458
vt 0.8049638 0.0540247
vt 0.8049638 0.0540247
vt 0.8049638 0.0540247
vt 0.8049638 0.0540247
vt 0.8049638 0.0540247
vt 0.8237897 0.05402458
vt 0.8049638 0.05402458
vt 0.8237897 0.05402458
vt 0.8049638 0.0540247
vt 0.8237897 0.05402458
vt 0.8049638 0.0540247
vt 0.8049638 0.0540247
vt 0.8049638 0.0540247
vt 0.8237895 0.05402464
vt 0.8237895 0.05402464
vt 0.8049638 0.0540247
vt 0.8049638 0.0540247
vt 0.8049638 0.05402476
vt 0.8049638 0.0540247
vt 0.8237895 0.05402464
vt 0.8049638 0.0540247
vt 0.8237895 0.05402464
vt 0.8049638 0.0540247
vt 0.8049638 0.0540247
vt 0.8049638 0.0540247
vt 0.8237895 0.05402464
vt 0.8237895 0.05402464
vt 0.8049638 0.05402464
vt 0.8049638 0.0540247
vt 0.8237895 0.05402464
vn 0.313276 0.01176097 0.9495893
vn 0.9995103 -0.01111423 0.02925172
vn 0.1895623 -0.7580518 0.624038
vn -0.3448311 0.07888902 0.9353437
vn -0.9999974 0.001423492 -0.001798357
vn -0.2548891 0.7598727 0.5980177
vn -0.2700999 0.01069595 0.9627728
vn -0.1411086 -0.7629739 0.6308401
vn -0.9995103 -0.01111423 0.02925172
vn 0.365542 0.07695715 0.927608
vn 0.2805427 0.7543941 0.5934521
vn 0.9999974 0.001423656 -0.001798564
vn -0.3123635 -0.01003593 -0.9499096
vn 0.2360032 -0.7437897 -0.6253633
vn 0.3615032 -0.0375943 -0.9316126
vn -0.3466324 -0.6821051 -0.6438778
vn -0.4132039 -0.9105744 -0.01080979
vn 0.2082306 -0.9780783 -0.001636922
vn -0.3955418 -0.6683412 0.6299736
vn 0.1895623 -0.7580518 0.624038
vn 0.313276 0.01176097 0.9495893
vn -0.3448311 0.07888902 0.9353437
vn -0.2488779 0.6980137 -0.6714438
vn -0.3123635 -0.01003593 -0.9499096
vn 0.3615032 -0.0375943 -0.9316126
vn 0.3633684 0.6242707 -0.6915559
vn -0.2304711 0.9723305 -0.03816538
vn 0.3945486 0.9176594 -0.04724953
vn -0.2548891 0.7598727 0.5980177
vn 0.34022 0.6929477 0.6356679
vn -0.3448311 0.07888902 0.9353437
vn 0.313276 0.01176097 0.9495893
vn 0.3633684 0.6242707 -0.6915559
vn 0.999997 0.0003711351 -0.002429249
vn 0.3945486 0.9176594 -0.04724953
vn 0.9996356 -0.003591312 -0.02675682
vn 0.3615032 -0.0375943 -0.9316126
vn 0.2360032 -0.7437897 -0.6253633
vn 0.2082306 -0.9780783 -0.001636922
vn 0.1895623 -0.7580518 0.624038
vn 0.9995103 -0.01111423 0.02925172
vn 0.2082306 -0.9780783 -0.001636922
vn 0.3945486 0.9176594 -0.04724953
vn 0.9992872 0.0282536 0.02503784
vn 0.34022 0.6929477 0.6356679
vn 0.9995103 -0.01111423 0.02925172
vn 0.313276 0.01176097 0.9495893
vn -0.3123635 -0.01003593 -0.9499096
vn -0.9999954 -0.002754037 0.001354001
vn -0.3466324 -0.6821051 -0.6438778
vn -0.9999974 0.001423492 -0.001798357
vn -0.2488779 0.6980137 -0.6714438
vn -0.3955418 -0.6683412 0.6299736
vn -0.3448311 0.07888902 0.9353437
vn -0.4132039 -0.9105744 -0.01080979
vn -0.9999908 -0.004284114 3.045763E-05
vn -0.3466324 -0.6821051 -0.6438778
vn -0.9999908 -0.004284114 3.045763E-05
vn -0.4132039 -0.9105744 -0.01080979
vn -0.2304711 0.9723305 -0.03816538
vn -0.9999974 0.001423492 -0.001798357
vn -0.2488779 0.6980137 -0.6714438
vn -0.9999908 0.004297204 -0.0001239579
vn -0.2548891 0.7598727 0.5980177
vn -0.9999974 0.001423492 -0.001798357
vn -0.2304711 0.9723305 -0.03816538
vn 0.3318553 -0.01087927 -0.9432676
vn -0.320307 -0.03877527 -0.9465199
vn -0.188976 -0.7506598 -0.633086
vn 0.3720063 -0.6763108 -0.635779
vn 0.4287022 -0.9033763 -0.01121065
vn -0.1665968 -0.9860231 -0.001979266
vn 0.4194299 -0.6628837 0.6202127
vn -0.1411086 -0.7629739 0.6308401
vn -0.2700999 0.01069595 0.9627728
vn 0.365542 0.07695715 0.927608
vn 0.2726968 0.6931816 -0.6671849
vn -0.320307 -0.03877527 -0.9465199
vn 0.3318553 -0.01087927 -0.9432676
vn -0.321477 0.6333793 -0.7039058
vn 0.2514222 0.967126 -0.03813391
vn -0.3593213 0.9319506 -0.04854194
vn 0.2805427 0.7543941 0.5934521
vn -0.298358 0.702045 0.6466184
vn 0.365542 0.07695715 0.927608
vn -0.2700999 0.01069595 0.9627728
vn -0.321477 0.6333793 -0.7039058
vn -0.3593213 0.9319506 -0.04854194
vn -0.999997 0.0003711328 -0.002429249
vn -0.9996356 -0.003591313 -0.02675682
vn -0.320307 -0.03877527 -0.9465199
vn -0.188976 -0.7506598 -0.633086
vn -0.1665968 -0.9860231 -0.001979266
vn -0.1411086 -0.7629739 0.6308401
vn -0.1665968 -0.9860231 -0.001979266
vn -0.9995103 -0.01111423 0.02925172
vn -0.3593213 0.9319506 -0.04854194
vn -0.9992872 0.0282536 0.02503784
vn -0.298358 0.702045 0.6466184
vn -0.9995103 -0.01111423 0.02925172
vn -0.2700999 0.01069595 0.9627728
vn 0.3318553 -0.01087927 -0.9432676
vn 0.3720063 -0.6763108 -0.635779
vn 0.9999954 -0.002754359 0.00135416
vn 0.9999974 0.001423656 -0.001798564
vn 0.2726968 0.6931816 -0.6671849
vn 0.4194299 -0.6628837 0.6202127
vn 0.365542 0.07695715 0.927608
vn 0.4287022 -0.9033763 -0.01121065
vn 0.9999908 -0.004284614 3.045927E-05
vn 0.3720063 -0.6763108 -0.635779
vn 0.9999908 -0.004284614 3.045927E-05
vn 0.4287022 -0.9033763 -0.01121065
vn 0.2514222 0.967126 -0.03813391
vn 0.2726968 0.6931816 -0.6671849
vn 0.9999974 0.001423656 -0.001798564
vn 0.9999908 0.004297703 -0.0001239718
vn 0.2805427 0.7543941 0.5934521
vn 0.2514222 0.967126 -0.03813391
vn 0.9999974 0.001423656 -0.001798564
g Bracelets_0
f 3/3/3 2/2/2 1/1/1
f 6/6/6 5/5/5 4/4/4
f 9/9/9 8/8/8 7/7/7
f 12/12/12 11/11/11 10/10/10
f 15/15/15 14/14/14 13/13/13
f 14/14/14 16/16/16 13/13/13
f 16/16/16 14/14/14 17/17/17
f 14/14/14 18/18/18 17/17/17
f 17/17/17 18/18/18 19/19/19
f 18/18/18 20/20/20 19/19/19
f 20/20/20 21/21/21 19/19/19
f 21/21/21 22/22/22 19/19/19
f 25/25/25 24/24/24 23/23/23
f 26/26/26 25/25/25 23/23/23
f 26/26/26 23/23/23 27/27/27
f 28/28/28 26/26/26 27/27/27
f 28/28/28 27/27/27 29/29/29
f 30/30/30 28/28/28 29/29/29
f 30/30/30 29/29/29 31/31/31
f 32/32/32 30/30/30 31/31/31
f 35/35/35 34/34/34 33/33/33
f 34/34/34 36/36/36 33/33/33
f 33/33/33 36/36/36 37/37/37
f 37/37/37 36/36/36 38/38/38
f 38/38/38 36/36/36 39/39/39
f 36/36/36 34/34/34 39/39/39
f 34/34/34 41/41/41 40/40/40
f 42/42/42 34/34/34 40/40/40
f 44/44/44 34/34/34 43/43/43
f 45/45/45 44/44/44 43/43/43
f 46/46/46 44/44/44 45/45/45
f 47/47/47 46/46/46 45/45/45
f 50/50/50 49/49/49 48/48/48
f 49/49/49 51/51/51 48/48/48
f 48/48/48 51/51/51 52/52/52
f 51/51/51 49/49/49 53/53/53
f 54/54/54 51/51/51 53/53/53
f 53/53/53 49/49/49 55/55/55
f 49/49/49 56/56/56 55/55/55
f 58/58/58 49/49/49 57/57/57
f 59/59/59 58/58/58 57/57/57
f 62/62/62 61/61/61 60/60/60
f 61/61/61 63/63/63 60/60/60
f 63/63/63 65/65/65 64/64/64
f 66/66/66 63/63/63 64/64/64
f 69/69/69 68/68/68 67/67/67
f 70/70/70 69/69/69 67/67/67
f 69/69/69 70/70/70 71/71/71
f 72/72/72 69/69/69 71/71/71
f 72/72/72 71/71/71 73/73/73
f 74/74/74 72/72/72 73/73/73
f 75/75/75 74/74/74 73/73/73
f 76/76/76 75/75/75 73/73/73
f 79/79/79 78/78/78 77/77/77
f 78/78/78 80/80/80 77/77/77
f 77/77/77 80/80/80 81/81/81
f 80/80/80 82/82/82 81/81/81
f 81/81/81 82/82/82 83/83/83
f 82/82/82 84/84/84 83/83/83
f 83/83/83 84/84/84 85/85/85
f 84/84/84 86/86/86 85/85/85
f 89/89/89 88/88/88 87/87/87
f 90/90/90 89/89/89 87/87/87
f 90/90/90 87/87/87 91/91/91
f 90/90/90 91/91/91 92/92/92
f 90/90/90 92/92/92 93/93/93
f 89/89/89 90/90/90 93/93/93
f 89/89/89 95/95/95 94/94/94
f 96/96/96 89/89/89 94/94/94
f 89/89/89 98/98/98 97/97/97
f 98/98/98 99/99/99 97/97/97
f 98/98/98 100/100/100 99/99/99
f 100/100/100 101/101/101 99/99/99
f 104/104/104 103/103/103 102/102/102
f 105/105/105 104/104/104 102/102/102
f 105/105/105 102/102/102 106/106/106
f 104/104/104 105/105/105 107/107/107
f 105/105/105 108/108/108 107/107/107
f 104/104/104 107/107/107 109/109/109
f 110/110/110 104/104/104 109/109/109
f 104/104/104 112/112/112 111/111/111
f 112/112/112 113/113/113 111/111/111
f 116/116/116 115/115/115 114/114/114
f 117/117/117 116/116/116 114/114/114
f 117/117/117 119/119/119 118/118/118
f 120/120/120 117/117/117 118/118/118
