g BrokenPropeller
v 7.416413 1.65743 -2.907611
v 2.002775 -0.9201207 -0.7168054
v 2.002771 0.9201227 -0.7167907
v 7.416426 -1.657429 -2.907621
v 12.83006 2.394738 -2.56661
v 12.83008 -2.394737 -2.56661
v 13.94397 -1.438312 -3.334144
v 13.94396 1.438311 -3.334144
v -12.83004 2.394734 -2.56661
v -13.94397 -1.438316 -3.334144
v -13.94395 1.438307 -3.334144
v -12.83004 -2.394738 -2.56661
v -7.416415 -1.657429 -0.3776208
v -7.416404 1.657428 -0.3776111
v -2.002771 0.9201227 -0.7167907
v -2.002791 -0.9201207 -0.7168054
v 8.601279E-06 1.840242 -0.7167907
v 2.214199 1.08661 -1.834799
v 2.002771 0.9201227 -0.7167907
v 1.309385E-05 2.173224 -1.834799
v 7.416413 1.65743 -2.907611
v 6.713867E-06 -8.768488E-07 -2.986527
v 7.491353 1.616953 -4.222865
v 12.83006 2.394738 -2.56661
v 2.214205 -1.086606 -1.834799
v 1.947383E-05 -2.173229 -1.834799
v 12.76851 2.147296 -4.079105
v 13.94396 1.438311 -3.334144
v 2.002775 -0.9201207 -0.7168054
v 1.359893E-05 -1.840243 -0.7168054
v 7.491374 -1.616948 -4.222865
v 12.76854 -2.14729 -4.079105
v 13.94397 -1.438312 -3.334144
v 12.83008 -2.394737 -2.56661
v 7.416426 -1.657429 -2.907621
v 2.002775 -0.9201207 4.079093
v 1.359893E-05 -1.840243 4.079093
v 2.002771 0.9201227 4.079105
v -2.002791 -0.9201207 -0.7168054
v 2.002771 0.9201227 -0.7167907
v -2.00279 -0.9201207 4.079093
v 8.601279E-06 1.840242 4.079105
v -2.002771 0.9201227 -0.7167907
v 8.601279E-06 1.840242 -0.7167907
v -2.002771 0.9201227 4.079105
v 1.309385E-05 2.173224 -1.834799
v -2.214179 1.08661 -1.834799
v 6.713867E-06 -8.768488E-07 -2.986527
v -7.491338 1.616949 -1.692865
v -7.416404 1.657428 -0.3776111
v -2.214176 -1.086606 -1.834799
v 1.947383E-05 -2.173229 -1.834799
v 1.359893E-05 -1.840243 -0.7168054
v -2.002791 -0.9201207 -0.7168054
v -7.416415 -1.657429 -0.3776208
v -7.49134 -1.616952 -1.692865
v -12.83004 -2.394738 -2.56661
v -12.76851 -2.147299 -4.079105
v -13.94397 -1.438316 -3.334144
v -12.7685 2.147288 -4.079105
v -12.83004 2.394734 -2.56661
v -13.94395 1.438307 -3.334144
vt 0.8694459 0.9786849
vt 0.9491379 0.908943
vt 0.9483484 0.9684646
vt 0.8689246 0.8978049
vt 0.7905433 0.9889052
vt 0.7887112 0.8866668
vt 0.7731628 0.912834
vt 0.7735974 0.9631064
vt 0.7890474 0.9883279
vt 0.7729841 0.9119677
vt 0.7725482 0.9622396
vt 0.788983 0.8860729
vt 0.8690617 0.897508
vt 0.8686979 0.9783962
vt 0.9483484 0.9684646
vt 0.9491404 0.908943
vt 0.9918916 0.9887021
vt 0.9539129 0.9574873
vt 0.9483484 0.9684646
vt 0.9918916 0.9757851
vt 0.8694459 0.9786849
vt 0.9918916 0.9376433
vt 0.8744856 0.9644973
vt 0.7905433 0.9889052
vt 0.9541842 0.9177579
vt 0.9918916 0.9008896
vt 0.7950583 0.9715073
vt 0.7735974 0.9631064
vt 0.9491379 0.908943
vt 0.9918916 0.8848852
vt 0.8743294 0.910911
vt 0.7944747 0.9040641
vt 0.7731628 0.912834
vt 0.7887112 0.8866668
vt 0.8689246 0.8978049
vt 0.9491379 0.908943
vt 0.9918916 0.8848852
vt 0.9483484 0.9684646
vt 0.9491404 0.908943
vt 0.9483484 0.9684646
vt 0.9491404 0.908943
vt 0.9918916 0.9887021
vt 0.9483484 0.9684646
vt 0.9918916 0.9887021
vt 0.9483484 0.9684646
vt 0.9918916 0.9757851
vt 0.9539127 0.9574872
vt 0.9918916 0.9376433
vt 0.8738868 0.9642494
vt 0.8686979 0.9783962
vt 0.9541842 0.9177579
vt 0.9918916 0.9008896
vt 0.9918916 0.8848852
vt 0.9491404 0.908943
vt 0.8690617 0.897508
vt 0.8743151 0.9106622
vt 0.788983 0.8860729
vt 0.794446 0.9035665
vt 0.7729841 0.9119677
vt 0.7938609 0.9710115
vt 0.7890474 0.9883279
vt 0.7725482 0.9622396
vn 0.05144805 0.392832 0.9181699
vn 0.6658604 -0.5294163 0.5256885
vn 0.6658618 0.5294172 0.5256858
vn 0.05144713 -0.3928336 0.9181693
vn 0.00609795 0.3261112 0.9453117
vn 0.006098579 -0.3261152 0.9453104
vn 0.9966499 -0.06842978 0.04479092
vn 0.9966492 0.06844137 0.04479054
vn -0.3501603 0.3788886 0.8566395
vn -0.9966494 -0.0684339 0.04479633
vn -0.996649 0.06843892 0.04479741
vn -0.3501601 -0.3788885 0.8566396
vn -0.1836788 -0.3089338 0.9331784
vn -0.1836779 0.3089329 0.9331788
vn -0.4671627 0.6610204 0.5872061
vn -0.467157 -0.6610202 0.5872109
vn -1.226967E-07 0.998432 0.05597796
vn -0.2469408 0.5367956 -0.8067656
vn 0.6658618 0.5294172 0.5256858
vn 1.059173E-06 0.9321148 -0.3621631
vn 0.05144805 0.392832 0.9181699
vn -7.693659E-07 -3.919411E-07 -1
vn -0.180413 0.3172633 -0.9310184
vn 0.00609795 0.3261112 0.9453117
vn -0.2469415 -0.5367928 -0.8067672
vn 2.067262E-06 -0.9321134 -0.3621665
vn 0.07959528 0.3554253 -0.9313096
vn 0.9966492 0.06844137 0.04479054
vn 0.6658604 -0.5294163 0.5256885
vn 0 -0.998432 0.0559778
vn -0.1804112 -0.3172628 -0.9310188
vn 0.07959685 -0.3554239 -0.93131
vn 0.9966499 -0.06842978 0.04479092
vn 0.006098579 -0.3261152 0.9453104
vn 0.05144713 -0.3928336 0.9181693
vn 0.8094033 -0.5872532 0
vn 0 -1 0
vn 0.8094002 0.5872575 0
vn -0.467157 -0.6610202 0.5872109
vn 0.6658618 0.5294172 0.5256858
vn -0.8093994 -0.5872585 0
vn 0 1 0
vn -0.4671627 0.6610204 0.5872061
vn -1.226967E-07 0.998432 0.05597796
vn -0.8093956 0.5872638 0
vn 1.059173E-06 0.9321148 -0.3621631
vn -0.09293795 0.5014712 -0.8601681
vn -7.693659E-07 -3.919411E-07 -1
vn 0.285051 0.4023715 -0.8699673
vn -0.1836779 0.3089329 0.9331788
vn -0.09293935 -0.5014665 -0.8601707
vn 2.067262E-06 -0.9321134 -0.3621665
vn 0 -0.998432 0.0559778
vn -0.467157 -0.6610202 0.5872109
vn -0.1836788 -0.3089338 0.9331784
vn 0.2850517 -0.4023701 -0.8699677
vn -0.3501601 -0.3788885 0.8566396
vn 0.2910269 -0.2642359 -0.9195014
vn -0.9966494 -0.0684339 0.04479633
vn 0.2910275 0.2642358 -0.9195012
vn -0.3501603 0.3788886 0.8566395
vn -0.996649 0.06843892 0.04479741
g BrokenPropeller_0
f 3/3/3 2/2/2 1/1/1
f 2/2/2 4/4/4 1/1/1
f 1/1/1 4/4/4 5/5/5
f 4/4/4 6/6/6 5/5/5
f 5/5/5 6/6/6 7/7/7
f 8/8/8 5/5/5 7/7/7
f 11/11/11 10/10/10 9/9/9
f 10/10/10 12/12/12 9/9/9
f 9/9/9 12/12/12 13/13/13
f 14/14/14 9/9/9 13/13/13
f 14/14/14 13/13/13 15/15/15
f 13/13/13 16/16/16 15/15/15
f 19/19/19 18/18/18 17/17/17
f 18/18/18 20/20/20 17/17/17
f 19/19/19 21/21/21 18/18/18
f 18/18/18 22/22/22 20/20/20
f 21/21/21 23/23/23 18/18/18
f 21/21/21 24/24/24 23/23/23
f 25/25/25 22/22/22 18/18/18
f 18/18/18 23/23/23 25/25/25
f 25/25/25 26/26/26 22/22/22
f 24/24/24 27/27/27 23/23/23
f 24/24/24 28/28/28 27/27/27
f 26/26/26 25/25/25 29/29/29
f 30/30/30 26/26/26 29/29/29
f 23/23/23 31/31/31 25/25/25
f 23/23/23 27/27/27 31/31/31
f 25/25/25 31/31/31 29/29/29
f 27/27/27 28/28/28 32/32/32
f 27/27/27 32/32/32 31/31/31
f 28/28/28 33/33/33 32/32/32
f 32/32/32 33/33/33 34/34/34
f 32/32/32 34/34/34 35/35/35
f 31/31/31 32/32/32 35/35/35
f 31/31/31 35/35/35 29/29/29
f 29/29/29 36/36/36 30/30/30
f 36/36/36 37/37/37 30/30/30
f 38/38/38 36/36/36 29/29/29
f 30/30/30 37/37/37 39/39/39
f 40/40/40 38/38/38 29/29/29
f 37/37/37 41/41/41 39/39/39
f 42/42/42 38/38/38 40/40/40
f 39/39/39 41/41/41 43/43/43
f 44/44/44 42/42/42 40/40/40
f 45/45/45 42/42/42 44/44/44
f 41/41/41 45/45/45 43/43/43
f 43/43/43 45/45/45 44/44/44
f 44/44/44 46/46/46 43/43/43
f 46/46/46 47/47/47 43/43/43
f 47/47/47 46/46/46 48/48/48
f 47/47/47 49/49/49 43/43/43
f 49/49/49 50/50/50 43/43/43
f 47/47/47 48/48/48 51/51/51
f 51/51/51 48/48/48 52/52/52
f 51/51/51 52/52/52 53/53/53
f 54/54/54 51/51/51 53/53/53
f 54/54/54 55/55/55 51/51/51
f 51/51/51 56/56/56 47/47/47
f 55/55/55 56/56/56 51/51/51
f 56/56/56 49/49/49 47/47/47
f 55/55/55 57/57/57 56/56/56
f 57/57/57 58/58/58 56/56/56
f 56/56/56 58/58/58 49/49/49
f 57/57/57 59/59/59 58/58/58
f 49/49/49 60/60/60 50/50/50
f 58/58/58 60/60/60 49/49/49
f 58/58/58 59/59/59 60/60/60
f 60/60/60 61/61/61 50/50/50
f 59/59/59 62/62/62 60/60/60
f 60/60/60 62/62/62 61/61/61
