g BroomL
v 2.898381 -9.930134E-08 -1.673381
v 1.673381 -9.930134E-08 -2.898381
v -3.899086E-07 -9.930134E-08 0
v 3.346761 -9.930134E-08 0
v -3.899086E-07 -9.930134E-08 -3.346761
v 2.898381 -9.930134E-08 1.673381
v -1.673381 -9.930134E-08 -2.898381
v 1.673381 -9.930134E-08 2.898381
v -2.898381 -9.930134E-08 -1.673381
v -3.899086E-07 -9.930134E-08 3.346761
v -3.346761 -9.930134E-08 0
v -1.673381 -9.930134E-08 2.898381
v -2.898381 -9.930134E-08 1.673381
v 2.898381 -9.930134E-08 -1.673381
v 2.898381 0.7615581 -1.673381
v 1.673381 0.7615581 -2.898381
v 1.673381 -9.930134E-08 -2.898381
v 3.346761 -9.930134E-08 0
v -3.899086E-07 0.7615581 -3.346761
v -3.899086E-07 -9.930134E-08 -3.346761
v 3.346761 0.7615581 0
v 2.898381 -9.930134E-08 1.673381
v -3.899086E-07 0.7615581 0
v -1.673381 0.7615581 -2.898381
v 2.898381 0.7615581 1.673381
v -1.673381 -9.930134E-08 -2.898381
v 1.673381 -9.930134E-08 2.898381
v -2.898381 0.7615581 -1.673381
v -2.898381 -9.930134E-08 -1.673381
v 1.673381 0.7615581 2.898381
v -3.899086E-07 -9.930134E-08 3.346761
v -3.346761 0.7615581 0
v -3.346761 -9.930134E-08 0
v -3.899086E-07 0.7615581 3.346761
v -1.673381 -9.930134E-08 2.898381
v -2.898381 0.7615581 1.673381
v -2.898381 -9.930134E-08 1.673381
v -1.673381 0.7615581 2.898381
vt 0.5676047 0.2306526
vt 0.5367701 0.2614872
vt 0.4946494 0.1851622
vt 0.5788909 0.1885318
vt 0.4946494 0.2727733
vt 0.5676047 0.1464111
vt 0.4525287 0.2614872
vt 0.5367701 0.1155766
vt 0.4216941 0.2306526
vt 0.4946494 0.1042904
vt 0.4104078 0.1885318
vt 0.4525287 0.1155766
vt 0.4216941 0.1464111
vt 0.5676047 0.2306526
vt 0.5676047 0.2306526
vt 0.5367701 0.2614872
vt 0.5367701 0.2614872
vt 0.5788909 0.1885318
vt 0.4946494 0.2727733
vt 0.4946494 0.2727733
vt 0.5788909 0.1885318
vt 0.5676047 0.1464111
vt 0.4946494 0.1851622
vt 0.4525287 0.2614872
vt 0.5676047 0.1464111
vt 0.4525287 0.2614872
vt 0.5367701 0.1155766
vt 0.4216941 0.2306526
vt 0.4216941 0.2306526
vt 0.5367701 0.1155766
vt 0.4946494 0.1042904
vt 0.4104078 0.1885318
vt 0.4104078 0.1885318
vt 0.4946494 0.1042904
vt 0.4525287 0.1155766
vt 0.4216941 0.1464111
vt 0.4216941 0.1464111
vt 0.4525287 0.1155766
vn 0.415089 -0.8776493 -0.2396517
vn 0.2396517 -0.8776493 -0.415089
vn 0 -1 0
vn 0.4793034 -0.8776493 0
vn 0 -0.8776493 -0.4793034
vn 0.415089 -0.8776493 0.2396517
vn -0.2396517 -0.8776493 -0.415089
vn 0.2396516 -0.8776492 0.415089
vn -0.415089 -0.8776492 -0.2396517
vn 0 -0.8776493 0.4793034
vn -0.4793034 -0.8776493 0
vn -0.2396517 -0.8776493 0.415089
vn -0.4150891 -0.8776492 0.2396517
vn 0.415089 -0.8776493 -0.2396517
vn 0.415089 0.8776493 -0.2396517
vn 0.2396517 0.8776493 -0.415089
vn 0.2396517 -0.8776493 -0.415089
vn 0.4793034 -0.8776493 0
vn 0 0.8776493 -0.4793034
vn 0 -0.8776493 -0.4793034
vn 0.4793034 0.8776493 0
vn 0.415089 -0.8776493 0.2396517
vn 0 1 0
vn -0.2396517 0.8776493 -0.415089
vn 0.415089 0.8776493 0.2396517
vn -0.2396517 -0.8776493 -0.415089
vn 0.2396516 -0.8776492 0.415089
vn -0.415089 0.8776492 -0.2396517
vn -0.415089 -0.8776492 -0.2396517
vn 0.2396516 0.8776492 0.415089
vn 0 -0.8776493 0.4793034
vn -0.4793034 0.8776493 0
vn -0.4793034 -0.8776493 0
vn 0 0.8776493 0.4793034
vn -0.2396517 -0.8776493 0.415089
vn -0.4150891 0.8776492 0.2396517
vn -0.4150891 -0.8776492 0.2396517
vn -0.2396517 0.8776492 0.415089
g BroomL_0
f 3/3/3 2/2/2 1/1/1
f 3/3/3 1/1/1 4/4/4
f 3/3/3 5/5/5 2/2/2
f 3/3/3 4/4/4 6/6/6
f 3/3/3 7/7/7 5/5/5
f 3/3/3 6/6/6 8/8/8
f 3/3/3 9/9/9 7/7/7
f 3/3/3 8/8/8 10/10/10
f 3/3/3 11/11/11 9/9/9
f 3/3/3 10/10/10 12/12/12
f 3/3/3 13/13/13 11/11/11
f 3/3/3 12/12/12 13/13/13
f 16/16/16 15/15/15 14/14/14
f 17/17/17 16/16/16 14/14/14
f 14/14/14 15/15/15 18/18/18
f 19/19/19 16/16/16 17/17/17
f 20/20/20 19/19/19 17/17/17
f 15/15/15 21/21/21 18/18/18
f 18/18/18 21/21/21 22/22/22
f 16/16/16 23/23/23 15/15/15
f 19/19/19 23/23/23 16/16/16
f 15/15/15 23/23/23 21/21/21
f 24/24/24 23/23/23 19/19/19
f 24/24/24 19/19/19 20/20/20
f 21/21/21 23/23/23 25/25/25
f 21/21/21 25/25/25 22/22/22
f 26/26/26 24/24/24 20/20/20
f 22/22/22 25/25/25 27/27/27
f 28/28/28 24/24/24 26/26/26
f 28/28/28 23/23/23 24/24/24
f 29/29/29 28/28/28 26/26/26
f 25/25/25 30/30/30 27/27/27
f 25/25/25 23/23/23 30/30/30
f 27/27/27 30/30/30 31/31/31
f 32/32/32 28/28/28 29/29/29
f 32/32/32 23/23/23 28/28/28
f 33/33/33 32/32/32 29/29/29
f 30/30/30 34/34/34 31/31/31
f 30/30/30 23/23/23 34/34/34
f 31/31/31 34/34/34 35/35/35
f 36/36/36 32/32/32 33/33/33
f 36/36/36 23/23/23 32/32/32
f 37/37/37 36/36/36 33/33/33
f 35/35/35 38/38/38 37/37/37
f 34/34/34 38/38/38 35/35/35
f 34/34/34 23/23/23 38/38/38
f 38/38/38 23/23/23 36/36/36
f 38/38/38 36/36/36 37/37/37
