g BucketHat
v -9.016286 0.1955728 0.0446167
v -7.294329 0.1955729 -5.1592
v -6.975231 3.19376 0.07911621
v -5.643081 3.192533 -3.993006
v -2.786186 0.592279 -8.320199
v -2.155465 3.262313 -6.446815
v 2.786186 0.592279 -8.320201
v 2.155465 3.323775 -6.446816
v 5.643081 3.262313 -3.993007
v 7.294329 0.1955729 -5.159203
v 6.975231 3.19376 0.0791156
v 9.016286 0.1955728 0.04461609
v -9.016286 0.1955728 0.0446167
v -6.975231 3.19376 0.07911621
v -7.294328 0.1955729 5.455634
v -5.64308 3.193055 4.274899
v -2.786185 0.592279 8.814304
v -2.155464 3.262313 6.859314
v 2.786186 0.592279 8.814302
v 2.155465 3.319707 6.859313
v 5.643081 3.262313 4.274898
v 7.294329 0.1955729 5.455632
v 6.975231 3.19376 0.0791156
v 9.016286 0.1955728 0.04461609
v -7.294329 0.1955729 -5.1592
v -9.016286 0.1955728 0.0446167
v -9.016286 -0.396705 0.0446167
v -7.294329 -0.396705 -5.1592
v -2.786186 1.220703E-06 -8.320199
v -2.786186 0.592279 -8.320199
v 2.786186 0.592279 -8.320201
v 2.786186 1.296997E-06 -8.320201
v 7.294329 0.1955729 -5.159203
v 7.294329 -0.3967049 -5.159203
v 9.016286 0.1955728 0.04461609
v 9.016286 -0.396705 0.04461609
v -9.016286 -0.396705 0.0446167
v -9.016286 0.1955728 0.0446167
v -7.294328 -0.3967049 5.455634
v -7.294328 0.1955729 5.455634
v -2.786185 1.220703E-06 8.814304
v -2.786185 0.592279 8.814304
v 2.786186 1.296997E-06 8.814302
v 2.786186 0.592279 8.814302
v 7.294329 0.1955729 5.455632
v 7.294329 -0.3967049 5.455632
v 9.016286 -0.396705 0.04461609
v 9.016286 0.1955728 0.04461609
v 2.786186 1.296997E-06 -8.320201
v 5.374125E-07 5.125118 0.133277
v 7.294329 -0.3967049 -5.159203
v -2.786186 1.220703E-06 -8.320199
v 9.016286 -0.396705 0.04461609
v -7.294329 -0.396705 -5.1592
v 7.294329 -0.3967049 5.455632
v -9.016286 -0.396705 0.0446167
v 2.786186 1.296997E-06 8.814302
v -7.294328 -0.3967049 5.455634
v -2.786185 1.220703E-06 8.814304
v 1.256012 7.370162 -3.789495
v -1.256012 7.370162 -3.789494
v -1.823762 6.027507 -5.461586
v -3.288289 7.370162 -2.354258
v 1.823762 6.027507 -5.461586
v 3.288288 7.370162 -2.354258
v 4.774673 6.036799 -3.387937
v 4.064542 7.370162 -0.004249878
v -4.774673 6.036799 -3.387935
v -4.064542 7.370162 -0.004249878
v 2.155465 3.323775 -6.446816
v -2.155465 3.262313 -6.446815
v 5.643081 3.262313 -3.993007
v -5.643081 3.192533 -3.993006
v 5.90182 6.041808 0.03491455
v 3.288288 7.370162 2.368788
v 6.975231 3.19376 0.0791156
v -5.901819 6.041808 0.03491516
v -3.288289 7.370162 2.368788
v -6.975231 3.19376 0.07911621
v 4.774673 6.050011 3.536272
v 1.256012 7.370162 3.827397
v 5.643081 3.262313 4.274898
v -4.774672 6.050011 3.536273
v -5.64308 3.193055 4.274899
v -1.256012 7.370162 3.827397
v 1.823762 6.059138 5.692519
v 2.155465 3.319707 6.859313
v -1.823762 6.059138 5.692521
v -2.155464 3.262313 6.859314
v 3.288288 7.370162 -2.354258
v 1.978808E-07 7.745172 -0.01827515
v 1.256012 7.370162 -3.789495
v 4.064542 7.370162 -0.004249878
v -1.256012 7.370162 -3.789494
v 3.288288 7.370162 2.368788
v -3.288289 7.370162 -2.354258
v 1.256012 7.370162 3.827397
v -4.064542 7.370162 -0.004249878
v -1.256012 7.370162 3.827397
v -3.288289 7.370162 2.368788
vt 0.1026737 0.2294025
vt 0.1541862 0.3934157
vt 0.1934758 0.2291216
vt 0.2306789 0.3410085
vt 0.2969059 0.4979984
vt 0.3265702 0.4072171
vt 0.475927 0.4941892
vt 0.4448586 0.4072171
vt 0.5401922 0.33938
vt 0.6169364 0.391105
vt 0.5769506 0.2270652
vt 0.6676971 0.2268944
vt 0.3510892 0.3547538
vt 0.4418912 0.3544729
vt 0.4012738 0.1844682
vt 0.4790213 0.239962
vt 0.5440158 0.08192171
vt 0.573265 0.1681559
vt 0.7176789 0.07824607
vt 0.6916074 0.1679199
vt 0.7870045 0.2378037
vt 0.8638738 0.1802934
vt 0.825366 0.3524165
vt 0.9161128 0.3522457
vt 0.1141551 0.4204441
vt 0.05376455 0.2290186
vt 0.03227973 0.2290186
vt 0.0967994 0.4331015
vt 0.2706068 0.5597397
vt 0.2773956 0.5393389
vt 0.4823626 0.5430347
vt 0.4885156 0.563645
vt 0.6495667 0.4291309
vt 0.6666198 0.442184
vt 0.7156653 0.2387332
vt 0.7371543 0.2389381
vt 0.292832 0.3443069
vt 0.3135769 0.3443069
vt 0.3607498 0.1408704
vt 0.3774893 0.153142
vt 0.5335046 0.01728781
vt 0.5395801 0.03711446
vt 0.7429436 0.0214534
vt 0.7361991 0.04108556
vt 0.8939604 0.1611329
vt 0.9108366 0.1490605
vt 0.9734329 0.3538848
vt 0.9526839 0.3536869
vt 0.2654481 0.6396903
vt 0.2110148 0.8053676
vt 0.353332 0.7017022
vt 0.1565582 0.6396979
vt 0.387174 0.8032904
vt 0.06868315 0.7017219
vt 0.3536924 0.9090813
vt 0.03485505 0.8033147
vt 0.2654605 0.9745269
vt 0.0683514 0.9091009
vt 0.156592 0.9745346
vt 0.7123892 0.6648985
vt 0.7648885 0.6672727
vt 0.7933892 0.5893913
vt 0.8069056 0.6979746
vt 0.68775 0.5847287
vt 0.6688384 0.6933443
vt 0.6006778 0.6439547
vt 0.6507785 0.7423152
vt 0.8775672 0.6508843
vt 0.8222244 0.7474111
vt 0.6605021 0.5053696
vt 0.8237965 0.5053696
vt 0.5310582 0.5972479
vt 0.949372 0.6069852
vt 0.5658262 0.7426257
vt 0.6653587 0.793077
vt 0.4815741 0.7464224
vt 0.9070283 0.7513654
vt 0.8047515 0.7973512
vt 0.990851 0.7595742
vt 0.5961037 0.8444189
vt 0.7073615 0.8257155
vt 0.529997 0.8983507
vt 0.8711402 0.8514333
vt 0.9344886 0.907836
vt 0.7608787 0.8277108
vt 0.679545 0.9081219
vt 0.6549321 0.9902295
vt 0.7846797 0.9118899
vt 0.80607 0.990992
vt 0.2612963 0.1627547
vt 0.1861621 0.1095603
vt 0.2148641 0.1955602
vt 0.2790302 0.109057
vt 0.1574604 0.1955602
vt 0.2612964 0.05483341
vt 0.1110281 0.1627548
vt 0.2148623 0.02149981
vt 0.09329408 0.1090571
vt 0.1574618 0.02149987
vt 0.1110278 0.05483353
vn -0.859712 0.5107781 -0.001029782
vn -0.6927568 0.5082695 -0.5116152
vn -0.854085 0.5201298 0.001932191
vn -0.6875737 0.5166716 -0.5101889
vn -0.2609554 0.5002648 -0.8256133
vn -0.2576632 0.5085457 -0.8215783
vn 0.2609552 0.5002649 -0.8256133
vn 0.2576628 0.5085458 -0.8215785
vn 0.6875737 0.5166716 -0.5101889
vn 0.6927568 0.5082695 -0.5116152
vn 0.854085 0.5201298 0.001932067
vn 0.859712 0.5107781 -0.001029896
vn -0.859712 0.5107781 -0.001029782
vn -0.854085 0.5201298 0.001932191
vn -0.7009569 0.5103105 0.4982397
vn -0.6915894 0.5253255 0.495719
vn -0.2701695 0.5129882 0.8147709
vn -0.2650566 0.5333591 0.803289
vn 0.2701697 0.5129882 0.8147708
vn 0.2650568 0.533359 0.8032889
vn 0.6915894 0.5253255 0.495719
vn 0.7009569 0.5103105 0.4982396
vn 0.854085 0.5201298 0.001932067
vn 0.859712 0.5107781 -0.001029896
vn -0.6927568 0.5082695 -0.5116152
vn -0.859712 0.5107781 -0.001029782
vn 0.3790037 -0.9253951 0.0004625056
vn 0.3045091 -0.925528 0.225105
vn 0.1162157 -0.9233386 0.3659778
vn -0.2609554 0.5002648 -0.8256133
vn 0.2609552 0.5002649 -0.8256133
vn -0.1162156 -0.9233386 0.3659777
vn 0.6927568 0.5082695 -0.5116152
vn -0.304509 -0.925528 0.2251049
vn 0.859712 0.5107781 -0.001029896
vn -0.3790037 -0.9253951 0.0004625549
vn 0.3790037 -0.9253951 0.0004625056
vn -0.859712 0.5107781 -0.001029782
vn 0.3080542 -0.9254969 -0.2203589
vn -0.7009569 0.5103105 0.4982397
vn 0.1174351 -0.9270962 -0.3559514
vn -0.2701695 0.5129882 0.8147709
vn -0.1174352 -0.9270962 -0.3559515
vn 0.2701697 0.5129882 0.8147708
vn 0.7009569 0.5103105 0.4982396
vn -0.3080542 -0.9254969 -0.2203589
vn -0.3790037 -0.9253951 0.0004625549
vn 0.859712 0.5107781 -0.001029896
vn -0.1162156 -0.9233386 0.3659777
vn 0 -0.9999992 -0.001294516
vn -0.304509 -0.925528 0.2251049
vn 0.1162157 -0.9233386 0.3659778
vn -0.3790037 -0.9253951 0.0004625549
vn 0.3045091 -0.925528 0.225105
vn -0.3080542 -0.9254969 -0.2203589
vn 0.3790037 -0.9253951 0.0004625056
vn -0.1174352 -0.9270962 -0.3559515
vn 0.3080542 -0.9254969 -0.2203589
vn 0.1174351 -0.9270962 -0.3559514
vn 0.1327123 0.8945782 -0.4267522
vn -0.1327124 0.8945781 -0.4267523
vn -0.2581868 0.508788 -0.8212639
vn -0.3519579 0.8979205 -0.2643187
vn 0.2581865 0.508788 -0.8212639
vn 0.3519578 0.8979206 -0.2643185
vn 0.6888511 0.5146032 -0.5105561
vn 0.4339232 0.9009472 -0.002160135
vn -0.6888512 0.5146032 -0.5105562
vn -0.4339233 0.9009472 -0.002160141
vn 0.2576628 0.5085458 -0.8215785
vn -0.2576632 0.5085457 -0.8215783
vn 0.6875737 0.5166716 -0.5101889
vn -0.6875737 0.5166716 -0.5101889
vn 0.8534102 0.5212384 -0.001238715
vn 0.3468094 0.90455 0.2480172
vn 0.854085 0.5201298 0.001932067
vn -0.8534104 0.5212383 -0.001238643
vn -0.3468094 0.90455 0.2480171
vn -0.854085 0.5201298 0.001932191
vn 0.6874894 0.5355946 0.4904045
vn 0.1304655 0.9082971 0.3974607
vn 0.6915894 0.5253255 0.495719
vn -0.6874894 0.5355946 0.4904045
vn -0.6915894 0.5253255 0.495719
vn -0.1304654 0.9082972 0.3974607
vn 0.2613236 0.5515915 0.7921217
vn 0.2650568 0.533359 0.8032889
vn -0.2613234 0.5515915 0.7921217
vn -0.2650566 0.5333591 0.803289
vn 0.3519578 0.8979206 -0.2643185
vn 0 1 -0.0002584464
vn 0.1327123 0.8945782 -0.4267522
vn 0.4339232 0.9009472 -0.002160135
vn -0.1327124 0.8945781 -0.4267523
vn 0.3468094 0.90455 0.2480172
vn -0.3519579 0.8979205 -0.2643187
vn 0.1304655 0.9082971 0.3974607
vn -0.4339233 0.9009472 -0.002160141
vn -0.1304654 0.9082972 0.3974607
vn -0.3468094 0.90455 0.2480171
g BucketHat_0
f 3/3/3 2/2/2 1/1/1
f 3/3/3 4/4/4 2/2/2
f 4/4/4 5/5/5 2/2/2
f 4/4/4 6/6/6 5/5/5
f 6/6/6 7/7/7 5/5/5
f 6/6/6 8/8/8 7/7/7
f 7/7/7 8/8/8 9/9/9
f 7/7/7 9/9/9 10/10/10
f 10/10/10 9/9/9 11/11/11
f 10/10/10 11/11/11 12/12/12
f 15/15/15 14/14/14 13/13/13
f 15/15/15 16/16/16 14/14/14
f 17/17/17 16/16/16 15/15/15
f 17/17/17 18/18/18 16/16/16
f 19/19/19 18/18/18 17/17/17
f 19/19/19 20/20/20 18/18/18
f 21/21/21 20/20/20 19/19/19
f 21/21/21 19/19/19 22/22/22
f 23/23/23 21/21/21 22/22/22
f 23/23/23 22/22/22 24/24/24
f 27/27/27 26/26/26 25/25/25
f 27/27/27 25/25/25 28/28/28
f 25/25/25 29/29/29 28/28/28
f 25/25/25 30/30/30 29/29/29
f 29/29/29 30/30/30 31/31/31
f 29/29/29 31/31/31 32/32/32
f 32/32/32 31/31/31 33/33/33
f 32/32/32 33/33/33 34/34/34
f 34/34/34 33/33/33 35/35/35
f 34/34/34 35/35/35 36/36/36
f 39/39/39 38/38/38 37/37/37
f 39/39/39 40/40/40 38/38/38
f 41/41/41 40/40/40 39/39/39
f 41/41/41 42/42/42 40/40/40
f 43/43/43 42/42/42 41/41/41
f 43/43/43 44/44/44 42/42/42
f 45/45/45 44/44/44 43/43/43
f 45/45/45 43/43/43 46/46/46
f 47/47/47 45/45/45 46/46/46
f 47/47/47 48/48/48 45/45/45
f 51/51/51 50/50/50 49/49/49
f 49/49/49 50/50/50 52/52/52
f 53/53/53 50/50/50 51/51/51
f 52/52/52 50/50/50 54/54/54
f 55/55/55 50/50/50 53/53/53
f 54/54/54 50/50/50 56/56/56
f 57/57/57 50/50/50 55/55/55
f 56/56/56 50/50/50 58/58/58
f 59/59/59 50/50/50 57/57/57
f 58/58/58 50/50/50 59/59/59
f 62/62/62 61/61/61 60/60/60
f 63/63/63 61/61/61 62/62/62
f 62/62/62 60/60/60 64/64/64
f 64/64/64 60/60/60 65/65/65
f 64/64/64 65/65/65 66/66/66
f 66/66/66 65/65/65 67/67/67
f 63/63/63 62/62/62 68/68/68
f 69/69/69 63/63/63 68/68/68
f 62/62/62 64/64/64 70/70/70
f 70/70/70 64/64/64 66/66/66
f 62/62/62 70/70/70 71/71/71
f 68/68/68 62/62/62 71/71/71
f 70/70/70 66/66/66 72/72/72
f 68/68/68 71/71/71 73/73/73
f 66/66/66 67/67/67 74/74/74
f 72/72/72 66/66/66 74/74/74
f 74/74/74 67/67/67 75/75/75
f 72/72/72 74/74/74 76/76/76
f 69/69/69 68/68/68 77/77/77
f 77/77/77 68/68/68 73/73/73
f 78/78/78 69/69/69 77/77/77
f 77/77/77 73/73/73 79/79/79
f 74/74/74 75/75/75 80/80/80
f 76/76/76 74/74/74 80/80/80
f 80/80/80 75/75/75 81/81/81
f 76/76/76 80/80/80 82/82/82
f 78/78/78 77/77/77 83/83/83
f 83/83/83 77/77/77 79/79/79
f 83/83/83 79/79/79 84/84/84
f 85/85/85 78/78/78 83/83/83
f 80/80/80 81/81/81 86/86/86
f 82/82/82 80/80/80 86/86/86
f 86/86/86 81/81/81 85/85/85
f 82/82/82 86/86/86 87/87/87
f 88/88/88 83/83/83 84/84/84
f 85/85/85 83/83/83 88/88/88
f 86/86/86 85/85/85 88/88/88
f 87/87/87 86/86/86 88/88/88
f 88/88/88 84/84/84 89/89/89
f 87/87/87 88/88/88 89/89/89
f 92/92/92 91/91/91 90/90/90
f 90/90/90 91/91/91 93/93/93
f 94/94/94 91/91/91 92/92/92
f 93/93/93 91/91/91 95/95/95
f 96/96/96 91/91/91 94/94/94
f 95/95/95 91/91/91 97/97/97
f 98/98/98 91/91/91 96/96/96
f 97/97/97 91/91/91 99/99/99
f 100/100/100 91/91/91 98/98/98
f 99/99/99 91/91/91 100/100/100
