g BuckShotBarrel_HoleDark
v -2.493875 0.0102202 12.27547
v -1.897454 -0.6062992 12.27547
v -2.371816 -0.7604303 12.27547
v -1.412312 -1.015884 12.27547
v -2.017588 -1.455642 12.27547
v -0.9573218 -1.307418 12.27547
v -1.465862 -2.007367 12.27547
v -0.4623901 -1.41287 12.27547
v -0.7706518 -2.361596 12.27547
v 0 -1.486106 12.27547
v 0 -2.483656 12.27547
v 0.4623901 -1.41287 12.27547
v 0.7706494 -2.361595 12.27547
v 0.9573193 -1.307418 12.27547
v 1.465862 -2.007367 12.27547
v 1.41231 -1.015884 12.27547
v 2.017587 -1.455642 12.27547
v 1.897454 -0.6062992 12.27547
v 2.371814 -0.7604303 12.27547
v 2.493872 0.0102202 12.27547
v 2.017588 1.476082 12.27547
v 2.017588 1.476082 11.71497
v 2.371818 0.7808693 11.71497
v 2.371818 0.7808693 12.27547
v 1.465863 2.027807 12.27547
v 1.465863 2.027807 11.71497
v 2.017588 1.476082 11.71497
v 2.017588 1.476082 12.27547
v 0.7706494 2.382035 12.27547
v 0.7706494 2.382035 11.71497
v 1.465863 2.027807 11.71497
v 1.465863 2.027807 12.27547
v 0 2.504096 12.27547
v 0 2.504096 11.71497
v 0.7706494 2.382035 11.71497
v 0.7706494 2.382035 12.27547
v -0.7706518 2.382035 12.27547
v -0.7706518 2.382035 11.71497
v 0 2.504096 11.71497
v 0 2.504096 12.27547
v -1.465862 2.027807 12.27547
v -1.465862 2.027807 11.71497
v -0.7706518 2.382035 11.71497
v -0.7706518 2.382035 12.27547
v -2.017588 1.476082 12.27547
v -2.017588 1.476082 11.71497
v -1.465862 2.027807 11.71497
v -1.465862 2.027807 12.27547
v -2.371816 0.7808693 12.27547
v -2.371816 0.7808693 11.71497
v -2.017588 1.476082 11.71497
v -2.017588 1.476082 12.27547
v -2.493875 0.0102202 12.27547
v -2.493875 0.0102202 11.71497
v -2.371816 0.7808693 11.71497
v -2.371816 0.7808693 12.27547
v -2.371816 -0.7604303 12.27547
v -2.371816 -0.7604303 11.71497
v -2.493875 0.0102202 11.71497
v -2.493875 0.0102202 12.27547
v -2.017588 -1.455642 12.27547
v -2.017588 -1.455642 11.71507
v -2.371816 -0.7604303 11.71497
v -2.371816 -0.7604303 12.27547
v -1.465862 -2.007367 12.27547
v -1.465862 -2.007367 11.71507
v -2.017588 -1.455642 11.71507
v -2.017588 -1.455642 12.27547
v -0.7706518 -2.361596 12.27547
v -0.7706518 -2.361596 11.71507
v -1.465862 -2.007367 11.71507
v -1.465862 -2.007367 12.27547
v 0 -2.483656 12.27547
v 0 -2.483656 11.71507
v -0.7706518 -2.361596 11.71507
v -0.7706518 -2.361596 12.27547
v 0.7706494 -2.361595 12.27547
v 0.7706494 -2.361595 11.71507
v 0 -2.483656 11.71507
v 0 -2.483656 12.27547
v 1.465862 -2.007367 12.27547
v 1.465862 -2.007367 11.71507
v 0.7706494 -2.361595 11.71507
v 0.7706494 -2.361595 12.27547
v 2.017587 -1.455642 12.27547
v 2.017587 -1.455642 11.71507
v 1.465862 -2.007367 11.71507
v 1.465862 -2.007367 12.27547
v 2.371814 -0.7604303 12.27547
v 2.371814 -0.7604303 11.71497
v 2.017587 -1.455642 11.71507
v 2.017587 -1.455642 12.27547
v 2.493872 0.0102202 12.27547
v 2.493872 0.0102202 11.71497
v 2.371814 -0.7604303 11.71497
v 2.371814 -0.7604303 12.27547
v 2.371818 0.7808693 12.27547
v 2.371818 0.7808693 11.71497
v 2.493872 0.0102202 11.71497
v 2.493872 0.0102202 12.27547
v 2.371818 0.7808693 12.27547
v 0 0.0102202 12.27547
v 2.017588 1.476082 12.27547
v 2.493872 0.0102202 12.27547
v 1.465863 2.027807 12.27547
v 1.897454 -0.6062992 12.27547
v 0.7706494 2.382035 12.27547
v 1.41231 -1.015884 12.27547
v 0 2.504096 12.27547
v 0.9573193 -1.307418 12.27547
v -0.7706518 2.382035 12.27547
v 0.4623901 -1.41287 12.27547
v -1.465862 2.027807 12.27547
v 0 -1.486106 12.27547
v -2.017588 1.476082 12.27547
v -0.4623901 -1.41287 12.27547
v -2.371816 0.7808693 12.27547
v -0.9573218 -1.307418 12.27547
v -2.493875 0.0102202 12.27547
v -1.412312 -1.015884 12.27547
v -1.897454 -0.6062992 12.27547
vt 0.261366 0.8893703
vt 0.2639924 0.8865675
vt 0.2619035 0.8859766
vt 0.2661288 0.8847199
vt 0.2634634 0.8829152
vt 0.2681324 0.8834155
vt 0.265893 0.8804856
vt 0.2703119 0.8829278
vt 0.2689545 0.8789257
vt 0.2723481 0.8826054
vt 0.2723481 0.8783882
vt 0.2743843 0.8829278
vt 0.2757418 0.8789257
vt 0.2765638 0.8834155
vt 0.2788032 0.8804856
vt 0.2785673 0.8847199
vt 0.2812328 0.8829152
vt 0.2807038 0.8865675
vt 0.2827926 0.8859766
vt 0.2833301 0.8893703
vt 0.157919 0.9204323
vt 0.157919 0.9127775
vt 0.1502642 0.9127775
vt 0.1502642 0.9204323
vt 0.157919 0.9204323
vt 0.157919 0.9127775
vt 0.1502642 0.9127775
vt 0.1502642 0.9204323
vt 0.157919 0.9204323
vt 0.157919 0.9127775
vt 0.1502642 0.9127775
vt 0.1502642 0.9204323
vt 0.157919 0.9204323
vt 0.157919 0.9127775
vt 0.1502642 0.9127775
vt 0.1502642 0.9204323
vt 0.157919 0.9204323
vt 0.157919 0.9127775
vt 0.1502642 0.9127775
vt 0.1502642 0.9204323
vt 0.157919 0.9204323
vt 0.157919 0.9127775
vt 0.1502642 0.9127775
vt 0.1502642 0.9204323
vt 0.157919 0.9204323
vt 0.157919 0.9127775
vt 0.1502642 0.9127775
vt 0.1502642 0.9204323
vt 0.157919 0.9204323
vt 0.157919 0.9127775
vt 0.1502642 0.9127775
vt 0.1502642 0.9204323
vt 0.157919 0.9204323
vt 0.157919 0.9127775
vt 0.1502642 0.9127775
vt 0.1502642 0.9204323
vt 0.157919 0.9204323
vt 0.157919 0.9127775
vt 0.1502642 0.9127775
vt 0.1502642 0.9204323
vt 0.157919 0.9204323
vt 0.157919 0.9127775
vt 0.1502642 0.9127775
vt 0.1502642 0.9204323
vt 0.157919 0.9204323
vt 0.157919 0.9127775
vt 0.1502642 0.9127775
vt 0.1502642 0.9204323
vt 0.157919 0.9204323
vt 0.157919 0.9127775
vt 0.1502642 0.9127775
vt 0.1502642 0.9204323
vt 0.157919 0.9204323
vt 0.157919 0.9127775
vt 0.1502642 0.9127775
vt 0.1502642 0.9204323
vt 0.157919 0.9204323
vt 0.157919 0.9127775
vt 0.1502642 0.9127775
vt 0.1502642 0.9204323
vt 0.157919 0.9204323
vt 0.157919 0.9127775
vt 0.1502642 0.9127775
vt 0.1502642 0.9204323
vt 0.157919 0.9204323
vt 0.157919 0.9127775
vt 0.1502642 0.9127775
vt 0.1502642 0.9204323
vt 0.157919 0.9204323
vt 0.157919 0.9127775
vt 0.1502642 0.9127775
vt 0.1502642 0.9204323
vt 0.157919 0.9204323
vt 0.157919 0.9127775
vt 0.1502642 0.9127775
vt 0.1502642 0.9204323
vt 0.157919 0.9204323
vt 0.157919 0.9127775
vt 0.1502642 0.9127775
vt 0.1502642 0.9204323
vt 0.06094857 0.9169599
vt 0.03809457 0.9085731
vt 0.05753537 0.9236588
vt 0.06212468 0.9095343
vt 0.05221911 0.928975
vt 0.05637784 0.9034014
vt 0.0455202 0.9323882
vt 0.05170317 0.8993587
vt 0.03809457 0.9335644
vt 0.04731901 0.8965045
vt 0.03066881 0.9323882
vt 0.04254995 0.8954374
vt 0.02396999 0.928975
vt 0.03809457 0.8947317
vt 0.01865377 0.9236588
vt 0.03363915 0.8954374
vt 0.01524057 0.9169599
vt 0.02887012 0.8965045
vt 0.01406442 0.9095343
vt 0.02448599 0.8993587
vt 0.01981138 0.9034014
vn -0.5440921 0 0.8390255
vn 0 0 1
vn -0.800782 -0.2601829 0.5394932
vn 5.50854E-07 0 1
vn -0.5766402 -0.4189481 0.7014046
vn 6.0096E-07 0 1
vn -0.3852191 -0.5302077 0.7553052
vn -1.170855E-06 0 1
vn -0.193065 -0.5941902 0.7808099
vn 0 0 1
vn 6.309452E-07 -0.6151535 0.7884074
vn 1.170857E-06 0 1
vn 0.1930651 -0.5941902 0.7808098
vn -4.10461E-07 0 1
vn 0.3852191 -0.5302088 0.7553044
vn -1.354186E-07 0 1
vn 0.5766408 -0.4189471 0.7014048
vn 3.937095E-07 0 1
vn 0.8007826 -0.2601822 0.5394927
vn 0.5440916 -1.297009E-06 0.8390259
vn 0.3614835 0.2626336 0.8946247
vn 0.8090165 0.5877859 0
vn 0.9510572 0.3090148 0
vn 0.4249511 0.1380739 0.8946241
vn 0.2626331 0.3614846 0.8946244
vn 0.5877841 0.8090178 0
vn 0.8090165 0.5877859 0
vn 0.3614835 0.2626336 0.8946247
vn 0.1380759 0.4249494 0.8946245
vn 0.3090171 0.9510565 0
vn 0.5877841 0.8090178 0
vn 0.2626331 0.3614846 0.8946244
vn 0 0.4468195 0.8946242
vn 0 1 0
vn 0.3090171 0.9510565 0
vn 0.1380759 0.4249494 0.8946245
vn -0.1380761 0.4249495 0.8946244
vn -0.3090173 0.9510565 0
vn 0 1 0
vn 0 0.4468195 0.8946242
vn -0.2626333 0.3614841 0.8946245
vn -0.5877848 0.8090173 0
vn -0.3090173 0.9510565 0
vn -0.1380761 0.4249495 0.8946244
vn -0.3614838 0.2626338 0.8946245
vn -0.8090165 0.5877859 0
vn -0.5877848 0.8090173 0
vn -0.2626333 0.3614841 0.8946245
vn -0.4249503 0.1380744 0.8946244
vn -0.9510568 0.3090163 0
vn -0.8090165 0.5877859 0
vn -0.3614838 0.2626338 0.8946245
vn -0.5440921 0 0.8390255
vn -1 0 0
vn -0.9510568 0.3090163 0
vn -0.4249503 0.1380744 0.8946244
vn -0.800782 -0.2601829 0.5394932
vn -0.951061 -0.3090033 0
vn -1 0 0
vn -0.5440921 0 0.8390255
vn -0.5766402 -0.4189481 0.7014046
vn -0.8090246 -0.5877748 0
vn -0.951061 -0.3090033 0
vn -0.800782 -0.2601829 0.5394932
vn -0.3852191 -0.5302077 0.7553052
vn -0.5877861 -0.8090163 0
vn -0.8090246 -0.5877748 0
vn -0.5766402 -0.4189481 0.7014046
vn -0.193065 -0.5941902 0.7808099
vn -0.3090176 -0.9510564 0
vn -0.5877861 -0.8090163 0
vn -0.3852191 -0.5302077 0.7553052
vn 6.309452E-07 -0.6151535 0.7884074
vn 1.025671E-06 -1 0
vn -0.3090176 -0.9510564 0
vn -0.193065 -0.5941902 0.7808099
vn 0.1930651 -0.5941902 0.7808098
vn 0.3090177 -0.9510562 0
vn 1.025671E-06 -1 0
vn 6.309452E-07 -0.6151535 0.7884074
vn 0.3852191 -0.5302088 0.7553044
vn 0.5877851 -0.8090171 0
vn 0.3090177 -0.9510562 0
vn 0.1930651 -0.5941902 0.7808098
vn 0.5766408 -0.4189471 0.7014048
vn 0.8090253 -0.5877737 0
vn 0.5877851 -0.8090171 0
vn 0.3852191 -0.5302088 0.7553044
vn 0.8007826 -0.2601822 0.5394927
vn 0.9510612 -0.3090026 0
vn 0.8090253 -0.5877737 0
vn 0.5766408 -0.4189471 0.7014048
vn 0.5440916 -1.297009E-06 0.8390259
vn 1 -2.383807E-06 0
vn 0.9510612 -0.3090026 0
vn 0.8007826 -0.2601822 0.5394927
vn 0.4249511 0.1380739 0.8946241
vn 0.9510572 0.3090148 0
vn 1 -2.383807E-06 0
vn 0.5440916 -1.297009E-06 0.8390259
vn 0.4249511 0.1380739 0.8946241
vn 0 0 1
vn 0.3614835 0.2626336 0.8946247
vn 0.5440916 -1.297009E-06 0.8390259
vn 0.2626331 0.3614846 0.8946244
vn 3.937095E-07 0 1
vn 0.1380759 0.4249494 0.8946245
vn -1.354186E-07 0 1
vn 0 0.4468195 0.8946242
vn -4.10461E-07 0 1
vn -0.1380761 0.4249495 0.8946244
vn 1.170857E-06 0 1
vn -0.2626333 0.3614841 0.8946245
vn 0 0 1
vn -0.3614838 0.2626338 0.8946245
vn -1.170855E-06 0 1
vn -0.4249503 0.1380744 0.8946244
vn 6.0096E-07 0 1
vn -0.5440921 0 0.8390255
vn 5.50854E-07 0 1
vn 0 0 1
g BuckShotBarrel_HoleDark_0
f 3/3/3 2/2/2 1/1/1
f 4/4/4 2/2/2 3/3/3
f 5/5/5 4/4/4 3/3/3
f 6/6/6 4/4/4 5/5/5
f 7/7/7 6/6/6 5/5/5
f 8/8/8 6/6/6 7/7/7
f 9/9/9 8/8/8 7/7/7
f 10/10/10 8/8/8 9/9/9
f 11/11/11 10/10/10 9/9/9
f 12/12/12 10/10/10 11/11/11
f 13/13/13 12/12/12 11/11/11
f 14/14/14 12/12/12 13/13/13
f 15/15/15 14/14/14 13/13/13
f 16/16/16 14/14/14 15/15/15
f 17/17/17 16/16/16 15/15/15
f 18/18/18 16/16/16 17/17/17
f 19/19/19 18/18/18 17/17/17
f 20/20/20 18/18/18 19/19/19
f 23/23/23 22/22/22 21/21/21
f 24/24/24 23/23/23 21/21/21
f 27/27/27 26/26/26 25/25/25
f 28/28/28 27/27/27 25/25/25
f 31/31/31 30/30/30 29/29/29
f 32/32/32 31/31/31 29/29/29
f 35/35/35 34/34/34 33/33/33
f 36/36/36 35/35/35 33/33/33
f 39/39/39 38/38/38 37/37/37
f 40/40/40 39/39/39 37/37/37
f 43/43/43 42/42/42 41/41/41
f 44/44/44 43/43/43 41/41/41
f 47/47/47 46/46/46 45/45/45
f 48/48/48 47/47/47 45/45/45
f 51/51/51 50/50/50 49/49/49
f 52/52/52 51/51/51 49/49/49
f 55/55/55 54/54/54 53/53/53
f 56/56/56 55/55/55 53/53/53
f 59/59/59 58/58/58 57/57/57
f 60/60/60 59/59/59 57/57/57
f 63/63/63 62/62/62 61/61/61
f 64/64/64 63/63/63 61/61/61
f 67/67/67 66/66/66 65/65/65
f 68/68/68 67/67/67 65/65/65
f 71/71/71 70/70/70 69/69/69
f 72/72/72 71/71/71 69/69/69
f 75/75/75 74/74/74 73/73/73
f 76/76/76 75/75/75 73/73/73
f 79/79/79 78/78/78 77/77/77
f 80/80/80 79/79/79 77/77/77
f 83/83/83 82/82/82 81/81/81
f 84/84/84 83/83/83 81/81/81
f 87/87/87 86/86/86 85/85/85
f 88/88/88 87/87/87 85/85/85
f 91/91/91 90/90/90 89/89/89
f 92/92/92 91/91/91 89/89/89
f 95/95/95 94/94/94 93/93/93
f 96/96/96 95/95/95 93/93/93
f 99/99/99 98/98/98 97/97/97
f 100/100/100 99/99/99 97/97/97
f 103/103/103 102/102/102 101/101/101
f 101/101/101 102/102/102 104/104/104
f 105/105/105 102/102/102 103/103/103
f 104/104/104 102/102/102 106/106/106
f 107/107/107 102/102/102 105/105/105
f 106/106/106 102/102/102 108/108/108
f 109/109/109 102/102/102 107/107/107
f 110/110/110 108/108/108 102/102/102
f 111/111/111 102/102/102 109/109/109
f 110/110/110 102/102/102 112/112/112
f 113/113/113 102/102/102 111/111/111
f 112/112/112 102/102/102 114/114/114
f 115/115/115 102/102/102 113/113/113
f 114/114/114 102/102/102 116/116/116
f 117/117/117 102/102/102 115/115/115
f 118/118/118 116/116/116 102/102/102
f 119/119/119 102/102/102 117/117/117
f 118/118/118 102/102/102 120/120/120
f 121/121/121 102/102/102 119/119/119
f 120/120/120 102/102/102 121/121/121
