g CamoTrapRedGEO
v -6.915761 4.888792 -5.894534
v -6.214862 4.888792 -6.199175
v 5.598871 4.888792 -6.199175
v 6.299771 4.888792 -5.894534
v -7.206084 4.888792 -5.159066
v 6.590094 4.888792 -5.159066
v -7.206084 4.888792 6.630231
v 6.590094 4.888792 6.630231
v -6.915761 4.888792 7.365699
v 6.299771 4.888792 7.365699
v -6.214862 4.888792 7.670341
v 5.598871 4.888792 7.670341
v -3.092363 4.526085 1.48275
v -3.092363 4.602494 1.462985
v -3.377025 4.673781 1.738573
v -3.377025 4.597372 1.758338
v -2.988175 4.428706 1.106288
v -3.765874 4.699873 1.839446
v -3.765874 4.623464 1.85921
v -2.988175 4.505115 1.086523
v -3.092363 4.331326 0.7298263
v -3.765874 4.505115 1.086523
v -4.154723 4.673781 1.738573
v -3.092363 4.407736 0.7100616
v -4.154723 4.597372 1.758338
v -3.377025 4.26004 0.4542382
v -4.439384 4.602494 1.462985
v -4.439384 4.526085 1.48275
v -3.377025 4.33645 0.4344735
v -3.765874 4.233948 0.3533655
v -4.543571 4.505115 1.086523
v -4.543571 4.428706 1.106288
v -3.765874 4.310357 0.3336008
v -4.154723 4.26004 0.4542382
v -4.439384 4.407736 0.7100616
v -4.439384 4.331326 0.7298263
v -4.154723 4.33645 0.4344735
v 4.287116 4.368858 1.415671
v 4.287116 4.473323 1.423048
v 4.005754 4.453504 1.703707
v 4.005754 4.349039 1.696331
v 4.390095 4.395931 1.032283
v 3.621415 4.44625 1.806435
v 3.621415 4.341784 1.799059
v 4.390095 4.500396 1.03966
v 4.287116 4.423004 0.6488951
v 3.621415 4.500396 1.03966
v 3.237075 4.453504 1.703707
v 4.287116 4.527469 0.6562721
v 3.237075 4.349039 1.696331
v 4.005754 4.442822 0.3682363
v 2.955714 4.473323 1.423048
v 2.955714 4.368858 1.415671
v 4.005754 4.547288 0.3756132
v 3.621415 4.450077 0.2655077
v 2.852736 4.500396 1.03966
v 2.852736 4.395931 1.032283
v 3.621415 4.554542 0.2728845
v 3.237075 4.442822 0.3682363
v 2.955714 4.527469 0.6562721
v 2.955714 4.423004 0.6488951
v 3.237075 4.547288 0.3756132
vt 0.738493 0.02622935
vt 0.6990753 0.00980109
vt 0.06722116 0.00980109
vt 0.02780337 0.02622935
vt 0.7548204 0.06589061
vt 0.01147592 0.06589061
vt 0.7548204 0.7016468
vt 0.01147592 0.7016468
vt 0.738493 0.741308
vt 0.02780337 0.741308
vt 0.6990753 0.7577362
vt 0.06722116 0.7577362
vt 0.3733797 0.6855708
vt 0.3733797 0.6855708
vt 0.3733797 0.6855708
vt 0.3733797 0.6855708
vt 0.3733797 0.6855708
vt 0.3733797 0.6855708
vt 0.3733797 0.6855708
vt 0.3733797 0.6855708
vt 0.3733797 0.6855708
vt 0.3733797 0.6855708
vt 0.3733797 0.6855708
vt 0.3733797 0.6855708
vt 0.3733797 0.6855708
vt 0.3733797 0.6855708
vt 0.3733797 0.6855708
vt 0.3733797 0.6855708
vt 0.3733797 0.6855708
vt 0.3733797 0.6855708
vt 0.3733797 0.6855708
vt 0.3733797 0.6855708
vt 0.3733797 0.6855708
vt 0.3733797 0.6855708
vt 0.3733797 0.6855708
vt 0.3733797 0.6855708
vt 0.3733797 0.6855708
vt 0.3733797 0.6855708
vt 0.3733797 0.6855708
vt 0.3733797 0.6855708
vt 0.3733797 0.6855708
vt 0.3733797 0.6855708
vt 0.3733797 0.6855708
vt 0.3733797 0.6855708
vt 0.3733797 0.6855708
vt 0.3733797 0.6855708
vt 0.3733797 0.6855708
vt 0.3733797 0.6855708
vt 0.3733797 0.6855708
vt 0.3733797 0.6855708
vt 0.3733797 0.6855708
vt 0.3733797 0.6855708
vt 0.3733797 0.6855708
vt 0.3733797 0.6855708
vt 0.3733797 0.6855708
vt 0.3733797 0.6855708
vt 0.3733797 0.6855708
vt 0.3733797 0.6855708
vt 0.3733797 0.6855708
vt 0.3733797 0.6855708
vt 0.3733797 0.6855708
vt 0.3733797 0.6855708
vn 0 1 0
vn 0 1 0
vn 0 1 0
vn 0 1 0
vn 0 1 0
vn 0 1 0
vn 0 1 0
vn 0 1 0
vn 0 1 0
vn 0 1 0
vn 0 1 0
vn 0 1 0
vn -0.8660267 -0.125211 -0.484066
vn -0.20494 -0.9702678 0.1287632
vn -0.1183211 -0.9919594 0.04490611
vn -0.499999 -0.2168751 -0.8384307
vn -1 3.054449E-06 6.96351E-07
vn 0 -0.999899 0.01421184
vn 0 -0.250426 -0.9681358
vn -0.2366421 -0.9406371 0.2433157
vn -0.8660258 0.1252138 0.4840671
vn 0 -0.9681354 0.2504276
vn 0.1183213 -0.9919594 0.04490631
vn -0.2049401 -0.9110055 0.3578667
vn 0.4999998 -0.216876 -0.8384301
vn -0.4999991 0.2168756 0.8384306
vn 0.2049404 -0.9702678 0.1287635
vn 0.8660276 -0.125214 -0.4840637
vn -0.1183214 -0.8893149 0.4417228
vn 0 0.2504275 0.9681354
vn 0.2366419 -0.9406371 0.2433153
vn 1 9.297873E-07 1.266093E-07
vn 0 -0.8813754 0.4724165
vn 0.499999 0.2168761 0.8384305
vn 0.2049408 -0.9110054 0.3578665
vn 0.8660266 0.1252147 0.4840654
vn 0.1183215 -0.889315 0.4417224
vn -0.8660262 0.03521959 -0.4987566
vn -0.2691489 -0.9371732 -0.2219578
vn -0.1553916 -0.9291608 -0.3354307
vn -0.4999986 0.06100215 -0.8638751
vn -1 1.871892E-06 -2.051389E-07
vn 0 -0.9262278 -0.3769643
vn 0 0.07043906 -0.9975162
vn -0.3107833 -0.9481199 -0.06695111
vn -0.8660259 -0.03521767 0.4987573
vn 0 -0.997516 -0.07043962
vn 0.1553916 -0.9291611 -0.3354296
vn -0.269149 -0.9590647 0.08805519
vn 0.4999992 0.06100234 -0.8638746
vn -0.499999 -0.06100207 0.8638748
vn 0.2691495 -0.9371732 -0.2219569
vn 0.8660275 0.03521915 -0.4987545
vn -0.1553921 -0.9670781 0.201527
vn 0 -0.07043909 0.9975162
vn 0.3107836 -0.9481198 -0.06695089
vn 1 3.876521E-07 -7.240196E-07
vn 0 -0.9700111 0.2430607
vn 0.5000001 -0.06100298 0.8638742
vn 0.2691494 -0.9590647 0.08805468
vn 0.8660278 -0.03521945 0.498754
vn 0.1553919 -0.9670784 0.201526
g CamoTrapRedGEO_0
f 3/3/3 2/2/2 1/1/1
f 1/1/1 4/4/4 3/3/3
f 1/1/1 5/5/5 4/4/4
f 5/5/5 6/6/6 4/4/4
f 5/5/5 7/7/7 6/6/6
f 7/7/7 8/8/8 6/6/6
f 7/7/7 9/9/9 8/8/8
f 9/9/9 10/10/10 8/8/8
f 9/9/9 11/11/11 10/10/10
f 11/11/11 12/12/12 10/10/10
f 15/15/15 14/14/14 13/13/13
f 16/16/16 15/15/15 13/13/13
f 13/13/13 14/14/14 17/17/17
f 18/18/18 15/15/15 16/16/16
f 19/19/19 18/18/18 16/16/16
f 14/14/14 20/20/20 17/17/17
f 17/17/17 20/20/20 21/21/21
f 15/15/15 22/22/22 14/14/14
f 18/18/18 22/22/22 15/15/15
f 14/14/14 22/22/22 20/20/20
f 23/23/23 22/22/22 18/18/18
f 23/23/23 18/18/18 19/19/19
f 20/20/20 22/22/22 24/24/24
f 20/20/20 24/24/24 21/21/21
f 25/25/25 23/23/23 19/19/19
f 21/21/21 24/24/24 26/26/26
f 27/27/27 23/23/23 25/25/25
f 27/27/27 22/22/22 23/23/23
f 28/28/28 27/27/27 25/25/25
f 24/24/24 29/29/29 26/26/26
f 24/24/24 22/22/22 29/29/29
f 26/26/26 29/29/29 30/30/30
f 31/31/31 27/27/27 28/28/28
f 31/31/31 22/22/22 27/27/27
f 32/32/32 31/31/31 28/28/28
f 29/29/29 33/33/33 30/30/30
f 29/29/29 22/22/22 33/33/33
f 30/30/30 33/33/33 34/34/34
f 35/35/35 31/31/31 32/32/32
f 35/35/35 22/22/22 31/31/31
f 36/36/36 35/35/35 32/32/32
f 34/34/34 37/37/37 36/36/36
f 33/33/33 37/37/37 34/34/34
f 33/33/33 22/22/22 37/37/37
f 37/37/37 22/22/22 35/35/35
f 37/37/37 35/35/35 36/36/36
f 40/40/40 39/39/39 38/38/38
f 41/41/41 40/40/40 38/38/38
f 38/38/38 39/39/39 42/42/42
f 43/43/43 40/40/40 41/41/41
f 44/44/44 43/43/43 41/41/41
f 39/39/39 45/45/45 42/42/42
f 42/42/42 45/45/45 46/46/46
f 40/40/40 47/47/47 39/39/39
f 43/43/43 47/47/47 40/40/40
f 39/39/39 47/47/47 45/45/45
f 48/48/48 47/47/47 43/43/43
f 48/48/48 43/43/43 44/44/44
f 45/45/45 47/47/47 49/49/49
f 45/45/45 49/49/49 46/46/46
f 50/50/50 48/48/48 44/44/44
f 46/46/46 49/49/49 51/51/51
f 52/52/52 48/48/48 50/50/50
f 52/52/52 47/47/47 48/48/48
f 53/53/53 52/52/52 50/50/50
f 49/49/49 54/54/54 51/51/51
f 49/49/49 47/47/47 54/54/54
f 51/51/51 54/54/54 55/55/55
f 56/56/56 52/52/52 53/53/53
f 56/56/56 47/47/47 52/52/52
f 57/57/57 56/56/56 53/53/53
f 54/54/54 58/58/58 55/55/55
f 54/54/54 47/47/47 58/58/58
f 55/55/55 58/58/58 59/59/59
f 60/60/60 56/56/56 57/57/57
f 60/60/60 47/47/47 56/56/56
f 61/61/61 60/60/60 57/57/57
f 59/59/59 62/62/62 61/61/61
f 58/58/58 62/62/62 59/59/59
f 58/58/58 47/47/47 62/62/62
f 62/62/62 47/47/47 60/60/60
f 62/62/62 60/60/60 61/61/61
