g CamoTrapGreenLight
v 0.6159189 -2.049886 0.249693
v -0.6159186 -1.586572 -1.321806
v -0.6159186 -2.049886 0.249693
v 0.6159189 -1.586572 -1.321806
v 1.612498 -1.355384 0.4544482
v 1.612498 -0.8920699 -1.11705
v 1.993155 -0.2316573 0.7857495
v 1.993155 0.2316572 -0.7857483
v 1.612497 0.8920701 1.117051
v 1.612497 1.355384 -0.4544482
v 0.6159189 1.586572 1.321806
v 0.6159189 2.049886 -0.2496924
v -0.6159183 1.586572 1.321806
v -0.6159183 2.049886 -0.2496924
v -1.612496 0.8920704 1.117051
v -1.612496 1.355385 -0.4544476
v -1.993155 -0.2316573 0.7857495
v -1.993155 0.2316572 -0.7857489
v -1.612496 -1.355384 0.4544482
v -1.612496 -0.8920699 -1.11705
v -0.6159186 -2.049886 0.249693
v -0.6159186 -1.586572 -1.321806
v 1.612498 -0.8920699 -1.11705
v 6.103515E-07 0.2316572 -0.7857483
v 0.6159189 -1.586572 -1.321806
v 1.993155 0.2316572 -0.7857483
v -0.6159186 -1.586572 -1.321806
v 1.612497 1.355384 -0.4544482
v -1.612496 -0.8920699 -1.11705
v 0.6159189 2.049886 -0.2496924
v -1.993155 0.2316572 -0.7857489
v -0.6159183 2.049886 -0.2496924
v -1.612496 1.355385 -0.4544476
vt 0.7831616 0.6869225
vt 0.8653207 0.6542968
vt 0.7831217 0.6543972
vt 0.8653604 0.6868222
vt 0.7832013 0.7194479
vt 0.8654001 0.7193477
vt 0.7832409 0.7519735
vt 0.8654398 0.7518732
vt 0.7832806 0.7826525
vt 0.8654795 0.7825522
vt 0.7833202 0.823025
vt 0.8655192 0.8229248
vt 0.7833599 0.8495498
vt 0.8655588 0.8494496
vt 0.7833995 0.8820753
vt 0.8655985 0.8819749
vt 0.7834392 0.9146006
vt 0.8656382 0.9145003
vt 0.7834789 0.947126
vt 0.8656779 0.9470257
vt 0.7835186 0.9796514
vt 0.8657176 0.9795513
vt 0.9414267 0.2936631
vt 0.8615668 0.2326559
vt 0.8920705 0.3313677
vt 0.9602789 0.2326559
vt 0.8310631 0.3313677
vt 0.9414267 0.1716485
vt 0.7817068 0.2936631
vt 0.8920705 0.1339436
vt 0.7628546 0.2326559
vt 0.8310631 0.1339436
vt 0.7817069 0.1716483
vn 0.3090168 -0.9122365 -0.2689487
vn -0.2778644 -0.6965348 -0.6615367
vn -0.3090169 -0.9122365 -0.2689486
vn 0.2778645 -0.6965345 -0.6615369
vn 0.8090169 -0.5637931 -0.1662195
vn 0.7274588 -0.3832184 -0.5691636
vn 1 2.429231E-07 0
vn 0.8991885 0.1237379 -0.419701
vn 0.809017 0.5637931 0.1662193
vn 0.7274587 0.630694 -0.2702388
vn 0.3090172 0.9122363 0.2689486
vn 0.2778644 0.9440103 -0.1778655
vn -0.309017 0.9122363 0.2689487
vn -0.2778644 0.9440103 -0.1778656
vn -0.8090169 0.5637931 0.1662195
vn -0.7274586 0.6306942 -0.2702387
vn -1 0 0
vn -0.8991885 0.1237378 -0.4197014
vn -0.8090168 -0.5637934 -0.1662195
vn -0.7274586 -0.3832188 -0.5691639
vn -0.3090169 -0.9122365 -0.2689486
vn -0.2778644 -0.6965348 -0.6615367
vn 0.7274588 -0.3832184 -0.5691636
vn 1.338286E-07 0.2827895 -0.959182
vn 0.2778645 -0.6965345 -0.6615369
vn 0.8991885 0.1237379 -0.419701
vn -0.2778644 -0.6965348 -0.6615367
vn 0.7274587 0.630694 -0.2702388
vn -0.7274586 -0.3832188 -0.5691639
vn 0.2778644 0.9440103 -0.1778655
vn -0.8991885 0.1237378 -0.4197014
vn -0.2778644 0.9440103 -0.1778656
vn -0.7274586 0.6306942 -0.2702387
g CamoTrapGreenLight_0
f 3/3/3 2/2/2 1/1/1
f 2/2/2 4/4/4 1/1/1
f 1/1/1 4/4/4 5/5/5
f 4/4/4 6/6/6 5/5/5
f 5/5/5 6/6/6 7/7/7
f 6/6/6 8/8/8 7/7/7
f 7/7/7 8/8/8 9/9/9
f 8/8/8 10/10/10 9/9/9
f 9/9/9 10/10/10 11/11/11
f 10/10/10 12/12/12 11/11/11
f 11/11/11 12/12/12 13/13/13
f 12/12/12 14/14/14 13/13/13
f 13/13/13 14/14/14 15/15/15
f 14/14/14 16/16/16 15/15/15
f 15/15/15 16/16/16 17/17/17
f 16/16/16 18/18/18 17/17/17
f 17/17/17 18/18/18 19/19/19
f 18/18/18 20/20/20 19/19/19
f 19/19/19 20/20/20 21/21/21
f 20/20/20 22/22/22 21/21/21
f 25/25/25 24/24/24 23/23/23
f 23/23/23 24/24/24 26/26/26
f 27/27/27 24/24/24 25/25/25
f 26/26/26 24/24/24 28/28/28
f 29/29/29 24/24/24 27/27/27
f 28/28/28 24/24/24 30/30/30
f 31/31/31 24/24/24 29/29/29
f 30/30/30 24/24/24 32/32/32
f 33/33/33 24/24/24 31/31/31
f 32/32/32 24/24/24 33/33/33
