g CamoTrapRedLight
v 0.6159188 -2.044728 0.2321979
v -0.6159188 -1.59173 -1.304311
v -0.6159188 -2.044728 0.2321979
v 0.6159188 -1.59173 -1.304311
v 1.612498 -1.350227 0.4369531
v 1.612498 -0.897228 -1.099555
v 1.993155 -0.2264994 0.7682544
v 1.993155 0.2264991 -0.7682531
v 1.612497 0.8972281 1.099556
v 1.612497 1.350226 -0.4369531
v 0.6159188 1.59173 1.304311
v 0.6159188 2.044728 -0.2321973
v -0.6159183 1.59173 1.304311
v -0.6159183 2.044728 -0.2321973
v -1.612496 0.8972285 1.099556
v -1.612496 1.350227 -0.4369525
v -1.993155 -0.2264994 0.7682544
v -1.993155 0.2264991 -0.7682537
v -1.612497 -1.350227 0.4369531
v -1.612497 -0.8972278 -1.099555
v -0.6159188 -2.044728 0.2321979
v -0.6159188 -1.59173 -1.304311
v 1.612498 -0.897228 -1.099555
v 5.340576E-07 0.2264991 -0.7682537
v 0.6159188 -1.59173 -1.304311
v 1.993155 0.2264991 -0.7682531
v -0.6159188 -1.59173 -1.304311
v 1.612497 1.350226 -0.4369531
v -1.612497 -0.8972278 -1.099555
v 0.6159188 2.044728 -0.2321973
v -1.993155 0.2264991 -0.7682537
v -0.6159183 2.044728 -0.2321973
v -1.612496 1.350227 -0.4369525
vt 0.902356 0.6875041
vt 0.9845152 0.6548784
vt 0.9023162 0.6549788
vt 0.9845549 0.6874038
vt 0.9023957 0.7200295
vt 0.9845946 0.7199292
vt 0.9024353 0.752555
vt 0.9846343 0.7524548
vt 0.902475 0.7804645
vt 0.984674 0.7803642
vt 0.9025147 0.8176059
vt 0.9847137 0.8175056
vt 0.9025544 0.8501314
vt 0.9847533 0.8500311
vt 0.902594 0.8826568
vt 0.9847929 0.8825564
vt 0.9026337 0.9151821
vt 0.9848326 0.9150819
vt 0.9026734 0.9477075
vt 0.9848723 0.9476073
vt 0.9027131 0.980233
vt 0.984912 0.9801328
vt 0.9414267 0.5900701
vt 0.8615668 0.5290629
vt 0.8920705 0.6277747
vt 0.9602789 0.5290629
vt 0.8310631 0.6277747
vt 0.9414267 0.4680555
vt 0.7817068 0.5900701
vt 0.8920705 0.4303505
vt 0.7628546 0.5290629
vt 0.8310631 0.4303505
vt 0.7817069 0.4680552
vn 0.3090169 -0.9122365 -0.2689486
vn -0.2766473 -0.6906779 -0.6681544
vn -0.3090169 -0.9122363 -0.2689486
vn 0.2766472 -0.690678 -0.6681544
vn 0.809017 -0.563793 -0.1662194
vn 0.7242722 -0.3787342 -0.5761859
vn 1 2.153277E-07 0
vn 0.8952495 0.1260012 -0.4273781
vn 0.8090169 0.5637932 0.1662192
vn 0.7242721 0.6307364 -0.2785705
vn 0.3090171 0.9122363 0.2689484
vn 0.2766474 0.9426801 -0.1866022
vn -0.3090169 0.9122363 0.2689486
vn -0.2766474 0.9426801 -0.1866023
vn -0.8090171 0.563793 0.1662194
vn -0.7242722 0.6307365 -0.2785703
vn -1 1.325093E-07 0
vn -0.8952495 0.1260012 -0.4273781
vn -0.809017 -0.5637931 -0.1662195
vn -0.724272 -0.3787342 -0.5761862
vn -0.3090169 -0.9122363 -0.2689486
vn -0.2766473 -0.6906779 -0.6681544
vn 0.7242722 -0.3787342 -0.5761859
vn 0 0.2827894 -0.959182
vn 0.2766472 -0.690678 -0.6681544
vn 0.8952495 0.1260012 -0.4273781
vn -0.2766473 -0.6906779 -0.6681544
vn 0.7242721 0.6307364 -0.2785705
vn -0.724272 -0.3787342 -0.5761862
vn 0.2766474 0.9426801 -0.1866022
vn -0.8952495 0.1260012 -0.4273781
vn -0.2766474 0.9426801 -0.1866023
vn -0.7242722 0.6307365 -0.2785703
g CamoTrapRedLight_0
f 3/3/3 2/2/2 1/1/1
f 2/2/2 4/4/4 1/1/1
f 1/1/1 4/4/4 5/5/5
f 4/4/4 6/6/6 5/5/5
f 5/5/5 6/6/6 7/7/7
f 6/6/6 8/8/8 7/7/7
f 7/7/7 8/8/8 9/9/9
f 8/8/8 10/10/10 9/9/9
f 9/9/9 10/10/10 11/11/11
f 10/10/10 12/12/12 11/11/11
f 11/11/11 12/12/12 13/13/13
f 12/12/12 14/14/14 13/13/13
f 13/13/13 14/14/14 15/15/15
f 14/14/14 16/16/16 15/15/15
f 15/15/15 16/16/16 17/17/17
f 16/16/16 18/18/18 17/17/17
f 17/17/17 18/18/18 19/19/19
f 18/18/18 20/20/20 19/19/19
f 19/19/19 20/20/20 21/21/21
f 20/20/20 22/22/22 21/21/21
f 25/25/25 24/24/24 23/23/23
f 23/23/23 24/24/24 26/26/26
f 27/27/27 24/24/24 25/25/25
f 26/26/26 24/24/24 28/28/28
f 29/29/29 24/24/24 27/27/27
f 28/28/28 24/24/24 30/30/30
f 31/31/31 24/24/24 29/29/29
f 30/30/30 24/24/24 32/32/32
f 33/33/33 24/24/24 31/31/31
f 32/32/32 24/24/24 33/33/33
