g CannonLV1
v -1.151935 1.161479 -1.784269
v -1.635832 0.006748504 10.58898
v -1.635832 0.006748504 -1.784269
v -1.151936 1.161479 10.58898
v 0.006749153 1.635832 -1.784269
v 0.006748543 1.635832 10.58898
v 1.16148 1.151936 -1.784269
v 1.161479 1.151936 10.58898
v 1.635832 -0.006748199 -1.784269
v 1.635832 -0.006748199 10.58898
v -1.635832 0.006748504 -1.784269
v -1.635832 0.006748504 10.58898
v -1.161479 -1.151936 10.58898
v -1.161479 -1.151936 -1.784269
v -0.006747704 -1.635832 10.58898
v -0.006747704 -1.635832 -1.784269
v 1.151936 -1.161479 10.58898
v 1.151936 -1.161479 -1.784269
v 1.635832 -0.006748199 10.58898
v 1.635832 -0.006748199 -1.784269
v -0.9465637 0.9544057 10.93683
v -0.7478456 0.7540419 10.88035
v -1.061995 0.004380341 10.88035
v -1.344188 0.005544586 10.93683
v -0.754041 -0.7478453 10.88035
v 0.005544586 1.344189 10.93683
v 0.00438118 1.061996 10.88035
v -0.954405 -0.9465641 10.93683
v -0.004380112 -1.061995 10.88035
v 0.9544058 0.9465644 10.93683
v 0.7540416 0.7478462 10.88035
v -0.005543747 -1.344189 10.93683
v 0.7478462 -0.7540413 10.88035
v 1.344189 -0.005544281 10.93683
v 1.061996 -0.004380341 10.88035
v 0.9465644 -0.9544054 10.93683
v -1.151936 1.161479 10.58898
v -1.635832 0.006748504 10.58898
v 0.006748543 1.635832 10.58898
v -1.161479 -1.151936 10.58898
v 1.161479 1.151936 10.58898
v -0.006747704 -1.635832 10.58898
v 1.635832 -0.006748199 10.58898
v 1.151936 -1.161479 10.58898
v -0.7478456 0.7540419 10.88035
v -0.7478456 0.7540419 9.683833
v -1.061995 0.004380341 9.683833
v 3.814697E-07 1.525879E-07 9.627354
v -1.061995 0.004380341 10.88035
v 0.00438118 1.061996 10.88035
v -0.754041 -0.7478453 9.683833
v -0.754041 -0.7478453 10.88035
v 0.00438118 1.061996 9.683833
v 0.7540416 0.7478462 10.88035
v -0.004380112 -1.061995 9.683833
v -0.004380112 -1.061995 10.88035
v 0.7540416 0.7478462 9.683833
v 1.061996 -0.004380341 10.88035
v 0.7478462 -0.7540413 9.683833
v 0.7478462 -0.7540413 10.88035
v 1.061996 -0.004380341 9.683833
vt 0.5796343 0.3273113
vt 0.7978459 0.3003829
vt 0.5796343 0.3003829
vt 0.7978459 0.3273113
vt 0.5796343 0.3499399
vt 0.7978459 0.3499399
vt 0.5796343 0.3725686
vt 0.7978459 0.3725686
vt 0.5796343 0.3951973
vt 0.7978459 0.3951973
vt 0.5796343 0.3951973
vt 0.7978459 0.3951973
vt 0.7978459 0.3725686
vt 0.5796343 0.3725686
vt 0.7978459 0.3499399
vt 0.5796343 0.3499399
vt 0.7978459 0.3273113
vt 0.5796343 0.3273113
vt 0.7978459 0.3003829
vt 0.5796343 0.3003829
vt 0.6958072 0.4871269
vt 0.6918047 0.4830898
vt 0.6661684 0.4925189
vt 0.6661432 0.4982049
vt 0.6413746 0.4810475
vt 0.7089511 0.4583281
vt 0.7032666 0.4583012
vt 0.6373346 0.4850465
vt 0.6319544 0.4554028
vt 0.6978898 0.4286713
vt 0.693849 0.4326695
vt 0.62627 0.4553714
vt 0.6434252 0.4306082
vt 0.6690993 0.4155146
vt 0.6690664 0.4211992
vt 0.6394289 0.4265667
vt 0.705002 0.4959098
vt 0.6664281 0.5109172
vt 0.7216637 0.4580432
vt 0.6285399 0.49423
vt 0.7066842 0.4194869
vt 0.6135575 0.4556429
vt 0.6688308 0.4028015
vt 0.6302499 0.4177678
vt 0.6798131 0.4737502
vt 0.6705099 0.4667221
vt 0.6628139 0.4678702
vt 0.6652963 0.4580235
vt 0.6644524 0.4793958
vt 0.6866918 0.458908
vt 0.6565722 0.463197
vt 0.6495975 0.4725142
vt 0.6751464 0.460493
vt 0.6810716 0.4435399
vt 0.6554555 0.4554976
vt 0.6439362 0.4571449
vt 0.6740173 0.4528021
vt 0.6662204 0.4366291
vt 0.6600888 0.449282
vt 0.650804 0.4422417
vt 0.6677763 0.4481596
vn -0.7041836 0.710018 0
vn -0.999835 0.004124504 0.01769001
vn -0.9999915 0.004125143 0
vn -0.7040734 0.7099069 0.01769
vn 0.004125021 0.9999915 0
vn 0.004124335 0.999835 0.01769
vn 0.7100179 0.7041836 0
vn 0.7099068 0.7040735 0.01769003
vn 0.9999915 -0.004125264 0
vn 0.999835 -0.004124625 0.01769003
vn -0.9999915 0.004125143 0
vn -0.999835 0.004124504 0.01769001
vn -0.7099066 -0.7040737 0.01769002
vn -0.7100177 -0.7041838 0
vn -0.004124481 -0.999835 0.01769001
vn -0.004125109 -0.9999915 0
vn 0.7040738 -0.7099065 0.01769002
vn 0.704184 -0.7100176 0
vn 0.999835 -0.004124625 0.01769003
vn 0.9999915 -0.004125264 0
vn -0.4124531 0.4158702 0.8105149
vn 0.672254 -0.6778226 0.2977094
vn 0.9546484 -0.003937948 0.2977097
vn -0.585713 0.002415713 0.810515
vn 0.6778228 0.6722538 0.2977096
vn 0.002415176 0.5857134 0.8105146
vn -0.00393826 -0.9546484 0.2977096
vn -0.4158709 -0.4124533 0.8105145
vn 0.003938197 0.9546481 0.2977101
vn 0.4158698 0.4124536 0.8105149
vn -0.6778229 -0.6722538 0.2977094
vn -0.002416194 -0.5857131 0.8105148
vn -0.6722541 0.6778226 0.2977095
vn 0.5857125 -0.002415821 0.8105153
vn -0.9546483 0.003937979 0.2977097
vn 0.412453 -0.41587 0.810515
vn -0.7040734 0.7099069 0.01769
vn -0.999835 0.004124504 0.01769001
vn 0.004124335 0.999835 0.01769
vn -0.7099066 -0.7040737 0.01769002
vn 0.7099068 0.7040735 0.01769003
vn -0.004124481 -0.999835 0.01769001
vn 0.999835 -0.004124625 0.01769003
vn 0.7040738 -0.7099065 0.01769002
vn 0.672254 -0.6778226 0.2977094
vn 0.6692667 -0.6748107 0.3109863
vn 0.9504064 -0.003920454 0.3109861
vn -1.131419E-06 0 1
vn 0.9546484 -0.003937948 0.2977097
vn -0.00393826 -0.9546484 0.2977096
vn 0.6748108 0.6692668 0.3109861
vn 0.6778228 0.6722538 0.2977096
vn -0.003921311 -0.9504064 0.3109861
vn -0.6778229 -0.6722538 0.2977094
vn 0.003920293 0.9504064 0.310986
vn 0.003938197 0.9546481 0.2977101
vn -0.6748109 -0.6692665 0.3109863
vn -0.9546483 0.003937979 0.2977097
vn -0.6692666 0.6748109 0.3109862
vn -0.6722541 0.6778226 0.2977095
vn -0.9504064 0.003920472 0.3109862
g CannonLV1_0
f 3/3/3 2/2/2 1/1/1
f 2/2/2 4/4/4 1/1/1
f 1/1/1 4/4/4 5/5/5
f 4/4/4 6/6/6 5/5/5
f 5/5/5 6/6/6 7/7/7
f 6/6/6 8/8/8 7/7/7
f 7/7/7 8/8/8 9/9/9
f 8/8/8 10/10/10 9/9/9
f 13/13/13 12/12/12 11/11/11
f 14/14/14 13/13/13 11/11/11
f 15/15/15 13/13/13 14/14/14
f 16/16/16 15/15/15 14/14/14
f 17/17/17 15/15/15 16/16/16
f 18/18/18 17/17/17 16/16/16
f 19/19/19 17/17/17 18/18/18
f 20/20/20 19/19/19 18/18/18
f 23/23/23 22/22/22 21/21/21
f 24/24/24 23/23/23 21/21/21
f 25/25/25 23/23/23 24/24/24
f 21/21/21 22/22/22 26/26/26
f 22/22/22 27/27/27 26/26/26
f 28/28/28 25/25/25 24/24/24
f 29/29/29 25/25/25 28/28/28
f 26/26/26 27/27/27 30/30/30
f 27/27/27 31/31/31 30/30/30
f 32/32/32 29/29/29 28/28/28
f 33/33/33 29/29/29 32/32/32
f 30/30/30 31/31/31 34/34/34
f 31/31/31 35/35/35 34/34/34
f 35/35/35 33/33/33 36/36/36
f 36/36/36 33/33/33 32/32/32
f 34/34/34 35/35/35 36/36/36
f 24/24/24 21/21/21 37/37/37
f 38/38/38 24/24/24 37/37/37
f 28/28/28 24/24/24 38/38/38
f 37/37/37 21/21/21 39/39/39
f 21/21/21 26/26/26 39/39/39
f 40/40/40 28/28/28 38/38/38
f 32/32/32 28/28/28 40/40/40
f 39/39/39 26/26/26 41/41/41
f 26/26/26 30/30/30 41/41/41
f 42/42/42 32/32/32 40/40/40
f 36/36/36 32/32/32 42/42/42
f 41/41/41 30/30/30 43/43/43
f 30/30/30 34/34/34 43/43/43
f 44/44/44 36/36/36 42/42/42
f 43/43/43 34/34/34 44/44/44
f 34/34/34 36/36/36 44/44/44
f 47/47/47 46/46/46 45/45/45
f 47/47/47 48/48/48 46/46/46
f 49/49/49 47/47/47 45/45/45
f 45/45/45 46/46/46 50/50/50
f 51/51/51 47/47/47 49/49/49
f 51/51/51 48/48/48 47/47/47
f 52/52/52 51/51/51 49/49/49
f 46/46/46 53/53/53 50/50/50
f 46/46/46 48/48/48 53/53/53
f 50/50/50 53/53/53 54/54/54
f 55/55/55 51/51/51 52/52/52
f 55/55/55 48/48/48 51/51/51
f 56/56/56 55/55/55 52/52/52
f 53/53/53 57/57/57 54/54/54
f 53/53/53 48/48/48 57/57/57
f 54/54/54 57/57/57 58/58/58
f 59/59/59 55/55/55 56/56/56
f 59/59/59 48/48/48 55/55/55
f 60/60/60 59/59/59 56/56/56
f 58/58/58 61/61/61 60/60/60
f 57/57/57 61/61/61 58/58/58
f 57/57/57 48/48/48 61/61/61
f 61/61/61 48/48/48 59/59/59
f 61/61/61 59/59/59 60/60/60
