g CannonLV16
v -1.279312 1.161479 -1.981566
v -1.816716 0.006748504 11.75988
v -1.816716 0.006748504 -1.981566
v -1.279313 1.161479 11.75988
v 0.007495461 1.635832 -1.981566
v 0.007494774 1.635832 11.75988
v 1.289913 1.151936 -1.981566
v 1.289912 1.151936 11.75988
v 1.816716 -0.006748199 -1.981566
v 1.816716 -0.006748199 11.75988
v -1.816716 0.006748504 -1.981566
v -1.816716 0.006748504 11.75988
v -1.289911 -1.151936 11.75988
v -1.289911 -1.151936 -1.981566
v -0.007493858 -1.635832 11.75988
v -0.007493858 -1.635832 -1.981566
v 1.279313 -1.161479 11.75988
v 1.279313 -1.161479 -1.981566
v 1.816716 -0.006748199 11.75988
v 1.816716 -0.006748199 -1.981566
v -1.051231 0.9544057 12.14619
v -0.8305398 0.7540419 12.08347
v -1.179426 0.004380341 12.08347
v -1.492824 0.005544586 12.14619
v -0.8374202 -0.7478453 12.08347
v 0.006157684 1.344189 12.14619
v 0.004865646 1.061996 12.08347
v -1.05994 -0.9465641 12.14619
v -0.004864464 -1.061995 12.08347
v 1.059941 0.9465644 12.14619
v 0.8374209 0.7478462 12.08347
v -0.006156769 -1.344189 12.14619
v 0.8305404 -0.7540413 12.08347
v 1.492825 -0.005544281 12.14619
v 1.179428 -0.004380341 12.08347
v 1.051232 -0.9544054 12.14619
v -1.279313 1.161479 11.75988
v -1.816716 0.006748504 11.75988
v 0.007494774 1.635832 11.75988
v -1.289911 -1.151936 11.75988
v 1.289912 1.151936 11.75988
v -0.007493858 -1.635832 11.75988
v 1.816716 -0.006748199 11.75988
v 1.279313 -1.161479 11.75988
v -0.8305398 0.7540419 12.08347
v -0.8305398 0.7540419 10.75464
v -1.179426 0.004380341 10.75464
v 4.196167E-07 1.525879E-07 10.69191
v -1.179426 0.004380341 12.08347
v 0.004865646 1.061996 12.08347
v -0.8374202 -0.7478453 10.75464
v -0.8374202 -0.7478453 12.08347
v 0.004865646 1.061996 10.75464
v 0.8374209 0.7478462 12.08347
v -0.004864464 -1.061995 10.75464
v -0.004864464 -1.061995 12.08347
v 0.8374209 0.7478462 10.75464
v 1.179428 -0.004380341 12.08347
v 0.8305404 -0.7540413 10.75464
v 0.8305404 -0.7540413 12.08347
v 1.179428 -0.004380341 10.75464
vt 0.7319369 0.3273113
vt 0.8621911 0.3003829
vt 0.7319369 0.3003829
vt 0.8621911 0.3273113
vt 0.7319369 0.3499399
vt 0.8621911 0.3499399
vt 0.7319369 0.3725686
vt 0.8621911 0.3725686
vt 0.7319369 0.3951973
vt 0.8621911 0.3951973
vt 0.7319369 0.3951973
vt 0.8621911 0.3951973
vt 0.8621911 0.3725686
vt 0.7319369 0.3725686
vt 0.8621911 0.3499399
vt 0.7319369 0.3499399
vt 0.8621911 0.3273113
vt 0.7319369 0.3273113
vt 0.8621911 0.3003829
vt 0.7319369 0.3003829
vt 0.6960292 0.4867062
vt 0.6920267 0.4826691
vt 0.6663904 0.4920982
vt 0.6663652 0.4977843
vt 0.6415966 0.4806269
vt 0.7091731 0.4579074
vt 0.7034886 0.4578806
vt 0.6375566 0.4846258
vt 0.6321765 0.4549822
vt 0.6981118 0.4282506
vt 0.694071 0.4322488
vt 0.626492 0.4549507
vt 0.6436473 0.4301875
vt 0.6693214 0.4150939
vt 0.6692885 0.4207785
vt 0.6396509 0.4261461
vt 0.705224 0.4954892
vt 0.6666501 0.5104966
vt 0.7218857 0.4576225
vt 0.6287619 0.4938094
vt 0.7069062 0.4190662
vt 0.6137795 0.4552223
vt 0.6690528 0.4023809
vt 0.6304719 0.4173472
vt 0.6800351 0.4733295
vt 0.6707319 0.4663015
vt 0.6630359 0.4674495
vt 0.6655183 0.4576029
vt 0.6646744 0.4789751
vt 0.6869138 0.4584874
vt 0.6567942 0.4627763
vt 0.6498196 0.4720936
vt 0.6753684 0.4600724
vt 0.6812936 0.4431192
vt 0.6556775 0.455077
vt 0.6441582 0.4567242
vt 0.6742393 0.4523814
vt 0.6664424 0.4362085
vt 0.6603108 0.4488613
vt 0.6510261 0.4418211
vt 0.6679983 0.4477389
vn -0.6660892 0.7458721 0
vn -0.9998385 0.004577441 0.01738322
vn -0.9999895 0.004581307 0
vn -0.6662543 0.7455342 0.01684695
vn 0.003714258 0.9999931 0
vn 0.003716366 0.9998593 0.0163565
vn 0.6721871 0.7403813 0
vn 0.6723498 0.7400416 0.01685543
vn 0.9999895 -0.0045814 0
vn 0.9998385 -0.004577531 0.01738323
vn -0.9999895 0.004581307 0
vn -0.9998385 0.004577441 0.01738322
vn -0.6723496 -0.7400419 0.01685542
vn -0.6721871 -0.7403814 0
vn -0.003716504 -0.9998593 0.0163565
vn -0.003714371 -0.9999931 0
vn 0.6662546 -0.7455339 0.01684696
vn 0.6660895 -0.7458718 0
vn 0.9998385 -0.004577531 0.01738323
vn 0.9999895 -0.0045814 0
vn -0.3967504 0.4588502 0.795013
vn 0.6381227 -0.716204 0.2825795
vn 0.9531144 -0.004376112 0.3025786
vn -0.5930415 0.002801232 0.805167
vn 0.6439165 0.71088 0.2828799
vn 0.002216951 0.6174496 0.7866073
vn -0.003572383 -0.9639826 0.2659414
vn -0.4003612 -0.4554376 0.7951651
vn 0.00357237 0.9639825 0.2659419
vn 0.4003617 0.4554377 0.7951648
vn -0.6439165 -0.7108801 0.2828797
vn -0.002216939 -0.6174493 0.7866076
vn -0.6381226 0.716204 0.2825797
vn 0.593042 -0.002801234 0.8051667
vn -0.9531143 0.004376153 0.3025787
vn 0.3967502 -0.4588503 0.7950131
vn -0.6662543 0.7455342 0.01684695
vn -0.9998385 0.004577441 0.01738322
vn 0.003716366 0.9998593 0.0163565
vn -0.6723496 -0.7400419 0.01685542
vn 0.6723498 0.7400416 0.01685543
vn -0.003716504 -0.9998593 0.0163565
vn 0.9998385 -0.004577531 0.01738323
vn 0.6662546 -0.7455339 0.01684696
vn 0.6381227 -0.716204 0.2825795
vn 0.6366116 -0.7120837 0.2960786
vn 0.9533139 -0.004362664 0.3019495
vn 0 0 1
vn 0.9531144 -0.004376112 0.3025786
vn -0.003572383 -0.9639826 0.2659414
vn 0.6424122 0.7068149 0.2961741
vn 0.6439165 0.71088 0.2828799
vn -0.00355823 -0.956916 0.2903431
vn -0.6439165 -0.7108801 0.2828797
vn 0.003558217 0.956916 0.290343
vn 0.00357237 0.9639825 0.2659419
vn -0.6424126 -0.7068145 0.2961743
vn -0.9531143 0.004376153 0.3025787
vn -0.6366112 0.7120841 0.2960784
vn -0.6381226 0.716204 0.2825797
vn -0.9533139 0.004362664 0.3019494
g CannonLV16_0
f 3/3/3 2/2/2 1/1/1
f 2/2/2 4/4/4 1/1/1
f 1/1/1 4/4/4 5/5/5
f 4/4/4 6/6/6 5/5/5
f 5/5/5 6/6/6 7/7/7
f 6/6/6 8/8/8 7/7/7
f 7/7/7 8/8/8 9/9/9
f 8/8/8 10/10/10 9/9/9
f 13/13/13 12/12/12 11/11/11
f 14/14/14 13/13/13 11/11/11
f 15/15/15 13/13/13 14/14/14
f 16/16/16 15/15/15 14/14/14
f 17/17/17 15/15/15 16/16/16
f 18/18/18 17/17/17 16/16/16
f 19/19/19 17/17/17 18/18/18
f 20/20/20 19/19/19 18/18/18
f 23/23/23 22/22/22 21/21/21
f 24/24/24 23/23/23 21/21/21
f 25/25/25 23/23/23 24/24/24
f 21/21/21 22/22/22 26/26/26
f 22/22/22 27/27/27 26/26/26
f 28/28/28 25/25/25 24/24/24
f 29/29/29 25/25/25 28/28/28
f 26/26/26 27/27/27 30/30/30
f 27/27/27 31/31/31 30/30/30
f 32/32/32 29/29/29 28/28/28
f 33/33/33 29/29/29 32/32/32
f 30/30/30 31/31/31 34/34/34
f 31/31/31 35/35/35 34/34/34
f 35/35/35 33/33/33 36/36/36
f 36/36/36 33/33/33 32/32/32
f 34/34/34 35/35/35 36/36/36
f 24/24/24 21/21/21 37/37/37
f 38/38/38 24/24/24 37/37/37
f 28/28/28 24/24/24 38/38/38
f 37/37/37 21/21/21 39/39/39
f 21/21/21 26/26/26 39/39/39
f 40/40/40 28/28/28 38/38/38
f 32/32/32 28/28/28 40/40/40
f 39/39/39 26/26/26 41/41/41
f 26/26/26 30/30/30 41/41/41
f 42/42/42 32/32/32 40/40/40
f 36/36/36 32/32/32 42/42/42
f 41/41/41 30/30/30 43/43/43
f 30/30/30 34/34/34 43/43/43
f 44/44/44 36/36/36 42/42/42
f 43/43/43 34/34/34 44/44/44
f 34/34/34 36/36/36 44/44/44
f 47/47/47 46/46/46 45/45/45
f 47/47/47 48/48/48 46/46/46
f 49/49/49 47/47/47 45/45/45
f 45/45/45 46/46/46 50/50/50
f 51/51/51 47/47/47 49/49/49
f 51/51/51 48/48/48 47/47/47
f 52/52/52 51/51/51 49/49/49
f 46/46/46 53/53/53 50/50/50
f 46/46/46 48/48/48 53/53/53
f 50/50/50 53/53/53 54/54/54
f 55/55/55 51/51/51 52/52/52
f 55/55/55 48/48/48 51/51/51
f 56/56/56 55/55/55 52/52/52
f 53/53/53 57/57/57 54/54/54
f 53/53/53 48/48/48 57/57/57
f 54/54/54 57/57/57 58/58/58
f 59/59/59 55/55/55 56/56/56
f 59/59/59 48/48/48 55/55/55
f 60/60/60 59/59/59 56/56/56
f 58/58/58 61/61/61 60/60/60
f 57/57/57 61/61/61 58/58/58
f 57/57/57 48/48/48 61/61/61
f 61/61/61 48/48/48 59/59/59
f 61/61/61 59/59/59 60/60/60
