g CapeGreen
v 3.161469 11.50973 -18.17674
v 2.214478 11.51068 -17.03824
v 1.546333 11.51221 -18.39035
v 2.493323 11.51126 -19.52885
v 7.745995 11.48076 -16.46158
v 6.5485 11.48396 -15.60652
v 6.145356 11.48974 -17.15437
v 7.342851 11.48654 -18.00943
v 11.31597 11.4304 -13.44094
v 9.960163 11.43705 -12.94485
v 9.898676 11.44156 -14.46493
v 11.25448 11.43492 -14.96102
v 14.10456 11.39988 -10.18549
v 12.74946 11.40312 -10.09293
v 13.00708 11.40463 -11.52253
v 14.36217 11.40139 -11.61509
v -13.00708 11.40464 -11.52252
v -14.10456 11.39987 -10.18549
v -14.36217 11.40139 -11.61509
v -12.74946 11.40312 -10.09293
v -9.898676 11.44156 -14.46493
v -11.31597 11.4304 -13.44094
v -11.25448 11.43492 -14.96102
v -9.960163 11.43705 -12.94485
v -6.145355 11.48974 -17.15437
v -7.745997 11.48076 -16.46158
v -7.342851 11.48654 -18.00943
v -6.5485 11.48395 -15.60652
v -1.546333 11.51221 -18.39035
v -3.161469 11.50973 -18.17674
v -2.493323 11.51125 -19.52885
v -2.214478 11.51068 -17.03824
vt 0.8829253 0.8167621
vt 0.8680779 0.7936603
vt 0.8528492 0.8168657
vt 0.8676966 0.8399675
vt 0.8528492 0.8168657
vt 0.8680779 0.7936603
vt 0.8829253 0.816762
vt 0.8676967 0.8399675
vt 0.8829253 0.816762
vt 0.8680778 0.7936603
vt 0.8528492 0.8168657
vt 0.8676967 0.8399675
vt 0.8528492 0.8168657
vt 0.8680779 0.7936603
vt 0.8829253 0.816762
vt 0.8676967 0.8399675
vt 0.8829253 0.816762
vt 0.8528492 0.8168657
vt 0.8676967 0.8399675
vt 0.8680779 0.7936603
vt 0.8528492 0.8168657
vt 0.8829253 0.816762
vt 0.8676967 0.8399675
vt 0.8680778 0.7936603
vt 0.8829253 0.816762
vt 0.8528492 0.8168657
vt 0.8676967 0.8399675
vt 0.8680779 0.7936603
vt 0.8528492 0.8168657
vt 0.8829253 0.8167621
vt 0.8676966 0.8399675
vt 0.8680779 0.7936603
vn 0.001481525 0.9999988 0.0003988206
vn 0.001481587 0.9999988 0.0003980661
vn 0.001481523 0.9999988 0.0003988422
vn 0.001481461 0.9999988 0.0003995966
vn 0.004501599 0.9999866 0.002560991
vn 0.004501416 0.9999866 0.002561655
vn 0.004501623 0.9999866 0.002560902
vn 0.004501806 0.9999866 0.002560237
vn 0.005899469 0.9999789 0.002731385
vn 0.005899194 0.9999789 0.002732824
vn 0.005899492 0.9999789 0.002731271
vn 0.005899767 0.9999789 0.002729834
vn 0.00249618 0.9999958 0.001509943
vn 0.002496589 0.9999958 0.001510722
vn 0.00249614 0.9999958 0.001509866
vn 0.002495732 0.9999958 0.001509087
vn -0.002500301 0.9999957 0.001510611
vn -0.002500301 0.9999957 0.001510437
vn -0.002500301 0.9999957 0.001512359
vn -0.002500301 0.9999957 0.001508689
vn -0.005899183 0.9999789 0.002731688
vn -0.005899184 0.9999789 0.002731716
vn -0.005899173 0.9999789 0.002731327
vn -0.005899194 0.9999789 0.002732077
vn -0.004499698 0.9999866 0.002564751
vn -0.004499672 0.9999866 0.002564596
vn -0.004499887 0.9999866 0.002565918
vn -0.004499483 0.9999866 0.002563429
vn -0.001481651 0.9999988 0.0003972892
vn -0.001481649 0.9999988 0.0003973109
vn -0.001481715 0.9999988 0.0003965347
vn -0.001481585 0.9999988 0.0003980653
g CapeGreen_0
f 3/3/3 2/2/2 1/1/1
f 4/4/4 3/3/3 1/1/1
f 7/7/7 6/6/6 5/5/5
f 8/8/8 7/7/7 5/5/5
f 11/11/11 10/10/10 9/9/9
f 12/12/12 11/11/11 9/9/9
f 15/15/15 14/14/14 13/13/13
f 16/16/16 15/15/15 13/13/13
f 19/19/19 18/18/18 17/17/17
f 18/18/18 20/20/20 17/17/17
f 23/23/23 22/22/22 21/21/21
f 22/22/22 24/24/24 21/21/21
f 27/27/27 26/26/26 25/25/25
f 26/26/26 28/28/28 25/25/25
f 31/31/31 30/30/30 29/29/29
f 30/30/30 32/32/32 29/29/29
