g Cross1
v -2.152737 -0.1734965 1.558534
v -2.089006 -0.1734965 1.695538
v -1.970277 -0.1734965 1.788999
v -2.152737 0.03887231 1.558534
v -2.089006 0.03887231 1.695538
v -1.970277 0.03887231 1.788999
v -2.148846 0.03887231 1.405123
v -2.148846 -0.1734965 1.405122
v -1.820064 -0.1734965 1.820406
v -1.820064 0.03887231 1.820406
v 0.3747469 -0.03887231 0.08276565
v 0.04596535 -0.03887231 -0.3325179
v 0.04596545 0.1734965 -0.332518
v 0.3747471 0.1734965 0.08276556
v 2.148846 0.03887231 -1.321795
v 2.148845 -0.1734965 -1.321795
v 1.820064 0.03887231 -1.737079
v 1.820064 -0.1734965 -1.737079
v 2.152737 -0.1734965 -1.475207
v 2.152737 0.03887231 -1.475207
v 1.970277 0.03887231 -1.705672
v 1.970277 -0.1734965 -1.705672
v 2.089006 0.03887231 -1.612211
v 2.089006 -0.1734965 -1.612211
v -0.1268191 -0.1734965 2.629367
v 0.02015517 -0.1734965 2.664442
v 0.1671295 -0.1734965 2.629367
v -0.1268191 0.03887231 2.629367
v 0.02015517 0.03887231 2.664442
v 0.1671295 0.03887231 2.629367
v -0.2446834 0.03887231 2.53109
v -0.2446834 -0.1734965 2.53109
v 0.2849936 -0.1734965 2.53109
v 0.2849936 0.03887231 2.53109
v 0.2849936 -0.03887231 -0.2683005
v -0.2446834 -0.03887231 -0.2683005
v -0.2446834 0.1734965 -0.2683006
v 0.2849936 0.1734965 -0.2683006
v 0.2849936 0.03887231 -2.53109
v 0.2849936 -0.1734965 -2.53109
v -0.2446834 0.03887231 -2.53109
v -0.2446834 -0.1734965 -2.53109
v 0.1671295 -0.1734965 -2.629367
v 0.1671295 0.03887231 -2.629367
v -0.1268191 0.03887231 -2.629367
v -0.1268191 -0.1734965 -2.629367
v 0.02015517 0.03887231 -2.664441
v 0.02015517 -0.1734965 -2.664441
vt 0.8 0.2
vt 0.8 0.2
vt 0.8 0.2
vt 0.8 0.2
vt 0.8 0.2
vt 0.8 0.2
vt 0.8 0.2
vt 0.8 0.2
vt 0.8 0.2
vt 0.8 0.2
vt 0.8 0.2
vt 0.8 0.2
vt 0.8 0.2
vt 0.8 0.2
vt 0.8 0.2
vt 0.8 0.2
vt 0.8 0.2
vt 0.8 0.2
vt 0.8 0.2
vt 0.8 0.2
vt 0.8 0.2
vt 0.8 0.2
vt 0.8 0.2
vt 0.8 0.2
vt 0.8 0.2
vt 0.8 0.2
vt 0.8 0.2
vt 0.8 0.2
vt 0.8 0.2
vt 0.8 0.2
vt 0.8 0.2
vt 0.8 0.2
vt 0.8 0.2
vt 0.8 0.2
vt 0.8 0.2
vt 0.8 0.2
vt 0.8 0.2
vt 0.8 0.2
vt 0.8 0.2
vt 0.8 0.2
vt 0.8 0.2
vt 0.8 0.2
vt 0.8 0.2
vt 0.8 0.2
vt 0.8 0.2
vt 0.8 0.2
vt 0.8 0.2
vt 0.8 0.2
vn -0.6879871 -0.7117431 0.1417586
vn -0.7764031 -0.1391595 0.6146811
vn -0.2958098 -0.7117428 0.6371175
vn -0.6879886 0.7117416 0.1417589
vn -0.7764031 0.1391595 0.6146811
vn -0.2958104 0.7117415 0.6371187
vn -0.2872906 0.9196558 -0.2677636
vn -0.2069589 -0.9287527 -0.3075495
vn 0.2518684 -0.9287527 0.2719945
vn 0.1947145 0.9196558 0.3410563
vn 0.2376813 -0.923785 0.3002149
vn -0.2376813 -0.9237849 -0.300215
vn -0.2242178 0.93248 -0.2832091
vn 0.2242178 0.93248 0.2832092
vn 0.3001294 0.9171918 0.2620713
vn 0.2013171 -0.9287747 0.3112053
vn -0.1862288 0.9171919 -0.3522468
vn -0.2567213 -0.9287747 -0.2673422
vn 0.687987 -0.7117436 -0.141757
vn 0.6879886 0.7117419 -0.1417573
vn 0.2958101 0.7117414 -0.6371191
vn 0.2958093 -0.7117431 -0.6371174
vn 0.7764028 0.1391606 -0.6146812
vn 0.7764028 -0.1391606 -0.6146811
vn -0.315906 -0.7117421 0.6273967
vn 0 -0.1391616 0.9902697
vn 0.3159061 -0.7117422 0.6273966
vn -0.315906 0.711742 0.6273967
vn 0 0.1391592 0.99027
vn 0.315906 0.711742 0.6273967
vn -0.3882625 0.9196557 0.05903844
vn -0.3695921 -0.9287527 -0.02864007
vn 0.3695921 -0.9287527 -0.02864007
vn 0.3882625 0.9196557 0.05903844
vn 0.3829117 -0.9237849 0
vn -0.3829117 -0.9237849 0
vn -0.3612216 0.93248 0
vn 0.3612216 0.93248 0
vn 0.3917689 0.9171918 -0.07263768
vn 0.3689566 -0.9287747 0.03533268
vn -0.3917689 0.9171918 -0.07263768
vn -0.3689566 -0.9287747 0.03533267
vn 0.3159055 -0.7117432 -0.6273956
vn 0.315906 0.7117422 -0.6273966
vn -0.3159059 0.7117422 -0.6273966
vn -0.3159055 -0.7117432 -0.6273956
vn 0 0.1391599 -0.9902699
vn 0 -0.1391599 -0.9902699
g Cross1_0
f 3/3/3 2/2/2 1/1/1
f 2/2/2 4/4/4 1/1/1
f 3/3/3 5/5/5 2/2/2
f 2/2/2 5/5/5 4/4/4
f 5/5/5 6/6/6 4/4/4
f 3/3/3 6/6/6 5/5/5
f 1/1/1 4/4/4 7/7/7
f 7/7/7 4/4/4 6/6/6
f 3/3/3 1/1/1 8/8/8
f 1/1/1 7/7/7 8/8/8
f 9/9/9 6/6/6 3/3/3
f 3/3/3 8/8/8 9/9/9
f 9/9/9 10/10/10 6/6/6
f 7/7/7 6/6/6 10/10/10
f 11/11/11 9/9/9 8/8/8
f 11/11/11 10/10/10 9/9/9
f 12/12/12 8/8/8 7/7/7
f 11/11/11 8/8/8 12/12/12
f 13/13/13 7/7/7 10/10/10
f 12/12/12 7/7/7 13/13/13
f 11/11/11 14/14/14 10/10/10
f 13/13/13 10/10/10 14/14/14
f 11/11/11 15/15/15 14/14/14
f 13/13/13 14/14/14 15/15/15
f 16/16/16 11/11/11 12/12/12
f 11/11/11 16/16/16 15/15/15
f 12/12/12 13/13/13 17/17/17
f 13/13/13 15/15/15 17/17/17
f 16/16/16 12/12/12 18/18/18
f 12/12/12 17/17/17 18/18/18
f 19/19/19 15/15/15 16/16/16
f 19/19/19 16/16/16 18/18/18
f 17/17/17 15/15/15 20/20/20
f 19/19/19 20/20/20 15/15/15
f 18/18/18 17/17/17 21/21/21
f 17/17/17 20/20/20 21/21/21
f 19/19/19 18/18/18 22/22/22
f 18/18/18 21/21/21 22/22/22
f 21/21/21 20/20/20 23/23/23
f 22/22/22 21/21/21 23/23/23
f 19/19/19 22/22/22 24/24/24
f 24/24/24 20/20/20 19/19/19
f 22/22/22 23/23/23 24/24/24
f 24/24/24 23/23/23 20/20/20
f 27/27/27 26/26/26 25/25/25
f 26/26/26 28/28/28 25/25/25
f 27/27/27 29/29/29 26/26/26
f 26/26/26 29/29/29 28/28/28
f 29/29/29 30/30/30 28/28/28
f 27/27/27 30/30/30 29/29/29
f 25/25/25 28/28/28 31/31/31
f 31/31/31 28/28/28 30/30/30
f 27/27/27 25/25/25 32/32/32
f 25/25/25 31/31/31 32/32/32
f 33/33/33 30/30/30 27/27/27
f 27/27/27 32/32/32 33/33/33
f 33/33/33 34/34/34 30/30/30
f 31/31/31 30/30/30 34/34/34
f 35/35/35 33/33/33 32/32/32
f 35/35/35 34/34/34 33/33/33
f 36/36/36 32/32/32 31/31/31
f 35/35/35 32/32/32 36/36/36
f 37/37/37 31/31/31 34/34/34
f 36/36/36 31/31/31 37/37/37
f 35/35/35 38/38/38 34/34/34
f 37/37/37 34/34/34 38/38/38
f 35/35/35 39/39/39 38/38/38
f 37/37/37 38/38/38 39/39/39
f 40/40/40 35/35/35 36/36/36
f 35/35/35 40/40/40 39/39/39
f 36/36/36 37/37/37 41/41/41
f 37/37/37 39/39/39 41/41/41
f 40/40/40 36/36/36 42/42/42
f 36/36/36 41/41/41 42/42/42
f 43/43/43 39/39/39 40/40/40
f 43/43/43 40/40/40 42/42/42
f 41/41/41 39/39/39 44/44/44
f 43/43/43 44/44/44 39/39/39
f 42/42/42 41/41/41 45/45/45
f 41/41/41 44/44/44 45/45/45
f 43/43/43 42/42/42 46/46/46
f 42/42/42 45/45/45 46/46/46
f 45/45/45 44/44/44 47/47/47
f 46/46/46 45/45/45 47/47/47
f 43/43/43 46/46/46 48/48/48
f 48/48/48 44/44/44 43/43/43
f 46/46/46 47/47/47 48/48/48
f 48/48/48 47/47/47 44/44/44
