g Crystal05
v -14.77192 23.46247 -5.746939
v -14.58455 26.27593 -6.754947
v -16.41563 25.32472 -5.025381
v -14.77192 23.46247 -5.746939
v -16.41563 25.32472 -5.025381
v -16.94307 22.58477 -3.014096
v -15.23136 22.05527 -3.541788
v -13.52402 23.11631 -3.345146
v -12.73134 24.59827 -4.650313
v -14.58455 26.27593 -6.754947
v -13.13914 25.9276 -6.125666
v -15.61324 23.46531 -2.023409
v -16.94307 22.58477 -3.014096
v -16.41563 25.32472 -5.025381
v -14.61705 26.10501 -4.028356
v -14.58455 26.27593 -6.754947
v -13.52402 23.11631 -3.345146
v -13.13914 25.9276 -6.125666
v -12.73134 24.59827 -4.650313
v -15.23136 22.05527 -3.541788
v -15.61324 23.46531 -2.023409
v -13.52402 23.11631 -3.345146
v -16.94307 22.58477 -3.014096
vt 0.6080794 0.8597686
vt 0.6093576 0.8749317
vt 0.5968676 0.8618056
vt 0.6035579 0.869099
vt 0.5923461 0.8711359
vt 0.5887483 0.8504382
vt 0.6004239 0.8517168
vt 0.61207 0.8541128
vt 0.6174768 0.8665594
vt 0.6048359 0.8842621
vt 0.6146952 0.8794788
vt 0.4631534 0.2055935
vt 0.4081579 0.2224374
vt 0.4299706 0.3479251
vt 0.5043511 0.3288385
vt 0.5056951 0.4275072
vt 0.5495538 0.2447163
vt 0.5654709 0.3985069
vt 0.5823352 0.3201786
vt 0.6031276 0.8681806
vt 0.6005226 0.8641237
vt 0.6147734 0.8705766
vt 0.5914518 0.866902
vn 0.005255296 -0.6585081 -0.7525553
vn -0.0517537 0.2837526 -0.9574998
vn -0.8944019 0.4364817 -0.09761678
vn 0.005255296 -0.6585081 -0.7525553
vn -0.8944019 0.4364817 -0.09761678
vn -0.8076412 -0.5895872 -0.01013112
vn 0.1456404 -0.9783925 0.1467547
vn 0.7917675 -0.4250603 0.438666
vn 0.9303887 -0.2594961 -0.2589183
vn -0.0517537 0.2837526 -0.9574998
vn 0.7262719 0.6683906 -0.1605712
vn -0.1337951 0.03456783 0.990406
vn -0.8076412 -0.5895872 -0.01013112
vn -0.8944019 0.4364817 -0.09761678
vn 0.1999901 0.8182169 0.5390038
vn -0.0517537 0.2837526 -0.9574998
vn 0.7917675 -0.4250603 0.438666
vn 0.7262719 0.6683906 -0.1605712
vn 0.9303887 -0.2594961 -0.2589183
vn 0.1456404 -0.9783925 0.1467547
vn -0.1337951 0.03456783 0.990406
vn 0.7917675 -0.4250603 0.438666
vn -0.8076412 -0.5895872 -0.01013112
g Crystal05_0
f 3/3/3 2/2/2 1/1/1
f 6/6/6 5/5/5 4/4/4
f 4/4/4 7/7/7 6/6/6
f 8/8/8 7/7/7 4/4/4
f 4/4/4 9/9/9 8/8/8
f 10/10/10 9/9/9 4/4/4
f 10/10/10 11/11/11 9/9/9
f 14/14/14 13/13/13 12/12/12
f 12/12/12 15/15/15 14/14/14
f 15/15/15 16/16/16 14/14/14
f 15/15/15 12/12/12 17/17/17
f 18/18/18 16/16/16 15/15/15
f 17/17/17 19/19/19 15/15/15
f 19/19/19 18/18/18 15/15/15
f 22/22/22 21/21/21 20/20/20
f 23/23/23 20/20/20 21/21/21
