g Crystal01
v -19.94856 30.18148 -7.445374
v -21.76034 27.51266 -8.387658
v -18.0298 23.95238 -7.228057
v -21.45773 23.47253 -8.32334
v -21.46768 23.28367 -4.528938
v -23.76686 27.36646 -6.36493
v -23.22104 23.13855 -5.975397
v -23.76686 27.36646 -6.36493
v -22.06236 27.2691 -5.113835
v -23.22104 23.13855 -5.975397
v -21.76034 27.51266 -8.387658
v -21.46768 23.28367 -4.528938
v -19.94856 30.18148 -7.445374
v -18.0298 23.95238 -7.228057
vt 0.6091312 0.8858097
vt 0.5976499 0.8826065
vt 0.6212903 0.8654009
vt 0.5995675 0.8697797
vt 0.5995046 0.8488907
vt 0.5849348 0.8713303
vt 0.5883936 0.8561829
vt 0.4287533 0.1161571
vt 0.4805343 0.08261892
vt 0.4453347 0.04354198
vt 0.4897094 0.1702148
vt 0.4985999 0.008583321
vt 0.5447493 0.1855702
vt 0.6030393 0.08773211
vn 0.1422765 0.9698052 -0.1980788
vn -0.2746651 0.5095276 -0.815439
vn 0.9565652 -0.2363415 -0.1706628
vn -0.2705153 -0.6546101 -0.7059088
vn 0.09541769 -0.7653663 0.6364824
vn -0.9195204 0.3432738 -0.1914298
vn -0.7908912 -0.4748057 0.3860708
vn -0.9195204 0.3432738 -0.1914298
vn -0.2290719 0.5151846 0.8259001
vn -0.7908912 -0.4748057 0.3860708
vn -0.2746651 0.5095276 -0.815439
vn 0.09541769 -0.7653663 0.6364824
vn 0.1422765 0.9698052 -0.1980788
vn 0.9565652 -0.2363415 -0.1706628
g Crystal01_0
f 3/3/3 2/2/2 1/1/1
f 4/4/4 2/2/2 3/3/3
f 5/5/5 4/4/4 3/3/3
f 6/6/6 2/2/2 4/4/4
f 5/5/5 7/7/7 4/4/4
f 4/4/4 7/7/7 6/6/6
f 10/10/10 9/9/9 8/8/8
f 11/11/11 8/8/8 9/9/9
f 12/12/12 9/9/9 10/10/10
f 9/9/9 13/13/13 11/11/11
f 9/9/9 12/12/12 14/14/14
f 14/14/14 13/13/13 9/9/9
