g DadyofQuincyHologram
v 6.3111 -21.37596 -2.050601
v 1.648668 0 -0.5356869
v 1.402441 0 -1.018937
v 5.368543 -21.37596 -3.900475
v 1.018935 0 -1.402443
v 3.900474 -21.37596 -5.368543
v 0.5356848 0 -1.648669
v 2.0506 -21.37596 -6.3111
v -7.066474E-07 0 -1.733514
v -1.222398E-07 -21.37596 -6.635882
v -0.5356864 0 -1.64867
v -2.050601 -21.37596 -6.3111
v -1.018936 0 -1.402443
v -3.900474 -21.37596 -5.368541
v -1.402443 0 -1.018937
v -5.368541 -21.37596 -3.900474
v -1.64867 0 -0.5356855
v -6.311099 -21.37596 -2.050601
v -1.733514 0 -1.059971E-06
v -6.63588 -21.37596 -1.833595E-07
v -1.64867 0 0.5356843
v -6.311099 -21.37596 2.0506
v -1.402443 0 1.018934
v -5.368541 -21.37596 3.900473
v -1.018936 0 1.402441
v -3.900473 -21.37596 5.368541
v -0.5356864 0 1.648667
v -2.0506 -21.37596 6.311097
v -7.583101E-07 0 1.733511
v -3.200043E-07 -21.37596 6.63588
v 0.5356845 0 1.648668
v 2.0506 -21.37596 6.311097
v 1.018935 0 1.402441
v 3.900472 -21.37596 5.368539
v 1.402441 0 1.018934
v 5.368539 -21.37596 3.900472
v 1.648668 0 0.5356843
v 6.311097 -21.37596 2.0506
v 1.733512 0 -1.059971E-06
v 6.635879 -21.37596 -1.833595E-07
v 1.648668 0 -0.5356869
v 6.3111 -21.37596 -2.050601
vt 0 0.006864458
vt 0 0.9918853
vt 0.05000001 0.9918853
vt 0.05000001 0.006864458
vt 0.1 0.9918853
vt 0.1 0.006864458
vt 0.15 0.9918853
vt 0.15 0.006864458
vt 0.2 0.9918853
vt 0.2 0.006864458
vt 0.25 0.9918853
vt 0.25 0.006864458
vt 0.3 0.9918853
vt 0.3 0.006864458
vt 0.3500001 0.9918853
vt 0.3500001 0.006864458
vt 0.4 0.9918853
vt 0.4 0.006864458
vt 0.45 0.9918853
vt 0.45 0.006864458
vt 0.5000001 0.9918853
vt 0.5000001 0.006864458
vt 0.55 0.9918853
vt 0.55 0.006864458
vt 0.6 0.9918853
vt 0.6 0.006864458
vt 0.65 0.9918853
vt 0.65 0.006864458
vt 0.7 0.9918853
vt 0.7 0.006864458
vt 0.75 0.9918853
vt 0.75 0.006864458
vt 0.8 0.9918853
vt 0.8 0.006864458
vt 0.85 0.9918853
vt 0.85 0.006864458
vt 0.9000001 0.9918853
vt 0.9000001 0.006864458
vt 0.9500002 0.9918853
vt 0.9500002 0.006864458
vt 1 0.9918853
vt 1 0.006864458
vn 0.9269907 0.223537 -0.3011965
vn 0.9269907 0.2235369 -0.3011965
vn 0.7885454 0.223537 -0.5729114
vn 0.7885453 0.223537 -0.5729114
vn 0.5729113 0.2235369 -0.7885455
vn 0.5729113 0.2235369 -0.7885454
vn 0.3011968 0.2235369 -0.9269907
vn 0.3011969 0.2235369 -0.9269906
vn 1.200883E-07 0.2235369 -0.9746954
vn 1.076211E-07 0.2235369 -0.9746954
vn -0.3011972 0.2235369 -0.9269906
vn -0.3011972 0.2235369 -0.9269906
vn -0.5729116 0.2235367 -0.7885453
vn -0.5729116 0.2235368 -0.7885451
vn -0.7885455 0.2235368 -0.5729113
vn -0.7885455 0.2235368 -0.5729112
vn -0.9269906 0.2235368 -0.3011971
vn -0.9269906 0.2235368 -0.3011971
vn -0.9746954 0.2235368 0
vn -0.9746954 0.2235368 0
vn -0.9269906 0.2235368 0.3011972
vn -0.9269906 0.2235368 0.3011972
vn -0.7885454 0.2235368 0.5729114
vn -0.7885454 0.2235368 0.5729114
vn -0.5729112 0.2235368 0.7885454
vn -0.5729113 0.2235369 0.7885454
vn -0.3011968 0.2235369 0.9269907
vn -0.3011969 0.2235369 0.9269907
vn 0 0.2235369 0.9746954
vn 0 0.2235369 0.9746954
vn 0.3011971 0.2235368 0.9269906
vn 0.3011971 0.2235368 0.9269906
vn 0.5729113 0.2235368 0.7885454
vn 0.5729114 0.2235368 0.7885454
vn 0.7885454 0.2235368 0.5729114
vn 0.7885454 0.2235368 0.5729114
vn 0.9269906 0.2235368 0.3011972
vn 0.9269906 0.2235369 0.3011972
vn 0.9746954 0.2235368 5.575529E-07
vn 0.9746954 0.2235368 5.381055E-07
vn 0.9269907 0.2235369 -0.3011965
vn 0.9269907 0.223537 -0.3011965
g DadyofQuincyHologram_0
f 3/3/3 2/2/2 1/1/1
f 4/4/4 3/3/3 1/1/1
f 5/5/5 3/3/3 4/4/4
f 6/6/6 5/5/5 4/4/4
f 7/7/7 5/5/5 6/6/6
f 8/8/8 7/7/7 6/6/6
f 9/9/9 7/7/7 8/8/8
f 10/10/10 9/9/9 8/8/8
f 11/11/11 9/9/9 10/10/10
f 12/12/12 11/11/11 10/10/10
f 13/13/13 11/11/11 12/12/12
f 14/14/14 13/13/13 12/12/12
f 15/15/15 13/13/13 14/14/14
f 16/16/16 15/15/15 14/14/14
f 17/17/17 15/15/15 16/16/16
f 18/18/18 17/17/17 16/16/16
f 19/19/19 17/17/17 18/18/18
f 20/20/20 19/19/19 18/18/18
f 21/21/21 19/19/19 20/20/20
f 22/22/22 21/21/21 20/20/20
f 23/23/23 21/21/21 22/22/22
f 24/24/24 23/23/23 22/22/22
f 25/25/25 23/23/23 24/24/24
f 26/26/26 25/25/25 24/24/24
f 27/27/27 25/25/25 26/26/26
f 28/28/28 27/27/27 26/26/26
f 29/29/29 27/27/27 28/28/28
f 30/30/30 29/29/29 28/28/28
f 31/31/31 29/29/29 30/30/30
f 32/32/32 31/31/31 30/30/30
f 33/33/33 31/31/31 32/32/32
f 34/34/34 33/33/33 32/32/32
f 35/35/35 33/33/33 34/34/34
f 36/36/36 35/35/35 34/34/34
f 37/37/37 35/35/35 36/36/36
f 38/38/38 37/37/37 36/36/36
f 39/39/39 37/37/37 38/38/38
f 40/40/40 39/39/39 38/38/38
f 41/41/41 39/39/39 40/40/40
f 42/42/42 41/41/41 40/40/40
