g DamagedPropellor
v 5.004072 -1.300895 1.029438
v 1.643008 -0.9485904 0.6208715
v 1.643008 0.948593 0.6208715
v 5.004072 1.300897 1.029438
v 8.365136 -1.653201 -0.09577148
v 8.365136 1.653202 -0.09577148
v -5.004069 -0.9543559 0.4714282
v -1.643008 0.948593 0.6208715
v -1.643018 -0.9485904 0.6208715
v -5.004075 -3.556148 0.4714282
v -8.36513 -0.7720515 0.8842285
v -8.36513 -4.078453 0.8842285
v 8.365136 1.653202 -0.09577148
v 9.091406 0.9929346 -0.5355933
v 8.365136 -1.653201 -0.09577148
v 9.091406 -0.9929356 -0.5355933
v -8.36513 -4.078453 0.8842285
v -9.091406 -3.418188 0.4444067
v -8.36513 -0.7720515 0.8842285
v -9.091406 -1.432319 0.4444067
v 1.643008 -0.9485904 0.6208715
v 5.004072 -1.300895 1.029438
v 4.873951 -1.151939 0.3122949
v 8.365136 -1.653201 -0.09577148
v 8.325015 -1.482377 -0.9624951
v 9.091406 -0.9929356 -0.5355933
v 9.091406 0.9929346 -0.5355933
v 8.325009 1.482381 -0.9624951
v 8.365136 1.653202 -0.09577148
v 4.873949 1.151942 0.3122949
v 5.004072 1.300897 1.029438
v 1.643008 0.948593 0.6208715
v 1.422887 -0.8215002 0.0533081
v 1.422887 0.821503 0.0533081
v 7.010028E-06 1.897183 0.6208715
v 7.010028E-06 -1.643012 0.0533081
v 7.010028E-06 -1.897183 0.6208715
v 7.010028E-06 1.643009 0.0533081
v -1.643008 0.948593 0.6208715
v 1.429245E-06 -5.698204E-07 -1.12
v -1.422882 -0.8215004 0.0533081
v -1.643018 -0.9485904 0.6208715
v -1.422884 0.821503 0.0533081
v -4.873946 -1.103313 -0.2457153
v -5.004069 -0.9543559 0.4714282
v -4.873945 -3.407193 -0.2457153
v -5.004075 -3.556148 0.4714282
v -8.325007 -0.942875 0.01750488
v -8.36513 -0.7720515 0.8842285
v -9.091406 -1.432319 0.4444067
v -9.091406 -3.418188 0.4444067
v -8.325007 -3.907634 0.01750488
v -8.36513 -4.078453 0.8842285
vt 0.7330062 0.9052722
vt 0.7330062 0.9052722
vt 0.7330062 0.9052722
vt 0.7330062 0.9052722
vt 0.7330062 0.9052722
vt 0.7330062 0.9052722
vt 0.7330062 0.9052722
vt 0.7330062 0.9052722
vt 0.7330062 0.9052722
vt 0.7330062 0.9052722
vt 0.7330062 0.9052722
vt 0.7330062 0.9052722
vt 0.5599039 0.9040641
vt 0.538592 0.912834
vt 0.5604874 0.9715073
vt 0.5390265 0.9631064
vt 0.5604874 0.9715073
vt 0.5379773 0.9622396
vt 0.5599039 0.9040641
vt 0.5384133 0.9119677
vt 0.7183356 0.9029092
vt 0.636238 0.894788
vt 0.641603 0.910911
vt 0.5541403 0.8866668
vt 0.5599039 0.9040641
vt 0.538592 0.912834
vt 0.5390265 0.9631064
vt 0.5604874 0.9715073
vt 0.5559725 0.9889052
vt 0.641759 0.9644973
vt 0.6366792 0.9817018
vt 0.717386 0.9744984
vt 0.7233021 0.9177579
vt 0.7230307 0.9574873
vt 0.7610096 0.9887021
vt 0.7610096 0.9008896
vt 0.7610096 0.8848852
vt 0.7610096 0.9757851
vt 0.717386 0.9744984
vt 0.7610096 0.9376433
vt 0.7233021 0.9177579
vt 0.7183386 0.9029092
vt 0.7230307 0.9574872
vt 0.6411604 0.9642494
vt 0.6359313 0.9814131
vt 0.6415886 0.9106622
vt 0.6363754 0.8944911
vt 0.5592901 0.9710115
vt 0.5544765 0.9883279
vt 0.5379773 0.9622396
vt 0.5384133 0.9119677
vt 0.5598751 0.9035665
vt 0.5544121 0.8860729
vn -0.05051529 -0.6035283 0.7957398
vn 0.1795782 -0.9832972 -0.029634
vn 0.02162128 0.9114199 0.4109091
vn 0.08577272 0.6087251 0.788731
vn 0.4292516 -0.5992131 0.675786
vn 0.3479947 0.8500688 0.3953262
vn -0.101769 0.7639405 0.637211
vn -0.4933822 0.8652622 -0.0888558
vn 0.2200362 -0.8057107 0.549922
vn 0.2740531 -0.7016081 0.6577545
vn -0.3404902 0.4402946 0.8307871
vn -0.3532523 -0.7149035 0.6034284
vn 0.3479947 0.8500688 0.3953262
vn 0.9550408 0.2855375 -0.07978478
vn 0.4292516 -0.5992131 0.675786
vn 0.8937271 -0.4345928 -0.1112709
vn -0.3532523 -0.7149035 0.6034284
vn -0.9550401 -0.2855398 -0.07978361
vn -0.3404902 0.4402946 0.8307871
vn -0.8937255 0.4345954 -0.1112722
vn 0.1795782 -0.9832972 -0.029634
vn -0.05051529 -0.6035283 0.7957398
vn -0.2024066 -0.718888 -0.665005
vn 0.4292516 -0.5992131 0.675786
vn 0.2898873 -0.4761727 -0.8301957
vn 0.8937271 -0.4345928 -0.1112709
vn 0.9550408 0.2855375 -0.07978478
vn 0.06480409 0.4887031 -0.8700401
vn 0.3479947 0.8500688 0.3953262
vn -0.1254051 0.7227988 -0.6795848
vn 0.08577272 0.6087251 0.788731
vn 0.02162128 0.9114199 0.4109091
vn 0.3018079 -0.4732513 -0.8276142
vn 0.3738039 0.6246404 -0.6856348
vn 0.1729951 0.8988988 -0.4025588
vn 0.1054517 -0.7972003 -0.5944339
vn -0.1729914 -0.898899 -0.4025601
vn -0.1054489 0.7971998 -0.5944349
vn -0.4933822 0.8652622 -0.0888558
vn 0 0 -1
vn -0.2122266 -0.5632265 -0.7985836
vn 0.2200362 -0.8057107 0.549922
vn -0.4106744 0.5087465 -0.7566529
vn -0.1642498 0.5647702 -0.8087378
vn -0.101769 0.7639405 0.637211
vn 0.2976661 -0.6004077 -0.7422302
vn 0.2740531 -0.7016081 0.6577545
vn -0.3097014 0.5099526 -0.802517
vn -0.3404902 0.4402946 0.8307871
vn -0.8937255 0.4345954 -0.1112722
vn -0.9550401 -0.2855398 -0.07978361
vn -0.2410181 -0.7265019 -0.6435101
vn -0.3532523 -0.7149035 0.6034284
g DamagedPropellor_0
f 3/3/3 2/2/2 1/1/1
f 3/3/3 1/1/1 4/4/4
f 4/4/4 1/1/1 5/5/5
f 4/4/4 5/5/5 6/6/6
f 9/9/9 8/8/8 7/7/7
f 9/9/9 7/7/7 10/10/10
f 10/10/10 7/7/7 11/11/11
f 10/10/10 11/11/11 12/12/12
f 15/15/15 14/14/14 13/13/13
f 15/15/15 16/16/16 14/14/14
f 19/19/19 18/18/18 17/17/17
f 19/19/19 20/20/20 18/18/18
f 23/23/23 22/22/22 21/21/21
f 23/23/23 24/24/24 22/22/22
f 23/23/23 25/25/25 24/24/24
f 25/25/25 26/26/26 24/24/24
f 25/25/25 27/27/27 26/26/26
f 25/25/25 28/28/28 27/27/27
f 23/23/23 28/28/28 25/25/25
f 29/29/29 27/27/27 28/28/28
f 30/30/30 29/29/29 28/28/28
f 23/23/23 30/30/30 28/28/28
f 30/30/30 31/31/31 29/29/29
f 30/30/30 32/32/32 31/31/31
f 23/23/23 21/21/21 33/33/33
f 33/33/33 30/30/30 23/23/23
f 30/30/30 34/34/34 32/32/32
f 33/33/33 34/34/34 30/30/30
f 35/35/35 32/32/32 34/34/34
f 21/21/21 36/36/36 33/33/33
f 21/21/21 37/37/37 36/36/36
f 35/35/35 34/34/34 38/38/38
f 39/39/39 35/35/35 38/38/38
f 33/33/33 40/40/40 34/34/34
f 33/33/33 36/36/36 40/40/40
f 34/34/34 40/40/40 38/38/38
f 37/37/37 41/41/41 36/36/36
f 41/41/41 40/40/40 36/36/36
f 37/37/37 42/42/42 41/41/41
f 43/43/43 38/38/38 40/40/40
f 39/39/39 38/38/38 43/43/43
f 43/43/43 40/40/40 41/41/41
f 44/44/44 39/39/39 43/43/43
f 41/41/41 44/44/44 43/43/43
f 44/44/44 45/45/45 39/39/39
f 42/42/42 46/46/46 41/41/41
f 41/41/41 46/46/46 44/44/44
f 42/42/42 47/47/47 46/46/46
f 48/48/48 45/45/45 44/44/44
f 46/46/46 48/48/48 44/44/44
f 48/48/48 49/49/49 45/45/45
f 48/48/48 50/50/50 49/49/49
f 48/48/48 51/51/51 50/50/50
f 47/47/47 52/52/52 46/46/46
f 46/46/46 52/52/52 48/48/48
f 48/48/48 52/52/52 51/51/51
f 47/47/47 53/53/53 52/52/52
f 53/53/53 51/51/51 52/52/52
