g Dark_Flask_Purple
v -0.8844787 2.332155 0.4394192
v -0.861976 2.362309 0.4880118
v -0.8301461 2.370668 0.5567456
v -0.8937997 2.259357 0.4192917
v -0.8301461 1.856762 0.5567456
v -0.7664926 2.259357 0.6941998
v -0.7758133 2.332155 0.674072
v -0.7983163 2.362309 0.6254794
v -0.8937997 2.259357 0.4192917
v -0.8301461 1.856762 0.5567456
v -0.8937997 1.454167 0.4192917
v -0.8844787 1.381369 0.4394192
v -0.861976 1.351215 0.4880118
v -0.8301461 1.342858 0.5567456
v -0.7983163 1.351215 0.6254794
v -0.7758136 1.381369 0.6740723
v -0.7664926 1.454167 0.6941998
v -0.7664926 2.259357 0.6941998
v 1.820192 -1.314476 1.322447
v 1.698701 -1.375381 1.437242
v 1.584205 -1.310554 1.558865
v 1.838954 -1.019794 1.336079
v 1.559501 -1.185146 1.597355
v 1.628874 -1.019794 1.54616
v 1.686217 -0.6642078 1.449726
v 1.968202 -1.019794 1.082416
v 1.917928 -1.17989 1.153673
v 2.007537 -0.6642078 0.9443316
v 1.816314 -0.6642078 1.319629
v 1.627495 -0.3173764 1.392141
v 1.96688 -0.3173764 0.8429727
v 1.74895 -0.3173764 1.270687
v 1.473198 0.01215881 1.355777
v 1.854709 0.01215881 0.7661602
v 1.63852 0.01215881 1.190455
v 1.252205 0.3162839 1.316451
v 1.676978 0.3162836 0.709519
v 1.487745 0.3162836 1.080911
v 1.010508 0.5875098 1.234579
v 1.440375 0.5875098 0.66991
v 1.300337 0.5875098 0.9447504
v 0.7853268 0.8191595 1.080911
v 1.162496 0.8191595 0.6252058
v 1.08091 0.8191595 0.7853274
v 0.7191284 0.9606708 0.8245517
v 0.983598 0.9255322 0.5986673
v 0.7389322 1.005527 0.7025024
v 0.8348675 1.005527 0.6065672
v -0.7301843 1.307664 -0.7301843
v -1.032636 2.405861 -4.66116E-14
v -1.032636 1.307664 -5.115908E-14
v -0.7301843 2.405861 -0.7301843
v 3.908317E-08 1.307664 -1.032636
v 3.908317E-08 2.405861 -1.032636
v 0.7301843 1.307664 -0.7301843
v 0.7301843 2.405861 -0.7301843
v 1.032637 1.307664 -5.002221E-14
v 1.032637 2.405861 -4.774847E-14
v 0.7301843 1.307664 0.7301843
v 0.7301843 2.405861 0.7301843
v 3.908317E-08 1.307664 1.032636
v 3.908317E-08 2.405861 1.032636
v -0.7301843 1.307664 0.7301843
v -0.7301843 2.405861 0.7301843
v -0.7301843 2.405861 0.7301843
v -0.7301843 1.307664 0.7301843
v -1.032636 1.307664 -5.115908E-14
v -1.032636 2.405861 -4.66116E-14
v 0.7301843 1.307664 -0.7301843
v 3.908317E-08 1.307664 -1.032636
v -0.7301843 1.307664 -0.7301843
v 1.032637 1.307664 -5.002221E-14
v -1.032636 1.307664 -5.115908E-14
v -0.7301843 1.307664 0.7301843
v 0.7301843 1.307664 0.7301843
v 3.908317E-08 1.307664 1.032636
v -0.7301843 2.405861 -0.7301843
v 3.908317E-08 2.405861 -1.032636
v 0.7301843 2.405861 -0.7301843
v -1.032636 2.405861 -4.66116E-14
v 1.032637 2.405861 -4.774847E-14
v 0.7301843 2.405861 0.7301843
v -0.7301843 2.405861 0.7301843
v 3.908317E-08 2.405861 1.032636
v -0.6246151 3.077746 -0.6246148
v 3.908317E-08 3.077746 -0.8833389
v 0.6246148 3.077746 -0.6246148
v -0.8833386 3.077746 -5.229594E-14
v 0.8833392 3.077746 -4.547473E-14
v -0.6246151 3.077746 0.6246148
v 0.6246148 3.077746 0.6246151
v 3.908317E-08 3.077746 0.8833389
v 0.5303238 2.228769 -0.5303239
v 0.6246148 3.077746 -0.6246148
v 3.908317E-08 3.077746 -0.8833389
v 3.908317E-08 2.228769 -0.7499914
v 0.7499914 2.228769 -5.002221E-14
v -0.6246151 3.077746 -0.6246148
v 0.8833392 3.077746 -4.547473E-14
v -0.5303238 2.228769 -0.5303239
v 0.5303238 2.228769 0.5303241
v -0.8833386 3.077746 -5.229594E-14
v 0.6246148 3.077746 0.6246151
v -0.7499914 2.228769 -4.66116E-14
v 3.908317E-08 2.228769 0.7499914
v -0.6246151 3.077746 0.6246148
v 3.908317E-08 3.077746 0.8833389
v -0.5303238 2.228769 0.5303239
v 0.4297272 -2.742675 -1.322565
v -1.023181E-14 -3.077746 -4.888534E-14
v 1.125041 -2.742675 -0.8173901
v -0.4297278 -2.742675 -1.322565
v 1.390627 -2.742675 -6.775946E-09
v 0.6451601 -1.884582 -1.985599
v -0.6451605 -1.884582 -1.985599
v 1.689052 -1.884582 -1.227168
v -1.125041 -2.742675 -0.8173901
v -1.689052 -1.884582 -1.227168
v -0.6983169 -1.019794 -2.149197
v 0.6983163 -1.019794 -2.149197
v -1.828217 -1.019794 -1.328277
v 2.087783 -1.884582 -4.66116E-14
v 1.125041 -2.742675 0.8173898
v 1.828216 -1.019794 -1.328277
v -2.087783 -1.884582 1.244415E-07
v -2.259799 -1.019794 1.346945E-07
v -1.390627 -2.742675 7.611188E-08
v -0.6451605 -0.1550064 -1.985599
v -1.689052 -0.1550064 -1.227168
v 0.6451601 -0.1550064 -1.985599
v -2.087783 -0.1550064 1.244415E-07
v 2.259799 -1.019794 -5.002221E-14
v 1.689052 -0.1550064 -1.227168
v 1.689052 -1.884582 1.227168
v 0.4297272 -2.742675 1.322565
v -0.4937846 0.578125 -1.519712
v -1.292744 0.578125 -0.9392334
v -1.597919 0.578125 9.524334E-08
v 0.493784 0.578125 -1.519712
v 1.828216 -1.019794 1.328277
v 0.6451601 -1.884582 1.985599
v -0.4297272 -2.742675 1.322565
v 2.087783 -0.1550064 -5.002221E-14
v -1.125041 -2.742675 0.8173901
v -0.6451601 -1.884582 1.985599
v -1.689052 -1.884582 1.227168
v 0.6983163 -1.019794 2.149197
v -1.828217 -1.019794 1.328277
v -0.6983163 -1.019794 2.149197
v 1.689052 -0.1550064 1.227168
v -1.689052 -0.1550064 1.227168
v -0.6451601 -0.1550064 1.985599
v 0.6451601 -0.1550064 1.985599
v -1.292744 0.578125 0.9392337
v -0.493784 0.578125 1.519712
v 0.493784 0.578125 1.519712
v 1.292744 0.578125 0.9392334
v 1.597919 0.578125 -4.888534E-14
v 1.292744 0.578125 -0.9392337
v -0.6996283 1.067988 0.5083096
v -0.267234 1.067988 0.8224621
v -1.250555E-14 1.318562 -1.746391E-08
v -0.8647879 1.067988 5.154532E-08
v 0.267234 1.067988 0.8224621
v 0.6996283 1.067988 0.5083095
v -0.6996283 1.067988 -0.5083095
v 0.8647879 1.067988 -5.115908E-14
v -0.267234 1.067988 -0.8224621
v 0.6996283 1.067988 -0.5083096
v 0.267234 1.067988 -0.8224621
vt 0.04482786 0.9148195
vt 0.04500747 0.9150743
vt 0.04528033 0.9152385
vt 0.04478307 0.9139336
vt 0.04528033 0.9137515
vt 0.04577759 0.9139337
vt 0.0457328 0.9148195
vt 0.04555318 0.9150743
vt 0.04478307 0.9139336
vt 0.04528033 0.9029949
vt 0.04478307 0.9028127
vt 0.04482786 0.9019269
vt 0.04500747 0.9016721
vt 0.04528033 0.9015079
vt 0.04555318 0.9016721
vt 0.0457328 0.9019269
vt 0.04577759 0.9028127
vt 0.04577759 0.9139337
vt 0.04421397 0.9043825
vt 0.04421397 0.9043825
vt 0.04421397 0.9043825
vt 0.04421397 0.9043825
vt 0.04421397 0.9043825
vt 0.04421397 0.9043825
vt 0.04421397 0.9043825
vt 0.04421397 0.9043825
vt 0.04421397 0.9043825
vt 0.04421397 0.9043825
vt 0.04421397 0.9043825
vt 0.04421397 0.9043825
vt 0.04421397 0.9043825
vt 0.04421397 0.9043825
vt 0.04421397 0.9043825
vt 0.04421397 0.9043825
vt 0.04421397 0.9043825
vt 0.04421397 0.9043825
vt 0.04421397 0.9043825
vt 0.04421397 0.9043825
vt 0.04421397 0.9043825
vt 0.04421397 0.9043825
vt 0.04421397 0.9043825
vt 0.04421397 0.9043825
vt 0.04421397 0.9043825
vt 0.04421397 0.9043825
vt 0.04421397 0.9043825
vt 0.04421397 0.9043825
vt 0.04421397 0.9043825
vt 0.04421397 0.9043825
vt 0.7522944 0.6352757
vt 0.7522944 0.6352757
vt 0.7522944 0.6352757
vt 0.7522944 0.6352757
vt 0.7522944 0.6352757
vt 0.7522944 0.6352757
vt 0.7522944 0.6352757
vt 0.7522944 0.6352757
vt 0.7522944 0.6352757
vt 0.7522944 0.6352757
vt 0.7522944 0.6352757
vt 0.7522944 0.6352757
vt 0.7522944 0.6352757
vt 0.7522944 0.6352757
vt 0.7522944 0.6352757
vt 0.7522944 0.6352757
vt 0.7341666 0.6395971
vt 0.7341666 0.6395971
vt 0.7341666 0.6395971
vt 0.7341666 0.6395971
vt 0.6906943 0.562596
vt 0.6906943 0.562596
vt 0.6906943 0.562596
vt 0.6906944 0.562596
vt 0.6906943 0.562596
vt 0.6906943 0.562596
vt 0.6906943 0.562596
vt 0.6906943 0.562596
vt 0.5196686 0.9473687
vt 0.5196686 0.9473688
vt 0.5196686 0.9473687
vt 0.5196686 0.9473688
vt 0.5196687 0.9473688
vt 0.5196686 0.9473688
vt 0.5196686 0.9473688
vt 0.5196686 0.9473688
vt 0.4583855 0.9527761
vt 0.4583855 0.9527762
vt 0.4583855 0.9527761
vt 0.4583855 0.9527762
vt 0.4583855 0.9527762
vt 0.4583855 0.9527762
vt 0.4583855 0.9527762
vt 0.4583855 0.9527762
vt 0.8730468 0.9419829
vt 0.8730468 0.9419829
vt 0.8730468 0.9419829
vt 0.8730468 0.9419829
vt 0.8730468 0.9419829
vt 0.8730468 0.9419829
vt 0.8730468 0.9419829
vt 0.8730468 0.9419829
vt 0.8730468 0.9419829
vt 0.8730468 0.9419829
vt 0.8730468 0.9419829
vt 0.8730468 0.9419829
vt 0.8730468 0.9419829
vt 0.8730468 0.9419829
vt 0.8730468 0.9419829
vt 0.8730468 0.9419829
vt 0.09015548 0.8818885
vt 0.09015548 0.8674141
vt 0.09015548 0.8818885
vt 0.09015548 0.8818885
vt 0.09015548 0.8818885
vt 0.09015548 0.8891256
vt 0.09015548 0.8891256
vt 0.09015548 0.8891256
vt 0.09015548 0.8818885
vt 0.09015548 0.8891256
vt 0.09015548 0.8963629
vt 0.09015548 0.8963629
vt 0.09015548 0.8963629
vt 0.09015548 0.8891256
vt 0.09015548 0.8818885
vt 0.09015548 0.8963629
vt 0.09015548 0.8891256
vt 0.09015548 0.8963629
vt 0.09015548 0.8818885
vt 0.09015548 0.9036001
vt 0.09015548 0.9036001
vt 0.09015548 0.9036001
vt 0.09015548 0.9036001
vt 0.09015548 0.8963629
vt 0.09015548 0.9036001
vt 0.09015548 0.8891256
vt 0.09015548 0.8818885
vt 0.09015548 0.9108371
vt 0.09015548 0.9108371
vt 0.09015548 0.9108371
vt 0.09015548 0.9108371
vt 0.09015548 0.8963629
vt 0.09015548 0.8891256
vt 0.09015548 0.8818885
vt 0.09015548 0.9036001
vt 0.09015548 0.8818885
vt 0.09015548 0.8891256
vt 0.09015548 0.8891256
vt 0.09015548 0.8963629
vt 0.09015548 0.8963629
vt 0.09015548 0.8963629
vt 0.09015548 0.9036001
vt 0.09015548 0.9036001
vt 0.09015548 0.9036001
vt 0.09015548 0.9036001
vt 0.09015548 0.9108371
vt 0.09015548 0.9108371
vt 0.09015548 0.9108371
vt 0.09015548 0.9108371
vt 0.09015548 0.9108371
vt 0.09015548 0.9108371
vt 0.09015548 0.9180745
vt 0.09015548 0.9180745
vt 0.09015548 0.9180746
vt 0.09015548 0.9180745
vt 0.09015548 0.9180745
vt 0.09015548 0.9180745
vt 0.09015548 0.9180745
vt 0.09015548 0.9180745
vt 0.09015548 0.9180745
vt 0.09015548 0.9180745
vt 0.09015548 0.9180745
vn -0.9074228 1.383395E-07 0.4202186
vn -0.907423 1.383395E-07 0.4202186
vn -0.9074231 1.383393E-07 0.4202183
vn -0.907423 0 0.4202186
vn -0.9074231 0 0.4202184
vn -0.9074231 0 0.4202181
vn -0.9074233 1.383392E-07 0.420218
vn -0.9074233 1.383392E-07 0.420218
vn -0.907423 0 0.4202186
vn -0.9074231 0 0.4202183
vn -0.9074231 -1.976019E-07 0.4202184
vn -0.9074231 -2.766792E-07 0.4202183
vn -0.9074231 -2.766792E-07 0.4202183
vn -0.9074231 0 0.4202181
vn -0.9074233 2.766789E-07 0.420218
vn -0.9074233 2.766789E-07 0.420218
vn -0.9074231 1.976017E-07 0.4202181
vn -0.9074231 0 0.4202181
vn 0.7452648 -0.0780849 0.6621805
vn 0.7049804 -0.07749987 0.7049797
vn 0.7049805 -0.07749987 0.7049797
vn 0.8039148 0.009944189 0.5946613
vn 0.7049804 -0.07749989 0.7049797
vn 0.706838 -0.02757677 0.7068378
vn 0.700469 0.1366921 0.7004701
vn 0.8899453 0.04879792 0.453449
vn 0.8883268 -0.07749952 0.4526249
vn 0.8767462 0.1781965 0.4467236
vn 0.8266056 0.1572577 0.540364
vn 0.6709966 0.3154786 0.6709969
vn 0.845976 0.3138859 0.4310458
vn 0.8047639 0.309083 0.506777
vn 0.6231449 0.4726328 0.6231443
vn 0.7973372 0.4463224 0.4062632
vn 0.7468209 0.4527851 0.4870772
vn 0.563437 0.6042163 0.5634371
vn 0.7318016 0.5704679 0.3728707
vn 0.6655058 0.5841476 0.4646218
vn 0.4950567 0.7140291 0.4950567
vn 0.6498671 0.6841276 0.3311229
vn 0.5702824 0.7000667 0.4297495
vn 0.4316218 0.7920893 0.4316214
vn 0.5586905 0.7789927 0.2846671
vn 0.4730169 0.7935 0.3829004
vn 0.3727931 0.8497358 0.3727926
vn 0.4697459 0.8497359 0.2393484
vn 0.3727932 0.8497358 0.3727926
vn 0.3832383 0.8508037 0.3595294
vn -0.2362608 -0.9425294 -0.2362607
vn -0.334123 0.9425295 0
vn -0.334123 -0.9425295 0
vn -0.2362608 0.9425294 -0.2362608
vn 0 -0.9425295 -0.334123
vn 0 0.9425294 -0.3341231
vn 0.2362607 -0.9425294 -0.2362607
vn 0.2362607 0.9425294 -0.2362608
vn 0.3341232 -0.9425294 0
vn 0.3341232 0.9425294 0
vn 0.2362607 -0.9425294 0.2362608
vn 0.2362607 0.9425294 0.2362607
vn 0 -0.9425294 0.3341231
vn 0 0.9425295 0.334123
vn -0.2362608 -0.9425294 0.2362608
vn -0.2362608 0.9425294 0.2362607
vn -0.2362608 0.9425294 0.2362607
vn -0.2362608 -0.9425294 0.2362608
vn -0.334123 -0.9425295 0
vn -0.334123 0.9425295 0
vn 0.2362607 -0.9425294 -0.2362607
vn 0 -0.9425295 -0.334123
vn -0.2362608 -0.9425294 -0.2362607
vn 0.3341232 -0.9425294 0
vn -0.334123 -0.9425295 0
vn -0.2362608 -0.9425294 0.2362608
vn 0.2362607 -0.9425294 0.2362608
vn 0 -0.9425294 0.3341231
vn -0.2362608 0.9425294 -0.2362608
vn 0 0.9425294 -0.3341231
vn 0.2362607 0.9425294 -0.2362608
vn -0.334123 0.9425295 0
vn 0.3341232 0.9425294 0
vn 0.2362607 0.9425294 0.2362607
vn -0.2362608 0.9425294 0.2362607
vn 0 0.9425295 0.334123
vn -0.2021515 0.9582638 -0.2021514
vn 0 0.9582638 -0.2858852
vn 0.2021513 0.9582638 -0.2021513
vn -0.2858851 0.9582639 0
vn 0.2858853 0.9582638 0
vn -0.2021515 0.9582638 0.2021514
vn 0.2021514 0.9582638 0.2021514
vn 0 0.9582638 0.2858852
vn 0.6985426 -0.1551662 -0.6985427
vn 0.2021513 0.9582638 -0.2021513
vn 0 0.9582638 -0.2858852
vn 0 -0.1551662 -0.9878884
vn 0.9878883 -0.1551663 0
vn -0.2021515 0.9582638 -0.2021514
vn 0.2858853 0.9582638 0
vn -0.6985426 -0.1551661 -0.6985427
vn 0.6985425 -0.1551662 0.6985425
vn -0.2858851 0.9582639 0
vn 0.2021514 0.9582638 0.2021514
vn -0.9878884 -0.1551661 0
vn -1.961519E-07 -0.1551662 0.9878884
vn -0.2021515 0.9582638 0.2021514
vn 0 0.9582638 0.2858852
vn -0.6985425 -0.1551662 0.6985425
vn 0.2029556 -0.7540837 -0.6246334
vn 0 -1 0
vn 0.5313448 -0.7540838 -0.3860446
vn -0.2029558 -0.7540836 -0.6246333
vn 0.6567783 -0.7540838 0
vn 0.2823399 -0.406454 -0.8689531
vn -0.28234 -0.4064539 -0.868953
vn 0.7391756 -0.4064539 -0.5370424
vn -0.531345 -0.7540837 -0.3860445
vn -0.7391756 -0.4064539 -0.5370424
vn -0.3090172 0 -0.9510565
vn 0.309017 0 -0.9510565
vn -0.8090172 0 -0.5877849
vn 0.9136714 -0.4064538 0
vn 0.5313448 -0.7540838 0.3860447
vn 0.809017 0 -0.5877852
vn -0.9136713 -0.4064539 0
vn -1 0 0
vn -0.6567782 -0.7540838 1.116572E-07
vn -0.289074 0.3534256 -0.8896779
vn -0.7568053 0.3534255 -0.549851
vn 0.2890738 0.3534256 -0.8896779
vn -0.9354627 0.3534255 0
vn 1 0 0
vn 0.7568052 0.3534255 -0.5498511
vn 0.7391756 -0.4064538 0.5370426
vn 0.2029558 -0.7540836 0.6246333
vn -0.2323978 0.6591008 -0.7152465
vn -0.6084251 0.6591007 -0.4420465
vn -0.7520546 0.6591008 0
vn 0.2323976 0.6591008 -0.7152466
vn 0.8090169 0 0.5877853
vn 0.2823401 -0.4064539 0.868953
vn -0.2029556 -0.7540837 0.6246333
vn 0.9354628 0.3534254 0
vn -0.5313447 -0.7540838 0.3860446
vn -0.2823398 -0.4064539 0.8689531
vn -0.7391755 -0.4064539 0.5370425
vn 0.3090172 0 0.9510565
vn -0.8090171 0 0.5877852
vn -0.3090168 0 0.9510565
vn 0.7568052 0.3534253 0.5498512
vn -0.7568052 0.3534255 0.5498512
vn -0.2890737 0.3534255 0.8896779
vn 0.2890741 0.3534254 0.8896779
vn -0.6084249 0.6591008 0.4420467
vn -0.2323977 0.6591008 0.7152466
vn 0.2323978 0.6591007 0.7152466
vn 0.608425 0.6591007 0.4420467
vn 0.7520547 0.6591008 0
vn 0.6084249 0.6591008 -0.4420467
vn -0.4078507 0.8636271 0.2963209
vn -0.1557851 0.8636271 0.4794571
vn 0 1 0
vn -0.5041313 0.8636271 0
vn 0.1557852 0.8636271 0.4794571
vn 0.4078507 0.8636271 0.2963209
vn -0.4078507 0.8636271 -0.2963208
vn 0.5041312 0.863627 0
vn -0.1557851 0.8636272 -0.479457
vn 0.4078507 0.8636271 -0.2963209
vn 0.1557851 0.8636271 -0.4794572
g Dark_Flask_Purple_0
f 3/3/3 2/2/2 1/1/1
f 3/3/3 1/1/1 4/4/4
f 4/4/4 5/5/5 3/3/3
f 3/3/3 5/5/5 6/6/6
f 6/6/6 7/7/7 3/3/3
f 7/7/7 8/8/8 3/3/3
f 11/11/11 10/10/10 9/9/9
f 10/10/10 11/11/11 12/12/12
f 10/10/10 12/12/12 13/13/13
f 13/13/13 14/14/14 10/10/10
f 10/10/10 14/14/14 15/15/15
f 15/15/15 16/16/16 10/10/10
f 16/16/16 17/17/17 10/10/10
f 10/10/10 17/17/17 18/18/18
f 21/21/21 20/20/20 19/19/19
f 19/19/19 22/22/22 21/21/21
f 22/22/22 23/23/23 21/21/21
f 22/22/22 24/24/24 23/23/23
f 24/24/24 22/22/22 25/25/25
f 26/26/26 22/22/22 19/19/19
f 27/27/27 26/26/26 19/19/19
f 26/26/26 28/28/28 22/22/22
f 22/22/22 29/29/29 25/25/25
f 28/28/28 29/29/29 22/22/22
f 25/25/25 29/29/29 30/30/30
f 28/28/28 31/31/31 29/29/29
f 29/29/29 32/32/32 30/30/30
f 31/31/31 32/32/32 29/29/29
f 30/30/30 32/32/32 33/33/33
f 31/31/31 34/34/34 32/32/32
f 32/32/32 35/35/35 33/33/33
f 34/34/34 35/35/35 32/32/32
f 33/33/33 35/35/35 36/36/36
f 34/34/34 37/37/37 35/35/35
f 35/35/35 38/38/38 36/36/36
f 37/37/37 38/38/38 35/35/35
f 36/36/36 38/38/38 39/39/39
f 37/37/37 40/40/40 38/38/38
f 38/38/38 41/41/41 39/39/39
f 40/40/40 41/41/41 38/38/38
f 39/39/39 41/41/41 42/42/42
f 40/40/40 43/43/43 41/41/41
f 41/41/41 44/44/44 42/42/42
f 43/43/43 44/44/44 41/41/41
f 45/45/45 42/42/42 44/44/44
f 43/43/43 46/46/46 44/44/44
f 47/47/47 45/45/45 44/44/44
f 46/46/46 48/48/48 44/44/44
f 44/44/44 48/48/48 47/47/47
f 51/51/51 50/50/50 49/49/49
f 50/50/50 52/52/52 49/49/49
f 49/49/49 52/52/52 53/53/53
f 52/52/52 54/54/54 53/53/53
f 53/53/53 54/54/54 55/55/55
f 54/54/54 56/56/56 55/55/55
f 55/55/55 56/56/56 57/57/57
f 56/56/56 58/58/58 57/57/57
f 57/57/57 58/58/58 59/59/59
f 58/58/58 60/60/60 59/59/59
f 59/59/59 60/60/60 61/61/61
f 60/60/60 62/62/62 61/61/61
f 61/61/61 62/62/62 63/63/63
f 62/62/62 64/64/64 63/63/63
f 67/67/67 66/66/66 65/65/65
f 68/68/68 67/67/67 65/65/65
f 71/71/71 70/70/70 69/69/69
f 69/69/69 72/72/72 71/71/71
f 72/72/72 73/73/73 71/71/71
f 72/72/72 74/74/74 73/73/73
f 72/72/72 75/75/75 74/74/74
f 75/75/75 76/76/76 74/74/74
f 79/79/79 78/78/78 77/77/77
f 77/77/77 80/80/80 79/79/79
f 80/80/80 81/81/81 79/79/79
f 80/80/80 82/82/82 81/81/81
f 80/80/80 83/83/83 82/82/82
f 83/83/83 84/84/84 82/82/82
f 87/87/87 86/86/86 85/85/85
f 85/85/85 88/88/88 87/87/87
f 88/88/88 89/89/89 87/87/87
f 88/88/88 90/90/90 89/89/89
f 90/90/90 91/91/91 89/89/89
f 90/90/90 92/92/92 91/91/91
f 95/95/95 94/94/94 93/93/93
f 96/96/96 95/95/95 93/93/93
f 93/93/93 94/94/94 97/97/97
f 98/98/98 95/95/95 96/96/96
f 94/94/94 99/99/99 97/97/97
f 100/100/100 98/98/98 96/96/96
f 97/97/97 99/99/99 101/101/101
f 102/102/102 98/98/98 100/100/100
f 99/99/99 103/103/103 101/101/101
f 104/104/104 102/102/102 100/100/100
f 101/101/101 103/103/103 105/105/105
f 106/106/106 102/102/102 104/104/104
f 103/103/103 107/107/107 105/105/105
f 108/108/108 106/106/106 104/104/104
f 105/105/105 107/107/107 108/108/108
f 107/107/107 106/106/106 108/108/108
f 111/111/111 110/110/110 109/109/109
f 109/109/109 110/110/110 112/112/112
f 113/113/113 110/110/110 111/111/111
f 109/109/109 114/114/114 111/111/111
f 112/112/112 115/115/115 109/109/109
f 115/115/115 114/114/114 109/109/109
f 111/111/111 116/116/116 113/113/113
f 114/114/114 116/116/116 111/111/111
f 112/112/112 110/110/110 117/117/117
f 118/118/118 115/115/115 112/112/112
f 117/117/117 118/118/118 112/112/112
f 115/115/115 119/119/119 114/114/114
f 114/114/114 120/120/120 116/116/116
f 119/119/119 120/120/120 114/114/114
f 118/118/118 121/121/121 115/115/115
f 121/121/121 119/119/119 115/115/115
f 116/116/116 122/122/122 113/113/113
f 123/123/123 110/110/110 113/113/113
f 113/113/113 122/122/122 123/123/123
f 120/120/120 124/124/124 116/116/116
f 116/116/116 124/124/124 122/122/122
f 125/125/125 118/118/118 117/117/117
f 126/126/126 121/121/121 118/118/118
f 125/125/125 126/126/126 118/118/118
f 117/117/117 110/110/110 127/127/127
f 127/127/127 125/125/125 117/117/117
f 119/119/119 128/128/128 120/120/120
f 121/121/121 129/129/129 119/119/119
f 129/129/129 128/128/128 119/119/119
f 120/120/120 130/130/130 124/124/124
f 128/128/128 130/130/130 120/120/120
f 126/126/126 131/131/131 121/121/121
f 131/131/131 129/129/129 121/121/121
f 124/124/124 132/132/132 122/122/122
f 130/130/130 133/133/133 124/124/124
f 124/124/124 133/133/133 132/132/132
f 122/122/122 132/132/132 134/134/134
f 122/122/122 134/134/134 123/123/123
f 123/123/123 134/134/134 135/135/135
f 135/135/135 110/110/110 123/123/123
f 128/128/128 136/136/136 130/130/130
f 129/129/129 137/137/137 128/128/128
f 137/137/137 136/136/136 128/128/128
f 131/131/131 138/138/138 129/129/129
f 138/138/138 137/137/137 129/129/129
f 130/130/130 139/139/139 133/133/133
f 136/136/136 139/139/139 130/130/130
f 132/132/132 140/140/140 134/134/134
f 134/134/134 141/141/141 135/135/135
f 134/134/134 140/140/140 141/141/141
f 142/142/142 110/110/110 135/135/135
f 135/135/135 141/141/141 142/142/142
f 133/133/133 143/143/143 132/132/132
f 132/132/132 143/143/143 140/140/140
f 144/144/144 110/110/110 142/142/142
f 127/127/127 110/110/110 144/144/144
f 141/141/141 145/145/145 142/142/142
f 142/142/142 145/145/145 144/144/144
f 144/144/144 146/146/146 127/127/127
f 145/145/145 146/146/146 144/144/144
f 146/146/146 125/125/125 127/127/127
f 140/140/140 147/147/147 141/141/141
f 141/141/141 147/147/147 145/145/145
f 146/146/146 148/148/148 125/125/125
f 148/148/148 126/126/126 125/125/125
f 145/145/145 149/149/149 146/146/146
f 147/147/147 149/149/149 145/145/145
f 149/149/149 148/148/148 146/146/146
f 140/140/140 150/150/150 147/147/147
f 143/143/143 150/150/150 140/140/140
f 148/148/148 151/151/151 126/126/126
f 151/151/151 131/131/131 126/126/126
f 149/149/149 152/152/152 148/148/148
f 152/152/152 151/151/151 148/148/148
f 147/147/147 153/153/153 149/149/149
f 150/150/150 153/153/153 147/147/147
f 153/153/153 152/152/152 149/149/149
f 151/151/151 154/154/154 131/131/131
f 154/154/154 138/138/138 131/131/131
f 152/152/152 155/155/155 151/151/151
f 155/155/155 154/154/154 151/151/151
f 153/153/153 156/156/156 152/152/152
f 156/156/156 155/155/155 152/152/152
f 150/150/150 157/157/157 153/153/153
f 157/157/157 156/156/156 153/153/153
f 143/143/143 158/158/158 150/150/150
f 158/158/158 157/157/157 150/150/150
f 159/159/159 158/158/158 143/143/143
f 133/133/133 159/159/159 143/143/143
f 139/139/139 159/159/159 133/133/133
f 154/154/154 160/160/160 138/138/138
f 155/155/155 161/161/161 154/154/154
f 161/161/161 160/160/160 154/154/154
f 161/161/161 162/162/162 160/160/160
f 160/160/160 162/162/162 163/163/163
f 160/160/160 163/163/163 138/138/138
f 164/164/164 162/162/162 161/161/161
f 164/164/164 161/161/161 155/155/155
f 156/156/156 164/164/164 155/155/155
f 138/138/138 163/163/163 137/137/137
f 165/165/165 164/164/164 156/156/156
f 165/165/165 162/162/162 164/164/164
f 157/157/157 165/165/165 156/156/156
f 163/163/163 166/166/166 137/137/137
f 163/163/163 162/162/162 166/166/166
f 137/137/137 166/166/166 136/136/136
f 167/167/167 165/165/165 157/157/157
f 167/167/167 162/162/162 165/165/165
f 158/158/158 167/167/167 157/157/157
f 166/166/166 168/168/168 136/136/136
f 166/166/166 162/162/162 168/168/168
f 136/136/136 168/168/168 139/139/139
f 169/169/169 167/167/167 158/158/158
f 169/169/169 162/162/162 167/167/167
f 159/159/159 169/169/169 158/158/158
f 139/139/139 170/170/170 159/159/159
f 168/168/168 170/170/170 139/139/139
f 168/168/168 162/162/162 170/170/170
f 170/170/170 169/169/169 159/159/159
f 170/170/170 162/162/162 169/169/169
