g DarkGlovesR
v -8.141578 8.040657 1.362526
v -9.322576 8.002136 2.111459
v -9.315822 8.604511 2.113433
v -8.117418 9.620851 1.633666
v -7.131716 9.516891 1.416353
v -7.348989 8.328629 1.247851
v -7.018628 10.70515 1.043016
v -9.803984 8.644851 1.682933
v -9.322576 8.002136 2.111459
v -8.141578 8.040657 1.362526
v -9.564262 9.10197 1.067414
v -9.532705 10.82624 1.235529
v -9.529447 10.80397 -0.311843
v -7.1311 11.1885 -0.1787916
v -11.41455 10.51263 -0.347829
v -10.84516 10.5352 1.193849
v -9.526189 10.78171 -1.859215
v -10.66727 10.49004 -1.889507
v -9.540136 9.10197 -1.88837
v -7.347758 10.87447 -1.400599
v -10.66228 9.121743 -1.892297
v -8.663185 9.81097 -1.693262
v -7.425963 9.599288 -1.675575
v -7.504169 8.324107 -1.507932
v -8.181725 8.096828 -1.473582
v -9.552199 9.10197 -0.4104784
v -8.161652 8.068743 -0.05552772
v -11.39558 9.113453 -0.5381821
v -9.564262 9.10197 1.067414
v -8.141578 8.040657 1.362526
v -11.41455 10.51263 -0.347829
v -10.66727 10.49004 -1.889507
v -10.84516 10.5352 1.193849
v -10.81421 9.105164 0.8159329
v -9.532705 10.82624 1.235529
v -7.426579 8.042125 -0.1300407
v -7.504169 8.324107 -1.507932
v -8.181725 8.096828 -1.473582
v -8.161652 8.068743 -0.05552772
v -7.348989 8.328629 1.247851
v -8.141578 8.040657 1.362526
v -6.886158 10.86211 -1.776699
v -6.344932 9.701713 -2.010296
v -6.254313 10.86211 -1.776699
v -6.151522 9.412224 0.05568619
v -6.976776 9.643264 -2.010296
v -7.347758 10.87447 -1.400599
v -7.425963 9.599288 -1.675575
v -7.504169 8.324107 -1.507932
v -7.067395 8.149404 -1.801274
v -6.43555 8.266299 -1.801274
v -6.119474 10.92806 1.500483
v -6.134801 11.56879 -0.1381082
v -6.751318 10.92806 1.500483
v -6.254313 10.86211 -1.776699
v -6.886158 10.86211 -1.776699
v -6.766645 11.56879 -0.1381082
v -7.018628 10.70515 1.043016
v -7.347758 10.87447 -1.400599
v -7.1311 11.1885 -0.1787916
v -6.35391 7.762436 -0.03577789
v -6.272269 8.400301 1.729718
v -6.904114 8.187462 1.729718
v -6.43555 8.266299 -1.801274
v -7.067395 8.149404 -1.801274
v -6.985754 7.597568 -0.03577789
v -7.348989 8.328629 1.247851
v -7.504169 8.324107 -1.507932
v -7.426579 8.042125 -0.1300407
v -6.143778 9.801689 1.88602
v -6.119474 10.92806 1.500483
v -6.272269 8.400301 1.729718
v -6.751318 10.92806 1.500483
v -6.904114 8.187462 1.729718
v -6.775622 9.69527 1.88602
v -7.018628 10.70515 1.043016
v -7.348989 8.328629 1.247851
v -7.131716 9.516891 1.416353
vt 0.7882055 0.05360854
vt 0.8277915 0.0587419
vt 0.8324288 0.08497658
vt 0.7806683 0.12491
vt 0.7174283 0.1516122
vt 0.7089264 0.096204
vt 0.7259303 0.2070203
vt 0.8480467 0.1202136
vt 0.8670114 0.06976907
vt 0.923261 0.09910601
vt 0.8508248 0.1530348
vt 0.8489972 0.2085225
vt 0.8445345 0.2752829
vt 0.7294489 0.2658783
vt 0.9008688 0.2852542
vt 0.9114462 0.2166424
vt 0.8400718 0.3420433
vt 0.8902912 0.3538662
vt 0.8339003 0.4142202
vt 0.7329676 0.3247363
vt 0.8873432 0.3960268
vt 0.7935272 0.3784267
vt 0.7218949 0.3786011
vt 0.7108222 0.432466
vt 0.7657759 0.4518955
vt 0.8538867 0.4791168
vt 0.7828091 0.515525
vt 0.9051428 0.4521329
vt 0.8738731 0.5440134
vt 0.7998425 0.5791545
vt 0.9483283 0.4541866
vt 0.9296869 0.3837883
vt 0.9669695 0.5245852
vt 0.9369069 0.5117303
vt 0.9131 0.5671638
vt 0.9281207 0.6335095
vt 0.9252079 0.6227435
vt 0.9401333 0.6140401
vt 0.9430122 0.6251663
vt 0.9310334 0.6442754
vt 0.9458913 0.6362925
vt 0.9256991 0.6328972
vt 0.9471062 0.6221936
vt 0.9471062 0.6328972
vt 0.9471062 0.6221936
vt 0.9256991 0.6221936
vt 0.9256991 0.6328972
vt 0.9256991 0.6221936
vt 0.9256991 0.6114901
vt 0.9256991 0.6114901
vt 0.9471062 0.6114901
vt 0.9471062 0.6328972
vt 0.9471062 0.6221936
vt 0.9256991 0.6328972
vt 0.9471062 0.6114901
vt 0.9256991 0.6114901
vt 0.9256991 0.6221936
vt 0.9256991 0.6328972
vt 0.9256991 0.6114901
vt 0.9256991 0.6221936
vt 0.9471062 0.6221936
vt 0.9471062 0.6114901
vt 0.9256991 0.6114901
vt 0.9471062 0.6328972
vt 0.9256991 0.6328972
vt 0.9256991 0.6221936
vt 0.9256991 0.6114901
vt 0.9256991 0.6328972
vt 0.9256991 0.6221936
vt 0.9471062 0.6221936
vt 0.9471062 0.6114901
vt 0.9471062 0.6328972
vt 0.9256991 0.6114901
vt 0.9256991 0.6328972
vt 0.9256991 0.6221936
vt 0.9256991 0.6114901
vt 0.9256991 0.6328972
vt 0.9256991 0.6221936
vn -0.1314783 -0.8938673 0.4286196
vn 0.0908466 -0.9426622 0.321146
vn 0.1175221 0.2951559 0.9481938
vn 0.01311433 0.1506266 0.9885038
vn -0.3444254 0.0432885 0.9378151
vn -0.2721371 -0.6513985 0.7082523
vn -0.3187592 0.7921404 0.5204865
vn -0.9349888 -0.1448103 -0.3237685
vn 0.0908466 -0.9426622 0.321146
vn -0.1314783 -0.8938673 0.4286196
vn -0.4860294 -0.6099823 0.6258571
vn -0.1382331 0.7588352 0.6364439
vn -0.1189299 0.9928734 0.007623588
vn -0.1941106 0.9802189 0.03862517
vn -0.8090345 0.5874184 -0.02007303
vn -0.5378218 0.5364377 0.650371
vn -0.04437397 0.8052766 -0.5912364
vn -0.5017844 0.5941474 -0.6286504
vn -0.1351932 -0.6390104 -0.7572243
vn -0.1882869 0.8868626 -0.4219275
vn -0.4586267 -0.620235 -0.6363726
vn 0.1486317 -0.02549281 -0.988564
vn -0.1452023 -0.002835048 -0.9893979
vn -0.1648894 -0.4801663 -0.8615404
vn -0.2463722 -0.7147791 -0.6545163
vn -0.3414856 -0.939872 -0.00530486
vn -0.3995701 -0.9166813 -0.006251562
vn -0.7880973 -0.6116319 -0.0693481
vn -0.4860294 -0.6099823 0.6258571
vn -0.1314783 -0.8938673 0.4286196
vn -0.8090345 0.5874184 -0.02007303
vn -0.5017844 0.5941474 -0.6286504
vn -0.5378218 0.5364377 0.650371
vn -0.4852763 -0.6747063 0.5561279
vn -0.1382331 0.7588352 0.6364439
vn -0.2423678 -0.9701821 -0.002098941
vn -0.1648894 -0.4801663 -0.8615404
vn -0.2463722 -0.7147791 -0.6545163
vn -0.3995701 -0.9166813 -0.006251562
vn -0.2721371 -0.6513985 0.7082523
vn -0.1314783 -0.8938673 0.4286196
vn -0.263839 0.6379765 -0.7234466
vn 0.781558 -0.03854926 -0.6226404
vn 0.7662335 0.417127 -0.488765
vn 0.9969022 -0.06616317 -0.04252504
vn -0.2843479 0.02957251 -0.9582649
vn -0.1882869 0.8868626 -0.4219275
vn -0.1452023 -0.002835048 -0.9893979
vn -0.1648894 -0.4801663 -0.8615404
vn -0.2020857 -0.6972843 -0.687718
vn 0.7049077 -0.4781575 -0.5238994
vn 0.7718151 0.4720854 0.4259539
vn 0.7992518 0.5996542 -0.04014161
vn -0.3735328 0.670479 0.6410392
vn 0.7662335 0.417127 -0.488765
vn -0.263839 0.6379765 -0.7234466
vn -0.2497926 0.9682726 -0.00721104
vn -0.3187592 0.7921404 0.5204865
vn -0.1882869 0.8868626 -0.4219275
vn -0.1941106 0.9802189 0.03862517
vn 0.7474428 -0.6641948 -0.01321274
vn 0.7186679 -0.4616405 0.5200044
vn -0.2260454 -0.6775082 0.6999186
vn 0.7049077 -0.4781575 -0.5238994
vn -0.2020857 -0.6972843 -0.687718
vn -0.124288 -0.9918161 0.02921294
vn -0.2721371 -0.6513985 0.7082523
vn -0.1648894 -0.4801663 -0.8615404
vn -0.2423678 -0.9701821 -0.002098941
vn 0.7838011 0.02857371 0.6203542
vn 0.7718151 0.4720854 0.4259539
vn 0.7186679 -0.4616405 0.5200044
vn -0.3735328 0.670479 0.6410392
vn -0.2260454 -0.6775082 0.6999186
vn -0.4096189 0.09908722 0.9068595
vn -0.3187592 0.7921404 0.5204865
vn -0.2721371 -0.6513985 0.7082523
vn -0.3444254 0.0432885 0.9378151
g DarkGlovesR_0
f 3/3/3 2/2/2 1/1/1
f 4/4/4 3/3/3 1/1/1
f 4/4/4 1/1/1 5/5/5
f 1/1/1 6/6/6 5/5/5
f 5/5/5 7/7/7 4/4/4
f 8/8/8 3/3/3 4/4/4
f 8/8/8 9/9/9 3/3/3
f 9/9/9 8/8/8 10/10/10
f 8/8/8 11/11/11 10/10/10
f 11/11/11 8/8/8 4/4/4
f 12/12/12 11/11/11 4/4/4
f 7/7/7 12/12/12 4/4/4
f 12/12/12 7/7/7 13/13/13
f 7/7/7 14/14/14 13/13/13
f 12/12/12 13/13/13 15/15/15
f 16/16/16 12/12/12 15/15/15
f 13/13/13 14/14/14 17/17/17
f 15/15/15 13/13/13 17/17/17
f 18/18/18 15/15/15 17/17/17
f 18/18/18 17/17/17 19/19/19
f 14/14/14 20/20/20 17/17/17
f 17/17/17 20/20/20 19/19/19
f 21/21/21 18/18/18 19/19/19
f 20/20/20 22/22/22 19/19/19
f 20/20/20 23/23/23 22/22/22
f 22/22/22 23/23/23 24/24/24
f 24/24/24 25/25/25 22/22/22
f 25/25/25 19/19/19 22/22/22
f 26/26/26 19/19/19 25/25/25
f 27/27/27 26/26/26 25/25/25
f 28/28/28 21/21/21 19/19/19
f 26/26/26 28/28/28 19/19/19
f 29/29/29 26/26/26 27/27/27
f 28/28/28 26/26/26 29/29/29
f 30/30/30 29/29/29 27/27/27
f 28/28/28 31/31/31 21/21/21
f 31/31/31 32/32/32 21/21/21
f 33/33/33 31/31/31 28/28/28
f 34/34/34 28/28/28 29/29/29
f 34/34/34 33/33/33 28/28/28
f 34/34/34 29/29/29 35/35/35
f 33/33/33 34/34/34 35/35/35
f 38/38/38 37/37/37 36/36/36
f 39/39/39 38/38/38 36/36/36
f 39/39/39 36/36/36 40/40/40
f 41/41/41 39/39/39 40/40/40
f 44/44/44 43/43/43 42/42/42
f 43/43/43 44/44/44 45/45/45
f 43/43/43 46/46/46 42/42/42
f 42/42/42 46/46/46 47/47/47
f 46/46/46 48/48/48 47/47/47
f 49/49/49 48/48/48 46/46/46
f 50/50/50 49/49/49 46/46/46
f 50/50/50 46/46/46 43/43/43
f 51/51/51 50/50/50 43/43/43
f 51/51/51 43/43/43 45/45/45
f 53/53/53 52/52/52 45/45/45
f 52/52/52 53/53/53 54/54/54
f 55/55/55 53/53/53 45/45/45
f 55/55/55 56/56/56 53/53/53
f 53/53/53 57/57/57 54/54/54
f 56/56/56 57/57/57 53/53/53
f 54/54/54 57/57/57 58/58/58
f 56/56/56 59/59/59 57/57/57
f 57/57/57 60/60/60 58/58/58
f 59/59/59 60/60/60 57/57/57
f 62/62/62 61/61/61 45/45/45
f 62/62/62 63/63/63 61/61/61
f 61/61/61 64/64/64 45/45/45
f 64/64/64 61/61/61 65/65/65
f 63/63/63 66/66/66 61/61/61
f 61/61/61 66/66/66 65/65/65
f 63/63/63 67/67/67 66/66/66
f 65/65/65 66/66/66 68/68/68
f 67/67/67 69/69/69 66/66/66
f 66/66/66 69/69/69 68/68/68
f 71/71/71 70/70/70 45/45/45
f 70/70/70 72/72/72 45/45/45
f 71/71/71 73/73/73 70/70/70
f 72/72/72 70/70/70 74/74/74
f 73/73/73 75/75/75 70/70/70
f 70/70/70 75/75/75 74/74/74
f 73/73/73 76/76/76 75/75/75
f 74/74/74 75/75/75 77/77/77
f 76/76/76 78/78/78 75/75/75
f 75/75/75 78/78/78 77/77/77
