g DarkGlovesL
v 8.141578 8.040657 1.362526
v 9.315822 8.604511 2.113433
v 9.322576 8.002136 2.111459
v 8.117418 9.620851 1.633666
v 7.131716 9.516891 1.416353
v 7.348989 8.328629 1.247851
v 7.018628 10.70515 1.043016
v 9.803984 8.644851 1.682933
v 9.322576 8.002136 2.111459
v 8.141578 8.040657 1.362526
v 9.564262 9.10197 1.067414
v 9.532705 10.82624 1.235529
v 9.529447 10.80397 -0.311843
v 7.1311 11.1885 -0.1787916
v 11.41455 10.51263 -0.347829
v 10.84516 10.5352 1.193849
v 9.526189 10.78171 -1.859215
v 10.66727 10.49004 -1.889507
v 9.540136 9.10197 -1.88837
v 7.347758 10.87447 -1.400599
v 10.66228 9.121743 -1.892297
v 8.663185 9.81097 -1.693262
v 7.425963 9.599288 -1.675575
v 8.181725 8.096828 -1.473582
v 7.504169 8.324107 -1.507932
v 9.552199 9.10197 -0.4104784
v 8.161652 8.068743 -0.05552772
v 11.39558 9.113453 -0.5381821
v 9.564262 9.10197 1.067414
v 8.141578 8.040657 1.362526
v 11.41455 10.51263 -0.347829
v 10.66727 10.49004 -1.889507
v 10.84516 10.5352 1.193849
v 10.81421 9.105164 0.8159329
v 9.532705 10.82624 1.235529
v 7.426579 8.042125 -0.1300407
v 8.181725 8.096828 -1.473582
v 7.504169 8.324107 -1.507932
v 8.161652 8.068743 -0.05552772
v 7.348989 8.328629 1.247851
v 8.141578 8.040657 1.362526
v 6.886158 10.86211 -1.776699
v 6.254313 10.86211 -1.776699
v 6.344932 9.701713 -2.010296
v 6.151522 9.412224 0.05568619
v 6.976776 9.643264 -2.010296
v 7.347758 10.87447 -1.400599
v 7.425963 9.599288 -1.675575
v 7.504169 8.324107 -1.507932
v 7.067395 8.149404 -1.801274
v 6.43555 8.266299 -1.801274
v 6.134801 11.56879 -0.1381082
v 6.119474 10.92806 1.500483
v 6.751318 10.92806 1.500483
v 6.254313 10.86211 -1.776699
v 6.886158 10.86211 -1.776699
v 6.766645 11.56879 -0.1381082
v 7.018628 10.70515 1.043016
v 7.347758 10.87447 -1.400599
v 7.1311 11.1885 -0.1787916
v 6.272269 8.400301 1.729718
v 6.35391 7.762436 -0.03577789
v 6.904114 8.187462 1.729718
v 6.43555 8.266299 -1.801274
v 7.067395 8.149404 -1.801274
v 6.985754 7.597568 -0.03577789
v 7.348989 8.328629 1.247851
v 7.504169 8.324107 -1.507932
v 7.426579 8.042125 -0.1300407
v 6.119474 10.92806 1.500483
v 6.143778 9.801689 1.88602
v 6.272269 8.400301 1.729718
v 6.751318 10.92806 1.500483
v 6.904114 8.187462 1.729718
v 6.775622 9.69527 1.88602
v 7.018628 10.70515 1.043016
v 7.348989 8.328629 1.247851
v 7.131716 9.516891 1.416353
vt 0.7882055 0.05360854
vt 0.8324288 0.08497658
vt 0.8277915 0.0587419
vt 0.7806683 0.12491
vt 0.7174283 0.1516122
vt 0.7089264 0.096204
vt 0.7259303 0.2070203
vt 0.8480467 0.1202136
vt 0.8670114 0.06976907
vt 0.923261 0.09910601
vt 0.8508248 0.1530348
vt 0.8489972 0.2085225
vt 0.8445345 0.2752829
vt 0.7294489 0.2658783
vt 0.9008688 0.2852542
vt 0.9114462 0.2166424
vt 0.8400718 0.3420433
vt 0.8902912 0.3538662
vt 0.8339003 0.4142202
vt 0.7329676 0.3247363
vt 0.8873432 0.3960268
vt 0.7935272 0.3784267
vt 0.7218949 0.3786011
vt 0.7657759 0.4518955
vt 0.7108222 0.432466
vt 0.8538867 0.4791168
vt 0.7828091 0.515525
vt 0.9051428 0.4521329
vt 0.8738731 0.5440134
vt 0.7998425 0.5791545
vt 0.9483283 0.4541866
vt 0.9296869 0.3837883
vt 0.9669695 0.5245852
vt 0.9369069 0.5117303
vt 0.9131 0.5671638
vt 0.9281207 0.6335095
vt 0.9401333 0.6140401
vt 0.9252079 0.6227435
vt 0.9430122 0.6251663
vt 0.9310334 0.6442754
vt 0.9458913 0.6362925
vt 0.9256991 0.6328972
vt 0.9471062 0.6328972
vt 0.9471062 0.6221936
vt 0.9471062 0.6221936
vt 0.9256991 0.6221936
vt 0.9256991 0.6328972
vt 0.9256991 0.6221936
vt 0.9256991 0.6114901
vt 0.9256991 0.6114901
vt 0.9471062 0.6114901
vt 0.9471062 0.6221936
vt 0.9471062 0.6328972
vt 0.9256991 0.6328972
vt 0.9471062 0.6114901
vt 0.9256991 0.6114901
vt 0.9256991 0.6221936
vt 0.9256991 0.6328972
vt 0.9256991 0.6114901
vt 0.9256991 0.6221936
vt 0.9471062 0.6114901
vt 0.9471062 0.6221936
vt 0.9256991 0.6114901
vt 0.9471062 0.6328972
vt 0.9256991 0.6328972
vt 0.9256991 0.6221936
vt 0.9256991 0.6114901
vt 0.9256991 0.6328972
vt 0.9256991 0.6221936
vt 0.9471062 0.6114901
vt 0.9471062 0.6221936
vt 0.9471062 0.6328972
vt 0.9256991 0.6114901
vt 0.9256991 0.6328972
vt 0.9256991 0.6221936
vt 0.9256991 0.6114901
vt 0.9256991 0.6328972
vt 0.9256991 0.6221936
vn 0.1314783 -0.8938673 0.4286196
vn -0.1175223 0.2951558 0.9481939
vn -0.09084684 -0.9426624 0.3211456
vn -0.01311436 0.1506266 0.9885038
vn 0.3444252 0.04328858 0.9378152
vn 0.2721369 -0.6513986 0.7082523
vn 0.3187591 0.7921407 0.5204861
vn 0.9349886 -0.1448103 -0.3237689
vn -0.09084684 -0.9426624 0.3211456
vn 0.1314783 -0.8938673 0.4286196
vn 0.4860295 -0.6099824 0.6258568
vn 0.1382331 0.7588355 0.6364434
vn 0.1189299 0.9928734 0.007623394
vn 0.1941107 0.9802189 0.03862486
vn 0.8090343 0.5874184 -0.02007307
vn 0.5378218 0.5364378 0.6503709
vn 0.04437409 0.8052768 -0.5912362
vn 0.5017844 0.5941473 -0.6286504
vn 0.1351933 -0.6390103 -0.7572241
vn 0.1882871 0.8868627 -0.4219272
vn 0.4586267 -0.6202352 -0.6363724
vn -0.1486316 -0.02549273 -0.988564
vn 0.1452025 -0.002834954 -0.9893979
vn 0.2463724 -0.714779 -0.6545163
vn 0.1648896 -0.480166 -0.8615404
vn 0.3414857 -0.939872 -0.005304983
vn 0.3995703 -0.9166813 -0.006251577
vn 0.7880974 -0.6116318 -0.06934814
vn 0.4860295 -0.6099824 0.6258568
vn 0.1314783 -0.8938673 0.4286196
vn 0.8090343 0.5874184 -0.02007307
vn 0.5017844 0.5941473 -0.6286504
vn 0.5378218 0.5364378 0.6503709
vn 0.4852764 -0.6747063 0.5561278
vn 0.1382331 0.7588355 0.6364434
vn 0.242368 -0.9701821 -0.002098894
vn 0.2463724 -0.714779 -0.6545163
vn 0.1648896 -0.480166 -0.8615404
vn 0.3995703 -0.9166813 -0.006251577
vn 0.2721369 -0.6513986 0.7082523
vn 0.1314783 -0.8938673 0.4286196
vn 0.2638391 0.6379765 -0.7234465
vn -0.7662336 0.4171269 -0.4887649
vn -0.781558 -0.03854929 -0.6226404
vn -0.9969022 -0.06616314 -0.04252505
vn 0.284348 0.02957255 -0.9582649
vn 0.1882871 0.8868627 -0.4219272
vn 0.1452025 -0.002834954 -0.9893979
vn 0.1648896 -0.480166 -0.8615404
vn 0.2020859 -0.6972842 -0.687718
vn -0.7049077 -0.4781575 -0.5238994
vn -0.7992519 0.5996542 -0.04014158
vn -0.7718152 0.4720854 0.425954
vn 0.3735328 0.670479 0.6410392
vn -0.7662336 0.4171269 -0.4887649
vn 0.2638391 0.6379765 -0.7234465
vn 0.2497926 0.9682724 -0.007211017
vn 0.3187591 0.7921407 0.5204861
vn 0.1882871 0.8868627 -0.4219272
vn 0.1941107 0.9802189 0.03862486
vn -0.718668 -0.4616404 0.5200043
vn -0.7474428 -0.6641947 -0.01321271
vn 0.2260452 -0.6775082 0.6999186
vn -0.7049077 -0.4781575 -0.5238994
vn 0.2020859 -0.6972842 -0.687718
vn 0.124288 -0.9918161 0.02921295
vn 0.2721369 -0.6513986 0.7082523
vn 0.1648896 -0.480166 -0.8615404
vn 0.242368 -0.9701821 -0.002098894
vn -0.7718152 0.4720854 0.425954
vn -0.7838011 0.02857364 0.6203544
vn -0.718668 -0.4616404 0.5200043
vn 0.3735328 0.670479 0.6410392
vn 0.2260452 -0.6775082 0.6999186
vn 0.4096187 0.09908721 0.9068596
vn 0.3187591 0.7921407 0.5204861
vn 0.2721369 -0.6513986 0.7082523
vn 0.3444252 0.04328858 0.9378152
g DarkGlovesL_0
f 3/3/3 2/2/2 1/1/1
f 2/2/2 4/4/4 1/1/1
f 1/1/1 4/4/4 5/5/5
f 6/6/6 1/1/1 5/5/5
f 7/7/7 5/5/5 4/4/4
f 2/2/2 8/8/8 4/4/4
f 9/9/9 8/8/8 2/2/2
f 8/8/8 9/9/9 10/10/10
f 11/11/11 8/8/8 10/10/10
f 8/8/8 11/11/11 4/4/4
f 11/11/11 12/12/12 4/4/4
f 12/12/12 7/7/7 4/4/4
f 7/7/7 12/12/12 13/13/13
f 14/14/14 7/7/7 13/13/13
f 13/13/13 12/12/12 15/15/15
f 12/12/12 16/16/16 15/15/15
f 14/14/14 13/13/13 17/17/17
f 13/13/13 15/15/15 17/17/17
f 15/15/15 18/18/18 17/17/17
f 17/17/17 18/18/18 19/19/19
f 20/20/20 14/14/14 17/17/17
f 20/20/20 17/17/17 19/19/19
f 18/18/18 21/21/21 19/19/19
f 22/22/22 20/20/20 19/19/19
f 23/23/23 20/20/20 22/22/22
f 24/24/24 23/23/23 22/22/22
f 22/22/22 19/19/19 24/24/24
f 24/24/24 25/25/25 23/23/23
f 19/19/19 26/26/26 24/24/24
f 26/26/26 27/27/27 24/24/24
f 21/21/21 28/28/28 19/19/19
f 28/28/28 26/26/26 19/19/19
f 26/26/26 29/29/29 27/27/27
f 26/26/26 28/28/28 29/29/29
f 29/29/29 30/30/30 27/27/27
f 31/31/31 28/28/28 21/21/21
f 32/32/32 31/31/31 21/21/21
f 31/31/31 33/33/33 28/28/28
f 28/28/28 34/34/34 29/29/29
f 33/33/33 34/34/34 28/28/28
f 29/29/29 34/34/34 35/35/35
f 34/34/34 33/33/33 35/35/35
f 38/38/38 37/37/37 36/36/36
f 37/37/37 39/39/39 36/36/36
f 36/36/36 39/39/39 40/40/40
f 39/39/39 41/41/41 40/40/40
f 44/44/44 43/43/43 42/42/42
f 43/43/43 44/44/44 45/45/45
f 46/46/46 44/44/44 42/42/42
f 46/46/46 42/42/42 47/47/47
f 48/48/48 46/46/46 47/47/47
f 48/48/48 49/49/49 46/46/46
f 49/49/49 50/50/50 46/46/46
f 46/46/46 50/50/50 44/44/44
f 50/50/50 51/51/51 44/44/44
f 44/44/44 51/51/51 45/45/45
f 53/53/53 52/52/52 45/45/45
f 52/52/52 53/53/53 54/54/54
f 52/52/52 55/55/55 45/45/45
f 56/56/56 55/55/55 52/52/52
f 57/57/57 52/52/52 54/54/54
f 57/57/57 56/56/56 52/52/52
f 57/57/57 54/54/54 58/58/58
f 59/59/59 56/56/56 57/57/57
f 60/60/60 57/57/57 58/58/58
f 60/60/60 59/59/59 57/57/57
f 62/62/62 61/61/61 45/45/45
f 63/63/63 61/61/61 62/62/62
f 64/64/64 62/62/62 45/45/45
f 62/62/62 64/64/64 65/65/65
f 66/66/66 63/63/63 62/62/62
f 66/66/66 62/62/62 65/65/65
f 67/67/67 63/63/63 66/66/66
f 66/66/66 65/65/65 68/68/68
f 69/69/69 67/67/67 66/66/66
f 69/69/69 66/66/66 68/68/68
f 71/71/71 70/70/70 45/45/45
f 72/72/72 71/71/71 45/45/45
f 73/73/73 70/70/70 71/71/71
f 71/71/71 72/72/72 74/74/74
f 75/75/75 73/73/73 71/71/71
f 75/75/75 71/71/71 74/74/74
f 76/76/76 73/73/73 75/75/75
f 75/75/75 74/74/74 77/77/77
f 78/78/78 76/76/76 75/75/75
f 78/78/78 75/75/75 77/77/77
