g DartGEO
v -9.563948 8.036527 1.106397
v -9.467745 5.849134 0.8500836
v -9.737821 8.036528 0.8949187
v -9.467721 14.01306 0.8501037
v -9.775172 10.73126 1.669203
v -10.33081 10.73126 0.9933968
v -10.26639 8.846279 0.9826751
v -9.752236 8.84628 1.608024
v -8.912083 10.73126 1.525911
v -9.467721 14.01306 0.8501037
v -9.981892 8.84628 0.2247364
v -10.02336 10.73126 0.1742969
v -9.467721 14.01306 0.8501037
v -9.160274 10.73127 0.03100393
v -9.18325 8.846278 0.09214018
v -9.371533 8.036529 0.5937634
v -9.641614 8.036529 0.6386049
v -9.737821 8.036528 0.8949187
v -9.563948 8.036527 1.106397
v -8.953591 8.846279 1.475428
v -9.293867 8.036529 1.061556
v -8.604636 10.73127 0.7068118
v -9.467721 14.01306 0.8501037
v -9.160274 10.73127 0.03100393
v -8.6691 8.846278 0.7174863
v -9.197659 8.036529 0.8052382
v -9.18325 8.846278 0.09214018
v -9.371533 8.036529 0.5937634
v -9.737821 8.036528 0.8949187
v -9.467745 5.849134 0.8500836
v -9.641614 8.036529 0.6386049
v -9.371533 8.036529 0.5937634
v -9.197659 8.036529 0.8052382
v -9.293867 8.036529 1.061556
v -9.563948 8.036527 1.106397
v -10.60302 13.45975 0.8501034
v -10.60302 14.40267 0.8501068
v -9.838942 14.4035 0.9373172
v -9.838942 14.4035 0.7628924
v -9.471489 14.01292 0.9373153
v -9.471489 12.49688 0.9373134
v -9.471488 14.01292 0.7628926
v -9.471488 12.49688 0.7628926
v -9.130392 14.40501 0.9373117
v -8.397164 13.45975 0.8500998
v -9.130391 14.40501 0.76289
v -8.397164 14.4058 0.8501018
vt 0.9506645 0.8048049
vt 0.9506645 0.8988305
vt 0.9506645 0.8052235
vt 0.9706587 0.5797775
vt 0.9687107 0.6473416
vt 0.9720691 0.6473416
vt 0.9720691 0.740353
vt 0.9687107 0.740353
vt 0.9650114 0.6473417
vt 0.9706587 0.5797775
vt 0.975661 0.7403531
vt 0.975661 0.6473417
vt 0.9706587 0.5797775
vt 0.9793394 0.6473416
vt 0.9793394 0.740353
vt 0.9793394 0.7699659
vt 0.975661 0.7699659
vt 0.9720691 0.7699658
vt 0.9687107 0.7699658
vt 0.9650114 0.7403531
vt 0.9650114 0.7699659
vt 0.9615112 0.6473416
vt 0.9706587 0.5797775
vt 0.9580501 0.6473416
vt 0.9615112 0.740353
vt 0.9615112 0.7699659
vt 0.9580501 0.740353
vt 0.9580501 0.7699659
vt 0.9848822 0.90149
vt 0.9848822 0.9014899
vt 0.9848822 0.90149
vt 0.9848822 0.90149
vt 0.9848822 0.90149
vt 0.9848822 0.90149
vt 0.9848822 0.90149
vt 0.6282809 0.3661686
vt 0.6282809 0.3661686
vt 0.6282809 0.3661686
vt 0.6282809 0.3661686
vt 0.6282809 0.3661685
vt 0.6282809 0.3661686
vt 0.6282809 0.3661686
vt 0.6282809 0.3661686
vt 0.6282809 0.3661686
vt 0.6282809 0.3661686
vt 0.6282809 0.3661686
vt 0.6282809 0.3661686
vn -0.3290128 -0.35128 0.8765574
vn 0 -1 0
vn -0.9236284 -0.3512791 0.1533417
vn 0 1 0
vn -0.3491469 0.113309 0.9301922
vn -0.9801427 0.1133168 0.1627255
vn -0.9379116 -0.3099602 0.1557128
vn -0.3341005 -0.309968 0.8901105
vn 0.6309981 0.1133042 0.7674657
vn 0 1 0
vn -0.6038101 -0.3099551 -0.7343985
vn -0.6309968 0.1133199 -0.7674644
vn 0 1 0
vn 0.3491451 0.1133158 -0.930192
vn 0.3340999 -0.3099594 -0.8901137
vn 0.3290092 -0.3512793 -0.8765591
vn -0.5946153 -0.3512782 -0.7232125
vn -0.9236284 -0.3512791 0.1533417
vn -0.3290128 -0.35128 0.8765574
vn 0.6038081 -0.3099705 0.7343937
vn 0.5946161 -0.3512785 0.7232116
vn 0.9801434 0.1133078 -0.1627276
vn 0 1 0
vn 0.3491451 0.1133158 -0.930192
vn 0.9379088 -0.3099669 -0.155716
vn 0.9236271 -0.35128 -0.1533469
vn 0.3340999 -0.3099594 -0.8901137
vn 0.3290092 -0.3512793 -0.8765591
vn -0.9236284 -0.3512791 0.1533417
vn 0 -1 0
vn -0.5946153 -0.3512782 -0.7232125
vn 0.3290092 -0.3512793 -0.8765591
vn 0.9236271 -0.35128 -0.1533469
vn 0.5946161 -0.3512785 0.7232116
vn -0.3290128 -0.35128 0.8765574
vn -0.6452352 -0.487866 -0.5879272
vn -0.2222057 0.9749998 0
vn 0.1507789 0.4816069 0.8633195
vn 0.2128047 0.6202607 -0.7549775
vn -0.01083714 0.5570326 0.8304199
vn 0.005560357 -0.3602387 0.9328436
vn -0.04766411 0.3957213 -0.917133
vn 0.01152622 -0.4536853 -0.8910874
vn -0.1568295 0.4749839 0.8659069
vn 0.815073 -0.5793582 0
vn -0.1568351 0.4749829 -0.8659064
vn 0.2288958 0.9734509 0
g DartGEO_0
f 3/3/3 2/2/2 1/1/1
f 6/6/6 5/5/5 4/4/4
f 6/6/6 7/7/7 5/5/5
f 7/7/7 8/8/8 5/5/5
f 5/5/5 8/8/8 9/9/9
f 5/5/5 9/9/9 10/10/10
f 11/11/11 7/7/7 6/6/6
f 12/12/12 11/11/11 6/6/6
f 12/12/12 6/6/6 13/13/13
f 14/14/14 12/12/12 10/10/10
f 14/14/14 15/15/15 12/12/12
f 15/15/15 11/11/11 12/12/12
f 15/15/15 16/16/16 11/11/11
f 16/16/16 17/17/17 11/11/11
f 11/11/11 17/17/17 7/7/7
f 17/17/17 18/18/18 7/7/7
f 7/7/7 18/18/18 8/8/8
f 18/18/18 19/19/19 8/8/8
f 8/8/8 19/19/19 20/20/20
f 8/8/8 20/20/20 9/9/9
f 19/19/19 21/21/21 20/20/20
f 9/9/9 20/20/20 22/22/22
f 9/9/9 22/22/22 23/23/23
f 22/22/22 24/24/24 10/10/10
f 20/20/20 21/21/21 25/25/25
f 20/20/20 25/25/25 22/22/22
f 22/22/22 25/25/25 24/24/24
f 21/21/21 26/26/26 25/25/25
f 25/25/25 27/27/27 24/24/24
f 25/25/25 26/26/26 27/27/27
f 26/26/26 28/28/28 27/27/27
f 31/31/31 30/30/30 29/29/29
f 32/32/32 30/30/30 31/31/31
f 33/33/33 30/30/30 32/32/32
f 34/34/34 30/30/30 33/33/33
f 35/35/35 30/30/30 34/34/34
f 38/38/38 37/37/37 36/36/36
f 36/36/36 37/37/37 39/39/39
f 38/38/38 39/39/39 37/37/37
f 38/38/38 40/40/40 39/39/39
f 38/38/38 36/36/36 41/41/41
f 41/41/41 40/40/40 38/38/38
f 36/36/36 39/39/39 42/42/42
f 40/40/40 42/42/42 39/39/39
f 43/43/43 41/41/41 36/36/36
f 42/42/42 43/43/43 36/36/36
f 44/44/44 40/40/40 41/41/41
f 40/40/40 44/44/44 42/42/42
f 45/45/45 41/41/41 43/43/43
f 44/44/44 41/41/41 45/45/45
f 43/43/43 42/42/42 46/46/46
f 45/45/45 43/43/43 46/46/46
f 44/44/44 46/46/46 42/42/42
f 45/45/45 47/47/47 44/44/44
f 46/46/46 47/47/47 45/45/45
f 47/47/47 46/46/46 44/44/44
