g DiscoBallLine
v 0.1518203 -13.71084 -0.2629603
v 0.1518203 13.71084 -0.2629603
v -0.1518202 13.71084 -0.2629603
v -0.1518202 -13.71084 -0.2629603
v -0.3036404 13.71084 -3.57092E-08
v -0.3036404 -13.71084 -3.57092E-08
v -0.1518202 13.71084 0.2629603
v -0.1518202 -13.71084 0.2629603
v 0.1518202 13.71084 0.2629603
v 0.1518202 -13.71084 0.2629603
v 0.3036404 13.71084 9.536743E-09
v 0.3036404 -13.71084 9.536743E-09
v 0.1518203 13.71084 -0.2629603
v 0.1518203 -13.71084 -0.2629603
vt 0.7450076 0.4412101
vt 0.7450247 0.08228466
vt 0.7407383 0.08228454
vt 0.7407211 0.4412104
vt 0.7364519 0.08228454
vt 0.7364347 0.4412101
vt 0.7321651 0.0822843
vt 0.7321481 0.4412101
vt 0.7278786 0.0822843
vt 0.7278614 0.4412099
vt 0.7235919 0.0822843
vt 0.7235749 0.4412099
vt 0.7193055 0.08228406
vt 0.7192883 0.4412096
vn 2.814866E-07 0 -1
vn 2.814866E-07 0 -1
vn 2.814866E-07 0 -1
vn 2.814866E-07 0 -1
vn -0.8660253 0 -0.5000002
vn -0.8660253 0 -0.5000002
vn -0.8660255 0 0.4999999
vn -0.8660255 0 0.4999999
vn 0 0 1
vn 0 0 1
vn 0.8660253 0 0.5000001
vn 0.8660253 0 0.5000001
vn 2.814866E-07 0 -1
vn 2.814866E-07 0 -1
g DiscoBallLine_0
f 3/3/3 2/2/2 1/1/1
f 4/4/4 3/3/3 1/1/1
f 5/5/5 3/3/3 4/4/4
f 6/6/6 5/5/5 4/4/4
f 7/7/7 5/5/5 6/6/6
f 8/8/8 7/7/7 6/6/6
f 9/9/9 7/7/7 8/8/8
f 10/10/10 9/9/9 8/8/8
f 11/11/11 9/9/9 10/10/10
f 12/12/12 11/11/11 10/10/10
f 13/13/13 11/11/11 12/12/12
f 14/14/14 13/13/13 12/12/12
