g disc01
v 2.249527 1.821723 0
v 2.02675 1.821723 -0.9760323
v 8.099413 1.475998 -3.90047
v 8.989674 1.475998 0
v 2.02675 1.821723 0.9760323
v 19.89746 0.8043203 -9.582104
v 8.099412 1.475998 3.900472
v 1.402557 1.821723 1.758746
v 22.08451 0.8043203 0
v 34.02535 0 -16.38573
v 37.76529 0 0
v 19.89745 0.8043203 9.58211
v 34.02535 0 16.38575
v 5.604969 1.475998 7.028404
v 0.5005669 1.821723 2.193105
v 13.76947 0.8043203 17.26636
v 23.54627 0 29.52609
v 2.00039 1.475998 8.764266
v -0.500563 1.821723 2.193105
v 4.914264 0.8043203 21.5308
v 8.403563 0 36.81844
v -2.000388 1.475998 8.764264
v -1.402553 1.821723 1.758742
v -4.914266 0.8043203 21.53079
v -8.403571 0 36.81843
v -5.604966 1.475998 7.028401
v -2.026746 1.821723 0.9760323
v -13.76947 0.8043203 17.26636
v -23.54628 0 29.52608
v -8.099409 1.475998 3.900471
v -2.249523 1.821723 -4.02242E-07
v -19.89745 0.8043203 9.582106
v -34.02535 0 16.38574
v -8.98967 1.475998 -1.607475E-06
v -2.026746 1.821723 -0.9760323
v -22.08451 0.8043203 -3.949016E-06
v -37.76529 0 -6.75296E-06
v -8.099409 1.475998 -3.900473
v -1.402553 1.821723 -1.758746
v -19.89745 0.8043203 -9.582111
v -34.02534 0 -16.38575
v -5.604964 1.475998 -7.028404
v -0.500563 1.821723 -2.193105
v -13.76946 0.8043203 -17.26636
v -23.54626 0 -29.52609
v -2.000386 1.475998 -8.764266
v 0.5005669 1.821723 -2.193105
v -4.914258 0.8043203 -21.5308
v -8.403559 0 -36.81844
v 2.000392 1.475998 -8.764264
v 1.402557 1.821723 -1.75874
v 4.914269 0.8043203 -21.53079
v 8.403574 0 -36.81843
v 5.60497 1.475998 -7.028399
v 2.02675 1.821723 -0.9760323
v 8.099413 1.475998 -3.90047
v 13.76947 0.8043203 -17.26636
v 23.54628 0 -29.52608
v 19.89746 0.8043203 -9.582104
v 34.02535 0 -16.38573
vt 0.99137 0.08158535
vt 0.99137 -2.980232E-08
vt 0.797539 2.980232E-08
vt 0.797539 0.08158541
vt 0.99137 0.1513981
vt 0.4439068 2.980232E-08
vt 0.7975391 0.1513982
vt 0.99137 0.2212108
vt 0.4439068 0.08158538
vt 0.008629948 2.980232E-08
vt 0.008629948 0.08158541
vt 0.4439068 0.1513982
vt 0.008629948 0.1513982
vt 0.7975391 0.221211
vt 0.99137 0.2910237
vt 0.4439068 0.2212109
vt 0.008630008 0.2212109
vt 0.7975391 0.2910237
vt 0.99137 0.3608364
vt 0.4439068 0.2910237
vt 0.008629948 0.2910237
vt 0.7975391 0.3608364
vt 0.99137 0.4306491
vt 0.4439068 0.3608364
vt 0.008630008 0.3608364
vt 0.7975391 0.4306491
vt 0.99137 0.5004618
vt 0.4439068 0.4306491
vt 0.008629948 0.4306492
vt 0.7975391 0.5004618
vt 0.99137 0.5702745
vt 0.4439068 0.5004619
vt 0.008629978 0.5004619
vt 0.7975391 0.5702745
vt 0.99137 0.6400873
vt 0.4439068 0.5702746
vt 0.008629978 0.5702746
vt 0.7975391 0.6400873
vt 0.99137 0.7099
vt 0.4439068 0.6400874
vt 0.008629978 0.6400874
vt 0.7975391 0.7099
vt 0.99137 0.7797128
vt 0.4439068 0.7099
vt 0.008629978 0.7099001
vt 0.7975391 0.7797128
vt 0.99137 0.8495256
vt 0.4439068 0.7797128
vt 0.008629978 0.7797129
vt 0.7975391 0.8495256
vt 0.99137 0.9193382
vt 0.4439069 0.8495256
vt 0.008629978 0.8495256
vt 0.7975391 0.9193383
vt 0.99137 1
vt 0.7975391 1
vt 0.4439069 0.9193383
vt 0.008630008 0.9193383
vt 0.4439069 1
vt 0.008630008 1
vn 0.05122598 0.9986871 0
vn 0.04615299 0.9986871 -0.02222617
vn 0.04615301 0.9986871 -0.02222614
vn 0.05122598 0.9986871 0
vn 0.04615302 0.9986871 0.02222614
vn 0.04615306 0.9986871 -0.02222615
vn 0.04615302 0.9986871 0.02222614
vn 0.03193873 0.9986871 0.04005019
vn 0.05122601 0.9986871 0
vn 0.04615307 0.9986871 -0.02222615
vn 0.05122604 0.9986871 0
vn 0.04615305 0.9986871 0.02222615
vn 0.04615306 0.9986871 0.02222615
vn 0.03193883 0.9986871 0.04005012
vn 0.01139867 0.9986871 0.04994172
vn 0.03193889 0.9986871 0.04005012
vn 0.0319389 0.9986871 0.04005013
vn 0.01139879 0.9986871 0.04994165
vn -0.01139872 0.9986871 0.04994171
vn 0.01139885 0.9986871 0.04994168
vn 0.01139885 0.9986871 0.04994168
vn -0.01139881 0.9986871 0.04994164
vn -0.03193874 0.9986871 0.04005022
vn -0.01139885 0.9986871 0.04994167
vn -0.01139886 0.9986871 0.04994168
vn -0.03193883 0.9986871 0.04005011
vn -0.04615301 0.9986871 0.0222262
vn -0.03193889 0.9986871 0.04005012
vn -0.03193891 0.9986871 0.04005012
vn -0.04615302 0.9986871 0.02222613
vn -0.05122598 0.9986871 0
vn -0.04615306 0.9986871 0.02222613
vn -0.04615307 0.9986871 0.02222614
vn -0.05122598 0.9986871 0
vn -0.04615301 0.9986871 -0.02222618
vn -0.05122603 0.9986871 0
vn -0.05122605 0.9986871 0
vn -0.046153 0.9986871 -0.02222614
vn -0.03193872 0.9986871 -0.04005021
vn -0.04615306 0.9986871 -0.02222616
vn -0.04615307 0.9986871 -0.02222617
vn -0.03193882 0.9986871 -0.04005012
vn -0.01139868 0.9986871 -0.04994174
vn -0.03193888 0.9986871 -0.04005013
vn -0.0319389 0.9986871 -0.04005014
vn -0.0113988 0.9986871 -0.04994164
vn 0.01139875 0.9986871 -0.04994169
vn -0.01139885 0.9986871 -0.04994167
vn -0.01139885 0.9986871 -0.04994168
vn 0.01139882 0.9986871 -0.04994163
vn 0.03193874 0.9986871 -0.0400502
vn 0.01139886 0.9986871 -0.04994167
vn 0.01139887 0.9986871 -0.04994169
vn 0.03193884 0.9986871 -0.0400501
vn 0.04615299 0.9986871 -0.02222617
vn 0.04615301 0.9986871 -0.02222614
vn 0.0319389 0.9986871 -0.04005012
vn 0.03193891 0.9986871 -0.04005012
vn 0.04615306 0.9986871 -0.02222615
vn 0.04615307 0.9986871 -0.02222615
g disc01_0
f 3/3/3 2/2/2 1/1/1
f 3/3/3 1/1/1 4/4/4
f 4/4/4 1/1/1 5/5/5
f 6/6/6 3/3/3 4/4/4
f 4/4/4 5/5/5 7/7/7
f 7/7/7 5/5/5 8/8/8
f 6/6/6 4/4/4 9/9/9
f 9/9/9 4/4/4 7/7/7
f 10/10/10 6/6/6 9/9/9
f 10/10/10 9/9/9 11/11/11
f 11/11/11 9/9/9 12/12/12
f 9/9/9 7/7/7 12/12/12
f 11/11/11 12/12/12 13/13/13
f 7/7/7 8/8/8 14/14/14
f 12/12/12 7/7/7 14/14/14
f 14/14/14 8/8/8 15/15/15
f 13/13/13 12/12/12 16/16/16
f 12/12/12 14/14/14 16/16/16
f 13/13/13 16/16/16 17/17/17
f 14/14/14 15/15/15 18/18/18
f 16/16/16 14/14/14 18/18/18
f 18/18/18 15/15/15 19/19/19
f 17/17/17 16/16/16 20/20/20
f 16/16/16 18/18/18 20/20/20
f 17/17/17 20/20/20 21/21/21
f 18/18/18 19/19/19 22/22/22
f 20/20/20 18/18/18 22/22/22
f 22/22/22 19/19/19 23/23/23
f 21/21/21 20/20/20 24/24/24
f 20/20/20 22/22/22 24/24/24
f 21/21/21 24/24/24 25/25/25
f 22/22/22 23/23/23 26/26/26
f 24/24/24 22/22/22 26/26/26
f 26/26/26 23/23/23 27/27/27
f 25/25/25 24/24/24 28/28/28
f 24/24/24 26/26/26 28/28/28
f 25/25/25 28/28/28 29/29/29
f 26/26/26 27/27/27 30/30/30
f 28/28/28 26/26/26 30/30/30
f 30/30/30 27/27/27 31/31/31
f 29/29/29 28/28/28 32/32/32
f 28/28/28 30/30/30 32/32/32
f 29/29/29 32/32/32 33/33/33
f 30/30/30 31/31/31 34/34/34
f 32/32/32 30/30/30 34/34/34
f 34/34/34 31/31/31 35/35/35
f 33/33/33 32/32/32 36/36/36
f 32/32/32 34/34/34 36/36/36
f 33/33/33 36/36/36 37/37/37
f 34/34/34 35/35/35 38/38/38
f 36/36/36 34/34/34 38/38/38
f 38/38/38 35/35/35 39/39/39
f 37/37/37 36/36/36 40/40/40
f 36/36/36 38/38/38 40/40/40
f 37/37/37 40/40/40 41/41/41
f 38/38/38 39/39/39 42/42/42
f 40/40/40 38/38/38 42/42/42
f 42/42/42 39/39/39 43/43/43
f 41/41/41 40/40/40 44/44/44
f 40/40/40 42/42/42 44/44/44
f 41/41/41 44/44/44 45/45/45
f 42/42/42 43/43/43 46/46/46
f 44/44/44 42/42/42 46/46/46
f 46/46/46 43/43/43 47/47/47
f 45/45/45 44/44/44 48/48/48
f 44/44/44 46/46/46 48/48/48
f 45/45/45 48/48/48 49/49/49
f 46/46/46 47/47/47 50/50/50
f 48/48/48 46/46/46 50/50/50
f 50/50/50 47/47/47 51/51/51
f 49/49/49 48/48/48 52/52/52
f 48/48/48 50/50/50 52/52/52
f 49/49/49 52/52/52 53/53/53
f 50/50/50 51/51/51 54/54/54
f 52/52/52 50/50/50 54/54/54
f 54/54/54 51/51/51 55/55/55
f 54/54/54 55/55/55 56/56/56
f 53/53/53 52/52/52 57/57/57
f 52/52/52 54/54/54 57/57/57
f 57/57/57 54/54/54 56/56/56
f 53/53/53 57/57/57 58/58/58
f 57/57/57 56/56/56 59/59/59
f 58/58/58 57/57/57 59/59/59
f 58/58/58 59/59/59 60/60/60
