g door04
v 0.8014239 0.8785526 0.01001218
v 0.8439764 1.988601 0.02593748
v 0.9574738 0.8349357 0.01312131
v 0.9574738 0.8349357 0.01312131
v 0.8439764 1.988601 0.02593748
v 0.9002277 2.352207 0.01841916
v 0.8439764 1.988601 0.02593748
v 0.7770013 2.101751 0.01879514
v 0.9002277 2.352207 0.01841916
v -0.8991815 2.352207 0.01841672
v -0.7759552 2.101751 0.01879514
v -0.8429303 1.988601 0.02593748
v 0.6923676 0.9274271 -0.3053357
v 0.5810925 0.4862797 -0.3224903
v 0.6554608 0.9026932 -0.3571021
v -0.6913214 0.9274271 -0.3053369
v -0.6544147 0.9026932 -0.3571021
v -0.5800464 0.4862797 -0.3224903
v 0.6566095 0.07319175 0.02172849
v 0.6842731 0.1313197 0.04014158
v 0.8345929 0.131319 0.04304319
v 0.7815607 -0.006531295 -0.0305823
v 0.6842731 0.1313197 0.04014158
v 0.8014239 0.8785526 0.01001218
v 0.9574738 0.8349357 0.01312131
v 0.8345929 0.131319 0.04304319
v 0.5675207 0.3735313 -0.3250562
v 0.5810925 0.4862797 -0.3224903
v 0.6842731 0.1313197 0.04014158
v 0.6566095 0.07319175 0.02172849
v -0.7805145 -0.006531295 -0.0305823
v -0.6555634 0.07319161 0.02172849
v 0.6566095 0.07319175 0.02172849
v 0.7815607 -0.006531295 -0.0305823
v 0.5810925 0.4862797 -0.3224903
v 0.6923676 0.9274271 -0.3053357
v 0.8014239 0.8785526 0.01001218
v 0.6842731 0.1313197 0.04014158
v 0.7815607 0.277694 -0.3358399
v -0.7805145 0.2776935 -0.3358399
v -0.7805145 -0.006531295 -0.0305823
v 0.7815607 -0.006531295 -0.0305823
v -0.6555634 0.07319161 0.02172849
v -0.5664746 0.373531 -0.3250562
v 0.5675207 0.3735313 -0.3250562
v 0.6566095 0.07319175 0.02172849
v 0.7108343 1.831238 -0.3005615
v 0.8439764 1.988601 0.02593748
v 0.8014239 0.8785526 0.01001218
v 0.6923676 0.9274271 -0.3053357
v -0.9091522 0.6803989 -0.5724927
v -0.7805145 0.2776935 -0.3358399
v 0.7815607 0.277694 -0.3358399
v 0.9101983 0.6803989 -0.5724952
v -0.8335468 0.131319 0.04304319
v -0.6832269 0.1313197 0.04014158
v -0.6555634 0.07319161 0.02172849
v -0.7805145 -0.006531295 -0.0305823
v -0.6832269 0.1313197 0.04014158
v -0.5800464 0.4862797 -0.3224903
v -0.5664746 0.373531 -0.3250562
v -0.6555634 0.07319161 0.02172849
v -0.8003778 0.8785526 0.01001218
v -0.5800464 0.4862797 -0.3224903
v -0.6832269 0.1313197 0.04014158
v -0.6913214 0.9274271 -0.3053369
v -0.7097882 1.831238 -0.3005628
v -0.6544147 1.501382 -0.3531079
v -0.6544147 0.9026932 -0.3571021
v -0.8429303 1.988601 0.02593748
v 0.8439764 1.988601 0.02593748
v 0.7108343 1.831238 -0.3005615
v -0.9564276 0.8349357 0.01312009
v -0.8991815 2.352207 0.01841672
v -0.6832269 0.1313197 0.04014158
v -0.8335468 0.131319 0.04304319
v 0.5736401 3.093853 0.03326658
v 0.6542315 3.374346 0.08800656
v 0.9002277 2.352207 0.01841916
v 0.7770013 2.101751 0.01879514
v -0.8429303 1.988601 0.02593748
v -0.7759552 2.101751 0.01879514
v 0.7770013 2.101751 0.01879514
v 0.8439764 1.988601 0.02593748
v 0.641134 2.255315 -0.1026538
v 0.4950708 2.919991 -0.05286624
v 0.5736401 3.093853 0.03326658
v 0.7770013 2.101751 0.01879514
v 0.9002277 2.352207 0.01841916
v 0.6542315 3.374346 0.08800656
v 0.5782294 3.243975 -0.02193118
v 0.7792169 2.385437 -0.2730542
v 0.9862115 0.7204227 -0.2630896
v 0.9574738 0.8349357 0.01312131
v 0.8816608 1.9925 -0.4877759
v 0.8345929 0.131319 0.04304319
v 0.9101983 0.6803989 -0.5724952
v 0.7815607 -0.006531295 -0.0305823
v 0.7815607 0.277694 -0.3358399
v 0.7770013 2.101751 0.01879514
v -0.7759552 2.101751 0.01879514
v -0.6400879 2.255315 -0.1026551
v 0.641134 2.255315 -0.1026538
v -0.6400879 2.255315 -0.1026551
v -0.4940253 2.919991 -0.05286501
v 0.4950708 2.919991 -0.05286624
v 0.641134 2.255315 -0.1026538
v -0.7781708 2.385437 -0.2730542
v -0.8806146 1.9925 -0.4877735
v 0.8816608 1.9925 -0.4877759
v 0.7792169 2.385437 -0.2730542
v 0.4950708 2.919991 -0.05286624
v -0.4940253 2.919991 -0.05286501
v -0.5725946 3.093853 0.03326658
v 0.5736401 3.093853 0.03326658
v -0.6544147 0.9026932 -0.3571021
v -0.6544147 0.9026932 -0.5601734
v 0.6554608 0.9026932 -0.5601734
v 0.6554608 0.9026932 -0.3571021
v 0.7792169 2.385437 -0.2730542
v 0.5782294 3.243975 -0.02193118
v -0.5771832 3.243975 -0.02193118
v -0.7781708 2.385437 -0.2730542
v 0.5736401 3.093853 0.03326658
v -0.5725946 3.093853 0.03326658
v -0.6531854 3.374346 0.08800656
v 0.6542315 3.374346 0.08800656
v -0.7759552 2.101751 0.01879514
v -0.5725946 3.093853 0.03326658
v -0.4940253 2.919991 -0.05286501
v -0.6400879 2.255315 -0.1026551
v 0.6542315 3.374346 0.08800656
v -0.6531854 3.374346 0.08800656
v -0.5771832 3.243975 -0.02193118
v 0.5782294 3.243975 -0.02193118
v -0.8991815 2.352207 0.01841672
v -0.6531854 3.374346 0.08800656
v -0.5725946 3.093853 0.03326658
v -0.7759552 2.101751 0.01879514
v -0.7781708 2.385437 -0.2730542
v -0.5771832 3.243975 -0.02193118
v -0.6531854 3.374346 0.08800656
v -0.8991815 2.352207 0.01841672
v -0.9851654 0.7204227 -0.2630884
v -0.9564276 0.8349357 0.01312009
v -0.8806146 1.9925 -0.4877735
v -0.8335468 0.131319 0.04304319
v -0.9091522 0.6803989 -0.5724927
v -0.7805145 -0.006531295 -0.0305823
v -0.7805145 0.2776935 -0.3358399
v 0.6554608 0.9026932 -0.3571021
v 0.6554608 0.9026932 -0.5601734
v 0.6554608 1.501382 -0.5269946
v 0.6554608 1.501382 -0.3531079
v 0.6923676 0.9274271 -0.3053357
v 0.6554608 0.9026932 -0.3571021
v 0.6554608 1.501382 -0.3531079
v 0.7108343 1.831238 -0.3005615
v 0.5810925 0.4862797 -0.3224903
v -0.5800464 0.4862797 -0.3224903
v -0.6544147 0.9026932 -0.3571021
v 0.6554608 0.9026932 -0.3571021
v 0.6554608 1.501382 -0.3531079
v -0.6544147 1.501382 -0.3531079
v -0.7097882 1.831238 -0.3005628
v 0.7108343 1.831238 -0.3005615
v 0.5810925 0.4862797 -0.3224903
v 0.5675207 0.3735313 -0.3250562
v -0.5664746 0.373531 -0.3250562
v -0.5800464 0.4862797 -0.3224903
v -0.6544147 1.501382 -0.5269922
v -0.6544147 1.501382 -0.3531079
v 0.6554608 1.501382 -0.3531079
v 0.6554608 1.501382 -0.5269946
v -0.6544147 0.9026932 -0.5601734
v -0.6544147 0.9026932 -0.3571021
v -0.6544147 1.501382 -0.3531079
v -0.6544147 1.501382 -0.5269922
v 0.9101983 0.6803989 -0.5724952
v -0.6544147 0.9026932 -0.5601734
v -0.9091522 0.6803989 -0.5724927
v -0.8806146 1.9925 -0.4877735
v 0.6554608 0.9026932 -0.5601734
v -0.6544147 1.501382 -0.5269922
v 0.8816608 1.9925 -0.4877759
v 0.6554608 1.501382 -0.5269946
vt 0.4713759 0.4256884
vt 0.4868065 0.2419806
vt 0.4481692 0.4320463
vt 0.4481692 0.4320463
vt 0.4868065 0.2419806
vt 0.4841628 0.182274
vt 0.4868065 0.2419806
vt 0.4992481 0.2243763
vt 0.4841628 0.182274
vt 0.7626968 0.1833936
vt 0.7471054 0.2253374
vt 0.7593044 0.2428721
vt 0.5213252 0.4156485
vt 0.5378289 0.4781888
vt 0.5267223 0.419135
vt 0.7224438 0.4183711
vt 0.7169792 0.4219805
vt 0.7053358 0.4811771
vt 0.5133088 0.54176
vt 0.4971397 0.5022976
vt 0.4774354 0.5129403
vt 0.4939973 0.5706831
vt 0.4971397 0.5022976
vt 0.4713759 0.4256884
vt 0.4481692 0.4320463
vt 0.4774354 0.5129403
vt 0.5410643 0.493471
vt 0.5378289 0.4781888
vt 0.4971397 0.5022976
vt 0.5133088 0.54176
vt 0.7478312 0.5707397
vt 0.7290495 0.5416446
vt 0.5133088 0.54176
vt 0.4939973 0.5706831
vt 0.5378289 0.4781888
vt 0.5213252 0.4156485
vt 0.4713759 0.4256884
vt 0.4971397 0.5022976
vt 0.1043021 0.07807827
vt 0.3662106 0.07415901
vt 0.3799068 0.009442045
vt 0.08982579 0.009512379
vt 0.7290495 0.5416446
vt 0.7018753 0.4969769
vt 0.5410643 0.493471
vt 0.5133088 0.54176
vt 0.5241858 0.2860525
vt 0.4868065 0.2419806
vt 0.4713759 0.4256884
vt 0.5213252 0.4156485
vt 0.3745818 0.1481821
vt 0.3662106 0.07415901
vt 0.1043021 0.07807827
vt 0.09574071 0.1484364
vt 0.7655401 0.5143147
vt 0.7458814 0.5037692
vt 0.7290495 0.5416446
vt 0.7478312 0.5707397
vt 0.7458814 0.5037692
vt 0.7053358 0.4811771
vt 0.7018753 0.4969769
vt 0.7290495 0.5416446
vt 0.7724569 0.428132
vt 0.7053358 0.4811771
vt 0.7458814 0.5037692
vt 0.7224438 0.4183711
vt 0.7215439 0.2902667
vt 0.7149337 0.3369197
vt 0.7169792 0.4219805
vt 0.7593044 0.2428721
vt 0.4868065 0.2419806
vt 0.5241858 0.2860525
vt 0.7955592 0.4346017
vt 0.7626968 0.1833936
vt 0.7458814 0.5037692
vt 0.7655401 0.5143147
vt 0.5353807 0.06881453
vt 0.5231424 0.02589191
vt 0.4841628 0.182274
vt 0.4992481 0.2243763
vt 0.7593044 0.2428721
vt 0.7471054 0.2253374
vt 0.4992481 0.2243763
vt 0.4868065 0.2419806
vt 0.5271453 0.1974546
vt 0.5491487 0.09774087
vt 0.5353807 0.06881453
vt 0.4992481 0.2243763
vt 0.03621385 0.4353565
vt 0.1261042 0.6052355
vt 0.1309609 0.5888703
vt 0.08290166 0.4280332
vt 0.04635443 0.1472433
vt 0.002613038 0.1618953
vt 0.1022075 0.3547867
vt 0.0452686 0.06908987
vt 0.09574071 0.1484364
vt 0.08982579 0.009512379
vt 0.1043021 0.07807827
vt 0.4992481 0.2243763
vt 0.7471054 0.2253374
vt 0.7193943 0.1974023
vt 0.5271453 0.1974546
vt 0.7193943 0.1974023
vt 0.6981166 0.09722818
vt 0.5491487 0.09774087
vt 0.5271453 0.1974546
vt 0.3903569 0.4242062
vt 0.3704116 0.3545224
vt 0.1022075 0.3547867
vt 0.08290166 0.4280332
vt 0.5491487 0.09774087
vt 0.6981166 0.09722818
vt 0.7120885 0.06875771
vt 0.5353807 0.06881453
vt 0.9590635 0.1751564
vt 0.9882311 0.1751468
vt 0.9882311 0.01445806
vt 0.9590142 0.0144676
vt 0.08290166 0.4280332
vt 0.1309609 0.5888703
vt 0.3435215 0.5907649
vt 0.3903569 0.4242062
vt 0.5353807 0.06881453
vt 0.7120885 0.06875771
vt 0.724544 0.02588941
vt 0.5231424 0.02589191
vt 0.7471054 0.2253374
vt 0.7120885 0.06875771
vt 0.6981166 0.09722818
vt 0.7193943 0.1974023
vt 0.1261042 0.6052355
vt 0.3483582 0.6077071
vt 0.3435215 0.5907649
vt 0.1309609 0.5888703
vt 0.7626968 0.1833936
vt 0.724544 0.02588941
vt 0.7120885 0.06875771
vt 0.7471054 0.2253374
vt 0.3903569 0.4242062
vt 0.3435215 0.5907649
vt 0.3483582 0.6077071
vt 0.4371665 0.4310757
vt 0.4239644 0.1460477
vt 0.4678523 0.1602704
vt 0.3704116 0.3545224
vt 0.4247136 0.06837261
vt 0.3745818 0.1481821
vt 0.3799068 0.009442045
vt 0.3662106 0.07415901
vt 0.9591581 0.4827337
vt 0.9882311 0.4827242
vt 0.9882311 0.4092812
vt 0.9586456 0.4092897
vt 0.5213252 0.4156485
vt 0.5267223 0.419135
vt 0.5300106 0.3330649
vt 0.5241858 0.2860525
vt 0.5378289 0.4781888
vt 0.7053358 0.4811771
vt 0.7169792 0.4219805
vt 0.5267223 0.419135
vt 0.5300106 0.3330649
vt 0.7149337 0.3369197
vt 0.7215439 0.2902667
vt 0.5241858 0.2860525
vt 0.5378289 0.4781888
vt 0.5410643 0.493471
vt 0.7018753 0.4969769
vt 0.7053358 0.4811771
vt 0.9882311 0.2485922
vt 0.9585963 0.2486008
vt 0.9586456 0.4092897
vt 0.9882311 0.4092812
vt 0.9882311 0.1751468
vt 0.9590635 0.1751564
vt 0.9585963 0.2486008
vt 0.9882311 0.2485922
vt 0.09574071 0.1484364
vt 0.3355851 0.1831565
vt 0.3745818 0.1481821
vt 0.3704116 0.3545224
vt 0.1353498 0.1834521
vt 0.3355749 0.277035
vt 0.1022075 0.3547867
vt 0.1362244 0.2775547
vn -0.0236714 -0.01343375 0.9996295
vn -0.0236714 -0.01343375 0.9996295
vn -0.0236714 -0.01343375 0.9996295
vn 0.9978942 0.041542 0.04981506
vn 0.1246159 0.00123726 0.9922043
vn 0.9842313 0.1250444 0.1251106
vn -0.05673482 0.02941184 0.9979559
vn -0.05673483 0.02941185 0.9979559
vn -0.05673483 0.02941185 0.9979559
vn 0.05672458 0.02941719 0.9979564
vn 0.05672459 0.02941719 0.9979564
vn 0.05672459 0.02941719 0.9979564
vn -0.8401507 0.1921993 0.5071551
vn -0.8401507 0.1921993 0.5071551
vn -0.8401507 0.1921993 0.5071549
vn 0.8401468 0.1921985 0.5071619
vn 0.8401467 0.1921985 0.5071619
vn 0.8401467 0.1921985 0.5071619
vn 0.0349209 -0.4365773 0.8989888
vn 0.0349209 -0.4365772 0.8989888
vn 0.8155483 -0.1758962 0.551309
vn 0.9445409 -0.3277364 0.02077064
vn -0.01339667 0.04356379 0.9989609
vn -0.01339667 0.04356379 0.9989609
vn 0.9978942 0.041542 0.04981506
vn 0.8155483 -0.1758962 0.551309
vn -0.9010419 0.1683612 0.3997223
vn -0.9010419 0.1683612 0.3997224
vn -0.9010419 0.1683612 0.3997224
vn -0.9010419 0.1683612 0.3997224
vn 0 -0.5486022 0.8360835
vn 0 -0.5486022 0.8360835
vn 0 -0.5486022 0.8360835
vn 0 -0.5486022 0.8360835
vn -0.9038907 0.1779893 0.3889749
vn -0.9038907 0.1779893 0.3889749
vn -0.9038907 0.1779893 0.3889749
vn -0.9038907 0.1779893 0.3889749
vn 1.105294E-07 -0.7318702 -0.681444
vn 1.105294E-07 -0.7318703 -0.6814439
vn 1.105294E-07 -0.7318703 -0.6814439
vn 1.105294E-07 -0.7318703 -0.6814439
vn -1.305319E-07 0.7559126 0.6546724
vn -1.305319E-07 0.7559126 0.6546724
vn -1.305319E-07 0.7559126 0.6546724
vn -1.305319E-07 0.7559126 0.6546724
vn -0.9366949 0.02479159 0.3492679
vn -0.9366949 0.02479159 0.3492679
vn -0.9366949 0.02479159 0.3492679
vn -0.9366949 0.02479159 0.3492679
vn -5.56466E-07 -0.5066521 -0.8621506
vn -5.56466E-07 -0.5066521 -0.8621506
vn -5.56466E-07 -0.5066521 -0.8621506
vn -5.564661E-07 -0.5066521 -0.8621506
vn -0.8155471 -0.1758955 0.5513108
vn -0.03492116 -0.4365774 0.8989887
vn -0.03492115 -0.4365774 0.8989887
vn -0.9445409 -0.3277366 0.02077034
vn 0.9010419 0.1683612 0.3997224
vn 0.9010419 0.1683612 0.3997223
vn 0.9010419 0.1683612 0.3997224
vn 0.9010419 0.1683612 0.3997223
vn 0.7817315 0.08110525 0.6183185
vn 0.9038908 0.1779897 0.3889745
vn 0.9038908 0.1779897 0.3889745
vn 0.9157552 0.07447056 0.3947742
vn 0.4794512 -0.7023126 0.5261971
vn 0.7581923 0.005513781 0.6520077
vn 0.7581922 0.005513782 0.6520077
vn 0.3732986 -0.6615534 0.6503808
vn -1.734102E-07 -0.9008295 0.434173
vn -1.734102E-07 -0.9008295 0.434173
vn -0.9882821 0.03992296 0.1473245
vn -0.9842314 0.1250445 0.1251097
vn 0.01339265 0.04356395 0.9989609
vn -0.8155471 -0.1758955 0.5513108
vn -0.09924055 -0.06358088 0.9930301
vn 0.9517341 0.3029849 -0.04901389
vn 0.9842313 0.1250444 0.1251106
vn -0.09924056 -0.06358087 0.9930301
vn 0 0.06299751 0.9980137
vn 0 0.06299749 0.9980137
vn 0 0.06299749 0.9980137
vn 0 0.06299751 0.9980137
vn -0.6769584 -0.1705448 0.71599
vn -0.6769584 -0.1705447 0.7159899
vn -0.6769584 -0.1705448 0.71599
vn -0.6769584 -0.1705448 0.71599
vn 0.9842313 0.1250444 0.1251106
vn 0.9517341 0.3029849 -0.04901389
vn 0.8334922 0.2793874 -0.4766902
vn 0.9620574 0.1387998 -0.2349048
vn 0.9950995 -0.0338388 -0.09290839
vn 0.9978942 0.041542 0.04981506
vn 0.9967399 0.07923774 -0.01519176
vn 0.8155483 -0.1758962 0.551309
vn 0.9952798 -0.04702245 -0.08489379
vn 0.9445409 -0.3277364 0.02077064
vn 0.8925306 -0.3702619 -0.2574786
vn -3.519836E-07 0.6203197 0.7843491
vn -3.519836E-07 0.6203198 0.784349
vn -3.519836E-07 0.6203197 0.7843491
vn -3.519837E-07 0.6203198 0.784349
vn 0 -0.0746977 0.9972062
vn 0 -0.0746977 0.9972062
vn 0 -0.07469769 0.9972062
vn 0 -0.0746977 0.9972062
vn -6.56968E-07 0.4795254 -0.877528
vn -6.56968E-07 0.4795254 -0.877528
vn -6.569679E-07 0.4795254 -0.877528
vn -6.56968E-07 0.4795254 -0.877528
vn 5.303389E-07 -0.4439168 0.896068
vn 5.303388E-07 -0.4439168 0.896068
vn 5.303389E-07 -0.4439169 0.896068
vn 5.303389E-07 -0.4439169 0.896068
vn 0 1 0
vn 0 1 0
vn 0 1 0
vn 0 1 0
vn 0 0.2807378 -0.9597845
vn 0 0.2807378 -0.9597845
vn 0 0.2807378 -0.9597845
vn 0 0.2807378 -0.9597845
vn 0 -0.1915427 0.9814843
vn 0 -0.1915427 0.9814843
vn 0 -0.1915427 0.9814843
vn 0 -0.1915427 0.9814843
vn 0.6769587 -0.1705453 0.7159896
vn 0.6769587 -0.1705453 0.7159896
vn 0.6769587 -0.1705453 0.7159896
vn 0.6769587 -0.1705453 0.7159896
vn 0 0.6446553 -0.7644733
vn 0 0.6446553 -0.7644733
vn 0 0.6446553 -0.7644733
vn 0 0.6446553 -0.7644733
vn -0.9842314 0.1250445 0.1251097
vn -0.9517339 0.302985 -0.0490167
vn 0.09923116 -0.06358002 0.9930311
vn 0.09923116 -0.06358002 0.9930311
vn -0.9620568 0.1388003 -0.2349069
vn -0.8334907 0.279388 -0.4766924
vn -0.9517339 0.302985 -0.0490167
vn -0.9842314 0.1250445 0.1251097
vn -0.9950995 -0.0338392 -0.09290879
vn -0.9882821 0.03992296 0.1473245
vn -0.9967399 0.07923785 -0.0151918
vn -0.8155471 -0.1758955 0.5513108
vn -0.9952798 -0.04702324 -0.08489439
vn -0.9445409 -0.3277366 0.02077034
vn -0.892531 -0.3702611 -0.2574786
vn -1 0 0
vn -1 0 0
vn -1 0 0
vn -1 0 0
vn -0.7582 0.005513858 0.6519988
vn -0.7582 0.005513858 0.6519988
vn -0.7581999 0.005513857 0.6519989
vn -0.7582 0.005513857 0.6519988
vn 0 0.08283319 0.9965634
vn 0 0.08283319 0.9965634
vn 0 0.08283319 0.9965634
vn 0 0.08283319 0.9965634
vn -4.283043E-07 -0.1573157 0.9875484
vn -4.283043E-07 -0.1573157 0.9875484
vn -4.283042E-07 -0.1573157 0.9875484
vn -4.283042E-07 -0.1573157 0.9875484
vn 0 -0.02275197 0.9997411
vn 0 -0.02275197 0.9997411
vn 0 -0.02275198 0.9997411
vn 0 -0.02275197 0.9997411
vn 0 -1 0
vn 0 -1 0
vn 0 -1 0
vn 0 -1 0
vn 1 0 0
vn 1 0 0
vn 1 0 0
vn 1 0 0
vn -7.70959E-07 0.05533958 -0.9984675
vn -7.70959E-07 0.05533958 -0.9984675
vn -7.70959E-07 0.05533958 -0.9984675
vn -0.02121947 0.06188712 -0.9978575
vn -7.709591E-07 0.05533958 -0.9984675
vn -0.02121947 0.06188712 -0.9978575
vn 0.02121443 0.06188582 -0.9978577
vn 0.02121443 0.06188582 -0.9978577
g door04_0
f 3/3/3 2/2/2 1/1/1
f 6/6/6 5/5/5 4/4/4
f 9/9/9 8/8/8 7/7/7
f 12/12/12 11/11/11 10/10/10
f 15/15/15 14/14/14 13/13/13
f 18/18/18 17/17/17 16/16/16
f 21/21/21 20/20/20 19/19/19
f 22/22/22 21/21/21 19/19/19
f 25/25/25 24/24/24 23/23/23
f 26/26/26 25/25/25 23/23/23
f 29/29/29 28/28/28 27/27/27
f 30/30/30 29/29/29 27/27/27
f 33/33/33 32/32/32 31/31/31
f 34/34/34 33/33/33 31/31/31
f 37/37/37 36/36/36 35/35/35
f 38/38/38 37/37/37 35/35/35
f 41/41/41 40/40/40 39/39/39
f 42/42/42 41/41/41 39/39/39
f 45/45/45 44/44/44 43/43/43
f 46/46/46 45/45/45 43/43/43
f 49/49/49 48/48/48 47/47/47
f 50/50/50 49/49/49 47/47/47
f 53/53/53 52/52/52 51/51/51
f 54/54/54 53/53/53 51/51/51
f 57/57/57 56/56/56 55/55/55
f 58/58/58 57/57/57 55/55/55
f 61/61/61 60/60/60 59/59/59
f 62/62/62 61/61/61 59/59/59
f 65/65/65 64/64/64 63/63/63
f 64/64/64 66/66/66 63/63/63
f 66/66/66 67/67/67 63/63/63
f 67/67/67 66/66/66 68/68/68
f 66/66/66 69/69/69 68/68/68
f 67/67/67 70/70/70 63/63/63
f 71/71/71 70/70/70 67/67/67
f 72/72/72 71/71/71 67/67/67
f 70/70/70 73/73/73 63/63/63
f 70/70/70 74/74/74 73/73/73
f 75/75/75 63/63/63 73/73/73
f 76/76/76 75/75/75 73/73/73
f 79/79/79 78/78/78 77/77/77
f 80/80/80 79/79/79 77/77/77
f 83/83/83 82/82/82 81/81/81
f 84/84/84 83/83/83 81/81/81
f 87/87/87 86/86/86 85/85/85
f 88/88/88 87/87/87 85/85/85
f 91/91/91 90/90/90 89/89/89
f 92/92/92 91/91/91 89/89/89
f 93/93/93 92/92/92 89/89/89
f 94/94/94 93/93/93 89/89/89
f 95/95/95 92/92/92 93/93/93
f 93/93/93 94/94/94 96/96/96
f 97/97/97 95/95/95 93/93/93
f 98/98/98 93/93/93 96/96/96
f 99/99/99 97/97/97 93/93/93
f 98/98/98 99/99/99 93/93/93
f 102/102/102 101/101/101 100/100/100
f 103/103/103 102/102/102 100/100/100
f 106/106/106 105/105/105 104/104/104
f 107/107/107 106/106/106 104/104/104
f 110/110/110 109/109/109 108/108/108
f 111/111/111 110/110/110 108/108/108
f 114/114/114 113/113/113 112/112/112
f 115/115/115 114/114/114 112/112/112
f 118/118/118 117/117/117 116/116/116
f 119/119/119 118/118/118 116/116/116
f 122/122/122 121/121/121 120/120/120
f 123/123/123 122/122/122 120/120/120
f 126/126/126 125/125/125 124/124/124
f 127/127/127 126/126/126 124/124/124
f 130/130/130 129/129/129 128/128/128
f 131/131/131 130/130/130 128/128/128
f 134/134/134 133/133/133 132/132/132
f 135/135/135 134/134/134 132/132/132
f 138/138/138 137/137/137 136/136/136
f 139/139/139 138/138/138 136/136/136
f 142/142/142 141/141/141 140/140/140
f 143/143/143 142/142/142 140/140/140
f 143/143/143 140/140/140 144/144/144
f 145/145/145 143/143/143 144/144/144
f 144/144/144 140/140/140 146/146/146
f 147/147/147 145/145/145 144/144/144
f 148/148/148 144/144/144 146/146/146
f 149/149/149 147/147/147 144/144/144
f 144/144/144 148/148/148 150/150/150
f 149/149/149 144/144/144 150/150/150
f 153/153/153 152/152/152 151/151/151
f 154/154/154 153/153/153 151/151/151
f 157/157/157 156/156/156 155/155/155
f 158/158/158 157/157/157 155/155/155
f 161/161/161 160/160/160 159/159/159
f 162/162/162 161/161/161 159/159/159
f 165/165/165 164/164/164 163/163/163
f 166/166/166 165/165/165 163/163/163
f 169/169/169 168/168/168 167/167/167
f 170/170/170 169/169/169 167/167/167
f 173/173/173 172/172/172 171/171/171
f 174/174/174 173/173/173 171/171/171
f 177/177/177 176/176/176 175/175/175
f 178/178/178 177/177/177 175/175/175
f 181/181/181 180/180/180 179/179/179
f 181/181/181 182/182/182 180/180/180
f 180/180/180 183/183/183 179/179/179
f 182/182/182 184/184/184 180/180/180
f 179/179/179 183/183/183 185/185/185
f 182/182/182 185/185/185 184/184/184
f 183/183/183 186/186/186 185/185/185
f 185/185/185 186/186/186 184/184/184
