g DoorBottom
v -6.871857 9.095621 0.7448593
v -6.664239 9.09562 0.1039362
v -4.583809 9.09562 0.1039362
v -4.791478 9.095621 0.7448593
v -3.259846 9.095621 0.7448593
v -3.058066 9.09562 0.1039362
v -0.9418491 9.09562 0.1039362
v -1.135217 9.095621 0.7448593
v 0.5624976 9.095621 0.7448593
v 0.7519202 9.09562 0.1039362
v 2.891269 9.09562 0.1039362
v 2.71531 9.095621 0.7448593
v 6.440716 9.09562 0.1039362
v 6.27592 9.095621 0.7448593
v 4.369291 9.095621 0.7448593
v 4.537289 9.09562 0.1039362
v -6.181151 9.09562 5.033779
v -8.261189 9.09562 5.033779
v -6.871857 9.095621 0.7448593
v -4.791478 9.095621 0.7448593
v -2.429191 9.09562 5.033779
v -4.610108 9.09562 5.033779
v -3.259846 9.095621 0.7448593
v -1.135217 9.095621 0.7448593
v 1.537827 9.09562 5.033779
v -0.705075 9.09562 5.033779
v 0.5624976 9.095621 0.7448593
v 2.71531 9.095621 0.7448593
v 6.27592 9.095621 0.7448593
v 5.173131 9.09562 5.033779
v 3.245091 9.09562 5.033779
v 4.369291 9.095621 0.7448593
v -8.261189 9.09562 5.033779
v -8.261189 8.837984 5.033779
v -6.871857 8.837984 0.7448593
v -6.871857 9.095621 0.7448593
v -6.664239 8.837984 0.1039362
v -6.664239 9.09562 0.1039362
v -4.583809 8.837984 0.1039362
v -4.583809 9.09562 0.1039362
v -4.791478 8.837984 0.7448593
v -4.791478 9.095621 0.7448593
v -6.181151 8.837984 5.033779
v -6.181151 9.09562 5.033779
v -4.610108 9.09562 5.033779
v -4.610108 8.837984 5.033779
v -3.259846 8.837984 0.7448593
v -3.259846 9.095621 0.7448593
v -3.058066 8.837984 0.1039362
v -3.058066 9.09562 0.1039362
v -0.9418491 8.837984 0.1039362
v -0.9418491 9.09562 0.1039362
v -1.135217 8.837984 0.7448593
v -1.135217 9.095621 0.7448593
v -2.429191 8.837984 5.033779
v -2.429191 9.09562 5.033779
v -0.705075 9.09562 5.033779
v -0.705075 8.837984 5.033779
v 0.5624976 8.837984 0.7448593
v 0.5624976 9.095621 0.7448593
v 0.7519202 8.837984 0.1039362
v 0.7519202 9.09562 0.1039362
v 2.891269 8.837984 0.1039362
v 2.891269 9.09562 0.1039362
v 2.71531 8.837984 0.7448593
v 2.71531 9.095621 0.7448593
v 1.537827 8.837984 5.033779
v 1.537827 9.09562 5.033779
v 3.245091 9.09562 5.033779
v 3.245091 8.837984 5.033779
v 4.369291 8.837984 0.7448593
v 4.369291 9.095621 0.7448593
v 4.537289 8.837984 0.1039362
v 4.537289 9.09562 0.1039362
v 6.440716 8.837984 0.1039362
v 6.440716 9.09562 0.1039362
v 6.27592 8.837984 0.7448593
v 6.27592 9.095621 0.7448593
v 5.173131 8.837984 5.033779
v 5.173131 9.09562 5.033779
v 7.207947 9.215064 2.705959
v 5.960418 9.215064 4.112957
v 5.960418 9.215064 2.705959
v 8.039633 9.215064 4.464705
v -5.960418 9.215064 4.112957
v 8.037839 9.215064 0.7331998
v 7.207947 9.215064 0.7331998
v -8.039633 9.215064 4.464705
v -7.207947 9.215064 2.705959
v -5.960418 9.215064 2.705959
v -8.037839 9.215064 0.7331998
v -7.207947 9.215064 0.7331998
v 7.208697 9.215066 0.006033151
v 7.207947 9.009056 0.7331989
v 7.208697 9.009058 0.006033151
v -7.207947 9.009056 0.7331989
v -7.196449 9.009058 0.006033151
v -7.209857 9.215066 0.006033151
v -7.207947 9.215064 0.7331998
v -8.965728 9.215066 0.006033151
v -7.209857 9.215066 0.006033151
v -8.037839 9.215064 0.7331998
v -8.965728 9.215065 5.519952
v -8.039633 9.215064 4.464705
v 8.965728 9.215065 5.519952
v 8.039633 9.215064 4.464705
v 8.037839 9.215064 0.7331998
v 8.965728 9.215066 0.006033151
v 7.207947 9.215064 0.7331998
v 7.208697 9.215066 0.006033151
v -7.207947 9.215064 2.705959
v -7.207947 9.215064 0.7331998
v -7.207947 9.009056 0.7331989
v -7.207947 9.009056 2.705958
v -5.960418 9.215064 2.705959
v 7.207947 9.009056 0.7331989
v -5.960418 9.009056 2.705958
v -5.960418 9.215064 4.112957
v 7.207947 9.009056 2.705958
v 7.207947 9.215064 0.7331998
v 7.207947 9.215064 2.705959
v 5.960418 9.009056 2.705958
v 5.960418 9.215064 2.705959
v -5.960418 9.009056 4.112956
v 5.960418 9.215064 4.112957
v 5.960418 9.009056 4.112956
v -7.196449 9.009058 0.006033151
v -7.209857 9.215066 0.006033151
v -8.965728 9.215066 0.006033151
v -8.965728 7.446615 0.006032239
v 7.208697 9.009058 0.006033151
v 8.965728 7.446615 0.006032239
v 8.965728 9.215066 0.006033151
v 7.208697 9.215066 0.006033151
v 8.965728 9.215065 5.519952
v 8.965728 9.215066 0.006033151
v 8.965728 7.446615 0.006032239
v 8.965728 7.446615 5.519952
v -8.965728 9.215065 5.519952
v -8.965728 7.446615 5.519952
v -8.965728 9.215066 0.006033151
v -8.965728 7.446615 0.006032239
v 8.324142 7.446616 0.5735452
v 8.324142 7.446616 5.054883
v -8.324142 7.446616 0.5735452
v -8.324142 7.446616 5.054883
v 7.958689 7.846098 4.677081
v 7.958689 7.846098 0.9513482
v -7.958689 7.846098 0.9513482
v -7.958689 7.846098 4.677081
v 8.324142 7.446616 5.054883
v 8.324142 7.446616 0.5735452
v 7.958689 7.846098 0.9513482
v 7.958689 7.846098 4.677081
v 8.324142 7.446616 0.5735452
v -8.324142 7.446616 0.5735452
v -7.958689 7.846098 0.9513482
v 7.958689 7.846098 0.9513482
v -8.324142 7.446616 0.5735452
v -8.324142 7.446616 5.054883
v -7.958689 7.846098 4.677081
v -7.958689 7.846098 0.9513482
v -8.324142 7.446616 5.054883
v 8.324142 7.446616 5.054883
v 7.958689 7.846098 4.677081
v -7.958689 7.846098 4.677081
v -8.437213 9.428784 3.1705
v -8.437213 8.928621 3.1705
v -6.505667 8.928621 3.1705
v -6.505667 9.428784 3.1705
v -6.505667 8.928621 4.901198
v -6.505667 9.428782 4.9012
v -8.437213 8.928621 4.901198
v -8.437213 9.428782 4.9012
v 8.437213 9.428784 3.1705
v 6.505667 8.928621 3.1705
v 8.437213 8.928621 3.1705
v 6.505667 9.428784 3.1705
v 6.505667 8.928621 4.901198
v 6.505667 9.428782 4.9012
v 8.437213 8.928621 4.901198
v 8.437213 9.428782 4.9012
vt 0.0508424 0.519772
vt 0.0508424 0.5197719
vt 0.0508424 0.5197719
vt 0.0508424 0.519772
vt 0.0508424 0.519772
vt 0.0508424 0.5197719
vt 0.05084229 0.5197719
vt 0.05084252 0.519772
vt 0.0508424 0.519772
vt 0.0508424 0.5197719
vt 0.05084252 0.5197719
vt 0.0508424 0.519772
vt 0.0508424 0.5197719
vt 0.0508424 0.519772
vt 0.0508424 0.519772
vt 0.0508424 0.5197719
vt 0.8396331 0.8551449
vt 0.8396331 0.8551448
vt 0.8396331 0.8551448
vt 0.8396331 0.8551449
vt 0.8396331 0.8551449
vt 0.8396331 0.8551449
vt 0.8396331 0.8551449
vt 0.8396331 0.8551449
vt 0.8396331 0.8551449
vt 0.8396331 0.855145
vt 0.8396331 0.8551449
vt 0.8396331 0.855145
vt 0.8396332 0.855145
vt 0.8396332 0.855145
vt 0.8396332 0.8551449
vt 0.8396332 0.8551449
vt 0.2909812 0.5226462
vt 0.2909812 0.5226462
vt 0.2909812 0.5226462
vt 0.2909812 0.5226462
vt 0.2909812 0.5226462
vt 0.2909812 0.5226462
vt 0.2909812 0.5226462
vt 0.2909812 0.5226462
vt 0.2909812 0.5226462
vt 0.2909812 0.5226462
vt 0.2909812 0.5226462
vt 0.2909812 0.5226462
vt 0.2909812 0.5226462
vt 0.2909812 0.5226462
vt 0.2909812 0.5226462
vt 0.2909812 0.5226462
vt 0.2909812 0.5226462
vt 0.2909812 0.5226462
vt 0.2909812 0.5226462
vt 0.2909812 0.5226462
vt 0.2909812 0.5226462
vt 0.2909812 0.5226462
vt 0.2909812 0.5226462
vt 0.2909812 0.5226462
vt 0.2909812 0.5226462
vt 0.2909812 0.5226462
vt 0.2909812 0.5226462
vt 0.2909812 0.5226462
vt 0.2909812 0.5226462
vt 0.2909812 0.5226462
vt 0.2909812 0.5226462
vt 0.2909812 0.5226462
vt 0.2909812 0.5226462
vt 0.2909812 0.5226462
vt 0.2909812 0.5226462
vt 0.2909812 0.5226462
vt 0.2909812 0.5226462
vt 0.2909812 0.5226462
vt 0.2909812 0.5226462
vt 0.2909812 0.5226462
vt 0.2909812 0.5226462
vt 0.2909812 0.5226462
vt 0.2909812 0.5226462
vt 0.2909812 0.5226462
vt 0.2909812 0.5226462
vt 0.2909812 0.5226462
vt 0.2909812 0.5226462
vt 0.2909812 0.5226462
vt 0.8378525 0.6316655
vt 0.8378525 0.6316655
vt 0.8378525 0.6316655
vt 0.8378525 0.6316655
vt 0.8378525 0.6316655
vt 0.8378525 0.6316655
vt 0.8378525 0.6316655
vt 0.8378525 0.6316655
vt 0.8378525 0.6316655
vt 0.8378525 0.6316655
vt 0.8378525 0.6316655
vt 0.8378525 0.6316655
vt 0.8378525 0.6316655
vt 0.8378525 0.6316655
vt 0.8378525 0.6316655
vt 0.8378525 0.6316655
vt 0.8378525 0.6316655
vt 0.8378525 0.6316655
vt 0.8378525 0.7345736
vt 0.8378525 0.7345736
vt 0.8378525 0.7345736
vt 0.8378525 0.7345736
vt 0.8378525 0.7345736
vt 0.8378525 0.7345736
vt 0.8378525 0.7345736
vt 0.8378525 0.7345736
vt 0.8378525 0.7345736
vt 0.8378525 0.7345736
vt 0.8378525 0.7345736
vt 0.8378525 0.7345736
vt 0.9688303 0.3101675
vt 0.9688303 0.3101675
vt 0.9688303 0.3101675
vt 0.9688303 0.3101675
vt 0.9688304 0.3101675
vt 0.9688305 0.3101675
vt 0.9688304 0.3101675
vt 0.9688304 0.3101675
vt 0.9688305 0.3101675
vt 0.9688305 0.3101675
vt 0.9688305 0.3101675
vt 0.9688305 0.3101675
vt 0.9688305 0.3101675
vt 0.9688304 0.3101675
vt 0.9688305 0.3101675
vt 0.9688305 0.3101675
vt 0.9429531 0.7504604
vt 0.9429532 0.7389717
vt 0.9429532 0.7389717
vt 0.9429532 0.8375946
vt 0.9429532 0.7504604
vt 0.9429532 0.8375945
vt 0.9429532 0.7389717
vt 0.9429532 0.7389717
vt 0.8378525 0.6316655
vt 0.8378525 0.6316655
vt 0.8378525 0.6316655
vt 0.8378525 0.6316655
vt 0.8378525 0.6316655
vt 0.8378525 0.6316655
vt 0.8378525 0.6316655
vt 0.8378525 0.6316655
vt 0.8378525 0.6316655
vt 0.8378525 0.6316655
vt 0.8378525 0.6316655
vt 0.8378525 0.6316655
vt 0.9462337 0.6316655
vt 0.9462337 0.6316655
vt 0.9462338 0.6316655
vt 0.9462338 0.6316655
vt 0.7380601 0.2990617
vt 0.7380601 0.2990617
vt 0.7380601 0.2990617
vt 0.7380601 0.2990617
vt 0.8369062 0.7374278
vt 0.8369062 0.7374278
vt 0.8369062 0.7374278
vt 0.8369062 0.7374278
vt 0.7024276 0.3032973
vt 0.7024276 0.3032973
vt 0.7024276 0.3032973
vt 0.7024276 0.3032973
vt 0.5096121 0.3271694
vt 0.5096121 0.3271694
vt 0.5096121 0.3271694
vt 0.5096121 0.3271694
vt 0.7268739 0.7345736
vt 0.7268739 0.7345736
vt 0.7268739 0.7345736
vt 0.7268739 0.7345736
vt 0.7268739 0.7345736
vt 0.7268739 0.7345736
vt 0.7268739 0.7345736
vt 0.7268739 0.7345736
vt 0.7268739 0.7345736
vt 0.7268739 0.7345736
vt 0.7268739 0.7345736
vt 0.7268739 0.7345736
vt 0.7268739 0.7345736
vt 0.7268739 0.7345736
vt 0.7268739 0.7345736
vt 0.7268739 0.7345736
vn -0.1072354 0.9936267 -0.03473724
vn -0.09642585 0.9339194 -0.3442333
vn 0.1395862 0.9023083 -0.4078668
vn 0.1436308 0.9885365 0.04653842
vn -0.104159 0.99402 -0.03279185
vn -0.09505423 0.9342275 -0.3437785
vn 0.1350565 0.9042034 -0.4051862
vn 0.1377672 0.9895921 0.04156451
vn -0.1028759 0.9942294 -0.03040447
vn -0.09478832 0.9340217 -0.3444104
vn 0.1311725 0.9062704 -0.4018305
vn 0.1334123 0.9903836 0.03662701
vn 0.1459937 0.9065545 -0.3960365
vn 0.1507537 0.9878111 0.03876242
vn -0.119056 0.992397 -0.0312066
vn -0.1081969 0.9305983 -0.3496861
vn 0.1026514 0.9941612 0.03326086
vn -0.1526986 0.9870342 -0.04946416
vn -0.1072354 0.9936267 -0.03473724
vn 0.1436308 0.9885365 0.04653842
vn 0.1003066 0.9944962 0.03026297
vn -0.1467455 0.9880949 -0.04619896
vn -0.104159 0.99402 -0.03279185
vn 0.1377672 0.9895921 0.04156451
vn 0.09960459 0.9946513 0.02734578
vn -0.1418891 0.9889939 -0.04193445
vn -0.1028759 0.9942294 -0.03040447
vn 0.1334123 0.9903836 0.03662701
vn 0.1507537 0.9878111 0.03876242
vn 0.1149968 0.9929256 0.02956885
vn -0.1584104 0.9864999 -0.04152184
vn -0.119056 0.992397 -0.0312066
vn -0.1526986 0.9870342 -0.04946416
vn -0.9513314 0 -0.3081696
vn -0.9513314 0 -0.3081697
vn -0.1072354 0.9936267 -0.03473724
vn -0.2697362 0 -0.9629343
vn -0.09642585 0.9339194 -0.3442333
vn 0.3237984 0 -0.946126
vn 0.1395862 0.9023083 -0.4078668
vn 0.9513091 0 0.3082384
vn 0.1436308 0.9885365 0.04653842
vn 0.9513091 0 0.3082383
vn 0.1026514 0.9941612 0.03326086
vn -0.1467455 0.9880949 -0.04619896
vn -0.9538463 0 -0.3002953
vn -0.9538463 0 -0.3002954
vn -0.104159 0.99402 -0.03279185
vn -0.2665001 0 -0.9638349
vn -0.09505423 0.9342275 -0.3437785
vn 0.3162172 0 -0.9486868
vn 0.1350565 0.9042034 -0.4051862
vn 0.9573768 0 0.2888423
vn 0.1377672 0.9895921 0.04156451
vn 0.9573768 0 0.2888422
vn 0.1003066 0.9944962 0.03026297
vn -0.1418891 0.9889939 -0.04193445
vn -0.9589939 0 -0.2834267
vn -0.9589939 0 -0.2834268
vn -0.1028759 0.9942294 -0.03040447
vn -0.265354 0 -0.9641511
vn -0.09478832 0.9340217 -0.3444104
vn 0.3103227 0 -0.9506313
vn 0.1311725 0.9062704 -0.4018305
vn 0.9643186 0 0.2647447
vn 0.1334123 0.9903836 0.03662701
vn 0.9643186 0 0.2647446
vn 0.09960459 0.9946513 0.02734578
vn -0.1584104 0.9864999 -0.04152184
vn -0.9673218 0 -0.2535519
vn -0.9673218 0 -0.253552
vn -0.119056 0.992397 -0.0312066
vn -0.2955871 0 -0.9553158
vn -0.1081969 0.9305983 -0.3496861
vn 0.3458848 0 -0.9382769
vn 0.1459937 0.9065545 -0.3960365
vn 0.9684972 0 0.2490246
vn 0.1507537 0.9878111 0.03876242
vn 0.968497 0 0.249025
vn 0.1149968 0.9929256 0.02956885
vn -0.06990736 0.9965734 -0.04420797
vn -0.02612976 0.9748362 -0.2213858
vn -0.3021428 0.9148447 -0.2678973
vn 0 1 0
vn 0.02612976 0.9748362 -0.2213858
vn 0 1 0
vn -0.1657797 0.9861628 -4.562568E-05
vn 0 1 0
vn 0.06990736 0.9965734 -0.04420797
vn 0.3021428 0.9148447 -0.2678973
vn 0 1 0
vn 0.1656094 0.9861914 0.0002945281
vn -0.07568456 0.4755136 -0.8764466
vn -0.02250795 0.9997466 0
vn -0.003510135 0.2453768 -0.9694214
vn 0.02260626 0.9997445 4.120194E-05
vn 0.003505948 0.2479898 -0.9687563
vn 0.07292985 0.4608884 -0.8844564
vn 0.1656094 0.9861914 0.0002945281
vn -0.9454855 0.2782428 -0.169228
vn 0.07292985 0.4608884 -0.8844564
vn 0 1 0
vn -0.2772357 0.3321058 0.9015797
vn 0 1 0
vn 0.2772357 0.3321058 0.9015797
vn 0 1 0
vn 0 1 0
vn 0.9456467 0.2783075 -0.1682181
vn -0.1657797 0.9861628 -4.562568E-05
vn -0.07568456 0.4755136 -0.8764466
vn 0.06990736 0.9965734 -0.04420797
vn 0.1656094 0.9861914 0.0002945281
vn 0.02260626 0.9997445 4.120194E-05
vn 0.02856447 0.9994287 -0.01806347
vn 0.3021428 0.9148447 -0.2678973
vn -0.02250795 0.9997466 0
vn 0.0172767 0.9997334 -0.01531861
vn 0.02612976 0.9748362 -0.2213858
vn -0.02856447 0.9994287 -0.01806347
vn -0.1657797 0.9861628 -4.562568E-05
vn -0.06990736 0.9965734 -0.04420797
vn -0.0172767 0.9997334 -0.01531861
vn -0.3021428 0.9148447 -0.2678973
vn 0.01709657 0.9893058 -0.1448511
vn -0.02612976 0.9748362 -0.2213858
vn -0.01709657 0.9893058 -0.1448511
vn 0.003505948 0.2479898 -0.9687563
vn 0.07292985 0.4608884 -0.8844564
vn -0.9454855 0.2782428 -0.169228
vn -0.5703339 -0.3656747 -0.7355279
vn -0.003510135 0.2453768 -0.9694214
vn 0.5692097 -0.3649539 -0.7367557
vn 0.9456467 0.2783075 -0.1682181
vn -0.07568456 0.4755136 -0.8764466
vn 0.2772357 0.3321058 0.9015797
vn 0.9456467 0.2783075 -0.1682181
vn 0.5692097 -0.3649539 -0.7367557
vn 0.2904567 -0.1530129 0.944575
vn -0.2772357 0.3321058 0.9015797
vn -0.2904567 -0.1530129 0.944575
vn -0.9454855 0.2782428 -0.169228
vn -0.5703339 -0.3656747 -0.7355279
vn -0.04027849 -0.9857062 0.1635873
vn -0.04455041 -0.9824852 -0.1809363
vn 0.04027849 -0.9857062 0.1635873
vn 0.04455041 -0.9824852 -0.1809363
vn -0.03229832 -0.9913986 -0.1268293
vn -0.03229833 -0.9913986 0.1268293
vn 0.03229833 -0.9913986 0.1268292
vn 0.03229832 -0.9913986 -0.1268293
vn -0.04455041 -0.9824852 -0.1809363
vn -0.04027849 -0.9857062 0.1635873
vn -0.03229833 -0.9913986 0.1268293
vn -0.03229832 -0.9913986 -0.1268293
vn -0.04027849 -0.9857062 0.1635873
vn 0.04027849 -0.9857062 0.1635873
vn 0.03229833 -0.9913986 0.1268292
vn -0.03229833 -0.9913986 0.1268293
vn 0.04027849 -0.9857062 0.1635873
vn 0.04455041 -0.9824852 -0.1809363
vn 0.03229832 -0.9913986 -0.1268293
vn 0.03229833 -0.9913986 0.1268292
vn 0.04455041 -0.9824852 -0.1809363
vn -0.04455041 -0.9824852 -0.1809363
vn -0.03229832 -0.9913986 -0.1268293
vn 0.03229832 -0.9913986 -0.1268293
vn -0.2414063 0.9322742 -0.2694212
vn -0.6673239 0 -0.7447676
vn 0.6673239 0 -0.7447676
vn 0.2414063 0.9322742 -0.2694212
vn 0.6673257 0 0.7447659
vn 0.2414062 0.932274 0.2694221
vn -0.6673257 0 0.7447659
vn -0.2414062 0.932274 0.2694221
vn 0.2414063 0.9322742 -0.2694212
vn -0.6673239 0 -0.7447676
vn 0.6673239 0 -0.7447676
vn -0.2414063 0.9322742 -0.2694212
vn -0.6673257 0 0.7447659
vn -0.2414062 0.932274 0.2694221
vn 0.6673257 0 0.7447659
vn 0.2414062 0.932274 0.2694221
g DoorBottom_0
f 3/3/3 2/2/2 1/1/1
f 4/4/4 3/3/3 1/1/1
f 7/7/7 6/6/6 5/5/5
f 8/8/8 7/7/7 5/5/5
f 11/11/11 10/10/10 9/9/9
f 12/12/12 11/11/11 9/9/9
f 15/15/15 14/14/14 13/13/13
f 16/16/16 15/15/15 13/13/13
f 19/19/19 18/18/18 17/17/17
f 20/20/20 19/19/19 17/17/17
f 23/23/23 22/22/22 21/21/21
f 24/24/24 23/23/23 21/21/21
f 27/27/27 26/26/26 25/25/25
f 28/28/28 27/27/27 25/25/25
f 31/31/31 30/30/30 29/29/29
f 32/32/32 31/31/31 29/29/29
f 35/35/35 34/34/34 33/33/33
f 36/36/36 35/35/35 33/33/33
f 37/37/37 35/35/35 36/36/36
f 38/38/38 37/37/37 36/36/36
f 39/39/39 37/37/37 38/38/38
f 40/40/40 39/39/39 38/38/38
f 41/41/41 39/39/39 40/40/40
f 42/42/42 41/41/41 40/40/40
f 43/43/43 41/41/41 42/42/42
f 44/44/44 43/43/43 42/42/42
f 47/47/47 46/46/46 45/45/45
f 48/48/48 47/47/47 45/45/45
f 49/49/49 47/47/47 48/48/48
f 50/50/50 49/49/49 48/48/48
f 51/51/51 49/49/49 50/50/50
f 52/52/52 51/51/51 50/50/50
f 53/53/53 51/51/51 52/52/52
f 54/54/54 53/53/53 52/52/52
f 55/55/55 53/53/53 54/54/54
f 56/56/56 55/55/55 54/54/54
f 59/59/59 58/58/58 57/57/57
f 60/60/60 59/59/59 57/57/57
f 61/61/61 59/59/59 60/60/60
f 62/62/62 61/61/61 60/60/60
f 63/63/63 61/61/61 62/62/62
f 64/64/64 63/63/63 62/62/62
f 65/65/65 63/63/63 64/64/64
f 66/66/66 65/65/65 64/64/64
f 67/67/67 65/65/65 66/66/66
f 68/68/68 67/67/67 66/66/66
f 71/71/71 70/70/70 69/69/69
f 72/72/72 71/71/71 69/69/69
f 73/73/73 71/71/71 72/72/72
f 74/74/74 73/73/73 72/72/72
f 75/75/75 73/73/73 74/74/74
f 76/76/76 75/75/75 74/74/74
f 77/77/77 75/75/75 76/76/76
f 78/78/78 77/77/77 76/76/76
f 79/79/79 77/77/77 78/78/78
f 80/80/80 79/79/79 78/78/78
f 83/83/83 82/82/82 81/81/81
f 82/82/82 84/84/84 81/81/81
f 82/82/82 85/85/85 84/84/84
f 81/81/81 84/84/84 86/86/86
f 87/87/87 81/81/81 86/86/86
f 85/85/85 88/88/88 84/84/84
f 88/88/88 85/85/85 89/89/89
f 85/85/85 90/90/90 89/89/89
f 88/88/88 89/89/89 91/91/91
f 89/89/89 92/92/92 91/91/91
f 94/94/94 87/87/87 93/93/93
f 95/95/95 94/94/94 93/93/93
f 94/94/94 95/95/95 96/96/96
f 95/95/95 97/97/97 96/96/96
f 96/96/96 97/97/97 92/92/92
f 97/97/97 98/98/98 92/92/92
f 101/101/101 100/100/100 99/99/99
f 100/100/100 102/102/102 99/99/99
f 102/102/102 100/100/100 103/103/103
f 104/104/104 102/102/102 103/103/103
f 104/104/104 103/103/103 105/105/105
f 106/106/106 104/104/104 105/105/105
f 107/107/107 106/106/106 105/105/105
f 108/108/108 107/107/107 105/105/105
f 109/109/109 107/107/107 108/108/108
f 110/110/110 109/109/109 108/108/108
f 113/113/113 112/112/112 111/111/111
f 114/114/114 113/113/113 111/111/111
f 114/114/114 111/111/111 115/115/115
f 116/116/116 113/113/113 114/114/114
f 117/117/117 114/114/114 115/115/115
f 117/117/117 115/115/115 118/118/118
f 114/114/114 119/119/119 116/116/116
f 114/114/114 117/117/117 119/119/119
f 116/116/116 119/119/119 120/120/120
f 119/119/119 121/121/121 120/120/120
f 119/119/119 122/122/122 121/121/121
f 117/117/117 122/122/122 119/119/119
f 122/122/122 123/123/123 121/121/121
f 124/124/124 117/117/117 118/118/118
f 117/117/117 124/124/124 122/122/122
f 124/124/124 118/118/118 125/125/125
f 126/126/126 125/125/125 123/123/123
f 122/122/122 126/126/126 123/123/123
f 124/124/124 126/126/126 122/122/122
f 126/126/126 124/124/124 125/125/125
f 129/129/129 128/128/128 127/127/127
f 130/130/130 129/129/129 127/127/127
f 127/127/127 131/131/131 130/130/130
f 131/131/131 132/132/132 130/130/130
f 132/132/132 131/131/131 133/133/133
f 131/131/131 134/134/134 133/133/133
f 137/137/137 136/136/136 135/135/135
f 138/138/138 137/137/137 135/135/135
f 138/138/138 135/135/135 139/139/139
f 140/140/140 138/138/138 139/139/139
f 140/140/140 139/139/139 141/141/141
f 142/142/142 140/140/140 141/141/141
f 143/143/143 137/137/137 138/138/138
f 144/144/144 143/143/143 138/138/138
f 144/144/144 138/138/138 140/140/140
f 143/143/143 145/145/145 137/137/137
f 145/145/145 142/142/142 137/137/137
f 146/146/146 144/144/144 140/140/140
f 146/146/146 140/140/140 142/142/142
f 145/145/145 146/146/146 142/142/142
f 149/149/149 148/148/148 147/147/147
f 150/150/150 149/149/149 147/147/147
f 153/153/153 152/152/152 151/151/151
f 154/154/154 153/153/153 151/151/151
f 157/157/157 156/156/156 155/155/155
f 158/158/158 157/157/157 155/155/155
f 161/161/161 160/160/160 159/159/159
f 162/162/162 161/161/161 159/159/159
f 165/165/165 164/164/164 163/163/163
f 166/166/166 165/165/165 163/163/163
f 169/169/169 168/168/168 167/167/167
f 170/170/170 169/169/169 167/167/167
f 171/171/171 169/169/169 170/170/170
f 172/172/172 171/171/171 170/170/170
f 172/172/172 170/170/170 167/167/167
f 173/173/173 171/171/171 172/172/172
f 168/168/168 173/173/173 174/174/174
f 167/167/167 168/168/168 174/174/174
f 174/174/174 172/172/172 167/167/167
f 174/174/174 173/173/173 172/172/172
f 177/177/177 176/176/176 175/175/175
f 176/176/176 178/178/178 175/175/175
f 176/176/176 179/179/179 178/178/178
f 179/179/179 180/180/180 178/178/178
f 178/178/178 180/180/180 175/175/175
f 179/179/179 181/181/181 180/180/180
f 177/177/177 175/175/175 182/182/182
f 180/180/180 182/182/182 175/175/175
f 181/181/181 182/182/182 180/180/180
f 181/181/181 177/177/177 182/182/182
