g DroneFans
v 4.445615 -0.8306183 2.643116
v 3.533778 -0.8306183 2.623901
v 0.8264992 -0.2521542 0.8917171
v 5.953278 -0.1096896 0.5871943
v 0.8470021 0.08399017 -0.08126877
v 0.8655067 0.3873703 -0.9594194
v 5.89624 0.4621152 -1.069859
v 4.862716 0.8306183 -2.158763
v -2.6239 -0.8306183 3.533779
v -0.8917149 -0.2521542 0.8264986
v 0.0812709 0.08399017 0.8470015
v -0.5871934 -0.1096896 5.953279
v -2.643114 -0.8306183 4.445615
v 0.9594203 0.3873703 0.8655074
v 2.158762 0.8306183 4.862716
v 1.06986 0.4621152 5.89624
v -5.953279 -0.1096896 -0.587194
v -4.445617 -0.8306183 -2.643114
v -3.533778 -0.8306183 -2.623899
v -0.8264976 -0.2521542 -0.8917143
v -0.8470005 0.08399017 0.08127151
v -5.89624 0.4621152 1.069859
v -0.8655064 0.3873703 0.9594209
v -4.862716 0.8306183 2.158762
v 2.623899 -0.8306183 -3.533778
v 0.8917152 -0.2521542 -0.826497
v -0.0812706 0.08399017 -0.8469999
v 2.643114 -0.8306183 -4.445615
v 0.5871937 -0.1096896 -5.953279
v -1.069859 0.4621152 -5.896241
v -2.158761 0.8306183 -4.862715
v -0.95942 0.3873703 -0.8655058
vt 0.9674861 0.4990977
vt 0.9674861 0.4679719
vt 0.9407697 0.4090109
vt 0.922698 0.5363966
vt 0.9111651 0.4090109
vt 0.8844458 0.4090109
vt 0.8831999 0.5363966
vt 0.8584171 0.4958568
vt 0.9674861 0.4679719
vt 0.9407697 0.4090109
vt 0.9111651 0.4090109
vt 0.922698 0.5363966
vt 0.9674861 0.4990977
vt 0.8844458 0.4090109
vt 0.8584171 0.4958568
vt 0.8831999 0.5363966
vt 0.922698 0.5363966
vt 0.9674861 0.4990977
vt 0.9674861 0.4679719
vt 0.9407697 0.4090109
vt 0.9111651 0.4090109
vt 0.8831999 0.5363966
vt 0.8844458 0.4090109
vt 0.8584171 0.4958568
vt 0.9674861 0.4679719
vt 0.9407697 0.4090109
vt 0.9111651 0.4090109
vt 0.9674861 0.4990977
vt 0.922698 0.5363966
vt 0.8831999 0.5363966
vt 0.8584171 0.4958568
vt 0.8844458 0.4090109
vn -0.006877979 0.945206 0.3264019
vn -0.006877979 0.945206 0.3264019
vn -0.006877979 0.945206 0.3264019
vn -0.006877976 0.945206 0.3264019
vn -0.006877976 0.9452061 0.3264019
vn -0.006877973 0.9452061 0.3264018
vn -0.006877972 0.9452061 0.3264018
vn -0.006877973 0.9452061 0.3264018
vn -0.326402 0.945206 -0.006877981
vn -0.326402 0.945206 -0.006877981
vn -0.326402 0.945206 -0.006877957
vn -0.326402 0.945206 -0.006877956
vn -0.326402 0.945206 -0.006877981
vn -0.326402 0.945206 -0.006877937
vn -0.326402 0.945206 -0.006877937
vn -0.326402 0.945206 -0.006877938
vn 0.006878084 0.945206 -0.3264021
vn 0.006878064 0.945206 -0.3264021
vn 0.006878065 0.945206 -0.3264021
vn 0.006878065 0.945206 -0.3264021
vn 0.006878083 0.945206 -0.3264021
vn 0.006878098 0.945206 -0.3264021
vn 0.006878097 0.945206 -0.3264021
vn 0.006878098 0.945206 -0.3264021
vn 0.3264019 0.945206 0.006877976
vn 0.3264019 0.945206 0.006877976
vn 0.326402 0.945206 0.006877976
vn 0.3264019 0.945206 0.006877976
vn 0.326402 0.945206 0.006877975
vn 0.3264021 0.945206 0.006877976
vn 0.3264021 0.945206 0.006877976
vn 0.326402 0.945206 0.006877976
g DroneFans_0
f 3/3/3 2/2/2 1/1/1
f 3/3/3 1/1/1 4/4/4
f 4/4/4 5/5/5 3/3/3
f 6/6/6 5/5/5 4/4/4
f 6/6/6 4/4/4 7/7/7
f 7/7/7 8/8/8 6/6/6
f 11/11/11 10/10/10 9/9/9
f 9/9/9 12/12/12 11/11/11
f 9/9/9 13/13/13 12/12/12
f 14/14/14 11/11/11 12/12/12
f 12/12/12 15/15/15 14/14/14
f 12/12/12 16/16/16 15/15/15
f 19/19/19 18/18/18 17/17/17
f 17/17/17 20/20/20 19/19/19
f 17/17/17 21/21/21 20/20/20
f 21/21/21 17/17/17 22/22/22
f 22/22/22 23/23/23 21/21/21
f 22/22/22 24/24/24 23/23/23
f 27/27/27 26/26/26 25/25/25
f 27/27/27 25/25/25 28/28/28
f 28/28/28 29/29/29 27/27/27
f 27/27/27 29/29/29 30/30/30
f 30/30/30 31/31/31 27/27/27
f 31/31/31 32/32/32 27/27/27
