g DroneBodyLV5
v 3.581565 7.106149 9.882876
v 3.581565 7.106149 6.726457
v 3.581565 4.450193 6.726457
v 3.581565 4.450193 9.882876
v 2.703375 4.450193 10.77048
v 2.703375 7.106149 10.77048
v -2.703375 7.106149 10.77048
v -2.703375 4.450193 10.77048
v -3.581565 4.450193 9.882876
v -3.581565 7.106149 9.882876
v -3.581565 7.106149 6.726457
v -3.581565 4.450193 6.726457
v -2.703375 4.450193 5.838852
v -2.703375 7.106149 5.838852
v 2.703375 7.106149 5.838852
v 2.703375 4.450193 5.838852
v 3.581565 4.450193 6.726457
v 3.581565 7.106149 6.726457
v -3.581565 7.106149 6.726457
v -2.703375 7.106149 5.838852
v 2.703375 7.106149 5.838852
v 3.581565 7.106149 6.726457
v -3.581565 7.106149 9.882876
v 3.581565 7.106149 9.882876
v -2.703375 7.106149 10.77048
v 2.703375 7.106149 10.77048
v 3.581565 4.450193 6.726457
v 2.703375 4.450193 5.838852
v -2.703375 4.450193 5.838852
v -3.581565 4.450193 6.726457
v 3.581565 4.450193 9.882876
v -3.581565 4.450193 9.882876
v 2.703375 4.450193 10.77048
v -2.703375 4.450193 10.77048
v -6.257857 6.479005 1.774433
v -3.848614 6.598926 9.311682
v -4.490199 5.382266 8.477122
v -3.982734 7.695666 1.952907
v -7.268746 6.479005 -7.69647
v -7.067039 6.479005 -8.150398
v -3.982734 7.695666 -9.599893
v 1.225326E-08 7.695666 1.952907
v 1.225326E-08 6.598926 9.311682
v -2.735129 7.816414 0.4059632
v 1.225326E-08 7.816414 0.4708442
v 1.225326E-08 7.816414 -9.599893
v -2.646976 7.816414 -9.599893
v 1.225326E-08 6.971521 -11.52897
v -3.093281 6.971521 -11.52897
v -3.668416 7.277909 -11.06419
v -3.093281 4.144203 -11.52897
v 1.225326E-08 4.144203 -11.52897
v 1.225326E-08 6.971521 -11.52897
v -3.093281 6.971521 -11.52897
v -3.668416 4.144203 -11.06419
v -3.668416 7.277909 -11.06419
v -3.982734 7.695666 -9.599893
v -3.982734 4.144203 -9.599893
v -7.067039 6.479005 -8.150398
v -7.067039 4.144203 -8.150398
v -7.268746 4.144203 -7.69647
v -7.268746 6.479005 -7.69647
v -6.257857 6.479005 1.774433
v -6.257857 4.144203 1.774433
v -4.336321 4.144203 9.311682
v -4.490199 5.382266 8.477122
v -3.848614 6.598926 9.311682
v -3.848614 4.144203 9.311682
v 1.225326E-08 6.598926 9.311682
v 1.225326E-08 4.144203 9.311682
v 6.257857 6.479005 1.774433
v 4.490199 5.382266 8.477122
v 3.848614 6.598926 9.311682
v 3.982734 7.695666 1.952907
v 7.268746 6.479005 -7.69647
v 7.067039 6.479005 -8.150398
v 3.982734 7.695666 -9.599893
v 1.225326E-08 7.695666 1.952907
v 1.225326E-08 6.598926 9.311682
v 2.735129 7.816414 0.4059632
v 1.225326E-08 7.816414 0.4708442
v 1.225326E-08 7.816414 -9.599893
v 2.646976 7.816414 -9.599893
v 1.225326E-08 6.971521 -11.52897
v 3.093281 6.971521 -11.52897
v 3.668416 7.277909 -11.06419
v 3.093281 4.144203 -11.52897
v 1.225326E-08 6.971521 -11.52897
v 1.225326E-08 4.144203 -11.52897
v 3.093281 6.971521 -11.52897
v 3.668416 4.144203 -11.06419
v 3.668416 7.277909 -11.06419
v 3.982734 7.695666 -9.599893
v 3.982734 4.144203 -9.599893
v 7.067039 6.479005 -8.150398
v 7.067039 4.144203 -8.150398
v 7.268746 4.144203 -7.69647
v 7.268746 6.479005 -7.69647
v 6.257857 6.479005 1.774433
v 6.257857 4.144203 1.774433
v 4.336321 4.144203 9.311682
v 4.490199 5.382266 8.477122
v 3.848614 6.598926 9.311682
v 3.848614 4.144203 9.311682
v 1.225326E-08 6.598926 9.311682
v 1.225326E-08 4.144203 9.311682
v 3.668416 4.144203 -11.06419
v 3.093281 4.144203 -11.52897
v 1.225326E-08 4.144203 -11.52897
v -3.093281 4.144203 -11.52897
v -3.668416 4.144203 -11.06419
v 3.982734 4.144203 -9.599893
v -3.982734 4.144203 -9.599893
v 7.067039 4.144203 -8.150398
v -7.067039 4.144203 -8.150398
v 7.268746 4.144203 -7.69647
v -7.268746 4.144203 -7.69647
v 6.257857 4.144203 1.774433
v -6.257857 4.144203 1.774433
v 4.336321 4.144203 9.311682
v -4.336321 4.144203 9.311682
v 3.848614 4.144203 9.311682
v -4.336321 4.144203 9.311682
v 1.225326E-08 4.144203 9.311682
v 3.848614 4.144203 9.311682
v -3.848614 4.144203 9.311682
v 1.089939 -0.1607827 -1.887829
v 1.089939 4.74685 -1.887829
v -1.089938 4.74685 -1.887829
v -1.089938 -0.1607827 -1.887829
v -2.179877 4.74685 -5.30074E-07
v -2.179877 -0.1607827 -5.30074E-07
v -1.089939 4.74685 1.887828
v -1.089939 -0.1607827 1.887828
v 1.089938 4.74685 1.887828
v 1.089938 -0.1607827 1.887828
v 2.179877 4.74685 8.027755E-08
v 2.179877 -0.1607827 8.027755E-08
v 1.089939 4.74685 -1.887829
v 1.089939 -0.1607827 -1.887829
v -1.089938 -0.1607827 -1.887829
v 1.225326E-08 -0.1607827 8.027755E-08
v 1.089939 -0.1607827 -1.887829
v -2.179877 -0.1607827 -5.30074E-07
v 2.179877 -0.1607827 8.027755E-08
v -1.089939 -0.1607827 1.887828
v 1.089938 -0.1607827 1.887828
v 1.089939 4.74685 -1.887829
v 1.225326E-08 4.74685 8.027755E-08
v -1.089938 4.74685 -1.887829
v 2.179877 4.74685 8.027755E-08
v -2.179877 4.74685 -5.30074E-07
v 1.089938 4.74685 1.887828
v -1.089939 4.74685 1.887828
vt 0.2480424 0.218835
vt 0.2120388 0.2188524
vt 0.2120495 0.2857301
vt 0.2480532 0.2857127
vt 0.2636314 0.2857051
vt 0.2636207 0.2188275
vt 0.3365141 0.2187922
vt 0.3365248 0.2856699
vt 0.3521031 0.2856623
vt 0.3520924 0.2187846
vt 0.3880961 0.2187672
vt 0.3881068 0.2856449
vt 0.4036851 0.2856373
vt 0.4036744 0.2187597
vt 0.4765678 0.2187244
vt 0.4765785 0.285602
vt 0.4921568 0.2855945
vt 0.492146 0.2187169
vt 0.3488419 0.1694834
vt 0.3852789 0.1994424
vt 0.6095897 0.1994192
vt 0.6460199 0.1694526
vt 0.34883 0.06293202
vt 0.646008 0.06290129
vt 0.3852601 0.0329654
vt 0.609571 0.03294218
vt 0.9255936 0.06681427
vt 0.9108688 0.08403787
vt 0.9108816 0.1900675
vt 0.9256105 0.2072876
vt 0.9779641 0.06680802
vt 0.9779809 0.2072813
vt 0.9926929 0.08402804
vt 0.9927056 0.1900577
vt 0.2617722 0.5015307
vt 0.02533265 0.5195018
vt 0.04560822 0.499049
vt 0.2570258 0.518244
vt 0.5573759 0.5000933
vt 0.5716029 0.5061969
vt 0.6167794 0.5182976
vt 0.2560349 0.6423079
vt 0.02392864 0.6394443
vt 0.3050532 0.5573198
vt 0.3026587 0.6425239
vt 0.6168672 0.6426124
vt 0.6165847 0.5601
vt 0.6826687 0.6420835
vt 0.6819338 0.5454654
vt 0.6645403 0.5274925
vt 0.1022526 0.9915951
vt 0.01706237 0.9915951
vt 0.01706237 0.9581861
vt 0.1022526 0.9581861
vt 0.1226 0.9915951
vt 0.1226 0.9581861
vt 0.1638219 0.9581861
vt 0.1638219 0.9915951
vt 0.2577476 0.9581861
vt 0.2577476 0.9915951
vt 0.2714275 0.9915951
vt 0.2714275 0.9581861
vt 0.5337416 0.9581861
vt 0.5337416 0.9915951
vt 0.7451764 0.9915951
vt 0.7451764 0.9581861
vt 0.775378 0.9581861
vt 0.775378 0.9915951
vt 0.8569432 0.9581861
vt 0.8569432 0.9915951
vt 0.2617722 0.5015307
vt 0.04560822 0.499049
vt 0.02533265 0.5195018
vt 0.2570258 0.518244
vt 0.5573759 0.5000933
vt 0.5716029 0.5061969
vt 0.6167794 0.5182976
vt 0.2560349 0.6423079
vt 0.02392864 0.6394443
vt 0.3050532 0.5573198
vt 0.3026587 0.6425239
vt 0.6168672 0.6426124
vt 0.6165847 0.5601
vt 0.6826687 0.6420835
vt 0.6819338 0.5454654
vt 0.6645403 0.5274925
vt 0.1022526 0.9915951
vt 0.01706237 0.9581861
vt 0.01706237 0.9915951
vt 0.1022526 0.9581861
vt 0.1226 0.9915951
vt 0.1226 0.9581861
vt 0.1638219 0.9581861
vt 0.1638219 0.9915951
vt 0.2577476 0.9581861
vt 0.2577476 0.9915951
vt 0.2714275 0.9915951
vt 0.2714275 0.9581861
vt 0.5337416 0.9581861
vt 0.5337416 0.9915951
vt 0.7451764 0.9915951
vt 0.7451764 0.9581861
vt 0.775378 0.9581861
vt 0.775378 0.9915951
vt 0.8569432 0.9581861
vt 0.8569432 0.9915951
vt 0.8727096 0.06439018
vt 0.8687578 0.06138144
vt 0.8479895 0.06198276
vt 0.827221 0.06258412
vt 0.8234499 0.06581648
vt 0.8751046 0.07416045
vt 0.8216242 0.07570896
vt 0.8960946 0.08329283
vt 0.8011978 0.08604047
vt 0.8975371 0.08630132
vt 0.7999318 0.08912738
vt 0.8925911 0.1500858
vt 0.8085601 0.1525189
vt 0.881155 0.2010648
vt 0.8229266 0.2027507
vt 0.8778806 0.2011596
vt 0.8229266 0.2027507
vt 0.8520408 0.2019077
vt 0.8778806 0.2011596
vt 0.826201 0.2026559
vt 0.7772382 0.05283476
vt 0.8488109 0.05283476
vt 0.8488109 0.04490215
vt 0.7772382 0.04490215
vt 0.8488109 0.03696952
vt 0.7772382 0.03696952
vt 0.8488109 0.02903686
vt 0.7772382 0.02903686
vt 0.8488109 0.02110424
vt 0.7772382 0.02110424
vt 0.8488109 0.01317162
vt 0.7772382 0.01317162
vt 0.8488109 0.00523896
vt 0.7772382 0.00523896
vt 0.8748973 0.007437258
vt 0.8892543 0.03115558
vt 0.9036112 0.007437258
vt 0.8605404 0.03230413
vt 0.917968 0.03230413
vt 0.8748973 0.05717101
vt 0.9036112 0.05717101
vt 0 0
vt 0 0
vt 0 0
vt 0 0
vt 0 0
vt 0 0
vt 0 0
vn 0.2067866 0.9773551 0.0449053
vn 0.2067865 0.9773551 -0.04490521
vn 0.2067865 -0.9773551 -0.04490529
vn 0.2067866 -0.9773551 0.04490523
vn 0.04425168 -0.9486106 0.3133364
vn 0.04425168 0.9486106 0.3133365
vn -0.04425168 0.9486106 0.3133365
vn -0.04425168 -0.9486106 0.3133364
vn -0.2067866 -0.9773551 0.04490523
vn -0.2067866 0.9773551 0.0449053
vn -0.2067865 0.9773551 -0.04490521
vn -0.2067865 -0.9773551 -0.04490529
vn -0.04425162 -0.9486106 -0.3133365
vn -0.04425162 0.9486106 -0.3133364
vn 0.04425162 0.9486106 -0.3133364
vn 0.04425162 -0.9486106 -0.3133365
vn 0.2067865 -0.9773551 -0.04490529
vn 0.2067865 0.9773551 -0.04490521
vn -0.2067865 0.9773551 -0.04490521
vn -0.04425162 0.9486106 -0.3133364
vn 0.04425162 0.9486106 -0.3133364
vn 0.2067865 0.9773551 -0.04490521
vn -0.2067866 0.9773551 0.0449053
vn 0.2067866 0.9773551 0.0449053
vn -0.04425168 0.9486106 0.3133365
vn 0.04425168 0.9486106 0.3133365
vn 0.2067865 -0.9773551 -0.04490529
vn 0.04425162 -0.9486106 -0.3133365
vn -0.04425162 -0.9486106 -0.3133365
vn -0.2067865 -0.9773551 -0.04490529
vn 0.2067866 -0.9773551 0.04490523
vn -0.2067866 -0.9773551 0.04490523
vn 0.04425168 -0.9486106 0.3133364
vn -0.04425168 -0.9486106 0.3133364
vn -0.7927675 0.5981925 0.1169845
vn -0.1760855 0.8983394 0.4024677
vn -0.8859639 0.3754558 0.2722151
vn -0.2791225 0.9553522 0.09691572
vn -0.6653801 0.7454262 0.04011469
vn -0.4849943 0.8508868 -0.2019212
vn -0.42949 0.8826228 -0.1910898
vn 0 0.9905372 0.1372442
vn 0 0.9026107 0.4304578
vn -0.03639167 0.9992872 0.01003874
vn 0 0.9999162 0.01294869
vn 0 0.9972367 -0.0742895
vn -0.02635821 0.9974043 -0.06700658
vn 0 0.4440912 -0.8959815
vn -0.1171863 0.398532 -0.9096371
vn -0.8414524 0.3226724 -0.4334055
vn -0.003608739 -0.9996222 -0.02724856
vn 0 -0.9993626 -0.03569863
vn 0 0.4440912 -0.8959815
vn -0.1171863 0.398532 -0.9096371
vn -0.01636286 -0.9998401 -0.007204094
vn -0.8414524 0.3226724 -0.4334055
vn -0.42949 0.8826228 -0.1910898
vn -0.02643511 -0.9992232 -0.02922722
vn -0.4849943 0.8508868 -0.2019212
vn -0.0140659 -0.9995831 -0.0252179
vn -0.05671553 -0.9983797 0.00462409
vn -0.6653801 0.7454262 0.04011469
vn -0.7927675 0.5981925 0.1169845
vn -0.07387231 -0.9971957 0.01198347
vn -0.03109281 -0.9994538 0.01118873
vn -0.8859639 0.3754558 0.2722151
vn -0.1760855 0.8983394 0.4024677
vn -0.002092251 -0.9997662 0.02152218
vn 0 0.9026107 0.4304578
vn 0 -0.9992563 0.03855836
vn 0.7927675 0.5981925 0.1169845
vn 0.8859639 0.3754558 0.2722151
vn 0.1760855 0.8983394 0.4024676
vn 0.2791224 0.9553522 0.09691569
vn 0.66538 0.7454262 0.04011468
vn 0.4849942 0.8508869 -0.2019211
vn 0.42949 0.8826228 -0.1910897
vn 0 0.9905372 0.1372442
vn 0 0.9026107 0.4304578
vn 0.03639168 0.9992872 0.01003873
vn 0 0.9999162 0.01294869
vn 0 0.9972367 -0.0742895
vn 0.02635821 0.9974043 -0.06700655
vn 0 0.4440912 -0.8959815
vn 0.1171863 0.3985321 -0.909637
vn 0.8414524 0.3226724 -0.4334055
vn 0.003608739 -0.9996222 -0.02724856
vn 0 0.4440912 -0.8959815
vn 0 -0.9993626 -0.03569863
vn 0.1171863 0.3985321 -0.909637
vn 0.01636285 -0.9998401 -0.007204095
vn 0.8414524 0.3226724 -0.4334055
vn 0.42949 0.8826228 -0.1910897
vn 0.02643511 -0.9992232 -0.02922722
vn 0.4849942 0.8508869 -0.2019211
vn 0.0140659 -0.9995831 -0.0252179
vn 0.05671553 -0.9983797 0.00462409
vn 0.66538 0.7454262 0.04011468
vn 0.7927675 0.5981925 0.1169845
vn 0.07387231 -0.9971957 0.01198347
vn 0.03109281 -0.9994538 0.01118873
vn 0.8859639 0.3754558 0.2722151
vn 0.1760855 0.8983394 0.4024676
vn 0.002092253 -0.9997662 0.02152217
vn 0 0.9026107 0.4304578
vn 0 -0.9992563 0.03855836
vn 0.01636285 -0.9998401 -0.007204095
vn 0.003608739 -0.9996222 -0.02724856
vn 0 -0.9993626 -0.03569863
vn -0.003608739 -0.9996222 -0.02724856
vn -0.01636286 -0.9998401 -0.007204094
vn 0.02643511 -0.9992232 -0.02922722
vn -0.02643511 -0.9992232 -0.02922722
vn 0.0140659 -0.9995831 -0.0252179
vn -0.0140659 -0.9995831 -0.0252179
vn 0.05671553 -0.9983797 0.00462409
vn -0.05671553 -0.9983797 0.00462409
vn 0.07387231 -0.9971957 0.01198347
vn -0.07387231 -0.9971957 0.01198347
vn 0.03109281 -0.9994538 0.01118873
vn -0.03109281 -0.9994538 0.01118873
vn 0.002092253 -0.9997662 0.02152217
vn -0.03109281 -0.9994538 0.01118873
vn 0 -0.9992563 0.03855836
vn 0.002092253 -0.9997662 0.02152217
vn -0.002092251 -0.9997662 0.02152218
vn 0.4946082 -0.1464636 -0.8566861
vn 0.4946082 0.1464636 -0.8566861
vn -0.494608 0.1464636 -0.8566862
vn -0.494608 -0.1464636 -0.8566862
vn -0.989216 0.1464636 -1.593118E-07
vn -0.989216 -0.1464636 -1.593118E-07
vn -0.494608 0.1464636 0.8566862
vn -0.494608 -0.1464636 0.8566862
vn 0.4946078 0.1464636 0.8566863
vn 0.4946078 -0.1464636 0.8566863
vn 0.989216 0.1464636 1.062078E-07
vn 0.989216 -0.1464636 1.062078E-07
vn 0.4946082 0.1464636 -0.8566861
vn 0.4946082 -0.1464636 -0.8566861
vn -0.494608 -0.1464636 -0.8566862
vn 0 -1 0
vn 0.4946082 -0.1464636 -0.8566861
vn -0.989216 -0.1464636 -1.593118E-07
vn 0.989216 -0.1464636 1.062078E-07
vn -0.494608 -0.1464636 0.8566862
vn 0.4946078 -0.1464636 0.8566863
vn 0.4946082 0.1464636 -0.8566861
vn 0 1 0
vn -0.494608 0.1464636 -0.8566862
vn 0.989216 0.1464636 1.062078E-07
vn -0.989216 0.1464636 -1.593118E-07
vn 0.4946078 0.1464636 0.8566863
vn -0.494608 0.1464636 0.8566862
g DroneBodyLV5_0
f 3/3/3 2/2/2 1/1/1
f 4/4/4 3/3/3 1/1/1
f 4/4/4 1/1/1 5/5/5
f 1/1/1 6/6/6 5/5/5
f 5/5/5 6/6/6 7/7/7
f 8/8/8 5/5/5 7/7/7
f 8/8/8 7/7/7 9/9/9
f 7/7/7 10/10/10 9/9/9
f 9/9/9 10/10/10 11/11/11
f 12/12/12 9/9/9 11/11/11
f 13/13/13 12/12/12 11/11/11
f 14/14/14 13/13/13 11/11/11
f 14/14/14 15/15/15 13/13/13
f 15/15/15 16/16/16 13/13/13
f 17/17/17 16/16/16 15/15/15
f 18/18/18 17/17/17 15/15/15
f 21/21/21 20/20/20 19/19/19
f 19/19/19 22/22/22 21/21/21
f 19/19/19 23/23/23 22/22/22
f 23/23/23 24/24/24 22/22/22
f 23/23/23 25/25/25 24/24/24
f 25/25/25 26/26/26 24/24/24
f 29/29/29 28/28/28 27/27/27
f 27/27/27 30/30/30 29/29/29
f 27/27/27 31/31/31 30/30/30
f 31/31/31 32/32/32 30/30/30
f 31/31/31 33/33/33 32/32/32
f 33/33/33 34/34/34 32/32/32
f 37/37/37 36/36/36 35/35/35
f 36/36/36 38/38/38 35/35/35
f 39/39/39 35/35/35 38/38/38
f 40/40/40 39/39/39 38/38/38
f 38/38/38 41/41/41 40/40/40
f 42/42/42 38/38/38 36/36/36
f 43/43/43 42/42/42 36/36/36
f 38/38/38 42/42/42 44/44/44
f 42/42/42 45/45/45 44/44/44
f 44/44/44 45/45/45 46/46/46
f 38/38/38 44/44/44 47/47/47
f 47/47/47 44/44/44 46/46/46
f 41/41/41 38/38/38 47/47/47
f 46/46/46 48/48/48 47/47/47
f 48/48/48 49/49/49 47/47/47
f 41/41/41 47/47/47 49/49/49
f 50/50/50 41/41/41 49/49/49
f 53/53/53 52/52/52 51/51/51
f 54/54/54 53/53/53 51/51/51
f 51/51/51 55/55/55 54/54/54
f 55/55/55 56/56/56 54/54/54
f 56/56/56 55/55/55 57/57/57
f 55/55/55 58/58/58 57/57/57
f 59/59/59 57/57/57 58/58/58
f 60/60/60 59/59/59 58/58/58
f 60/60/60 61/61/61 59/59/59
f 61/61/61 62/62/62 59/59/59
f 62/62/62 61/61/61 63/63/63
f 61/61/61 64/64/64 63/63/63
f 63/63/63 64/64/64 65/65/65
f 66/66/66 63/63/63 65/65/65
f 66/66/66 65/65/65 67/67/67
f 65/65/65 68/68/68 67/67/67
f 67/67/67 68/68/68 69/69/69
f 68/68/68 70/70/70 69/69/69
f 73/73/73 72/72/72 71/71/71
f 74/74/74 73/73/73 71/71/71
f 74/74/74 71/71/71 75/75/75
f 74/74/74 75/75/75 76/76/76
f 76/76/76 77/77/77 74/74/74
f 74/74/74 78/78/78 73/73/73
f 78/78/78 79/79/79 73/73/73
f 78/78/78 74/74/74 80/80/80
f 81/81/81 78/78/78 80/80/80
f 81/81/81 80/80/80 82/82/82
f 80/80/80 74/74/74 83/83/83
f 80/80/80 83/83/83 82/82/82
f 74/74/74 77/77/77 83/83/83
f 84/84/84 82/82/82 83/83/83
f 85/85/85 84/84/84 83/83/83
f 83/83/83 77/77/77 85/85/85
f 77/77/77 86/86/86 85/85/85
f 89/89/89 88/88/88 87/87/87
f 88/88/88 90/90/90 87/87/87
f 91/91/91 87/87/87 90/90/90
f 92/92/92 91/91/91 90/90/90
f 91/91/91 92/92/92 93/93/93
f 94/94/94 91/91/91 93/93/93
f 93/93/93 95/95/95 94/94/94
f 95/95/95 96/96/96 94/94/94
f 97/97/97 96/96/96 95/95/95
f 98/98/98 97/97/97 95/95/95
f 97/97/97 98/98/98 99/99/99
f 100/100/100 97/97/97 99/99/99
f 100/100/100 99/99/99 101/101/101
f 99/99/99 102/102/102 101/101/101
f 101/101/101 102/102/102 103/103/103
f 104/104/104 101/101/101 103/103/103
f 104/104/104 103/103/103 105/105/105
f 106/106/106 104/104/104 105/105/105
f 109/109/109 108/108/108 107/107/107
f 107/107/107 110/110/110 109/109/109
f 107/107/107 111/111/111 110/110/110
f 107/107/107 112/112/112 111/111/111
f 112/112/112 113/113/113 111/111/111
f 112/112/112 114/114/114 113/113/113
f 114/114/114 115/115/115 113/113/113
f 114/114/114 116/116/116 115/115/115
f 116/116/116 117/117/117 115/115/115
f 116/116/116 118/118/118 117/117/117
f 118/118/118 119/119/119 117/117/117
f 118/118/118 120/120/120 119/119/119
f 120/120/120 121/121/121 119/119/119
f 120/120/120 122/122/122 121/121/121
f 125/125/125 124/124/124 123/123/123
f 124/124/124 126/126/126 123/123/123
f 129/129/129 128/128/128 127/127/127
f 130/130/130 129/129/129 127/127/127
f 131/131/131 129/129/129 130/130/130
f 132/132/132 131/131/131 130/130/130
f 133/133/133 131/131/131 132/132/132
f 134/134/134 133/133/133 132/132/132
f 135/135/135 133/133/133 134/134/134
f 136/136/136 135/135/135 134/134/134
f 137/137/137 135/135/135 136/136/136
f 138/138/138 137/137/137 136/136/136
f 139/139/139 137/137/137 138/138/138
f 140/140/140 139/139/139 138/138/138
f 143/143/143 142/142/142 141/141/141
f 141/141/141 142/142/142 144/144/144
f 145/145/145 142/142/142 143/143/143
f 144/144/144 142/142/142 146/146/146
f 147/147/147 142/142/142 145/145/145
f 146/146/146 142/142/142 147/147/147
f 150/150/150 149/149/149 148/148/148
f 148/148/148 149/149/149 151/151/151
f 152/152/152 149/149/149 150/150/150
f 151/151/151 149/149/149 153/153/153
f 154/154/154 149/149/149 152/152/152
f 153/153/153 149/149/149 154/154/154
