g DroneBodyLV12
v 3.754409 6.495569 -1.83473
v 3.905206 6.91679 -9.955483
v 8.720675 5.968655 -4.643679
v -3.754409 6.495569 -1.83473
v -8.720675 5.968655 -4.643679
v -3.905206 6.91679 -9.955483
v 12.49193 5.167513 -4.059818
v 12.49193 5.167513 0.5795126
v 8.534146 5.968656 2.79645
v 8.720675 5.968655 -4.643679
v 3.567744 5.969306 5.220796
v 3.754409 6.495569 -1.83473
v 8.350982 4.44109 -4.563827
v 12.12224 3.639947 0.5795126
v 12.12224 3.639946 -3.903548
v 8.166501 4.44109 2.835334
v 3.200101 4.326149 5.25968
v 3.535513 4.983995 -9.955483
v 3.200101 4.326149 5.25968
v 3.567744 5.969306 5.220796
v 8.534146 5.968656 2.79645
v 8.166501 4.44109 2.835334
v 12.12224 3.639947 0.5795126
v 12.49193 5.167513 0.5795126
v 12.12224 3.639946 -3.903548
v 12.49193 5.167513 -4.059818
v 8.350982 4.44109 -4.563827
v 8.720675 5.968655 -4.643679
v 3.535513 4.983995 -9.955483
v 3.905206 6.91679 -9.955483
v 3.581565 7.337156 9.48277
v 3.581565 7.337156 6.32635
v 3.581565 4.681201 6.32635
v 3.581565 4.681201 9.48277
v 2.703375 4.681201 10.37037
v 2.703375 7.337156 10.37037
v -2.703375 7.337156 10.37037
v -2.703375 4.681201 10.37037
v -3.581565 4.681201 9.48277
v -3.581565 7.337156 9.48277
v -3.581565 7.337156 6.32635
v -3.581565 4.681201 6.32635
v -2.703375 4.681201 5.438745
v -2.703375 7.337156 5.438745
v 2.703375 7.337156 5.438745
v 2.703375 4.681201 5.438745
v 3.581565 4.681201 6.32635
v 3.581565 7.337156 6.32635
v -3.581565 7.337156 6.32635
v -2.703375 7.337156 5.438745
v 2.703375 7.337156 5.438745
v 3.581565 7.337156 6.32635
v -3.581565 7.337156 9.48277
v 3.581565 7.337156 9.48277
v -2.703375 7.337156 10.37037
v 2.703375 7.337156 10.37037
v 3.581565 4.681201 6.32635
v 2.703375 4.681201 5.438745
v -2.703375 4.681201 5.438745
v -3.581565 4.681201 6.32635
v 3.581565 4.681201 9.48277
v -3.581565 4.681201 9.48277
v 2.703375 4.681201 10.37037
v -2.703375 4.681201 10.37037
v -3.982734 7.926673 -10.00649
v -3.982734 7.926673 1.5528
v -4.728899 6.128359 4.439501
v -4.728896 6.710012 -8.911851
v -4.728899 6.128359 4.439501
v -3.982734 7.926673 1.5528
v -3.848614 6.829933 8.911574
v -4.349057 6.154027 6.154083
v -3.093281 4.375211 -11.92908
v 0 4.375211 -11.92908
v 0 7.202528 -11.92908
v -3.093281 7.202528 -11.92908
v -3.668416 4.375211 -11.4643
v -3.668416 7.508916 -11.4643
v -3.982734 7.926673 -10.00649
v -3.982734 4.375211 -10.00649
v -4.728896 6.710012 -8.911851
v -4.728896 4.375211 -8.911851
v -4.728899 6.128359 4.439501
v -4.728899 4.375211 4.439501
v -4.200016 4.375211 6.988642
v -4.349057 6.154027 6.154083
v -3.848614 6.829933 8.911574
v -3.848614 4.375211 8.911574
v 0 6.829933 8.911574
v 0 4.375211 8.911574
v -3.848614 6.829933 8.911574
v 0 7.926673 1.5528
v 0 6.829933 8.911574
v -3.982734 7.926673 1.5528
v -2.735129 8.047421 0.005856323
v 0 8.047421 0.0707373
v 0 8.047421 -10
v -2.646976 8.047421 -10
v 0 7.202528 -11.92908
v -3.982734 7.926673 -10.00649
v -3.093281 7.202528 -11.92908
v -3.668416 7.508916 -11.4643
v 3.982734 7.926673 -10.00649
v 4.690222 6.710012 -8.911851
v 4.690223 6.128359 4.439501
v 3.982734 7.926673 1.5528
v 4.690223 6.128359 4.439501
v 4.349057 6.154027 6.154083
v 3.848614 6.829933 8.911574
v 3.982734 7.926673 1.5528
v 3.093281 4.375211 -11.92908
v 0 7.202528 -11.92908
v 0 4.375211 -11.92908
v 3.093281 7.202528 -11.92908
v 3.668416 4.375211 -11.4643
v 3.668416 7.508916 -11.4643
v 3.982734 7.926673 -10.00649
v 3.982734 4.375211 -10.00649
v 4.690222 6.710012 -8.911851
v 4.690222 4.375211 -8.911851
v 4.690223 4.375211 4.439501
v 4.690223 6.128359 4.439501
v 4.200016 4.375211 6.988642
v 4.349057 6.154027 6.154083
v 3.848614 6.829933 8.911574
v 3.848614 4.375211 8.911574
v 0 6.829933 8.911574
v 0 4.375211 8.911574
v 3.848614 6.829933 8.911574
v 0 6.829933 8.911574
v 0 7.926673 1.5528
v 3.982734 7.926673 1.5528
v 2.735129 8.047421 0.005856323
v 0 8.047421 0.0707373
v 0 8.047421 -10
v 2.646976 8.047421 -10
v 0 7.202528 -11.92908
v 3.982734 7.926673 -10.00649
v 3.093281 7.202528 -11.92908
v 3.668416 7.508916 -11.4643
v 3.668416 4.375211 -11.4643
v 3.093281 4.375211 -11.92908
v 0 4.375211 -11.92908
v -3.093281 4.375211 -11.92908
v -3.668416 4.375211 -11.4643
v 3.982734 4.375211 -10.00649
v -3.982734 4.375211 -10.00649
v 4.690222 4.375211 -8.911851
v -4.728896 4.375211 -8.911851
v 4.690223 4.375211 4.439501
v -4.728899 4.375211 4.439501
v 4.200016 4.375211 6.988642
v -4.200016 4.375211 6.988642
v 3.848614 4.375211 8.911574
v -4.200016 4.375211 6.988642
v -3.848614 4.375211 8.911574
v 3.848614 4.375211 8.911574
v 0 4.375211 8.911574
v 1.089939 0.07022528 -2.287936
v 1.089939 4.977858 -2.287936
v -1.089938 4.977858 -2.287936
v -1.089938 0.07022528 -2.287936
v -2.179877 4.977858 -0.4001074
v -2.179877 0.07022528 -0.4001074
v -1.089939 4.977858 1.487722
v -1.089939 0.07022528 1.487722
v 1.089938 4.977858 1.487722
v 1.089938 0.07022528 1.487722
v 2.179877 4.977858 -0.4001068
v 2.179877 0.07022528 -0.4001068
v 1.089939 4.977858 -2.287936
v 1.089939 0.07022528 -2.287936
v -12.49193 5.167513 -4.059818
v -8.534146 5.968656 2.79645
v -12.49193 5.167513 0.5795126
v -8.720675 5.968655 -4.643679
v -3.567744 5.969306 5.220796
v -3.754409 6.495569 -1.83473
v -8.350982 4.44109 -4.563827
v -12.12224 3.639946 -3.903548
v -12.12224 3.639947 0.5795126
v -8.166501 4.44109 2.835334
v -3.200101 4.326149 5.25968
v -3.535513 4.983995 -9.955483
v -3.200101 4.326149 5.25968
v -8.534146 5.968656 2.79645
v -3.567744 5.969306 5.220796
v -8.166501 4.44109 2.835334
v -12.12224 3.639947 0.5795126
v -12.49193 5.167513 0.5795126
v -12.12224 3.639946 -3.903548
v -12.49193 5.167513 -4.059818
v -8.350982 4.44109 -4.563827
v -8.720675 5.968655 -4.643679
v -3.535513 4.983995 -9.955483
v -3.905206 6.91679 -9.955483
v -1.089938 0.07022528 -2.287936
v 0 0.07022528 -0.4001068
v 1.089939 0.07022528 -2.287936
v -2.179877 0.07022528 -0.4001074
v 2.179877 0.07022528 -0.4001068
v -1.089939 0.07022528 1.487722
v 1.089938 0.07022528 1.487722
v 1.089939 4.977858 -2.287936
v 0 4.977858 -0.4001068
v -1.089938 4.977858 -2.287936
v 2.179877 4.977858 -0.4001068
v -2.179877 4.977858 -0.4001074
v 1.089938 4.977858 1.487722
v -1.089939 4.977858 1.487722
vt 0.4608153 0.4978452
vt 0.5574655 0.4978735
vt 0.4951786 0.5170857
vt 0.4608153 0.4978452
vt 0.4951786 0.5170857
vt 0.5574655 0.4978735
vt 0.5716599 0.5491513
vt 0.5468958 0.5491513
vt 0.5444339 0.5398095
vt 0.5760167 0.5398095
vt 0.5384738 0.521888
vt 0.5676395 0.5218965
vt 0.4951786 0.5170857
vt 0.3757238 0.555406
vt 0.4773068 0.555406
vt 0.3656245 0.5170857
vt 0.3411762 0.4978102
vt 0.5574655 0.4978735
vt 0.008814968 0.8508162
vt 0.008814968 0.8887179
vt 0.04335722 0.8887179
vt 0.04335722 0.8508162
vt 0.08153836 0.8508162
vt 0.08153836 0.8887179
vt 0.1439548 0.8508162
vt 0.1439548 0.8887179
vt 0.1828954 0.8508162
vt 0.1828954 0.8887179
vt 0.2316609 0.8508162
vt 0.2316609 0.8887179
vt 0.2480424 0.218835
vt 0.2120388 0.2188524
vt 0.2120495 0.2857301
vt 0.2480532 0.2857127
vt 0.2636314 0.2857051
vt 0.2636207 0.2188275
vt 0.3365141 0.2187922
vt 0.3365248 0.2856699
vt 0.3521031 0.2856623
vt 0.3520924 0.2187846
vt 0.3880961 0.2187672
vt 0.3881068 0.2856449
vt 0.4036851 0.2856373
vt 0.4036744 0.2187597
vt 0.4765678 0.2187244
vt 0.4765785 0.285602
vt 0.4921568 0.2855945
vt 0.492146 0.2187169
vt 0.3455241 0.1700607
vt 0.3825071 0.201679
vt 0.6101795 0.2016545
vt 0.6471557 0.1700282
vt 0.345512 0.05760818
vt 0.6471437 0.05757575
vt 0.3824881 0.02598189
vt 0.6101605 0.02595739
vt 0.9255936 0.06681427
vt 0.9108688 0.08403787
vt 0.9108816 0.1900675
vt 0.9256105 0.2072876
vt 0.9779641 0.06680802
vt 0.9779809 0.2072813
vt 0.9926929 0.08402804
vt 0.9927056 0.1900577
vt 0.4954762 0.5513679
vt 0.3839467 0.551351
vt 0.3854415 0.5260379
vt 0.4812486 0.5187992
vt 0.4757946 0.5230176
vt 0.4742998 0.5483305
vt 0.4013316 0.5487267
vt 0.4077171 0.5342613
vt 0.1022526 0.9915951
vt 0.01706237 0.9915951
vt 0.01706237 0.9583369
vt 0.1022526 0.9583369
vt 0.1226 0.9915951
vt 0.1226 0.9583369
vt 0.1638219 0.9583369
vt 0.1638219 0.9915951
vt 0.2577476 0.9583369
vt 0.2577476 0.9915951
vt 0.5337416 0.9583369
vt 0.5337416 0.9915951
vt 0.7451764 0.9915951
vt 0.7451764 0.9583369
vt 0.775378 0.9583369
vt 0.775378 0.9915951
vt 0.8569432 0.9583369
vt 0.8569432 0.9915951
vt 0.02533265 0.5195018
vt 0.2560349 0.6423079
vt 0.02392864 0.6394443
vt 0.2626435 0.518244
vt 0.3050532 0.5573198
vt 0.3026587 0.6425239
vt 0.6168672 0.6426124
vt 0.6165847 0.5601
vt 0.6826687 0.6420835
vt 0.6167794 0.5182976
vt 0.6819338 0.5454654
vt 0.6645403 0.5274925
vt 0.4954762 0.5513679
vt 0.4812486 0.5187992
vt 0.3854415 0.5260379
vt 0.3839467 0.551351
vt 0.4757946 0.5230176
vt 0.4077171 0.5342613
vt 0.4013316 0.5487267
vt 0.4742998 0.5483305
vt 0.1022526 0.9915951
vt 0.01706237 0.9583369
vt 0.01706237 0.9915951
vt 0.1022526 0.9583369
vt 0.1226 0.9915951
vt 0.1226 0.9583369
vt 0.1638219 0.9583369
vt 0.1638219 0.9915951
vt 0.2577476 0.9583369
vt 0.2577476 0.9915951
vt 0.5337416 0.9915951
vt 0.5337416 0.9583369
vt 0.7451764 0.9915951
vt 0.7451764 0.9583369
vt 0.775378 0.9583369
vt 0.775378 0.9915951
vt 0.8569432 0.9583369
vt 0.8569432 0.9915951
vt 0.02533265 0.5195018
vt 0.02392864 0.6394443
vt 0.2560349 0.6423079
vt 0.2626435 0.518244
vt 0.3050532 0.5573198
vt 0.3026587 0.6425239
vt 0.6168672 0.6426124
vt 0.6165847 0.5601
vt 0.6826687 0.6420835
vt 0.6167794 0.5182976
vt 0.6819338 0.5454654
vt 0.6645403 0.5274925
vt 0.8727096 0.06439018
vt 0.8687578 0.06138144
vt 0.8479895 0.06198276
vt 0.827221 0.06258412
vt 0.8234499 0.06581648
vt 0.8751046 0.07416045
vt 0.8216242 0.07570896
vt 0.8960946 0.08329283
vt 0.8011978 0.08604047
vt 0.8925911 0.1500858
vt 0.8085601 0.1525189
vt 0.881155 0.2010648
vt 0.8229266 0.2027507
vt 0.8778806 0.2011596
vt 0.8229266 0.2027507
vt 0.826201 0.2026559
vt 0.8778806 0.2011596
vt 0.8520408 0.2019077
vt 0.7772382 0.05283476
vt 0.8488109 0.05283476
vt 0.8488109 0.04490215
vt 0.7772382 0.04490215
vt 0.8488109 0.03696952
vt 0.7772382 0.03696952
vt 0.8488109 0.02903686
vt 0.7772382 0.02903686
vt 0.8488109 0.02110424
vt 0.7772382 0.02110424
vt 0.8488109 0.01317162
vt 0.7772382 0.01317162
vt 0.8488109 0.00523896
vt 0.7772382 0.00523896
vt 0.5716599 0.5491513
vt 0.5444339 0.5398095
vt 0.5468958 0.5491513
vt 0.5760167 0.5398095
vt 0.5384738 0.521888
vt 0.5676395 0.5218965
vt 0.4951786 0.5170857
vt 0.4773068 0.555406
vt 0.3757238 0.555406
vt 0.3656245 0.5170857
vt 0.3411762 0.4978102
vt 0.5574655 0.4978735
vt 0.008814968 0.8508162
vt 0.04335722 0.8887179
vt 0.008814968 0.8887179
vt 0.04335722 0.8508162
vt 0.08153836 0.8508162
vt 0.08153836 0.8887179
vt 0.1439548 0.8508162
vt 0.1439548 0.8887179
vt 0.1828954 0.8508162
vt 0.1828954 0.8887179
vt 0.2316609 0.8508162
vt 0.2316609 0.8887179
vt 0.8748973 0.007437258
vt 0.8892543 0.03115558
vt 0.9036112 0.007437258
vt 0.8605404 0.03230413
vt 0.917968 0.03230413
vt 0.8748973 0.05717101
vt 0.9036112 0.05717101
vt 0 0
vt 0 0
vt 0 0
vt 0 0
vt 0 0
vt 0 0
vt 0 0
vn 0.08675237 0.9953632 0.04154514
vn 0.6922839 0.4890674 -0.5306185
vn 0.2952182 0.9333196 -0.2043541
vn -0.08675236 0.9953632 0.04154512
vn -0.2952182 0.9333196 -0.2043541
vn -0.692284 0.4890675 -0.5306184
vn 0.4673292 0.8566771 -0.2184209
vn 0.4996099 0.8454978 0.1884766
vn 0.2108316 0.948462 0.2365793
vn 0.2952182 0.9333196 -0.2043541
vn 0.231836 0.8995172 0.3702983
vn 0.08675237 0.9953632 0.04154514
vn 0.02819194 -0.9868751 -0.1590054
vn 0.1239211 -0.9740179 0.1895593
vn 0.1045107 -0.9708562 -0.2156755
vn 0.02338932 -0.9892789 0.1441538
vn 0.04863584 -0.9890442 0.1393782
vn 0.2569212 -0.9210359 -0.2927191
vn 0.04863584 -0.9890442 0.1393782
vn 0.231836 0.8995172 0.3702983
vn 0.2108316 0.948462 0.2365793
vn 0.02338932 -0.9892789 0.1441538
vn 0.1239211 -0.9740179 0.1895593
vn 0.4996099 0.8454978 0.1884766
vn 0.1045107 -0.9708562 -0.2156755
vn 0.4673292 0.8566771 -0.2184209
vn 0.02819194 -0.9868751 -0.1590054
vn 0.2952182 0.9333196 -0.2043541
vn 0.2569212 -0.9210359 -0.2927191
vn 0.6922839 0.4890674 -0.5306185
vn 0.2067866 0.9773551 0.04490529
vn 0.2067866 0.9773551 -0.04490525
vn 0.2067866 -0.9773551 -0.04490525
vn 0.2067866 -0.9773551 0.04490529
vn 0.04425165 -0.9486106 0.3133365
vn 0.04425165 0.9486106 0.3133365
vn -0.04425165 0.9486106 0.3133365
vn -0.04425165 -0.9486106 0.3133365
vn -0.2067866 -0.9773551 0.04490529
vn -0.2067866 0.9773551 0.04490529
vn -0.2067866 0.9773551 -0.04490525
vn -0.2067866 -0.9773551 -0.04490525
vn -0.04425165 -0.9486106 -0.3133364
vn -0.04425165 0.9486106 -0.3133364
vn 0.04425165 0.9486106 -0.3133364
vn 0.04425165 -0.9486106 -0.3133364
vn 0.2067866 -0.9773551 -0.04490525
vn 0.2067866 0.9773551 -0.04490525
vn -0.2067866 0.9773551 -0.04490525
vn -0.04425165 0.9486106 -0.3133364
vn 0.04425165 0.9486106 -0.3133364
vn 0.2067866 0.9773551 -0.04490525
vn -0.2067866 0.9773551 0.04490529
vn 0.2067866 0.9773551 0.04490529
vn -0.04425165 0.9486106 0.3133365
vn 0.04425165 0.9486106 0.3133365
vn 0.2067866 -0.9773551 -0.04490525
vn 0.04425165 -0.9486106 -0.3133364
vn -0.04425165 -0.9486106 -0.3133364
vn -0.2067866 -0.9773551 -0.04490525
vn 0.2067866 -0.9773551 0.04490529
vn -0.2067866 -0.9773551 0.04490529
vn 0.04425165 -0.9486106 0.3133365
vn -0.04425165 -0.9486106 0.3133365
vn -0.6452897 0.7586734 -0.0895321
vn -0.5098529 0.8564764 0.08061101
vn -0.9859947 0.1619483 0.03984028
vn -0.9727606 0.2264758 -0.04945055
vn -0.9859947 0.1619483 0.03984028
vn -0.5098529 0.8564764 0.08061101
vn -0.1715611 0.8835192 0.4358449
vn -0.9543349 0.2594724 0.1480511
vn -0.004704432 -0.9993579 -0.03552181
vn 0 -0.998917 -0.04652905
vn 0 0.4440912 -0.8959815
vn -0.117117 0.3984124 -0.9096984
vn -0.02125269 -0.9997301 -0.00938938
vn -0.8406309 0.3230393 -0.4347245
vn -0.6452897 0.7586734 -0.0895321
vn -0.02456608 -0.9996496 -0.009853381
vn -0.9727606 0.2264758 -0.04945055
vn -0.09986221 -0.9949753 -0.007187553
vn -0.9859947 0.1619483 0.03984028
vn -0.08813715 -0.9961057 0.002279629
vn -0.02478891 -0.9996815 0.004735356
vn -0.9543349 0.2594724 0.1480511
vn -0.1715611 0.8835192 0.4358449
vn -0.0242977 -0.9984798 0.04947594
vn 0 0.9026107 0.4304579
vn 0 -0.9987366 0.05025263
vn -0.1715611 0.8835192 0.4358449
vn 0 0.9905372 0.1372442
vn 0 0.9026107 0.4304579
vn -0.5098529 0.8564764 0.08061101
vn -0.03639819 0.9992869 0.01003749
vn 0 0.9999162 0.01294866
vn 0 0.9972367 -0.0742895
vn -0.02639752 0.9974093 -0.06691712
vn 0 0.4440912 -0.8959815
vn -0.6452897 0.7586734 -0.0895321
vn -0.117117 0.3984124 -0.9096984
vn -0.8406309 0.3230393 -0.4347245
vn 0.6491452 0.7555324 -0.08821173
vn 0.9753405 0.2156221 -0.04709509
vn 0.9871301 0.1554928 0.03736288
vn 0.5157791 0.8528835 0.08100406
vn 0.9871301 0.1554928 0.03736288
vn 0.9575438 0.2513601 0.1411657
vn 0.171687 0.8834695 0.4358959
vn 0.5157791 0.8528835 0.08100406
vn 0.004704433 -0.9993579 -0.03552181
vn 0 0.4440912 -0.8959815
vn 0 -0.998917 -0.04652905
vn 0.1171171 0.3984124 -0.9096984
vn 0.02125269 -0.9997301 -0.009389376
vn 0.8406309 0.3230392 -0.4347243
vn 0.6491452 0.7555324 -0.08821173
vn 0.02434964 -0.9996591 -0.009424163
vn 0.9753405 0.2156221 -0.04709509
vn 0.09891828 -0.9950727 -0.006750588
vn 0.08770091 -0.9961447 0.002075498
vn 0.9871301 0.1554928 0.03736288
vn 0.02467192 -0.999685 0.004582248
vn 0.9575438 0.2513601 0.1411657
vn 0.171687 0.8834695 0.4358959
vn 0.0242977 -0.9984798 0.04947594
vn 0 0.9026107 0.4304579
vn 0 -0.9987366 0.05025263
vn 0.171687 0.8834695 0.4358959
vn 0 0.9026107 0.4304579
vn 0 0.9905372 0.1372442
vn 0.5157791 0.8528835 0.08100406
vn 0.03639818 0.9992869 0.01003749
vn 0 0.9999162 0.01294866
vn 0 0.9972367 -0.0742895
vn 0.02639752 0.9974093 -0.06691712
vn 0 0.4440912 -0.8959815
vn 0.6491452 0.7555324 -0.08821173
vn 0.1171171 0.3984124 -0.9096984
vn 0.8406309 0.3230392 -0.4347243
vn 0.02125269 -0.9997301 -0.009389376
vn 0.004704433 -0.9993579 -0.03552181
vn 0 -0.998917 -0.04652905
vn -0.004704432 -0.9993579 -0.03552181
vn -0.02125269 -0.9997301 -0.00938938
vn 0.02434964 -0.9996591 -0.009424163
vn -0.02456608 -0.9996496 -0.009853381
vn 0.09891828 -0.9950727 -0.006750588
vn -0.09986221 -0.9949753 -0.007187553
vn 0.08770091 -0.9961447 0.002075498
vn -0.08813715 -0.9961057 0.002279629
vn 0.02467192 -0.999685 0.004582248
vn -0.02478891 -0.9996815 0.004735356
vn 0.0242977 -0.9984798 0.04947594
vn -0.02478891 -0.9996815 0.004735356
vn -0.0242977 -0.9984798 0.04947594
vn 0.0242977 -0.9984798 0.04947594
vn 0 -0.9987366 0.05025263
vn 0.4946081 -0.1464637 -0.8566862
vn 0.4946081 0.1464637 -0.8566862
vn -0.4946078 0.1464636 -0.8566863
vn -0.4946078 -0.1464636 -0.8566863
vn -0.989216 0.1464636 -1.858638E-07
vn -0.989216 -0.1464636 -1.858638E-07
vn -0.4946082 0.1464636 0.8566862
vn -0.4946082 -0.1464636 0.8566862
vn 0.494608 0.1464636 0.8566862
vn 0.494608 -0.1464636 0.8566862
vn 0.989216 0.1464636 1.062078E-07
vn 0.989216 -0.1464636 1.062078E-07
vn 0.4946081 0.1464637 -0.8566862
vn 0.4946081 -0.1464637 -0.8566862
vn -0.4673292 0.8566771 -0.2184209
vn -0.2108316 0.948462 0.2365793
vn -0.4996098 0.8454978 0.1884767
vn -0.2952182 0.9333196 -0.2043541
vn -0.231836 0.8995172 0.3702983
vn -0.08675236 0.9953632 0.04154512
vn -0.02819192 -0.9868751 -0.1590054
vn -0.1045107 -0.9708562 -0.2156754
vn -0.123921 -0.974018 0.1895593
vn -0.0233893 -0.9892789 0.1441538
vn -0.04863584 -0.9890442 0.1393782
vn -0.2569212 -0.9210359 -0.292719
vn -0.04863584 -0.9890442 0.1393782
vn -0.2108316 0.948462 0.2365793
vn -0.231836 0.8995172 0.3702983
vn -0.0233893 -0.9892789 0.1441538
vn -0.123921 -0.974018 0.1895593
vn -0.4996098 0.8454978 0.1884767
vn -0.1045107 -0.9708562 -0.2156754
vn -0.4673292 0.8566771 -0.2184209
vn -0.02819192 -0.9868751 -0.1590054
vn -0.2952182 0.9333196 -0.2043541
vn -0.2569212 -0.9210359 -0.292719
vn -0.692284 0.4890675 -0.5306184
vn -0.4946078 -0.1464636 -0.8566863
vn 0 -1 0
vn 0.4946081 -0.1464637 -0.8566862
vn -0.989216 -0.1464636 -1.858638E-07
vn 0.989216 -0.1464636 1.062078E-07
vn -0.4946082 -0.1464636 0.8566862
vn 0.494608 -0.1464636 0.8566862
vn 0.4946081 0.1464637 -0.8566862
vn 0 1 0
vn -0.4946078 0.1464636 -0.8566863
vn 0.989216 0.1464636 1.062078E-07
vn -0.989216 0.1464636 -1.858638E-07
vn 0.494608 0.1464636 0.8566862
vn -0.4946082 0.1464636 0.8566862
g DroneBodyLV12_0
f 3/3/3 2/2/2 1/1/1
f 6/6/6 5/5/5 4/4/4
f 9/9/9 8/8/8 7/7/7
f 10/10/10 9/9/9 7/7/7
f 11/11/11 9/9/9 10/10/10
f 12/12/12 11/11/11 10/10/10
f 15/15/15 14/14/14 13/13/13
f 14/14/14 16/16/16 13/13/13
f 13/13/13 16/16/16 17/17/17
f 18/18/18 13/13/13 17/17/17
f 21/21/21 20/20/20 19/19/19
f 22/22/22 21/21/21 19/19/19
f 22/22/22 23/23/23 21/21/21
f 23/23/23 24/24/24 21/21/21
f 24/24/24 23/23/23 25/25/25
f 26/26/26 24/24/24 25/25/25
f 25/25/25 27/27/27 26/26/26
f 27/27/27 28/28/28 26/26/26
f 27/27/27 29/29/29 28/28/28
f 29/29/29 30/30/30 28/28/28
f 33/33/33 32/32/32 31/31/31
f 34/34/34 33/33/33 31/31/31
f 34/34/34 31/31/31 35/35/35
f 31/31/31 36/36/36 35/35/35
f 35/35/35 36/36/36 37/37/37
f 38/38/38 35/35/35 37/37/37
f 38/38/38 37/37/37 39/39/39
f 37/37/37 40/40/40 39/39/39
f 39/39/39 40/40/40 41/41/41
f 42/42/42 39/39/39 41/41/41
f 43/43/43 42/42/42 41/41/41
f 44/44/44 43/43/43 41/41/41
f 44/44/44 45/45/45 43/43/43
f 45/45/45 46/46/46 43/43/43
f 47/47/47 46/46/46 45/45/45
f 48/48/48 47/47/47 45/45/45
f 51/51/51 50/50/50 49/49/49
f 49/49/49 52/52/52 51/51/51
f 49/49/49 53/53/53 52/52/52
f 53/53/53 54/54/54 52/52/52
f 53/53/53 55/55/55 54/54/54
f 55/55/55 56/56/56 54/54/54
f 59/59/59 58/58/58 57/57/57
f 57/57/57 60/60/60 59/59/59
f 57/57/57 61/61/61 60/60/60
f 61/61/61 62/62/62 60/60/60
f 61/61/61 63/63/63 62/62/62
f 63/63/63 64/64/64 62/62/62
f 67/67/67 66/66/66 65/65/65
f 68/68/68 67/67/67 65/65/65
f 71/71/71 70/70/70 69/69/69
f 72/72/72 71/71/71 69/69/69
f 75/75/75 74/74/74 73/73/73
f 76/76/76 75/75/75 73/73/73
f 73/73/73 77/77/77 76/76/76
f 77/77/77 78/78/78 76/76/76
f 78/78/78 77/77/77 79/79/79
f 77/77/77 80/80/80 79/79/79
f 81/81/81 79/79/79 80/80/80
f 82/82/82 81/81/81 80/80/80
f 81/81/81 82/82/82 83/83/83
f 82/82/82 84/84/84 83/83/83
f 83/83/83 84/84/84 85/85/85
f 86/86/86 83/83/83 85/85/85
f 86/86/86 85/85/85 87/87/87
f 85/85/85 88/88/88 87/87/87
f 87/87/87 88/88/88 89/89/89
f 88/88/88 90/90/90 89/89/89
f 93/93/93 92/92/92 91/91/91
f 92/92/92 94/94/94 91/91/91
f 94/94/94 92/92/92 95/95/95
f 92/92/92 96/96/96 95/95/95
f 95/95/95 96/96/96 97/97/97
f 94/94/94 95/95/95 98/98/98
f 98/98/98 95/95/95 97/97/97
f 97/97/97 99/99/99 98/98/98
f 100/100/100 94/94/94 98/98/98
f 99/99/99 101/101/101 98/98/98
f 100/100/100 98/98/98 101/101/101
f 102/102/102 100/100/100 101/101/101
f 105/105/105 104/104/104 103/103/103
f 106/106/106 105/105/105 103/103/103
f 109/109/109 108/108/108 107/107/107
f 110/110/110 109/109/109 107/107/107
f 113/113/113 112/112/112 111/111/111
f 112/112/112 114/114/114 111/111/111
f 115/115/115 111/111/111 114/114/114
f 116/116/116 115/115/115 114/114/114
f 115/115/115 116/116/116 117/117/117
f 118/118/118 115/115/115 117/117/117
f 117/117/117 119/119/119 118/118/118
f 119/119/119 120/120/120 118/118/118
f 121/121/121 120/120/120 119/119/119
f 122/122/122 121/121/121 119/119/119
f 121/121/121 122/122/122 123/123/123
f 122/122/122 124/124/124 123/123/123
f 123/123/123 124/124/124 125/125/125
f 126/126/126 123/123/123 125/125/125
f 126/126/126 125/125/125 127/127/127
f 128/128/128 126/126/126 127/127/127
f 131/131/131 130/130/130 129/129/129
f 132/132/132 131/131/131 129/129/129
f 131/131/131 132/132/132 133/133/133
f 134/134/134 131/131/131 133/133/133
f 134/134/134 133/133/133 135/135/135
f 133/133/133 132/132/132 136/136/136
f 133/133/133 136/136/136 135/135/135
f 137/137/137 135/135/135 136/136/136
f 132/132/132 138/138/138 136/136/136
f 139/139/139 137/137/137 136/136/136
f 136/136/136 138/138/138 139/139/139
f 138/138/138 140/140/140 139/139/139
f 143/143/143 142/142/142 141/141/141
f 141/141/141 144/144/144 143/143/143
f 141/141/141 145/145/145 144/144/144
f 141/141/141 146/146/146 145/145/145
f 146/146/146 147/147/147 145/145/145
f 146/146/146 148/148/148 147/147/147
f 148/148/148 149/149/149 147/147/147
f 148/148/148 150/150/150 149/149/149
f 150/150/150 151/151/151 149/149/149
f 150/150/150 152/152/152 151/151/151
f 152/152/152 153/153/153 151/151/151
f 152/152/152 154/154/154 153/153/153
f 157/157/157 156/156/156 155/155/155
f 157/157/157 158/158/158 156/156/156
f 161/161/161 160/160/160 159/159/159
f 162/162/162 161/161/161 159/159/159
f 163/163/163 161/161/161 162/162/162
f 164/164/164 163/163/163 162/162/162
f 165/165/165 163/163/163 164/164/164
f 166/166/166 165/165/165 164/164/164
f 167/167/167 165/165/165 166/166/166
f 168/168/168 167/167/167 166/166/166
f 169/169/169 167/167/167 168/168/168
f 170/170/170 169/169/169 168/168/168
f 171/171/171 169/169/169 170/170/170
f 172/172/172 171/171/171 170/170/170
f 175/175/175 174/174/174 173/173/173
f 174/174/174 176/176/176 173/173/173
f 174/174/174 177/177/177 176/176/176
f 177/177/177 178/178/178 176/176/176
f 181/181/181 180/180/180 179/179/179
f 182/182/182 181/181/181 179/179/179
f 182/182/182 179/179/179 183/183/183
f 179/179/179 184/184/184 183/183/183
f 187/187/187 186/186/186 185/185/185
f 186/186/186 188/188/188 185/185/185
f 189/189/189 188/188/188 186/186/186
f 190/190/190 189/189/189 186/186/186
f 189/189/189 190/190/190 191/191/191
f 190/190/190 192/192/192 191/191/191
f 193/193/193 191/191/191 192/192/192
f 194/194/194 193/193/193 192/192/192
f 195/195/195 193/193/193 194/194/194
f 196/196/196 195/195/195 194/194/194
f 199/199/199 198/198/198 197/197/197
f 197/197/197 198/198/198 200/200/200
f 201/201/201 198/198/198 199/199/199
f 200/200/200 198/198/198 202/202/202
f 203/203/203 198/198/198 201/201/201
f 202/202/202 198/198/198 203/203/203
f 206/206/206 205/205/205 204/204/204
f 204/204/204 205/205/205 207/207/207
f 208/208/208 205/205/205 206/206/206
f 207/207/207 205/205/205 209/209/209
f 210/210/210 205/205/205 208/208/208
f 209/209/209 205/205/205 210/210/210
