g DroneWingsLV16
v -1.927882 2.62886 -0.3908776
v 1.302233 2.62886 -15.60125
v 1.821265 2.62886 -0.6545421
v -1.636422 2.62886 -15.60125
v -1.636422 0.92438 -15.60125
v -1.927882 0.92438 -0.3908776
v 1.821265 0.92438 -0.6545421
v 1.302233 0.92438 -15.60125
v 1.821265 2.62886 -0.6545421
v 1.302233 2.62886 -15.60125
v 3.637704 1.910703 -16.82255
v 3.637704 4.856839 -16.82255
v 2.588401 4.856839 -19.51487
v 2.588401 1.910703 -19.51487
v -0.05732678 4.856839 -20.67666
v -0.05732678 1.910703 -20.67666
v -2.749643 4.856839 -19.62735
v -2.749643 1.910703 -19.62735
v -3.911431 4.856839 -16.98163
v -3.911431 1.910703 -16.98163
v -2.862128 4.856839 -14.28931
v -2.862128 1.910703 -14.28931
v -0.2164025 4.856839 -13.12752
v -0.2164025 1.910703 -13.12752
v 2.475917 4.856839 -14.17682
v 2.475917 1.910703 -14.17682
v 3.637704 4.856839 -16.82255
v 3.637704 1.910703 -16.82255
v 2.600266 1.098493 -16.84441
v 2.749737 5.796548 -16.84126
v 1.947284 5.796548 -18.90022
v 1.839363 1.098493 -18.79675
v -0.07603779 5.796548 -19.78869
v -0.07918431 1.098493 -19.63922
v -2.134988 5.796548 -18.98624
v -2.031523 1.098493 -18.87832
v -3.023465 5.796548 -16.96292
v -2.873992 1.098493 -16.95977
v -2.221013 5.796548 -14.90397
v -2.113091 1.098493 -15.00743
v -0.197691 5.796548 -14.01549
v -0.1945417 1.098493 -14.16496
v 1.861259 5.796548 -14.81795
v 1.757794 1.098493 -14.92586
v 2.749737 5.796548 -16.84126
v 2.600266 1.098493 -16.84441
v 7.08 2.022568 -14.80442
v 9.109859 2.022568 -19.17208
v 7.161957 2.022568 -18.69389
v 9.006027 2.022568 -14.24459
v 9.109859 4.135392 -19.17208
v 5.064283 2.022568 -11.47702
v 9.006027 4.135392 -14.24459
v 6.452363 2.022568 -10.02918
v 1.654929 2.022568 -9.603269
v 6.452363 4.135392 -10.02918
v 2.133122 2.022568 -7.655366
v -2.234537 2.022568 -9.685228
v 2.133122 4.135392 -7.655366
v -2.794362 2.022568 -7.7592
v -5.561934 2.022568 -11.70094
v -2.794362 4.135392 -7.7592
v -7.009771 2.022568 -10.31286
v -7.435685 2.022568 -15.1103
v -7.009771 4.135392 -10.31286
v -9.383587 2.022568 -14.63211
v -9.383587 4.135392 -14.63211
v -7.353727 2.022568 -18.99976
v -9.383587 2.022568 -14.63211
v -7.435685 2.022568 -15.1103
v -9.279757 2.022568 -19.55959
v -9.383587 4.135392 -14.63211
v -5.338014 2.022568 -22.32716
v -9.279757 4.135392 -19.55959
v -6.726092 2.022568 -23.775
v -1.928656 2.022568 -24.20091
v -6.726092 4.135392 -23.775
v -2.40685 2.022568 -26.14882
v 1.960809 2.022568 -24.11895
v -2.40685 4.135392 -26.14882
v 2.520634 2.022568 -26.04498
v 5.288202 2.022568 -22.10324
v 2.520634 4.135392 -26.04498
v 6.736041 2.022568 -23.49132
v 7.161957 2.022568 -18.69389
v 6.736041 4.135392 -23.49132
v 9.109859 2.022568 -19.17208
v 9.109859 4.135392 -19.17208
v 9.006027 4.135392 -14.24459
v 7.161957 4.135392 -18.69389
v 9.109859 4.135392 -19.17208
v 7.08 4.135392 -14.80442
v 6.452363 4.135392 -10.02918
v 5.064283 4.135392 -11.47702
v 2.133122 4.135392 -7.655366
v 1.654929 4.135392 -9.603269
v -2.794362 4.135392 -7.7592
v -2.234537 4.135392 -9.685228
v -7.009771 4.135392 -10.31286
v -5.561934 4.135392 -11.70094
v -9.383587 4.135392 -14.63211
v -7.435685 4.135392 -15.1103
v 9.109859 4.135392 -19.17208
v 7.161957 4.135392 -18.69389
v 5.288202 4.135392 -22.10324
v 6.736041 4.135392 -23.49132
v 1.960809 4.135392 -24.11895
v 2.520634 4.135392 -26.04498
v -1.928656 4.135392 -24.20091
v -2.40685 4.135392 -26.14882
v -5.338014 4.135392 -22.32716
v -6.726092 4.135392 -23.775
v -7.353727 4.135392 -18.99976
v -9.279757 4.135392 -19.55959
v -7.435685 4.135392 -15.1103
v -9.383587 4.135392 -14.63211
v 7.161957 2.022568 -18.69389
v 7.161957 4.135392 -18.69389
v 7.08 4.135392 -14.80442
v 7.08 2.022568 -14.80442
v 5.064283 4.135392 -11.47702
v 5.064283 2.022568 -11.47702
v 1.654929 4.135392 -9.603269
v 1.654929 2.022568 -9.603269
v -2.234537 4.135392 -9.685228
v -2.234537 2.022568 -9.685228
v -5.561934 4.135392 -11.70094
v -5.561934 2.022568 -11.70094
v -7.435685 4.135392 -15.1103
v -7.435685 2.022568 -15.1103
v -7.435685 2.022568 -15.1103
v -7.435685 4.135392 -15.1103
v -7.353727 4.135392 -18.99976
v -7.353727 2.022568 -18.99976
v -5.338014 4.135392 -22.32716
v -5.338014 2.022568 -22.32716
v -1.928656 4.135392 -24.20091
v -1.928656 2.022568 -24.20091
v 1.960809 4.135392 -24.11895
v 1.960809 2.022568 -24.11895
v 5.288202 4.135392 -22.10324
v 5.288202 2.022568 -22.10324
v 7.161957 4.135392 -18.69389
v 7.161957 2.022568 -18.69389
v 2.588401 1.910703 -19.51487
v -0.1368647 1.910703 -16.90209
v 3.637704 1.910703 -16.82255
v -0.05732678 1.910703 -20.67666
v 2.475917 1.910703 -14.17682
v -2.749643 1.910703 -19.62735
v -0.2164025 1.910703 -13.12752
v -3.911431 1.910703 -16.98163
v -2.862128 1.910703 -14.28931
v 3.637704 4.856839 -16.82255
v -0.1368647 4.856839 -16.90209
v 2.588401 4.856839 -19.51487
v 2.475917 4.856839 -14.17682
v -0.05732678 4.856839 -20.67666
v -0.2164025 4.856839 -13.12752
v -2.749643 4.856839 -19.62735
v -2.862128 4.856839 -14.28931
v -3.911431 4.856839 -16.98163
v 2.749737 5.796548 -16.84126
v -0.1368644 5.796548 -16.90209
v 1.947284 5.796548 -18.90022
v 1.861259 5.796548 -14.81795
v -0.07603779 5.796548 -19.78869
v -0.197691 5.796548 -14.01549
v -2.134988 5.796548 -18.98624
v -2.221013 5.796548 -14.90397
v -3.023465 5.796548 -16.96292
vt 0.591094 0.559485
vt 0.4091112 0.587388
vt 0.591094 0.587388
vt 0.4091112 0.559485
vt 0.4091112 0.5374943
vt 0.591094 0.5374943
vt 0.5910939 0.5095869
vt 0.4091112 0.5095872
vt 0.5910938 0.4873001
vt 0.4091111 0.4873005
vt 0.03208408 0.7565166
vt 0.03208408 0.7907759
vt 0.04875001 0.7907759
vt 0.04875001 0.7565166
vt 0.06541583 0.7907759
vt 0.06541583 0.7565166
vt 0.08208168 0.7907759
vt 0.08208168 0.7565166
vt 0.09874758 0.7907759
vt 0.09874758 0.7565166
vt 0.1154135 0.7907759
vt 0.1154135 0.7565166
vt 0.1320793 0.7907759
vt 0.1320793 0.7565166
vt 0.1487452 0.7907759
vt 0.1487452 0.7565166
vt 0.1654111 0.7907759
vt 0.1654111 0.7565166
vt 0.01438623 0.6539065
vt 0.01438623 0.7262331
vt 0.03547018 0.7262331
vt 0.03547018 0.6539065
vt 0.05749016 0.7262331
vt 0.05749016 0.6539065
vt 0.08016246 0.7262331
vt 0.08016246 0.6539065
vt 0.1031948 0.7262331
vt 0.1031948 0.6539065
vt 0.1262907 0.7262331
vt 0.1262907 0.6539065
vt 0.1491523 0.7262331
vt 0.1491523 0.6539065
vt 0.1714851 0.7262331
vt 0.1714851 0.6539065
vt 0.1930015 0.7262331
vt 0.1930015 0.6539065
vt 0.07221638 0.7325398
vt 0.0127124 0.7581108
vt 0.0127124 0.7325398
vt 0.07221638 0.7581108
vt 0.0127124 0.8198332
vt 0.1310322 0.7325398
vt 0.07221638 0.8198332
vt 0.1310322 0.7581108
vt 0.1901215 0.7325398
vt 0.1310322 0.8198332
vt 0.1901215 0.7581108
vt 0.249361 0.7325398
vt 0.1901215 0.8198332
vt 0.249361 0.7581108
vt 0.3088041 0.7325398
vt 0.249361 0.8198332
vt 0.3088041 0.7581109
vt 0.3634506 0.7325398
vt 0.3088041 0.8198332
vt 0.3634506 0.7581109
vt 0.3634506 0.8198332
vt 0.309944 0.7325398
vt 0.3634506 0.7581109
vt 0.3634506 0.7325398
vt 0.309944 0.7581109
vt 0.3634506 0.8198332
vt 0.2505832 0.7325398
vt 0.309944 0.8198332
vt 0.2505832 0.7581109
vt 0.1912596 0.7325398
vt 0.2505832 0.8198332
vt 0.1912595 0.7581109
vt 0.1320176 0.7325398
vt 0.1912596 0.8198332
vt 0.1320176 0.7581109
vt 0.07285527 0.7325398
vt 0.1320176 0.8198332
vt 0.07285527 0.7581109
vt 0.01271241 0.7325398
vt 0.07285527 0.8198332
vt 0.01271241 0.7581109
vt 0.01271241 0.8198332
vt 0.5064987 0.6585995
vt 0.5273597 0.6431613
vt 0.5273597 0.6585995
vt 0.5064987 0.6431613
vt 0.4858789 0.6585995
vt 0.4858789 0.6431613
vt 0.4651632 0.6585995
vt 0.4651632 0.6431613
vt 0.4443948 0.6585995
vt 0.4443948 0.6431613
vt 0.4235551 0.6585995
vt 0.4235551 0.6431613
vt 0.4043972 0.6585995
vt 0.4043972 0.6431613
vt 0.5273597 0.6585995
vt 0.5273597 0.6431613
vt 0.5062747 0.6431613
vt 0.5062747 0.6585995
vt 0.4855334 0.6431613
vt 0.4855334 0.6585995
vt 0.4647642 0.6431613
vt 0.4647642 0.6585995
vt 0.4439664 0.6431613
vt 0.4439664 0.6585995
vt 0.4231554 0.6431613
vt 0.4231554 0.6585995
vt 0.4043972 0.6431613
vt 0.4043972 0.6585995
vt 0.0127124 0.9064155
vt 0.0127124 0.8458889
vt 0.07221638 0.845889
vt 0.07221638 0.9064155
vt 0.1310322 0.845889
vt 0.1310322 0.9064155
vt 0.1901215 0.845889
vt 0.1901215 0.9064155
vt 0.249361 0.845889
vt 0.249361 0.9064155
vt 0.3088041 0.845889
vt 0.3088041 0.9064155
vt 0.3634506 0.845889
vt 0.3634506 0.9064155
vt 0.3634506 0.9064155
vt 0.3634506 0.845889
vt 0.309944 0.845889
vt 0.309944 0.9064155
vt 0.2505832 0.845889
vt 0.2505832 0.9064155
vt 0.1912596 0.845889
vt 0.1912596 0.9064155
vt 0.1320176 0.845889
vt 0.1320176 0.9064155
vt 0.07285527 0.845889
vt 0.07285527 0.9064155
vt 0.01271241 0.845889
vt 0.01271241 0.9064155
vt 0.9581752 0.004036394
vt 0.9581752 0.03255301
vt 0.9791797 0.01273673
vt 0.9371707 0.01273673
vt 0.9878799 0.0337412
vt 0.9284703 0.0337412
vt 0.9791797 0.05474571
vt 0.9371707 0.05474571
vt 0.9581752 0.06344602
vt 0.230258 0.6087734
vt 0.2003903 0.5772158
vt 0.2003903 0.6211449
vt 0.2426297 0.5789055
vt 0.1705225 0.6087734
vt 0.230258 0.5490378
vt 0.1581508 0.5789055
vt 0.2003903 0.536666
vt 0.1705225 0.5490378
vt 0.3608719 0.6404389
vt 0.345829 0.6252232
vt 0.3457068 0.6466193
vt 0.3672251 0.6253453
vt 0.3306132 0.6402661
vt 0.3610447 0.6101803
vt 0.3244328 0.625101
vt 0.3459512 0.6038271
vt 0.330786 0.6100075
vn -0.4785528 0.8780109 -0.009169996
vn 0.4429971 0.8963911 -0.01538332
vn 0.4428223 0.8964775 -0.01537725
vn -0.4527781 0.8915811 -0.008676103
vn -0.452778 -0.8915811 -0.008676093
vn -0.4785528 -0.8780109 -0.009169988
vn 0.4428223 -0.8964775 -0.01537724
vn 0.4429971 -0.8963911 -0.01538331
vn 0.4428223 0.8964775 -0.01537725
vn 0.4429971 0.8963911 -0.01538332
vn 0.9011281 -0.433137 0.01898876
vn 0.9011281 0.433137 0.01898881
vn 0.6506207 0.4331366 -0.6237671
vn 0.6506207 -0.4331366 -0.6237671
vn 0.01898874 0.4331365 -0.9011283
vn 0.01898874 -0.4331365 -0.9011283
vn -0.623767 0.4331365 -0.650621
vn -0.623767 -0.4331365 -0.650621
vn -0.9011283 0.4331364 -0.01898874
vn -0.9011283 -0.4331364 -0.01898877
vn -0.650621 0.4331368 0.6237667
vn -0.650621 -0.4331368 0.6237667
vn -0.01898925 0.433137 0.9011281
vn -0.01898925 -0.4331369 0.9011281
vn 0.6237666 0.433137 0.650621
vn 0.6237666 -0.433137 0.650621
vn 0.9011281 0.433137 0.01898881
vn 0.9011281 -0.433137 0.01898876
vn 0.9992722 -0.03180646 0.02105737
vn 0.9790986 0.2023372 0.02063224
vn 0.7069162 0.2023369 -0.6777383
vn 0.7214816 -0.0318067 -0.6917027
vn 0.02063195 0.2023368 -0.9790987
vn 0.0210574 -0.03180692 -0.9992722
vn -0.6777382 0.2023367 -0.7069163
vn -0.6917027 -0.03180695 -0.7214817
vn -0.9790986 0.2023371 -0.02063199
vn -0.9992722 -0.03180691 -0.0210574
vn -0.7069166 0.2023371 0.677738
vn -0.7214819 -0.03180681 0.6917024
vn -0.02063142 0.2023375 0.9790984
vn -0.02105654 -0.03180633 0.9992723
vn 0.6777385 0.2023377 0.7069159
vn 0.6917028 -0.0318061 0.7214814
vn 0.9790986 0.2023372 0.02063224
vn 0.9992722 -0.03180646 0.02105737
vn -0.5983129 -0.7821623 -0.1739073
vn 0.7927036 -0.5777121 -0.1946015
vn -0.605108 -0.7821622 0.1485488
vn 0.7838022 -0.5777122 0.227822
vn 0.7927036 0.5777121 -0.1946015
vn -0.4312008 -0.782162 -0.4497648
vn 0.7838022 0.5777122 0.227822
vn 0.5648814 -0.5777124 0.5892007
vn -0.1485485 -0.7821622 -0.6051079
vn 0.5648814 0.5777123 0.5892007
vn 0.1946013 -0.5777121 0.7927036
vn 0.1739074 -0.7821622 -0.598313
vn 0.1946013 0.5777121 0.7927036
vn -0.227822 -0.5777122 0.7838022
vn 0.4497649 -0.7821621 -0.4312007
vn -0.227822 0.5777121 0.7838022
vn -0.5892009 -0.5777121 0.5648815
vn 0.6051081 -0.782162 -0.1485485
vn -0.5892009 0.5777121 0.5648815
vn -0.7927036 -0.5777121 0.1946014
vn -0.7927036 0.5777121 0.1946014
vn 0.598313 -0.7821622 0.1739072
vn -0.7927036 -0.5777121 0.1946014
vn 0.6051081 -0.782162 -0.1485485
vn -0.7838022 -0.577712 -0.2278219
vn -0.7927036 0.5777121 0.1946014
vn 0.4312006 -0.7821622 0.4497646
vn -0.7838022 0.5777122 -0.2278219
vn -0.5648812 -0.5777125 -0.5892007
vn 0.1485485 -0.7821621 0.6051081
vn -0.5648811 0.5777125 -0.5892007
vn -0.194601 -0.5777121 -0.7927036
vn -0.1739075 -0.7821621 0.5983132
vn -0.194601 0.5777121 -0.7927036
vn 0.2278221 -0.577712 -0.7838022
vn -0.4497649 -0.782162 0.4312008
vn 0.2278221 0.5777121 -0.7838022
vn 0.5892006 -0.5777122 -0.5648816
vn -0.605108 -0.7821622 0.1485488
vn 0.5892006 0.5777122 -0.5648816
vn 0.7927036 -0.5777121 -0.1946015
vn 0.7927036 0.5777121 -0.1946015
vn 0.7838022 0.5777122 0.227822
vn -0.6051081 0.7821621 0.1485488
vn 0.7927036 0.5777121 -0.1946015
vn -0.5983129 0.7821622 -0.1739073
vn 0.5648814 0.5777123 0.5892007
vn -0.4312008 0.782162 -0.4497648
vn 0.1946013 0.5777121 0.7927036
vn -0.1485485 0.7821622 -0.605108
vn -0.227822 0.5777121 0.7838022
vn 0.1739075 0.7821621 -0.5983132
vn -0.5892009 0.5777121 0.5648815
vn 0.4497648 0.782162 -0.4312007
vn -0.7927036 0.5777121 0.1946014
vn 0.6051081 0.782162 -0.1485485
vn 0.7927036 0.5777121 -0.1946015
vn -0.6051081 0.7821621 0.1485488
vn -0.4497649 0.782162 0.4312008
vn 0.5892006 0.5777122 -0.5648816
vn -0.1739075 0.7821621 0.5983132
vn 0.2278221 0.5777121 -0.7838022
vn 0.1485485 0.7821622 0.6051081
vn -0.194601 0.5777121 -0.7927036
vn 0.4312006 0.7821622 0.4497646
vn -0.5648811 0.5777125 -0.5892007
vn 0.5983129 0.7821623 0.1739072
vn -0.7838022 0.5777122 -0.2278219
vn 0.6051081 0.782162 -0.1485485
vn -0.7927036 0.5777121 0.1946014
vn -0.605108 -0.7821622 0.1485488
vn -0.6051081 0.7821621 0.1485488
vn -0.5983129 0.7821622 -0.1739073
vn -0.5983129 -0.7821623 -0.1739073
vn -0.4312008 0.782162 -0.4497648
vn -0.4312008 -0.782162 -0.4497648
vn -0.1485485 0.7821622 -0.605108
vn -0.1485485 -0.7821622 -0.6051079
vn 0.1739075 0.7821621 -0.5983132
vn 0.1739074 -0.7821622 -0.598313
vn 0.4497648 0.782162 -0.4312007
vn 0.4497649 -0.7821621 -0.4312007
vn 0.6051081 0.782162 -0.1485485
vn 0.6051081 -0.782162 -0.1485485
vn 0.6051081 -0.782162 -0.1485485
vn 0.6051081 0.782162 -0.1485485
vn 0.5983129 0.7821623 0.1739072
vn 0.598313 -0.7821622 0.1739072
vn 0.4312006 0.7821622 0.4497646
vn 0.4312006 -0.7821622 0.4497646
vn 0.1485485 0.7821622 0.6051081
vn 0.1485485 -0.7821621 0.6051081
vn -0.1739075 0.7821621 0.5983132
vn -0.1739075 -0.7821621 0.5983132
vn -0.4497649 0.782162 0.4312008
vn -0.4497649 -0.782162 0.4312008
vn -0.6051081 0.7821621 0.1485488
vn -0.605108 -0.7821622 0.1485488
vn 0.6506207 -0.4331366 -0.6237671
vn 0 -1 0
vn 0.9011281 -0.433137 0.01898876
vn 0.01898874 -0.4331365 -0.9011283
vn 0.6237666 -0.433137 0.650621
vn -0.623767 -0.4331365 -0.650621
vn -0.01898925 -0.4331369 0.9011281
vn -0.9011283 -0.4331364 -0.01898877
vn -0.650621 -0.4331368 0.6237667
vn 0.9011281 0.433137 0.01898881
vn 0 1 0
vn 0.6506207 0.4331366 -0.6237671
vn 0.6237666 0.433137 0.650621
vn 0.01898874 0.4331365 -0.9011283
vn -0.01898925 0.433137 0.9011281
vn -0.623767 0.4331365 -0.650621
vn -0.650621 0.4331368 0.6237667
vn -0.9011283 0.4331364 -0.01898874
vn 0.9790986 0.2023372 0.02063224
vn 0 1 0
vn 0.7069162 0.2023369 -0.6777383
vn 0.6777385 0.2023377 0.7069159
vn 0.02063195 0.2023368 -0.9790987
vn -0.02063142 0.2023375 0.9790984
vn -0.6777382 0.2023367 -0.7069163
vn -0.7069166 0.2023371 0.677738
vn -0.9790986 0.2023371 -0.02063199
g DroneWingsLV16_0
f 3/3/3 2/2/2 1/1/1
f 2/2/2 4/4/4 1/1/1
f 1/1/1 4/4/4 5/5/5
f 6/6/6 1/1/1 5/5/5
f 6/6/6 5/5/5 7/7/7
f 5/5/5 8/8/8 7/7/7
f 7/7/7 8/8/8 9/9/9
f 8/8/8 10/10/10 9/9/9
f 13/13/13 12/12/12 11/11/11
f 14/14/14 13/13/13 11/11/11
f 15/15/15 13/13/13 14/14/14
f 16/16/16 15/15/15 14/14/14
f 17/17/17 15/15/15 16/16/16
f 18/18/18 17/17/17 16/16/16
f 19/19/19 17/17/17 18/18/18
f 20/20/20 19/19/19 18/18/18
f 21/21/21 19/19/19 20/20/20
f 22/22/22 21/21/21 20/20/20
f 23/23/23 21/21/21 22/22/22
f 24/24/24 23/23/23 22/22/22
f 25/25/25 23/23/23 24/24/24
f 26/26/26 25/25/25 24/24/24
f 27/27/27 25/25/25 26/26/26
f 28/28/28 27/27/27 26/26/26
f 31/31/31 30/30/30 29/29/29
f 32/32/32 31/31/31 29/29/29
f 33/33/33 31/31/31 32/32/32
f 34/34/34 33/33/33 32/32/32
f 35/35/35 33/33/33 34/34/34
f 36/36/36 35/35/35 34/34/34
f 37/37/37 35/35/35 36/36/36
f 38/38/38 37/37/37 36/36/36
f 39/39/39 37/37/37 38/38/38
f 40/40/40 39/39/39 38/38/38
f 41/41/41 39/39/39 40/40/40
f 42/42/42 41/41/41 40/40/40
f 43/43/43 41/41/41 42/42/42
f 44/44/44 43/43/43 42/42/42
f 45/45/45 43/43/43 44/44/44
f 46/46/46 45/45/45 44/44/44
f 49/49/49 48/48/48 47/47/47
f 48/48/48 50/50/50 47/47/47
f 48/48/48 51/51/51 50/50/50
f 47/47/47 50/50/50 52/52/52
f 51/51/51 53/53/53 50/50/50
f 50/50/50 54/54/54 52/52/52
f 50/50/50 53/53/53 54/54/54
f 52/52/52 54/54/54 55/55/55
f 53/53/53 56/56/56 54/54/54
f 54/54/54 57/57/57 55/55/55
f 54/54/54 56/56/56 57/57/57
f 55/55/55 57/57/57 58/58/58
f 56/56/56 59/59/59 57/57/57
f 57/57/57 60/60/60 58/58/58
f 57/57/57 59/59/59 60/60/60
f 58/58/58 60/60/60 61/61/61
f 59/59/59 62/62/62 60/60/60
f 60/60/60 63/63/63 61/61/61
f 60/60/60 62/62/62 63/63/63
f 61/61/61 63/63/63 64/64/64
f 62/62/62 65/65/65 63/63/63
f 63/63/63 66/66/66 64/64/64
f 63/63/63 65/65/65 66/66/66
f 65/65/65 67/67/67 66/66/66
f 70/70/70 69/69/69 68/68/68
f 69/69/69 71/71/71 68/68/68
f 69/69/69 72/72/72 71/71/71
f 68/68/68 71/71/71 73/73/73
f 72/72/72 74/74/74 71/71/71
f 71/71/71 75/75/75 73/73/73
f 71/71/71 74/74/74 75/75/75
f 73/73/73 75/75/75 76/76/76
f 74/74/74 77/77/77 75/75/75
f 75/75/75 78/78/78 76/76/76
f 75/75/75 77/77/77 78/78/78
f 76/76/76 78/78/78 79/79/79
f 77/77/77 80/80/80 78/78/78
f 78/78/78 81/81/81 79/79/79
f 78/78/78 80/80/80 81/81/81
f 79/79/79 81/81/81 82/82/82
f 80/80/80 83/83/83 81/81/81
f 81/81/81 84/84/84 82/82/82
f 81/81/81 83/83/83 84/84/84
f 82/82/82 84/84/84 85/85/85
f 83/83/83 86/86/86 84/84/84
f 84/84/84 87/87/87 85/85/85
f 84/84/84 86/86/86 87/87/87
f 86/86/86 88/88/88 87/87/87
f 91/91/91 90/90/90 89/89/89
f 90/90/90 92/92/92 89/89/89
f 89/89/89 92/92/92 93/93/93
f 92/92/92 94/94/94 93/93/93
f 93/93/93 94/94/94 95/95/95
f 94/94/94 96/96/96 95/95/95
f 95/95/95 96/96/96 97/97/97
f 96/96/96 98/98/98 97/97/97
f 97/97/97 98/98/98 99/99/99
f 98/98/98 100/100/100 99/99/99
f 99/99/99 100/100/100 101/101/101
f 100/100/100 102/102/102 101/101/101
f 105/105/105 104/104/104 103/103/103
f 106/106/106 105/105/105 103/103/103
f 107/107/107 105/105/105 106/106/106
f 108/108/108 107/107/107 106/106/106
f 109/109/109 107/107/107 108/108/108
f 110/110/110 109/109/109 108/108/108
f 111/111/111 109/109/109 110/110/110
f 112/112/112 111/111/111 110/110/110
f 113/113/113 111/111/111 112/112/112
f 114/114/114 113/113/113 112/112/112
f 115/115/115 113/113/113 114/114/114
f 116/116/116 115/115/115 114/114/114
f 119/119/119 118/118/118 117/117/117
f 120/120/120 119/119/119 117/117/117
f 121/121/121 119/119/119 120/120/120
f 122/122/122 121/121/121 120/120/120
f 123/123/123 121/121/121 122/122/122
f 124/124/124 123/123/123 122/122/122
f 125/125/125 123/123/123 124/124/124
f 126/126/126 125/125/125 124/124/124
f 127/127/127 125/125/125 126/126/126
f 128/128/128 127/127/127 126/126/126
f 129/129/129 127/127/127 128/128/128
f 130/130/130 129/129/129 128/128/128
f 133/133/133 132/132/132 131/131/131
f 134/134/134 133/133/133 131/131/131
f 135/135/135 133/133/133 134/134/134
f 136/136/136 135/135/135 134/134/134
f 137/137/137 135/135/135 136/136/136
f 138/138/138 137/137/137 136/136/136
f 139/139/139 137/137/137 138/138/138
f 140/140/140 139/139/139 138/138/138
f 141/141/141 139/139/139 140/140/140
f 142/142/142 141/141/141 140/140/140
f 143/143/143 141/141/141 142/142/142
f 144/144/144 143/143/143 142/142/142
f 147/147/147 146/146/146 145/145/145
f 145/145/145 146/146/146 148/148/148
f 149/149/149 146/146/146 147/147/147
f 148/148/148 146/146/146 150/150/150
f 151/151/151 146/146/146 149/149/149
f 150/150/150 146/146/146 152/152/152
f 153/153/153 146/146/146 151/151/151
f 152/152/152 146/146/146 153/153/153
f 156/156/156 155/155/155 154/154/154
f 154/154/154 155/155/155 157/157/157
f 158/158/158 155/155/155 156/156/156
f 157/157/157 155/155/155 159/159/159
f 160/160/160 155/155/155 158/158/158
f 159/159/159 155/155/155 161/161/161
f 162/162/162 155/155/155 160/160/160
f 161/161/161 155/155/155 162/162/162
f 165/165/165 164/164/164 163/163/163
f 163/163/163 164/164/164 166/166/166
f 167/167/167 164/164/164 165/165/165
f 166/166/166 164/164/164 168/168/168
f 169/169/169 164/164/164 167/167/167
f 168/168/168 164/164/164 170/170/170
f 171/171/171 164/164/164 169/169/169
f 170/170/170 164/164/164 171/171/171
