g DroneBody
v 5.177501 4.34134 0.01435083
v 5.002 5.523223 -2.057542
v 4.783388 4.34134 -1.96699
v 5.414124 5.523223 0.01435084
v 4.783388 4.34134 1.995695
v 5.002 6.73151 -2.057542
v 5.001998 5.523223 2.086246
v 3.661046 4.34134 3.675397
v 5.414124 6.73151 0.01435076
v 4.783388 7.913394 -1.96699
v 3.828363 5.523223 3.842715
v 1.981343 4.341341 4.797738
v 5.001998 6.73151 2.086246
v 5.177501 7.913394 0.01435083
v 4.355721 9.017219 -1.789845
v 2.071895 5.523223 5.01635
v -2.123228E-09 4.34134 5.191852
v 3.828363 6.73151 3.842715
v 4.783388 7.913394 1.995695
v 4.714596 9.017219 0.01435083
v 3.737685 9.994745 -1.533847
v -2.220264E-09 5.523223 5.428475
v -1.981345 4.34134 4.797738
v 2.071895 6.73151 5.01635
v 3.661046 7.913394 3.675397
v 4.355719 9.017219 1.818549
v 4.04564 9.994745 0.01435076
v 2.956297 10.80325 -1.210185
v -2.071897 5.523223 5.016349
v -3.661046 4.341341 3.675396
v -2.220264E-09 6.73151 5.428475
v 1.981343 7.913394 4.797738
v 3.333722 9.017219 3.348074
v 3.737685 9.994745 1.562551
v 3.199872 10.80325 0.01435083
v 2.045704 11.40739 -0.8330055
v -3.828365 5.523223 3.842714
v -4.783388 4.34134 1.995693
v -2.071897 6.73151 5.016349
v -2.123228E-09 7.913394 5.191852
v 1.804197 9.017219 4.37007
v 2.860701 9.994745 2.875051
v 2.956295 10.80325 1.238889
v 2.214252 11.40739 0.01435083
v 1.045702 11.78077 -0.4187928
v 1.131861 11.78077 0.01435069
v 0 11.90707 0.01435069
v 2.045702 11.40739 0.8617086
v 2.262651 10.80325 2.277002
v 1.5482 9.994745 3.752036
v -1.933396E-09 9.017219 4.728947
v 1.045702 11.78077 0.4474952
v 0 11.90707 0.01435069
v 1.565714 11.40739 1.580064
v 1.224537 10.80325 2.970647
v 0.8003458 11.78077 0.814697
v 0 11.90707 0.01435069
v 0.847358 11.40739 2.060054
v -1.659066E-09 9.994745 4.059991
v -1.981345 7.913394 4.797738
v 0.4331447 11.78077 1.060053
v 0 11.90707 0.01435069
v -1.312227E-09 10.80325 3.214222
v -1.804198 9.017219 4.37007
v -3.828365 6.73151 3.842714
v -9.08037E-10 11.40739 2.228604
v -1.5482 9.994745 3.752035
v -3.661046 7.913394 3.675396
v -5.001998 5.523223 2.086245
v -5.177501 4.34134 0.01434898
v -5.001998 6.73151 2.086245
v -5.414124 5.523223 0.01434889
v -4.783386 4.34134 -1.966995
v -3.333724 9.017219 3.348073
v -1.224537 10.80325 2.970646
v -4.783388 7.913394 1.995693
v -5.001998 5.523223 -2.057547
v -3.661045 4.34134 -3.646697
v -5.414124 6.73151 0.01434881
v -2.860701 9.994745 2.87505
v -3.828363 5.523223 -3.814014
v -1.981341 4.341341 -4.769037
v -4.355719 9.017219 1.818547
v -5.001998 6.73151 -2.057547
v -5.177501 7.913394 0.014349
v -2.071893 5.523223 -4.987648
v 1.836078E-06 4.34134 -5.163149
v -3.828363 6.73151 -3.814015
v -4.783386 7.913394 -1.966995
v -4.714596 9.017219 0.01434916
v -3.737685 9.994745 1.562549
v 1.836408E-06 5.523223 -5.399773
v 1.981346 4.34134 -4.769035
v -2.071893 6.73151 -4.987649
v -3.661045 7.913394 -3.646697
v -4.355719 9.017219 -1.789849
v 2.071897 5.523223 -4.987647
v 3.661048 4.34134 -3.646693
v 1.836408E-06 6.731511 -5.399773
v -1.981341 7.913394 -4.769037
v 3.828367 5.523223 -3.814011
v 4.783388 4.34134 -1.96699
v 5.002 5.523223 -2.057542
v 2.071897 6.73151 -4.987647
v 3.828367 6.73151 -3.814011
v 5.002 6.73151 -2.057542
v 1.836078E-06 7.913394 -5.163149
v -3.333722 9.017219 -3.319373
v 3.661048 7.913394 -3.646693
v 4.783388 7.913394 -1.96699
v 1.981346 7.913394 -4.769035
v -1.804197 9.017219 -4.341369
v 3.333725 9.017219 -3.31937
v 4.355721 9.017219 -1.789845
v 1.8042 9.017219 -4.341367
v 1.835432E-06 9.017219 -4.700245
v 2.860701 9.994745 -2.846348
v 3.737685 9.994745 -1.533847
v 1.548202 9.994745 -3.723333
v 1.8345E-06 9.994745 -4.03129
v -1.548198 9.994745 -3.723334
v -2.860699 9.994745 -2.846351
v 2.262651 10.80325 -2.248299
v 2.956297 10.80325 -1.210185
v 1.224539 10.80325 -2.941944
v 1.83332E-06 10.80325 -3.18552
v -1.224536 10.80325 -2.941945
v 1.565714 11.40739 -1.551361
v 2.045704 11.40739 -0.8330055
v 0.847358 11.40739 -2.031351
v 1.831946E-06 11.40739 -2.199902
v 0.8003458 11.78077 -0.7859947
v 1.045702 11.78077 -0.4187928
v 0 11.90707 0.01435069
v 0.4331447 11.78077 -1.031351
v 0 11.90707 0.01435069
v 1.578149E-09 11.78077 -1.117509
v 0 11.90707 0.01435069
v -0.8473563 11.40739 -2.031352
v -0.4331429 11.78077 -1.031352
v 0 11.90707 0.01435069
v -0.8003458 11.78077 -0.7859956
v 0 11.90707 0.01435069
v -1.565712 11.40739 -1.551363
v -2.262649 10.80325 -2.248301
v -1.045702 11.78077 -0.4187937
v 0 11.90707 0.01435069
v -2.045702 11.40739 -0.8330076
v -2.956295 10.80325 -1.210188
v -1.131861 11.78077 0.01435045
v 0 11.90707 0.01435069
v -2.214252 11.40739 0.01435023
v -3.737683 9.994745 -1.53385
v -3.199872 10.80325 0.01434975
v -4.04564 9.994745 0.01434937
v -1.045702 11.78077 0.4474947
v 0 11.90707 0.01435069
v -2.956297 10.80325 1.238888
v -2.045704 11.40739 0.861708
v -2.262651 10.80325 2.277001
v -0.8003458 11.78077 0.8146966
v 0 11.90707 0.01435069
v -1.565714 11.40739 1.580063
v -0.847358 11.40739 2.060053
v -0.4331447 11.78077 1.060053
v 0 11.90707 0.01435069
v -4.641616E-10 11.78077 1.146211
v 0 11.90707 0.01435069
v 0 11.90707 0.01435069
vt 0.08312148 0.03210333
vt 0.08344388 0.03243193
vt 0.08344388 0.03210333
vt 0.08312148 0.03243193
vt 0.08279908 0.03210333
vt 0.08344388 0.0327605
vt 0.08279908 0.03243193
vt 0.08247668 0.03210333
vt 0.08312148 0.0327605
vt 0.08344388 0.0330891
vt 0.08247668 0.03243193
vt 0.08215427 0.03210333
vt 0.08279908 0.0327605
vt 0.08312148 0.0330891
vt 0.08344388 0.0334177
vt 0.08215427 0.03243193
vt 0.08183187 0.03210333
vt 0.08247668 0.0327605
vt 0.08279908 0.0330891
vt 0.08312148 0.0334177
vt 0.08344388 0.0337463
vt 0.08183187 0.03243193
vt 0.08150947 0.03210333
vt 0.08215427 0.0327605
vt 0.08247668 0.0330891
vt 0.08279908 0.0334177
vt 0.08312148 0.0337463
vt 0.08344388 0.0340749
vt 0.08150947 0.03243193
vt 0.08118707 0.03210333
vt 0.08183187 0.0327605
vt 0.08215427 0.0330891
vt 0.08247668 0.0334177
vt 0.08279908 0.0337463
vt 0.08312148 0.0340749
vt 0.08344388 0.0344035
vt 0.08118707 0.03243193
vt 0.08086464 0.03210333
vt 0.08150947 0.0327605
vt 0.08183187 0.0330891
vt 0.08215427 0.0334177
vt 0.08247668 0.0337463
vt 0.08279908 0.0340749
vt 0.08312148 0.0344035
vt 0.08344388 0.0347321
vt 0.08312148 0.0347321
vt 0.08328271 0.0350607
vt 0.08279908 0.0344035
vt 0.08247668 0.0340749
vt 0.08215427 0.0337463
vt 0.08183187 0.0334177
vt 0.08279908 0.0347321
vt 0.08296031 0.0350607
vt 0.08247668 0.0344035
vt 0.08215427 0.0340749
vt 0.08247668 0.0347321
vt 0.08263791 0.0350607
vt 0.08215427 0.0344035
vt 0.08183187 0.0337463
vt 0.08150947 0.0330891
vt 0.08215427 0.0347321
vt 0.08231544 0.0350607
vt 0.08183187 0.0340749
vt 0.08150947 0.0334177
vt 0.08118707 0.0327605
vt 0.08183187 0.0344035
vt 0.08150947 0.0337463
vt 0.08118707 0.0330891
vt 0.08086464 0.03243193
vt 0.08054224 0.03210333
vt 0.08086464 0.0327605
vt 0.08054224 0.03243193
vt 0.08021984 0.03210333
vt 0.08118707 0.0334177
vt 0.08150947 0.0340749
vt 0.08086464 0.0330891
vt 0.08021984 0.03243193
vt 0.07989743 0.03210333
vt 0.08054224 0.0327605
vt 0.08118707 0.0337463
vt 0.07989743 0.03243193
vt 0.07957502 0.03210333
vt 0.08086464 0.0334177
vt 0.08021984 0.0327605
vt 0.08054224 0.0330891
vt 0.07957502 0.03243193
vt 0.07925261 0.03210333
vt 0.07989743 0.0327605
vt 0.08021984 0.0330891
vt 0.08054224 0.0334177
vt 0.08086464 0.0337463
vt 0.07925261 0.03243193
vt 0.07893021 0.03210333
vt 0.07957502 0.0327605
vt 0.07989743 0.0330891
vt 0.08021984 0.0334177
vt 0.07893021 0.03243193
vt 0.0786078 0.03210333
vt 0.07925261 0.0327605
vt 0.07957502 0.0330891
vt 0.0786078 0.03243193
vt 0.07828539 0.03210333
vt 0.07828539 0.03243193
vt 0.07893021 0.0327605
vt 0.0786078 0.0327605
vt 0.07828539 0.0327605
vt 0.07925261 0.0330891
vt 0.07989743 0.0334177
vt 0.0786078 0.0330891
vt 0.07828539 0.0330891
vt 0.07893021 0.0330891
vt 0.07957502 0.0334177
vt 0.0786078 0.0334177
vt 0.07828539 0.0334177
vt 0.07893021 0.0334177
vt 0.07925261 0.0334177
vt 0.0786078 0.0337463
vt 0.07828539 0.0337463
vt 0.07893021 0.0337463
vt 0.07925261 0.0337463
vt 0.07957502 0.0337463
vt 0.07989743 0.0337463
vt 0.0786078 0.0340749
vt 0.07828539 0.0340749
vt 0.07893021 0.0340749
vt 0.07925261 0.0340749
vt 0.07957502 0.0340749
vt 0.0786078 0.0344035
vt 0.07828539 0.0344035
vt 0.07893021 0.0344035
vt 0.07925261 0.0344035
vt 0.0786078 0.0347321
vt 0.07828539 0.0347321
vt 0.0784466 0.0350607
vt 0.07893021 0.0347321
vt 0.07876901 0.0350607
vt 0.07925261 0.0347321
vt 0.07909141 0.0350607
vt 0.07957502 0.0344035
vt 0.07957502 0.0347321
vt 0.07941382 0.0350607
vt 0.07989743 0.0347321
vt 0.07973623 0.0350607
vt 0.07989743 0.0344035
vt 0.07989743 0.0340749
vt 0.08021984 0.0347321
vt 0.08005863 0.0350607
vt 0.08021984 0.0344035
vt 0.08021984 0.0340749
vt 0.08054224 0.0347321
vt 0.08038104 0.0350607
vt 0.08054224 0.0344035
vt 0.08021984 0.0337463
vt 0.08054224 0.0340749
vt 0.08054224 0.0337463
vt 0.08086464 0.0347321
vt 0.08070344 0.0350607
vt 0.08086464 0.0340749
vt 0.08086464 0.0344035
vt 0.08118707 0.0340749
vt 0.08118707 0.0347321
vt 0.08102584 0.0350607
vt 0.08118707 0.0344035
vt 0.08150947 0.0344035
vt 0.08150947 0.0347321
vt 0.08134824 0.0350607
vt 0.08183187 0.0347321
vt 0.08167064 0.0350607
vt 0.08199304 0.0350607
vn 0.9805413 -0.1963131 2.049696E-07
vn 0.9195939 -0.09621 -0.3809079
vn 0.905902 -0.1963135 -0.3752367
vn 0.9953611 -0.09620981 3.324039E-07
vn 0.9059021 -0.1963125 0.3752371
vn 0.9195939 0.09620999 -0.3809079
vn 0.9195937 -0.09620952 0.3809084
vn 0.6933475 -0.1963126 0.6933474
vn 0.9953611 0.09620988 3.324037E-07
vn 0.8853241 0.2858719 -0.366713
vn 0.7038265 -0.09620961 0.7038266
vn 0.3752369 -0.1963132 0.905902
vn 0.9195937 0.09620956 0.3809084
vn 0.9582679 0.2858719 2.346819E-07
vn 0.8169653 0.466963 -0.3383981
vn 0.3809083 -0.09620986 0.9195937
vn -1.739134E-07 -0.1963132 0.9805413
vn 0.7038265 0.09620956 0.7038266
vn 0.885324 0.285872 0.3667133
vn 0.8842769 0.4669629 1.48058E-07
vn 0.7153306 0.6328576 -0.2962995
vn -2.429103E-07 -0.09620986 0.9953611
vn -0.3752371 -0.1963132 0.9059019
vn 0.3809082 0.09620983 0.9195937
vn 0.6775976 0.285872 0.6775978
vn 0.8169654 0.4669628 0.3383982
vn 0.7742683 0.6328575 3.340857E-07
vn 0.5828421 0.7758937 -0.2414208
vn -0.3809084 -0.09620987 0.9195936
vn -0.6933476 -0.1963131 0.6933471
vn -2.333216E-07 0.09620982 0.9953611
vn 0.3667131 0.285872 0.8853241
vn 0.6252779 0.4669628 0.6252785
vn 0.7153309 0.6328572 0.2962997
vn 0.6308635 0.7758937 8.106176E-07
vn 0.4255051 0.8876268 -0.1762501
vn -0.7038269 -0.09620982 0.7038262
vn -0.9059021 -0.1963128 0.3752369
vn -0.3809084 0.09620979 0.9195936
vn 0 0.285872 0.9582677
vn 0.3383979 0.4669628 0.8169655
vn 0.5474905 0.6328572 0.5474907
vn 0.5828419 0.7758937 0.2414209
vn 0.4605635 0.8876268 6.746034E-07
vn 0.2608593 0.9593108 -0.1080521
vn 0.2823524 0.9593108 0
vn 0 1 0
vn 0.4255053 0.8876268 0.1762497
vn 0.4460878 0.775894 0.4460877
vn 0.2962995 0.6328573 0.7153309
vn 0 0.4669629 0.8842769
vn 0.2608596 0.9593108 0.1080512
vn 0 1 0
vn 0.3256675 0.887627 0.3256671
vn 0.2414206 0.7758938 0.582842
vn 0.1996533 0.9593108 0.199653
vn 0 1 0
vn 0.1762497 0.8876268 0.4255053
vn -1.23655E-07 0.6328574 0.7742683
vn -0.3667134 0.2858721 0.8853239
vn 0.1080516 0.9593108 0.2608593
vn 0 1 0
vn -1.665274E-07 0.7758938 0.6308634
vn -0.3383984 0.4669629 0.8169652
vn -0.7038269 0.09620974 0.7038262
vn -1.297694E-07 0.8876266 0.4605637
vn -0.2962998 0.6328576 0.7153305
vn -0.677598 0.2858719 0.6775975
vn -0.9195938 -0.0962097 0.380908
vn -0.9805413 -0.1963131 -2.608701E-07
vn -0.9195939 0.09620968 0.380908
vn -0.9953611 -0.09620976 -1.310437E-07
vn -0.9059017 -0.1963135 -0.3752373
vn -0.6252785 0.4669628 0.6252779
vn -0.241421 0.7758939 0.5828418
vn -0.8853241 0.2858719 0.366713
vn -0.9195936 -0.09620993 -0.3809085
vn -0.693347 -0.1963134 -0.6933477
vn -0.9953611 0.09620982 -1.246513E-07
vn -0.5474905 0.6328574 0.5474902
vn -0.7038262 -0.09621002 -0.7038268
vn -0.3752363 -0.1963131 -0.9059023
vn -0.8169654 0.4669628 0.338398
vn -0.9195936 0.09621002 -0.3809085
vn -0.9582679 0.2858719 -1.978032E-07
vn -0.3809077 -0.09620991 -0.919594
vn 5.7143E-07 -0.196313 -0.9805413
vn -0.7038263 0.09620996 -0.7038268
vn -0.8853239 0.2858719 -0.3667136
vn -0.8842769 0.4669629 -1.887738E-07
vn -0.7153309 0.6328574 0.2962994
vn 5.849026E-07 -0.09620983 -0.9953611
vn 0.3752374 -0.1963128 -0.9059019
vn -0.3809077 0.09620975 -0.919594
vn -0.6775975 0.285872 -0.6775979
vn -0.8169652 0.4669629 -0.3383983
vn 0.3809085 -0.09620967 -0.9195936
vn 0.6933477 -0.1963131 -0.693347
vn 6.360411E-07 0.09620977 -0.9953611
vn -0.3667126 0.285872 -0.8853243
vn 0.7038268 -0.09620982 -0.7038263
vn 0.905902 -0.1963135 -0.3752367
vn 0.9195939 -0.09621 -0.3809079
vn 0.3809085 0.09620962 -0.9195937
vn 0.7038268 0.09620974 -0.7038262
vn 0.9195939 0.09620999 -0.3809079
vn 6.336405E-07 0.2858719 -0.9582679
vn -0.6252779 0.4669628 -0.6252785
vn 0.677598 0.2858719 -0.6775973
vn 0.8853241 0.2858719 -0.366713
vn 0.3667135 0.2858718 -0.8853239
vn -0.3383978 0.4669629 -0.8169656
vn 0.6252784 0.4669629 -0.6252779
vn 0.8169653 0.466963 -0.3383981
vn 0.3383985 0.4669629 -0.8169652
vn 5.515158E-07 0.4669629 -0.8842769
vn 0.5474905 0.6328576 -0.5474901
vn 0.7153306 0.6328576 -0.2962995
vn 0.2963001 0.6328576 -0.7153305
vn 4.143528E-07 0.6328576 -0.7742683
vn -0.2962992 0.6328577 -0.7153308
vn -0.54749 0.6328576 -0.5474907
vn 0.446088 0.775894 -0.4460874
vn 0.5828421 0.7758937 -0.2414208
vn 0.2414214 0.775894 -0.5828415
vn 2.890146E-07 0.775894 -0.6308633
vn -0.2414205 0.775894 -0.5828419
vn 0.3256677 0.8876268 -0.3256674
vn 0.4255051 0.8876268 -0.1762501
vn 0.1762503 0.8876268 -0.4255048
vn 2.49633E-07 0.8876268 -0.4605635
vn 0.1996533 0.9593107 -0.1996537
vn 0.2608593 0.9593108 -0.1080521
vn 0 1 0
vn 0.1080518 0.9593107 -0.2608595
vn 0 1 0
vn 0 0.9593108 -0.2823523
vn 0 1 0
vn -0.1762498 0.8876268 -0.4255052
vn -0.1080514 0.9593108 -0.2608594
vn 0 1 0
vn -0.1996532 0.9593108 -0.1996534
vn 0 1 0
vn -0.3256674 0.8876268 -0.3256677
vn -0.4460876 0.7758939 -0.4460881
vn -0.2608596 0.9593108 -0.1080517
vn 0 1 0
vn -0.4255051 0.8876266 -0.1762505
vn -0.5828416 0.7758938 -0.2414214
vn -0.2823524 0.9593107 0
vn 0 1 0
vn -0.4605635 0.8876268 -6.676685E-07
vn -0.7153304 0.6328577 -0.2962999
vn -0.6308635 0.7758937 -8.257559E-07
vn -0.7742684 0.6328574 -4.208609E-07
vn -0.2608594 0.9593108 0.108052
vn 0 1 0
vn -0.5828421 0.7758939 0.2414206
vn -0.4255052 0.8876268 0.17625
vn -0.4460878 0.775894 0.4460877
vn -0.1996532 0.9593107 0.1996537
vn 0 1 0
vn -0.3256676 0.8876266 0.3256678
vn -0.1762501 0.8876266 0.4255053
vn -0.1080516 0.9593108 0.2608593
vn 0 1 0
vn -1.012383E-07 0.9593109 0.2823519
vn 0 1 0
vn 0 1 0
g DroneBody_0
f 3/3/3 2/2/2 1/1/1
f 2/2/2 4/4/4 1/1/1
f 1/1/1 4/4/4 5/5/5
f 2/2/2 6/6/6 4/4/4
f 4/4/4 7/7/7 5/5/5
f 5/5/5 7/7/7 8/8/8
f 6/6/6 9/9/9 4/4/4
f 4/4/4 9/9/9 7/7/7
f 6/6/6 10/10/10 9/9/9
f 7/7/7 11/11/11 8/8/8
f 8/8/8 11/11/11 12/12/12
f 9/9/9 13/13/13 7/7/7
f 7/7/7 13/13/13 11/11/11
f 10/10/10 14/14/14 9/9/9
f 9/9/9 14/14/14 13/13/13
f 10/10/10 15/15/15 14/14/14
f 11/11/11 16/16/16 12/12/12
f 12/12/12 16/16/16 17/17/17
f 13/13/13 18/18/18 11/11/11
f 11/11/11 18/18/18 16/16/16
f 14/14/14 19/19/19 13/13/13
f 13/13/13 19/19/19 18/18/18
f 15/15/15 20/20/20 14/14/14
f 14/14/14 20/20/20 19/19/19
f 15/15/15 21/21/21 20/20/20
f 16/16/16 22/22/22 17/17/17
f 17/17/17 22/22/22 23/23/23
f 18/18/18 24/24/24 16/16/16
f 16/16/16 24/24/24 22/22/22
f 19/19/19 25/25/25 18/18/18
f 18/18/18 25/25/25 24/24/24
f 20/20/20 26/26/26 19/19/19
f 19/19/19 26/26/26 25/25/25
f 21/21/21 27/27/27 20/20/20
f 20/20/20 27/27/27 26/26/26
f 21/21/21 28/28/28 27/27/27
f 22/22/22 29/29/29 23/23/23
f 23/23/23 29/29/29 30/30/30
f 24/24/24 31/31/31 22/22/22
f 22/22/22 31/31/31 29/29/29
f 25/25/25 32/32/32 24/24/24
f 24/24/24 32/32/32 31/31/31
f 26/26/26 33/33/33 25/25/25
f 25/25/25 33/33/33 32/32/32
f 27/27/27 34/34/34 26/26/26
f 26/26/26 34/34/34 33/33/33
f 28/28/28 35/35/35 27/27/27
f 27/27/27 35/35/35 34/34/34
f 28/28/28 36/36/36 35/35/35
f 29/29/29 37/37/37 30/30/30
f 30/30/30 37/37/37 38/38/38
f 31/31/31 39/39/39 29/29/29
f 29/29/29 39/39/39 37/37/37
f 32/32/32 40/40/40 31/31/31
f 31/31/31 40/40/40 39/39/39
f 33/33/33 41/41/41 32/32/32
f 32/32/32 41/41/41 40/40/40
f 34/34/34 42/42/42 33/33/33
f 33/33/33 42/42/42 41/41/41
f 35/35/35 43/43/43 34/34/34
f 34/34/34 43/43/43 42/42/42
f 36/36/36 44/44/44 35/35/35
f 35/35/35 44/44/44 43/43/43
f 36/36/36 45/45/45 44/44/44
f 45/45/45 46/46/46 44/44/44
f 45/45/45 47/47/47 46/46/46
f 44/44/44 48/48/48 43/43/43
f 44/44/44 46/46/46 48/48/48
f 43/43/43 49/49/49 42/42/42
f 43/43/43 48/48/48 49/49/49
f 42/42/42 50/50/50 41/41/41
f 42/42/42 49/49/49 50/50/50
f 41/41/41 51/51/51 40/40/40
f 41/41/41 50/50/50 51/51/51
f 46/46/46 52/52/52 48/48/48
f 46/46/46 53/53/53 52/52/52
f 48/48/48 54/54/54 49/49/49
f 48/48/48 52/52/52 54/54/54
f 49/49/49 55/55/55 50/50/50
f 49/49/49 54/54/54 55/55/55
f 52/52/52 56/56/56 54/54/54
f 52/52/52 57/57/57 56/56/56
f 54/54/54 56/56/56 58/58/58
f 54/54/54 58/58/58 55/55/55
f 50/50/50 55/55/55 59/59/59
f 50/50/50 59/59/59 51/51/51
f 40/40/40 51/51/51 60/60/60
f 40/40/40 60/60/60 39/39/39
f 56/56/56 61/61/61 58/58/58
f 56/56/56 62/62/62 61/61/61
f 55/55/55 58/58/58 63/63/63
f 55/55/55 63/63/63 59/59/59
f 51/51/51 59/59/59 64/64/64
f 51/51/51 64/64/64 60/60/60
f 39/39/39 60/60/60 65/65/65
f 39/39/39 65/65/65 37/37/37
f 58/58/58 61/61/61 66/66/66
f 58/58/58 66/66/66 63/63/63
f 59/59/59 63/63/63 67/67/67
f 59/59/59 67/67/67 64/64/64
f 60/60/60 64/64/64 68/68/68
f 60/60/60 68/68/68 65/65/65
f 37/37/37 65/65/65 69/69/69
f 37/37/37 69/69/69 38/38/38
f 38/38/38 69/69/69 70/70/70
f 65/65/65 71/71/71 69/69/69
f 65/65/65 68/68/68 71/71/71
f 69/69/69 72/72/72 70/70/70
f 69/69/69 71/71/71 72/72/72
f 70/70/70 72/72/72 73/73/73
f 64/64/64 74/74/74 68/68/68
f 64/64/64 67/67/67 74/74/74
f 63/63/63 75/75/75 67/67/67
f 63/63/63 66/66/66 75/75/75
f 68/68/68 76/76/76 71/71/71
f 68/68/68 74/74/74 76/76/76
f 72/72/72 77/77/77 73/73/73
f 73/73/73 77/77/77 78/78/78
f 71/71/71 79/79/79 72/72/72
f 71/71/71 76/76/76 79/79/79
f 72/72/72 79/79/79 77/77/77
f 67/67/67 80/80/80 74/74/74
f 67/67/67 75/75/75 80/80/80
f 77/77/77 81/81/81 78/78/78
f 78/78/78 81/81/81 82/82/82
f 74/74/74 83/83/83 76/76/76
f 74/74/74 80/80/80 83/83/83
f 79/79/79 84/84/84 77/77/77
f 77/77/77 84/84/84 81/81/81
f 76/76/76 85/85/85 79/79/79
f 76/76/76 83/83/83 85/85/85
f 79/79/79 85/85/85 84/84/84
f 81/81/81 86/86/86 82/82/82
f 82/82/82 86/86/86 87/87/87
f 84/84/84 88/88/88 81/81/81
f 81/81/81 88/88/88 86/86/86
f 85/85/85 89/89/89 84/84/84
f 84/84/84 89/89/89 88/88/88
f 83/83/83 90/90/90 85/85/85
f 85/85/85 90/90/90 89/89/89
f 80/80/80 91/91/91 83/83/83
f 83/83/83 91/91/91 90/90/90
f 86/86/86 92/92/92 87/87/87
f 87/87/87 92/92/92 93/93/93
f 88/88/88 94/94/94 86/86/86
f 86/86/86 94/94/94 92/92/92
f 89/89/89 95/95/95 88/88/88
f 88/88/88 95/95/95 94/94/94
f 90/90/90 96/96/96 89/89/89
f 89/89/89 96/96/96 95/95/95
f 92/92/92 97/97/97 93/93/93
f 93/93/93 97/97/97 98/98/98
f 94/94/94 99/99/99 92/92/92
f 92/92/92 99/99/99 97/97/97
f 95/95/95 100/100/100 94/94/94
f 94/94/94 100/100/100 99/99/99
f 97/97/97 101/101/101 98/98/98
f 98/98/98 101/101/101 102/102/102
f 101/101/101 103/103/103 102/102/102
f 99/99/99 104/104/104 97/97/97
f 97/97/97 104/104/104 101/101/101
f 101/101/101 105/105/105 103/103/103
f 104/104/104 105/105/105 101/101/101
f 105/105/105 106/106/106 103/103/103
f 99/99/99 107/107/107 104/104/104
f 100/100/100 107/107/107 99/99/99
f 95/95/95 108/108/108 100/100/100
f 96/96/96 108/108/108 95/95/95
f 105/105/105 109/109/109 106/106/106
f 109/109/109 110/110/110 106/106/106
f 104/104/104 111/111/111 105/105/105
f 107/107/107 111/111/111 104/104/104
f 111/111/111 109/109/109 105/105/105
f 100/100/100 112/112/112 107/107/107
f 108/108/108 112/112/112 100/100/100
f 109/109/109 113/113/113 110/110/110
f 113/113/113 114/114/114 110/110/110
f 111/111/111 115/115/115 109/109/109
f 115/115/115 113/113/113 109/109/109
f 107/107/107 116/116/116 111/111/111
f 112/112/112 116/116/116 107/107/107
f 116/116/116 115/115/115 111/111/111
f 113/113/113 117/117/117 114/114/114
f 117/117/117 118/118/118 114/114/114
f 115/115/115 119/119/119 113/113/113
f 119/119/119 117/117/117 113/113/113
f 116/116/116 120/120/120 115/115/115
f 120/120/120 119/119/119 115/115/115
f 112/112/112 121/121/121 116/116/116
f 121/121/121 120/120/120 116/116/116
f 108/108/108 122/122/122 112/112/112
f 122/122/122 121/121/121 112/112/112
f 117/117/117 123/123/123 118/118/118
f 123/123/123 124/124/124 118/118/118
f 119/119/119 125/125/125 117/117/117
f 125/125/125 123/123/123 117/117/117
f 120/120/120 126/126/126 119/119/119
f 126/126/126 125/125/125 119/119/119
f 121/121/121 127/127/127 120/120/120
f 127/127/127 126/126/126 120/120/120
f 123/123/123 128/128/128 124/124/124
f 128/128/128 129/129/129 124/124/124
f 125/125/125 130/130/130 123/123/123
f 130/130/130 128/128/128 123/123/123
f 126/126/126 131/131/131 125/125/125
f 131/131/131 130/130/130 125/125/125
f 128/128/128 132/132/132 129/129/129
f 132/132/132 133/133/133 129/129/129
f 132/132/132 134/134/134 133/133/133
f 135/135/135 132/132/132 128/128/128
f 130/130/130 135/135/135 128/128/128
f 135/135/135 136/136/136 132/132/132
f 137/137/137 135/135/135 130/130/130
f 131/131/131 137/137/137 130/130/130
f 137/137/137 138/138/138 135/135/135
f 139/139/139 131/131/131 126/126/126
f 127/127/127 139/139/139 126/126/126
f 140/140/140 137/137/137 131/131/131
f 139/139/139 140/140/140 131/131/131
f 140/140/140 141/141/141 137/137/137
f 142/142/142 140/140/140 139/139/139
f 142/142/142 143/143/143 140/140/140
f 144/144/144 139/139/139 127/127/127
f 144/144/144 142/142/142 139/139/139
f 145/145/145 144/144/144 127/127/127
f 145/145/145 127/127/127 121/121/121
f 122/122/122 145/145/145 121/121/121
f 146/146/146 142/142/142 144/144/144
f 146/146/146 147/147/147 142/142/142
f 148/148/148 144/144/144 145/145/145
f 148/148/148 146/146/146 144/144/144
f 149/149/149 145/145/145 122/122/122
f 149/149/149 148/148/148 145/145/145
f 150/150/150 146/146/146 148/148/148
f 150/150/150 151/151/151 146/146/146
f 152/152/152 150/150/150 148/148/148
f 152/152/152 148/148/148 149/149/149
f 153/153/153 149/149/149 122/122/122
f 153/153/153 122/122/122 108/108/108
f 96/96/96 153/153/153 108/108/108
f 154/154/154 149/149/149 153/153/153
f 154/154/154 152/152/152 149/149/149
f 155/155/155 153/153/153 96/96/96
f 155/155/155 154/154/154 153/153/153
f 90/90/90 155/155/155 96/96/96
f 91/91/91 155/155/155 90/90/90
f 156/156/156 150/150/150 152/152/152
f 156/156/156 157/157/157 150/150/150
f 158/158/158 154/154/154 155/155/155
f 91/91/91 158/158/158 155/155/155
f 159/159/159 152/152/152 154/154/154
f 159/159/159 156/156/156 152/152/152
f 158/158/158 159/159/159 154/154/154
f 160/160/160 158/158/158 91/91/91
f 80/80/80 160/160/160 91/91/91
f 75/75/75 160/160/160 80/80/80
f 161/161/161 156/156/156 159/159/159
f 161/161/161 162/162/162 156/156/156
f 163/163/163 159/159/159 158/158/158
f 160/160/160 163/163/163 158/158/158
f 163/163/163 161/161/161 159/159/159
f 75/75/75 164/164/164 160/160/160
f 164/164/164 163/163/163 160/160/160
f 66/66/66 164/164/164 75/75/75
f 165/165/165 161/161/161 163/163/163
f 164/164/164 165/165/165 163/163/163
f 165/165/165 166/166/166 161/161/161
f 66/66/66 167/167/167 164/164/164
f 167/167/167 165/165/165 164/164/164
f 167/167/167 168/168/168 165/165/165
f 61/61/61 167/167/167 66/66/66
f 61/61/61 169/169/169 167/167/167
