g DroneFansLV20
v 2.438634 -0.2276338 -7.937771
v -1.425144 -0.2276338 -6.211516
v -1.856968 -0.2276338 -8.093628
v 1.871547 -0.2276338 -6.091904
v 6.080804 -0.2276338 -5.654995
v 4.66676 -0.2276338 -4.339971
v 8.093628 -0.2276338 -1.856969
v 6.211515 -0.2276338 -1.425145
v 7.937771 -0.2276338 2.438633
v 6.091904 -0.2276338 1.871548
v 5.654994 -0.2276338 6.080803
v 4.33997 -0.2276338 4.66676
v 1.856968 -0.2276338 8.093628
v 1.425144 -0.2276338 6.211516
v -1.560449 -3.653397 -6.440461
v 1.86884 -3.653397 -6.357827
v 1.86884 0 -6.357827
v -1.560449 0 -6.440461
v -4.571619 -3.653397 -4.797378
v -4.571619 0 -4.797378
v -6.357825 -3.653397 -1.86884
v -6.357825 0 -1.86884
v -6.440458 -3.653397 1.560449
v -6.440458 0 1.560449
v -4.797376 -3.653397 4.571619
v -4.797376 0 4.571619
v -1.86884 -3.653397 6.357827
v -1.86884 0 6.357827
v -1.856968 -0.2276338 -8.093628
v -1.425144 -0.2276338 -6.211516
v -4.339969 -0.2276338 -4.666765
v -5.654994 -0.2276338 -6.080803
v -6.091904 -0.2276338 -1.87155
v -7.937771 -0.2276338 -2.438633
v -6.211516 -0.2276338 1.425143
v -8.093628 -0.2276338 1.856968
v -4.666759 -0.2276338 4.339969
v -6.080804 -0.2276338 5.654995
v -1.871548 -0.2276338 6.091904
v -2.438633 -0.2276338 7.937771
v 1.425144 -0.2276338 6.211516
v 1.856968 -0.2276338 8.093628
v 1.86884 -3.653397 -6.357827
v 4.797377 0 -4.571616
v 1.86884 0 -6.357827
v 4.797377 -3.653397 -4.571616
v 6.440459 0 -1.560449
v 6.440459 -3.653397 -1.560449
v 6.357825 0 1.86884
v 6.357825 -3.653397 1.86884
v 4.57162 0 4.797374
v 4.57162 -3.653397 4.797374
v 1.560449 0 6.440459
v 1.560449 -3.653397 6.440459
v -1.86884 0 6.357827
v -1.86884 -3.653397 6.357827
v 4.797377 -3.653397 -4.571616
v 0 -3.653397 0
v 6.440459 -3.653397 -1.560449
v 1.86884 -3.653397 -6.357827
v 6.357825 -3.653397 1.86884
v -1.560449 -3.653397 -6.440461
v 4.57162 -3.653397 4.797374
v -4.571619 -3.653397 -4.797378
v 1.560449 -3.653397 6.440459
v -6.357825 -3.653397 -1.86884
v -1.86884 -3.653397 6.357827
v -6.440458 -3.653397 1.560449
v -4.797376 -3.653397 4.571619
v 4.797377 0 -4.571616
v 6.440459 0 -1.560449
v 0 0 0
v 1.86884 0 -6.357827
v 6.357825 0 1.86884
v -1.560449 0 -6.440461
v 4.57162 0 4.797374
v -4.571619 0 -4.797378
v 1.560449 0 6.440459
v -6.357825 0 -1.86884
v -1.86884 0 6.357827
v -6.440458 0 1.560449
v -4.797376 0 4.571619
vt 0.4591367 0.006667658
vt 0.5495181 0.02482982
vt 0.5495181 0.006667658
vt 0.4591367 0.02482982
vt 0.3687553 0.006667658
vt 0.3687553 0.02482982
vt 0.2783739 0.006667658
vt 0.2783739 0.02482982
vt 0.1879924 0.006667658
vt 0.1879924 0.02482982
vt 0.09761096 0.006667658
vt 0.09761096 0.02482982
vt 0.007229557 0.006667658
vt 0.007229557 0.02482982
vt 0.455864 0.9236158
vt 0.4351592 0.9236166
vt 0.4351601 0.9456681
vt 0.4558649 0.9456672
vt 0.4765688 0.9236148
vt 0.4765697 0.9456663
vt 0.4972735 0.923614
vt 0.4972744 0.9456654
vt 0.5179783 0.9236131
vt 0.5179793 0.9456645
vt 0.5386831 0.9236122
vt 0.538684 0.9456637
vt 0.5573174 0.9236115
vt 0.5573182 0.9456629
vt 0.007229557 0.006667657
vt 0.007229557 0.02482982
vt 0.09761094 0.02482982
vt 0.09761094 0.006667657
vt 0.1879924 0.02482982
vt 0.1879924 0.006667657
vt 0.2783738 0.02482982
vt 0.2783738 0.006667657
vt 0.3687553 0.02482982
vt 0.3687553 0.006667657
vt 0.4591367 0.02482982
vt 0.4591367 0.006667657
vt 0.5495181 0.02482982
vt 0.5495181 0.006667657
vt 0.5573511 0.9236061
vt 0.5366472 0.9456585
vt 0.5573521 0.9456576
vt 0.5366463 0.9236071
vt 0.5159425 0.9456593
vt 0.5159416 0.9236078
vt 0.4952377 0.9456602
vt 0.4952368 0.9236087
vt 0.4745329 0.945661
vt 0.474532 0.9236097
vt 0.4538282 0.945662
vt 0.4538272 0.9236105
vt 0.4351938 0.9456627
vt 0.4351929 0.9236112
vt 0.9686698 0.651389
vt 0.8899547 0.6303092
vt 0.9475842 0.6858662
vt 0.9686639 0.6092075
vt 0.9092059 0.7079901
vt 0.9475679 0.57268
vt 0.8688749 0.7090243
vt 0.9110346 0.5515943
vt 0.8323417 0.6879385
vt 0.8774645 0.5487297
vt 0.8112457 0.6514111
vt 0.8286898 0.5749925
vt 0.8112399 0.6092294
vt 0.9475846 0.5725453
vt 0.9110574 0.5514489
vt 0.889955 0.6301579
vt 0.9686701 0.6090788
vt 0.8774869 0.5485724
vt 0.9686639 0.6512603
vt 0.8287065 0.5748248
vt 0.9475678 0.6857313
vt 0.8112462 0.6090557
vt 0.9091836 0.7078447
vt 0.8112399 0.6512372
vt 0.8688527 0.7088671
vt 0.8323253 0.6877708
vn 0 1 0
vn 0 1 0
vn 0 1 0
vn 0 1 0
vn 0 1 0
vn 0 1 0
vn 0 1 0
vn 0 1 0
vn 0 1 0
vn 0 1 0
vn 0 1 0
vn 0 1 0
vn 0 1 0
vn 0 1 0
vn -0.1878577 -0.6029476 -0.7753474
vn 0.2249848 -0.6029475 -0.7653994
vn 0.2249847 0.6029475 -0.7653993
vn -0.1878577 0.6029476 -0.7753474
vn -0.5503636 -0.6029475 -0.5775414
vn -0.5503636 0.6029475 -0.5775414
vn -0.7653995 -0.6029475 -0.224984
vn -0.7653995 0.6029475 -0.2249839
vn -0.7753474 -0.6029475 0.1878579
vn -0.7753474 0.6029475 0.1878579
vn -0.5775418 -0.6029475 0.5503632
vn -0.5775418 0.6029475 0.5503632
vn -0.2249842 -0.6029474 0.7653995
vn -0.2249842 0.6029475 0.7653995
vn 0 1 0
vn 0 1 0
vn 0 1 0
vn 0 1 0
vn 0 1 0
vn 0 1 0
vn 0 1 0
vn 0 1 0
vn 0 1 0
vn 0 1 0
vn 0 1 0
vn 0 1 0
vn 0 1 0
vn 0 1 0
vn 0.2249848 -0.6029475 -0.7653994
vn 0.5775417 0.6029476 -0.5503633
vn 0.2249847 0.6029475 -0.7653993
vn 0.5775417 -0.6029476 -0.5503633
vn 0.7753475 0.6029474 -0.1878578
vn 0.7753475 -0.6029474 -0.1878578
vn 0.7653995 0.6029476 0.2249841
vn 0.7653995 -0.6029477 0.2249841
vn 0.5503635 0.6029475 0.5775417
vn 0.5503635 -0.6029475 0.5775416
vn 0.1878582 0.6029475 0.7753474
vn 0.1878582 -0.6029475 0.7753474
vn -0.2249842 0.6029475 0.7653995
vn -0.2249842 -0.6029474 0.7653995
vn 0.5775417 -0.6029476 -0.5503633
vn 0 -1 0
vn 0.7753475 -0.6029474 -0.1878578
vn 0.2249848 -0.6029475 -0.7653994
vn 0.7653995 -0.6029477 0.2249841
vn -0.1878577 -0.6029476 -0.7753474
vn 0.5503635 -0.6029475 0.5775416
vn -0.5503636 -0.6029475 -0.5775414
vn 0.1878582 -0.6029475 0.7753474
vn -0.7653995 -0.6029475 -0.224984
vn -0.2249842 -0.6029474 0.7653995
vn -0.7753474 -0.6029475 0.1878579
vn -0.5775418 -0.6029475 0.5503632
vn 0.5775417 0.6029476 -0.5503633
vn 0.7753475 0.6029474 -0.1878578
vn 0 1 0
vn 0.2249847 0.6029475 -0.7653993
vn 0.7653995 0.6029476 0.2249841
vn -0.1878577 0.6029476 -0.7753474
vn 0.5503635 0.6029475 0.5775417
vn -0.5503636 0.6029475 -0.5775414
vn 0.1878582 0.6029475 0.7753474
vn -0.7653995 0.6029475 -0.2249839
vn -0.2249842 0.6029475 0.7653995
vn -0.7753474 0.6029475 0.1878579
vn -0.5775418 0.6029475 0.5503632
g DroneFansLV20_0
f 3/3/3 2/2/2 1/1/1
f 2/2/2 4/4/4 1/1/1
f 1/1/1 4/4/4 5/5/5
f 4/4/4 6/6/6 5/5/5
f 5/5/5 6/6/6 7/7/7
f 6/6/6 8/8/8 7/7/7
f 7/7/7 8/8/8 9/9/9
f 8/8/8 10/10/10 9/9/9
f 9/9/9 10/10/10 11/11/11
f 10/10/10 12/12/12 11/11/11
f 11/11/11 12/12/12 13/13/13
f 12/12/12 14/14/14 13/13/13
f 17/17/17 16/16/16 15/15/15
f 18/18/18 17/17/17 15/15/15
f 18/18/18 15/15/15 19/19/19
f 20/20/20 18/18/18 19/19/19
f 20/20/20 19/19/19 21/21/21
f 22/22/22 20/20/20 21/21/21
f 22/22/22 21/21/21 23/23/23
f 24/24/24 22/22/22 23/23/23
f 24/24/24 23/23/23 25/25/25
f 26/26/26 24/24/24 25/25/25
f 26/26/26 25/25/25 27/27/27
f 28/28/28 26/26/26 27/27/27
f 31/31/31 30/30/30 29/29/29
f 32/32/32 31/31/31 29/29/29
f 33/33/33 31/31/31 32/32/32
f 34/34/34 33/33/33 32/32/32
f 35/35/35 33/33/33 34/34/34
f 36/36/36 35/35/35 34/34/34
f 37/37/37 35/35/35 36/36/36
f 38/38/38 37/37/37 36/36/36
f 39/39/39 37/37/37 38/38/38
f 40/40/40 39/39/39 38/38/38
f 41/41/41 39/39/39 40/40/40
f 42/42/42 41/41/41 40/40/40
f 45/45/45 44/44/44 43/43/43
f 44/44/44 46/46/46 43/43/43
f 44/44/44 47/47/47 46/46/46
f 47/47/47 48/48/48 46/46/46
f 47/47/47 49/49/49 48/48/48
f 49/49/49 50/50/50 48/48/48
f 49/49/49 51/51/51 50/50/50
f 51/51/51 52/52/52 50/50/50
f 51/51/51 53/53/53 52/52/52
f 53/53/53 54/54/54 52/52/52
f 53/53/53 55/55/55 54/54/54
f 55/55/55 56/56/56 54/54/54
f 59/59/59 58/58/58 57/57/57
f 57/57/57 58/58/58 60/60/60
f 61/61/61 58/58/58 59/59/59
f 60/60/60 58/58/58 62/62/62
f 63/63/63 58/58/58 61/61/61
f 62/62/62 58/58/58 64/64/64
f 65/65/65 58/58/58 63/63/63
f 64/64/64 58/58/58 66/66/66
f 67/67/67 58/58/58 65/65/65
f 66/66/66 58/58/58 68/68/68
f 69/69/69 58/58/58 67/67/67
f 68/68/68 58/58/58 69/69/69
f 72/72/72 71/71/71 70/70/70
f 72/72/72 70/70/70 73/73/73
f 72/72/72 74/74/74 71/71/71
f 72/72/72 73/73/73 75/75/75
f 72/72/72 76/76/76 74/74/74
f 72/72/72 75/75/75 77/77/77
f 72/72/72 78/78/78 76/76/76
f 72/72/72 77/77/77 79/79/79
f 72/72/72 80/80/80 78/78/78
f 72/72/72 79/79/79 81/81/81
f 72/72/72 82/82/82 80/80/80
f 72/72/72 81/81/81 82/82/82
