g Dumbell:dumbell
v 2.568554 -0.4095128 19.2907
v 2.568554 0.4095128 19.2907
v -2.670979 0.3905071 19.2907
v -2.670975 -0.4285184 19.2907
v 2.568546 -0.819042 20
v 2.568554 -0.4095128 19.2907
v -2.670975 -0.4285184 19.2907
v -2.670984 -0.8380312 20
v -2.670975 -0.4285184 20.7093
v 2.568554 -0.4095128 20.7093
v 2.568546 -0.819042 20
v -2.670984 -0.8380312 20
v -2.670979 0.3905071 20.7093
v 2.568554 0.4095128 20.7093
v 2.568554 -0.4095128 20.7093
v -2.670975 -0.4285184 20.7093
v 2.568546 0.819042 20
v 2.568554 0.4095128 20.7093
v -2.670979 0.3905071 20.7093
v -2.670984 0.8000199 20
v 2.568554 0.4095128 19.2907
v 2.568546 0.819042 20
v -2.670979 0.3905071 19.2907
v -2.670984 0.8000199 20
v 2.568554 0.4095128 19.2907
v 2.568554 -0.4095128 19.2907
v 2.69731 1.41729 17.54519
v 2.69731 -1.417292 17.54519
v 2.69731 -1.417292 17.54519
v 2.568546 -0.819042 20
v 2.69731 -2.834579 20
v 2.568554 -0.4095128 19.2907
v 2.568546 -0.819042 20
v 2.568554 -0.4095128 20.7093
v 2.69731 -1.417292 22.45481
v 2.69731 -2.834579 20
v 2.69731 1.41729 22.45481
v 2.69731 -1.417292 22.45481
v 2.568554 -0.4095128 20.7093
v 2.568554 0.4095128 20.7093
v 2.69731 1.41729 22.45481
v 2.568554 0.4095128 20.7093
v 2.568546 0.819042 20
v 2.69731 2.834579 20
v 2.69731 1.41729 17.54519
v 2.69731 2.834579 20
v 2.568546 0.819042 20
v 2.568554 0.4095128 19.2907
v -2.670975 -0.4285184 19.2907
v -2.670979 0.3905071 19.2907
v -2.799731 1.398284 17.54519
v -2.799731 -1.43633 17.54519
v -2.799731 -1.43633 17.54519
v -2.799731 -2.853585 20
v -2.670984 -0.8380312 20
v -2.670975 -0.4285184 19.2907
v -2.799731 -1.43633 22.45481
v -2.670975 -0.4285184 20.7093
v -2.670984 -0.8380312 20
v -2.799731 -2.853585 20
v -2.799731 1.398284 22.45481
v -2.670975 -0.4285184 20.7093
v -2.799731 -1.43633 22.45481
v -2.670979 0.3905071 20.7093
v -2.670984 0.8000199 20
v -2.670979 0.3905071 20.7093
v -2.799731 2.815574 20
v -2.799731 1.398284 22.45481
v -2.799731 2.815574 20
v -2.799731 1.398284 17.54519
v -2.670979 0.3905071 19.2907
v -2.670984 0.8000199 20
v 3.9656 1.41729 17.54519
v 2.69731 -1.417292 17.54519
v 3.9656 -1.417325 17.54519
v 2.69731 1.41729 17.54519
v 3.9656 -1.417325 17.54519
v 2.69731 -2.834579 20
v 3.9656 -2.834579 20
v 2.69731 -1.417292 17.54519
v 3.9656 -2.834579 20
v 2.69731 -1.417292 22.45481
v 3.9656 -1.417325 22.45481
v 2.69731 -2.834579 20
v 3.9656 1.41729 22.45481
v 3.9656 -1.417325 22.45481
v 2.69731 -1.417292 22.45481
v 2.69731 1.41729 22.45481
v 3.9656 1.41729 22.45481
v 2.69731 1.41729 22.45481
v 2.69731 2.834579 20
v 3.9656 2.834579 20
v 2.69731 2.834579 20
v 2.69731 1.41729 17.54519
v 3.9656 1.41729 17.54519
v 3.9656 2.834579 20
v -4.06802 -1.436297 17.54519
v -2.799731 -1.43633 17.54519
v -2.799731 1.398284 17.54519
v -4.068021 1.398284 17.54519
v -4.068021 -2.853585 20
v -2.799731 -2.853585 20
v -2.799731 -1.43633 17.54519
v -4.06802 -1.436297 17.54519
v -4.06802 -1.436297 22.45481
v -2.799731 -1.43633 22.45481
v -2.799731 -2.853585 20
v -4.068021 -2.853585 20
v -2.799731 1.398284 22.45481
v -2.799731 -1.43633 22.45481
v -4.06802 -1.436297 22.45481
v -4.068021 1.398284 22.45481
v -4.068021 2.815574 20
v -2.799731 1.398284 22.45481
v -4.068021 1.398284 22.45481
v -2.799731 2.815574 20
v -4.068021 1.398284 17.54519
v -2.799731 2.815574 20
v -4.068021 2.815574 20
v -2.799731 1.398284 17.54519
v -4.06802 -1.436297 22.45481
v -4.068021 -2.853585 20
v -4.06802 -1.436297 17.54519
v -4.068021 1.398284 17.54519
v -4.068021 1.398284 22.45481
v -4.068021 2.815574 20
v 3.9656 1.41729 22.45481
v 3.9656 2.834579 20
v 3.9656 1.41729 17.54519
v 3.9656 -1.417325 22.45481
v 3.9656 -2.834579 20
v 3.9656 -1.417325 17.54519
vt 0.4166667 0.3125
vt 0.375 0.3125
vt 0.375 0.6884398
vt 0.4166667 0.6884398
vt 0.4583333 0.3125
vt 0.4166667 0.3125
vt 0.4166667 0.6884398
vt 0.4583333 0.6884398
vt 0.5 0.6884398
vt 0.5 0.3125
vt 0.4583333 0.3125
vt 0.4583333 0.6884398
vt 0.5416666 0.6884398
vt 0.5416666 0.3125
vt 0.5 0.3125
vt 0.5 0.6884398
vt 0.5833333 0.3125
vt 0.5416666 0.3125
vt 0.5416666 0.6884398
vt 0.5833333 0.6884398
vt 0.625 0.3125
vt 0.5833333 0.3125
vt 0.625 0.6884398
vt 0.5833333 0.6884398
vt 1 0
vt 0 0
vt 1 1
vt 0 1
vt 1 1
vt 0 0
vt 0 1
vt 1 0
vt 1 0
vt 0 0
vt 0 1
vt 1 1
vt 0 1
vt 1 1
vt 1 0
vt 0 0
vt 1 1
vt 1 0
vt 0 0
vt 0 1
vt 0 1
vt 1 1
vt 1 0
vt 0 0
vt 1 0
vt 0 0
vt 0 1
vt 1 1
vt 0 1
vt 1 1
vt 1 0
vt 0 0
vt 1 1
vt 1 0
vt 0 0
vt 0 1
vt 1 1
vt 0 0
vt 0 1
vt 1 0
vt 1 0
vt 0 0
vt 1 1
vt 0 1
vt 0 1
vt 1 1
vt 1 0
vt 0 0
vt 0.5 1
vt 0 0
vt 0.5 1
vt 1 0
vt 0.5 1
vt 0 0
vt 0.5 1
vt 1 0
vt 0.5 1
vt 0 0
vt 0.5 1
vt 1 0
vt 0.5 1
vt 0.5 1
vt 1 0
vt 0 0
vt 0.5 1
vt 1 0
vt 0 0
vt 0.5 1
vt 1 0
vt 0 0
vt 0.5 1
vt 0.5 1
vt 0.5 1
vt 1 0
vt 0 0
vt 0.5 1
vt 0.5 1
vt 1 0
vt 0 0
vt 0.5 1
vt 0.5 1
vt 1 0
vt 0 0
vt 0.5 1
vt 1 0
vt 0 0
vt 0.5 1
vt 0.5 1
vt 0.5 1
vt 0 0
vt 0.5 1
vt 1 0
vt 0.5 1
vt 0 0
vt 0.5 1
vt 1 0
vt 0.5 1
vt 0.5 1
vt 0.5 1
vt 0.5 1
vt 0.5 1
vt 0.5 1
vt 0.5 1
vt 0.5 1
vt 0.5 1
vt 0.5 1
vt 0.5 1
vt 0.5 1
vn 0 1.490434E-06 -1
vn 0 1.490433E-06 -1
vn 0 1.490434E-06 -1
vn 0 1.490434E-06 -1
vn 0.00313992 -0.8660187 -0.5000018
vn 0.00313992 -0.8660187 -0.5000018
vn 0.00313992 -0.8660187 -0.5000018
vn 0.00313992 -0.8660187 -0.5000018
vn 0.003140001 -0.866019 0.5000012
vn 0.003140001 -0.866019 0.5000012
vn 0.003140001 -0.866019 0.5000012
vn 0.003140001 -0.866019 0.5000012
vn 0 0 1
vn 0 0 1
vn 0 0 1
vn 0 0 1
vn -0.003142624 0.8660191 0.5000012
vn -0.003142623 0.8660191 0.5000011
vn -0.003142623 0.8660191 0.5000011
vn -0.003142623 0.8660191 0.5000011
vn -0.003142716 0.8660183 -0.5000024
vn -0.003142716 0.8660183 -0.5000024
vn -0.003142716 0.8660183 -0.5000024
vn -0.003142716 0.8660183 -0.5000024
vn -0.9979657 0.03187614 -0.0552122
vn -0.9979657 -0.03187614 -0.05521228
vn -0.9979657 0.03187633 -0.05521209
vn -0.9979657 -0.0318764 -0.05521213
vn -0.9979657 -0.0318764 -0.05521213
vn -0.9979657 -0.06375246 0
vn -0.9979657 -0.06375246 0
vn -0.9979657 -0.03187614 -0.05521228
vn -0.9979657 -0.06375246 0
vn -0.9979657 -0.03187613 0.05521228
vn -0.9979657 -0.03187638 0.05521213
vn -0.9979657 -0.06375246 0
vn -0.9979657 0.03187634 0.05521208
vn -0.9979657 -0.03187638 0.05521213
vn -0.9979657 -0.03187613 0.05521228
vn -0.9979657 0.03187612 0.0552122
vn -0.9979657 0.03187634 0.05521208
vn -0.9979657 0.03187612 0.0552122
vn -0.9979657 0.06375239 0
vn -0.9979657 0.06375239 0
vn -0.9979657 0.03187633 -0.05521209
vn -0.9979657 0.06375239 0
vn -0.9979657 0.06375239 0
vn -0.9979657 0.03187614 -0.0552122
vn 0.9979659 -0.0318743 -0.05520804
vn 0.9979659 0.03187484 -0.05520848
vn 0.9979659 0.03187491 -0.05520844
vn 0.9979659 -0.03187492 -0.05520768
vn 0.9979659 -0.03187492 -0.05520768
vn 0.9979659 -0.06375026 0
vn 0.9979659 -0.06375026 0
vn 0.9979659 -0.0318743 -0.05520804
vn 0.9979659 -0.03187506 0.05520774
vn 0.9979659 -0.03187443 0.05520809
vn 0.9979659 -0.06375026 0
vn 0.9979659 -0.06375026 0
vn 0.9979659 0.03187494 0.05520853
vn 0.9979659 -0.03187443 0.05520809
vn 0.9979659 -0.03187506 0.05520774
vn 0.9979659 0.03187484 0.05520859
vn 0.9979659 0.06374878 0
vn 0.9979659 0.03187484 0.05520859
vn 0.9979659 0.06374878 0
vn 0.9979659 0.03187494 0.05520853
vn 0.9979659 0.06374878 0
vn 0.9979659 0.03187491 -0.05520844
vn 0.9979659 0.03187484 -0.05520848
vn 0.9979659 0.06374878 0
vn 0 0 -1
vn 0 0 -1
vn 0 0 -1
vn 0 0 -1
vn -1.130025E-05 -0.866028 -0.4999957
vn -1.130026E-05 -0.866028 -0.4999957
vn -1.130025E-05 -0.8660278 -0.4999957
vn -1.130025E-05 -0.866028 -0.4999957
vn -1.115085E-05 -0.866028 0.4999956
vn -1.115085E-05 -0.866028 0.4999956
vn -1.115085E-05 -0.866028 0.4999955
vn -1.115085E-05 -0.866028 0.4999955
vn 0 0 1
vn 0 0 1
vn 0 0 1
vn 0 0 1
vn 0 0.8660253 0.5000003
vn 0 0.8660253 0.5000003
vn 0 0.8660253 0.5000003
vn 0 0.8660253 0.5000003
vn 0 0.8660249 -0.5000008
vn 0 0.866025 -0.5000008
vn 0 0.8660249 -0.5000008
vn 0 0.8660249 -0.5000008
vn 0 0 -1
vn 0 0 -1
vn 0 0 -1
vn 0 0 -1
vn -1.125951E-05 -0.866028 -0.4999956
vn -1.125951E-05 -0.866028 -0.4999956
vn -1.125951E-05 -0.866028 -0.4999956
vn -1.125951E-05 -0.866028 -0.4999956
vn -1.130026E-05 -0.866028 0.4999956
vn -1.130025E-05 -0.866028 0.4999956
vn -1.130026E-05 -0.866028 0.4999956
vn -1.130026E-05 -0.866028 0.4999956
vn 7.198403E-07 0 1
vn 7.198402E-07 0 1
vn 7.198402E-07 0 1
vn 7.198403E-07 0 1
vn 0 0.8660251 0.5000005
vn 0 0.8660251 0.5000005
vn 0 0.8660251 0.5000005
vn 0 0.8660251 0.5000005
vn 0 0.8660251 -0.5000005
vn 0 0.8660251 -0.5000005
vn 0 0.8660251 -0.5000005
vn 0 0.8660251 -0.5000005
vn -1 0 0
vn -1 0 0
vn -1 0 0
vn -1 0 0
vn -1 -1.496997E-07 0
vn -1 -1.496997E-07 0
vn 1 2.24548E-07 0
vn 1 2.24548E-07 0
vn 1 2.24548E-07 0
vn 1 2.24548E-07 0
vn 1 0 0
vn 1 0 0
g Dumbell:dumbell_0
f 3/3/3 2/2/2 1/1/1
f 1/1/1 4/4/4 3/3/3
f 7/7/7 6/6/6 5/5/5
f 5/5/5 8/8/8 7/7/7
f 11/11/11 10/10/10 9/9/9
f 9/9/9 12/12/12 11/11/11
f 15/15/15 14/14/14 13/13/13
f 13/13/13 16/16/16 15/15/15
f 19/19/19 18/18/18 17/17/17
f 17/17/17 20/20/20 19/19/19
f 23/23/23 22/22/22 21/21/21
f 22/22/22 23/23/23 24/24/24
f 27/27/27 26/26/26 25/25/25
f 27/27/27 28/28/28 26/26/26
f 31/31/31 30/30/30 29/29/29
f 30/30/30 32/32/32 29/29/29
f 35/35/35 34/34/34 33/33/33
f 33/33/33 36/36/36 35/35/35
f 39/39/39 38/38/38 37/37/37
f 37/37/37 40/40/40 39/39/39
f 43/43/43 42/42/42 41/41/41
f 41/41/41 44/44/44 43/43/43
f 47/47/47 46/46/46 45/45/45
f 45/45/45 48/48/48 47/47/47
f 51/51/51 50/50/50 49/49/49
f 49/49/49 52/52/52 51/51/51
f 55/55/55 54/54/54 53/53/53
f 53/53/53 56/56/56 55/55/55
f 59/59/59 58/58/58 57/57/57
f 57/57/57 60/60/60 59/59/59
f 63/63/63 62/62/62 61/61/61
f 62/62/62 64/64/64 61/61/61
f 67/67/67 66/66/66 65/65/65
f 67/67/67 68/68/68 66/66/66
f 71/71/71 70/70/70 69/69/69
f 69/69/69 72/72/72 71/71/71
f 75/75/75 74/74/74 73/73/73
f 76/76/76 73/73/73 74/74/74
f 79/79/79 78/78/78 77/77/77
f 80/80/80 77/77/77 78/78/78
f 83/83/83 82/82/82 81/81/81
f 84/84/84 81/81/81 82/82/82
f 87/87/87 86/86/86 85/85/85
f 85/85/85 88/88/88 87/87/87
f 91/91/91 90/90/90 89/89/89
f 89/89/89 92/92/92 91/91/91
f 95/95/95 94/94/94 93/93/93
f 93/93/93 96/96/96 95/95/95
f 99/99/99 98/98/98 97/97/97
f 97/97/97 100/100/100 99/99/99
f 103/103/103 102/102/102 101/101/101
f 101/101/101 104/104/104 103/103/103
f 107/107/107 106/106/106 105/105/105
f 105/105/105 108/108/108 107/107/107
f 111/111/111 110/110/110 109/109/109
f 109/109/109 112/112/112 111/111/111
f 115/115/115 114/114/114 113/113/113
f 116/116/116 113/113/113 114/114/114
f 119/119/119 118/118/118 117/117/117
f 120/120/120 117/117/117 118/118/118
f 123/123/123 122/122/122 121/121/121
f 121/121/121 124/124/124 123/123/123
f 124/124/124 121/121/121 125/125/125
f 125/125/125 126/126/126 124/124/124
f 129/129/129 128/128/128 127/127/127
f 129/129/129 127/127/127 130/130/130
f 129/129/129 130/130/130 131/131/131
f 131/131/131 132/132/132 129/129/129
