g Emblem_Green_Triangle
v 2.346332E-15 17.76802 6.576703
v -1.799098 19.94694 5.465414
v 1.799098 19.94694 5.465414
v 2.346332E-15 17.76802 6.576703
v 1.799098 19.94694 5.465414
v 1.799098 19.36456 4.29973
v 2.034179E-15 17.18564 5.411019
v -1.799098 19.94694 5.465414
v 2.034179E-15 17.18564 5.411019
v -1.799098 19.36456 4.29973
v 1.799098 19.94694 5.465414
v -1.799098 19.94694 5.465414
v -1.799098 19.36456 4.29973
v 1.799098 19.36456 4.29973
vt 0.1191641 0.9794354
vt 0.1217275 0.9794354
vt 0.1191641 0.974079
vt 0.121231 0.9256791
vt 0.1223675 0.923972
vt 0.1198878 0.923972
vt 0.121231 0.9247469
vt 0.1198878 0.923972
vt 0.121231 0.9247469
vt 0.1223674 0.923972
vt 0.1198878 0.923972
vt 0.1198878 0.9264516
vt 0.1211276 0.9264516
vt 0.1211276 0.923972
vn 0 -0.4384505 0.8987553
vn -0.6720809 0.688814 0.2717397
vn 0.6720808 0.6888142 0.2717396
vn 0 -0.4384505 0.8987553
vn 0.6720808 0.6888142 0.2717396
vn 0.8031272 0.5329917 -0.2662824
vn 0 -0.8945694 0.4469291
vn -0.6720809 0.688814 0.2717397
vn 0 -0.8945694 0.4469291
vn -0.8031274 0.5329916 -0.2662823
vn 0.6720808 0.6888142 0.2717396
vn -0.6720809 0.688814 0.2717397
vn -0.8031274 0.5329916 -0.2662823
vn 0.8031272 0.5329917 -0.2662824
g Emblem_Green_Triangle_0
f 3/3/3 2/2/2 1/1/1
f 6/6/6 5/5/5 4/4/4
f 7/7/7 6/6/6 4/4/4
f 9/9/9 4/4/4 8/8/8
f 10/10/10 9/9/9 8/8/8
f 13/13/13 12/12/12 11/11/11
f 14/14/14 13/13/13 11/11/11
