g Emblem_Triangle_Wing_Green
v 1.655408 22.37128 5.023088
v 4.376954E-15 21.1879 6.240643
v -1.655408 22.37128 5.023088
v 2.879168E-15 23.14388 4.161231
v 3.038628 23.14388 4.161231
v 3.038628 22.3612 5.020226
v -3.038628 23.14388 4.161231
v -3.038628 22.3612 5.020226
v -3.038628 21.95531 3.078243
v -3.038628 22.3612 5.020226
v -3.038628 21.17262 3.937241
v -3.038628 23.14388 4.161231
v 2.879168E-15 23.14388 4.161231
v 2.564124E-15 21.95531 3.078243
v 3.038628 23.14388 4.161231
v 3.038628 21.95531 3.078243
v 3.038628 21.17262 3.937241
v 3.038628 22.3612 5.020226
v 3.038628 22.3612 5.020226
v 3.038628 21.17262 3.937241
v 1.639017 21.18269 3.940101
v 1.655408 22.37128 5.023088
v 3.727333E-15 19.99933 5.157659
v 4.376954E-15 21.1879 6.240643
v -1.655408 21.18715 3.921282
v -1.655408 22.37128 5.023088
v -3.038628 21.17262 3.937241
v -3.038628 22.3612 5.020226
vt 0.1217014 0.9755545
vt 0.1212692 0.9749014
vt 0.1208371 0.9755545
vt 0.1212693 0.9760626
vt 0.1226641 0.9760626
vt 0.1226641 0.9755449
vt 0.1198744 0.9760626
vt 0.1198744 0.9755449
vt 0.1265171 0.925097
vt 0.1265171 0.9217529
vt 0.1265171 0.9257891
vt 0.1265171 0.9210609
vt 0.1186781 0.9210609
vt 0.1186781 0.925097
vt 0.1108392 0.9210609
vt 0.1108392 0.925097
vt 0.1108392 0.9257891
vt 0.1108392 0.9217529
vt 0.1108392 0.9217529
vt 0.1108392 0.9257891
vt 0.1162494 0.9257762
vt 0.1162494 0.9217401
vt 0.1186781 0.9266494
vt 0.1186781 0.9226133
vt 0.1211068 0.9257762
vt 0.1211068 0.9217401
vt 0.1265171 0.9257891
vt 0.1265171 0.9217529
vn 0.2666301 0.2875174 0.9199142
vn -0.003120223 -0.03748108 0.9992925
vn -0.2696758 0.2846776 0.9199095
vn 0 0.9878495 -0.1554131
vn 0.3209768 0.8896446 -0.3248174
vn 0.4818266 0.09964738 0.8705823
vn -0.3209768 0.8896446 -0.3248175
vn -0.4805477 0.0990489 0.8713571
vn -0.3572092 0.6290757 -0.6904095
vn -0.4805477 0.0990489 0.8713571
vn -0.6378362 -0.5216969 0.5665664
vn -0.3209768 0.8896446 -0.3248175
vn 0 0.9878495 -0.1554131
vn 0 0.673511 -0.7391772
vn 0.3209768 0.8896446 -0.3248174
vn 0.3572093 0.6290757 -0.6904095
vn 0.6411104 -0.516874 0.5672908
vn 0.4818266 0.09964738 0.8705823
vn 0.4818266 0.09964738 0.8705823
vn 0.6411104 -0.516874 0.5672908
vn 0.4902228 -0.5888736 0.6425803
vn 0.2666301 0.2875174 0.9199142
vn -0.005523968 -0.6773698 0.7356219
vn -0.003120223 -0.03748108 0.9992925
vn -0.4878829 -0.5912889 0.6421431
vn -0.2696758 0.2846776 0.9199095
vn -0.6378362 -0.5216969 0.5665664
vn -0.4805477 0.0990489 0.8713571
g Emblem_Triangle_Wing_Green_0
f 3/3/3 2/2/2 1/1/1
f 4/4/4 3/3/3 1/1/1
f 4/4/4 1/1/1 5/5/5
f 1/1/1 6/6/6 5/5/5
f 3/3/3 4/4/4 7/7/7
f 8/8/8 3/3/3 7/7/7
f 11/11/11 10/10/10 9/9/9
f 10/10/10 12/12/12 9/9/9
f 9/9/9 12/12/12 13/13/13
f 14/14/14 9/9/9 13/13/13
f 13/13/13 15/15/15 14/14/14
f 15/15/15 16/16/16 14/14/14
f 17/17/17 16/16/16 15/15/15
f 18/18/18 17/17/17 15/15/15
f 21/21/21 20/20/20 19/19/19
f 22/22/22 21/21/21 19/19/19
f 23/23/23 21/21/21 22/22/22
f 24/24/24 23/23/23 22/22/22
f 25/25/25 23/23/23 24/24/24
f 26/26/26 25/25/25 24/24/24
f 27/27/27 25/25/25 26/26/26
f 28/28/28 27/27/27 26/26/26
