g Emblem_Triangle_Wing_Yellow
v 1.655408 22.37128 5.023088
v 4.376954E-15 21.1879 6.240643
v -1.655408 22.37128 5.023088
v 2.879168E-15 23.14388 4.161231
v 3.038628 23.14388 4.161231
v 3.038628 22.3612 5.020226
v -3.038628 23.14388 4.161231
v -3.038628 22.3612 5.020226
v -3.038628 21.95531 3.078243
v -3.038628 22.3612 5.020226
v -3.038628 21.17262 3.937241
v -3.038628 23.14388 4.161231
v 2.879168E-15 23.14388 4.161231
v 2.564124E-15 21.95531 3.078243
v 3.038628 23.14388 4.161231
v 3.038628 21.95531 3.078243
v 3.038628 21.17262 3.937241
v 3.038628 22.3612 5.020226
v 3.038628 22.3612 5.020226
v 3.038628 21.17262 3.937241
v 1.639017 21.18269 3.940101
v 1.655408 22.37128 5.023088
v 3.727333E-15 19.99933 5.157659
v 4.376954E-15 21.1879 6.240643
v -1.655408 21.18715 3.921282
v -1.655408 22.37128 5.023088
v -3.038628 21.17262 3.937241
v -3.038628 22.3612 5.020226
vt 0.1694684 0.9755545
vt 0.1690363 0.9749014
vt 0.1686042 0.9755545
vt 0.1690363 0.9760626
vt 0.1704312 0.9760626
vt 0.1704312 0.9755449
vt 0.1676415 0.9760626
vt 0.1676415 0.9755449
vt 0.1742841 0.925097
vt 0.1742841 0.9217529
vt 0.1742841 0.9257891
vt 0.1742841 0.9210609
vt 0.1664452 0.9210609
vt 0.1664452 0.925097
vt 0.1586062 0.9210609
vt 0.1586062 0.925097
vt 0.1586062 0.9257891
vt 0.1586062 0.9217529
vt 0.1586062 0.9217529
vt 0.1586062 0.9257891
vt 0.1640165 0.9257762
vt 0.1640165 0.9217401
vt 0.1664452 0.9266494
vt 0.1664452 0.9226133
vt 0.1688738 0.9257762
vt 0.1688738 0.9217401
vt 0.1742841 0.9257891
vt 0.1742841 0.9217529
vn 0.2631495 0.119769 0.9572919
vn 0 -0.1248326 0.9921779
vn -0.2614169 0.1185938 0.9579127
vn 0 0.9884674 0.1514335
vn 0.5771012 0.8156832 -0.0401891
vn 0.5779473 0.04016799 0.8150849
vn -0.5771012 0.8156832 -0.0401891
vn -0.5765976 0.03808418 0.8161401
vn -0.7071068 0.4762443 -0.5226771
vn -0.5765976 0.03808418 0.8161401
vn -0.7037369 -0.4812497 0.5226404
vn -0.5771012 0.8156832 -0.0401891
vn 0 0.9884674 0.1514335
vn 0 0.6735112 -0.7391771
vn 0.5771012 0.8156832 -0.0401891
vn 0.7071068 0.4762443 -0.5226771
vn 0.705919 -0.4770328 0.5235628
vn 0.5779473 0.04016799 0.8150849
vn 0.5779473 0.04016799 0.8150849
vn 0.705919 -0.4770328 0.5235628
vn 0.3880402 -0.6221954 0.6799247
vn 0.2631495 0.119769 0.9572919
vn 0 -0.6773795 0.7356338
vn 0 -0.1248326 0.9921779
vn -0.3852007 -0.6251057 0.6788691
vn -0.2614169 0.1185938 0.9579127
vn -0.7037369 -0.4812497 0.5226404
vn -0.5765976 0.03808418 0.8161401
g Emblem_Triangle_Wing_Yellow_0
f 3/3/3 2/2/2 1/1/1
f 4/4/4 3/3/3 1/1/1
f 4/4/4 1/1/1 5/5/5
f 1/1/1 6/6/6 5/5/5
f 3/3/3 4/4/4 7/7/7
f 8/8/8 3/3/3 7/7/7
f 11/11/11 10/10/10 9/9/9
f 10/10/10 12/12/12 9/9/9
f 9/9/9 12/12/12 13/13/13
f 14/14/14 9/9/9 13/13/13
f 13/13/13 15/15/15 14/14/14
f 15/15/15 16/16/16 14/14/14
f 17/17/17 16/16/16 15/15/15
f 18/18/18 17/17/17 15/15/15
f 21/21/21 20/20/20 19/19/19
f 22/22/22 21/21/21 19/19/19
f 23/23/23 21/21/21 22/22/22
f 24/24/24 23/23/23 22/22/22
f 25/25/25 23/23/23 24/24/24
f 26/26/26 25/25/25 24/24/24
f 27/27/27 25/25/25 26/26/26
f 28/28/28 27/27/27 26/26/26
