g Emblem_Green_Triangle_Winged
v 3.846858E-15 19.61513 4.534345
v -1.244562 20.86665 3.448157
v 1.244562 20.86665 3.448157
v -1.995919 21.65241 2.649223
v -1.244562 20.86665 3.448157
v -1.995919 20.86665 3.448157
v -1.995919 21.65241 2.649223
v 1.244562 20.86665 3.448157
v -1.244562 20.86665 3.448157
v 1.995919 21.65241 2.649223
v 1.995919 20.86665 3.448157
v 1.244562 20.86665 3.448157
v 1.244561 19.82591 2.340487
v 1.702558E-15 18.61813 3.385588
v 3.846858E-15 19.61513 4.534345
v 3.846858E-15 19.61513 4.534345
v 1.702558E-15 18.61813 3.385588
v -1.244561 19.82591 2.340487
v -1.244562 20.86665 3.448157
v -1.244562 20.86665 3.448157
v -1.244561 19.82591 2.340487
v -1.995919 19.78218 2.381574
v -1.995919 20.86665 3.448157
v -1.995919 20.86665 3.448157
v -1.995919 19.78218 2.381574
v -1.995919 20.56794 1.582641
v -1.995919 21.65241 2.649223
v -1.995919 21.65241 2.649223
v -1.995919 20.56794 1.582641
v 1.995919 20.56794 1.58264
v 1.995919 21.65241 2.649223
v 1.995919 20.86665 3.448157
v 1.995919 19.78218 2.381574
v 1.244561 19.82591 2.340487
v 1.244562 20.86665 3.448157
v 1.995919 21.65241 2.649223
v 1.995919 20.56794 1.58264
v 1.995919 19.78218 2.381574
v 1.995919 20.86665 3.448157
vt 0.2819147 0.9791799
vt 0.2837086 0.9791798
vt 0.2819147 0.9754315
vt 0.2826384 0.9749492
vt 0.2837086 0.9791798
vt 0.2827567 0.9751968
vt 0.2826384 0.9749492
vt 0.2847769 0.973602
vt 0.2837086 0.9791798
vt 0.2849243 0.9733805
vt 0.2847769 0.973602
vt 0.3351954 0.9836671
vt 0.3351954 0.973566
vt 0.3250944 0.973566
vt 0.3250944 0.9836671
vt 0.3351954 0.9836671
vt 0.3351954 0.973566
vt 0.3250944 0.973566
vt 0.3250944 0.9836671
vt 0.3351954 0.9836671
vt 0.3351954 0.973566
vt 0.3250944 0.973566
vt 0.3250944 0.9836671
vt 0.3351954 0.9836671
vt 0.3351954 0.973566
vt 0.3250944 0.973566
vt 0.3250944 0.9836671
vt 0.3351954 0.9836671
vt 0.3351954 0.973566
vt 0.3250944 0.973566
vt 0.3250944 0.9836671
vt 0.3351954 0.9836671
vt 0.3351954 0.973566
vt 0.3250944 0.973566
vt 0.3250944 0.9836671
vt 0.3351954 0.9836671
vt 0.3351954 0.973566
vt 0.3250944 0.973566
vt 0.3250944 0.9836671
vn 0 -0.4070592 0.9134018
vn -0.3194934 0.3163527 0.8932216
vn 0.3194934 0.3163527 0.8932216
vn -0.2522773 0.8859594 -0.3891425
vn -0.3194934 0.3163527 0.8932216
vn -0.8080338 -0.2516695 0.5326761
vn -0.2522773 0.8859594 -0.3891425
vn 0.3194934 0.3163527 0.8932216
vn -0.3194934 0.3163527 0.8932216
vn 0.2522773 0.8859594 -0.3891425
vn 0.8080338 -0.2516694 0.5326762
vn 0.3194934 0.3163527 0.8932216
vn 0.6278251 -0.5699447 0.5300931
vn 0 -0.7421558 0.6702273
vn 0 -0.4070592 0.9134018
vn 0 -0.4070592 0.9134018
vn 0 -0.7421558 0.6702273
vn -0.6278251 -0.5699447 0.5300931
vn -0.3194934 0.3163527 0.8932216
vn -0.3194934 0.3163527 0.8932216
vn -0.6278251 -0.5699447 0.5300931
vn -0.8241892 -0.4049874 0.3958504
vn -0.8080338 -0.2516695 0.5326761
vn -0.8080338 -0.2516695 0.5326761
vn -0.8241892 -0.4049874 0.3958504
vn -0.2702724 0.6751078 -0.6864274
vn -0.2522773 0.8859594 -0.3891425
vn -0.2522773 0.8859594 -0.3891425
vn -0.2702724 0.6751078 -0.6864274
vn 0.2702723 0.6751078 -0.6864273
vn 0.2522773 0.8859594 -0.3891425
vn 0.8080338 -0.2516694 0.5326762
vn 0.8241892 -0.4049872 0.3958504
vn 0.6278251 -0.5699447 0.5300931
vn 0.3194934 0.3163527 0.8932216
vn 0.2522773 0.8859594 -0.3891425
vn 0.2702723 0.6751078 -0.6864273
vn 0.8241892 -0.4049872 0.3958504
vn 0.8080338 -0.2516694 0.5326762
g Emblem_Green_Triangle_Winged_0
f 3/3/3 2/2/2 1/1/1
f 6/6/6 5/5/5 4/4/4
f 9/9/9 8/8/8 7/7/7
f 8/8/8 10/10/10 7/7/7
f 8/8/8 11/11/11 10/10/10
f 14/14/14 13/13/13 12/12/12
f 15/15/15 14/14/14 12/12/12
f 18/18/18 17/17/17 16/16/16
f 19/19/19 18/18/18 16/16/16
f 22/22/22 21/21/21 20/20/20
f 23/23/23 22/22/22 20/20/20
f 26/26/26 25/25/25 24/24/24
f 27/27/27 26/26/26 24/24/24
f 30/30/30 29/29/29 28/28/28
f 31/31/31 30/30/30 28/28/28
f 34/34/34 33/33/33 32/32/32
f 35/35/35 34/34/34 32/32/32
f 38/38/38 37/37/37 36/36/36
f 39/39/39 38/38/38 36/36/36
