g Emblem_Triangle_Wing_Green
v 1.528713 19.10246 5.91973
v 1.271853E-15 17.59457 6.6965
v -1.528713 19.10246 5.91973
v 1.531033E-15 20.21004 5.31118
v 2.722752 20.21004 5.31118
v 2.722752 19.08476 5.90637
v -2.722752 20.21004 5.31118
v -2.722752 19.08476 5.90637
v -2.722752 19.55166 3.993375
v -2.722752 19.08476 5.90637
v -2.722752 18.42639 4.588569
v -2.722752 20.21004 5.31118
v 1.531033E-15 20.21004 5.31118
v 1.421391E-15 19.55166 3.993375
v 2.722752 20.21004 5.31118
v 2.722752 19.55166 3.993375
v 2.722752 18.42639 4.588569
v 2.722752 19.08476 5.90637
v 2.722752 19.08476 5.90637
v 2.722752 18.42639 4.588569
v 1.528713 18.44408 4.579728
v 1.528713 19.10246 5.91973
v 1.261E-15 16.9362 5.400896
v 1.271853E-15 17.59457 6.6965
v -1.528713 18.44408 4.579728
v -1.528713 19.10246 5.91973
v -2.722752 18.42639 4.588569
v -2.722752 19.08476 5.90637
vt 0.1202372 0.978249
vt 0.1206051 0.9798808
vt 0.120973 0.978249
vt 0.1206051 0.9769798
vt 0.1194176 0.9769798
vt 0.1194176 0.978273
vt 0.1217926 0.9769798
vt 0.1217926 0.978273
vt 0.1191096 0.9211912
vt 0.1191096 0.9214671
vt 0.1191096 0.920846
vt 0.1191096 0.9218122
vt 0.120611 0.9218122
vt 0.120611 0.9211912
vt 0.1221123 0.9218122
vt 0.1221123 0.9211912
vt 0.1221123 0.920846
vt 0.1221123 0.9214671
vt 0.1221123 0.9214671
vt 0.1221123 0.920846
vt 0.1210761 0.9208525
vt 0.1210761 0.9214735
vt 0.120611 0.920417
vt 0.120611 0.9210381
vt 0.1201458 0.9208525
vt 0.1201458 0.9214735
vt 0.1191096 0.920846
vt 0.1191096 0.9214671
vn 0.2764367 -0.2052893 0.9388499
vn 0 -0.4403186 0.8978416
vn -0.2764367 -0.2052893 0.9388499
vn 0 0.8784152 0.4778981
vn 0.5728576 0.7818365 0.2461013
vn 0.5819204 -0.2454527 0.7753204
vn -0.5728576 0.7818365 0.2461013
vn -0.5819204 -0.2454527 0.7753204
vn -0.7071068 0.6325565 -0.3160258
vn -0.5819204 -0.2454527 0.7753204
vn -0.7026963 -0.6375372 0.3158549
vn -0.5728576 0.7818365 0.2461013
vn 0 0.8784152 0.4778981
vn 0 0.89457 -0.4469279
vn 0.5728576 0.7818365 0.2461013
vn 0.7071068 0.6325565 -0.3160258
vn 0.7026963 -0.6375372 0.3158549
vn 0.5819204 -0.2454527 0.7753204
vn 0.5819204 -0.2454527 0.7753204
vn 0.7026963 -0.6375372 0.3158549
vn 0.4021429 -0.8198665 0.4075538
vn 0.2764367 -0.2052893 0.9388499
vn 0 -0.8945698 0.4469284
vn 0 -0.4403186 0.8978416
vn -0.4021429 -0.8198665 0.4075538
vn -0.2764367 -0.2052893 0.9388499
vn -0.7026963 -0.6375372 0.3158549
vn -0.5819204 -0.2454527 0.7753204
g Emblem_Triangle_Wing_Green_0
f 3/3/3 2/2/2 1/1/1
f 4/4/4 3/3/3 1/1/1
f 4/4/4 1/1/1 5/5/5
f 1/1/1 6/6/6 5/5/5
f 3/3/3 4/4/4 7/7/7
f 8/8/8 3/3/3 7/7/7
f 11/11/11 10/10/10 9/9/9
f 10/10/10 12/12/12 9/9/9
f 9/9/9 12/12/12 13/13/13
f 14/14/14 9/9/9 13/13/13
f 13/13/13 15/15/15 14/14/14
f 15/15/15 16/16/16 14/14/14
f 17/17/17 16/16/16 15/15/15
f 18/18/18 17/17/17 15/15/15
f 21/21/21 20/20/20 19/19/19
f 22/22/22 21/21/21 19/19/19
f 23/23/23 21/21/21 22/22/22
f 24/24/24 23/23/23 22/22/22
f 25/25/25 23/23/23 24/24/24
f 26/26/26 25/25/25 24/24/24
f 27/27/27 25/25/25 26/26/26
f 28/28/28 27/27/27 26/26/26
