g Emblem_Circle_Wing
v 1.395102 19.72757 3.831967
v 1.395102 20.50122 5.244951
v 0.8054624 21.01842 4.961773
v 0.8054624 20.24475 3.548788
v 2.427601E-15 21.20772 4.858121
v 2.089535E-15 20.43406 3.445136
v -0.8054624 21.01842 4.961773
v -0.8054624 20.24475 3.548788
v -1.395102 20.50122 5.244951
v -1.395102 19.72757 3.831967
v -2.619246 19.72757 3.831967
v -2.619246 20.50122 5.244951
v -2.619246 18.31458 4.605629
v -2.619246 19.08824 6.018612
v -1.395102 18.31458 4.605629
v -1.395102 19.08824 6.018612
v -0.8054624 18.57105 6.301793
v -0.8054624 17.79739 4.888807
v 2.801647E-15 18.38175 6.405444
v 2.463582E-15 17.60809 4.992458
v 0.8054624 18.57105 6.301793
v 0.8054624 17.79739 4.888807
v 1.395102 19.08824 6.018612
v 1.395102 18.31458 4.605629
v 2.570811 18.31458 4.605629
v 2.570811 19.08824 6.018612
v 2.570811 19.72757 3.831967
v 2.570811 20.50122 5.244951
v 1.395102 19.72757 3.831967
v 1.395102 20.50122 5.244951
v -1.395102 19.08824 6.018612
v -2.619246 19.08824 6.018612
v -1.610925 19.79473 5.631783
v -2.619246 20.50122 5.244951
v -1.395102 20.50122 5.244951
v 1.395102 20.50122 5.244951
v 2.570811 20.50122 5.244951
v 1.610925 19.79473 5.631783
v 2.570811 19.08824 6.018612
v 1.395102 19.08824 6.018612
v -1.395102 20.50122 5.244951
v 2.614624E-15 19.79473 5.631783
v -1.610925 19.79473 5.631783
v -0.8054624 21.01842 4.961773
v -1.395102 19.08824 6.018612
v 2.427601E-15 21.20772 4.858121
v -0.8054624 18.57105 6.301793
v 0.8054624 21.01842 4.961773
v 2.801647E-15 18.38175 6.405444
v 1.395102 20.50122 5.244951
v 0.8054624 18.57105 6.301793
v 1.610925 19.79473 5.631783
v 1.395102 19.08824 6.018612
vt 0.1628459 0.9166915
vt 0.1628459 0.9278947
vt 0.1634667 0.9278947
vt 0.1634667 0.9166915
vt 0.1640876 0.9278947
vt 0.1640876 0.9166915
vt 0.1647084 0.9278947
vt 0.1647084 0.9166915
vt 0.1653292 0.9278947
vt 0.1653292 0.9166915
vt 0.1653292 0.9166915
vt 0.1653292 0.9278947
vt 0.1665709 0.9166915
vt 0.1665709 0.9278947
vt 0.1665709 0.9166915
vt 0.1665709 0.9278947
vt 0.1671918 0.9278947
vt 0.1671918 0.9166915
vt 0.1678126 0.9278947
vt 0.1678126 0.9166915
vt 0.1684334 0.9278947
vt 0.1684334 0.9166915
vt 0.1690543 0.9278947
vt 0.1690543 0.9166915
vt 0.1690543 0.9166915
vt 0.1690543 0.9278947
vt 0.170296 0.9166915
vt 0.170296 0.9278947
vt 0.170296 0.9166915
vt 0.170296 0.9278947
vt 0.1623252 0.9808532
vt 0.1623252 0.9808532
vt 0.1617044 0.9808532
vt 0.1610836 0.9808532
vt 0.1610836 0.9808532
vt 0.1660503 0.9808532
vt 0.1660503 0.9808532
vt 0.1654295 0.9808532
vt 0.1648086 0.9808532
vt 0.1648086 0.9808532
vt 0.1633321 0.9734187
vt 0.1623253 0.9740463
vt 0.1634878 0.9739999
vt 0.1629066 0.972993
vt 0.1633321 0.9745811
vt 0.1623253 0.9728372
vt 0.1629066 0.9750066
vt 0.161744 0.972993
vt 0.1623253 0.9751624
vt 0.1613185 0.9734187
vt 0.161744 0.9750066
vt 0.1611627 0.9739999
vt 0.1613185 0.9745811
vn 0.3826829 0.81036 -0.4437009
vn 0.2006901 0.8338944 0.5141434
vn 0.3473728 0.873168 0.3419208
vn 0.499999 0.7596145 -0.4159167
vn 0 0.9548095 0.2972183
vn 0 0.8771267 -0.4802591
vn -0.3473728 0.873168 0.3419208
vn -0.499999 0.7596145 -0.4159167
vn -0.2006901 0.8338944 0.5141434
vn -0.3826829 0.81036 -0.4437009
vn -0.7071068 0.6202227 -0.3395937
vn -0.4082489 0.7502156 0.5201052
vn -0.7071068 -0.6202228 0.3395934
vn -0.4082492 0.03404247 0.9122356
vn -0.3826829 -0.8103603 0.4437004
vn -0.2006902 -0.01605847 0.9795231
vn -0.3473741 -0.1823114 0.9198337
vn -0.4999998 -0.7596145 0.4159157
vn 0 -0.263953 0.9645355
vn 0 -0.8771271 0.4802583
vn 0.3473741 -0.1823114 0.9198337
vn 0.4999998 -0.7596145 0.4159157
vn 0.2006902 -0.01605844 0.9795231
vn 0.3826829 -0.8103603 0.4437003
vn 0.7071068 -0.6202228 0.3395934
vn 0.4082493 0.0340425 0.9122356
vn 0.7071068 0.6202227 -0.3395937
vn 0.408249 0.7502155 0.5201052
vn 0.3826829 0.81036 -0.4437009
vn 0.2006901 0.8338944 0.5141434
vn -0.2006902 -0.01605847 0.9795231
vn -0.4082492 0.03404247 0.9122356
vn 0 0.4802586 0.8771269
vn -0.4082489 0.7502156 0.5201052
vn -0.2006901 0.8338944 0.5141434
vn 0.2006901 0.8338944 0.5141434
vn 0.408249 0.7502155 0.5201052
vn 0 0.4802586 0.8771269
vn 0.4082493 0.0340425 0.9122356
vn 0.2006902 -0.01605844 0.9795231
vn -0.2006901 0.8338944 0.5141434
vn 0 0.4802588 0.8771268
vn 0 0.4802586 0.8771269
vn -0.3473728 0.873168 0.3419208
vn -0.2006902 -0.01605847 0.9795231
vn 0 0.9548095 0.2972183
vn -0.3473741 -0.1823114 0.9198337
vn 0.3473728 0.873168 0.3419208
vn 0 -0.263953 0.9645355
vn 0.2006901 0.8338944 0.5141434
vn 0.3473741 -0.1823114 0.9198337
vn 0 0.4802586 0.8771269
vn 0.2006902 -0.01605844 0.9795231
g Emblem_Circle_Wing_0
f 3/3/3 2/2/2 1/1/1
f 4/4/4 3/3/3 1/1/1
f 5/5/5 3/3/3 4/4/4
f 6/6/6 5/5/5 4/4/4
f 7/7/7 5/5/5 6/6/6
f 8/8/8 7/7/7 6/6/6
f 9/9/9 7/7/7 8/8/8
f 10/10/10 9/9/9 8/8/8
f 10/10/10 11/11/11 9/9/9
f 11/11/11 12/12/12 9/9/9
f 11/11/11 13/13/13 12/12/12
f 13/13/13 14/14/14 12/12/12
f 14/14/14 13/13/13 15/15/15
f 16/16/16 14/14/14 15/15/15
f 17/17/17 16/16/16 15/15/15
f 18/18/18 17/17/17 15/15/15
f 19/19/19 17/17/17 18/18/18
f 20/20/20 19/19/19 18/18/18
f 21/21/21 19/19/19 20/20/20
f 22/22/22 21/21/21 20/20/20
f 23/23/23 21/21/21 22/22/22
f 24/24/24 23/23/23 22/22/22
f 24/24/24 25/25/25 23/23/23
f 25/25/25 26/26/26 23/23/23
f 25/25/25 27/27/27 26/26/26
f 27/27/27 28/28/28 26/26/26
f 28/28/28 27/27/27 29/29/29
f 30/30/30 28/28/28 29/29/29
f 33/33/33 32/32/32 31/31/31
f 32/32/32 33/33/33 34/34/34
f 35/35/35 34/34/34 33/33/33
f 38/38/38 37/37/37 36/36/36
f 37/37/37 38/38/38 39/39/39
f 40/40/40 39/39/39 38/38/38
f 43/43/43 42/42/42 41/41/41
f 41/41/41 42/42/42 44/44/44
f 45/45/45 42/42/42 43/43/43
f 44/44/44 42/42/42 46/46/46
f 47/47/47 42/42/42 45/45/45
f 46/46/46 42/42/42 48/48/48
f 49/49/49 42/42/42 47/47/47
f 48/48/48 42/42/42 50/50/50
f 51/51/51 42/42/42 49/49/49
f 50/50/50 42/42/42 52/52/52
f 53/53/53 42/42/42 51/51/51
f 52/52/52 42/42/42 53/53/53
