g Emblem_Circle
v 1.544827 21.68926 3.170044
v 1.544827 23.07083 4.298439
v 0.8919063 23.48385 3.792754
v 0.8919063 22.10229 2.664359
v 2.937567E-15 23.63502 3.607658
v 2.384802E-15 22.25346 2.479264
v -0.8919063 23.48385 3.792754
v -0.8919063 22.10229 2.664359
v -1.544827 23.07083 4.298439
v -1.544827 21.68926 3.170044
v -1.783813 22.50663 4.98922
v -1.783813 21.12507 3.860826
v -1.544827 21.94243 5.680001
v -1.544827 20.56087 4.551607
v -0.8919063 21.52941 6.185687
v -0.8919063 20.14785 5.057292
v 3.587853E-15 21.37823 6.370782
v 3.035088E-15 19.99667 5.242387
v 0.8919063 21.52941 6.185687
v 0.8919063 20.14785 5.057292
v 1.544827 21.94243 5.680001
v 1.544827 20.56087 4.551607
v 1.783813 22.50663 4.98922
v 1.783813 21.12507 3.860826
v 1.544827 23.07083 4.298439
v 1.544827 21.68926 3.170044
v 1.544827 23.07083 4.298439
v 3.26271E-15 22.50663 4.98922
v 0.8919063 23.48385 3.792754
v 1.783813 22.50663 4.98922
v 2.937567E-15 23.63502 3.607658
v 1.544827 21.94243 5.680001
v -0.8919063 23.48385 3.792754
v 0.8919063 21.52941 6.185687
v -1.544827 23.07083 4.298439
v 3.587853E-15 21.37823 6.370782
v -1.783813 22.50663 4.98922
v -0.8919063 21.52941 6.185687
v -1.544827 21.94243 5.680001
vt 0.1651782 0.9257787
vt 0.1651782 0.9309723
vt 0.165466 0.9309723
vt 0.165466 0.9257787
vt 0.1657538 0.9309723
vt 0.1657538 0.9257787
vt 0.1660416 0.9309723
vt 0.1660416 0.9257787
vt 0.1663294 0.9309723
vt 0.1663294 0.9257787
vt 0.1666173 0.9309723
vt 0.1666173 0.9257787
vt 0.1669051 0.9309723
vt 0.1669051 0.9257787
vt 0.1671929 0.9309723
vt 0.1671929 0.9257787
vt 0.1674807 0.9309723
vt 0.1674807 0.9257787
vt 0.1677685 0.9309723
vt 0.1677685 0.9257787
vt 0.1680563 0.9309723
vt 0.1680563 0.9257787
vt 0.1683441 0.9309723
vt 0.1683441 0.9257787
vt 0.168632 0.9309723
vt 0.168632 0.9257787
vt 0.1710745 0.9763582
vt 0.168292 0.9746233
vt 0.1698985 0.9775343
vt 0.1715049 0.9747518
vt 0.168292 0.9779648
vt 0.1710745 0.9731453
vt 0.1666855 0.9775343
vt 0.1698985 0.9719692
vt 0.1655095 0.9763582
vt 0.168292 0.9715388
vt 0.165079 0.9747518
vt 0.1666855 0.9719692
vt 0.1655095 0.9731453
vn 0.8660251 0.3162876 -0.3872501
vn 0.601668 0.7768018 0.1859422
vn 0.3473731 0.9376624 -0.01100936
vn 0.5 0.5478256 -0.6707363
vn 0 0.9965413 -0.08309832
vn 0 0.6325745 -0.7744995
vn -0.3473731 0.9376624 -0.01100936
vn -0.5 0.5478256 -0.6707363
vn -0.601668 0.7768019 0.1859423
vn -0.8660251 0.3162876 -0.3872501
vn -0.6947466 0.557062 0.4549826
vn -1 0 0
vn -0.601668 0.3373228 0.7240227
vn -0.8660251 -0.3162877 0.38725
vn -0.3473735 0.1764623 0.9209738
vn -0.5000001 -0.5478256 0.6707361
vn 0 0.1175836 0.993063
vn 0 -0.6325745 0.7744995
vn 0.3473735 0.1764623 0.9209738
vn 0.5000001 -0.5478256 0.6707361
vn 0.601668 0.3373228 0.7240227
vn 0.8660251 -0.3162877 0.38725
vn 0.6947466 0.557062 0.4549826
vn 1 0 0
vn 0.601668 0.7768018 0.1859422
vn 0.8660251 0.3162876 -0.3872501
vn 0.601668 0.7768018 0.1859422
vn 0 0.7744992 0.6325749
vn 0.3473731 0.9376624 -0.01100936
vn 0.6947466 0.557062 0.4549826
vn 0 0.9965413 -0.08309832
vn 0.601668 0.3373228 0.7240227
vn -0.3473731 0.9376624 -0.01100936
vn 0.3473735 0.1764623 0.9209738
vn -0.601668 0.7768019 0.1859423
vn 0 0.1175836 0.993063
vn -0.6947466 0.557062 0.4549826
vn -0.3473735 0.1764623 0.9209738
vn -0.601668 0.3373228 0.7240227
g Emblem_Circle_0
f 3/3/3 2/2/2 1/1/1
f 4/4/4 3/3/3 1/1/1
f 5/5/5 3/3/3 4/4/4
f 6/6/6 5/5/5 4/4/4
f 7/7/7 5/5/5 6/6/6
f 8/8/8 7/7/7 6/6/6
f 9/9/9 7/7/7 8/8/8
f 10/10/10 9/9/9 8/8/8
f 11/11/11 9/9/9 10/10/10
f 12/12/12 11/11/11 10/10/10
f 13/13/13 11/11/11 12/12/12
f 14/14/14 13/13/13 12/12/12
f 15/15/15 13/13/13 14/14/14
f 16/16/16 15/15/15 14/14/14
f 17/17/17 15/15/15 16/16/16
f 18/18/18 17/17/17 16/16/16
f 19/19/19 17/17/17 18/18/18
f 20/20/20 19/19/19 18/18/18
f 21/21/21 19/19/19 20/20/20
f 22/22/22 21/21/21 20/20/20
f 23/23/23 21/21/21 22/22/22
f 24/24/24 23/23/23 22/22/22
f 25/25/25 23/23/23 24/24/24
f 26/26/26 25/25/25 24/24/24
f 29/29/29 28/28/28 27/27/27
f 27/27/27 28/28/28 30/30/30
f 31/31/31 28/28/28 29/29/29
f 30/30/30 28/28/28 32/32/32
f 33/33/33 28/28/28 31/31/31
f 32/32/32 28/28/28 34/34/34
f 35/35/35 28/28/28 33/33/33
f 34/34/34 28/28/28 36/36/36
f 37/37/37 28/28/28 35/35/35
f 36/36/36 28/28/28 38/38/38
f 39/39/39 28/28/28 37/37/37
f 38/38/38 28/28/28 39/39/39
