g Emblem_Circle
v 1.385112 18.35999 4.352133
v 1.385112 18.90244 5.94282
v 0.7996946 19.48467 5.744272
v 0.7996946 18.94222 4.153585
v 2.396907E-15 19.69778 5.671596
v 2.081412E-15 19.15533 4.080911
v -0.7996946 19.48467 5.744272
v -0.7996946 18.94222 4.153585
v -1.385112 18.90244 5.94282
v -1.385112 18.35999 4.352133
v -1.599389 18.10709 6.214044
v -1.599389 17.56465 4.623358
v -1.385112 17.31175 6.485268
v -1.385112 16.7693 4.894582
v -0.7996946 16.72952 6.683816
v -0.7996946 16.18707 5.09313
v 2.594695E-15 16.51641 6.756492
v 2.2792E-15 15.97396 5.165804
v 0.7996946 16.72952 6.683816
v 0.7996946 16.18707 5.09313
v 1.385112 17.31175 6.485268
v 1.385112 16.7693 4.894582
v 1.599389 18.10709 6.214044
v 1.599389 17.56465 4.623358
v 1.385112 18.90244 5.94282
v 1.385112 18.90244 5.94282
v 2.495801E-15 18.10709 6.214044
v 0.7996946 19.48467 5.744272
v 1.599389 18.10709 6.214044
v 2.396907E-15 19.69778 5.671596
v 1.385112 17.31175 6.485268
v -0.7996946 19.48467 5.744272
v 0.7996946 16.72952 6.683816
v -1.385112 18.90244 5.94282
v 2.594695E-15 16.51641 6.756492
v -1.599389 18.10709 6.214044
v -0.7996946 16.72952 6.683816
v -1.385112 17.31175 6.485268
vt 0.1692141 0.9211089
vt 0.1692141 0.9220411
vt 0.1692657 0.9220411
vt 0.1692657 0.9211089
vt 0.1693174 0.9220411
vt 0.1693174 0.9211089
vt 0.1693691 0.9220411
vt 0.1693691 0.9211089
vt 0.1694207 0.9220411
vt 0.1694207 0.9211089
vt 0.1694724 0.9220411
vt 0.1694724 0.9211089
vt 0.169524 0.9220411
vt 0.169524 0.9211089
vt 0.1695757 0.9220411
vt 0.1695757 0.9211089
vt 0.1696274 0.9220411
vt 0.1696274 0.9211089
vt 0.169679 0.9220411
vt 0.169679 0.9211089
vt 0.1697306 0.9220411
vt 0.1697306 0.9211089
vt 0.1697823 0.9220411
vt 0.1697823 0.9211089
vt 0.169834 0.9220411
vt 0.1707213 0.9772635
vt 0.1665511 0.9746631
vt 0.1689588 0.979026
vt 0.1713665 0.9748558
vt 0.1665511 0.9796711
vt 0.1707213 0.9724481
vt 0.1641435 0.979026
vt 0.1689588 0.9706855
vt 0.1623809 0.9772635
vt 0.1665511 0.9700404
vt 0.1617358 0.9748558
vt 0.1641435 0.9706855
vt 0.1623809 0.9724481
vn 0.8750998 0.4580417 -0.1561991
vn 0.6084987 0.5504589 0.5715981
vn 0.3582642 0.79507 0.4893981
vn 0.5161155 0.8106779 -0.2764529
vn 0 0.8889179 0.4580664
vn 0 0.9464797 -0.3227631
vn -0.3582643 0.7950699 0.489398
vn -0.5161155 0.8106779 -0.2764529
vn -0.6084987 0.5504589 0.571598
vn -0.8750998 0.4580417 -0.1561991
vn -0.6958851 0.2317934 0.6797174
vn -1 0 0
vn -0.608498 -0.08653649 0.788823
vn -0.8750995 -0.4580421 0.1561993
vn -0.3582647 -0.330404 0.8732008
vn -0.5161152 -0.8106778 0.2764535
vn 0 -0.4238407 0.9057367
vn 0 -0.9464795 0.3227641
vn 0.3582647 -0.330404 0.8732008
vn 0.5161152 -0.8106778 0.2764535
vn 0.608498 -0.08653647 0.788823
vn 0.8750995 -0.4580421 0.1561993
vn 0.6958851 0.2317934 0.6797174
vn 1 0 0
vn 0.6084987 0.5504589 0.5715981
vn 0.6084987 0.5504589 0.5715981
vn 0 0.3227631 0.9464797
vn 0.3582642 0.79507 0.4893981
vn 0.6958851 0.2317934 0.6797174
vn 0 0.8889179 0.4580664
vn 0.608498 -0.08653647 0.788823
vn -0.3582643 0.7950699 0.489398
vn 0.3582647 -0.330404 0.8732008
vn -0.6084987 0.5504589 0.571598
vn 0 -0.4238407 0.9057367
vn -0.6958851 0.2317934 0.6797174
vn -0.3582647 -0.330404 0.8732008
vn -0.608498 -0.08653649 0.788823
g Emblem_Circle_0
f 3/3/3 2/2/2 1/1/1
f 4/4/4 3/3/3 1/1/1
f 5/5/5 3/3/3 4/4/4
f 6/6/6 5/5/5 4/4/4
f 7/7/7 5/5/5 6/6/6
f 8/8/8 7/7/7 6/6/6
f 9/9/9 7/7/7 8/8/8
f 10/10/10 9/9/9 8/8/8
f 11/11/11 9/9/9 10/10/10
f 12/12/12 11/11/11 10/10/10
f 13/13/13 11/11/11 12/12/12
f 14/14/14 13/13/13 12/12/12
f 15/15/15 13/13/13 14/14/14
f 16/16/16 15/15/15 14/14/14
f 17/17/17 15/15/15 16/16/16
f 18/18/18 17/17/17 16/16/16
f 19/19/19 17/17/17 18/18/18
f 20/20/20 19/19/19 18/18/18
f 21/21/21 19/19/19 20/20/20
f 22/22/22 21/21/21 20/20/20
f 23/23/23 21/21/21 22/22/22
f 24/24/24 23/23/23 22/22/22
f 25/25/25 23/23/23 24/24/24
f 1/1/1 25/25/25 24/24/24
f 28/28/28 27/27/27 26/26/26
f 26/26/26 27/27/27 29/29/29
f 30/30/30 27/27/27 28/28/28
f 29/29/29 27/27/27 31/31/31
f 32/32/32 27/27/27 30/30/30
f 31/31/31 27/27/27 33/33/33
f 34/34/34 27/27/27 32/32/32
f 33/33/33 27/27/27 35/35/35
f 36/36/36 27/27/27 34/34/34
f 35/35/35 27/27/27 37/37/37
f 38/38/38 27/27/27 36/36/36
f 37/37/37 27/27/27 38/38/38
