g Emblem_Triangle_Wing_Yellow
v 1.528713 19.10246 5.91973
v 1.963275E-15 17.59457 6.6965
v -1.528713 19.10246 5.91973
v 2.494681E-15 20.21004 5.31118
v 2.722752 20.21004 5.31118
v 2.722752 19.08476 5.90637
v -2.722752 20.21004 5.31118
v -2.722752 19.08476 5.90637
v -2.722752 19.55166 3.993375
v -2.722752 19.08476 5.90637
v -2.722752 18.42639 4.588569
v -2.722752 20.21004 5.31118
v 2.494681E-15 20.21004 5.31118
v 2.316513E-15 19.55166 3.993375
v 2.722752 20.21004 5.31118
v 2.722752 19.55166 3.993375
v 2.722752 18.42639 4.588569
v 2.722752 19.08476 5.90637
v 2.722752 19.08476 5.90637
v 2.722752 18.42639 4.588569
v 1.528713 18.44408 4.579728
v 1.528713 19.10246 5.91973
v 1.883897E-15 16.9362 5.400896
v 1.963275E-15 17.59457 6.6965
v -1.528713 18.44408 4.579728
v -1.528713 19.10246 5.91973
v -2.722752 18.42639 4.588569
v -2.722752 19.08476 5.90637
vt 0.1630871 0.978249
vt 0.163455 0.9798808
vt 0.1638229 0.978249
vt 0.163455 0.9769798
vt 0.1622675 0.9769798
vt 0.1622675 0.978273
vt 0.1646425 0.9769798
vt 0.1646425 0.978273
vt 0.1619595 0.9211912
vt 0.1619595 0.9214671
vt 0.1619595 0.920846
vt 0.1619595 0.9218122
vt 0.1634608 0.9218122
vt 0.1634608 0.9211912
vt 0.1649621 0.9218122
vt 0.1649621 0.9211912
vt 0.1649621 0.920846
vt 0.1649621 0.9214671
vt 0.1649621 0.9214671
vt 0.1649621 0.920846
vt 0.163926 0.9208525
vt 0.163926 0.9214735
vt 0.1634608 0.920417
vt 0.1634608 0.9210381
vt 0.1629957 0.9208525
vt 0.1629957 0.9214735
vt 0.1619595 0.920846
vt 0.1619595 0.9214671
vn 0.2682794 0.1994953 0.9424584
vn 0 -0.1661794 0.9860955
vn -0.2682794 0.1994953 0.9424584
vn 0 0.9963906 0.0848863
vn 0.3714238 0.9243991 -0.08677801
vn 0.5231287 0.02714154 0.8518214
vn -0.3714238 0.9243991 -0.08677801
vn -0.5231289 0.02714161 0.8518214
vn -0.4182852 0.7297143 -0.540883
vn -0.5231289 0.02714161 0.8518214
vn -0.7280011 -0.5521334 0.4064025
vn -0.3714238 0.9243991 -0.08677801
vn 0 0.9963906 0.0848863
vn 0 0.8033708 -0.5954791
vn 0.3714238 0.9243991 -0.08677801
vn 0.4182852 0.7297143 -0.540883
vn 0.728001 -0.5521336 0.4064025
vn 0.5231287 0.02714154 0.8518214
vn 0.5231287 0.02714154 0.8518214
vn 0.728001 -0.5521336 0.4064025
vn 0.5230256 -0.6854813 0.5065172
vn 0.2682794 0.1994953 0.9424584
vn 0 -0.8033708 0.595479
vn 0 -0.1661794 0.9860955
vn -0.5230256 -0.6854813 0.5065172
vn -0.2682794 0.1994953 0.9424584
vn -0.7280011 -0.5521334 0.4064025
vn -0.5231289 0.02714161 0.8518214
g Emblem_Triangle_Wing_Yellow_0
f 3/3/3 2/2/2 1/1/1
f 4/4/4 3/3/3 1/1/1
f 4/4/4 1/1/1 5/5/5
f 1/1/1 6/6/6 5/5/5
f 3/3/3 4/4/4 7/7/7
f 8/8/8 3/3/3 7/7/7
f 11/11/11 10/10/10 9/9/9
f 10/10/10 12/12/12 9/9/9
f 9/9/9 12/12/12 13/13/13
f 14/14/14 9/9/9 13/13/13
f 13/13/13 15/15/15 14/14/14
f 15/15/15 16/16/16 14/14/14
f 17/17/17 16/16/16 15/15/15
f 18/18/18 17/17/17 15/15/15
f 21/21/21 20/20/20 19/19/19
f 22/22/22 21/21/21 19/19/19
f 23/23/23 21/21/21 22/22/22
f 24/24/24 23/23/23 22/22/22
f 25/25/25 23/23/23 24/24/24
f 26/26/26 25/25/25 24/24/24
f 27/27/27 25/25/25 26/26/26
f 28/28/28 27/27/27 26/26/26
