g Emblem_Circle_Wing
v 1.203439 19.88455 3.961359
v 1.203439 20.50561 5.204463
v 0.6948058 20.96062 4.977142
v 0.6948058 20.33956 3.734037
v 2.978417E-15 21.12716 4.893935
v 2.628667E-15 20.5061 3.65083
v -0.6948058 20.96062 4.977142
v -0.6948058 20.33956 3.734037
v -1.203439 20.50561 5.204463
v -1.203439 19.88455 3.961359
v -2.583212 19.88455 3.961359
v -2.583212 20.50561 5.204463
v -2.583212 18.64145 4.582416
v -2.583212 19.2625 5.825519
v -1.203439 18.64145 4.582416
v -1.203439 19.2625 5.825519
v -0.6948058 18.80749 6.052843
v -0.6948058 18.18644 4.809737
v 3.068373E-15 18.64095 6.136048
v 2.718623E-15 18.01989 4.892943
v 0.6948058 18.80749 6.052843
v 0.6948058 18.18644 4.809737
v 1.203439 19.2625 5.825519
v 1.203439 18.64145 4.582416
v 2.583212 18.64145 4.582416
v 2.583212 19.2625 5.825519
v 2.583212 19.88455 3.961359
v 2.583212 20.50561 5.204463
v 1.203439 19.88455 3.961359
v 1.203439 20.50561 5.204463
v -1.203439 19.2625 5.825519
v -2.583212 19.2625 5.825519
v -1.389612 19.88405 5.514993
v -2.583212 20.50561 5.204463
v -1.203439 20.50561 5.204463
v 1.203439 20.50561 5.204463
v 2.583212 20.50561 5.204463
v 1.389612 19.88405 5.514993
v 2.583212 19.2625 5.825519
v 1.203439 19.2625 5.825519
v -1.203439 20.50561 5.204463
v 3.023396E-15 19.88405 5.514993
v -1.389612 19.88405 5.514993
v -0.6948058 20.96062 4.977142
v -1.203439 19.2625 5.825519
v 2.978417E-15 21.12716 4.893935
v -0.6948058 18.80749 6.052843
v 0.6948058 20.96062 4.977142
v 3.068373E-15 18.64095 6.136048
v 1.203439 20.50561 5.204463
v 0.6948058 18.80749 6.052843
v 1.389612 19.88405 5.514993
v 1.203439 19.2625 5.825519
vt 0.1628459 0.9166915
vt 0.1628459 0.9278947
vt 0.1634667 0.9278947
vt 0.1634667 0.9166915
vt 0.1640876 0.9278947
vt 0.1640876 0.9166915
vt 0.1647084 0.9278947
vt 0.1647084 0.9166915
vt 0.1653292 0.9278947
vt 0.1653292 0.9166915
vt 0.1653292 0.9166915
vt 0.1653292 0.9278947
vt 0.1665709 0.9166915
vt 0.1665709 0.9278947
vt 0.1665709 0.9166915
vt 0.1665709 0.9278947
vt 0.1671918 0.9278947
vt 0.1671918 0.9166915
vt 0.1678126 0.9278947
vt 0.1678126 0.9166915
vt 0.1684334 0.9278947
vt 0.1684334 0.9166915
vt 0.1690543 0.9278947
vt 0.1690543 0.9166915
vt 0.1690543 0.9166915
vt 0.1690543 0.9278947
vt 0.170296 0.9166915
vt 0.170296 0.9278947
vt 0.170296 0.9166915
vt 0.170296 0.9278947
vt 0.1623252 0.9808532
vt 0.1623252 0.9808532
vt 0.1617044 0.9808532
vt 0.1610836 0.9808532
vt 0.1610836 0.9808532
vt 0.1660503 0.9808532
vt 0.1660503 0.9808532
vt 0.1654295 0.9808532
vt 0.1648086 0.9808532
vt 0.1648086 0.9808532
vt 0.1633321 0.9734187
vt 0.1623253 0.9740463
vt 0.1634878 0.9739999
vt 0.1629066 0.972993
vt 0.1633321 0.9745811
vt 0.1623253 0.9728372
vt 0.1629066 0.9750066
vt 0.161744 0.972993
vt 0.1623253 0.9751624
vt 0.1613185 0.9734187
vt 0.161744 0.9750066
vt 0.1611627 0.9739999
vt 0.1613185 0.9745811
vn 0.2600767 0.7757268 -0.5749852
vn 0.237785 0.9504446 -0.2002833
vn 0.4615381 0.8712522 -0.1670396
vn 0.4999995 0.695741 -0.5156984
vn 0 0.9706039 -0.2406826
vn 0 0.803372 -0.5954774
vn -0.461538 0.8712522 -0.1670397
vn -0.4999994 0.695741 -0.5156984
vn -0.237785 0.9504446 -0.2002833
vn -0.2600767 0.7757268 -0.5749852
vn -0.7096141 0.5660486 -0.4195673
vn -0.6865135 0.6983243 -0.2025894
vn -0.7096148 -0.5660474 0.4195679
vn -0.686513 -0.3969154 0.6092275
vn -0.2600766 -0.775726 0.5749866
vn -0.2377849 -0.4680274 0.8511221
vn -0.461538 -0.4131902 0.7850201
vn -0.4999993 -0.69574 0.5157
vn 0 -0.5125436 0.8586612
vn 0 -0.8033706 0.5954793
vn 0.461538 -0.4131908 0.7850198
vn 0.4999994 -0.69574 0.5157
vn 0.2377849 -0.4680277 0.8511219
vn 0.2600766 -0.775726 0.5749866
vn 0.7096148 -0.5660475 0.4195679
vn 0.6865129 -0.3969156 0.6092273
vn 0.7096142 0.5660486 -0.4195674
vn 0.6865135 0.6983243 -0.2025894
vn 0.2600767 0.7757268 -0.5749852
vn 0.237785 0.9504446 -0.2002833
vn -0.2377849 -0.4680274 0.8511221
vn -0.686513 -0.3969154 0.6092275
vn -5.467435E-07 0.5954795 0.8033705
vn -0.6865135 0.6983243 -0.2025894
vn -0.237785 0.9504446 -0.2002833
vn 0.237785 0.9504446 -0.2002833
vn 0.6865135 0.6983243 -0.2025894
vn 5.467435E-07 0.5954794 0.8033705
vn 0.6865129 -0.3969156 0.6092273
vn 0.2377849 -0.4680277 0.8511219
vn -0.237785 0.9504446 -0.2002833
vn 0 0.5954787 0.8033711
vn -5.467435E-07 0.5954795 0.8033705
vn -0.461538 0.8712522 -0.1670397
vn -0.2377849 -0.4680274 0.8511221
vn 0 0.9706039 -0.2406826
vn -0.461538 -0.4131902 0.7850201
vn 0.4615381 0.8712522 -0.1670396
vn 0 -0.5125436 0.8586612
vn 0.237785 0.9504446 -0.2002833
vn 0.461538 -0.4131908 0.7850198
vn 5.467435E-07 0.5954794 0.8033705
vn 0.2377849 -0.4680277 0.8511219
g Emblem_Circle_Wing_0
f 3/3/3 2/2/2 1/1/1
f 4/4/4 3/3/3 1/1/1
f 5/5/5 3/3/3 4/4/4
f 6/6/6 5/5/5 4/4/4
f 7/7/7 5/5/5 6/6/6
f 8/8/8 7/7/7 6/6/6
f 9/9/9 7/7/7 8/8/8
f 10/10/10 9/9/9 8/8/8
f 10/10/10 11/11/11 9/9/9
f 11/11/11 12/12/12 9/9/9
f 11/11/11 13/13/13 12/12/12
f 13/13/13 14/14/14 12/12/12
f 14/14/14 13/13/13 15/15/15
f 16/16/16 14/14/14 15/15/15
f 17/17/17 16/16/16 15/15/15
f 18/18/18 17/17/17 15/15/15
f 19/19/19 17/17/17 18/18/18
f 20/20/20 19/19/19 18/18/18
f 21/21/21 19/19/19 20/20/20
f 22/22/22 21/21/21 20/20/20
f 23/23/23 21/21/21 22/22/22
f 24/24/24 23/23/23 22/22/22
f 24/24/24 25/25/25 23/23/23
f 25/25/25 26/26/26 23/23/23
f 25/25/25 27/27/27 26/26/26
f 27/27/27 28/28/28 26/26/26
f 28/28/28 27/27/27 29/29/29
f 30/30/30 28/28/28 29/29/29
f 33/33/33 32/32/32 31/31/31
f 32/32/32 33/33/33 34/34/34
f 35/35/35 34/34/34 33/33/33
f 38/38/38 37/37/37 36/36/36
f 37/37/37 38/38/38 39/39/39
f 40/40/40 39/39/39 38/38/38
f 43/43/43 42/42/42 41/41/41
f 41/41/41 42/42/42 44/44/44
f 45/45/45 42/42/42 43/43/43
f 44/44/44 42/42/42 46/46/46
f 47/47/47 42/42/42 45/45/45
f 46/46/46 42/42/42 48/48/48
f 49/49/49 42/42/42 47/47/47
f 48/48/48 42/42/42 50/50/50
f 51/51/51 42/42/42 49/49/49
f 50/50/50 42/42/42 52/52/52
f 53/53/53 42/42/42 51/51/51
f 52/52/52 42/42/42 53/53/53
