g Emblem_Green_Triangle
v 3.296752E-15 16.16852 7.32284
v -2.573335 19.46854 6.260939
v 2.573335 19.46854 6.260939
v 3.296752E-15 16.16852 7.32284
v 2.573335 19.46854 6.260939
v 2.573335 18.95291 4.589991
v 2.841889E-15 15.65289 5.651893
v 2.573335 19.46854 6.260939
v -2.573335 19.46854 6.260939
v -2.573335 18.95291 4.589991
v 2.573335 18.95291 4.589991
v -2.573335 19.46854 6.260939
v 3.296752E-15 16.16852 7.32284
v 2.841889E-15 15.65289 5.651893
v -2.573335 18.95291 4.589991
vt 0.1191641 0.9794354
vt 0.1217275 0.9794354
vt 0.1191641 0.974079
vt 0.121231 0.9256791
vt 0.1223675 0.923972
vt 0.1198878 0.923972
vt 0.121231 0.9247469
vt 0.1198878 0.923972
vt 0.1198878 0.9264516
vt 0.1211276 0.9264516
vt 0.1211276 0.923972
vt 0.1198878 0.923972
vt 0.121231 0.9256791
vt 0.121231 0.9247469
vt 0.1223674 0.923972
vn 0 0.3858285 0.9225705
vn 0 0.3858285 0.9225705
vn 0 0.3858285 0.9225705
vn 0.7996678 -0.5127649 0.3124157
vn 0.7996679 -0.5127648 0.3124158
vn 0.7996678 -0.5127648 0.3124157
vn 0.7996678 -0.5127648 0.3124157
vn 0 0.8539786 -0.5203081
vn 0 0.8539786 -0.5203081
vn 0 0.8539786 -0.5203081
vn 0 0.8539786 -0.5203081
vn -0.7996679 -0.5127648 0.3124157
vn -0.7996679 -0.5127648 0.3124157
vn -0.7996679 -0.5127648 0.3124157
vn -0.7996679 -0.5127648 0.3124157
g Emblem_Green_Triangle_0
f 3/3/3 2/2/2 1/1/1
f 6/6/6 5/5/5 4/4/4
f 7/7/7 6/6/6 4/4/4
f 10/10/10 9/9/9 8/8/8
f 11/11/11 10/10/10 8/8/8
f 14/14/14 13/13/13 12/12/12
f 15/15/15 14/14/14 12/12/12
