g EyeLH
v 18.56995 20.86395 18.43828
v 14.99769 18.35816 17.17955
v 18.09809 15.79487 13.73035
v 21.60173 18.3574 15.06544
v 21.4034 11.69186 13.16436
v 16.89657 20.90746 23.34218
v 13.28642 18.40266 22.19448
v 24.83385 14.34523 14.51198
v 23.65108 7.616348 15.69777
v 17.22075 18.4713 27.90404
v 13.61794 15.91134 26.8596
v 27.03177 10.35995 16.98931
v 23.9826 5.125038 20.3629
v 19.41866 14.48602 30.38136
v 15.86561 11.83583 29.39302
v 27.35595 7.9238 21.55116
v 22.27132 5.169541 25.37784
v 22.65079 10.47385 29.82791
v 19.17091 7.732835 28.82703
v 25.68256 7.967308 26.45507
v 17.87999 18.23882 27.45576
v 19.87082 14.62903 29.69967
v 22.79841 10.99489 29.19836
v 25.54453 8.724517 26.14331
v 27.06025 8.685107 21.70145
v 26.76662 10.89172 17.56942
v 17.58636 20.44544 23.32372
v 24.77579 14.50151 15.3255
v 19.10208 20.40603 18.88186
v 21.8482 18.13565 15.82681
v 22.57673 11.12578 28.62738
v 25.11381 9.028222 25.80488
v 26.51415 8.991814 21.70114
v 26.24287 11.03047 17.88363
v 24.40359 14.36547 15.81053
v 21.69884 17.72298 16.27367
v 19.87199 14.48329 29.09053
v 19.16176 19.82053 19.09617
v 18.0327 17.81829 27.01742
v 17.76141 19.85693 23.19992
v 25.55988 10.32159 21.90124
v 25.35224 11.8819 18.97945
v 23.94452 14.4344 17.39276
v 21.87439 17.00413 17.74724
v 19.9326 18.60953 19.90749
v 18.86082 18.63739 23.04836
v 24.4881 10.34945 25.04211
v 19.06845 17.07708 25.97015
v 22.5463 11.95485 27.20236
v 20.47618 14.52457 27.55684
v 22.962 14.31317 19.66191
v 21.84166 15.70389 19.85375
v 22.15173 14.43497 22.45519
v 20.79076 16.57273 21.02287
v 23.72386 12.93177 20.52062
v 20.21072 16.58781 22.7227
v 23.83623 12.08733 22.10188
v 20.32309 15.74337 24.30396
v 23.25618 12.10241 23.80171
v 21.08495 14.36197 25.16267
v 22.20529 12.97124 24.97083
vt 0.1960934 0.9429125
vt 0.2066769 0.9516996
vt 0.156625 0.990656
vt 0.153239 0.977318
vt 0.0932501 0.9927534
vt 0.2105172 0.8898761
vt 0.2242509 0.8907524
vt 0.09835285 0.9799703
vt 0.04074973 0.9572104
vt 0.1910211 0.8384888
vt 0.2026467 0.8311231
vt 0.05239028 0.9498622
vt 0.01916045 0.8976029
vt 0.1450445 0.8083743
vt 0.1501195 0.795584
vt 0.0328986 0.898492
vt 0.03672224 0.8366853
vt 0.09014934 0.8110499
vt 0.08673817 0.7977145
vt 0.04731899 0.8454735
vt 0.1842118 0.8439512
vt 0.1427453 0.8167943
vt 0.09324133 0.8192139
vt 0.05461949 0.8502606
vt 0.04161888 0.8980745
vt 0.05920047 0.9443998
vt 0.2017986 0.8902929
vt 0.1006527 0.9715484
vt 0.1887913 0.9381303
vt 0.150149 0.9691517
vt 0.09558606 0.8253678
vt 0.06013423 0.8538605
vt 0.04819638 0.897746
vt 0.06432897 0.9402683
vt 0.1023736 0.9651915
vt 0.1478048 0.9629968
vt 0.1410233 0.8231492
vt 0.1832808 0.9345213
vt 0.1790835 0.8480814
vt 0.1952226 0.890619
vt 0.06544453 0.8969064
vt 0.07779175 0.9294535
vt 0.1069111 0.9485297
vt 0.1416851 0.9468495
vt 0.1688383 0.9250519
vt 0.1779785 0.8914545
vt 0.07458323 0.8633173
vt 0.1656242 0.8588936
vt 0.1017179 0.8415102
vt 0.1364912 0.8398094
vt 0.1137128 0.92353
vt 0.1324956 0.9226272
vt 0.1217169 0.8941754
vt 0.1471624 0.9108572
vt 0.09798712 0.9132221
vt 0.1521048 0.8927139
vt 0.09132367 0.8956403
vt 0.1454379 0.8751265
vt 0.09626704 0.8774992
vt 0.1297101 0.8648161
vt 0.1109295 0.8657258
vn -0.2920026 0.8546485 -0.4293139
vn -0.3916299 0.7928554 -0.4669114
vn -0.0303426 0.4941572 -0.8688429
vn 0.06468941 0.5597494 -0.8261331
vn 0.3548209 0.01603824 -0.9347968
vn -0.4888793 0.8597671 0.1476396
vn -0.5910431 0.7980398 0.1174751
vn 0.4449536 0.08771209 -0.8912479
vn 0.6167418 -0.4588754 -0.6395801
vn -0.45074 0.5731492 0.6843489
vn -0.5524123 0.5077295 0.6610987
vn 0.703543 -0.3811608 -0.5997863
vn 0.6553741 -0.7491844 -0.0959556
vn -0.1921527 0.1042758 0.9758094
vn -0.2904932 0.03281499 0.9563143
vn 0.7416837 -0.6677774 -0.06307621
vn 0.45596 -0.7440007 0.4884296
vn 0.188113 -0.3677619 0.9106945
vn 0.09467106 -0.4453037 0.8903607
vn 0.5448062 -0.6626593 0.5138761
vn 0.7133215 0.6258715 0.3153686
vn 0.7370892 0.5827736 0.3421614
vn 0.772043 0.5393847 0.336175
vn 0.8048303 0.5122785 0.2996979
vn 0.8229275 0.5118071 0.2466651
vn 0.8194218 0.5381528 0.1973312
vn 0.7098185 0.6522143 0.2660342
vn 0.7956523 0.5812517 0.17054
vn 0.7279148 0.6517443 0.2130011
vn 0.760699 0.6246405 0.1765254
vn 0.7561557 0.6374233 0.1480541
vn 0.7120292 0.6739053 0.1971447
vn 0.6876734 0.6745386 0.2685199
vn 0.6923916 0.6390806 0.3349174
vn 0.7243817 0.5810753 0.370975
vn 0.7714245 0.5226793 0.3629196
vn 0.8031982 0.5790276 0.1399993
vn 0.8155519 0.4861961 0.3138286
vn 0.8351892 0.5210218 0.176055
vn 0.8399084 0.4855625 0.2424518
vn 0.7663409 0.5883724 0.2579526
vn 0.7665388 0.5868859 0.2607358
vn 0.7678798 0.5844544 0.2622476
vn 0.7698514 0.5820072 0.2619093
vn 0.7717003 0.5804788 0.2598517
vn 0.7727208 0.5804526 0.2568605
vn 0.767362 0.5883454 0.2549613
vn 0.7725237 0.5819382 0.2540767
vn 0.7692117 0.5868164 0.2529029
vn 0.7711834 0.5843691 0.2525646
vn 0.7470508 0.5837398 0.3180612
vn 0.7719765 0.5527985 0.3137932
vn 0.7695411 0.5844198 0.2574099
vn 0.795357 0.533468 0.2877831
vn 0.7301013 0.6144731 0.2989565
vn 0.808261 0.5331334 0.2499657
vn 0.7276013 0.6332598 0.263777
vn 0.8057609 0.5519207 0.2147857
vn 0.7405058 0.6329244 0.2259598
vn 0.7888114 0.5826537 0.1956813
vn 0.7638861 0.6135947 0.1999493
g EyeLH_0
f 3/3/3 2/2/2 1/1/1
f 4/4/4 3/3/3 1/1/1
f 5/5/5 3/3/3 4/4/4
f 1/1/1 2/2/2 6/6/6
f 2/2/2 7/7/7 6/6/6
f 8/8/8 5/5/5 4/4/4
f 9/9/9 5/5/5 8/8/8
f 6/6/6 7/7/7 10/10/10
f 7/7/7 11/11/11 10/10/10
f 12/12/12 9/9/9 8/8/8
f 13/13/13 9/9/9 12/12/12
f 10/10/10 11/11/11 14/14/14
f 11/11/11 15/15/15 14/14/14
f 16/16/16 13/13/13 12/12/12
f 17/17/17 13/13/13 16/16/16
f 14/14/14 15/15/15 18/18/18
f 15/15/15 19/19/19 18/18/18
f 19/19/19 17/17/17 20/20/20
f 20/20/20 17/17/17 16/16/16
f 18/18/18 19/19/19 20/20/20
f 6/6/6 10/10/10 21/21/21
f 10/10/10 14/14/14 22/22/22
f 21/21/21 10/10/10 22/22/22
f 14/14/14 18/18/18 23/23/23
f 22/22/22 14/14/14 23/23/23
f 18/18/18 20/20/20 24/24/24
f 23/23/23 18/18/18 24/24/24
f 20/20/20 16/16/16 25/25/25
f 24/24/24 20/20/20 25/25/25
f 16/16/16 12/12/12 26/26/26
f 25/25/25 16/16/16 26/26/26
f 27/27/27 6/6/6 21/21/21
f 1/1/1 6/6/6 27/27/27
f 26/26/26 12/12/12 28/28/28
f 12/12/12 8/8/8 28/28/28
f 29/29/29 1/1/1 27/27/27
f 4/4/4 1/1/1 29/29/29
f 8/8/8 4/4/4 30/30/30
f 28/28/28 8/8/8 30/30/30
f 30/30/30 4/4/4 29/29/29
f 31/31/31 23/23/23 24/24/24
f 32/32/32 24/24/24 25/25/25
f 32/32/32 31/31/31 24/24/24
f 33/33/33 25/25/25 26/26/26
f 33/33/33 32/32/32 25/25/25
f 34/34/34 26/26/26 28/28/28
f 34/34/34 33/33/33 26/26/26
f 35/35/35 28/28/28 30/30/30
f 35/35/35 34/34/34 28/28/28
f 36/36/36 30/30/30 29/29/29
f 36/36/36 35/35/35 30/30/30
f 31/31/31 37/37/37 23/23/23
f 37/37/37 22/22/22 23/23/23
f 38/38/38 36/36/36 29/29/29
f 38/38/38 29/29/29 27/27/27
f 37/37/37 39/39/39 22/22/22
f 39/39/39 21/21/21 22/22/22
f 40/40/40 27/27/27 21/21/21
f 40/40/40 38/38/38 27/27/27
f 39/39/39 40/40/40 21/21/21
f 41/41/41 33/33/33 34/34/34
f 42/42/42 34/34/34 35/35/35
f 42/42/42 41/41/41 34/34/34
f 43/43/43 35/35/35 36/36/36
f 43/43/43 42/42/42 35/35/35
f 44/44/44 36/36/36 38/38/38
f 44/44/44 43/43/43 36/36/36
f 45/45/45 38/38/38 40/40/40
f 45/45/45 44/44/44 38/38/38
f 46/46/46 40/40/40 39/39/39
f 46/46/46 45/45/45 40/40/40
f 41/41/41 47/47/47 33/33/33
f 47/47/47 32/32/32 33/33/33
f 48/48/48 46/46/46 39/39/39
f 48/48/48 39/39/39 37/37/37
f 47/47/47 49/49/49 32/32/32
f 49/49/49 31/31/31 32/32/32
f 50/50/50 37/37/37 31/31/31
f 50/50/50 48/48/48 37/37/37
f 49/49/49 50/50/50 31/31/31
f 51/51/51 43/43/43 44/44/44
f 52/52/52 44/44/44 45/45/45
f 52/52/52 51/51/51 44/44/44
f 53/53/53 51/51/51 52/52/52
f 53/53/53 52/52/52 54/54/54
f 54/54/54 52/52/52 45/45/45
f 54/54/54 45/45/45 46/46/46
f 53/53/53 55/55/55 51/51/51
f 51/51/51 55/55/55 43/43/43
f 55/55/55 42/42/42 43/43/43
f 56/56/56 54/54/54 46/46/46
f 56/56/56 46/46/46 48/48/48
f 53/53/53 54/54/54 56/56/56
f 55/55/55 57/57/57 42/42/42
f 53/53/53 57/57/57 55/55/55
f 57/57/57 41/41/41 42/42/42
f 58/58/58 56/56/56 48/48/48
f 53/53/53 56/56/56 58/58/58
f 58/58/58 48/48/48 50/50/50
f 57/57/57 59/59/59 41/41/41
f 53/53/53 59/59/59 57/57/57
f 59/59/59 47/47/47 41/41/41
f 60/60/60 58/58/58 50/50/50
f 53/53/53 58/58/58 60/60/60
f 60/60/60 50/50/50 49/49/49
f 61/61/61 49/49/49 47/47/47
f 59/59/59 61/61/61 47/47/47
f 53/53/53 61/61/61 59/59/59
f 61/61/61 60/60/60 49/49/49
f 53/53/53 60/60/60 61/61/61
