g EyesAttackIdle
v 1.192334 16.86037 5.009349
v 2.623861 17.80626 4.871415
v 1.526051 16.37587 4.959462
v 1.945146 16.10168 4.872964
v 2.38272 16.00713 4.779893
v 3.060212 16.14995 4.58521
v 3.55875 16.50122 4.396998
v 3.863455 16.92784 4.264706
v 4.042524 17.42484 4.18544
v 4.04606 18.33868 4.187319
v -1.192334 16.86037 5.009349
v -1.526051 16.37587 4.959462
v -2.623861 17.80626 4.871415
v -1.945146 16.10168 4.872964
v -2.38272 16.00713 4.779893
v -3.060212 16.14995 4.58521
v -3.55875 16.50122 4.396998
v -3.863455 16.92784 4.264706
v -4.042524 17.42484 4.18544
v -4.04606 18.33868 4.187319
vt 0.9818163 0.0600476
vt 0.9828411 0.06014403
vt 0.9820529 0.05968449
vt 0.9823349 0.05955929
vt 0.9826334 0.05950683
vt 0.983115 0.05954413
vt 0.9834868 0.0596725
vt 0.9837226 0.05983761
vt 0.983866 0.06003514
vt 0.9838099 0.06030679
vt 0.9818163 0.0600476
vt 0.9820529 0.05968449
vt 0.9828411 0.06014403
vt 0.9823349 0.05955929
vt 0.9826334 0.05950683
vt 0.983115 0.05954413
vt 0.9834868 0.0596725
vt 0.9837226 0.05983761
vt 0.983866 0.06003514
vt 0.9838099 0.06030679
vn 0.1122241 0.2665394 0.9572683
vn 0.3327033 0.2378841 0.9125348
vn 0.1377581 0.2464222 0.959322
vn 0.1762273 0.2208329 0.9592584
vn 0.248363 0.2033981 0.9470718
vn 0.3332748 0.2034462 0.9206179
vn 0.4040513 0.2262987 0.8863021
vn 0.429114 0.2466435 0.8689235
vn 0.4338076 0.2568466 0.8636208
vn 0.4345448 0.2599444 0.8623222
vn -0.1122242 0.2665396 0.9572682
vn -0.1377583 0.2464223 0.959322
vn -0.3327032 0.2378842 0.9125348
vn -0.1762276 0.220833 0.9592584
vn -0.2483631 0.2033984 0.9470717
vn -0.3332749 0.2034463 0.9206179
vn -0.4040513 0.2262989 0.8863021
vn -0.4291143 0.2466437 0.8689234
vn -0.4338075 0.2568464 0.8636209
vn -0.4345444 0.2599442 0.8623226
g EyesAttackIdle_0
f 3/3/3 2/2/2 1/1/1
f 4/4/4 2/2/2 3/3/3
f 5/5/5 2/2/2 4/4/4
f 6/6/6 2/2/2 5/5/5
f 7/7/7 2/2/2 6/6/6
f 8/8/8 2/2/2 7/7/7
f 9/9/9 2/2/2 8/8/8
f 10/10/10 2/2/2 9/9/9
f 13/13/13 12/12/12 11/11/11
f 13/13/13 14/14/14 12/12/12
f 13/13/13 15/15/15 14/14/14
f 13/13/13 16/16/16 15/15/15
f 13/13/13 17/17/17 16/16/16
f 13/13/13 18/18/18 17/17/17
f 13/13/13 19/19/19 18/18/18
f 13/13/13 20/20/20 19/19/19
