g EyesLVL20
v -1.361631 12.67465 4.691549
v -2.890551 14.41395 4.568725
v -1.071289 14.1773 4.916714
v -2.286782 12.28679 4.234143
v -2.973113 12.26434 3.958783
v -3.805379 12.46096 3.714982
v -4.452444 13.09643 3.5739
v -4.79003 14.46507 3.419774
v -4.544978 15.9351 3.725069
v -2.890551 14.41395 4.568725
v -4.79003 14.46507 3.419774
v -3.926443 16.58605 3.967179
v -2.83728 16.60952 4.407158
v -1.928257 16.05108 4.887914
v -1.213514 15.3506 4.916697
v -1.071289 14.1773 4.916714
v -2.614444 14.6179 4.830134
v -1.708385 14.52302 5.007895
v -1.679756 13.67764 4.93259
v -2.553919 13.66896 4.673494
v -1.797305 13.43845 4.874358
v -2.387212 13.43582 4.696805
v -2.112456 13.32357 4.788916
v 2.614444 14.6179 4.830134
v 1.679756 13.67764 4.93259
v 1.708385 14.52302 5.007895
v 2.553919 13.66896 4.673494
v 1.797305 13.43845 4.874358
v 2.387212 13.43582 4.696805
v 2.112456 13.32357 4.788916
v 1.361631 12.67465 4.691549
v 1.071289 14.1773 4.916714
v 2.890551 14.41395 4.568725
v 2.286782 12.28679 4.234143
v 2.973113 12.26434 3.958783
v 3.805379 12.46096 3.714982
v 4.452444 13.09643 3.5739
v 4.79003 14.46507 3.419774
v 4.544978 15.9351 3.725069
v 4.79003 14.46507 3.419774
v 2.890551 14.41395 4.568725
v 3.926443 16.58605 3.967179
v 2.83728 16.60952 4.407158
v 1.928257 16.05108 4.887914
v 1.213514 15.3506 4.916697
v 1.071289 14.1773 4.916714
vt 0.2832688 0.957388
vt 0.295092 0.9715707
vt 0.2803828 0.9694309
vt 0.2914943 0.954128
vt 0.2974561 0.9539198
vt 0.3044098 0.9556206
vt 0.3096522 0.9608234
vt 0.3127704 0.971757
vt 0.01793249 0.7688509
vt 0.01425798 0.7658712
vt 0.01863292 0.7659174
vt 0.01661903 0.7701522
vt 0.01428887 0.7702106
vt 0.01225442 0.7690931
vt 0.01086082 0.7676741
vt 0.01061782 0.7653418
vt 0.2833834 0.923526
vt 0.3058624 0.9235258
vt 0.3058624 0.9004145
vt 0.2833831 0.9004145
vt 0.3027444 0.8942539
vt 0.2867522 0.8942539
vt 0.2949686 0.8917033
vt 0.3058629 0.923526
vt 0.2833831 0.9004145
vt 0.2833831 0.923526
vt 0.3058624 0.9004145
vt 0.2867522 0.8942539
vt 0.3027444 0.8942539
vt 0.2949686 0.8917032
vt 0.2832688 0.957388
vt 0.2803828 0.9694309
vt 0.295092 0.9715707
vt 0.2914943 0.954128
vt 0.2974561 0.9539198
vt 0.3044098 0.9556206
vt 0.3096522 0.9608234
vt 0.3127704 0.971757
vt 0.01793249 0.7688509
vt 0.01863292 0.7659174
vt 0.01425798 0.7658712
vt 0.01661903 0.7701522
vt 0.01428887 0.7702106
vt 0.01225442 0.7690931
vt 0.01086082 0.7676741
vt 0.01061782 0.7653418
vn -0.2798977 -0.179442 0.9431106
vn -0.3664912 -0.07694368 0.9272345
vn -0.1966053 -0.0737168 0.9777076
vn -0.3499996 -0.2416959 0.9050322
vn -0.3383573 -0.2448191 0.9086132
vn -0.3627261 -0.2253728 0.9042327
vn -0.4668151 -0.109239 0.8775822
vn -0.5177729 -0.06304049 0.8531924
vn -0.4707435 -0.02282996 0.8819746
vn -0.3664912 -0.07694368 0.9272345
vn -0.5177729 -0.06304049 0.8531924
vn -0.3943515 0.06577569 0.9166026
vn -0.395173 0.07694831 0.9153782
vn -0.3133973 -0.0009340402 0.9496216
vn -0.1683957 -0.06392461 0.9836445
vn -0.1966053 -0.0737168 0.9777076
vn -0.2423187 -0.1362114 0.9605874
vn -0.2423187 -0.1362114 0.9605874
vn -0.2477059 -0.1315573 0.9598616
vn -0.2472336 -0.131966 0.9599273
vn -0.2839153 -0.09463879 0.9541674
vn -0.28393 -0.09432249 0.9541944
vn -0.2876329 0.07918205 0.9544619
vn 0.2423184 -0.1362114 0.9605874
vn 0.2477058 -0.1315573 0.9598618
vn 0.2423184 -0.1362114 0.9605874
vn 0.2472335 -0.1319661 0.9599274
vn 0.2839155 -0.09463879 0.9541674
vn 0.2839302 -0.09432249 0.9541944
vn 0.2876326 0.07918206 0.954462
vn 0.2798977 -0.179442 0.9431106
vn 0.1966053 -0.07371677 0.9777076
vn 0.3664912 -0.0769437 0.9272345
vn 0.3499995 -0.2416959 0.9050322
vn 0.3383572 -0.2448191 0.9086133
vn 0.3627262 -0.2253729 0.9042327
vn 0.4668154 -0.1092391 0.8775821
vn 0.5177729 -0.0630405 0.8531924
vn 0.4707437 -0.02282988 0.8819746
vn 0.5177729 -0.0630405 0.8531924
vn 0.3664912 -0.0769437 0.9272345
vn 0.3943516 0.06577576 0.9166026
vn 0.395173 0.07694831 0.9153782
vn 0.3133973 -0.0009340319 0.9496216
vn 0.1683958 -0.0639246 0.9836445
vn 0.1966053 -0.07371677 0.9777076
g EyesLVL20_0
f 3/3/3 2/2/2 1/1/1
f 1/1/1 2/2/2 4/4/4
f 5/5/5 4/4/4 2/2/2
f 6/6/6 5/5/5 2/2/2
f 6/6/6 2/2/2 7/7/7
f 7/7/7 2/2/2 8/8/8
f 11/11/11 10/10/10 9/9/9
f 9/9/9 10/10/10 12/12/12
f 12/12/12 10/10/10 13/13/13
f 13/13/13 10/10/10 14/14/14
f 14/14/14 10/10/10 15/15/15
f 10/10/10 16/16/16 15/15/15
f 19/19/19 18/18/18 17/17/17
f 20/20/20 19/19/19 17/17/17
f 21/21/21 19/19/19 20/20/20
f 22/22/22 21/21/21 20/20/20
f 22/22/22 23/23/23 21/21/21
f 26/26/26 25/25/25 24/24/24
f 25/25/25 27/27/27 24/24/24
f 25/25/25 28/28/28 27/27/27
f 28/28/28 29/29/29 27/27/27
f 30/30/30 29/29/29 28/28/28
f 33/33/33 32/32/32 31/31/31
f 33/33/33 31/31/31 34/34/34
f 34/34/34 35/35/35 33/33/33
f 35/35/35 36/36/36 33/33/33
f 33/33/33 36/36/36 37/37/37
f 33/33/33 37/37/37 38/38/38
f 41/41/41 40/40/40 39/39/39
f 41/41/41 39/39/39 42/42/42
f 41/41/41 42/42/42 43/43/43
f 41/41/41 43/43/43 44/44/44
f 41/41/41 44/44/44 45/45/45
f 46/46/46 41/41/41 45/45/45
