g Eyes
v 4.739099 17.8846 3.763663
v 5.411624 16.71025 3.414934
v 5.190799 15.12993 3.419572
v 4.823962 14.35171 3.552687
v 3.279716 18.28163 4.450717
v 3.741254 13.69631 3.906258
v 1.404464 13.72106 4.770428
v 1.455346 15.45994 4.88905
v 0.5203286 13.72106 4.770428
v 1.537707 18.2746 5.081056
v 0.5203286 13.72106 4.770428
v -1.404464 13.72106 4.770428
v 1.455346 15.45994 4.88905
v 3.279716 18.28163 4.450717
v -3.741254 13.69631 3.906258
v -4.823962 14.35171 3.552687
v -4.739099 17.8846 3.763663
v -3.279716 18.28163 4.450717
v -1.537707 18.2746 5.081056
v -1.661809 16.84041 4.983221
v -0.5548508 18.2746 5.081057
v -4.823962 14.35171 3.552687
v -5.411624 16.71025 3.414934
v -5.190799 15.12993 3.419572
v -1.612436 15.15311 4.868118
v -1.404464 13.72106 4.770428
v -2.480215 13.70967 4.372604
v 1.537707 18.2746 5.081056
v 0.6560559 18.2746 5.081057
v -1.612436 15.15311 4.868118
v -0.5548508 18.2746 5.081057
v 0.6560559 18.2746 5.081057
v -1.661809 16.84041 4.983221
v -2.480215 13.70967 4.372604
v -3.741254 13.69631 3.906258
vt 0.9900209 0.9862453
vt 0.9900209 0.9862453
vt 0.990021 0.9862453
vt 0.990021 0.9862453
vt 0.9900209 0.9862453
vt 0.990021 0.9862453
vt 0.990021 0.9862453
vt 0.990021 0.9862453
vt 0.990021 0.9862453
vt 0.9906279 0.9530149
vt 0.9906279 0.9530149
vt 0.9906279 0.9530149
vt 0.9906279 0.9530149
vt 0.9906281 0.9530149
vt 0.990021 0.9862453
vt 0.990021 0.9862453
vt 0.9900209 0.9862453
vt 0.9900209 0.9862453
vt 0.990021 0.9862453
vt 0.990021 0.9862453
vt 0.990021 0.9862453
vt 0.990021 0.9862453
vt 0.9900209 0.9862453
vt 0.990021 0.9862453
vt 0.990021 0.9862453
vt 0.9900209 0.9862453
vt 0.990021 0.9862453
vt 0.990021 0.9862453
vt 0.990021 0.9862453
vt 0.9906279 0.9530149
vt 0.9906279 0.9530149
vt 0.9906279 0.9530149
vt 0.9906279 0.9530149
vt 0.9906281 0.9530149
vt 0.9906279 0.9530149
vn 0.3942847 -0.05379268 0.9174126
vn 0.4051243 -0.04761637 0.9130207
vn 0.4051243 -0.04761637 0.9130207
vn 0.3942847 -0.05379268 0.9174126
vn 0.3557126 -0.06990397 0.9319775
vn 0.3637351 -0.06789669 0.9290247
vn 0.1746427 -0.07305323 0.9819181
vn 0.1735099 -0.07255636 0.9821557
vn 0 -0.0680587 0.9976813
vn 0.114723 -0.07095031 0.9908606
vn 0 -0.0680587 0.9976813
vn -0.1161343 -0.08437609 0.9896431
vn 0.1735099 -0.07255636 0.9821557
vn 0.3557126 -0.06990397 0.9319775
vn -0.3688444 -0.07029849 0.926829
vn -0.3942847 -0.05379268 0.9174126
vn -0.3942847 -0.05379268 0.9174126
vn -0.3731544 -0.06192831 0.9257002
vn -0.1846166 -0.06712787 0.9805155
vn -0.1838992 -0.07300541 0.9802303
vn 0 -0.06805871 0.9976813
vn -0.3942847 -0.05379268 0.9174126
vn -0.4051243 -0.04761637 0.9130207
vn -0.4051243 -0.04761637 0.9130207
vn -0.1788463 -0.08555605 0.98015
vn -0.1161343 -0.08437609 0.9896431
vn -0.3518833 -0.1002659 0.9306583
vn 0.114723 -0.07095031 0.9908606
vn 0 -0.06805876 0.9976813
vn -0.1788463 -0.08555605 0.98015
vn 0 -0.06805871 0.9976813
vn 0 -0.06805876 0.9976813
vn -0.1838992 -0.07300541 0.9802303
vn -0.3518833 -0.1002659 0.9306583
vn -0.3688444 -0.07029849 0.926829
g Eyes_0
f 3/3/3 2/2/2 1/1/1
f 4/4/4 3/3/3 1/1/1
f 4/4/4 1/1/1 5/5/5
f 6/6/6 4/4/4 5/5/5
f 7/7/7 6/6/6 5/5/5
f 8/8/8 7/7/7 5/5/5
f 9/9/9 7/7/7 8/8/8
f 12/12/12 11/11/11 10/10/10
f 11/11/11 13/13/13 10/10/10
f 13/13/13 14/14/14 10/10/10
f 17/17/17 16/16/16 15/15/15
f 18/18/18 17/17/17 15/15/15
f 18/18/18 15/15/15 19/19/19
f 15/15/15 20/20/20 19/19/19
f 21/21/21 19/19/19 20/20/20
f 17/17/17 23/23/23 22/22/22
f 23/23/23 24/24/24 22/22/22
f 27/27/27 26/26/26 25/25/25
f 25/25/25 26/26/26 28/28/28
f 29/29/29 25/25/25 28/28/28
f 32/32/32 31/31/31 30/30/30
f 31/31/31 33/33/33 30/30/30
f 34/34/34 30/30/30 33/33/33
f 35/35/35 34/34/34 33/33/33
