g Eyes_Lvl20
v 0.7447361 7.068889 2.780793
v 0.5090885 8.288474 2.963542
v 1.98564 8.480539 2.681107
v 1.495608 6.754095 2.457458
v 0.7447361 7.068889 2.780793
v 1.98564 8.480539 2.681107
v 1.98564 8.480539 2.681107
v 2.728133 6.895456 2.036093
v 2.052649 6.73587 2.233968
v 3.253304 7.411215 1.81879
v 2.728133 6.895456 2.036093
v 1.98564 8.480539 2.681107
v 3.527297 8.3295 1.778019
v 3.253304 7.411215 1.81879
v 1.98564 8.480539 2.681107
v 3.328408 9.715137 1.949646
v 3.527297 8.3295 1.778019
v 1.98564 8.480539 2.681107
v 2.82639 10.24346 2.211782
v 3.328408 9.715137 1.949646
v 1.98564 8.480539 2.681107
v 1.942403 10.26251 2.568879
v 2.82639 10.24346 2.211782
v 1.98564 8.480539 2.681107
v 1.204621 9.809276 2.864682
v 1.942403 10.26251 2.568879
v 1.98564 8.480539 2.681107
v 0.7431601 9.240745 3.02884
v 1.204621 9.809276 2.864682
v 1.98564 8.480539 2.681107
v 0.7431601 9.240745 3.02884
v 1.98564 8.480539 2.681107
v 0.5090885 8.288474 2.963542
v 1.98564 8.480539 2.681107
v 2.052649 6.73587 2.233968
v 1.495608 6.754095 2.457458
v -0.7447361 7.068889 2.780793
v -1.98564 8.480539 2.681107
v -0.5090885 8.288474 2.963542
v -1.495608 6.754095 2.457458
v -1.98564 8.480539 2.681107
v -0.7447361 7.068889 2.780793
v -1.98564 8.480539 2.681107
v -2.052649 6.73587 2.233968
v -2.728133 6.895456 2.036093
v -3.253304 7.411215 1.81879
v -1.98564 8.480539 2.681107
v -2.728133 6.895456 2.036093
v -3.527297 8.3295 1.778019
v -1.98564 8.480539 2.681107
v -3.253304 7.411215 1.81879
v -3.328408 9.715137 1.949646
v -1.98564 8.480539 2.681107
v -3.527297 8.3295 1.778019
v -2.82639 10.24346 2.211782
v -1.98564 8.480539 2.681107
v -3.328408 9.715137 1.949646
v -1.942403 10.26251 2.568879
v -1.98564 8.480539 2.681107
v -2.82639 10.24346 2.211782
v -1.204621 9.809276 2.864682
v -1.98564 8.480539 2.681107
v -1.942403 10.26251 2.568879
v -0.7431601 9.240745 3.02884
v -1.98564 8.480539 2.681107
v -1.204621 9.809276 2.864682
v -0.7431601 9.240745 3.02884
v -0.5090885 8.288474 2.963542
v -1.98564 8.480539 2.681107
v -1.98564 8.480539 2.681107
v -1.495608 6.754095 2.457458
v -2.052649 6.73587 2.233968
vt 0.6899276 0.897777
vt 0.6951288 0.897777
vt 0.6925507 0.9517534
vt 0.6951287 0.897777
vt 0.6899276 0.897777
vt 0.6925507 0.9517534
vt 0.6925507 0.9517534
vt 0.6951287 0.897777
vt 0.6899275 0.897777
vt 0.6899276 0.897777
vt 0.6951287 0.897777
vt 0.6925507 0.9517534
vt 0.6951287 0.897777
vt 0.6899276 0.897777
vt 0.6925507 0.9517534
vt 0.6899275 0.8977768
vt 0.6951287 0.897777
vt 0.6925507 0.9517534
vt 0.6951288 0.8977768
vt 0.6899275 0.8977768
vt 0.6925507 0.9517534
vt 0.6899275 0.8977768
vt 0.6951288 0.8977768
vt 0.6925507 0.9517534
vt 0.6951287 0.8977768
vt 0.6899275 0.8977768
vt 0.6925507 0.9517534
vt 0.6899275 0.8977768
vt 0.6951287 0.8977768
vt 0.6925507 0.9517534
vt 0.6899275 0.8977768
vt 0.6925507 0.9517534
vt 0.6951288 0.897777
vt 0.6925507 0.9517534
vt 0.6899275 0.897777
vt 0.6951287 0.897777
vt 0.6899276 0.8977768
vt 0.6925507 0.9517533
vt 0.6951288 0.897777
vt 0.6951287 0.897777
vt 0.6925507 0.9517533
vt 0.6899276 0.8977768
vt 0.6925507 0.9517533
vt 0.6899276 0.8977768
vt 0.6951288 0.8977768
vt 0.6899275 0.8977768
vt 0.6925507 0.9517533
vt 0.6951288 0.8977768
vt 0.6951287 0.8977768
vt 0.6925507 0.9517533
vt 0.6899275 0.8977768
vt 0.6899275 0.897777
vt 0.6925507 0.9517533
vt 0.6951287 0.8977768
vt 0.6951289 0.8977768
vt 0.6925507 0.9517533
vt 0.6899275 0.897777
vt 0.6899275 0.8977768
vt 0.6925507 0.9517533
vt 0.6951289 0.8977768
vt 0.6951287 0.8977768
vt 0.6925507 0.9517533
vt 0.6899275 0.8977768
vt 0.6899275 0.897777
vt 0.6925507 0.9517533
vt 0.6951287 0.8977768
vt 0.6899275 0.897777
vt 0.6951288 0.897777
vt 0.6925507 0.9517533
vt 0.6925507 0.9517533
vt 0.6951287 0.897777
vt 0.6899276 0.8977768
vn 0.2596628 -0.1610153 0.9521813
vn 0.2005813 -0.1106051 0.9734134
vn 0.3698776 -0.07123401 0.9263457
vn 0.3301066 -0.2128295 0.9196375
vn 0.2596628 -0.1610153 0.9521813
vn 0.3698776 -0.07123401 0.9263457
vn 0.3698776 -0.07123401 0.9263457
vn 0.4101728 -0.1723021 0.8955837
vn 0.3378296 -0.2214721 0.9147794
vn 0.4888869 -0.1174957 0.8643982
vn 0.4101728 -0.1723021 0.8955837
vn 0.3698776 -0.07123401 0.9263457
vn 0.4994813 -0.06643923 0.8637733
vn 0.4888869 -0.1174957 0.8643982
vn 0.3698776 -0.07123401 0.9263457
vn 0.4886213 -0.01457721 0.8723742
vn 0.4994813 -0.06643923 0.8637733
vn 0.3698776 -0.07123401 0.9263457
vn 0.4253765 0.03785764 0.9042243
vn 0.4886213 -0.01457721 0.8723742
vn 0.3698776 -0.07123401 0.9263457
vn 0.3607321 0.06733868 0.9302354
vn 0.4253765 0.03785764 0.9042243
vn 0.3698776 -0.07123401 0.9263457
vn 0.3185744 0.05652934 0.9462108
vn 0.3607321 0.06733868 0.9302354
vn 0.3698776 -0.07123401 0.9263457
vn 0.2443838 -0.04367908 0.9686943
vn 0.3185744 0.05652934 0.9462108
vn 0.3698776 -0.07123401 0.9263457
vn 0.2443838 -0.04367908 0.9686943
vn 0.3698776 -0.07123401 0.9263457
vn 0.2005813 -0.1106051 0.9734134
vn 0.3698776 -0.07123401 0.9263457
vn 0.3378296 -0.2214721 0.9147794
vn 0.3301066 -0.2128295 0.9196375
vn -0.2596628 -0.1610153 0.9521813
vn -0.3698775 -0.071234 0.9263457
vn -0.2005813 -0.1106051 0.9734134
vn -0.3301066 -0.2128295 0.9196375
vn -0.3698775 -0.071234 0.9263457
vn -0.2596628 -0.1610153 0.9521813
vn -0.3698775 -0.071234 0.9263457
vn -0.3378296 -0.221472 0.9147794
vn -0.4101728 -0.172302 0.8955837
vn -0.4888869 -0.1174958 0.8643983
vn -0.3698775 -0.071234 0.9263457
vn -0.4101728 -0.172302 0.8955837
vn -0.4994813 -0.06643926 0.8637733
vn -0.3698775 -0.071234 0.9263457
vn -0.4888869 -0.1174958 0.8643983
vn -0.4886213 -0.01457718 0.8723742
vn -0.3698775 -0.071234 0.9263457
vn -0.4994813 -0.06643926 0.8637733
vn -0.4253764 0.03785766 0.9042244
vn -0.3698775 -0.071234 0.9263457
vn -0.4886213 -0.01457718 0.8723742
vn -0.360732 0.06733866 0.9302354
vn -0.3698775 -0.071234 0.9263457
vn -0.4253764 0.03785766 0.9042244
vn -0.3185744 0.05652934 0.9462108
vn -0.3698775 -0.071234 0.9263457
vn -0.360732 0.06733866 0.9302354
vn -0.2443838 -0.0436791 0.9686943
vn -0.3698775 -0.071234 0.9263457
vn -0.3185744 0.05652934 0.9462108
vn -0.2443838 -0.0436791 0.9686943
vn -0.2005813 -0.1106051 0.9734134
vn -0.3698775 -0.071234 0.9263457
vn -0.3698775 -0.071234 0.9263457
vn -0.3301066 -0.2128295 0.9196375
vn -0.3378296 -0.221472 0.9147794
g Eyes_Lvl20_0
f 3/3/3 2/2/2 1/1/1
f 6/6/6 5/5/5 4/4/4
f 9/9/9 8/8/8 7/7/7
f 12/12/12 11/11/11 10/10/10
f 15/15/15 14/14/14 13/13/13
f 18/18/18 17/17/17 16/16/16
f 21/21/21 20/20/20 19/19/19
f 24/24/24 23/23/23 22/22/22
f 27/27/27 26/26/26 25/25/25
f 30/30/30 29/29/29 28/28/28
f 33/33/33 32/32/32 31/31/31
f 36/36/36 35/35/35 34/34/34
f 39/39/39 38/38/38 37/37/37
f 42/42/42 41/41/41 40/40/40
f 45/45/45 44/44/44 43/43/43
f 48/48/48 47/47/47 46/46/46
f 51/51/51 50/50/50 49/49/49
f 54/54/54 53/53/53 52/52/52
f 57/57/57 56/56/56 55/55/55
f 60/60/60 59/59/59 58/58/58
f 63/63/63 62/62/62 61/61/61
f 66/66/66 65/65/65 64/64/64
f 69/69/69 68/68/68 67/67/67
f 72/72/72 71/71/71 70/70/70
