g EyeSunGodDark
v 2.827512 16.85836 4.504682
v 2.92416 14.5569 4.5075
v 1.823393 16.24151 5.035731
v 4.030615 16.83244 4.018673
v 4.71386 16.11339 3.751237
v 4.92354 15.03266 3.585571
v 4.984546 14.48958 3.414005
v 2.92416 14.5569 4.5075
v 4.611643 13.26136 3.350135
v 3.994063 12.43787 3.579926
v 2.977556 12.05862 4.009399
v 2.219424 12.08342 4.313568
v 1.197491 12.51186 4.818823
v 0.9734769 13.08703 4.99255
v 0.8767758 14.17171 5.067544
v 1.033878 15.46775 5.067526
v 1.823393 16.24151 5.035731
v -2.924191 14.55643 4.506074
v -4.705344 16.10549 3.753422
v -4.025362 16.82111 4.019582
v -2.828005 16.8469 4.503269
v -1.828681 16.233 5.031783
v -1.042936 15.46293 5.063425
v -0.8865843 14.17308 5.063443
v -0.9828236 13.09358 4.988808
v -1.205768 12.52115 4.81591
v -2.924191 14.55643 4.506074
v -2.222821 12.09476 4.313067
v -2.977332 12.07008 4.010352
v -3.988985 12.44752 3.582929
v -4.603615 13.26708 3.354235
v -4.974738 14.48943 3.4178
v -4.914023 15.02991 3.588547
v -4.705344 16.10549 3.753422
vt 0.7793418 0.03925771
vt 0.9661199 0.03925769
vt 0.7793418 0.03925768
vt 0.7793418 0.03925771
vt 0.7793418 0.03925771
vt 0.7793418 0.03925769
vt 0.7793418 0.03925769
vt 0.9661199 0.03925769
vt 0.7793418 0.03925769
vt 0.7793418 0.03925769
vt 0.7793418 0.03925769
vt 0.7793418 0.03925769
vt 0.7793418 0.03925769
vt 0.7793418 0.03925769
vt 0.7793418 0.03925768
vt 0.7793418 0.03925768
vt 0.7793418 0.03925768
vt 0.9661199 0.03925769
vt 0.7793418 0.03925771
vt 0.7793418 0.03925771
vt 0.7793418 0.03925771
vt 0.7793418 0.03925768
vt 0.7793418 0.03925768
vt 0.7793418 0.03925768
vt 0.7793418 0.03925769
vt 0.7793418 0.03925769
vt 0.9661199 0.03925769
vt 0.7793418 0.03925769
vt 0.7793418 0.03925769
vt 0.7793418 0.03925769
vt 0.7793418 0.03925769
vt 0.7793418 0.03925769
vt 0.7793418 0.03925769
vt 0.7793418 0.03925771
vn 0.4080261 0.01825229 0.9127879
vn 0.3809598 -0.09063552 0.9201385
vn 0.3483063 -0.06561442 0.9350815
vn 0.3764513 0.01594058 0.9262993
vn 0.4005689 -0.01545651 0.9161363
vn 0.4381298 -0.1131925 0.8917565
vn 0.4547899 -0.195211 0.8689412
vn 0.3809598 -0.09063552 0.9201385
vn 0.4745962 -0.1557434 0.8663154
vn 0.4613322 -0.1498629 0.8744791
vn 0.4039252 -0.1705581 0.8987516
vn 0.3698682 -0.1768942 0.9120888
vn 0.364725 -0.1685402 0.9157346
vn 0.3092569 -0.09828073 0.9458864
vn 0.2702652 -0.03777127 0.9620448
vn 0.2407025 -0.09440342 0.965997
vn 0.3483063 -0.06561442 0.9350815
vn -0.3809597 -0.09063552 0.9201386
vn -0.400569 -0.01545653 0.9161363
vn -0.3764511 0.01594078 0.9262994
vn -0.4080261 0.01825261 0.9127879
vn -0.348306 -0.06561425 0.9350817
vn -0.2407024 -0.09440355 0.965997
vn -0.2702648 -0.03777131 0.9620448
vn -0.3092574 -0.09828082 0.9458862
vn -0.3647254 -0.1685403 0.9157344
vn -0.3809597 -0.09063552 0.9201386
vn -0.3698678 -0.176894 0.9120889
vn -0.4039251 -0.170558 0.8987516
vn -0.4613323 -0.1498632 0.8744791
vn -0.474596 -0.1557434 0.8663155
vn -0.4547898 -0.1952108 0.8689413
vn -0.4381308 -0.1131932 0.8917559
vn -0.400569 -0.01545653 0.9161363
g EyeSunGodDark_0
f 3/3/3 2/2/2 1/1/1
f 1/1/1 2/2/2 4/4/4
f 4/4/4 2/2/2 5/5/5
f 5/5/5 2/2/2 6/6/6
f 8/8/8 7/7/7 6/6/6
f 8/8/8 9/9/9 7/7/7
f 8/8/8 10/10/10 9/9/9
f 11/11/11 10/10/10 8/8/8
f 12/12/12 11/11/11 8/8/8
f 8/8/8 13/13/13 12/12/12
f 8/8/8 14/14/14 13/13/13
f 14/14/14 8/8/8 15/15/15
f 16/16/16 15/15/15 8/8/8
f 16/16/16 8/8/8 17/17/17
f 20/20/20 19/19/19 18/18/18
f 21/21/21 20/20/20 18/18/18
f 22/22/22 21/21/21 18/18/18
f 23/23/23 22/22/22 18/18/18
f 24/24/24 23/23/23 18/18/18
f 25/25/25 24/24/24 18/18/18
f 25/25/25 27/27/27 26/26/26
f 26/26/26 27/27/27 28/28/28
f 29/29/29 28/28/28 27/27/27
f 30/30/30 29/29/29 27/27/27
f 30/30/30 27/27/27 31/31/31
f 31/31/31 27/27/27 32/32/32
f 32/32/32 27/27/27 33/33/33
f 27/27/27 34/34/34 33/33/33
