g EyesSleeping
v -4.246363 4.216365 -3.229323
v -4.701741 4.216364 -3.329877
v -4.596652 4.232975 -3.67198
v -4.498423 4.216364 -3.095007
v -4.149007 4.216364 -2.747955
v -4.444194 4.216364 -2.762733
v -4.272789 4.216365 -2.294659
v -4.536721 4.216364 -2.44747
v -4.604142 4.216365 -1.961382
v -4.769011 4.216364 -2.206902
v -5.080471 4.216364 -1.798001
v -5.097209 4.216365 -2.077805
v -5.562098 4.216364 -1.866425
v -5.289828 4.212863 -2.079163
v -6.048898 2.977109 0.8862922
v -6.600154 2.855553 0.9024936
v -6.436731 3.023545 0.6315225
v -6.133816 3.092019 0.6389879
v -5.651888 3.183123 0.6834769
v -5.868866 3.236893 0.4901304
v -5.429037 3.421436 0.3453292
v -5.718387 3.40396 0.2505548
v -5.433639 3.64608 -0.06744532
v -5.716881 3.564697 -0.04269052
v -5.655888 3.820761 -0.4841878
v -5.858728 3.692816 -0.3390777
v -6.040177 3.887683 -0.7748616
v -5.993934 3.728786 -0.4715232
vt 0.7079984 0.3717858
vt 0.7043374 0.3725327
vt 0.7055251 0.3746684
vt 0.7059965 0.3706774
vt 0.7088404 0.3679422
vt 0.7064737 0.3680225
vt 0.7079071 0.3642948
vt 0.7057731 0.365485
vt 0.7052956 0.3615823
vt 0.7039433 0.3635279
vt 0.7015008 0.360212
vt 0.7013307 0.3624514
vt 0.6976337 0.3606981
vt 0.6988214 0.3628338
vt 0.7079984 0.3717858
vt 0.7055251 0.3746684
vt 0.7043374 0.3725327
vt 0.7059965 0.3706774
vt 0.7088404 0.3679422
vt 0.7064737 0.3680225
vt 0.7079071 0.3642948
vt 0.7057731 0.365485
vt 0.7052956 0.3615823
vt 0.7039433 0.3635279
vt 0.7015008 0.360212
vt 0.7013307 0.3624514
vt 0.6976337 0.3606981
vt 0.6988214 0.3628338
vn -0.5393133 0.750135 0.3826732
vn -0.5409504 0.7427966 0.3944945
vn -0.5409503 0.7427966 0.3944945
vn -0.539185 0.7506844 0.3817754
vn -0.5372339 0.758648 0.3685551
vn -0.5372339 0.758648 0.3685551
vn -0.5372347 0.7586479 0.3685545
vn -0.5372347 0.7586479 0.3685545
vn -0.5372347 0.7586474 0.3685555
vn -0.5372347 0.7586474 0.3685555
vn -0.5389994 0.7593458 0.3645183
vn -0.5388104 0.7592717 0.364952
vn -0.5412621 0.7602235 0.3592987
vn -0.5412621 0.7602235 0.3592987
vn -0.6072091 0.3713935 0.7023988
vn -0.6052271 0.3842428 0.6971784
vn -0.6052271 0.3842428 0.6971784
vn -0.6073542 0.370418 0.7027883
vn -0.6094048 0.3560609 0.7084113
vn -0.6094048 0.3560609 0.7084113
vn -0.6094049 0.3560598 0.7084116
vn -0.6094049 0.3560598 0.7084116
vn -0.6094044 0.3560612 0.7084114
vn -0.6094044 0.3560612 0.7084115
vn -0.611949 0.3524143 0.7080414
vn -0.6116762 0.3528063 0.7080818
vn -0.6152152 0.3476956 0.7075437
vn -0.6152152 0.3476956 0.7075437
g EyesSleeping_0
f 3/3/3 2/2/2 1/1/1
f 2/2/2 4/4/4 1/1/1
f 1/1/1 4/4/4 5/5/5
f 4/4/4 6/6/6 5/5/5
f 5/5/5 6/6/6 7/7/7
f 6/6/6 8/8/8 7/7/7
f 7/7/7 8/8/8 9/9/9
f 8/8/8 10/10/10 9/9/9
f 9/9/9 10/10/10 11/11/11
f 10/10/10 12/12/12 11/11/11
f 11/11/11 12/12/12 13/13/13
f 12/12/12 14/14/14 13/13/13
f 17/17/17 16/16/16 15/15/15
f 18/18/18 17/17/17 15/15/15
f 18/18/18 15/15/15 19/19/19
f 20/20/20 18/18/18 19/19/19
f 20/20/20 19/19/19 21/21/21
f 22/22/22 20/20/20 21/21/21
f 22/22/22 21/21/21 23/23/23
f 24/24/24 22/22/22 23/23/23
f 24/24/24 23/23/23 25/25/25
f 26/26/26 24/24/24 25/25/25
f 26/26/26 25/25/25 27/27/27
f 28/28/28 26/26/26 27/27/27
