g EyeSunGod
v -1.439687 12.78388 4.733583
v -2.925069 14.54314 4.465765
v -1.246977 13.27868 4.883033
v -2.318813 12.41532 4.298933
v -2.971003 12.39398 4.03727
v -3.845462 12.72024 3.667811
v -4.37674 13.42865 3.470131
v -4.697534 14.48524 3.525076
v -4.645052 14.95242 3.672667
v -4.464673 15.88213 3.815183
v -3.876906 16.5007 4.045248
v -2.841926 16.523 4.46334
v -1.978124 15.99235 4.92018
v -1.298937 15.32671 4.947532
v -1.163789 14.21178 4.947547
v -1.246977 13.27868 4.883033
v 2.318813 12.41532 4.298933
v 1.439687 12.78388 4.733583
v 2.925069 14.54314 4.465765
v 2.971003 12.39398 4.03727
v 1.246977 13.27868 4.883033
v 3.845462 12.72024 3.667811
v 1.163789 14.21178 4.947547
v 4.37674 13.42865 3.470131
v 1.298937 15.32671 4.947532
v 4.697534 14.48524 3.525076
v 1.978124 15.99235 4.92018
v 4.645052 14.95242 3.672667
v 2.841926 16.523 4.46334
v 4.464673 15.88213 3.815183
v 3.876906 16.5007 4.045248
vt 0.1175175 0.02246556
vt 0.1175175 0.02246556
vt 0.1175175 0.02246556
vt 0.1175175 0.02246556
vt 0.1175175 0.02246556
vt 0.1175175 0.02246556
vt 0.1175175 0.02246556
vt 0.1175175 0.02246556
vt 0.1175175 0.02246556
vt 0.1175175 0.02246557
vt 0.1175175 0.02246557
vt 0.1175175 0.02246557
vt 0.1175175 0.02246554
vt 0.1175175 0.02246554
vt 0.1175175 0.02246554
vt 0.1175175 0.02246554
vt 0.1175175 0.02246556
vt 0.1175175 0.02246556
vt 0.1175175 0.02246556
vt 0.1175175 0.02246556
vt 0.1175175 0.02246556
vt 0.1175175 0.02246556
vt 0.1175175 0.02246554
vt 0.1175175 0.02246556
vt 0.1175175 0.02246554
vt 0.1175175 0.02246556
vt 0.1175175 0.02246554
vt 0.1175175 0.02246556
vt 0.1175175 0.02246557
vt 0.1175175 0.02246557
vt 0.1175175 0.02246557
vn -0.364726 -0.1685406 0.9157341
vn -0.3809597 -0.09063556 0.9201385
vn -0.3092573 -0.09828085 0.9458862
vn -0.3698681 -0.1768942 0.9120889
vn -0.403925 -0.1705581 0.8987516
vn -0.4613322 -0.1498629 0.8744791
vn -0.4745958 -0.1557434 0.8663157
vn -0.4547898 -0.1952109 0.8689413
vn -0.4381299 -0.1131926 0.8917565
vn -0.4005688 -0.01545668 0.9161363
vn -0.3764504 0.01594056 0.9262996
vn -0.4080254 0.01825242 0.9127882
vn -0.3483068 -0.06561445 0.9350813
vn -0.2407032 -0.09440358 0.9659968
vn -0.2702652 -0.03777111 0.9620448
vn -0.3092573 -0.09828085 0.9458862
vn 0.3698681 -0.1768942 0.9120889
vn 0.3647259 -0.1685406 0.9157342
vn 0.3809597 -0.09063557 0.9201385
vn 0.4039249 -0.170558 0.8987517
vn 0.3092571 -0.09828083 0.9458863
vn 0.4613324 -0.149863 0.8744791
vn 0.270265 -0.03777109 0.9620448
vn 0.4745961 -0.1557435 0.8663155
vn 0.240703 -0.09440358 0.9659969
vn 0.4547898 -0.1952109 0.8689413
vn 0.3483067 -0.06561457 0.9350814
vn 0.4381299 -0.1131926 0.8917565
vn 0.4080254 0.01825242 0.9127882
vn 0.4005689 -0.01545673 0.9161363
vn 0.3764504 0.01594056 0.9262996
g EyeSunGod_0
f 3/3/3 2/2/2 1/1/1
f 1/1/1 2/2/2 4/4/4
f 5/5/5 4/4/4 2/2/2
f 6/6/6 5/5/5 2/2/2
f 6/6/6 2/2/2 7/7/7
f 7/7/7 2/2/2 8/8/8
f 8/8/8 2/2/2 9/9/9
f 2/2/2 10/10/10 9/9/9
f 11/11/11 10/10/10 2/2/2
f 12/12/12 11/11/11 2/2/2
f 13/13/13 12/12/12 2/2/2
f 14/14/14 13/13/13 2/2/2
f 15/15/15 14/14/14 2/2/2
f 16/16/16 15/15/15 2/2/2
f 19/19/19 18/18/18 17/17/17
f 17/17/17 20/20/20 19/19/19
f 19/19/19 21/21/21 18/18/18
f 20/20/20 22/22/22 19/19/19
f 21/21/21 19/19/19 23/23/23
f 19/19/19 22/22/22 24/24/24
f 25/25/25 23/23/23 19/19/19
f 19/19/19 24/24/24 26/26/26
f 25/25/25 19/19/19 27/27/27
f 19/19/19 26/26/26 28/28/28
f 27/27/27 19/19/19 29/29/29
f 30/30/30 19/19/19 28/28/28
f 29/29/29 19/19/19 31/31/31
f 31/31/31 19/19/19 30/30/30
