g FanClubCap
v -3.191973 18.60151 3.981376
v -3.133386 17.01266 4.983333
v -3.048211 16.9272 4.3154
v -3.289939 18.74733 4.632505
v -2.99905 20.23885 3.62891
v -1.963121 16.92443 5.591589
v -1.880652 16.80561 4.920383
v -3.107457 20.44501 4.263237
v -1.880652 20.52417 4.156821
v -2.034241 19.1043 5.488008
v 1.932546 16.92552 5.631466
v 1.856136 16.80882 4.95812
v -1.968303 20.7137 4.789616
v 1.856142 20.52621 4.181492
v 2.000664 19.10484 5.522985
v 1.93599 20.71429 4.81858
v 3.053313 20.28924 3.758126
v 3.158959 16.99677 5.051898
v 3.076666 16.91835 4.380489
v 3.327399 18.76314 4.739731
v 3.234128 18.62395 4.082887
v 3.155097 20.4892 4.400406
v -1.705852 16.9023 -5.127096
v -0.02026932 16.90721 -0.04404602
v 1.69343 16.90328 -5.113824
v 1.612888 16.81606 5.281238
v -0.02026932 16.90721 -0.04404602
v -1.634038 16.81512 5.260039
v 1.625959 21.86621 3.942328
v 4.251656 21.00839 2.860596
v 4.821094 20.05203 3.317609
v 1.68121 20.48632 4.737556
v -1.641826 21.86443 3.920754
v 1.625954 18.98922 5.256428
v 5.097784 19.03519 3.573943
v -1.698723 20.48396 4.709515
v -4.183739 20.95834 2.75468
v -1.641826 18.9864 5.223428
v -4.769589 20.02307 3.232576
v -5.065072 19.03065 3.516946
v -5.065072 19.03065 3.516946
v -5.14778 16.86011 3.663009
v -6.131554 16.84644 1.234943
v -6.018276 19.01313 0.9659498
v -4.769589 20.02307 3.232576
v -5.56633 20.41733 0.8955079
v -4.183739 20.95834 2.75468
v -4.782104 21.71432 0.7691714
v -1.641826 21.86443 3.920754
v -1.641829 22.9676 0.7198529
v 1.625959 21.86621 3.942328
v 1.625954 22.96951 0.7455279
v 1.625959 22.66887 -1.986777
v 4.251656 21.00839 2.860596
v 4.848575 21.71887 0.8308564
v 4.821094 20.05203 3.317609
v 5.598352 20.42228 0.9663948
v 5.097784 19.03519 3.573943
v 6.013654 19.01818 1.041771
v 5.155694 16.86239 3.696775
v 6.095378 16.86332 1.279133
v -4.507456 21.36599 -1.818196
v -1.641829 22.53329 -1.957505
v -5.346291 20.20681 -1.916409
v -5.56633 20.41733 0.8955079
v -5.871391 18.96362 -1.892276
v -6.018276 19.01313 0.9659498
v -5.923609 17.03587 -1.788669
v -6.131554 16.84644 1.234943
v -4.473301 16.99944 -3.740447
v -4.519344 18.77044 -3.807266
v -1.705852 16.9023 -5.127096
v -4.37442 19.63153 -3.651905
v -1.640561 18.67189 -5.236418
v 1.69343 16.90328 -5.113824
v -3.955547 20.46853 -3.273229
v -1.641829 21.16808 -4.109851
v -1.698091 19.95508 -4.814209
v 1.627221 18.67343 -5.215801
v 4.399803 17.00213 -3.703745
v 1.681842 20.02572 -4.811646
v 4.40504 18.77466 -3.750244
v 5.824326 17.04002 -1.740626
v 4.328337 19.63578 -3.594221
v 5.778055 18.96931 -1.817531
v 6.095378 16.86332 1.279133
v 6.013654 19.01818 1.041771
v 5.598352 20.42228 0.9663948
v 5.29451 20.21266 -1.845161
v 1.625954 21.29912 -4.124427
v 3.978627 20.47256 -3.218638
v 4.500136 21.37162 -1.754821
v 5.097784 19.03519 3.573943
v 5.155694 16.86239 3.696775
v 1.612888 16.81606 5.281238
v 1.625954 18.98922 5.256428
v -1.641826 18.9864 5.223428
v -1.634038 16.81512 5.260039
v -5.14778 16.86011 3.663009
v -5.065072 19.03065 3.516946
v -5.14778 16.86011 3.663009
v -0.02026947 16.90721 -0.04404602
v -0.02026916 16.90721 -0.04404594
v -6.131554 16.84644 1.234943
v -6.131554 16.84644 1.234943
v -0.02026916 16.90721 -0.04404594
v -0.02026916 16.90721 -0.04404587
v -5.923609 17.03587 -1.788669
v -5.923609 17.03587 -1.788669
v -0.02026916 16.90721 -0.04404587
v -0.02026947 16.90721 -0.04404602
v -4.473301 16.99944 -3.740447
v -4.473301 16.99944 -3.740447
v -0.02026947 16.90721 -0.04404602
v -0.02026932 16.90721 -0.04404602
v -1.705852 16.9023 -5.127096
v 5.155694 16.86239 3.696775
v -0.02026947 16.90721 -0.04404602
v 1.612888 16.81606 5.281238
v 1.69343 16.90328 -5.113824
v -0.02026947 16.90721 -0.04404602
v 4.399803 17.00213 -3.703745
v -0.02026932 16.90721 -0.04404602
v -1.634038 16.81512 5.260039
v -0.02026947 16.90721 -0.04404602
v -5.14778 16.86011 3.663009
v 4.399803 17.00213 -3.703745
v -0.02026947 16.90721 -0.04404602
v -0.02026916 16.90721 -0.04404587
v 5.824326 17.04002 -1.740626
v 5.824326 17.04002 -1.740626
v -0.02026916 16.90721 -0.04404587
v -0.02026916 16.90721 -0.04404594
v 6.095378 16.86332 1.279133
v 6.095378 16.86332 1.279133
v -0.02026916 16.90721 -0.04404594
v -0.02026947 16.90721 -0.04404602
v 5.155694 16.86239 3.696775
vt 0.965613 0.4553719
vt 0.9902515 0.4435574
vt 0.9902515 0.4435574
vt 0.965613 0.4553719
vt 0.9424508 0.4664786
vt 0.9962937 0.5161448
vt 0.9962937 0.5161448
vt 0.9424508 0.4664786
vt 0.9370652 0.5166616
vt 0.9657649 0.5164112
vt 0.9928437 0.5777537
vt 0.9928437 0.5777537
vt 0.9370652 0.5166616
vt 0.9358489 0.5750555
vt 0.9634662 0.576363
vt 0.9358489 0.5750555
vt 0.9375334 0.625456
vt 0.9854821 0.6474751
vt 0.9854821 0.6474751
vt 0.9607674 0.6361254
vt 0.9607674 0.6361254
vt 0.9375334 0.625456
vt 0.2234644 0.7391545
vt 0.2274041 0.747034
vt 0.2313439 0.7391545
vt 0.2234644 0.7391545
vt 0.2274041 0.747034
vt 0.2313439 0.7391545
vt 0.2356173 0.55501
vt 0.2682423 0.5661504
vt 0.2796084 0.5565291
vt 0.2418386 0.5408602
vt 0.1984356 0.5404439
vt 0.2484563 0.5258085
vt 0.2916988 0.5462946
vt 0.2038696 0.5253556
vt 0.1673282 0.5256531
vt 0.2096498 0.5093057
vt 0.164726 0.5108749
vt 0.161958 0.4951547
vt 0.127477 0.437922
vt 0.1418007 0.417845
vt 0.09209163 0.4067142
vt 0.08480352 0.430536
vt 0.1259935 0.4657498
vt 0.08648419 0.4821183
vt 0.137088 0.492505
vt 0.095371 0.53061
vt 0.192761 0.518976
vt 0.169855 0.57121
vt 0.259305 0.545045
vt 0.239442 0.598531
vt 0.200237 0.686963
vt 0.317694 0.564983
vt 0.321045 0.620288
vt 0.3417143 0.5520552
vt 0.3599376 0.590382
vt 0.359674 0.529447
vt 0.3905801 0.5594896
vt 0.3631585 0.5076019
vt 0.399358 0.5316197
vt 0.070381 0.638243
vt 0.135509 0.660871
vt 0.04125515 0.6380012
vt 0.05750098 0.5437889
vt 0.009730186 0.6425101
vt 0.02743496 0.5434793
vt 0.007485464 0.6408292
vt 0.02129119 0.5456126
vt 0.020519 0.7013301
vt 0.0260518 0.7003275
vt 0.08436254 0.7691865
vt 0.04543424 0.6909565
vt 0.08704305 0.7654755
vt 0.1671175 0.8010834
vt 0.063611 0.681604
vt 0.115722 0.710493
vt 0.1018438 0.7371869
vt 0.1679964 0.7945179
vt 0.2578173 0.7957224
vt 0.175043 0.7646378
vt 0.2546466 0.7917092
vt 0.3072428 0.7560424
vt 0.2480978 0.7701316
vt 0.3034441 0.7560231
vt 0.368226 0.6840683
vt 0.3667288 0.6800758
vt 0.3451967 0.6544643
vt 0.2872935 0.7338076
vt 0.181666 0.736513
vt 0.241925 0.7498
vt 0.266597 0.714057
vt 0.3351974 0.5904237
vt 0.3386819 0.5685786
vt 0.2636295 0.5350351
vt 0.2578065 0.5537597
vt 0.1883545 0.5242246
vt 0.1968616 0.5071647
vt 0.1173242 0.4788216
vt 0.1030005 0.4988987
vt 0.2234644 0.7391545
vt 0.2234644 0.747034
vt 0.2313439 0.747034
vt 0.2313439 0.7391545
vt 0.2234644 0.7391545
vt 0.2234644 0.747034
vt 0.2313439 0.747034
vt 0.2313439 0.7391545
vt 0.2234644 0.7391545
vt 0.2234644 0.747034
vt 0.2313439 0.747034
vt 0.2313439 0.7391545
vt 0.2234644 0.7391545
vt 0.2234644 0.747034
vt 0.2313439 0.747034
vt 0.2313439 0.7391545
vt 0.2234644 0.7391545
vt 0.2234644 0.747034
vt 0.2313439 0.7391545
vt 0.2234644 0.7391545
vt 0.2313439 0.747034
vt 0.2313439 0.7391545
vt 0.2234644 0.747034
vt 0.2234644 0.7391545
vt 0.2313439 0.747034
vt 0.2313439 0.7391545
vt 0.2234644 0.7391545
vt 0.2234644 0.747034
vt 0.2313439 0.747034
vt 0.2313439 0.7391545
vt 0.2234644 0.7391545
vt 0.2234644 0.747034
vt 0.2313439 0.747034
vt 0.2313439 0.7391545
vt 0.2234644 0.7391545
vt 0.2234644 0.747034
vt 0.2313439 0.747034
vt 0.2313439 0.7391545
vn -0.9888215 -0.02097834 -0.1476212
vn -0.7147586 -0.2214611 0.6633817
vn -0.8555616 -0.5163717 -0.03707858
vn -0.7836054 0.125712 0.608407
vn -0.8391359 0.4673984 -0.2781903
vn -0.1297879 -0.2045391 0.9702159
vn -0.04291726 -0.9859495 0.1614361
vn -0.7276096 0.5003646 0.4692755
vn -0.02217964 0.9562455 -0.2917235
vn -0.1418996 0.2080199 0.9677769
vn 0.1074971 -0.2046106 0.9729229
vn 0.03550368 -0.9864171 0.1603776
vn -0.1367567 0.639994 0.756112
vn 0.02188412 0.9570708 -0.289027
vn 0.1154756 0.2057563 0.9717664
vn 0.1098324 0.6409143 0.7597143
vn 0.8215914 0.500695 -0.2725658
vn 0.6844492 -0.230182 0.6917699
vn 0.842887 -0.5372002 -0.03094104
vn 0.7488618 0.1246627 0.6508957
vn 0.9900159 -0.02367101 -0.1389541
vn 0.6843773 0.5083392 0.5227034
vn -0.147404 -0.8013198 -0.579792
vn 0.005366811 -0.9999433 0.009200022
vn 0.1558483 -0.7996531 -0.5798848
vn 0.1578884 -0.7449373 0.6481818
vn 0.001013777 -0.9998295 -0.0184333
vn -0.1655947 -0.7430302 0.6484478
vn 0.169044 0.8299055 0.5316775
vn 0.4804315 0.7375208 0.4746037
vn 0.6339254 0.4076419 0.6572416
vn 0.2019297 0.4178728 0.8857802
vn -0.1812979 0.8277966 0.5309274
vn 0.2168223 0.1410733 0.965964
vn 0.6774046 0.1443931 0.7212999
vn -0.2192196 0.4233878 0.8790253
vn -0.4949865 0.7293859 0.4722126
vn -0.2291389 0.1463864 0.9623234
vn -0.6373169 0.4199331 0.6461296
vn -0.6797233 0.1582273 0.7161986
vn -0.6797233 0.1582273 0.7161986
vn -0.4782729 -0.7118142 0.514369
vn -0.6142053 -0.7849857 0.08092726
vn -0.9780122 0.1637214 0.1291802
vn -0.6373169 0.4199331 0.6461296
vn -0.8822405 0.4586779 0.1061432
vn -0.4949865 0.7293859 0.4722126
vn -0.5362467 0.8392222 0.0902537
vn -0.1812979 0.8277966 0.5309274
vn -0.1858558 0.9763678 0.1102888
vn 0.169044 0.8299055 0.5316775
vn 0.1750557 0.9780964 0.1126178
vn 0.1731485 0.9296201 -0.3253091
vn 0.4804315 0.7375208 0.4746037
vn 0.5374539 0.8383736 0.09095576
vn 0.6339254 0.4076419 0.6572416
vn 0.8957315 0.4358096 0.08794912
vn 0.6774046 0.1443931 0.7212999
vn 0.983204 0.145449 0.110248
vn 0.474386 -0.715774 0.51247
vn 0.6153986 -0.7852986 0.06775384
vn -0.5161738 0.8023435 -0.2996822
vn -0.190681 0.925134 -0.3282801
vn -0.8514639 0.4439898 -0.2790743
vn -0.8822405 0.4586779 0.1061432
vn -0.9499959 0.1341672 -0.28197
vn -0.9780122 0.1637214 0.1291802
vn -0.5958997 -0.7777869 -0.1998774
vn -0.6142053 -0.7849857 0.08092726
vn -0.3913276 -0.7964405 -0.4610263
vn -0.6200037 0.07470424 -0.7810344
vn -0.147404 -0.8013198 -0.579792
vn -0.5652434 0.3725206 -0.736022
vn -0.1981934 0.0847078 -0.9764959
vn 0.1558483 -0.7996531 -0.5798848
vn -0.4473634 0.6505202 -0.6137503
vn -0.1758491 0.7210512 -0.6701958
vn -0.1835927 0.393634 -0.9007475
vn 0.210332 0.08516646 -0.9739133
vn 0.4029214 -0.7925178 -0.4577881
vn 0.1883877 0.3859239 -0.9030907
vn 0.6285325 0.07332025 -0.7743197
vn 0.5926964 -0.7780669 -0.2081416
vn 0.58738 0.3415181 -0.7337235
vn 0.947683 0.1214843 -0.2951922
vn 0.6153986 -0.7852986 0.06775384
vn 0.983204 0.145449 0.110248
vn 0.8957315 0.4358096 0.08794912
vn 0.8618953 0.414883 -0.2915622
vn 0.1577617 0.7237898 -0.6717437
vn 0.4833106 0.6284491 -0.6094774
vn 0.5325878 0.7945606 -0.2915882
vn 0.6774046 0.1443931 0.7212999
vn 0.474386 -0.715774 0.51247
vn 0.1578884 -0.7449373 0.6481818
vn 0.2168223 0.1410733 0.965964
vn -0.2291389 0.1463864 0.9623234
vn -0.1655947 -0.7430302 0.6484478
vn -0.4782729 -0.7118142 0.514369
vn -0.6797233 0.1582273 0.7161986
vn -0.4782729 -0.7118142 0.514369
vn 0.001605674 -0.9999437 -0.01048299
vn -0.0001674766 -0.9988349 -0.04825865
vn -0.6142053 -0.7849857 0.08092726
vn -0.6142053 -0.7849857 0.08092726
vn -0.0001674766 -0.9988349 -0.04825865
vn -0.0050556 -0.9983884 -0.05652435
vn -0.5958997 -0.7777869 -0.1998774
vn -0.5958997 -0.7777869 -0.1998774
vn -0.0050556 -0.9983884 -0.05652435
vn -0.02599696 -0.9996417 0.006374545
vn -0.3913276 -0.7964405 -0.4610263
vn -0.3913276 -0.7964405 -0.4610263
vn -0.02599696 -0.9996417 0.006374545
vn 0.005366811 -0.9999433 0.009200022
vn -0.147404 -0.8013198 -0.579792
vn 0.474386 -0.715774 0.51247
vn 0.00123255 -0.9999056 -0.01368611
vn 0.1578884 -0.7449373 0.6481818
vn 0.1558483 -0.7996531 -0.5798848
vn 0.02638854 -0.9996341 0.005942642
vn 0.4029214 -0.7925178 -0.4577881
vn 0.005366811 -0.9999433 0.009200022
vn -0.1655947 -0.7430302 0.6484478
vn 0.001605674 -0.9999437 -0.01048299
vn -0.4782729 -0.7118142 0.514369
vn 0.4029214 -0.7925178 -0.4577881
vn 0.02638854 -0.9996341 0.005942642
vn 0.01605147 -0.9996077 -0.02295392
vn 0.5926964 -0.7780669 -0.2081416
vn 0.5926964 -0.7780669 -0.2081416
vn 0.01605147 -0.9996077 -0.02295392
vn -0.002533828 -0.9997666 -0.02145305
vn 0.6153986 -0.7852986 0.06775384
vn 0.6153986 -0.7852986 0.06775384
vn -0.002533828 -0.9997666 -0.02145305
vn 0.00123255 -0.9999056 -0.01368611
vn 0.474386 -0.715774 0.51247
g FanClubCap_0
f 3/3/3 2/2/2 1/1/1
f 2/2/2 4/4/4 1/1/1
f 1/1/1 4/4/4 5/5/5
f 6/6/6 2/2/2 3/3/3
f 4/4/4 2/2/2 6/6/6
f 7/7/7 6/6/6 3/3/3
f 4/4/4 8/8/8 5/5/5
f 5/5/5 8/8/8 9/9/9
f 10/10/10 4/4/4 6/6/6
f 8/8/8 4/4/4 10/10/10
f 11/11/11 6/6/6 7/7/7
f 10/10/10 6/6/6 11/11/11
f 12/12/12 11/11/11 7/7/7
f 8/8/8 13/13/13 9/9/9
f 13/13/13 8/8/8 10/10/10
f 9/9/9 13/13/13 14/14/14
f 13/13/13 10/10/10 15/15/15
f 15/15/15 10/10/10 11/11/11
f 13/13/13 16/16/16 14/14/14
f 16/16/16 13/13/13 15/15/15
f 14/14/14 16/16/16 17/17/17
f 18/18/18 11/11/11 12/12/12
f 19/19/19 18/18/18 12/12/12
f 15/15/15 11/11/11 20/20/20
f 11/11/11 18/18/18 20/20/20
f 20/20/20 18/18/18 19/19/19
f 15/15/15 20/20/20 16/16/16
f 21/21/21 20/20/20 19/19/19
f 17/17/17 22/22/22 21/21/21
f 16/16/16 22/22/22 17/17/17
f 20/20/20 22/22/22 16/16/16
f 22/22/22 20/20/20 21/21/21
g FanClubCap_1
f 25/25/25 24/24/24 23/23/23
f 28/28/28 27/27/27 26/26/26
f 31/31/31 30/30/30 29/29/29
f 32/32/32 31/31/31 29/29/29
f 29/29/29 33/33/33 32/32/32
f 32/32/32 34/34/34 31/31/31
f 34/34/34 35/35/35 31/31/31
f 33/33/33 36/36/36 32/32/32
f 32/32/32 36/36/36 34/34/34
f 33/33/33 37/37/37 36/36/36
f 36/36/36 38/38/38 34/34/34
f 37/37/37 39/39/39 36/36/36
f 36/36/36 39/39/39 38/38/38
f 39/39/39 40/40/40 38/38/38
f 43/43/43 42/42/42 41/41/41
f 44/44/44 43/43/43 41/41/41
f 41/41/41 45/45/45 44/44/44
f 45/45/45 46/46/46 44/44/44
f 45/45/45 47/47/47 46/46/46
f 47/47/47 48/48/48 46/46/46
f 48/48/48 47/47/47 49/49/49
f 50/50/50 48/48/48 49/49/49
f 50/50/50 49/49/49 51/51/51
f 52/52/52 50/50/50 51/51/51
f 50/50/50 52/52/52 53/53/53
f 51/51/51 54/54/54 52/52/52
f 54/54/54 55/55/55 52/52/52
f 52/52/52 55/55/55 53/53/53
f 55/55/55 54/54/54 56/56/56
f 57/57/57 55/55/55 56/56/56
f 57/57/57 56/56/56 58/58/58
f 59/59/59 57/57/57 58/58/58
f 58/58/58 60/60/60 59/59/59
f 60/60/60 61/61/61 59/59/59
f 62/62/62 48/48/48 50/50/50
f 63/63/63 50/50/50 53/53/53
f 63/63/63 62/62/62 50/50/50
f 62/62/62 64/64/64 48/48/48
f 64/64/64 65/65/65 48/48/48
f 64/64/64 66/66/66 65/65/65
f 66/66/66 67/67/67 65/65/65
f 66/66/66 68/68/68 67/67/67
f 68/68/68 69/69/69 67/67/67
f 70/70/70 68/68/68 66/66/66
f 71/71/71 70/70/70 66/66/66
f 66/66/66 64/64/64 71/71/71
f 72/72/72 70/70/70 71/71/71
f 64/64/64 62/62/62 73/73/73
f 64/64/64 73/73/73 71/71/71
f 74/74/74 72/72/72 71/71/71
f 74/74/74 71/71/71 73/73/73
f 75/75/75 72/72/72 74/74/74
f 76/76/76 62/62/62 63/63/63
f 62/62/62 76/76/76 73/73/73
f 77/77/77 76/76/76 63/63/63
f 73/73/73 76/76/76 77/77/77
f 77/77/77 63/63/63 53/53/53
f 78/78/78 74/74/74 73/73/73
f 78/78/78 73/73/73 77/77/77
f 79/79/79 75/75/75 74/74/74
f 79/79/79 74/74/74 78/78/78
f 80/80/80 75/75/75 79/79/79
f 81/81/81 78/78/78 77/77/77
f 81/81/81 79/79/79 78/78/78
f 82/82/82 80/80/80 79/79/79
f 83/83/83 80/80/80 82/82/82
f 84/84/84 82/82/82 79/79/79
f 81/81/81 84/84/84 79/79/79
f 85/85/85 83/83/83 82/82/82
f 82/82/82 84/84/84 85/85/85
f 86/86/86 83/83/83 85/85/85
f 87/87/87 86/86/86 85/85/85
f 88/88/88 87/87/87 85/85/85
f 89/89/89 88/88/88 85/85/85
f 84/84/84 89/89/89 85/85/85
f 55/55/55 88/88/88 89/89/89
f 90/90/90 81/81/81 77/77/77
f 90/90/90 77/77/77 53/53/53
f 91/91/91 84/84/84 81/81/81
f 90/90/90 91/91/91 81/81/81
f 84/84/84 91/91/91 89/89/89
f 90/90/90 53/53/53 91/91/91
f 92/92/92 55/55/55 89/89/89
f 91/91/91 92/92/92 89/89/89
f 53/53/53 92/92/92 91/91/91
f 55/55/55 92/92/92 53/53/53
f 95/95/95 94/94/94 93/93/93
f 96/96/96 95/95/95 93/93/93
f 95/95/95 96/96/96 97/97/97
f 98/98/98 95/95/95 97/97/97
f 99/99/99 98/98/98 97/97/97
f 100/100/100 99/99/99 97/97/97
f 103/103/103 102/102/102 101/101/101
f 104/104/104 103/103/103 101/101/101
f 107/107/107 106/106/106 105/105/105
f 108/108/108 107/107/107 105/105/105
f 111/111/111 110/110/110 109/109/109
f 112/112/112 111/111/111 109/109/109
f 115/115/115 114/114/114 113/113/113
f 116/116/116 115/115/115 113/113/113
f 115/115/115 118/118/118 117/117/117
f 119/119/119 115/115/115 117/117/117
f 122/122/122 121/121/121 120/120/120
f 121/121/121 123/123/123 120/120/120
f 125/125/125 123/123/123 124/124/124
f 126/126/126 125/125/125 124/124/124
f 129/129/129 128/128/128 127/127/127
f 130/130/130 129/129/129 127/127/127
f 133/133/133 132/132/132 131/131/131
f 134/134/134 133/133/133 131/131/131
f 137/137/137 136/136/136 135/135/135
f 138/138/138 137/137/137 135/135/135
