g FeetLVL1
v -0.628545 0.001088867 -0.8435052
v -2.057995 0.001088867 -1.209691
v -2.997966 0.001088867 2.369308
v -0.7208418 0.001088867 3.024317
v -1.885079 0.001088867 3.26584
v -0.7809978 1.01759 2.934728
v -0.628545 0.001088867 -0.8435052
v -0.7208418 0.001088867 3.024317
v -0.714485 1.032812 -0.8818524
v -1.048128 1.281028 0.5427066
v -1.058237 1.35714 -0.2681927
v -1.905525 1.307021 0.5842496
v -1.904866 1.306199 -0.2989642
v -2.937747 1.022787 2.387031
v -2.02737 1.022624 -1.180955
v -2.057995 0.001088867 -1.209691
v -0.628545 0.001088867 -0.8435052
v -2.997966 0.001088867 2.369308
v -2.057995 0.001088867 -1.209691
v -1.893005 1.020273 3.229432
v -0.7208418 0.001088867 3.024317
v -1.885079 0.001088867 3.26584
v -2.997966 0.001088867 2.369308
v 2.997966 0.001088867 2.369308
v 2.057995 0.001088867 -1.209691
v 0.628545 0.001088867 -0.8435052
v 0.7208418 0.001088867 3.024317
v 1.885079 0.001088867 3.26584
v 0.7809978 1.01759 2.934728
v 0.7208418 0.001088867 3.024317
v 0.628545 0.001088867 -0.8435052
v 0.714485 1.032812 -0.8818524
v 1.048128 1.281028 0.5427066
v 1.058237 1.35714 -0.2681927
v 1.905525 1.307021 0.5842496
v 1.904866 1.306199 -0.2989642
v 2.937747 1.022787 2.387031
v 2.02737 1.022624 -1.180955
v 2.057995 0.001088867 -1.209691
v 0.628545 0.001088867 -0.8435052
v 2.997966 0.001088867 2.369308
v 2.057995 0.001088867 -1.209691
v 1.893005 1.020273 3.229432
v 0.7208418 0.001088867 3.024317
v 1.885079 0.001088867 3.26584
v 2.997966 0.001088867 2.369308
v -1.069412 4.112559 -0.3873968
v -1.135604 2.701962 -0.1922876
v -1.098657 3.223575 0.7684564
v -1.017946 4.161182 0.6541534
v -1.954016 4.489866 0.6433875
v -1.143134 2.309772 0.706939
v -1.058237 1.35714 -0.2681927
v -1.048128 1.281028 0.5427066
v -1.940881 2.342205 0.7136224
v -1.905525 1.307021 0.5842496
v -1.904866 1.306199 -0.2989642
v -1.990751 3.283405 0.7386969
v -2.024257 4.449622 -0.4028646
v -1.997648 2.726764 -0.2151861
v -1.058237 1.35714 -0.2681927
v -1.069412 4.112559 -0.3873968
v -1.135604 2.701962 -0.1922876
v 1.069412 4.112559 -0.3873968
v 1.017946 4.161182 0.6541534
v 1.098657 3.223575 0.7684564
v 1.135604 2.701962 -0.1922876
v 1.954016 4.489866 0.6433875
v 1.143134 2.309772 0.706939
v 1.058237 1.35714 -0.2681927
v 1.048128 1.281028 0.5427066
v 1.940881 2.342205 0.7136224
v 1.905525 1.307021 0.5842496
v 1.904866 1.306199 -0.2989642
v 1.990751 3.283405 0.7386969
v 2.024257 4.449622 -0.4028646
v 1.997648 2.726764 -0.2151861
v 1.058237 1.35714 -0.2681927
v 1.069412 4.112559 -0.3873968
v 1.135604 2.701962 -0.1922876
vt 0.8081758 0.9556662
vt 0.8110563 0.9560078
vt 0.8116347 0.9488243
vt 0.8071171 0.9489076
vt 0.8091432 0.9477091
vt 0.8431238 0.8875598
vt 0.8494078 0.9853122
vt 0.868337 0.8902597
vt 0.82394 0.9813678
vt 0.822078 0.9443235
vt 0.816808 0.9630478
vt 0.8017567 0.9386587
vt 0.7973536 0.960144
vt 0.7863361 0.8882188
vt 0.7875859 0.9813786
vt 0.787627 0.9941446
vt 0.825758 0.9941158
vt 0.760994 0.8884233
vt 0.7621318 0.9818087
vt 0.8171186 0.8794004
vt 0.847547 0.8615482
vt 0.817549 0.8552872
vt 0.7815076 0.8624874
vt 0.8116347 0.9488243
vt 0.8110563 0.9560078
vt 0.8081758 0.9556662
vt 0.8071171 0.9489076
vt 0.8091432 0.9477091
vt 0.8431238 0.8875598
vt 0.868337 0.8902597
vt 0.8494078 0.9853122
vt 0.82394 0.9813678
vt 0.822078 0.9443235
vt 0.816808 0.9630478
vt 0.8017567 0.9386587
vt 0.7973536 0.960144
vt 0.7863361 0.8882188
vt 0.7875859 0.9813786
vt 0.787627 0.9941446
vt 0.825758 0.9941158
vt 0.760994 0.8884233
vt 0.7621318 0.9818087
vt 0.8171186 0.8794004
vt 0.847547 0.8615482
vt 0.817549 0.8552872
vt 0.7815076 0.8624874
vt 0.98466 0.982319
vt 0.98466 0.9390899
vt 0.9584506 0.9574807
vt 0.9584507 0.9855305
vt 0.9343511 0.9952353
vt 0.9584507 0.929153
vt 0.9846599 0.8967464
vt 0.9584509 0.8967464
vt 0.934351 0.9291528
vt 0.9343511 0.8967463
vt 0.907352 0.8967463
vt 0.934351 0.9574807
vt 0.9073522 0.9952353
vt 0.9073522 0.9390899
vt 0.8834255 0.8967463
vt 0.8834255 0.9812899
vt 0.8834256 0.9390899
vt 0.98466 0.982319
vt 0.9584507 0.9855305
vt 0.9584506 0.9574807
vt 0.98466 0.9390899
vt 0.9343511 0.9952353
vt 0.9584507 0.929153
vt 0.9846599 0.8967464
vt 0.9584509 0.8967464
vt 0.934351 0.9291528
vt 0.9343511 0.8967463
vt 0.907352 0.8967463
vt 0.934351 0.9574807
vt 0.9073522 0.9952353
vt 0.9073522 0.9390899
vt 0.8834255 0.8967463
vt 0.8834255 0.9812899
vt 0.8834256 0.9390899
vn 0.4449106 -0.8864697 -0.1273813
vn -0.3782475 -0.8863766 -0.2669558
vn -0.4215108 -0.9067598 0.01073814
vn 0.4166547 -0.9002681 0.1261597
vn -0.05259581 -0.9790033 0.1969426
vn 0.6654966 0.7004339 0.2578892
vn 0.4449106 -0.8864697 -0.1273813
vn 0.4166547 -0.9002681 0.1261597
vn 0.9055002 0.2573546 -0.3373992
vn 0.3821292 0.8993832 0.2123368
vn 0.6067283 0.6598042 -0.4433274
vn -0.3132853 0.93384 0.1726131
vn -0.5397485 0.7159976 -0.4427406
vn -0.706253 0.7016411 0.0943743
vn -0.7672679 0.2544538 -0.5886877
vn -0.3782475 -0.8863766 -0.2669558
vn 0.4449106 -0.8864697 -0.1273813
vn -0.4215108 -0.9067598 0.01073814
vn -0.3782475 -0.8863766 -0.2669558
vn -0.1082036 0.8834912 0.4557799
vn 0.4166547 -0.9002681 0.1261597
vn -0.05259581 -0.9790033 0.1969426
vn -0.4215108 -0.9067598 0.01073814
vn 0.4215109 -0.9067598 0.01073812
vn 0.3782475 -0.8863766 -0.2669558
vn -0.4449106 -0.8864697 -0.1273813
vn -0.4166547 -0.9002681 0.1261597
vn 0.05259581 -0.9790033 0.1969425
vn -0.6654966 0.7004338 0.2578892
vn -0.4166547 -0.9002681 0.1261597
vn -0.4449106 -0.8864697 -0.1273813
vn -0.9055001 0.2573546 -0.3373991
vn -0.3821292 0.8993834 0.2123368
vn -0.6067282 0.6598043 -0.4433274
vn 0.3132853 0.93384 0.1726131
vn 0.5397484 0.7159976 -0.4427406
vn 0.706253 0.7016411 0.09437429
vn 0.7672679 0.2544538 -0.5886877
vn 0.3782475 -0.8863766 -0.2669558
vn -0.4449106 -0.8864697 -0.1273813
vn 0.4215109 -0.9067598 0.01073812
vn 0.3782475 -0.8863766 -0.2669558
vn 0.1082037 0.8834912 0.4557799
vn -0.4166547 -0.9002681 0.1261597
vn 0.05259581 -0.9790033 0.1969425
vn 0.4215109 -0.9067598 0.01073812
vn 0.548988 -0.1353671 -0.8247957
vn 0.5999631 -0.03493631 -0.7992646
vn 0.7107071 -0.02077882 0.703181
vn 0.7512324 0.01685337 0.6598226
vn -0.8741058 0.05024913 0.4831294
vn 0.6668816 -0.04172596 0.7439946
vn 0.6067283 0.6598042 -0.4433274
vn 0.3821292 0.8993832 0.2123368
vn -0.6989493 -0.1022412 0.7078253
vn -0.3132853 0.93384 0.1726131
vn -0.5397485 0.7159976 -0.4427406
vn -0.7752324 0.02204725 0.6312912
vn -0.8058546 -0.06977517 -0.587988
vn -0.6618269 -0.04978128 -0.748002
vn 0.6067283 0.6598042 -0.4433274
vn 0.548988 -0.1353671 -0.8247957
vn 0.5999631 -0.03493631 -0.7992646
vn -0.548988 -0.1353671 -0.8247957
vn -0.7512324 0.0168534 0.6598225
vn -0.7107071 -0.02077881 0.703181
vn -0.5999631 -0.03493632 -0.7992646
vn 0.8741058 0.05024918 0.4831294
vn -0.6668816 -0.04172597 0.7439945
vn -0.6067282 0.6598043 -0.4433274
vn -0.3821292 0.8993834 0.2123368
vn 0.6989493 -0.1022411 0.7078253
vn 0.3132853 0.93384 0.1726131
vn 0.5397484 0.7159976 -0.4427406
vn 0.7752325 0.0220473 0.631291
vn 0.8058546 -0.06977513 -0.587988
vn 0.6618269 -0.04978124 -0.748002
vn -0.6067282 0.6598043 -0.4433274
vn -0.548988 -0.1353671 -0.8247957
vn -0.5999631 -0.03493632 -0.7992646
g FeetLVL1_0
f 3/3/3 2/2/2 1/1/1
f 1/1/1 4/4/4 3/3/3
f 4/4/4 5/5/5 3/3/3
f 8/8/8 7/7/7 6/6/6
f 7/7/7 9/9/9 6/6/6
f 6/6/6 9/9/9 10/10/10
f 9/9/9 11/11/11 10/10/10
f 6/6/6 10/10/10 12/12/12
f 11/11/11 9/9/9 13/13/13
f 12/12/12 14/14/14 6/6/6
f 14/14/14 12/12/12 13/13/13
f 9/9/9 15/15/15 13/13/13
f 15/15/15 14/14/14 13/13/13
f 16/16/16 15/15/15 9/9/9
f 17/17/17 16/16/16 9/9/9
f 18/18/18 14/14/14 15/15/15
f 19/19/19 18/18/18 15/15/15
f 14/14/14 20/20/20 6/6/6
f 21/21/21 6/6/6 20/20/20
f 22/22/22 21/21/21 20/20/20
f 22/22/22 20/20/20 14/14/14
f 23/23/23 22/22/22 14/14/14
f 26/26/26 25/25/25 24/24/24
f 24/24/24 27/27/27 26/26/26
f 24/24/24 28/28/28 27/27/27
f 31/31/31 30/30/30 29/29/29
f 32/32/32 31/31/31 29/29/29
f 32/32/32 29/29/29 33/33/33
f 34/34/34 32/32/32 33/33/33
f 35/35/35 33/33/33 29/29/29
f 32/32/32 34/34/34 36/36/36
f 29/29/29 37/37/37 35/35/35
f 35/35/35 37/37/37 36/36/36
f 38/38/38 32/32/32 36/36/36
f 37/37/37 38/38/38 36/36/36
f 38/38/38 39/39/39 32/32/32
f 39/39/39 40/40/40 32/32/32
f 37/37/37 41/41/41 38/38/38
f 41/41/41 42/42/42 38/38/38
f 29/29/29 43/43/43 37/37/37
f 29/29/29 44/44/44 43/43/43
f 44/44/44 45/45/45 43/43/43
f 43/43/43 45/45/45 37/37/37
f 45/45/45 46/46/46 37/37/37
f 49/49/49 48/48/48 47/47/47
f 50/50/50 49/49/49 47/47/47
f 49/49/49 50/50/50 51/51/51
f 52/52/52 48/48/48 49/49/49
f 48/48/48 52/52/52 53/53/53
f 52/52/52 54/54/54 53/53/53
f 54/54/54 52/52/52 55/55/55
f 52/52/52 49/49/49 55/55/55
f 56/56/56 54/54/54 55/55/55
f 56/56/56 55/55/55 57/57/57
f 58/58/58 49/49/49 51/51/51
f 49/49/49 58/58/58 55/55/55
f 51/51/51 59/59/59 58/58/58
f 55/55/55 60/60/60 57/57/57
f 55/55/55 58/58/58 60/60/60
f 59/59/59 60/60/60 58/58/58
f 57/57/57 60/60/60 61/61/61
f 60/60/60 59/59/59 62/62/62
f 60/60/60 63/63/63 61/61/61
f 63/63/63 60/60/60 62/62/62
f 66/66/66 65/65/65 64/64/64
f 67/67/67 66/66/66 64/64/64
f 65/65/65 66/66/66 68/68/68
f 67/67/67 69/69/69 66/66/66
f 69/69/69 67/67/67 70/70/70
f 71/71/71 69/69/69 70/70/70
f 69/69/69 71/71/71 72/72/72
f 66/66/66 69/69/69 72/72/72
f 71/71/71 73/73/73 72/72/72
f 72/72/72 73/73/73 74/74/74
f 66/66/66 75/75/75 68/68/68
f 75/75/75 66/66/66 72/72/72
f 76/76/76 68/68/68 75/75/75
f 77/77/77 72/72/72 74/74/74
f 75/75/75 72/72/72 77/77/77
f 77/77/77 76/76/76 75/75/75
f 77/77/77 74/74/74 78/78/78
f 76/76/76 77/77/77 79/79/79
f 80/80/80 77/77/77 78/78/78
f 77/77/77 80/80/80 79/79/79
