g Feet
v 1.142345 2.629416 -0.7191728
v 1.142345 0.4208102 -0.7191728
v 2.358575 0.4208102 -0.7191728
v 2.358575 2.629416 -0.7191728
v 2.358575 0.4208102 0.6081727
v 2.358575 2.629416 0.6081727
v 1.142345 0.4208102 0.6081727
v 1.142345 2.629416 0.6081727
v 1.142345 0.4208102 -0.7191728
v 1.142345 2.629416 -0.7191728
v 3.323741 -0.02239685 -1.015726
v 2.99841 0.7727689 -0.6157026
v 2.256638 0.7727689 -1.527779
v 2.380903 -0.02239685 -2.17503
v 1.339757 0.7727689 -1.527779
v 1.215492 -0.02239685 -2.17503
v 0.5979846 0.7727689 -0.615702
v 0.2726541 -0.02239685 -1.015725
v 0.529476 0.7727689 0.32972
v 0.1855752 -0.02239685 0.32972
v 0.5979849 0.7727689 1.30077
v 0.2726544 -0.02239685 1.462106
v 1.27882 0.7727689 2.619218
v 1.138037 -0.02239685 3.027783
v 2.317575 0.7727689 2.619218
v 2.458358 -0.02239685 3.027783
v 2.99841 0.7727689 1.30077
v 3.323741 -0.02239685 1.462106
v 3.066919 0.7727689 0.3297198
v 3.41082 -0.02239685 0.3297198
v 2.99841 0.7727689 -0.6157026
v 3.323741 -0.02239685 -1.015726
v -1.142345 2.629416 -0.7191728
v -2.358575 0.4208102 -0.7191728
v -1.142345 0.4208102 -0.7191728
v -2.358575 2.629416 -0.7191728
v -2.358575 0.4208102 0.6081727
v -2.358575 2.629416 0.6081727
v -1.142345 0.4208102 0.6081727
v -1.142345 2.629416 0.6081727
v -1.142345 0.4208102 -0.7191728
v -1.142345 2.629416 -0.7191728
v -3.323741 -0.02239685 -1.015726
v -2.256638 0.7727689 -1.527779
v -2.99841 0.7727689 -0.6157026
v -2.380903 -0.02239685 -2.17503
v -1.339757 0.7727689 -1.527779
v -1.215492 -0.02239685 -2.17503
v -0.5979846 0.7727689 -0.615702
v -0.2726541 -0.02239685 -1.015725
v -0.529476 0.7727689 0.32972
v -0.1855752 -0.02239685 0.32972
v -0.5979849 0.7727689 1.30077
v -0.2726544 -0.02239685 1.462106
v -1.27882 0.7727689 2.619218
v -1.138037 -0.02239685 3.027783
v -2.317575 0.7727689 2.619218
v -2.458358 -0.02239685 3.027783
v -2.99841 0.7727689 1.30077
v -3.323741 -0.02239685 1.462106
v -3.066919 0.7727689 0.3297198
v -3.41082 -0.02239685 0.3297198
v -2.99841 0.7727689 -0.6157026
v -3.323741 -0.02239685 -1.015726
v 2.380903 -0.02239685 -2.17503
v 1.798198 -0.02239685 0.3297198
v 3.323741 -0.02239685 -1.015726
v 1.215492 -0.02239685 -2.17503
v 3.41082 -0.02239685 0.3297198
v 0.2726541 -0.02239685 -1.015725
v 3.323741 -0.02239685 1.462106
v 0.1855752 -0.02239685 0.32972
v 2.458358 -0.02239685 3.027783
v 0.2726544 -0.02239685 1.462106
v 1.138037 -0.02239685 3.027783
v 2.99841 0.7727689 -0.6157026
v 1.798198 0.7727689 0.3297198
v 2.256638 0.7727689 -1.527779
v 3.066919 0.7727689 0.3297198
v 1.339757 0.7727689 -1.527779
v 2.99841 0.7727689 1.30077
v 0.5979846 0.7727689 -0.615702
v 2.317575 0.7727689 2.619218
v 0.529476 0.7727689 0.32972
v 1.27882 0.7727689 2.619218
v 0.5979849 0.7727689 1.30077
v -2.380903 -0.02239685 -2.17503
v -3.323741 -0.02239685 -1.015726
v -1.798198 -0.02239685 0.3297198
v -1.215492 -0.02239685 -2.17503
v -3.41082 -0.02239685 0.3297198
v -0.2726541 -0.02239685 -1.015725
v -3.323741 -0.02239685 1.462106
v -0.1855752 -0.02239685 0.32972
v -2.458358 -0.02239685 3.027783
v -0.2726544 -0.02239685 1.462106
v -1.138037 -0.02239685 3.027783
v -2.99841 0.7727689 -0.6157026
v -2.256638 0.7727689 -1.527779
v -1.798198 0.7727689 0.3297198
v -3.066919 0.7727689 0.3297198
v -1.339757 0.7727689 -1.527779
v -2.99841 0.7727689 1.30077
v -0.5979846 0.7727689 -0.615702
v -2.317575 0.7727689 2.619218
v -0.529476 0.7727689 0.32972
v -1.27882 0.7727689 2.619218
v -0.5979849 0.7727689 1.30077
vt 0.6712063 0.5114467
vt 0.6084596 0.5114467
vt 0.6084596 0.5741933
vt 0.6712064 0.5741933
vt 0.6084596 0.63694
vt 0.6712064 0.63694
vt 0.6084596 0.6996868
vt 0.6712064 0.6996868
vt 0.6084596 0.7624336
vt 0.6712064 0.7624336
vt 0.01213778 0.7794005
vt 0.01213778 0.8302932
vt 0.07920057 0.8302932
vt 0.07920057 0.7794005
vt 0.127999 0.8302932
vt 0.127999 0.7794005
vt 0.19527 0.8302932
vt 0.19527 0.7794005
vt 0.2596706 0.8302932
vt 0.2596706 0.7794005
vt 0.3209163 0.8302932
vt 0.3209163 0.7794005
vt 0.4129193 0.8302932
vt 0.4129193 0.7794005
vt 0.4762191 0.8302932
vt 0.4762191 0.7794005
vt 0.5682971 0.8302932
vt 0.5682971 0.7794005
vt 0.6296877 0.8302932
vt 0.6296877 0.7794005
vt 0.6967013 0.8302932
vt 0.6967013 0.7794005
vt 0.6712063 0.5114467
vt 0.6084596 0.5741933
vt 0.6084596 0.5114467
vt 0.6712064 0.5741933
vt 0.6084596 0.63694
vt 0.6712064 0.63694
vt 0.6084596 0.6996868
vt 0.6712064 0.6996868
vt 0.6084596 0.7624336
vt 0.6712064 0.7624336
vt 0.01213778 0.7794005
vt 0.07920057 0.8302932
vt 0.01213778 0.8302932
vt 0.07920057 0.7794005
vt 0.127999 0.8302932
vt 0.127999 0.7794005
vt 0.19527 0.8302932
vt 0.19527 0.7794005
vt 0.2596706 0.8302932
vt 0.2596706 0.7794005
vt 0.3209163 0.8302932
vt 0.3209163 0.7794005
vt 0.4129193 0.8302932
vt 0.4129193 0.7794005
vt 0.4762191 0.8302932
vt 0.4762191 0.7794005
vt 0.5682971 0.8302932
vt 0.5682971 0.7794005
vt 0.6296877 0.8302932
vt 0.6296877 0.7794005
vt 0.6967013 0.8302932
vt 0.6967013 0.7794005
vt 0.04035044 0.2454065
vt 0.03186291 0.2704298
vt 0.05408359 0.2553842
vt 0.02337536 0.2454065
vt 0.05932918 0.2715285
vt 0.009642243 0.2553843
vt 0.05408359 0.2876728
vt 0.004396647 0.2715285
vt 0.04035047 0.2976505
vt 0.009642243 0.2876728
vt 0.02337536 0.2976505
vt 0.9661361 0.676833
vt 0.9083006 0.6319536
vt 0.9303918 0.7028029
vt 0.9797892 0.6348131
vt 0.8862094 0.7028029
vt 0.9661361 0.5927932
vt 0.8504651 0.676833
vt 0.9303918 0.5668234
vt 0.836812 0.6348131
vt 0.8862094 0.5668234
vt 0.8504651 0.5927932
vt 0.04035044 0.2454065
vt 0.05408359 0.2553842
vt 0.03186291 0.2704298
vt 0.02337536 0.2454065
vt 0.05932918 0.2715285
vt 0.009642243 0.2553843
vt 0.05408359 0.2876728
vt 0.004396647 0.2715285
vt 0.04035047 0.2976505
vt 0.009642243 0.2876728
vt 0.02337536 0.2976505
vt 0.9661361 0.676833
vt 0.9303918 0.7028029
vt 0.9083006 0.6319536
vt 0.9797892 0.6348131
vt 0.8862094 0.7028029
vt 0.9661361 0.5927932
vt 0.8504651 0.676833
vt 0.9303918 0.5668234
vt 0.836812 0.6348131
vt 0.8862094 0.5668234
vt 0.8504651 0.5927932
vn -0.7372936 0 -0.6755725
vn -0.7372936 0 -0.6755725
vn 0.7372936 0 -0.6755725
vn 0.7372936 0 -0.6755725
vn 0.7372936 0 0.6755725
vn 0.7372936 0 0.6755725
vn -0.7372936 0 0.6755725
vn -0.7372936 0 0.6755725
vn -0.7372936 0 -0.6755725
vn -0.7372936 0 -0.6755725
vn 0.7435997 -0.560285 -0.3648839
vn 0.6089926 0.7611776 -0.2230173
vn 0.300056 0.8124153 -0.4999478
vn 0.3497476 -0.58895 -0.7285703
vn -0.3000562 0.8124152 -0.4999478
vn -0.3497477 -0.58895 -0.7285701
vn -0.6089925 0.7611777 -0.2230173
vn -0.7435996 -0.5602852 -0.3648839
vn -0.6774523 0.7355666 -1.121681E-05
vn -0.8273358 -0.5617076 -9.101467E-05
vn -0.6108429 0.7655344 0.2020593
vn -0.7471278 -0.6105718 0.2626823
vn -0.3933401 0.7700745 0.5022637
vn -0.4214009 -0.6641719 0.6174926
vn 0.3933401 0.7700745 0.5022636
vn 0.421401 -0.6641719 0.6174925
vn 0.6108429 0.7655344 0.2020593
vn 0.747128 -0.6105716 0.2626823
vn 0.6774524 0.7355666 -1.129526E-05
vn 0.8273358 -0.5617076 -9.10671E-05
vn 0.6089926 0.7611776 -0.2230173
vn 0.7435997 -0.560285 -0.3648839
vn 0.7372936 0 -0.6755725
vn -0.7372936 0 -0.6755725
vn 0.7372936 0 -0.6755725
vn -0.7372936 0 -0.6755725
vn -0.7372936 0 0.6755725
vn -0.7372936 0 0.6755725
vn 0.7372936 0 0.6755725
vn 0.7372936 0 0.6755725
vn 0.7372936 0 -0.6755725
vn 0.7372936 0 -0.6755725
vn -0.7435996 -0.560285 -0.364884
vn -0.300056 0.8124153 -0.4999478
vn -0.6089926 0.7611776 -0.2230173
vn -0.3497476 -0.58895 -0.7285703
vn 0.3000561 0.8124152 -0.4999478
vn 0.3497477 -0.5889503 -0.72857
vn 0.6089924 0.7611777 -0.2230173
vn 0.7435995 -0.5602852 -0.3648839
vn 0.6774523 0.7355666 -1.122496E-05
vn 0.8273358 -0.5617077 -9.100753E-05
vn 0.6108429 0.7655344 0.2020593
vn 0.7471278 -0.6105719 0.2626823
vn 0.39334 0.7700746 0.5022637
vn 0.4214009 -0.6641719 0.6174926
vn -0.3933401 0.7700745 0.5022636
vn -0.421401 -0.6641719 0.6174925
vn -0.6108429 0.7655344 0.2020593
vn -0.747128 -0.6105716 0.2626823
vn -0.6774525 0.7355665 -1.12812E-05
vn -0.8273358 -0.5617075 -9.107458E-05
vn -0.6089926 0.7611776 -0.2230173
vn -0.7435996 -0.560285 -0.364884
vn 0.3497476 -0.58895 -0.7285703
vn 0 -1 0
vn 0.7435997 -0.560285 -0.3648839
vn -0.3497477 -0.58895 -0.7285701
vn 0.8273358 -0.5617076 -9.10671E-05
vn -0.7435996 -0.5602852 -0.3648839
vn 0.747128 -0.6105716 0.2626823
vn -0.8273358 -0.5617076 -9.101467E-05
vn 0.421401 -0.6641719 0.6174925
vn -0.7471278 -0.6105718 0.2626823
vn -0.4214009 -0.6641719 0.6174926
vn 0.6089926 0.7611776 -0.2230173
vn 0 1 0
vn 0.300056 0.8124153 -0.4999478
vn 0.6774524 0.7355666 -1.129526E-05
vn -0.3000562 0.8124152 -0.4999478
vn 0.6108429 0.7655344 0.2020593
vn -0.6089925 0.7611777 -0.2230173
vn 0.3933401 0.7700745 0.5022636
vn -0.6774523 0.7355666 -1.121681E-05
vn -0.3933401 0.7700745 0.5022637
vn -0.6108429 0.7655344 0.2020593
vn -0.3497476 -0.58895 -0.7285703
vn -0.7435996 -0.560285 -0.364884
vn 0 -1 0
vn 0.3497477 -0.5889503 -0.72857
vn -0.8273358 -0.5617075 -9.107458E-05
vn 0.7435995 -0.5602852 -0.3648839
vn -0.747128 -0.6105716 0.2626823
vn 0.8273358 -0.5617077 -9.100753E-05
vn -0.421401 -0.6641719 0.6174925
vn 0.7471278 -0.6105719 0.2626823
vn 0.4214009 -0.6641719 0.6174926
vn -0.6089926 0.7611776 -0.2230173
vn -0.300056 0.8124153 -0.4999478
vn 0 1 0
vn -0.6774525 0.7355665 -1.12812E-05
vn 0.3000561 0.8124152 -0.4999478
vn -0.6108429 0.7655344 0.2020593
vn 0.6089924 0.7611777 -0.2230173
vn -0.3933401 0.7700745 0.5022636
vn 0.6774523 0.7355666 -1.122496E-05
vn 0.39334 0.7700746 0.5022637
vn 0.6108429 0.7655344 0.2020593
g Feet_0
f 3/3/3 2/2/2 1/1/1
f 4/4/4 3/3/3 1/1/1
f 3/3/3 4/4/4 5/5/5
f 4/4/4 6/6/6 5/5/5
f 5/5/5 6/6/6 7/7/7
f 6/6/6 8/8/8 7/7/7
f 7/7/7 8/8/8 9/9/9
f 8/8/8 10/10/10 9/9/9
f 13/13/13 12/12/12 11/11/11
f 14/14/14 13/13/13 11/11/11
f 15/15/15 13/13/13 14/14/14
f 16/16/16 15/15/15 14/14/14
f 17/17/17 15/15/15 16/16/16
f 18/18/18 17/17/17 16/16/16
f 19/19/19 17/17/17 18/18/18
f 20/20/20 19/19/19 18/18/18
f 21/21/21 19/19/19 20/20/20
f 22/22/22 21/21/21 20/20/20
f 23/23/23 21/21/21 22/22/22
f 24/24/24 23/23/23 22/22/22
f 25/25/25 23/23/23 24/24/24
f 26/26/26 25/25/25 24/24/24
f 27/27/27 25/25/25 26/26/26
f 28/28/28 27/27/27 26/26/26
f 29/29/29 27/27/27 28/28/28
f 30/30/30 29/29/29 28/28/28
f 31/31/31 29/29/29 30/30/30
f 32/32/32 31/31/31 30/30/30
f 35/35/35 34/34/34 33/33/33
f 34/34/34 36/36/36 33/33/33
f 36/36/36 34/34/34 37/37/37
f 38/38/38 36/36/36 37/37/37
f 38/38/38 37/37/37 39/39/39
f 40/40/40 38/38/38 39/39/39
f 40/40/40 39/39/39 41/41/41
f 42/42/42 40/40/40 41/41/41
f 45/45/45 44/44/44 43/43/43
f 44/44/44 46/46/46 43/43/43
f 44/44/44 47/47/47 46/46/46
f 47/47/47 48/48/48 46/46/46
f 47/47/47 49/49/49 48/48/48
f 49/49/49 50/50/50 48/48/48
f 49/49/49 51/51/51 50/50/50
f 51/51/51 52/52/52 50/50/50
f 51/51/51 53/53/53 52/52/52
f 53/53/53 54/54/54 52/52/52
f 53/53/53 55/55/55 54/54/54
f 55/55/55 56/56/56 54/54/54
f 55/55/55 57/57/57 56/56/56
f 57/57/57 58/58/58 56/56/56
f 57/57/57 59/59/59 58/58/58
f 59/59/59 60/60/60 58/58/58
f 59/59/59 61/61/61 60/60/60
f 61/61/61 62/62/62 60/60/60
f 61/61/61 63/63/63 62/62/62
f 63/63/63 64/64/64 62/62/62
f 67/67/67 66/66/66 65/65/65
f 65/65/65 66/66/66 68/68/68
f 69/69/69 66/66/66 67/67/67
f 68/68/68 66/66/66 70/70/70
f 71/71/71 66/66/66 69/69/69
f 70/70/70 66/66/66 72/72/72
f 73/73/73 66/66/66 71/71/71
f 72/72/72 66/66/66 74/74/74
f 75/75/75 66/66/66 73/73/73
f 74/74/74 66/66/66 75/75/75
f 78/78/78 77/77/77 76/76/76
f 76/76/76 77/77/77 79/79/79
f 80/80/80 77/77/77 78/78/78
f 79/79/79 77/77/77 81/81/81
f 82/82/82 77/77/77 80/80/80
f 81/81/81 77/77/77 83/83/83
f 84/84/84 77/77/77 82/82/82
f 83/83/83 77/77/77 85/85/85
f 86/86/86 77/77/77 84/84/84
f 85/85/85 77/77/77 86/86/86
f 89/89/89 88/88/88 87/87/87
f 89/89/89 87/87/87 90/90/90
f 89/89/89 91/91/91 88/88/88
f 89/89/89 90/90/90 92/92/92
f 89/89/89 93/93/93 91/91/91
f 89/89/89 92/92/92 94/94/94
f 89/89/89 95/95/95 93/93/93
f 89/89/89 94/94/94 96/96/96
f 89/89/89 97/97/97 95/95/95
f 89/89/89 96/96/96 97/97/97
f 100/100/100 99/99/99 98/98/98
f 100/100/100 98/98/98 101/101/101
f 100/100/100 102/102/102 99/99/99
f 100/100/100 101/101/101 103/103/103
f 100/100/100 104/104/104 102/102/102
f 100/100/100 103/103/103 105/105/105
f 100/100/100 106/106/106 104/104/104
f 100/100/100 105/105/105 107/107/107
f 100/100/100 108/108/108 106/106/106
f 100/100/100 107/107/107 108/108/108
