g FinFrontLHBroken
v 26.24759 -7.754493 -20.8003
v 15.54039 -7.754493 -16.04698
v 24.65268 -7.754488 10.82775
v 31.68262 -7.754498 2.935197
v 28.87845 -7.754491 -17.37934
v 30.15558 -7.754493 -22.26136
v 36.47941 -7.75448 -2.087853
v 31.65814 -7.75449 -17.46808
v 34.85866 -7.754491 -15.21994
v 36.56139 -7.754492 -17.78994
v 37.78857 -7.754491 -15.11069
v 40.28637 -7.754489 -9.657328
v 41.70817 -7.754491 -12.88851
v 31.68262 -7.754498 2.935197
v 24.65268 -7.754488 10.82775
v 24.71068 -4.747304 10.79947
v 31.79803 -4.747313 3.452617
v 36.59426 -4.747298 -1.573232
v 36.47941 -7.75448 -2.087853
v 27.617 -4.747309 -15.07552
v 15.5984 -4.74731 -16.07526
v 31.95562 -4.747306 -16.65785
v 26.31806 -4.747308 -20.83177
v 15.54039 -7.754493 -16.04698
v 30.2233 -4.74731 -22.29124
v 26.24759 -7.754493 -20.8003
v 30.15558 -7.754493 -22.26136
v 40.3967 -4.747307 -9.164845
v 40.28637 -7.754489 -9.657328
v 41.70817 -7.754491 -12.88851
v 41.91491 -4.747311 -12.87435
v 37.96781 -4.747309 -14.6288
v 34.7115 -4.747306 -13.73914
v 36.4905 -4.74731 -17.95211
v 30.15558 -7.754493 -22.26136
v 28.87845 -7.754491 -17.37934
v 27.617 -4.747309 -15.07552
v 30.2233 -4.74731 -22.29124
v 28.87845 -7.754491 -17.37934
v 31.65814 -7.75449 -17.46808
v 31.95562 -4.747306 -16.65785
v 27.617 -4.747309 -15.07552
v 37.78857 -7.754491 -15.11069
v 41.70817 -7.754491 -12.88851
v 41.91491 -4.747311 -12.87435
v 37.96781 -4.747309 -14.6288
v 34.85866 -7.754491 -15.21994
v 34.7115 -4.747306 -13.73914
v 36.56139 -7.754492 -17.78994
v 36.4905 -4.74731 -17.95211
v 31.65814 -7.75449 -17.46808
v 31.95562 -4.747306 -16.65785
vt 0.1847555 0.7615143
vt 0.1845257 0.7577899
vt 0.1690892 0.7570695
vt 0.1716513 0.7601284
vt 0.1824952 0.7618672
vt 0.1847247 0.7628401
vt 0.1732153 0.7622243
vt 0.1819901 0.7626938
vt 0.1802174 0.7633595
vt 0.1811887 0.7641745
vt 0.1795852 0.7642075
vt 0.1763216 0.7642745
vt 0.1776836 0.7650872
vt 0.09055445 0.6577739
vt 0.06823733 0.6143689
vt 0.0805885 0.6081337
vt 0.1020985 0.6495733
vt 0.1172338 0.677545
vt 0.1073169 0.6871293
vt 0.1885177 0.6598675
vt 0.2124735 0.6095874
vt 0.1885361 0.6808015
vt 0.2153661 0.6630656
vt 0.226266 0.6088759
vt 0.2151642 0.6820176
vt 0.2290574 0.6627621
vt 0.228828 0.6828512
vt 0.1429181 0.7056565
vt 0.1350629 0.7174214
vt 0.1489308 0.7280289
vt 0.1568996 0.7171206
vt 0.1699481 0.7034416
vt 0.1716512 0.6881878
vt 0.1863883 0.7020944
vt 0.2599546 0.7291993
vt 0.2332214 0.7747902
vt 0.2366963 0.7159381
vt 0.2520709 0.7287183
vt 0.2332214 0.7747902
vt 0.2329299 0.7752671
vt 0.2367069 0.7280167
vt 0.2366963 0.7159381
vt 0.2315424 0.7761405
vt 0.2304452 0.776648
vt 0.2184532 0.7489722
vt 0.2259819 0.7410796
vt 0.2319071 0.7756513
vt 0.2269646 0.7322784
vt 0.2324675 0.7761214
vt 0.2354677 0.7403023
vt 0.2329299 0.7752671
vt 0.2367069 0.7280167
vn -0.05272885 -0.990892 -0.123906
vn -0.04894121 -0.992696 -0.1102698
vn 0.1213317 -0.9862278 0.1123983
vn 0.08271211 -0.9935458 0.07762269
vn 0.2780055 -0.9589805 -0.05540134
vn 0.2103831 -0.9733461 -0.0913039
vn 0.2094345 -0.9677967 0.139667
vn -0.02820393 -0.9896228 -0.1408941
vn 0.2803023 -0.9573852 -0.06960079
vn 0.2071755 -0.9522381 -0.2243234
vn 0.04997642 -0.969321 -0.2406636
vn 0.3048694 -0.9413477 0.1446345
vn 0.820183 -0.4266853 -0.3811031
vn 0.08271211 -0.9935458 0.07762269
vn 0.1213317 -0.9862278 0.1123983
vn 0.1223636 0.9859909 0.1133532
vn 0.09001372 0.9923644 0.08432294
vn 0.2419122 0.9554616 0.169031
vn 0.2094345 -0.9677967 0.139667
vn 0.01276103 0.9999 -0.00609553
vn -0.05001372 0.9923708 -0.1126883
vn -0.03126826 0.9870003 -0.1576476
vn -0.072469 0.9826628 -0.1706518
vn -0.04894121 -0.992696 -0.1102698
vn 0.808541 0.4786072 -0.3423399
vn -0.05272885 -0.990892 -0.123906
vn 0.2103831 -0.9733461 -0.0913039
vn 0.3476985 0.9226286 0.1669201
vn 0.3048694 -0.9413477 0.1446345
vn 0.820183 -0.4266853 -0.3811031
vn 0.8249384 0.4362361 -0.3594087
vn 0.06610561 0.9590948 -0.2752584
vn 0.1614515 0.9798816 -0.1173257
vn 0.1952631 0.9512554 -0.2387163
vn 0.2103831 -0.9733461 -0.0913039
vn 0.2780055 -0.9589805 -0.05540134
vn 0.01276103 0.9999 -0.00609553
vn 0.808541 0.4786072 -0.3423399
vn 0.2780055 -0.9589805 -0.05540134
vn -0.02820393 -0.9896228 -0.1408941
vn -0.03126826 0.9870003 -0.1576476
vn 0.01276103 0.9999 -0.00609553
vn 0.04997642 -0.969321 -0.2406636
vn 0.820183 -0.4266853 -0.3811031
vn 0.8249384 0.4362361 -0.3594087
vn 0.06610561 0.9590948 -0.2752584
vn 0.2803023 -0.9573852 -0.06960079
vn 0.1614515 0.9798816 -0.1173257
vn 0.2071755 -0.9522381 -0.2243234
vn 0.1952631 0.9512554 -0.2387163
vn -0.02820393 -0.9896228 -0.1408941
vn -0.03126826 0.9870003 -0.1576476
g FinFrontLHBroken_0
f 3/3/3 2/2/2 1/1/1
f 4/4/4 3/3/3 1/1/1
f 5/5/5 4/4/4 1/1/1
f 1/1/1 6/6/6 5/5/5
f 5/5/5 7/7/7 4/4/4
f 5/5/5 8/8/8 7/7/7
f 9/9/9 7/7/7 8/8/8
f 8/8/8 10/10/10 9/9/9
f 9/9/9 11/11/11 7/7/7
f 11/11/11 12/12/12 7/7/7
f 13/13/13 12/12/12 11/11/11
f 16/16/16 15/15/15 14/14/14
f 17/17/17 16/16/16 14/14/14
f 18/18/18 17/17/17 14/14/14
f 19/19/19 18/18/18 14/14/14
f 16/16/16 17/17/17 20/20/20
f 21/21/21 16/16/16 20/20/20
f 20/20/20 17/17/17 22/22/22
f 17/17/17 18/18/18 22/22/22
f 20/20/20 23/23/23 21/21/21
f 24/24/24 21/21/21 23/23/23
f 23/23/23 20/20/20 25/25/25
f 26/26/26 24/24/24 23/23/23
f 25/25/25 27/27/27 23/23/23
f 27/27/27 26/26/26 23/23/23
f 28/28/28 18/18/18 19/19/19
f 29/29/29 28/28/28 19/19/19
f 28/28/28 29/29/29 30/30/30
f 31/31/31 28/28/28 30/30/30
f 32/32/32 28/28/28 31/31/31
f 32/32/32 33/33/33 28/28/28
f 18/18/18 28/28/28 33/33/33
f 22/22/22 18/18/18 33/33/33
f 33/33/33 34/34/34 22/22/22
f 37/37/37 36/36/36 35/35/35
f 38/38/38 37/37/37 35/35/35
f 41/41/41 40/40/40 39/39/39
f 42/42/42 41/41/41 39/39/39
f 45/45/45 44/44/44 43/43/43
f 46/46/46 45/45/45 43/43/43
f 46/46/46 43/43/43 47/47/47
f 48/48/48 46/46/46 47/47/47
f 48/48/48 47/47/47 49/49/49
f 50/50/50 48/48/48 49/49/49
f 50/50/50 49/49/49 51/51/51
f 52/52/52 50/50/50 51/51/51
