g FinRight
v -6.229758 -1 -9.187275
v -8.275784 -1 -7.360204
v -7.688362 -0.9999998 -4.32515
v 8.275784 -1 -8.488596
v 3.574749 -1 9.187275
v -6.229758 -1 -9.187275
v 8.275784 -1 -8.488596
v 7.659624 1 -7.856592
v -5.765933 1 -8.503254
v -8.275784 -1 -7.360204
v -7.11594 1 -4.003129
v 3.308597 1 8.503252
v -7.659624 1 -6.812214
v -7.688362 -0.9999998 -4.32515
v 3.574749 -1 9.187275
vt 0.05804329 0.9766148
vt 0.0325229 0.9621923
vt 0.02522847 0.9306827
vt 0.2096854 0.9175596
vt 0.09393802 0.7458957
vt 0.05698669 0.998128
vt 0.224489 0.9366511
vt 0.2096854 0.9175596
vt 0.05804329 0.9766148
vt 0.01343646 0.9831213
vt 0.02522847 0.9306827
vt 0.09393802 0.7458957
vt 0.0325229 0.9621923
vt 0.003129624 0.9326916
vt 0.08015782 0.7316386
vn -0.18614 -0.352221 -0.9172199
vn -0.8771749 0.0003740762 -0.4801709
vn -0.773537 -0.514594 0.36991
vn 0.02360553 -0.8713558 -0.4900834
vn -0.5737921 -0.664841 0.4782771
vn -0.18614 -0.352221 -0.9172199
vn 0.02360553 -0.8713558 -0.4900834
vn 0.02818133 0.8104842 -0.5850823
vn -0.2943055 0.76158 -0.5773909
vn -0.8771749 0.0003740762 -0.4801709
vn -0.4444227 0.8702422 0.2125254
vn -0.6528019 0.5270361 0.5441348
vn -0.7997718 0.5915725 -0.1020152
vn -0.773537 -0.514594 0.36991
vn -0.5737921 -0.664841 0.4782771
g FinRight_0
f 3/3/3 2/2/2 1/1/1
f 3/3/3 1/1/1 4/4/4
f 3/3/3 4/4/4 5/5/5
f 8/8/8 7/7/7 6/6/6
f 8/8/8 6/6/6 9/9/9
f 9/9/9 6/6/6 10/10/10
f 11/11/11 8/8/8 9/9/9
f 11/11/11 12/12/12 8/8/8
f 9/9/9 10/10/10 13/13/13
f 11/11/11 9/9/9 13/13/13
f 13/13/13 10/10/10 14/14/14
f 13/13/13 14/14/14 11/11/11
f 12/12/12 11/11/11 14/14/14
f 12/12/12 14/14/14 15/15/15
