g Flask_Red_Cork
v -1.044565 2.37334 0.5189522
v -1.017988 2.4048 0.5763397
v -0.9804004 2.413521 0.6575142
v -1.055571 2.297391 0.4951816
v -0.9804004 2.297391 0.6575142
v -0.9162304 2.37334 0.7960761
v -0.9428076 2.4048 0.7386886
v -0.9052246 2.297391 0.8198468
v -0.9804004 1.697966 0.6575142
v -0.9052246 1.697967 0.8198468
v -0.9804004 1.697966 0.6575142
v -0.980708 1.697966 0.6568446
v -1.055571 1.697967 0.4951816
v 1.82019 -1.387944 1.322447
v 1.698701 -1.448849 1.437242
v 1.584204 -1.384022 1.558865
v 1.838955 -1.093262 1.336079
v 1.559502 -1.258614 1.597355
v 1.628872 -1.093262 1.54616
v 1.686216 -0.7376758 1.449726
v 1.968203 -1.093262 1.082416
v 1.91793 -1.253358 1.153673
v 2.007539 -0.7376758 0.9443316
v 1.816313 -0.7376758 1.319629
v 1.627495 -0.3908444 1.392141
v 1.96688 -0.3908444 0.8429727
v 1.74895 -0.3908444 1.270687
v 1.473198 -0.0613092 1.355777
v 1.854707 -0.0613092 0.7661602
v 1.63852 -0.0613092 1.190455
v 1.252202 0.2428159 1.316451
v 1.676978 0.2428159 0.709519
v 1.487744 0.2428159 1.080911
v 1.010508 0.5140423 1.234579
v 1.440376 0.5140423 0.66991
v 1.300337 0.5140423 0.9447504
v 0.7853271 0.7456915 1.080911
v 1.162495 0.7456915 0.6252058
v 1.080908 0.7456915 0.7853274
v 0.7191308 0.8872027 0.8245517
v 0.9835986 0.8520642 0.5986673
v 0.7389306 0.9320593 0.7025024
v 0.8348681 0.9320593 0.6065672
v -0.8623437 1.30449 -0.8623443
v -1.219541 2.450237 -5.115908E-14
v -1.219541 1.30449 -5.115908E-14
v -0.8623437 2.450237 -0.8623443
v -7.958079E-15 1.30449 -1.219539
v -1.023181E-14 2.450237 -1.219539
v 0.8623437 1.30449 -0.8623443
v 0.8623437 2.450237 -0.8623443
v 1.219541 1.30449 -5.115908E-14
v 1.219541 2.450237 -5.343281E-14
v 0.8623437 1.30449 0.8623443
v 0.8623437 2.450237 0.8623443
v -6.82121E-15 1.30449 1.219539
v -1.023181E-14 2.450237 1.219539
v -0.8623437 1.30449 0.8623443
v -0.8623437 2.450237 0.8623443
v -0.8623437 2.450237 0.8623443
v -0.8623437 1.30449 0.8623443
v -1.219541 1.30449 -5.115908E-14
v -1.219541 2.450237 -5.115908E-14
v 0.8623437 1.30449 -0.8623443
v -7.958079E-15 1.30449 -1.219539
v -0.8623437 1.30449 -0.8623443
v 1.219541 1.30449 -5.115908E-14
v -1.219541 1.30449 -5.115908E-14
v 0.8623437 1.30449 0.8623443
v -0.8623437 1.30449 0.8623443
v -6.82121E-15 1.30449 1.219539
v -0.8623437 2.450237 -0.8623443
v -1.023181E-14 2.450237 -1.219539
v 0.8623437 2.450237 -0.8623443
v -1.219541 2.450237 -5.115908E-14
v 1.219541 2.450237 -5.343281E-14
v 0.8623437 2.450237 0.8623443
v -0.8623437 2.450237 0.8623443
v -1.023181E-14 2.450237 1.219539
v -0.737666 3.151214 -0.7376675
v -2.273737E-15 3.151214 -1.043219
v 0.737666 3.151214 -0.7376675
v -1.043218 3.151214 -4.774847E-14
v 1.043218 3.151214 -5.229594E-14
v 0.737666 3.151214 0.7376675
v -0.737666 3.151214 0.7376675
v -7.958079E-15 3.151214 1.043219
v -1.072583 1.700877 -1.072581
v -6.82121E-15 1.700877 -1.516859
v 1.072583 1.700877 -1.072581
v -1.51686 1.700877 2.411914E-09
v 1.51686 1.700877 2.411914E-09
v -1.072583 1.700877 1.072581
v 1.072583 1.700877 1.072581
v -7.958079E-15 1.700877 1.516859
v 0.6263086 2.265478 -0.6263102
v 0.737666 3.151214 -0.7376675
v -2.273737E-15 3.151214 -1.043219
v -1.250555E-14 2.265478 -0.8857363
v 0.8857373 2.265478 -5.343281E-14
v -0.737666 3.151214 -0.7376675
v 1.043218 3.151214 -5.229594E-14
v -0.6263086 2.265478 -0.6263102
v 0.6263086 2.265478 0.6263102
v -1.043218 3.151214 -4.774847E-14
v 0.737666 3.151214 0.7376675
v -0.8857373 2.265478 -5.115908E-14
v -5.684342E-15 2.265478 0.8857363
v -0.737666 3.151214 0.7376675
v -7.958079E-15 3.151214 1.043219
v -0.6263086 2.265478 0.6263102
v 1.078218 0.6224426 -1.07822
v 1.072583 1.700877 -1.072581
v -6.82121E-15 1.700877 -1.516859
v -7.958079E-15 0.6224426 -1.524834
v 1.524834 0.6224426 2.411914E-09
v -1.072583 1.700877 -1.072581
v 1.51686 1.700877 2.411914E-09
v -1.078218 0.6224426 -1.07822
v 1.078218 0.6224426 1.07822
v -1.51686 1.700877 2.411914E-09
v 1.072583 1.700877 1.072581
v -1.524834 0.6224426 2.411915E-09
v -1.023181E-14 0.6224426 1.524834
v -1.072583 1.700877 1.072581
v -7.958079E-15 1.700877 1.516859
v -1.078218 0.6224426 1.07822
v 0.4297265 -2.816143 -1.322565
v -1.023181E-14 -3.151214 -4.888534E-14
v 1.125039 -2.816143 -0.8173901
v -0.4297265 -2.816143 -1.322565
v 1.390625 -2.816143 -6.775943E-09
v 0.6451611 -1.95805 -1.985599
v -0.6451611 -1.95805 -1.985599
v 1.689053 -1.95805 -1.227168
v -1.125039 -2.816143 -0.8173901
v -1.689053 -1.95805 -1.227168
v -0.6983154 -1.093262 -2.149197
v 0.6983154 -1.093262 -2.149197
v -1.828218 -1.093262 -1.328277
v 2.087783 -1.95805 -5.115908E-14
v 1.125039 -2.816143 0.8173898
v 1.828218 -1.093262 -1.328277
v -2.087783 -1.95805 1.244415E-07
v -2.2598 -1.093262 1.346945E-07
v -1.390625 -2.816143 7.611189E-08
v -0.6451611 -0.2284744 -1.985599
v -1.689053 -0.2284744 -1.227168
v 0.6451611 -0.2284744 -1.985599
v -2.087783 -0.2284744 1.244415E-07
v 2.2598 -1.093262 -5.002221E-14
v 1.689053 -0.2284744 -1.227168
v 1.689053 -1.95805 1.227168
v 0.4297265 -2.816143 1.322565
v -0.4937842 0.504657 -1.519712
v -1.292744 0.504657 -0.9392334
v -7.958079E-15 1.245094 -1.746391E-08
v -1.59792 0.504657 9.524334E-08
v 0.4937842 0.504657 -1.519712
v -1.292744 0.504657 0.9392337
v 1.292744 0.504657 -0.9392337
v -1.689053 -0.2284744 1.227168
v 2.087783 -0.2284744 -5.002221E-14
v 1.59792 0.504657 -5.002221E-14
v 1.828218 -1.093262 1.328277
v 1.689053 -0.2284744 1.227168
v 0.6451611 -1.95805 1.985599
v -0.4937842 0.504657 1.519712
v -1.828218 -1.093262 1.328277
v 1.292744 0.504657 0.9392334
v 0.6983154 -1.093262 2.149197
v -0.4297265 -2.816143 1.322565
v -0.6451611 -0.2284744 1.985599
v 0.4937842 0.504657 1.519712
v 0.6451611 -0.2284744 1.985599
v -0.6983154 -1.093262 2.149197
v -0.6451611 -1.95805 1.985599
v -1.125039 -2.816143 0.8173901
v -1.689053 -1.95805 1.227168
vt 0.9472922 0.5776439
vt 0.9472922 0.5778987
vt 0.9472922 0.5780629
vt 0.9472922 0.576758
vt 0.9472922 0.5778215
vt 0.9472922 0.5776439
vt 0.9472922 0.5778987
vt 0.9472922 0.5767581
vt 0.9472922 0.5765759
vt 0.9472922 0.5711976
vt 0.9472922 0.5658193
vt 0.9472922 0.5658414
vt 0.9472922 0.5711976
vt 0.9472922 0.5672069
vt 0.9472922 0.5672069
vt 0.9472922 0.5672069
vt 0.9472922 0.5672069
vt 0.9472922 0.5672069
vt 0.9472922 0.5672069
vt 0.9472922 0.5672069
vt 0.9472922 0.5672069
vt 0.9472922 0.5672069
vt 0.9472922 0.5672069
vt 0.9472922 0.5672069
vt 0.9472922 0.5672069
vt 0.9472922 0.5672069
vt 0.9472922 0.5672069
vt 0.9472922 0.5672069
vt 0.9472922 0.5672069
vt 0.9472922 0.5672069
vt 0.9472922 0.5672069
vt 0.9472922 0.5672069
vt 0.9472922 0.5672069
vt 0.9472922 0.5672069
vt 0.9472922 0.5672069
vt 0.9472922 0.5672069
vt 0.9472922 0.5672069
vt 0.9472922 0.5672069
vt 0.9472922 0.5672069
vt 0.9472922 0.5672069
vt 0.9472922 0.5672069
vt 0.9472922 0.5672069
vt 0.9472922 0.5672069
vt 0.8189113 0.411694
vt 0.8189113 0.411694
vt 0.8189113 0.411694
vt 0.8189113 0.411694
vt 0.8189113 0.411694
vt 0.8189113 0.411694
vt 0.8189113 0.411694
vt 0.8189113 0.411694
vt 0.8189113 0.411694
vt 0.8189113 0.411694
vt 0.8189113 0.411694
vt 0.8189113 0.411694
vt 0.8189113 0.411694
vt 0.8189113 0.411694
vt 0.8189113 0.411694
vt 0.8189113 0.411694
vt 0.8189113 0.4160154
vt 0.8189113 0.4160154
vt 0.8189113 0.4160154
vt 0.8189113 0.4160154
vt 0.6906943 0.562596
vt 0.6906943 0.562596
vt 0.6906943 0.562596
vt 0.6906944 0.562596
vt 0.6906943 0.562596
vt 0.6906943 0.562596
vt 0.6906943 0.562596
vt 0.6906943 0.562596
vt 0.8087365 0.6047838
vt 0.8087365 0.604784
vt 0.8087365 0.6047838
vt 0.8087365 0.604784
vt 0.8087365 0.604784
vt 0.8087365 0.604784
vt 0.8087365 0.604784
vt 0.8087365 0.604784
vt 0.8223873 0.8914714
vt 0.8223873 0.8914715
vt 0.8223873 0.8914714
vt 0.8223873 0.8914715
vt 0.8223873 0.8914715
vt 0.8223873 0.8914715
vt 0.8223873 0.8914715
vt 0.8223873 0.8914715
vt 0.8223873 0.9341204
vt 0.8223873 0.9341205
vt 0.8223873 0.9341204
vt 0.8223873 0.9341205
vt 0.8223873 0.9341205
vt 0.8223873 0.9341205
vt 0.8223873 0.9341205
vt 0.8223873 0.9341205
vt 0.8179007 0.7731028
vt 0.8179007 0.7731028
vt 0.8179007 0.7731028
vt 0.8179007 0.7731028
vt 0.8179007 0.7731028
vt 0.8179007 0.7731028
vt 0.8179007 0.7731028
vt 0.8179007 0.7731028
vt 0.8179007 0.7731028
vt 0.8179007 0.7731028
vt 0.8179007 0.7731028
vt 0.8179007 0.7731028
vt 0.8179007 0.7731028
vt 0.8179007 0.7731028
vt 0.8179007 0.7731028
vt 0.8179007 0.7731028
vt 0.8179007 0.7516196
vt 0.8179007 0.7516196
vt 0.8179007 0.7516196
vt 0.8179007 0.7516196
vt 0.8179007 0.7516196
vt 0.8179007 0.7516196
vt 0.8179007 0.7516196
vt 0.8179007 0.7516196
vt 0.8179007 0.7516196
vt 0.8179007 0.7516196
vt 0.8179007 0.7516196
vt 0.8179007 0.7516196
vt 0.8179007 0.7516196
vt 0.8179007 0.7516196
vt 0.8179007 0.7516196
vt 0.8179007 0.7516196
vt 0.281269 0.3439489
vt 0.281269 0.1124318
vt 0.281269 0.3439489
vt 0.281269 0.3439489
vt 0.281269 0.3439489
vt 0.281269 0.4597065
vt 0.281269 0.4597065
vt 0.281269 0.4597065
vt 0.281269 0.3439489
vt 0.281269 0.4597065
vt 0.281269 0.575466
vt 0.281269 0.575466
vt 0.281269 0.575466
vt 0.281269 0.4597065
vt 0.281269 0.3439489
vt 0.281269 0.575466
vt 0.281269 0.4597065
vt 0.281269 0.575466
vt 0.281269 0.3439489
vt 0.281269 0.6912245
vt 0.281269 0.6912245
vt 0.281269 0.6912245
vt 0.281269 0.6912245
vt 0.281269 0.575466
vt 0.281269 0.6912245
vt 0.281269 0.4597065
vt 0.281269 0.3439489
vt 0.281269 0.8069793
vt 0.281269 0.8069793
vt 0.281269 0.9227436
vt 0.281269 0.8069793
vt 0.281269 0.8069793
vt 0.281269 0.8069793
vt 0.281269 0.8069793
vt 0.281269 0.6912245
vt 0.281269 0.6912245
vt 0.281269 0.8069793
vt 0.281269 0.575466
vt 0.281269 0.6912245
vt 0.281269 0.4597065
vt 0.281269 0.8069793
vt 0.281269 0.575466
vt 0.281269 0.8069793
vt 0.281269 0.575466
vt 0.281269 0.3439489
vt 0.281269 0.6912245
vt 0.281269 0.8069793
vt 0.281269 0.6912245
vt 0.281269 0.575466
vt 0.281269 0.4597065
vt 0.281269 0.3439489
vt 0.281269 0.4597065
vn -0.9074298 1.45398E-06 0.4202038
vn -0.9074298 1.45398E-06 0.4202039
vn -0.9074236 5.815888E-06 0.4202171
vn -0.9074292 -2.07299E-07 0.4202049
vn -0.9074251 1.387006E-06 0.4202138
vn -0.9074174 1.017773E-05 0.4202305
vn -0.9074175 1.017773E-05 0.4202305
vn -0.9074213 1.297596E-06 0.4202222
vn -0.9074256 -1.184017E-06 0.4202128
vn -0.9074256 -1.776027E-06 0.4202128
vn -0.9074256 -1.776027E-06 0.4202129
vn -0.9074256 -1.776027E-06 0.4202129
vn -0.9074256 -1.776027E-06 0.4202128
vn 0.745264 -0.07808414 0.6621816
vn 0.7049804 -0.07749881 0.7049799
vn 0.7049804 -0.07749882 0.7049799
vn 0.803913 0.009945328 0.5946636
vn 0.7049803 -0.07749881 0.7049798
vn 0.7068368 -0.02757535 0.7068389
vn 0.7004665 0.1366919 0.7004728
vn 0.8899435 0.04879888 0.4534528
vn 0.8883238 -0.07750028 0.4526307
vn 0.8767451 0.178198 0.4467253
vn 0.8266038 0.1572586 0.5403664
vn 0.6709952 0.3154776 0.6709988
vn 0.8459761 0.3138873 0.4310445
vn 0.8047637 0.3090838 0.5067768
vn 0.6231426 0.4726345 0.6231452
vn 0.7973377 0.4463236 0.4062607
vn 0.7468207 0.4527863 0.4870762
vn 0.5634366 0.6042153 0.5634387
vn 0.7318023 0.5704671 0.3728708
vn 0.6655057 0.584147 0.4646229
vn 0.495057 0.7140288 0.4950568
vn 0.6498666 0.6841269 0.331125
vn 0.5702823 0.7000661 0.4297504
vn 0.4316228 0.7920893 0.4316206
vn 0.558688 0.778994 0.2846686
vn 0.4730164 0.7935005 0.3829001
vn 0.3727955 0.849735 0.3727923
vn 0.4697469 0.8497344 0.2393518
vn 0.3727955 0.849735 0.3727922
vn 0.3832405 0.8508028 0.3595294
vn -0.2113201 -0.9542996 -0.2113204
vn -0.2988527 0.9542993 0
vn -0.2988526 -0.9542993 0
vn -0.2113201 0.9542994 -0.2113205
vn 0 -0.9542996 -0.2988519
vn 0 0.9542994 -0.298852
vn 0.2113201 -0.9542996 -0.2113204
vn 0.2113201 0.9542994 -0.2113205
vn 0.2988526 -0.9542993 0
vn 0.2988527 0.9542993 0
vn 0.2113201 -0.9542996 0.2113204
vn 0.2113201 0.9542996 0.2113203
vn 0 -0.9542996 0.2988519
vn 0 0.9542996 0.2988519
vn -0.2113201 -0.9542996 0.2113204
vn -0.2113201 0.9542996 0.2113203
vn -0.2113201 0.9542996 0.2113203
vn -0.2113201 -0.9542996 0.2113204
vn -0.2988526 -0.9542993 0
vn -0.2988527 0.9542993 0
vn 0.2113201 -0.9542996 -0.2113204
vn 0 -0.9542996 -0.2988519
vn -0.2113201 -0.9542996 -0.2113204
vn 0.2988526 -0.9542993 0
vn -0.2988526 -0.9542993 0
vn 0.2113201 -0.9542996 0.2113204
vn -0.2113201 -0.9542996 0.2113204
vn 0 -0.9542996 0.2988519
vn -0.2113201 0.9542994 -0.2113205
vn 0 0.9542994 -0.298852
vn 0.2113201 0.9542994 -0.2113205
vn -0.2988527 0.9542993 0
vn 0.2988527 0.9542993 0
vn 0.2113201 0.9542996 0.2113203
vn -0.2113201 0.9542996 0.2113203
vn 0 0.9542996 0.2988519
vn -0.1793161 0.9673114 -0.1793161
vn 0 0.9673116 -0.2535909
vn 0.1793161 0.9673114 -0.1793161
vn -0.2535914 0.9673114 0
vn 0.2535914 0.9673114 0
vn 0.1793161 0.9673114 0.179316
vn -0.1793161 0.9673114 0.1793159
vn 0 0.9673116 0.2535908
vn -0.1634718 0.9729101 -0.1634717
vn 0 0.9729101 -0.2311838
vn 0.1634718 0.9729101 -0.1634716
vn -0.2311838 0.9729101 0
vn 0.2311838 0.9729101 0
vn -0.1634718 0.9729101 0.1634716
vn 0.1634718 0.9729101 0.1634716
vn 0 0.9729101 0.2311837
vn 0.6961884 -0.1750529 -0.6961883
vn 0.1793161 0.9673114 -0.1793161
vn 0 0.9673116 -0.2535909
vn 0 -0.1750536 -0.9845589
vn 0.9845591 -0.1750524 0
vn -0.1793161 0.9673114 -0.1793161
vn 0.2535914 0.9673114 0
vn -0.6961884 -0.1750529 -0.6961883
vn 0.6961884 -0.1750529 0.6961883
vn -0.2535914 0.9673114 0
vn 0.1793161 0.9673114 0.179316
vn -0.9845591 -0.1750524 0
vn 0 -0.1750536 0.9845589
vn -0.1793161 0.9673114 0.1793159
vn 0 0.9673116 0.2535908
vn -0.6961884 -0.1750529 0.6961883
vn 0.7070868 0.007392916 -0.7070881
vn 0.1634718 0.9729101 -0.1634716
vn 0 0.9729101 -0.2311838
vn 0 0.007393805 -0.9999727
vn 0.9999727 0.007392026 0
vn -0.1634718 0.9729101 -0.1634717
vn 0.2311838 0.9729101 0
vn -0.7070868 0.007392934 -0.7070881
vn 0.7070868 0.007392833 0.7070881
vn -0.2311838 0.9729101 0
vn 0.1634718 0.9729101 0.1634716
vn -0.9999727 0.007392053 0
vn 0 0.007393731 0.9999727
vn -0.1634718 0.9729101 0.1634716
vn 0 0.9729101 0.2311837
vn -0.7070868 0.007392916 0.7070881
vn 0.2029556 -0.7540836 -0.6246334
vn 0 -1 0
vn 0.5313445 -0.7540841 -0.3860442
vn -0.2029557 -0.7540836 -0.6246333
vn 0.6567776 -0.7540843 0
vn 0.2823402 -0.406454 -0.8689529
vn -0.2823403 -0.406454 -0.8689529
vn 0.7391754 -0.4064545 -0.5370422
vn -0.5313446 -0.7540841 -0.3860443
vn -0.7391754 -0.4064545 -0.5370422
vn -0.3090166 0 -0.9510567
vn 0.3090164 0 -0.9510567
vn -0.809017 0 -0.5877852
vn 0.9136709 -0.4064548 0
vn 0.5313444 -0.7540841 0.3860443
vn 0.8090169 0 -0.5877854
vn -0.9136709 -0.4064549 0
vn -1 0 0
vn -0.6567778 -0.7540842 0
vn -0.2890742 0.3534255 -0.8896778
vn -0.7568051 0.3534257 -0.5498512
vn 0.289074 0.3534255 -0.8896779
vn -0.9354625 0.3534257 0
vn 1 0 0
vn 0.7568051 0.3534256 -0.5498512
vn 0.7391754 -0.4064544 0.5370424
vn 0.2029557 -0.7540836 0.6246334
vn -0.2150343 0.7181719 -0.6618076
vn -0.5629669 0.7181721 -0.4090196
vn 0 1 0
vn -0.6958656 0.7181721 0
vn 0.2150341 0.718172 -0.6618077
vn -0.562967 0.7181721 0.4090196
vn 0.5629669 0.7181721 -0.4090196
vn -0.7568051 0.3534257 0.5498513
vn 0.9354625 0.3534257 0
vn 0.6958655 0.7181721 0
vn 0.8090168 0 0.5877854
vn 0.7568051 0.3534255 0.5498514
vn 0.2823404 -0.406454 0.8689528
vn -0.2150341 0.718172 0.6618077
vn -0.8090169 0 0.5877853
vn 0.562967 0.7181721 0.4090196
vn 0.3090166 0 0.9510567
vn -0.2029555 -0.7540836 0.6246334
vn -0.2890739 0.3534255 0.8896779
vn 0.2150342 0.7181719 0.6618077
vn 0.2890742 0.3534254 0.8896778
vn -0.3090163 0 0.9510568
vn -0.2823401 -0.406454 0.868953
vn -0.5313445 -0.7540841 0.3860443
vn -0.7391754 -0.4064545 0.5370424
g Flask_Red_Cork_0
f 3/3/3 2/2/2 1/1/1
f 3/3/3 1/1/1 4/4/4
f 4/4/4 5/5/5 3/3/3
f 6/6/6 3/3/3 5/5/5
f 6/6/6 7/7/7 3/3/3
f 5/5/5 8/8/8 6/6/6
f 8/8/8 5/5/5 9/9/9
f 9/9/9 5/5/5 4/4/4
f 11/11/11 10/10/10 8/8/8
f 12/12/12 11/11/11 4/4/4
f 4/4/4 13/13/13 12/12/12
f 16/16/16 15/15/15 14/14/14
f 14/14/14 17/17/17 16/16/16
f 17/17/17 18/18/18 16/16/16
f 17/17/17 19/19/19 18/18/18
f 19/19/19 17/17/17 20/20/20
f 21/21/21 17/17/17 14/14/14
f 22/22/22 21/21/21 14/14/14
f 21/21/21 23/23/23 17/17/17
f 17/17/17 24/24/24 20/20/20
f 23/23/23 24/24/24 17/17/17
f 20/20/20 24/24/24 25/25/25
f 23/23/23 26/26/26 24/24/24
f 24/24/24 27/27/27 25/25/25
f 26/26/26 27/27/27 24/24/24
f 25/25/25 27/27/27 28/28/28
f 26/26/26 29/29/29 27/27/27
f 27/27/27 30/30/30 28/28/28
f 29/29/29 30/30/30 27/27/27
f 28/28/28 30/30/30 31/31/31
f 29/29/29 32/32/32 30/30/30
f 30/30/30 33/33/33 31/31/31
f 32/32/32 33/33/33 30/30/30
f 31/31/31 33/33/33 34/34/34
f 32/32/32 35/35/35 33/33/33
f 33/33/33 36/36/36 34/34/34
f 35/35/35 36/36/36 33/33/33
f 34/34/34 36/36/36 37/37/37
f 35/35/35 38/38/38 36/36/36
f 36/36/36 39/39/39 37/37/37
f 38/38/38 39/39/39 36/36/36
f 40/40/40 37/37/37 39/39/39
f 38/38/38 41/41/41 39/39/39
f 42/42/42 40/40/40 39/39/39
f 41/41/41 43/43/43 39/39/39
f 39/39/39 43/43/43 42/42/42
f 46/46/46 45/45/45 44/44/44
f 45/45/45 47/47/47 44/44/44
f 44/44/44 47/47/47 48/48/48
f 47/47/47 49/49/49 48/48/48
f 48/48/48 49/49/49 50/50/50
f 49/49/49 51/51/51 50/50/50
f 50/50/50 51/51/51 52/52/52
f 51/51/51 53/53/53 52/52/52
f 52/52/52 53/53/53 54/54/54
f 53/53/53 55/55/55 54/54/54
f 54/54/54 55/55/55 56/56/56
f 55/55/55 57/57/57 56/56/56
f 56/56/56 57/57/57 58/58/58
f 57/57/57 59/59/59 58/58/58
f 62/62/62 61/61/61 60/60/60
f 63/63/63 62/62/62 60/60/60
f 66/66/66 65/65/65 64/64/64
f 64/64/64 67/67/67 66/66/66
f 67/67/67 68/68/68 66/66/66
f 67/67/67 69/69/69 68/68/68
f 69/69/69 70/70/70 68/68/68
f 69/69/69 71/71/71 70/70/70
f 74/74/74 73/73/73 72/72/72
f 72/72/72 75/75/75 74/74/74
f 75/75/75 76/76/76 74/74/74
f 75/75/75 77/77/77 76/76/76
f 75/75/75 78/78/78 77/77/77
f 78/78/78 79/79/79 77/77/77
f 82/82/82 81/81/81 80/80/80
f 80/80/80 83/83/83 82/82/82
f 83/83/83 84/84/84 82/82/82
f 83/83/83 85/85/85 84/84/84
f 83/83/83 86/86/86 85/85/85
f 86/86/86 87/87/87 85/85/85
f 90/90/90 89/89/89 88/88/88
f 88/88/88 91/91/91 90/90/90
f 91/91/91 92/92/92 90/90/90
f 91/91/91 93/93/93 92/92/92
f 93/93/93 94/94/94 92/92/92
f 93/93/93 95/95/95 94/94/94
f 98/98/98 97/97/97 96/96/96
f 99/99/99 98/98/98 96/96/96
f 96/96/96 97/97/97 100/100/100
f 101/101/101 98/98/98 99/99/99
f 97/97/97 102/102/102 100/100/100
f 103/103/103 101/101/101 99/99/99
f 100/100/100 102/102/102 104/104/104
f 105/105/105 101/101/101 103/103/103
f 102/102/102 106/106/106 104/104/104
f 107/107/107 105/105/105 103/103/103
f 104/104/104 106/106/106 108/108/108
f 109/109/109 105/105/105 107/107/107
f 106/106/106 110/110/110 108/108/108
f 111/111/111 109/109/109 107/107/107
f 108/108/108 110/110/110 111/111/111
f 110/110/110 109/109/109 111/111/111
f 114/114/114 113/113/113 112/112/112
f 115/115/115 114/114/114 112/112/112
f 112/112/112 113/113/113 116/116/116
f 117/117/117 114/114/114 115/115/115
f 113/113/113 118/118/118 116/116/116
f 119/119/119 117/117/117 115/115/115
f 116/116/116 118/118/118 120/120/120
f 121/121/121 117/117/117 119/119/119
f 118/118/118 122/122/122 120/120/120
f 123/123/123 121/121/121 119/119/119
f 120/120/120 122/122/122 124/124/124
f 125/125/125 121/121/121 123/123/123
f 122/122/122 126/126/126 124/124/124
f 127/127/127 125/125/125 123/123/123
f 124/124/124 126/126/126 127/127/127
f 126/126/126 125/125/125 127/127/127
f 130/130/130 129/129/129 128/128/128
f 128/128/128 129/129/129 131/131/131
f 132/132/132 129/129/129 130/130/130
f 128/128/128 133/133/133 130/130/130
f 131/131/131 134/134/134 128/128/128
f 134/134/134 133/133/133 128/128/128
f 130/130/130 135/135/135 132/132/132
f 133/133/133 135/135/135 130/130/130
f 131/131/131 129/129/129 136/136/136
f 137/137/137 134/134/134 131/131/131
f 136/136/136 137/137/137 131/131/131
f 134/134/134 138/138/138 133/133/133
f 133/133/133 139/139/139 135/135/135
f 138/138/138 139/139/139 133/133/133
f 137/137/137 140/140/140 134/134/134
f 140/140/140 138/138/138 134/134/134
f 135/135/135 141/141/141 132/132/132
f 142/142/142 129/129/129 132/132/132
f 132/132/132 141/141/141 142/142/142
f 139/139/139 143/143/143 135/135/135
f 135/135/135 143/143/143 141/141/141
f 144/144/144 137/137/137 136/136/136
f 145/145/145 140/140/140 137/137/137
f 144/144/144 145/145/145 137/137/137
f 136/136/136 129/129/129 146/146/146
f 146/146/146 144/144/144 136/136/136
f 138/138/138 147/147/147 139/139/139
f 140/140/140 148/148/148 138/138/138
f 148/148/148 147/147/147 138/138/138
f 139/139/139 149/149/149 143/143/143
f 147/147/147 149/149/149 139/139/139
f 145/145/145 150/150/150 140/140/140
f 150/150/150 148/148/148 140/140/140
f 143/143/143 151/151/151 141/141/141
f 149/149/149 152/152/152 143/143/143
f 143/143/143 152/152/152 151/151/151
f 141/141/141 151/151/151 153/153/153
f 141/141/141 153/153/153 142/142/142
f 142/142/142 153/153/153 154/154/154
f 154/154/154 129/129/129 142/142/142
f 147/147/147 155/155/155 149/149/149
f 148/148/148 156/156/156 147/147/147
f 156/156/156 155/155/155 147/147/147
f 157/157/157 155/155/155 156/156/156
f 157/157/157 156/156/156 158/158/158
f 158/158/158 156/156/156 148/148/148
f 150/150/150 158/158/158 148/148/148
f 157/157/157 159/159/159 155/155/155
f 155/155/155 159/159/159 149/149/149
f 149/149/149 159/159/159 152/152/152
f 160/160/160 158/158/158 150/150/150
f 157/157/157 158/158/158 160/160/160
f 159/159/159 161/161/161 152/152/152
f 157/157/157 161/161/161 159/159/159
f 162/162/162 160/160/160 150/150/150
f 162/162/162 150/150/150 145/145/145
f 152/152/152 161/161/161 163/163/163
f 152/152/152 163/163/163 151/151/151
f 157/157/157 164/164/164 161/161/161
f 161/161/161 164/164/164 163/163/163
f 151/151/151 163/163/163 165/165/165
f 151/151/151 165/165/165 153/153/153
f 163/163/163 164/164/164 166/166/166
f 163/163/163 166/166/166 165/165/165
f 153/153/153 165/165/165 167/167/167
f 153/153/153 167/167/167 154/154/154
f 168/168/168 160/160/160 162/162/162
f 157/157/157 160/160/160 168/168/168
f 169/169/169 162/162/162 145/145/145
f 169/169/169 145/145/145 144/144/144
f 157/157/157 170/170/170 164/164/164
f 164/164/164 170/170/170 166/166/166
f 165/165/165 166/166/166 171/171/171
f 165/165/165 171/171/171 167/167/167
f 154/154/154 167/167/167 172/172/172
f 172/172/172 129/129/129 154/154/154
f 173/173/173 168/168/168 162/162/162
f 173/173/173 162/162/162 169/169/169
f 157/157/157 168/168/168 174/174/174
f 157/157/157 174/174/174 170/170/170
f 174/174/174 168/168/168 173/173/173
f 166/166/166 170/170/170 175/175/175
f 170/170/170 174/174/174 175/175/175
f 175/175/175 174/174/174 173/173/173
f 166/166/166 175/175/175 171/171/171
f 175/175/175 173/173/173 176/176/176
f 176/176/176 173/173/173 169/169/169
f 171/171/171 175/175/175 176/176/176
f 167/167/167 171/171/171 177/177/177
f 167/167/167 177/177/177 172/172/172
f 171/171/171 176/176/176 177/177/177
f 178/178/178 129/129/129 172/172/172
f 172/172/172 177/177/177 178/178/178
f 146/146/146 129/129/129 178/178/178
f 176/176/176 169/169/169 179/179/179
f 177/177/177 176/176/176 179/179/179
f 177/177/177 179/179/179 178/178/178
f 178/178/178 179/179/179 146/146/146
f 179/179/179 169/169/169 144/144/144
f 179/179/179 144/144/144 146/146/146
