g Foot
v 3.699303 -0.2147318 2.47979
v 3.784903 -0.09460344 3.126138
v 4.064494 -0.09460355 2.851317
v 3.419712 -0.2147318 2.754611
v 3.478516 2.469722 2.135281
v 3.146463 1.800044 2.827911
v 3.77693 1.800044 2.2082
v 3.081285 2.466831 2.528226
v 3.495569 4.059782 2.952863
v 3.89311 4.061094 2.560223
v 4.195257 3.902682 3.8969
v 3.081285 2.466831 2.528226
v 3.495569 4.059782 2.952863
v 3.146463 1.800044 2.827911
v 4.345793 2.666344 3.873096
v 3.646777 1.591318 3.16099
v 3.784903 -0.09460344 3.126138
v 3.419712 -0.2147318 2.754611
v 3.646777 1.591318 3.16099
v 3.419712 -0.2147318 2.754611
v 3.699303 -0.2147318 2.47979
v 4.09901 1.591318 2.716471
v 4.345793 2.666344 3.873096
v 4.064494 -0.09460355 2.851317
v 3.784903 -0.09460344 3.126138
v 4.798026 2.666344 3.428576
v 4.825722 3.902682 3.277188
v 4.195257 3.902682 3.8969
v 4.09901 1.591318 2.716471
v 3.699303 -0.2147318 2.47979
v 4.064494 -0.09460355 2.851317
v 4.798026 2.666344 3.428576
v 3.77693 1.800044 2.2082
v 4.825722 3.902682 3.277188
v 3.478516 2.469722 2.135281
v 3.89311 4.061094 2.560223
v 4.09901 1.591318 2.716471
v 3.77693 1.800044 2.2082
v 3.146463 1.800044 2.827911
v 3.646777 1.591318 3.16099
v 3.495569 4.059782 2.952863
v 3.89311 4.061094 2.560223
v 4.825722 3.902682 3.277188
v 4.195257 3.902682 3.8969
vt 0.7498748 0.9229588
vt 0.7649146 0.9446375
vt 0.7490612 0.9440252
vt 0.7657282 0.9235711
vt 0.7464671 0.9524477
vt 0.7752689 0.979548
vt 0.7395205 0.979548
vt 0.7690585 0.9525644
vt 0.7682218 0.8881016
vt 0.7456294 0.8880484
vt 0.138821 0.2813287
vt 0.266191 0.1910662
vt 0.2233334 0.2912046
vt 0.2469966 0.1491498
vt 0.1327709 0.2036083
vt 0.2048497 0.1360285
vt 0.1999941 0.01989775
vt 0.2376237 0.01234605
vt 0.7702158 0.8939885
vt 0.7659457 0.9736079
vt 0.7500924 0.9736079
vt 0.7445735 0.8939885
vt 0.115055 0.2044573
vt 0.07987189 0.01799578
vt 0.108614 0.01799578
vt 0.06856519 0.2044573
vt 0.0595876 0.2833415
vt 0.1243997 0.2833415
vt 0.2048906 0.1359873
vt 0.2369894 0.01230479
vt 0.1993597 0.01985649
vt 0.1328121 0.203567
vt 0.2477348 0.1491085
vt 0.1395593 0.2812875
vt 0.2661499 0.1912067
vt 0.2232612 0.2912458
vt 0.7688923 0.9474716
vt 0.7449068 0.9516723
vt 0.7462873 0.9159238
vt 0.7698825 0.9218292
vt 0.96123 0.1845811
vt 0.8824157 0.1847596
vt 0.8595148 0.02041811
vt 0.9842128 0.02043509
vn -0.1373134 -0.6531441 -0.7446797
vn -0.1090495 -0.6956924 0.7100142
vn 0.8607515 -0.5063633 0.05199112
vn -0.8289222 -0.5460236 0.1214344
vn -0.325283 0.03847496 -0.9448338
vn -0.8159037 -0.5747596 0.06287065
vn 0.3633488 -0.4030207 -0.8399714
vn -0.9955695 0.06315251 -0.06966376
vn -0.570378 0.8058621 -0.1589193
vn 0.02486293 0.7157677 -0.6978958
vn -0.4433302 0.3559024 0.8226736
vn -0.9955695 0.06315251 -0.06966376
vn -0.570378 0.8058621 -0.1589193
vn -0.8159037 -0.5747596 0.06287065
vn 0.1650775 -0.1520392 0.9744914
vn -0.9639263 -0.2027461 0.1724529
vn -0.1090495 -0.6956924 0.7100142
vn -0.8289222 -0.5460236 0.1214344
vn -0.9639263 -0.2027461 0.1724529
vn -0.8289222 -0.5460236 0.1214344
vn -0.1373134 -0.6531441 -0.7446797
vn 0.3001876 -0.5066374 -0.8082116
vn 0.1650775 -0.1520392 0.9744914
vn 0.8607515 -0.5063633 0.05199112
vn -0.1090495 -0.6956924 0.7100142
vn 0.982862 -0.145391 -0.1133308
vn 0.836715 0.5289385 -0.1418878
vn -0.4433302 0.3559024 0.8226736
vn 0.3001876 -0.5066374 -0.8082116
vn -0.1373134 -0.6531441 -0.7446797
vn 0.8607515 -0.5063633 0.05199112
vn 0.982862 -0.145391 -0.1133308
vn 0.3633488 -0.4030207 -0.8399714
vn 0.836715 0.5289385 -0.1418878
vn -0.325283 0.03847496 -0.9448338
vn 0.02486293 0.7157677 -0.6978958
vn 0.3001876 -0.5066374 -0.8082116
vn 0.3633488 -0.4030207 -0.8399714
vn -0.8159037 -0.5747596 0.06287065
vn -0.9639263 -0.2027461 0.1724529
vn -0.570378 0.8058621 -0.1589193
vn 0.02486293 0.7157677 -0.6978958
vn 0.836715 0.5289385 -0.1418878
vn -0.4433302 0.3559024 0.8226736
g Foot_0
f 3/3/3 2/2/2 1/1/1
f 2/2/2 4/4/4 1/1/1
f 7/7/7 6/6/6 5/5/5
f 8/8/8 5/5/5 6/6/6
f 9/9/9 5/5/5 8/8/8
f 5/5/5 9/9/9 10/10/10
f 13/13/13 12/12/12 11/11/11
f 11/11/11 12/12/12 14/14/14
f 15/15/15 11/11/11 14/14/14
f 14/14/14 16/16/16 15/15/15
f 15/15/15 16/16/16 17/17/17
f 18/18/18 17/17/17 16/16/16
f 21/21/21 20/20/20 19/19/19
f 19/19/19 22/22/22 21/21/21
f 25/25/25 24/24/24 23/23/23
f 26/26/26 23/23/23 24/24/24
f 23/23/23 26/26/26 27/27/27
f 27/27/27 28/28/28 23/23/23
f 31/31/31 30/30/30 29/29/29
f 29/29/29 32/32/32 31/31/31
f 32/32/32 29/29/29 33/33/33
f 33/33/33 34/34/34 32/32/32
f 33/33/33 35/35/35 34/34/34
f 35/35/35 36/36/36 34/34/34
f 39/39/39 38/38/38 37/37/37
f 37/37/37 40/40/40 39/39/39
f 43/43/43 42/42/42 41/41/41
f 41/41/41 44/44/44 43/43/43
