g Foot
v -6.299615 -0.04043343 -2.039817
v -5.653779 -0.1605617 -2.129205
v -6.109053 -0.04043354 -2.382431
v -5.844341 -0.1605617 -1.786593
v -4.930653 1.800044 -1.50369
v -4.351283 2.469722 -2.007998
v -4.500943 1.800044 -2.276269
v -4.624426 2.466831 -1.520565
v -5.143954 4.059782 -1.806989
v -4.871187 4.061094 -2.29464
v -6.240081 3.902682 -2.230397
v -5.143954 4.059782 -1.806989
v -4.624426 2.466831 -1.520565
v -4.930653 1.800044 -1.50369
v -6.257171 2.666344 -2.381843
v -5.3848 1.591318 -1.897397
v -6.299615 -0.04043343 -2.039817
v -5.844341 -0.1605617 -1.786593
v -5.3848 1.591318 -1.897397
v -5.07657 1.591318 -2.451567
v -5.653779 -0.1605617 -2.129205
v -5.844341 -0.1605617 -1.786593
v -6.299615 -0.04043343 -2.039817
v -6.109053 -0.04043354 -2.382431
v -6.257171 2.666344 -2.381843
v -5.948939 2.666344 -2.936013
v -5.81037 3.902682 -3.002976
v -6.240081 3.902682 -2.230397
v -6.109053 -0.04043354 -2.382431
v -5.653779 -0.1605617 -2.129205
v -5.07657 1.591318 -2.451567
v -5.948939 2.666344 -2.936013
v -4.500943 1.800044 -2.276269
v -5.81037 3.902682 -3.002976
v -4.351283 2.469722 -2.007998
v -4.871187 4.061094 -2.29464
v -4.930653 1.800044 -1.50369
v -4.500943 1.800044 -2.276269
v -5.07657 1.591318 -2.451567
v -5.3848 1.591318 -1.897397
v -5.143954 4.059782 -1.806989
v -6.240081 3.902682 -2.230397
v -5.81037 3.902682 -3.002976
v -4.871187 4.061094 -2.29464
vt 0.7649146 0.9446375
vt 0.7498748 0.9229588
vt 0.7490612 0.9440252
vt 0.7657282 0.9235711
vt 0.7752689 0.979548
vt 0.7464671 0.9524477
vt 0.7395205 0.979548
vt 0.7690585 0.9525644
vt 0.7682218 0.8881016
vt 0.7456294 0.8880484
vt 0.46216 0.4487523
vt 0.4983378 0.4459213
vt 0.5058745 0.3941808
vt 0.4935789 0.3758431
vt 0.4516526 0.4121099
vt 0.4746942 0.3733338
vt 0.4607348 0.3182082
vt 0.4756149 0.3112309
vt 0.7702158 0.8939885
vt 0.7445735 0.8939885
vt 0.7500924 0.9736079
vt 0.7659457 0.9736079
vt 0.2792303 0.3183327
vt 0.2778158 0.2962573
vt 0.1148691 0.3338315
vt 0.1125812 0.2981246
vt 0.04247071 0.2956932
vt 0.04566028 0.3454727
vt 0.4604668 0.3182451
vt 0.4753467 0.3112679
vt 0.474707 0.3733104
vt 0.4516654 0.4120865
vt 0.4938819 0.3757574
vt 0.4624628 0.4486666
vt 0.5058718 0.3942518
vt 0.498312 0.4459474
vt 0.7462873 0.9159238
vt 0.7449068 0.9516723
vt 0.7688923 0.9474716
vt 0.7698825 0.9218292
vt 0.6746604 0.7052456
vt 0.6913696 0.5859058
vt 0.6007099 0.5858934
vt 0.6173598 0.7053753
vn -0.7148897 -0.5873426 0.3794225
vn 0.548114 -0.8353648 -0.04167308
vn -0.3607459 -0.4456338 -0.8193125
vn 0.1347065 -0.6188017 0.7739113
vn 0.1563944 -0.5747596 0.8032385
vn 0.9973171 0.03847485 0.06227563
vn 0.7130804 -0.4030209 -0.5736641
vn 0.3319401 0.06315254 0.941184
vn 0.3048954 0.805862 0.5075679
vn 0.6661471 0.7157677 -0.2095824
vn -0.6751336 0.3559024 0.6461641
vn 0.3048954 0.805862 0.5075679
vn 0.3319401 0.06315254 0.941184
vn 0.1563944 -0.5747596 0.8032385
vn -0.9937218 -0.01252995 0.1111752
vn 0.1504315 -0.3006653 0.9417912
vn -0.7148897 -0.5873426 0.3794225
vn 0.1347065 -0.6188017 0.7739113
vn 0.1504315 -0.3006653 0.9417912
vn 0.5907833 -0.657879 -0.467087
vn 0.548114 -0.8353648 -0.04167308
vn 0.1347065 -0.6188017 0.7739113
vn -0.7148897 -0.5873426 0.3794225
vn -0.3607459 -0.4456338 -0.8193125
vn -0.9937218 -0.01252995 0.1111752
vn -0.2002951 -0.1090634 -0.9736462
vn -0.08575843 0.5289384 -0.8443161
vn -0.6751336 0.3559024 0.6461641
vn -0.3607459 -0.4456338 -0.8193125
vn 0.548114 -0.8353648 -0.04167308
vn 0.5907833 -0.657879 -0.467087
vn -0.2002951 -0.1090634 -0.9736462
vn 0.7130804 -0.4030209 -0.5736641
vn -0.08575843 0.5289384 -0.8443161
vn 0.9973171 0.03847485 0.06227563
vn 0.6661471 0.7157677 -0.2095824
vn 0.1563944 -0.5747596 0.8032385
vn 0.7130804 -0.4030209 -0.5736641
vn 0.5907833 -0.657879 -0.467087
vn 0.1504315 -0.3006653 0.9417912
vn 0.3048954 0.805862 0.5075679
vn -0.6751336 0.3559024 0.6461641
vn -0.08575843 0.5289384 -0.8443161
vn 0.6661471 0.7157677 -0.2095824
g Foot_0
f 3/3/3 2/2/2 1/1/1
f 2/2/2 4/4/4 1/1/1
f 7/7/7 6/6/6 5/5/5
f 5/5/5 6/6/6 8/8/8
f 8/8/8 6/6/6 9/9/9
f 6/6/6 10/10/10 9/9/9
f 13/13/13 12/12/12 11/11/11
f 11/11/11 14/14/14 13/13/13
f 11/11/11 15/15/15 14/14/14
f 16/16/16 14/14/14 15/15/15
f 17/17/17 16/16/16 15/15/15
f 17/17/17 18/18/18 16/16/16
f 21/21/21 20/20/20 19/19/19
f 19/19/19 22/22/22 21/21/21
f 25/25/25 24/24/24 23/23/23
f 24/24/24 25/25/25 26/26/26
f 27/27/27 26/26/26 25/25/25
f 25/25/25 28/28/28 27/27/27
f 31/31/31 30/30/30 29/29/29
f 29/29/29 32/32/32 31/31/31
f 33/33/33 31/31/31 32/32/32
f 32/32/32 34/34/34 33/33/33
f 35/35/35 33/33/33 34/34/34
f 34/34/34 36/36/36 35/35/35
f 39/39/39 38/38/38 37/37/37
f 37/37/37 40/40/40 39/39/39
f 43/43/43 42/42/42 41/41/41
f 41/41/41 44/44/44 43/43/43
