g Foot_R
v -2.828198 0.03546886 1.395103
v -4.615288 0.03544332 1.439999
v -3.511657 0.03548982 1.62828
v -5.351802 0.03535525 0.8517207
v -2.721503 0.03551183 0.08049683
v -5.000719 0.03542813 -0.4204947
v -2.776033 0.03578128 -2.767026
v -4.204767 0.03585293 -2.998661
v -4.611139 0.5699542 1.401923
v -3.511657 0.03548982 1.62828
v -4.615288 0.03544332 1.439999
v -3.500274 0.5849492 1.548449
v -2.894866 0.7052311 1.296851
v -5.285067 0.7102816 0.8713081
v -2.798416 0.9468166 -0.0008083771
v -2.828198 0.03546886 1.395103
v -4.611139 0.5699542 1.401923
v -2.721503 0.03551183 0.08049683
v -4.615288 0.03544332 1.439999
v -5.351802 0.03535525 0.8517207
v -5.000719 0.03542813 -0.4204947
v -4.942935 0.947309 -0.3971486
v -4.204767 0.03585293 -2.998661
v -2.861816 0.4775067 -2.809419
v -2.776033 0.03578128 -2.767026
v -4.174214 0.467386 -2.966989
v -2.951158 1.394868 -2.050366
v -2.940007 1.374954 -0.9768893
v -4.261435 1.334756 -2.469046
v -4.267919 1.40574 -0.9287827
v -2.936124 4.649679 -2.498696
v -2.895076 4.707108 -1.023807
v -4.344652 5.095535 -1.046392
v -4.41385 5.048002 -2.52702
v -2.936124 4.649679 -2.498696
v -3.016509 3.599581 -0.889608
v -2.895076 4.707108 -1.023807
v -3.063725 2.983426 -2.374842
v -4.344652 5.095535 -1.046392
v -3.085018 2.520155 -0.9627376
v -2.951158 1.394868 -2.050366
v -2.940007 1.374954 -0.9768893
v -4.320552 2.558604 -0.9632259
v -4.267919 1.40574 -0.9287827
v -4.261435 1.334756 -2.469046
v -4.397862 3.670408 -0.9341337
v -4.41385 5.048002 -2.52702
v -4.398599 3.012875 -2.410947
v -2.951158 1.394868 -2.050366
v -2.936124 4.649679 -2.498696
v -3.063725 2.983426 -2.374842
vt 0.0623256 0.2754414
vt 0.06002103 0.2860464
vt 0.06028573 0.2795633
vt 0.06232554 0.2902313
vt 0.06939034 0.275583
vt 0.0693903 0.2888262
vt 0.08587474 0.2759134
vt 0.08587474 0.2855477
vt 0.04439683 0.2403201
vt 0.08578043 0.2627576
vt 0.04209259 0.2627576
vt 0.08295806 0.2392549
vt 0.1039735 0.2289052
vt 0.02100296 0.2279467
vt 0.1031806 0.1895965
vt 0.1125659 0.2627576
vt 0.04439683 0.2403201
vt 0.1131276 0.2096356
vt 0.04209259 0.2627576
vt 0.01258064 0.2627576
vt 0.01250586 0.2088814
vt 0.02251894 0.1882249
vt 0.01233138 0.08317024
vt 0.1013306 0.09787634
vt 0.1144382 0.08568413
vt 0.02605623 0.09554072
vt 0.07464896 0.1169423
vt 0.07604485 0.1339951
vt 0.06002894 0.1169423
vt 0.05957756 0.1339951
vt 0.2672461 0.963677
vt 0.08172642 0.9672423
vt 0.1430909 0.9883204
vt 0.208924 0.9888324
vt 0.01652938 0.9595643
vt 0.09000815 0.9079859
vt 0.08172642 0.9672423
vt 0.03354903 0.8703458
vt 0.1430909 0.9883204
vt 0.09347435 0.8513862
vt 0.04028254 0.7850302
vt 0.09185156 0.7859991
vt 0.1435125 0.8563966
vt 0.1470241 0.7915105
vt 0.2030762 0.789306
vt 0.1432047 0.9132648
vt 0.208924 0.9888324
vt 0.2034101 0.8795453
vt 0.2565175 0.7896025
vt 0.2672461 0.963677
vt 0.2571672 0.874427
vn 0.3277173 -0.9340482 0.1419689
vn -0.2494583 -0.9150161 0.3170428
vn 0.0307759 -0.7502797 0.6604038
vn -0.3818285 -0.9234184 0.03879927
vn 0.3567497 -0.9341887 0.004606755
vn -0.3217351 -0.9420773 -0.09474646
vn 0.3571483 -0.9288558 -0.09834681
vn -0.2728678 -0.9437226 -0.1868974
vn -0.1493221 0.1090374 0.9827582
vn 0.0307759 -0.7502797 0.6604038
vn -0.1493221 0.1090374 0.9827582
vn 0.005460586 0.659575 0.7516189
vn 0.3451263 0.8921267 0.2915436
vn -0.429718 0.8817368 0.1946344
vn 0.5307541 0.8207844 0.2112179
vn 0.3277173 -0.9340482 0.1419689
vn -0.2979942 0.7620882 0.5748226
vn 0.3567497 -0.9341887 0.004606755
vn -0.2494583 -0.9150161 0.3170428
vn -0.3818285 -0.9234184 0.03879927
vn -0.3217351 -0.9420773 -0.09474646
vn -0.5951626 0.8032503 0.02388401
vn -0.2728678 -0.9437226 -0.1868974
vn 0.7921689 0.3192101 -0.5201666
vn 0.3571483 -0.9288558 -0.09834681
vn -0.6317005 0.3538448 -0.689745
vn 0.7947043 0.2047672 -0.5714154
vn 0.8031811 0.4107997 0.4314438
vn -0.6166368 0.2732716 -0.7382966
vn -0.7545055 0.5033191 0.4211785
vn 0.260014 0.9646038 -0.04395619
vn 0.2600139 0.9646038 -0.04395618
vn 0.260014 0.9646038 -0.04395619
vn 0.260014 0.9646038 -0.04395619
vn 0.575511 -0.1037763 -0.8111827
vn 0.6721348 -0.03186234 0.739743
vn 0.7428172 -0.001622651 0.6694925
vn 0.5806399 -0.06483689 -0.8115746
vn -0.8563643 0.05898633 0.5129921
vn 0.6451781 0.02417731 0.7636496
vn 0.7947043 0.2047672 -0.5714154
vn 0.8031811 0.4107997 0.4314438
vn -0.7340748 -0.06258908 0.6761781
vn -0.7545055 0.5033191 0.4211785
vn -0.6166368 0.2732716 -0.7382966
vn -0.7593613 0.02315775 0.6502569
vn -0.7674075 -0.0332329 -0.6402977
vn -0.6286203 -0.0724706 -0.7743285
vn 0.7947043 0.2047672 -0.5714154
vn 0.575511 -0.1037763 -0.8111827
vn 0.5806399 -0.06483689 -0.8115746
g Foot_R_0
f 3/3/3 2/2/2 1/1/1
f 2/2/2 4/4/4 1/1/1
f 1/1/1 4/4/4 5/5/5
f 4/4/4 6/6/6 5/5/5
f 7/7/7 5/5/5 6/6/6
f 8/8/8 7/7/7 6/6/6
f 11/11/11 10/10/10 9/9/9
f 10/10/10 12/12/12 9/9/9
f 13/13/13 12/12/12 10/10/10
f 12/12/12 13/13/13 14/14/14
f 14/14/14 13/13/13 15/15/15
f 16/16/16 13/13/13 10/10/10
f 17/17/17 12/12/12 14/14/14
f 16/16/16 18/18/18 13/13/13
f 18/18/18 15/15/15 13/13/13
f 19/19/19 17/17/17 14/14/14
f 20/20/20 19/19/19 14/14/14
f 20/20/20 14/14/14 21/21/21
f 14/14/14 22/22/22 21/21/21
f 22/22/22 14/14/14 15/15/15
f 23/23/23 21/21/21 22/22/22
f 24/24/24 15/15/15 18/18/18
f 25/25/25 24/24/24 18/18/18
f 25/25/25 23/23/23 24/24/24
f 26/26/26 23/23/23 22/22/22
f 23/23/23 26/26/26 24/24/24
f 24/24/24 27/27/27 15/15/15
f 27/27/27 24/24/24 26/26/26
f 27/27/27 28/28/28 15/15/15
f 29/29/29 27/27/27 26/26/26
f 15/15/15 28/28/28 30/30/30
f 22/22/22 15/15/15 30/30/30
f 26/26/26 22/22/22 30/30/30
f 29/29/29 26/26/26 30/30/30
f 33/33/33 32/32/32 31/31/31
f 34/34/34 33/33/33 31/31/31
f 37/37/37 36/36/36 35/35/35
f 36/36/36 38/38/38 35/35/35
f 36/36/36 37/37/37 39/39/39
f 40/40/40 38/38/38 36/36/36
f 38/38/38 40/40/40 41/41/41
f 40/40/40 42/42/42 41/41/41
f 42/42/42 40/40/40 43/43/43
f 40/40/40 36/36/36 43/43/43
f 44/44/44 42/42/42 43/43/43
f 44/44/44 43/43/43 45/45/45
f 46/46/46 36/36/36 39/39/39
f 36/36/36 46/46/46 43/43/43
f 39/39/39 47/47/47 46/46/46
f 43/43/43 48/48/48 45/45/45
f 43/43/43 46/46/46 48/48/48
f 47/47/47 48/48/48 46/46/46
f 45/45/45 48/48/48 49/49/49
f 48/48/48 47/47/47 50/50/50
f 48/48/48 51/51/51 49/49/49
f 51/51/51 48/48/48 50/50/50
