g Foot
v -3.419713 -0.1933903 2.754611
v -3.699303 -0.1933903 2.47979
v -3.784904 -0.07326201 3.126138
v -4.064495 -0.07326212 2.851317
v -3.776931 1.800044 2.2082
v -3.146464 1.800044 2.827911
v -3.478517 2.469722 2.135281
v -3.081286 2.466831 2.528226
v -3.495569 4.059782 2.952863
v -3.893111 4.061094 2.560223
v -4.195258 3.902682 3.8969
v -3.495569 4.059782 2.952863
v -3.081286 2.466831 2.528226
v -3.146464 1.800044 2.827911
v -4.345794 2.666344 3.873096
v -3.646778 1.591318 3.16099
v -3.784904 -0.07326201 3.126138
v -3.419713 -0.1933903 2.754611
v -3.699303 -0.1933903 2.47979
v -3.419713 -0.1933903 2.754611
v -3.646778 1.591318 3.16099
v -4.09901 1.591318 2.716471
v -4.345794 2.666344 3.873096
v -3.784904 -0.07326201 3.126138
v -4.064495 -0.07326212 2.851317
v -4.798027 2.666344 3.428576
v -4.825723 3.902682 3.277188
v -4.195258 3.902682 3.8969
v -4.09901 1.591318 2.716471
v -4.064495 -0.07326212 2.851317
v -3.699303 -0.1933903 2.47979
v -4.798027 2.666344 3.428576
v -3.776931 1.800044 2.2082
v -4.825723 3.902682 3.277188
v -3.478517 2.469722 2.135281
v -3.893111 4.061094 2.560223
v -3.146464 1.800044 2.827911
v -3.776931 1.800044 2.2082
v -4.09901 1.591318 2.716471
v -3.646778 1.591318 3.16099
v -3.893111 4.061094 2.560223
v -3.495569 4.059782 2.952863
v -4.825723 3.902682 3.277188
v -4.195258 3.902682 3.8969
vt 0.7657282 0.9235711
vt 0.7498748 0.9229588
vt 0.7649146 0.9446375
vt 0.7490612 0.9440252
vt 0.7395205 0.979548
vt 0.7752689 0.979548
vt 0.7464671 0.9524477
vt 0.7690585 0.9525644
vt 0.7682218 0.8881016
vt 0.7456294 0.8880484
vt 0.138821 0.2813287
vt 0.2233334 0.2912046
vt 0.266191 0.1910662
vt 0.2469966 0.1491498
vt 0.1327709 0.2036083
vt 0.2048497 0.1360285
vt 0.1999941 0.01989775
vt 0.2376237 0.01234605
vt 0.7500924 0.9736079
vt 0.7659457 0.9736079
vt 0.7702158 0.8939885
vt 0.7445735 0.8939885
vt 0.115055 0.2044573
vt 0.108614 0.01799578
vt 0.07987189 0.01799578
vt 0.06856519 0.2044573
vt 0.0595876 0.2833415
vt 0.1243997 0.2833415
vt 0.2048906 0.1359873
vt 0.1993597 0.01985649
vt 0.2369894 0.01230479
vt 0.1328121 0.203567
vt 0.2477348 0.1491085
vt 0.1395593 0.2812875
vt 0.2661499 0.1912067
vt 0.2232612 0.2912458
vt 0.7462873 0.9159238
vt 0.7449068 0.9516723
vt 0.7688923 0.9474716
vt 0.7698825 0.9218292
vt 0.8824157 0.1847596
vt 0.96123 0.1845811
vt 0.8595148 0.02041811
vt 0.9842128 0.02043509
vn 0.8292937 -0.5453436 0.1219525
vn 0.1370996 -0.6523134 -0.7454469
vn 0.1088463 -0.6962752 0.709474
vn -0.8599453 -0.5077403 0.05190158
vn -0.3633488 -0.4030208 -0.8399714
vn 0.8159037 -0.5747596 0.06287065
vn 0.325283 0.03847495 -0.9448338
vn 0.9955695 0.06315251 -0.06966376
vn 0.5703779 0.805862 -0.1589193
vn -0.02486293 0.7157677 -0.6978958
vn 0.4433302 0.3559024 0.8226736
vn 0.5703779 0.805862 -0.1589193
vn 0.9955695 0.06315251 -0.06966376
vn 0.8159037 -0.5747596 0.06287065
vn -0.1650075 -0.1530417 0.9743463
vn 0.9640118 -0.2018696 0.1730024
vn 0.1088463 -0.6962752 0.709474
vn 0.8292937 -0.5453436 0.1219525
vn 0.1370996 -0.6523134 -0.7454469
vn 0.8292937 -0.5453436 0.1219525
vn 0.9640118 -0.2018696 0.1730024
vn -0.3005803 -0.5065435 -0.8081244
vn -0.1650075 -0.1530417 0.9743463
vn 0.1088463 -0.6962752 0.709474
vn -0.8599453 -0.5077403 0.05190158
vn -0.9827524 -0.1461759 -0.1132715
vn -0.836715 0.5289385 -0.1418878
vn 0.4433302 0.3559024 0.8226736
vn -0.3005803 -0.5065435 -0.8081244
vn -0.8599453 -0.5077403 0.05190158
vn 0.1370996 -0.6523134 -0.7454469
vn -0.9827524 -0.1461759 -0.1132715
vn -0.3633488 -0.4030208 -0.8399714
vn -0.836715 0.5289385 -0.1418878
vn 0.325283 0.03847495 -0.9448338
vn -0.02486293 0.7157677 -0.6978958
vn 0.8159037 -0.5747596 0.06287065
vn -0.3633488 -0.4030208 -0.8399714
vn -0.3005803 -0.5065435 -0.8081244
vn 0.9640118 -0.2018696 0.1730024
vn -0.02486293 0.7157677 -0.6978958
vn 0.5703779 0.805862 -0.1589193
vn -0.836715 0.5289385 -0.1418878
vn 0.4433302 0.3559024 0.8226736
g Foot_0
f 3/3/3 2/2/2 1/1/1
f 3/3/3 4/4/4 2/2/2
f 7/7/7 6/6/6 5/5/5
f 7/7/7 8/8/8 6/6/6
f 9/9/9 8/8/8 7/7/7
f 7/7/7 10/10/10 9/9/9
f 13/13/13 12/12/12 11/11/11
f 11/11/11 14/14/14 13/13/13
f 11/11/11 15/15/15 14/14/14
f 16/16/16 14/14/14 15/15/15
f 17/17/17 16/16/16 15/15/15
f 17/17/17 18/18/18 16/16/16
f 21/21/21 20/20/20 19/19/19
f 19/19/19 22/22/22 21/21/21
f 25/25/25 24/24/24 23/23/23
f 25/25/25 23/23/23 26/26/26
f 27/27/27 26/26/26 23/23/23
f 23/23/23 28/28/28 27/27/27
f 31/31/31 30/30/30 29/29/29
f 32/32/32 29/29/29 30/30/30
f 33/33/33 29/29/29 32/32/32
f 32/32/32 34/34/34 33/33/33
f 35/35/35 33/33/33 34/34/34
f 34/34/34 36/36/36 35/35/35
f 39/39/39 38/38/38 37/37/37
f 37/37/37 40/40/40 39/39/39
f 43/43/43 42/42/42 41/41/41
f 44/44/44 42/42/42 43/43/43
