g Foot_R
v -4.615288 0.03544332 1.439999
v -3.511657 0.03548982 1.62828
v -2.828198 0.03546886 1.395103
v -5.351802 0.03535525 0.8517207
v -2.721503 0.03551183 0.08049683
v -5.000719 0.03542813 -0.4204947
v -2.776033 0.03578128 -2.767026
v -4.204767 0.03585293 -2.998661
v -4.261435 1.334756 -2.469046
v -2.951158 1.394868 -2.050366
v -3.063725 2.983426 -2.374842
v -4.398599 3.012875 -2.410947
v -2.936124 4.649679 -2.498696
v -4.41385 5.048002 -2.52702
v -4.320552 2.558604 -0.9632259
v -4.267919 1.40574 -0.9287827
v -4.397862 3.670408 -0.9341337
v -4.344652 5.095535 -1.046392
v -2.895076 4.707108 -1.023807
v -3.016509 3.599581 -0.889608
v -2.936124 4.649679 -2.498696
v -3.063725 2.983426 -2.374842
v -3.085018 2.520155 -0.9627376
v -2.940007 1.374954 -0.9768893
v -2.951158 1.394868 -2.050366
v -4.344652 5.095535 -1.046392
v -2.936124 4.649679 -2.498696
v -2.895076 4.707108 -1.023807
v -4.41385 5.048002 -2.52702
v -4.174214 0.467386 -2.966989
v -4.261435 1.334756 -2.469046
v -4.267919 1.40574 -0.9287827
v -2.951158 1.394868 -2.050366
v -2.861816 0.4775067 -2.809419
v -2.940007 1.374954 -0.9768893
v -2.798416 0.9468166 -0.0008083771
v -4.942935 0.947309 -0.3971486
v -4.204767 0.03585293 -2.998661
v -2.776033 0.03578128 -2.767026
v -5.000719 0.03542813 -0.4204947
v -2.721503 0.03551183 0.08049683
v -5.285067 0.7102816 0.8713081
v -5.351802 0.03535525 0.8517207
v -2.894866 0.7052311 1.296851
v -2.828198 0.03546886 1.395103
v -4.611139 0.5699542 1.401923
v -4.615288 0.03544332 1.439999
v -3.511657 0.03548982 1.62828
v -3.500274 0.5849492 1.548449
vt 0.06002103 0.2860464
vt 0.06028573 0.2795633
vt 0.0623256 0.2754414
vt 0.06232554 0.2902313
vt 0.06939034 0.275583
vt 0.0693903 0.2888262
vt 0.08587474 0.2759134
vt 0.08587474 0.2855477
vt 0.2030762 0.789306
vt 0.2565175 0.7896025
vt 0.2571672 0.874427
vt 0.2034101 0.8795453
vt 0.2672461 0.963677
vt 0.208924 0.9888324
vt 0.1435125 0.8563966
vt 0.1470241 0.7915105
vt 0.1432047 0.9132648
vt 0.1430909 0.9883204
vt 0.08172642 0.9672423
vt 0.09000815 0.9079859
vt 0.01652938 0.9595643
vt 0.03354903 0.8703458
vt 0.09347435 0.8513862
vt 0.09185156 0.7859991
vt 0.04028254 0.7850302
vt 0.1430909 0.9883204
vt 0.2672461 0.963677
vt 0.08172642 0.9672423
vt 0.208924 0.9888324
vt 0.02605623 0.09554072
vt 0.06002894 0.1169423
vt 0.05957756 0.1339951
vt 0.07464896 0.1169423
vt 0.1013306 0.09787634
vt 0.07604485 0.1339951
vt 0.1031806 0.1895965
vt 0.02251894 0.1882249
vt 0.01233138 0.08317024
vt 0.1144382 0.08568413
vt 0.01250586 0.2088814
vt 0.1131276 0.2096356
vt 0.02100296 0.2279467
vt 0.01258064 0.2627576
vt 0.1039735 0.2289052
vt 0.1125659 0.2627576
vt 0.04439683 0.2403201
vt 0.04209259 0.2627576
vt 0.08578043 0.2627576
vt 0.08295806 0.2392549
vn -0.2941484 -0.6950418 0.6560439
vn 0.007103448 -0.2197267 0.9755356
vn 0.4564127 -0.7120608 0.5335325
vn -0.579333 -0.7388307 0.3442419
vn 0.7385032 -0.6731967 0.03767215
vn -0.797971 -0.557031 -0.2301281
vn 0.7159936 -0.6015297 -0.3542811
vn -0.265523 -0.3588277 -0.8948409
vn -0.6604109 0.03837715 -0.7499232
vn 0.789409 0.2792811 -0.5466586
vn 0.7551353 -0.0606312 -0.6527591
vn -0.7064307 -0.06156915 -0.7050992
vn 0.6918962 0.4381269 -0.5738681
vn -0.7850763 0.4261949 -0.4494587
vn -0.7027552 -0.06133261 0.7087831
vn -0.617394 0.5106712 0.5983641
vn -0.7044636 0.03148337 0.7090414
vn -0.2047374 0.8872508 0.4133626
vn 0.4902272 0.4193902 0.764061
vn 0.702095 -0.05372665 0.7100536
vn 0.6918962 0.4381269 -0.5738681
vn 0.7551353 -0.0606312 -0.6527591
vn 0.7064834 0.02253988 0.7073706
vn 0.8500083 0.3741379 0.3708189
vn 0.789409 0.2792811 -0.5466586
vn -0.2047374 0.8872508 0.4133626
vn 0.6918962 0.4381269 -0.5738681
vn 0.4902272 0.4193902 0.764061
vn -0.7850763 0.4261949 -0.4494587
vn -0.6193052 0.3749348 -0.6898442
vn -0.6604109 0.03837715 -0.7499232
vn -0.617394 0.5106712 0.5983641
vn 0.789409 0.2792811 -0.5466586
vn 0.734056 0.2494671 -0.6316074
vn 0.8500083 0.3741379 0.3708189
vn 0.6512425 0.7264428 0.2194632
vn -0.7292721 0.6833791 -0.0339888
vn -0.265523 -0.3588277 -0.8948409
vn 0.7159936 -0.6015297 -0.3542811
vn -0.797971 -0.557031 -0.2301281
vn 0.7385032 -0.6731967 0.03767215
vn -0.6312811 0.7417907 0.2263416
vn -0.579333 -0.7388307 0.3442419
vn 0.5026737 0.7447785 0.4388897
vn 0.4564127 -0.7120608 0.5335325
vn -0.3291443 0.4414001 0.8347635
vn -0.2941484 -0.6950418 0.6560439
vn 0.007103448 -0.2197267 0.9755356
vn 0.1385584 0.3988713 0.9064785
g Foot_R_0
f 3/3/3 2/2/2 1/1/1
f 3/3/3 1/1/1 4/4/4
f 5/5/5 3/3/3 4/4/4
f 4/4/4 6/6/6 5/5/5
f 6/6/6 7/7/7 5/5/5
f 8/8/8 7/7/7 6/6/6
f 11/11/11 10/10/10 9/9/9
f 9/9/9 12/12/12 11/11/11
f 13/13/13 11/11/11 12/12/12
f 12/12/12 14/14/14 13/13/13
f 15/15/15 12/12/12 9/9/9
f 9/9/9 16/16/16 15/15/15
f 14/14/14 12/12/12 17/17/17
f 15/15/15 17/17/17 12/12/12
f 17/17/17 18/18/18 14/14/14
f 19/19/19 18/18/18 17/17/17
f 17/17/17 20/20/20 19/19/19
f 17/17/17 15/15/15 20/20/20
f 21/21/21 19/19/19 20/20/20
f 20/20/20 22/22/22 21/21/21
f 23/23/23 15/15/15 16/16/16
f 15/15/15 23/23/23 20/20/20
f 23/23/23 22/22/22 20/20/20
f 16/16/16 24/24/24 23/23/23
f 22/22/22 23/23/23 25/25/25
f 24/24/24 25/25/25 23/23/23
f 28/28/28 27/27/27 26/26/26
f 27/27/27 29/29/29 26/26/26
f 32/32/32 31/31/31 30/30/30
f 31/31/31 33/33/33 30/30/30
f 30/30/30 33/33/33 34/34/34
f 34/34/34 33/33/33 35/35/35
f 36/36/36 35/35/35 32/32/32
f 35/35/35 36/36/36 34/34/34
f 37/37/37 32/32/32 30/30/30
f 36/36/36 32/32/32 37/37/37
f 38/38/38 30/30/30 34/34/34
f 34/34/34 39/39/39 38/38/38
f 39/39/39 34/34/34 36/36/36
f 30/30/30 38/38/38 40/40/40
f 40/40/40 37/37/37 30/30/30
f 36/36/36 41/41/41 39/39/39
f 42/42/42 37/37/37 40/40/40
f 36/36/36 37/37/37 42/42/42
f 40/40/40 43/43/43 42/42/42
f 41/41/41 36/36/36 44/44/44
f 44/44/44 36/36/36 42/42/42
f 41/41/41 44/44/44 45/45/45
f 46/46/46 42/42/42 43/43/43
f 44/44/44 42/42/42 46/46/46
f 43/43/43 47/47/47 46/46/46
f 48/48/48 46/46/46 47/47/47
f 45/45/45 44/44/44 49/49/49
f 46/46/46 49/49/49 44/44/44
f 49/49/49 48/48/48 45/45/45
f 46/46/46 48/48/48 49/49/49
