g Fortification2
v -19.20818 5.170807 16.41349
v -12.6889 9.297908 17.79223
v -11.47007 4.794417 26.3604
v -17.36986 0.7112729 24.83113
v 19.6889 0.1816446 19.51595
v 22.10606 -4.954601 18.70815
v 20.84851 -6.527896 22.41116
v 17.36987 0.7112729 24.83113
v 20.03245 2.597687 16.82449
v 20.83987 -0.2508992 17.48543
v 19.20819 5.170808 16.41349
v 23.79487 -2.84177 13.73527
v 12.68892 9.297909 17.79223
v 19.20819 5.170808 16.41349
v 17.36987 0.7112729 24.83113
v 11.47009 4.446146 26.07884
v 1.447505E-05 12.20245 18.76106
v 12.68892 9.297909 17.79223
v 11.47009 4.446146 26.07884
v 1.438236E-05 7.406836 27.23152
v -20.16704 0.4460153 18.25503
v -19.20818 5.170807 16.41349
v -17.36986 0.7112729 24.83113
v -20.53887 -1.328685 18.92388
v -21.79119 -0.5522455 15.8586
v -20.8485 -6.527896 22.41116
v -23.79486 -2.84177 13.73527
v -18.28371 7.471937 -9.301928
v -22.68861 -1.678084 -9.312419
v -17.97672 -1.647607 -18.9017
v -14.53114 5.599883 -18.83499
v -12.08983 12.17652 -9.295377
v -18.28371 7.471937 -9.301928
v -14.53114 5.599883 -18.83499
v -9.617612 9.349824 -18.79868
v 1.064798E-05 15.52615 -9.293158
v -12.08983 12.17652 -9.295377
v -9.617612 9.349824 -18.79868
v 9.547977E-06 12.00049 -18.79457
v 7.488901 12.61201 -11.55628
v 1.064798E-05 15.52615 -9.293158
v 9.547977E-06 12.00049 -18.79457
v 12.08985 12.17652 -9.295381
v 9.61762 9.349824 -18.79868
v 14.26234 9.439585 -11.49369
v 12.08985 12.17652 -9.295381
v 9.61762 9.349824 -18.79868
v 18.28372 7.471937 -9.301931
v 14.53114 5.599883 -18.83499
v 22.68861 -1.678083 -9.312425
v 18.28372 7.471937 -9.301931
v 14.53114 5.599883 -18.83499
v 17.97672 -1.647607 -18.90171
v -18.28371 -9.877729 -9.301928
v -14.53114 -7.672853 -18.83499
v -17.97672 -1.647607 -18.9017
v -22.68861 -1.678084 -9.312419
v -12.08983 -13.51851 -9.295377
v -9.617612 -10.69182 -18.79868
v -14.53114 -7.672853 -18.83499
v -18.28371 -9.877729 -9.301928
v 18.28372 -9.877729 -9.301931
v 14.53114 -7.672853 -18.83499
v 9.61762 -10.69182 -18.79868
v 12.08985 -13.51851 -9.295381
v 22.68861 -1.678083 -9.312425
v 17.97672 -1.647607 -18.90171
v 14.53114 -7.672853 -18.83499
v 18.28372 -9.877729 -9.301931
v 17.36987 -13.76826 19.99401
v 20.84851 -6.527896 22.41116
v 22.10606 -4.954601 18.70815
v 20.73715 -7.430029 17.3143
v -19.20818 -10.85546 11.05965
v -17.36986 -13.76826 19.99401
v -11.47007 -17.50315 18.74632
v -12.6889 -14.98257 9.680939
v -23.79486 -2.84177 13.73527
v -20.8485 -6.527896 22.41116
v -17.36986 -13.76826 19.99401
v -19.20818 -10.85546 11.05965
v -9.617612 -10.69182 -18.79868
v -6.508081 -7.580609 -18.75312
v -9.832982 -5.304756 -18.7777
v -14.53114 -7.672853 -18.83499
v -12.16455 -1.391293 -18.82284
v -17.97672 -1.647607 -18.9017
v -9.832982 3.246796 -18.7777
v -14.53114 5.599883 -18.83499
v -6.508081 5.784319 -18.75312
v -9.617612 9.349824 -18.79868
v 6.440266E-06 7.577983 -18.75035
v 9.547977E-06 12.00049 -18.79457
v 6.508086 5.784319 -18.75313
v 9.61762 9.349824 -18.79868
v 9.832984 3.246796 -18.7777
v 14.53114 5.599883 -18.83499
v 12.16455 -1.391292 -18.82284
v 17.97672 -1.647607 -18.90171
v 9.832982 -5.304756 -18.7777
v 14.53114 -7.672853 -18.83499
v 6.508086 -7.580609 -18.75313
v 9.61762 -10.69182 -18.79868
v 1.064798E-05 15.52615 -9.293158
v 6.5483E-06 9.451081 -9.292038
v -7.820734 7.284254 -9.293474
v -12.08983 12.17652 -9.295377
v -11.82747 4.240929 -9.297711
v -18.28371 7.471937 -9.301928
v -14.67693 -1.659358 -9.304498
v -22.68861 -1.678084 -9.312419
v -11.82747 -6.680743 -9.297711
v -18.28371 -9.877729 -9.301928
v -7.820734 -9.420965 -9.293474
v -12.08983 -13.51851 -9.295377
v 22.68861 -1.678083 -9.312425
v 11.82747 4.240929 -9.297713
v 18.28372 7.471937 -9.301931
v 14.67693 -1.659358 -9.304502
v 18.28372 -9.877729 -9.301931
v 11.82747 -6.680743 -9.297713
v 12.08985 -13.51851 -9.295381
v 7.820739 -9.420965 -9.293476
v -11.47007 4.794417 26.3604
v -8.245675 0.3941641 19.90697
v -11.62269 -1.700035 24.06828
v -17.36986 0.7112729 24.83113
v -13.95034 -6.543975 22.44901
v -20.8485 -6.527896 22.41116
v -11.62269 -11.38872 20.83161
v -17.36986 -13.76826 19.99401
v -7.674964 -13.88784 19.99675
v -11.47007 -17.50315 18.74632
v 11.47009 4.446146 26.07884
v 1.080482E-05 2.547125 25.48605
v 1.438236E-05 7.406836 27.23152
v 7.674977 0.799078 24.90316
v 17.36987 0.7112729 24.83113
v 11.62269 -1.700035 24.06828
v 20.84851 -6.527896 22.41116
v 13.95035 -6.543975 22.44901
v 17.36987 -13.76826 19.99401
v 11.62269 -11.38872 20.83161
v -19.20818 5.170807 16.41349
v -12.25512 2.398497 15.14247
v -8.095716 5.031657 16.02213
v -12.6889 9.297908 17.79223
v 1.088536E-05 6.884797 16.64026
v 1.447505E-05 12.20245 18.76106
v 8.095731 5.031658 16.02213
v 12.68892 9.297909 17.79223
v 12.25513 2.398498 15.14247
v 19.20819 5.170808 16.41349
v 15.18151 -2.713653 13.43372
v 23.79487 -2.84177 13.73527
v -12.6889 -14.98257 9.680939
v -8.095716 -10.45967 10.847
v -12.25512 -7.826512 11.72664
v -19.20818 -10.85546 11.05965
v -15.1815 -2.713653 13.43372
v -23.79486 -2.84177 13.73527
v -12.6889 9.297908 17.79223
v -6.260067 7.176947 24.12053
v -11.47007 4.794417 26.3604
v 1.447505E-05 12.20245 18.76106
v 1.438236E-05 7.406836 27.23152
v 7.488901 12.61201 -11.55628
v 5.700101 8.885835 -9.753608
v 6.560518E-06 9.451081 -9.292038
v 1.064798E-05 15.52615 -9.293158
v 12.08985 12.17652 -9.295381
v 9.350566 8.911606 -7.489684
v 5.700101 8.885835 -9.753608
v 7.488901 12.61201 -11.55628
v 14.26234 9.439585 -11.49369
v 10.57043 6.638149 -9.680846
v 9.350566 8.911606 -7.489684
v 12.08985 12.17652 -9.295381
v 18.28372 7.471937 -9.301931
v 11.82747 4.240929 -9.297713
v 10.57043 6.638149 -9.680846
v 14.26234 9.439585 -11.49369
v 22.10606 -4.954601 18.70815
v 19.61405 -5.597704 16.62273
v 18.58578 -7.457134 15.57573
v 20.73715 -7.430029 17.3143
v 19.6889 0.1816446 19.51595
v 18.48696 -2.09522 17.61091
v 19.61405 -5.597704 16.62273
v 22.10606 -4.954601 18.70815
v 20.83987 -0.2508992 17.48543
v 19.35151 -2.420129 16.08567
v 18.48696 -2.09522 17.61091
v 19.6889 0.1816446 19.51595
v 20.03245 2.597687 16.82449
v 18.74502 -0.280395 15.5892
v 19.35151 -2.420129 16.08567
v 20.83987 -0.2508992 17.48543
v 23.79487 -2.84177 13.73527
v 21.57119 -4.366273 13.26871
v 18.74502 -0.280395 15.5892
v 20.03245 2.597687 16.82449
v -6.260067 7.176947 24.12053
v -6.260067 4.999276 22.99214
v -8.245675 0.3941641 19.90697
v -11.47007 4.794417 26.3604
v 1.438236E-05 7.406836 27.23152
v 1.080482E-05 2.547125 25.48605
v -6.260067 4.999276 22.99214
v -6.260067 7.176947 24.12053
v -20.16704 0.4460153 18.25503
v -16.70709 0.09299927 17.08908
v -12.25512 2.398497 15.14247
v -19.20818 5.170807 16.41349
v -21.79119 -0.5522455 15.8586
v -18.38561 -0.8952182 14.56604
v -16.70709 0.09299927 17.08908
v -20.16704 0.4460153 18.25503
v -20.53887 -1.328685 18.92388
v -17.13329 -1.671659 17.63132
v -18.38561 -0.8952182 14.56604
v -21.79119 -0.5522455 15.8586
v -23.79486 -2.84177 13.73527
v -15.1815 -2.713653 13.43372
v -17.13329 -1.671659 17.63132
v -20.53887 -1.328685 18.92388
vt 0.01237059 0.8615077
vt 0.6327724 0.8615077
vt 0.5966811 0.1464657
vt 0.03523743 0.1464657
vt 0.6126727 0.5153444
vt 0.1302649 0.4516563
vt 0.1531179 0.1464657
vt 0.8847123 0.1464657
vt 0.704257 0.7697764
vt 0.4856259 0.6533631
vt 0.9097486 0.8615077
vt 0.0995748 0.8615077
vt 0.01477838 0.8615077
vt 0.5820446 0.8615077
vt 0.5440178 0.1464657
vt 0.0306592 0.1464657
vt 0.1089454 0.8615077
vt 0.9524875 0.8615077
vt 0.9221268 0.1464657
vt 0.1600547 0.1464657
vt 0.5955672 0.6146334
vt 0.9531981 0.8615077
vt 0.9149623 0.1464657
vt 0.4602101 0.5235536
vt 0.3950092 0.7634992
vt 0.1322221 0.1464657
vt 0.08638275 0.8615077
vt 0.964546 0.8615077
vt 0.1493707 0.8615077
vt 0.2515259 0.1464657
vt 0.898661 0.1464657
vt 0.06720436 0.8615077
vt 0.6240561 0.8615077
vt 0.5711845 0.1464657
vt 0.1283677 0.1464657
vt 0.1177989 0.8615077
vt 0.9634749 0.8615077
vt 0.8708579 0.1464657
vt 0.1985204 0.1464657
vt 0.6631319 0.691297
vt 0.1287107 0.8615077
vt 0.2148439 0.1464657
vt 0.9583639 0.8615077
vt 0.874442 0.1464657
vt 0.3705457 0.696873
vt 0.6346632 0.8615077
vt 0.5665606 0.1464657
vt 0.07392102 0.8615077
vt 0.120628 0.1464657
vt 0.1279131 0.8615077
vt 0.9514793 0.8615077
vt 0.8816136 0.1464657
vt 0.227795 0.1464657
vt 0.9670267 0.8615077
vt 0.8652623 0.1464657
vt 0.2055488 0.1464657
vt 0.1363106 0.8615077
vt 0.5926995 0.8615077
vt 0.5234139 0.1464657
vt 0.06924725 0.1464657
vt 0.02160311 0.8615077
vt 0.634038 0.8615077
vt 0.5976186 0.1464657
vt 0.1440023 0.1464657
vt 0.0636791 0.8615077
vt 0.170561 0.8615077
vt 0.2615971 0.1464657
vt 0.9005057 0.1464657
vt 0.9752903 0.8615077
vt 0.9559929 0.1464657
vt 0.07981646 0.1464657
vt 0.05570779 0.4516563
vt 0.3798664 0.491066
vt 0.607774 0.8615077
vt 0.5808144 0.1464657
vt 0.1522679 0.1464657
vt 0.1342279 0.8615077
vt 0.9890069 0.8615077
vt 0.9373006 0.1464657
vt 0.1049963 0.1464657
vt 0.06731206 0.8615077
vt 0.9004527 0.0674032
vt 0.9004527 0.0674032
vt 0.9004641 0.05807722
vt 0.9004641 0.05807722
vt 0.9062588 0.04573226
vt 0.9062588 0.04573226
vt 0.918586 0.03989971
vt 0.918586 0.03989971
vt 0.9279118 0.03985977
vt 0.9279118 0.03985977
vt 0.9403272 0.04563701
vt 0.9403272 0.04563701
vt 0.9461425 0.05803454
vt 0.9461425 0.05803454
vt 0.9461305 0.06735981
vt 0.9461305 0.06735981
vt 0.9403345 0.07970357
vt 0.9403345 0.07970357
vt 0.9280086 0.08553731
vt 0.9280086 0.08553731
vt 0.9186834 0.08557796
vt 0.9186834 0.08557796
vt 0.9448669 0.04125988
vt 0.9448669 0.04125988
vt 0.9292465 0.03400159
vt 0.9292465 0.03400159
vt 0.9175189 0.03401077
vt 0.9175189 0.03401077
vt 0.901944 0.04125726
vt 0.901944 0.04125726
vt 0.8947094 0.0568378
vt 0.8947094 0.0568378
vt 0.8947092 0.06856537
vt 0.8947092 0.06856537
vt 0.9449021 0.08418226
vt 0.9521368 0.06860209
vt 0.9521368 0.06860209
vt 0.9449021 0.08418226
vt 0.9293273 0.091429
vt 0.9293273 0.091429
vt 0.9175998 0.09143829
vt 0.9175998 0.09143829
vt 0.929271 0.0357635
vt 0.929271 0.0357635
vt 0.9182273 0.03576314
vt 0.9182273 0.03576314
vt 0.9036628 0.04260564
vt 0.9036628 0.04260564
vt 0.8968204 0.05717003
vt 0.8968204 0.05717003
vt 0.8968207 0.0682137
vt 0.8968207 0.0682137
vt 0.9507422 0.05723464
vt 0.943868 0.04263771
vt 0.943868 0.04263771
vt 0.9507422 0.05723464
vt 0.9507425 0.06827831
vt 0.9507425 0.06827831
vt 0.9439 0.08284271
vt 0.9439 0.08284271
vt 0.9293357 0.08968508
vt 0.9293357 0.08968508
vt 0.9170063 0.03037393
vt 0.9170063 0.03037393
vt 0.9302424 0.03037429
vt 0.9302424 0.03037429
vt 0.9477804 0.03859901
vt 0.9477804 0.03859901
vt 0.9560052 0.05613708
vt 0.9560052 0.05613708
vt 0.9560055 0.06937313
vt 0.9560055 0.06937313
vt 0.9478124 0.08687866
vt 0.9478124 0.08687866
vt 0.891308 0.06930864
vt 0.891308 0.06930864
vt 0.8913077 0.05607259
vt 0.8913077 0.05607259
vt 0.8995007 0.03856707
vt 0.8995007 0.03856707
vt 0.9753335 0.8615077
vt 0.5511358 0.3825204
vt 0.9462807 0.1464657
vt 0.05972219 0.8615077
vt 0.1191161 0.1464657
vt 0.7154486 0.3284099
vt 0.7154486 0.2822057
vt 0.6692445 0.2822057
vt 0.6692445 0.3284099
vt 0.7154486 0.3284099
vt 0.7154486 0.2822057
vt 0.6692445 0.2822057
vt 0.6692445 0.3284099
vt 0.7154486 0.3284099
vt 0.7154486 0.2822057
vt 0.6692445 0.2822057
vt 0.6692445 0.3284099
vt 0.7154486 0.3284099
vt 0.7154486 0.2822057
vt 0.6692445 0.2822057
vt 0.6692445 0.3284099
vt 0.6674912 0.3226749
vt 0.6674912 0.3442373
vt 0.6890536 0.3442373
vt 0.6890536 0.3226749
vt 0.6674912 0.3226749
vt 0.6674912 0.3442373
vt 0.6890536 0.3442373
vt 0.6890536 0.3226749
vt 0.6674912 0.3226749
vt 0.6674912 0.3442373
vt 0.6890536 0.3442373
vt 0.6890536 0.3226749
vt 0.6674912 0.3226749
vt 0.6674912 0.3442373
vt 0.6890536 0.3442373
vt 0.6890536 0.3226749
vt 0.6674912 0.3226749
vt 0.6674912 0.3442373
vt 0.6890536 0.3442373
vt 0.6890536 0.3226749
vt 0.6626564 0.3225314
vt 0.6626564 0.3584548
vt 0.6985798 0.3584548
vt 0.6985798 0.3225314
vt 0.6626564 0.3225314
vt 0.6626564 0.3584548
vt 0.6985798 0.3584548
vt 0.6985798 0.3225314
vt 0.7238943 0.6220985
vt 0.7238943 0.6662838
vt 0.7680796 0.6662838
vt 0.7680796 0.6220985
vt 0.7238943 0.6220985
vt 0.7238943 0.6662838
vt 0.7680796 0.6662838
vt 0.7680796 0.6220985
vt 0.7238943 0.6220985
vt 0.7238943 0.6662838
vt 0.7680796 0.6662838
vt 0.7680796 0.6220985
vt 0.7238943 0.6220985
vt 0.7238943 0.6662838
vt 0.7680796 0.6662838
vt 0.7680796 0.6220985
vn -0.7063541 0.6973358 -0.1215997
vn -0.407949 0.887104 -0.2159262
vn -0.2202744 0.4785986 0.8499544
vn -0.4399742 0.3126749 0.8418177
vn 0.9026147 0.3031389 0.3056035
vn 0.9966305 0.0704177 0.0420579
vn 0.5783059 -0.2388509 0.7800722
vn 0.5014052 0.3076446 0.8086702
vn 0.8620619 0.2186076 0.4572308
vn 0.985924 0.071092 0.1513267
vn 0.5055197 0.7647915 -0.3994292
vn 0.1792731 0.2629369 -0.9480112
vn 0.3631596 0.9292666 0.0676659
vn 0.5055197 0.7647915 -0.3994292
vn 0.5014052 0.3076446 0.8086702
vn 0.3182256 0.6047845 0.7300466
vn 0.1173908 0.9878873 -0.1014801
vn 0.3631596 0.9292666 0.0676659
vn 0.3182256 0.6047845 0.7300466
vn 0.08503371 0.6165121 0.7827402
vn -0.9096614 0.3961391 -0.12486
vn -0.7063541 0.6973358 -0.1215997
vn -0.4399742 0.3126749 0.8418177
vn -0.8239626 0.5213428 0.2220074
vn -0.5029 -0.3258305 -0.8005786
vn -0.7443757 -0.4093421 0.5275831
vn -0.896812 -0.02138239 -0.441895
vn -0.7880818 0.5848631 0.1919952
vn -0.9919334 0.002319615 0.1267388
vn -0.7920953 -0.002763379 -0.6103911
vn -0.6258272 0.492386 -0.6048936
vn -0.4082069 0.8992099 0.1574446
vn -0.7880818 0.5848631 0.1919952
vn -0.6258272 0.492386 -0.6048936
vn -0.3278929 0.7673221 -0.5510925
vn -0.09871717 0.9680411 0.2305459
vn -0.4082069 0.8992099 0.1574446
vn -0.3278929 0.7673221 -0.5510925
vn -0.08738998 0.7967591 -0.5979447
vn 0.2293015 0.9733251 0.007691168
vn -0.09871717 0.9680411 0.2305459
vn -0.08738998 0.7967591 -0.5979447
vn 0.3987582 0.8966135 0.1925519
vn 0.2886714 0.6769851 -0.6770228
vn 0.62082 0.7839517 -0.001479964
vn 0.3987582 0.8966135 0.1925519
vn 0.2886714 0.6769851 -0.6770228
vn 0.8076074 0.5494682 0.2141376
vn 0.6290736 0.4424712 -0.6391287
vn 0.9919334 0.002319366 0.1267389
vn 0.8076074 0.5494682 0.2141376
vn 0.6290736 0.4424712 -0.6391287
vn 0.7920952 -0.002763555 -0.6103911
vn -0.7401069 -0.6502022 0.1716944
vn -0.5816453 -0.5476086 -0.6015095
vn -0.7920953 -0.002763379 -0.6103911
vn -0.9919334 0.002319615 0.1267388
vn -0.4973742 -0.8308977 0.249455
vn -0.3958631 -0.6663182 -0.6319118
vn -0.5816453 -0.5476086 -0.6015095
vn -0.7401069 -0.6502022 0.1716944
vn 0.7401072 -0.6502017 0.1716945
vn 0.5816454 -0.5476081 -0.6015097
vn 0.3958634 -0.6663178 -0.6319121
vn 0.4973749 -0.8308972 0.2494555
vn 0.9919334 0.002319366 0.1267389
vn 0.7920952 -0.002763555 -0.6103911
vn 0.5816454 -0.5476081 -0.6015097
vn 0.7401072 -0.6502017 0.1716945
vn 0.2051583 -0.4011314 0.8927506
vn 0.5783059 -0.2388509 0.7800722
vn 0.9966305 0.0704177 0.0420579
vn 0.912346 -0.3978685 -0.09656939
vn -0.718903 -0.427188 -0.548351
vn -0.6490111 -0.6980891 0.3024173
vn -0.4676822 -0.8353129 0.2890082
vn -0.4971566 -0.5654863 -0.6580733
vn -0.896812 -0.02138239 -0.441895
vn -0.7443757 -0.4093421 0.5275831
vn -0.6490111 -0.6980891 0.3024173
vn -0.718903 -0.427188 -0.548351
vn -0.3958631 -0.6663182 -0.6319118
vn 0.01015348 0.0043007 -0.9999392
vn 0.01195974 0.0005234678 -0.9999284
vn -0.5816453 -0.5476086 -0.6015095
vn 0.01363367 1.215561E-05 -0.999907
vn -0.7920953 -0.002763379 -0.6103911
vn 0.01197091 -0.000345489 -0.9999284
vn -0.6258272 0.492386 -0.6048936
vn 0.005588196 -0.007901846 -0.9999532
vn -0.3278929 0.7673221 -0.5510925
vn -1.306229E-07 -0.009999425 -0.9999501
vn -0.08738998 0.7967591 -0.5979447
vn -0.005588503 -0.007901739 -0.9999532
vn 0.2886714 0.6769851 -0.6770228
vn -0.01197112 -0.0003453445 -0.9999284
vn 0.6290736 0.4424712 -0.6391287
vn -0.0136337 1.223435E-05 -0.999907
vn 0.7920952 -0.002763555 -0.6103911
vn -0.01195998 0.0005233879 -0.9999284
vn 0.5816454 -0.5476081 -0.6015097
vn -0.01015392 0.004300473 -0.9999392
vn 0.3958634 -0.6663178 -0.6319121
vn -0.09871717 0.9680411 0.2305459
vn -0.0002346369 0.0001842222 1
vn -0.0004304115 1.337543E-05 0.9999999
vn -0.4082069 0.8992099 0.1574446
vn -0.0009063113 -0.0005075244 0.9999995
vn -0.7880818 0.5848631 0.1919952
vn -0.0009968878 1.066471E-05 0.9999995
vn -0.9919334 0.002319615 0.1267388
vn -0.0009194024 0.0005722478 0.9999994
vn -0.7401069 -0.6502022 0.1716944
vn -0.0008241322 0.0003729591 0.9999996
vn -0.4973742 -0.8308977 0.249455
vn 0.9919334 0.002319366 0.1267389
vn 0.0009882745 -0.0006719325 0.9999993
vn 0.8076074 0.5494682 0.2141376
vn 0.0009971531 1.066607E-05 0.9999995
vn 0.7401072 -0.6502017 0.1716945
vn 0.0009196272 0.0005722335 0.9999994
vn 0.4973749 -0.8308972 0.2494555
vn 0.0008243292 0.0003728109 0.9999996
vn -0.2202744 0.4785986 0.8499544
vn 0.4436183 -0.3075252 0.8418022
vn 0.2326125 -0.319524 0.9185836
vn -0.4399742 0.3126749 0.8418177
vn -0.005942038 -0.3168486 0.9484575
vn -0.7443757 -0.4093421 0.5275831
vn -0.0051054 -0.3210353 0.9470534
vn -0.6490111 -0.6980891 0.3024173
vn -0.004250198 -0.3228811 0.94643
vn -0.4676822 -0.8353129 0.2890082
vn 0.3182256 0.6047845 0.7300466
vn 0.005277109 -0.3268763 0.9450524
vn 0.08503371 0.6165121 0.7827402
vn 0.004968734 -0.3220783 0.9467001
vn 0.5014052 0.3076446 0.8086702
vn 0.005102681 -0.3126611 0.9498511
vn 0.5783059 -0.2388509 0.7800722
vn 0.005942123 -0.3168486 0.9484575
vn 0.2051583 -0.4011314 0.8927506
vn 0.005943245 -0.3192263 0.9476599
vn -0.7063541 0.6973358 -0.1215997
vn -0.02841642 0.356822 -0.9337401
vn -0.018375 0.3662242 -0.9303452
vn -0.407949 0.887104 -0.2159262
vn -2.683938E-07 0.3704482 -0.9288531
vn 0.1173908 0.9878873 -0.1014801
vn 0.01837461 0.3662242 -0.9303453
vn 0.3631596 0.9292666 0.0676659
vn 0.03319876 0.3465285 -0.9374518
vn 0.5055197 0.7647915 -0.3994292
vn 0.03794482 0.3362543 -0.9410065
vn 0.1792731 0.2629369 -0.9480112
vn -0.4971566 -0.5654863 -0.6580733
vn -0.02822557 0.2763313 -0.9606478
vn -0.03305009 0.2867019 -0.9574496
vn -0.718903 -0.427188 -0.548351
vn -0.03782034 0.2969258 -0.9541513
vn -0.896812 -0.02138239 -0.441895
vn -0.407949 0.887104 -0.2159262
vn -0.2263048 0.5141575 0.8273017
vn -0.2202744 0.4785986 0.8499544
vn 0.1173908 0.9878873 -0.1014801
vn 0.08503371 0.6165121 0.7827402
vn 0.2293015 0.9733251 0.007691168
vn 0.05505924 0.299136 0.9526207
vn 0.2343662 0.1344187 0.9628105
vn -0.09871717 0.9680411 0.2305459
vn 0.3987582 0.8966135 0.1925519
vn 0.06774552 0.333313 0.9403791
vn 0.05505924 0.299136 0.9526207
vn 0.2293015 0.9733251 0.007691168
vn 0.62082 0.7839517 -0.001479964
vn 0.2643902 0.1540611 0.952031
vn 0.06774552 0.333313 0.9403791
vn 0.3987582 0.8966135 0.1925519
vn 0.8076074 0.5494682 0.2141376
vn -0.09002074 0.4230241 0.9016356
vn 0.2643902 0.1540611 0.952031
vn 0.62082 0.7839517 -0.001479964
vn 0.9966305 0.0704177 0.0420579
vn 0.5747641 0.2586046 -0.7763825
vn 0.6252595 0.09068944 -0.7751297
vn 0.912346 -0.3978685 -0.09656939
vn 0.9026147 0.3031389 0.3056035
vn 0.7749016 0.125375 -0.6195229
vn 0.5747641 0.2586046 -0.7763825
vn 0.9966305 0.0704177 0.0420579
vn 0.985924 0.071092 0.1513267
vn 0.8640659 -0.4578166 -0.20927
vn 0.7749016 0.125375 -0.6195229
vn 0.9026147 0.3031389 0.3056035
vn 0.8620619 0.2186076 0.4572308
vn 0.4679167 -0.5169647 0.7167994
vn 0.8640659 -0.4578166 -0.20927
vn 0.985924 0.071092 0.1513267
vn 0.1792731 0.2629369 -0.9480112
vn 0.1089868 -0.4328323 0.894862
vn 0.4679167 -0.5169647 0.7167994
vn 0.8620619 0.2186076 0.4572308
vn -0.2263048 0.5141575 0.8273017
vn 0.1288014 -0.534476 0.8353117
vn 0.464743 -0.5614061 0.6847169
vn -0.2202744 0.4785986 0.8499544
vn 0.08503371 0.6165121 0.7827402
vn -0.4338643 -0.3406256 0.8341079
vn 0.1288014 -0.534476 0.8353117
vn -0.2263048 0.5141575 0.8273017
vn -0.9096614 0.3961391 -0.12486
vn -0.2889055 -0.04283355 -0.9563988
vn -0.2949244 -0.2673197 -0.9173657
vn -0.7063541 0.6973358 -0.1215997
vn -0.5029 -0.3258305 -0.8005786
vn -0.3493525 -0.09954367 -0.9316888
vn -0.2889055 -0.04283355 -0.9563988
vn -0.9096614 0.3961391 -0.12486
vn -0.8239626 0.5213428 0.2220074
vn -0.08003415 0.9131675 -0.3996494
vn -0.3493525 -0.09954367 -0.9316888
vn -0.5029 -0.3258305 -0.8005786
vn -0.896812 -0.02138239 -0.441895
vn -0.01727832 0.9653507 -0.2603835
vn -0.08003415 0.9131675 -0.3996494
vn -0.8239626 0.5213428 0.2220074
g Fortification2_0
f 3/3/3 2/2/2 1/1/1
f 4/4/4 3/3/3 1/1/1
f 7/7/7 6/6/6 5/5/5
f 8/8/8 7/7/7 5/5/5
f 9/9/9 8/8/8 5/5/5
f 5/5/5 10/10/10 9/9/9
f 9/9/9 11/11/11 8/8/8
f 9/9/9 12/12/12 11/11/11
f 15/15/15 14/14/14 13/13/13
f 16/16/16 15/15/15 13/13/13
f 19/19/19 18/18/18 17/17/17
f 20/20/20 19/19/19 17/17/17
f 23/23/23 22/22/22 21/21/21
f 23/23/23 21/21/21 24/24/24
f 21/21/21 25/25/25 24/24/24
f 26/26/26 23/23/23 24/24/24
f 26/26/26 24/24/24 27/27/27
f 30/30/30 29/29/29 28/28/28
f 31/31/31 30/30/30 28/28/28
f 34/34/34 33/33/33 32/32/32
f 35/35/35 34/34/34 32/32/32
f 38/38/38 37/37/37 36/36/36
f 39/39/39 38/38/38 36/36/36
f 42/42/42 41/41/41 40/40/40
f 42/42/42 40/40/40 43/43/43
f 44/44/44 42/42/42 43/43/43
f 47/47/47 46/46/46 45/45/45
f 47/47/47 45/45/45 48/48/48
f 49/49/49 47/47/47 48/48/48
f 52/52/52 51/51/51 50/50/50
f 53/53/53 52/52/52 50/50/50
f 56/56/56 55/55/55 54/54/54
f 57/57/57 56/56/56 54/54/54
f 60/60/60 59/59/59 58/58/58
f 61/61/61 60/60/60 58/58/58
f 64/64/64 63/63/63 62/62/62
f 65/65/65 64/64/64 62/62/62
f 68/68/68 67/67/67 66/66/66
f 69/69/69 68/68/68 66/66/66
f 72/72/72 71/71/71 70/70/70
f 73/73/73 72/72/72 70/70/70
f 76/76/76 75/75/75 74/74/74
f 77/77/77 76/76/76 74/74/74
f 80/80/80 79/79/79 78/78/78
f 81/81/81 80/80/80 78/78/78
f 84/84/84 83/83/83 82/82/82
f 85/85/85 84/84/84 82/82/82
f 86/86/86 84/84/84 85/85/85
f 87/87/87 86/86/86 85/85/85
f 88/88/88 86/86/86 87/87/87
f 89/89/89 88/88/88 87/87/87
f 90/90/90 88/88/88 89/89/89
f 91/91/91 90/90/90 89/89/89
f 92/92/92 90/90/90 91/91/91
f 93/93/93 92/92/92 91/91/91
f 94/94/94 92/92/92 93/93/93
f 95/95/95 94/94/94 93/93/93
f 96/96/96 94/94/94 95/95/95
f 97/97/97 96/96/96 95/95/95
f 98/98/98 96/96/96 97/97/97
f 99/99/99 98/98/98 97/97/97
f 100/100/100 98/98/98 99/99/99
f 101/101/101 100/100/100 99/99/99
f 102/102/102 100/100/100 101/101/101
f 103/103/103 102/102/102 101/101/101
f 106/106/106 105/105/105 104/104/104
f 107/107/107 106/106/106 104/104/104
f 108/108/108 106/106/106 107/107/107
f 109/109/109 108/108/108 107/107/107
f 110/110/110 108/108/108 109/109/109
f 111/111/111 110/110/110 109/109/109
f 112/112/112 110/110/110 111/111/111
f 113/113/113 112/112/112 111/111/111
f 114/114/114 112/112/112 113/113/113
f 115/115/115 114/114/114 113/113/113
f 118/118/118 117/117/117 116/116/116
f 117/117/117 119/119/119 116/116/116
f 116/116/116 119/119/119 120/120/120
f 119/119/119 121/121/121 120/120/120
f 120/120/120 121/121/121 122/122/122
f 121/121/121 123/123/123 122/122/122
f 126/126/126 125/125/125 124/124/124
f 127/127/127 126/126/126 124/124/124
f 128/128/128 126/126/126 127/127/127
f 129/129/129 128/128/128 127/127/127
f 130/130/130 128/128/128 129/129/129
f 131/131/131 130/130/130 129/129/129
f 132/132/132 130/130/130 131/131/131
f 133/133/133 132/132/132 131/131/131
f 136/136/136 135/135/135 134/134/134
f 135/135/135 137/137/137 134/134/134
f 134/134/134 137/137/137 138/138/138
f 137/137/137 139/139/139 138/138/138
f 138/138/138 139/139/139 140/140/140
f 139/139/139 141/141/141 140/140/140
f 140/140/140 141/141/141 142/142/142
f 141/141/141 143/143/143 142/142/142
f 146/146/146 145/145/145 144/144/144
f 147/147/147 146/146/146 144/144/144
f 148/148/148 146/146/146 147/147/147
f 149/149/149 148/148/148 147/147/147
f 150/150/150 148/148/148 149/149/149
f 151/151/151 150/150/150 149/149/149
f 152/152/152 150/150/150 151/151/151
f 153/153/153 152/152/152 151/151/151
f 154/154/154 152/152/152 153/153/153
f 155/155/155 154/154/154 153/153/153
f 158/158/158 157/157/157 156/156/156
f 159/159/159 158/158/158 156/156/156
f 160/160/160 158/158/158 159/159/159
f 161/161/161 160/160/160 159/159/159
f 164/164/164 163/163/163 162/162/162
f 163/163/163 165/165/165 162/162/162
f 163/163/163 166/166/166 165/165/165
f 169/169/169 168/168/168 167/167/167
f 170/170/170 169/169/169 167/167/167
f 173/173/173 172/172/172 171/171/171
f 174/174/174 173/173/173 171/171/171
f 177/177/177 176/176/176 175/175/175
f 178/178/178 177/177/177 175/175/175
f 181/181/181 180/180/180 179/179/179
f 182/182/182 181/181/181 179/179/179
f 185/185/185 184/184/184 183/183/183
f 186/186/186 185/185/185 183/183/183
f 189/189/189 188/188/188 187/187/187
f 190/190/190 189/189/189 187/187/187
f 193/193/193 192/192/192 191/191/191
f 194/194/194 193/193/193 191/191/191
f 197/197/197 196/196/196 195/195/195
f 198/198/198 197/197/197 195/195/195
f 201/201/201 200/200/200 199/199/199
f 202/202/202 201/201/201 199/199/199
f 205/205/205 204/204/204 203/203/203
f 206/206/206 205/205/205 203/203/203
f 209/209/209 208/208/208 207/207/207
f 210/210/210 209/209/209 207/207/207
f 213/213/213 212/212/212 211/211/211
f 214/214/214 213/213/213 211/211/211
f 217/217/217 216/216/216 215/215/215
f 218/218/218 217/217/217 215/215/215
f 221/221/221 220/220/220 219/219/219
f 222/222/222 221/221/221 219/219/219
f 225/225/225 224/224/224 223/223/223
f 226/226/226 225/225/225 223/223/223
