g Fortification
v -14.54566 7.524769 -0.3022265
v -8.360004 12.88697 -0.3022192
v -7.620776 11.7704 5.750044
v -13.26458 6.783558 5.750035
v 14.54504 7.524768 -0.302229
v 16.02344 0.0078581 -0.3031372
v 14.15777 0.007858097 5.749043
v 13.26396 6.783558 5.750035
v 8.359387 12.88697 -0.3022205
v 14.54504 7.524768 -0.302229
v 13.26396 6.783558 5.750035
v 7.620151 11.7704 5.750044
v -8.360004 12.88697 -0.3022192
v -0.0003125 14.15443 -0.3031201
v -0.0003125 12.75674 5.74906
v -7.620776 11.7704 5.750044
v -0.0003125 14.15443 -0.3031201
v 8.359387 12.88697 -0.3022205
v 7.620151 11.7704 5.750044
v -0.0003125 12.75674 5.74906
v -16.02408 0.007857669 -0.303136
v -14.54566 7.524769 -0.3022265
v -13.26458 6.783558 5.750035
v -14.15842 0.007857639 5.749043
v 12.6544 -7.092874 -0.302229
v 11.53983 -6.351664 5.750035
v 14.15777 0.007858097 5.749043
v 16.02344 0.0078581 -0.3031372
v 7.707121 -11.75592 -0.3022205
v 7.025225 -10.63934 5.750044
v 11.53983 -6.351664 5.750035
v 12.6544 -7.092874 -0.302229
v -0.0003125 -14.00254 -0.3031201
v -0.0003125 -12.60485 5.74906
v 7.025225 -10.63934 5.750044
v 7.707121 -11.75592 -0.3022205
v -7.715498 -11.95158 -0.3022192
v -7.033603 -10.83501 5.750044
v -0.0003125 -12.60485 5.74906
v -0.0003125 -14.00254 -0.3031201
v -12.65503 -7.092875 -0.3022265
v -11.54046 -6.351664 5.750035
v -7.033603 -10.83501 5.750044
v -7.715498 -11.95158 -0.3022192
v -16.02408 0.007857669 -0.303136
v -14.15842 0.007857639 5.749043
v -11.54046 -6.351664 5.750035
v -12.65503 -7.092875 -0.3022265
v -0.0003125 0.007858744 5.908627
v -13.26458 6.783558 5.750035
v -7.620776 11.7704 5.750044
v -0.0003125 12.75674 5.74906
v -14.15842 0.007857639 5.749043
v 7.620151 11.7704 5.750044
v -11.54046 -6.351664 5.750035
v 13.26396 6.783558 5.750035
v -7.033603 -10.83501 5.750044
v 14.15777 0.007858097 5.749043
v -0.0003125 -12.60485 5.74906
v 11.53983 -6.351664 5.750035
v 7.025225 -10.63934 5.750044
v -0.0003173828 0.007858285 -1.466278
v -8.360004 12.88697 -0.3022192
v -14.54566 7.524769 -0.3022265
v -0.0003125 14.15443 -0.3031201
v -16.02408 0.007857669 -0.303136
v 8.359387 12.88697 -0.3022205
v -12.65503 -7.092875 -0.3022265
v 14.54504 7.524768 -0.302229
v -7.715498 -11.95158 -0.3022192
v 16.02344 0.0078581 -0.3031372
v -0.0003125 -14.00254 -0.3031201
v 12.6544 -7.092874 -0.302229
v 7.707121 -11.75592 -0.3022205
vt 0.01237059 0.8615077
vt 0.6327724 0.8615077
vt 0.5966811 0.1464657
vt 0.03523743 0.1464657
vt 0.9097486 0.8615077
vt 0.0995748 0.8615077
vt 0.1531179 0.1464657
vt 0.8847123 0.1464657
vt 0.01477838 0.8615077
vt 0.5820446 0.8615077
vt 0.5440178 0.1464657
vt 0.0306592 0.1464657
vt 0.9753335 0.8615077
vt 0.05972219 0.8615077
vt 0.1191161 0.1464657
vt 0.9462807 0.1464657
vt 0.1089454 0.8615077
vt 0.9524875 0.8615077
vt 0.9221268 0.1464657
vt 0.1600547 0.1464657
vt 0.08638275 0.8615077
vt 0.9531981 0.8615077
vt 0.9149623 0.1464657
vt 0.1322221 0.1464657
vt 0.9936099 0.8615077
vt 0.9559929 0.1464657
vt 0.07981646 0.1464657
vt 0.0233314 0.8615077
vt 0.6434261 0.8615077
vt 0.6039408 0.1464657
vt 0.08186638 0.1464657
vt 0.06652761 0.8615077
vt 0.08379921 0.8615077
vt 0.136694 0.1464657
vt 0.9616842 0.1464657
vt 0.9969865 0.8615077
vt 0.9981122 0.8615077
vt 0.9623682 0.1464657
vt 0.1046419 0.1464657
vt 0.04868996 0.8615077
vt 0.607774 0.8615077
vt 0.5808144 0.1464657
vt 0.1522679 0.1464657
vt 0.1342279 0.8615077
vt 0.9890069 0.8615077
vt 0.9373006 0.1464657
vt 0.1049963 0.1464657
vt 0.06731206 0.8615077
vt 0.9237778 0.06272042
vt 0.9182273 0.03576314
vt 0.929271 0.0357635
vt 0.943868 0.04263771
vt 0.9036628 0.04260564
vt 0.9507422 0.05723464
vt 0.8968204 0.05717003
vt 0.9507425 0.06827831
vt 0.8968207 0.0682137
vt 0.9439 0.08284271
vt 0.903695 0.08281064
vt 0.9293357 0.08968508
vt 0.9182919 0.08968484
vt 0.9236529 0.06271911
vt 0.9302424 0.03037429
vt 0.9170063 0.03037393
vt 0.9477804 0.03859901
vt 0.8995007 0.03856707
vt 0.9560052 0.05613708
vt 0.8913077 0.05607259
vt 0.9560055 0.06937313
vt 0.891308 0.06930864
vt 0.9478124 0.08687866
vt 0.8995327 0.08684671
vt 0.9303069 0.09507167
vt 0.9170707 0.09507143
vn -0.6603312 0.3806064 -0.6473804
vn -0.3537742 0.6274636 -0.6936377
vn -0.2780235 0.6227869 0.7313271
vn -0.582463 0.3341852 0.7409838
vn 0.660332 0.380606 -0.64738
vn 0.7623985 -0.09219286 -0.6405069
vn 0.6552683 -0.0896305 0.7500598
vn 0.5824639 0.3341848 0.7409834
vn 0.3244306 0.700061 -0.6361284
vn 0.660332 0.380606 -0.64738
vn 0.5824639 0.3341848 0.7409834
vn 0.2780235 0.622787 0.7313271
vn -0.3537742 0.6274636 -0.6936377
vn 0.1288052 0.764895 -0.6311458
vn 0 0.6695899 0.742731
vn -0.2780235 0.6227869 0.7313271
vn 0.1288052 0.764895 -0.6311458
vn 0.3244306 0.700061 -0.6361284
vn 0.2780235 0.622787 0.7313271
vn 0 0.6695899 0.742731
vn -0.8211899 -0.1094848 -0.5600537
vn -0.6603312 0.3806064 -0.6473804
vn -0.582463 0.3341852 0.7409838
vn -0.6552684 -0.08963072 0.7500598
vn 0.6322945 -0.4346149 -0.6413373
vn 0.5565403 -0.3836385 0.7369426
vn 0.6552683 -0.0896305 0.7500598
vn 0.7623985 -0.09219286 -0.6405069
vn 0.3794708 -0.6943758 -0.6114279
vn 0.3329203 -0.6132976 0.7162612
vn 0.5565403 -0.3836385 0.7369426
vn 0.6322945 -0.4346149 -0.6413373
vn 0.01005534 -0.7983838 -0.602065
vn 0.00964512 -0.7025519 0.711567
vn 0.3329203 -0.6132976 0.7162612
vn 0.3794708 -0.6943758 -0.6114279
vn -0.4889249 -0.7060717 -0.5122647
vn -0.333551 -0.6146686 0.714791
vn 0.00964512 -0.7025519 0.711567
vn 0.01005534 -0.7983838 -0.602065
vn -0.7096646 -0.4787308 -0.5169072
vn -0.5577295 -0.3772534 0.7393359
vn -0.333551 -0.6146686 0.714791
vn -0.4889249 -0.7060717 -0.5122647
vn -0.8211899 -0.1094848 -0.5600537
vn -0.6552684 -0.08963072 0.7500598
vn -0.5577295 -0.3772534 0.7393359
vn -0.7096646 -0.4787308 -0.5169072
vn -4.474387E-07 9.047081E-05 1
vn -0.582463 0.3341852 0.7409838
vn -0.2780235 0.6227869 0.7313271
vn 0 0.6695899 0.742731
vn -0.6552684 -0.08963072 0.7500598
vn 0.2780235 0.622787 0.7313271
vn -0.5577295 -0.3772534 0.7393359
vn 0.5824639 0.3341848 0.7409834
vn -0.333551 -0.6146686 0.714791
vn 0.6552683 -0.0896305 0.7500598
vn 0.00964512 -0.7025519 0.711567
vn 0.5565403 -0.3836385 0.7369426
vn 0.3329203 -0.6132976 0.7162612
vn -6.664724E-07 0.0005567908 -0.9999999
vn -0.3537742 0.6274636 -0.6936377
vn -0.6603312 0.3806064 -0.6473804
vn 0.1288052 0.764895 -0.6311458
vn -0.8211899 -0.1094848 -0.5600537
vn 0.3244306 0.700061 -0.6361284
vn -0.7096646 -0.4787308 -0.5169072
vn 0.660332 0.380606 -0.64738
vn -0.4889249 -0.7060717 -0.5122647
vn 0.7623985 -0.09219286 -0.6405069
vn 0.01005534 -0.7983838 -0.602065
vn 0.6322945 -0.4346149 -0.6413373
vn 0.3794708 -0.6943758 -0.6114279
g Fortification_0
f 3/3/3 2/2/2 1/1/1
f 4/4/4 3/3/3 1/1/1
f 7/7/7 6/6/6 5/5/5
f 8/8/8 7/7/7 5/5/5
f 11/11/11 10/10/10 9/9/9
f 12/12/12 11/11/11 9/9/9
f 15/15/15 14/14/14 13/13/13
f 16/16/16 15/15/15 13/13/13
f 19/19/19 18/18/18 17/17/17
f 20/20/20 19/19/19 17/17/17
f 23/23/23 22/22/22 21/21/21
f 24/24/24 23/23/23 21/21/21
f 27/27/27 26/26/26 25/25/25
f 28/28/28 27/27/27 25/25/25
f 31/31/31 30/30/30 29/29/29
f 32/32/32 31/31/31 29/29/29
f 35/35/35 34/34/34 33/33/33
f 36/36/36 35/35/35 33/33/33
f 39/39/39 38/38/38 37/37/37
f 40/40/40 39/39/39 37/37/37
f 43/43/43 42/42/42 41/41/41
f 44/44/44 43/43/43 41/41/41
f 47/47/47 46/46/46 45/45/45
f 48/48/48 47/47/47 45/45/45
f 51/51/51 50/50/50 49/49/49
f 52/52/52 51/51/51 49/49/49
f 50/50/50 53/53/53 49/49/49
f 54/54/54 52/52/52 49/49/49
f 53/53/53 55/55/55 49/49/49
f 56/56/56 54/54/54 49/49/49
f 55/55/55 57/57/57 49/49/49
f 58/58/58 56/56/56 49/49/49
f 57/57/57 59/59/59 49/49/49
f 60/60/60 58/58/58 49/49/49
f 59/59/59 61/61/61 49/49/49
f 61/61/61 60/60/60 49/49/49
f 64/64/64 63/63/63 62/62/62
f 63/63/63 65/65/65 62/62/62
f 66/66/66 64/64/64 62/62/62
f 65/65/65 67/67/67 62/62/62
f 68/68/68 66/66/66 62/62/62
f 67/67/67 69/69/69 62/62/62
f 70/70/70 68/68/68 62/62/62
f 69/69/69 71/71/71 62/62/62
f 72/72/72 70/70/70 62/62/62
f 71/71/71 73/73/73 62/62/62
f 74/74/74 72/72/72 62/62/62
f 73/73/73 74/74/74 62/62/62
