g Fortification4
v -18.0851 -1.089904 -9.097033
v -22.44216 -10.14053 -9.107768
v -18.13952 -5.667485 -13.62732
v -16.38682 -1.937131 -13.56013
v -11.95851 3.563578 -9.090331
v -18.0851 -1.089904 -9.097033
v -16.38682 -1.937131 -13.56013
v -9.513138 0.767583 -18.81454
v -8.410567 2.465995 -14.90555
v -11.95851 3.563578 -9.090331
v -9.513138 0.767583 -18.81454
v 1.027917E-05 3.389457 -18.81034
v -3.739573 4.336063 -13.28355
v -5.720765 3.989914 -12.71866
v 1.13674E-05 6.876819 -9.088059
v 7.407552 3.994332 -11.40379
v 1.13674E-05 6.876819 -9.088059
v 1.027917E-05 3.389457 -18.81034
v 11.95852 3.563578 -9.090334
v 9.513148 0.767583 -18.81454
v 14.10742 0.8563696 -11.33974
v 11.95852 3.563578 -9.090334
v 9.513148 0.767583 -18.81454
v 18.08511 -1.089904 -9.097036
v 14.37329 -2.941622 -18.8517
v 17.49389 -5.084628 -14.40284
v 17.78145 -10.14053 -18.91996
v 22.44216 -10.14053 -9.107774
v 18.08511 -1.089904 -9.097036
v 14.37329 -2.941622 -18.8517
v -9.513138 0.767583 -18.81454
v -6.437386 -2.759193 -18.76793
v 7.20536E-06 -0.9850122 -18.76509
v 1.027917E-05 3.389457 -18.81034
v 6.437392 -2.759193 -18.76793
v 9.513148 0.767583 -18.81454
v 9.726176 -5.269151 -18.79307
v 14.37329 -2.941622 -18.8517
v -18.0851 -1.089904 -9.097033
v -14.5175 -10.14053 -9.099664
v -22.44216 -10.14053 -9.107768
v -11.69899 -4.285815 -9.092719
v -11.95851 3.563578 -9.090331
v -7.735781 -1.275548 -9.088384
v 22.44216 -10.14053 -9.107774
v 14.5175 -10.14053 -9.099668
v 11.69899 -4.285815 -9.092721
v 18.08511 -1.089904 -9.097036
v 17.16451 -7.848519 24.94789
v 11.48529 -10.23132 24.19406
v 7.58424 -7.761754 25.01907
v 11.33448 -4.157803 26.18085
v 1.163011E-05 -6.034372 25.59507
v 1.516332E-05 -1.576271 27.04168
v -18.98109 -3.441708 16.62977
v -12.11023 -6.181241 15.37378
v -8.000003 -3.579214 16.24304
v -12.53889 0.6366015 17.99221
v 1.170909E-05 -1.747982 16.85386
v 1.53326E-05 3.506804 18.94959
v -12.53889 0.6366015 17.99221
v -6.186056 -1.311884 23.89877
v -11.33447 -4.157803 26.18085
v 1.53326E-05 3.506804 18.94959
v 1.516332E-05 -1.576271 27.04168
v 7.407552 3.994332 -11.40379
v 5.638186 0.308634 -9.559213
v 7.324197E-06 0.8677417 -9.086914
v 1.13674E-05 6.876819 -9.088059
v 11.95852 3.563578 -9.090334
v 9.248996 0.3360351 -7.233468
v 5.638186 0.308634 -9.559213
v 7.407552 3.994332 -11.40379
v 14.10742 0.8563696 -11.33974
v 10.45561 -1.914636 -9.48476
v 9.248996 0.3360351 -7.233468
v 11.95852 3.563578 -9.090334
v 18.08511 -1.089904 -9.097036
v 11.69899 -4.285815 -9.092721
v 10.45561 -1.914636 -9.48476
v 14.10742 0.8563696 -11.33974
v 18.9811 -3.441707 16.62977
v 20.59349 -8.799316 17.68904
v 19.45613 -8.371886 19.69556
v 17.16451 -7.848519 24.94789
v -6.186056 -1.311884 23.89877
v -6.186056 -3.611208 23.13064
v -8.148189 -8.16188 20.08195
v -11.33447 -4.157803 26.18085
v 1.516332E-05 -1.576271 27.04168
v 1.163011E-05 -6.034372 25.59507
v -6.186056 -3.611208 23.13064
v -6.186056 -1.311884 23.89877
v -16.38682 -1.937131 -13.56013
v -11.79845 -4.153194 -11.56049
v -6.437386 -2.759193 -18.76793
v -9.513138 0.767583 -18.81454
v -18.13952 -5.667485 -13.62732
v -12.90552 -7.11539 -11.62722
v -11.79845 -4.153194 -11.56049
v -16.38682 -1.937131 -13.56013
v -22.44216 -10.14053 -9.107768
v -14.5175 -10.14053 -9.099664
v -12.90552 -7.11539 -11.62722
v -18.13952 -5.667485 -13.62732
v 1.516332E-05 -1.576271 27.04168
v 1.53326E-05 3.506804 18.94959
v 5.947223 0.02112423 21.87738
v 11.87109 -2.021731 22.53254
v 9.828613 1.256998 18.19915
v 11.33448 -4.157803 26.18085
v 18.9811 -3.441707 16.62977
v 17.16451 -7.848519 24.94789
v 11.33448 -4.157803 26.18085
v 11.87109 -2.021731 22.53254
v 5.947223 0.02112423 21.87738
v 4.264779 -2.462446 19.79219
v 8.149283 -1.228721 16.11601
v 9.828613 1.256998 18.19915
v 1.53326E-05 3.506804 18.94959
v 1.191919E-05 -1.747982 16.85386
v 4.264779 -2.462446 19.79219
v 5.947223 0.02112423 21.87738
v 9.828613 1.256998 18.19915
v 8.149283 -1.228721 16.11601
v 9.279869 -4.139791 20.56991
v 11.87109 -2.021731 22.53254
v 11.87109 -2.021731 22.53254
v 9.279869 -4.139791 20.56991
v 12.11024 -6.181241 15.37378
v 18.9811 -3.441707 16.62977
v -8.410567 2.465995 -14.90555
v -6.749352 -1.000312 -13.17282
v -7.735781 -1.275548 -9.088384
v -11.95851 3.563578 -9.090331
v -5.720765 3.989914 -12.71866
v -4.058412 0.5240442 -10.98558
v -6.749352 -1.000312 -13.17282
v -8.410567 2.465995 -14.90555
v -3.739573 4.336063 -13.28355
v -2.074971 0.8716821 -11.54805
v -4.058412 0.5240442 -10.98558
v -5.720765 3.989914 -12.71866
v 1.13674E-05 6.876819 -9.088059
v 7.435285E-06 0.8677417 -9.086914
v -2.074971 0.8716821 -11.54805
v -3.739573 4.336063 -13.28355
v -15.78165 -4.518772 21.73611
v -18.98109 -3.441708 16.62977
v -12.53889 0.6366015 17.99221
v -14.16998 -2.432945 20.5556
v -11.33447 -4.157803 26.18085
v -11.33447 -4.157803 26.18085
v -8.148189 -8.16188 20.08195
v -7.30514 -5.861865 16.944
v -14.16998 -2.432945 20.5556
v -14.16998 -2.432945 20.5556
v -7.30514 -5.861865 16.944
v -8.916793 -7.947699 18.12455
v -15.78165 -4.518772 21.73611
v -15.78165 -4.518772 21.73611
v -8.916793 -7.947699 18.12455
v -12.11023 -6.181241 15.37378
v -18.98109 -3.441708 16.62977
v 17.49389 -5.084628 -14.40284
v 11.2567 -6.807334 -12.02829
v 11.54833 -11.86548 -16.53906
v 17.78145 -10.14053 -18.91996
v 14.37329 -2.941622 -18.8517
v 9.726176 -5.269151 -18.79307
v 11.2567 -6.807334 -12.02829
v 17.49389 -5.084628 -14.40284
vt 0.964546 0.8615077
vt 0.1493707 0.8615077
vt 0.5993593 0.5317687
vt 0.9344013 0.5343509
vt 0.06720436 0.8615077
vt 0.6240561 0.8615077
vt 0.5998655 0.5343509
vt 0.1283677 0.1464657
vt 0.7606992 0.433834
vt 0.9634749 0.8615077
vt 0.8708579 0.1464657
vt 0.1985204 0.1464657
vt 0.417081 0.552995
vt 0.5524925 0.5945688
vt 0.1177989 0.8615077
vt 0.6631319 0.691297
vt 0.1287107 0.8615077
vt 0.2148439 0.1464657
vt 0.9583639 0.8615077
vt 0.874442 0.1464657
vt 0.3705457 0.696873
vt 0.6346632 0.8615077
vt 0.5665606 0.1464657
vt 0.07392102 0.8615077
vt 0.120628 0.1464657
vt 0.6418588 0.474659
vt 0.227795 0.1464657
vt 0.1279131 0.8615077
vt 0.9514793 0.8615077
vt 0.8816136 0.1464657
vt 0.9279118 0.03985977
vt 0.9279118 0.03985977
vt 0.9403272 0.04563701
vt 0.9403272 0.04563701
vt 0.9461425 0.05803454
vt 0.9461425 0.05803454
vt 0.9461305 0.06735981
vt 0.9461305 0.06735981
vt 0.9175189 0.03401077
vt 0.901944 0.04125726
vt 0.901944 0.04125726
vt 0.9175189 0.03401077
vt 0.9292465 0.03400159
vt 0.9292465 0.03400159
vt 0.9449021 0.08418226
vt 0.9449021 0.08418226
vt 0.9521368 0.06860209
vt 0.9521368 0.06860209
vt 0.9507425 0.06827831
vt 0.9507425 0.06827831
vt 0.9507422 0.05723464
vt 0.9507422 0.05723464
vt 0.943868 0.04263771
vt 0.943868 0.04263771
vt 0.9170063 0.03037393
vt 0.9170063 0.03037393
vt 0.9302424 0.03037429
vt 0.9302424 0.03037429
vt 0.9477804 0.03859901
vt 0.9477804 0.03859901
vt 0.9753335 0.8615077
vt 0.5511358 0.3825204
vt 0.9462807 0.1464657
vt 0.05972219 0.8615077
vt 0.1191161 0.1464657
vt 0.7154486 0.3284099
vt 0.7154486 0.2822057
vt 0.6692445 0.2822057
vt 0.6692445 0.3284099
vt 0.7154486 0.3284099
vt 0.7154486 0.2822057
vt 0.6692445 0.2822057
vt 0.6692445 0.3284099
vt 0.7154486 0.3284099
vt 0.7154486 0.2822057
vt 0.6692445 0.2822057
vt 0.6692445 0.3284099
vt 0.7154486 0.3284099
vt 0.7154486 0.2822057
vt 0.6692445 0.2822057
vt 0.6692445 0.3284099
vt 0.9097486 0.8615077
vt 0.4856259 0.6533631
vt 0.6126727 0.5153444
vt 0.8847123 0.1464657
vt 0.6626564 0.3225314
vt 0.6626564 0.3584548
vt 0.6985798 0.3584548
vt 0.6985798 0.3225314
vt 0.6626564 0.3225314
vt 0.6626564 0.3584548
vt 0.6985798 0.3584548
vt 0.6985798 0.3225314
vt 0.7575925 0.6168245
vt 0.7575925 0.6683208
vt 0.8090888 0.6683208
vt 0.8090888 0.6168245
vt 0.7575925 0.6168245
vt 0.7575925 0.6683208
vt 0.8090888 0.6683208
vt 0.8090888 0.6168245
vt 0.7575925 0.6168245
vt 0.7575925 0.6683208
vt 0.8090888 0.6683208
vt 0.8090888 0.6168245
vt 0.1600547 0.1464657
vt 0.1089454 0.8615077
vt 0.530398 0.5626692
vt 0.9356534 0.4650412
vt 0.770155 0.8615077
vt 0.9221268 0.1464657
vt 0.5820446 0.8615077
vt 0.5440178 0.1464657
vt 0.0306592 0.1464657
vt 0.02358375 0.4650412
vt 0.7595844 0.6188168
vt 0.7595844 0.6699382
vt 0.8107061 0.6699382
vt 0.8107061 0.6188168
vt 0.7595844 0.6188168
vt 0.7595844 0.6699382
vt 0.8107061 0.6699382
vt 0.8107061 0.6188168
vt 0.7595844 0.6188168
vt 0.7595844 0.6699382
vt 0.8107061 0.6699382
vt 0.8107061 0.6188168
vt 0.7595844 0.6188168
vt 0.7595844 0.6699382
vt 0.8107061 0.6699382
vt 0.8107061 0.6188168
vt 0.7107922 0.3155592
vt 0.7107922 0.2910125
vt 0.6862455 0.2910125
vt 0.6862455 0.3155592
vt 0.7107922 0.3155592
vt 0.7107922 0.2910125
vt 0.6862455 0.2910125
vt 0.6862455 0.3155592
vt 0.7107922 0.3155592
vt 0.7107922 0.2910125
vt 0.6862455 0.2910125
vt 0.6862455 0.3155592
vt 0.7107922 0.3155592
vt 0.7107922 0.2910125
vt 0.6862455 0.2910125
vt 0.6862455 0.3155592
vt 0.2355778 0.4622833
vt 0.01237059 0.8615077
vt 0.6327724 0.8615077
vt 0.4199472 0.599395
vt 0.5966811 0.1464657
vt 0.7545122 0.6281821
vt 0.7545122 0.6497445
vt 0.7760746 0.6497445
vt 0.7760746 0.6281821
vt 0.7545122 0.6281821
vt 0.7545122 0.6497445
vt 0.7760746 0.6497445
vt 0.7760746 0.6281821
vt 0.7545122 0.6281821
vt 0.7545122 0.6497445
vt 0.7760746 0.6497445
vt 0.7760746 0.6281821
vt 0.6772078 0.2801701
vt 0.6772078 0.330011
vt 0.7270488 0.330011
vt 0.7270488 0.2801701
vt 0.6772078 0.2801701
vt 0.6772078 0.330011
vt 0.7270488 0.330011
vt 0.7270488 0.2801701
vn -0.598235 0.5312676 0.5998913
vn -0.4805171 -0.4054789 0.7776182
vn -0.4764997 -0.1243661 -0.870334
vn -0.6483248 0.391065 -0.6532558
vn -0.2799771 0.9039505 0.3232436
vn -0.598235 0.5312676 0.5998913
vn -0.6483248 0.391065 -0.6532558
vn -0.4544363 0.4851824 -0.7470514
vn -0.05654947 0.997993 -0.02849712
vn -0.2799771 0.9039505 0.3232436
vn -0.4544363 0.4851824 -0.7470514
vn -0.03856132 0.7599357 -0.6488533
vn -0.3785763 0.9204759 -0.09697476
vn -0.3414772 0.9318908 -0.1223637
vn -0.1005389 0.957599 0.2699926
vn 0.2296947 0.9732525 0.004478227
vn -0.1005389 0.957599 0.2699926
vn -0.03856132 0.7599357 -0.6488533
vn 0.3984077 0.8961118 0.1955888
vn 0.2936165 0.6871827 -0.6645068
vn 0.6208128 0.7839414 -0.005234259
vn 0.3984077 0.8961118 0.1955888
vn 0.2936165 0.6871827 -0.6645068
vn 0.7697058 0.5548871 0.315679
vn 0.699805 0.09707582 -0.707707
vn 0.4806718 0.2797928 -0.831066
vn 0.2840446 0.6476421 -0.7070208
vn 0.8739064 0.4193503 0.2458308
vn 0.7697058 0.5548871 0.315679
vn 0.699805 0.09707582 -0.707707
vn -0.4544363 0.4851824 -0.7470514
vn 0.003292437 -0.01034381 -0.9999411
vn -3.122778E-07 -0.01034398 -0.9999465
vn -0.03856132 0.7599357 -0.6488533
vn -0.005781084 -0.008174101 -0.9999499
vn 0.2936165 0.6871827 -0.6645068
vn -0.01064485 -0.003931732 -0.9999356
vn 0.699805 0.09707582 -0.707707
vn -0.598235 0.5312676 0.5998913
vn -0.001022716 -0.0006938418 0.9999993
vn -0.4805171 -0.4054789 0.7776182
vn -0.0009380473 -0.0005246167 0.9999994
vn -0.2799771 0.9039505 0.3232436
vn -0.0008417024 -0.0003320551 0.9999996
vn 0.8739064 0.4193503 0.2458308
vn 0.001022981 -0.0006939484 0.9999993
vn 0.001022981 -0.0006939484 0.9999993
vn 0.7697058 0.5548871 0.315679
vn 0.5287491 0.4842238 0.6971023
vn 0.004246396 -0.3108134 0.9504615
vn 0.002657342 -0.3093185 0.9509548
vn 0.2876776 0.5468367 0.7862641
vn 0.001942578 -0.3086456 0.9511751
vn 0.04234038 0.5556852 0.830314
vn -0.8900437 -0.01988064 -0.4554416
vn -0.02841645 0.3568212 -0.9337404
vn -0.018375 0.3662238 -0.9303454
vn -0.2883033 0.8423428 -0.4553459
vn -0.01387519 0.3704123 -0.9287639
vn 0.1643461 0.971402 -0.1713727
vn -0.2883033 0.8423428 -0.4553459
vn -0.2240681 0.5460271 0.807247
vn -0.6531376 -0.2693144 0.7077295
vn 0.1643461 0.971402 -0.1713727
vn 0.04234038 0.5556852 0.830314
vn 0.2296947 0.9732525 0.004478227
vn 0.05488672 0.3103232 0.9490452
vn 0.2418296 0.1386992 0.9603546
vn -0.1005389 0.957599 0.2699926
vn 0.3984077 0.8961118 0.1955888
vn 0.06970734 0.3444615 0.9362089
vn 0.05488672 0.3103232 0.9490452
vn 0.2296947 0.9732525 0.004478227
vn 0.6208128 0.7839414 -0.005234259
vn 0.2747888 0.1573064 0.9485493
vn 0.06970734 0.3444615 0.9362089
vn 0.3984077 0.8961118 0.1955888
vn 0.7697058 0.5548871 0.315679
vn -0.09252001 0.434768 0.8957773
vn 0.2747888 0.1573064 0.9485493
vn 0.6208128 0.7839414 -0.005234259
vn 0.409794 0.904299 0.1196329
vn 0.8734179 0.3150577 0.3713216
vn 0.8734179 0.3150577 0.3713216
vn 0.5287491 0.4842238 0.6971023
vn -0.2240681 0.5460271 0.807247
vn 0.1194584 -0.4859973 0.8657576
vn 0.473592 -0.5283132 0.7046956
vn -0.6531376 -0.2693144 0.7077295
vn 0.04234038 0.5556852 0.830314
vn -0.446022 -0.2787517 0.8505069
vn 0.1194584 -0.4859973 0.8657576
vn -0.2240681 0.5460271 0.807247
vn -0.6483248 0.391065 -0.6532558
vn -0.1670014 -0.588775 -0.7908568
vn -0.3718978 -0.7095709 -0.5984991
vn -0.4544363 0.4851824 -0.7470514
vn -0.4764997 -0.1243661 -0.870334
vn 0.1490884 -0.5206031 -0.8406814
vn -0.1670014 -0.588775 -0.7908568
vn -0.6483248 0.391065 -0.6532558
vn -0.4805171 -0.4054789 0.7776182
vn 0.03238757 -0.6979361 -0.7154273
vn 0.1490884 -0.5206031 -0.8406814
vn -0.4764997 -0.1243661 -0.870334
vn 0.04234038 0.5556852 0.830314
vn 0.1643461 0.971402 -0.1713727
vn 0.2119053 0.9479303 0.2377483
vn 0.3167892 0.8806494 0.35228
vn 0.3358124 0.9114569 0.2376476
vn 0.2876776 0.5468367 0.7862641
vn 0.409794 0.904299 0.1196329
vn 0.5287491 0.4842238 0.6971023
vn 0.2876776 0.5468367 0.7862641
vn 0.3167892 0.8806494 0.35228
vn 0.2119053 0.9479303 0.2377483
vn 0.2420037 0.5379558 -0.8074885
vn 0.09463562 0.4959218 -0.8631951
vn 0.3358124 0.9114569 0.2376476
vn 0.1643461 0.971402 -0.1713727
vn 0.5641583 0.2941662 -0.7714866
vn 0.2420037 0.5379558 -0.8074885
vn 0.2119053 0.9479303 0.2377483
vn 0.3358124 0.9114569 0.2376476
vn 0.09463562 0.4959218 -0.8631951
vn 0.1283953 0.6754332 -0.7261575
vn 0.3167892 0.8806494 0.35228
vn 0.3167892 0.8806494 0.35228
vn 0.1283953 0.6754332 -0.7261575
vn -0.2594955 0.8312318 -0.491646
vn 0.409794 0.904299 0.1196329
vn -0.05654947 0.997993 -0.02849712
vn 0.4117119 0.617395 0.6703109
vn 0.7498085 0.5926462 0.2942067
vn -0.2799771 0.9039505 0.3232436
vn -0.3414772 0.9318908 -0.1223637
vn -0.3633862 0.2715824 0.8911753
vn 0.4117119 0.617395 0.6703109
vn -0.05654947 0.997993 -0.02849712
vn -0.3785763 0.9204759 -0.09697476
vn -0.6251451 0.1039137 0.7735603
vn -0.3633862 0.2715824 0.8911753
vn -0.3414772 0.9318908 -0.1223637
vn -0.1005389 0.957599 0.2699926
vn -0.7510222 -0.01094006 0.6601865
vn -0.6251451 0.1039137 0.7735603
vn -0.3785763 0.9204759 -0.09697476
vn -0.5819143 -0.3631676 0.7276573
vn -0.8900437 -0.01988064 -0.4554416
vn -0.2883033 0.8423428 -0.4553459
vn -0.6247551 -0.08655439 0.7760086
vn -0.6531376 -0.2693144 0.7077295
vn -0.6531376 -0.2693144 0.7077295
vn -0.6863102 -0.7074319 -0.1688735
vn -0.4777896 -0.7841841 0.3959447
vn -0.6247551 -0.08655439 0.7760086
vn -0.6247551 -0.08655439 0.7760086
vn -0.4777896 -0.7841841 0.3959447
vn 0.1023541 -0.6564795 0.7473676
vn -0.5819143 -0.3631676 0.7276573
vn -0.5819143 -0.3631676 0.7276573
vn 0.1023541 -0.6564795 0.7473676
vn -0.4089382 -0.9125587 0.002470163
vn -0.8900437 -0.01988064 -0.4554416
vn 0.4806718 0.2797928 -0.831066
vn -0.2402173 -0.0740983 -0.9678869
vn -0.4249595 0.5891267 -0.6872693
vn 0.2840446 0.6476421 -0.7070208
vn 0.699805 0.09707582 -0.707707
vn 0.2426058 -0.8874231 -0.3919474
vn -0.2402173 -0.0740983 -0.9678869
vn 0.4806718 0.2797928 -0.831066
g Fortification4_0
f 3/3/3 2/2/2 1/1/1
f 4/4/4 3/3/3 1/1/1
f 7/7/7 6/6/6 5/5/5
f 8/8/8 7/7/7 5/5/5
f 11/11/11 10/10/10 9/9/9
f 9/9/9 12/12/12 11/11/11
f 12/12/12 9/9/9 13/13/13
f 13/13/13 9/9/9 14/14/14
f 13/13/13 15/15/15 12/12/12
f 18/18/18 17/17/17 16/16/16
f 18/18/18 16/16/16 19/19/19
f 20/20/20 18/18/18 19/19/19
f 23/23/23 22/22/22 21/21/21
f 23/23/23 21/21/21 24/24/24
f 25/25/25 23/23/23 24/24/24
f 28/28/28 27/27/27 26/26/26
f 26/26/26 29/29/29 28/28/28
f 26/26/26 30/30/30 29/29/29
f 33/33/33 32/32/32 31/31/31
f 34/34/34 33/33/33 31/31/31
f 35/35/35 33/33/33 34/34/34
f 36/36/36 35/35/35 34/34/34
f 37/37/37 35/35/35 36/36/36
f 38/38/38 37/37/37 36/36/36
f 41/41/41 40/40/40 39/39/39
f 40/40/40 42/42/42 39/39/39
f 39/39/39 42/42/42 43/43/43
f 42/42/42 44/44/44 43/43/43
f 47/47/47 46/46/46 45/45/45
f 48/48/48 47/47/47 45/45/45
f 51/51/51 50/50/50 49/49/49
f 52/52/52 51/51/51 49/49/49
f 53/53/53 51/51/51 52/52/52
f 54/54/54 53/53/53 52/52/52
f 57/57/57 56/56/56 55/55/55
f 58/58/58 57/57/57 55/55/55
f 59/59/59 57/57/57 58/58/58
f 60/60/60 59/59/59 58/58/58
f 63/63/63 62/62/62 61/61/61
f 62/62/62 64/64/64 61/61/61
f 62/62/62 65/65/65 64/64/64
f 68/68/68 67/67/67 66/66/66
f 69/69/69 68/68/68 66/66/66
f 72/72/72 71/71/71 70/70/70
f 73/73/73 72/72/72 70/70/70
f 76/76/76 75/75/75 74/74/74
f 77/77/77 76/76/76 74/74/74
f 80/80/80 79/79/79 78/78/78
f 81/81/81 80/80/80 78/78/78
f 84/84/84 83/83/83 82/82/82
f 85/85/85 84/84/84 82/82/82
f 88/88/88 87/87/87 86/86/86
f 89/89/89 88/88/88 86/86/86
f 92/92/92 91/91/91 90/90/90
f 93/93/93 92/92/92 90/90/90
f 96/96/96 95/95/95 94/94/94
f 97/97/97 96/96/96 94/94/94
f 100/100/100 99/99/99 98/98/98
f 101/101/101 100/100/100 98/98/98
f 104/104/104 103/103/103 102/102/102
f 105/105/105 104/104/104 102/102/102
f 108/108/108 107/107/107 106/106/106
f 106/106/106 109/109/109 108/108/108
f 110/110/110 108/108/108 109/109/109
f 106/106/106 111/111/111 109/109/109
f 114/114/114 113/113/113 112/112/112
f 115/115/115 114/114/114 112/112/112
f 118/118/118 117/117/117 116/116/116
f 119/119/119 118/118/118 116/116/116
f 122/122/122 121/121/121 120/120/120
f 123/123/123 122/122/122 120/120/120
f 126/126/126 125/125/125 124/124/124
f 127/127/127 126/126/126 124/124/124
f 130/130/130 129/129/129 128/128/128
f 131/131/131 130/130/130 128/128/128
f 134/134/134 133/133/133 132/132/132
f 135/135/135 134/134/134 132/132/132
f 138/138/138 137/137/137 136/136/136
f 139/139/139 138/138/138 136/136/136
f 142/142/142 141/141/141 140/140/140
f 143/143/143 142/142/142 140/140/140
f 146/146/146 145/145/145 144/144/144
f 147/147/147 146/146/146 144/144/144
f 150/150/150 149/149/149 148/148/148
f 148/148/148 151/151/151 150/150/150
f 150/150/150 151/151/151 152/152/152
f 155/155/155 154/154/154 153/153/153
f 156/156/156 155/155/155 153/153/153
f 159/159/159 158/158/158 157/157/157
f 160/160/160 159/159/159 157/157/157
f 163/163/163 162/162/162 161/161/161
f 164/164/164 163/163/163 161/161/161
f 167/167/167 166/166/166 165/165/165
f 168/168/168 167/167/167 165/165/165
f 171/171/171 170/170/170 169/169/169
f 172/172/172 171/171/171 169/169/169
