g Fortified_Body
v -22.4183 -5.480544 32.18407
v -19.49541 -5.480544 35.78965
v -19.41482 -16.68971 32.18407
v -16.88352 -15.22825 35.78965
v -11.20915 -24.89537 32.18406
v -9.747703 -22.36407 35.78965
v -16.06209 -5.480544 40.02486
v -13.91018 -13.5116 40.02486
v -13.91018 2.550497 40.02486
v -16.88352 4.267153 35.78965
v -8.031049 -19.39073 40.02486
v -5.061626E-06 -24.97596 35.78965
v -8.031049 8.429638 40.02486
v -9.747703 11.40298 35.78965
v -5.061626E-06 -21.54264 40.02486
v 9.747697 -22.36407 35.78965
v -8.811845 -0.3930334 44.49425
v -10.17504 -5.480544 44.49425
v -8.811845 -10.56807 44.49425
v -5.087514 3.331295 44.49425
v -5.087514 -14.29239 44.49425
v -5.061626E-06 10.58155 40.02486
v -5.061626E-06 4.69449 44.49425
v -5.061626E-06 14.01486 35.78965
v -7.575812 15.0768 32.18407
v -2.954006E-06 16.93775 32.18407
v 7.575809 15.0768 32.18407
v 9.747697 11.40298 35.78965
v 8.031039 8.429638 40.02486
v 5.087531 3.331295 44.49425
v 13.91018 2.550497 40.02486
v 16.88351 4.267153 35.78965
v 8.811852 -0.3930334 44.49425
v 16.06209 -5.480544 40.02486
v 19.49541 -5.480544 35.78965
v 10.17504 -5.480544 44.49425
v 2.74529 -0.7255725 46.46111
v 4.754983 -2.735261 46.46111
v -5.061626E-06 0.01002991 46.46111
v 5.490566 -5.480544 46.46111
v -5.061626E-06 -5.480544 47.86413
v -2.745285 -0.7255725 46.46111
v 4.754983 -8.225836 46.46111
v -4.754973 -2.73526 46.46111
v -5.490577 -5.480544 46.46111
v -4.754973 -8.225837 46.46111
v 8.811852 -10.56807 44.49425
v -2.745285 -10.23552 46.46111
v 2.74529 -10.23552 46.46111
v 13.91018 -13.5116 40.02486
v -5.061626E-06 -15.65559 44.49425
v -5.061626E-06 -10.97112 46.46111
v 5.087531 -14.29239 44.49425
v 8.031039 -19.39073 40.02486
v 16.88351 -15.22825 35.78965
v 22.4183 -5.480544 32.18407
v 19.41482 -16.68971 32.18407
v 11.20915 -24.89537 32.18406
v 20.71832 -5.406247 -11.00862
v 17.94259 4.952912 -11.0086
v 13.19349 -5.406247 -26.36935
v 11.42589 1.190494 -26.36936
v 10.35916 12.53635 -11.0086
v 4.237427 -2.95977 -41.17127
v 4.892969 -5.406247 -41.17126
v -4.787445E-06 -5.406247 -44.11496
v 6.596745 6.019651 -26.36936
v -4.887581E-06 15.31207 -11.0086
v 2.44648 -1.168814 -41.17127
v -4.787445E-06 7.787241 -26.36935
v -10.35916 12.53635 -11.0086
v -5.784035E-06 -0.5132849 -41.17126
v -2.446482 -1.168813 -41.17126
v -6.596743 6.019651 -26.36935
v -4.237436 -2.959768 -41.17126
v -4.892963 -5.406247 -41.17127
v -11.42589 1.190494 -26.36935
v -17.94259 4.952912 -11.0086
v -13.19349 -5.406247 -26.36935
v -20.71832 -5.406247 -11.0086
v -20.71832 -5.406247 -11.0086
v -17.94259 -15.76541 -11.0086
v -13.19349 -5.406247 -26.36935
v -11.42589 -12.00299 -26.36935
v -10.35916 -23.34884 -11.0086
v -4.237436 -7.852731 -41.17126
v -4.892963 -5.406247 -41.17127
v -4.787445E-06 -5.406247 -44.11496
v -6.596743 -16.83215 -26.36935
v -4.887581E-06 -26.12457 -11.0086
v -2.446482 -9.643687 -41.17126
v -4.787445E-06 -18.59974 -26.36935
v 10.35916 -23.34884 -11.0086
v -5.784035E-06 -10.29922 -41.17126
v 6.596745 -16.83215 -26.36936
v 17.94259 -15.76541 -11.0086
v 2.44648 -9.643685 -41.17127
v 4.237427 -7.852731 -41.17127
v 4.892969 -5.406247 -41.17126
v 11.42589 -12.00299 -26.36936
v 20.71832 -5.406247 -11.00862
v 13.19349 -5.406247 -26.36935
v -10.55188 11.23951 -26.53244
v -8.277746 11.21265 -41.66322
v -7.090959 18.47174 -26.53244
v -5.556048 16.90013 -41.66322
v 0.1941624 19.48667 -41.66322
v 0.2210375 21.76082 -26.53244
v 7.453266 18.2999 -26.53244
v 5.881644 16.76498 -41.66322
v 8.468198 11.01477 -41.66322
v 10.74233 10.9879 -26.53244
v 7.281405 3.755665 -26.53244
v 5.746492 5.327282 -41.66322
v -0.003709149 2.740736 -41.66322
v -0.03058574 0.466593 -26.53244
v -7.262816 3.927524 -26.53244
v -5.691198 5.462436 -41.66322
v -10.55188 11.23951 -26.53244
v -7.262816 3.927524 -26.53244
v -8.277746 11.21265 -41.66322
v -5.691198 5.462436 -41.66322
v -10.35916 12.53635 -11.0086
v -2.872944E-06 -5.406245 -10.36982
v -17.94259 4.952912 -11.0086
v -4.887581E-06 15.31207 -11.0086
v -20.71832 -5.406247 -11.0086
v 10.35916 12.53635 -11.0086
v -17.94259 -15.76541 -11.0086
v 17.94259 4.952912 -11.0086
v -10.35916 -23.34884 -11.0086
v 20.71832 -5.406247 -11.00862
v -4.887581E-06 -26.12457 -11.0086
v 17.94259 -15.76541 -11.0086
v 10.35916 -23.34884 -11.0086
v -9.747703 -22.36407 35.78965
v -8.362892 -19.84355 33.69619
v -9.457741 -22.28224 30.41565
v -4.606247E-06 -22.08438 33.69619
v -11.20915 -24.89537 32.18406
v -5.061626E-06 -24.97596 35.78965
v -16.78805 -15.05119 30.41566
v -19.41482 -16.68971 32.18407
v -22.4183 -5.480544 32.18407
v -19.38518 -5.087416 30.41566
v -19.49541 -5.480544 35.78965
v -16.72578 -5.358594 33.69619
v -16.88352 4.267153 35.78965
v -14.48495 3.004296 33.69619
v -9.747703 11.40298 35.78965
v -8.362892 9.126365 33.69619
v 9.747697 -22.36407 35.78965
v 8.362886 -19.84355 33.69619
v 9.457738 -22.28224 30.41565
v 11.20915 -24.89537 32.18406
v -7.575812 15.0768 32.18407
v -6.709552 12.3334 30.41566
v 16.78805 -15.05119 30.41566
v 19.41482 -16.68971 32.18407
v 22.4183 -5.480544 32.18407
v 19.38518 -5.087416 30.41566
v 19.49541 -5.480544 35.78965
v 16.72579 -5.358594 33.69619
v 16.88351 4.267153 35.78965
v 14.48495 3.004296 33.69619
v 9.747697 11.40298 35.78965
v 8.362886 9.126365 33.69619
v -2.686977E-06 14.02657 30.41566
v -2.954006E-06 16.93775 32.18407
v 7.575809 15.0768 32.18407
v 6.70955 12.3334 30.41566
v 0.09522392 11.11371 -41.48579
v -5.556048 16.90013 -41.66322
v -8.277746 11.21265 -41.66322
v -5.691198 5.462436 -41.66322
v 0.1941624 19.48667 -41.66322
v -0.003709149 2.740736 -41.66322
v 5.881644 16.76498 -41.66322
v 5.746492 5.327282 -41.66322
v 8.468198 11.01477 -41.66322
v -7.090959 18.47174 -26.53244
v 0.09522613 11.11371 -26.53244
v -10.55188 11.23951 -26.53244
v 0.2210375 21.76082 -26.53244
v -7.262816 3.927524 -26.53244
v 7.453266 18.2999 -26.53244
v -0.03058574 0.466593 -26.53244
v 10.74233 10.9879 -26.53244
v 7.281405 3.755665 -26.53244
vt 0.01969612 0.6721948
vt 0.0717908 0.691967
vt 0.06340287 0.5445262
vt 0.107042 0.5681816
vt 0.1465202 0.4382218
vt 0.1915092 0.4710937
vt 0.1387746 0.6900575
vt 0.1626766 0.598345
vt 0.1667096 0.7803836
vt 0.1118389 0.8141645
vt 0.2264659 0.5282613
vt 0.3156984 0.4379148
vt 0.2347613 0.8460158
vt 0.2031724 0.9048298
vt 0.3173727 0.5023527
vt 0.441443 0.4646018
vt 0.2340536 0.738943
vt 0.2187236 0.6877252
vt 0.2315477 0.6356862
vt 0.2727553 0.7757882
vt 0.2681426 0.5965394
vt 0.326825 0.8661642
vt 0.3247919 0.7879146
vt 0.3284646 0.9292667
vt 0.2383796 0.9656253
vt 0.3297425 0.9784975
vt 0.4203137 0.9608989
vt 0.4523175 0.8983557
vt 0.4177178 0.8412619
vt 0.3761289 0.7731024
vt 0.4822699 0.7721851
vt 0.5388203 0.8030712
vt 0.4128654 0.7342969
vt 0.5054778 0.6805298
vt 0.5724707 0.6789583
vt 0.4255151 0.6823527
vt 0.3498172 0.7300971
vt 0.3686852 0.7101996
vt 0.3234906 0.7378222
vt 0.3751172 0.6835294
vt 0.3221143 0.6848484
vt 0.2967986 0.7314746
vt 0.3672806 0.6571828
vt 0.2769227 0.7125834
vt 0.2691149 0.6862842
vt 0.2755721 0.6595647
vt 0.4100067 0.6310493
vt 0.2944342 0.6395755
vt 0.3474069 0.6381987
vt 0.4768461 0.5901824
vt 0.3194284 0.5814624
vt 0.3207359 0.6317945
vt 0.3714277 0.5938563
vt 0.4095026 0.5235066
vt 0.5308406 0.5571705
vt 0.6234696 0.6565087
vt 0.5731932 0.5312811
vt 0.4846665 0.4294372
vt 0.9836313 0.1381965
vt 0.8734788 0.07620227
vt 0.8586294 0.3105949
vt 0.7893488 0.2647203
vt 0.7550984 0.0355576
vt 0.6872959 0.447069
vt 0.7075807 0.4684519
vt 0.6349995 0.4975601
vt 0.712779 0.2355631
vt 0.6301494 0.02216879
vt 0.6620291 0.4342174
vt 0.6322311 0.2260623
vt 0.5054991 0.0381093
vt 0.6343095 0.4300078
vt 0.6066818 0.4347844
vt 0.5518939 0.2372078
vt 0.581682 0.4481514
vt 0.5618395 0.4699448
vt 0.4759352 0.2679225
vt 0.3879727 0.0811632
vt 0.4076058 0.3152018
vt 0.2791097 0.1453946
vt 0.9837517 0.1379623
vt 0.8735753 0.07598931
vt 0.8588081 0.3104027
vt 0.7895058 0.2645535
vt 0.7551525 0.03537437
vt 0.6875504 0.4469773
vt 0.7078499 0.4683503
vt 0.6352826 0.4974999
vt 0.7129164 0.2354245
vt 0.6301589 0.02203983
vt 0.662277 0.4341335
vt 0.632355 0.2259625
vt 0.5054804 0.03806481
vt 0.6345551 0.4299392
vt 0.5520169 0.2371588
vt 0.3879604 0.0812211
vt 0.6069289 0.4347305
vt 0.5819371 0.4481146
vt 0.5621055 0.4699186
vt 0.476074 0.2679304
vt 0.2791454 0.1455525
vt 0.4077756 0.3152619
vt 0.6797878 0.9429317
vt 0.8398786 0.9463676
vt 0.6846379 0.8628256
vt 0.8447157 0.8777743
vt 0.853662 0.809395
vt 0.6948787 0.7831534
vt 0.7112546 0.7042435
vt 0.8677785 0.7414927
vt 0.8859085 0.6744639
vt 0.7323156 0.6264005
vt 0.7591029 0.5504789
vt 0.9088961 0.6091616
vt 0.9356205 0.5457037
vt 0.7904934 0.4766184
vt 0.8277142 0.4045873
vt 0.9680811 0.4844946
vt 0.9699689 0.9342246
vt 0.9699026 0.8811243
vt 0.8688244 0.92801
vt 0.8687721 0.8862516
vt 0.6219215 0.3743844
vt 0.640249 0.3694735
vt 0.6219215 0.3645627
vt 0.6268324 0.3828902
vt 0.6268323 0.3560569
vt 0.6353381 0.387801
vt 0.6353381 0.3511461
vt 0.6451597 0.387801
vt 0.6451597 0.3511461
vt 0.6536655 0.3828902
vt 0.6536655 0.3560569
vt 0.6585764 0.3743843
vt 0.6585764 0.3645627
vt 0.6534451 0.3716039
vt 0.652665 0.3718879
vt 0.6530279 0.372788
vt 0.6516085 0.3701798
vt 0.6538559 0.372637
vt 0.6521886 0.3696027
vt 0.6530346 0.3751674
vt 0.6538335 0.375362
vt 0.6524646 0.3776855
vt 0.6518555 0.3771578
vt 0.6515964 0.3783639
vt 0.6511126 0.3777266
vt 0.6494118 0.3792405
vt 0.6492694 0.3784599
vt 0.6470575 0.3790571
vt 0.6472806 0.3782955
vt 0.6502441 0.3683905
vt 0.6499727 0.3691368
vt 0.6491344 0.3687985
vt 0.6492632 0.3680241
vt 0.6458283 0.378506
vt 0.6462464 0.3778166
vt 0.6469256 0.3688364
vt 0.6467345 0.3680914
vt 0.6445675 0.3693776
vt 0.6450444 0.3699745
vt 0.6438834 0.3701657
vt 0.6444691 0.3706603
vt 0.6429254 0.3722135
vt 0.6436734 0.372398
vt 0.6429407 0.3745203
vt 0.643703 0.3743588
vt 0.6448999 0.3768619
vt 0.6442919 0.3774089
vt 0.6433678 0.3757673
vt 0.6440896 0.3754205
vt 0.6277902 0.356622
vt 0.6374663 0.3830501
vt 0.6542203 0.3688853
vt 0.6542183 0.3469459
vt 0.6155268 0.3830521
vt 0.6400535 0.3301918
vt 0.601362 0.3662981
vt 0.6181141 0.3301938
vt 0.60136 0.3443586
vt 0.601362 0.3469458
vt 0.6277902 0.356622
vt 0.6155268 0.3301918
vt 0.60136 0.3688853
vt 0.6374663 0.3301938
vt 0.6181141 0.3830501
vt 0.6542203 0.3443586
vt 0.6400535 0.3830521
vt 0.6542183 0.366298
vn -0.9396781 -0.1075493 0.3247125
vn -0.8256206 -0.01791578 0.5639412
vn -0.8084904 -0.4667827 0.3584093
vn -0.6727401 -0.3884069 0.6297309
vn -0.562979 -0.7600109 0.3247123
vn -0.4283259 -0.7060505 0.5639412
vn -0.7060606 0 0.7081513
vn -0.6114663 -0.3530302 0.7081515
vn -0.6114664 0.3530303 0.7081515
vn -0.7923206 0.4574464 0.4036967
vn -0.3530307 -0.6114663 0.7081513
vn 0 -0.9148927 0.4036973
vn -0.3530308 0.6114661 0.7081515
vn -0.4434074 0.7341029 0.514279
vn -2.941958E-07 -0.7060605 0.7081515
vn 0.4283258 -0.7060506 0.5639412
vn -0.4821629 0.2783769 0.8306776
vn -0.5567538 0 0.8306776
vn -0.4821629 -0.2783769 0.8306776
vn -0.2783773 0.4821626 0.8306776
vn -0.278377 -0.4821628 0.8306776
vn -2.525643E-07 0.7060605 0.7081516
vn -4.06236E-07 0.5567536 0.8306777
vn -2.384346E-07 0.7717555 0.6359194
vn -0.3332532 0.8531233 0.4014011
vn -1.847108E-07 0.9042407 0.4270231
vn 0.3332528 0.8531235 0.401401
vn 0.443407 0.7341028 0.5142793
vn 0.3530302 0.6114662 0.7081515
vn 0.2783771 0.4821627 0.8306776
vn 0.6114665 0.3530303 0.7081513
vn 0.7923203 0.4574464 0.4036971
vn 0.4821633 0.2783766 0.8306774
vn 0.7060605 0 0.7081515
vn 0.8256206 -0.01791609 0.5639412
vn 0.5567539 0 0.8306776
vn 0.1784547 0.3090934 0.9341388
vn 0.3090933 0.1784547 0.9341388
vn -2.697448E-07 0.3569104 0.9341387
vn 0.3569099 0 0.9341388
vn -1.162004E-07 0 1
vn -0.1784556 0.3090934 0.9341387
vn 0.3090928 -0.1784545 0.934139
vn -0.3090932 0.1784554 0.9341387
vn -0.3569103 0 0.9341388
vn -0.309093 -0.1784553 0.9341388
vn 0.4821633 -0.2783766 0.8306774
vn -0.1784549 -0.3090934 0.9341388
vn 0.1784544 -0.3090934 0.9341388
vn 0.6114665 -0.3530303 0.7081513
vn -2.658999E-07 -0.5567536 0.8306777
vn 2.361667E-07 -0.3569103 0.9341387
vn 0.2783769 -0.4821629 0.8306776
vn 0.3530302 -0.6114664 0.7081514
vn 0.6727401 -0.388407 0.6297308
vn 0.9396778 -0.1075499 0.3247131
vn 0.8084903 -0.4667825 0.3584099
vn 0.562979 -0.7600106 0.3247129
vn 0.9594941 0 -0.2817291
vn 0.8309462 0.4797471 -0.2817287
vn 0.8902757 0 -0.4554221
vn 0.7710014 0.4451377 -0.455422
vn 0.479747 0.8309463 -0.2817287
vn 0.7262305 0.4192889 -0.5447807
vn 0.8385789 0 -0.5447802
vn -9.958767E-07 0 -1
vn 0.4451376 0.7710013 -0.4554222
vn 0 0.9594942 -0.2817285
vn 0.4192888 0.7262305 -0.5447808
vn -1.232359E-07 0.8902757 -0.4554221
vn -0.4797473 0.830946 -0.2817288
vn -5.412094E-07 0.8385789 -0.54478
vn -0.4192894 0.7262305 -0.5447804
vn -0.4451381 0.7710012 -0.4554222
vn -0.7262304 0.4192896 -0.5447803
vn -0.8385788 0 -0.5447804
vn -0.7710013 0.4451378 -0.455422
vn -0.8309464 0.4797468 -0.2817287
vn -0.8902757 0 -0.455422
vn -0.9594942 0 -0.2817287
vn -0.9594942 0 -0.2817287
vn -0.8309464 -0.4797469 -0.2817288
vn -0.8902757 0 -0.455422
vn -0.7710014 -0.4451379 -0.455422
vn -0.4797471 -0.8309462 -0.2817288
vn -0.7262307 -0.4192892 -0.5447803
vn -0.8385788 0 -0.5447804
vn -9.958767E-07 0 -1
vn -0.445138 -0.7710013 -0.4554219
vn 0 -0.9594942 -0.2817288
vn -0.4192895 -0.7262304 -0.5447804
vn -1.848539E-07 -0.8902758 -0.4554218
vn 0.4797468 -0.8309463 -0.2817288
vn -4.267982E-07 -0.8385789 -0.54478
vn 0.4451376 -0.7710015 -0.455422
vn 0.8309461 -0.4797472 -0.2817289
vn 0.4192888 -0.7262304 -0.5447809
vn 0.7262306 -0.4192886 -0.5447809
vn 0.8385789 0 -0.5447802
vn 0.7710014 -0.4451378 -0.455422
vn 0.9594941 0 -0.2817291
vn 0.8902757 0 -0.4554221
vn -0.9999301 0.011815 0.0002481683
vn -0.9829611 0.01161461 -0.1834463
vn -0.689936 0.7064357 0.157914
vn -0.6647552 0.6806529 -0.3079158
vn 0.01161513 0.9829609 -0.1834472
vn 0.01181567 0.9999301 0.000247818
vn 0.7064358 0.689936 0.1579134
vn 0.6806528 0.664755 -0.3079164
vn 0.9829611 -0.01161514 -0.1834463
vn 0.9999301 -0.01181573 0.0002481774
vn 0.6899363 -0.7064356 0.1579139
vn 0.6647553 -0.6806526 -0.307916
vn -0.0116155 -0.982961 -0.1834464
vn -0.01181612 -0.9999301 0.0002477765
vn -0.7064361 -0.6899357 0.1579137
vn -0.6806531 -0.6647549 -0.3079161
vn -0.9999301 0.011815 0.0002481683
vn -0.7064361 -0.6899357 0.1579137
vn -0.9829611 0.01161461 -0.1834463
vn -0.6806531 -0.6647549 -0.3079161
vn -0.4797473 0.830946 -0.2817288
vn -0.1699558 0.2943718 0.9404575
vn -0.8309464 0.4797468 -0.2817287
vn 0 0.9594942 -0.2817285
vn -0.9594942 0 -0.2817287
vn 0.479747 0.8309463 -0.2817287
vn -0.8309464 -0.4797469 -0.2817288
vn 0.8309462 0.4797471 -0.2817287
vn -0.4797471 -0.8309462 -0.2817288
vn 0.9594941 0 -0.2817291
vn 0 -0.9594942 -0.2817288
vn 0.8309461 -0.4797472 -0.2817289
vn 0.4797468 -0.8309463 -0.2817288
vn -0.4283259 -0.7060505 0.5639412
vn 0.1678321 -0.7518372 -0.6376309
vn -0.1065716 -0.6668145 -0.7375642
vn 5.076646E-07 -0.6297325 -0.776812
vn -0.562979 -0.7600109 0.3247123
vn 0 -0.9148927 0.4036973
vn -0.533568 -0.3080556 -0.7876591
vn -0.8084904 -0.4667827 0.3584093
vn -0.9396781 -0.1075493 0.3247125
vn -0.630766 0.2411127 -0.7375628
vn -0.8256206 -0.01791578 0.5639412
vn -0.567194 0.5212631 -0.6376329
vn -0.7923206 0.4574464 0.4036967
vn -0.5453625 0.3148655 -0.7768137
vn -0.4434074 0.7341029 0.514279
vn -0.6437541 0.3327968 -0.6890768
vn 0.4283258 -0.7060506 0.5639412
vn -0.1678314 -0.7518379 -0.6376304
vn 0.1065715 -0.6668151 -0.7375637
vn 0.562979 -0.7600106 0.3247129
vn -0.3332532 0.8531233 0.4014011
vn -0.5413812 0.4287519 -0.7232414
vn 0.5335677 -0.308055 -0.7876595
vn 0.8084903 -0.4667825 0.3584099
vn 0.9396778 -0.1075499 0.3247131
vn 0.6307644 0.2411143 -0.7375637
vn 0.8256206 -0.01791609 0.5639412
vn 0.5671969 0.5212641 -0.6376297
vn 0.7923203 0.4574464 0.4036971
vn 0.5453659 0.3148666 -0.7768108
vn 0.443407 0.7341028 0.5142793
vn 0.6437564 0.3327973 -0.6890745
vn 0 0.6212435 -0.7836176
vn -1.847108E-07 0.9042407 0.4270231
vn 0.3332528 0.8531235 0.401401
vn 0.5413821 0.4287515 -0.723241
vn -1.788666E-07 0 -1
vn -0.6647552 0.6806529 -0.3079158
vn -0.9829611 0.01161461 -0.1834463
vn -0.6806531 -0.6647549 -0.3079161
vn 0.01161513 0.9829609 -0.1834472
vn -0.0116155 -0.982961 -0.1834464
vn 0.6806528 0.664755 -0.3079164
vn 0.6647553 -0.6806526 -0.307916
vn 0.9829611 -0.01161514 -0.1834463
vn -0.689936 0.7064357 0.157914
vn 0 0 1
vn -0.9999301 0.011815 0.0002481683
vn 0.01181567 0.9999301 0.000247818
vn -0.7064361 -0.6899357 0.1579137
vn 0.7064358 0.689936 0.1579134
vn -0.01181612 -0.9999301 0.0002477765
vn 0.9999301 -0.01181573 0.0002481774
vn 0.6899363 -0.7064356 0.1579139
g Fortified_Body_0
f 3/3/3 2/2/2 1/1/1
f 3/3/3 4/4/4 2/2/2
f 5/5/5 4/4/4 3/3/3
f 5/5/5 6/6/6 4/4/4
f 4/4/4 7/7/7 2/2/2
f 6/6/6 8/8/8 4/4/4
f 4/4/4 8/8/8 7/7/7
f 2/2/2 7/7/7 9/9/9
f 2/2/2 9/9/9 10/10/10
f 6/6/6 11/11/11 8/8/8
f 12/12/12 11/11/11 6/6/6
f 10/10/10 9/9/9 13/13/13
f 10/10/10 13/13/13 14/14/14
f 12/12/12 15/15/15 11/11/11
f 16/16/16 15/15/15 12/12/12
f 7/7/7 17/17/17 9/9/9
f 8/8/8 18/18/18 7/7/7
f 7/7/7 18/18/18 17/17/17
f 11/11/11 19/19/19 8/8/8
f 8/8/8 19/19/19 18/18/18
f 9/9/9 20/20/20 13/13/13
f 9/9/9 17/17/17 20/20/20
f 15/15/15 21/21/21 11/11/11
f 11/11/11 21/21/21 19/19/19
f 14/14/14 13/13/13 22/22/22
f 13/13/13 20/20/20 23/23/23
f 13/13/13 23/23/23 22/22/22
f 14/14/14 22/22/22 24/24/24
f 25/25/25 14/14/14 24/24/24
f 25/25/25 24/24/24 26/26/26
f 24/24/24 27/27/27 26/26/26
f 24/24/24 28/28/28 27/27/27
f 24/24/24 22/22/22 29/29/29
f 24/24/24 29/29/29 28/28/28
f 22/22/22 23/23/23 30/30/30
f 22/22/22 30/30/30 29/29/29
f 28/28/28 29/29/29 31/31/31
f 28/28/28 31/31/31 32/32/32
f 29/29/29 30/30/30 33/33/33
f 29/29/29 33/33/33 31/31/31
f 32/32/32 31/31/31 34/34/34
f 32/32/32 34/34/34 35/35/35
f 31/31/31 33/33/33 36/36/36
f 31/31/31 36/36/36 34/34/34
f 23/23/23 37/37/37 30/30/30
f 30/30/30 38/38/38 33/33/33
f 30/30/30 37/37/37 38/38/38
f 23/23/23 39/39/39 37/37/37
f 20/20/20 39/39/39 23/23/23
f 33/33/33 38/38/38 40/40/40
f 33/33/33 40/40/40 36/36/36
f 37/37/37 41/41/41 38/38/38
f 39/39/39 41/41/41 37/37/37
f 38/38/38 41/41/41 40/40/40
f 42/42/42 41/41/41 39/39/39
f 20/20/20 42/42/42 39/39/39
f 40/40/40 41/41/41 43/43/43
f 36/36/36 40/40/40 43/43/43
f 17/17/17 42/42/42 20/20/20
f 17/17/17 44/44/44 42/42/42
f 44/44/44 41/41/41 42/42/42
f 18/18/18 44/44/44 17/17/17
f 18/18/18 45/45/45 44/44/44
f 45/45/45 41/41/41 44/44/44
f 19/19/19 45/45/45 18/18/18
f 19/19/19 46/46/46 45/45/45
f 46/46/46 41/41/41 45/45/45
f 21/21/21 46/46/46 19/19/19
f 36/36/36 43/43/43 47/47/47
f 34/34/34 36/36/36 47/47/47
f 21/21/21 48/48/48 46/46/46
f 48/48/48 41/41/41 46/46/46
f 43/43/43 41/41/41 49/49/49
f 47/47/47 43/43/43 49/49/49
f 34/34/34 47/47/47 50/50/50
f 35/35/35 34/34/34 50/50/50
f 51/51/51 48/48/48 21/21/21
f 15/15/15 51/51/51 21/21/21
f 52/52/52 41/41/41 48/48/48
f 49/49/49 41/41/41 52/52/52
f 51/51/51 52/52/52 48/48/48
f 47/47/47 49/49/49 53/53/53
f 53/53/53 49/49/49 52/52/52
f 53/53/53 52/52/52 51/51/51
f 50/50/50 47/47/47 53/53/53
f 54/54/54 51/51/51 15/15/15
f 54/54/54 53/53/53 51/51/51
f 50/50/50 53/53/53 54/54/54
f 16/16/16 54/54/54 15/15/15
f 35/35/35 50/50/50 55/55/55
f 55/55/55 50/50/50 54/54/54
f 55/55/55 54/54/54 16/16/16
f 56/56/56 35/35/35 55/55/55
f 56/56/56 55/55/55 57/57/57
f 57/57/57 55/55/55 16/16/16
f 57/57/57 16/16/16 58/58/58
f 61/61/61 60/60/60 59/59/59
f 61/61/61 62/62/62 60/60/60
f 62/62/62 63/63/63 60/60/60
f 64/64/64 62/62/62 61/61/61
f 64/64/64 61/61/61 65/65/65
f 65/65/65 66/66/66 64/64/64
f 62/62/62 67/67/67 63/63/63
f 67/67/67 68/68/68 63/63/63
f 69/69/69 62/62/62 64/64/64
f 64/64/64 66/66/66 69/69/69
f 69/69/69 67/67/67 62/62/62
f 67/67/67 70/70/70 68/68/68
f 70/70/70 71/71/71 68/68/68
f 72/72/72 67/67/67 69/69/69
f 69/69/69 66/66/66 72/72/72
f 72/72/72 70/70/70 67/67/67
f 72/72/72 66/66/66 73/73/73
f 73/73/73 70/70/70 72/72/72
f 70/70/70 74/74/74 71/71/71
f 73/73/73 74/74/74 70/70/70
f 73/73/73 66/66/66 75/75/75
f 75/75/75 74/74/74 73/73/73
f 75/75/75 66/66/66 76/76/76
f 77/77/77 71/71/71 74/74/74
f 75/75/75 77/77/77 74/74/74
f 76/76/76 77/77/77 75/75/75
f 77/77/77 78/78/78 71/71/71
f 76/76/76 79/79/79 77/77/77
f 77/77/77 80/80/80 78/78/78
f 77/77/77 79/79/79 80/80/80
f 83/83/83 82/82/82 81/81/81
f 83/83/83 84/84/84 82/82/82
f 84/84/84 85/85/85 82/82/82
f 86/86/86 84/84/84 83/83/83
f 86/86/86 83/83/83 87/87/87
f 87/87/87 88/88/88 86/86/86
f 84/84/84 89/89/89 85/85/85
f 89/89/89 90/90/90 85/85/85
f 91/91/91 84/84/84 86/86/86
f 86/86/86 88/88/88 91/91/91
f 91/91/91 89/89/89 84/84/84
f 89/89/89 92/92/92 90/90/90
f 92/92/92 93/93/93 90/90/90
f 94/94/94 89/89/89 91/91/91
f 91/91/91 88/88/88 94/94/94
f 94/94/94 92/92/92 89/89/89
f 92/92/92 95/95/95 93/93/93
f 95/95/95 96/96/96 93/93/93
f 97/97/97 92/92/92 94/94/94
f 94/94/94 88/88/88 97/97/97
f 97/97/97 95/95/95 92/92/92
f 97/97/97 88/88/88 98/98/98
f 98/98/98 95/95/95 97/97/97
f 98/98/98 88/88/88 99/99/99
f 95/95/95 100/100/100 96/96/96
f 98/98/98 100/100/100 95/95/95
f 99/99/99 100/100/100 98/98/98
f 100/100/100 101/101/101 96/96/96
f 99/99/99 102/102/102 100/100/100
f 100/100/100 102/102/102 101/101/101
f 105/105/105 104/104/104 103/103/103
f 105/105/105 106/106/106 104/104/104
f 107/107/107 106/106/106 105/105/105
f 107/107/107 105/105/105 108/108/108
f 107/107/107 108/108/108 109/109/109
f 107/107/107 109/109/109 110/110/110
f 111/111/111 110/110/110 109/109/109
f 111/111/111 109/109/109 112/112/112
f 111/111/111 112/112/112 113/113/113
f 111/111/111 113/113/113 114/114/114
f 115/115/115 114/114/114 113/113/113
f 115/115/115 113/113/113 116/116/116
f 115/115/115 116/116/116 117/117/117
f 115/115/115 117/117/117 118/118/118
f 121/121/121 120/120/120 119/119/119
f 121/121/121 122/122/122 120/120/120
f 125/125/125 124/124/124 123/123/123
f 123/123/123 124/124/124 126/126/126
f 127/127/127 124/124/124 125/125/125
f 126/126/126 124/124/124 128/128/128
f 129/129/129 124/124/124 127/127/127
f 128/128/128 124/124/124 130/130/130
f 131/131/131 124/124/124 129/129/129
f 130/130/130 124/124/124 132/132/132
f 133/133/133 124/124/124 131/131/131
f 132/132/132 124/124/124 134/134/134
f 135/135/135 124/124/124 133/133/133
f 134/134/134 124/124/124 135/135/135
f 138/138/138 137/137/137 136/136/136
f 136/136/136 137/137/137 139/139/139
f 138/138/138 136/136/136 140/140/140
f 136/136/136 139/139/139 141/141/141
f 142/142/142 138/138/138 140/140/140
f 142/142/142 140/140/140 143/143/143
f 144/144/144 142/142/142 143/143/143
f 144/144/144 145/145/145 142/142/142
f 146/146/146 145/145/145 144/144/144
f 146/146/146 147/147/147 145/145/145
f 148/148/148 147/147/147 146/146/146
f 148/148/148 149/149/149 147/147/147
f 150/150/150 149/149/149 148/148/148
f 150/150/150 151/151/151 149/149/149
f 139/139/139 152/152/152 141/141/141
f 139/139/139 153/153/153 152/152/152
f 152/152/152 153/153/153 154/154/154
f 152/152/152 154/154/154 155/155/155
f 156/156/156 151/151/151 150/150/150
f 156/156/156 157/157/157 151/151/151
f 155/155/155 154/154/154 158/158/158
f 155/155/155 158/158/158 159/159/159
f 158/158/158 160/160/160 159/159/159
f 158/158/158 161/161/161 160/160/160
f 161/161/161 162/162/162 160/160/160
f 161/161/161 163/163/163 162/162/162
f 163/163/163 164/164/164 162/162/162
f 163/163/163 165/165/165 164/164/164
f 165/165/165 166/166/166 164/164/164
f 165/165/165 167/167/167 166/166/166
f 168/168/168 157/157/157 156/156/156
f 168/168/168 156/156/156 169/169/169
f 167/167/167 170/170/170 166/166/166
f 170/170/170 168/168/168 169/169/169
f 167/167/167 171/171/171 170/170/170
f 170/170/170 171/171/171 168/168/168
f 174/174/174 173/173/173 172/172/172
f 174/174/174 172/172/172 175/175/175
f 176/176/176 172/172/172 173/173/173
f 175/175/175 172/172/172 177/177/177
f 178/178/178 172/172/172 176/176/176
f 177/177/177 172/172/172 179/179/179
f 180/180/180 172/172/172 178/178/178
f 179/179/179 172/172/172 180/180/180
f 183/183/183 182/182/182 181/181/181
f 184/184/184 181/181/181 182/182/182
f 183/183/183 185/185/185 182/182/182
f 186/186/186 184/184/184 182/182/182
f 185/185/185 187/187/187 182/182/182
f 188/188/188 186/186/186 182/182/182
f 187/187/187 189/189/189 182/182/182
f 189/189/189 188/188/188 182/182/182
