g Fortified1
v -12.06805 6.566308 18.99183
v -1.072786 1.309391 22.15454
v -18.25526 7.2128 21.93316
v -1.072712 5.784106 21.94591
v -1.072786 1.309391 22.15454
v -12.06805 6.566308 18.99183
v -21.71517 6.153496 -21.73003
v -24.8971 7.5642 -8.119511
v -26.93188 1.868952 -21.91903
v -30.28881 -1.50842 -8.194394
v -17.37398 5.989194 -7.851292
v -24.8971 7.5642 -8.119511
v -14.58166 5.35424 -21.47831
v -21.71517 6.153496 -21.73003
v -1.176512 4.15872 -7.704675
v -17.37398 5.989194 -7.851292
v -1.17698 3.478159 -21.60411
v -14.58166 5.35424 -21.47831
v 9.051927 5.578276 -11.0113
v -1.176512 4.15872 -7.704675
v -1.17698 3.478159 -21.60411
v 12.54538 6.331481 -21.49257
v 14.97815 7.652181 -7.943123
v 18.03039 7.678133 -11.24193
v 14.97815 7.652181 -7.943123
v 12.54538 6.331481 -21.49257
v 19.47776 6.892689 -21.78866
v 22.49062 7.970533 -8.179382
v 27.90901 -0.7330257 -8.194402
v 22.49062 7.970533 -8.179382
v 24.56768 1.82139 -21.91903
v 19.47776 6.892689 -21.78866
v -30.28881 -1.50842 -8.194394
v -25.38541 -9.167686 -8.179378
v -26.93188 1.868952 -21.91903
v -22.72351 -5.877817 -21.82354
v -17.6555 -8.338294 -8.170003
v -15.5791 -7.541689 -21.8216
v -25.38541 -9.167686 -8.179378
v -22.72351 -5.877817 -21.82354
v 15.35987 -8.269374 -8.170007
v 23.07336 -8.854467 -8.179382
v 13.22769 -7.53448 -21.82157
v 20.38026 -5.908961 -21.82355
v 27.90901 -0.7330257 -8.194402
v 24.56768 1.82139 -21.91903
v 23.07336 -8.854467 -8.179382
v 20.38026 -5.908961 -21.82355
v -15.5791 -7.541689 -21.8216
v -10.93098 -5.847629 -22.06495
v -22.72351 -5.877817 -21.82354
v -15.70117 -3.468116 -21.91777
v -18.88373 0.5731862 -21.84816
v -26.93188 1.868952 -21.91903
v -21.71517 6.153496 -21.73003
v -15.16653 2.329978 -21.73356
v -10.43959 1.650468 -21.82226
v -14.58166 5.35424 -21.47831
v -1.177052 1.023997 -22.15454
v -1.17698 3.478159 -21.60411
v 12.54538 6.331481 -21.49257
v 8.242275 1.681419 -21.81407
v 19.47776 6.892689 -21.78866
v 13.16992 2.807667 -21.7028
v 16.72988 0.7520564 -21.83388
v 24.56768 1.82139 -21.91903
v 20.38026 -5.908961 -21.82355
v 13.52652 -3.446523 -21.90866
v 8.576077 -5.831872 -22.06643
v 13.22769 -7.53448 -21.82157
v -1.176512 4.15872 -7.704675
v -1.17601 1.861839 -8.285128
v -17.37398 5.989194 -7.851292
v -12.03685 1.113376 -8.295331
v -17.17358 0.649808 -8.25019
v -24.8971 7.5642 -8.119511
v -20.78152 -2.76037 -8.212574
v -30.28881 -1.50842 -8.194394
v -25.38541 -9.167686 -8.179378
v -17.25291 -6.103078 -8.208611
v -17.6555 -8.338294 -8.170003
v -11.99099 -6.260882 -8.284209
v 18.50937 -1.877671 -8.186478
v 14.94449 1.729074 -8.183011
v 22.49062 7.970533 -8.179382
v 27.90901 -0.7330257 -8.194402
v 23.07336 -8.854467 -8.179382
v 14.98177 -5.6911 -8.17793
v 15.35987 -8.269374 -8.170007
v 9.655928 -5.974412 -8.229239
v -1.176512 4.15872 -7.704675
v 9.051927 5.578276 -11.0113
v -1.17601 1.861839 -8.285128
v 6.736793 2.153866 -8.826723
v 14.97815 7.652181 -7.943123
v 11.92031 3.299176 -8.112722
v 9.051927 5.578276 -11.0113
v 6.736793 2.153866 -8.826723
v 14.97815 7.652181 -7.943123
v 18.03039 7.678133 -11.24193
v 11.92031 3.299176 -8.112722
v 13.30277 2.62988 -8.685912
v 22.49062 7.970533 -8.179382
v 14.94449 1.729074 -8.183011
v 18.03039 7.678133 -11.24193
v 13.30277 2.62988 -8.685912
v -27.7624 6.7106 13.06346
v -22.82653 9.167686 13.25406
v -22.4971 5.180484 21.92229
v -18.25526 7.2128 21.93316
v 20.26937 5.611017 21.92229
v 25.04817 6.288085 13.06514
v 23.21216 -2.416051 21.9316
v 30.6417 -3.746211 12.98389
v 15.19515 7.237532 22.01974
v 18.3067 9.042866 13.40918
v 20.26937 5.611017 21.92229
v 25.04817 6.288085 13.06514
v -18.25526 7.2128 21.93316
v -22.82653 9.167686 13.25406
v -12.06805 6.566308 18.99183
v -1.322497 6.381238 13.25697
v -1.072712 5.784106 21.94591
v -1.072712 5.784106 21.94591
v -1.322497 6.381238 13.25697
v 15.19515 7.237532 22.01974
v 18.3067 9.042866 13.40918
v -30.6417 -1.602571 13.16657
v -27.7624 6.7106 13.06346
v -24.17096 -0.9287827 21.9316
v -22.4971 5.180484 21.92229
v 26.43607 -8.413836 12.95959
v 20.87121 -6.030869 21.92229
v 30.6417 -3.746211 12.98389
v 23.21216 -2.416051 21.9316
v -27.26181 -8.741775 13.07093
v -30.6417 -1.602571 13.16657
v -22.54975 -5.911318 21.92229
v -24.17096 -0.9287827 21.9316
v -1.072786 1.309391 22.15454
v -22.4971 5.180484 21.92229
v -18.25526 7.2128 21.93316
v -24.17096 -0.9287827 21.9316
v -22.54975 -5.911318 21.92229
v -1.072786 1.309391 22.15454
v -1.072712 5.784106 21.94591
v 15.19515 7.237532 22.01974
v 20.26937 5.611017 21.92229
v 23.21216 -2.416051 21.9316
v 20.87121 -6.030869 21.92229
v -1.317294 1.633585 12.63237
v 26.43607 -8.413836 12.95959
v 30.6417 -3.746211 12.98389
v 25.04817 6.288085 13.06514
v 18.3067 9.042866 13.40918
v -1.322497 6.381238 13.25697
v -22.82653 9.167686 13.25406
v -27.7624 6.7106 13.06346
v -30.6417 -1.602571 13.16657
v -27.26181 -8.741775 13.07093
vt 0.7260423 0.3096072
vt 0.7067243 0.2709715
vt 0.6874063 0.3096073
vt 0.7260423 0.3096072
vt 0.7067243 0.2709715
vt 0.6874063 0.3096073
vt 0.898661 0.1464657
vt 0.964546 0.8615077
vt 0.2515259 0.1464657
vt 0.1493707 0.8615077
vt 0.06720436 0.8615077
vt 0.6240561 0.8615077
vt 0.1283677 0.1464657
vt 0.5711845 0.1464657
vt 0.1177989 0.8615077
vt 0.9634749 0.8615077
vt 0.1985204 0.1464657
vt 0.8708579 0.1464657
vt 0.6631319 0.691297
vt 0.1287107 0.8615077
vt 0.2148439 0.1464657
vt 0.874442 0.1464657
vt 0.9583639 0.8615077
vt 0.3705457 0.696873
vt 0.6346632 0.8615077
vt 0.5665606 0.1464657
vt 0.120628 0.1464657
vt 0.07392102 0.8615077
vt 0.1279131 0.8615077
vt 0.9514793 0.8615077
vt 0.227795 0.1464657
vt 0.8816136 0.1464657
vt 0.1363106 0.8615077
vt 0.9670267 0.8615077
vt 0.2055488 0.1464657
vt 0.8652623 0.1464657
vt 0.5926995 0.8615077
vt 0.5234139 0.1464657
vt 0.02160311 0.8615077
vt 0.06924725 0.1464657
vt 0.0636791 0.8615077
vt 0.634038 0.8615077
vt 0.1440023 0.1464657
vt 0.5976186 0.1464657
vt 0.170561 0.8615077
vt 0.2615971 0.1464657
vt 0.9752903 0.8615077
vt 0.9005057 0.1464657
vt 0.9004527 0.0674032
vt 0.9004527 0.0674032
vt 0.9004641 0.05807722
vt 0.9004641 0.05807722
vt 0.9062588 0.04573226
vt 0.9062588 0.04573226
vt 0.918586 0.03989971
vt 0.918586 0.03989971
vt 0.9279118 0.03985977
vt 0.9279118 0.03985977
vt 0.9403272 0.04563701
vt 0.9403272 0.04563701
vt 0.9461425 0.05803454
vt 0.9461425 0.05803454
vt 0.9461305 0.06735981
vt 0.9461305 0.06735981
vt 0.9403345 0.07970357
vt 0.9403345 0.07970357
vt 0.9280086 0.08553731
vt 0.9280086 0.08553731
vt 0.9186834 0.08557796
vt 0.9186834 0.08557796
vt 0.9448669 0.04125988
vt 0.9448669 0.04125988
vt 0.9292465 0.03400159
vt 0.9292465 0.03400159
vt 0.9175189 0.03401077
vt 0.9175189 0.03401077
vt 0.901944 0.04125726
vt 0.901944 0.04125726
vt 0.8947094 0.0568378
vt 0.8947094 0.0568378
vt 0.8947092 0.06856537
vt 0.8947092 0.06856537
vt 0.9449021 0.08418226
vt 0.9521368 0.06860209
vt 0.9521368 0.06860209
vt 0.9449021 0.08418226
vt 0.9293273 0.091429
vt 0.9293273 0.091429
vt 0.9175998 0.09143829
vt 0.9175998 0.09143829
vt 0.6692445 0.3284099
vt 0.7154486 0.3284099
vt 0.6692445 0.2822057
vt 0.7154486 0.2822057
vt 0.7154486 0.3284099
vt 0.7154486 0.2822057
vt 0.6692445 0.3284099
vt 0.6692445 0.2822057
vt 0.6692445 0.3284099
vt 0.7154486 0.3284099
vt 0.6692445 0.2822057
vt 0.7154486 0.2822057
vt 0.7154486 0.3284099
vt 0.7154486 0.2822057
vt 0.6692445 0.3284099
vt 0.6692445 0.2822057
vt 0.01237059 0.8615077
vt 0.6327724 0.8615077
vt 0.03523743 0.1464657
vt 0.5966811 0.1464657
vt 0.8847123 0.1464657
vt 0.9097486 0.8615077
vt 0.1531179 0.1464657
vt 0.0995748 0.8615077
vt 0.0306592 0.1464657
vt 0.01477838 0.8615077
vt 0.5440178 0.1464657
vt 0.5820446 0.8615077
vt 0.9462807 0.1464657
vt 0.9753335 0.8615077
vt 0.5695366 0.3818266
vt 0.05972219 0.8615077
vt 0.1191161 0.1464657
vt 0.1600547 0.1464657
vt 0.1089454 0.8615077
vt 0.9221268 0.1464657
vt 0.9524875 0.8615077
vt 0.08638275 0.8615077
vt 0.9531981 0.8615077
vt 0.1322221 0.1464657
vt 0.9149623 0.1464657
vt 0.9936099 0.8615077
vt 0.9559929 0.1464657
vt 0.0233314 0.8615077
vt 0.07981646 0.1464657
vt 0.06731206 0.8615077
vt 0.9890069 0.8615077
vt 0.1049963 0.1464657
vt 0.9373006 0.1464657
vt 0.9237778 0.06272042
vt 0.9182273 0.03576314
vt 0.929271 0.0357635
vt 0.9036628 0.04260564
vt 0.8968204 0.05717003
vt 0.9237778 0.06272042
vt 0.943868 0.04263771
vt 0.9507422 0.05723464
vt 0.9507425 0.06827831
vt 0.9439 0.08284271
vt 0.9293357 0.08968508
vt 0.9236529 0.06271911
vt 0.9303069 0.09507167
vt 0.9478124 0.08687866
vt 0.9560055 0.06937313
vt 0.9560052 0.05613708
vt 0.9477804 0.03859901
vt 0.9302424 0.03037429
vt 0.9170063 0.03037393
vt 0.8995007 0.03856707
vt 0.8913077 0.05607259
vn 0.4039123 0.3898576 0.8275663
vn 0.4039122 0.3898575 0.8275663
vn 0.4039123 0.3898576 0.8275663
vn -0.4289778 0.01326524 0.9032176
vn -0.4289778 0.01326524 0.9032176
vn -0.4289778 0.01326524 0.9032177
vn -0.6465834 0.5244437 -0.5539753
vn -0.7666357 0.6215172 0.1612016
vn -0.8070694 0 -0.5904567
vn -0.9893025 0 0.1458788
vn -0.3802961 0.9142826 0.1395067
vn -0.7666357 0.6215172 0.1612016
vn -0.3325759 0.8043199 -0.4924052
vn -0.6465834 0.5244437 -0.5539753
vn -0.09867901 0.9785807 0.1806715
vn -0.3802961 0.9142826 0.1395067
vn -0.08676089 0.8530905 -0.5144988
vn -0.3325759 0.8043199 -0.4924052
vn 0.2264462 0.9738053 0.02062388
vn -0.09867901 0.9785807 0.1806715
vn -0.08676089 0.8530905 -0.5144988
vn 0.2999988 0.7256207 -0.6192538
vn 0.3314336 0.9306581 0.1550071
vn 0.6196776 0.78485 -0.003186035
vn 0.3314336 0.9306581 0.1550071
vn 0.2999988 0.7256207 -0.6192538
vn 0.6549665 0.4757307 -0.587111
vn 0.7876745 0.5959418 0.156276
vn 0.9893025 0 0.1458787
vn 0.7876745 0.5959418 0.156276
vn 0.8070693 0 -0.5904567
vn 0.6549665 0.4757307 -0.587111
vn -0.9893025 0 0.1458788
vn -0.7666357 -0.6215173 0.1612017
vn -0.8070694 0 -0.5904567
vn -0.6465833 -0.5244437 -0.5539753
vn -0.5756007 -0.8035344 0.151711
vn -0.4972878 -0.6975087 -0.5159327
vn -0.7666357 -0.6215173 0.1612017
vn -0.6465833 -0.5244437 -0.5539753
vn 0.5756013 -0.803534 0.1517113
vn 0.7666361 -0.6215168 0.1612017
vn 0.4972881 -0.6975083 -0.5159329
vn 0.6465835 -0.5244433 -0.5539756
vn 0.9893025 0 0.1458787
vn 0.8070693 0 -0.5904567
vn 0.7666361 -0.6215168 0.1612017
vn 0.6465835 -0.5244433 -0.5539756
vn -0.4972878 -0.6975087 -0.5159327
vn 0.01151858 0.004514422 -0.9999235
vn -0.6465833 -0.5244437 -0.5539753
vn 0.01370868 -0.0001254656 -0.9999061
vn 0.01518664 0 -0.9998847
vn -0.8070694 0 -0.5904567
vn -0.6465834 0.5244437 -0.5539753
vn 0.01370864 0.0001254637 -0.9999061
vn 0.006764942 -0.00891305 -0.9999374
vn -0.3325759 0.8043199 -0.4924052
vn 0 -0.01187545 -0.9999295
vn -0.08676089 0.8530905 -0.5144988
vn 0.2999988 0.7256207 -0.6192538
vn -0.00676482 -0.00891292 -0.9999374
vn 0.6549665 0.4757307 -0.587111
vn -0.01370886 0.0001257095 -0.9999061
vn -0.01518696 1.279335E-07 -0.9998847
vn 0.8070693 0 -0.5904567
vn 0.6465835 -0.5244433 -0.5539756
vn -0.01370877 -0.0001257363 -0.9999061
vn -0.01151869 0.004513748 -0.9999235
vn 0.4972881 -0.6975083 -0.5159329
vn -0.09867901 0.9785807 0.1806715
vn -0.0002626562 0.00021877 1
vn -0.3802961 0.9142826 0.1395067
vn -0.0005233848 -2.261907E-05 0.9999999
vn -0.001027641 -0.0006290791 0.9999993
vn -0.7666357 0.6215172 0.1612016
vn -0.00110664 0 0.9999994
vn -0.9893025 0 0.1458788
vn -0.7666357 -0.6215173 0.1612017
vn -0.001027664 0.0006290787 0.9999993
vn -0.5756007 -0.8035344 0.151711
vn -0.0009107448 0.0003812614 0.9999995
vn 0.001106906 0 0.9999994
vn 0.001106895 -0.0007966472 0.999999
vn 0.7876745 0.5959418 0.156276
vn 0.9893025 0 0.1458787
vn 0.7666361 -0.6215168 0.1612017
vn 0.001027878 0.0006291195 0.9999993
vn 0.5756013 -0.803534 0.1517113
vn 0.0009109014 0.0003811812 0.9999995
vn -0.09867901 0.9785807 0.1806715
vn 0.2264462 0.9738053 0.02062388
vn 0.2595927 0.1579648 0.9527113
vn 0.04410275 0.3631426 0.9306892
vn 0.3314336 0.9306581 0.1550071
vn 0.135509 0.3378245 0.9314033
vn 0.2264462 0.9738053 0.02062388
vn 0.04410275 0.3631426 0.9306892
vn 0.3314336 0.9306581 0.1550071
vn 0.6196776 0.78485 -0.003186035
vn 0.135509 0.3378245 0.9314033
vn 0.2378888 0.2293376 0.943829
vn 0.7876745 0.5959418 0.156276
vn -0.09716608 0.4844395 0.8694119
vn 0.6196776 0.78485 -0.003186035
vn 0.2378888 0.2293376 0.943829
vn -0.6298018 0.4909128 -0.6019588
vn -0.3212993 0.7415541 -0.5889518
vn -0.5616078 0.4439163 0.6982371
vn -0.3742838 0.7946476 0.4779612
vn 0.5616083 0.4439164 0.6982366
vn 0.6298019 0.4909123 -0.601959
vn 0.6765621 0.007508389 0.7363473
vn 0.791353 -0.009034961 -0.6112928
vn 0.2938173 0.7168618 0.6322821
vn 0.3209079 0.7698713 -0.5516487
vn 0.5616083 0.4439164 0.6982366
vn 0.6298019 0.4909123 -0.601959
vn -0.3742838 0.7946476 0.4779612
vn -0.3212993 0.7415541 -0.5889518
vn -0.2467638 0.9561468 0.1577684
vn 0.01687682 0.8442428 -0.5356952
vn 0.05319163 0.8897578 0.4533231
vn 0.05319163 0.8897578 0.4533231
vn 0.01687682 0.8442428 -0.5356952
vn 0.2938173 0.7168618 0.6322821
vn 0.3209079 0.7698713 -0.5516487
vn -0.7913527 -0.009034771 -0.6112931
vn -0.6298018 0.4909128 -0.6019588
vn -0.676562 0.007508523 0.7363473
vn -0.5616078 0.4439163 0.6982371
vn 0.7199579 -0.3395199 -0.6052989
vn 0.6420097 -0.300076 0.7055339
vn 0.791353 -0.009034961 -0.6112928
vn 0.6765621 0.007508389 0.7363473
vn -0.7199579 -0.3395203 -0.6052986
vn -0.7913527 -0.009034771 -0.6112931
vn -0.6420094 -0.3000752 0.7055345
vn -0.676562 0.007508523 0.7363473
vn -0.010187 0.002156301 0.9999458
vn -0.5616078 0.4439163 0.6982371
vn -0.3742838 0.7946476 0.4779612
vn -0.676562 0.007508523 0.7363473
vn -0.6420094 -0.3000752 0.7055345
vn 0.008267565 0.005834169 0.9999489
vn 0.05319163 0.8897578 0.4533231
vn 0.2938173 0.7168618 0.6322821
vn 0.5616083 0.4439164 0.6982366
vn 0.6765621 0.007508389 0.7363473
vn 0.6420097 -0.300076 0.7055339
vn 0 0.04457363 -0.9990061
vn 0.7199579 -0.3395199 -0.6052989
vn 0.791353 -0.009034961 -0.6112928
vn 0.6298019 0.4909123 -0.601959
vn 0.3209079 0.7698713 -0.5516487
vn 0.01687682 0.8442428 -0.5356952
vn -0.3212993 0.7415541 -0.5889518
vn -0.6298018 0.4909128 -0.6019588
vn -0.7913527 -0.009034771 -0.6112931
vn -0.7199579 -0.3395203 -0.6052986
g Fortified1_0
f 3/3/3 2/2/2 1/1/1
f 6/6/6 5/5/5 4/4/4
f 9/9/9 8/8/8 7/7/7
f 9/9/9 10/10/10 8/8/8
f 13/13/13 12/12/12 11/11/11
f 13/13/13 14/14/14 12/12/12
f 17/17/17 16/16/16 15/15/15
f 17/17/17 18/18/18 16/16/16
f 21/21/21 20/20/20 19/19/19
f 22/22/22 21/21/21 19/19/19
f 22/22/22 19/19/19 23/23/23
f 26/26/26 25/25/25 24/24/24
f 27/27/27 26/26/26 24/24/24
f 27/27/27 24/24/24 28/28/28
f 31/31/31 30/30/30 29/29/29
f 31/31/31 32/32/32 30/30/30
f 35/35/35 34/34/34 33/33/33
f 35/35/35 36/36/36 34/34/34
f 39/39/39 38/38/38 37/37/37
f 39/39/39 40/40/40 38/38/38
f 43/43/43 42/42/42 41/41/41
f 43/43/43 44/44/44 42/42/42
f 47/47/47 46/46/46 45/45/45
f 47/47/47 48/48/48 46/46/46
f 51/51/51 50/50/50 49/49/49
f 51/51/51 52/52/52 50/50/50
f 53/53/53 52/52/52 51/51/51
f 53/53/53 51/51/51 54/54/54
f 55/55/55 53/53/53 54/54/54
f 55/55/55 56/56/56 53/53/53
f 57/57/57 56/56/56 55/55/55
f 57/57/57 55/55/55 58/58/58
f 59/59/59 57/57/57 58/58/58
f 59/59/59 58/58/58 60/60/60
f 61/61/61 59/59/59 60/60/60
f 61/61/61 62/62/62 59/59/59
f 63/63/63 62/62/62 61/61/61
f 63/63/63 64/64/64 62/62/62
f 65/65/65 64/64/64 63/63/63
f 65/65/65 63/63/63 66/66/66
f 67/67/67 65/65/65 66/66/66
f 67/67/67 68/68/68 65/65/65
f 69/69/69 68/68/68 67/67/67
f 69/69/69 67/67/67 70/70/70
f 73/73/73 72/72/72 71/71/71
f 73/73/73 74/74/74 72/72/72
f 75/75/75 74/74/74 73/73/73
f 75/75/75 73/73/73 76/76/76
f 77/77/77 75/75/75 76/76/76
f 77/77/77 76/76/76 78/78/78
f 79/79/79 77/77/77 78/78/78
f 79/79/79 80/80/80 77/77/77
f 81/81/81 80/80/80 79/79/79
f 81/81/81 82/82/82 80/80/80
f 85/85/85 84/84/84 83/83/83
f 85/85/85 83/83/83 86/86/86
f 83/83/83 87/87/87 86/86/86
f 83/83/83 88/88/88 87/87/87
f 88/88/88 89/89/89 87/87/87
f 88/88/88 90/90/90 89/89/89
f 93/93/93 92/92/92 91/91/91
f 93/93/93 94/94/94 92/92/92
f 97/97/97 96/96/96 95/95/95
f 97/97/97 98/98/98 96/96/96
f 101/101/101 100/100/100 99/99/99
f 101/101/101 102/102/102 100/100/100
f 105/105/105 104/104/104 103/103/103
f 105/105/105 106/106/106 104/104/104
f 109/109/109 108/108/108 107/107/107
f 109/109/109 110/110/110 108/108/108
f 113/113/113 112/112/112 111/111/111
f 113/113/113 114/114/114 112/112/112
f 117/117/117 116/116/116 115/115/115
f 117/117/117 118/118/118 116/116/116
f 121/121/121 120/120/120 119/119/119
f 121/121/121 122/122/122 120/120/120
f 123/123/123 122/122/122 121/121/121
f 126/126/126 125/125/125 124/124/124
f 126/126/126 127/127/127 125/125/125
f 130/130/130 129/129/129 128/128/128
f 130/130/130 131/131/131 129/129/129
f 134/134/134 133/133/133 132/132/132
f 134/134/134 135/135/135 133/133/133
f 138/138/138 137/137/137 136/136/136
f 138/138/138 139/139/139 137/137/137
f 142/142/142 141/141/141 140/140/140
f 141/141/141 143/143/143 140/140/140
f 143/143/143 144/144/144 140/140/140
f 147/147/147 146/146/146 145/145/145
f 148/148/148 147/147/147 145/145/145
f 149/149/149 148/148/148 145/145/145
f 150/150/150 149/149/149 145/145/145
f 153/153/153 152/152/152 151/151/151
f 154/154/154 153/153/153 151/151/151
f 155/155/155 154/154/154 151/151/151
f 156/156/156 155/155/155 151/151/151
f 157/157/157 156/156/156 151/151/151
f 158/158/158 157/157/157 151/151/151
f 159/159/159 158/158/158 151/151/151
f 160/160/160 159/159/159 151/151/151
