g Fortification2
v -19.3854 10.45906 9.818706
v -12.80598 17.03806 9.818717
v -11.5759 15.83316 19.2446
v -17.53012 9.22625 19.08999
v 19.87055 5.334474 14.28166
v 22.31001 -2.314621 15.13141
v 21.04086 -2.314621 19.08848
v 17.53012 9.22625 19.08999
v 20.21728 7.110858 11.00772
v 21.03214 3.52635 12.51673
v 19.3854 10.45906 9.818703
v 24.01441 -2.314621 9.817311
v 12.80599 17.03806 9.818715
v 19.3854 10.45906 9.818703
v 17.53012 9.22625 19.08999
v 11.57591 15.18 19.09
v 1.009023E-05 21.6673 9.817338
v 12.80599 17.03806 9.818715
v 11.57591 15.18 19.09
v 9.996726E-06 19.99665 19.24311
v -20.35311 4.955668 13.01905
v -19.3854 10.45906 9.818706
v -17.53012 9.22625 19.08999
v -20.72837 2.874957 14.19976
v -21.99224 2.140814 11.08857
v -21.04086 -2.314622 19.08848
v -24.01441 -2.314622 9.817313
v -17.3975 9.1615 -9.068402
v -21.5889 -2.310066 -9.079524
v -17.10539 -2.310066 -19.24459
v -13.82681 6.814469 -19.17388
v -11.50384 15.05973 -9.06146
v -17.3975 9.1615 -9.068402
v -13.82681 6.814469 -19.17388
v -9.151445 11.51584 -19.13539
v 1.020206E-05 19.25923 -9.059106
v -11.50384 15.05973 -9.06146
v -9.151445 11.51584 -19.13539
v 9.155332E-06 14.83904 -19.13103
v 7.125912 15.60571 -11.45811
v 1.020206E-05 19.25923 -9.059106
v 9.155332E-06 14.83904 -19.13103
v 11.50385 15.05973 -9.061462
v 9.151453 11.51584 -19.13539
v 13.57105 11.62838 -11.39176
v 11.50385 15.05973 -9.061462
v 9.151453 11.51584 -19.13539
v 17.3975 9.1615 -9.068406
v 13.82681 6.814469 -19.17388
v 21.5889 -2.310065 -9.07953
v 17.3975 9.1615 -9.068406
v 13.82681 6.814469 -19.17388
v 17.10539 -2.310065 -19.2446
v -17.3975 -13.78163 -9.068402
v -13.82681 -11.4346 -19.17388
v -17.10539 -2.310066 -19.24459
v -21.5889 -2.310066 -9.079524
v -11.50384 -19.67986 -9.06146
v -9.151445 -16.13597 -19.13539
v -13.82681 -11.4346 -19.17388
v -17.3975 -13.78163 -9.068402
v 17.3975 -13.78163 -9.068406
v 13.82681 -11.4346 -19.17388
v 9.151453 -16.13597 -19.13539
v 11.50385 -19.67986 -9.061462
v 21.5889 -2.310065 -9.07953
v 17.10539 -2.310065 -19.2446
v 13.82681 -11.4346 -19.17388
v 17.3975 -13.78163 -9.068406
v 17.53012 -13.85549 19.08999
v 21.04086 -2.314621 19.08848
v 22.31001 -2.314621 15.13141
v 20.92847 -6.596914 14.60091
v -19.3854 -15.0883 9.818706
v -17.53012 -13.85549 19.08999
v -11.5759 -19.80924 19.09
v -12.80598 -21.6673 9.818717
v -24.01441 -2.314622 9.817313
v -21.04086 -2.314622 19.08848
v -17.53012 -13.85549 19.08999
v -19.3854 -15.0883 9.818706
v -9.151445 -16.13597 -19.13539
v -6.192633 -11.66583 -19.0871
v -9.356377 -8.484488 -19.11314
v -13.82681 -11.4346 -19.17388
v -11.57493 -2.310066 -19.161
v -17.10539 -2.310066 -19.24459
v -9.356377 3.864357 -19.11314
v -13.82681 6.814469 -19.17388
v -6.192633 7.045699 -19.0871
v -9.151445 11.51584 -19.13539
v 6.198197E-06 9.294451 -19.08415
v 9.155332E-06 14.83904 -19.13103
v 6.192638 7.045699 -19.0871
v 9.151453 11.51584 -19.13539
v 9.356378 3.864357 -19.11315
v 13.82681 6.814469 -19.17388
v 11.57493 -2.310065 -19.161
v 17.10539 -2.310065 -19.2446
v 9.356377 -8.484488 -19.11315
v 13.82681 -11.4346 -19.17388
v 6.192638 -11.66583 -19.0871
v 9.151453 -16.13597 -19.13539
v 1.020206E-05 19.25923 -9.059106
v 6.301089E-06 11.64279 -9.05792
v -7.441662 8.926197 -9.059442
v -11.50384 15.05973 -9.06146
v -11.25419 5.110721 -9.063933
v -17.3975 9.1615 -9.068402
v -13.96554 -2.310066 -9.071128
v -21.5889 -2.310066 -9.079524
v -11.25419 -9.730852 -9.063933
v -17.3975 -13.78163 -9.068402
v -7.441662 -13.54633 -9.059442
v -11.50384 -19.67986 -9.06146
v 21.5889 -2.310065 -9.07953
v 11.25419 5.110721 -9.063936
v 17.3975 9.1615 -9.068406
v 13.96554 -2.310065 -9.071132
v 17.3975 -13.78163 -9.068406
v 11.25419 -9.730852 -9.063936
v 11.50385 -19.67986 -9.061462
v 7.441667 -13.54633 -9.059443
v -11.5759 15.83316 19.2446
v -8.321756 5.863053 14.58114
v -11.72993 5.407717 19.12993
v -17.53012 9.22625 19.08999
v -14.07906 -2.314622 19.12892
v -21.04086 -2.314622 19.08848
v -11.72993 -10.03696 19.12993
v -17.53012 -13.85549 19.08999
v -7.74578 -14.02078 19.12994
v -11.5759 -19.80924 19.09
v 11.57591 15.18 19.09
v 6.386175E-06 12.17746 19.12894
v 9.996726E-06 19.99665 19.24311
v 7.745783 9.391541 19.12994
v 17.53012 9.22625 19.08999
v 11.72992 5.407717 19.12993
v 21.04086 -2.314621 19.08848
v 14.07905 -2.314621 19.12892
v 17.53012 -13.85549 19.08999
v 11.72992 -10.03696 19.12993
v -19.3854 10.45906 9.818706
v -12.36819 5.835191 9.495966
v -8.170414 10.0327 9.495974
v -12.80598 17.03806 9.818717
v 6.467386E-06 12.98622 9.495094
v 1.009023E-05 21.6673 9.817338
v 8.17042 10.0327 9.495974
v 12.80599 17.03806 9.818715
v 12.36819 5.83519 9.495963
v 19.3854 10.45906 9.818703
v 15.32157 -2.314621 9.495077
v 24.01441 -2.314621 9.817311
v -12.80598 -21.6673 9.818717
v -8.170414 -14.66194 9.495974
v -12.36819 -10.46443 9.495966
v -19.3854 -15.0883 9.818706
v -15.32157 -2.314622 9.495077
v -24.01441 -2.314622 9.817313
v -12.80598 17.03806 9.818717
v -6.317829 17.83061 16.40374
v -11.5759 15.83316 19.2446
v 1.009023E-05 21.6673 9.817338
v 9.996726E-06 19.99665 19.24311
v 7.125912 15.60571 -11.45811
v 5.423816 10.93413 -9.547204
v 6.312638E-06 11.64279 -9.05792
v 1.020206E-05 19.25923 -9.059106
v 11.50385 15.05973 -9.061462
v 8.897342 10.96644 -7.147343
v 5.423816 10.93413 -9.547204
v 7.125912 15.60571 -11.45811
v 13.57105 11.62838 -11.39176
v 10.05808 8.11616 -9.470074
v 8.897342 10.96644 -7.147343
v 11.50385 15.05973 -9.061462
v 17.3975 9.1615 -9.068406
v 11.25419 5.110721 -9.063936
v 10.05808 8.11616 -9.470074
v 13.57105 11.62838 -11.39176
v 22.31001 -2.314621 15.13141
v 19.79501 -4.449233 13.38093
v 18.75726 -7.665899 12.98244
v 20.92847 -6.596914 14.60091
v 19.87055 5.334474 14.28166
v 18.65752 1.02618 13.21072
v 19.79501 -4.449233 13.38093
v 22.31001 -2.314621 15.13141
v 21.03214 3.52635 12.51673
v 19.53005 -0.332003 11.88498
v 18.65752 1.02618 13.21072
v 19.87055 5.334474 14.28166
v 20.21728 7.110858 11.00772
v 18.91796 2.360522 10.75148
v 19.53005 -0.332003 11.88498
v 21.03214 3.52635 12.51673
v 24.01441 -2.314621 9.817311
v 21.7702 -4.719479 9.857299
v 18.91796 2.360522 10.75148
v 20.21728 7.110858 11.00772
v -6.317829 17.83061 16.40374
v -6.317829 14.12141 16.02857
v -8.321756 5.863053 14.58114
v -11.5759 15.83316 19.2446
v 9.996726E-06 19.99665 19.24311
v 6.386175E-06 12.17746 19.12894
v -6.317829 14.12141 16.02857
v -6.317829 17.83061 16.40374
v -20.35311 4.955668 13.01905
v -16.86123 3.771346 12.03833
v -12.36819 5.835191 9.495966
v -19.3854 10.45906 9.818706
v -21.99224 2.140814 11.08857
v -18.55524 0.8954138 9.986213
v -16.86123 3.771346 12.03833
v -20.35311 4.955668 13.01905
v -20.72837 2.874957 14.19976
v -17.29137 1.629557 13.0974
v -18.55524 0.8954138 9.986213
v -21.99224 2.140814 11.08857
v -24.01441 -2.314622 9.817313
v -15.32157 -2.314622 9.495077
v -17.29137 1.629557 13.0974
v -20.72837 2.874957 14.19976
vt 0.01237059 0.8615077
vt 0.6327724 0.8615077
vt 0.5966811 0.1464657
vt 0.03523743 0.1464657
vt 0.6126727 0.5153444
vt 0.1302649 0.4516563
vt 0.1531179 0.1464657
vt 0.8847123 0.1464657
vt 0.704257 0.7697764
vt 0.4856259 0.6533631
vt 0.9097486 0.8615077
vt 0.0995748 0.8615077
vt 0.01477838 0.8615077
vt 0.5820446 0.8615077
vt 0.5440178 0.1464657
vt 0.0306592 0.1464657
vt 0.1089454 0.8615077
vt 0.9524875 0.8615077
vt 0.9221268 0.1464657
vt 0.1600547 0.1464657
vt 0.5955672 0.6146334
vt 0.9531981 0.8615077
vt 0.9149623 0.1464657
vt 0.4602101 0.5235536
vt 0.3950092 0.7634992
vt 0.1322221 0.1464657
vt 0.08638275 0.8615077
vt 0.964546 0.8615077
vt 0.1493707 0.8615077
vt 0.2515259 0.1464657
vt 0.898661 0.1464657
vt 0.06720436 0.8615077
vt 0.6240561 0.8615077
vt 0.5711845 0.1464657
vt 0.1283677 0.1464657
vt 0.1177989 0.8615077
vt 0.9634749 0.8615077
vt 0.8708579 0.1464657
vt 0.1985204 0.1464657
vt 0.6631319 0.691297
vt 0.1287107 0.8615077
vt 0.2148439 0.1464657
vt 0.9583639 0.8615077
vt 0.874442 0.1464657
vt 0.3705457 0.696873
vt 0.6346632 0.8615077
vt 0.5665606 0.1464657
vt 0.07392102 0.8615077
vt 0.120628 0.1464657
vt 0.1279131 0.8615077
vt 0.9514793 0.8615077
vt 0.8816136 0.1464657
vt 0.227795 0.1464657
vt 0.9670267 0.8615077
vt 0.8652623 0.1464657
vt 0.2055488 0.1464657
vt 0.1363106 0.8615077
vt 0.5926995 0.8615077
vt 0.5234139 0.1464657
vt 0.06924725 0.1464657
vt 0.02160311 0.8615077
vt 0.634038 0.8615077
vt 0.5976186 0.1464657
vt 0.1440023 0.1464657
vt 0.0636791 0.8615077
vt 0.170561 0.8615077
vt 0.2615971 0.1464657
vt 0.9005057 0.1464657
vt 0.9752903 0.8615077
vt 0.9559929 0.1464657
vt 0.07981646 0.1464657
vt 0.05570779 0.4516563
vt 0.3798664 0.491066
vt 0.607774 0.8615077
vt 0.5808144 0.1464657
vt 0.1522679 0.1464657
vt 0.1342279 0.8615077
vt 0.9890069 0.8615077
vt 0.9373006 0.1464657
vt 0.1049963 0.1464657
vt 0.06731206 0.8615077
vt 0.9004527 0.0674032
vt 0.9004527 0.0674032
vt 0.9004641 0.05807722
vt 0.9004641 0.05807722
vt 0.9062588 0.04573226
vt 0.9062588 0.04573226
vt 0.918586 0.03989971
vt 0.918586 0.03989971
vt 0.9279118 0.03985977
vt 0.9279118 0.03985977
vt 0.9403272 0.04563701
vt 0.9403272 0.04563701
vt 0.9461425 0.05803454
vt 0.9461425 0.05803454
vt 0.9461305 0.06735981
vt 0.9461305 0.06735981
vt 0.9403345 0.07970357
vt 0.9403345 0.07970357
vt 0.9280086 0.08553731
vt 0.9280086 0.08553731
vt 0.9186834 0.08557796
vt 0.9186834 0.08557796
vt 0.9448669 0.04125988
vt 0.9448669 0.04125988
vt 0.9292465 0.03400159
vt 0.9292465 0.03400159
vt 0.9175189 0.03401077
vt 0.9175189 0.03401077
vt 0.901944 0.04125726
vt 0.901944 0.04125726
vt 0.8947094 0.0568378
vt 0.8947094 0.0568378
vt 0.8947092 0.06856537
vt 0.8947092 0.06856537
vt 0.9449021 0.08418226
vt 0.9521368 0.06860209
vt 0.9521368 0.06860209
vt 0.9449021 0.08418226
vt 0.9293273 0.091429
vt 0.9293273 0.091429
vt 0.9175998 0.09143829
vt 0.9175998 0.09143829
vt 0.929271 0.0357635
vt 0.929271 0.0357635
vt 0.9182273 0.03576314
vt 0.9182273 0.03576314
vt 0.9036628 0.04260564
vt 0.9036628 0.04260564
vt 0.8968204 0.05717003
vt 0.8968204 0.05717003
vt 0.8968207 0.0682137
vt 0.8968207 0.0682137
vt 0.9507422 0.05723464
vt 0.943868 0.04263771
vt 0.943868 0.04263771
vt 0.9507422 0.05723464
vt 0.9507425 0.06827831
vt 0.9507425 0.06827831
vt 0.9439 0.08284271
vt 0.9439 0.08284271
vt 0.9293357 0.08968508
vt 0.9293357 0.08968508
vt 0.9170063 0.03037393
vt 0.9170063 0.03037393
vt 0.9302424 0.03037429
vt 0.9302424 0.03037429
vt 0.9477804 0.03859901
vt 0.9477804 0.03859901
vt 0.9560052 0.05613708
vt 0.9560052 0.05613708
vt 0.9560055 0.06937313
vt 0.9560055 0.06937313
vt 0.9478124 0.08687866
vt 0.9478124 0.08687866
vt 0.891308 0.06930864
vt 0.891308 0.06930864
vt 0.8913077 0.05607259
vt 0.8913077 0.05607259
vt 0.8995007 0.03856707
vt 0.8995007 0.03856707
vt 0.9753335 0.8615077
vt 0.5511358 0.3825204
vt 0.9462807 0.1464657
vt 0.05972219 0.8615077
vt 0.1191161 0.1464657
vt 0.7154486 0.3284099
vt 0.7154486 0.2822057
vt 0.6692445 0.2822057
vt 0.6692445 0.3284099
vt 0.7154486 0.3284099
vt 0.7154486 0.2822057
vt 0.6692445 0.2822057
vt 0.6692445 0.3284099
vt 0.7154486 0.3284099
vt 0.7154486 0.2822057
vt 0.6692445 0.2822057
vt 0.6692445 0.3284099
vt 0.7154486 0.3284099
vt 0.7154486 0.2822057
vt 0.6692445 0.2822057
vt 0.6692445 0.3284099
vt 0.6674912 0.3226749
vt 0.6674912 0.3442373
vt 0.6890536 0.3442373
vt 0.6890536 0.3226749
vt 0.6674912 0.3226749
vt 0.6674912 0.3442373
vt 0.6890536 0.3442373
vt 0.6890536 0.3226749
vt 0.6674912 0.3226749
vt 0.6674912 0.3442373
vt 0.6890536 0.3442373
vt 0.6890536 0.3226749
vt 0.6674912 0.3226749
vt 0.6674912 0.3442373
vt 0.6890536 0.3442373
vt 0.6890536 0.3226749
vt 0.6674912 0.3226749
vt 0.6674912 0.3442373
vt 0.6890536 0.3442373
vt 0.6890536 0.3226749
vt 0.6626564 0.3225314
vt 0.6626564 0.3584548
vt 0.6985798 0.3584548
vt 0.6985798 0.3225314
vt 0.6626564 0.3225314
vt 0.6626564 0.3584548
vt 0.6985798 0.3584548
vt 0.6985798 0.3225314
vt 0.7238943 0.6220985
vt 0.7238943 0.6662838
vt 0.7680796 0.6662838
vt 0.7680796 0.6220985
vt 0.7238943 0.6220985
vt 0.7238943 0.6662838
vt 0.7680796 0.6662838
vt 0.7680796 0.6220985
vt 0.7238943 0.6220985
vt 0.7238943 0.6662838
vt 0.7680796 0.6662838
vt 0.7680796 0.6220985
vt 0.7238943 0.6220985
vt 0.7238943 0.6662838
vt 0.7680796 0.6662838
vt 0.7680796 0.6220985
vn -0.7413337 0.4594359 -0.4892269
vn -0.464804 0.5918701 -0.6585188
vn -0.3027344 0.608714 0.7333615
vn -0.4659087 0.4312021 0.7726538
vn 0.9398552 0.2760544 0.2011618
vn 0.9984741 0.04586803 -0.0307495
vn 0.5311021 0.01949091 0.8470837
vn 0.5600414 0.4113204 0.7191447
vn 0.9084375 0.2621158 0.3256325
vn 0.9969701 0.01282143 0.07672254
vn 0.5580815 0.4390705 -0.7041037
vn 0.1822072 -0.04376291 -0.9822858
vn 0.4664415 0.7830992 -0.4113245
vn 0.5580815 0.4390705 -0.7041037
vn 0.5600414 0.4113204 0.7191447
vn 0.4145527 0.6930987 0.5897119
vn 0.155019 0.7928224 -0.589408
vn 0.4664415 0.7830992 -0.4113245
vn 0.4145527 0.6930987 0.5897119
vn 0.1243138 0.7704009 0.6253228
vn -0.9368393 0.1937406 -0.2911985
vn -0.7413337 0.4594359 -0.4892269
vn -0.4659087 0.4312021 0.7726538
vn -0.9154709 0.4021562 0.01354197
vn -0.5528051 -0.3065042 -0.7748947
vn -0.7007743 -0.1354659 0.700403
vn -0.8982093 -0.1016436 -0.4276546
vn -0.8509354 0.4934944 0.1799226
vn -0.9891683 0 0.1467857
vn -0.8057613 0 -0.5922404
vn -0.6937698 0.4025403 -0.5971974
vn -0.4942442 0.8499909 0.182313
vn -0.8509354 0.4934944 0.1799226
vn -0.6937698 0.4025403 -0.5971974
vn -0.4014178 0.6944783 -0.5971295
vn -0.1350863 0.9590884 0.2487993
vn -0.4942442 0.8499909 0.182313
vn -0.4014178 0.6944783 -0.5971295
vn -0.1079121 0.7585907 -0.6425691
vn 0.3089454 0.9506441 0.02878501
vn -0.1350863 0.9590884 0.2487993
vn -0.1079121 0.7585907 -0.6425691
vn 0.4363104 0.8764862 0.2034822
vn 0.3471446 0.6007555 -0.7201273
vn 0.7411202 0.6713644 -0.003252392
vn 0.4363104 0.8764862 0.2034822
vn 0.3471446 0.6007555 -0.7201273
vn 0.8662121 0.468929 0.1725753
vn 0.6931981 0.3601793 -0.6242973
vn 0.9891683 0 0.1467858
vn 0.8662121 0.468929 0.1725753
vn 0.6931981 0.3601793 -0.6242973
vn 0.8057613 0 -0.5922406
vn -0.8509353 -0.4934946 0.1799226
vn -0.6937699 -0.4025403 -0.5971974
vn -0.8057613 0 -0.5922404
vn -0.9891683 0 0.1467857
vn -0.6954719 -0.6945144 0.1843055
vn -0.5685761 -0.5704909 -0.592673
vn -0.6937699 -0.4025403 -0.5971974
vn -0.8509353 -0.4934946 0.1799226
vn 0.8509356 -0.493494 0.1799227
vn 0.6937699 -0.4025398 -0.5971976
vn 0.5685763 -0.5704907 -0.5926732
vn 0.6954722 -0.694514 0.1843057
vn 0.9891683 0 0.1467858
vn 0.8057613 0 -0.5922406
vn 0.6937699 -0.4025398 -0.5971976
vn 0.8509356 -0.493494 0.1799227
vn 0.2001218 -0.06354326 0.9777083
vn 0.5311021 0.01949091 0.8470837
vn 0.9984741 0.04586803 -0.0307495
vn 0.9547129 -0.2859873 0.08206359
vn -0.8024405 -0.4513797 -0.3903148
vn -0.7036044 -0.3933564 0.5917868
vn -0.5721494 -0.572189 0.5875754
vn -0.6474594 -0.6475065 -0.40191
vn -0.8982093 -0.1016436 -0.4276546
vn -0.7007743 -0.1354659 0.700403
vn -0.7036044 -0.3933564 0.5917868
vn -0.8024405 -0.4513797 -0.3903148
vn -0.5685761 -0.5704909 -0.592673
vn 0.0114636 0.00321377 -0.9999292
vn 0.01364296 -8.943911E-05 -0.9999069
vn -0.6937699 -0.4025403 -0.5971974
vn 0.01511393 0 -0.9998858
vn -0.8057613 0 -0.5922404
vn 0.01364305 8.943964E-05 -0.9999069
vn -0.6937698 0.4025403 -0.5971974
vn 0.00673266 -0.00634552 -0.9999572
vn -0.4014178 0.6944783 -0.5971295
vn -2.930699E-07 -0.008454842 -0.9999642
vn -0.1079121 0.7585907 -0.6425691
vn -0.006733016 -0.006345546 -0.9999572
vn 0.3471446 0.6007555 -0.7201273
vn -0.01364323 8.948185E-05 -0.9999069
vn 0.6931981 0.3601793 -0.6242973
vn -0.01511426 0 -0.9998858
vn 0.8057613 0 -0.5922406
vn -0.01364349 -8.94118E-05 -0.9999069
vn 0.6937699 -0.4025398 -0.5971976
vn -0.01146435 0.00321377 -0.9999292
vn 0.5685763 -0.5704907 -0.5926732
vn -0.1350863 0.9590884 0.2487993
vn -0.0002613961 0.00015576 1
vn -0.0005208843 -1.609735E-05 0.9999999
vn -0.4942442 0.8499909 0.182313
vn -0.001022755 -0.0004478747 0.9999994
vn -0.8509354 0.4934944 0.1799226
vn -0.001101356 0 0.9999994
vn -0.9891683 0 0.1467857
vn -0.001022747 0.0004478748 0.9999994
vn -0.8509353 -0.4934946 0.1799226
vn -0.0009064176 0.0002714336 0.9999995
vn -0.6954719 -0.6945144 0.1843055
vn 0.9891683 0 0.1467858
vn 0.001101645 -0.000567185 0.9999993
vn 0.8662121 0.468929 0.1725753
vn 0.001101645 0 0.9999994
vn 0.8509356 -0.493494 0.1799227
vn 0.001022987 0.0004478944 0.9999994
vn 0.6954722 -0.694514 0.1843057
vn 0.0009065754 0.0002713469 0.9999995
vn -0.3027344 0.608714 0.7333615
vn 0.4348845 -0.01632772 0.9003381
vn 0.2054084 -0.006936347 0.9786517
vn -0.4659087 0.4312021 0.7726538
vn -0.005808583 0 0.9999832
vn -0.7007743 -0.1354659 0.700403
vn -0.005138239 -0.002655105 0.9999833
vn -0.7036044 -0.3933564 0.5917868
vn -0.004153613 -0.00415136 0.9999828
vn -0.5721494 -0.572189 0.5875754
vn 0.4145527 0.6930987 0.5897119
vn 0.005154387 -0.006905613 0.9999629
vn 0.1243138 0.7704009 0.6253228
vn 0.004763647 -0.002587829 0.9999853
vn 0.5600414 0.4113204 0.7191447
vn 0.005138279 0.002655101 0.9999833
vn 0.5311021 0.01949091 0.8470837
vn 0.005808711 0 0.9999832
vn 0.2001218 -0.06354326 0.9777083
vn 0.005808892 -0.001636632 0.9999818
vn -0.7413337 0.4594359 -0.4892269
vn -0.02770145 0.02770507 -0.9992322
vn -0.01923241 0.03331041 -0.99926
vn -0.464804 0.5918701 -0.6585188
vn 0 0.03709472 -0.9993117
vn 0.155019 0.7928224 -0.589408
vn 0.0192323 0.03331033 -0.99926
vn 0.4664415 0.7830992 -0.4113245
vn 0.03326963 0.01925637 -0.9992608
vn 0.5580815 0.4390705 -0.7041037
vn 0.0370401 0.01353163 -0.9992222
vn 0.1822072 -0.04376291 -0.9822858
vn -0.6474594 -0.6475065 -0.40191
vn -0.02770136 -0.02770508 -0.9992322
vn -0.03326991 -0.01925647 -0.9992608
vn -0.8024405 -0.4513797 -0.3903148
vn -0.03704043 -0.01353178 -0.9992222
vn -0.8982093 -0.1016436 -0.4276546
vn -0.464804 0.5918701 -0.6585188
vn -0.2991762 0.6242865 0.721637
vn -0.3027344 0.608714 0.7333615
vn 0.155019 0.7928224 -0.589408
vn 0.1243138 0.7704009 0.6253228
vn 0.3089454 0.9506441 0.02878501
vn 0.04560142 0.2672398 0.9625505
vn 0.2600442 0.1131967 0.9589387
vn -0.1350863 0.9590884 0.2487993
vn 0.4363104 0.8764862 0.2034822
vn 0.1388721 0.2475807 0.958863
vn 0.04560142 0.2672398 0.9625505
vn 0.3089454 0.9506441 0.02878501
vn 0.7411202 0.6713644 -0.003252392
vn 0.2396393 0.1656878 0.9566193
vn 0.1388721 0.2475807 0.958863
vn 0.4363104 0.8764862 0.2034822
vn 0.8662121 0.468929 0.1725753
vn -0.1028417 0.3667865 0.9246032
vn 0.2396393 0.1656878 0.9566193
vn 0.7411202 0.6713644 -0.003252392
vn 0.9984741 0.04586803 -0.0307495
vn 0.5733492 -0.01220648 -0.8192201
vn 0.6275234 -0.1069092 -0.7712229
vn 0.9547129 -0.2859873 0.08206359
vn 0.9398552 0.2760544 0.2011618
vn 0.7727983 -0.05180247 -0.632534
vn 0.5733492 -0.01220648 -0.8192201
vn 0.9984741 0.04586803 -0.0307495
vn 0.9969701 0.01282143 0.07672254
vn 0.929861 -0.3667612 0.02906621
vn 0.7727983 -0.05180247 -0.632534
vn 0.9398552 0.2760544 0.2011618
vn 0.9084375 0.2621158 0.3256325
vn 0.4548033 -0.1715379 0.8739157
vn 0.929861 -0.3667612 0.02906621
vn 0.9969701 0.01282143 0.07672254
vn 0.1822072 -0.04376291 -0.9822858
vn 0.1060057 -0.08244714 0.9909416
vn 0.4548033 -0.1715379 0.8739157
vn 0.9084375 0.2621158 0.3256325
vn -0.2991762 0.6242865 0.721637
vn 0.1246199 -0.1576579 0.9795989
vn 0.4600254 -0.2084737 0.8630849
vn -0.3027344 0.608714 0.7333615
vn 0.1243138 0.7704009 0.6253228
vn -0.4245515 -0.03839621 0.9045892
vn 0.1246199 -0.1576579 0.9795989
vn -0.2991762 0.6242865 0.721637
vn -0.9368393 0.1937406 -0.2911985
vn -0.294059 -0.2054513 -0.9334447
vn -0.3307287 -0.4073633 -0.8512776
vn -0.7413337 0.4594359 -0.4892269
vn -0.5528051 -0.3065042 -0.7748947
vn -0.3904884 -0.3743084 -0.841078
vn -0.294059 -0.2054513 -0.9334447
vn -0.9368393 0.1937406 -0.2911985
vn -0.9154709 0.4021562 0.01354197
vn -0.09157322 0.5468201 -0.8322272
vn -0.3904884 -0.3743084 -0.841078
vn -0.5528051 -0.3065042 -0.7748947
vn -0.8982093 -0.1016436 -0.4276546
vn -0.02049754 0.6596997 -0.7512497
vn -0.09157322 0.5468201 -0.8322272
vn -0.9154709 0.4021562 0.01354197
g Fortification2_0
f 3/3/3 2/2/2 1/1/1
f 4/4/4 3/3/3 1/1/1
f 7/7/7 6/6/6 5/5/5
f 8/8/8 7/7/7 5/5/5
f 9/9/9 8/8/8 5/5/5
f 5/5/5 10/10/10 9/9/9
f 9/9/9 11/11/11 8/8/8
f 9/9/9 12/12/12 11/11/11
f 15/15/15 14/14/14 13/13/13
f 16/16/16 15/15/15 13/13/13
f 19/19/19 18/18/18 17/17/17
f 20/20/20 19/19/19 17/17/17
f 23/23/23 22/22/22 21/21/21
f 23/23/23 21/21/21 24/24/24
f 21/21/21 25/25/25 24/24/24
f 26/26/26 23/23/23 24/24/24
f 26/26/26 24/24/24 27/27/27
f 30/30/30 29/29/29 28/28/28
f 31/31/31 30/30/30 28/28/28
f 34/34/34 33/33/33 32/32/32
f 35/35/35 34/34/34 32/32/32
f 38/38/38 37/37/37 36/36/36
f 39/39/39 38/38/38 36/36/36
f 42/42/42 41/41/41 40/40/40
f 42/42/42 40/40/40 43/43/43
f 44/44/44 42/42/42 43/43/43
f 47/47/47 46/46/46 45/45/45
f 47/47/47 45/45/45 48/48/48
f 49/49/49 47/47/47 48/48/48
f 52/52/52 51/51/51 50/50/50
f 53/53/53 52/52/52 50/50/50
f 56/56/56 55/55/55 54/54/54
f 57/57/57 56/56/56 54/54/54
f 60/60/60 59/59/59 58/58/58
f 61/61/61 60/60/60 58/58/58
f 64/64/64 63/63/63 62/62/62
f 65/65/65 64/64/64 62/62/62
f 68/68/68 67/67/67 66/66/66
f 69/69/69 68/68/68 66/66/66
f 72/72/72 71/71/71 70/70/70
f 73/73/73 72/72/72 70/70/70
f 76/76/76 75/75/75 74/74/74
f 77/77/77 76/76/76 74/74/74
f 80/80/80 79/79/79 78/78/78
f 81/81/81 80/80/80 78/78/78
f 84/84/84 83/83/83 82/82/82
f 85/85/85 84/84/84 82/82/82
f 86/86/86 84/84/84 85/85/85
f 87/87/87 86/86/86 85/85/85
f 88/88/88 86/86/86 87/87/87
f 89/89/89 88/88/88 87/87/87
f 90/90/90 88/88/88 89/89/89
f 91/91/91 90/90/90 89/89/89
f 92/92/92 90/90/90 91/91/91
f 93/93/93 92/92/92 91/91/91
f 94/94/94 92/92/92 93/93/93
f 95/95/95 94/94/94 93/93/93
f 96/96/96 94/94/94 95/95/95
f 97/97/97 96/96/96 95/95/95
f 98/98/98 96/96/96 97/97/97
f 99/99/99 98/98/98 97/97/97
f 100/100/100 98/98/98 99/99/99
f 101/101/101 100/100/100 99/99/99
f 102/102/102 100/100/100 101/101/101
f 103/103/103 102/102/102 101/101/101
f 106/106/106 105/105/105 104/104/104
f 107/107/107 106/106/106 104/104/104
f 108/108/108 106/106/106 107/107/107
f 109/109/109 108/108/108 107/107/107
f 110/110/110 108/108/108 109/109/109
f 111/111/111 110/110/110 109/109/109
f 112/112/112 110/110/110 111/111/111
f 113/113/113 112/112/112 111/111/111
f 114/114/114 112/112/112 113/113/113
f 115/115/115 114/114/114 113/113/113
f 118/118/118 117/117/117 116/116/116
f 117/117/117 119/119/119 116/116/116
f 116/116/116 119/119/119 120/120/120
f 119/119/119 121/121/121 120/120/120
f 120/120/120 121/121/121 122/122/122
f 121/121/121 123/123/123 122/122/122
f 126/126/126 125/125/125 124/124/124
f 127/127/127 126/126/126 124/124/124
f 128/128/128 126/126/126 127/127/127
f 129/129/129 128/128/128 127/127/127
f 130/130/130 128/128/128 129/129/129
f 131/131/131 130/130/130 129/129/129
f 132/132/132 130/130/130 131/131/131
f 133/133/133 132/132/132 131/131/131
f 136/136/136 135/135/135 134/134/134
f 135/135/135 137/137/137 134/134/134
f 134/134/134 137/137/137 138/138/138
f 137/137/137 139/139/139 138/138/138
f 138/138/138 139/139/139 140/140/140
f 139/139/139 141/141/141 140/140/140
f 140/140/140 141/141/141 142/142/142
f 141/141/141 143/143/143 142/142/142
f 146/146/146 145/145/145 144/144/144
f 147/147/147 146/146/146 144/144/144
f 148/148/148 146/146/146 147/147/147
f 149/149/149 148/148/148 147/147/147
f 150/150/150 148/148/148 149/149/149
f 151/151/151 150/150/150 149/149/149
f 152/152/152 150/150/150 151/151/151
f 153/153/153 152/152/152 151/151/151
f 154/154/154 152/152/152 153/153/153
f 155/155/155 154/154/154 153/153/153
f 158/158/158 157/157/157 156/156/156
f 159/159/159 158/158/158 156/156/156
f 160/160/160 158/158/158 159/159/159
f 161/161/161 160/160/160 159/159/159
f 164/164/164 163/163/163 162/162/162
f 163/163/163 165/165/165 162/162/162
f 163/163/163 166/166/166 165/165/165
f 169/169/169 168/168/168 167/167/167
f 170/170/170 169/169/169 167/167/167
f 173/173/173 172/172/172 171/171/171
f 174/174/174 173/173/173 171/171/171
f 177/177/177 176/176/176 175/175/175
f 178/178/178 177/177/177 175/175/175
f 181/181/181 180/180/180 179/179/179
f 182/182/182 181/181/181 179/179/179
f 185/185/185 184/184/184 183/183/183
f 186/186/186 185/185/185 183/183/183
f 189/189/189 188/188/188 187/187/187
f 190/190/190 189/189/189 187/187/187
f 193/193/193 192/192/192 191/191/191
f 194/194/194 193/193/193 191/191/191
f 197/197/197 196/196/196 195/195/195
f 198/198/198 197/197/197 195/195/195
f 201/201/201 200/200/200 199/199/199
f 202/202/202 201/201/201 199/199/199
f 205/205/205 204/204/204 203/203/203
f 206/206/206 205/205/205 203/203/203
f 209/209/209 208/208/208 207/207/207
f 210/210/210 209/209/209 207/207/207
f 213/213/213 212/212/212 211/211/211
f 214/214/214 213/213/213 211/211/211
f 217/217/217 216/216/216 215/215/215
f 218/218/218 217/217/217 215/215/215
f 221/221/221 220/220/220 219/219/219
f 222/222/222 221/221/221 219/219/219
f 225/225/225 224/224/224 223/223/223
f 226/226/226 225/225/225 223/223/223
