g Fortification
v -20.03559 6.713901 16.32493
v -12.53889 11.62835 17.9667
v -11.4301 6.92545 26.18591
v -18.27095 2.367446 24.66323
v 20.0356 6.713901 16.32492
v 23.51355 -0.5916584 13.88291
v 21.69922 -4.234203 22.45623
v 18.27097 2.367446 24.66323
v 12.53891 11.62835 17.96669
v 20.0356 6.713901 16.32492
v 18.27097 2.367446 24.66323
v 11.43011 6.92545 26.18591
v -12.53889 11.62835 17.9667
v 1.426101E-05 14.49747 18.92371
v 1.418181E-05 9.527664 27.05363
v -11.4301 6.92545 26.18591
v 1.426101E-05 14.49747 18.92371
v 12.53891 11.62835 17.96669
v 11.43011 6.92545 26.18591
v 1.418181E-05 9.527664 27.05363
v -23.51355 -0.5916591 13.88292
v -20.03559 6.713901 16.32493
v -18.27095 2.367446 24.66323
v -21.69921 -4.234203 22.45623
v -18.08511 9.677994 -9.197331
v -22.44216 0.6273643 -9.208067
v -17.78145 0.6660536 -19.02026
v -14.37329 7.826275 -18.95199
v -11.95851 14.33148 -9.19063
v -18.08511 9.677994 -9.197331
v -14.37329 7.826275 -18.95199
v -9.513139 11.53548 -18.91484
v 1.029581E-05 17.64472 -9.188358
v -11.95851 14.33148 -9.19063
v -9.513139 11.53548 -18.91484
v 9.207576E-06 14.15735 -18.91063
v 11.95852 14.33148 -9.190632
v 1.029581E-05 17.64472 -9.188358
v 9.207576E-06 14.15735 -18.91063
v 9.513147 11.53548 -18.91484
v 18.08511 9.677994 -9.197335
v 11.95852 14.33148 -9.190632
v 9.513147 11.53548 -18.91484
v 14.37329 7.826275 -18.952
v 22.44216 0.6273648 -9.208073
v 18.08511 9.677994 -9.197335
v 14.37329 7.826275 -18.952
v 17.78145 0.6660541 -19.02026
v -18.08511 -7.455109 -9.197331
v -14.37329 -5.274773 -18.95199
v -17.78145 0.6660536 -19.02026
v -22.44216 0.6273643 -9.208067
v -11.95851 -11.06257 -9.19063
v -9.513139 -8.266574 -18.91484
v -14.37329 -5.274773 -18.95199
v -18.08511 -7.455109 -9.197331
v 1.031168E-05 -14.37581 -9.188358
v 9.223371E-06 -10.88845 -18.91063
v -9.513139 -8.266574 -18.91484
v -11.95851 -11.06257 -9.19063
v 11.95852 -11.06257 -9.190632
v 9.513147 -8.266574 -18.91484
v 9.223371E-06 -10.88845 -18.91063
v 1.031168E-05 -14.37581 -9.188358
v 18.08511 -7.455109 -9.197335
v 14.37329 -5.274773 -18.952
v 9.513147 -8.266574 -18.91484
v 11.95852 -11.06257 -9.190632
v 22.44216 0.6273648 -9.208073
v 17.78145 0.6660541 -19.02026
v 14.37329 -5.274773 -18.952
v 18.08511 -7.455109 -9.197335
v 18.9811 -8.510598 11.23893
v 17.30934 -11.44934 20.0475
v 21.69922 -4.234203 22.45623
v 23.51355 -0.5916584 13.88291
v 12.53891 -12.58892 9.876514
v 11.43011 -15.17121 18.80416
v 17.30934 -11.44934 20.0475
v 18.9811 -8.510598 11.23893
v 1.423165E-05 -15.45804 8.916583
v 1.41497E-05 -17.77333 17.93329
v 11.43011 -15.17121 18.80416
v 12.53891 -12.58892 9.876514
v -12.53889 -12.58892 9.876517
v -11.4301 -15.17121 18.80416
v 1.41497E-05 -17.77333 17.93329
v 1.423165E-05 -15.45804 8.916583
v -18.98109 -8.5106 11.23894
v -17.30932 -11.44934 20.0475
v -11.4301 -15.17121 18.80416
v -12.53889 -12.58892 9.876517
v -23.51355 -0.5916591 13.88292
v -21.69921 -4.234203 22.45623
v -17.30932 -11.44934 20.0475
v -18.98109 -8.5106 11.23894
v 4.995614E-06 0.6753631 -18.52108
v -14.37329 7.826275 -18.95199
v -17.78145 0.6660536 -19.02026
v -9.513139 11.53548 -18.91484
v -14.37329 -5.274773 -18.95199
v 9.207576E-06 14.15735 -18.91063
v -9.513139 -8.266574 -18.91484
v 9.513147 11.53548 -18.91484
v 9.223371E-06 -10.88845 -18.91063
v 14.37329 7.826275 -18.952
v 9.513147 -8.266574 -18.91484
v 17.78145 0.6660541 -19.02026
v 14.37329 -5.274773 -18.952
v 1.859739E-06 0.6273657 -9.162158
v -22.44216 0.6273643 -9.208067
v -18.08511 9.677994 -9.197331
v -11.95851 14.33148 -9.19063
v -18.08511 -7.455109 -9.197331
v 1.029581E-05 17.64472 -9.188358
v -11.95851 -11.06257 -9.19063
v 11.95852 14.33148 -9.190632
v 1.031168E-05 -14.37581 -9.188358
v 18.08511 9.677994 -9.197335
v 11.95852 -11.06257 -9.190632
v 22.44216 0.6273648 -9.208073
v 18.08511 -7.455109 -9.197335
v 1.347519E-05 -4.330249 22.68229
v -18.27095 2.367446 24.66323
v -11.4301 6.92545 26.18591
v 1.418181E-05 9.527664 27.05363
v -21.69921 -4.234203 22.45623
v 11.43011 6.92545 26.18591
v -17.30932 -11.44934 20.0475
v 18.27097 2.367446 24.66323
v -11.4301 -15.17121 18.80416
v 21.69922 -4.234203 22.45623
v 1.41497E-05 -17.77333 17.93329
v 17.30934 -11.44934 20.0475
v 11.43011 -15.17121 18.80416
v 7.008761E-06 0.1083872 12.23525
v -12.53889 11.62835 17.9667
v -20.03559 6.713901 16.32493
v 1.426101E-05 14.49747 18.92371
v -23.51355 -0.5916591 13.88292
v 12.53891 11.62835 17.96669
v -18.98109 -8.5106 11.23894
v 20.0356 6.713901 16.32492
v -12.53889 -12.58892 9.876517
v 23.51355 -0.5916584 13.88291
v 1.423165E-05 -15.45804 8.916583
v 18.9811 -8.510598 11.23893
v 12.53891 -12.58892 9.876514
vt 0.01237059 0.8615077
vt 0.6327724 0.8615077
vt 0.5966811 0.1464657
vt 0.03523743 0.1464657
vt 0.9097486 0.8615077
vt 0.0995748 0.8615077
vt 0.1531179 0.1464657
vt 0.8847123 0.1464657
vt 0.01477838 0.8615077
vt 0.5820446 0.8615077
vt 0.5440178 0.1464657
vt 0.0306592 0.1464657
vt 0.9753335 0.8615077
vt 0.05972219 0.8615077
vt 0.1191161 0.1464657
vt 0.9462807 0.1464657
vt 0.1089454 0.8615077
vt 0.9524875 0.8615077
vt 0.9221268 0.1464657
vt 0.1600547 0.1464657
vt 0.08638275 0.8615077
vt 0.9531981 0.8615077
vt 0.9149623 0.1464657
vt 0.1322221 0.1464657
vt 0.964546 0.8615077
vt 0.1493707 0.8615077
vt 0.2515259 0.1464657
vt 0.898661 0.1464657
vt 0.06720436 0.8615077
vt 0.6240561 0.8615077
vt 0.5711845 0.1464657
vt 0.1283677 0.1464657
vt 0.1177989 0.8615077
vt 0.9634749 0.8615077
vt 0.8708579 0.1464657
vt 0.1985204 0.1464657
vt 0.9583639 0.8615077
vt 0.1287107 0.8615077
vt 0.2148439 0.1464657
vt 0.874442 0.1464657
vt 0.07392102 0.8615077
vt 0.6346632 0.8615077
vt 0.5665606 0.1464657
vt 0.120628 0.1464657
vt 0.1279131 0.8615077
vt 0.9514793 0.8615077
vt 0.8816136 0.1464657
vt 0.227795 0.1464657
vt 0.9670267 0.8615077
vt 0.8652623 0.1464657
vt 0.2055488 0.1464657
vt 0.1363106 0.8615077
vt 0.5926995 0.8615077
vt 0.5234139 0.1464657
vt 0.06924725 0.1464657
vt 0.02160311 0.8615077
vt 0.1494663 0.8615077
vt 0.2466282 0.1464657
vt 0.8634998 0.1464657
vt 0.9253848 0.8615077
vt 0.9497297 0.8615077
vt 0.88428 0.1464657
vt 0.2342812 0.1464657
vt 0.1321397 0.8615077
vt 0.634038 0.8615077
vt 0.5976186 0.1464657
vt 0.1440023 0.1464657
vt 0.0636791 0.8615077
vt 0.170561 0.8615077
vt 0.2615971 0.1464657
vt 0.9005057 0.1464657
vt 0.9752903 0.8615077
vt 0.9936099 0.8615077
vt 0.9559929 0.1464657
vt 0.07981646 0.1464657
vt 0.0233314 0.8615077
vt 0.6434261 0.8615077
vt 0.6039408 0.1464657
vt 0.08186638 0.1464657
vt 0.06652761 0.8615077
vt 0.08379921 0.8615077
vt 0.136694 0.1464657
vt 0.9616842 0.1464657
vt 0.9969865 0.8615077
vt 0.9981122 0.8615077
vt 0.9623682 0.1464657
vt 0.1046419 0.1464657
vt 0.04868996 0.8615077
vt 0.607774 0.8615077
vt 0.5808144 0.1464657
vt 0.1522679 0.1464657
vt 0.1342279 0.8615077
vt 0.9890069 0.8615077
vt 0.9373006 0.1464657
vt 0.1049963 0.1464657
vt 0.06731206 0.8615077
vt 0.9232995 0.06272078
vt 0.918586 0.03989971
vt 0.9062588 0.04573226
vt 0.9279118 0.03985977
vt 0.9004641 0.05807722
vt 0.9403272 0.04563701
vt 0.9004527 0.0674032
vt 0.9461425 0.05803454
vt 0.9062681 0.07980084
vt 0.9461305 0.06735981
vt 0.9186834 0.08557796
vt 0.9403345 0.07970357
vt 0.9280086 0.08553731
vt 0.9234253 0.06272209
vt 0.901944 0.04125726
vt 0.9175189 0.03401077
vt 0.9292465 0.03400159
vt 0.8947094 0.0568378
vt 0.9448669 0.04125988
vt 0.8947092 0.06856537
vt 0.9521371 0.05687463
vt 0.9019795 0.08418012
vt 0.9521368 0.06860209
vt 0.9175998 0.09143829
vt 0.9449021 0.08418226
vt 0.9293273 0.091429
vt 0.9237778 0.06272042
vt 0.9182273 0.03576314
vt 0.929271 0.0357635
vt 0.943868 0.04263771
vt 0.9036628 0.04260564
vt 0.9507422 0.05723464
vt 0.8968204 0.05717003
vt 0.9507425 0.06827831
vt 0.8968207 0.0682137
vt 0.9439 0.08284271
vt 0.903695 0.08281064
vt 0.9293357 0.08968508
vt 0.9182919 0.08968484
vt 0.9236529 0.06271911
vt 0.9302424 0.03037429
vt 0.9170063 0.03037393
vt 0.9477804 0.03859901
vt 0.8995007 0.03856707
vt 0.9560052 0.05613708
vt 0.8913077 0.05607259
vt 0.9560055 0.06937313
vt 0.891308 0.06930864
vt 0.9478124 0.08687866
vt 0.8995327 0.08684671
vt 0.9303069 0.09507167
vt 0.9170707 0.09507143
vn -0.6261885 0.6859726 -0.37058
vn -0.3393887 0.91972 -0.1973077
vn -0.2843876 0.4514751 0.8457505
vn -0.5337014 0.2110308 0.8189193
vn 0.6261888 0.6859723 -0.3705801
vn 0.8068485 0.1560593 -0.5697727
vn 0.735376 -0.2754929 0.6191332
vn 0.5337019 0.2110309 0.8189189
vn 0.3393891 0.9197199 -0.1973078
vn 0.6261888 0.6859723 -0.3705801
vn 0.5337019 0.2110309 0.8189189
vn 0.2843878 0.4514752 0.8457504
vn -0.3393887 0.91972 -0.1973077
vn -1.648245E-07 0.9892152 -0.1464701
vn 0 0.5251852 0.850988
vn -0.2843876 0.4514751 0.8457505
vn -1.648245E-07 0.9892152 -0.1464701
vn 0.3393891 0.9197199 -0.1973078
vn 0.2843878 0.4514752 0.8457504
vn 0 0.5251852 0.850988
vn -0.8068483 0.1560595 -0.569773
vn -0.6261885 0.6859726 -0.37058
vn -0.5337014 0.2110308 0.8189193
vn -0.7353758 -0.2754928 0.6191334
vn -0.6806595 0.5052556 0.5304898
vn -0.8732666 0.001837104 0.4872392
vn -0.7131838 -0.002378406 -0.7009731
vn -0.5474798 0.4331605 -0.7159872
vn -0.3656796 0.8058077 0.4657815
vn -0.6806595 0.5052556 0.5304898
vn -0.5474798 0.4331605 -0.7159872
vn -0.2945397 0.6911368 -0.6599819
vn 1.032313E-07 0.8952174 0.4456297
vn -0.3656796 0.8058077 0.4657815
vn -0.2945397 0.6911368 -0.6599819
vn 0 0.7614799 -0.6481885
vn 0.3656799 0.8058075 0.4657815
vn 1.032313E-07 0.8952174 0.4456297
vn 0 0.7614799 -0.6481885
vn 0.2945399 0.6911368 -0.6599821
vn 0.68066 0.5052552 0.5304896
vn 0.3656799 0.8058075 0.4657815
vn 0.2945399 0.6911368 -0.6599821
vn 0.5474799 0.4331603 -0.7159873
vn 0.8732667 0.001837073 0.4872389
vn 0.68066 0.5052552 0.5304896
vn 0.5474799 0.4331603 -0.7159873
vn 0.713184 -0.002378375 -0.7009729
vn -0.6465301 -0.5689535 0.5082231
vn -0.5176242 -0.490844 -0.7008119
vn -0.7131838 -0.002378406 -0.7009731
vn -0.8732666 0.001837104 0.4872392
vn -0.3398569 -0.8561748 0.3891812
vn -0.2723308 -0.72823 -0.6289015
vn -0.5176242 -0.490844 -0.7008119
vn -0.6465301 -0.5689535 0.5082231
vn 0 -0.9295716 0.3686415
vn 0 -0.7878295 -0.6158934
vn -0.2723308 -0.72823 -0.6289015
vn -0.3398569 -0.8561748 0.3891812
vn 0.3398573 -0.8561746 0.3891812
vn 0.2723309 -0.7282299 -0.6289014
vn 0 -0.7878295 -0.6158934
vn 0 -0.9295716 0.3686415
vn 0.6465307 -0.5689531 0.5082228
vn 0.5176243 -0.4908437 -0.7008121
vn 0.2723309 -0.7282299 -0.6289014
vn 0.3398573 -0.8561746 0.3891812
vn 0.8732667 0.001837073 0.4872389
vn 0.713184 -0.002378375 -0.7009729
vn 0.5176243 -0.4908437 -0.7008121
vn 0.6465307 -0.5689531 0.5082228
vn 0.5985004 -0.2802199 -0.7505159
vn 0.5395961 -0.6820106 0.4936573
vn 0.735376 -0.2754929 0.6191332
vn 0.8068485 0.1560593 -0.5697727
vn 0.3096273 -0.5582383 -0.7697408
vn 0.2875969 -0.9087422 0.3024494
vn 0.5395961 -0.6820106 0.4936573
vn 0.5985004 -0.2802199 -0.7505159
vn 0 -0.6280443 -0.7781777
vn 0 -0.9626838 0.2706289
vn 0.2875969 -0.9087422 0.3024494
vn 0.3096273 -0.5582383 -0.7697408
vn -0.3096271 -0.5582383 -0.7697408
vn -0.2875965 -0.9087422 0.3024494
vn 0 -0.9626838 0.2706289
vn 0 -0.6280443 -0.7781777
vn -0.5985002 -0.2802202 -0.7505159
vn -0.5395957 -0.6820108 0.4936576
vn -0.2875965 -0.9087422 0.3024494
vn -0.3096271 -0.5582383 -0.7697408
vn -0.8068483 0.1560595 -0.569773
vn -0.7353758 -0.2754928 0.6191334
vn -0.5395957 -0.6820108 0.4936576
vn -0.5985002 -0.2802202 -0.7505159
vn -1.509627E-07 0.0008210549 -0.9999996
vn -0.5474798 0.4331605 -0.7159872
vn -0.7131838 -0.002378406 -0.7009731
vn -0.2945397 0.6911368 -0.6599819
vn -0.5176242 -0.490844 -0.7008119
vn 0 0.7614799 -0.6481885
vn -0.2723308 -0.72823 -0.6289015
vn 0.2945399 0.6911368 -0.6599821
vn 0 -0.7878295 -0.6158934
vn 0.5474799 0.4331603 -0.7159873
vn 0.2723309 -0.7282299 -0.6289014
vn 0.713184 -0.002378375 -0.7009729
vn 0.5176243 -0.4908437 -0.7008121
vn 1.142563E-07 -4.198098E-05 1
vn -0.8732666 0.001837104 0.4872392
vn -0.6806595 0.5052556 0.5304898
vn -0.3656796 0.8058077 0.4657815
vn -0.6465301 -0.5689535 0.5082231
vn 1.032313E-07 0.8952174 0.4456297
vn -0.3398569 -0.8561748 0.3891812
vn 0.3656799 0.8058075 0.4657815
vn 0 -0.9295716 0.3686415
vn 0.68066 0.5052552 0.5304896
vn 0.3398573 -0.8561746 0.3891812
vn 0.8732667 0.001837073 0.4872389
vn 0.6465307 -0.5689531 0.5082228
vn 0 -0.3168199 0.9484857
vn -0.5337014 0.2110308 0.8189193
vn -0.2843876 0.4514751 0.8457505
vn 0 0.5251852 0.850988
vn -0.7353758 -0.2754928 0.6191334
vn 0.2843878 0.4514752 0.8457504
vn -0.5395957 -0.6820108 0.4936576
vn 0.5337019 0.2110309 0.8189189
vn -0.2875965 -0.9087422 0.3024494
vn 0.735376 -0.2754929 0.6191332
vn 0 -0.9626838 0.2706289
vn 0.5395961 -0.6820106 0.4936573
vn 0.2875969 -0.9087422 0.3024494
vn -1.195904E-07 0.3175863 -0.9482294
vn -0.3393887 0.91972 -0.1973077
vn -0.6261885 0.6859726 -0.37058
vn -1.648245E-07 0.9892152 -0.1464701
vn -0.8068483 0.1560595 -0.569773
vn 0.3393891 0.9197199 -0.1973078
vn -0.5985002 -0.2802202 -0.7505159
vn 0.6261888 0.6859723 -0.3705801
vn -0.3096271 -0.5582383 -0.7697408
vn 0.8068485 0.1560593 -0.5697727
vn 0 -0.6280443 -0.7781777
vn 0.5985004 -0.2802199 -0.7505159
vn 0.3096273 -0.5582383 -0.7697408
g Fortification_0
f 3/3/3 2/2/2 1/1/1
f 4/4/4 3/3/3 1/1/1
f 7/7/7 6/6/6 5/5/5
f 8/8/8 7/7/7 5/5/5
f 11/11/11 10/10/10 9/9/9
f 12/12/12 11/11/11 9/9/9
f 15/15/15 14/14/14 13/13/13
f 16/16/16 15/15/15 13/13/13
f 19/19/19 18/18/18 17/17/17
f 20/20/20 19/19/19 17/17/17
f 23/23/23 22/22/22 21/21/21
f 24/24/24 23/23/23 21/21/21
f 27/27/27 26/26/26 25/25/25
f 28/28/28 27/27/27 25/25/25
f 31/31/31 30/30/30 29/29/29
f 32/32/32 31/31/31 29/29/29
f 35/35/35 34/34/34 33/33/33
f 36/36/36 35/35/35 33/33/33
f 39/39/39 38/38/38 37/37/37
f 40/40/40 39/39/39 37/37/37
f 43/43/43 42/42/42 41/41/41
f 44/44/44 43/43/43 41/41/41
f 47/47/47 46/46/46 45/45/45
f 48/48/48 47/47/47 45/45/45
f 51/51/51 50/50/50 49/49/49
f 52/52/52 51/51/51 49/49/49
f 55/55/55 54/54/54 53/53/53
f 56/56/56 55/55/55 53/53/53
f 59/59/59 58/58/58 57/57/57
f 60/60/60 59/59/59 57/57/57
f 63/63/63 62/62/62 61/61/61
f 64/64/64 63/63/63 61/61/61
f 67/67/67 66/66/66 65/65/65
f 68/68/68 67/67/67 65/65/65
f 71/71/71 70/70/70 69/69/69
f 72/72/72 71/71/71 69/69/69
f 75/75/75 74/74/74 73/73/73
f 76/76/76 75/75/75 73/73/73
f 79/79/79 78/78/78 77/77/77
f 80/80/80 79/79/79 77/77/77
f 83/83/83 82/82/82 81/81/81
f 84/84/84 83/83/83 81/81/81
f 87/87/87 86/86/86 85/85/85
f 88/88/88 87/87/87 85/85/85
f 91/91/91 90/90/90 89/89/89
f 92/92/92 91/91/91 89/89/89
f 95/95/95 94/94/94 93/93/93
f 96/96/96 95/95/95 93/93/93
f 99/99/99 98/98/98 97/97/97
f 98/98/98 100/100/100 97/97/97
f 101/101/101 99/99/99 97/97/97
f 100/100/100 102/102/102 97/97/97
f 103/103/103 101/101/101 97/97/97
f 102/102/102 104/104/104 97/97/97
f 105/105/105 103/103/103 97/97/97
f 104/104/104 106/106/106 97/97/97
f 107/107/107 105/105/105 97/97/97
f 106/106/106 108/108/108 97/97/97
f 109/109/109 107/107/107 97/97/97
f 108/108/108 109/109/109 97/97/97
f 112/112/112 111/111/111 110/110/110
f 113/113/113 112/112/112 110/110/110
f 111/111/111 114/114/114 110/110/110
f 115/115/115 113/113/113 110/110/110
f 114/114/114 116/116/116 110/110/110
f 117/117/117 115/115/115 110/110/110
f 116/116/116 118/118/118 110/110/110
f 119/119/119 117/117/117 110/110/110
f 118/118/118 120/120/120 110/110/110
f 121/121/121 119/119/119 110/110/110
f 120/120/120 122/122/122 110/110/110
f 122/122/122 121/121/121 110/110/110
f 125/125/125 124/124/124 123/123/123
f 126/126/126 125/125/125 123/123/123
f 124/124/124 127/127/127 123/123/123
f 128/128/128 126/126/126 123/123/123
f 127/127/127 129/129/129 123/123/123
f 130/130/130 128/128/128 123/123/123
f 129/129/129 131/131/131 123/123/123
f 132/132/132 130/130/130 123/123/123
f 131/131/131 133/133/133 123/123/123
f 134/134/134 132/132/132 123/123/123
f 133/133/133 135/135/135 123/123/123
f 135/135/135 134/134/134 123/123/123
f 138/138/138 137/137/137 136/136/136
f 137/137/137 139/139/139 136/136/136
f 140/140/140 138/138/138 136/136/136
f 139/139/139 141/141/141 136/136/136
f 142/142/142 140/140/140 136/136/136
f 141/141/141 143/143/143 136/136/136
f 144/144/144 142/142/142 136/136/136
f 143/143/143 145/145/145 136/136/136
f 146/146/146 144/144/144 136/136/136
f 145/145/145 147/147/147 136/136/136
f 148/148/148 146/146/146 136/136/136
f 147/147/147 148/148/148 136/136/136
