g Fortification1
v -16.36242 10.78071 15.22247
v -10.80953 16.33324 15.22248
v -13.50453 8.889613 23.82235
v -8.918155 13.47562 23.82236
v -8.918155 13.47562 23.82236
v -10.80953 16.33324 15.22248
v -0.001550646 16.68263 23.82121
v -0.001549608 20.24021 15.22131
v -20.2692 -5.063542E-07 15.22129
v -16.36242 10.78071 15.22247
v -17.17591 -5.089054E-07 23.82118
v -13.50453 8.889613 23.82235
v -13.70616 9.043883 -9.16478
v -15.85019 10.45027 -0.1993569
v -16.95576 -6.315236E-07 -9.237288
v -19.66843 -5.804307E-07 -0.209839
v -15.85019 10.45027 -0.1993569
v -13.70616 9.043883 -9.16478
v -10.14441 15.31673 -2.327934
v -9.072114 13.7037 -9.125312
v -0.001548942 19.64901 -0.1905971
v -10.14441 15.31673 -2.327934
v -0.001549117 16.99752 -9.120846
v -9.072114 13.7037 -9.125312
v 9.069005 13.7037 -9.125314
v 10.47812 15.82339 -0.1928212
v -0.001549117 16.99752 -9.120846
v -0.001548942 19.64901 -0.1905971
v 13.70304 9.043883 -9.164783
v 15.84708 10.45027 -0.1993618
v 9.069005 13.7037 -9.125314
v 10.47812 15.82339 -0.1928212
v 19.66531 -1.381977E-08 -0.2098458
v 15.84708 10.45027 -0.1993618
v 16.95264 -1.503628E-08 -9.237293
v 13.70304 9.043883 -9.164783
v -19.66843 -5.804307E-07 -0.209839
v -15.85019 -10.45027 -0.1993569
v -16.95576 -6.315236E-07 -9.237288
v -13.70616 -9.043883 -9.16478
v -10.48123 -15.82339 -0.1928176
v -9.072114 -13.7037 -9.125312
v -15.85019 -10.45027 -0.1993569
v -13.70616 -9.043883 -9.16478
v 10.47812 -15.82339 -0.1928212
v 15.84708 -10.45027 -0.1993618
v 9.069005 -13.7037 -9.125314
v 13.70304 -9.043883 -9.164783
v 19.66531 -1.381977E-08 -0.2098458
v 16.95264 -1.503628E-08 -9.237293
v 15.84708 -10.45027 -0.1993618
v 13.70304 -9.043883 -9.164783
v 10.80642 -16.33324 15.22247
v 8.915041 -13.47562 23.82236
v 16.35931 -10.78071 15.22246
v 13.50141 -8.889613 23.82235
v -16.36242 -10.78071 15.22247
v -13.50453 -8.889613 23.82235
v -10.80953 -16.33324 15.22248
v -8.918155 -13.47562 23.82236
v -20.2692 -5.063542E-07 15.22129
v -17.17591 -5.089054E-07 23.82118
v -16.36242 -10.78071 15.22247
v -13.50453 -8.889613 23.82235
v 8.915041 -13.47562 23.82236
v 6.177918 -9.339018 23.85679
v 9.356417 -6.160776 23.85678
v 13.50141 -8.889613 23.82235
v 11.90079 4.004931E-08 23.85597
v 17.17279 5.778864E-08 23.82118
v 13.50141 8.889613 23.82235
v 9.356417 6.160776 23.85678
v 8.915041 13.47562 23.82236
v 6.177918 9.339018 23.85679
v -0.001553316 11.56158 23.85598
v -0.001550646 16.68263 23.82121
v -8.918155 13.47562 23.82236
v -6.181034 9.339018 23.85679
v -9.359531 6.160776 23.85678
v -13.50453 8.889613 23.82235
v -11.90391 -3.52687E-07 23.85597
v -17.17591 -5.089054E-07 23.82118
v -13.50453 -8.889613 23.82235
v -9.359531 -6.160776 23.85678
v -8.918155 -13.47562 23.82236
v -6.181034 -9.339018 23.85679
v -0.001553132 11.86707 14.87967
v 2.811096 10.85033 14.87997
v 5.391497 18.29068 15.22189
v -0.001549608 20.24021 15.22131
v -10.80953 16.33324 15.22248
v -6.338399 9.576375 14.88035
v -9.594131 6.320858 14.88035
v -16.36242 10.78071 15.22247
v -11.88472 -2.968816E-07 14.87966
v -20.2692 -5.063542E-07 15.22129
v -16.36242 -10.78071 15.22247
v -9.594131 -6.320858 14.88035
v -10.80953 -16.33324 15.22248
v -6.338399 -9.576375 14.88035
v 9.591016 -6.320858 14.88035
v 6.335283 -9.576375 14.88035
v 10.80642 -16.33324 15.22247
v 16.35931 -10.78071 15.22246
v 18.45965 -4.984839 15.22183
v 11.14179 -2.041517 14.87988
v -9.072114 -13.7037 -9.125312
v -5.147671 -7.774698 -9.087333
v -13.70616 -9.043883 -9.16478
v -7.776771 -5.130988 -9.109724
v -9.620414 -3.582905E-07 -9.150862
v -16.95576 -6.315236E-07 -9.237288
v -13.70616 9.043883 -9.16478
v -7.776771 5.130988 -9.109724
v -5.147671 7.774698 -9.087333
v -9.072114 13.7037 -9.125312
v -0.001553279 9.643424 -9.084799
v -0.001549117 16.99752 -9.120846
v 9.069005 13.7037 -9.125314
v 5.144559 7.774698 -9.087333
v 13.70304 9.043883 -9.164783
v 7.773654 5.130988 -9.109726
v 9.617296 -8.530716E-09 -9.150864
v 16.95264 -1.503628E-08 -9.237293
v 13.70304 -9.043883 -9.164783
v 7.773654 -5.130988 -9.109726
v 5.144559 -7.774698 -9.087333
v 9.069005 -13.7037 -9.125314
v -15.85019 10.45027 -0.1993569
v -9.044196 5.962532 0.1653459
v -11.22274 -3.311718E-07 0.159365
v -19.66843 -5.804307E-07 -0.209839
v -15.85019 -10.45027 -0.1993569
v -9.044196 -5.962532 0.1653459
v -10.48123 -15.82339 -0.1928176
v -5.98086 -9.028226 0.1690763
v -0.001548942 19.64901 -0.1905971
v 10.47812 15.82339 -0.1928212
v -0.00155341 11.21098 0.1703434
v 5.977751 9.028226 0.1690745
v 9.041077 5.962532 0.1653428
v 15.84708 10.45027 -0.1993618
v 11.21962 -7.885045E-09 0.1593608
v 19.66531 -1.381977E-08 -0.2098458
v 15.84708 -10.45027 -0.1993618
v 9.041077 -5.962532 0.1653428
v 10.47812 -15.82339 -0.1928212
v 5.977751 -9.028226 0.1690745
v 8.915041 13.47562 23.82236
v -0.001550646 16.68263 23.82121
v 10.26302 15.51224 17.69324
v 5.391497 18.29068 15.22189
v -0.001549608 20.24021 15.22131
v 17.17279 5.778864E-08 23.82118
v 19.37257 5.270165E-08 17.70539
v 13.50141 -8.889613 23.82235
v 18.45965 -4.984839 15.22183
v 16.35931 -10.78071 15.22246
v 13.50141 8.889613 23.82235
v 8.915041 13.47562 23.82236
v 15.43752 10.17076 17.99627
v 13.11726 13.29697 16.53644
v 10.26302 15.51224 17.69324
v 13.50141 8.889613 23.82235
v 15.43752 10.17076 17.99627
v 17.17279 5.778864E-08 23.82118
v 17.42069 6.983357 16.09704
v 19.37257 5.270165E-08 17.70539
v 10.26302 15.51224 17.69324
v 5.391497 18.29068 15.22189
v 7.543619 11.2298 15.6691
v 2.811096 10.85033 14.87997
v 10.26302 15.51224 17.69324
v 7.543619 11.2298 15.6691
v 13.11726 13.29697 16.53644
v 9.443395 9.62285 14.50761
v 19.37257 5.270165E-08 17.70539
v 14.47246 0.01975456 15.77459
v 18.45965 -4.984839 15.22183
v 11.14179 -2.041517 14.87988
v 19.37257 5.270165E-08 17.70539
v 17.42069 6.983357 16.09704
v 14.47246 0.01975456 15.77459
v 12.52579 5.124748 14.1745
v 15.43752 10.17076 17.99627
v 13.11726 13.29697 16.53644
v 11.15868 7.383506 16.02669
v 9.443395 9.62285 14.50761
v 15.43752 10.17076 17.99627
v 11.15868 7.383506 16.02669
v 17.42069 6.983357 16.09704
v 12.52579 5.124748 14.1745
v -15.85019 10.45027 -0.1993569
v -10.14441 15.31673 -2.327934
v -9.044196 5.962532 0.1653459
v -5.865597 8.606676 -0.05334308
v -0.001548942 19.64901 -0.1905971
v -0.001553242 11.21098 0.1703434
v -10.14441 15.31673 -2.327934
v -5.865597 8.606676 -0.05334308
vt 0.01237059 0.8615077
vt 0.6327724 0.8615077
vt 0.03523743 0.1464657
vt 0.5966811 0.1464657
vt 0.9462807 0.1464657
vt 0.9753335 0.8615077
vt 0.1191161 0.1464657
vt 0.05972219 0.8615077
vt 0.08638275 0.8615077
vt 0.9531981 0.8615077
vt 0.1322221 0.1464657
vt 0.9149623 0.1464657
vt 0.898661 0.1464657
vt 0.964546 0.8615077
vt 0.2515259 0.1464657
vt 0.1493707 0.8615077
vt 0.6240561 0.8615077
vt 0.5711845 0.1464657
vt 0.0818241 0.6905926
vt 0.1283677 0.1464657
vt 0.1177989 0.8615077
vt 0.9413368 0.6905926
vt 0.1985204 0.1464657
vt 0.8708579 0.1464657
vt 0.874442 0.1464657
vt 0.9583639 0.8615077
vt 0.2148439 0.1464657
vt 0.1287107 0.8615077
vt 0.120628 0.1464657
vt 0.07392102 0.8615077
vt 0.5665606 0.1464657
vt 0.6346632 0.8615077
vt 0.1279131 0.8615077
vt 0.9514793 0.8615077
vt 0.227795 0.1464657
vt 0.8816136 0.1464657
vt 0.1363106 0.8615077
vt 0.9670267 0.8615077
vt 0.2055488 0.1464657
vt 0.8652623 0.1464657
vt 0.5926995 0.8615077
vt 0.5234139 0.1464657
vt 0.02160311 0.8615077
vt 0.06924725 0.1464657
vt 0.0636791 0.8615077
vt 0.634038 0.8615077
vt 0.1440023 0.1464657
vt 0.5976186 0.1464657
vt 0.170561 0.8615077
vt 0.2615971 0.1464657
vt 0.9752903 0.8615077
vt 0.9005057 0.1464657
vt 0.6434261 0.8615077
vt 0.6039408 0.1464657
vt 0.06652761 0.8615077
vt 0.08186638 0.1464657
vt 0.607774 0.8615077
vt 0.5808144 0.1464657
vt 0.1342279 0.8615077
vt 0.1522679 0.1464657
vt 0.9890069 0.8615077
vt 0.9373006 0.1464657
vt 0.06731206 0.8615077
vt 0.1049963 0.1464657
vt 0.9182919 0.08968484
vt 0.9182919 0.08968484
vt 0.9293357 0.08968508
vt 0.9293357 0.08968508
vt 0.9439 0.08284271
vt 0.9439 0.08284271
vt 0.9507425 0.06827831
vt 0.9507425 0.06827831
vt 0.9507422 0.05723464
vt 0.9507422 0.05723464
vt 0.943868 0.04263771
vt 0.943868 0.04263771
vt 0.929271 0.0357635
vt 0.929271 0.0357635
vt 0.9182273 0.03576314
vt 0.9182273 0.03576314
vt 0.9036628 0.04260564
vt 0.9036628 0.04260564
vt 0.8968204 0.05717003
vt 0.8968204 0.05717003
vt 0.8968207 0.0682137
vt 0.8968207 0.0682137
vt 0.9477804 0.03859901
vt 0.951431 0.04638341
vt 0.9518845 0.0473503
vt 0.9477804 0.03859901
vt 0.9302424 0.03037429
vt 0.9302424 0.03037429
vt 0.9170063 0.03037393
vt 0.9170063 0.03037393
vt 0.8995007 0.03856707
vt 0.8995007 0.03856707
vt 0.8913077 0.05607259
vt 0.8913077 0.05607259
vt 0.891308 0.06930864
vt 0.891308 0.06930864
vt 0.9303069 0.09507167
vt 0.9170707 0.09507143
vt 0.9170707 0.09507143
vt 0.9303069 0.09507167
vt 0.9397181 0.09066698
vt 0.9421585 0.08952484
vt 0.9004527 0.0674032
vt 0.9004527 0.0674032
vt 0.9004641 0.05807722
vt 0.9004641 0.05807722
vt 0.9062588 0.04573226
vt 0.9062588 0.04573226
vt 0.918586 0.03989971
vt 0.918586 0.03989971
vt 0.9279118 0.03985977
vt 0.9279118 0.03985977
vt 0.9403272 0.04563701
vt 0.9403272 0.04563701
vt 0.9461425 0.05803454
vt 0.9461425 0.05803454
vt 0.9461305 0.06735981
vt 0.9461305 0.06735981
vt 0.9403345 0.07970357
vt 0.9403345 0.07970357
vt 0.9280086 0.08553731
vt 0.9280086 0.08553731
vt 0.9186834 0.08557796
vt 0.9186834 0.08557796
vt 0.9175189 0.03401077
vt 0.9175189 0.03401077
vt 0.901944 0.04125726
vt 0.901944 0.04125726
vt 0.8947094 0.0568378
vt 0.8947094 0.0568378
vt 0.8947092 0.06856537
vt 0.8947092 0.06856537
vt 0.9448669 0.04125988
vt 0.9521371 0.05687463
vt 0.9448669 0.04125988
vt 0.9521371 0.05687463
vt 0.9521368 0.06860209
vt 0.9521368 0.06860209
vt 0.9449021 0.08418226
vt 0.9449021 0.08418226
vt 0.9293273 0.091429
vt 0.9293273 0.091429
vt 0.9175998 0.09143829
vt 0.9175998 0.09143829
vt 0.9221268 0.1464657
vt 0.1600547 0.1464657
vt 0.9437647 0.6560746
vt 0.5298628 0.8615077
vt 0.1089454 0.8615077
vt 0.07981646 0.1464657
vt 0.03964728 0.6549657
vt 0.9559929 0.1464657
vt 0.4719736 0.8615077
vt 0.9936099 0.8615077
vt 0.5440178 0.1464657
vt 0.0306592 0.1464657
vt 0.5697794 0.630878
vt 0.2827949 0.7522569
vt 0.01934097 0.6560746
vt 0.8847123 0.1464657
vt 0.9016734 0.630878
vt 0.1531179 0.1464657
vt 0.6298239 0.7887561
vt 0.1150409 0.6549657
vt 0.7781817 0.6228874
vt 0.7395102 0.6228874
vt 0.7781817 0.6615589
vt 0.7395102 0.6615589
vt 0.7395102 0.6228874
vt 0.7395102 0.6615589
vt 0.7781817 0.6228874
vt 0.7781817 0.6615589
vt 0.7395102 0.6228874
vt 0.7395102 0.6615589
vt 0.7781817 0.6228874
vt 0.7781817 0.6615589
vt 0.7781817 0.6228874
vt 0.7395102 0.6228874
vt 0.7781817 0.6615589
vt 0.7395102 0.6615589
vt 0.7781817 0.6228874
vt 0.7395102 0.6228874
vt 0.7781817 0.6615589
vt 0.7395102 0.6615589
vt 0.7395102 0.6228874
vt 0.7395102 0.6615589
vt 0.7781817 0.6228874
vt 0.7781817 0.6615589
vt 0.7781817 0.6228874
vt 0.7395102 0.6228874
vt 0.7781817 0.6615589
vt 0.7395102 0.6615589
vt 0.7395102 0.6228874
vt 0.7395102 0.6615589
vt 0.7781817 0.6228874
vt 0.7781817 0.6615589
vn -0.7247061 0.4014534 -0.5600324
vn -0.445541 0.7018241 -0.5558202
vn -0.4446507 0.3407394 0.8283613
vn -0.194936 0.3074922 0.9313691
vn -0.194936 0.3074922 0.9313691
vn -0.445541 0.7018241 -0.5558202
vn 0.05427305 0.7547896 0.6537179
vn 0 0.8215691 -0.570109
vn -0.8081701 0 -0.5889491
vn -0.7247061 0.4014534 -0.5600324
vn -0.722036 0 0.6918555
vn -0.4446507 0.3407394 0.8283613
vn -0.4004532 0.3047907 -0.864141
vn -0.6726036 0.4493708 0.5879372
vn -0.7595911 0 -0.6504009
vn -0.7932505 0 0.6088955
vn -0.6726036 0.4493708 0.5879372
vn -0.4004532 0.3047907 -0.864141
vn -0.4435808 0.7337095 0.5146906
vn -0.2494351 0.3942382 -0.8845103
vn -0.08671092 0.7939833 0.601724
vn -0.4435808 0.7337095 0.5146906
vn 7.284694E-05 0.7618385 -0.647767
vn -0.2494351 0.3942382 -0.8845103
vn 0.3546337 0.4769199 -0.8042278
vn 0.3278507 0.6022052 0.7279168
vn 7.284694E-05 0.7618385 -0.647767
vn -0.08671092 0.7939833 0.601724
vn 0.3155361 0.207042 -0.9260511
vn 0.7583659 0.4792221 0.4418454
vn 0.3546337 0.4769199 -0.8042278
vn 0.3278507 0.6022052 0.7279168
vn 0.7932506 0 0.6088952
vn 0.7583659 0.4792221 0.4418454
vn 0.7595909 0 -0.6504011
vn 0.3155361 0.207042 -0.9260511
vn -0.7932505 0 0.6088955
vn -0.7583655 -0.4792225 0.4418456
vn -0.7595911 0 -0.6504009
vn -0.3155364 -0.2070421 -0.926051
vn -0.3687378 -0.3674136 0.8538381
vn -0.5503207 -0.5530982 -0.6254834
vn -0.7583655 -0.4792225 0.4418456
vn -0.3155364 -0.2070421 -0.926051
vn 0.3687384 -0.3674133 0.8538381
vn 0.7583659 -0.4792221 0.4418454
vn 0.5503207 -0.553098 -0.6254836
vn 0.3155361 -0.207042 -0.9260511
vn 0.7932506 0 0.6088952
vn 0.7595909 0 -0.6504011
vn 0.7583659 -0.4792221 0.4418454
vn 0.3155361 -0.207042 -0.9260511
vn 0.3737215 -0.3737477 -0.8489081
vn 0.4008842 -0.4009116 0.8237485
vn 0.7643791 -0.5670409 -0.3069026
vn 0.5748665 -0.2929457 0.76401
vn -0.7247061 -0.4014533 -0.5600324
vn -0.4446507 -0.3407394 0.8283613
vn -0.5923237 -0.5923682 -0.5461251
vn -0.2626502 -0.262669 0.9284503
vn -0.8081701 0 -0.5889491
vn -0.722036 0 0.6918555
vn -0.7247061 -0.4014533 -0.5600324
vn -0.4446507 -0.3407394 0.8283613
vn 0.4008842 -0.4009116 0.8237485
vn 0.005008696 -0.005006797 0.999975
vn 0.005538586 -0.004202333 0.9999759
vn 0.5748665 -0.2929457 0.76401
vn 0.00659797 0 0.9999783
vn 0.7187327 0.1347125 0.6821112
vn 0.3695742 0.2462023 0.8959907
vn 0.005538586 0.004202333 0.9999759
vn 0.3503775 0.4371393 0.8283386
vn 0.003660589 0.005898826 0.9999759
vn 0 0.006790925 0.999977
vn 0.05427305 0.7547896 0.6537179
vn -0.194936 0.3074922 0.9313691
vn -0.003660589 0.005898828 0.9999759
vn -0.005538586 0.004202334 0.9999759
vn -0.4446507 0.3407394 0.8283613
vn -0.006597969 0 0.9999783
vn -0.722036 0 0.6918555
vn -0.4446507 -0.3407394 0.8283613
vn -0.005538586 -0.004202334 0.9999759
vn -0.2626502 -0.262669 0.9284503
vn -0.005008699 -0.005006797 0.999975
vn 0 0.04076802 -0.9991686
vn 0.01484311 0.04076351 -0.9990585
vn 0.3390679 0.4922577 -0.8016952
vn 0 0.8215691 -0.570109
vn -0.445541 0.7018241 -0.5558202
vn -0.02264256 0.03560515 -0.9991093
vn -0.03386369 0.02525038 -0.9991074
vn -0.7247061 0.4014534 -0.5600324
vn -0.04071195 0 -0.9991709
vn -0.8081701 0 -0.5889491
vn -0.7247061 -0.4014533 -0.5600324
vn -0.03386369 -0.02525038 -0.9991074
vn -0.5923237 -0.5923682 -0.5461251
vn -0.03043985 -0.03044372 -0.9990729
vn 0.03557524 -0.02265307 -0.9991102
vn 0.03043982 -0.0304437 -0.9990729
vn 0.3737215 -0.3737477 -0.8489081
vn 0.7643791 -0.5670409 -0.3069026
vn 0.5940315 -0.02681775 -0.8039947
vn 0.04070749 -0.01486039 -0.9990606
vn -0.5503207 -0.5530982 -0.6254834
vn 0.008980421 0.0004613714 -0.9999596
vn -0.3155364 -0.2070421 -0.926051
vn 0.01038097 -0.001661092 -0.9999448
vn 0.0117815 0 -0.9999306
vn -0.7595911 0 -0.6504009
vn -0.4004532 0.3047907 -0.864141
vn 0.01038097 0.001661091 -0.9999448
vn 0.006744449 -0.001941452 -0.9999754
vn -0.2494351 0.3942382 -0.8845103
vn 0 -0.004901636 -0.999988
vn 7.284694E-05 0.7618385 -0.647767
vn 0.3546337 0.4769199 -0.8042278
vn -0.006744785 -0.001941326 -0.9999754
vn 0.3155361 0.207042 -0.9260511
vn -0.0103813 0.001661286 -0.9999448
vn -0.01178175 0 -0.9999306
vn 0.7595909 0 -0.6504011
vn 0.3155361 -0.207042 -0.9260511
vn -0.0103813 -0.001661286 -0.9999448
vn -0.008980894 0.0004611014 -0.9999596
vn 0.5503207 -0.553098 -0.6254836
vn -0.6726036 0.4493708 0.5879372
vn -0.04366852 0.01495328 0.9989342
vn -0.0436734 0 0.9990458
vn -0.7932505 0 0.6088955
vn -0.7583655 -0.4792225 0.4418456
vn -0.03639254 -0.02599303 0.9989995
vn -0.3687378 -0.3674136 0.8538381
vn -0.032752 -0.03151121 0.9989666
vn -0.08671092 0.7939833 0.601724
vn 0.3278507 0.6022052 0.7279168
vn 0.01581103 0.04273104 0.9989616
vn 0.02428299 0.03712302 0.9990156
vn 0.03639288 0.02599298 0.9989995
vn 0.7583659 0.4792221 0.4418454
vn 0.04367369 0 0.9990458
vn 0.7932506 0 0.6088952
vn 0.7583659 -0.4792221 0.4418454
vn 0.03639287 -0.02599298 0.9989995
vn 0.3687384 -0.3674133 0.8538381
vn 0.03275245 -0.03151118 0.9989666
vn 0.3503775 0.4371393 0.8283386
vn 0.05427305 0.7547896 0.6537179
vn 0.503103 0.8423751 -0.1931099
vn 0.3390679 0.4922577 -0.8016952
vn 0 0.8215691 -0.570109
vn 0.7187327 0.1347125 0.6821112
vn 0.9719268 -0.03423738 -0.2327792
vn 0.5748665 -0.2929457 0.76401
vn 0.5940315 -0.02681775 -0.8039947
vn 0.7643791 -0.5670409 -0.3069026
vn 0.3695742 0.2462023 0.8959907
vn 0.3503775 0.4371393 0.8283386
vn 0.8189234 0.5696607 -0.0696512
vn 0.5488908 0.5106991 -0.6617442
vn 0.503103 0.8423751 -0.1931099
vn 0.3695742 0.2462023 0.8959907
vn 0.8189234 0.5696607 -0.0696512
vn 0.7187327 0.1347125 0.6821112
vn 0.6339975 0.3877562 -0.669098
vn 0.9719268 -0.03423738 -0.2327792
vn 0.503103 0.8423751 -0.1931099
vn 0.3390679 0.4922577 -0.8016952
vn 0.150337 0.2784743 -0.9486047
vn 0.1654032 -0.0120456 -0.9861525
vn 0.503103 0.8423751 -0.1931099
vn 0.150337 0.2784743 -0.9486047
vn 0.5488908 0.5106991 -0.6617442
vn 0.2815818 0.2325005 -0.9309432
vn 0.9719268 -0.03423738 -0.2327792
vn 0.3195632 0.08704443 -0.9435584
vn 0.5940315 -0.02681775 -0.8039947
vn 0.1299639 0.2105576 -0.968904
vn 0.9719268 -0.03423738 -0.2327792
vn 0.6339975 0.3877562 -0.669098
vn 0.3195632 0.08704443 -0.9435584
vn 0.2525595 0.2897748 -0.9231707
vn 0.8189234 0.5696607 -0.0696512
vn 0.5488908 0.5106991 -0.6617442
vn 0.3083428 0.2729458 -0.9112768
vn 0.2815818 0.2325005 -0.9309432
vn 0.8189234 0.5696607 -0.0696512
vn 0.3083428 0.2729458 -0.9112768
vn 0.6339975 0.3877562 -0.669098
vn 0.2525595 0.2897748 -0.9231707
vn -0.6726036 0.4493708 0.5879372
vn -0.4435808 0.7337095 0.5146906
vn -0.003769885 0.2571338 0.9663685
vn -0.1376498 0.2381323 0.9614289
vn -0.08671092 0.7939833 0.601724
vn -0.1832244 0.1394911 0.9731244
vn -0.4435808 0.7337095 0.5146906
vn -0.1376498 0.2381323 0.9614289
g Fortification1_0
f 3/3/3 2/2/2 1/1/1
f 3/3/3 4/4/4 2/2/2
f 7/7/7 6/6/6 5/5/5
f 7/7/7 8/8/8 6/6/6
f 11/11/11 10/10/10 9/9/9
f 11/11/11 12/12/12 10/10/10
f 15/15/15 14/14/14 13/13/13
f 15/15/15 16/16/16 14/14/14
f 19/19/19 18/18/18 17/17/17
f 19/19/19 20/20/20 18/18/18
f 23/23/23 22/22/22 21/21/21
f 23/23/23 24/24/24 22/22/22
f 27/27/27 26/26/26 25/25/25
f 27/27/27 28/28/28 26/26/26
f 31/31/31 30/30/30 29/29/29
f 31/31/31 32/32/32 30/30/30
f 35/35/35 34/34/34 33/33/33
f 35/35/35 36/36/36 34/34/34
f 39/39/39 38/38/38 37/37/37
f 39/39/39 40/40/40 38/38/38
f 43/43/43 42/42/42 41/41/41
f 43/43/43 44/44/44 42/42/42
f 47/47/47 46/46/46 45/45/45
f 47/47/47 48/48/48 46/46/46
f 51/51/51 50/50/50 49/49/49
f 51/51/51 52/52/52 50/50/50
f 55/55/55 54/54/54 53/53/53
f 55/55/55 56/56/56 54/54/54
f 59/59/59 58/58/58 57/57/57
f 59/59/59 60/60/60 58/58/58
f 63/63/63 62/62/62 61/61/61
f 63/63/63 64/64/64 62/62/62
f 67/67/67 66/66/66 65/65/65
f 67/67/67 65/65/65 68/68/68
f 69/69/69 67/67/67 68/68/68
f 69/69/69 68/68/68 70/70/70
f 71/71/71 69/69/69 70/70/70
f 71/71/71 72/72/72 69/69/69
f 73/73/73 72/72/72 71/71/71
f 73/73/73 74/74/74 72/72/72
f 75/75/75 74/74/74 73/73/73
f 75/75/75 73/73/73 76/76/76
f 77/77/77 75/75/75 76/76/76
f 77/77/77 78/78/78 75/75/75
f 79/79/79 78/78/78 77/77/77
f 79/79/79 77/77/77 80/80/80
f 81/81/81 79/79/79 80/80/80
f 81/81/81 80/80/80 82/82/82
f 83/83/83 81/81/81 82/82/82
f 83/83/83 84/84/84 81/81/81
f 85/85/85 84/84/84 83/83/83
f 85/85/85 86/86/86 84/84/84
f 89/89/89 88/88/88 87/87/87
f 89/89/89 87/87/87 90/90/90
f 87/87/87 91/91/91 90/90/90
f 87/87/87 92/92/92 91/91/91
f 91/91/91 92/92/92 93/93/93
f 91/91/91 93/93/93 94/94/94
f 94/94/94 93/93/93 95/95/95
f 94/94/94 95/95/95 96/96/96
f 95/95/95 97/97/97 96/96/96
f 95/95/95 98/98/98 97/97/97
f 98/98/98 99/99/99 97/97/97
f 98/98/98 100/100/100 99/99/99
f 103/103/103 102/102/102 101/101/101
f 103/103/103 101/101/101 104/104/104
f 105/105/105 104/104/104 101/101/101
f 105/105/105 101/101/101 106/106/106
f 109/109/109 108/108/108 107/107/107
f 109/109/109 110/110/110 108/108/108
f 111/111/111 110/110/110 109/109/109
f 111/111/111 109/109/109 112/112/112
f 113/113/113 111/111/111 112/112/112
f 113/113/113 114/114/114 111/111/111
f 115/115/115 114/114/114 113/113/113
f 115/115/115 113/113/113 116/116/116
f 117/117/117 115/115/115 116/116/116
f 117/117/117 116/116/116 118/118/118
f 119/119/119 117/117/117 118/118/118
f 119/119/119 120/120/120 117/117/117
f 121/121/121 120/120/120 119/119/119
f 121/121/121 122/122/122 120/120/120
f 123/123/123 122/122/122 121/121/121
f 123/123/123 121/121/121 124/124/124
f 125/125/125 123/123/123 124/124/124
f 125/125/125 126/126/126 123/123/123
f 127/127/127 126/126/126 125/125/125
f 127/127/127 125/125/125 128/128/128
f 131/131/131 130/130/130 129/129/129
f 131/131/131 129/129/129 132/132/132
f 133/133/133 131/131/131 132/132/132
f 133/133/133 134/134/134 131/131/131
f 135/135/135 134/134/134 133/133/133
f 135/135/135 136/136/136 134/134/134
f 139/139/139 138/138/138 137/137/137
f 139/139/139 140/140/140 138/138/138
f 138/138/138 140/140/140 141/141/141
f 138/138/138 141/141/141 142/142/142
f 142/142/142 141/141/141 143/143/143
f 142/142/142 143/143/143 144/144/144
f 143/143/143 145/145/145 144/144/144
f 143/143/143 146/146/146 145/145/145
f 146/146/146 147/147/147 145/145/145
f 146/146/146 148/148/148 147/147/147
f 151/151/151 150/150/150 149/149/149
f 152/152/152 150/150/150 151/151/151
f 150/150/150 152/152/152 153/153/153
f 156/156/156 155/155/155 154/154/154
f 156/156/156 157/157/157 155/155/155
f 157/157/157 156/156/156 158/158/158
f 161/161/161 160/160/160 159/159/159
f 162/162/162 160/160/160 161/161/161
f 163/163/163 160/160/160 162/162/162
f 166/166/166 165/165/165 164/164/164
f 166/166/166 167/167/167 165/165/165
f 166/166/166 168/168/168 167/167/167
f 171/171/171 170/170/170 169/169/169
f 171/171/171 172/172/172 170/170/170
f 175/175/175 174/174/174 173/173/173
f 175/175/175 176/176/176 174/174/174
f 179/179/179 178/178/178 177/177/177
f 179/179/179 180/180/180 178/178/178
f 183/183/183 182/182/182 181/181/181
f 183/183/183 184/184/184 182/182/182
f 187/187/187 186/186/186 185/185/185
f 187/187/187 188/188/188 186/186/186
f 191/191/191 190/190/190 189/189/189
f 191/191/191 192/192/192 190/190/190
f 195/195/195 194/194/194 193/193/193
f 195/195/195 196/196/196 194/194/194
f 199/199/199 198/198/198 197/197/197
f 199/199/199 200/200/200 198/198/198
