g Fortification1
v -20.23268 13.33071 18.82309
v -13.36634 20.19659 18.8231
v -11.02759 16.66305 29.45715
v -16.6988 10.9923 29.45713
v -13.36634 20.19659 18.8231
v -0.001916142 22.82916 18.82166
v -0.001917425 20.62863 29.45572
v -11.02759 16.66305 29.45715
v -25.06353 -6.261238E-07 18.82163
v -20.23268 13.33071 18.82309
v -16.6988 10.9923 29.45713
v -21.23858 -6.292785E-07 29.45569
v -19.59929 12.92211 -0.2465115
v -24.32067 -7.177218E-07 -0.2594729
v -20.96635 -7.809E-07 -11.42221
v -16.94812 11.18306 -11.33256
v -19.59929 12.92211 -0.2465115
v -16.94812 11.18306 -11.33256
v -11.21797 16.94509 -11.28375
v -12.5439 18.93964 -2.878567
v -0.001915318 24.29665 -0.235679
v -12.5439 18.93964 -2.878567
v -11.21797 16.94509 -11.28375
v -0.001915535 21.018 -11.27823
v 12.95654 19.56615 -0.2384304
v -0.001915318 24.29665 -0.235679
v -0.001915535 21.018 -11.27823
v 11.21413 16.94509 -11.28375
v 19.59544 12.92211 -0.2465176
v 12.95654 19.56615 -0.2384304
v 11.21413 16.94509 -11.28375
v 16.94427 11.18306 -11.33256
v 24.31681 -1.708861E-08 -0.2594815
v 19.59544 12.92211 -0.2465176
v 16.94427 11.18306 -11.33256
v 20.9625 -1.859286E-08 -11.42222
v -19.59929 -12.92211 -0.2465115
v -16.94812 -11.18306 -11.33256
v -20.96635 -7.809E-07 -11.42221
v -24.32067 -7.177218E-07 -0.2594729
v -12.96039 -19.56615 -0.2384256
v -11.21797 -16.94509 -11.28375
v -16.94812 -11.18306 -11.33256
v -19.59929 -12.92211 -0.2465115
v 19.59544 -12.92211 -0.2465176
v 16.94427 -11.18306 -11.33256
v 11.21413 -16.94509 -11.28375
v 12.95654 -19.56615 -0.2384304
v 24.31681 -1.708861E-08 -0.2594815
v 20.9625 -1.859286E-08 -11.42222
v 16.94427 -11.18306 -11.33256
v 19.59544 -12.92211 -0.2465176
v 13.36249 -20.19659 18.8231
v 11.02374 -16.66305 29.45715
v 16.69495 -10.9923 29.45713
v 20.22883 -13.33071 18.82308
v -20.23268 -13.33071 18.82309
v -16.6988 -10.9923 29.45713
v -11.02759 -16.66305 29.45715
v -13.36634 -20.19659 18.8231
v -25.06353 -6.261238E-07 18.82163
v -21.23858 -6.292785E-07 29.45569
v -16.6988 -10.9923 29.45713
v -20.23268 -13.33071 18.82309
v 11.02374 -16.66305 29.45715
v 7.639202 -11.54801 29.49971
v 11.56952 -7.618005 29.4997
v 16.69495 -10.9923 29.45713
v 14.71572 4.95223E-08 29.4987
v 21.23473 7.145757E-08 29.45569
v 11.56952 7.618005 29.4997
v 16.69495 10.9923 29.45713
v 7.639202 11.54801 29.49971
v 11.02374 16.66305 29.45715
v -0.001920727 14.29628 29.49872
v -0.001917425 20.62863 29.45572
v -7.643054 11.54801 29.49971
v -11.02759 16.66305 29.45715
v -11.57337 7.618005 29.4997
v -16.6988 10.9923 29.45713
v -14.71958 -4.361093E-07 29.4987
v -21.23858 -6.292785E-07 29.45569
v -11.57337 -7.618005 29.4997
v -16.6988 -10.9923 29.45713
v -7.643054 -11.54801 29.49971
v -11.02759 -16.66305 29.45715
v -0.001916142 22.82916 18.82166
v 3.476014 13.4168 18.39958
v 6.666765 20.4185 18.82237
v -0.001920499 14.67403 18.39921
v -13.36634 20.19659 18.8231
v -7.837642 11.84151 18.40005
v -20.23268 13.33071 18.82309
v -11.86346 7.815951 18.40005
v -25.06353 -6.261238E-07 18.82163
v -14.69585 -3.67104E-07 18.39919
v -20.23268 -13.33071 18.82309
v -11.86346 -7.815951 18.40005
v -13.36634 -20.19659 18.8231
v -7.837642 -11.84151 18.40005
v 20.22883 -13.33071 18.82308
v 7.833789 -11.84151 18.40005
v 13.36249 -20.19659 18.8231
v 11.85961 -7.815951 18.40005
v 13.77719 -2.524404 18.39947
v 22.82597 -6.16392 18.8223
v -11.21797 -16.94509 -11.28375
v -6.365267 -9.613673 -11.23679
v -9.616237 -6.344637 -11.26448
v -16.94812 -11.18306 -11.33256
v -11.89596 -4.430381E-07 -11.31534
v -20.96635 -7.809E-07 -11.42221
v -9.616237 6.344637 -11.26448
v -16.94812 11.18306 -11.33256
v -6.365267 9.613673 -11.23679
v -11.21797 16.94509 -11.28375
v -0.001920681 11.92442 -11.23365
v -0.001915535 21.018 -11.27823
v 6.361419 9.613673 -11.23679
v 11.21413 16.94509 -11.28375
v 9.612381 6.344637 -11.26448
v 16.94427 11.18306 -11.33256
v 11.89211 -1.054851E-08 -11.31535
v 20.9625 -1.859286E-08 -11.42222
v 9.612381 -6.344637 -11.26448
v 16.94427 -11.18306 -11.33256
v 6.361419 -9.613673 -11.23679
v 11.21413 -16.94509 -11.28375
v -19.59929 12.92211 -0.2465115
v -11.18345 7.372869 0.2044553
v -13.87729 -4.095049E-07 0.1970603
v -24.32067 -7.177218E-07 -0.2594729
v -11.18345 -7.372869 0.2044553
v -19.59929 -12.92211 -0.2465115
v -7.395533 -11.1637 0.2090683
v -12.96039 -19.56615 -0.2384256
v 12.95654 19.56615 -0.2384304
v -0.001920843 13.86275 0.2106357
v -0.001915318 24.29665 -0.235679
v 7.391689 11.1637 0.2090659
v 19.59544 12.92211 -0.2465176
v 11.17959 7.372869 0.2044516
v 24.31681 -1.708861E-08 -0.2594815
v 13.87344 -9.750121E-09 0.1970548
v 19.59544 -12.92211 -0.2465176
v 11.17959 -7.372869 0.2044516
v 12.95654 -19.56615 -0.2384304
v 7.391689 -11.1637 0.2090659
v -0.001917425 20.62863 29.45572
v -0.001916142 22.82916 18.82166
v 6.666765 20.4185 18.82237
v 12.69057 19.1814 21.87828
v 11.02374 16.66305 29.45715
v 22.82597 -6.16392 18.8223
v 20.22883 -13.33071 18.82308
v 16.69495 -10.9923 29.45713
v 21.23473 7.145757E-08 29.45569
v 23.95483 6.516735E-08 21.89331
v 12.69057 19.1814 21.87828
v 16.21993 16.44215 20.44786
v 19.08901 12.57648 22.25299
v 11.02374 16.66305 29.45715
v 16.69495 10.9923 29.45713
v 21.54126 8.635154 19.90453
v 23.95483 6.516735E-08 21.89331
v 21.23473 7.145757E-08 29.45569
v 16.69495 10.9923 29.45713
v 19.08901 12.57648 22.25299
v 6.666765 20.4185 18.82237
v 3.476014 13.4168 18.39958
v 9.327935 13.88602 19.37537
v 12.69057 19.1814 21.87828
v 12.69057 19.1814 21.87828
v 9.327935 13.88602 19.37537
v 11.67707 11.89898 17.93914
v 16.21993 16.44215 20.44786
v 23.95483 6.516735E-08 21.89331
v 17.89568 0.02442718 19.5058
v 13.77719 -2.524404 18.39947
v 22.82597 -6.16392 18.8223
v 21.54126 8.635154 19.90453
v 15.48856 6.336921 17.52725
v 17.89568 0.02442718 19.5058
v 23.95483 6.516735E-08 21.89331
v 16.21993 16.44215 20.44786
v 11.67707 11.89898 17.93914
v 13.79808 9.129951 19.81754
v 19.08901 12.57648 22.25299
v 19.08901 12.57648 22.25299
v 13.79808 9.129951 19.81754
v 15.48856 6.336921 17.52725
v 21.54126 8.635154 19.90453
v -12.5439 18.93964 -2.878567
v -7.253006 10.64244 -0.06596095
v -11.18345 7.372869 0.2044553
v -19.59929 12.92211 -0.2465115
v -0.001915318 24.29665 -0.235679
v -0.001920635 13.86275 0.2106357
v -7.253006 10.64244 -0.06596095
v -12.5439 18.93964 -2.878567
vt 0.01237059 0.8615077
vt 0.6327724 0.8615077
vt 0.5966811 0.1464657
vt 0.03523743 0.1464657
vt 0.9753335 0.8615077
vt 0.05972219 0.8615077
vt 0.1191161 0.1464657
vt 0.9462807 0.1464657
vt 0.08638275 0.8615077
vt 0.9531981 0.8615077
vt 0.9149623 0.1464657
vt 0.1322221 0.1464657
vt 0.964546 0.8615077
vt 0.1493707 0.8615077
vt 0.2515259 0.1464657
vt 0.898661 0.1464657
vt 0.6240561 0.8615077
vt 0.5711845 0.1464657
vt 0.1283677 0.1464657
vt 0.0818241 0.6905926
vt 0.1177989 0.8615077
vt 0.9413368 0.6905926
vt 0.8708579 0.1464657
vt 0.1985204 0.1464657
vt 0.9583639 0.8615077
vt 0.1287107 0.8615077
vt 0.2148439 0.1464657
vt 0.874442 0.1464657
vt 0.07392102 0.8615077
vt 0.6346632 0.8615077
vt 0.5665606 0.1464657
vt 0.120628 0.1464657
vt 0.1279131 0.8615077
vt 0.9514793 0.8615077
vt 0.8816136 0.1464657
vt 0.227795 0.1464657
vt 0.9670267 0.8615077
vt 0.8652623 0.1464657
vt 0.2055488 0.1464657
vt 0.1363106 0.8615077
vt 0.5926995 0.8615077
vt 0.5234139 0.1464657
vt 0.06924725 0.1464657
vt 0.02160311 0.8615077
vt 0.634038 0.8615077
vt 0.5976186 0.1464657
vt 0.1440023 0.1464657
vt 0.0636791 0.8615077
vt 0.170561 0.8615077
vt 0.2615971 0.1464657
vt 0.9005057 0.1464657
vt 0.9752903 0.8615077
vt 0.6434261 0.8615077
vt 0.6039408 0.1464657
vt 0.08186638 0.1464657
vt 0.06652761 0.8615077
vt 0.607774 0.8615077
vt 0.5808144 0.1464657
vt 0.1522679 0.1464657
vt 0.1342279 0.8615077
vt 0.9890069 0.8615077
vt 0.9373006 0.1464657
vt 0.1049963 0.1464657
vt 0.06731206 0.8615077
vt 0.9182919 0.08968484
vt 0.9182919 0.08968484
vt 0.9293357 0.08968508
vt 0.9293357 0.08968508
vt 0.9439 0.08284271
vt 0.9439 0.08284271
vt 0.9507425 0.06827831
vt 0.9507425 0.06827831
vt 0.9507422 0.05723464
vt 0.9507422 0.05723464
vt 0.943868 0.04263771
vt 0.943868 0.04263771
vt 0.929271 0.0357635
vt 0.929271 0.0357635
vt 0.9182273 0.03576314
vt 0.9182273 0.03576314
vt 0.9036628 0.04260564
vt 0.9036628 0.04260564
vt 0.8968204 0.05717003
vt 0.8968204 0.05717003
vt 0.8968207 0.0682137
vt 0.8968207 0.0682137
vt 0.9477804 0.03859901
vt 0.951431 0.04638341
vt 0.9518845 0.0473503
vt 0.9477804 0.03859901
vt 0.9302424 0.03037429
vt 0.9302424 0.03037429
vt 0.9170063 0.03037393
vt 0.9170063 0.03037393
vt 0.8995007 0.03856707
vt 0.8995007 0.03856707
vt 0.8913077 0.05607259
vt 0.8913077 0.05607259
vt 0.891308 0.06930864
vt 0.891308 0.06930864
vt 0.9303069 0.09507167
vt 0.9170707 0.09507143
vt 0.9170707 0.09507143
vt 0.9303069 0.09507167
vt 0.9421585 0.08952484
vt 0.9397181 0.09066698
vt 0.9004527 0.0674032
vt 0.9004527 0.0674032
vt 0.9004641 0.05807722
vt 0.9004641 0.05807722
vt 0.9062588 0.04573226
vt 0.9062588 0.04573226
vt 0.918586 0.03989971
vt 0.918586 0.03989971
vt 0.9279118 0.03985977
vt 0.9279118 0.03985977
vt 0.9403272 0.04563701
vt 0.9403272 0.04563701
vt 0.9461425 0.05803454
vt 0.9461425 0.05803454
vt 0.9461305 0.06735981
vt 0.9461305 0.06735981
vt 0.9403345 0.07970357
vt 0.9403345 0.07970357
vt 0.9280086 0.08553731
vt 0.9280086 0.08553731
vt 0.9186834 0.08557796
vt 0.9186834 0.08557796
vt 0.9175189 0.03401077
vt 0.9175189 0.03401077
vt 0.901944 0.04125726
vt 0.901944 0.04125726
vt 0.8947094 0.0568378
vt 0.8947094 0.0568378
vt 0.8947092 0.06856537
vt 0.8947092 0.06856537
vt 0.9521371 0.05687463
vt 0.9448669 0.04125988
vt 0.9448669 0.04125988
vt 0.9521371 0.05687463
vt 0.9521368 0.06860209
vt 0.9521368 0.06860209
vt 0.9449021 0.08418226
vt 0.9449021 0.08418226
vt 0.9293273 0.091429
vt 0.9293273 0.091429
vt 0.9175998 0.09143829
vt 0.9175998 0.09143829
vt 0.1600547 0.1464657
vt 0.1089454 0.8615077
vt 0.5298628 0.8615077
vt 0.9437647 0.6560746
vt 0.9221268 0.1464657
vt 0.4719736 0.8615077
vt 0.9936099 0.8615077
vt 0.9559929 0.1464657
vt 0.07981646 0.1464657
vt 0.03964728 0.6549657
vt 0.01934097 0.6560746
vt 0.2827949 0.7522569
vt 0.5697794 0.630878
vt 0.0306592 0.1464657
vt 0.5440178 0.1464657
vt 0.6298239 0.7887561
vt 0.1150409 0.6549657
vt 0.1531179 0.1464657
vt 0.8847123 0.1464657
vt 0.9016734 0.630878
vt 0.7395102 0.6228874
vt 0.7395102 0.6615589
vt 0.7781817 0.6615589
vt 0.7781817 0.6228874
vt 0.7395102 0.6228874
vt 0.7395102 0.6615589
vt 0.7781817 0.6615589
vt 0.7781817 0.6228874
vt 0.7395102 0.6228874
vt 0.7395102 0.6615589
vt 0.7781817 0.6615589
vt 0.7781817 0.6228874
vt 0.7395102 0.6228874
vt 0.7395102 0.6615589
vt 0.7781817 0.6615589
vt 0.7781817 0.6228874
vt 0.7395102 0.6228874
vt 0.7395102 0.6615589
vt 0.7781817 0.6615589
vt 0.7781817 0.6228874
vt 0.7395102 0.6228874
vt 0.7395102 0.6615589
vt 0.7781817 0.6615589
vt 0.7781817 0.6228874
vt 0.7395102 0.6228874
vt 0.7395102 0.6615589
vt 0.7781817 0.6615589
vt 0.7781817 0.6228874
vt 0.7395102 0.6228874
vt 0.7395102 0.6615589
vt 0.7781817 0.6615589
vt 0.7781817 0.6228874
vn -0.8126746 0.4837072 -0.324942
vn -0.4437537 0.8435783 -0.3024208
vn -0.374726 0.7249572 0.5779423
vn -0.6868581 0.4084018 0.6011937
vn -0.4437537 0.8435783 -0.3024208
vn -0.005571236 0.9792678 -0.202493
vn -0.001148931 0.8493587 0.5278147
vn -0.374726 0.7249572 0.5779423
vn -0.9537574 0 -0.3005774
vn -0.8126746 0.4837072 -0.324942
vn -0.6868581 0.4084018 0.6011937
vn -0.8145847 0 0.5800446
vn -0.7765669 0.484744 0.4024515
vn -0.9447171 0 0.3278867
vn -0.8038975 0 -0.5947679
vn -0.6843759 0.3849349 -0.6192372
vn -0.7765669 0.484744 0.4024515
vn -0.6843759 0.3849349 -0.6192372
vn -0.3842131 0.6650586 -0.6403728
vn -0.480193 0.8173503 0.3183599
vn -0.0121698 0.924179 0.3817657
vn -0.480193 0.8173503 0.3183599
vn -0.3842131 0.6650586 -0.6403728
vn 0.0198743 0.7935679 -0.6081571
vn 0.4686141 0.8058869 0.361866
vn -0.0121698 0.924179 0.3817657
vn 0.0198743 0.7935679 -0.6081571
vn 0.3977985 0.688238 -0.6066999
vn 0.8077556 0.4675939 0.3590082
vn 0.4686141 0.8058869 0.361866
vn 0.3977985 0.688238 -0.6066999
vn 0.6872374 0.399507 -0.6067116
vn 0.944717 0 0.3278869
vn 0.8077556 0.4675939 0.3590082
vn 0.6872374 0.399507 -0.6067116
vn 0.8038973 0 -0.5947681
vn -0.8077553 -0.4675943 0.3590082
vn -0.6872376 -0.3995073 -0.6067111
vn -0.8038975 0 -0.5947679
vn -0.9447171 0 0.3278867
vn -0.6600545 -0.6585419 0.3614563
vn -0.5627096 -0.5652788 -0.6031732
vn -0.6872376 -0.3995073 -0.6067111
vn -0.8077553 -0.4675943 0.3590082
vn 0.8077555 -0.4675939 0.3590083
vn 0.6872375 -0.399507 -0.6067115
vn 0.5627097 -0.5652785 -0.6031733
vn 0.6600551 -0.6585415 0.361456
vn 0.944717 0 0.3278869
vn 0.8038973 0 -0.5947681
vn 0.6872375 -0.399507 -0.6067115
vn 0.8077555 -0.4675939 0.3590083
vn 0.6708392 -0.6708879 -0.3160444
vn 0.5659084 -0.565948 0.599542
vn 0.6772694 -0.410657 0.6104645
vn 0.8382882 -0.5102611 -0.1921104
vn -0.8126746 -0.4837072 -0.3249421
vn -0.6868582 -0.4084019 0.6011936
vn -0.5659084 -0.5659484 0.5995416
vn -0.6708388 -0.6708884 -0.316044
vn -0.9537574 0 -0.3005774
vn -0.8145847 0 0.5800446
vn -0.6868582 -0.4084019 0.6011936
vn -0.8126746 -0.4837072 -0.3249421
vn 0.5659084 -0.565948 0.599542
vn 0.005008831 -0.005006908 0.999975
vn 0.005956037 -0.003568209 0.9999759
vn 0.6772694 -0.410657 0.6104645
vn 0.006597816 0 0.9999783
vn 0.7921166 -0.02450223 0.6098777
vn 0.005956155 0.003568208 0.9999759
vn 0.6513072 0.3862202 0.6531715
vn 0.003399925 0.006071601 0.9999758
vn 0.3626975 0.7258781 0.5844241
vn 0 0.00679103 0.999977
vn -0.001148931 0.8493587 0.5278147
vn -0.003399863 0.006071602 0.9999758
vn -0.374726 0.7249572 0.5779423
vn -0.005955915 0.003568209 0.9999759
vn -0.6868581 0.4084018 0.6011937
vn -0.006597789 0 0.9999783
vn -0.8145847 0 0.5800446
vn -0.005956247 -0.003568209 0.9999759
vn -0.6868582 -0.4084019 0.6011936
vn -0.005008985 -0.005006907 0.999975
vn -0.5659084 -0.5659484 0.5995416
vn -0.005571236 0.9792678 -0.202493
vn 0.01880492 0.0517232 -0.9984844
vn 0.3344049 0.9292005 -0.1573524
vn -0.002821566 0.04847401 -0.9988205
vn -0.4437537 0.8435783 -0.3024208
vn -0.02020926 0.03978253 -0.9990039
vn -0.8126746 0.4837072 -0.324942
vn -0.03656232 0.02115494 -0.9991074
vn -0.9537574 0 -0.3005774
vn -0.04071196 0 -0.9991709
vn -0.8126746 -0.4837072 -0.3249421
vn -0.0365623 -0.02115493 -0.9991074
vn -0.6708388 -0.6708884 -0.316044
vn -0.03043985 -0.03044372 -0.9990729
vn 0.8382882 -0.5102611 -0.1921104
vn 0.03043989 -0.03044364 -0.9990729
vn 0.6708392 -0.6708879 -0.3160444
vn 0.03521726 -0.02319643 -0.9991104
vn 0.04070751 -0.01486063 -0.9990606
vn 0.9484467 -0.3035326 -0.09119643
vn -0.5627096 -0.5652788 -0.6031732
vn 0.008980503 0.0004612867 -0.9999596
vn 0.01065263 -0.002072986 -0.9999411
vn -0.6872376 -0.3995073 -0.6067111
vn 0.01178135 0 -0.9999306
vn -0.8038975 0 -0.5947679
vn 0.01065285 0.002072986 -0.9999411
vn -0.6843759 0.3849349 -0.6192372
vn 0.004972333 -0.003114571 -0.9999828
vn -0.3842131 0.6650586 -0.6403728
vn 0 -0.004901701 -0.999988
vn 0.0198743 0.7935679 -0.6081571
vn -0.004972615 -0.003114595 -0.9999828
vn 0.3977985 0.688238 -0.6066999
vn -0.01065309 0.002073115 -0.9999411
vn 0.6872374 0.399507 -0.6067116
vn -0.01178156 0 -0.9999306
vn 0.8038973 0 -0.5947681
vn -0.010653 -0.002073115 -0.9999411
vn 0.6872375 -0.399507 -0.6067115
vn -0.008980966 0.0004612034 -0.9999596
vn 0.5627097 -0.5652785 -0.6031733
vn -0.7765669 0.484744 0.4024515
vn -0.04366854 0.0149533 0.9989342
vn -0.04367338 0 0.9990458
vn -0.9447171 0 0.3278867
vn -0.03926848 -0.02163106 0.9989945
vn -0.8077553 -0.4675943 0.3590082
vn -0.03275219 -0.03151117 0.9989666
vn -0.6600545 -0.6585419 0.3614563
vn 0.4686141 0.8058869 0.361866
vn 0.01581109 0.04273101 0.9989616
vn -0.0121698 0.924179 0.3817657
vn 0.02262756 0.03821929 0.9990132
vn 0.8077556 0.4675939 0.3590082
vn 0.03926878 0.021631 0.9989945
vn 0.944717 0 0.3278869
vn 0.04367363 0 0.9990458
vn 0.8077555 -0.4675939 0.3590083
vn 0.03926881 -0.021631 0.9989945
vn 0.6600551 -0.6585415 0.361456
vn 0.03275256 -0.03151119 0.9989666
vn -0.001148931 0.8493587 0.5278147
vn -0.005571236 0.9792678 -0.202493
vn 0.3344049 0.9292005 -0.1573524
vn 0.4498701 0.8897465 0.0772524
vn 0.3626975 0.7258781 0.5844241
vn 0.9484467 -0.3035326 -0.09119643
vn 0.8382882 -0.5102611 -0.1921104
vn 0.6772694 -0.410657 0.6104645
vn 0.7921166 -0.02450223 0.6098777
vn 0.9927599 -0.03568863 0.1146915
vn 0.4498701 0.8897465 0.0772524
vn 0.722568 0.6888957 -0.05760334
vn 0.8436338 0.5130817 0.158206
vn 0.3626975 0.7258781 0.5844241
vn 0.6513072 0.3862202 0.6531715
vn 0.9232926 0.378884 -0.06306855
vn 0.9927599 -0.03568863 0.1146915
vn 0.7921166 -0.02450223 0.6098777
vn 0.6513072 0.3862202 0.6531715
vn 0.8436338 0.5130817 0.158206
vn 0.3344049 0.9292005 -0.1573524
vn 0.3240503 0.05204615 -0.9446071
vn 0.2000154 0.2140675 -0.9561218
vn 0.4498701 0.8897465 0.0772524
vn 0.4498701 0.8897465 0.0772524
vn 0.2000154 0.2140675 -0.9561218
vn 0.2736359 0.1890501 -0.9430713
vn 0.722568 0.6888957 -0.05760334
vn 0.9927599 -0.03568863 0.1146915
vn 0.3208895 0.09083898 -0.9427504
vn 0.2436084 0.2960918 -0.9235716
vn 0.9484467 -0.3035326 -0.09119643
vn 0.9232926 0.378884 -0.06306855
vn 0.2769257 0.1587647 -0.9476845
vn 0.3208895 0.09083898 -0.9427504
vn 0.9927599 -0.03568863 0.1146915
vn 0.722568 0.6888957 -0.05760334
vn 0.2736359 0.1890501 -0.9430713
vn 0.3026837 0.2713529 -0.9136466
vn 0.8436338 0.5130817 0.158206
vn 0.8436338 0.5130817 0.158206
vn 0.3026837 0.2713529 -0.9136466
vn 0.2769257 0.1587647 -0.9476845
vn 0.9232926 0.378884 -0.06306855
vn -0.480193 0.8173503 0.3183599
vn -0.1029924 0.1751656 0.9791372
vn 0.03411106 0.2611435 0.9646971
vn -0.7765669 0.484744 0.4024515
vn -0.0121698 0.924179 0.3817657
vn -0.1934947 0.1148667 0.9743538
vn -0.1029924 0.1751656 0.9791372
vn -0.480193 0.8173503 0.3183599
g Fortification1_0
f 3/3/3 2/2/2 1/1/1
f 4/4/4 3/3/3 1/1/1
f 7/7/7 6/6/6 5/5/5
f 8/8/8 7/7/7 5/5/5
f 11/11/11 10/10/10 9/9/9
f 12/12/12 11/11/11 9/9/9
f 15/15/15 14/14/14 13/13/13
f 16/16/16 15/15/15 13/13/13
f 19/19/19 18/18/18 17/17/17
f 20/20/20 19/19/19 17/17/17
f 23/23/23 22/22/22 21/21/21
f 24/24/24 23/23/23 21/21/21
f 27/27/27 26/26/26 25/25/25
f 28/28/28 27/27/27 25/25/25
f 31/31/31 30/30/30 29/29/29
f 32/32/32 31/31/31 29/29/29
f 35/35/35 34/34/34 33/33/33
f 36/36/36 35/35/35 33/33/33
f 39/39/39 38/38/38 37/37/37
f 40/40/40 39/39/39 37/37/37
f 43/43/43 42/42/42 41/41/41
f 44/44/44 43/43/43 41/41/41
f 47/47/47 46/46/46 45/45/45
f 48/48/48 47/47/47 45/45/45
f 51/51/51 50/50/50 49/49/49
f 52/52/52 51/51/51 49/49/49
f 55/55/55 54/54/54 53/53/53
f 56/56/56 55/55/55 53/53/53
f 59/59/59 58/58/58 57/57/57
f 60/60/60 59/59/59 57/57/57
f 63/63/63 62/62/62 61/61/61
f 64/64/64 63/63/63 61/61/61
f 67/67/67 66/66/66 65/65/65
f 68/68/68 67/67/67 65/65/65
f 69/69/69 67/67/67 68/68/68
f 70/70/70 69/69/69 68/68/68
f 71/71/71 69/69/69 70/70/70
f 72/72/72 71/71/71 70/70/70
f 73/73/73 71/71/71 72/72/72
f 74/74/74 73/73/73 72/72/72
f 75/75/75 73/73/73 74/74/74
f 76/76/76 75/75/75 74/74/74
f 77/77/77 75/75/75 76/76/76
f 78/78/78 77/77/77 76/76/76
f 79/79/79 77/77/77 78/78/78
f 80/80/80 79/79/79 78/78/78
f 81/81/81 79/79/79 80/80/80
f 82/82/82 81/81/81 80/80/80
f 83/83/83 81/81/81 82/82/82
f 84/84/84 83/83/83 82/82/82
f 85/85/85 83/83/83 84/84/84
f 86/86/86 85/85/85 84/84/84
f 89/89/89 88/88/88 87/87/87
f 88/88/88 90/90/90 87/87/87
f 87/87/87 90/90/90 91/91/91
f 90/90/90 92/92/92 91/91/91
f 91/91/91 92/92/92 93/93/93
f 92/92/92 94/94/94 93/93/93
f 93/93/93 94/94/94 95/95/95
f 94/94/94 96/96/96 95/95/95
f 95/95/95 96/96/96 97/97/97
f 96/96/96 98/98/98 97/97/97
f 97/97/97 98/98/98 99/99/99
f 98/98/98 100/100/100 99/99/99
f 103/103/103 102/102/102 101/101/101
f 102/102/102 104/104/104 101/101/101
f 101/101/101 104/104/104 105/105/105
f 106/106/106 101/101/101 105/105/105
f 109/109/109 108/108/108 107/107/107
f 110/110/110 109/109/109 107/107/107
f 111/111/111 109/109/109 110/110/110
f 112/112/112 111/111/111 110/110/110
f 113/113/113 111/111/111 112/112/112
f 114/114/114 113/113/113 112/112/112
f 115/115/115 113/113/113 114/114/114
f 116/116/116 115/115/115 114/114/114
f 117/117/117 115/115/115 116/116/116
f 118/118/118 117/117/117 116/116/116
f 119/119/119 117/117/117 118/118/118
f 120/120/120 119/119/119 118/118/118
f 121/121/121 119/119/119 120/120/120
f 122/122/122 121/121/121 120/120/120
f 123/123/123 121/121/121 122/122/122
f 124/124/124 123/123/123 122/122/122
f 125/125/125 123/123/123 124/124/124
f 126/126/126 125/125/125 124/124/124
f 127/127/127 125/125/125 126/126/126
f 128/128/128 127/127/127 126/126/126
f 131/131/131 130/130/130 129/129/129
f 132/132/132 131/131/131 129/129/129
f 133/133/133 131/131/131 132/132/132
f 134/134/134 133/133/133 132/132/132
f 135/135/135 133/133/133 134/134/134
f 136/136/136 135/135/135 134/134/134
f 139/139/139 138/138/138 137/137/137
f 138/138/138 140/140/140 137/137/137
f 137/137/137 140/140/140 141/141/141
f 140/140/140 142/142/142 141/141/141
f 141/141/141 142/142/142 143/143/143
f 142/142/142 144/144/144 143/143/143
f 143/143/143 144/144/144 145/145/145
f 144/144/144 146/146/146 145/145/145
f 145/145/145 146/146/146 147/147/147
f 146/146/146 148/148/148 147/147/147
f 151/151/151 150/150/150 149/149/149
f 149/149/149 152/152/152 151/151/151
f 149/149/149 153/153/153 152/152/152
f 156/156/156 155/155/155 154/154/154
f 154/154/154 157/157/157 156/156/156
f 154/154/154 158/158/158 157/157/157
f 161/161/161 160/160/160 159/159/159
f 159/159/159 162/162/162 161/161/161
f 162/162/162 163/163/163 161/161/161
f 166/166/166 165/165/165 164/164/164
f 164/164/164 167/167/167 166/166/166
f 164/164/164 168/168/168 167/167/167
f 171/171/171 170/170/170 169/169/169
f 172/172/172 171/171/171 169/169/169
f 175/175/175 174/174/174 173/173/173
f 176/176/176 175/175/175 173/173/173
f 179/179/179 178/178/178 177/177/177
f 180/180/180 179/179/179 177/177/177
f 183/183/183 182/182/182 181/181/181
f 184/184/184 183/183/183 181/181/181
f 187/187/187 186/186/186 185/185/185
f 188/188/188 187/187/187 185/185/185
f 191/191/191 190/190/190 189/189/189
f 192/192/192 191/191/191 189/189/189
f 195/195/195 194/194/194 193/193/193
f 196/196/196 195/195/195 193/193/193
f 199/199/199 198/198/198 197/197/197
f 200/200/200 199/199/199 197/197/197
