g Fortification1
v -6.522766 6.093194 23.67374
v 9.561479E-06 -7.411746 22.72126
v -11.48425 3.628388 26.16822
v 1.024507E-05 6.24403 27.04041
v 9.561479E-06 -7.411746 22.72126
v -6.522766 6.093194 23.67374
v -18.35628 6.707253 -9.377956
v -22.77855 -2.478842 -9.388539
v -18.04808 -2.451108 -19.06173
v -14.58891 4.827818 -18.99443
v -12.13799 11.43039 -9.371347
v -18.35628 6.707253 -9.377956
v -14.58891 4.827818 -18.99443
v -9.656015 8.592543 -18.95781
v -0.0004770076 14.79322 -9.36911
v -12.13799 11.43039 -9.371347
v -9.656015 8.592543 -18.95781
v -0.0004781121 11.25366 -18.95366
v 7.517936 11.86759 -11.65203
v -0.0004770076 14.79322 -9.36911
v -0.0004781121 11.25366 -18.95366
v 12.13702 11.43039 -9.371352
v 9.655048 8.592543 -18.95781
v 14.31808 8.682662 -11.58889
v 12.13702 11.43039 -9.371352
v 9.655048 8.592543 -18.95781
v 18.35531 6.707253 -9.377959
v 14.58794 4.827818 -18.99444
v 22.77757 -2.478842 -9.388545
v 18.35531 6.707253 -9.377959
v 14.58794 4.827818 -18.99444
v 18.04711 -2.451108 -19.06174
v -18.35628 -10.72101 -9.377956
v -14.58891 -8.507242 -18.99443
v -18.04808 -2.451108 -19.06173
v -22.77855 -2.478842 -9.388539
v -12.13799 -14.37388 -9.371347
v -9.656015 -11.53604 -18.95781
v -14.58891 -8.507242 -18.99443
v -18.35628 -10.72101 -9.377956
v 18.35531 -10.72101 -9.377959
v 14.58794 -8.507242 -18.99444
v 9.655048 -11.53604 -18.95781
v 12.13702 -14.37388 -9.371352
v 22.77757 -2.478842 -9.388545
v 18.04711 -2.451108 -19.06174
v 14.58794 -8.507242 -18.99444
v 18.35531 -10.72101 -9.377959
v -9.656015 -11.53604 -18.95781
v -6.534225 -8.414073 -18.91185
v -9.872236 -6.129786 -18.93664
v -14.58891 -8.507242 -18.99443
v -12.213 -2.198588 -18.98218
v -18.04808 -2.451108 -19.06173
v -9.872236 2.465456 -18.93664
v -14.58891 4.827818 -18.99443
v -6.534225 5.012982 -18.91185
v -9.656015 8.592543 -18.95781
v -0.0004812329 6.813715 -18.90905
v -0.0004781121 11.25366 -18.95366
v 6.533255 5.012982 -18.91186
v 9.655048 8.592543 -18.95781
v 9.871262 2.465456 -18.93664
v 14.58794 4.827818 -18.99444
v 12.21202 -2.198588 -18.98218
v 18.04711 -2.451108 -19.06174
v 9.871261 -6.129786 -18.93664
v 14.58794 -8.507242 -18.99444
v 6.533255 -8.414073 -18.91186
v 9.655048 -11.53604 -18.95781
v -0.0004770076 14.79322 -9.36911
v -0.0004811235 8.694201 -9.367981
v -7.852054 6.518832 -9.369431
v -12.13799 11.43039 -9.371347
v -11.87458 3.463509 -9.373703
v -18.35628 6.707253 -9.377956
v -14.73528 -2.462295 -9.380549
v -22.77855 -2.478842 -9.388539
v -11.87458 -7.511399 -9.373703
v -18.35628 -10.72101 -9.377956
v -7.852054 -10.26233 -9.369431
v -12.13799 -14.37388 -9.371347
v 22.77757 -2.478842 -9.388545
v 11.87361 3.463509 -9.373705
v 18.35531 6.707253 -9.377959
v 14.7343 -2.462295 -9.380552
v 18.35531 -10.72101 -9.377959
v 11.87361 -7.511399 -9.373705
v 12.13702 -14.37388 -9.371352
v 7.851084 -10.26233 -9.369432
v 7.517936 11.86759 -11.65203
v 5.722085 8.126726 -9.833588
v -0.0004811113 8.694201 -9.367981
v -0.0004770076 14.79322 -9.36911
v 12.13702 11.43039 -9.371352
v 9.38694 8.152597 -7.549855
v 5.722085 8.126726 -9.833588
v 7.517936 11.86759 -11.65203
v 14.31808 8.682662 -11.58889
v 10.61161 5.870177 -9.760189
v 9.38694 8.152597 -7.549855
v 12.13702 11.43039 -9.371352
v 18.35531 6.707253 -9.377959
v 11.87361 3.463509 -9.373705
v 10.61161 5.870177 -9.760189
v 14.31808 8.682662 -11.58889
v -19.22572 4.13594 16.31036
v -12.70049 8.266816 17.69036
v -11.48425 3.628388 26.16822
v -17.39133 -0.1111116 24.91898
v 19.22572 4.135942 16.31036
v 23.81658 -3.883941 13.62968
v 20.87426 -7.359221 22.496
v 17.39133 -0.1111116 24.91898
v 12.7005 8.266816 17.69036
v 19.22572 4.135942 16.31036
v 17.39133 -0.1111116 24.91898
v 11.48425 3.628388 26.16822
v -11.48425 3.628388 26.16822
v -12.70049 8.266816 17.69036
v 1.043215E-05 11.17402 18.66007
v -6.522766 6.093194 23.67374
v 1.024507E-05 6.24403 27.04041
v 1.043215E-05 11.17402 18.66007
v 12.7005 8.266816 17.69036
v 11.48425 3.628388 26.16822
v 1.024507E-05 6.24403 27.04041
v -23.81658 -3.88394 13.62968
v -19.22572 4.13594 16.31036
v -17.39133 -0.1111116 24.91898
v -20.87426 -7.359221 22.496
v 19.22572 -11.90494 10.95163
v 17.39133 -14.60854 20.07587
v 20.87426 -7.359221 22.496
v 23.81658 -3.883941 13.62968
v -23.81658 -3.88394 13.62968
v -20.87426 -7.359221 22.496
v -17.39133 -14.60854 20.07588
v -19.22572 -11.90494 10.95164
v 9.561479E-06 -7.411746 22.72126
v -17.39133 -0.1111116 24.91898
v -11.48425 3.628388 26.16822
v -20.87426 -7.359221 22.496
v -17.39133 -14.60854 20.07588
v 1.024507E-05 6.24403 27.04041
v 11.48425 3.628388 26.16822
v 17.39133 -0.1111116 24.91898
v 20.87426 -7.359221 22.496
v 17.39133 -14.60854 20.07587
v 3.287718E-06 -3.1046 11.79538
v 19.22572 -11.90494 10.95163
v 23.81658 -3.883941 13.62968
v 19.22572 4.135942 16.31036
v 12.7005 8.266816 17.69036
v 1.043215E-05 11.17402 18.66007
v -12.70049 8.266816 17.69036
v -19.22572 4.13594 16.31036
v -23.81658 -3.88394 13.62968
v -19.22572 -11.90494 10.95164
vt 0.7260423 0.3096072
vt 0.7067243 0.2709715
vt 0.6874063 0.3096073
vt 0.7260423 0.3096072
vt 0.7067243 0.2709715
vt 0.6874063 0.3096073
vt 0.964546 0.8615077
vt 0.1493707 0.8615077
vt 0.2515259 0.1464657
vt 0.898661 0.1464657
vt 0.06720436 0.8615077
vt 0.6240561 0.8615077
vt 0.5711845 0.1464657
vt 0.1283677 0.1464657
vt 0.1177989 0.8615077
vt 0.9634749 0.8615077
vt 0.8708579 0.1464657
vt 0.1985204 0.1464657
vt 0.6631319 0.691297
vt 0.1287107 0.8615077
vt 0.2148439 0.1464657
vt 0.9583639 0.8615077
vt 0.874442 0.1464657
vt 0.3705457 0.696873
vt 0.6346632 0.8615077
vt 0.5665606 0.1464657
vt 0.07392102 0.8615077
vt 0.120628 0.1464657
vt 0.1279131 0.8615077
vt 0.9514793 0.8615077
vt 0.8816136 0.1464657
vt 0.227795 0.1464657
vt 0.9670267 0.8615077
vt 0.8652623 0.1464657
vt 0.2055488 0.1464657
vt 0.1363106 0.8615077
vt 0.5926995 0.8615077
vt 0.5234139 0.1464657
vt 0.06924725 0.1464657
vt 0.02160311 0.8615077
vt 0.634038 0.8615077
vt 0.5976186 0.1464657
vt 0.1440023 0.1464657
vt 0.0636791 0.8615077
vt 0.170561 0.8615077
vt 0.2615971 0.1464657
vt 0.9005057 0.1464657
vt 0.9752903 0.8615077
vt 0.9004527 0.0674032
vt 0.9004527 0.0674032
vt 0.9004641 0.05807722
vt 0.9004641 0.05807722
vt 0.9062588 0.04573226
vt 0.9062588 0.04573226
vt 0.918586 0.03989971
vt 0.918586 0.03989971
vt 0.9279118 0.03985977
vt 0.9279118 0.03985977
vt 0.9403272 0.04563701
vt 0.9403272 0.04563701
vt 0.9461425 0.05803454
vt 0.9461425 0.05803454
vt 0.9461305 0.06735981
vt 0.9461305 0.06735981
vt 0.9403345 0.07970357
vt 0.9403345 0.07970357
vt 0.9280086 0.08553731
vt 0.9280086 0.08553731
vt 0.9186834 0.08557796
vt 0.9186834 0.08557796
vt 0.9448669 0.04125988
vt 0.9448669 0.04125988
vt 0.9292465 0.03400159
vt 0.9292465 0.03400159
vt 0.9175189 0.03401077
vt 0.9175189 0.03401077
vt 0.901944 0.04125726
vt 0.901944 0.04125726
vt 0.8947094 0.0568378
vt 0.8947094 0.0568378
vt 0.8947092 0.06856537
vt 0.8947092 0.06856537
vt 0.9449021 0.08418226
vt 0.9521368 0.06860209
vt 0.9521368 0.06860209
vt 0.9449021 0.08418226
vt 0.9293273 0.091429
vt 0.9293273 0.091429
vt 0.9175998 0.09143829
vt 0.9175998 0.09143829
vt 0.7154486 0.3284099
vt 0.7154486 0.2822057
vt 0.6692445 0.2822057
vt 0.6692445 0.3284099
vt 0.7154486 0.3284099
vt 0.7154486 0.2822057
vt 0.6692445 0.2822057
vt 0.6692445 0.3284099
vt 0.7154486 0.3284099
vt 0.7154486 0.2822057
vt 0.6692445 0.2822057
vt 0.6692445 0.3284099
vt 0.7154486 0.3284099
vt 0.7154486 0.2822057
vt 0.6692445 0.2822057
vt 0.6692445 0.3284099
vt 0.01237059 0.8615077
vt 0.6327724 0.8615077
vt 0.5966811 0.1464657
vt 0.03523743 0.1464657
vt 0.9097486 0.8615077
vt 0.0995748 0.8615077
vt 0.1531179 0.1464657
vt 0.8847123 0.1464657
vt 0.01477838 0.8615077
vt 0.5820446 0.8615077
vt 0.5440178 0.1464657
vt 0.0306592 0.1464657
vt 0.9462807 0.1464657
vt 0.9753335 0.8615077
vt 0.05972219 0.8615077
vt 0.5695366 0.3818266
vt 0.1191161 0.1464657
vt 0.1089454 0.8615077
vt 0.9524875 0.8615077
vt 0.9221268 0.1464657
vt 0.1600547 0.1464657
vt 0.08638275 0.8615077
vt 0.9531981 0.8615077
vt 0.9149623 0.1464657
vt 0.1322221 0.1464657
vt 0.9936099 0.8615077
vt 0.9559929 0.1464657
vt 0.07981646 0.1464657
vt 0.0233314 0.8615077
vt 0.9890069 0.8615077
vt 0.9373006 0.1464657
vt 0.1049963 0.1464657
vt 0.06731206 0.8615077
vt 0.9237778 0.06272042
vt 0.9182273 0.03576314
vt 0.929271 0.0357635
vt 0.9036628 0.04260564
vt 0.8968204 0.05717003
vt 0.943868 0.04263771
vt 0.9507422 0.05723464
vt 0.9507425 0.06827831
vt 0.9439 0.08284271
vt 0.9293357 0.08968508
vt 0.9236529 0.06271911
vt 0.9303069 0.09507167
vt 0.9478124 0.08687866
vt 0.9560055 0.06937313
vt 0.9560052 0.05613708
vt 0.9477804 0.03859901
vt 0.9302424 0.03037429
vt 0.9170063 0.03037393
vt 0.8995007 0.03856707
vt 0.8913077 0.05607259
vn 0.3947222 0.1264626 0.9100558
vn 0.3947222 0.1264627 0.9100558
vn 0.3947222 0.1264626 0.9100558
vn -0.4364848 -0.2713201 0.8578265
vn -0.4364849 -0.2713202 0.8578266
vn -0.4364849 -0.2713202 0.8578266
vn -0.7882395 0.5849832 0.1909795
vn -0.992039 0.002359371 0.1259091
vn -0.7934048 -0.002795339 -0.6086879
vn -0.6268879 0.4931099 -0.6032033
vn -0.4082178 0.8993545 0.1565882
vn -0.7882395 0.5849832 0.1909795
vn -0.6268879 0.4931099 -0.6032033
vn -0.328389 0.7683951 -0.5492992
vn -0.09882089 0.9682818 0.229488
vn -0.4082178 0.8993545 0.1565882
vn -0.328389 0.7683951 -0.5492992
vn -0.08748568 0.7981122 -0.5961235
vn 0.2293769 0.9733107 0.00723869
vn -0.09882089 0.9682818 0.229488
vn -0.08748568 0.7981122 -0.5961235
vn 0.3986911 0.8965588 0.192945
vn 0.2893737 0.6784359 -0.6752685
vn 0.6207963 0.7839693 -0.002018028
vn 0.3986911 0.8965588 0.192945
vn 0.2893737 0.6784359 -0.6752685
vn 0.8078171 0.5494724 0.2133346
vn 0.6302533 0.4431972 -0.6374614
vn 0.992039 0.002359323 0.1259091
vn 0.8078171 0.5494724 0.2133346
vn 0.6302533 0.4431972 -0.6374614
vn 0.7934048 -0.002795332 -0.608688
vn -0.7403861 -0.6501203 0.1707985
vn -0.5828559 -0.5483458 -0.5996633
vn -0.7934048 -0.002795339 -0.6086879
vn -0.992039 0.002359371 0.1259091
vn -0.4972614 -0.8312469 0.2485152
vn -0.3964338 -0.6677134 -0.6300787
vn -0.5828559 -0.5483458 -0.5996633
vn -0.7403861 -0.6501203 0.1707985
vn 0.7403864 -0.6501199 0.1707985
vn 0.5828559 -0.5483453 -0.5996636
vn 0.3964339 -0.6677133 -0.6300787
vn 0.4972615 -0.8312467 0.2485154
vn 0.992039 0.002359323 0.1259091
vn 0.7934048 -0.002795332 -0.608688
vn 0.5828559 -0.5483453 -0.5996636
vn 0.7403864 -0.6501199 0.1707985
vn -0.3964338 -0.6677134 -0.6300787
vn 0.01020189 0.004323277 -0.9999386
vn 0.01201696 0.0005258128 -0.9999276
vn -0.5828559 -0.5483458 -0.5996633
vn 0.01369846 1.070382E-05 -0.9999062
vn -0.7934048 -0.002795339 -0.6086879
vn 0.01202972 -0.00034637 -0.9999276
vn -0.6268879 0.4931099 -0.6032033
vn 0.005615044 -0.007939827 -0.9999528
vn -0.328389 0.7683951 -0.5492992
vn 0 -0.01004727 -0.9999496
vn -0.08748568 0.7981122 -0.5961235
vn -0.005615032 -0.007939608 -0.9999528
vn 0.2893737 0.6784359 -0.6752685
vn -0.0120299 -0.0003462453 -0.9999276
vn 0.6302533 0.4431972 -0.6374614
vn -0.01369864 1.082321E-05 -0.9999062
vn 0.7934048 -0.002795332 -0.608688
vn -0.01201708 0.0005255726 -0.9999276
vn 0.5828559 -0.5483453 -0.5996636
vn -0.01020204 0.004322591 -0.9999386
vn 0.3964339 -0.6677133 -0.6300787
vn -0.09882089 0.9682818 0.229488
vn -0.00023572 0.0001849674 1
vn -0.0004324337 1.331584E-05 0.9999999
vn -0.4082178 0.8993545 0.1565882
vn -0.0009107123 -0.0005099596 0.9999995
vn -0.7882395 0.5849832 0.1909795
vn -0.001001588 1.071744E-05 0.9999995
vn -0.992039 0.002359371 0.1259091
vn -0.0009237281 0.000574838 0.9999994
vn -0.7403861 -0.6501203 0.1707985
vn -0.0008280578 0.0003749813 0.9999996
vn -0.4972614 -0.8312469 0.2485152
vn 0.992039 0.002359323 0.1259091
vn 0.0009931634 -0.0006749819 0.9999993
vn 0.8078171 0.5494724 0.2133346
vn 0.001001904 1.07183E-05 0.9999995
vn 0.7403864 -0.6501199 0.1707985
vn 0.0009239351 0.0005746814 0.9999994
vn 0.4972615 -0.8312467 0.2485154
vn 0.0008281445 0.0003745855 0.9999996
vn 0.2293769 0.9733107 0.00723869
vn 0.0550832 0.3006203 0.952152
vn 0.235406 0.1350153 0.9624733
vn -0.09882089 0.9682818 0.229488
vn 0.3986911 0.8965588 0.192945
vn 0.06800132 0.3347472 0.9398511
vn 0.0550832 0.3006203 0.952152
vn 0.2293769 0.9733107 0.00723869
vn 0.6207963 0.7839693 -0.002018028
vn 0.2657354 0.1545576 0.9515759
vn 0.06800132 0.3347472 0.9398511
vn 0.3986911 0.8965588 0.192945
vn 0.8078171 0.5494724 0.2133346
vn -0.09037061 0.4246688 0.9008272
vn 0.2657354 0.1545576 0.9515759
vn 0.6207963 0.7839693 -0.002018028
vn -0.6319071 0.6768608 -0.3775619
vn -0.3281655 0.916993 -0.2267846
vn -0.3327818 0.539344 0.7735402
vn -0.5439726 0.2131969 0.8115669
vn 0.631907 0.6768605 -0.3775623
vn 0.8339002 0.185756 -0.5197164
vn 0.7186131 -0.2292959 0.65652
vn 0.5439732 0.2131971 0.8115665
vn 0.3255681 0.9282832 -0.1797107
vn 0.631907 0.6768605 -0.3775623
vn 0.5439732 0.2131971 0.8115665
vn 0.2756657 0.4857819 0.8294724
vn -0.3327818 0.539344 0.7735402
vn -0.3281655 0.916993 -0.2267846
vn 0.01623686 0.9837353 -0.1788892
vn -0.2284796 0.8307298 0.5076267
vn 0.05087293 0.6601073 0.7494466
vn 0.01623686 0.9837353 -0.1788892
vn 0.3255681 0.9282832 -0.1797107
vn 0.2756657 0.4857819 0.8294724
vn 0.05087293 0.6601073 0.7494466
vn -0.8338997 0.1857561 -0.519717
vn -0.6319071 0.6768608 -0.3775619
vn -0.5439726 0.2131969 0.8115669
vn -0.718613 -0.229296 0.6565202
vn 0.6725892 -0.1144348 -0.7311146
vn 0.5792753 -0.5164777 0.6306274
vn 0.7186131 -0.2292959 0.65652
vn 0.8339002 0.185756 -0.5197164
vn -0.8338997 0.1857561 -0.519717
vn -0.718613 -0.229296 0.6565202
vn -0.579275 -0.5164772 0.6306281
vn -0.6725892 -0.1144356 -0.7311143
vn -0.01027654 -0.3140799 0.9493409
vn -0.5439726 0.2131969 0.8115669
vn -0.3327818 0.539344 0.7735402
vn -0.718613 -0.229296 0.6565202
vn -0.579275 -0.5164772 0.6306281
vn 0.05087293 0.6601073 0.7494466
vn 0.2756657 0.4857819 0.8294724
vn 0.5439732 0.2131971 0.8115665
vn 0.7186131 -0.2292959 0.65652
vn 0.5792753 -0.5164777 0.6306274
vn 0 0.3783695 -0.9256546
vn 0.6725892 -0.1144348 -0.7311146
vn 0.8339002 0.185756 -0.5197164
vn 0.631907 0.6768605 -0.3775623
vn 0.3255681 0.9282832 -0.1797107
vn 0.01623686 0.9837353 -0.1788892
vn -0.3281655 0.916993 -0.2267846
vn -0.6319071 0.6768608 -0.3775619
vn -0.8338997 0.1857561 -0.519717
vn -0.6725892 -0.1144356 -0.7311143
g Fortification1_0
f 3/3/3 2/2/2 1/1/1
f 6/6/6 5/5/5 4/4/4
f 9/9/9 8/8/8 7/7/7
f 10/10/10 9/9/9 7/7/7
f 13/13/13 12/12/12 11/11/11
f 14/14/14 13/13/13 11/11/11
f 17/17/17 16/16/16 15/15/15
f 18/18/18 17/17/17 15/15/15
f 21/21/21 20/20/20 19/19/19
f 21/21/21 19/19/19 22/22/22
f 23/23/23 21/21/21 22/22/22
f 26/26/26 25/25/25 24/24/24
f 26/26/26 24/24/24 27/27/27
f 28/28/28 26/26/26 27/27/27
f 31/31/31 30/30/30 29/29/29
f 32/32/32 31/31/31 29/29/29
f 35/35/35 34/34/34 33/33/33
f 36/36/36 35/35/35 33/33/33
f 39/39/39 38/38/38 37/37/37
f 40/40/40 39/39/39 37/37/37
f 43/43/43 42/42/42 41/41/41
f 44/44/44 43/43/43 41/41/41
f 47/47/47 46/46/46 45/45/45
f 48/48/48 47/47/47 45/45/45
f 51/51/51 50/50/50 49/49/49
f 52/52/52 51/51/51 49/49/49
f 53/53/53 51/51/51 52/52/52
f 54/54/54 53/53/53 52/52/52
f 55/55/55 53/53/53 54/54/54
f 56/56/56 55/55/55 54/54/54
f 57/57/57 55/55/55 56/56/56
f 58/58/58 57/57/57 56/56/56
f 59/59/59 57/57/57 58/58/58
f 60/60/60 59/59/59 58/58/58
f 61/61/61 59/59/59 60/60/60
f 62/62/62 61/61/61 60/60/60
f 63/63/63 61/61/61 62/62/62
f 64/64/64 63/63/63 62/62/62
f 65/65/65 63/63/63 64/64/64
f 66/66/66 65/65/65 64/64/64
f 67/67/67 65/65/65 66/66/66
f 68/68/68 67/67/67 66/66/66
f 69/69/69 67/67/67 68/68/68
f 70/70/70 69/69/69 68/68/68
f 73/73/73 72/72/72 71/71/71
f 74/74/74 73/73/73 71/71/71
f 75/75/75 73/73/73 74/74/74
f 76/76/76 75/75/75 74/74/74
f 77/77/77 75/75/75 76/76/76
f 78/78/78 77/77/77 76/76/76
f 79/79/79 77/77/77 78/78/78
f 80/80/80 79/79/79 78/78/78
f 81/81/81 79/79/79 80/80/80
f 82/82/82 81/81/81 80/80/80
f 85/85/85 84/84/84 83/83/83
f 84/84/84 86/86/86 83/83/83
f 83/83/83 86/86/86 87/87/87
f 86/86/86 88/88/88 87/87/87
f 87/87/87 88/88/88 89/89/89
f 88/88/88 90/90/90 89/89/89
f 93/93/93 92/92/92 91/91/91
f 94/94/94 93/93/93 91/91/91
f 97/97/97 96/96/96 95/95/95
f 98/98/98 97/97/97 95/95/95
f 101/101/101 100/100/100 99/99/99
f 102/102/102 101/101/101 99/99/99
f 105/105/105 104/104/104 103/103/103
f 106/106/106 105/105/105 103/103/103
f 109/109/109 108/108/108 107/107/107
f 110/110/110 109/109/109 107/107/107
f 113/113/113 112/112/112 111/111/111
f 114/114/114 113/113/113 111/111/111
f 117/117/117 116/116/116 115/115/115
f 118/118/118 117/117/117 115/115/115
f 121/121/121 120/120/120 119/119/119
f 119/119/119 122/122/122 121/121/121
f 121/121/121 122/122/122 123/123/123
f 126/126/126 125/125/125 124/124/124
f 127/127/127 126/126/126 124/124/124
f 130/130/130 129/129/129 128/128/128
f 131/131/131 130/130/130 128/128/128
f 134/134/134 133/133/133 132/132/132
f 135/135/135 134/134/134 132/132/132
f 138/138/138 137/137/137 136/136/136
f 139/139/139 138/138/138 136/136/136
f 142/142/142 141/141/141 140/140/140
f 141/141/141 143/143/143 140/140/140
f 143/143/143 144/144/144 140/140/140
f 146/146/146 145/145/145 140/140/140
f 147/147/147 146/146/146 140/140/140
f 148/148/148 147/147/147 140/140/140
f 149/149/149 148/148/148 140/140/140
f 152/152/152 151/151/151 150/150/150
f 153/153/153 152/152/152 150/150/150
f 154/154/154 153/153/153 150/150/150
f 155/155/155 154/154/154 150/150/150
f 156/156/156 155/155/155 150/150/150
f 157/157/157 156/156/156 150/150/150
f 158/158/158 157/157/157 150/150/150
f 159/159/159 158/158/158 150/150/150
