g Fortification2
v -13.99545 7.551006 7.200991
v -9.24538 12.30077 7.200999
v -8.357319 11.43088 14.00609
v -12.65602 6.660967 13.89447
v 14.34571 3.851267 10.42306
v 16.1069 -1.67106 11.03654
v 15.19062 -1.67106 13.89338
v 12.65602 6.660967 13.89447
v 14.59603 5.133742 8.059407
v 15.18433 2.545878 9.148851
v 13.99545 7.551006 7.200988
v 17.3374 -1.67106 7.199984
v 9.245388 12.30077 7.200998
v 13.99545 7.551006 7.200988
v 12.65602 6.660967 13.89447
v 8.357324 10.95932 13.89448
v 7.284731E-06 15.64289 7.200004
v 9.245388 12.30077 7.200998
v 8.357324 10.95932 13.89448
v 7.217228E-06 14.43675 14.00501
v -14.6941 3.577785 9.511509
v -13.99545 7.551006 7.200991
v -12.65602 6.660967 13.89447
v -14.96502 2.075599 10.36393
v -15.87748 1.545578 8.117778
v -15.19062 -1.67106 13.89338
v -17.3374 -1.67106 7.199985
v -12.56027 6.614221 -6.434712
v -15.58628 -1.667771 -6.442741
v -12.34938 -1.667771 -13.7815
v -9.98238 4.919762 -13.73044
v -8.305289 10.8725 -6.429699
v -12.56027 6.614221 -6.434712
v -9.98238 4.919762 -13.73044
v -6.606961 8.313958 -13.70265
v 7.365495E-06 13.90436 -6.428
v -8.305289 10.8725 -6.429699
v -6.606961 8.313958 -13.70265
v 6.609782E-06 10.71317 -13.69951
v 5.14461 11.26667 -8.159985
v 7.365495E-06 13.90436 -6.428
v 6.609782E-06 10.71317 -13.69951
v 8.305298 10.8725 -6.429702
v 6.606967 8.313958 -13.70265
v 9.797728 8.395204 -8.112083
v 8.305298 10.8725 -6.429702
v 6.606967 8.313958 -13.70265
v 12.56027 6.614221 -6.434715
v 9.982381 4.919762 -13.73044
v 15.58628 -1.667771 -6.442746
v 12.56027 6.614221 -6.434715
v 9.982381 4.919762 -13.73044
v 12.34938 -1.667771 -13.7815
v -12.56027 -9.949761 -6.434712
v -9.98238 -8.255303 -13.73044
v -12.34938 -1.667771 -13.7815
v -15.58628 -1.667771 -6.442741
v -8.305289 -14.20804 -6.429699
v -6.606961 -11.6495 -13.70265
v -9.98238 -8.255303 -13.73044
v -12.56027 -9.949761 -6.434712
v 12.56027 -9.949761 -6.434715
v 9.98238 -8.255303 -13.73044
v 6.606967 -11.6495 -13.70265
v 8.305298 -14.20804 -6.429702
v 15.58628 -1.667771 -6.442746
v 12.34938 -1.667771 -13.7815
v 9.98238 -8.255303 -13.73044
v 12.56027 -9.949761 -6.434715
v 12.65602 -10.00309 13.89447
v 15.19062 -1.67106 13.89338
v 16.1069 -1.67106 11.03654
v 15.10948 -4.762696 10.65354
v -13.99545 -10.89313 7.200991
v -12.65602 -10.00309 13.89447
v -8.357319 -14.30144 13.89448
v -9.24538 -15.64289 7.200999
v -17.3374 -1.67106 7.199985
v -15.19062 -1.67106 13.89338
v -12.65602 -10.00309 13.89447
v -13.99545 -10.89313 7.200991
v -6.606961 -11.6495 -13.70265
v -4.470822 -8.422241 -13.66779
v -6.754913 -6.125445 -13.68659
v -9.98238 -8.255303 -13.73044
v -8.35662 -1.667771 -13.72114
v -12.34938 -1.667771 -13.7815
v -6.754913 2.789904 -13.68659
v -9.98238 4.919762 -13.73044
v -4.470822 5.0867 -13.66779
v -6.606961 8.313958 -13.70265
v 4.474819E-06 6.710205 -13.66566
v 6.609782E-06 10.71317 -13.69951
v 4.470826 5.0867 -13.66779
v 6.606967 8.313958 -13.70265
v 6.754914 2.789904 -13.6866
v 9.982381 4.919762 -13.73044
v 8.35662 -1.667771 -13.72115
v 12.34938 -1.667771 -13.7815
v 6.754913 -6.125445 -13.6866
v 9.98238 -8.255303 -13.73044
v 4.470826 -8.422241 -13.66779
v 6.606967 -11.6495 -13.70265
v 7.365495E-06 13.90436 -6.428
v 4.549101E-06 8.405609 -6.427144
v -5.37257 6.444342 -6.428243
v -8.305289 10.8725 -6.429699
v -8.125052 3.689727 -6.431486
v -12.56027 6.614221 -6.434712
v -10.08254 -1.667771 -6.436679
v -15.58628 -1.667771 -6.442741
v -8.125052 -7.025269 -6.431486
v -12.56027 -9.949761 -6.434712
v -5.37257 -9.779883 -6.428243
v -8.305289 -14.20804 -6.429699
v 15.58628 -1.667771 -6.442746
v 8.125054 3.689727 -6.431488
v 12.56027 6.614221 -6.434715
v 10.08253 -1.667771 -6.436683
v 12.56027 -9.949761 -6.434715
v 8.125054 -7.025269 -6.431488
v 8.305298 -14.20804 -6.429702
v 5.372573 -9.779883 -6.428245
v -8.357319 11.43088 14.00609
v -6.007961 4.232879 10.63927
v -8.468516 3.904145 13.92331
v -12.65602 6.660967 13.89447
v -10.16449 -1.67106 13.92258
v -15.19062 -1.67106 13.89338
v -8.468516 -7.246265 13.92331
v -12.65602 -10.00309 13.89447
v -5.592129 -10.12242 13.92331
v -8.357319 -14.30144 13.89448
v 8.357324 10.95932 13.89448
v 4.610568E-06 8.791615 13.92259
v 7.217228E-06 14.43675 14.00501
v 5.592133 6.7803 13.92331
v 12.65602 6.660967 13.89447
v 8.468514 3.904145 13.92331
v 15.19062 -1.67106 13.89338
v 10.16449 -1.67106 13.92258
v 12.65602 -10.00309 13.89447
v 8.468514 -7.246265 13.92331
v -13.99545 7.551006 7.200991
v -8.929317 4.212764 6.967986
v -5.898697 7.243189 6.967992
v -9.24538 12.30077 7.200999
v 4.669204E-06 9.375507 6.967356
v 7.284731E-06 15.64289 7.200004
v 5.898702 7.243189 6.967991
v 9.245388 12.30077 7.200998
v 8.929318 4.212764 6.967984
v 13.99545 7.551006 7.200988
v 11.06154 -1.67106 6.967344
v 17.3374 -1.67106 7.199984
v -9.24538 -15.64289 7.200999
v -5.898697 -10.58531 6.967992
v -8.929317 -7.554884 6.967986
v -13.99545 -10.89313 7.200991
v -11.06154 -1.67106 6.967344
v -17.3374 -1.67106 7.199985
v -9.24538 12.30077 7.200999
v -4.561208 12.87295 11.95511
v -8.357319 11.43088 14.00609
v 7.284731E-06 15.64289 7.200004
v 7.217228E-06 14.43675 14.00501
v 5.14461 11.26667 -8.159985
v 3.915769 7.893987 -6.780387
v 4.557446E-06 8.405609 -6.427144
v 7.365495E-06 13.90436 -6.428
v 8.305298 10.8725 -6.429702
v 6.42351 7.917314 -5.047787
v 3.915769 7.893987 -6.780387
v 5.14461 11.26667 -8.159985
v 9.797728 8.395204 -8.112083
v 7.261513 5.859529 -6.724702
v 6.42351 7.917314 -5.047787
v 8.305298 10.8725 -6.429702
v 12.56027 6.614221 -6.434715
v 8.125054 3.689727 -6.431488
v 7.261513 5.859529 -6.724702
v 9.797728 8.395204 -8.112083
v 16.1069 -1.67106 11.03654
v 14.29117 -3.21216 9.772766
v 13.54195 -5.534459 9.485075
v 15.10948 -4.762696 10.65354
v 14.34571 3.851267 10.42306
v 13.46995 0.740859 9.649883
v 14.29117 -3.21216 9.772766
v 16.1069 -1.67106 11.03654
v 15.18433 2.545878 9.148851
v 14.09988 -0.2396922 8.692757
v 13.46995 0.740859 9.649883
v 14.34571 3.851267 10.42306
v 14.59603 5.133742 8.059407
v 13.65798 1.704198 7.874413
v 14.09988 -0.2396922 8.692757
v 15.18433 2.545878 9.148851
v 17.3374 -1.67106 7.199984
v 15.71718 -3.407267 7.228853
v 13.65798 1.704198 7.874413
v 14.59603 5.133742 8.059407
v -4.561208 12.87295 11.95511
v -4.561208 10.19507 11.68425
v -6.007961 4.232879 10.63927
v -8.357319 11.43088 14.00609
v 7.217228E-06 14.43675 14.00501
v 4.610568E-06 8.791615 13.92259
v -4.561208 10.19507 11.68425
v -4.561208 12.87295 11.95511
v -14.6941 3.577785 9.511509
v -12.17311 2.722754 8.803464
v -8.929317 4.212764 6.967986
v -13.99545 7.551006 7.200991
v -15.87748 1.545578 8.117778
v -13.39611 0.6464512 7.321923
v -12.17311 2.722754 8.803464
v -14.6941 3.577785 9.511509
v -14.96502 2.075599 10.36393
v -12.48365 1.176472 9.568074
v -13.39611 0.6464512 7.321923
v -15.87748 1.545578 8.117778
v -17.3374 -1.67106 7.199985
v -11.06154 -1.67106 6.967344
v -12.48365 1.176472 9.568074
v -14.96502 2.075599 10.36393
vt 0.01237059 0.8615077
vt 0.6327724 0.8615077
vt 0.5966811 0.1464657
vt 0.03523743 0.1464657
vt 0.6126727 0.5153444
vt 0.1302649 0.4516563
vt 0.1531179 0.1464657
vt 0.8847123 0.1464657
vt 0.704257 0.7697764
vt 0.4856259 0.6533631
vt 0.9097486 0.8615077
vt 0.0995748 0.8615077
vt 0.01477838 0.8615077
vt 0.5820446 0.8615077
vt 0.5440178 0.1464657
vt 0.0306592 0.1464657
vt 0.1089454 0.8615077
vt 0.9524875 0.8615077
vt 0.9221268 0.1464657
vt 0.1600547 0.1464657
vt 0.5955672 0.6146334
vt 0.9531981 0.8615077
vt 0.9149623 0.1464657
vt 0.4602101 0.5235536
vt 0.3950092 0.7634992
vt 0.1322221 0.1464657
vt 0.08638275 0.8615077
vt 0.964546 0.8615077
vt 0.1493707 0.8615077
vt 0.2515259 0.1464657
vt 0.898661 0.1464657
vt 0.06720436 0.8615077
vt 0.6240561 0.8615077
vt 0.5711845 0.1464657
vt 0.1283677 0.1464657
vt 0.1177989 0.8615077
vt 0.9634749 0.8615077
vt 0.8708579 0.1464657
vt 0.1985204 0.1464657
vt 0.6631319 0.691297
vt 0.1287107 0.8615077
vt 0.2148439 0.1464657
vt 0.9583639 0.8615077
vt 0.874442 0.1464657
vt 0.3705457 0.696873
vt 0.6346632 0.8615077
vt 0.5665606 0.1464657
vt 0.07392102 0.8615077
vt 0.120628 0.1464657
vt 0.1279131 0.8615077
vt 0.9514793 0.8615077
vt 0.8816136 0.1464657
vt 0.227795 0.1464657
vt 0.9670267 0.8615077
vt 0.8652623 0.1464657
vt 0.2055488 0.1464657
vt 0.1363106 0.8615077
vt 0.5926995 0.8615077
vt 0.5234139 0.1464657
vt 0.06924725 0.1464657
vt 0.02160311 0.8615077
vt 0.634038 0.8615077
vt 0.5976186 0.1464657
vt 0.1440023 0.1464657
vt 0.0636791 0.8615077
vt 0.170561 0.8615077
vt 0.2615971 0.1464657
vt 0.9005057 0.1464657
vt 0.9752903 0.8615077
vt 0.9559929 0.1464657
vt 0.07981646 0.1464657
vt 0.05570779 0.4516563
vt 0.3798664 0.491066
vt 0.607774 0.8615077
vt 0.5808144 0.1464657
vt 0.1522679 0.1464657
vt 0.1342279 0.8615077
vt 0.9890069 0.8615077
vt 0.9373006 0.1464657
vt 0.1049963 0.1464657
vt 0.06731206 0.8615077
vt 0.9004527 0.0674032
vt 0.9004527 0.0674032
vt 0.9004641 0.05807722
vt 0.9004641 0.05807722
vt 0.9062588 0.04573226
vt 0.9062588 0.04573226
vt 0.918586 0.03989971
vt 0.918586 0.03989971
vt 0.9279118 0.03985977
vt 0.9279118 0.03985977
vt 0.9403272 0.04563701
vt 0.9403272 0.04563701
vt 0.9461425 0.05803454
vt 0.9461425 0.05803454
vt 0.9461305 0.06735981
vt 0.9461305 0.06735981
vt 0.9403345 0.07970357
vt 0.9403345 0.07970357
vt 0.9280086 0.08553731
vt 0.9280086 0.08553731
vt 0.9186834 0.08557796
vt 0.9186834 0.08557796
vt 0.9448669 0.04125988
vt 0.9448669 0.04125988
vt 0.9292465 0.03400159
vt 0.9292465 0.03400159
vt 0.9175189 0.03401077
vt 0.9175189 0.03401077
vt 0.901944 0.04125726
vt 0.901944 0.04125726
vt 0.8947094 0.0568378
vt 0.8947094 0.0568378
vt 0.8947092 0.06856537
vt 0.8947092 0.06856537
vt 0.9449021 0.08418226
vt 0.9521368 0.06860209
vt 0.9521368 0.06860209
vt 0.9449021 0.08418226
vt 0.9293273 0.091429
vt 0.9293273 0.091429
vt 0.9175998 0.09143829
vt 0.9175998 0.09143829
vt 0.929271 0.0357635
vt 0.929271 0.0357635
vt 0.9182273 0.03576314
vt 0.9182273 0.03576314
vt 0.9036628 0.04260564
vt 0.9036628 0.04260564
vt 0.8968204 0.05717003
vt 0.8968204 0.05717003
vt 0.8968207 0.0682137
vt 0.8968207 0.0682137
vt 0.9507422 0.05723464
vt 0.943868 0.04263771
vt 0.943868 0.04263771
vt 0.9507422 0.05723464
vt 0.9507425 0.06827831
vt 0.9507425 0.06827831
vt 0.9439 0.08284271
vt 0.9439 0.08284271
vt 0.9293357 0.08968508
vt 0.9293357 0.08968508
vt 0.9170063 0.03037393
vt 0.9170063 0.03037393
vt 0.9302424 0.03037429
vt 0.9302424 0.03037429
vt 0.9477804 0.03859901
vt 0.9477804 0.03859901
vt 0.9560052 0.05613708
vt 0.9560052 0.05613708
vt 0.9560055 0.06937313
vt 0.9560055 0.06937313
vt 0.9478124 0.08687866
vt 0.9478124 0.08687866
vt 0.891308 0.06930864
vt 0.891308 0.06930864
vt 0.8913077 0.05607259
vt 0.8913077 0.05607259
vt 0.8995007 0.03856707
vt 0.8995007 0.03856707
vt 0.9753335 0.8615077
vt 0.5511358 0.3825204
vt 0.9462807 0.1464657
vt 0.05972219 0.8615077
vt 0.1191161 0.1464657
vt 0.7154486 0.3284099
vt 0.7154486 0.2822057
vt 0.6692445 0.2822057
vt 0.6692445 0.3284099
vt 0.7154486 0.3284099
vt 0.7154486 0.2822057
vt 0.6692445 0.2822057
vt 0.6692445 0.3284099
vt 0.7154486 0.3284099
vt 0.7154486 0.2822057
vt 0.6692445 0.2822057
vt 0.6692445 0.3284099
vt 0.7154486 0.3284099
vt 0.7154486 0.2822057
vt 0.6692445 0.2822057
vt 0.6692445 0.3284099
vt 0.6674912 0.3226749
vt 0.6674912 0.3442373
vt 0.6890536 0.3442373
vt 0.6890536 0.3226749
vt 0.6674912 0.3226749
vt 0.6674912 0.3442373
vt 0.6890536 0.3442373
vt 0.6890536 0.3226749
vt 0.6674912 0.3226749
vt 0.6674912 0.3442373
vt 0.6890536 0.3442373
vt 0.6890536 0.3226749
vt 0.6674912 0.3226749
vt 0.6674912 0.3442373
vt 0.6890536 0.3442373
vt 0.6890536 0.3226749
vt 0.6674912 0.3226749
vt 0.6674912 0.3442373
vt 0.6890536 0.3442373
vt 0.6890536 0.3226749
vt 0.6626564 0.3225314
vt 0.6626564 0.3584548
vt 0.6985798 0.3584548
vt 0.6985798 0.3225314
vt 0.6626564 0.3225314
vt 0.6626564 0.3584548
vt 0.6985798 0.3584548
vt 0.6985798 0.3225314
vt 0.7238943 0.6220985
vt 0.7238943 0.6662838
vt 0.7680796 0.6662838
vt 0.7680796 0.6220985
vt 0.7238943 0.6220985
vt 0.7238943 0.6662838
vt 0.7680796 0.6662838
vt 0.7680796 0.6220985
vt 0.7238943 0.6220985
vt 0.7238943 0.6662838
vt 0.7680796 0.6662838
vt 0.7680796 0.6220985
vt 0.7238943 0.6220985
vt 0.7238943 0.6662838
vt 0.7680796 0.6662838
vt 0.7680796 0.6220985
vn -0.7413337 0.459436 -0.4892267
vn -0.4648041 0.5918701 -0.6585189
vn -0.3027345 0.608714 0.7333615
vn -0.4659088 0.431202 0.7726537
vn 0.9398553 0.2760543 0.2011619
vn 0.9984742 0.04586807 -0.03074932
vn 0.5311022 0.01949088 0.8470836
vn 0.5600415 0.4113203 0.7191447
vn 0.9084375 0.2621157 0.3256327
vn 0.9969701 0.0128214 0.07672244
vn 0.5580814 0.4390705 -0.7041038
vn 0.1822081 -0.04376308 -0.9822856
vn 0.4664415 0.7830993 -0.4113246
vn 0.5580814 0.4390705 -0.7041038
vn 0.5600415 0.4113203 0.7191447
vn 0.4145528 0.6930987 0.5897118
vn 0.1550189 0.7928223 -0.5894082
vn 0.4664415 0.7830993 -0.4113246
vn 0.4145528 0.6930987 0.5897118
vn 0.1243137 0.7704009 0.6253227
vn -0.9368393 0.1937408 -0.2911985
vn -0.7413337 0.459436 -0.4892267
vn -0.4659088 0.431202 0.7726537
vn -0.915471 0.402156 0.01354213
vn -0.5528057 -0.3065031 -0.7748946
vn -0.7007745 -0.1354661 0.7004028
vn -0.8982093 -0.1016438 -0.4276547
vn -0.8509353 0.4934945 0.1799226
vn -0.9891683 0 0.1467858
vn -0.8057613 0 -0.5922404
vn -0.6937699 0.4025403 -0.5971974
vn -0.4942442 0.849991 0.1823128
vn -0.8509353 0.4934945 0.1799226
vn -0.6937699 0.4025403 -0.5971974
vn -0.4014178 0.6944783 -0.5971296
vn -0.1350864 0.9590885 0.2487992
vn -0.4942442 0.849991 0.1823128
vn -0.4014178 0.6944783 -0.5971296
vn -0.1079121 0.7585907 -0.6425691
vn 0.3089453 0.9506441 0.02878495
vn -0.1350864 0.9590885 0.2487992
vn -0.1079121 0.7585907 -0.6425691
vn 0.4363104 0.8764864 0.2034819
vn 0.3471447 0.6007555 -0.7201273
vn 0.7411203 0.6713642 -0.003252515
vn 0.4363104 0.8764864 0.2034819
vn 0.3471447 0.6007555 -0.7201273
vn 0.8662121 0.468929 0.1725752
vn 0.6931981 0.3601794 -0.6242974
vn 0.9891683 0 0.1467858
vn 0.8662121 0.468929 0.1725752
vn 0.6931981 0.3601794 -0.6242974
vn 0.8057613 0 -0.5922406
vn -0.8509354 -0.4934946 0.1799226
vn -0.6937699 -0.4025404 -0.5971974
vn -0.8057613 0 -0.5922404
vn -0.9891683 0 0.1467858
vn -0.6954718 -0.6945146 0.1843055
vn -0.568576 -0.5704908 -0.5926732
vn -0.6937699 -0.4025404 -0.5971974
vn -0.8509354 -0.4934946 0.1799226
vn 0.8509356 -0.493494 0.1799227
vn 0.6937699 -0.40254 -0.5971977
vn 0.5685762 -0.5704906 -0.5926732
vn 0.6954723 -0.694514 0.1843057
vn 0.9891683 0 0.1467858
vn 0.8057613 0 -0.5922406
vn 0.6937699 -0.40254 -0.5971977
vn 0.8509356 -0.493494 0.1799227
vn 0.2001217 -0.06354309 0.9777083
vn 0.5311022 0.01949088 0.8470836
vn 0.9984742 0.04586807 -0.03074932
vn 0.9547129 -0.2859873 0.08206374
vn -0.8024405 -0.4513797 -0.3903148
vn -0.7036045 -0.3933564 0.5917866
vn -0.5721495 -0.5721892 0.5875752
vn -0.6474593 -0.6475065 -0.4019102
vn -0.8982093 -0.1016438 -0.4276547
vn -0.7007745 -0.1354661 0.7004028
vn -0.7036045 -0.3933564 0.5917866
vn -0.8024405 -0.4513797 -0.3903148
vn -0.568576 -0.5704908 -0.5926732
vn 0.01146334 0.003213921 -0.9999292
vn 0.01364311 -8.937674E-05 -0.9999069
vn -0.6937699 -0.4025404 -0.5971974
vn 0.01511428 0 -0.9998858
vn -0.8057613 0 -0.5922404
vn 0.01364307 8.937581E-05 -0.9999069
vn -0.6937699 0.4025403 -0.5971974
vn 0.006732646 -0.006345589 -0.9999572
vn -0.4014178 0.6944783 -0.5971296
vn 0 -0.008454847 -0.9999642
vn -0.1079121 0.7585907 -0.6425691
vn -0.00673294 -0.006345561 -0.9999572
vn 0.3471447 0.6007555 -0.7201273
vn -0.01364349 8.946288E-05 -0.9999069
vn 0.6931981 0.3601794 -0.6242974
vn -0.01511456 0 -0.9998858
vn 0.8057613 0 -0.5922406
vn -0.01364366 -8.940172E-05 -0.9999069
vn 0.6937699 -0.40254 -0.5971977
vn -0.01146418 0.003213705 -0.9999292
vn 0.5685762 -0.5704906 -0.5926732
vn -0.1350864 0.9590885 0.2487992
vn -0.0002614305 0.0001557596 1
vn -0.0005208953 -1.609272E-05 0.9999999
vn -0.4942442 0.849991 0.1823128
vn -0.001022738 -0.0004478649 0.9999994
vn -0.8509353 0.4934945 0.1799226
vn -0.001101367 0 0.9999994
vn -0.9891683 0 0.1467858
vn -0.001022758 0.0004478648 0.9999994
vn -0.8509354 -0.4934946 0.1799226
vn -0.0009063931 0.0002714214 0.9999995
vn -0.6954718 -0.6945146 0.1843055
vn 0.9891683 0 0.1467858
vn 0.001101621 -0.0005671756 0.9999993
vn 0.8662121 0.468929 0.1725752
vn 0.001101652 0 0.9999994
vn 0.8509356 -0.493494 0.1799227
vn 0.001022998 0.000447887 0.9999994
vn 0.6954723 -0.694514 0.1843057
vn 0.000906545 0.0002713419 0.9999995
vn -0.3027345 0.608714 0.7333615
vn 0.4348848 -0.01632767 0.9003379
vn 0.2054085 -0.006936375 0.9786517
vn -0.4659088 0.431202 0.7726537
vn -0.005808785 0 0.9999832
vn -0.7007745 -0.1354661 0.7004028
vn -0.005138373 -0.00265503 0.9999833
vn -0.7036045 -0.3933564 0.5917866
vn -0.004153574 -0.004151314 0.9999828
vn -0.5721495 -0.5721892 0.5875752
vn 0.4145528 0.6930987 0.5897118
vn 0.005154884 -0.006905631 0.9999629
vn 0.1243137 0.7704009 0.6253227
vn 0.004763985 -0.00258786 0.9999853
vn 0.5600415 0.4113203 0.7191447
vn 0.005138571 0.002655027 0.9999833
vn 0.5311022 0.01949088 0.8470836
vn 0.005808861 0 0.9999832
vn 0.2001217 -0.06354309 0.9777083
vn 0.005808767 -0.001636537 0.9999818
vn -0.7413337 0.459436 -0.4892267
vn -0.02770133 0.02770503 -0.9992322
vn -0.01923236 0.03331039 -0.99926
vn -0.4648041 0.5918701 -0.6585189
vn 0 0.03709479 -0.9993117
vn 0.1550189 0.7928223 -0.5894082
vn 0.01923229 0.03331047 -0.99926
vn 0.4664415 0.7830993 -0.4113246
vn 0.0332697 0.0192564 -0.9992608
vn 0.5580814 0.4390705 -0.7041038
vn 0.0370402 0.01353159 -0.9992222
vn 0.1822081 -0.04376308 -0.9822856
vn -0.6474593 -0.6475065 -0.4019102
vn -0.02770135 -0.02770504 -0.9992322
vn -0.03326976 -0.01925649 -0.9992608
vn -0.8024405 -0.4513797 -0.3903148
vn -0.03704019 -0.01353185 -0.9992222
vn -0.8982093 -0.1016438 -0.4276547
vn -0.4648041 0.5918701 -0.6585189
vn -0.2991764 0.6242864 0.721637
vn -0.3027345 0.608714 0.7333615
vn 0.1550189 0.7928223 -0.5894082
vn 0.1243137 0.7704009 0.6253227
vn 0.3089453 0.9506441 0.02878495
vn 0.04560147 0.2672398 0.9625505
vn 0.2600442 0.1131967 0.9589387
vn -0.1350864 0.9590885 0.2487992
vn 0.4363104 0.8764864 0.2034819
vn 0.1388723 0.2475809 0.958863
vn 0.04560147 0.2672398 0.9625505
vn 0.3089453 0.9506441 0.02878495
vn 0.7411203 0.6713642 -0.003252515
vn 0.2396393 0.1656877 0.9566194
vn 0.1388723 0.2475809 0.958863
vn 0.4363104 0.8764864 0.2034819
vn 0.8662121 0.468929 0.1725752
vn -0.1028419 0.3667863 0.9246033
vn 0.2396393 0.1656877 0.9566194
vn 0.7411203 0.6713642 -0.003252515
vn 0.9984742 0.04586807 -0.03074932
vn 0.5733489 -0.01220668 -0.8192205
vn 0.6275226 -0.1069099 -0.7712235
vn 0.9547129 -0.2859873 0.08206374
vn 0.9398553 0.2760543 0.2011619
vn 0.7727979 -0.05180197 -0.6325345
vn 0.5733489 -0.01220668 -0.8192205
vn 0.9984742 0.04586807 -0.03074932
vn 0.9969701 0.0128214 0.07672244
vn 0.929861 -0.3667612 0.02906586
vn 0.7727979 -0.05180197 -0.6325345
vn 0.9398553 0.2760543 0.2011619
vn 0.9084375 0.2621157 0.3256327
vn 0.4548042 -0.171538 0.8739152
vn 0.929861 -0.3667612 0.02906586
vn 0.9969701 0.0128214 0.07672244
vn 0.1822081 -0.04376308 -0.9822856
vn 0.1060065 -0.08244725 0.9909415
vn 0.4548042 -0.171538 0.8739152
vn 0.9084375 0.2621157 0.3256327
vn -0.2991764 0.6242864 0.721637
vn 0.1246199 -0.1576578 0.9795989
vn 0.4600257 -0.2084735 0.8630847
vn -0.3027345 0.608714 0.7333615
vn 0.1243137 0.7704009 0.6253227
vn -0.4245519 -0.03839618 0.9045891
vn 0.1246199 -0.1576578 0.9795989
vn -0.2991764 0.6242864 0.721637
vn -0.9368393 0.1937408 -0.2911985
vn -0.2940593 -0.2054511 -0.9334447
vn -0.3307289 -0.407363 -0.8512777
vn -0.7413337 0.459436 -0.4892267
vn -0.5528057 -0.3065031 -0.7748946
vn -0.3904894 -0.3743075 -0.8410778
vn -0.2940593 -0.2054511 -0.9334447
vn -0.9368393 0.1937408 -0.2911985
vn -0.915471 0.402156 0.01354213
vn -0.09157333 0.5468203 -0.8322271
vn -0.3904894 -0.3743075 -0.8410778
vn -0.5528057 -0.3065031 -0.7748946
vn -0.8982093 -0.1016438 -0.4276547
vn -0.02049763 0.6596999 -0.7512496
vn -0.09157333 0.5468203 -0.8322271
vn -0.915471 0.402156 0.01354213
g Fortification2_0
f 3/3/3 2/2/2 1/1/1
f 4/4/4 3/3/3 1/1/1
f 7/7/7 6/6/6 5/5/5
f 8/8/8 7/7/7 5/5/5
f 9/9/9 8/8/8 5/5/5
f 5/5/5 10/10/10 9/9/9
f 9/9/9 11/11/11 8/8/8
f 9/9/9 12/12/12 11/11/11
f 15/15/15 14/14/14 13/13/13
f 16/16/16 15/15/15 13/13/13
f 19/19/19 18/18/18 17/17/17
f 20/20/20 19/19/19 17/17/17
f 23/23/23 22/22/22 21/21/21
f 23/23/23 21/21/21 24/24/24
f 21/21/21 25/25/25 24/24/24
f 26/26/26 23/23/23 24/24/24
f 26/26/26 24/24/24 27/27/27
f 30/30/30 29/29/29 28/28/28
f 31/31/31 30/30/30 28/28/28
f 34/34/34 33/33/33 32/32/32
f 35/35/35 34/34/34 32/32/32
f 38/38/38 37/37/37 36/36/36
f 39/39/39 38/38/38 36/36/36
f 42/42/42 41/41/41 40/40/40
f 42/42/42 40/40/40 43/43/43
f 44/44/44 42/42/42 43/43/43
f 47/47/47 46/46/46 45/45/45
f 47/47/47 45/45/45 48/48/48
f 49/49/49 47/47/47 48/48/48
f 52/52/52 51/51/51 50/50/50
f 53/53/53 52/52/52 50/50/50
f 56/56/56 55/55/55 54/54/54
f 57/57/57 56/56/56 54/54/54
f 60/60/60 59/59/59 58/58/58
f 61/61/61 60/60/60 58/58/58
f 64/64/64 63/63/63 62/62/62
f 65/65/65 64/64/64 62/62/62
f 68/68/68 67/67/67 66/66/66
f 69/69/69 68/68/68 66/66/66
f 72/72/72 71/71/71 70/70/70
f 73/73/73 72/72/72 70/70/70
f 76/76/76 75/75/75 74/74/74
f 77/77/77 76/76/76 74/74/74
f 80/80/80 79/79/79 78/78/78
f 81/81/81 80/80/80 78/78/78
f 84/84/84 83/83/83 82/82/82
f 85/85/85 84/84/84 82/82/82
f 86/86/86 84/84/84 85/85/85
f 87/87/87 86/86/86 85/85/85
f 88/88/88 86/86/86 87/87/87
f 89/89/89 88/88/88 87/87/87
f 90/90/90 88/88/88 89/89/89
f 91/91/91 90/90/90 89/89/89
f 92/92/92 90/90/90 91/91/91
f 93/93/93 92/92/92 91/91/91
f 94/94/94 92/92/92 93/93/93
f 95/95/95 94/94/94 93/93/93
f 96/96/96 94/94/94 95/95/95
f 97/97/97 96/96/96 95/95/95
f 98/98/98 96/96/96 97/97/97
f 99/99/99 98/98/98 97/97/97
f 100/100/100 98/98/98 99/99/99
f 101/101/101 100/100/100 99/99/99
f 102/102/102 100/100/100 101/101/101
f 103/103/103 102/102/102 101/101/101
f 106/106/106 105/105/105 104/104/104
f 107/107/107 106/106/106 104/104/104
f 108/108/108 106/106/106 107/107/107
f 109/109/109 108/108/108 107/107/107
f 110/110/110 108/108/108 109/109/109
f 111/111/111 110/110/110 109/109/109
f 112/112/112 110/110/110 111/111/111
f 113/113/113 112/112/112 111/111/111
f 114/114/114 112/112/112 113/113/113
f 115/115/115 114/114/114 113/113/113
f 118/118/118 117/117/117 116/116/116
f 117/117/117 119/119/119 116/116/116
f 116/116/116 119/119/119 120/120/120
f 119/119/119 121/121/121 120/120/120
f 120/120/120 121/121/121 122/122/122
f 121/121/121 123/123/123 122/122/122
f 126/126/126 125/125/125 124/124/124
f 127/127/127 126/126/126 124/124/124
f 128/128/128 126/126/126 127/127/127
f 129/129/129 128/128/128 127/127/127
f 130/130/130 128/128/128 129/129/129
f 131/131/131 130/130/130 129/129/129
f 132/132/132 130/130/130 131/131/131
f 133/133/133 132/132/132 131/131/131
f 136/136/136 135/135/135 134/134/134
f 135/135/135 137/137/137 134/134/134
f 134/134/134 137/137/137 138/138/138
f 137/137/137 139/139/139 138/138/138
f 138/138/138 139/139/139 140/140/140
f 139/139/139 141/141/141 140/140/140
f 140/140/140 141/141/141 142/142/142
f 141/141/141 143/143/143 142/142/142
f 146/146/146 145/145/145 144/144/144
f 147/147/147 146/146/146 144/144/144
f 148/148/148 146/146/146 147/147/147
f 149/149/149 148/148/148 147/147/147
f 150/150/150 148/148/148 149/149/149
f 151/151/151 150/150/150 149/149/149
f 152/152/152 150/150/150 151/151/151
f 153/153/153 152/152/152 151/151/151
f 154/154/154 152/152/152 153/153/153
f 155/155/155 154/154/154 153/153/153
f 158/158/158 157/157/157 156/156/156
f 159/159/159 158/158/158 156/156/156
f 160/160/160 158/158/158 159/159/159
f 161/161/161 160/160/160 159/159/159
f 164/164/164 163/163/163 162/162/162
f 163/163/163 165/165/165 162/162/162
f 163/163/163 166/166/166 165/165/165
f 169/169/169 168/168/168 167/167/167
f 170/170/170 169/169/169 167/167/167
f 173/173/173 172/172/172 171/171/171
f 174/174/174 173/173/173 171/171/171
f 177/177/177 176/176/176 175/175/175
f 178/178/178 177/177/177 175/175/175
f 181/181/181 180/180/180 179/179/179
f 182/182/182 181/181/181 179/179/179
f 185/185/185 184/184/184 183/183/183
f 186/186/186 185/185/185 183/183/183
f 189/189/189 188/188/188 187/187/187
f 190/190/190 189/189/189 187/187/187
f 193/193/193 192/192/192 191/191/191
f 194/194/194 193/193/193 191/191/191
f 197/197/197 196/196/196 195/195/195
f 198/198/198 197/197/197 195/195/195
f 201/201/201 200/200/200 199/199/199
f 202/202/202 201/201/201 199/199/199
f 205/205/205 204/204/204 203/203/203
f 206/206/206 205/205/205 203/203/203
f 209/209/209 208/208/208 207/207/207
f 210/210/210 209/209/209 207/207/207
f 213/213/213 212/212/212 211/211/211
f 214/214/214 213/213/213 211/211/211
f 217/217/217 216/216/216 215/215/215
f 218/218/218 217/217/217 215/215/215
f 221/221/221 220/220/220 219/219/219
f 222/222/222 221/221/221 219/219/219
f 225/225/225 224/224/224 223/223/223
f 226/226/226 225/225/225 223/223/223
