g Fortification2
v -19.84185 10.70533 10.04989
v -13.1075 17.43923 10.04991
v -11.84847 16.20597 19.69773
v -17.94288 9.44349 19.53948
v 20.33842 5.460079 14.61794
v 22.83532 -2.369121 15.48769
v 21.53628 -2.369121 19.53794
v 17.94288 9.44349 19.53948
v 20.69331 7.27829 11.2669
v 21.52736 3.609381 12.81145
v 19.84185 10.70533 10.04989
v 24.57985 -2.369121 10.04847
v 13.10752 17.43923 10.0499
v 19.84185 10.70533 10.04989
v 17.94288 9.44349 19.53948
v 11.84847 15.53742 19.53949
v 1.032783E-05 22.17747 10.0485
v 13.10752 17.43923 10.0499
v 11.84847 15.53742 19.53949
v 1.023209E-05 20.46749 19.6962
v -20.83234 5.072354 13.3256
v -19.84185 10.70533 10.04989
v -17.94288 9.44349 19.53948
v -21.21644 2.94265 14.53411
v -22.51007 2.191221 11.34966
v -21.53628 -2.369122 19.53794
v -24.57985 -2.369122 10.04847
v -17.80714 9.377215 -9.281925
v -22.09722 -2.364458 -9.293308
v -17.50815 -2.364458 -19.69773
v -14.15238 6.974922 -19.62534
v -11.77471 15.41433 -9.274818
v -17.80714 9.377215 -9.281925
v -14.15238 6.974922 -19.62534
v -9.366923 11.78699 -19.58595
v 1.044235E-05 19.7127 -9.27241
v -11.77471 15.41433 -9.274818
v -9.366923 11.78699 -19.58595
v 9.370878E-06 15.18844 -19.58149
v 7.293697 15.97316 -11.72791
v 1.044235E-05 19.7127 -9.27241
v 9.370878E-06 15.18844 -19.58149
v 11.77472 15.41433 -9.274822
v 9.366932 11.78699 -19.58595
v 13.89059 11.90218 -11.65999
v 11.77472 15.41433 -9.274822
v 9.366932 11.78699 -19.58595
v 17.80714 9.377215 -9.281929
v 14.15238 6.974922 -19.62534
v 22.09722 -2.364458 -9.293315
v 17.80714 9.377215 -9.281929
v 14.15238 6.974922 -19.62534
v 17.50815 -2.364458 -19.69773
v -17.80714 -14.10613 -9.281925
v -14.15238 -11.70384 -19.62534
v -17.50815 -2.364458 -19.69773
v -22.09722 -2.364458 -9.293308
v -11.77471 -20.14324 -9.274818
v -9.366923 -16.51591 -19.58595
v -14.15238 -11.70384 -19.62534
v -17.80714 -14.10613 -9.281925
v 17.80714 -14.10613 -9.281929
v 14.15238 -11.70384 -19.62535
v 9.366932 -16.51591 -19.58595
v 11.77472 -20.14324 -9.274822
v 22.09722 -2.364458 -9.293315
v 17.50815 -2.364458 -19.69773
v 14.15238 -11.70384 -19.62535
v 17.80714 -14.10613 -9.281929
v 17.94288 -14.18173 19.53948
v 21.53628 -2.369121 19.53794
v 22.83532 -2.369121 15.48769
v 21.42125 -6.752244 14.9447
v -19.84185 -15.44357 10.04989
v -17.94288 -14.18173 19.53948
v -11.84847 -20.27566 19.53949
v -13.1075 -22.17747 10.04991
v -24.57985 -2.369122 10.04847
v -21.53628 -2.369122 19.53794
v -17.94288 -14.18173 19.53948
v -19.84185 -15.44357 10.04989
v -9.366923 -16.51591 -19.58595
v -6.338444 -11.94051 -19.53652
v -9.576681 -8.684261 -19.56318
v -14.15238 -11.70384 -19.62534
v -11.84748 -2.364458 -19.61216
v -17.50815 -2.364458 -19.69773
v -9.576681 3.955346 -19.56318
v -14.15238 6.974922 -19.62534
v -6.338444 7.211596 -19.53652
v -9.366923 11.78699 -19.58595
v 6.344153E-06 9.513296 -19.5335
v 9.370878E-06 15.18844 -19.58149
v 6.338449 7.211596 -19.53652
v 9.366932 11.78699 -19.58595
v 9.576682 3.955346 -19.56318
v 14.15238 6.974922 -19.62534
v 11.84748 -2.364458 -19.61216
v 17.50815 -2.364458 -19.69773
v 9.57668 -8.684261 -19.56318
v 14.15238 -11.70384 -19.62535
v 6.338449 -11.94051 -19.53652
v 9.366932 -16.51591 -19.58595
v 1.044235E-05 19.7127 -9.27241
v 6.44943E-06 11.91693 -9.271196
v -7.616883 9.136374 -9.272755
v -11.77471 15.41433 -9.274818
v -11.51918 5.231058 -9.27735
v -17.80714 9.377215 -9.281925
v -14.29437 -2.364458 -9.284716
v -22.09722 -2.364458 -9.293308
v -11.51918 -9.959973 -9.27735
v -17.80714 -14.10613 -9.281925
v -7.616883 -13.86529 -9.272755
v -11.77471 -20.14324 -9.274818
v 22.09722 -2.364458 -9.293315
v 11.51918 5.231058 -9.277354
v 17.80714 9.377215 -9.281929
v 14.29437 -2.364458 -9.284719
v 17.80714 -14.10613 -9.281929
v 11.51918 -9.959973 -9.277354
v 11.77472 -20.14324 -9.274822
v 7.616888 -13.86529 -9.272757
v -11.84847 16.20597 19.69773
v -8.517699 6.001103 14.92446
v -12.00612 5.535046 19.58036
v -17.94288 9.44349 19.53948
v -14.41056 -2.369121 19.57933
v -21.53628 -2.369122 19.53794
v -12.00612 -10.27329 19.58036
v -17.94288 -14.18173 19.53948
v -7.928161 -14.35091 19.58037
v -11.84847 -20.27566 19.53949
v 11.84847 15.53742 19.53949
v 6.536528E-06 12.46419 19.57935
v 1.023209E-05 20.46749 19.6962
v 7.928164 9.612673 19.58037
v 17.94288 9.44349 19.53948
v 12.00611 5.535046 19.58036
v 21.53628 -2.369121 19.53794
v 14.41056 -2.369121 19.57933
v 17.94288 -14.18173 19.53948
v 12.00611 -10.27329 19.58036
v -19.84185 10.70533 10.04989
v -12.65941 5.972585 9.719557
v -8.362793 10.26893 9.719564
v -13.1075 17.43923 10.04991
v 6.619676E-06 13.29199 9.718664
v 1.032783E-05 22.17747 10.0485
v 8.362799 10.26893 9.719563
v 13.10752 17.43923 10.0499
v 12.65941 5.972585 9.719555
v 19.84185 10.70533 10.04989
v 15.68233 -2.369121 9.718647
v 24.57985 -2.369121 10.04847
v -13.1075 -22.17747 10.04991
v -8.362793 -15.00717 9.719564
v -12.65941 -10.71083 9.719557
v -19.84185 -15.44357 10.04989
v -15.68233 -2.369121 9.718647
v -24.57985 -2.369122 10.04847
v -13.1075 17.43923 10.04991
v -6.466588 18.25044 16.78998
v -11.84847 16.20597 19.69773
v 1.032783E-05 22.17747 10.0485
v 1.023209E-05 20.46749 19.6962
v 7.293697 15.97316 -11.72791
v 5.551524 11.19159 -9.772
v 6.461277E-06 11.91693 -9.271196
v 1.044235E-05 19.7127 -9.27241
v 11.77472 15.41433 -9.274822
v 9.106837 11.22466 -7.315633
v 5.551524 11.19159 -9.772
v 7.293697 15.97316 -11.72791
v 13.89059 11.90218 -11.65999
v 10.2949 8.307263 -9.693054
v 9.106837 11.22466 -7.315633
v 11.77472 15.41433 -9.274822
v 17.80714 9.377215 -9.281929
v 11.51918 5.231058 -9.277354
v 10.2949 8.307263 -9.693054
v 13.89059 11.90218 -11.65999
v 22.83532 -2.369121 15.48769
v 20.2611 -4.553993 13.69599
v 19.19891 -7.846399 13.28812
v 21.42125 -6.752244 14.9447
v 20.33842 5.460079 14.61794
v 19.09683 1.050342 13.52178
v 20.2611 -4.553993 13.69599
v 22.83532 -2.369121 15.48769
v 21.52736 3.609381 12.81145
v 19.9899 -0.3398202 12.16483
v 19.09683 1.050342 13.52178
v 20.33842 5.460079 14.61794
v 20.69331 7.27829 11.2669
v 19.3634 2.416103 11.00463
v 19.9899 -0.3398202 12.16483
v 21.52736 3.609381 12.81145
v 24.57985 -2.369121 10.04847
v 22.2828 -4.830603 10.0894
v 19.3634 2.416103 11.00463
v 20.69331 7.27829 11.2669
v -6.466588 18.25044 16.78998
v -6.466588 14.45392 16.40598
v -8.517699 6.001103 14.92446
v -11.84847 16.20597 19.69773
v 1.023209E-05 20.46749 19.6962
v 6.536528E-06 12.46419 19.57935
v -6.466588 14.45392 16.40598
v -6.466588 18.25044 16.78998
v -20.83234 5.072354 13.3256
v -17.25825 3.860146 12.32178
v -12.65941 5.972585 9.719557
v -19.84185 10.70533 10.04989
v -22.51007 2.191221 11.34966
v -18.99214 0.9164969 10.22135
v -17.25825 3.860146 12.32178
v -20.83234 5.072354 13.3256
v -21.21644 2.94265 14.53411
v -17.69851 1.667927 13.40579
v -18.99214 0.9164969 10.22135
v -22.51007 2.191221 11.34966
v -24.57985 -2.369122 10.04847
v -15.68233 -2.369121 9.718647
v -17.69851 1.667927 13.40579
v -21.21644 2.94265 14.53411
vt 0.01237059 0.8615077
vt 0.6327724 0.8615077
vt 0.5966811 0.1464657
vt 0.03523743 0.1464657
vt 0.6126727 0.5153444
vt 0.1302649 0.4516563
vt 0.1531179 0.1464657
vt 0.8847123 0.1464657
vt 0.704257 0.7697764
vt 0.4856259 0.6533631
vt 0.9097486 0.8615077
vt 0.0995748 0.8615077
vt 0.01477838 0.8615077
vt 0.5820446 0.8615077
vt 0.5440178 0.1464657
vt 0.0306592 0.1464657
vt 0.1089454 0.8615077
vt 0.9524875 0.8615077
vt 0.9221268 0.1464657
vt 0.1600547 0.1464657
vt 0.5955672 0.6146334
vt 0.9531981 0.8615077
vt 0.9149623 0.1464657
vt 0.4602101 0.5235536
vt 0.3950092 0.7634992
vt 0.1322221 0.1464657
vt 0.08638275 0.8615077
vt 0.964546 0.8615077
vt 0.1493707 0.8615077
vt 0.2515259 0.1464657
vt 0.898661 0.1464657
vt 0.06720436 0.8615077
vt 0.6240561 0.8615077
vt 0.5711845 0.1464657
vt 0.1283677 0.1464657
vt 0.1177989 0.8615077
vt 0.9634749 0.8615077
vt 0.8708579 0.1464657
vt 0.1985204 0.1464657
vt 0.6631319 0.691297
vt 0.1287107 0.8615077
vt 0.2148439 0.1464657
vt 0.9583639 0.8615077
vt 0.874442 0.1464657
vt 0.3705457 0.696873
vt 0.6346632 0.8615077
vt 0.5665606 0.1464657
vt 0.07392102 0.8615077
vt 0.120628 0.1464657
vt 0.1279131 0.8615077
vt 0.9514793 0.8615077
vt 0.8816136 0.1464657
vt 0.227795 0.1464657
vt 0.9670267 0.8615077
vt 0.8652623 0.1464657
vt 0.2055488 0.1464657
vt 0.1363106 0.8615077
vt 0.5926995 0.8615077
vt 0.5234139 0.1464657
vt 0.06924725 0.1464657
vt 0.02160311 0.8615077
vt 0.634038 0.8615077
vt 0.5976186 0.1464657
vt 0.1440023 0.1464657
vt 0.0636791 0.8615077
vt 0.170561 0.8615077
vt 0.2615971 0.1464657
vt 0.9005057 0.1464657
vt 0.9752903 0.8615077
vt 0.9559929 0.1464657
vt 0.07981646 0.1464657
vt 0.05570779 0.4516563
vt 0.3798664 0.491066
vt 0.607774 0.8615077
vt 0.5808144 0.1464657
vt 0.1522679 0.1464657
vt 0.1342279 0.8615077
vt 0.9890069 0.8615077
vt 0.9373006 0.1464657
vt 0.1049963 0.1464657
vt 0.06731206 0.8615077
vt 0.9004527 0.0674032
vt 0.9004527 0.0674032
vt 0.9004641 0.05807722
vt 0.9004641 0.05807722
vt 0.9062588 0.04573226
vt 0.9062588 0.04573226
vt 0.918586 0.03989971
vt 0.918586 0.03989971
vt 0.9279118 0.03985977
vt 0.9279118 0.03985977
vt 0.9403272 0.04563701
vt 0.9403272 0.04563701
vt 0.9461425 0.05803454
vt 0.9461425 0.05803454
vt 0.9461305 0.06735981
vt 0.9461305 0.06735981
vt 0.9403345 0.07970357
vt 0.9403345 0.07970357
vt 0.9280086 0.08553731
vt 0.9280086 0.08553731
vt 0.9186834 0.08557796
vt 0.9186834 0.08557796
vt 0.9448669 0.04125988
vt 0.9448669 0.04125988
vt 0.9292465 0.03400159
vt 0.9292465 0.03400159
vt 0.9175189 0.03401077
vt 0.9175189 0.03401077
vt 0.901944 0.04125726
vt 0.901944 0.04125726
vt 0.8947094 0.0568378
vt 0.8947094 0.0568378
vt 0.8947092 0.06856537
vt 0.8947092 0.06856537
vt 0.9449021 0.08418226
vt 0.9521368 0.06860209
vt 0.9521368 0.06860209
vt 0.9449021 0.08418226
vt 0.9293273 0.091429
vt 0.9293273 0.091429
vt 0.9175998 0.09143829
vt 0.9175998 0.09143829
vt 0.929271 0.0357635
vt 0.929271 0.0357635
vt 0.9182273 0.03576314
vt 0.9182273 0.03576314
vt 0.9036628 0.04260564
vt 0.9036628 0.04260564
vt 0.8968204 0.05717003
vt 0.8968204 0.05717003
vt 0.8968207 0.0682137
vt 0.8968207 0.0682137
vt 0.9507422 0.05723464
vt 0.943868 0.04263771
vt 0.943868 0.04263771
vt 0.9507422 0.05723464
vt 0.9507425 0.06827831
vt 0.9507425 0.06827831
vt 0.9439 0.08284271
vt 0.9439 0.08284271
vt 0.9293357 0.08968508
vt 0.9293357 0.08968508
vt 0.9170063 0.03037393
vt 0.9170063 0.03037393
vt 0.9302424 0.03037429
vt 0.9302424 0.03037429
vt 0.9477804 0.03859901
vt 0.9477804 0.03859901
vt 0.9560052 0.05613708
vt 0.9560052 0.05613708
vt 0.9560055 0.06937313
vt 0.9560055 0.06937313
vt 0.9478124 0.08687866
vt 0.9478124 0.08687866
vt 0.891308 0.06930864
vt 0.891308 0.06930864
vt 0.8913077 0.05607259
vt 0.8913077 0.05607259
vt 0.8995007 0.03856707
vt 0.8995007 0.03856707
vt 0.9753335 0.8615077
vt 0.5511358 0.3825204
vt 0.9462807 0.1464657
vt 0.05972219 0.8615077
vt 0.1191161 0.1464657
vt 0.7154486 0.3284099
vt 0.7154486 0.2822057
vt 0.6692445 0.2822057
vt 0.6692445 0.3284099
vt 0.7154486 0.3284099
vt 0.7154486 0.2822057
vt 0.6692445 0.2822057
vt 0.6692445 0.3284099
vt 0.7154486 0.3284099
vt 0.7154486 0.2822057
vt 0.6692445 0.2822057
vt 0.6692445 0.3284099
vt 0.7154486 0.3284099
vt 0.7154486 0.2822057
vt 0.6692445 0.2822057
vt 0.6692445 0.3284099
vt 0.6674912 0.3226749
vt 0.6674912 0.3442373
vt 0.6890536 0.3442373
vt 0.6890536 0.3226749
vt 0.6674912 0.3226749
vt 0.6674912 0.3442373
vt 0.6890536 0.3442373
vt 0.6890536 0.3226749
vt 0.6674912 0.3226749
vt 0.6674912 0.3442373
vt 0.6890536 0.3442373
vt 0.6890536 0.3226749
vt 0.6674912 0.3226749
vt 0.6674912 0.3442373
vt 0.6890536 0.3442373
vt 0.6890536 0.3226749
vt 0.6674912 0.3226749
vt 0.6674912 0.3442373
vt 0.6890536 0.3442373
vt 0.6890536 0.3226749
vt 0.6626564 0.3225314
vt 0.6626564 0.3584548
vt 0.6985798 0.3584548
vt 0.6985798 0.3225314
vt 0.6626564 0.3225314
vt 0.6626564 0.3584548
vt 0.6985798 0.3584548
vt 0.6985798 0.3225314
vt 0.7238943 0.6220985
vt 0.7238943 0.6662838
vt 0.7680796 0.6662838
vt 0.7680796 0.6220985
vt 0.7238943 0.6220985
vt 0.7238943 0.6662838
vt 0.7680796 0.6662838
vt 0.7680796 0.6220985
vt 0.7238943 0.6220985
vt 0.7238943 0.6662838
vt 0.7680796 0.6662838
vt 0.7680796 0.6220985
vt 0.7238943 0.6220985
vt 0.7238943 0.6662838
vt 0.7680796 0.6662838
vt 0.7680796 0.6220985
vn -0.7413337 0.4594359 -0.4892268
vn -0.464804 0.5918702 -0.6585187
vn -0.3027346 0.6087143 0.7333614
vn -0.4659088 0.4312021 0.7726536
vn 0.9398553 0.2760543 0.2011616
vn 0.9984741 0.04586798 -0.03074958
vn 0.5311021 0.01949083 0.8470836
vn 0.5600413 0.4113205 0.7191448
vn 0.9084375 0.2621157 0.3256326
vn 0.9969701 0.01282134 0.07672257
vn 0.5580816 0.4390705 -0.7041037
vn 0.1822076 -0.04376312 -0.9822857
vn 0.4664415 0.7830993 -0.4113244
vn 0.5580816 0.4390705 -0.7041037
vn 0.5600413 0.4113205 0.7191448
vn 0.4145528 0.6930988 0.5897118
vn 0.155019 0.7928222 -0.5894082
vn 0.4664415 0.7830993 -0.4113244
vn 0.4145528 0.6930988 0.5897118
vn 0.1243138 0.7704009 0.6253228
vn -0.9368393 0.1937409 -0.2911986
vn -0.7413337 0.4594359 -0.4892268
vn -0.4659088 0.4312021 0.7726536
vn -0.9154709 0.4021563 0.01354198
vn -0.5528061 -0.3065049 -0.7748936
vn -0.7007745 -0.1354661 0.7004027
vn -0.8982093 -0.1016438 -0.4276546
vn -0.8509354 0.4934945 0.1799226
vn -0.9891683 0 0.1467858
vn -0.8057613 0 -0.5922404
vn -0.6937699 0.4025403 -0.5971974
vn -0.4942442 0.849991 0.1823128
vn -0.8509354 0.4934945 0.1799226
vn -0.6937699 0.4025403 -0.5971974
vn -0.4014178 0.6944783 -0.5971295
vn -0.1350864 0.9590884 0.2487992
vn -0.4942442 0.849991 0.1823128
vn -0.4014178 0.6944783 -0.5971295
vn -0.1079121 0.7585907 -0.6425691
vn 0.3089453 0.9506441 0.02878509
vn -0.1350864 0.9590884 0.2487992
vn -0.1079121 0.7585907 -0.6425691
vn 0.4363103 0.8764862 0.2034822
vn 0.3471446 0.6007555 -0.7201273
vn 0.7411203 0.6713642 -0.003252344
vn 0.4363103 0.8764862 0.2034822
vn 0.3471446 0.6007555 -0.7201273
vn 0.8662121 0.4689291 0.1725752
vn 0.6931981 0.3601793 -0.6242973
vn 0.9891683 0 0.1467858
vn 0.8662121 0.4689291 0.1725752
vn 0.6931981 0.3601793 -0.6242973
vn 0.8057613 0 -0.5922406
vn -0.8509354 -0.4934945 0.1799226
vn -0.6937698 -0.4025403 -0.5971975
vn -0.8057613 0 -0.5922404
vn -0.9891683 0 0.1467858
vn -0.6954718 -0.6945145 0.1843056
vn -0.568576 -0.5704908 -0.5926732
vn -0.6937698 -0.4025403 -0.5971975
vn -0.8509354 -0.4934945 0.1799226
vn 0.8509356 -0.493494 0.1799226
vn 0.6937699 -0.40254 -0.5971976
vn 0.5685762 -0.5704906 -0.5926733
vn 0.6954722 -0.694514 0.1843058
vn 0.9891683 0 0.1467858
vn 0.8057613 0 -0.5922406
vn 0.6937699 -0.40254 -0.5971976
vn 0.8509356 -0.493494 0.1799226
vn 0.2001219 -0.06354322 0.9777083
vn 0.5311021 0.01949083 0.8470836
vn 0.9984741 0.04586798 -0.03074958
vn 0.9547128 -0.2859877 0.08206352
vn -0.8024403 -0.4513799 -0.3903148
vn -0.7036044 -0.3933564 0.5917868
vn -0.5721492 -0.5721893 0.5875753
vn -0.6474592 -0.6475066 -0.40191
vn -0.8982093 -0.1016438 -0.4276546
vn -0.7007745 -0.1354661 0.7004027
vn -0.7036044 -0.3933564 0.5917868
vn -0.8024403 -0.4513799 -0.3903148
vn -0.568576 -0.5704908 -0.5926732
vn 0.01146349 0.003213916 -0.9999292
vn 0.01364327 -8.934813E-05 -0.9999069
vn -0.6937698 -0.4025403 -0.5971975
vn 0.01511422 0 -0.9998858
vn -0.8057613 0 -0.5922404
vn 0.01364306 8.934639E-05 -0.9999069
vn -0.6937699 0.4025403 -0.5971974
vn 0.006732747 -0.006345588 -0.9999572
vn -0.4014178 0.6944783 -0.5971295
vn 0 -0.008454875 -0.9999642
vn -0.1079121 0.7585907 -0.6425691
vn -0.006732956 -0.006345576 -0.9999572
vn 0.3471446 0.6007555 -0.7201273
vn -0.01364348 8.944966E-05 -0.9999069
vn 0.6931981 0.3601793 -0.6242973
vn -0.0151145 0 -0.9998858
vn 0.8057613 0 -0.5922406
vn -0.01364356 -8.942513E-05 -0.9999069
vn 0.6937699 -0.40254 -0.5971976
vn -0.01146411 0.003213612 -0.9999292
vn 0.5685762 -0.5704906 -0.5926733
vn -0.1350864 0.9590884 0.2487992
vn -0.0002613942 0.0001557566 1
vn -0.0005208825 -1.609481E-05 0.9999999
vn -0.4942442 0.849991 0.1823128
vn -0.001022737 -0.0004478668 0.9999994
vn -0.8509354 0.4934945 0.1799226
vn -0.001101336 0 0.9999994
vn -0.9891683 0 0.1467858
vn -0.001022753 0.0004478666 0.9999994
vn -0.8509354 -0.4934945 0.1799226
vn -0.0009064461 0.0002714221 0.9999995
vn -0.6954718 -0.6945145 0.1843056
vn 0.9891683 0 0.1467858
vn 0.001101643 -0.0005671773 0.9999993
vn 0.8662121 0.4689291 0.1725752
vn 0.001101628 0 0.9999994
vn 0.8509356 -0.493494 0.1799226
vn 0.001022988 0.0004478859 0.9999994
vn 0.6954722 -0.694514 0.1843058
vn 0.0009066268 0.000271337 0.9999995
vn -0.3027346 0.6087143 0.7333614
vn 0.4348847 -0.01632778 0.9003381
vn 0.2054085 -0.006936433 0.9786517
vn -0.4659088 0.4312021 0.7726536
vn -0.005808738 0 0.9999832
vn -0.7007745 -0.1354661 0.7004027
vn -0.005138263 -0.002655034 0.9999833
vn -0.7036044 -0.3933564 0.5917868
vn -0.004153309 -0.004151333 0.9999828
vn -0.5721492 -0.5721893 0.5875753
vn 0.4145528 0.6930988 0.5897118
vn 0.005154635 -0.006905662 0.9999629
vn 0.1243138 0.7704009 0.6253228
vn 0.004763825 -0.00258787 0.9999853
vn 0.5600413 0.4113205 0.7191448
vn 0.005138349 0.002655031 0.9999833
vn 0.5311021 0.01949083 0.8470836
vn 0.005808815 0 0.9999832
vn 0.2001219 -0.06354322 0.9777083
vn 0.005809033 -0.001636532 0.9999818
vn -0.7413337 0.4594359 -0.4892268
vn -0.0277014 0.02770504 -0.9992322
vn -0.01923245 0.03331038 -0.99926
vn -0.464804 0.5918702 -0.6585187
vn 0 0.03709474 -0.9993117
vn 0.155019 0.7928222 -0.5894082
vn 0.01923249 0.03331036 -0.99926
vn 0.4664415 0.7830993 -0.4113244
vn 0.03326991 0.01925635 -0.9992608
vn 0.5580816 0.4390705 -0.7041037
vn 0.03704033 0.01353162 -0.9992222
vn 0.1822076 -0.04376312 -0.9822857
vn -0.6474592 -0.6475066 -0.40191
vn -0.02770149 -0.02770504 -0.9992322
vn -0.0332697 -0.01925646 -0.9992608
vn -0.8024403 -0.4513799 -0.3903148
vn -0.03703999 -0.01353179 -0.9992222
vn -0.8982093 -0.1016438 -0.4276546
vn -0.464804 0.5918702 -0.6585187
vn -0.2991761 0.6242867 0.721637
vn -0.3027346 0.6087143 0.7333614
vn 0.155019 0.7928222 -0.5894082
vn 0.1243138 0.7704009 0.6253228
vn 0.3089453 0.9506441 0.02878509
vn 0.04560143 0.2672397 0.9625505
vn 0.2600442 0.1131967 0.9589387
vn -0.1350864 0.9590884 0.2487992
vn 0.4363103 0.8764862 0.2034822
vn 0.1388723 0.2475806 0.9588631
vn 0.04560143 0.2672397 0.9625505
vn 0.3089453 0.9506441 0.02878509
vn 0.7411203 0.6713642 -0.003252344
vn 0.2396393 0.1656878 0.9566193
vn 0.1388723 0.2475806 0.9588631
vn 0.4363103 0.8764862 0.2034822
vn 0.8662121 0.4689291 0.1725752
vn -0.1028417 0.3667865 0.9246032
vn 0.2396393 0.1656878 0.9566193
vn 0.7411203 0.6713642 -0.003252344
vn 0.9984741 0.04586798 -0.03074958
vn 0.5733494 -0.0122065 -0.8192201
vn 0.6275231 -0.1069095 -0.7712232
vn 0.9547128 -0.2859877 0.08206352
vn 0.9398553 0.2760543 0.2011616
vn 0.7727983 -0.05180207 -0.6325341
vn 0.5733494 -0.0122065 -0.8192201
vn 0.9984741 0.04586798 -0.03074958
vn 0.9969701 0.01282134 0.07672257
vn 0.9298609 -0.3667614 0.02906649
vn 0.7727983 -0.05180207 -0.6325341
vn 0.9398553 0.2760543 0.2011616
vn 0.9084375 0.2621157 0.3256326
vn 0.4548033 -0.171538 0.8739157
vn 0.9298609 -0.3667614 0.02906649
vn 0.9969701 0.01282134 0.07672257
vn 0.1822076 -0.04376312 -0.9822857
vn 0.1060058 -0.08244732 0.9909416
vn 0.4548033 -0.171538 0.8739157
vn 0.9084375 0.2621157 0.3256326
vn -0.2991761 0.6242867 0.721637
vn 0.1246201 -0.1576577 0.9795988
vn 0.4600257 -0.2084734 0.8630847
vn -0.3027346 0.6087143 0.7333614
vn 0.1243138 0.7704009 0.6253228
vn -0.4245516 -0.03839618 0.9045892
vn 0.1246201 -0.1576577 0.9795988
vn -0.2991761 0.6242867 0.721637
vn -0.9368393 0.1937409 -0.2911986
vn -0.2940591 -0.205451 -0.9334448
vn -0.3307286 -0.4073629 -0.8512779
vn -0.7413337 0.4594359 -0.4892268
vn -0.5528061 -0.3065049 -0.7748936
vn -0.3904898 -0.3743094 -0.8410768
vn -0.2940591 -0.205451 -0.9334448
vn -0.9368393 0.1937409 -0.2911986
vn -0.9154709 0.4021563 0.01354198
vn -0.09157339 0.5468203 -0.8322271
vn -0.3904898 -0.3743094 -0.8410768
vn -0.5528061 -0.3065049 -0.7748936
vn -0.8982093 -0.1016438 -0.4276546
vn -0.02049763 0.6597 -0.7512495
vn -0.09157339 0.5468203 -0.8322271
vn -0.9154709 0.4021563 0.01354198
g Fortification2_0
f 3/3/3 2/2/2 1/1/1
f 4/4/4 3/3/3 1/1/1
f 7/7/7 6/6/6 5/5/5
f 8/8/8 7/7/7 5/5/5
f 9/9/9 8/8/8 5/5/5
f 5/5/5 10/10/10 9/9/9
f 9/9/9 11/11/11 8/8/8
f 9/9/9 12/12/12 11/11/11
f 15/15/15 14/14/14 13/13/13
f 16/16/16 15/15/15 13/13/13
f 19/19/19 18/18/18 17/17/17
f 20/20/20 19/19/19 17/17/17
f 23/23/23 22/22/22 21/21/21
f 23/23/23 21/21/21 24/24/24
f 21/21/21 25/25/25 24/24/24
f 26/26/26 23/23/23 24/24/24
f 26/26/26 24/24/24 27/27/27
f 30/30/30 29/29/29 28/28/28
f 31/31/31 30/30/30 28/28/28
f 34/34/34 33/33/33 32/32/32
f 35/35/35 34/34/34 32/32/32
f 38/38/38 37/37/37 36/36/36
f 39/39/39 38/38/38 36/36/36
f 42/42/42 41/41/41 40/40/40
f 42/42/42 40/40/40 43/43/43
f 44/44/44 42/42/42 43/43/43
f 47/47/47 46/46/46 45/45/45
f 47/47/47 45/45/45 48/48/48
f 49/49/49 47/47/47 48/48/48
f 52/52/52 51/51/51 50/50/50
f 53/53/53 52/52/52 50/50/50
f 56/56/56 55/55/55 54/54/54
f 57/57/57 56/56/56 54/54/54
f 60/60/60 59/59/59 58/58/58
f 61/61/61 60/60/60 58/58/58
f 64/64/64 63/63/63 62/62/62
f 65/65/65 64/64/64 62/62/62
f 68/68/68 67/67/67 66/66/66
f 69/69/69 68/68/68 66/66/66
f 72/72/72 71/71/71 70/70/70
f 73/73/73 72/72/72 70/70/70
f 76/76/76 75/75/75 74/74/74
f 77/77/77 76/76/76 74/74/74
f 80/80/80 79/79/79 78/78/78
f 81/81/81 80/80/80 78/78/78
f 84/84/84 83/83/83 82/82/82
f 85/85/85 84/84/84 82/82/82
f 86/86/86 84/84/84 85/85/85
f 87/87/87 86/86/86 85/85/85
f 88/88/88 86/86/86 87/87/87
f 89/89/89 88/88/88 87/87/87
f 90/90/90 88/88/88 89/89/89
f 91/91/91 90/90/90 89/89/89
f 92/92/92 90/90/90 91/91/91
f 93/93/93 92/92/92 91/91/91
f 94/94/94 92/92/92 93/93/93
f 95/95/95 94/94/94 93/93/93
f 96/96/96 94/94/94 95/95/95
f 97/97/97 96/96/96 95/95/95
f 98/98/98 96/96/96 97/97/97
f 99/99/99 98/98/98 97/97/97
f 100/100/100 98/98/98 99/99/99
f 101/101/101 100/100/100 99/99/99
f 102/102/102 100/100/100 101/101/101
f 103/103/103 102/102/102 101/101/101
f 106/106/106 105/105/105 104/104/104
f 107/107/107 106/106/106 104/104/104
f 108/108/108 106/106/106 107/107/107
f 109/109/109 108/108/108 107/107/107
f 110/110/110 108/108/108 109/109/109
f 111/111/111 110/110/110 109/109/109
f 112/112/112 110/110/110 111/111/111
f 113/113/113 112/112/112 111/111/111
f 114/114/114 112/112/112 113/113/113
f 115/115/115 114/114/114 113/113/113
f 118/118/118 117/117/117 116/116/116
f 117/117/117 119/119/119 116/116/116
f 116/116/116 119/119/119 120/120/120
f 119/119/119 121/121/121 120/120/120
f 120/120/120 121/121/121 122/122/122
f 121/121/121 123/123/123 122/122/122
f 126/126/126 125/125/125 124/124/124
f 127/127/127 126/126/126 124/124/124
f 128/128/128 126/126/126 127/127/127
f 129/129/129 128/128/128 127/127/127
f 130/130/130 128/128/128 129/129/129
f 131/131/131 130/130/130 129/129/129
f 132/132/132 130/130/130 131/131/131
f 133/133/133 132/132/132 131/131/131
f 136/136/136 135/135/135 134/134/134
f 135/135/135 137/137/137 134/134/134
f 134/134/134 137/137/137 138/138/138
f 137/137/137 139/139/139 138/138/138
f 138/138/138 139/139/139 140/140/140
f 139/139/139 141/141/141 140/140/140
f 140/140/140 141/141/141 142/142/142
f 141/141/141 143/143/143 142/142/142
f 146/146/146 145/145/145 144/144/144
f 147/147/147 146/146/146 144/144/144
f 148/148/148 146/146/146 147/147/147
f 149/149/149 148/148/148 147/147/147
f 150/150/150 148/148/148 149/149/149
f 151/151/151 150/150/150 149/149/149
f 152/152/152 150/150/150 151/151/151
f 153/153/153 152/152/152 151/151/151
f 154/154/154 152/152/152 153/153/153
f 155/155/155 154/154/154 153/153/153
f 158/158/158 157/157/157 156/156/156
f 159/159/159 158/158/158 156/156/156
f 160/160/160 158/158/158 159/159/159
f 161/161/161 160/160/160 159/159/159
f 164/164/164 163/163/163 162/162/162
f 163/163/163 165/165/165 162/162/162
f 163/163/163 166/166/166 165/165/165
f 169/169/169 168/168/168 167/167/167
f 170/170/170 169/169/169 167/167/167
f 173/173/173 172/172/172 171/171/171
f 174/174/174 173/173/173 171/171/171
f 177/177/177 176/176/176 175/175/175
f 178/178/178 177/177/177 175/175/175
f 181/181/181 180/180/180 179/179/179
f 182/182/182 181/181/181 179/179/179
f 185/185/185 184/184/184 183/183/183
f 186/186/186 185/185/185 183/183/183
f 189/189/189 188/188/188 187/187/187
f 190/190/190 189/189/189 187/187/187
f 193/193/193 192/192/192 191/191/191
f 194/194/194 193/193/193 191/191/191
f 197/197/197 196/196/196 195/195/195
f 198/198/198 197/197/197 195/195/195
f 201/201/201 200/200/200 199/199/199
f 202/202/202 201/201/201 199/199/199
f 205/205/205 204/204/204 203/203/203
f 206/206/206 205/205/205 203/203/203
f 209/209/209 208/208/208 207/207/207
f 210/210/210 209/209/209 207/207/207
f 213/213/213 212/212/212 211/211/211
f 214/214/214 213/213/213 211/211/211
f 217/217/217 216/216/216 215/215/215
f 218/218/218 217/217/217 215/215/215
f 221/221/221 220/220/220 219/219/219
f 222/222/222 221/221/221 219/219/219
f 225/225/225 224/224/224 223/223/223
f 226/226/226 225/225/225 223/223/223
