g Fortification
v -14.59832 8.215024 7.19747
v -9.136077 13.80664 7.197478
v -13.31257 7.404975 13.81182
v -8.328192 12.58637 13.81183
v 13.31258 7.404975 13.81182
v 14.59832 8.215024 7.197467
v 15.13768 3.907171E-08 13.81073
v 17.13243 4.28026E-08 7.196475
v 9.136084 13.80664 7.197477
v 14.59832 8.215024 7.197467
v 8.328197 12.58637 13.81183
v 13.31258 7.404975 13.81182
v -8.328192 12.58637 13.81183
v -9.136077 13.80664 7.197478
v 7.235855E-06 15.58175 13.81075
v 7.293597E-06 17.10925 7.196495
v 7.293597E-06 17.10925 7.196495
v 9.136084 13.80664 7.197477
v 7.235855E-06 15.58175 13.81075
v 8.328197 12.58637 13.81183
v -17.13243 -4.28026E-07 7.196476
v -14.59832 8.215024 7.19747
v -15.13768 -4.604195E-07 13.81073
v -13.31257 7.404975 13.81182
v -9.873945 6.515975 -13.93289
v -12.42383 8.192027 -6.467569
v -12.21523 -4.550028E-07 -13.98514
v -15.41698 -4.550028E-07 -6.475785
v -8.215073 12.40405 -6.46244
v -12.42383 8.192027 -6.467569
v -6.535192 9.873302 -13.90446
v -9.873945 6.515975 -13.93289
v 7.278844E-06 15.40298 -6.460702
v -8.215073 12.40405 -6.46244
v 6.531328E-06 12.24645 -13.90124
v -6.535192 9.873302 -13.90446
v 6.535198 9.873302 -13.90446
v 8.21508 12.40405 -6.462442
v 6.531328E-06 12.24645 -13.90124
v 7.278844E-06 15.40298 -6.460702
v 9.873946 6.515975 -13.9329
v 12.42383 8.192027 -6.467572
v 6.535198 9.873302 -13.90446
v 8.21508 12.40405 -6.462442
v 15.41697 -1.08334E-08 -6.47579
v 12.42383 8.192027 -6.467572
v 12.21523 -1.08334E-08 -13.98514
v 9.873946 6.515975 -13.9329
v -15.41698 -4.550028E-07 -6.475785
v -12.42383 -8.192027 -6.467569
v -12.21523 -4.550028E-07 -13.98514
v -9.873945 -6.515975 -13.93289
v -8.215073 -12.40405 -6.46244
v -6.535192 -9.873302 -13.90446
v -12.42383 -8.192027 -6.467569
v -9.873945 -6.515975 -13.93289
v 7.289722E-06 -15.40298 -6.460702
v 6.542131E-06 -12.24645 -13.90124
v -8.215073 -12.40405 -6.46244
v -6.535192 -9.873302 -13.90446
v 7.289722E-06 -15.40298 -6.460702
v 8.21508 -12.40405 -6.462442
v 6.542131E-06 -12.24645 -13.90124
v 6.535198 -9.873302 -13.90446
v 8.21508 -12.40405 -6.462442
v 12.42383 -8.192027 -6.467572
v 6.535198 -9.873302 -13.90446
v 9.873945 -6.515975 -13.9329
v 15.41697 -1.08334E-08 -6.47579
v 12.21523 -1.08334E-08 -13.98514
v 12.42383 -8.192027 -6.467572
v 9.873945 -6.515975 -13.9329
v 17.13243 4.28026E-08 7.196475
v 13.82999 -9.113037 7.197467
v 15.13768 3.907171E-08 13.81073
v 12.61191 -8.302989 13.81182
v 9.136084 -13.80664 7.197477
v 8.328197 -12.58637 13.81183
v 13.82999 -9.113037 7.197467
v 12.61191 -8.302989 13.81182
v 7.272214E-06 -17.10925 7.196495
v 7.21246E-06 -15.58175 13.81075
v 9.136084 -13.80664 7.197477
v 8.328197 -12.58637 13.81183
v 7.272214E-06 -17.10925 7.196495
v -9.136077 -13.80664 7.197478
v 7.21246E-06 -15.58175 13.81075
v -8.328192 -12.58637 13.81183
v -13.82999 -9.113037 7.19747
v -12.61191 -8.302989 13.81182
v -9.136077 -13.80664 7.197478
v -8.328192 -12.58637 13.81183
v -17.13243 -4.28026E-07 7.196476
v -15.13768 -4.604195E-07 13.81073
v -13.82999 -9.113037 7.19747
v -12.61191 -8.302989 13.81182
v 3.63782E-06 6.5406E-07 -13.60311
v -9.873945 6.515975 -13.93289
v -12.21523 -4.550028E-07 -13.98514
v -6.535192 9.873302 -13.90446
v -9.873945 -6.515975 -13.93289
v 6.531328E-06 12.24645 -13.90124
v -6.535192 -9.873302 -13.90446
v 6.535198 9.873302 -13.90446
v 6.542131E-06 -12.24645 -13.90124
v 9.873946 6.515975 -13.9329
v 6.535198 -9.873302 -13.90446
v 12.21523 -1.08334E-08 -13.98514
v 9.873945 -6.515975 -13.9329
v 1.48356E-06 7.817518E-07 -6.44065
v -15.41698 -4.550028E-07 -6.475785
v -12.42383 8.192027 -6.467569
v -8.215073 12.40405 -6.46244
v -12.42383 -8.192027 -6.467569
v 7.278844E-06 15.40298 -6.460702
v -8.215073 -12.40405 -6.46244
v 8.21508 12.40405 -6.462442
v 7.289722E-06 -15.40298 -6.460702
v 12.42383 8.192027 -6.467572
v 8.21508 -12.40405 -6.462442
v 15.41697 -1.08334E-08 -6.47579
v 12.42383 -8.192027 -6.467572
v 6.721019E-06 7.453612E-07 13.98514
v -13.31257 7.404975 13.81182
v -8.328192 12.58637 13.81183
v 7.235855E-06 15.58175 13.81075
v -15.13768 -4.604195E-07 13.81073
v 8.328197 12.58637 13.81183
v -12.61191 -8.302989 13.81182
v 13.31258 7.404975 13.81182
v -8.328192 -12.58637 13.81183
v 15.13768 3.907171E-08 13.81073
v 7.21246E-06 -15.58175 13.81075
v 12.61191 -8.302989 13.81182
v 8.328197 -12.58637 13.81183
v 2.009421E-06 2.435859E-07 5.925309
v -9.136077 13.80664 7.197478
v -14.59832 8.215024 7.19747
v 7.293597E-06 17.10925 7.196495
v -17.13243 -4.28026E-07 7.196476
v 9.136084 13.80664 7.197477
v -13.82999 -9.113037 7.19747
v 14.59832 8.215024 7.197467
v -9.136077 -13.80664 7.197478
v 17.13243 4.28026E-08 7.196475
v 7.272214E-06 -17.10925 7.196495
v 13.82999 -9.113037 7.197467
v 9.136084 -13.80664 7.197477
vt 0.01237059 0.8615077
vt 0.6327724 0.8615077
vt 0.03523743 0.1464657
vt 0.5966811 0.1464657
vt 0.8847123 0.1464657
vt 0.9097486 0.8615077
vt 0.1531179 0.1464657
vt 0.0995748 0.8615077
vt 0.01477838 0.8615077
vt 0.5820446 0.8615077
vt 0.0306592 0.1464657
vt 0.5440178 0.1464657
vt 0.9462807 0.1464657
vt 0.9753335 0.8615077
vt 0.1191161 0.1464657
vt 0.05972219 0.8615077
vt 0.1089454 0.8615077
vt 0.9524875 0.8615077
vt 0.1600547 0.1464657
vt 0.9221268 0.1464657
vt 0.08638275 0.8615077
vt 0.9531981 0.8615077
vt 0.1322221 0.1464657
vt 0.9149623 0.1464657
vt 0.898661 0.1464657
vt 0.964546 0.8615077
vt 0.2515259 0.1464657
vt 0.1493707 0.8615077
vt 0.06720436 0.8615077
vt 0.6240561 0.8615077
vt 0.1283677 0.1464657
vt 0.5711845 0.1464657
vt 0.1177989 0.8615077
vt 0.9634749 0.8615077
vt 0.1985204 0.1464657
vt 0.8708579 0.1464657
vt 0.874442 0.1464657
vt 0.9583639 0.8615077
vt 0.2148439 0.1464657
vt 0.1287107 0.8615077
vt 0.120628 0.1464657
vt 0.07392102 0.8615077
vt 0.5665606 0.1464657
vt 0.6346632 0.8615077
vt 0.1279131 0.8615077
vt 0.9514793 0.8615077
vt 0.227795 0.1464657
vt 0.8816136 0.1464657
vt 0.1363106 0.8615077
vt 0.9670267 0.8615077
vt 0.2055488 0.1464657
vt 0.8652623 0.1464657
vt 0.5926995 0.8615077
vt 0.5234139 0.1464657
vt 0.02160311 0.8615077
vt 0.06924725 0.1464657
vt 0.1494663 0.8615077
vt 0.2466282 0.1464657
vt 0.9253848 0.8615077
vt 0.8634998 0.1464657
vt 0.1321397 0.8615077
vt 0.9497297 0.8615077
vt 0.2342812 0.1464657
vt 0.88428 0.1464657
vt 0.0636791 0.8615077
vt 0.634038 0.8615077
vt 0.1440023 0.1464657
vt 0.5976186 0.1464657
vt 0.170561 0.8615077
vt 0.2615971 0.1464657
vt 0.9752903 0.8615077
vt 0.9005057 0.1464657
vt 0.0233314 0.8615077
vt 0.9936099 0.8615077
vt 0.07981646 0.1464657
vt 0.9559929 0.1464657
vt 0.6434261 0.8615077
vt 0.6039408 0.1464657
vt 0.06652761 0.8615077
vt 0.08186638 0.1464657
vt 0.08379921 0.8615077
vt 0.136694 0.1464657
vt 0.9969865 0.8615077
vt 0.9616842 0.1464657
vt 0.04868996 0.8615077
vt 0.9981122 0.8615077
vt 0.1046419 0.1464657
vt 0.9623682 0.1464657
vt 0.607774 0.8615077
vt 0.5808144 0.1464657
vt 0.1342279 0.8615077
vt 0.1522679 0.1464657
vt 0.9890069 0.8615077
vt 0.9373006 0.1464657
vt 0.06731206 0.8615077
vt 0.1049963 0.1464657
vt 0.9232995 0.06272078
vt 0.918586 0.03989971
vt 0.9062588 0.04573226
vt 0.9279118 0.03985977
vt 0.9004641 0.05807722
vt 0.9403272 0.04563701
vt 0.9004527 0.0674032
vt 0.9461425 0.05803454
vt 0.9062681 0.07980084
vt 0.9461305 0.06735981
vt 0.9186834 0.08557796
vt 0.9403345 0.07970357
vt 0.9280086 0.08553731
vt 0.9234253 0.06272209
vt 0.901944 0.04125726
vt 0.9175189 0.03401077
vt 0.9292465 0.03400159
vt 0.8947094 0.0568378
vt 0.9448669 0.04125988
vt 0.8947092 0.06856537
vt 0.9521371 0.05687463
vt 0.9019795 0.08418012
vt 0.9521368 0.06860209
vt 0.9175998 0.09143829
vt 0.9449021 0.08418226
vt 0.9293273 0.091429
vt 0.9237778 0.06272042
vt 0.9182273 0.03576314
vt 0.929271 0.0357635
vt 0.943868 0.04263771
vt 0.9036628 0.04260564
vt 0.9507422 0.05723464
vt 0.8968204 0.05717003
vt 0.9507425 0.06827831
vt 0.8968207 0.0682137
vt 0.9439 0.08284271
vt 0.903695 0.08281064
vt 0.9293357 0.08968508
vt 0.9182919 0.08968484
vt 0.9236529 0.06271911
vt 0.9302424 0.03037429
vt 0.9170063 0.03037393
vt 0.9477804 0.03859901
vt 0.8995007 0.03856707
vt 0.9560052 0.05613708
vt 0.8913077 0.05607259
vt 0.9560055 0.06937313
vt 0.891308 0.06930864
vt 0.9478124 0.08687866
vt 0.8995327 0.08684671
vt 0.9303069 0.09507167
vt 0.9170707 0.09507143
vn -0.8299766 0.393142 -0.3956996
vn -0.5212317 0.8072533 -0.276875
vn -0.6085389 0.4116951 0.6783712
vn -0.3385993 0.5225936 0.7824618
vn 0.5406969 0.2978783 0.7867118
vn 0.8362069 0.4807028 -0.2639754
vn 0.7821891 -0.02015728 0.6227149
vn 0.8064356 -0.01985598 -0.5909885
vn 0.4364271 0.8005258 -0.4107186
vn 0.8362069 0.4807028 -0.2639754
vn 0.4461722 0.5875718 0.6750479
vn 0.5406969 0.2978783 0.7867118
vn -0.3385993 0.5225936 0.7824618
vn -0.5212317 0.8072533 -0.276875
vn 0 0.7928147 0.6094629
vn 0 0.7846389 -0.6199529
vn 0 0.7846389 -0.6199529
vn 0.4364271 0.8005258 -0.4107186
vn 0 0.7928147 0.6094629
vn 0.4461722 0.5875718 0.6750479
vn -0.8064356 -0.01985602 -0.5909885
vn -0.8299766 0.393142 -0.3956996
vn -0.782189 -0.02015721 0.6227151
vn -0.6085389 0.4116951 0.6783712
vn -0.4532297 0.2933271 -0.8417494
vn -0.8352915 0.5315148 0.1406416
vn -0.7016398 0 -0.7125319
vn -0.8120168 0 0.5836341
vn -0.4507162 0.8372154 0.3097183
vn -0.8352915 0.5315148 0.1406416
vn -0.3892725 0.5232231 -0.7580927
vn -0.4532297 0.2933271 -0.8417494
vn 0 0.8112931 0.5846397
vn -0.4507162 0.8372154 0.3097183
vn 0 0.7037275 -0.71047
vn -0.3892725 0.5232231 -0.7580927
vn 0.3892726 0.5232227 -0.7580928
vn 0.4507165 0.8372152 0.3097182
vn 0 0.7037275 -0.71047
vn 0 0.8112931 0.5846397
vn 0.4532297 0.2933268 -0.8417495
vn 0.8352919 0.5315143 0.1406414
vn 0.3892726 0.5232227 -0.7580928
vn 0.4507165 0.8372152 0.3097182
vn 0.8120169 0 0.5836338
vn 0.8352919 0.5315143 0.1406414
vn 0.7016397 0 -0.7125319
vn 0.4532297 0.2933268 -0.8417495
vn -0.8120168 0 0.5836341
vn -0.8352915 -0.5315149 0.1406416
vn -0.7016398 0 -0.7125319
vn -0.4532297 -0.2933271 -0.8417494
vn -0.4507162 -0.8372154 0.3097183
vn -0.3892725 -0.5232231 -0.7580927
vn -0.8352915 -0.5315149 0.1406416
vn -0.4532297 -0.2933271 -0.8417494
vn 0 -0.8112931 0.5846397
vn 0 -0.7037277 -0.71047
vn -0.4507162 -0.8372154 0.3097183
vn -0.3892725 -0.5232231 -0.7580927
vn 0 -0.8112931 0.5846397
vn 0.4507165 -0.8372152 0.3097182
vn 0 -0.7037277 -0.71047
vn 0.3892727 -0.5232227 -0.7580928
vn 0.4507165 -0.8372152 0.3097182
vn 0.8352919 -0.5315143 0.1406414
vn 0.3892727 -0.5232227 -0.7580928
vn 0.4532297 -0.2933268 -0.8417495
vn 0.8120169 0 0.5836338
vn 0.7016397 0 -0.7125319
vn 0.8352919 -0.5315143 0.1406414
vn 0.4532297 -0.2933268 -0.8417495
vn 0.8064356 -0.01985598 -0.5909885
vn 0.8193203 -0.5076592 -0.2664514
vn 0.7821891 -0.02015728 0.6227149
vn 0.5332116 -0.3197185 0.7832404
vn 0.4333643 -0.802441 -0.4102243
vn 0.4409909 -0.5934791 0.6732828
vn 0.8193203 -0.5076592 -0.2664514
vn 0.5332116 -0.3197185 0.7832404
vn 0 -0.7846389 -0.6199529
vn 0 -0.7928147 0.6094629
vn 0.4333643 -0.802441 -0.4102243
vn 0.4409909 -0.5934791 0.6732828
vn 0 -0.7846389 -0.6199529
vn -0.5149049 -0.8109901 -0.2777914
vn 0 -0.7928147 0.6094629
vn -0.3338562 -0.5264309 0.7819276
vn -0.813612 -0.4237285 -0.3981077
vn -0.5995522 -0.4304659 0.674712
vn -0.5149049 -0.8109901 -0.2777914
vn -0.3338562 -0.5264309 0.7819276
vn -0.8064356 -0.01985602 -0.5909885
vn -0.782189 -0.02015721 0.6227151
vn -0.813612 -0.4237285 -0.3981077
vn -0.5995522 -0.4304659 0.674712
vn 0 0 -1
vn -0.4532297 0.2933271 -0.8417494
vn -0.7016398 0 -0.7125319
vn -0.3892725 0.5232231 -0.7580927
vn -0.4532297 -0.2933271 -0.8417494
vn 0 0.7037275 -0.71047
vn -0.3892725 -0.5232231 -0.7580927
vn 0.3892726 0.5232227 -0.7580928
vn 0 -0.7037277 -0.71047
vn 0.4532297 0.2933268 -0.8417495
vn 0.3892727 -0.5232227 -0.7580928
vn 0.7016397 0 -0.7125319
vn 0.4532297 -0.2933268 -0.8417495
vn 0 0 1
vn -0.8120168 0 0.5836341
vn -0.8352915 0.5315148 0.1406416
vn -0.4507162 0.8372154 0.3097183
vn -0.8352915 -0.5315149 0.1406416
vn 0 0.8112931 0.5846397
vn -0.4507162 -0.8372154 0.3097183
vn 0.4507165 0.8372152 0.3097182
vn 0 -0.8112931 0.5846397
vn 0.8352919 0.5315143 0.1406414
vn 0.4507165 -0.8372152 0.3097182
vn 0.8120169 0 0.5836338
vn 0.8352919 -0.5315143 0.1406414
vn 0 -0.0001349113 1
vn -0.6085389 0.4116951 0.6783712
vn -0.3385993 0.5225936 0.7824618
vn 0 0.7928147 0.6094629
vn -0.782189 -0.02015721 0.6227151
vn 0.4461722 0.5875718 0.6750479
vn -0.5995522 -0.4304659 0.674712
vn 0.5406969 0.2978783 0.7867118
vn -0.3338562 -0.5264309 0.7819276
vn 0.7821891 -0.02015728 0.6227149
vn 0 -0.7928147 0.6094629
vn 0.5332116 -0.3197185 0.7832404
vn 0.4409909 -0.5934791 0.6732828
vn 0 -0.0007510703 -0.9999998
vn -0.5212317 0.8072533 -0.276875
vn -0.8299766 0.393142 -0.3956996
vn 0 0.7846389 -0.6199529
vn -0.8064356 -0.01985602 -0.5909885
vn 0.4364271 0.8005258 -0.4107186
vn -0.813612 -0.4237285 -0.3981077
vn 0.8362069 0.4807028 -0.2639754
vn -0.5149049 -0.8109901 -0.2777914
vn 0.8064356 -0.01985598 -0.5909885
vn 0 -0.7846389 -0.6199529
vn 0.8193203 -0.5076592 -0.2664514
vn 0.4333643 -0.802441 -0.4102243
g Fortification_0
f 3/3/3 2/2/2 1/1/1
f 3/3/3 4/4/4 2/2/2
f 7/7/7 6/6/6 5/5/5
f 7/7/7 8/8/8 6/6/6
f 11/11/11 10/10/10 9/9/9
f 11/11/11 12/12/12 10/10/10
f 15/15/15 14/14/14 13/13/13
f 15/15/15 16/16/16 14/14/14
f 19/19/19 18/18/18 17/17/17
f 19/19/19 20/20/20 18/18/18
f 23/23/23 22/22/22 21/21/21
f 23/23/23 24/24/24 22/22/22
f 27/27/27 26/26/26 25/25/25
f 27/27/27 28/28/28 26/26/26
f 31/31/31 30/30/30 29/29/29
f 31/31/31 32/32/32 30/30/30
f 35/35/35 34/34/34 33/33/33
f 35/35/35 36/36/36 34/34/34
f 39/39/39 38/38/38 37/37/37
f 39/39/39 40/40/40 38/38/38
f 43/43/43 42/42/42 41/41/41
f 43/43/43 44/44/44 42/42/42
f 47/47/47 46/46/46 45/45/45
f 47/47/47 48/48/48 46/46/46
f 51/51/51 50/50/50 49/49/49
f 51/51/51 52/52/52 50/50/50
f 55/55/55 54/54/54 53/53/53
f 55/55/55 56/56/56 54/54/54
f 59/59/59 58/58/58 57/57/57
f 59/59/59 60/60/60 58/58/58
f 63/63/63 62/62/62 61/61/61
f 63/63/63 64/64/64 62/62/62
f 67/67/67 66/66/66 65/65/65
f 67/67/67 68/68/68 66/66/66
f 71/71/71 70/70/70 69/69/69
f 71/71/71 72/72/72 70/70/70
f 75/75/75 74/74/74 73/73/73
f 75/75/75 76/76/76 74/74/74
f 79/79/79 78/78/78 77/77/77
f 79/79/79 80/80/80 78/78/78
f 83/83/83 82/82/82 81/81/81
f 83/83/83 84/84/84 82/82/82
f 87/87/87 86/86/86 85/85/85
f 87/87/87 88/88/88 86/86/86
f 91/91/91 90/90/90 89/89/89
f 91/91/91 92/92/92 90/90/90
f 95/95/95 94/94/94 93/93/93
f 95/95/95 96/96/96 94/94/94
f 99/99/99 98/98/98 97/97/97
f 98/98/98 100/100/100 97/97/97
f 101/101/101 99/99/99 97/97/97
f 100/100/100 102/102/102 97/97/97
f 103/103/103 101/101/101 97/97/97
f 102/102/102 104/104/104 97/97/97
f 105/105/105 103/103/103 97/97/97
f 104/104/104 106/106/106 97/97/97
f 107/107/107 105/105/105 97/97/97
f 106/106/106 108/108/108 97/97/97
f 109/109/109 107/107/107 97/97/97
f 108/108/108 109/109/109 97/97/97
f 112/112/112 111/111/111 110/110/110
f 113/113/113 112/112/112 110/110/110
f 111/111/111 114/114/114 110/110/110
f 115/115/115 113/113/113 110/110/110
f 114/114/114 116/116/116 110/110/110
f 117/117/117 115/115/115 110/110/110
f 116/116/116 118/118/118 110/110/110
f 119/119/119 117/117/117 110/110/110
f 118/118/118 120/120/120 110/110/110
f 121/121/121 119/119/119 110/110/110
f 120/120/120 122/122/122 110/110/110
f 122/122/122 121/121/121 110/110/110
f 125/125/125 124/124/124 123/123/123
f 126/126/126 125/125/125 123/123/123
f 124/124/124 127/127/127 123/123/123
f 128/128/128 126/126/126 123/123/123
f 127/127/127 129/129/129 123/123/123
f 130/130/130 128/128/128 123/123/123
f 129/129/129 131/131/131 123/123/123
f 132/132/132 130/130/130 123/123/123
f 131/131/131 133/133/133 123/123/123
f 134/134/134 132/132/132 123/123/123
f 133/133/133 135/135/135 123/123/123
f 135/135/135 134/134/134 123/123/123
f 138/138/138 137/137/137 136/136/136
f 137/137/137 139/139/139 136/136/136
f 140/140/140 138/138/138 136/136/136
f 139/139/139 141/141/141 136/136/136
f 142/142/142 140/140/140 136/136/136
f 141/141/141 143/143/143 136/136/136
f 144/144/144 142/142/142 136/136/136
f 143/143/143 145/145/145 136/136/136
f 146/146/146 144/144/144 136/136/136
f 145/145/145 147/147/147 136/136/136
f 148/148/148 146/146/146 136/136/136
f 147/147/147 148/148/148 136/136/136
