g FortifiedBase
v -22.91851 4.72368 21.99704
v -28.21048 6.366151 13.30971
v -18.18069 7.197622 22.00102
v -22.5821 9.260507 13.54506
v 20.95677 5.03146 21.99704
v 26.04903 5.591108 13.27571
v 23.77396 -2.587649 21.99946
v 30.44225 -3.643643 13.29748
v 18.13803 9.080959 13.73524
v 26.04903 5.591108 13.27571
v 15.15449 7.196073 22.10361
v 20.95677 5.03146 21.99704
v -18.18069 7.197622 22.00102
v -22.5821 9.260507 13.54506
v -1.036356 5.722715 22.01742
v -1.286334 6.3604 13.55457
v -1.286334 6.3604 13.55457
v 18.13803 9.080959 13.73524
v -1.036356 5.722715 22.01742
v 15.15449 7.196073 22.10361
v -30.44225 -1.360468 13.46426
v -28.21048 6.366151 13.30971
v -24.44434 -1.029007 21.99946
v -22.91851 4.72368 21.99704
v 30.44225 -3.643643 13.29748
v 26.25311 -8.352422 13.26385
v 23.77396 -2.587649 21.99946
v 20.85774 -6.102185 21.98623
v 18.64588 -9.260507 13.56703
v 16.15391 -4.593647 21.99705
v 26.25311 -8.352422 13.26385
v 20.85774 -6.102185 21.98623
v -1.266712 -5.360213 13.45316
v -1.041325 -2.375319 21.99949
v 18.64588 -9.260507 13.56703
v 16.15391 -4.593647 21.99705
v -1.266712 -5.360213 13.45316
v -19.81627 -8.995363 13.55099
v -1.041325 -2.375319 21.99949
v -18.1403 -4.426724 21.99705
v -27.03682 -8.65692 13.37793
v -22.47576 -5.978514 21.98623
v -19.81627 -8.995363 13.55099
v -18.1403 -4.426724 21.99705
v -30.44225 -1.360468 13.46426
v -24.44434 -1.029007 21.99946
v -27.03682 -8.65692 13.37793
v -22.47576 -5.978514 21.98623
v -21.38974 5.963831 -21.61081
v -24.52997 7.219294 -7.802923
v -26.55425 1.854604 -21.80454
v -29.85697 -1.620863 -7.882687
v -17.11811 5.64373 -7.548394
v -24.52997 7.219294 -7.802923
v -14.34764 5.169208 -21.36816
v -21.38974 5.963831 -21.61081
v -1.139387 3.970795 -7.413201
v -17.11811 5.64373 -7.548394
v -1.139886 3.324981 -21.50326
v -14.34764 5.169208 -21.36816
v 12.38801 6.049894 -21.37849
v 14.80127 7.274935 -7.62942
v -1.139886 3.324981 -21.50326
v -1.139387 3.970795 -7.413201
v 19.24415 6.690515 -21.6679
v 22.19869 7.698639 -7.866138
v 12.38801 6.049894 -21.37849
v 14.80127 7.274935 -7.62942
v 27.55047 -0.8330516 -7.882695
v 22.19869 7.698639 -7.866138
v 24.26545 1.790412 -21.80455
v 19.24415 6.690515 -21.6679
v -29.85697 -1.620863 -7.882687
v -25.01435 -9.138629 -7.867455
v -26.55425 1.854604 -21.80454
v -22.38281 -5.730873 -21.70768
v -17.38622 -8.306088 -7.857946
v -15.3318 -7.484299 -21.71683
v -25.01435 -9.138629 -7.867455
v -22.38281 -5.730873 -21.70768
v -1.140024 -6.526647 -7.982835
v -1.140345 -7.282259 -22.14537
v -17.38622 -8.306088 -7.857946
v -15.3318 -7.484299 -21.71683
v -1.140024 -6.526647 -7.982835
v 15.16229 -8.234092 -7.85795
v -1.140345 -7.282259 -22.14537
v 13.05342 -7.474624 -21.71678
v 15.16229 -8.234092 -7.85795
v 22.77531 -8.816167 -7.86746
v 13.05342 -7.474624 -21.71678
v 20.11284 -5.764352 -21.70769
v 27.55047 -0.8330516 -7.882695
v 24.26545 1.790412 -21.80455
v 22.77531 -8.816167 -7.86746
v 20.11284 -5.764352 -21.70769
v -1.036452 1.187312 22.23329
v -22.91851 4.72368 21.99704
v -18.18069 7.197622 22.00102
v -1.036356 5.722715 22.01742
v -24.44434 -1.029007 21.99946
v 15.15449 7.196073 22.10361
v -22.47576 -5.978514 21.98623
v 20.95677 5.03146 21.99704
v -18.1403 -4.426724 21.99705
v 23.77396 -2.587649 21.99946
v -1.041325 -2.375319 21.99949
v 20.85774 -6.102185 21.98623
v 16.15391 -4.593647 21.99705
v -1.281036 1.677759 13.11414
v -22.5821 9.260507 13.54506
v -28.21048 6.366151 13.30971
v -1.286334 6.3604 13.55457
v -30.44225 -1.360468 13.46426
v 18.13803 9.080959 13.73524
v -27.03682 -8.65692 13.37793
v 26.04903 5.591108 13.27571
v -19.81627 -8.995363 13.55099
v 30.44225 -3.643643 13.29748
v -1.266712 -5.360213 13.45316
v 26.25311 -8.352422 13.26385
v 18.64588 -9.260507 13.56703
v -1.140224 -3.942924 -22.23329
v -21.38974 5.963831 -21.61081
v -26.55425 1.854604 -21.80454
v -14.34764 5.169208 -21.36816
v -22.38281 -5.730873 -21.70768
v -1.139886 3.324981 -21.50326
v -15.3318 -7.484299 -21.71683
v 12.38801 6.049894 -21.37849
v -1.140345 -7.282259 -22.14537
v 19.24415 6.690515 -21.6679
v 13.05342 -7.474624 -21.71678
v 24.26545 1.790412 -21.80455
v 20.11284 -5.764352 -21.70769
v -1.138954 -2.677075 -8.68375
v -29.85697 -1.620863 -7.882687
v -24.52997 7.219294 -7.802923
v -17.11811 5.64373 -7.548394
v -25.01435 -9.138629 -7.867455
v -1.139387 3.970795 -7.413201
v -17.38622 -8.306088 -7.857946
v 14.80127 7.274935 -7.62942
v -1.140024 -6.526647 -7.982835
v 22.19869 7.698639 -7.866138
v 15.16229 -8.234092 -7.85795
v 27.55047 -0.8330516 -7.882695
v 22.77531 -8.816167 -7.86746
vt 0.03523743 0.1464657
vt 0.01237059 0.8615077
vt 0.5966811 0.1464657
vt 0.6327724 0.8615077
vt 0.8847123 0.1464657
vt 0.9097486 0.8615077
vt 0.1531179 0.1464657
vt 0.0995748 0.8615077
vt 0.01477838 0.8615077
vt 0.5820446 0.8615077
vt 0.0306592 0.1464657
vt 0.5440178 0.1464657
vt 0.9462807 0.1464657
vt 0.9753335 0.8615077
vt 0.1191161 0.1464657
vt 0.05972219 0.8615077
vt 0.1089454 0.8615077
vt 0.9524875 0.8615077
vt 0.1600547 0.1464657
vt 0.9221268 0.1464657
vt 0.08638275 0.8615077
vt 0.9531981 0.8615077
vt 0.1322221 0.1464657
vt 0.9149623 0.1464657
vt 0.0233314 0.8615077
vt 0.9936099 0.8615077
vt 0.07981646 0.1464657
vt 0.9559929 0.1464657
vt 0.6434261 0.8615077
vt 0.6039408 0.1464657
vt 0.06652761 0.8615077
vt 0.08186638 0.1464657
vt 0.08379921 0.8615077
vt 0.136694 0.1464657
vt 0.9969865 0.8615077
vt 0.9616842 0.1464657
vt 0.04868996 0.8615077
vt 0.9981122 0.8615077
vt 0.1046419 0.1464657
vt 0.9623682 0.1464657
vt 0.607774 0.8615077
vt 0.5808144 0.1464657
vt 0.1342279 0.8615077
vt 0.1522679 0.1464657
vt 0.9890069 0.8615077
vt 0.9373006 0.1464657
vt 0.06731206 0.8615077
vt 0.1049963 0.1464657
vt 0.898661 0.1464657
vt 0.964546 0.8615077
vt 0.2515259 0.1464657
vt 0.1493707 0.8615077
vt 0.06720436 0.8615077
vt 0.6240561 0.8615077
vt 0.1283677 0.1464657
vt 0.5711845 0.1464657
vt 0.1177989 0.8615077
vt 0.9634749 0.8615077
vt 0.1985204 0.1464657
vt 0.8708579 0.1464657
vt 0.874442 0.1464657
vt 0.9583639 0.8615077
vt 0.2148439 0.1464657
vt 0.1287107 0.8615077
vt 0.120628 0.1464657
vt 0.07392102 0.8615077
vt 0.5665606 0.1464657
vt 0.6346632 0.8615077
vt 0.1279131 0.8615077
vt 0.9514793 0.8615077
vt 0.227795 0.1464657
vt 0.8816136 0.1464657
vt 0.1363106 0.8615077
vt 0.9670267 0.8615077
vt 0.2055488 0.1464657
vt 0.8652623 0.1464657
vt 0.5926995 0.8615077
vt 0.5234139 0.1464657
vt 0.02160311 0.8615077
vt 0.06924725 0.1464657
vt 0.1494663 0.8615077
vt 0.2466282 0.1464657
vt 0.9253848 0.8615077
vt 0.8634998 0.1464657
vt 0.1321397 0.8615077
vt 0.9497297 0.8615077
vt 0.2342812 0.1464657
vt 0.88428 0.1464657
vt 0.0636791 0.8615077
vt 0.634038 0.8615077
vt 0.1440023 0.1464657
vt 0.5976186 0.1464657
vt 0.170561 0.8615077
vt 0.2615971 0.1464657
vt 0.9752903 0.8615077
vt 0.9005057 0.1464657
vt 0.9237778 0.06272042
vt 0.9182273 0.03576314
vt 0.929271 0.0357635
vt 0.943868 0.04263771
vt 0.9036628 0.04260564
vt 0.9507422 0.05723464
vt 0.8968204 0.05717003
vt 0.9507425 0.06827831
vt 0.8968207 0.0682137
vt 0.9439 0.08284271
vt 0.903695 0.08281064
vt 0.9293357 0.08968508
vt 0.9182919 0.08968484
vt 0.9236529 0.06271911
vt 0.9302424 0.03037429
vt 0.9170063 0.03037393
vt 0.9477804 0.03859901
vt 0.8995007 0.03856707
vt 0.9560052 0.05613708
vt 0.8913077 0.05607259
vt 0.9560055 0.06937313
vt 0.891308 0.06930864
vt 0.9478124 0.08687866
vt 0.8995327 0.08684671
vt 0.9303069 0.09507167
vt 0.9170707 0.09507143
vt 0.9232995 0.06272078
vt 0.918586 0.03989971
vt 0.9062588 0.04573226
vt 0.9279118 0.03985977
vt 0.9004641 0.05807722
vt 0.9403272 0.04563701
vt 0.9004527 0.0674032
vt 0.9461425 0.05803454
vt 0.9062681 0.07980084
vt 0.9461305 0.06735981
vt 0.9186834 0.08557796
vt 0.9403345 0.07970357
vt 0.9280086 0.08553731
vt 0.9234253 0.06272209
vt 0.901944 0.04125726
vt 0.9175189 0.03401077
vt 0.9292465 0.03400159
vt 0.8947094 0.0568378
vt 0.9448669 0.04125988
vt 0.8947092 0.06856537
vt 0.9521371 0.05687463
vt 0.9019795 0.08418012
vt 0.9521368 0.06860209
vt 0.9175998 0.09143829
vt 0.9449021 0.08418226
vt 0.9293273 0.091429
vn -0.5464783 0.4386481 0.7134069
vn -0.6132342 0.4936988 -0.616608
vn -0.3049449 0.6922569 0.6540559
vn -0.335593 0.7610527 -0.5551361
vn 0.5464787 0.438648 0.7134066
vn 0.6132343 0.4936987 -0.616608
vn 0.6862451 -0.0430236 0.7260968
vn 0.7650497 -0.04524788 -0.6423796
vn 0.3355932 0.7610526 -0.5551362
vn 0.6132343 0.4936987 -0.616608
vn 0.3049452 0.6922568 0.6540558
vn 0.5464787 0.438648 0.7134066
vn -0.3049449 0.6922569 0.6540559
vn -0.335593 0.7610527 -0.5551361
vn 0 0.7942368 0.6076084
vn 0 0.8603793 -0.5096544
vn 0 0.8603793 -0.5096544
vn 0.3355932 0.7610526 -0.5551362
vn 0 0.7942368 0.6076084
vn 0.3049452 0.6922568 0.6540558
vn -0.7650496 -0.04524797 -0.6423798
vn -0.6132342 0.4936988 -0.616608
vn -0.6862448 -0.04302371 0.7260972
vn -0.5464783 0.4386481 0.7134069
vn 0.7650497 -0.04524788 -0.6423796
vn 0.6107103 -0.501083 -0.6131466
vn 0.6862451 -0.0430236 0.7260968
vn 0.5459442 -0.447294 0.7084299
vn 0.3198163 -0.772441 -0.5486825
vn 0.2906193 -0.7042106 0.6477869
vn 0.6107103 -0.501083 -0.6131466
vn 0.5459442 -0.447294 0.7084299
vn 0 -0.8645325 -0.5025769
vn 0 -0.7980013 0.6026556
vn 0.3198163 -0.772441 -0.5486825
vn 0.2906193 -0.7042106 0.6477869
vn 0 -0.8645325 -0.5025769
vn -0.3198161 -0.772441 -0.5486826
vn 0 -0.7980013 0.6026556
vn -0.290619 -0.7042106 0.6477869
vn -0.6107101 -0.5010833 -0.6131466
vn -0.5459437 -0.4472941 0.7084302
vn -0.3198161 -0.772441 -0.5486826
vn -0.290619 -0.7042106 0.6477869
vn -0.7650496 -0.04524797 -0.6423798
vn -0.6862448 -0.04302371 0.7260972
vn -0.6107101 -0.5010833 -0.6131466
vn -0.5459437 -0.4472941 0.7084302
vn -0.5785328 0.4712798 -0.6657292
vn -0.6851978 0.5549811 0.4716991
vn -0.7203122 0 -0.69365
vn -0.8767181 1.006533E-07 0.4810046
vn -0.3492998 0.8394205 0.4163686
vn -0.6851978 0.5549811 0.4716991
vn -0.3039014 0.7362709 -0.6046066
vn -0.5785328 0.4712798 -0.6657292
vn 0 0.9292287 0.3695051
vn -0.3492998 0.8394205 0.4163686
vn 0 0.8248067 -0.5654146
vn -0.3039014 0.7362709 -0.6046066
vn 0.3039016 0.7362707 -0.6046066
vn 0.3493002 0.8394204 0.4163686
vn 0 0.8248067 -0.5654146
vn 0 0.9292287 0.3695051
vn 0.5785328 0.4712795 -0.6657292
vn 0.6851981 0.5549807 0.4716991
vn 0.3039016 0.7362707 -0.6046066
vn 0.3493002 0.8394204 0.4163686
vn 0.8767182 0 0.4810044
vn 0.6851981 0.5549807 0.4716991
vn 0.7203121 0 -0.6936501
vn 0.5785328 0.4712795 -0.6657292
vn -0.8767181 1.006533E-07 0.4810046
vn -0.6851978 -0.5549809 0.471699
vn -0.7203122 0 -0.69365
vn -0.5785326 -0.4712797 -0.6657292
vn -0.3492997 -0.8394204 0.4163688
vn -0.3039013 -0.7362709 -0.6046066
vn -0.6851978 -0.5549809 0.471699
vn -0.5785326 -0.4712797 -0.6657292
vn 0 -0.9292285 0.3695054
vn 0 -0.8248067 -0.5654147
vn -0.3492997 -0.8394204 0.4163688
vn -0.3039013 -0.7362709 -0.6046066
vn 0 -0.9292285 0.3695054
vn 0.3493001 -0.8394203 0.4163688
vn 0 -0.8248067 -0.5654147
vn 0.3039016 -0.7362707 -0.6046067
vn 0.3493001 -0.8394203 0.4163688
vn 0.6851981 -0.5549808 0.471699
vn 0.3039016 -0.7362707 -0.6046067
vn 0.5785327 -0.4712795 -0.6657292
vn 0.8767182 0 0.4810044
vn 0.7203121 0 -0.6936501
vn 0.6851981 -0.5549808 0.471699
vn 0.5785327 -0.4712795 -0.6657292
vn 0 2.814759E-06 1
vn -0.5464783 0.4386481 0.7134069
vn -0.3049449 0.6922569 0.6540559
vn 0 0.7942368 0.6076084
vn -0.6862448 -0.04302371 0.7260972
vn 0.3049452 0.6922568 0.6540558
vn -0.5459437 -0.4472941 0.7084302
vn 0.5464787 0.438648 0.7134066
vn -0.290619 -0.7042106 0.6477869
vn 0.6862451 -0.0430236 0.7260968
vn 0 -0.7980013 0.6026556
vn 0.5459442 -0.447294 0.7084299
vn 0.2906193 -0.7042106 0.6477869
vn 0 2.965272E-05 -1
vn -0.335593 0.7610527 -0.5551361
vn -0.6132342 0.4936988 -0.616608
vn 0 0.8603793 -0.5096544
vn -0.7650496 -0.04524797 -0.6423798
vn 0.3355932 0.7610526 -0.5551362
vn -0.6107101 -0.5010833 -0.6131466
vn 0.6132343 0.4936987 -0.616608
vn -0.3198161 -0.772441 -0.5486826
vn 0.7650497 -0.04524788 -0.6423796
vn 0 -0.8645325 -0.5025769
vn 0.6107103 -0.501083 -0.6131466
vn 0.3198163 -0.772441 -0.5486825
vn -1.476748E-07 0 -1
vn -0.5785328 0.4712798 -0.6657292
vn -0.7203122 0 -0.69365
vn -0.3039014 0.7362709 -0.6046066
vn -0.5785326 -0.4712797 -0.6657292
vn 0 0.8248067 -0.5654146
vn -0.3039013 -0.7362709 -0.6046066
vn 0.3039016 0.7362707 -0.6046066
vn 0 -0.8248067 -0.5654147
vn 0.5785328 0.4712795 -0.6657292
vn 0.3039016 -0.7362707 -0.6046067
vn 0.7203121 0 -0.6936501
vn 0.5785327 -0.4712795 -0.6657292
vn 1.326408E-07 0 1
vn -0.8767181 1.006533E-07 0.4810046
vn -0.6851978 0.5549811 0.4716991
vn -0.3492998 0.8394205 0.4163686
vn -0.6851978 -0.5549809 0.471699
vn 0 0.9292287 0.3695051
vn -0.3492997 -0.8394204 0.4163688
vn 0.3493002 0.8394204 0.4163686
vn 0 -0.9292285 0.3695054
vn 0.6851981 0.5549807 0.4716991
vn 0.3493001 -0.8394203 0.4163688
vn 0.8767182 0 0.4810044
vn 0.6851981 -0.5549808 0.471699
g FortifiedBase_0
f 3/3/3 2/2/2 1/1/1
f 3/3/3 4/4/4 2/2/2
f 7/7/7 6/6/6 5/5/5
f 7/7/7 8/8/8 6/6/6
f 11/11/11 10/10/10 9/9/9
f 11/11/11 12/12/12 10/10/10
f 15/15/15 14/14/14 13/13/13
f 15/15/15 16/16/16 14/14/14
f 19/19/19 18/18/18 17/17/17
f 19/19/19 20/20/20 18/18/18
f 23/23/23 22/22/22 21/21/21
f 23/23/23 24/24/24 22/22/22
f 27/27/27 26/26/26 25/25/25
f 27/27/27 28/28/28 26/26/26
f 31/31/31 30/30/30 29/29/29
f 31/31/31 32/32/32 30/30/30
f 35/35/35 34/34/34 33/33/33
f 35/35/35 36/36/36 34/34/34
f 39/39/39 38/38/38 37/37/37
f 39/39/39 40/40/40 38/38/38
f 43/43/43 42/42/42 41/41/41
f 43/43/43 44/44/44 42/42/42
f 47/47/47 46/46/46 45/45/45
f 47/47/47 48/48/48 46/46/46
f 51/51/51 50/50/50 49/49/49
f 51/51/51 52/52/52 50/50/50
f 55/55/55 54/54/54 53/53/53
f 55/55/55 56/56/56 54/54/54
f 59/59/59 58/58/58 57/57/57
f 59/59/59 60/60/60 58/58/58
f 63/63/63 62/62/62 61/61/61
f 63/63/63 64/64/64 62/62/62
f 67/67/67 66/66/66 65/65/65
f 67/67/67 68/68/68 66/66/66
f 71/71/71 70/70/70 69/69/69
f 71/71/71 72/72/72 70/70/70
f 75/75/75 74/74/74 73/73/73
f 75/75/75 76/76/76 74/74/74
f 79/79/79 78/78/78 77/77/77
f 79/79/79 80/80/80 78/78/78
f 83/83/83 82/82/82 81/81/81
f 83/83/83 84/84/84 82/82/82
f 87/87/87 86/86/86 85/85/85
f 87/87/87 88/88/88 86/86/86
f 91/91/91 90/90/90 89/89/89
f 91/91/91 92/92/92 90/90/90
f 95/95/95 94/94/94 93/93/93
f 95/95/95 96/96/96 94/94/94
f 99/99/99 98/98/98 97/97/97
f 100/100/100 99/99/99 97/97/97
f 98/98/98 101/101/101 97/97/97
f 102/102/102 100/100/100 97/97/97
f 101/101/101 103/103/103 97/97/97
f 104/104/104 102/102/102 97/97/97
f 103/103/103 105/105/105 97/97/97
f 106/106/106 104/104/104 97/97/97
f 105/105/105 107/107/107 97/97/97
f 108/108/108 106/106/106 97/97/97
f 107/107/107 109/109/109 97/97/97
f 109/109/109 108/108/108 97/97/97
f 112/112/112 111/111/111 110/110/110
f 111/111/111 113/113/113 110/110/110
f 114/114/114 112/112/112 110/110/110
f 113/113/113 115/115/115 110/110/110
f 116/116/116 114/114/114 110/110/110
f 115/115/115 117/117/117 110/110/110
f 118/118/118 116/116/116 110/110/110
f 117/117/117 119/119/119 110/110/110
f 120/120/120 118/118/118 110/110/110
f 119/119/119 121/121/121 110/110/110
f 122/122/122 120/120/120 110/110/110
f 121/121/121 122/122/122 110/110/110
f 125/125/125 124/124/124 123/123/123
f 124/124/124 126/126/126 123/123/123
f 127/127/127 125/125/125 123/123/123
f 126/126/126 128/128/128 123/123/123
f 129/129/129 127/127/127 123/123/123
f 128/128/128 130/130/130 123/123/123
f 131/131/131 129/129/129 123/123/123
f 130/130/130 132/132/132 123/123/123
f 133/133/133 131/131/131 123/123/123
f 132/132/132 134/134/134 123/123/123
f 135/135/135 133/133/133 123/123/123
f 134/134/134 135/135/135 123/123/123
f 138/138/138 137/137/137 136/136/136
f 139/139/139 138/138/138 136/136/136
f 137/137/137 140/140/140 136/136/136
f 141/141/141 139/139/139 136/136/136
f 140/140/140 142/142/142 136/136/136
f 143/143/143 141/141/141 136/136/136
f 142/142/142 144/144/144 136/136/136
f 145/145/145 143/143/143 136/136/136
f 144/144/144 146/146/146 136/136/136
f 147/147/147 145/145/145 136/136/136
f 146/146/146 148/148/148 136/136/136
f 148/148/148 147/147/147 136/136/136
