g Fortification
v -20.23268 13.33071 18.82309
v -13.36634 20.19659 18.8231
v -16.6988 10.9923 29.45713
v -11.0276 16.66305 29.45715
v 16.69495 10.9923 29.45713
v 20.22883 13.33071 18.82308
v 21.23472 7.145757E-08 29.45569
v 25.05968 6.261239E-08 18.82163
v 13.36249 20.19659 18.8231
v 20.22883 13.33071 18.82308
v 11.02374 16.66305 29.45715
v 16.69495 10.9923 29.45713
v -11.0276 16.66305 29.45715
v -13.36634 20.19659 18.8231
v -0.001917425 20.62863 29.45572
v -0.001916142 25.0277 18.82166
v -0.001916142 25.0277 18.82166
v 13.36249 20.19659 18.8231
v -0.001917425 20.62863 29.45572
v 11.02374 16.66305 29.45715
v -25.06353 -6.261238E-07 18.82163
v -20.23268 13.33071 18.82309
v -21.23858 -6.292785E-07 29.45569
v -16.6988 10.9923 29.45713
v -16.94812 11.18306 -11.33256
v -19.59929 12.92211 -0.2465115
v -20.96635 -7.809E-07 -11.42221
v -24.32067 -7.177218E-07 -0.2594729
v -12.96039 19.56615 -0.2384256
v -19.59929 12.92211 -0.2465115
v -11.21797 16.94509 -11.28375
v -16.94812 11.18306 -11.33256
v -0.001915318 24.29666 -0.235679
v -12.96039 19.56615 -0.2384256
v -0.001915535 21.018 -11.27823
v -11.21797 16.94509 -11.28375
v 11.21413 16.94509 -11.28375
v 12.95654 19.56615 -0.2384304
v -0.001915535 21.018 -11.27823
v -0.001915318 24.29666 -0.235679
v 16.94427 11.18306 -11.33256
v 19.59544 12.92211 -0.2465176
v 11.21413 16.94509 -11.28375
v 12.95654 19.56615 -0.2384304
v 24.31681 -1.708861E-08 -0.2594815
v 19.59544 12.92211 -0.2465176
v 20.9625 -1.859286E-08 -11.42222
v 16.94427 11.18306 -11.33256
v -24.32067 -7.177218E-07 -0.2594729
v -19.59929 -12.92211 -0.2465115
v -20.96635 -7.809E-07 -11.42221
v -16.94812 -11.18306 -11.33256
v -12.96039 -19.56615 -0.2384256
v -11.21797 -16.94509 -11.28375
v -19.59929 -12.92211 -0.2465115
v -16.94812 -11.18306 -11.33256
v -0.001915301 -24.29666 -0.235679
v -0.001915517 -21.018 -11.27823
v -12.96039 -19.56615 -0.2384256
v -11.21797 -16.94509 -11.28375
v -0.001915301 -24.29666 -0.235679
v 12.95654 -19.56615 -0.2384304
v -0.001915517 -21.018 -11.27823
v 11.21413 -16.94509 -11.28375
v 12.95654 -19.56615 -0.2384304
v 19.59544 -12.92211 -0.2465176
v 11.21413 -16.94509 -11.28375
v 16.94427 -11.18306 -11.33256
v 24.31681 -1.708861E-08 -0.2594815
v 20.9625 -1.859286E-08 -11.42222
v 19.59544 -12.92211 -0.2465176
v 16.94427 -11.18306 -11.33256
v 25.05968 6.261239E-08 18.82163
v 20.22883 -13.33071 18.82308
v 21.23472 7.145757E-08 29.45569
v 16.69495 -10.9923 29.45713
v 13.36249 -20.19659 18.8231
v 11.02374 -16.66305 29.45715
v 20.22883 -13.33071 18.82308
v 16.69495 -10.9923 29.45713
v -0.001916173 -25.0277 18.82166
v -0.001917456 -20.62863 29.45572
v 13.36249 -20.19659 18.8231
v 11.02374 -16.66305 29.45715
v -0.001916173 -25.0277 18.82166
v -13.36634 -20.19659 18.8231
v -0.001917456 -20.62863 29.45572
v -11.0276 -16.66305 29.45715
v -20.23268 -13.33071 18.82309
v -16.6988 -10.9923 29.45713
v -13.36634 -20.19659 18.8231
v -11.0276 -16.66305 29.45715
v -25.06353 -6.261238E-07 18.82163
v -21.23858 -6.292785E-07 29.45569
v -20.23268 -13.33071 18.82309
v -16.6988 -10.9923 29.45713
v -0.001920218 1.168404E-06 -10.92819
v -16.94812 11.18306 -11.33256
v -20.96635 -7.809E-07 -11.42221
v -11.21797 16.94509 -11.28375
v -16.94812 -11.18306 -11.33256
v -0.001915535 21.018 -11.27823
v -11.21797 -16.94509 -11.28375
v 11.21413 16.94509 -11.28375
v -0.001915517 -21.018 -11.27823
v 16.94427 11.18306 -11.33256
v 11.21413 -16.94509 -11.28375
v 20.9625 -1.859286E-08 -11.42222
v 16.94427 -11.18306 -11.33256
v -0.001924066 1.39651E-06 1.866724
v -24.32067 -7.177218E-07 -0.2594729
v -19.59929 12.92211 -0.2465115
v -12.96039 19.56615 -0.2384256
v -19.59929 -12.92211 -0.2465115
v -0.001915318 24.29666 -0.235679
v -12.96039 -19.56615 -0.2384256
v 12.95654 19.56615 -0.2384304
v -0.001915301 -24.29666 -0.235679
v 19.59544 12.92211 -0.2465176
v 12.95654 -19.56615 -0.2384304
v 24.31681 -1.708861E-08 -0.2594815
v 19.59544 -12.92211 -0.2465176
v -0.001916006 1.198343E-06 29.73593
v -16.6988 10.9923 29.45713
v -11.0276 16.66305 29.45715
v -0.001917425 20.62863 29.45572
v -21.23858 -6.292785E-07 29.45569
v 11.02374 16.66305 29.45715
v -16.6988 -10.9923 29.45713
v 16.69495 10.9923 29.45713
v -11.0276 -16.66305 29.45715
v 21.23472 7.145757E-08 29.45569
v -0.001917456 -20.62863 29.45572
v 16.69495 -10.9923 29.45713
v 11.02374 -16.66305 29.45715
v -0.001923581 3.916217E-07 16.77786
v -13.36634 20.19659 18.8231
v -20.23268 13.33071 18.82309
v -0.001916142 25.0277 18.82166
v -25.06353 -6.261238E-07 18.82163
v 13.36249 20.19659 18.8231
v -20.23268 -13.33071 18.82309
v 20.22883 13.33071 18.82308
v -13.36634 -20.19659 18.8231
v 25.05968 6.261239E-08 18.82163
v -0.001916173 -25.0277 18.82166
v 20.22883 -13.33071 18.82308
v 13.36249 -20.19659 18.8231
vt 0.01237059 0.8615077
vt 0.6327724 0.8615077
vt 0.03523743 0.1464657
vt 0.5966811 0.1464657
vt 0.8847123 0.1464657
vt 0.9097486 0.8615077
vt 0.1531179 0.1464657
vt 0.0995748 0.8615077
vt 0.01477838 0.8615077
vt 0.5820446 0.8615077
vt 0.0306592 0.1464657
vt 0.5440178 0.1464657
vt 0.9462807 0.1464657
vt 0.9753335 0.8615077
vt 0.1191161 0.1464657
vt 0.05972219 0.8615077
vt 0.1089454 0.8615077
vt 0.9524875 0.8615077
vt 0.1600547 0.1464657
vt 0.9221268 0.1464657
vt 0.08638275 0.8615077
vt 0.9531981 0.8615077
vt 0.1322221 0.1464657
vt 0.9149623 0.1464657
vt 0.898661 0.1464657
vt 0.964546 0.8615077
vt 0.2515259 0.1464657
vt 0.1493707 0.8615077
vt 0.06720436 0.8615077
vt 0.6240561 0.8615077
vt 0.1283677 0.1464657
vt 0.5711845 0.1464657
vt 0.1177989 0.8615077
vt 0.9634749 0.8615077
vt 0.1985204 0.1464657
vt 0.8708579 0.1464657
vt 0.874442 0.1464657
vt 0.9583639 0.8615077
vt 0.2148439 0.1464657
vt 0.1287107 0.8615077
vt 0.120628 0.1464657
vt 0.07392102 0.8615077
vt 0.5665606 0.1464657
vt 0.6346632 0.8615077
vt 0.1279131 0.8615077
vt 0.9514793 0.8615077
vt 0.227795 0.1464657
vt 0.8816136 0.1464657
vt 0.1363106 0.8615077
vt 0.9670267 0.8615077
vt 0.2055488 0.1464657
vt 0.8652623 0.1464657
vt 0.5926995 0.8615077
vt 0.5234139 0.1464657
vt 0.02160311 0.8615077
vt 0.06924725 0.1464657
vt 0.1494663 0.8615077
vt 0.2466282 0.1464657
vt 0.9253848 0.8615077
vt 0.8634998 0.1464657
vt 0.1321397 0.8615077
vt 0.9497297 0.8615077
vt 0.2342812 0.1464657
vt 0.88428 0.1464657
vt 0.0636791 0.8615077
vt 0.634038 0.8615077
vt 0.1440023 0.1464657
vt 0.5976186 0.1464657
vt 0.170561 0.8615077
vt 0.2615971 0.1464657
vt 0.9752903 0.8615077
vt 0.9005057 0.1464657
vt 0.0233314 0.8615077
vt 0.9936099 0.8615077
vt 0.07981646 0.1464657
vt 0.9559929 0.1464657
vt 0.6434261 0.8615077
vt 0.6039408 0.1464657
vt 0.06652761 0.8615077
vt 0.08186638 0.1464657
vt 0.08379921 0.8615077
vt 0.136694 0.1464657
vt 0.9969865 0.8615077
vt 0.9616842 0.1464657
vt 0.04868996 0.8615077
vt 0.9981122 0.8615077
vt 0.1046419 0.1464657
vt 0.9623682 0.1464657
vt 0.607774 0.8615077
vt 0.5808144 0.1464657
vt 0.1342279 0.8615077
vt 0.1522679 0.1464657
vt 0.9890069 0.8615077
vt 0.9373006 0.1464657
vt 0.06731206 0.8615077
vt 0.1049963 0.1464657
vt 0.9232995 0.06272078
vt 0.918586 0.03989971
vt 0.9062588 0.04573226
vt 0.9279118 0.03985977
vt 0.9004641 0.05807722
vt 0.9403272 0.04563701
vt 0.9004527 0.0674032
vt 0.9461425 0.05803454
vt 0.9062681 0.07980084
vt 0.9461305 0.06735981
vt 0.9186834 0.08557796
vt 0.9403345 0.07970357
vt 0.9280086 0.08553731
vt 0.9234253 0.06272209
vt 0.901944 0.04125726
vt 0.9175189 0.03401077
vt 0.9292465 0.03400159
vt 0.8947094 0.0568378
vt 0.9448669 0.04125988
vt 0.8947092 0.06856537
vt 0.9521371 0.05687463
vt 0.9019795 0.08418012
vt 0.9521368 0.06860209
vt 0.9175998 0.09143829
vt 0.9449021 0.08418226
vt 0.9293273 0.091429
vt 0.9237778 0.06272042
vt 0.9182273 0.03576314
vt 0.929271 0.0357635
vt 0.943868 0.04263771
vt 0.9036628 0.04260564
vt 0.9507422 0.05723464
vt 0.8968204 0.05717003
vt 0.9507425 0.06827831
vt 0.8968207 0.0682137
vt 0.9439 0.08284271
vt 0.903695 0.08281064
vt 0.9293357 0.08968508
vt 0.9182919 0.08968484
vt 0.9236529 0.06271911
vt 0.9302424 0.03037429
vt 0.9170063 0.03037393
vt 0.9477804 0.03859901
vt 0.8995007 0.03856707
vt 0.9560052 0.05613708
vt 0.8913077 0.05607259
vt 0.9560055 0.06937313
vt 0.891308 0.06930864
vt 0.9478124 0.08687866
vt 0.8995327 0.08684671
vt 0.9303069 0.09507167
vt 0.9170707 0.09507143
vn -0.8305632 0.4644634 -0.3073083
vn -0.5305897 0.8358438 -0.1408531
vn -0.529974 0.4064399 0.7442675
vn -0.3004778 0.4739035 0.8277249
vn 0.4676926 0.3121189 0.8269495
vn 0.8291001 0.5386282 -0.1499096
vn 0.7233446 0 0.6904873
vn 0.8209784 0 -0.5709593
vn 0.4540496 0.8398137 -0.2975766
vn 0.8291001 0.5386282 -0.1499096
vn 0.3975923 0.5353482 0.7451997
vn 0.4676926 0.3121189 0.8269495
vn -0.3004778 0.4739035 0.8277249
vn -0.5305897 0.8358438 -0.1408531
vn 0 0.7159861 0.6981145
vn 0 0.8340014 -0.5517623
vn 0 0.8340014 -0.5517623
vn 0.4540496 0.8398137 -0.2975766
vn 0 0.7159861 0.6981145
vn 0.3975923 0.5353482 0.7451997
vn -0.8209782 0 -0.5709594
vn -0.8305632 0.4644634 -0.3073083
vn -0.7233446 0 0.6904871
vn -0.529974 0.4064399 0.7442675
vn -0.493307 0.3184465 -0.809469
vn -0.822078 0.5226991 0.2257732
vn -0.7575167 0 -0.6528158
vn -0.8073988 0 0.5900061
vn -0.4444857 0.8170896 0.3671471
vn -0.822078 0.5226991 0.2257732
vn -0.4211651 0.566119 -0.7086108
vn -0.493307 0.3184465 -0.809469
vn 0 0.8062595 0.5915619
vn -0.4444857 0.8170896 0.3671471
vn 0 0.7597704 -0.6501915
vn -0.4211651 0.566119 -0.7086108
vn 0.4211652 0.5661188 -0.7086108
vn 0.4444861 0.8170894 0.3671471
vn 0 0.7597704 -0.6501915
vn 0 0.8062595 0.5915619
vn 0.4933068 0.3184465 -0.809469
vn 0.8220782 0.5226988 0.2257729
vn 0.4211652 0.5661188 -0.7086108
vn 0.4444861 0.8170894 0.3671471
vn 0.807399 0 0.5900059
vn 0.8220782 0.5226988 0.2257729
vn 0.7575166 0 -0.6528159
vn 0.4933068 0.3184465 -0.809469
vn -0.8073988 0 0.5900061
vn -0.822078 -0.5226991 0.2257732
vn -0.7575167 0 -0.6528158
vn -0.493307 -0.3184465 -0.809469
vn -0.4444857 -0.8170896 0.3671471
vn -0.4211651 -0.566119 -0.7086108
vn -0.822078 -0.5226991 0.2257732
vn -0.493307 -0.3184465 -0.809469
vn 0 -0.8062595 0.5915619
vn 0 -0.7597704 -0.6501915
vn -0.4444857 -0.8170896 0.3671471
vn -0.4211651 -0.566119 -0.7086108
vn 0 -0.8062595 0.5915619
vn 0.4444861 -0.8170894 0.3671471
vn 0 -0.7597704 -0.6501915
vn 0.4211652 -0.5661188 -0.7086108
vn 0.4444861 -0.8170894 0.3671471
vn 0.8220782 -0.5226988 0.2257729
vn 0.4211652 -0.5661188 -0.7086108
vn 0.4933068 -0.3184464 -0.8094692
vn 0.807399 0 0.5900059
vn 0.7575166 0 -0.6528159
vn 0.8220782 -0.5226988 0.2257729
vn 0.4933068 -0.3184464 -0.8094692
vn 0.8209784 0 -0.5709593
vn 0.8291001 -0.5386282 -0.1499096
vn 0.7233446 0 0.6904873
vn 0.4676926 -0.3121189 0.8269495
vn 0.4540496 -0.8398137 -0.2975766
vn 0.3975923 -0.5353482 0.7451997
vn 0.8291001 -0.5386282 -0.1499096
vn 0.4676926 -0.3121189 0.8269495
vn 0 -0.8340014 -0.5517623
vn 0 -0.7159861 0.6981145
vn 0.4540496 -0.8398137 -0.2975766
vn 0.3975923 -0.5353482 0.7451997
vn 0 -0.8340014 -0.5517623
vn -0.5305897 -0.8358438 -0.1408531
vn 0 -0.7159861 0.6981145
vn -0.3004778 -0.4739035 0.8277249
vn -0.8305632 -0.4644635 -0.3073083
vn -0.529974 -0.40644 0.7442675
vn -0.5305897 -0.8358438 -0.1408531
vn -0.3004778 -0.4739035 0.8277249
vn -0.8209782 0 -0.5709594
vn -0.7233446 0 0.6904871
vn -0.8305632 -0.4644635 -0.3073083
vn -0.529974 -0.40644 0.7442675
vn 0 0 -1
vn -0.493307 0.3184465 -0.809469
vn -0.7575167 0 -0.6528158
vn -0.4211651 0.566119 -0.7086108
vn -0.493307 -0.3184465 -0.809469
vn 0 0.7597704 -0.6501915
vn -0.4211651 -0.566119 -0.7086108
vn 0.4211652 0.5661188 -0.7086108
vn 0 -0.7597704 -0.6501915
vn 0.4933068 0.3184465 -0.809469
vn 0.4211652 -0.5661188 -0.7086108
vn 0.7575166 0 -0.6528159
vn 0.4933068 -0.3184464 -0.8094692
vn 0 0 1
vn -0.8073988 0 0.5900061
vn -0.822078 0.5226991 0.2257732
vn -0.4444857 0.8170896 0.3671471
vn -0.822078 -0.5226991 0.2257732
vn 0 0.8062595 0.5915619
vn -0.4444857 -0.8170896 0.3671471
vn 0.4444861 0.8170894 0.3671471
vn 0 -0.8062595 0.5915619
vn 0.8220782 0.5226988 0.2257729
vn 0.4444861 -0.8170894 0.3671471
vn 0.807399 0 0.5900059
vn 0.8220782 -0.5226988 0.2257729
vn 0 0 1
vn -0.529974 0.4064399 0.7442675
vn -0.3004778 0.4739035 0.8277249
vn 0 0.7159861 0.6981145
vn -0.7233446 0 0.6904871
vn 0.3975923 0.5353482 0.7451997
vn -0.529974 -0.40644 0.7442675
vn 0.4676926 0.3121189 0.8269495
vn -0.3004778 -0.4739035 0.8277249
vn 0.7233446 0 0.6904873
vn 0 -0.7159861 0.6981145
vn 0.4676926 -0.3121189 0.8269495
vn 0.3975923 -0.5353482 0.7451997
vn 0 0 -1
vn -0.5305897 0.8358438 -0.1408531
vn -0.8305632 0.4644634 -0.3073083
vn 0 0.8340014 -0.5517623
vn -0.8209782 0 -0.5709594
vn 0.4540496 0.8398137 -0.2975766
vn -0.8305632 -0.4644635 -0.3073083
vn 0.8291001 0.5386282 -0.1499096
vn -0.5305897 -0.8358438 -0.1408531
vn 0.8209784 0 -0.5709593
vn 0 -0.8340014 -0.5517623
vn 0.8291001 -0.5386282 -0.1499096
vn 0.4540496 -0.8398137 -0.2975766
g Fortification_0
f 3/3/3 2/2/2 1/1/1
f 3/3/3 4/4/4 2/2/2
f 7/7/7 6/6/6 5/5/5
f 7/7/7 8/8/8 6/6/6
f 11/11/11 10/10/10 9/9/9
f 11/11/11 12/12/12 10/10/10
f 15/15/15 14/14/14 13/13/13
f 15/15/15 16/16/16 14/14/14
f 19/19/19 18/18/18 17/17/17
f 19/19/19 20/20/20 18/18/18
f 23/23/23 22/22/22 21/21/21
f 23/23/23 24/24/24 22/22/22
f 27/27/27 26/26/26 25/25/25
f 27/27/27 28/28/28 26/26/26
f 31/31/31 30/30/30 29/29/29
f 31/31/31 32/32/32 30/30/30
f 35/35/35 34/34/34 33/33/33
f 35/35/35 36/36/36 34/34/34
f 39/39/39 38/38/38 37/37/37
f 39/39/39 40/40/40 38/38/38
f 43/43/43 42/42/42 41/41/41
f 43/43/43 44/44/44 42/42/42
f 47/47/47 46/46/46 45/45/45
f 47/47/47 48/48/48 46/46/46
f 51/51/51 50/50/50 49/49/49
f 51/51/51 52/52/52 50/50/50
f 55/55/55 54/54/54 53/53/53
f 55/55/55 56/56/56 54/54/54
f 59/59/59 58/58/58 57/57/57
f 59/59/59 60/60/60 58/58/58
f 63/63/63 62/62/62 61/61/61
f 63/63/63 64/64/64 62/62/62
f 67/67/67 66/66/66 65/65/65
f 67/67/67 68/68/68 66/66/66
f 71/71/71 70/70/70 69/69/69
f 71/71/71 72/72/72 70/70/70
f 75/75/75 74/74/74 73/73/73
f 75/75/75 76/76/76 74/74/74
f 79/79/79 78/78/78 77/77/77
f 79/79/79 80/80/80 78/78/78
f 83/83/83 82/82/82 81/81/81
f 83/83/83 84/84/84 82/82/82
f 87/87/87 86/86/86 85/85/85
f 87/87/87 88/88/88 86/86/86
f 91/91/91 90/90/90 89/89/89
f 91/91/91 92/92/92 90/90/90
f 95/95/95 94/94/94 93/93/93
f 95/95/95 96/96/96 94/94/94
f 99/99/99 98/98/98 97/97/97
f 98/98/98 100/100/100 97/97/97
f 101/101/101 99/99/99 97/97/97
f 100/100/100 102/102/102 97/97/97
f 103/103/103 101/101/101 97/97/97
f 102/102/102 104/104/104 97/97/97
f 105/105/105 103/103/103 97/97/97
f 104/104/104 106/106/106 97/97/97
f 107/107/107 105/105/105 97/97/97
f 106/106/106 108/108/108 97/97/97
f 109/109/109 107/107/107 97/97/97
f 108/108/108 109/109/109 97/97/97
f 112/112/112 111/111/111 110/110/110
f 113/113/113 112/112/112 110/110/110
f 111/111/111 114/114/114 110/110/110
f 115/115/115 113/113/113 110/110/110
f 114/114/114 116/116/116 110/110/110
f 117/117/117 115/115/115 110/110/110
f 116/116/116 118/118/118 110/110/110
f 119/119/119 117/117/117 110/110/110
f 118/118/118 120/120/120 110/110/110
f 121/121/121 119/119/119 110/110/110
f 120/120/120 122/122/122 110/110/110
f 122/122/122 121/121/121 110/110/110
f 125/125/125 124/124/124 123/123/123
f 126/126/126 125/125/125 123/123/123
f 124/124/124 127/127/127 123/123/123
f 128/128/128 126/126/126 123/123/123
f 127/127/127 129/129/129 123/123/123
f 130/130/130 128/128/128 123/123/123
f 129/129/129 131/131/131 123/123/123
f 132/132/132 130/130/130 123/123/123
f 131/131/131 133/133/133 123/123/123
f 134/134/134 132/132/132 123/123/123
f 133/133/133 135/135/135 123/123/123
f 135/135/135 134/134/134 123/123/123
f 138/138/138 137/137/137 136/136/136
f 137/137/137 139/139/139 136/136/136
f 140/140/140 138/138/138 136/136/136
f 139/139/139 141/141/141 136/136/136
f 142/142/142 140/140/140 136/136/136
f 141/141/141 143/143/143 136/136/136
f 144/144/144 142/142/142 136/136/136
f 143/143/143 145/145/145 136/136/136
f 146/146/146 144/144/144 136/136/136
f 145/145/145 147/147/147 136/136/136
f 148/148/148 146/146/146 136/136/136
f 147/147/147 148/148/148 136/136/136
