g Fortification2
v -13.94499 8.428155 -0.3924536
v -8.460019 13.02004 -0.3924463
v -7.647427 12.22408 5.834351
v -12.61041 7.613751 5.732212
v 13.12629 5.04282 2.555801
v 15.06427 -0.01021922 3.11715
v 14.20728 -0.01021922 5.731218
v 12.60979 7.613751 5.732212
v 13.35534 6.216311 0.3930139
v 13.89364 3.848363 1.389877
v 13.94436 8.428155 -0.3924561
v 16.21515 -0.01021922 -0.3933752
v 8.459404 13.02004 -0.3924475
v 13.94436 8.428155 -0.3924561
v 12.60979 7.613751 5.732212
v 7.646804 11.79259 5.732222
v -0.0003125 14.32365 -0.3933569
v 8.459404 13.02004 -0.3924475
v 7.646804 11.79259 5.732222
v -0.0003125 13.22001 5.833364
v -13.4457 4.792579 1.721716
v -13.94499 8.428155 -0.3924536
v -12.61041 7.613751 5.732212
v -13.6936 3.418048 2.501697
v -14.52853 2.933069 0.4464245
v -14.20793 -0.01021968 5.731218
v -16.21579 -0.01021966 -0.393374
v 11.5802 -6.396311 5.732212
v 14.20728 -0.01021922 5.731218
v 15.06427 -0.01021922 3.11715
v 13.82516 -2.839128 2.766698
v -12.80643 -7.210715 -0.3924536
v -11.58082 -6.396311 5.732212
v -7.058188 -10.89336 5.732222
v -7.807759 -12.12081 -0.3924463
v -16.21579 -0.01021966 -0.393374
v -14.20793 -0.01021968 5.731218
v -11.58082 -6.396311 5.732212
v -12.80643 -7.210715 -0.3924536
v -7.647427 12.22408 5.834351
v -5.49772 5.392003 2.753638
v -7.749179 5.091205 5.758597
v -12.61041 7.613751 5.732212
v -9.301025 -0.01021954 5.757933
v -14.20793 -0.01021968 5.731218
v -7.749179 -5.111643 5.758597
v -11.58082 -6.396311 5.732212
v -5.117231 -7.743382 5.758605
v -7.058188 -10.89336 5.732222
v 7.646804 11.79259 5.732222
v -0.0003125 9.563336 5.757944
v -0.0003125 13.22001 5.833364
v 5.116599 7.722944 5.758605
v 12.60979 7.613751 5.732212
v 7.748542 5.091205 5.758597
v 14.20728 -0.01021922 5.731218
v 9.300395 -0.01021924 5.757933
v 11.5802 -6.396311 5.732212
v 7.748542 -5.111643 5.758597
v -13.94499 8.428155 -0.3924536
v -8.17082 5.373597 -0.6056579
v -5.397739 8.146497 -0.605653
v -8.460019 13.02004 -0.3924463
v -0.0003125 10.09761 -0.6062341
v -0.0003125 14.32365 -0.3933569
v 5.397119 8.146497 -0.6056543
v 8.459404 13.02004 -0.3924475
v 8.17019 5.373597 -0.6056604
v 13.94436 8.428155 -0.3924561
v 10.12121 -0.01021923 -0.6062439
v 16.21515 -0.01021922 -0.3933752
v -7.807759 -12.12081 -0.3924463
v -5.397739 -8.166935 -0.605653
v -8.17082 -5.394035 -0.6056579
v -12.80643 -7.210715 -0.3924536
v -10.12184 -0.01021952 -0.6062439
v -16.21579 -0.01021966 -0.393374
v -8.460019 13.02004 -0.3924463
v -4.173911 13.29784 3.957659
v -7.647427 12.22408 5.834351
v -0.0003125 14.32365 -0.3933569
v -0.0003125 13.22001 5.833364
v 15.06427 -0.01021922 3.11715
v 13.36605 -1.420357 1.960773
v 12.39085 -3.545307 1.697529
v 13.82516 -2.839128 2.766698
v 13.12629 5.04282 2.555801
v 12.32496 2.196735 1.848331
v 13.36605 -1.420357 1.960773
v 15.06427 -0.01021922 3.11715
v 13.89364 3.848363 1.389877
v 12.90136 1.299511 0.9725415
v 12.32496 2.196735 1.848331
v 13.12629 5.04282 2.555801
v 13.35534 6.216311 0.3930139
v 12.49701 3.078209 0.2237415
v 12.90136 1.299511 0.9725415
v 13.89364 3.848363 1.389877
v 16.21515 -0.01021922 -0.3933752
v 14.69977 -1.598883 -0.3669592
v 12.49701 3.078209 0.2237415
v 13.35534 6.216311 0.3930139
v -4.173911 13.29784 3.957659
v -4.173911 10.84753 3.709821
v -5.49772 5.392003 2.753638
v -7.647427 12.22408 5.834351
v -0.0003125 13.22001 5.833364
v -0.0003125 9.563336 5.757944
v -4.173911 10.84753 3.709821
v -4.173911 13.29784 3.957659
v -13.4457 4.792579 1.721716
v -11.13895 4.010209 1.07384
v -8.17082 5.373597 -0.6056579
v -13.94499 8.428155 -0.3924536
v -14.52853 2.933069 0.4464245
v -12.25802 2.11035 -0.2817993
v -11.13895 4.010209 1.07384
v -13.4457 4.792579 1.721716
v -13.6936 3.418048 2.501697
v -11.4231 2.59533 1.773474
v -12.25802 2.11035 -0.2817993
v -14.52853 2.933069 0.4464245
v -16.21579 -0.01021966 -0.393374
v -10.12184 -0.01021954 -0.6062439
v -11.4231 2.59533 1.773474
v -13.6936 3.418048 2.501697
vt 0.01237059 0.8615077
vt 0.6327724 0.8615077
vt 0.5966811 0.1464657
vt 0.03523743 0.1464657
vt 0.6126727 0.5153444
vt 0.1302649 0.4516563
vt 0.1531179 0.1464657
vt 0.8847123 0.1464657
vt 0.704257 0.7697764
vt 0.4856259 0.6533631
vt 0.9097486 0.8615077
vt 0.0995748 0.8615077
vt 0.01477838 0.8615077
vt 0.5820446 0.8615077
vt 0.5440178 0.1464657
vt 0.0306592 0.1464657
vt 0.1089454 0.8615077
vt 0.9524875 0.8615077
vt 0.9221268 0.1464657
vt 0.1600547 0.1464657
vt 0.5955672 0.6146334
vt 0.9531981 0.8615077
vt 0.9149623 0.1464657
vt 0.4602101 0.5235536
vt 0.3950092 0.7634992
vt 0.1322221 0.1464657
vt 0.08638275 0.8615077
vt 0.9559929 0.1464657
vt 0.07981646 0.1464657
vt 0.05570779 0.4516563
vt 0.3798664 0.491066
vt 0.607774 0.8615077
vt 0.5808144 0.1464657
vt 0.1522679 0.1464657
vt 0.1342279 0.8615077
vt 0.9890069 0.8615077
vt 0.9373006 0.1464657
vt 0.1049963 0.1464657
vt 0.06731206 0.8615077
vt 0.929271 0.0357635
vt 0.929271 0.0357635
vt 0.9182273 0.03576314
vt 0.9182273 0.03576314
vt 0.9036628 0.04260564
vt 0.9036628 0.04260564
vt 0.8968204 0.05717003
vt 0.8968204 0.05717003
vt 0.8968207 0.0682137
vt 0.8968207 0.0682137
vt 0.9507422 0.05723464
vt 0.943868 0.04263771
vt 0.943868 0.04263771
vt 0.9507422 0.05723464
vt 0.9507425 0.06827831
vt 0.9507425 0.06827831
vt 0.9439 0.08284271
vt 0.9439 0.08284271
vt 0.9293357 0.08968508
vt 0.9293357 0.08968508
vt 0.9170063 0.03037393
vt 0.9170063 0.03037393
vt 0.9302424 0.03037429
vt 0.9302424 0.03037429
vt 0.9477804 0.03859901
vt 0.9477804 0.03859901
vt 0.9560052 0.05613708
vt 0.9560052 0.05613708
vt 0.9560055 0.06937313
vt 0.9560055 0.06937313
vt 0.9478124 0.08687866
vt 0.9478124 0.08687866
vt 0.891308 0.06930864
vt 0.891308 0.06930864
vt 0.8913077 0.05607259
vt 0.8913077 0.05607259
vt 0.8995007 0.03856707
vt 0.8995007 0.03856707
vt 0.9753335 0.8615077
vt 0.5511358 0.3825204
vt 0.9462807 0.1464657
vt 0.05972219 0.8615077
vt 0.1191161 0.1464657
vt 0.6674912 0.3226749
vt 0.6674912 0.3442373
vt 0.6890536 0.3442373
vt 0.6890536 0.3226749
vt 0.6674912 0.3226749
vt 0.6674912 0.3442373
vt 0.6890536 0.3442373
vt 0.6890536 0.3226749
vt 0.6674912 0.3226749
vt 0.6674912 0.3442373
vt 0.6890536 0.3442373
vt 0.6890536 0.3226749
vt 0.6674912 0.3226749
vt 0.6674912 0.3442373
vt 0.6890536 0.3442373
vt 0.6890536 0.3226749
vt 0.6674912 0.3226749
vt 0.6674912 0.3442373
vt 0.6890536 0.3442373
vt 0.6890536 0.3226749
vt 0.6626564 0.3225314
vt 0.6626564 0.3584548
vt 0.6985798 0.3584548
vt 0.6985798 0.3225314
vt 0.6626564 0.3225314
vt 0.6626564 0.3584548
vt 0.6985798 0.3584548
vt 0.6985798 0.3225314
vt 0.7238943 0.6220985
vt 0.7238943 0.6662838
vt 0.7680796 0.6662838
vt 0.7680796 0.6220985
vt 0.7238943 0.6220985
vt 0.7238943 0.6662838
vt 0.7680796 0.6662838
vt 0.7680796 0.6220985
vt 0.7238943 0.6220985
vt 0.7238943 0.6662838
vt 0.7680796 0.6662838
vt 0.7680796 0.6220985
vt 0.7238943 0.6220985
vt 0.7238943 0.6662838
vt 0.7680796 0.6662838
vt 0.7680796 0.6220985
vn -0.7234902 0.5197626 -0.4543224
vn -0.4408726 0.6650822 -0.6027412
vn -0.2671208 0.637027 0.723079
vn -0.4685453 0.4589441 0.7548746
vn 0.988847 0.1187159 0.0899341
vn 0.9908477 0.01311325 -0.1343461
vn 0.5264828 -0.00888367 0.8501393
vn 0.5487443 0.4390146 0.7114393
vn 0.8797494 -0.001925105 0.475434
vn 0.9835644 -0.1768716 0.03629869
vn 0.5391232 0.4528886 -0.7100973
vn 0.1514903 -0.03531946 -0.9878275
vn 0.3741331 0.8464341 -0.3789112
vn 0.5391232 0.4528886 -0.7100973
vn 0.5487443 0.4390146 0.7114393
vn 0.3239931 0.7572033 0.5671609
vn 0.07798867 0.8009108 -0.5936832
vn 0.3741331 0.8464341 -0.3789112
vn 0.3239931 0.7572033 0.5671609
vn 0.02646708 0.7744134 0.632126
vn -0.9033955 -0.01207185 -0.4286385
vn -0.7234902 0.5197626 -0.4543224
vn -0.4685453 0.4589441 0.7548746
vn -0.9151989 0.3803062 -0.1333349
vn -0.5528057 -0.3065047 -0.774894
vn -0.6652812 -0.1749215 0.7258123
vn -0.8890235 -0.1399761 -0.4359401
vn 0.1847025 -0.07897407 0.9796163
vn 0.5264828 -0.00888367 0.8501393
vn 0.9908477 0.01311325 -0.1343461
vn 0.9228074 -0.3799727 0.06361809
vn -0.7681069 -0.5171258 -0.3776146
vn -0.6738661 -0.4557085 0.581579
vn -0.6034132 -0.6107211 0.5127497
vn -0.6742887 -0.6824626 -0.2820988
vn -0.8890235 -0.1399761 -0.4359401
vn -0.6652812 -0.1749215 0.7258123
vn -0.6738661 -0.4557085 0.581579
vn -0.7681069 -0.5171258 -0.3776146
vn -0.2671208 0.637027 0.723079
vn 0.4180307 -0.1120386 0.9014975
vn 0.1913391 -0.007162466 0.9814979
vn -0.4685453 0.4589441 0.7548746
vn -0.005428806 -0.0002368939 0.9999852
vn -0.6652812 -0.1749215 0.7258123
vn -0.005496101 -0.003463814 0.9999789
vn -0.6738661 -0.4557085 0.581579
vn -0.005162551 -0.005178946 0.9999733
vn -0.6034132 -0.6107211 0.5127497
vn 0.3239931 0.7572033 0.5671609
vn -0.2183622 -0.02869709 0.9754457
vn 0.02646708 0.7744134 0.632126
vn 0.004700749 -0.002282093 0.9999864
vn 0.5487443 0.4390146 0.7114393
vn 0.004441437 0.002418936 0.9999872
vn 0.5264828 -0.00888367 0.8501393
vn 0.005428782 -0.0002368957 0.9999852
vn 0.1847025 -0.07897407 0.9796163
vn 0.005788345 -0.001961189 0.9999814
vn -0.7234902 0.5197626 -0.4543224
vn -0.176131 -0.2332359 -0.9563362
vn -0.01703765 0.03528626 -0.9992319
vn -0.4408726 0.6650822 -0.6027412
vn 0 0.04332012 -0.9990613
vn 0.07798867 0.8009108 -0.5936832
vn 0.01703752 0.03528633 -0.9992319
vn 0.3741331 0.8464341 -0.3789112
vn 0.02913148 0.01771703 -0.9994186
vn 0.5391232 0.4528886 -0.7100973
vn 0.03323807 0.01026085 -0.9993948
vn 0.1514903 -0.03531946 -0.9878275
vn -0.6742887 -0.6824626 -0.2820988
vn -0.03306163 -0.03344529 -0.9988936
vn -0.03518751 -0.02394496 -0.9990938
vn -0.7681069 -0.5171258 -0.3776146
vn -0.03029219 0.3453953 -0.9379683
vn -0.8890235 -0.1399761 -0.4359401
vn -0.4408726 0.6650822 -0.6027412
vn -0.1132596 0.7416763 0.6611267
vn -0.2671208 0.637027 0.723079
vn 0.07798867 0.8009108 -0.5936832
vn 0.02646708 0.7744134 0.632126
vn 0.9908477 0.01311325 -0.1343461
vn 0.5682993 -0.03550723 -0.8220555
vn 0.6543103 -0.2021961 -0.728694
vn 0.9228074 -0.3799727 0.06361809
vn 0.988847 0.1187159 0.0899341
vn 0.7384092 -0.02144242 -0.6740119
vn 0.5682993 -0.03550723 -0.8220555
vn 0.9908477 0.01311325 -0.1343461
vn 0.9835644 -0.1768716 0.03629869
vn 0.929861 -0.366761 0.0290666
vn 0.7384092 -0.02144242 -0.6740119
vn 0.988847 0.1187159 0.0899341
vn 0.8797494 -0.001925105 0.475434
vn 0.428548 -0.1639457 0.8885203
vn 0.929861 -0.366761 0.0290666
vn 0.9835644 -0.1768716 0.03629869
vn 0.1514903 -0.03531946 -0.9878275
vn 0.09860454 -0.07949725 0.9919462
vn 0.428548 -0.1639457 0.8885203
vn 0.8797494 -0.001925105 0.475434
vn -0.1132596 0.7416763 0.6611267
vn 0.1633812 -0.1688491 0.9720064
vn 0.4180307 -0.1120386 0.9014975
vn -0.2671208 0.637027 0.723079
vn 0.02646708 0.7744134 0.632126
vn -0.2183622 -0.02869709 0.9754457
vn 0.1633812 -0.1688491 0.9720064
vn -0.1132596 0.7416763 0.6611267
vn -0.9033955 -0.01207185 -0.4286385
vn -0.2833512 -0.2751062 -0.9187104
vn -0.176131 -0.2332359 -0.9563362
vn -0.7234902 0.5197626 -0.4543224
vn -0.5528057 -0.3065047 -0.774894
vn -0.3904891 -0.3743101 -0.8410769
vn -0.2833512 -0.2751062 -0.9187104
vn -0.9033955 -0.01207185 -0.4286385
vn -0.9151989 0.3803062 -0.1333349
vn -0.0863803 0.5544882 -0.8276964
vn -0.3904891 -0.3743101 -0.8410769
vn -0.5528057 -0.3065047 -0.774894
vn -0.8890235 -0.1399761 -0.4359401
vn -0.03029219 0.3453953 -0.9379683
vn -0.0863803 0.5544882 -0.8276964
vn -0.9151989 0.3803062 -0.1333349
g Fortification2_0
f 3/3/3 2/2/2 1/1/1
f 4/4/4 3/3/3 1/1/1
f 7/7/7 6/6/6 5/5/5
f 8/8/8 7/7/7 5/5/5
f 9/9/9 8/8/8 5/5/5
f 5/5/5 10/10/10 9/9/9
f 9/9/9 11/11/11 8/8/8
f 9/9/9 12/12/12 11/11/11
f 15/15/15 14/14/14 13/13/13
f 16/16/16 15/15/15 13/13/13
f 19/19/19 18/18/18 17/17/17
f 20/20/20 19/19/19 17/17/17
f 23/23/23 22/22/22 21/21/21
f 23/23/23 21/21/21 24/24/24
f 21/21/21 25/25/25 24/24/24
f 26/26/26 23/23/23 24/24/24
f 26/26/26 24/24/24 27/27/27
f 30/30/30 29/29/29 28/28/28
f 31/31/31 30/30/30 28/28/28
f 34/34/34 33/33/33 32/32/32
f 35/35/35 34/34/34 32/32/32
f 38/38/38 37/37/37 36/36/36
f 39/39/39 38/38/38 36/36/36
f 42/42/42 41/41/41 40/40/40
f 43/43/43 42/42/42 40/40/40
f 44/44/44 42/42/42 43/43/43
f 45/45/45 44/44/44 43/43/43
f 46/46/46 44/44/44 45/45/45
f 47/47/47 46/46/46 45/45/45
f 48/48/48 46/46/46 47/47/47
f 49/49/49 48/48/48 47/47/47
f 52/52/52 51/51/51 50/50/50
f 51/51/51 53/53/53 50/50/50
f 50/50/50 53/53/53 54/54/54
f 53/53/53 55/55/55 54/54/54
f 54/54/54 55/55/55 56/56/56
f 55/55/55 57/57/57 56/56/56
f 56/56/56 57/57/57 58/58/58
f 57/57/57 59/59/59 58/58/58
f 62/62/62 61/61/61 60/60/60
f 63/63/63 62/62/62 60/60/60
f 64/64/64 62/62/62 63/63/63
f 65/65/65 64/64/64 63/63/63
f 66/66/66 64/64/64 65/65/65
f 67/67/67 66/66/66 65/65/65
f 68/68/68 66/66/66 67/67/67
f 69/69/69 68/68/68 67/67/67
f 70/70/70 68/68/68 69/69/69
f 71/71/71 70/70/70 69/69/69
f 74/74/74 73/73/73 72/72/72
f 75/75/75 74/74/74 72/72/72
f 76/76/76 74/74/74 75/75/75
f 77/77/77 76/76/76 75/75/75
f 80/80/80 79/79/79 78/78/78
f 79/79/79 81/81/81 78/78/78
f 79/79/79 82/82/82 81/81/81
f 85/85/85 84/84/84 83/83/83
f 86/86/86 85/85/85 83/83/83
f 89/89/89 88/88/88 87/87/87
f 90/90/90 89/89/89 87/87/87
f 93/93/93 92/92/92 91/91/91
f 94/94/94 93/93/93 91/91/91
f 97/97/97 96/96/96 95/95/95
f 98/98/98 97/97/97 95/95/95
f 101/101/101 100/100/100 99/99/99
f 102/102/102 101/101/101 99/99/99
f 105/105/105 104/104/104 103/103/103
f 106/106/106 105/105/105 103/103/103
f 109/109/109 108/108/108 107/107/107
f 110/110/110 109/109/109 107/107/107
f 113/113/113 112/112/112 111/111/111
f 114/114/114 113/113/113 111/111/111
f 117/117/117 116/116/116 115/115/115
f 118/118/118 117/117/117 115/115/115
f 121/121/121 120/120/120 119/119/119
f 122/122/122 121/121/121 119/119/119
f 125/125/125 124/124/124 123/123/123
f 126/126/126 125/125/125 123/123/123
