g fourCirclesGrass
v 14.33358 -1.233048 1.671783
v 12.39508 0.9112953 0.5758584
v 14.33358 -1.233048 0.6791263
v 12.39508 0.9112953 1.434266
v -11.08457 0.9112953 4.636784
v 12.83813 -1.233048 5.222413
v 11.10188 0.9112953 4.504702
v 9.974711 -1.233048 7.398623
v 8.62571 0.9112953 6.386597
v -9.235698 0.9112953 8.33451
v 9.631107 -1.233048 9.76573
v 8.328576 0.9112953 8.433571
v 4.135594 0.9112953 8.763726
v -1.31197 0.9112953 9.787211
v 8.447555 -1.233048 10.83473
v 7.305089 0.9112953 9.357995
v 6.347713 -1.233048 11.14018
v 5.489236 0.9112953 9.622135
v 4.782372 -1.233048 10.14752
v 2.453451 -1.233048 11.71286
v 2.121641 0.9112953 10.11737
v -0.3717845 -1.233048 11.7892
v -0.3215036 0.9112953 10.18338
v -1.517153 -1.233048 11.33107
v -2.967941 -1.233048 12.62915
v -2.56655 0.9112953 10.90973
v -6.785834 -1.233048 13.08728
v -5.868104 0.9112953 11.30591
v -10.6801 -1.233048 9.651175
v -12.81812 -1.233048 5.375152
v -14.33358 -1.233048 0.2591514
v -12.39508 0.9112953 0.2126817
v -13.00902 -1.233048 -5.582213
v -11.24965 0.9112953 -4.838686
v -9.038413 -1.233048 -11.04182
v 11.65063 0.9112953 -4.456927
v 13.47271 -1.233048 -5.140752
v 9.087924 0.9112953 -7.34787
v 10.50921 -1.233048 -8.483817
v -7.81604 0.9112953 -9.55992
v 1.728057 -1.233048 -13.25618
v 5.720354 0.9112953 -10.6164
v 6.614977 -1.233048 -12.26353
v 1.494351 0.9112953 -11.47481
vt 0.9893494 0.443128
vt 0.954023 0.4788993
vt 0.9893494 0.4770174
vt 0.954023 0.4474564
vt 0.09397995 0.3301505
vt 0.9382945 0.3219094
vt 0.9066539 0.3349885
vt 0.8405372 0.2476134
vt 0.8159537 0.2660561
vt 0.161703 0.1947054
vt 0.8288065 0.1668003
vt 0.8050699 0.1910768
vt 0.6514838 0.1789835
vt 0.4519435 0.1414939
vt 0.7883999 0.1303046
vt 0.7675803 0.1572158
vt 0.7167113 0.1198766
vt 0.7010669 0.1475406
vt 0.6632704 0.153766
vt 0.583761 0.1003251
vt 0.5777142 0.1294006
vt 0.4873073 0.09771883
vt 0.4882236 0.1269825
vt 0.4482043 0.1133594
vt 0.3986743 0.06904298
vt 0.4059891 0.1003767
vt 0.2683313 0.05340239
vt 0.2850555 0.08586523
vt 0.135381 0.1707112
vt 0.06238863 0.3166948
vt 0.01065072 0.4913553
vt 0.04597703 0.4922022
vt 0.05587149 0.6907798
vt 0.0879333 0.6772301
vt 0.1914281 0.877171
vt 0.9267542 0.6632466
vt 0.9599588 0.6757083
vt 0.8328842 0.7691399
vt 0.858785 0.7898408
vt 0.213704 0.8501657
vt 0.558996 0.9527696
vt 0.7095326 0.8888639
vt 0.7258357 0.9188802
vt 0.554737 0.9203067
vn 0.7091859 0.6665527 0.2297018
vn 0.01753912 0.9998436 -0.002248939
vn 0.7408659 0.6653168 -0.09203893
vn 0.01322162 0.9999028 0.004408502
vn -0.02353581 0.9996814 0.009129617
vn 0.6197937 0.6493418 0.440694
vn 0.01698214 0.9997626 0.01364993
vn 0.6487777 0.6178223 0.4442782
vn 0.01180272 0.9998928 0.008669029
vn -0.02168534 0.9996247 0.01674071
vn 0.6890553 0.6352449 0.3488075
vn 0.01204846 0.9999157 0.004842799
vn 0.002950953 0.9999248 0.01190221
vn 0.001794277 0.999971 0.007403263
vn 0.3158813 0.6465223 0.6944264
vn 0.004186738 0.9999341 0.01069313
vn -0.06581788 0.5588577 0.8266475
vn -0.003304644 0.9999249 0.01180004
vn 0.06202129 0.5543185 0.8299905
vn 0.2323193 0.6034903 0.762776
vn 0.00526595 0.9998587 0.0159651
vn -0.06863419 0.5990342 0.7977765
vn -0.001169981 0.9999375 0.01111692
vn 0.297178 0.5390001 0.7881397
vn 0.2020325 0.5893725 0.782191
vn 0.006139053 0.9998686 0.01500507
vn -0.2888188 0.6818821 0.6720271
vn -0.01000469 0.9995542 0.02812843
vn -0.579331 0.6727762 0.4601605
vn -0.699955 0.6599047 0.2731092
vn -0.7416282 0.6707011 0.01214588
vn -0.03279493 0.9994619 0.0005988948
vn -0.6771457 0.6648917 -0.315266
vn -0.03179274 0.9993823 -0.01497658
vn -0.3605032 0.660592 -0.6585254
vn 0.02834235 0.999525 -0.01210951
vn 0.6864579 0.6719394 -0.2779799
vn 0.0169666 0.9997218 -0.01637876
vn 0.5509744 0.6454279 -0.5290085
vn -0.02519557 0.9984219 -0.05018824
vn -0.05217212 0.6347616 -0.7709447
vn 0.01474966 0.9995205 -0.02722351
vn 0.3606118 0.6581253 -0.6609312
vn -0.003841364 0.9990063 -0.04440459
g fourCirclesGrass_0
f 3/3/3 2/2/2 1/1/1
f 2/2/2 4/4/4 1/1/1
f 5/5/5 4/4/4 2/2/2
f 1/1/1 4/4/4 6/6/6
f 4/4/4 7/7/7 6/6/6
f 5/5/5 7/7/7 4/4/4
f 6/6/6 7/7/7 8/8/8
f 7/7/7 9/9/9 8/8/8
f 5/5/5 9/9/9 7/7/7
f 5/5/5 10/10/10 9/9/9
f 8/8/8 9/9/9 11/11/11
f 9/9/9 12/12/12 11/11/11
f 10/10/10 12/12/12 9/9/9
f 10/10/10 13/13/13 12/12/12
f 10/10/10 14/14/14 13/13/13
f 11/11/11 12/12/12 15/15/15
f 12/12/12 16/16/16 15/15/15
f 16/16/16 12/12/12 13/13/13
f 15/15/15 16/16/16 17/17/17
f 16/16/16 18/18/18 17/17/17
f 13/13/13 18/18/18 16/16/16
f 17/17/17 18/18/18 19/19/19
f 18/18/18 13/13/13 19/19/19
f 19/19/19 13/13/13 20/20/20
f 13/13/13 21/21/21 20/20/20
f 21/21/21 13/13/13 14/14/14
f 20/20/20 21/21/21 22/22/22
f 21/21/21 23/23/23 22/22/22
f 14/14/14 23/23/23 21/21/21
f 22/22/22 23/23/23 24/24/24
f 23/23/23 14/14/14 24/24/24
f 24/24/24 14/14/14 25/25/25
f 14/14/14 26/26/26 25/25/25
f 25/25/25 26/26/26 27/27/27
f 28/28/28 26/26/26 14/14/14
f 26/26/26 28/28/28 27/27/27
f 27/27/27 28/28/28 29/29/29
f 10/10/10 28/28/28 14/14/14
f 28/28/28 10/10/10 29/29/29
f 29/29/29 10/10/10 30/30/30
f 10/10/10 5/5/5 30/30/30
f 30/30/30 5/5/5 31/31/31
f 5/5/5 32/32/32 31/31/31
f 31/31/31 32/32/32 33/33/33
f 32/32/32 5/5/5 2/2/2
f 32/32/32 34/34/34 33/33/33
f 33/33/33 34/34/34 35/35/35
f 32/32/32 2/2/2 36/36/36
f 34/34/34 32/32/32 36/36/36
f 36/36/36 2/2/2 3/3/3
f 37/37/37 36/36/36 3/3/3
f 38/38/38 36/36/36 37/37/37
f 34/34/34 36/36/36 38/38/38
f 39/39/39 38/38/38 37/37/37
f 34/34/34 40/40/40 35/35/35
f 40/40/40 34/34/34 38/38/38
f 35/35/35 40/40/40 41/41/41
f 42/42/42 38/38/38 39/39/39
f 40/40/40 38/38/38 42/42/42
f 43/43/43 42/42/42 39/39/39
f 41/41/41 44/44/44 43/43/43
f 40/40/40 44/44/44 41/41/41
f 42/42/42 44/44/44 40/40/40
f 44/44/44 42/42/42 43/43/43
