g FuelCannisterRed
v 0.02993378 7.506423 -6.459693
v 2.224889 13.21051 -3.978405
v -0.6695599 7.760848 -4.275439
v 2.927187 12.95506 -6.17142
v 1.719734 6.676534 -7.794181
v 3.22402 13.91965 -3.919662
v 4.623765 12.12184 -7.511261
v 3.754391 5.588173 -7.769174
v 3.823819 13.70148 -5.792603
v 4.408042 14.27804 -3.868055
v 6.666584 11.02912 -7.486153
v 5.35674 4.657054 -6.39422
v 5.272779 12.98988 -6.936893
v 4.843822 14.11954 -5.228827
v 5.390814 14.28688 -3.836004
v 8.275358 10.09426 -6.105685
v 5.914733 4.238835 -4.19451
v 7.017446 12.05663 -6.91545
v 5.896552 13.60252 -6.060203
v 5.664971 14.18716 -4.692091
v 5.907598 15.25421 -3.783183
v 6.181755 15.15449 -4.63927
v 6.327263 13.8619 -5.215123
v 6.844048 14.82923 -5.162302
v 8.835589 9.674366 -3.897151
v 5.215239 4.49326 -2.010254
v 8.391419 11.25822 -5.736463
v 7.164128 12.92448 -6.044622
v 7.124718 13.43533 -5.205323
v 7.641502 14.40266 -5.152501
v 8.133291 9.929811 -1.704135
v 3.525439 5.323149 -0.6757675
v 8.869885 10.89961 -3.850266
v 8.162376 12.3444 -5.188037
v 7.752736 13.07039 -4.66643
v 8.26952 14.03772 -4.613608
v 6.436714 10.76303 -0.3642947
v 1.490781 6.41151 -0.7007748
v 8.270087 11.11777 -1.977323
v 8.510002 12.08385 -3.817636
v 7.971432 12.90648 -3.804285
v 8.488217 13.87381 -3.751463
v 4.393895 11.85576 -0.3894037
v -0.1115662 7.342629 -2.075728
v 6.821126 11.82938 -0.833034
v 8.074224 12.24236 -2.456864
v 7.697275 13.0062 -2.948198
v 8.21406 13.97352 -2.895376
v 2.78512 12.79061 -1.769871
v -0.6695599 7.760848 -4.275439
v 2.224889 13.21051 -3.978405
v 5.076459 12.76262 -0.8544781
v 7.021492 12.75937 -1.625489
v 7.034983 13.33146 -2.425164
v 7.551767 14.29879 -2.372343
v 3.702487 13.56104 -2.033465
v 3.22402 13.91965 -3.919662
v 5.753917 13.43741 -1.641069
v 6.237529 13.75803 -2.434966
v 6.754314 14.72535 -2.382144
v 4.755669 14.01749 -2.497654
v 4.408042 14.27804 -3.868055
v 5.609512 14.12297 -2.973859
v 6.126296 15.09029 -2.921038
v 5.390814 14.28688 -3.836004
v 5.907598 15.25421 -3.783183
v 5.35674 4.657054 -6.39422
v 2.622587 5.999842 -4.234974
v 5.914733 4.238835 -4.19451
v 3.754391 5.588173 -7.769174
v 5.215239 4.49326 -2.010254
v 1.719734 6.676534 -7.794181
v 3.525439 5.323149 -0.6757675
v 0.02993378 7.506423 -6.459693
v 1.490781 6.41151 -0.7007748
v -0.6695599 7.760848 -4.275439
v -0.1115662 7.342629 -2.075728
v 8.488217 13.87381 -3.751463
v 8.108863 14.07673 -3.756126
v 7.954463 14.19245 -4.364798
v 8.26952 14.03772 -4.613608
v 8.21406 13.97352 -2.895376
v 7.197907 14.56401 -3.767323
v 7.915308 14.14713 -3.151731
v 7.511085 14.4501 -4.745255
v 7.551767 14.29879 -2.372343
v 7.641502 14.40266 -5.152501
v 7.447732 14.37676 -2.78247
v 6.754314 14.72535 -2.382144
v 6.948084 14.75125 -4.752175
v 6.844048 14.82923 -5.162302
v 6.884732 14.67792 -2.78939
v 6.126296 15.09029 -2.921038
v 6.480507 14.98088 -4.382915
v 6.181755 15.15449 -4.63927
v 6.441353 14.93556 -3.169847
v 5.907598 15.25421 -3.783183
v 6.286952 15.05129 -3.77852
vt 0.8240897 0.01605032
vt 0.9216684 0.004821486
vt 0.8240896 0.004821493
vt 0.9216684 0.01605034
vt 0.8240897 0.0282206
vt 0.94075 0.004821478
vt 0.9216684 0.02822062
vt 0.8240897 0.04185505
vt 0.94075 0.01605032
vt 0.9606377 0.004821486
vt 0.9216684 0.04185505
vt 0.8240896 0.05665994
vt 0.94075 0.02822062
vt 0.9606377 0.01605032
vt 0.9765557 0.004821486
vt 0.9216682 0.05665997
vt 0.8240896 0.07241959
vt 0.94075 0.04185505
vt 0.9606375 0.02822062
vt 0.9765557 0.01605034
vt 0.9941951 0.004821486
vt 0.9941951 0.01605032
vt 0.9765557 0.02822062
vt 0.9941951 0.02822062
vt 0.9216684 0.07241958
vt 0.8240897 0.08759154
vt 0.9407499 0.05665997
vt 0.9606377 0.04185508
vt 0.9765557 0.04185505
vt 0.9941951 0.04185505
vt 0.9216682 0.08759154
vt 0.8240896 0.1025234
vt 0.94075 0.07241958
vt 0.9606377 0.05665993
vt 0.9765557 0.05665997
vt 0.9941951 0.05665997
vt 0.9216682 0.1025234
vt 0.8240896 0.116356
vt 0.94075 0.08759154
vt 0.9606377 0.07241959
vt 0.9765557 0.07241958
vt 0.9941951 0.07241958
vt 0.9216682 0.1163561
vt 0.8240896 0.1287708
vt 0.94075 0.1025234
vt 0.9606375 0.08759156
vt 0.9765557 0.08759154
vt 0.9941951 0.08759154
vt 0.9216682 0.1287708
vt 0.8240896 0.1402385
vt 0.9216684 0.1402384
vt 0.9407499 0.1163561
vt 0.9606375 0.1025234
vt 0.9765557 0.1025233
vt 0.9941951 0.1025234
vt 0.94075 0.1287708
vt 0.9407499 0.1402385
vt 0.9606377 0.1163561
vt 0.9765557 0.1163561
vt 0.9941949 0.1163561
vt 0.9606375 0.1287708
vt 0.9606377 0.1402384
vt 0.9765557 0.1287708
vt 0.9941951 0.1287708
vt 0.9765557 0.1402384
vt 0.9941951 0.1402384
vt 0.631257 0.8826398
vt 0.6079552 0.8995696
vt 0.6367578 0.8995696
vt 0.6168557 0.8721768
vt 0.631257 0.9164995
vt 0.5990548 0.8721768
vt 0.6168557 0.9269626
vt 0.5846533 0.8826399
vt 0.5990548 0.9269626
vt 0.5791525 0.8995696
vt 0.5846533 0.9164995
vt 0.5801842 0.8658026
vt 0.5610852 0.8658012
vt 0.5523241 0.8927581
vt 0.5677742 0.9039835
vt 0.5677778 0.8276188
vt 0.5152224 0.8658012
vt 0.5523262 0.8388442
vt 0.5293945 0.90942
vt 0.5352966 0.8040206
vt 0.5352966 0.9275845
vt 0.5293952 0.8221837
vt 0.495149 0.8040206
vt 0.5010504 0.9094186
vt 0.4951483 0.9275817
vt 0.5010504 0.8221844
vt 0.4626685 0.8276181
vt 0.4781194 0.8927581
vt 0.4626685 0.9039835
vt 0.4781194 0.8388442
vt 0.4502621 0.8658012
vt 0.4693604 0.8658012
vn -0.7860425 0.1835407 -0.5902966
vn -0.8503177 0.526212 -0.007785141
vn -0.9680632 0.2497465 -0.02191494
vn -0.6633472 0.4582056 -0.5916233
vn -0.3463271 -0.03241089 -0.9375538
vn -0.4730602 0.8808535 0.01764174
vn -0.2116743 0.2363816 -0.9483236
vn 0.1831275 -0.3156221 -0.9310462
vn -0.3171227 0.8241346 -0.4692925
vn -0.2131341 0.9765742 0.02960775
vn 0.332178 -0.05453114 -0.941639
vn 0.6000867 -0.5579156 -0.5732591
vn 0.05958276 0.6391286 -0.7667884
vn -0.09169885 0.9324048 -0.3495894
vn -0.4389462 0.898304 0.01939498
vn 0.7604759 -0.3034135 -0.5741224
vn 0.7452866 -0.6667437 -0.0008555208
vn 0.5131677 0.3965009 -0.7612134
vn 0.201658 0.7883324 -0.5812625
vn -0.2871047 0.8430753 -0.4547471
vn -0.7302141 0.6832155 0.001957394
vn -0.5492296 0.6173865 -0.5631881
vn 0.0797034 0.6629298 -0.744427
vn -0.1120184 0.4026648 -0.9084674
vn 0.9096243 -0.4152011 0.01384689
vn 0.5632657 -0.6005378 0.5675262
vn 0.8703779 0.1889271 -0.4546965
vn 0.5548846 0.5993875 -0.5769209
vn 0.5213717 0.4266762 -0.7389985
vn 0.4144206 0.1210663 -0.901997
vn 0.7226537 -0.3471949 0.5976851
vn 0.1235501 -0.3845863 0.9147834
vn 0.9947711 0.09569368 0.03568317
vn 0.8330595 0.437741 -0.3382228
vn 0.8691976 0.2245554 -0.4405342
vn 0.8290057 -0.1198478 -0.5462472
vn 0.2709807 -0.1253707 0.9543855
vn -0.4059041 -0.101375 0.9082759
vn 0.8388334 0.1524127 0.5226173
vn 0.9299299 0.3651364 0.04365733
vn 0.9903226 0.1337717 0.03696277
vn 0.9733787 -0.2280561 0.0228974
vn -0.2728715 0.1655421 0.9477009
vn -0.8228633 0.1409186 0.5504888
vn 0.4621279 0.3374193 0.8201134
vn 0.8084944 0.4093058 0.4228539
vn 0.8384815 0.1890006 0.511104
vn 0.7923943 -0.1622273 0.5880421
vn -0.7011694 0.4144246 0.5801843
vn -0.9680632 0.2497465 -0.02191494
vn -0.8503177 0.526212 -0.007785141
vn 0.008543101 0.580047 0.8145383
vn 0.5151376 0.5533782 0.6545272
vn 0.4716732 0.3691465 0.8007841
vn 0.3551831 0.05249445 0.9333217
vn -0.3486668 0.7876202 0.5080214
vn -0.4730602 0.8808535 0.01764174
vn 0.161911 0.7423231 0.6501855
vn 0.03000424 0.6054 0.7953556
vn -0.171257 0.3340932 0.926851
vn -0.1162638 0.9039693 0.4114877
vn -0.2131341 0.9765742 0.02960775
vn -0.3178211 0.8075197 0.4968918
vn -0.5858412 0.5750067 0.5711019
vn -0.4389462 0.898304 0.01939498
vn -0.7302141 0.6832155 0.001957394
vn 0.6000867 -0.5579156 -0.5732591
vn -0.4706652 -0.8809993 -0.04810748
vn 0.7452866 -0.6667437 -0.0008555208
vn 0.1831275 -0.3156221 -0.9310462
vn 0.5632657 -0.6005378 0.5675262
vn -0.3463271 -0.03241089 -0.9375538
vn 0.1235501 -0.3845863 0.9147834
vn -0.7860425 0.1835407 -0.5902966
vn -0.4059041 -0.101375 0.9082759
vn -0.9680632 0.2497465 -0.02191494
vn -0.8228633 0.1409186 0.5504888
vn 0.9733787 -0.2280561 0.0228974
vn 0.470665 0.8809994 0.04810782
vn 0.4706653 0.8809993 0.04810759
vn 0.8290057 -0.1198478 -0.5462472
vn 0.7923943 -0.1622273 0.5880421
vn 0.4706654 0.8809993 0.04810727
vn 0.4706656 0.8809991 0.04810768
vn 0.4706651 0.8809994 0.04810794
vn 0.3551831 0.05249445 0.9333217
vn 0.4144206 0.1210663 -0.901997
vn 0.470666 0.880999 0.04810712
vn -0.171257 0.3340932 0.926851
vn 0.4706651 0.8809994 0.04810762
vn -0.1120184 0.4026648 -0.9084674
vn 0.4706651 0.8809994 0.04810733
vn -0.5858412 0.5750067 0.5711019
vn 0.4706654 0.8809993 0.04810728
vn -0.5492296 0.6173865 -0.5631881
vn 0.4706647 0.8809996 0.04810746
vn -0.7302141 0.6832155 0.001957394
vn 0.4706652 0.8809993 0.04810741
g FuelCannisterRed_0
f 3/3/3 2/2/2 1/1/1
f 2/2/2 4/4/4 1/1/1
f 1/1/1 4/4/4 5/5/5
f 2/2/2 6/6/6 4/4/4
f 4/4/4 7/7/7 5/5/5
f 5/5/5 7/7/7 8/8/8
f 6/6/6 9/9/9 4/4/4
f 4/4/4 9/9/9 7/7/7
f 6/6/6 10/10/10 9/9/9
f 7/7/7 11/11/11 8/8/8
f 8/8/8 11/11/11 12/12/12
f 9/9/9 13/13/13 7/7/7
f 7/7/7 13/13/13 11/11/11
f 10/10/10 14/14/14 9/9/9
f 9/9/9 14/14/14 13/13/13
f 10/10/10 15/15/15 14/14/14
f 11/11/11 16/16/16 12/12/12
f 12/12/12 16/16/16 17/17/17
f 13/13/13 18/18/18 11/11/11
f 11/11/11 18/18/18 16/16/16
f 14/14/14 19/19/19 13/13/13
f 13/13/13 19/19/19 18/18/18
f 15/15/15 20/20/20 14/14/14
f 14/14/14 20/20/20 19/19/19
f 15/15/15 21/21/21 20/20/20
f 21/21/21 22/22/22 20/20/20
f 20/20/20 22/22/22 23/23/23
f 20/20/20 23/23/23 19/19/19
f 22/22/22 24/24/24 23/23/23
f 16/16/16 25/25/25 17/17/17
f 17/17/17 25/25/25 26/26/26
f 18/18/18 27/27/27 16/16/16
f 16/16/16 27/27/27 25/25/25
f 19/19/19 28/28/28 18/18/18
f 19/19/19 23/23/23 28/28/28
f 18/18/18 28/28/28 27/27/27
f 23/23/23 24/24/24 29/29/29
f 23/23/23 29/29/29 28/28/28
f 24/24/24 30/30/30 29/29/29
f 25/25/25 31/31/31 26/26/26
f 26/26/26 31/31/31 32/32/32
f 27/27/27 33/33/33 25/25/25
f 25/25/25 33/33/33 31/31/31
f 28/28/28 34/34/34 27/27/27
f 28/28/28 29/29/29 34/34/34
f 27/27/27 34/34/34 33/33/33
f 29/29/29 30/30/30 35/35/35
f 29/29/29 35/35/35 34/34/34
f 30/30/30 36/36/36 35/35/35
f 31/31/31 37/37/37 32/32/32
f 32/32/32 37/37/37 38/38/38
f 33/33/33 39/39/39 31/31/31
f 31/31/31 39/39/39 37/37/37
f 34/34/34 40/40/40 33/33/33
f 34/34/34 35/35/35 40/40/40
f 33/33/33 40/40/40 39/39/39
f 35/35/35 36/36/36 41/41/41
f 35/35/35 41/41/41 40/40/40
f 36/36/36 42/42/42 41/41/41
f 37/37/37 43/43/43 38/38/38
f 38/38/38 43/43/43 44/44/44
f 39/39/39 45/45/45 37/37/37
f 37/37/37 45/45/45 43/43/43
f 40/40/40 46/46/46 39/39/39
f 40/40/40 41/41/41 46/46/46
f 39/39/39 46/46/46 45/45/45
f 41/41/41 42/42/42 47/47/47
f 41/41/41 47/47/47 46/46/46
f 42/42/42 48/48/48 47/47/47
f 43/43/43 49/49/49 44/44/44
f 44/44/44 49/49/49 50/50/50
f 49/49/49 51/51/51 50/50/50
f 45/45/45 52/52/52 43/43/43
f 43/43/43 52/52/52 49/49/49
f 46/46/46 53/53/53 45/45/45
f 46/46/46 47/47/47 53/53/53
f 45/45/45 53/53/53 52/52/52
f 47/47/47 48/48/48 54/54/54
f 47/47/47 54/54/54 53/53/53
f 48/48/48 55/55/55 54/54/54
f 49/49/49 56/56/56 51/51/51
f 52/52/52 56/56/56 49/49/49
f 56/56/56 57/57/57 51/51/51
f 53/53/53 58/58/58 52/52/52
f 53/53/53 54/54/54 58/58/58
f 52/52/52 58/58/58 56/56/56
f 54/54/54 55/55/55 59/59/59
f 54/54/54 59/59/59 58/58/58
f 55/55/55 60/60/60 59/59/59
f 56/56/56 61/61/61 57/57/57
f 58/58/58 61/61/61 56/56/56
f 58/58/58 59/59/59 61/61/61
f 61/61/61 62/62/62 57/57/57
f 59/59/59 60/60/60 63/63/63
f 59/59/59 63/63/63 61/61/61
f 61/61/61 63/63/63 62/62/62
f 60/60/60 64/64/64 63/63/63
f 63/63/63 65/65/65 62/62/62
f 63/63/63 64/64/64 65/65/65
f 64/64/64 66/66/66 65/65/65
f 69/69/69 68/68/68 67/67/67
f 67/67/67 68/68/68 70/70/70
f 71/71/71 68/68/68 69/69/69
f 70/70/70 68/68/68 72/72/72
f 73/73/73 68/68/68 71/71/71
f 72/72/72 68/68/68 74/74/74
f 75/75/75 68/68/68 73/73/73
f 74/74/74 68/68/68 76/76/76
f 77/77/77 68/68/68 75/75/75
f 76/76/76 68/68/68 77/77/77
f 80/80/80 79/79/79 78/78/78
f 81/81/81 80/80/80 78/78/78
f 78/78/78 79/79/79 82/82/82
f 80/80/80 83/83/83 79/79/79
f 79/79/79 83/83/83 84/84/84
f 79/79/79 84/84/84 82/82/82
f 85/85/85 83/83/83 80/80/80
f 85/85/85 80/80/80 81/81/81
f 82/82/82 84/84/84 86/86/86
f 87/87/87 85/85/85 81/81/81
f 84/84/84 88/88/88 86/86/86
f 84/84/84 83/83/83 88/88/88
f 86/86/86 88/88/88 89/89/89
f 90/90/90 85/85/85 87/87/87
f 90/90/90 83/83/83 85/85/85
f 91/91/91 90/90/90 87/87/87
f 88/88/88 92/92/92 89/89/89
f 88/88/88 83/83/83 92/92/92
f 89/89/89 92/92/92 93/93/93
f 94/94/94 90/90/90 91/91/91
f 94/94/94 83/83/83 90/90/90
f 95/95/95 94/94/94 91/91/91
f 92/92/92 96/96/96 93/93/93
f 92/92/92 83/83/83 96/96/96
f 93/93/93 96/96/96 97/97/97
f 98/98/98 94/94/94 95/95/95
f 98/98/98 83/83/83 94/94/94
f 97/97/97 98/98/98 95/95/95
f 96/96/96 98/98/98 97/97/97
f 96/96/96 83/83/83 98/98/98
