g Fuselarge
v -0.03174791 0.784232 17.26758
v -1.692329 -0.8763515 17.2329
v -2.289409 0.784232 17.24971
v -4.165584 0.784232 15.39473
v -3.867349 -1.150242 14.91133
v -5.830091 0.784232 11.55351
v -5.407606 -1.512723 11.2841
v -6.060219 0.784232 4.696182
v -0.03174791 -1.473427 17.24971
v 1.628835 -0.8763515 17.2329
v 2.225913 0.784232 17.24971
v 4.102087 0.784232 15.39473
v -0.03174791 -3.349603 15.39473
v -1.966226 -3.051374 14.91133
v 3.803855 -1.150242 14.91133
v 5.766598 0.784232 11.55351
v 1.90273 -3.051374 14.91133
v 5.344109 -1.512723 11.2841
v 5.996718 0.784232 4.696182
v -3.417716 -2.601739 13.77355
v -0.03174791 -5.014111 11.55351
v 3.354223 -2.601739 13.77355
v -2.328705 -4.591622 11.2841
v -0.03174791 -5.244228 4.696182
v 2.265208 -4.591622 11.2841
v -4.246668 -3.430687 10.98046
v 4.183175 -3.430687 10.98046
v 5.56818 -1.612344 4.645629
v 2.364832 -4.815699 4.645629
v -5.631673 -1.612344 4.645629
v -2.428328 -4.815699 4.645629
v 3.883014 -0.9002814 -2.823523
v 4.24115 0.8832676 -3.090499
v 4.35817 -3.605688 4.629745
v 3.079459 -2.452865 -2.327466
v 1.70936 0.1777224 -8.024098
v 1.88323 1.277347 -8.338908
v 1.614914 -3.201057 -2.928492
v 1.610653 -0.8534901 -6.998983
v 0.6315182 0.564223 -9.483024
v 0.6825442 1.402523 -9.790263
v -0.03174791 1.421111 -10.11487
v 0.8215633 -0.8182849 -8.078633
v -0.03174791 -3.481174 -3.291752
v -0.03174791 0.5321923 -9.793228
v -1.67841 -3.201057 -2.928492
v -0.03174791 -0.9213141 -8.439072
v -0.8850589 -0.8182849 -8.078633
v -0.6950135 0.564223 -9.483024
v -0.7460408 1.402523 -9.790263
v -1.946725 1.277347 -8.338908
v -1.772855 0.1777224 -8.024098
v -4.304651 0.8832676 -3.090499
v -1.674149 -0.8534901 -6.998983
v -3.946506 -0.9002814 -2.823523
v -3.142957 -2.452865 -2.327466
v -4.421664 -3.605688 4.629745
v -0.03174791 0.784232 17.26758
v 1.628835 2.444814 17.2329
v 2.225913 0.784232 17.24971
v 4.102087 0.784232 15.39473
v 3.803855 2.718711 14.91133
v 5.766598 0.784232 11.55351
v 5.344109 3.081191 11.2841
v 5.996718 0.784232 4.696182
v -0.03174791 3.041893 17.24971
v -1.692329 2.444814 17.2329
v -2.289409 0.784232 17.24971
v -4.165584 0.784232 15.39473
v -0.03174791 4.918067 15.39473
v 1.90273 4.619834 14.91133
v -3.867349 2.718711 14.91133
v -5.830091 0.784232 11.55351
v -1.966226 4.619834 14.91133
v -5.407606 3.081191 11.2841
v -6.060219 0.784232 4.696182
v 3.354223 4.170204 13.77355
v -0.03174791 6.582582 11.55351
v -3.417716 4.170204 13.77355
v 2.265208 6.160089 11.2841
v -0.03174791 6.812702 4.696182
v -2.328705 6.160089 11.2841
v 4.183175 4.999154 10.98046
v -4.246668 4.999154 10.98046
v -5.631673 3.180812 4.645629
v -2.428328 6.38416 4.645629
v 5.56818 3.180812 4.645629
v 2.364832 6.38416 4.645629
v -3.946506 2.674595 -2.823523
v -4.304651 0.8832676 -3.090499
v -4.421664 5.17415 4.629745
v -3.142957 4.196496 -2.327466
v -1.772855 2.403712 -8.024098
v -1.946725 1.277347 -8.338908
v -1.67841 5.035576 -2.928492
v -1.674149 3.309888 -6.998983
v -0.6950135 2.245561 -9.483024
v -0.7460408 1.402523 -9.790263
v -0.03174791 1.421111 -10.11487
v -0.8850589 3.470599 -8.078633
v -0.03174791 5.367532 -3.291752
v -0.03174791 3.631996 -8.439072
v -0.03174791 2.31003 -9.793228
v 0.6315182 2.245561 -9.483024
v 0.6825442 1.402523 -9.790263
v 1.88323 1.277347 -8.338908
v 1.614914 5.035576 -2.928492
v 0.8215633 3.470599 -8.078633
v 1.70936 2.403712 -8.024098
v 4.24115 0.8832676 -3.090499
v 1.610653 3.309888 -6.998983
v 3.883014 2.674595 -2.823523
v 3.079459 4.196496 -2.327466
v 4.35817 5.17415 4.629745
vt 0.7289841 0.2888889
vt 0.7729906 0.3301204
vt 0.7977804 0.3025587
vt 0.8519688 0.3473564
vt 0.8253626 0.3804019
vt 0.9082166 0.4502544
vt 0.8655046 0.4722449
vt 0.9263215 0.6232401
vt 0.7294762 0.3368124
vt 0.6858331 0.3310136
vt 0.6604825 0.3039687
vt 0.605445 0.3574991
vt 0.7300253 0.3902609
vt 0.7718645 0.3979222
vt 0.640406 0.3794838
vt 0.5486023 0.4502544
vt 0.6883519 0.3987803
vt 0.5962696 0.4750139
vt 0.5328079 0.6232401
vt 0.8075607 0.4195593
vt 0.7309303 0.478023
vt 0.6531094 0.4211437
vt 0.777073 0.4822594
vt 0.7294937 0.6232401
vt 0.6848857 0.4832069
vt 0.8219214 0.485519
vt 0.6401163 0.487386
vt 0.5852108 0.6232401
vt 0.6798189 0.6232401
vt 0.8738528 0.6232401
vt 0.7791948 0.6232401
vt 0.6202192 0.8047851
vt 0.5852201 0.8244029
vt 0.6326715 0.6232401
vt 0.6581087 0.7893841
vt 0.6809944 0.9251397
vt 0.6630577 0.942237
vt 0.6951214 0.7996742
vt 0.689527 0.8953316
vt 0.7094095 0.959364
vt 0.7035594 0.9773461
vt 0.7296995 0.9846561
vt 0.7101184 0.9194186
vt 0.7313652 0.8061861
vt 0.7294987 0.9649505
vt 0.7674669 0.7989346
vt 0.7294083 0.9260051
vt 0.7485575 0.9190232
vt 0.7494695 0.9589555
vt 0.755687 0.9768131
vt 0.796781 0.9428843
vt 0.7777944 0.9241468
vt 0.8755503 0.822946
vt 0.7686539 0.8945218
vt 0.8381984 0.8062167
vt 0.8042571 0.7878891
vt 0.8263599 0.6232401
vt 0.7298546 0.2888288
vt 0.7730979 0.3305113
vt 0.7981631 0.3030784
vt 0.8519688 0.3473564
vt 0.8248154 0.381055
vt 0.9082166 0.4502544
vt 0.8642823 0.4728525
vt 0.928129 0.6232401
vt 0.7298295 0.3368504
vt 0.6865658 0.330466
vt 0.66153 0.3030066
vt 0.605445 0.3574991
vt 0.7298002 0.3905331
vt 0.7713802 0.3985139
vt 0.6406054 0.3780208
vt 0.5486023 0.4502544
vt 0.6882101 0.3984699
vt 0.595226 0.4727075
vt 0.5312167 0.6232401
vt 0.8067952 0.4202666
vt 0.7297519 0.4786776
vt 0.6527715 0.4201831
vt 0.7758068 0.4832069
vt 0.7296743 0.6232401
vt 0.683691 0.483157
vt 0.8206143 0.4863948
vt 0.6388794 0.486298
vt 0.5840149 0.6232401
vt 0.6795675 0.6232401
vt 0.8753321 0.6232401
vt 0.7797797 0.6232401
vt 0.6205459 0.8053968
vt 0.5852201 0.8244029
vt 0.6319706 0.6232401
vt 0.6581087 0.7893841
vt 0.6809176 0.9242864
vt 0.6624143 0.9425789
vt 0.6926763 0.7998015
vt 0.6898297 0.8961493
vt 0.7098428 0.9591494
vt 0.7027935 0.9767727
vt 0.7294869 0.9842336
vt 0.7108341 0.919173
vt 0.7295822 0.8069137
vt 0.7295221 0.9256908
vt 0.7294986 0.9646846
vt 0.7491618 0.9591713
vt 0.7561905 0.976802
vt 0.7966077 0.9426521
vt 0.7664937 0.7998426
vt 0.7482129 0.9191949
vt 0.7781235 0.9243408
vt 0.8755503 0.822946
vt 0.7692422 0.8961916
vt 0.8386184 0.8055138
vt 0.8046089 0.7886155
vt 0.8273765 0.6232401
vn 0 0 1
vn -0.3889753 -0.3889754 0.8351026
vn -0.3775891 0 0.9259733
vn -0.7905179 0 0.612439
vn -0.7545823 -0.4147128 0.5085459
vn -0.9588245 0 0.283999
vn -0.9030101 -0.3703013 0.2178294
vn -0.9953388 -0.0001522348 -0.09643969
vn 0 -0.3775889 0.9259733
vn 0.3889753 -0.3889753 0.8351027
vn 0.3775892 0 0.9259733
vn 0.7905178 0 0.6124392
vn 0 -0.7905176 0.6124392
vn -0.4147137 -0.7545819 0.5085458
vn 0.7545823 -0.4147128 0.508546
vn 0.9588246 0 0.2839989
vn 0.4147133 -0.754582 0.5085458
vn 0.9030104 -0.3703008 0.2178291
vn 0.9953388 -0.0001522367 -0.09643981
vn -0.6436428 -0.6436419 0.414064
vn 0 -0.9588248 0.283998
vn 0.6436427 -0.6436419 0.4140641
vn -0.3703006 -0.9030105 0.2178288
vn 0 -0.9956481 -0.09319223
vn 0.3703002 -0.9030107 0.2178288
vn -0.6982399 -0.6982397 0.1578685
vn 0.6982399 -0.6982396 0.1578685
vn 0.9071073 -0.408509 -0.1013738
vn 0.4103826 -0.9067261 -0.09712913
vn -0.9071071 -0.4085096 -0.101374
vn -0.4103827 -0.906726 -0.09712911
vn 0.8713381 -0.3642812 -0.3287387
vn 0.9371536 -0.002762087 -0.348906
vn 0.7033986 -0.7035015 -0.1015683
vn 0.6793325 -0.6691104 -0.3013283
vn 0.7670051 -0.3996582 -0.5019727
vn 0.8262494 -0.005561363 -0.5632771
vn 0.379228 -0.8641803 -0.3307244
vn 0.6581524 -0.6113999 -0.4393467
vn 0.5531783 -0.4076595 -0.7265036
vn 0.6095444 -0.003371467 -0.7927448
vn 0 -0.001462898 -0.9999989
vn 0.4489807 -0.7052371 -0.5486866
vn 0 -0.9279834 -0.3726215
vn 0 -0.5821704 -0.8130668
vn -0.3792278 -0.8641804 -0.3307243
vn 0 -0.8030008 -0.595978
vn -0.4489808 -0.705237 -0.5486867
vn -0.5531783 -0.4076597 -0.7265035
vn -0.6095445 -0.003371461 -0.7927448
vn -0.8262492 -0.005561342 -0.5632773
vn -0.7670048 -0.3996587 -0.5019727
vn -0.9371536 -0.002762023 -0.3489063
vn -0.6581527 -0.6113995 -0.4393468
vn -0.8713378 -0.3642821 -0.3287386
vn -0.6793329 -0.6691098 -0.3013283
vn -0.7033988 -0.7035013 -0.1015681
vn 0 0 1
vn 0.3889755 0.3889755 0.8351025
vn 0.3775892 0 0.9259733
vn 0.7905178 0 0.6124392
vn 0.7545819 0.4147133 0.5085462
vn 0.9588246 0 0.2839989
vn 0.9030104 0.3703009 0.2178292
vn 0.9953388 -0.0001522367 -0.09643981
vn 0 0.3775891 0.9259733
vn -0.3889754 0.3889756 0.8351024
vn -0.3775891 0 0.9259733
vn -0.7905179 0 0.612439
vn 0 0.7905176 0.6124393
vn 0.4147133 0.7545819 0.5085462
vn -0.7545819 0.4147134 0.508546
vn -0.9588245 0 0.283999
vn -0.4147137 0.7545816 0.5085461
vn -0.9030101 0.3703015 0.2178294
vn -0.9953388 -0.0001522348 -0.09643969
vn 0.6436419 0.6436424 0.4140645
vn 0 0.9588245 0.2839991
vn -0.643642 0.6436425 0.4140644
vn 0.3703014 0.9030102 0.2178292
vn 0 0.9971693 -0.07518828
vn -0.3703017 0.90301 0.2178292
vn 0.6982397 0.6982399 0.1578684
vn -0.6982397 0.6982399 0.1578684
vn -0.907184 0.4095835 -0.09622103
vn -0.4162332 0.905435 -0.08329175
vn 0.9071843 0.4095831 -0.0962209
vn 0.416233 0.905435 -0.08329178
vn -0.8827729 0.3644663 -0.2964395
vn -0.9371536 -0.002762023 -0.3489063
vn -0.7039161 0.7041469 -0.09316217
vn -0.6927919 0.6728313 -0.2594947
vn -0.7968011 0.3964488 -0.4560004
vn -0.8262492 -0.005561342 -0.5632773
vn -0.4011949 0.8787477 -0.2585443
vn -0.6942465 0.6240373 -0.3586076
vn -0.5559613 0.4500402 -0.6988353
vn -0.6095445 -0.003371461 -0.7927448
vn 0 -0.001462898 -0.9999989
vn -0.5005156 0.7455392 -0.4400629
vn 0 0.9613473 -0.2753386
vn 0 0.8151468 -0.5792545
vn 0 0.5442588 -0.8389173
vn 0.5559613 0.45004 -0.6988355
vn 0.6095444 -0.003371467 -0.7927448
vn 0.8262494 -0.005561363 -0.5632771
vn 0.4011951 0.8787476 -0.2585443
vn 0.5005158 0.7455392 -0.4400628
vn 0.7968013 0.3964483 -0.4560005
vn 0.9371536 -0.002762087 -0.348906
vn 0.6942461 0.6240376 -0.3586075
vn 0.8827731 0.3644655 -0.2964397
vn 0.6927913 0.6728318 -0.2594946
vn 0.703916 0.7041469 -0.09316241
g Fuselarge_0
f 3/3/3 2/2/2 1/1/1
f 2/2/2 3/3/3 4/4/4
f 4/4/4 5/5/5 2/2/2
f 5/5/5 4/4/4 6/6/6
f 6/6/6 7/7/7 5/5/5
f 7/7/7 6/6/6 8/8/8
f 2/2/2 9/9/9 1/1/1
f 1/1/1 9/9/9 10/10/10
f 10/10/10 11/11/11 1/1/1
f 10/10/10 12/12/12 11/11/11
f 13/13/13 9/9/9 2/2/2
f 9/9/9 13/13/13 10/10/10
f 14/14/14 2/2/2 5/5/5
f 2/2/2 14/14/14 13/13/13
f 15/15/15 12/12/12 10/10/10
f 16/16/16 12/12/12 15/15/15
f 13/13/13 17/17/17 10/10/10
f 17/17/17 15/15/15 10/10/10
f 15/15/15 18/18/18 16/16/16
f 19/19/19 16/16/16 18/18/18
f 20/20/20 5/5/5 7/7/7
f 5/5/5 20/20/20 14/14/14
f 21/21/21 13/13/13 14/14/14
f 17/17/17 13/13/13 21/21/21
f 15/15/15 17/17/17 22/22/22
f 15/15/15 22/22/22 18/18/18
f 14/14/14 20/20/20 23/23/23
f 14/14/14 23/23/23 21/21/21
f 24/24/24 21/21/21 23/23/23
f 21/21/21 25/25/25 17/17/17
f 22/22/22 17/17/17 25/25/25
f 25/25/25 21/21/21 24/24/24
f 7/7/7 26/26/26 20/20/20
f 20/20/20 26/26/26 23/23/23
f 22/22/22 27/27/27 18/18/18
f 25/25/25 27/27/27 22/22/22
f 18/18/18 28/28/28 19/19/19
f 28/28/28 18/18/18 27/27/27
f 27/27/27 25/25/25 29/29/29
f 24/24/24 29/29/29 25/25/25
f 26/26/26 7/7/7 30/30/30
f 8/8/8 30/30/30 7/7/7
f 31/31/31 23/23/23 26/26/26
f 23/23/23 31/31/31 24/24/24
f 19/19/19 28/28/28 32/32/32
f 32/32/32 33/33/33 19/19/19
f 27/27/27 34/34/34 28/28/28
f 29/29/29 34/34/34 27/27/27
f 28/28/28 34/34/34 35/35/35
f 35/35/35 34/34/34 29/29/29
f 35/35/35 32/32/32 28/28/28
f 33/33/33 32/32/32 36/36/36
f 36/36/36 37/37/37 33/33/33
f 38/38/38 35/35/35 29/29/29
f 38/38/38 29/29/29 24/24/24
f 32/32/32 35/35/35 39/39/39
f 39/39/39 36/36/36 32/32/32
f 39/39/39 35/35/35 38/38/38
f 37/37/37 36/36/36 40/40/40
f 40/40/40 41/41/41 37/37/37
f 42/42/42 41/41/41 40/40/40
f 36/36/36 39/39/39 43/43/43
f 43/43/43 39/39/39 38/38/38
f 43/43/43 40/40/40 36/36/36
f 24/24/24 44/44/44 38/38/38
f 43/43/43 38/38/38 44/44/44
f 42/42/42 40/40/40 45/45/45
f 45/45/45 40/40/40 43/43/43
f 46/46/46 44/44/44 24/24/24
f 24/24/24 31/31/31 46/46/46
f 47/47/47 43/43/43 44/44/44
f 45/45/45 43/43/43 47/47/47
f 48/48/48 47/47/47 44/44/44
f 45/45/45 47/47/47 48/48/48
f 44/44/44 46/46/46 48/48/48
f 42/42/42 45/45/45 49/49/49
f 48/48/48 49/49/49 45/45/45
f 49/49/49 50/50/50 42/42/42
f 51/51/51 50/50/50 49/49/49
f 49/49/49 52/52/52 51/51/51
f 49/49/49 48/48/48 52/52/52
f 53/53/53 51/51/51 52/52/52
f 54/54/54 48/48/48 46/46/46
f 54/54/54 52/52/52 48/48/48
f 52/52/52 55/55/55 53/53/53
f 52/52/52 54/54/54 55/55/55
f 8/8/8 53/53/53 55/55/55
f 55/55/55 30/30/30 8/8/8
f 46/46/46 56/56/56 54/54/54
f 54/54/54 56/56/56 55/55/55
f 30/30/30 55/55/55 56/56/56
f 56/56/56 46/46/46 31/31/31
f 56/56/56 57/57/57 30/30/30
f 31/31/31 57/57/57 56/56/56
f 30/30/30 57/57/57 26/26/26
f 26/26/26 57/57/57 31/31/31
f 60/60/60 59/59/59 58/58/58
f 59/59/59 60/60/60 61/61/61
f 61/61/61 62/62/62 59/59/59
f 62/62/62 61/61/61 63/63/63
f 63/63/63 64/64/64 62/62/62
f 64/64/64 63/63/63 65/65/65
f 66/66/66 58/58/58 59/59/59
f 58/58/58 66/66/66 67/67/67
f 67/67/67 68/68/68 58/58/58
f 69/69/69 68/68/68 67/67/67
f 70/70/70 66/66/66 59/59/59
f 70/70/70 67/67/67 66/66/66
f 71/71/71 59/59/59 62/62/62
f 59/59/59 71/71/71 70/70/70
f 67/67/67 72/72/72 69/69/69
f 73/73/73 69/69/69 72/72/72
f 70/70/70 74/74/74 67/67/67
f 67/67/67 74/74/74 72/72/72
f 72/72/72 75/75/75 73/73/73
f 76/76/76 73/73/73 75/75/75
f 77/77/77 62/62/62 64/64/64
f 62/62/62 77/77/77 71/71/71
f 78/78/78 70/70/70 71/71/71
f 74/74/74 70/70/70 78/78/78
f 72/72/72 74/74/74 79/79/79
f 72/72/72 79/79/79 75/75/75
f 71/71/71 77/77/77 80/80/80
f 71/71/71 80/80/80 78/78/78
f 81/81/81 78/78/78 80/80/80
f 78/78/78 82/82/82 74/74/74
f 79/79/79 74/74/74 82/82/82
f 82/82/82 78/78/78 81/81/81
f 64/64/64 83/83/83 77/77/77
f 77/77/77 83/83/83 80/80/80
f 79/79/79 84/84/84 75/75/75
f 82/82/82 84/84/84 79/79/79
f 75/75/75 85/85/85 76/76/76
f 85/85/85 75/75/75 84/84/84
f 84/84/84 82/82/82 86/86/86
f 81/81/81 86/86/86 82/82/82
f 83/83/83 64/64/64 87/87/87
f 65/65/65 87/87/87 64/64/64
f 88/88/88 80/80/80 83/83/83
f 80/80/80 88/88/88 81/81/81
f 76/76/76 85/85/85 89/89/89
f 89/89/89 90/90/90 76/76/76
f 84/84/84 91/91/91 85/85/85
f 86/86/86 91/91/91 84/84/84
f 85/85/85 91/91/91 92/92/92
f 92/92/92 91/91/91 86/86/86
f 92/92/92 89/89/89 85/85/85
f 90/90/90 89/89/89 93/93/93
f 93/93/93 94/94/94 90/90/90
f 95/95/95 92/92/92 86/86/86
f 95/95/95 86/86/86 81/81/81
f 89/89/89 92/92/92 96/96/96
f 96/96/96 93/93/93 89/89/89
f 96/96/96 92/92/92 95/95/95
f 94/94/94 93/93/93 97/97/97
f 97/97/97 98/98/98 94/94/94
f 97/97/97 99/99/99 98/98/98
f 93/93/93 96/96/96 100/100/100
f 100/100/100 96/96/96 95/95/95
f 100/100/100 97/97/97 93/93/93
f 81/81/81 101/101/101 95/95/95
f 100/100/100 95/95/95 101/101/101
f 97/97/97 100/100/100 102/102/102
f 102/102/102 100/100/100 101/101/101
f 97/97/97 103/103/103 99/99/99
f 102/102/102 103/103/103 97/97/97
f 99/99/99 103/103/103 104/104/104
f 104/104/104 103/103/103 102/102/102
f 104/104/104 105/105/105 99/99/99
f 105/105/105 104/104/104 106/106/106
f 107/107/107 101/101/101 81/81/81
f 81/81/81 88/88/88 107/107/107
f 108/108/108 102/102/102 101/101/101
f 108/108/108 104/104/104 102/102/102
f 101/101/101 107/107/107 108/108/108
f 106/106/106 104/104/104 109/109/109
f 108/108/108 109/109/109 104/104/104
f 110/110/110 106/106/106 109/109/109
f 111/111/111 108/108/108 107/107/107
f 108/108/108 111/111/111 109/109/109
f 109/109/109 112/112/112 110/110/110
f 109/109/109 111/111/111 112/112/112
f 65/65/65 110/110/110 112/112/112
f 112/112/112 87/87/87 65/65/65
f 107/107/107 113/113/113 111/111/111
f 111/111/111 113/113/113 112/112/112
f 113/113/113 107/107/107 88/88/88
f 87/87/87 112/112/112 113/113/113
f 88/88/88 114/114/114 113/113/113
f 113/113/113 114/114/114 87/87/87
f 83/83/83 114/114/114 88/88/88
f 87/87/87 114/114/114 83/83/83
