g GearedDark02
v 2.118598 0.385417 -2.3943
v 2.204926 -0.3854169 -3.289239
v 2.118598 -0.3854169 -2.3943
v 2.204926 0.385417 -3.289239
v 1.213947 -0.3854169 -3.769234
v 1.213947 0.385417 -3.769234
v 0.5652563 -0.3854169 -3.146683
v 0.5652563 0.385417 -3.146683
v 2.204926 0.385417 -3.289239
v 2.118598 0.385417 -2.3943
v 0.5652563 0.385417 -3.146683
v 1.213947 0.385417 -3.769234
v 3.1911 0.385417 -0.1949501
v 3.884962 -0.3854169 -0.7667256
v 3.1911 -0.3854169 -0.1949501
v 3.884962 0.385417 -0.7667256
v 3.523641 -0.3854169 -1.806861
v 3.523641 0.385417 -1.806861
v 2.624737 -0.3854169 -1.825344
v 2.624737 0.385417 -1.825344
v 3.884962 0.385417 -0.7667256
v 3.1911 0.385417 -0.1949501
v 2.624737 0.385417 -1.825344
v 3.523641 0.385417 -1.806861
v 1.954988 -0.4229167 2.579703
v 1.954988 0.4229168 2.579703
v 2.656477 0.4229168 1.849319
v 2.656477 -0.4229167 1.849319
v 3.09793 0.4229168 0.9379097
v 3.09793 -0.4229167 0.9379097
v 3.236136 0.4229168 -0.06530732
v 3.236136 -0.4229167 -0.06530732
v 3.057568 0.4229168 -1.062132
v 3.057568 -0.4229167 -1.062132
v 2.579702 0.4229168 -1.954988
v 2.579702 -0.4229167 -1.954988
v 1.849319 0.4229168 -2.656476
v 1.849319 -0.4229167 -2.656476
v 0.9379098 0.4229168 -3.097929
v 0.9379098 -0.4229167 -3.097929
v -0.06530742 0.4229168 -3.236136
v -0.06530742 -0.4229167 -3.236136
v -1.062132 0.4229168 -3.057567
v -1.062132 -0.4229167 -3.057567
v -1.954988 0.4229168 -2.579702
v -1.954988 -0.4229167 -2.579702
v -2.656476 0.4229168 -1.849318
v -2.656476 -0.4229167 -1.849318
v -3.097929 0.4229168 -0.93791
v -3.097929 -0.4229167 -0.93791
v -3.236136 0.4229168 0.06530722
v -3.236136 -0.4229167 0.06530722
v -3.057567 0.4229168 1.062132
v -3.057567 -0.4229167 1.062132
v -2.579701 0.4229168 1.954988
v -2.579701 -0.4229167 1.954988
v -1.849317 0.4229168 2.656476
v -1.849317 -0.4229167 2.656476
v -0.9379095 0.4229168 3.097929
v -0.9379095 -0.4229167 3.097929
v 0.06530727 0.4229168 3.236134
v 0.06530727 -0.4229167 3.236134
v 1.062132 0.4229168 3.057566
v 1.062132 -0.4229167 3.057566
v 1.954988 0.4229168 2.579703
v 1.954988 -0.4229167 2.579703
v 3.236136 0.4229168 -0.06530732
v 0.7058938 0.4229168 -0.2452121
v 3.057568 0.4229168 -1.062132
v 0.7471141 0.4229168 -0.01507687
v 3.09793 0.4229168 0.9379097
v 0.7152121 0.4229168 0.2165322
v 2.656477 0.4229168 1.849319
v 0.6132937 0.4229168 0.4269482
v 1.954988 0.4229168 2.579703
v 0.451343 0.4229168 0.5955706
v 1.062132 0.4229168 3.057566
v 0.2452122 0.4229168 0.7058936
v 3.057568 0.4229168 -1.062132
v 0.7058938 0.4229168 -0.2452121
v 0.5955653 0.4229168 -0.4513413
v 2.579702 0.4229168 -1.954988
v 0.4269453 0.4229168 -0.6132928
v 1.849319 0.4229168 -2.656476
v 0.2165333 0.4229168 -0.7152087
v 0.9379098 0.4229168 -3.097929
v -0.01507633 0.4229168 -0.7471142
v -0.06530742 0.4229168 -3.236136
v -0.245212 0.4229168 -0.7058937
v -1.062132 0.4229168 -3.057567
v -1.062132 0.4229168 -3.057567
v -0.245212 0.4229168 -0.7058937
v -0.4513407 0.4229168 -0.5955654
v -1.954988 0.4229168 -2.579702
v -0.6132922 0.4229168 -0.4269454
v -2.656476 0.4229168 -1.849318
v -0.7152115 0.4229168 -0.2165324
v -3.097929 0.4229168 -0.93791
v -0.7471136 0.4229168 0.0150761
v -3.236136 0.4229168 0.06530722
v -0.7058933 0.4229168 0.2452119
v -3.057567 0.4229168 1.062132
v -3.057567 0.4229168 1.062132
v -0.7058933 0.4229168 0.2452119
v -0.5955649 0.4229168 0.4513406
v -2.579701 0.4229168 1.954988
v -0.4269482 0.4229168 0.6132931
v -1.849317 0.4229168 2.656476
v -0.216533 0.4229168 0.7152079
v -0.9379095 0.4229168 3.097929
v 0.01507672 0.4229168 0.7471133
v 0.06530727 0.4229168 3.236134
v 0.2452122 0.4229168 0.7058936
v 1.062132 0.4229168 3.057566
v 2.394299 0.385417 2.118598
v 3.289239 -0.3854169 2.204925
v 2.394299 -0.3854169 2.118598
v 3.289239 0.385417 2.204925
v 3.769234 -0.3854169 1.213946
v 3.769234 0.385417 1.213946
v 3.146682 -0.3854169 0.5652568
v 3.146682 0.385417 0.5652568
v 3.289239 0.385417 2.204925
v 2.394299 0.385417 2.118598
v 3.146682 0.385417 0.5652568
v 3.769234 0.385417 1.213946
v -2.394299 0.385417 -2.118598
v -3.289239 -0.3854169 -2.204925
v -2.394299 -0.3854169 -2.118598
v -3.289239 0.385417 -2.204925
v -3.769235 -0.3854169 -1.213947
v -3.769235 0.385417 -1.213947
v -3.146683 -0.3854169 -0.5652566
v -3.146683 0.385417 -0.5652566
v -3.289239 0.385417 -2.204925
v -2.394299 0.385417 -2.118598
v -3.146683 0.385417 -0.5652566
v -3.769235 0.385417 -1.213947
v -0.1949506 0.385417 -3.1911
v -0.7667258 -0.3854169 -3.884962
v -0.1949506 -0.3854169 -3.1911
v -0.7667258 0.385417 -3.884962
v -1.806861 -0.3854169 -3.523642
v -1.806861 0.385417 -3.523642
v -1.825344 -0.3854169 -2.624737
v -1.825344 0.385417 -2.624737
v -0.7667258 0.385417 -3.884962
v -0.1949506 0.385417 -3.1911
v -1.825344 0.385417 -2.624737
v -1.806861 0.385417 -3.523642
v 0.1949504 0.385417 3.191099
v 0.7667258 -0.3854169 3.884962
v 0.1949504 -0.3854169 3.191099
v 0.7667258 0.385417 3.884962
v 1.806861 -0.3854169 3.523642
v 1.806861 0.385417 3.523642
v 1.825344 -0.3854169 2.624736
v 1.825344 0.385417 2.624736
v 0.7667258 0.385417 3.884962
v 0.1949504 0.385417 3.191099
v 1.825344 0.385417 2.624736
v 1.806861 0.385417 3.523642
v -2.118598 0.385417 2.394299
v -2.204926 -0.3854169 3.289239
v -2.118598 -0.3854169 2.394299
v -2.204926 0.385417 3.289239
v -1.213947 -0.3854169 3.769234
v -1.213947 0.385417 3.769234
v -0.5652563 -0.3854169 3.146682
v -0.5652563 0.385417 3.146682
v -2.204926 0.385417 3.289239
v -2.118598 0.385417 2.394299
v -0.5652563 0.385417 3.146682
v -1.213947 0.385417 3.769234
v -3.1911 0.385417 0.1949508
v -3.884962 -0.3854169 0.7667256
v -3.1911 -0.3854169 0.1949508
v -3.884962 0.385417 0.7667256
v -3.523641 -0.3854169 1.806862
v -3.523641 0.385417 1.806862
v -2.624737 -0.3854169 1.825344
v -2.624737 0.385417 1.825344
v -3.884962 0.385417 0.7667256
v -3.1911 0.385417 0.1949508
v -2.624737 0.385417 1.825344
v -3.523641 0.385417 1.806862
v -0.245212 0.4229168 -0.7058937
v -0.01507633 0.4229168 -0.7471142
v 0.2165333 0.4229168 -0.7152087
v 0.4269453 0.4229168 -0.6132928
v -0.4513407 0.4229168 -0.5955654
v 0.5955653 0.4229168 -0.4513413
v -0.6132922 0.4229168 -0.4269454
v 0.7058938 0.4229168 -0.2452121
v -0.7152115 0.4229168 -0.2165324
v 0.7471141 0.4229168 -0.01507687
v -0.7471136 0.4229168 0.0150761
v 0.7152121 0.4229168 0.2165322
v -0.7058933 0.4229168 0.2452119
v 0.6132937 0.4229168 0.4269482
v -0.5955649 0.4229168 0.4513406
v 0.451343 0.4229168 0.5955706
v -0.4269482 0.4229168 0.6132931
v 0.2452122 0.4229168 0.7058936
v -0.216533 0.4229168 0.7152079
v 0.01507672 0.4229168 0.7471133
vt 0.4301451 0.0176484
vt 0.3023185 0.1167263
vt 0.4301451 0.1167263
vt 0.3023025 0.0176484
vt 0.1665666 0.1167263
vt 0.1665507 0.0176484
vt 0.03872392 0.1167263
vt 0.03872392 0.0176484
vt 0.974777 0.3092637
vt 0.8944581 0.279506
vt 0.8944581 0.4444978
vt 0.974777 0.4144874
vt 0.4301451 0.0176484
vt 0.3023185 0.1167263
vt 0.4301451 0.1167263
vt 0.3023025 0.0176484
vt 0.1665666 0.1167263
vt 0.1665507 0.0176484
vt 0.03872392 0.1167263
vt 0.03872392 0.0176484
vt 0.974777 0.3092637
vt 0.8944581 0.279506
vt 0.8944581 0.4444978
vt 0.974777 0.4144874
vt 0.005277306 0.9038618
vt 0.005294204 0.9351357
vt 0.04273754 0.9351155
vt 0.04272074 0.9038416
vt 0.08018097 0.9350953
vt 0.08016407 0.9038213
vt 0.1176243 0.9350751
vt 0.1176074 0.9038011
vt 0.1550676 0.9350548
vt 0.1550508 0.9037809
vt 0.192511 0.9350347
vt 0.1924941 0.9037609
vt 0.2299544 0.9350144
vt 0.2299376 0.9037406
vt 0.2673978 0.9349943
vt 0.2673809 0.9037204
vt 0.3048411 0.9349741
vt 0.3048242 0.9037002
vt 0.3385401 0.9349558
vt 0.3385232 0.9036819
vt 0.3722391 0.9349377
vt 0.3722223 0.9036638
vt 0.4096825 0.9349174
vt 0.4096656 0.9036435
vt 0.4471258 0.9348972
vt 0.447109 0.9036234
vt 0.4845691 0.934877
vt 0.4845523 0.9036032
vt 0.5220125 0.9348568
vt 0.5219957 0.9035829
vt 0.5594559 0.9348367
vt 0.5594389 0.9035628
vt 0.5968992 0.9348164
vt 0.5968822 0.9035425
vt 0.6343425 0.9347962
vt 0.6343256 0.9035224
vt 0.6717859 0.934776
vt 0.671769 0.9035021
vt 0.7054844 0.9347578
vt 0.7054684 0.9034839
vt 0.7391831 0.9347416
vt 0.7391679 0.9034677
vt 0.4624141 0.1993496
vt 0.360837 0.4422524
vt 0.360837 0.1828421
vt 0.3822517 0.446064
vt 0.5564361 0.2472561
vt 0.4039583 0.4571236
vt 0.6310524 0.3218725
vt 0.421185 0.4743502
vt 0.6789591 0.4158946
vt 0.4322451 0.4960568
vt 0.6938157 0.5137044
vt 0.4356751 0.5137044
vt 0.360837 0.1828421
vt 0.360837 0.4422524
vt 0.380389 0.446064
vt 0.4593741 0.1993496
vt 0.4020955 0.4571239
vt 0.5533961 0.2472563
vt 0.4193219 0.4743502
vt 0.6280123 0.3218726
vt 0.4303817 0.4960568
vt 0.6759189 0.4158945
vt 0.432635 0.5137044
vt 0.6907759 0.5137044
vt 0.6907759 0.5137044
vt 0.432635 0.5137044
vt 0.4303817 0.4960568
vt 0.6759189 0.4165698
vt 0.4193219 0.4743502
vt 0.6280123 0.3218726
vt 0.4020955 0.4571239
vt 0.5533961 0.2472563
vt 0.380389 0.446064
vt 0.4593741 0.1993496
vt 0.360837 0.4422524
vt 0.360837 0.1828421
vt 0.360837 0.1828421
vt 0.360837 0.4422524
vt 0.3822517 0.446064
vt 0.4624141 0.1993496
vt 0.4039583 0.4571236
vt 0.5552589 0.2472561
vt 0.421185 0.4743502
vt 0.6310524 0.3218725
vt 0.4322451 0.4960568
vt 0.6789591 0.4158946
vt 0.4356751 0.5137044
vt 0.6938157 0.5137044
vt 0.4301451 0.0176484
vt 0.3023185 0.1167263
vt 0.4301451 0.1167263
vt 0.3023025 0.0176484
vt 0.1665666 0.1167263
vt 0.1665507 0.0176484
vt 0.03872392 0.1167263
vt 0.03872392 0.0176484
vt 0.974777 0.3092637
vt 0.8944581 0.279506
vt 0.8944581 0.4444978
vt 0.974777 0.4144874
vt 0.4301451 0.0176484
vt 0.3023185 0.1167263
vt 0.4301451 0.1167263
vt 0.3023025 0.0176484
vt 0.1665666 0.1167263
vt 0.1665507 0.0176484
vt 0.03872392 0.1167263
vt 0.03872392 0.0176484
vt 0.974777 0.3092637
vt 0.8944581 0.279506
vt 0.8944581 0.4444978
vt 0.974777 0.4144874
vt 0.4301451 0.0176484
vt 0.3023185 0.1167263
vt 0.4301451 0.1167263
vt 0.3023025 0.0176484
vt 0.1665666 0.1167263
vt 0.1665507 0.0176484
vt 0.03872392 0.1167263
vt 0.03872392 0.0176484
vt 0.974777 0.3092637
vt 0.8944581 0.279506
vt 0.8944581 0.4444978
vt 0.974777 0.4144874
vt 0.4301451 0.01764841
vt 0.301065 0.1167263
vt 0.4301451 0.1167263
vt 0.3010493 0.01764841
vt 0.1671578 0.1167263
vt 0.1671422 0.01764841
vt 0.03872393 0.1167263
vt 0.03872393 0.01764841
vt 0.9747148 0.3092597
vt 0.8943957 0.2795019
vt 0.8943957 0.4444938
vt 0.9747148 0.4144833
vt 0.4301451 0.0176484
vt 0.3023185 0.1167263
vt 0.4301451 0.1167263
vt 0.3023025 0.0176484
vt 0.1665666 0.1167263
vt 0.1665507 0.0176484
vt 0.03872392 0.1167263
vt 0.03872392 0.0176484
vt 0.974777 0.3092637
vt 0.8944581 0.279506
vt 0.8944581 0.4444978
vt 0.974777 0.4144874
vt 0.4301451 0.0176484
vt 0.3023185 0.1167263
vt 0.4301451 0.1167263
vt 0.3023025 0.0176484
vt 0.1665666 0.1167263
vt 0.1665507 0.0176484
vt 0.03872392 0.1167263
vt 0.03872392 0.0176484
vt 0.974777 0.3092637
vt 0.8944581 0.279506
vt 0.8944581 0.4444978
vt 0.974777 0.4144874
vt 0.03392917 0.5943835
vt 0.03985834 0.6045289
vt 0.04863214 0.6123458
vt 0.05939202 0.6170686
vt 0.03142582 0.5829023
vt 0.07108484 0.6182353
vt 0.0325925 0.5712095
vt 0.08256605 0.615732
vt 0.03731534 0.5604494
vt 0.09271142 0.6098028
vt 0.04513227 0.5516758
vt 0.1005284 0.6010292
vt 0.05527769 0.5457466
vt 0.1052514 0.5902691
vt 0.06675886 0.5432433
vt 0.1064182 0.5785762
vt 0.0784516 0.5444098
vt 0.1039146 0.5670951
vt 0.08921157 0.5491329
vt 0.09798536 0.5569497
vn 0.5978961 0.7994961 0.05767453
vn 0.8353924 0 -0.5496541
vn 0.9953797 0 0.09601679
vn 0.5477468 0.7550423 -0.360395
vn -0.08661568 0 -0.9962418
vn -0.05679182 0.7550423 -0.6532118
vn -0.6924209 0 -0.7214938
vn -0.4159174 0.799496 -0.4333807
vn 0.5477468 0.7550423 -0.360395
vn 0.5978961 0.7994961 0.05767453
vn -0.4159174 0.799496 -0.4333807
vn -0.05679182 0.7550423 -0.6532118
vn 0.3819944 0.7994962 0.4635583
vn 0.9793758 0 0.2020474
vn 0.6359458 0 0.7717337
vn 0.6421532 0.7550424 0.1324776
vn 0.6432025 0 -0.7656962
vn 0.4217324 0.7550425 -0.5020485
vn 0.02055698 0 -0.9997887
vn 0.01234798 0.7994962 -0.6005442
vn 0.6421532 0.7550424 0.1324776
vn 0.3819944 0.7994962 0.4635583
vn 0.01234798 0.7994962 -0.6005442
vn 0.4217324 0.7550425 -0.5020485
vn 0.6039878 0 0.7969936
vn 0.3158077 0.8524119 0.4167248
vn 0.429126 0.8524122 0.2987379
vn 0.820712 0 0.5713422
vn 0.5004382 0.8524122 0.1515093
vn 0.957098 0 0.2897646
vn 0.5227641 0.8524121 -0.01054967
vn 0.9997965 0 -0.02017645
vn 0.493918 0.8524122 -0.1715763
vn 0.9446281 0 -0.3281431
vn 0.4167235 0.8524123 -0.3158078
vn 0.7969925 0 -0.6039891
vn 0.2987381 0.8524119 -0.4291264
vn 0.5713422 0 -0.820712
vn 0.1515096 0.8524119 -0.5004385
vn 0.2897649 0 -0.9570979
vn -0.01054971 0.8524122 -0.5227639
vn -0.02017654 0 -0.9997965
vn -0.1715764 0.8524122 -0.493918
vn -0.3281432 0 -0.9446279
vn -0.315808 0.8524122 -0.4167239
vn -0.6039889 0 -0.7969926
vn -0.429126 0.8524122 -0.2987381
vn -0.8207117 0 -0.5713424
vn -0.5004386 0.8524119 -0.1515099
vn -0.9570978 0 -0.2897653
vn -0.5227642 0.852412 0.01054979
vn -0.9997965 0 0.02017667
vn -0.4939179 0.8524122 0.1715764
vn -0.9446279 0 0.3281435
vn -0.4167241 0.8524119 0.3158082
vn -0.7969927 0 0.6039889
vn -0.2987383 0.8524119 0.4291264
vn -0.5713423 0 0.8207119
vn -0.1515094 0.852412 0.5004385
vn -0.2897646 0 0.957098
vn 0.01054996 0.8524122 0.5227638
vn 0.02017701 0 0.9997965
vn 0.1715757 0.8524121 0.4939185
vn 0.3281418 0 0.9446285
vn 0.3158077 0.8524119 0.4167248
vn 0.6039878 0 0.7969936
vn 0.5227641 0.8524121 -0.01054967
vn 0 1 0
vn 0.493918 0.8524122 -0.1715763
vn 0 1 0
vn 0.5004382 0.8524122 0.1515093
vn 0 1 0
vn 0.429126 0.8524122 0.2987379
vn 0 1 0
vn 0.3158077 0.8524119 0.4167248
vn 0 1 0
vn 0.1715757 0.8524121 0.4939185
vn 0 1 0
vn 0.493918 0.8524122 -0.1715763
vn 0 1 0
vn 0 1 0
vn 0.4167235 0.8524123 -0.3158078
vn 0 1 0
vn 0.2987381 0.8524119 -0.4291264
vn 0 1 0
vn 0.1515096 0.8524119 -0.5004385
vn 0 1 0
vn -0.01054971 0.8524122 -0.5227639
vn 0 1 0
vn -0.1715764 0.8524122 -0.493918
vn -0.1715764 0.8524122 -0.493918
vn 0 1 0
vn 0 1 0
vn -0.315808 0.8524122 -0.4167239
vn 0 1 0
vn -0.429126 0.8524122 -0.2987381
vn 0 1 0
vn -0.5004386 0.8524119 -0.1515099
vn 0 1 0
vn -0.5227642 0.852412 0.01054979
vn 0 1 0
vn -0.4939179 0.8524122 0.1715764
vn -0.4939179 0.8524122 0.1715764
vn 0 1 0
vn 0 1 0
vn -0.4167241 0.8524119 0.3158082
vn 0 1 0
vn -0.2987383 0.8524119 0.4291264
vn 0 1 0
vn -0.1515094 0.852412 0.5004385
vn 0 1 0
vn 0.01054996 0.8524122 0.5227638
vn 0 1 0
vn 0.1715757 0.8524121 0.4939185
vn -0.05767412 0.7994959 0.5978965
vn 0.5496541 0 0.8353924
vn -0.09601606 0 0.9953798
vn 0.360395 0.7550423 0.5477468
vn 0.9962418 0 -0.08661568
vn 0.6532119 0.7550423 -0.05679179
vn 0.721493 0 -0.6924217
vn 0.4333797 0.7994967 -0.4159174
vn 0.360395 0.7550423 0.5477468
vn -0.05767412 0.7994959 0.5978965
vn 0.4333797 0.7994967 -0.4159174
vn 0.6532119 0.7550423 -0.05679179
vn 0.05767412 0.7994959 -0.5978965
vn -0.5496537 0 -0.8353927
vn 0.09601606 0 -0.9953798
vn -0.3603947 0.7550425 -0.5477468
vn -0.9962418 0 0.08661554
vn -0.6532119 0.7550423 0.0567917
vn -0.7214934 0 0.6924213
vn -0.4333802 0.7994962 0.4159175
vn -0.3603947 0.7550425 -0.5477468
vn 0.05767412 0.7994959 -0.5978965
vn -0.4333802 0.7994962 0.4159175
vn -0.6532119 0.7550423 0.0567917
vn 0.4635583 0.7994963 -0.3819938
vn 0.202048 0 -0.9793757
vn 0.7717341 0 -0.6359453
vn 0.132478 0.7550426 -0.6421528
vn -0.7656963 0 -0.6432022
vn -0.5020484 0.7550426 -0.4217321
vn -0.9997887 0 -0.02055697
vn -0.6005442 0.7994962 -0.01234796
vn 0.132478 0.7550426 -0.6421528
vn 0.4635583 0.7994963 -0.3819938
vn -0.6005442 0.7994962 -0.01234796
vn -0.5020484 0.7550426 -0.4217321
vn -0.4635583 0.7994963 0.3819937
vn -0.2020483 0 0.9793755
vn -0.7717344 0 0.6359451
vn -0.1324781 0.7550427 0.6421527
vn 0.7656963 0 0.6432022
vn 0.5020484 0.7550427 0.4217319
vn 0.9997887 0 0.02055696
vn 0.600544 0.7994963 0.01234797
vn -0.1324781 0.7550427 0.6421527
vn -0.4635583 0.7994963 0.3819937
vn 0.600544 0.7994963 0.01234797
vn 0.5020484 0.7550427 0.4217319
vn -0.5978964 0.7994959 -0.05767454
vn -0.8353925 0 0.5496538
vn -0.9953797 0 -0.09601673
vn -0.5477469 0.7550423 0.3603948
vn 0.0866157 0 0.9962418
vn 0.05679183 0.7550425 0.6532118
vn 0.6924209 0 0.7214938
vn 0.4159173 0.7994962 0.4333806
vn -0.5477469 0.7550423 0.3603948
vn -0.5978964 0.7994959 -0.05767454
vn 0.4159173 0.7994962 0.4333806
vn 0.05679183 0.7550425 0.6532118
vn -0.381994 0.7994962 -0.4635584
vn -0.9793758 0 -0.2020475
vn -0.6359454 0 -0.7717341
vn -0.6421534 0.7550422 -0.1324777
vn -0.6432027 0 0.765696
vn -0.4217325 0.7550423 0.5020486
vn -0.0205563 0 0.9997887
vn -0.01234756 0.7994965 0.6005437
vn -0.6421534 0.7550422 -0.1324777
vn -0.381994 0.7994962 -0.4635584
vn -0.01234756 0.7994965 0.6005437
vn -0.4217325 0.7550423 0.5020486
vn 0 1 0
vn 0 1 0
vn 0 1 0
vn 0 1 0
vn 0 1 0
vn 0 1 0
vn 0 1 0
vn 0 1 0
vn 0 1 0
vn 0 1 0
vn 0 1 0
vn 0 1 0
vn 0 1 0
vn 0 1 0
vn 0 1 0
vn 0 1 0
vn 0 1 0
vn 0 1 0
vn 0 1 0
vn 0 1 0
g GearedDark02_0
f 3/3/3 2/2/2 1/1/1
f 2/2/2 4/4/4 1/1/1
f 2/2/2 5/5/5 4/4/4
f 5/5/5 6/6/6 4/4/4
f 6/6/6 5/5/5 7/7/7
f 8/8/8 6/6/6 7/7/7
f 11/11/11 10/10/10 9/9/9
f 12/12/12 11/11/11 9/9/9
f 15/15/15 14/14/14 13/13/13
f 14/14/14 16/16/16 13/13/13
f 14/14/14 17/17/17 16/16/16
f 17/17/17 18/18/18 16/16/16
f 18/18/18 17/17/17 19/19/19
f 20/20/20 18/18/18 19/19/19
f 23/23/23 22/22/22 21/21/21
f 24/24/24 23/23/23 21/21/21
f 27/27/27 26/26/26 25/25/25
f 28/28/28 27/27/27 25/25/25
f 29/29/29 27/27/27 28/28/28
f 30/30/30 29/29/29 28/28/28
f 31/31/31 29/29/29 30/30/30
f 32/32/32 31/31/31 30/30/30
f 33/33/33 31/31/31 32/32/32
f 34/34/34 33/33/33 32/32/32
f 35/35/35 33/33/33 34/34/34
f 36/36/36 35/35/35 34/34/34
f 37/37/37 35/35/35 36/36/36
f 38/38/38 37/37/37 36/36/36
f 39/39/39 37/37/37 38/38/38
f 40/40/40 39/39/39 38/38/38
f 41/41/41 39/39/39 40/40/40
f 42/42/42 41/41/41 40/40/40
f 43/43/43 41/41/41 42/42/42
f 44/44/44 43/43/43 42/42/42
f 45/45/45 43/43/43 44/44/44
f 46/46/46 45/45/45 44/44/44
f 47/47/47 45/45/45 46/46/46
f 48/48/48 47/47/47 46/46/46
f 49/49/49 47/47/47 48/48/48
f 50/50/50 49/49/49 48/48/48
f 51/51/51 49/49/49 50/50/50
f 52/52/52 51/51/51 50/50/50
f 53/53/53 51/51/51 52/52/52
f 54/54/54 53/53/53 52/52/52
f 55/55/55 53/53/53 54/54/54
f 56/56/56 55/55/55 54/54/54
f 57/57/57 55/55/55 56/56/56
f 58/58/58 57/57/57 56/56/56
f 59/59/59 57/57/57 58/58/58
f 60/60/60 59/59/59 58/58/58
f 61/61/61 59/59/59 60/60/60
f 62/62/62 61/61/61 60/60/60
f 63/63/63 61/61/61 62/62/62
f 64/64/64 63/63/63 62/62/62
f 65/65/65 63/63/63 64/64/64
f 66/66/66 65/65/65 64/64/64
f 69/69/69 68/68/68 67/67/67
f 68/68/68 70/70/70 67/67/67
f 67/67/67 70/70/70 71/71/71
f 70/70/70 72/72/72 71/71/71
f 71/71/71 72/72/72 73/73/73
f 72/72/72 74/74/74 73/73/73
f 73/73/73 74/74/74 75/75/75
f 74/74/74 76/76/76 75/75/75
f 75/75/75 76/76/76 77/77/77
f 76/76/76 78/78/78 77/77/77
f 81/81/81 80/80/80 79/79/79
f 82/82/82 81/81/81 79/79/79
f 83/83/83 81/81/81 82/82/82
f 84/84/84 83/83/83 82/82/82
f 85/85/85 83/83/83 84/84/84
f 86/86/86 85/85/85 84/84/84
f 87/87/87 85/85/85 86/86/86
f 88/88/88 87/87/87 86/86/86
f 89/89/89 87/87/87 88/88/88
f 90/90/90 89/89/89 88/88/88
f 93/93/93 92/92/92 91/91/91
f 94/94/94 93/93/93 91/91/91
f 95/95/95 93/93/93 94/94/94
f 96/96/96 95/95/95 94/94/94
f 97/97/97 95/95/95 96/96/96
f 98/98/98 97/97/97 96/96/96
f 99/99/99 97/97/97 98/98/98
f 100/100/100 99/99/99 98/98/98
f 101/101/101 99/99/99 100/100/100
f 102/102/102 101/101/101 100/100/100
f 105/105/105 104/104/104 103/103/103
f 106/106/106 105/105/105 103/103/103
f 107/107/107 105/105/105 106/106/106
f 108/108/108 107/107/107 106/106/106
f 109/109/109 107/107/107 108/108/108
f 110/110/110 109/109/109 108/108/108
f 111/111/111 109/109/109 110/110/110
f 112/112/112 111/111/111 110/110/110
f 113/113/113 111/111/111 112/112/112
f 114/114/114 113/113/113 112/112/112
f 117/117/117 116/116/116 115/115/115
f 116/116/116 118/118/118 115/115/115
f 116/116/116 119/119/119 118/118/118
f 119/119/119 120/120/120 118/118/118
f 120/120/120 119/119/119 121/121/121
f 122/122/122 120/120/120 121/121/121
f 125/125/125 124/124/124 123/123/123
f 126/126/126 125/125/125 123/123/123
f 129/129/129 128/128/128 127/127/127
f 128/128/128 130/130/130 127/127/127
f 128/128/128 131/131/131 130/130/130
f 131/131/131 132/132/132 130/130/130
f 132/132/132 131/131/131 133/133/133
f 134/134/134 132/132/132 133/133/133
f 137/137/137 136/136/136 135/135/135
f 138/138/138 137/137/137 135/135/135
f 141/141/141 140/140/140 139/139/139
f 140/140/140 142/142/142 139/139/139
f 140/140/140 143/143/143 142/142/142
f 143/143/143 144/144/144 142/142/142
f 144/144/144 143/143/143 145/145/145
f 146/146/146 144/144/144 145/145/145
f 149/149/149 148/148/148 147/147/147
f 150/150/150 149/149/149 147/147/147
f 153/153/153 152/152/152 151/151/151
f 152/152/152 154/154/154 151/151/151
f 152/152/152 155/155/155 154/154/154
f 155/155/155 156/156/156 154/154/154
f 156/156/156 155/155/155 157/157/157
f 158/158/158 156/156/156 157/157/157
f 161/161/161 160/160/160 159/159/159
f 162/162/162 161/161/161 159/159/159
f 165/165/165 164/164/164 163/163/163
f 164/164/164 166/166/166 163/163/163
f 164/164/164 167/167/167 166/166/166
f 167/167/167 168/168/168 166/166/166
f 168/168/168 167/167/167 169/169/169
f 170/170/170 168/168/168 169/169/169
f 173/173/173 172/172/172 171/171/171
f 174/174/174 173/173/173 171/171/171
f 177/177/177 176/176/176 175/175/175
f 176/176/176 178/178/178 175/175/175
f 176/176/176 179/179/179 178/178/178
f 179/179/179 180/180/180 178/178/178
f 180/180/180 179/179/179 181/181/181
f 182/182/182 180/180/180 181/181/181
f 185/185/185 184/184/184 183/183/183
f 186/186/186 185/185/185 183/183/183
f 189/189/189 188/188/188 187/187/187
f 187/187/187 190/190/190 189/189/189
f 187/187/187 191/191/191 190/190/190
f 191/191/191 192/192/192 190/190/190
f 191/191/191 193/193/193 192/192/192
f 193/193/193 194/194/194 192/192/192
f 193/193/193 195/195/195 194/194/194
f 195/195/195 196/196/196 194/194/194
f 195/195/195 197/197/197 196/196/196
f 197/197/197 198/198/198 196/196/196
f 197/197/197 199/199/199 198/198/198
f 199/199/199 200/200/200 198/198/198
f 199/199/199 201/201/201 200/200/200
f 201/201/201 202/202/202 200/200/200
f 201/201/201 203/203/203 202/202/202
f 203/203/203 204/204/204 202/202/202
f 203/203/203 205/205/205 204/204/204
f 205/205/205 206/206/206 204/204/204
