g Gem1
v -0.01257253 16.08425 5.545001
v -0.01257253 19.19397 6.075344
v 1.09485 19.19397 5.545001
v -1.09485 19.19397 5.545001
v -0.01257253 21.54803 5.545001
v -0.01257253 19.19397 5.014659
v -0.01257253 21.54803 5.545001
v -1.09485 19.19397 5.545001
v 1.09485 19.19397 5.545001
v -0.01257253 16.08425 5.545001
vt 0.2018465 0.1427165
vt 0.2018465 0.251832
vt 0.2407044 0.251832
vt 0.1638709 0.251832
vt 0.2018465 0.3344329
vt 0.2018465 0.251832
vt 0.2018465 0.3344329
vt 0.1638709 0.251832
vt 0.2407044 0.251832
vt 0.2018465 0.1427165
vn 0.00405381 -0.168115 0.985759
vn 0.0002522747 -0.001474831 0.9999989
vn 0.4319146 -0.006186927 0.9018933
vn -0.4400248 -0.005992472 0.8979656
vn 0.003771275 0.2197778 0.9755426
vn 0.0002523296 -0.001474852 -0.9999989
vn 0.003771333 0.2197777 -0.9755427
vn -0.4400246 -0.005992479 -0.8979657
vn 0.4319145 -0.006186928 -0.9018934
vn 0.004053942 -0.1681149 -0.985759
g Gem1_0
f 3/3/3 2/2/2 1/1/1
f 2/2/2 4/4/4 1/1/1
f 5/5/5 2/2/2 3/3/3
f 4/4/4 2/2/2 5/5/5
f 8/8/8 7/7/7 6/6/6
f 7/7/7 9/9/9 6/6/6
f 10/10/10 8/8/8 6/6/6
f 9/9/9 10/10/10 6/6/6
