g GlaiveLvl1
v -11.93214 13.43939 -0.9209656
v -10.43355 13.73262 0.37828
v -12.1281 13.43939 1.408964
v -13.14585 13.25431 -0.5841613
v -11.93214 11.9513 -0.9209656
v -13.14585 12.13637 -0.5841613
v -12.82395 12.69534 -2.067645
v -12.90034 13.3211 0.6985412
v -12.1281 11.9513 1.408964
v -12.90034 12.06959 0.6985412
v -13.67597 13.24291 0.9796081
v -13.67597 12.14778 0.9796081
v -13.75691 13.11613 -1.16587
v -13.75691 12.27456 -1.16587
v -13.56118 12.69534 -4.481859
v -14.74655 13.06423 -0.2076575
v -14.74655 12.32646 -0.2076575
v -15.36897 12.69534 0.5626721
v -15.13342 12.86692 -1.737504
v -15.13342 12.52376 -1.737504
v -12.1281 13.43939 1.408964
v -10.43355 13.73262 0.37828
v -9.996261 13.43939 2.312858
v -12.20975 13.25431 2.642782
v -12.1281 11.9513 1.408964
v -12.20975 12.13637 2.642782
v -13.51345 12.69534 1.865148
v -10.91565 13.3211 2.818609
v -9.996261 11.9513 2.312858
v -10.91565 12.06959 2.818609
v -10.89626 13.24291 3.643368
v -10.89626 12.14778 3.643368
v -12.95579 13.11613 3.036742
v -12.95579 12.27456 3.036742
v -16.03674 12.69534 1.795048
v -12.36268 13.06423 4.280038
v -12.36268 12.32646 4.280038
v -11.83072 12.69534 5.115401
v -13.93608 12.86692 4.159498
v -13.93608 12.52376 4.159498
v -9.996261 13.43939 2.312858
v -10.43355 13.73262 0.37828
v -8.460441 13.43939 0.5799426
v -8.273857 13.3211 1.612535
v -8.460441 11.9513 0.5799426
v -8.273857 12.06959 1.612535
v -7.485878 13.24291 1.856847
v -7.485878 12.14778 1.856847
v -8.852705 13.25431 2.783234
v -9.996261 11.9513 2.312858
v -8.852705 12.13637 2.783234
v -10.00508 12.69534 3.771358
v -8.716881 13.11613 3.6159
v -8.716881 12.27456 3.6159
v -10.87521 12.69534 6.140914
v -7.349427 13.06423 3.449681
v -7.349427 12.32646 3.449681
v -6.388134 12.69534 3.211488
v -7.964823 12.86692 4.90274
v -7.964823 12.52376 4.90274
v -8.460441 13.43939 0.5799426
v -10.43355 13.73262 0.37828
v -9.633673 13.43939 -1.436702
v -8.575696 13.3211 -1.275818
v -9.633673 11.9513 -1.436702
v -8.575696 12.06959 -1.275818
v -7.650333 13.25431 -0.3542407
v -8.460441 11.9513 0.5799426
v -7.650333 12.13637 -0.3542407
v -7.080707 12.69534 1.052839
v -8.093131 13.24291 -1.944945
v -8.093131 12.14778 -1.944945
v -6.81777 13.11613 -0.2177832
v -6.81777 12.27456 -0.2177832
v -5.111696 12.69534 2.632374
v -6.53979 13.06423 -1.566962
v -6.53979 12.32646 -1.566962
v -6.459403 12.69534 -2.554058
v -5.35841 12.86692 -0.5208068
v -5.35841 12.52376 -0.5208068
v -9.633673 13.43939 -1.436702
v -10.43355 13.73262 0.37828
v -11.93214 13.43939 -0.9209656
v -11.45943 13.3211 -1.887819
v -11.93214 11.9513 -0.9209656
v -11.45943 12.06959 -1.887819
v -10.30413 13.25431 -2.496807
v -9.633673 11.9513 -1.436702
v -10.30413 12.13637 -2.496807
v -8.79126 12.69534 -2.621631
v -11.95452 13.24291 -2.547732
v -11.95452 12.14778 -2.547732
v -9.925958 13.11613 -3.250977
v -9.925958 12.27456 -3.250977
v -6.697085 12.69534 -4.031018
v -11.13117 13.06423 -3.91807
v -11.13117 12.32646 -3.91807
v -12.04956 12.69534 -4.288724
v -9.780707 12.86692 -4.734367
v -9.780707 12.52376 -4.734367
v -11.93214 11.9513 -0.9209656
v -12.1281 11.9513 1.408964
v -10.43355 11.65807 0.37828
v -13.14585 12.13637 -0.5841613
v -12.90034 12.06959 0.6985412
v -13.67597 12.14778 0.9796081
v -13.75691 12.27456 -1.16587
v -12.82395 12.69534 -2.067645
v -14.74655 12.32646 -0.2076575
v -15.13342 12.52376 -1.737504
v -13.56118 12.69534 -4.481859
v -15.36897 12.69534 0.5626721
v -12.1281 11.9513 1.408964
v -9.996261 11.9513 2.312858
v -10.43355 11.65807 0.37828
v -12.20975 12.13637 2.642782
v -10.91565 12.06959 2.818609
v -10.89626 12.14778 3.643368
v -12.95579 12.27456 3.036742
v -13.51345 12.69534 1.865148
v -12.36268 12.32646 4.280038
v -13.93608 12.52376 4.159498
v -16.03674 12.69534 1.795048
v -11.83072 12.69534 5.115401
v -9.996261 11.9513 2.312858
v -8.460441 11.9513 0.5799426
v -10.43355 11.65807 0.37828
v -8.273857 12.06959 1.612535
v -7.485878 12.14778 1.856847
v -8.852705 12.13637 2.783234
v -8.716881 12.27456 3.6159
v -10.00508 12.69534 3.771358
v -7.349427 12.32646 3.449681
v -7.964823 12.52376 4.90274
v -10.87521 12.69534 6.140914
v -6.388134 12.69534 3.211488
v -8.460441 11.9513 0.5799426
v -9.633673 11.9513 -1.436702
v -10.43355 11.65807 0.37828
v -8.575696 12.06959 -1.275818
v -7.650333 12.13637 -0.3542407
v -8.093131 12.14778 -1.944945
v -6.81777 12.27456 -0.2177832
v -7.080707 12.69534 1.052839
v -6.53979 12.32646 -1.566962
v -5.35841 12.52376 -0.5208068
v -5.111696 12.69534 2.632374
v -6.459403 12.69534 -2.554058
v -9.633673 11.9513 -1.436702
v -11.93214 11.9513 -0.9209656
v -10.43355 11.65807 0.37828
v -11.45943 12.06959 -1.887819
v -10.30413 12.13637 -2.496807
v -11.95452 12.14778 -2.547732
v -9.925958 12.27456 -3.250977
v -8.79126 12.69534 -2.621631
v -11.13117 12.32646 -3.91807
v -9.780707 12.52376 -4.734367
v -6.697085 12.69534 -4.031018
v -12.04956 12.69534 -4.288724
vt 0.7357161 0.4892722
vt 0.7560296 0.5656461
vt 0.8196312 0.5210425
vt 0.7665964 0.4505533
vt 0.7357161 0.4892722
vt 0.7665964 0.4505533
vt 0.7098303 0.4379362
vt 0.8071802 0.4806338
vt 0.8196312 0.5210425
vt 0.8071802 0.4806338
vt 0.8295302 0.4568701
vt 0.8295302 0.4568701
vt 0.7562993 0.4186225
vt 0.7562993 0.4186225
vt 0.6379104 0.3712506
vt 0.805649 0.3981633
vt 0.805649 0.3981633
vt 0.8425125 0.3880528
vt 0.7587715 0.3588441
vt 0.7587715 0.3588441
vt 0.7357017 0.4892145
vt 0.7559785 0.5654496
vt 0.8194646 0.5209273
vt 0.7665262 0.4505661
vt 0.7357017 0.4892145
vt 0.7665262 0.4505661
vt 0.7098634 0.4379721
vt 0.8070363 0.4805921
vt 0.8194646 0.5209273
vt 0.8070363 0.4805921
vt 0.8293458 0.4568713
vt 0.8293458 0.4568713
vt 0.7562479 0.4186936
vt 0.7562479 0.4186936
vt 0.6380742 0.3714074
vt 0.8055078 0.3982714
vt 0.8055078 0.3982714
vt 0.8423042 0.3881792
vt 0.7587155 0.3590238
vt 0.7587155 0.3590238
vt 0.7357017 0.4892145
vt 0.7559785 0.5654496
vt 0.8194646 0.5209273
vt 0.8070363 0.4805921
vt 0.8194646 0.5209273
vt 0.8070363 0.4805921
vt 0.8293458 0.4568713
vt 0.8293458 0.4568713
vt 0.7665262 0.4505661
vt 0.7357017 0.4892145
vt 0.7665262 0.4505661
vt 0.7098634 0.4379721
vt 0.7562479 0.4186936
vt 0.7562479 0.4186936
vt 0.6380742 0.3714074
vt 0.8055078 0.3982714
vt 0.8055078 0.3982714
vt 0.8423042 0.3881792
vt 0.7587155 0.3590238
vt 0.7587155 0.3590238
vt 0.7357123 0.4892564
vt 0.7560157 0.565593
vt 0.8195862 0.5210112
vt 0.8071412 0.4806226
vt 0.8195862 0.5210112
vt 0.8071412 0.4806226
vt 0.7665775 0.4505568
vt 0.7357123 0.4892564
vt 0.7665775 0.4505568
vt 0.7098393 0.4379461
vt 0.8294804 0.4568703
vt 0.8294804 0.4568703
vt 0.7562855 0.4186416
vt 0.7562855 0.4186416
vt 0.6379547 0.3712928
vt 0.8056107 0.3981923
vt 0.8056107 0.3981923
vt 0.8424562 0.3880872
vt 0.7587565 0.358893
vt 0.7587565 0.358893
vt 0.7357259 0.4893129
vt 0.7560658 0.5657862
vt 0.8197499 0.5211248
vt 0.8072828 0.4806637
vt 0.8197499 0.5211248
vt 0.8072828 0.4806637
vt 0.7666463 0.4505441
vt 0.7357259 0.4893129
vt 0.7666463 0.4505441
vt 0.7098068 0.4379112
vt 0.8296618 0.4568689
vt 0.8296618 0.4568689
vt 0.7563359 0.418572
vt 0.7563359 0.418572
vt 0.6377938 0.3711387
vt 0.8057495 0.3980862
vt 0.8057495 0.3980862
vt 0.8426608 0.3879626
vt 0.7588115 0.358716
vt 0.7588115 0.358716
vt 0.7357161 0.4892722
vt 0.8196312 0.5210425
vt 0.7560296 0.5656461
vt 0.7665964 0.4505533
vt 0.8071802 0.4806338
vt 0.8295302 0.4568701
vt 0.7562993 0.4186225
vt 0.7098303 0.4379362
vt 0.805649 0.3981633
vt 0.7587715 0.3588441
vt 0.6379104 0.3712506
vt 0.8425125 0.3880528
vt 0.7357017 0.4892145
vt 0.8194646 0.5209273
vt 0.7559785 0.5654496
vt 0.7665262 0.4505661
vt 0.8070363 0.4805921
vt 0.8293458 0.4568713
vt 0.7562479 0.4186936
vt 0.7098634 0.4379721
vt 0.8055078 0.3982714
vt 0.7587155 0.3590238
vt 0.6380742 0.3714074
vt 0.8423042 0.3881792
vt 0.7357017 0.4892145
vt 0.8194646 0.5209273
vt 0.7559785 0.5654496
vt 0.8070363 0.4805921
vt 0.8293458 0.4568713
vt 0.7665262 0.4505661
vt 0.7562479 0.4186936
vt 0.7098634 0.4379721
vt 0.8055078 0.3982714
vt 0.7587155 0.3590238
vt 0.6380742 0.3714074
vt 0.8423042 0.3881792
vt 0.7357123 0.4892564
vt 0.8195862 0.5210112
vt 0.7560157 0.565593
vt 0.8071412 0.4806226
vt 0.7665775 0.4505568
vt 0.8294804 0.4568703
vt 0.7562855 0.4186416
vt 0.7098393 0.4379461
vt 0.8056107 0.3981923
vt 0.7587565 0.358893
vt 0.6379547 0.3712928
vt 0.8424562 0.3880872
vt 0.7357259 0.4893129
vt 0.8197499 0.5211248
vt 0.7560658 0.5657862
vt 0.8072828 0.4806637
vt 0.7666463 0.4505441
vt 0.8296618 0.4568689
vt 0.7563359 0.418572
vt 0.7098068 0.4379112
vt 0.8057495 0.3980862
vt 0.7588115 0.358716
vt 0.6377938 0.3711387
vt 0.8426608 0.3879626
vn -0.3424841 0.8538602 -0.3919533
vn -0.000294343 0.9999995 -0.0009066646
vn -0.4680933 0.8606317 0.2005036
vn -0.08862954 0.9460026 -0.3118074
vn -0.3424841 -0.8538601 -0.3919534
vn -0.08862958 -0.9460027 -0.3118072
vn 0.7781493 2.752973E-07 -0.6280794
vn -0.3070454 0.8034852 0.510034
vn -0.4680934 -0.8606317 0.2005038
vn -0.3070454 -0.8034849 0.5100344
vn -0.3101088 0.7737785 0.5523579
vn -0.3101088 -0.7737783 0.5523583
vn 0.09677981 0.9807602 -0.1695381
vn 0.09677954 -0.9807602 -0.1695381
vn 0.09365788 3.236361E-07 -0.9956045
vn -0.4554991 0.8440829 0.2829216
vn -0.4554996 -0.8440827 0.2829216
vn -0.8739709 -8.362388E-07 0.4859782
vn -0.3962708 0.8963279 -0.1989114
vn -0.3962714 -0.8963276 -0.1989117
vn -0.4680933 0.8606317 0.2005036
vn -0.000294343 0.9999995 -0.0009066646
vn 0.04166397 0.8597573 0.5090006
vn -0.3214396 0.9467273 -0.01959493
vn -0.4680934 -0.8606317 0.2005038
vn -0.3214397 -0.9467273 -0.01959524
vn -0.3475259 3.211802E-07 -0.9376704
vn 0.3895307 0.7998275 0.4566638
vn 0.04166398 -0.8597574 0.5090004
vn 0.3895307 -0.7998274 0.4566639
vn 0.4268738 0.7716717 0.4714887
vn 0.4268738 -0.7716718 0.4714884
vn -0.1298841 0.9807601 -0.1457386
vn -0.1298845 -0.9807601 -0.1457385
vn -0.9139211 -3.236338E-07 -0.405892
vn 0.1231084 0.8440831 0.5218889
vn 0.123108 -0.844083 0.5218893
vn 0.1823082 -2.787503E-07 0.9832414
vn -0.3147666 0.8963275 0.3122803
vn -0.314767 -0.896327 0.3122813
vn 0.04166397 0.8597573 0.5090006
vn -0.000294343 0.9999995 -0.0009066646
vn 0.4945997 0.8605329 0.1218777
vn 0.556949 0.7998272 -0.2237949
vn 0.4945997 -0.8605331 0.1218773
vn 0.5569487 -0.7998272 -0.2237957
vn 0.5828956 0.7716715 -0.2544715
vn 0.5828955 -0.7716715 -0.254472
vn -0.1209549 0.9467274 0.2984581
vn 0.04166398 -0.8597574 0.5090004
vn -0.1209549 -0.9467276 0.2984574
vn -0.9995264 2.294145E-07 0.03077311
vn -0.1795171 0.9807602 0.07670106
vn -0.179517 -0.9807602 0.07670135
vn -0.6758435 -3.23637E-07 0.7370452
vn 0.5339211 0.8440825 0.04952689
vn 0.5339212 -0.8440824 0.04952767
vn 0.9901017 -1.881549E-06 0.1403515
vn 0.1957608 0.8963277 0.3978373
vn 0.1957611 -0.8963274 0.3978377
vn 0.4945997 0.8605329 0.1218777
vn -0.000294343 0.9999995 -0.0009066646
vn 0.2714738 0.8556758 -0.4405917
vn -0.03122134 0.7978004 -0.6021128
vn 0.2714737 -0.8556756 -0.440592
vn -0.0312212 -0.7978007 -0.6021125
vn 0.2435809 0.9471703 0.2086551
vn 0.4945997 -0.8605331 0.1218773
vn 0.2435809 -0.9471702 0.2086551
vn -0.2891828 3.211798E-07 0.957274
vn -0.05532755 0.7728488 -0.6321737
vn -0.05532745 -0.7728491 -0.6321735
vn 0.01552964 0.9807601 0.1945979
vn 0.01553002 -0.9807602 0.1945978
vn 0.4834066 -1.294537E-06 0.8753959
vn 0.2170052 0.8440827 -0.49034
vn 0.2170058 -0.8440825 -0.4903399
vn 0.4483991 -9.059322E-07 -0.8938335
vn 0.4394682 0.8963281 -0.05885243
vn 0.4394688 -0.8963277 -0.05885334
vn 0.2714738 0.8556758 -0.4405917
vn -0.000294343 0.9999995 -0.0009066646
vn -0.3424841 0.8538602 -0.3919533
vn -0.5807295 0.8000891 -0.1503685
vn -0.3424841 -0.8538601 -0.3919534
vn -0.5807294 -0.8000891 -0.1503691
vn 0.2708788 0.9467507 -0.1740338
vn 0.2714737 -0.8556756 -0.440592
vn 0.2708787 -0.9467506 -0.1740341
vn 0.8277493 4.588281E-07 0.5610982
vn -0.6175289 0.7748296 -0.1352672
vn -0.6175289 -0.7748295 -0.1352677
vn 0.1903954 0.9807601 0.04311749
vn 0.1903956 -0.9807601 0.04311668
vn 0.9796281 -9.709062E-07 -0.2008204
vn -0.4034849 0.8440832 -0.3531623
vn -0.4034848 -0.8440831 -0.3531627
vn -0.719784 -4.18124E-07 -0.694198
vn 0.07467037 0.8963271 -0.4370607
vn 0.07467049 -0.8963262 -0.4370624
vn -0.3424841 -0.8538601 -0.3919534
vn -0.4680934 -0.8606317 0.2005038
vn -0.0002943325 -0.9999995 -0.0009067992
vn -0.08862958 -0.9460027 -0.3118072
vn -0.3070454 -0.8034849 0.5100344
vn -0.3101088 -0.7737783 0.5523583
vn 0.09677954 -0.9807602 -0.1695381
vn 0.7781493 2.752973E-07 -0.6280794
vn -0.4554996 -0.8440827 0.2829216
vn -0.3962714 -0.8963276 -0.1989117
vn 0.09365788 3.236361E-07 -0.9956045
vn -0.8739709 -8.362388E-07 0.4859782
vn -0.4680934 -0.8606317 0.2005038
vn 0.04166398 -0.8597574 0.5090004
vn -0.0002943325 -0.9999995 -0.0009067992
vn -0.3214397 -0.9467273 -0.01959524
vn 0.3895307 -0.7998274 0.4566639
vn 0.4268738 -0.7716718 0.4714884
vn -0.1298845 -0.9807601 -0.1457385
vn -0.3475259 3.211802E-07 -0.9376704
vn 0.123108 -0.844083 0.5218893
vn -0.314767 -0.896327 0.3122813
vn -0.9139211 -3.236338E-07 -0.405892
vn 0.1823082 -2.787503E-07 0.9832414
vn 0.04166398 -0.8597574 0.5090004
vn 0.4945997 -0.8605331 0.1218773
vn -0.0002943325 -0.9999995 -0.0009067992
vn 0.5569487 -0.7998272 -0.2237957
vn 0.5828955 -0.7716715 -0.254472
vn -0.1209549 -0.9467276 0.2984574
vn -0.179517 -0.9807602 0.07670135
vn -0.9995264 2.294145E-07 0.03077311
vn 0.5339212 -0.8440824 0.04952767
vn 0.1957611 -0.8963274 0.3978377
vn -0.6758435 -3.23637E-07 0.7370452
vn 0.9901017 -1.881549E-06 0.1403515
vn 0.4945997 -0.8605331 0.1218773
vn 0.2714737 -0.8556756 -0.440592
vn -0.0002943325 -0.9999995 -0.0009067992
vn -0.0312212 -0.7978007 -0.6021125
vn 0.2435809 -0.9471702 0.2086551
vn -0.05532745 -0.7728491 -0.6321735
vn 0.01553002 -0.9807602 0.1945978
vn -0.2891828 3.211798E-07 0.957274
vn 0.2170058 -0.8440825 -0.4903399
vn 0.4394688 -0.8963277 -0.05885334
vn 0.4834066 -1.294537E-06 0.8753959
vn 0.4483991 -9.059322E-07 -0.8938335
vn 0.2714737 -0.8556756 -0.440592
vn -0.3424841 -0.8538601 -0.3919534
vn -0.0002943325 -0.9999995 -0.0009067992
vn -0.5807294 -0.8000891 -0.1503691
vn 0.2708787 -0.9467506 -0.1740341
vn -0.6175289 -0.7748295 -0.1352677
vn 0.1903956 -0.9807601 0.04311668
vn 0.8277493 4.588281E-07 0.5610982
vn -0.4034848 -0.8440831 -0.3531627
vn 0.07467049 -0.8963262 -0.4370624
vn 0.9796281 -9.709062E-07 -0.2008204
vn -0.719784 -4.18124E-07 -0.694198
g GlaiveLvl1_0
f 3/3/3 2/2/2 1/1/1
f 3/3/3 1/1/1 4/4/4
f 1/1/1 5/5/5 4/4/4
f 5/5/5 6/6/6 4/4/4
f 4/4/4 6/6/6 7/7/7
f 4/4/4 8/8/8 3/3/3
f 9/9/9 3/3/3 8/8/8
f 10/10/10 9/9/9 8/8/8
f 10/10/10 8/8/8 11/11/11
f 8/8/8 4/4/4 11/11/11
f 12/12/12 10/10/10 11/11/11
f 4/4/4 7/7/7 13/13/13
f 11/11/11 4/4/4 13/13/13
f 14/14/14 13/13/13 7/7/7
f 13/13/13 14/14/14 15/15/15
f 12/12/12 11/11/11 16/16/16
f 16/16/16 11/11/11 13/13/13
f 17/17/17 12/12/12 16/16/16
f 17/17/17 16/16/16 18/18/18
f 19/19/19 13/13/13 15/15/15
f 19/19/19 16/16/16 13/13/13
f 19/19/19 18/18/18 16/16/16
f 20/20/20 19/19/19 15/15/15
f 19/19/19 20/20/20 18/18/18
f 23/23/23 22/22/22 21/21/21
f 23/23/23 21/21/21 24/24/24
f 21/21/21 25/25/25 24/24/24
f 25/25/25 26/26/26 24/24/24
f 24/24/24 26/26/26 27/27/27
f 24/24/24 28/28/28 23/23/23
f 29/29/29 23/23/23 28/28/28
f 30/30/30 29/29/29 28/28/28
f 30/30/30 28/28/28 31/31/31
f 24/24/24 31/31/31 28/28/28
f 32/32/32 30/30/30 31/31/31
f 24/24/24 27/27/27 33/33/33
f 31/31/31 24/24/24 33/33/33
f 34/34/34 33/33/33 27/27/27
f 33/33/33 34/34/34 35/35/35
f 32/32/32 31/31/31 36/36/36
f 36/36/36 31/31/31 33/33/33
f 37/37/37 32/32/32 36/36/36
f 37/37/37 36/36/36 38/38/38
f 39/39/39 33/33/33 35/35/35
f 39/39/39 36/36/36 33/33/33
f 39/39/39 38/38/38 36/36/36
f 40/40/40 39/39/39 35/35/35
f 39/39/39 40/40/40 38/38/38
f 43/43/43 42/42/42 41/41/41
f 44/44/44 43/43/43 41/41/41
f 45/45/45 43/43/43 44/44/44
f 46/46/46 45/45/45 44/44/44
f 46/46/46 44/44/44 47/47/47
f 41/41/41 47/47/47 44/44/44
f 48/48/48 46/46/46 47/47/47
f 41/41/41 49/49/49 47/47/47
f 41/41/41 50/50/50 49/49/49
f 50/50/50 51/51/51 49/49/49
f 49/49/49 51/51/51 52/52/52
f 49/49/49 52/52/52 53/53/53
f 47/47/47 49/49/49 53/53/53
f 54/54/54 53/53/53 52/52/52
f 53/53/53 54/54/54 55/55/55
f 48/48/48 47/47/47 56/56/56
f 56/56/56 47/47/47 53/53/53
f 57/57/57 48/48/48 56/56/56
f 57/57/57 56/56/56 58/58/58
f 59/59/59 53/53/53 55/55/55
f 59/59/59 56/56/56 53/53/53
f 59/59/59 58/58/58 56/56/56
f 60/60/60 59/59/59 55/55/55
f 59/59/59 60/60/60 58/58/58
f 63/63/63 62/62/62 61/61/61
f 64/64/64 63/63/63 61/61/61
f 65/65/65 63/63/63 64/64/64
f 66/66/66 65/65/65 64/64/64
f 61/61/61 67/67/67 64/64/64
f 61/61/61 68/68/68 67/67/67
f 68/68/68 69/69/69 67/67/67
f 67/67/67 69/69/69 70/70/70
f 66/66/66 64/64/64 71/71/71
f 71/71/71 64/64/64 67/67/67
f 72/72/72 66/66/66 71/71/71
f 67/67/67 70/70/70 73/73/73
f 71/71/71 67/67/67 73/73/73
f 74/74/74 73/73/73 70/70/70
f 73/73/73 74/74/74 75/75/75
f 72/72/72 71/71/71 76/76/76
f 76/76/76 71/71/71 73/73/73
f 77/77/77 72/72/72 76/76/76
f 77/77/77 76/76/76 78/78/78
f 79/79/79 73/73/73 75/75/75
f 79/79/79 76/76/76 73/73/73
f 79/79/79 78/78/78 76/76/76
f 80/80/80 79/79/79 75/75/75
f 79/79/79 80/80/80 78/78/78
f 83/83/83 82/82/82 81/81/81
f 84/84/84 83/83/83 81/81/81
f 85/85/85 83/83/83 84/84/84
f 86/86/86 85/85/85 84/84/84
f 84/84/84 81/81/81 87/87/87
f 81/81/81 88/88/88 87/87/87
f 88/88/88 89/89/89 87/87/87
f 87/87/87 89/89/89 90/90/90
f 86/86/86 84/84/84 91/91/91
f 87/87/87 91/91/91 84/84/84
f 92/92/92 86/86/86 91/91/91
f 87/87/87 90/90/90 93/93/93
f 91/91/91 87/87/87 93/93/93
f 94/94/94 93/93/93 90/90/90
f 93/93/93 94/94/94 95/95/95
f 92/92/92 91/91/91 96/96/96
f 96/96/96 91/91/91 93/93/93
f 97/97/97 92/92/92 96/96/96
f 97/97/97 96/96/96 98/98/98
f 99/99/99 93/93/93 95/95/95
f 99/99/99 96/96/96 93/93/93
f 99/99/99 98/98/98 96/96/96
f 100/100/100 99/99/99 95/95/95
f 99/99/99 100/100/100 98/98/98
f 103/103/103 102/102/102 101/101/101
f 104/104/104 101/101/101 102/102/102
f 102/102/102 105/105/105 104/104/104
f 104/104/104 105/105/105 106/106/106
f 104/104/104 106/106/106 107/107/107
f 108/108/108 104/104/104 107/107/107
f 106/106/106 109/109/109 107/107/107
f 109/109/109 110/110/110 107/107/107
f 107/107/107 110/110/110 111/111/111
f 112/112/112 110/110/110 109/109/109
f 115/115/115 114/114/114 113/113/113
f 116/116/116 113/113/113 114/114/114
f 114/114/114 117/117/117 116/116/116
f 117/117/117 118/118/118 116/116/116
f 116/116/116 118/118/118 119/119/119
f 120/120/120 116/116/116 119/119/119
f 118/118/118 121/121/121 119/119/119
f 121/121/121 122/122/122 119/119/119
f 119/119/119 122/122/122 123/123/123
f 124/124/124 122/122/122 121/121/121
f 127/127/127 126/126/126 125/125/125
f 125/125/125 126/126/126 128/128/128
f 128/128/128 129/129/129 125/125/125
f 129/129/129 130/130/130 125/125/125
f 130/130/130 129/129/129 131/131/131
f 132/132/132 130/130/130 131/131/131
f 129/129/129 133/133/133 131/131/131
f 133/133/133 134/134/134 131/131/131
f 131/131/131 134/134/134 135/135/135
f 136/136/136 134/134/134 133/133/133
f 139/139/139 138/138/138 137/137/137
f 137/137/137 138/138/138 140/140/140
f 140/140/140 141/141/141 137/137/137
f 140/140/140 142/142/142 141/141/141
f 141/141/141 142/142/142 143/143/143
f 144/144/144 141/141/141 143/143/143
f 142/142/142 145/145/145 143/143/143
f 145/145/145 146/146/146 143/143/143
f 143/143/143 146/146/146 147/147/147
f 148/148/148 146/146/146 145/145/145
f 151/151/151 150/150/150 149/149/149
f 149/149/149 150/150/150 152/152/152
f 153/153/153 149/149/149 152/152/152
f 152/152/152 154/154/154 153/153/153
f 153/153/153 154/154/154 155/155/155
f 156/156/156 153/153/153 155/155/155
f 154/154/154 157/157/157 155/155/155
f 157/157/157 158/158/158 155/155/155
f 155/155/155 158/158/158 159/159/159
f 160/160/160 158/158/158 157/157/157
