g GloveDarkL
v 8.257769 8.24136 -1.299779
v 8.222026 8.191352 1.225169
v 9.488623 9.136224 0.9624346
v 9.467143 9.136224 -1.66906
v 7.329507 10.53672 -1.137857
v 7.552966 8.686423 -1.162676
v 9.454726 10.63167 -1.643103
v 7.129524 10.56352 0.9407138
v 11.11902 9.555099 -0.4670054
v 10.60144 9.547718 0.7385448
v 9.460527 10.67132 1.112105
v 10.62899 10.41221 1.074998
v 11.1359 10.39211 -0.2975366
v 10.46617 9.56248 -1.672555
v 10.47062 10.37201 -1.670071
v 10.47062 10.37201 -1.670071
v 11.1359 10.39211 -0.2975366
v 9.460527 10.67132 1.112105
v 8.200518 9.136224 1.466561
v 10.62899 10.41221 1.074998
v 7.414812 8.690449 1.123075
v 8.222026 8.191352 1.225169
v 9.273452 8.157058 1.891934
v 9.488623 9.136224 0.9624346
v 9.267439 8.693343 1.893692
v 9.702044 8.729258 1.510423
v 8.222026 8.191352 1.225169
v 9.273452 8.157058 1.891934
v 7.414812 8.690449 1.123075
v 8.222026 8.191352 1.225169
v 8.257769 8.24136 -1.299779
v 7.552966 8.686423 -1.162676
v 7.129524 10.56352 0.9407138
v 6.613762 10.56352 0.9407138
v 6.813745 10.53672 -1.137857
v 7.329507 10.53672 -1.137857
v 7.552966 8.686423 -1.162676
v 7.037204 8.781843 -1.162676
v 6.89905 8.864184 1.123075
v 7.414812 8.690449 1.123075
v 7.414812 8.690449 1.123075
v 6.89905 8.864184 1.123075
v 6.613762 10.56352 0.9407138
v 7.129524 10.56352 0.9407138
v 7.329507 10.53672 -1.137857
v 6.813745 10.53672 -1.137857
v 7.037204 8.781843 -1.162676
v 7.552966 8.686423 -1.162676
v 6.813745 10.53672 -1.137857
v 6.613762 10.56352 0.9407138
v 6.89905 8.864184 1.123075
v 7.037204 8.781843 -1.162676
vt 0.6044974 0.5926486
vt 0.535462 0.611129
vt 0.5545253 0.6512892
vt 0.6249354 0.6296047
vt 0.6734787 0.5748508
vt 0.6150376 0.5628374
vt 0.66409 0.6329526
vt 0.7373372 0.5710332
vt 0.6043686 0.6682523
vt 0.5739322 0.6779082
vt 0.5331286 0.6908763
vt 0.5684705 0.701792
vt 0.6032545 0.6916795
vt 0.6348051 0.6585963
vt 0.6414441 0.681567
vt 0.6576763 0.6601956
vt 0.6948969 0.6659337
vt 0.7365223 0.6377945
vt 0.7818804 0.6007274
vt 0.7321174 0.6716718
vt 0.7974527 0.5618089
vt 0.8205599 0.6048163
vt 0.8177752 0.6262908
vt 0.7666232 0.638786
vt 0.8035434 0.6288065
vt 0.7844281 0.6372789
vt 0.7958785 0.6780811
vt 0.8117932 0.6475668
vt 0.5542522 0.575842
vt 0.5593761 0.5853786
vt 0.5736592 0.5816828
vt 0.5680728 0.5721027
vt 0.5601404 0.5713953
vt 0.5601404 0.5830082
vt 0.5717533 0.5830082
vt 0.5717533 0.5713953
vt 0.5601404 0.5713953
vt 0.5601404 0.5830082
vt 0.5717533 0.5830082
vt 0.5717533 0.5713953
vt 0.5601404 0.5713953
vt 0.5601404 0.5830082
vt 0.5717533 0.5830082
vt 0.5717533 0.5713953
vt 0.5601404 0.5713953
vt 0.5601404 0.5830082
vt 0.5717533 0.5830082
vt 0.5717533 0.5713953
vt 0.6133547 0.5804163
vt 0.6134855 0.5832062
vt 0.61393 0.5805816
vt 0.6139157 0.5777498
vn 0.1529899 -0.8595659 -0.4875866
vn 0.1023616 -0.9751202 0.196628
vn 0.5535945 -0.6624994 0.5046064
vn 0.2896616 -0.7196997 -0.6309742
vn -0.09807087 0.9203325 -0.3786427
vn -0.4172344 -0.5582101 -0.717159
vn -0.04651756 0.9192218 -0.3909828
vn -0.03218232 0.9159541 0.3999905
vn 0.7710163 -0.6335297 -0.06460728
vn 0.5751174 -0.4172801 0.7036458
vn 0.05274116 0.8788725 0.4741324
vn 0.5328849 0.2316488 0.8138627
vn 0.7403021 0.672242 -0.006583848
vn 0.5104505 -0.2667274 -0.8174942
vn 0.4972551 0.3700185 -0.7847443
vn 0.4972551 0.3700185 -0.7847443
vn 0.7403021 0.672242 -0.006583848
vn 0.05274116 0.8788725 0.4741324
vn -0.1067047 0.1140305 0.9877303
vn 0.5328849 0.2316488 0.8138627
vn -0.4872333 -0.7076262 0.5117313
vn 0.1023616 -0.9751202 0.196628
vn 0.06522849 -0.9940837 0.08684997
vn 0.5535945 -0.6624994 0.5046064
vn -0.1185211 0.4145394 0.9022804
vn 0.8687996 -0.1773916 -0.4622981
vn 0.1023616 -0.9751202 0.196628
vn 0.06522849 -0.9940837 0.08684997
vn -0.4872333 -0.7076262 0.5117313
vn 0.1023616 -0.9751202 0.196628
vn 0.1529899 -0.8595659 -0.4875866
vn -0.4172344 -0.5582101 -0.717159
vn -0.03218232 0.9159541 0.3999905
vn -0.9845361 0.1235253 0.1242183
vn -0.9495012 0.1392439 -0.2811739
vn -0.09807087 0.9203325 -0.3786427
vn -0.4172344 -0.5582101 -0.717159
vn -0.8712986 -0.3879233 -0.30059
vn -0.9081894 -0.3608841 0.2120252
vn -0.4872333 -0.7076262 0.5117313
vn -0.4872333 -0.7076262 0.5117313
vn -0.9081894 -0.3608841 0.2120252
vn -0.9845361 0.1235253 0.1242183
vn -0.03218232 0.9159541 0.3999905
vn -0.09807087 0.9203325 -0.3786427
vn -0.9495012 0.1392439 -0.2811739
vn -0.8712986 -0.3879233 -0.30059
vn -0.4172344 -0.5582101 -0.717159
vn -0.9495012 0.1392439 -0.2811739
vn -0.9845361 0.1235253 0.1242183
vn -0.9081894 -0.3608841 0.2120252
vn -0.8712986 -0.3879233 -0.30059
g GloveDarkL_0
f 3/3/3 2/2/2 1/1/1
f 4/4/4 3/3/3 1/1/1
f 5/5/5 4/4/4 1/1/1
f 6/6/6 5/5/5 1/1/1
f 5/5/5 7/7/7 4/4/4
f 5/5/5 8/8/8 7/7/7
f 9/9/9 3/3/3 4/4/4
f 9/9/9 10/10/10 3/3/3
f 3/3/3 10/10/10 11/11/11
f 10/10/10 12/12/12 11/11/11
f 12/12/12 10/10/10 9/9/9
f 13/13/13 12/12/12 9/9/9
f 13/13/13 9/9/9 14/14/14
f 14/14/14 9/9/9 4/4/4
f 15/15/15 13/13/13 14/14/14
f 16/16/16 14/14/14 4/4/4
f 7/7/7 16/16/16 4/4/4
f 7/7/7 17/17/17 16/16/16
f 7/7/7 18/18/18 17/17/17
f 8/8/8 18/18/18 7/7/7
f 18/18/18 8/8/8 19/19/19
f 18/18/18 20/20/20 17/17/17
f 8/8/8 21/21/21 19/19/19
f 21/21/21 22/22/22 19/19/19
f 22/22/22 23/23/23 19/19/19
f 24/24/24 18/18/18 19/19/19
f 23/23/23 25/25/25 19/19/19
f 26/26/26 24/24/24 19/19/19
f 25/25/25 26/26/26 19/19/19
f 24/24/24 26/26/26 27/27/27
f 28/28/28 26/26/26 25/25/25
f 26/26/26 28/28/28 27/27/27
f 31/31/31 30/30/30 29/29/29
f 32/32/32 31/31/31 29/29/29
f 35/35/35 34/34/34 33/33/33
f 36/36/36 35/35/35 33/33/33
f 39/39/39 38/38/38 37/37/37
f 40/40/40 39/39/39 37/37/37
f 43/43/43 42/42/42 41/41/41
f 44/44/44 43/43/43 41/41/41
f 47/47/47 46/46/46 45/45/45
f 48/48/48 47/47/47 45/45/45
f 51/51/51 50/50/50 49/49/49
f 52/52/52 51/51/51 49/49/49
