g GloveYellowR
v -8.257769 8.24136 -1.299779
v -9.488622 9.136224 0.9624346
v -8.222026 8.191352 1.225169
v -9.467143 9.136224 -1.66906
v -7.329504 10.53672 -1.137857
v -7.552966 8.686423 -1.162676
v -9.454725 10.63167 -1.643103
v -7.129521 10.56352 0.9407138
v -11.11902 9.555099 -0.4670054
v -10.60144 9.547718 0.7385448
v -9.460526 10.67132 1.112105
v -10.62899 10.41221 1.074998
v -11.1359 10.39211 -0.2975366
v -10.46617 9.56248 -1.672555
v -10.47062 10.37201 -1.670071
v -10.47062 10.37201 -1.670071
v -11.1359 10.39211 -0.2975366
v -9.460526 10.67132 1.112105
v -8.200515 9.136224 1.466561
v -10.62899 10.41221 1.074998
v -7.414811 8.690449 1.123075
v -8.222026 8.191352 1.225169
v -9.273451 8.157058 1.891934
v -9.488622 9.136224 0.9624346
v -9.267438 8.693343 1.893692
v -9.702042 8.729258 1.510423
v -8.222026 8.191352 1.225169
v -9.273451 8.157058 1.891934
v -7.414811 8.690449 1.123075
v -7.552966 8.686423 -1.162676
v -8.257769 8.24136 -1.299779
v -8.222026 8.191352 1.225169
v -7.414811 8.690449 1.123075
v -6.899049 8.864184 1.123075
v -7.037204 8.781843 -1.162676
v -7.552966 8.686423 -1.162676
v -7.129521 10.56352 0.9407138
v -6.61376 10.56352 0.9407138
v -6.899049 8.864184 1.123075
v -7.414811 8.690449 1.123075
v -7.329504 10.53672 -1.137857
v -6.813743 10.53672 -1.137857
v -6.61376 10.56352 0.9407138
v -7.129521 10.56352 0.9407138
v -7.552966 8.686423 -1.162676
v -7.037204 8.781843 -1.162676
v -6.813743 10.53672 -1.137857
v -7.329504 10.53672 -1.137857
v -6.899049 8.864184 1.123075
v -6.61376 10.56352 0.9407138
v -6.813743 10.53672 -1.137857
v -7.037204 8.781843 -1.162676
vt 0.628897 0.3896589
vt 0.5789248 0.4482995
vt 0.5598615 0.4081393
vt 0.649335 0.426615
vt 0.6978782 0.3718611
vt 0.6394371 0.3598477
vt 0.6884895 0.4299629
vt 0.7617367 0.3680435
vt 0.6287681 0.4652626
vt 0.5983317 0.4749185
vt 0.5575281 0.4878866
vt 0.5928701 0.4988023
vt 0.627654 0.4886898
vt 0.6592046 0.4556066
vt 0.6658437 0.4785773
vt 0.6820759 0.457206
vt 0.7192964 0.462944
vt 0.7609218 0.4348048
vt 0.8062799 0.3977377
vt 0.7565169 0.4686821
vt 0.8218523 0.3588192
vt 0.8449594 0.4018266
vt 0.8421748 0.4233011
vt 0.7910227 0.4357963
vt 0.827943 0.4258168
vt 0.8088276 0.4342892
vt 0.820278 0.4750914
vt 0.8361927 0.4445771
vt 0.5786517 0.3728523
vt 0.5924723 0.369113
vt 0.5980588 0.3786931
vt 0.5837756 0.3823889
vt 0.5845399 0.3684056
vt 0.5845399 0.3800185
vt 0.5961528 0.3800185
vt 0.5961528 0.3684056
vt 0.5845399 0.3684056
vt 0.5845399 0.3800185
vt 0.5961528 0.3800185
vt 0.5961528 0.3684056
vt 0.5845399 0.3684056
vt 0.5845399 0.3800185
vt 0.5961528 0.3800185
vt 0.5961528 0.3684056
vt 0.5845399 0.3684056
vt 0.5845399 0.3800185
vt 0.5961528 0.3800185
vt 0.5961528 0.3684056
vt 0.6376933 0.3775928
vt 0.6381469 0.3802159
vt 0.6382681 0.3774254
vt 0.6376978 0.374761
vn -0.1529898 -0.8595657 -0.4875869
vn -0.5535945 -0.662499 0.504607
vn -0.1023616 -0.9751203 0.1966278
vn -0.2896616 -0.7196996 -0.6309744
vn 0.09807081 0.9203326 -0.3786424
vn 0.4172341 -0.5582101 -0.717159
vn 0.04651748 0.9192219 -0.3909823
vn 0.03218229 0.9159542 0.3999903
vn -0.7710162 -0.6335298 -0.06460755
vn -0.5751168 -0.4172804 0.703646
vn -0.05274113 0.8788725 0.4741324
vn -0.532885 0.231649 0.8138627
vn -0.7403018 0.6722425 -0.006583572
vn -0.51045 -0.2667271 -0.8174946
vn -0.4972547 0.3700182 -0.7847447
vn -0.4972547 0.3700182 -0.7847447
vn -0.7403018 0.6722425 -0.006583572
vn -0.05274113 0.8788725 0.4741324
vn 0.1067047 0.1140304 0.9877303
vn -0.532885 0.231649 0.8138627
vn 0.4872333 -0.7076267 0.5117307
vn -0.1023616 -0.9751203 0.1966278
vn -0.06522857 -0.9940836 0.08685101
vn -0.5535945 -0.662499 0.504607
vn 0.1185209 0.4145396 0.9022803
vn -0.8688003 -0.17739 -0.4622973
vn -0.1023616 -0.9751203 0.1966278
vn -0.06522857 -0.9940836 0.08685101
vn 0.4872333 -0.7076267 0.5117307
vn 0.4172341 -0.5582101 -0.717159
vn -0.1529898 -0.8595657 -0.4875869
vn -0.1023616 -0.9751203 0.1966278
vn 0.4872333 -0.7076267 0.5117307
vn 0.9081891 -0.3608848 0.2120249
vn 0.8712982 -0.3879241 -0.3005902
vn 0.4172341 -0.5582101 -0.717159
vn 0.03218229 0.9159542 0.3999903
vn 0.9845362 0.1235244 0.1242179
vn 0.9081891 -0.3608848 0.2120249
vn 0.4872333 -0.7076267 0.5117307
vn 0.09807081 0.9203326 -0.3786424
vn 0.9495012 0.139243 -0.2811739
vn 0.9845362 0.1235244 0.1242179
vn 0.03218229 0.9159542 0.3999903
vn 0.4172341 -0.5582101 -0.717159
vn 0.8712982 -0.3879241 -0.3005902
vn 0.9495012 0.139243 -0.2811739
vn 0.09807081 0.9203326 -0.3786424
vn 0.9081891 -0.3608848 0.2120249
vn 0.9845362 0.1235244 0.1242179
vn 0.9495012 0.139243 -0.2811739
vn 0.8712982 -0.3879241 -0.3005902
g GloveYellowR_0
f 3/3/3 2/2/2 1/1/1
f 2/2/2 4/4/4 1/1/1
f 4/4/4 5/5/5 1/1/1
f 5/5/5 6/6/6 1/1/1
f 7/7/7 5/5/5 4/4/4
f 8/8/8 5/5/5 7/7/7
f 2/2/2 9/9/9 4/4/4
f 2/2/2 10/10/10 9/9/9
f 10/10/10 2/2/2 11/11/11
f 12/12/12 10/10/10 11/11/11
f 10/10/10 12/12/12 13/13/13
f 9/9/9 10/10/10 13/13/13
f 9/9/9 13/13/13 14/14/14
f 9/9/9 14/14/14 4/4/4
f 13/13/13 15/15/15 14/14/14
f 14/14/14 16/16/16 4/4/4
f 16/16/16 7/7/7 4/4/4
f 17/17/17 7/7/7 16/16/16
f 17/17/17 18/18/18 7/7/7
f 18/18/18 8/8/8 7/7/7
f 8/8/8 18/18/18 19/19/19
f 17/17/17 20/20/20 18/18/18
f 21/21/21 8/8/8 19/19/19
f 22/22/22 21/21/21 19/19/19
f 23/23/23 22/22/22 19/19/19
f 18/18/18 24/24/24 19/19/19
f 25/25/25 23/23/23 19/19/19
f 24/24/24 26/26/26 19/19/19
f 26/26/26 25/25/25 19/19/19
f 26/26/26 24/24/24 27/27/27
f 26/26/26 28/28/28 25/25/25
f 28/28/28 26/26/26 27/27/27
f 31/31/31 30/30/30 29/29/29
f 32/32/32 31/31/31 29/29/29
f 35/35/35 34/34/34 33/33/33
f 36/36/36 35/35/35 33/33/33
f 39/39/39 38/38/38 37/37/37
f 40/40/40 39/39/39 37/37/37
f 43/43/43 42/42/42 41/41/41
f 44/44/44 43/43/43 41/41/41
f 47/47/47 46/46/46 45/45/45
f 48/48/48 47/47/47 45/45/45
f 51/51/51 50/50/50 49/49/49
f 52/52/52 51/51/51 49/49/49
