g GoldenRedCapeGEO
v -4.312488 0.1469061 -1.476054
v -2.686651 -0.00812903 0.1536468
v -4.159274 -0.1077631 -1.547994
v -4.159274 -0.1077631 -1.547994
v -2.686651 -0.00812903 0.1536468
v -3.611773 -0.1077631 -1.53813
v -3.611773 -0.1077631 -1.53813
v -2.686651 -0.00812903 0.1536468
v 0.004430932 -0.1077631 0.2434546
v 0.01154851 -0.1077631 -1.788574
v 2.706455 -0.008440526 0.1545689
v 0.0211544 -0.1077631 -4.532835
v 3.651932 -0.1077631 -1.53813
v 4.2173 -0.1077631 -1.552464
v 4.376104 0.1460889 -1.475774
v 4.205278 -0.1077631 -4.174091
v -4.22207 -0.1077631 -4.174091
v -4.159274 -0.1077631 -1.547994
v 5.160706 -0.1077631 -3.769592
v 4.376104 0.1460889 -1.475774
v 5.325195 0.1446104 -3.723296
v 6.061362 -0.1077631 -6.771605
v 5.325195 0.1446104 -3.723296
v 6.219551 0.1434946 -6.701972
v 4.413549 -0.1077631 -7.158971
v 4.776476 -0.1077631 -9.808242
v 6.894061 -0.1077631 -9.675767
v 6.219551 0.1434946 -6.701972
v 7.049248 0.1455547 -9.584944
v 6.79579 -0.1077631 -11.02504
v 6.372448 -0.1077631 -11.78063
v 0.02659787 -0.1077631 -7.443708
v 4.968244 -0.1077631 -12.41316
v 6.507273 0.1658775 -11.83698
v 4.968797 0.1763817 -12.52967
v 0.04297067 -0.1077631 -12.4392
v 4.968797 0.1763817 -12.52967
v 0.008844264 0.1765783 -12.5464
v 0.04176767 -0.1077631 -9.904757
v -5.00315 -0.1077631 -11.56529
v -5.073966 0.1748833 -11.66416
v -4.524512 -0.1077631 -6.927944
v -4.767814 -0.1077631 -9.256633
v -6.269797 -0.1077631 -10.63461
v -6.593926 -0.1077631 -9.80165
v -5.789797 -0.1077631 -6.357296
v -6.374567 -0.1077631 -8.479385
v -6.75942 0.1479201 -9.756075
v -6.526319 0.1471382 -8.381097
v -6.526319 0.1471382 -8.381097
v -5.932428 0.1461499 -6.244775
v -5.079275 -0.1077631 -3.766059
v -5.932428 0.1461499 -6.244775
v -5.242805 0.1454782 -3.723455
v -5.242805 0.1454782 -3.723455
v -4.312488 0.1469061 -1.476054
v 6.372448 -0.1077631 -11.78063
v 6.79579 -0.1077631 -11.02504
v 6.971601 0.1511414 -11.01131
v 6.507273 0.1658775 -11.83698
v 7.049248 0.1455547 -9.584944
v 6.971601 0.1511414 -11.01131
v 6.79579 -0.1077631 -11.02504
v 6.894061 -0.1077631 -9.675767
v -5.073966 0.1748833 -11.66416
v -6.269797 -0.1077631 -10.63461
v -5.00315 -0.1077631 -11.56529
v -6.428542 0.1631383 -10.66902
v -6.275977 0.4901009 -10.33522
v -4.957096 0.4901009 -11.31979
v -4.957096 0.4901009 -11.31979
v 0.008844264 0.1765783 -12.5464
v 0.01186277 0.4901009 -12.18419
v 4.968797 0.1763817 -12.52967
v 0.01186277 0.4901009 -12.18419
v 4.86125 0.4901009 -12.1676
v 6.507273 0.1658775 -11.83698
v 0.04176767 0.690375 -9.904757
v 4.776476 0.690375 -9.808242
v -4.957096 0.4901009 -11.31979
v 6.36079 0.4901009 -11.47903
v 6.971601 0.1511414 -11.01131
v 6.807457 0.4901009 -10.89824
v 7.049248 0.1455547 -9.584944
v 6.880568 0.4901009 -9.504906
v 6.219551 0.1434946 -6.701972
v 6.070274 0.4901009 -6.692307
v 5.325195 0.1446104 -3.723296
v -4.767814 0.690375 -9.256633
v 5.198029 0.4901009 -3.786621
v 4.376104 0.1460889 -1.475774
v 4.271138 0.4901009 -1.593656
v 2.706455 -0.008440526 0.1545689
v 2.620246 0.4901009 0.2434546
v 4.204673 0.690375 -4.174091
v 3.649402 0.690375 -1.53813
v 0.004504937 0.6903738 0.2434546
v 0.01165797 0.690375 -1.788574
v -2.591638 0.4901009 0.2434546
v 4.413549 0.690375 -7.158971
v 0.02117742 0.690375 -4.532835
v 0.02659787 0.690375 -7.443708
v -3.609197 0.690375 -1.53813
v -4.22207 0.690375 -4.174091
v -4.524512 0.690375 -6.927944
v -4.202738 0.4901009 -1.593656
v -5.784229 0.4901009 -6.246332
v -4.312488 0.1469061 -1.476054
v -2.686651 -0.00812903 0.1536468
v -5.242805 0.1454782 -3.723455
v -5.111064 0.4901009 -3.786621
v -5.932428 0.1461499 -6.244775
v -6.526319 0.1471382 -8.381097
v -6.364092 0.4901009 -8.330695
v -6.75942 0.1479201 -9.756075
v -6.591898 0.4901009 -9.672421
v -6.428542 0.1631383 -10.66902
v -6.428542 0.1631383 -10.66902
v -6.75942 0.1479201 -9.756075
v -6.593926 -0.1077631 -9.80165
v -6.269797 -0.1077631 -10.63461
vt 0.7922045 0.01905244
vt 0.766468 0.02786153
vt 0.7922045 0.02021509
vt 0.7922045 0.02021509
vt 0.766468 0.02786153
vt 0.7922045 0.02016723
vt 0.7922045 0.02016723
vt 0.766468 0.02786153
vt 0.7632233 0.07998114
vt 0.7922045 0.07998115
vt 0.7646996 0.1282915
vt 0.8134645 0.07998115
vt 0.7922045 0.1371948
vt 0.7922045 0.1372307
vt 0.7922045 0.1382819
vt 0.8134645 0.1368468
vt 0.8134645 0.02224296
vt 0.7922045 0.02021509
vt 0.8134645 0.1403203
vt 0.7922045 0.1392912
vt 0.8134645 0.1420648
vt 0.8504127 0.1453829
vt 0.8134645 0.1421081
vt 0.8504127 0.146873
vt 0.8504127 0.1365492
vt 0.923429 0.1361886
vt 0.923429 0.1447538
vt 0.8504127 0.146663
vt 0.923429 0.1460818
vt 0.9415022 0.1428609
vt 0.949605 0.1410913
vt 0.8504127 0.07998115
vt 0.9581317 0.1317127
vt 0.9506662 0.1417233
vt 0.9592065 0.132443
vt 0.9675018 0.07998116
vt 0.9595112 0.1317971
vt 0.9688966 0.07998116
vt 0.923429 0.07998115
vt 0.9604091 0.03170395
vt 0.961751 0.03104043
vt 0.8504127 0.02395999
vt 0.923429 0.02522415
vt 0.9517834 0.0191412
vt 0.9439357 0.01551491
vt 0.8504127 0.01538718
vt 0.923429 0.01409662
vt 0.9440104 0.01388884
vt 0.923429 0.01238841
vt 0.923429 0.01236385
vt 0.8504127 0.0135693
vt 0.8134645 0.01881337
vt 0.8504127 0.01359314
vt 0.8134645 0.01686388
vt 0.8134645 0.01688224
vt 0.7922045 0.01810854
vt 0.9527866 0.143453
vt 0.9442385 0.144626
vt 0.9423993 0.1448855
vt 0.9534237 0.1433656
vt 0.923429 0.1467846
vt 0.9423993 0.1448855
vt 0.942098 0.1448705
vt 0.923429 0.146564
vt 0.9658599 0.03011352
vt 0.9567749 0.01702303
vt 0.9657112 0.0298993
vt 0.9562372 0.01624829
vt 0.9562372 0.01624829
vt 0.9658599 0.03011346
vt 0.9658599 0.03011346
vt 0.973113 0.07998116
vt 0.973113 0.07998116
vt 0.9632099 0.1330054
vt 0.973113 0.07998116
vt 0.9632099 0.1330054
vt 0.9534237 0.1433656
vt 0.923429 0.07998115
vt 0.923429 0.1361886
vt 0.9658599 0.03011346
vt 0.9534237 0.1433656
vt 0.9423993 0.1448855
vt 0.9423993 0.1448855
vt 0.923429 0.1467846
vt 0.923429 0.1467846
vt 0.8504127 0.1477917
vt 0.8504127 0.1477917
vt 0.8134645 0.1431239
vt 0.923429 0.02522415
vt 0.8134645 0.1431239
vt 0.7922045 0.1401618
vt 0.7922045 0.1401618
vt 0.7630368 0.1278157
vt 0.7630368 0.1278157
vt 0.8134645 0.1368468
vt 0.7922045 0.1371948
vt 0.7632233 0.07998114
vt 0.7922045 0.07998115
vt 0.7647213 0.02825296
vt 0.8504127 0.1365492
vt 0.8134645 0.07998115
vt 0.8504127 0.07998115
vt 0.7922045 0.02016723
vt 0.8134645 0.02224296
vt 0.8504127 0.02395999
vt 0.7922045 0.01708102
vt 0.8504127 0.01246375
vt 0.7922045 0.01708102
vt 0.7647213 0.02825296
vt 0.8134645 0.01569539
vt 0.8134645 0.01569539
vt 0.8504127 0.01246375
vt 0.923429 0.01130545
vt 0.923429 0.01130545
vt 0.9453806 0.01270312
vt 0.9453806 0.01270312
vt 0.9562372 0.01624829
vt 0.9562372 0.01624829
vt 0.9453806 0.01270312
vt 0.9470207 0.01323867
vt 0.9555694 0.01603025
vn -0.8423592 0.08444294 0.5322596
vn -0.1163665 -0.8283442 0.5480008
vn -0.2054071 -0.9111029 0.3573508
vn -0.2054071 -0.9111029 0.3573508
vn -0.1163665 -0.8283442 0.5480008
vn 0.003493869 -0.9618935 0.2734021
vn 0.003493869 -0.9618935 0.2734021
vn -0.1163665 -0.8283442 0.5480008
vn -4.835861E-05 -0.8864169 0.4628879
vn 4.599317E-07 -0.9570792 0.2898264
vn 0.114438 -0.8281621 0.5486816
vn 0.0002265144 -0.9902583 0.1392424
vn -0.003409772 -0.9617074 0.274057
vn 0.1927062 -0.9157761 0.3524462
vn 0.8351254 0.07262588 0.545244
vn -0.004571334 -0.9906448 0.1363892
vn 0.005583638 -0.9904051 0.1380822
vn -0.2054071 -0.9111029 0.3573508
vn 0.1757966 -0.9638962 0.1999994
vn 0.8351254 0.07262588 0.545244
vn 0.9388871 -0.03163035 0.3427688
vn 0.1358446 -0.9832965 0.1211369
vn 0.9388871 -0.03163035 0.3427688
vn 0.9571666 -0.04127894 0.2865799
vn -0.0009362824 -0.9965879 0.08253266
vn 2.056418E-05 -0.9974883 0.07083299
vn 0.1617559 -0.9824623 0.09275129
vn 0.9571666 -0.04127894 0.2865799
vn 0.9841674 -0.04723468 0.1708316
vn 0.2370719 -0.971482 0.004429165
vn 0.1526885 -0.9771203 -0.1480612
vn 0.000144754 -0.9965441 0.08306599
vn 0.01466765 -0.9982232 -0.0577516
vn 0.5410222 0.3195018 -0.7779546
vn 0.09999205 0.3002801 -0.9485956
vn -0.009579814 -0.9989004 -0.04589269
vn 0.09999205 0.3002801 -0.9485956
vn -0.07983939 0.3077541 -0.9481103
vn -1.758748E-05 -0.9974732 0.07104418
vn -0.03724821 -0.9973864 -0.06190998
vn -0.2594079 0.3156257 -0.9127365
vn 0.001411549 -0.9965106 0.08345455
vn -0.0001661369 -0.9975063 0.07057817
vn -0.2162999 -0.9663245 -0.139396
vn -0.2910534 -0.9556619 0.0447015
vn -0.1515 -0.9802282 0.1272808
vn -0.1607801 -0.9814916 0.1040387
vn -0.9987854 0.01298902 -0.04752744
vn -0.9724167 -0.03721232 0.2302627
vn -0.9724167 -0.03721232 0.2302627
vn -0.9618583 -0.03857021 0.2708151
vn -0.1954792 -0.9572317 0.2132962
vn -0.9618583 -0.03857021 0.2708151
vn -0.9435923 -0.02020994 0.3304922
vn -0.9435923 -0.02020994 0.3304922
vn -0.8423592 0.08444294 0.5322596
vn 0.1526885 -0.9771203 -0.1480612
vn 0.2370719 -0.971482 0.004429165
vn 0.9682772 0.04824374 -0.2451771
vn 0.5410222 0.3195018 -0.7779546
vn 0.9841674 -0.04723468 0.1708316
vn 0.9682772 0.04824374 -0.2451771
vn 0.2370719 -0.971482 0.004429165
vn 0.1617559 -0.9824623 0.09275129
vn -0.2594079 0.3156257 -0.9127365
vn -0.2162999 -0.9663245 -0.139396
vn -0.03724821 -0.9973864 -0.06190998
vn -0.6863781 0.2834426 -0.6697354
vn -0.2821535 0.9086792 -0.3077197
vn -0.05823756 0.9560093 -0.287497
vn -0.05823756 0.9560093 -0.287497
vn -0.07983939 0.3077541 -0.9481103
vn -0.01672271 0.9613393 -0.2748583
vn 0.09999205 0.3002801 -0.9485956
vn -0.01672271 0.9613393 -0.2748583
vn 0.02001381 0.9575037 -0.2877257
vn 0.5410222 0.3195018 -0.7779546
vn -0.003359687 0.9932274 -0.1161379
vn 0.02256605 0.9944517 -0.1027449
vn -0.05823756 0.9560093 -0.287497
vn 0.1911329 0.9271306 -0.3223307
vn 0.9682772 0.04824374 -0.2451771
vn 0.3823173 0.9104899 -0.1576125
vn 0.9841674 -0.04723468 0.1708316
vn 0.3077006 0.9514467 -0.008340546
vn 0.9571666 -0.04127894 0.2865799
vn 0.2941607 0.9557525 -0.002561923
vn 0.9388871 -0.03163035 0.3427688
vn -0.0230827 0.9939646 -0.1072452
vn 0.4016736 0.9157828 -0.0003531122
vn 0.8351254 0.07262588 0.545244
vn 0.5441148 0.8294477 0.1263156
vn 0.114438 -0.8281621 0.5486816
vn 0.1110734 0.9402751 -0.3217848
vn 0.043903 0.9909469 -0.1268738
vn 0.04900094 0.9712206 -0.2330869
vn -8.967798E-05 0.921707 -0.3878868
vn 2.755568E-05 0.9651394 -0.2617362
vn -0.1108833 0.939546 -0.3239724
vn 0.03336193 0.9965541 -0.07594058
vn -0.0002300239 0.990353 -0.138567
vn -0.0001446343 0.9965439 -0.08306711
vn -0.04860102 0.9713597 -0.2325903
vn -0.04377783 0.9907387 -0.1285311
vn -0.0326205 0.9964615 -0.07746239
vn -0.5637943 0.8147554 0.1353131
vn -0.3427746 0.9394177 0.0003374721
vn -0.8423592 0.08444294 0.5322596
vn -0.1163665 -0.8283442 0.5480008
vn -0.9435923 -0.02020994 0.3304922
vn -0.44764 0.8941913 0.006351052
vn -0.9618583 -0.03857021 0.2708151
vn -0.9724167 -0.03721232 0.2302627
vn -0.3186365 0.9478558 0.006339117
vn -0.9987854 0.01298902 -0.04752744
vn -0.4550836 0.8873237 -0.07453495
vn -0.6863781 0.2834426 -0.6697354
vn -0.6863781 0.2834426 -0.6697354
vn -0.9987854 0.01298902 -0.04752744
vn -0.2910534 -0.9556619 0.0447015
vn -0.2162999 -0.9663245 -0.139396
g GoldenRedCapeGEO_0
f 3/3/3 2/2/2 1/1/1
f 6/6/6 5/5/5 4/4/4
f 9/9/9 8/8/8 7/7/7
f 10/10/10 9/9/9 7/7/7
f 9/9/9 10/10/10 11/11/11
f 10/10/10 7/7/7 12/12/12
f 10/10/10 13/13/13 11/11/11
f 10/10/10 12/12/12 13/13/13
f 11/11/11 13/13/13 14/14/14
f 15/15/15 11/11/11 14/14/14
f 13/13/13 16/16/16 14/14/14
f 12/12/12 16/16/16 13/13/13
f 7/7/7 17/17/17 12/12/12
f 17/17/17 7/7/7 18/18/18
f 16/16/16 19/19/19 14/14/14
f 20/20/20 14/14/14 19/19/19
f 21/21/21 20/20/20 19/19/19
f 22/22/22 19/19/19 16/16/16
f 19/19/19 22/22/22 23/23/23
f 22/22/22 24/24/24 23/23/23
f 25/25/25 16/16/16 12/12/12
f 25/25/25 22/22/22 16/16/16
f 25/25/25 26/26/26 22/22/22
f 26/26/26 27/27/27 22/22/22
f 22/22/22 27/27/27 28/28/28
f 27/27/27 29/29/29 28/28/28
f 27/27/27 26/26/26 30/30/30
f 26/26/26 31/31/31 30/30/30
f 32/32/32 25/25/25 12/12/12
f 26/26/26 25/25/25 32/32/32
f 12/12/12 17/17/17 32/32/32
f 26/26/26 33/33/33 31/31/31
f 34/34/34 31/31/31 33/33/33
f 35/35/35 34/34/34 33/33/33
f 36/36/36 33/33/33 26/26/26
f 33/33/33 36/36/36 37/37/37
f 36/36/36 38/38/38 37/37/37
f 39/39/39 26/26/26 32/32/32
f 39/39/39 36/36/36 26/26/26
f 38/38/38 36/36/36 40/40/40
f 36/36/36 39/39/39 40/40/40
f 41/41/41 38/38/38 40/40/40
f 32/32/32 42/42/42 39/39/39
f 17/17/17 42/42/42 32/32/32
f 39/39/39 43/43/43 40/40/40
f 42/42/42 43/43/43 39/39/39
f 44/44/44 40/40/40 43/43/43
f 44/44/44 43/43/43 45/45/45
f 46/46/46 42/42/42 17/17/17
f 43/43/43 42/42/42 46/46/46
f 43/43/43 47/47/47 45/45/45
f 47/47/47 43/43/43 46/46/46
f 48/48/48 45/45/45 47/47/47
f 49/49/49 48/48/48 47/47/47
f 50/50/50 47/47/47 46/46/46
f 51/51/51 50/50/50 46/46/46
f 52/52/52 46/46/46 17/17/17
f 53/53/53 46/46/46 52/52/52
f 54/54/54 53/53/53 52/52/52
f 52/52/52 17/17/17 18/18/18
f 52/52/52 18/18/18 55/55/55
f 18/18/18 56/56/56 55/55/55
f 59/59/59 58/58/58 57/57/57
f 60/60/60 59/59/59 57/57/57
f 63/63/63 62/62/62 61/61/61
f 64/64/64 63/63/63 61/61/61
f 67/67/67 66/66/66 65/65/65
f 66/66/66 68/68/68 65/65/65
f 68/68/68 69/69/69 65/65/65
f 69/69/69 70/70/70 65/65/65
f 72/72/72 65/65/65 71/71/71
f 73/73/73 72/72/72 71/71/71
f 72/72/72 75/75/75 74/74/74
f 75/75/75 76/76/76 74/74/74
f 74/74/74 76/76/76 77/77/77
f 76/76/76 75/75/75 78/78/78
f 79/79/79 76/76/76 78/78/78
f 78/78/78 75/75/75 80/80/80
f 76/76/76 81/81/81 77/77/77
f 81/81/81 76/76/76 79/79/79
f 77/77/77 81/81/81 82/82/82
f 81/81/81 83/83/83 82/82/82
f 81/81/81 79/79/79 83/83/83
f 82/82/82 83/83/83 84/84/84
f 83/83/83 85/85/85 84/84/84
f 79/79/79 85/85/85 83/83/83
f 84/84/84 85/85/85 86/86/86
f 85/85/85 87/87/87 86/86/86
f 85/85/85 79/79/79 87/87/87
f 86/86/86 87/87/87 88/88/88
f 89/89/89 78/78/78 80/80/80
f 89/89/89 80/80/80 69/69/69
f 87/87/87 90/90/90 88/88/88
f 88/88/88 90/90/90 91/91/91
f 90/90/90 92/92/92 91/91/91
f 91/91/91 92/92/92 93/93/93
f 92/92/92 94/94/94 93/93/93
f 90/90/90 87/87/87 95/95/95
f 90/90/90 95/95/95 92/92/92
f 96/96/96 94/94/94 92/92/92
f 95/95/95 96/96/96 92/92/92
f 94/94/94 96/96/96 97/97/97
f 96/96/96 98/98/98 97/97/97
f 96/96/96 95/95/95 98/98/98
f 99/99/99 97/97/97 98/98/98
f 87/87/87 100/100/100 95/95/95
f 79/79/79 100/100/100 87/87/87
f 95/95/95 101/101/101 98/98/98
f 95/95/95 100/100/100 101/101/101
f 100/100/100 79/79/79 102/102/102
f 100/100/100 102/102/102 101/101/101
f 79/79/79 78/78/78 102/102/102
f 103/103/103 98/98/98 101/101/101
f 103/103/103 99/99/99 98/98/98
f 104/104/104 101/101/101 102/102/102
f 104/104/104 103/103/103 101/101/101
f 105/105/105 102/102/102 78/78/78
f 105/105/105 104/104/104 102/102/102
f 89/89/89 105/105/105 78/78/78
f 99/99/99 103/103/103 106/106/106
f 103/103/103 104/104/104 106/106/106
f 105/105/105 107/107/107 104/104/104
f 105/105/105 89/89/89 107/107/107
f 99/99/99 106/106/106 108/108/108
f 109/109/109 99/99/99 108/108/108
f 108/108/108 106/106/106 110/110/110
f 104/104/104 111/111/111 106/106/106
f 106/106/106 111/111/111 110/110/110
f 107/107/107 111/111/111 104/104/104
f 110/110/110 111/111/111 112/112/112
f 111/111/111 107/107/107 112/112/112
f 112/112/112 107/107/107 113/113/113
f 107/107/107 114/114/114 113/113/113
f 89/89/89 114/114/114 107/107/107
f 113/113/113 114/114/114 115/115/115
f 114/114/114 89/89/89 116/116/116
f 114/114/114 116/116/116 115/115/115
f 89/89/89 69/69/69 116/116/116
f 115/115/115 116/116/116 117/117/117
f 116/116/116 69/69/69 117/117/117
f 120/120/120 119/119/119 118/118/118
f 121/121/121 120/120/120 118/118/118
