g GoldBracelet
v -4.722903 8.508632 -0.009017899
v -6.992777 8.080029 -0.03416196
v -6.992777 8.280614 0.9937467
v -4.722903 8.712768 0.983205
v -4.722903 9.059947 1.284964
v -6.992777 8.613322 1.29775
v -6.992777 9.562196 1.422958
v -4.722902 9.851974 1.401441
v -6.992777 10.51616 1.170767
v -4.722902 10.64806 1.147146
v -4.722902 10.95364 0.8072659
v -6.992777 10.81736 0.8418939
v -6.992777 10.96775 -0.1793515
v -4.722903 11.08765 -0.07039941
v -6.992777 10.77657 -1.182792
v -4.722903 10.92094 -0.9558125
v -4.722902 10.60101 -1.283847
v -6.992777 10.45128 -1.492246
v -6.992777 9.491978 -1.637286
v -4.722902 9.771722 -1.485808
v -6.992777 8.555084 -1.404926
v -4.722902 8.96628 -1.34641
v -4.722903 8.601022 -1.024128
v -6.992777 8.250108 -1.080076
v -6.992777 8.080029 -0.03416196
v -4.722903 8.508632 -0.009017899
v -6.992777 8.280614 0.9937467
v -6.992777 8.080029 -0.03416196
v -6.992777 8.250108 -1.080076
v -6.992777 8.555084 -1.404926
v -6.992777 8.613322 1.29775
v -6.992777 9.491978 -1.637286
v -6.992777 9.562196 1.422958
v -6.992777 10.45128 -1.492246
v -6.992777 10.51616 1.170767
v -6.992777 10.77657 -1.182792
v -6.992777 10.81736 0.8418939
v -6.992777 10.96775 -0.1793515
v -4.722903 8.601022 -1.024128
v -4.722903 8.508632 -0.009017899
v -4.722903 8.712768 0.983205
v -4.722902 8.96628 -1.34641
v -4.722903 9.059947 1.284964
v -4.722902 9.771722 -1.485808
v -4.722902 9.851974 1.401441
v -4.722902 10.60101 -1.283847
v -4.722902 10.64806 1.147146
v -4.722903 10.92094 -0.9558125
v -4.722902 10.95364 0.8072659
v -4.722903 11.08765 -0.07039941
v 4.722903 8.508632 -0.009017899
v 6.992777 8.280614 0.9937467
v 6.992777 8.080029 -0.03416196
v 4.722903 8.712768 0.983205
v 4.722903 9.059947 1.284964
v 6.992777 8.613322 1.29775
v 6.992777 9.562196 1.422958
v 4.722902 9.851974 1.401441
v 6.992777 10.51616 1.170767
v 4.722902 10.64806 1.147146
v 4.722902 10.95364 0.8072659
v 6.992777 10.81736 0.8418939
v 6.992777 10.96775 -0.1793515
v 4.722903 11.08765 -0.07039941
v 6.992777 10.77657 -1.182792
v 4.722903 10.92094 -0.9558125
v 4.722902 10.60101 -1.283847
v 6.992777 10.45128 -1.492246
v 6.992777 9.491978 -1.637286
v 4.722902 9.771722 -1.485808
v 6.992777 8.555084 -1.404926
v 4.722902 8.96628 -1.34641
v 4.722903 8.601022 -1.024128
v 6.992777 8.250108 -1.080076
v 6.992777 8.080029 -0.03416196
v 4.722903 8.508632 -0.009017899
v 6.992777 8.250108 -1.080076
v 6.992777 8.080029 -0.03416196
v 6.992777 8.280614 0.9937467
v 6.992777 8.555084 -1.404926
v 6.992777 8.613322 1.29775
v 6.992777 9.491978 -1.637286
v 6.992777 9.562196 1.422958
v 6.992777 10.45128 -1.492246
v 6.992777 10.51616 1.170767
v 6.992777 10.77657 -1.182792
v 6.992777 10.81736 0.8418939
v 6.992777 10.96775 -0.1793515
v 4.722903 8.712768 0.983205
v 4.722903 8.508632 -0.009017899
v 4.722903 8.601022 -1.024128
v 4.722902 8.96628 -1.34641
v 4.722903 9.059947 1.284964
v 4.722902 9.771722 -1.485808
v 4.722902 9.851974 1.401441
v 4.722902 10.60101 -1.283847
v 4.722902 10.64806 1.147146
v 4.722903 10.92094 -0.9558125
v 4.722902 10.95364 0.8072659
v 4.722903 11.08765 -0.07039941
vt 0.7242801 0.1581973
vt 0.7242801 0.09407037
vt 0.7359301 0.09407037
vt 0.7359301 0.1581973
vt 0.7411153 0.1581973
vt 0.7411153 0.09407037
vt 0.752695 0.09407037
vt 0.752695 0.1581973
vt 0.7868162 0.09407032
vt 0.7868162 0.1581973
vt 0.7996062 0.1581973
vt 0.7996062 0.09407032
vt 0.8533166 0.09407032
vt 0.8533166 0.1581973
vt 0.9078262 0.09407032
vt 0.9078262 0.1581973
vt 0.9194483 0.1581973
vt 0.9194483 0.09407032
vt 0.9589555 0.09407032
vt 0.9589555 0.1581973
vt 0.9667829 0.09407037
vt 0.9667829 0.1581973
vt 0.971615 0.1581973
vt 0.971615 0.09407037
vt 0.9822397 0.09407037
vt 0.9822398 0.1581973
vt 0.7493011 0.1943565
vt 0.7493011 0.1943565
vt 0.7493011 0.1943565
vt 0.7493011 0.1943565
vt 0.7493011 0.1943565
vt 0.7493011 0.1943566
vt 0.7493011 0.1943566
vt 0.7493011 0.1943566
vt 0.7493011 0.1943566
vt 0.7493011 0.1943566
vt 0.7493011 0.1943566
vt 0.7493011 0.1943566
vt 0.7493011 0.1943565
vt 0.7493011 0.1943565
vt 0.7493011 0.1943565
vt 0.7493011 0.1943565
vt 0.7493011 0.1943565
vt 0.7493011 0.1943566
vt 0.7493011 0.1943566
vt 0.7493011 0.1943566
vt 0.7493011 0.1943566
vt 0.7493011 0.1943566
vt 0.7493011 0.1943566
vt 0.7493011 0.1943566
vt 0.7242801 0.1581973
vt 0.7359301 0.09407037
vt 0.7242801 0.09407037
vt 0.7359301 0.1581973
vt 0.7411153 0.1581973
vt 0.7411153 0.09407037
vt 0.752695 0.09407037
vt 0.752695 0.1581973
vt 0.7868162 0.09407032
vt 0.7868162 0.1581973
vt 0.7996062 0.1581973
vt 0.7996062 0.09407032
vt 0.8533166 0.09407032
vt 0.8533166 0.1581973
vt 0.9078262 0.09407032
vt 0.9078262 0.1581973
vt 0.9194483 0.1581973
vt 0.9194483 0.09407032
vt 0.9589555 0.09407032
vt 0.9589555 0.1581973
vt 0.9667829 0.09407037
vt 0.9667829 0.1581973
vt 0.971615 0.1581973
vt 0.971615 0.09407037
vt 0.9822397 0.09407037
vt 0.9822398 0.1581973
vt 0.7493011 0.1943565
vt 0.7493011 0.1943565
vt 0.7493011 0.1943565
vt 0.7493011 0.1943565
vt 0.7493011 0.1943565
vt 0.7493011 0.1943566
vt 0.7493011 0.1943566
vt 0.7493011 0.1943566
vt 0.7493011 0.1943566
vt 0.7493011 0.1943566
vt 0.7493011 0.1943566
vt 0.7493011 0.1943566
vt 0.7493011 0.1943565
vt 0.7493011 0.1943565
vt 0.7493011 0.1943565
vt 0.7493011 0.1943565
vt 0.7493011 0.1943565
vt 0.7493011 0.1943566
vt 0.7493011 0.1943566
vt 0.7493011 0.1943566
vt 0.7493011 0.1943566
vt 0.7493011 0.1943566
vt 0.7493011 0.1943566
vt 0.7493011 0.1943566
vn 0.5712641 -0.8202536 0.02900767
vn -0.3162839 -0.948072 0.03352775
vn -0.8203419 -0.4957925 0.2850068
vn 0.870587 -0.426558 0.2452071
vn 0.8565138 -0.2159167 0.4687899
vn -0.8303713 -0.233105 0.5061083
vn -0.8366022 0.03936378 0.5463948
vn 0.8388518 0.03911553 0.5429527
vn -0.845947 0.282252 0.4524463
vn 0.8375446 0.289187 0.4635622
vn 0.7061496 0.6397366 0.3034631
vn -0.7383615 0.609327 0.2890377
vn -0.4881744 0.8725826 -0.01689433
vn 0.4150915 0.9096092 -0.01761129
vn -0.8454272 0.4713849 -0.251096
vn 0.8420735 0.4760381 -0.2535746
vn 0.8497509 0.2461196 -0.4662065
vn -0.8363612 0.2559204 -0.4847727
vn -0.8258622 -0.005173482 -0.5638482
vn 0.8486258 -0.004853558 -0.5289713
vn -0.8249519 -0.2650885 -0.4991817
vn 0.859244 -0.2399321 -0.45181
vn 0.7772895 -0.5621163 -0.282571
vn -0.6729624 -0.6608737 -0.3322162
vn -0.3162839 -0.948072 0.03352775
vn 0.5712641 -0.8202536 0.02900767
vn -0.8203419 -0.4957925 0.2850068
vn -0.3162839 -0.948072 0.03352775
vn -0.6729624 -0.6608737 -0.3322162
vn -0.8249519 -0.2650885 -0.4991817
vn -0.8303713 -0.233105 0.5061083
vn -0.8258622 -0.005173482 -0.5638482
vn -0.8366022 0.03936378 0.5463948
vn -0.8363612 0.2559204 -0.4847727
vn -0.845947 0.282252 0.4524463
vn -0.8454272 0.4713849 -0.251096
vn -0.7383615 0.609327 0.2890377
vn -0.4881744 0.8725826 -0.01689433
vn 0.7772895 -0.5621163 -0.282571
vn 0.5712641 -0.8202536 0.02900767
vn 0.870587 -0.426558 0.2452071
vn 0.859244 -0.2399321 -0.45181
vn 0.8565138 -0.2159167 0.4687899
vn 0.8486258 -0.004853558 -0.5289713
vn 0.8388518 0.03911553 0.5429527
vn 0.8497509 0.2461196 -0.4662065
vn 0.8375446 0.289187 0.4635622
vn 0.8420735 0.4760381 -0.2535746
vn 0.7061496 0.6397366 0.3034631
vn 0.4150915 0.9096092 -0.01761129
vn -0.5712641 -0.8202536 0.02900767
vn 0.8203419 -0.4957925 0.2850068
vn 0.3162839 -0.948072 0.03352775
vn -0.870587 -0.426558 0.2452071
vn -0.8565138 -0.2159167 0.4687899
vn 0.8303713 -0.233105 0.5061083
vn 0.8366022 0.03936378 0.5463948
vn -0.8388518 0.03911553 0.5429527
vn 0.845947 0.282252 0.4524463
vn -0.8375446 0.289187 0.4635622
vn -0.7061496 0.6397366 0.3034631
vn 0.7383615 0.609327 0.2890377
vn 0.4881744 0.8725826 -0.01689433
vn -0.4150915 0.9096092 -0.01761129
vn 0.8454272 0.4713849 -0.251096
vn -0.8420735 0.4760381 -0.2535746
vn -0.8497509 0.2461196 -0.4662065
vn 0.8363612 0.2559204 -0.4847727
vn 0.8258622 -0.005173482 -0.5638482
vn -0.8486258 -0.004853558 -0.5289713
vn 0.8249519 -0.2650885 -0.4991817
vn -0.859244 -0.2399321 -0.45181
vn -0.7772895 -0.5621163 -0.282571
vn 0.6729624 -0.6608737 -0.3322162
vn 0.3162839 -0.948072 0.03352775
vn -0.5712641 -0.8202536 0.02900767
vn 0.6729624 -0.6608737 -0.3322162
vn 0.3162839 -0.948072 0.03352775
vn 0.8203419 -0.4957925 0.2850068
vn 0.8249519 -0.2650885 -0.4991817
vn 0.8303713 -0.233105 0.5061083
vn 0.8258622 -0.005173482 -0.5638482
vn 0.8366022 0.03936378 0.5463948
vn 0.8363612 0.2559204 -0.4847727
vn 0.845947 0.282252 0.4524463
vn 0.8454272 0.4713849 -0.251096
vn 0.7383615 0.609327 0.2890377
vn 0.4881744 0.8725826 -0.01689433
vn -0.870587 -0.426558 0.2452071
vn -0.5712641 -0.8202536 0.02900767
vn -0.7772895 -0.5621163 -0.282571
vn -0.859244 -0.2399321 -0.45181
vn -0.8565138 -0.2159167 0.4687899
vn -0.8486258 -0.004853558 -0.5289713
vn -0.8388518 0.03911553 0.5429527
vn -0.8497509 0.2461196 -0.4662065
vn -0.8375446 0.289187 0.4635622
vn -0.8420735 0.4760381 -0.2535746
vn -0.7061496 0.6397366 0.3034631
vn -0.4150915 0.9096092 -0.01761129
g GoldBracelet_0
f 3/3/3 2/2/2 1/1/1
f 4/4/4 3/3/3 1/1/1
f 4/4/4 5/5/5 3/3/3
f 5/5/5 6/6/6 3/3/3
f 7/7/7 6/6/6 5/5/5
f 8/8/8 7/7/7 5/5/5
f 9/9/9 7/7/7 8/8/8
f 10/10/10 9/9/9 8/8/8
f 10/10/10 11/11/11 9/9/9
f 11/11/11 12/12/12 9/9/9
f 12/12/12 11/11/11 13/13/13
f 11/11/11 14/14/14 13/13/13
f 13/13/13 14/14/14 15/15/15
f 14/14/14 16/16/16 15/15/15
f 15/15/15 16/16/16 17/17/17
f 18/18/18 15/15/15 17/17/17
f 19/19/19 18/18/18 17/17/17
f 20/20/20 19/19/19 17/17/17
f 21/21/21 19/19/19 20/20/20
f 22/22/22 21/21/21 20/20/20
f 22/22/22 23/23/23 21/21/21
f 23/23/23 24/24/24 21/21/21
f 25/25/25 24/24/24 23/23/23
f 26/26/26 25/25/25 23/23/23
f 29/29/29 28/28/28 27/27/27
f 27/27/27 30/30/30 29/29/29
f 27/27/27 31/31/31 30/30/30
f 31/31/31 32/32/32 30/30/30
f 31/31/31 33/33/33 32/32/32
f 33/33/33 34/34/34 32/32/32
f 33/33/33 35/35/35 34/34/34
f 35/35/35 36/36/36 34/34/34
f 35/35/35 37/37/37 36/36/36
f 37/37/37 38/38/38 36/36/36
f 41/41/41 40/40/40 39/39/39
f 39/39/39 42/42/42 41/41/41
f 42/42/42 43/43/43 41/41/41
f 42/42/42 44/44/44 43/43/43
f 44/44/44 45/45/45 43/43/43
f 44/44/44 46/46/46 45/45/45
f 46/46/46 47/47/47 45/45/45
f 46/46/46 48/48/48 47/47/47
f 48/48/48 49/49/49 47/47/47
f 48/48/48 50/50/50 49/49/49
f 53/53/53 52/52/52 51/51/51
f 52/52/52 54/54/54 51/51/51
f 55/55/55 54/54/54 52/52/52
f 56/56/56 55/55/55 52/52/52
f 56/56/56 57/57/57 55/55/55
f 57/57/57 58/58/58 55/55/55
f 57/57/57 59/59/59 58/58/58
f 59/59/59 60/60/60 58/58/58
f 61/61/61 60/60/60 59/59/59
f 62/62/62 61/61/61 59/59/59
f 61/61/61 62/62/62 63/63/63
f 64/64/64 61/61/61 63/63/63
f 64/64/64 63/63/63 65/65/65
f 66/66/66 64/64/64 65/65/65
f 66/66/66 65/65/65 67/67/67
f 65/65/65 68/68/68 67/67/67
f 68/68/68 69/69/69 67/67/67
f 69/69/69 70/70/70 67/67/67
f 69/69/69 71/71/71 70/70/70
f 71/71/71 72/72/72 70/70/70
f 73/73/73 72/72/72 71/71/71
f 74/74/74 73/73/73 71/71/71
f 74/74/74 75/75/75 73/73/73
f 75/75/75 76/76/76 73/73/73
f 79/79/79 78/78/78 77/77/77
f 77/77/77 80/80/80 79/79/79
f 80/80/80 81/81/81 79/79/79
f 80/80/80 82/82/82 81/81/81
f 82/82/82 83/83/83 81/81/81
f 82/82/82 84/84/84 83/83/83
f 84/84/84 85/85/85 83/83/83
f 84/84/84 86/86/86 85/85/85
f 86/86/86 87/87/87 85/85/85
f 86/86/86 88/88/88 87/87/87
f 91/91/91 90/90/90 89/89/89
f 89/89/89 92/92/92 91/91/91
f 89/89/89 93/93/93 92/92/92
f 93/93/93 94/94/94 92/92/92
f 93/93/93 95/95/95 94/94/94
f 95/95/95 96/96/96 94/94/94
f 95/95/95 97/97/97 96/96/96
f 97/97/97 98/98/98 96/96/96
f 97/97/97 99/99/99 98/98/98
f 99/99/99 100/100/100 98/98/98
