g GoldHeadStripe
v 1.602832 18.86697 5.338459
v 1.603822 18.29048 5.304416
v 1.224098 18.09313 5.27801
v 8.641581E-09 19.07741 5.358399
v 0.7473594 17.65406 5.241076
v 0.4167751 17.23168 5.191338
v -6.661627E-15 16.39858 5.123822
v 1.602316 20.52579 4.823178
v -6.708345E-15 20.6436 4.838599
v 1.602144 21.96176 3.965502
v -1.602144 21.96176 3.965502
v 1.604396 23.09854 0.7224337
v -1.604396 23.09854 0.7224337
v -1.602717 22.96492 0.7100593
v -1.605892 22.53754 -1.945145
v -1.61005 22.6641 -1.992329
v -1.601452 21.86409 3.883042
v -1.602316 20.52579 4.823178
v -1.601549 20.46934 4.697791
v -1.602832 18.86697 5.338459
v -1.601839 18.85101 5.204187
v -1.603822 18.29048 5.304416
v -1.602394 18.30214 5.166759
v -1.224098 18.09313 5.27801
v -1.222671 18.10479 5.140353
v -0.7473594 17.65406 5.241076
v -0.7445988 17.66561 5.103436
v -0.4167751 17.23168 5.191338
v -0.4126815 17.2433 5.053714
v -6.661627E-15 16.39858 5.123822
v -6.66143E-15 16.40986 4.986198
v 1.603283 19.78515 -4.923293
v 1.609403 21.27019 -4.179295
v -1.609403 21.27019 -4.179295
v -1.603283 19.78515 -4.923293
v 1.600058 18.22517 -5.348306
v -1.600058 18.22517 -5.348306
v -1.599552 14.13234 -4.568463
v 1.599552 14.13234 -4.568463
v -1.599996 14.15609 -4.432363
v -1.600281 18.21594 -5.21448
v 1.61005 22.6641 -1.992329
v -1.604396 23.09854 0.7224337
v -1.61005 22.6641 -1.992329
v 1.604396 23.09854 0.7224337
v 1.602717 22.96492 0.7100593
v 1.605892 22.53754 -1.945145
v 1.601452 21.86409 3.883042
v 1.602144 21.96176 3.965502
v 1.601549 20.46934 4.697791
v 1.602316 20.52579 4.823178
v 1.601839 18.85101 5.204187
v 1.602832 18.86697 5.338459
v 1.602395 18.30214 5.166759
v 1.603822 18.29048 5.304416
v 1.222671 18.10479 5.140353
v 1.224098 18.09313 5.27801
v 0.7445988 17.66561 5.103436
v 0.7473594 17.65406 5.241076
v 0.4126815 17.2433 5.053714
v 0.4167751 17.23168 5.191338
v -6.66143E-15 16.40986 4.986198
v -6.661627E-15 16.39858 5.123822
v 1.609403 21.27019 -4.179295
v 1.61005 22.6641 -1.992329
v -1.61005 22.6641 -1.992329
v -1.609403 21.27019 -4.179295
v -1.605529 21.17675 -4.082237
v -1.605892 22.53754 -1.945145
v -1.602092 19.72422 -4.797503
v -1.603283 19.78515 -4.923293
v -1.600281 18.21594 -5.21448
v -1.600058 18.22517 -5.348306
v -1.224098 18.09313 5.27801
v -1.603822 18.29048 5.304416
v -1.602832 18.86697 5.338459
v -0.7473594 17.65406 5.241076
v 8.641581E-09 19.07741 5.358399
v -0.4167751 17.23168 5.191338
v -6.661627E-15 16.39858 5.123822
v -1.602316 20.52579 4.823178
v -6.708345E-15 20.6436 4.838599
v -1.602144 21.96176 3.965502
v -1.599552 14.13234 -4.568463
v -1.599996 14.15609 -4.432363
v 1.599996 14.15609 -4.432363
v 1.599552 14.13234 -4.568463
v 1.600281 18.21594 -5.21448
v 1.600058 18.22517 -5.348306
v 1.602092 19.72422 -4.797503
v 1.603283 19.78515 -4.923293
v 1.605529 21.17675 -4.082237
v 1.609403 21.27019 -4.179295
v 1.605892 22.53754 -1.945145
v 1.61005 22.6641 -1.992329
v 1.609403 21.27019 -4.179295
v 1.605529 21.17675 -4.082237
vt 0.3975061 0.585005
vt 0.3974733 0.580672
vt 0.4109438 0.5795394
vt 0.4506177 0.5915948
vt 0.4271851 0.577663
vt 0.4476855 0.5756631
vt 0.4506177 0.5700868
vt 0.3975232 0.5957964
vt 0.4506177 0.6026917
vt 0.3975288 0.6058436
vt 0.398029 0.6058436
vt 0.3974543 0.613864
vt 0.3979545 0.613864
vt 0.3980101 0.612924
vt 0.3979048 0.6099176
vt 0.4070607 0.5947551
vt 0.3980519 0.6051428
vt 0.3980233 0.5957964
vt 0.3980488 0.5953997
vt 0.3980062 0.585005
vt 0.3980391 0.5848905
vt 0.3979734 0.580672
vt 0.3980206 0.580754
vt 0.4114439 0.5795394
vt 0.4114912 0.5796214
vt 0.4276852 0.577663
vt 0.4277767 0.5777442
vt 0.4481854 0.5756631
vt 0.4483211 0.5757436
vt 0.4511176 0.5700868
vt 0.4511176 0.5701672
vt 0.3997348 0.5885444
vt 0.3996948 0.5930853
vt 0.4362328 0.5930582
vt 0.4361338 0.5885174
vt 0.3997545 0.58458
vt 0.4360803 0.584553
vt 0.4361052 0.5764731
vt 0.3997909 0.5765001
vt 0.4361157 0.5768535
vt 0.4360881 0.5848556
vt 0.4065606 0.5947551
vt 0.3979545 0.613864
vt 0.4070607 0.5947551
vt 0.3974543 0.613864
vt 0.3975099 0.612924
vt 0.3974047 0.6099176
vt 0.3975518 0.6051428
vt 0.3975288 0.6058436
vt 0.3975487 0.5953997
vt 0.3975232 0.5957964
vt 0.397539 0.5848905
vt 0.3975061 0.585005
vt 0.3975205 0.580754
vt 0.3974733 0.580672
vt 0.4109912 0.5796214
vt 0.4109438 0.5795394
vt 0.4272766 0.5777442
vt 0.4271851 0.577663
vt 0.4478209 0.5757436
vt 0.4476855 0.5756631
vt 0.4506177 0.5701672
vt 0.4506177 0.5700868
vt 0.3996948 0.5930853
vt 0.4090678 0.58536
vt 0.4456205 0.5853329
vt 0.4362328 0.5930582
vt 0.4361926 0.5930898
vt 0.4362814 0.6012223
vt 0.4361252 0.5886996
vt 0.4361338 0.5885174
vt 0.4360881 0.5848556
vt 0.4360803 0.584553
vt 0.4114439 0.5795394
vt 0.3979734 0.580672
vt 0.3980062 0.585005
vt 0.4276852 0.577663
vt 0.4511176 0.5915948
vt 0.4481854 0.5756631
vt 0.4511176 0.5700868
vt 0.3980233 0.5957964
vt 0.4511176 0.6026917
vt 0.398029 0.6058436
vt 0.4361052 0.5764731
vt 0.4361157 0.5768535
vt 0.3997912 0.5768804
vt 0.3997909 0.5765001
vt 0.3997572 0.5848825
vt 0.3997545 0.58458
vt 0.3997532 0.5887266
vt 0.3997348 0.5885444
vt 0.3997426 0.5931168
vt 0.3996948 0.5930853
vt 0.3998231 0.6012492
vt 0.4090678 0.58536
vt 0.3996948 0.5930853
vt 0.3997426 0.5931168
vn 0.5640483 0.04718148 0.8243928
vn 0.7369978 -0.4856835 0.4700489
vn 0.3106034 -0.5157447 0.7984566
vn -0.0001064211 0.02700941 0.9996352
vn 0.5218309 -0.5406391 0.6598499
vn 0.7596136 -0.5164906 0.3952525
vn 0 -0.4907431 0.8713043
vn 0.7267779 0.2830479 0.6258417
vn 0 0.4410064 0.897504
vn 0.5850414 0.5708356 0.5760844
vn -0.5850414 0.5708356 0.5760844
vn 0.7234476 0.6874617 0.06340431
vn -0.7234476 0.6874617 0.06340431
vn -0.9998798 -0.01545252 0.001242665
vn -0.9996598 -0.02379482 0.0106833
vn -0.7237363 0.6454865 -0.2440349
vn -0.999975 -0.005990384 -0.003788808
vn -0.7267777 0.2830479 0.6258419
vn -0.9999816 -0.002268049 -0.005615642
vn -0.4527152 0.02096118 0.8914087
vn -0.999971 0.00011084 -0.007617303
vn -0.7369975 -0.4856833 0.4700493
vn -0.8558564 -0.5146208 -0.05172436
vn -0.3956158 -0.6314899 0.6668648
vn -0.5761105 -0.8137922 -0.07641251
vn -0.4077266 -0.4445721 0.797568
vn -0.7360503 -0.6731157 -0.07172874
vn -0.7596136 -0.5164906 0.3952525
vn -0.8465961 -0.5287456 -0.06085376
vn 0 -0.4907431 0.8713043
vn 0 -0.9936355 -0.1126436
vn 0.7126941 0.2485727 -0.6559564
vn 0.7285325 0.4571314 -0.5101678
vn -0.7285325 0.4571314 -0.5101678
vn -0.7126941 0.2485727 -0.6559564
vn 0.716375 0.02602266 -0.69723
vn -0.716375 0.02602266 -0.69723
vn -0.5738806 -0.6730802 -0.4665021
vn 0.5738806 -0.6730801 -0.4665021
vn -0.7070562 -0.6969352 0.1198033
vn -0.9999988 -0.001522755 0.0003097053
vn 0.7237363 0.6454865 -0.2440349
vn -0.7234476 0.6874617 0.06340431
vn -0.7237363 0.6454865 -0.2440349
vn 0.7234476 0.6874617 0.06340431
vn 0.9998798 -0.01545252 0.001242665
vn 0.9996598 -0.02379482 0.0106833
vn 0.999975 -0.005990384 -0.003788808
vn 0.5850414 0.5708356 0.5760844
vn 0.9999816 -0.002268112 -0.005615919
vn 0.7267779 0.2830479 0.6258417
vn 0.999971 0.0001109485 -0.007618143
vn 0.5640483 0.04718148 0.8243928
vn 0.8558563 -0.5146206 -0.05172515
vn 0.7369978 -0.4856835 0.4700489
vn 0.5761104 -0.8137923 -0.07641263
vn 0.3106034 -0.5157447 0.7984566
vn 0.7360503 -0.6731157 -0.07172874
vn 0.5218309 -0.5406391 0.6598499
vn 0.8465961 -0.5287456 -0.06085376
vn 0.7596136 -0.5164906 0.3952525
vn 0 -0.9936355 -0.1126436
vn 0 -0.4907431 0.8713043
vn 0.7285325 0.4571314 -0.5101678
vn 0.7237363 0.6454865 -0.2440349
vn -0.7237363 0.6454865 -0.2440349
vn -0.7285325 0.4571314 -0.5101678
vn -0.9997081 -0.0183339 0.01573244
vn -0.9996598 -0.02379482 0.0106833
vn -0.9999361 -0.006649943 0.009145547
vn -0.7126941 0.2485727 -0.6559564
vn -0.9999988 -0.001522755 0.0003097053
vn -0.716375 0.02602266 -0.69723
vn -0.3956158 -0.6314899 0.6668648
vn -0.7369975 -0.4856833 0.4700493
vn -0.4527152 0.02096118 0.8914087
vn -0.4077266 -0.4445721 0.797568
vn -0.0001064211 0.02700941 0.9996352
vn -0.7596136 -0.5164906 0.3952525
vn 0 -0.4907431 0.8713043
vn -0.7267777 0.2830479 0.6258419
vn 0 0.4410064 0.897504
vn -0.5850414 0.5708356 0.5760844
vn -0.5738806 -0.6730802 -0.4665021
vn -0.7070562 -0.6969352 0.1198033
vn 0.7070562 -0.6969352 0.1198033
vn 0.5738806 -0.6730801 -0.4665021
vn 0.9999988 -0.001522755 0.0003097053
vn 0.716375 0.02602266 -0.69723
vn 0.9999361 -0.006649943 0.009145547
vn 0.7126941 0.2485727 -0.6559564
vn 0.9997081 -0.0183339 0.01573244
vn 0.7285325 0.4571314 -0.5101678
vn 0.9996598 -0.02379482 0.0106833
vn 0.7237363 0.6454865 -0.2440349
vn 0.7285325 0.4571314 -0.5101678
vn 0.9997081 -0.0183339 0.01573244
g GoldHeadStripe_0
f 3/3/3 2/2/2 1/1/1
f 1/1/1 4/4/4 3/3/3
f 4/4/4 5/5/5 3/3/3
f 6/6/6 5/5/5 4/4/4
f 7/7/7 6/6/6 4/4/4
f 4/4/4 1/1/1 8/8/8
f 9/9/9 4/4/4 8/8/8
f 9/9/9 8/8/8 10/10/10
f 11/11/11 9/9/9 10/10/10
f 11/11/11 10/10/10 12/12/12
f 13/13/13 11/11/11 12/12/12
f 11/11/11 13/13/13 14/14/14
f 14/14/14 13/13/13 15/15/15
f 13/13/13 16/16/16 15/15/15
f 17/17/17 11/11/11 14/14/14
f 18/18/18 11/11/11 17/17/17
f 19/19/19 18/18/18 17/17/17
f 20/20/20 18/18/18 19/19/19
f 21/21/21 20/20/20 19/19/19
f 22/22/22 20/20/20 21/21/21
f 23/23/23 22/22/22 21/21/21
f 24/24/24 22/22/22 23/23/23
f 25/25/25 24/24/24 23/23/23
f 26/26/26 24/24/24 25/25/25
f 27/27/27 26/26/26 25/25/25
f 28/28/28 26/26/26 27/27/27
f 29/29/29 28/28/28 27/27/27
f 30/30/30 28/28/28 29/29/29
f 31/31/31 30/30/30 29/29/29
f 34/34/34 33/33/33 32/32/32
f 35/35/35 34/34/34 32/32/32
f 35/35/35 32/32/32 36/36/36
f 37/37/37 35/35/35 36/36/36
f 37/37/37 36/36/36 38/38/38
f 36/36/36 39/39/39 38/38/38
f 37/37/37 38/38/38 40/40/40
f 41/41/41 37/37/37 40/40/40
f 44/44/44 43/43/43 42/42/42
f 43/43/43 45/45/45 42/42/42
f 42/42/42 45/45/45 46/46/46
f 47/47/47 42/42/42 46/46/46
f 46/46/46 45/45/45 48/48/48
f 45/45/45 49/49/49 48/48/48
f 48/48/48 49/49/49 50/50/50
f 49/49/49 51/51/51 50/50/50
f 50/50/50 51/51/51 52/52/52
f 51/51/51 53/53/53 52/52/52
f 52/52/52 53/53/53 54/54/54
f 53/53/53 55/55/55 54/54/54
f 54/54/54 55/55/55 56/56/56
f 55/55/55 57/57/57 56/56/56
f 56/56/56 57/57/57 58/58/58
f 57/57/57 59/59/59 58/58/58
f 58/58/58 59/59/59 60/60/60
f 59/59/59 61/61/61 60/60/60
f 60/60/60 61/61/61 62/62/62
f 61/61/61 63/63/63 62/62/62
f 66/66/66 65/65/65 64/64/64
f 67/67/67 66/66/66 64/64/64
f 66/66/66 67/67/67 68/68/68
f 69/69/69 66/66/66 68/68/68
f 68/68/68 67/67/67 70/70/70
f 67/67/67 71/71/71 70/70/70
f 70/70/70 71/71/71 72/72/72
f 71/71/71 73/73/73 72/72/72
f 76/76/76 75/75/75 74/74/74
f 76/76/76 74/74/74 77/77/77
f 77/77/77 78/78/78 76/76/76
f 77/77/77 79/79/79 78/78/78
f 79/79/79 80/80/80 78/78/78
f 76/76/76 78/78/78 81/81/81
f 78/78/78 82/82/82 81/81/81
f 81/81/81 82/82/82 83/83/83
f 86/86/86 85/85/85 84/84/84
f 87/87/87 86/86/86 84/84/84
f 86/86/86 87/87/87 88/88/88
f 87/87/87 89/89/89 88/88/88
f 88/88/88 89/89/89 90/90/90
f 89/89/89 91/91/91 90/90/90
f 90/90/90 91/91/91 92/92/92
f 91/91/91 93/93/93 92/92/92
f 96/96/96 95/95/95 94/94/94
f 97/97/97 96/96/96 94/94/94
