g GoldBracelet
v -4.722903 8.508632 -0.009017899
v -6.992777 8.080029 -0.03416196
v -6.992777 8.280614 0.9937467
v -4.722903 8.712768 0.983205
v -4.722903 9.059947 1.284964
v -6.992777 8.613322 1.29775
v -6.992777 9.562196 1.422958
v -4.722902 9.851974 1.401441
v -6.992777 10.51616 1.170767
v -4.722902 10.64806 1.147146
v -4.722902 10.95364 0.8072659
v -6.992777 10.81736 0.8418939
v -6.992777 10.96775 -0.1793515
v -4.722903 11.08765 -0.07039941
v -6.992777 10.77657 -1.182792
v -4.722903 10.92094 -0.9558125
v -4.722902 10.60101 -1.283847
v -6.992777 10.45128 -1.492246
v -6.992777 9.491978 -1.637286
v -4.722902 9.771722 -1.485808
v -6.992777 8.555084 -1.404926
v -4.722902 8.96628 -1.34641
v -4.722903 8.601022 -1.024128
v -6.992777 8.250108 -1.080076
v -6.992777 8.080029 -0.03416196
v -4.722903 8.508632 -0.009017899
v -6.992777 8.280614 0.9937467
v -6.992777 8.080029 -0.03416196
v -6.992777 8.250108 -1.080076
v -6.992777 8.555084 -1.404926
v -6.992777 8.613322 1.29775
v -6.992777 9.491978 -1.637286
v -6.992777 9.562196 1.422958
v -6.992777 10.45128 -1.492246
v -6.992777 10.51616 1.170767
v -6.992777 10.77657 -1.182792
v -6.992777 10.81736 0.8418939
v -6.992777 10.96775 -0.1793515
v -4.722903 8.601022 -1.024128
v -4.722903 8.508632 -0.009017899
v -4.722903 8.712768 0.983205
v -4.722902 8.96628 -1.34641
v -4.722903 9.059947 1.284964
v -4.722902 9.771722 -1.485808
v -4.722902 9.851974 1.401441
v -4.722902 10.60101 -1.283847
v -4.722902 10.64806 1.147146
v -4.722903 10.92094 -0.9558125
v -4.722902 10.95364 0.8072659
v -4.722903 11.08765 -0.07039941
v 4.722903 8.508632 -0.009017899
v 6.992777 8.280614 0.9937467
v 6.992777 8.080029 -0.03416196
v 4.722903 8.712768 0.983205
v 4.722903 9.059947 1.284964
v 6.992777 8.613322 1.29775
v 6.992777 9.562196 1.422958
v 4.722902 9.851974 1.401441
v 6.992777 10.51616 1.170767
v 4.722902 10.64806 1.147146
v 4.722902 10.95364 0.8072659
v 6.992777 10.81736 0.8418939
v 6.992777 10.96775 -0.1793515
v 4.722903 11.08765 -0.07039941
v 6.992777 10.77657 -1.182792
v 4.722903 10.92094 -0.9558125
v 4.722902 10.60101 -1.283847
v 6.992777 10.45128 -1.492246
v 6.992777 9.491978 -1.637286
v 4.722902 9.771722 -1.485808
v 6.992777 8.555084 -1.404926
v 4.722902 8.96628 -1.34641
v 4.722903 8.601022 -1.024128
v 6.992777 8.250108 -1.080076
v 6.992777 8.080029 -0.03416196
v 4.722903 8.508632 -0.009017899
v 6.992777 8.250108 -1.080076
v 6.992777 8.080029 -0.03416196
v 6.992777 8.280614 0.9937467
v 6.992777 8.555084 -1.404926
v 6.992777 8.613322 1.29775
v 6.992777 9.491978 -1.637286
v 6.992777 9.562196 1.422958
v 6.992777 10.45128 -1.492246
v 6.992777 10.51616 1.170767
v 6.992777 10.77657 -1.182792
v 6.992777 10.81736 0.8418939
v 6.992777 10.96775 -0.1793515
v 4.722903 8.712768 0.983205
v 4.722903 8.508632 -0.009017899
v 4.722903 8.601022 -1.024128
v 4.722902 8.96628 -1.34641
v 4.722903 9.059947 1.284964
v 4.722902 9.771722 -1.485808
v 4.722902 9.851974 1.401441
v 4.722902 10.60101 -1.283847
v 4.722902 10.64806 1.147146
v 4.722903 10.92094 -0.9558125
v 4.722902 10.95364 0.8072659
v 4.722903 11.08765 -0.07039941
vt 0.7342967 0.2039365
vt 0.7050243 0.2039365
vt 0.7050243 0.1986186
vt 0.7342967 0.1986186
vt 0.7342967 0.1962517
vt 0.7050243 0.1962517
vt 0.7050243 0.1909659
vt 0.7342967 0.1909659
vt 0.7050242 0.1753903
vt 0.7342967 0.1753903
vt 0.7342967 0.169552
vt 0.7050242 0.169552
vt 0.7050242 0.1450345
vt 0.7342967 0.1450345
vt 0.7050242 0.1201522
vt 0.7342967 0.1201522
vt 0.7342967 0.114847
vt 0.7050242 0.114847
vt 0.7050242 0.09681298
vt 0.7342967 0.09681298
vt 0.7050243 0.09323996
vt 0.7342967 0.09323996
vt 0.7342967 0.0910342
vt 0.7050243 0.0910342
vt 0.7050243 0.08618428
vt 0.7342967 0.08618426
vt 0.7493011 0.1943565
vt 0.7493011 0.1943565
vt 0.7493011 0.1943565
vt 0.7493011 0.1943565
vt 0.7493011 0.1943565
vt 0.7493011 0.1943566
vt 0.7493011 0.1943566
vt 0.7493011 0.1943566
vt 0.7493011 0.1943566
vt 0.7493011 0.1943566
vt 0.7493011 0.1943566
vt 0.7493011 0.1943566
vt 0.7493011 0.1943565
vt 0.7493011 0.1943565
vt 0.7493011 0.1943565
vt 0.7493011 0.1943565
vt 0.7493011 0.1943565
vt 0.7493011 0.1943566
vt 0.7493011 0.1943566
vt 0.7493011 0.1943566
vt 0.7493011 0.1943566
vt 0.7493011 0.1943566
vt 0.7493011 0.1943566
vt 0.7493011 0.1943566
vt 0.7342967 0.2039365
vt 0.7050243 0.1986186
vt 0.7050243 0.2039365
vt 0.7342967 0.1986186
vt 0.7342967 0.1962517
vt 0.7050243 0.1962517
vt 0.7050243 0.1909659
vt 0.7342967 0.1909659
vt 0.7050242 0.1753903
vt 0.7342967 0.1753903
vt 0.7342967 0.169552
vt 0.7050242 0.169552
vt 0.7050242 0.1450345
vt 0.7342967 0.1450345
vt 0.7050242 0.1201522
vt 0.7342967 0.1201522
vt 0.7342967 0.114847
vt 0.7050242 0.114847
vt 0.7050242 0.09681298
vt 0.7342967 0.09681298
vt 0.7050243 0.09323996
vt 0.7342967 0.09323996
vt 0.7342967 0.0910342
vt 0.7050243 0.0910342
vt 0.7050243 0.08618428
vt 0.7342967 0.08618426
vt 0.7493011 0.1943565
vt 0.7493011 0.1943565
vt 0.7493011 0.1943565
vt 0.7493011 0.1943565
vt 0.7493011 0.1943565
vt 0.7493011 0.1943566
vt 0.7493011 0.1943566
vt 0.7493011 0.1943566
vt 0.7493011 0.1943566
vt 0.7493011 0.1943566
vt 0.7493011 0.1943566
vt 0.7493011 0.1943566
vt 0.7493011 0.1943565
vt 0.7493011 0.1943565
vt 0.7493011 0.1943565
vt 0.7493011 0.1943565
vt 0.7493011 0.1943565
vt 0.7493011 0.1943566
vt 0.7493011 0.1943566
vt 0.7493011 0.1943566
vt 0.7493011 0.1943566
vt 0.7493011 0.1943566
vt 0.7493011 0.1943566
vt 0.7493011 0.1943566
vn 0.9304879 -0.3660719 0.01354975
vn -0.9370067 -0.3491164 0.01166299
vn -0.961132 -0.256731 0.1015609
vn 0.9533631 -0.2771901 0.1194332
vn 0.9579934 -0.0873236 0.2731726
vn -0.9729043 -0.08292877 0.2158237
vn -0.9551522 0.01738815 0.2956044
vn 0.9351782 0.03271227 0.3526637
vn -0.9697087 0.1071987 0.2194845
vn 0.9603274 0.1265517 0.2485071
vn 0.9541081 0.2835155 0.09641963
vn -0.9687077 0.233968 0.0828515
vn -0.9510792 0.3088537 -0.007595216
vn 0.9289154 0.3702546 -0.005249668
vn -0.9691237 0.22734 -0.09547631
vn 0.9524481 0.285248 -0.107127
vn 0.9611357 0.1078326 -0.2541463
vn -0.9681111 0.09025648 -0.2336977
vn -0.9533607 -0.006732677 -0.3017585
vn 0.9379998 0.00299908 -0.3466229
vn -0.9719539 -0.09650917 -0.2144569
vn 0.9580271 -0.1055668 -0.2665329
vn 0.9476728 -0.3009909 -0.1063988
vn -0.9624411 -0.257422 -0.08626105
vn -0.9370067 -0.3491164 0.01166299
vn 0.9304879 -0.3660719 0.01354975
vn -0.961132 -0.256731 0.1015609
vn -0.9370067 -0.3491164 0.01166299
vn -0.9624411 -0.257422 -0.08626105
vn -0.9719539 -0.09650917 -0.2144569
vn -0.9729043 -0.08292877 0.2158237
vn -0.9533607 -0.006732677 -0.3017585
vn -0.9551522 0.01738815 0.2956044
vn -0.9681111 0.09025648 -0.2336977
vn -0.9697087 0.1071987 0.2194845
vn -0.9691237 0.22734 -0.09547631
vn -0.9687077 0.233968 0.0828515
vn -0.9510792 0.3088537 -0.007595216
vn 0.9476728 -0.3009909 -0.1063988
vn 0.9304879 -0.3660719 0.01354975
vn 0.9533631 -0.2771901 0.1194332
vn 0.9580271 -0.1055668 -0.2665329
vn 0.9579934 -0.0873236 0.2731726
vn 0.9379998 0.00299908 -0.3466229
vn 0.9351782 0.03271227 0.3526637
vn 0.9611357 0.1078326 -0.2541463
vn 0.9603274 0.1265517 0.2485071
vn 0.9524481 0.285248 -0.107127
vn 0.9541081 0.2835155 0.09641963
vn 0.9289154 0.3702546 -0.005249668
vn -0.9304879 -0.3660719 0.01354976
vn 0.961132 -0.2567308 0.1015609
vn 0.9370068 -0.3491163 0.011663
vn -0.9533631 -0.2771901 0.1194332
vn -0.9579934 -0.08732359 0.2731725
vn 0.9729043 -0.08292861 0.2158237
vn 0.9551522 0.01738833 0.2956044
vn -0.9351782 0.03271227 0.3526636
vn 0.9697087 0.1071989 0.2194845
vn -0.9603276 0.1265517 0.2485071
vn -0.9541081 0.2835155 0.09641967
vn 0.9687076 0.2339682 0.08285152
vn 0.9510792 0.3088538 -0.007595223
vn -0.9289154 0.3702547 -0.005249674
vn 0.9691236 0.2273402 -0.09547634
vn -0.952448 0.2852481 -0.107127
vn -0.9611357 0.1078326 -0.2541463
vn 0.9681111 0.09025668 -0.2336978
vn 0.9533607 -0.00673248 -0.3017584
vn -0.9379998 0.002999109 -0.3466228
vn 0.9719539 -0.096509 -0.2144569
vn -0.9580271 -0.1055668 -0.2665329
vn -0.9476728 -0.3009909 -0.1063989
vn 0.9624413 -0.2574219 -0.08626109
vn 0.9370068 -0.3491163 0.011663
vn -0.9304879 -0.3660719 0.01354976
vn 0.9624413 -0.2574219 -0.08626109
vn 0.9370068 -0.3491163 0.011663
vn 0.961132 -0.2567308 0.1015609
vn 0.9719539 -0.096509 -0.2144569
vn 0.9729043 -0.08292861 0.2158237
vn 0.9533607 -0.00673248 -0.3017584
vn 0.9551522 0.01738833 0.2956044
vn 0.9681111 0.09025668 -0.2336978
vn 0.9697087 0.1071989 0.2194845
vn 0.9691236 0.2273402 -0.09547634
vn 0.9687076 0.2339682 0.08285152
vn 0.9510792 0.3088538 -0.007595223
vn -0.9533631 -0.2771901 0.1194332
vn -0.9304879 -0.3660719 0.01354976
vn -0.9476728 -0.3009909 -0.1063989
vn -0.9580271 -0.1055668 -0.2665329
vn -0.9579934 -0.08732359 0.2731725
vn -0.9379998 0.002999109 -0.3466228
vn -0.9351782 0.03271227 0.3526636
vn -0.9611357 0.1078326 -0.2541463
vn -0.9603276 0.1265517 0.2485071
vn -0.952448 0.2852481 -0.107127
vn -0.9541081 0.2835155 0.09641967
vn -0.9289154 0.3702547 -0.005249674
g GoldBracelet_0
f 3/3/3 2/2/2 1/1/1
f 4/4/4 3/3/3 1/1/1
f 4/4/4 5/5/5 3/3/3
f 5/5/5 6/6/6 3/3/3
f 7/7/7 6/6/6 5/5/5
f 8/8/8 7/7/7 5/5/5
f 9/9/9 7/7/7 8/8/8
f 10/10/10 9/9/9 8/8/8
f 10/10/10 11/11/11 9/9/9
f 11/11/11 12/12/12 9/9/9
f 12/12/12 11/11/11 13/13/13
f 11/11/11 14/14/14 13/13/13
f 13/13/13 14/14/14 15/15/15
f 14/14/14 16/16/16 15/15/15
f 15/15/15 16/16/16 17/17/17
f 18/18/18 15/15/15 17/17/17
f 19/19/19 18/18/18 17/17/17
f 20/20/20 19/19/19 17/17/17
f 21/21/21 19/19/19 20/20/20
f 22/22/22 21/21/21 20/20/20
f 22/22/22 23/23/23 21/21/21
f 23/23/23 24/24/24 21/21/21
f 25/25/25 24/24/24 23/23/23
f 26/26/26 25/25/25 23/23/23
f 29/29/29 28/28/28 27/27/27
f 27/27/27 30/30/30 29/29/29
f 27/27/27 31/31/31 30/30/30
f 31/31/31 32/32/32 30/30/30
f 31/31/31 33/33/33 32/32/32
f 33/33/33 34/34/34 32/32/32
f 33/33/33 35/35/35 34/34/34
f 35/35/35 36/36/36 34/34/34
f 35/35/35 37/37/37 36/36/36
f 37/37/37 38/38/38 36/36/36
f 41/41/41 40/40/40 39/39/39
f 39/39/39 42/42/42 41/41/41
f 42/42/42 43/43/43 41/41/41
f 42/42/42 44/44/44 43/43/43
f 44/44/44 45/45/45 43/43/43
f 44/44/44 46/46/46 45/45/45
f 46/46/46 47/47/47 45/45/45
f 46/46/46 48/48/48 47/47/47
f 48/48/48 49/49/49 47/47/47
f 48/48/48 50/50/50 49/49/49
f 53/53/53 52/52/52 51/51/51
f 52/52/52 54/54/54 51/51/51
f 55/55/55 54/54/54 52/52/52
f 56/56/56 55/55/55 52/52/52
f 56/56/56 57/57/57 55/55/55
f 57/57/57 58/58/58 55/55/55
f 57/57/57 59/59/59 58/58/58
f 59/59/59 60/60/60 58/58/58
f 61/61/61 60/60/60 59/59/59
f 62/62/62 61/61/61 59/59/59
f 61/61/61 62/62/62 63/63/63
f 64/64/64 61/61/61 63/63/63
f 64/64/64 63/63/63 65/65/65
f 66/66/66 64/64/64 65/65/65
f 66/66/66 65/65/65 67/67/67
f 65/65/65 68/68/68 67/67/67
f 68/68/68 69/69/69 67/67/67
f 69/69/69 70/70/70 67/67/67
f 69/69/69 71/71/71 70/70/70
f 71/71/71 72/72/72 70/70/70
f 73/73/73 72/72/72 71/71/71
f 74/74/74 73/73/73 71/71/71
f 74/74/74 75/75/75 73/73/73
f 75/75/75 76/76/76 73/73/73
f 79/79/79 78/78/78 77/77/77
f 77/77/77 80/80/80 79/79/79
f 80/80/80 81/81/81 79/79/79
f 80/80/80 82/82/82 81/81/81
f 82/82/82 83/83/83 81/81/81
f 82/82/82 84/84/84 83/83/83
f 84/84/84 85/85/85 83/83/83
f 84/84/84 86/86/86 85/85/85
f 86/86/86 87/87/87 85/85/85
f 86/86/86 88/88/88 87/87/87
f 91/91/91 90/90/90 89/89/89
f 89/89/89 92/92/92 91/91/91
f 89/89/89 93/93/93 92/92/92
f 93/93/93 94/94/94 92/92/92
f 93/93/93 95/95/95 94/94/94
f 95/95/95 96/96/96 94/94/94
f 95/95/95 97/97/97 96/96/96
f 97/97/97 98/98/98 96/96/96
f 97/97/97 99/99/99 98/98/98
f 99/99/99 100/100/100 98/98/98
