g Green
v 2.621433 3.486212 2.176747
v 2.621433 3.486212 3.242377
v -2.621436 3.486212 3.242377
v -2.621436 3.486212 2.176747
v -2.674761 -3.486212 3.242377
v 2.744457 -3.486212 3.242377
v 2.744457 -3.486212 2.176747
v -2.674761 -3.486212 2.176747
v 3.511111 -2.520816 3.242377
v 3.511111 2.167091 3.242377
v 3.511111 2.167091 2.176747
v 3.511111 -2.520816 2.176747
v -3.511111 2.167091 2.176747
v -3.511111 2.167091 3.242377
v -3.511111 -2.520816 3.242377
v -3.511111 -2.520816 2.176747
v -3.511111 2.167091 -3.242377
v 2.621433 3.486212 -3.242377
v -2.621436 3.486212 -3.242377
v 3.511111 2.167091 -3.242377
v -3.511111 -2.520816 -3.242377
v 3.511111 -2.520816 -3.242377
v 2.744457 -3.486212 -3.242377
v -2.674761 -3.486212 -3.242377
v -3.511111 2.167091 3.242377
v -2.621436 3.486212 2.176747
v -2.621436 3.486212 3.242377
v -3.511111 2.167091 2.176747
v -3.511111 2.167091 -2.199756
v -3.511111 -2.520816 2.176747
v -3.511111 -2.520816 -2.199756
v -2.674761 -3.486212 3.242377
v -2.674761 -3.486212 2.176747
v -3.511111 -2.520816 3.242377
v -2.674761 -3.486212 -2.199756
v -3.511111 -2.520816 -3.242377
v -2.674761 -3.486212 -3.242377
v 2.621433 3.486212 3.242377
v 2.621433 3.486212 2.176747
v 3.511111 2.167091 2.176747
v 3.511111 2.167091 3.242377
v 3.511111 2.167091 -2.199756
v 3.511111 -2.520816 -2.199756
v 3.511111 -2.520816 2.176747
v 2.621433 3.486212 -2.199756
v 3.511111 2.167091 -3.242377
v 2.621433 3.486212 -3.242377
v 3.511111 -2.520816 -3.242377
v 2.744457 -3.486212 -3.242377
v 2.744457 -3.486212 -2.199756
v 3.511111 -2.520816 3.242377
v 2.744457 -3.486212 2.176747
v 2.744457 -3.486212 3.242377
v -3.511111 -2.520816 3.242377
v 2.744457 -3.486212 3.242377
v -2.674761 -3.486212 3.242377
v 3.511111 -2.520816 3.242377
v 3.511111 2.167091 3.242377
v -3.511111 2.167091 3.242377
v 2.621433 3.486212 3.242377
v -2.621436 3.486212 3.242377
v -2.674761 -3.486212 2.176747
v -2.674761 -3.486212 -2.199756
v -3.511111 -2.520816 -2.199756
v -3.511111 -2.520816 2.176747
v 2.744457 -3.486212 2.176747
v 2.744457 -3.486212 -2.199756
v -2.674761 -3.486212 -2.199756
v -2.674761 -3.486212 2.176747
v 3.511111 -2.520816 2.176747
v 3.511111 -2.520816 -2.199756
v 2.744457 -3.486212 -2.199756
v 2.744457 -3.486212 2.176747
v 2.621433 3.486212 2.176747
v 2.621433 3.486212 -2.199756
v 3.511111 2.167091 -2.199756
v 3.511111 2.167091 2.176747
v 2.621433 3.486212 -2.199756
v 2.621433 3.486212 2.176747
v -2.621436 3.486212 2.176747
v -2.621436 3.486212 -2.199756
v -3.511111 2.167091 2.176747
v -3.511111 2.167091 -2.199756
v -2.621436 3.486212 -2.199756
v -2.621436 3.486212 2.176747
v -3.511111 2.167091 -2.199756
v -3.511111 2.167091 -3.242377
v -2.621436 3.486212 -3.242377
v -2.621436 3.486212 -2.199756
v -3.511111 -2.520816 -3.242377
v -3.511111 2.167091 -3.242377
v -3.511111 2.167091 -2.199756
v -3.511111 -2.520816 -2.199756
v 2.744457 -3.486212 -2.199756
v 2.744457 -3.486212 -3.242377
v -2.674761 -3.486212 -3.242377
v -2.674761 -3.486212 -2.199756
v 3.511111 2.167091 -2.199756
v 3.511111 2.167091 -3.242377
v 3.511111 -2.520816 -3.242377
v 3.511111 -2.520816 -2.199756
v -2.621436 3.486212 -3.242377
v 2.621433 3.486212 -3.242377
v 2.621433 3.486212 -2.199756
v -2.621436 3.486212 -2.199756
vt 0.1660474 0.8415418
vt 0.1660474 0.8415418
vt 0.1660474 0.8415418
vt 0.1660474 0.8415418
vt 0.1660475 0.8415418
vt 0.1660475 0.8415418
vt 0.1660475 0.8415418
vt 0.1660475 0.8415418
vt 0.1660475 0.8415418
vt 0.1660475 0.8415418
vt 0.1660475 0.8415418
vt 0.1660475 0.8415418
vt 0.1660475 0.8415418
vt 0.1660475 0.8415418
vt 0.1660475 0.8415418
vt 0.1660475 0.8415418
vt 0.6325204 0.8337047
vt 0.6325204 0.8337046
vt 0.6325203 0.8337046
vt 0.6325204 0.8337047
vt 0.6325204 0.8337047
vt 0.6325204 0.8337047
vt 0.6325204 0.8337046
vt 0.6325203 0.8337046
vt 0.2804981 0.8415417
vt 0.280498 0.8415417
vt 0.280498 0.8415417
vt 0.2804981 0.8415417
vt 0.2804981 0.8415418
vt 0.280498 0.8415417
vt 0.2804981 0.8415418
vt 0.280498 0.8415416
vt 0.280498 0.8415416
vt 0.280498 0.8415416
vt 0.280498 0.8415416
vt 0.280498 0.8415418
vt 0.280498 0.8415417
vt 0.2804981 0.8415417
vt 0.2804981 0.8415417
vt 0.2804981 0.8415417
vt 0.2804981 0.8415417
vt 0.2804983 0.8415418
vt 0.2804983 0.8415418
vt 0.280498 0.8415416
vt 0.2804981 0.8415417
vt 0.2804981 0.8415418
vt 0.2804981 0.8415418
vt 0.280498 0.8415416
vt 0.280498 0.8415418
vt 0.280498 0.8415418
vt 0.280498 0.8415416
vt 0.280498 0.8415418
vt 0.280498 0.8415418
vt 0.6233804 0.834963
vt 0.6233804 0.8349629
vt 0.6233804 0.8349629
vt 0.6233804 0.834963
vt 0.6233804 0.834963
vt 0.6233804 0.834963
vt 0.6233804 0.8349631
vt 0.6233804 0.8349631
vt 0.6233804 0.8349629
vt 0.6233804 0.8349629
vt 0.6233804 0.8349629
vt 0.6233804 0.8349629
vt 0.3862375 0.834963
vt 0.3862375 0.834963
vt 0.3862375 0.834963
vt 0.3862375 0.834963
vt 0.6233804 0.834963
vt 0.6233804 0.834963
vt 0.6233804 0.834963
vt 0.6233804 0.834963
vt 0.4924577 0.834963
vt 0.4924577 0.834963
vt 0.4924577 0.834963
vt 0.4924577 0.834963
vt 0.3862375 0.8349631
vt 0.3862375 0.834963
vt 0.3862375 0.834963
vt 0.3862375 0.8349631
vt 0.4924577 0.834963
vt 0.4924577 0.834963
vt 0.4924577 0.834963
vt 0.4924577 0.834963
vt 0.2804981 0.8415417
vt 0.2804981 0.8415418
vt 0.280498 0.8415418
vt 0.280498 0.8415417
vt 0.1660475 0.8415418
vt 0.1660475 0.8415418
vt 0.1660475 0.8415418
vt 0.1660475 0.8415418
vt 0.1660475 0.8415418
vt 0.1660475 0.8415418
vt 0.1660475 0.8415418
vt 0.1660475 0.8415418
vt 0.1660475 0.8415418
vt 0.1660475 0.8415418
vt 0.1660475 0.8415418
vt 0.1660475 0.8415418
vt 0.1660474 0.8415418
vt 0.1660474 0.8415418
vt 0.1660474 0.8415418
vt 0.1660474 0.8415418
vn 0.2102917 0.9776387 0
vn 0.1081615 0.502839 0.8575862
vn -0.1081615 0.502839 0.8575861
vn -0.2102918 0.9776387 0
vn -0.09321835 -0.6040354 0.791487
vn 0.09471264 -0.6068805 0.7891296
vn 0.1541982 -0.9880399 0
vn -0.1525204 -0.9883003 0
vn 0.1634213 -0.02216186 0.9863074
vn 0.1662626 0.02462452 0.985774
vn 0.9892095 0.146508 0
vn 0.9909297 -0.1343818 0
vn -0.9892096 0.1465075 0
vn -0.1662625 0.02462443 0.985774
vn -0.1641312 -0.0242816 0.9861397
vn -0.9892333 -0.1463473 0
vn -0.1627709 0.02410731 -0.9863693
vn 0.1064292 0.4947855 -0.8624732
vn -0.1064292 0.4947856 -0.8624731
vn 0.162771 0.02410738 -0.9863693
vn -0.1606819 -0.02377131 -0.98672
vn 0.1599858 -0.02169597 -0.9868809
vn 0.09342352 -0.5986202 -0.7955664
vn -0.09194212 -0.5957658 -0.7978783
vn -0.1662625 0.02462443 0.985774
vn -0.2102918 0.9776387 0
vn -0.1081615 0.502839 0.8575861
vn -0.9892096 0.1465075 0
vn -0.9892096 0.1465076 0
vn -0.9892333 -0.1463473 0
vn -0.9892333 -0.1463473 0
vn -0.09321835 -0.6040354 0.791487
vn -0.1525204 -0.9883003 0
vn -0.1641312 -0.0242816 0.9861397
vn -0.1525204 -0.9883003 0
vn -0.1606819 -0.02377131 -0.98672
vn -0.09194212 -0.5957658 -0.7978783
vn 0.1081615 0.502839 0.8575862
vn 0.2102917 0.9776387 0
vn 0.9892095 0.146508 0
vn 0.1662626 0.02462452 0.985774
vn 0.9892095 0.146508 0
vn 0.9909297 -0.1343818 0
vn 0.9909297 -0.1343818 0
vn 0.2102917 0.9776387 0
vn 0.162771 0.02410738 -0.9863693
vn 0.1064292 0.4947855 -0.8624732
vn 0.1599858 -0.02169597 -0.9868809
vn 0.09342352 -0.5986202 -0.7955664
vn 0.1541982 -0.9880399 0
vn 0.1634213 -0.02216186 0.9863074
vn 0.1541982 -0.9880399 0
vn 0.09471264 -0.6068805 0.7891296
vn -0.1641312 -0.0242816 0.9861397
vn 0.09471264 -0.6068805 0.7891296
vn -0.09321835 -0.6040354 0.791487
vn 0.1634213 -0.02216186 0.9863074
vn 0.1662626 0.02462452 0.985774
vn -0.1662625 0.02462443 0.985774
vn 0.1081615 0.502839 0.8575862
vn -0.1081615 0.502839 0.8575861
vn -0.1525204 -0.9883003 0
vn -0.1525204 -0.9883003 0
vn -0.9892333 -0.1463473 0
vn -0.9892333 -0.1463473 0
vn 0.1541982 -0.9880399 0
vn 0.1541982 -0.9880399 0
vn -0.1525204 -0.9883003 0
vn -0.1525204 -0.9883003 0
vn 0.9909297 -0.1343818 0
vn 0.9909297 -0.1343818 0
vn 0.1541982 -0.9880399 0
vn 0.1541982 -0.9880399 0
vn 0.2102917 0.9776387 0
vn 0.2102917 0.9776387 0
vn 0.9892095 0.146508 0
vn 0.9892095 0.146508 0
vn 0.2102917 0.9776387 0
vn 0.2102917 0.9776387 0
vn -0.2102918 0.9776387 0
vn -0.2102918 0.9776387 0
vn -0.9892096 0.1465075 0
vn -0.9892096 0.1465076 0
vn -0.2102918 0.9776387 0
vn -0.2102918 0.9776387 0
vn -0.9892096 0.1465076 0
vn -0.1627709 0.02410731 -0.9863693
vn -0.1064292 0.4947856 -0.8624731
vn -0.2102918 0.9776387 0
vn -0.1606819 -0.02377131 -0.98672
vn -0.1627709 0.02410731 -0.9863693
vn -0.9892096 0.1465076 0
vn -0.9892333 -0.1463473 0
vn 0.1541982 -0.9880399 0
vn 0.09342352 -0.5986202 -0.7955664
vn -0.09194212 -0.5957658 -0.7978783
vn -0.1525204 -0.9883003 0
vn 0.9892095 0.146508 0
vn 0.162771 0.02410738 -0.9863693
vn 0.1599858 -0.02169597 -0.9868809
vn 0.9909297 -0.1343818 0
vn -0.1064292 0.4947856 -0.8624731
vn 0.1064292 0.4947855 -0.8624732
vn 0.2102917 0.9776387 0
vn -0.2102918 0.9776387 0
g Green_0
f 3/3/3 2/2/2 1/1/1
f 4/4/4 3/3/3 1/1/1
f 7/7/7 6/6/6 5/5/5
f 8/8/8 7/7/7 5/5/5
f 11/11/11 10/10/10 9/9/9
f 12/12/12 11/11/11 9/9/9
f 15/15/15 14/14/14 13/13/13
f 16/16/16 15/15/15 13/13/13
f 19/19/19 18/18/18 17/17/17
f 18/18/18 20/20/20 17/17/17
f 17/17/17 20/20/20 21/21/21
f 20/20/20 22/22/22 21/21/21
f 22/22/22 23/23/23 21/21/21
f 23/23/23 24/24/24 21/21/21
f 27/27/27 26/26/26 25/25/25
f 26/26/26 28/28/28 25/25/25
f 30/30/30 28/28/28 29/29/29
f 31/31/31 30/30/30 29/29/29
f 30/30/30 33/33/33 32/32/32
f 34/34/34 30/30/30 32/32/32
f 31/31/31 36/36/36 35/35/35
f 36/36/36 37/37/37 35/35/35
f 40/40/40 39/39/39 38/38/38
f 41/41/41 40/40/40 38/38/38
f 43/43/43 42/42/42 40/40/40
f 44/44/44 43/43/43 40/40/40
f 42/42/42 46/46/46 45/45/45
f 46/46/46 47/47/47 45/45/45
f 49/49/49 48/48/48 43/43/43
f 50/50/50 49/49/49 43/43/43
f 52/52/52 44/44/44 51/51/51
f 53/53/53 52/52/52 51/51/51
f 56/56/56 55/55/55 54/54/54
f 55/55/55 57/57/57 54/54/54
f 54/54/54 57/57/57 58/58/58
f 59/59/59 54/54/54 58/58/58
f 58/58/58 60/60/60 59/59/59
f 60/60/60 61/61/61 59/59/59
f 64/64/64 63/63/63 62/62/62
f 65/65/65 64/64/64 62/62/62
f 68/68/68 67/67/67 66/66/66
f 69/69/69 68/68/68 66/66/66
f 72/72/72 71/71/71 70/70/70
f 73/73/73 72/72/72 70/70/70
f 76/76/76 75/75/75 74/74/74
f 77/77/77 76/76/76 74/74/74
f 80/80/80 79/79/79 78/78/78
f 81/81/81 80/80/80 78/78/78
f 84/84/84 83/83/83 82/82/82
f 85/85/85 84/84/84 82/82/82
f 88/88/88 87/87/87 86/86/86
f 89/89/89 88/88/88 86/86/86
f 92/92/92 91/91/91 90/90/90
f 93/93/93 92/92/92 90/90/90
f 96/96/96 95/95/95 94/94/94
f 97/97/97 96/96/96 94/94/94
f 100/100/100 99/99/99 98/98/98
f 101/101/101 100/100/100 98/98/98
f 104/104/104 103/103/103 102/102/102
f 105/105/105 104/104/104 102/102/102
