g GreenLight
v 7.462528 5.251804 4.750163
v 6.881806 6.020234 6.269733
v 6.881806 5.835099 4.682142
v 7.462528 5.436941 6.337755
v 7.675086 4.455009 4.843081
v 7.675086 4.640146 6.430671
v 7.462528 3.658215 4.935999
v 7.462528 3.843351 6.52359
v 6.881806 3.074921 5.004019
v 6.881806 3.260057 6.59161
v 6.088523 2.86142 5.028916
v 6.088523 3.046556 6.616508
v 5.295244 3.074921 5.004019
v 5.295244 3.260057 6.59161
v 4.714522 3.658215 4.935999
v 4.714522 3.843351 6.52359
v 4.501963 4.455009 4.843081
v 4.501963 4.640146 6.430671
v 4.714522 5.251804 4.750163
v 4.714522 5.436941 6.337755
v 5.295244 5.835099 4.682142
v 5.295244 6.020234 6.269733
v 6.881806 5.835099 4.682142
v 6.881806 6.020234 6.269733
v 6.088523 6.233735 6.244836
v 6.088523 6.048598 4.657245
v 5.295244 6.020234 6.269733
v 5.295244 5.835099 4.682142
v 7.297269 5.305149 6.284075
v 6.088523 4.673937 6.963943
v 6.786393 5.818286 6.224236
v 7.484263 4.604187 6.365817
v 6.088523 6.006108 6.202332
v 7.297269 3.903227 6.447559
v 5.390654 5.818286 6.224236
v 6.786393 3.390088 6.507399
v 4.879781 5.305149 6.284075
v 6.088523 3.202267 6.529302
v 4.692787 4.604187 6.365817
v 5.390654 3.390088 6.507399
v 4.879781 3.903227 6.447559
v 7.462528 5.436941 6.337755
v 6.088523 4.648691 6.503951
v 6.881806 6.020234 6.269733
v 7.675086 4.640146 6.430671
v 6.088523 6.233735 6.244836
v 7.462528 3.843351 6.52359
v 5.295244 6.020234 6.269733
v 6.881806 3.260057 6.59161
v 4.714522 5.436941 6.337755
v 6.088523 3.046556 6.616508
v 4.501963 4.640146 6.430671
v 5.295244 3.260057 6.59161
v 4.714522 3.843351 6.52359
vt 0.379076 0.8399183
vt 0.379076 0.8399183
vt 0.379076 0.8399183
vt 0.379076 0.8399183
vt 0.379076 0.8399183
vt 0.379076 0.8399183
vt 0.379076 0.8399183
vt 0.379076 0.8399183
vt 0.379076 0.8399183
vt 0.379076 0.8399183
vt 0.379076 0.8399183
vt 0.379076 0.8399183
vt 0.379076 0.8399183
vt 0.379076 0.8399183
vt 0.379076 0.8399183
vt 0.379076 0.8399183
vt 0.379076 0.8399183
vt 0.379076 0.8399183
vt 0.379076 0.8399183
vt 0.379076 0.8399183
vt 0.379076 0.8399183
vt 0.379076 0.8399183
vt 0.1519438 0.8645638
vt 0.1519438 0.8645638
vt 0.1519438 0.8645638
vt 0.1519438 0.8645638
vt 0.1519438 0.8645638
vt 0.1519438 0.8645638
vt 0.063308 0.8398799
vt 0.063308 0.8398799
vt 0.063308 0.8398799
vt 0.063308 0.8398799
vt 0.063308 0.8398799
vt 0.063308 0.8398799
vt 0.063308 0.8398799
vt 0.063308 0.8398799
vt 0.063308 0.8398799
vt 0.063308 0.8398799
vt 0.063308 0.8398799
vt 0.063308 0.8398799
vt 0.063308 0.8398799
vt 0.4909737 0.8417963
vt 0.4909737 0.8417963
vt 0.4909737 0.8417964
vt 0.4909737 0.8417963
vt 0.4909737 0.8417964
vt 0.4909737 0.8417963
vt 0.4909737 0.8417964
vt 0.4909737 0.8417963
vt 0.4909737 0.8417963
vt 0.4909737 0.8417963
vt 0.4909737 0.8417963
vt 0.4909737 0.8417963
vt 0.4909737 0.8417963
vn 0.8684278 0.4924782 -0.0574301
vn 0.4666666 0.8378297 0.2833083
vn 0.5041951 0.857777 -0.1000292
vn 0.8042217 0.4998086 0.3215877
vn 1 0 0
vn 0.926314 0.04363902 0.3742165
vn 0.8684279 -0.4924782 0.0574301
vn 0.8042219 -0.4123999 0.4279643
vn 0.5041954 -0.8577768 0.1000292
vn 0.4666669 -0.7501588 0.4684907
vn 0 -0.9932691 0.1158296
vn 0 -0.8752604 0.4836521
vn -0.5041963 -0.8577763 0.1000292
vn -0.4666678 -0.7501585 0.4684905
vn -0.8684276 -0.4924786 0.05743032
vn -0.8042217 -0.4124003 0.4279641
vn -1 0 0
vn -0.9263142 0.04363893 0.374216
vn -0.8684276 0.4924787 -0.05742999
vn -0.8042217 0.499809 0.3215874
vn -0.504196 0.8577766 -0.1000291
vn -0.4666675 0.8378294 0.2833081
vn 0.5041951 0.857777 -0.1000292
vn 0.4666666 0.8378297 0.2833083
vn 0 0.9630628 0.269277
vn 0 0.9932691 -0.1158296
vn -0.4666675 0.8378294 0.2833081
vn -0.504196 0.8577766 -0.1000291
vn 0.3428911 0.3015972 0.8896431
vn 0 0.1158295 0.9932691
vn 0.1977592 0.4442313 0.8738133
vn 0.3961436 0.1063534 0.9120083
vn 0 0.4963205 0.8681394
vn 0.3428912 -0.08879774 0.9351688
vn -0.1977596 0.4442314 0.8738133
vn 0.1977596 -0.2312469 0.9525839
vn -0.342892 0.3015972 0.8896427
vn 0 -0.2832439 0.9590479
vn -0.3961447 0.1063534 0.9120079
vn -0.1977601 -0.2312469 0.9525838
vn -0.3428922 -0.08879787 0.9351684
vn 0.8042217 0.4998086 0.3215877
vn 0 0.1158295 0.9932691
vn 0.4666666 0.8378297 0.2833083
vn 0.926314 0.04363902 0.3742165
vn 0 0.9630628 0.269277
vn 0.8042219 -0.4123999 0.4279643
vn -0.4666675 0.8378294 0.2833081
vn 0.4666669 -0.7501588 0.4684907
vn -0.8042217 0.499809 0.3215874
vn 0 -0.8752604 0.4836521
vn -0.9263142 0.04363893 0.374216
vn -0.4666678 -0.7501585 0.4684905
vn -0.8042217 -0.4124003 0.4279641
g GreenLight_0
f 3/3/3 2/2/2 1/1/1
f 2/2/2 4/4/4 1/1/1
f 1/1/1 4/4/4 5/5/5
f 4/4/4 6/6/6 5/5/5
f 5/5/5 6/6/6 7/7/7
f 6/6/6 8/8/8 7/7/7
f 7/7/7 8/8/8 9/9/9
f 8/8/8 10/10/10 9/9/9
f 9/9/9 10/10/10 11/11/11
f 10/10/10 12/12/12 11/11/11
f 11/11/11 12/12/12 13/13/13
f 12/12/12 14/14/14 13/13/13
f 13/13/13 14/14/14 15/15/15
f 14/14/14 16/16/16 15/15/15
f 15/15/15 16/16/16 17/17/17
f 16/16/16 18/18/18 17/17/17
f 17/17/17 18/18/18 19/19/19
f 18/18/18 20/20/20 19/19/19
f 19/19/19 20/20/20 21/21/21
f 20/20/20 22/22/22 21/21/21
f 25/25/25 24/24/24 23/23/23
f 26/26/26 25/25/25 23/23/23
f 27/27/27 25/25/25 26/26/26
f 28/28/28 27/27/27 26/26/26
f 31/31/31 30/30/30 29/29/29
f 29/29/29 30/30/30 32/32/32
f 33/33/33 30/30/30 31/31/31
f 32/32/32 30/30/30 34/34/34
f 35/35/35 30/30/30 33/33/33
f 34/34/34 30/30/30 36/36/36
f 37/37/37 30/30/30 35/35/35
f 36/36/36 30/30/30 38/38/38
f 39/39/39 30/30/30 37/37/37
f 38/38/38 30/30/30 40/40/40
f 41/41/41 30/30/30 39/39/39
f 40/40/40 30/30/30 41/41/41
f 44/44/44 43/43/43 42/42/42
f 42/42/42 43/43/43 45/45/45
f 46/46/46 43/43/43 44/44/44
f 45/45/45 43/43/43 47/47/47
f 48/48/48 43/43/43 46/46/46
f 47/47/47 43/43/43 49/49/49
f 50/50/50 43/43/43 48/48/48
f 49/49/49 43/43/43 51/51/51
f 52/52/52 43/43/43 50/50/50
f 51/51/51 43/43/43 53/53/53
f 54/54/54 43/43/43 52/52/52
f 53/53/53 43/43/43 54/54/54
