g GreyStripe
v -2.907907 6.217889 4.944696
v -1.066184 6.217889 4.944696
v -1.066184 7.737491 4.944696
v -1.066184 6.217889 14.65533
v -2.907907 7.737491 4.944696
v -2.907907 6.217889 14.65533
v -2.907907 7.737491 14.65533
v -1.066184 7.737491 14.65533
v 2.528963 7.737491 14.65533
v 2.528962 6.217889 14.65533
v 0.7044188 7.737491 14.65533
v 2.528963 7.737491 4.944696
v 0.7044187 6.217889 14.65533
v 0.7044188 7.737491 4.944696
v 2.528962 6.217889 4.944696
v 0.7044185 6.217889 4.944696
vt 0.929556 0.2499363
vt 0.9701734 0.2499363
vt 0.9701734 0.2499363
vt 0.9701734 0.2499363
vt 0.929556 0.2499363
vt 0.929556 0.2499363
vt 0.929556 0.2499363
vt 0.9701734 0.2499363
vt 0.9701734 0.2499363
vt 0.9701734 0.2499363
vt 0.929556 0.2499363
vt 0.9701734 0.2499363
vt 0.929556 0.2499363
vt 0.929556 0.2499363
vt 0.9701734 0.2499363
vt 0.929556 0.2499363
vn 0 -0.7071068 -0.7071068
vn 0 -0.7071068 -0.7071068
vn 0 0.7071068 -0.7071068
vn 0 -0.7071069 0.7071066
vn 0 0.7071068 -0.7071068
vn 0 -0.7071068 0.7071068
vn 0 0.7071066 0.7071069
vn 0 0.7071065 0.707107
vn 0 0.7071065 0.707107
vn 0 -0.4472141 0.8944269
vn 0 0.7071065 0.707107
vn 0 0.8944272 -0.4472137
vn 0 -0.8944273 0.4472134
vn 0 0.4472136 -0.8944272
vn 0 -0.7071068 -0.7071068
vn 0 -0.7071068 -0.7071068
g GreyStripe_0
f 3/3/3 2/2/2 1/1/1
f 1/1/1 2/2/2 4/4/4
f 1/1/1 5/5/5 3/3/3
f 4/4/4 6/6/6 1/1/1
f 3/3/3 5/5/5 7/7/7
f 6/6/6 4/4/4 7/7/7
f 7/7/7 8/8/8 3/3/3
f 7/7/7 4/4/4 8/8/8
f 11/11/11 10/10/10 9/9/9
f 11/11/11 9/9/9 12/12/12
f 13/13/13 10/10/10 11/11/11
f 12/12/12 14/14/14 11/11/11
f 15/15/15 10/10/10 13/13/13
f 14/14/14 12/12/12 15/15/15
f 13/13/13 16/16/16 15/15/15
f 15/15/15 16/16/16 14/14/14
