g Grey_nose
v -2.1347 1.628385 20.72559
v -3.92307 1.405363 18.93099
v -4.841888 3.767896 18.9331
v -2.357204 -0.1558781 18.93512
v -2.899118 3.767659 20.7492
v -3.921315 5.597164 18.92963
v -1.436472E-06 0.8648347 20.7498
v -2.264977E-06 -1.066269 18.94679
v -2.133064 5.373475 20.72375
v -2.343152 7.100679 18.93385
v 3.494528E-09 3.766506 21.58532
v 2.1347 1.628389 20.7256
v 2.355654 -0.1435844 18.9475
v 3.902616 1.407946 18.95159
v -9.838378E-07 6.135448 20.74759
v -1.567602E-06 7.987222 18.94507
v 2.899118 3.76766 20.7492
v 4.814567 3.767899 18.95859
v 2.133064 5.373473 20.72375
v 2.341706 7.088831 18.94616
v 3.900861 5.594584 18.95023
v 2.301755 -0.06236092 18.85942
v 2.355654 -0.1435844 18.9475
v 3.902616 1.407946 18.95159
v 3.821392 1.461842 18.8635
v -1.933444E-17 -0.9777138 18.85323
v 4.814567 3.767899 18.95859
v -2.264977E-06 -1.066269 18.94679
v 4.727179 3.763087 18.86594
v -2.303303 -0.07465385 18.84704
v 3.900861 5.594584 18.95023
v -2.357204 -0.1558781 18.93512
v 3.821392 5.534809 18.8635
v -3.841847 1.459266 18.8429
v 2.341706 7.088831 18.94616
v -3.92307 1.405363 18.93099
v 2.288272 7.005701 18.85938
v -4.754503 3.763087 18.84045
v -1.567602E-06 7.987222 18.94507
v -4.841888 3.767896 18.9331
v -1.933444E-17 7.896985 18.85323
v -3.841847 5.537385 18.8429
v -2.343152 7.100679 18.93385
v -3.921315 5.597164 18.92963
v -2.289716 7.017548 18.84707
vt 0.4281816 0.738113
vt 0.4075512 0.7355402
vt 0.4017883 0.7627941
vt 0.4249239 0.7166663
vt 0.4193634 0.7627913
vt 0.4075715 0.7838963
vt 0.4528071 0.7293047
vt 0.4528071 0.7070279
vt 0.4282005 0.7813159
vt 0.4247405 0.8021043
vt 0.4528072 0.762778
vt 0.4774328 0.738113
vt 0.481018 0.7174991
vt 0.4978272 0.7355701
vt 0.4528071 0.7901059
vt 0.4528071 0.8114676
vt 0.486251 0.7627913
vt 0.5033381 0.7627941
vt 0.4774139 0.7813159
vt 0.4817208 0.8017949
vt 0.4978069 0.7838665
vt 0.4803962 0.7184361
vt 0.481018 0.7174991
vt 0.4978272 0.7355701
vt 0.4968902 0.7361919
vt 0.4528072 0.7080495
vt 0.5033381 0.7627941
vt 0.4528071 0.7070279
vt 0.5023301 0.7627386
vt 0.4255457 0.7176034
vt 0.4978069 0.7838665
vt 0.4249239 0.7166663
vt 0.4968902 0.783177
vt 0.4084882 0.7361619
vt 0.4817208 0.8017949
vt 0.4075512 0.7355402
vt 0.4811044 0.8008358
vt 0.4027964 0.7627386
vt 0.4528071 0.8114676
vt 0.4017883 0.7627941
vt 0.4528072 0.8104267
vt 0.4084882 0.7832068
vt 0.4247405 0.8021043
vt 0.4075715 0.7838963
vt 0.4253569 0.8011453
vn -0.437883 -0.4375042 0.7853969
vn -0.8357918 -0.5477507 -0.03770031
vn -0.9987565 0.04977353 -0.002835802
vn -0.5454467 -0.8372294 -0.03917778
vn -0.4585732 0.03289794 0.8880475
vn -0.8013265 0.5959756 -0.05185602
vn -9.563832E-06 -0.4581153 0.8888928
vn 0.002431242 -0.9999936 0.002631217
vn -0.4299676 0.4741801 0.7682976
vn -0.532587 0.8445987 -0.0548095
vn 0 0.0267664 0.9996418
vn 0.4378808 -0.4374774 0.7854132
vn 0.5488116 -0.8350327 -0.03906899
vn 0.837262 -0.5454985 -0.03773189
vn -6.347351E-06 0.4903056 0.8715506
vn 0.002407453 0.9998627 -0.01639789
vn 0.4585792 0.03290727 0.8880439
vn 0.9987651 0.04959374 -0.002941911
vn 0.4299637 0.4741632 0.7683101
vn 0.5359929 0.8424491 -0.05469083
vn 0.8030419 0.5936587 -0.05189417
vn 0.3761002 -0.5771565 -0.7248717
vn 0.5488116 -0.8350327 -0.03906899
vn 0.837262 -0.5454985 -0.03773189
vn 0.5816257 -0.3726823 -0.7230626
vn 0.003368314 -0.6894487 -0.7243267
vn 0.9987651 0.04959374 -0.002941911
vn 0.002431242 -0.9999936 0.002631217
vn 0.6812413 0.03066724 -0.7314163
vn -0.3711413 -0.5800909 -0.7250853
vn 0.8030419 0.5936587 -0.05189417
vn -0.5454467 -0.8372294 -0.03917778
vn 0.5515168 0.4014808 -0.7311924
vn -0.579521 -0.3758468 -0.7231145
vn 0.5359929 0.8424491 -0.05469083
vn -0.8357918 -0.5477507 -0.03770031
vn 0.3610019 0.5721611 -0.7364165
vn -0.6806605 0.03089963 -0.7319471
vn 0.002407453 0.9998627 -0.01639789
vn -0.9987565 0.04977353 -0.002835802
vn 0.003329592 0.6777027 -0.7353286
vn -0.5490808 0.4047918 -0.7312003
vn -0.532587 0.8445987 -0.0548095
vn -0.8013265 0.5959756 -0.05185602
vn -0.3559926 0.5750175 -0.7366302
g Grey_nose_0
f 3/3/3 2/2/2 1/1/1
f 4/4/4 1/1/1 2/2/2
f 5/5/5 3/3/3 1/1/1
f 6/6/6 3/3/3 5/5/5
f 7/7/7 1/1/1 4/4/4
f 5/5/5 1/1/1 7/7/7
f 8/8/8 7/7/7 4/4/4
f 9/9/9 6/6/6 5/5/5
f 10/10/10 6/6/6 9/9/9
f 11/11/11 5/5/5 7/7/7
f 9/9/9 5/5/5 11/11/11
f 12/12/12 7/7/7 8/8/8
f 11/11/11 7/7/7 12/12/12
f 13/13/13 12/12/12 8/8/8
f 14/14/14 12/12/12 13/13/13
f 10/10/10 9/9/9 15/15/15
f 15/15/15 9/9/9 11/11/11
f 16/16/16 10/10/10 15/15/15
f 17/17/17 11/11/11 12/12/12
f 17/17/17 12/12/12 14/14/14
f 15/15/15 11/11/11 17/17/17
f 18/18/18 17/17/17 14/14/14
f 16/16/16 15/15/15 19/19/19
f 19/19/19 15/15/15 17/17/17
f 19/19/19 17/17/17 18/18/18
f 20/20/20 16/16/16 19/19/19
f 21/21/21 19/19/19 18/18/18
f 20/20/20 19/19/19 21/21/21
f 24/24/24 23/23/23 22/22/22
f 25/25/25 24/24/24 22/22/22
f 22/22/22 23/23/23 26/26/26
f 27/27/27 24/24/24 25/25/25
f 23/23/23 28/28/28 26/26/26
f 29/29/29 27/27/27 25/25/25
f 26/26/26 28/28/28 30/30/30
f 31/31/31 27/27/27 29/29/29
f 28/28/28 32/32/32 30/30/30
f 33/33/33 31/31/31 29/29/29
f 30/30/30 32/32/32 34/34/34
f 35/35/35 31/31/31 33/33/33
f 32/32/32 36/36/36 34/34/34
f 37/37/37 35/35/35 33/33/33
f 34/34/34 36/36/36 38/38/38
f 39/39/39 35/35/35 37/37/37
f 36/36/36 40/40/40 38/38/38
f 41/41/41 39/39/39 37/37/37
f 38/38/38 40/40/40 42/42/42
f 43/43/43 39/39/39 41/41/41
f 40/40/40 44/44/44 42/42/42
f 45/45/45 43/43/43 41/41/41
f 42/42/42 44/44/44 45/45/45
f 44/44/44 43/43/43 45/45/45
