g GripHandle_Grey
v 1.549488 3.599677 -0.4488086
v 1.639512 3.451456 -0.4488086
v 1.639512 3.451456 -1.249632
v 1.549488 3.599678 -1.249633
v 1.41838 3.774786 -0.4488086
v 1.41838 3.774786 -1.249633
v 1.253005 3.901683 -0.4488086
v 1.253005 3.901683 -1.249633
v 1.104781 3.978545 -0.4488086
v 1.104781 3.978546 -1.249633
v -1.104781 3.978545 -0.4488086
v -1.104781 3.978546 -1.249633
v -1.253005 3.901683 -1.249633
v -1.253005 3.901683 -0.4488086
v -1.41838 3.774786 -1.249633
v -1.41838 3.774786 -0.4488086
v -1.549488 3.599678 -1.249633
v -1.549488 3.599677 -0.4488086
v -1.639512 3.451456 -1.249632
v -1.639512 3.451456 -0.4488086
v 1.639512 3.451456 -0.4488086
v 1.630408 2.001139 -0.4488086
v 1.630408 2.00114 -1.249631
v 1.639512 3.451456 -1.249632
v -1.639512 3.451456 -0.4488086
v -1.639512 3.451456 -1.249632
v -1.630408 2.00114 -1.249631
v -1.630408 2.001139 -0.4488086
v 2.128859 3.946345 -0.4488086
v 2.28911 3.591239 -1.249631
v 2.28911 3.591238 -0.4488086
v 2.128859 3.946346 -1.249631
v 1.894873 4.25128 -0.4488086
v 1.894873 4.25128 -1.249631
v 1.589937 4.485265 -0.4488086
v 1.589937 4.485266 -1.249631
v 1.234832 4.632355 -0.4488086
v 1.234832 4.632356 -1.249631
v -1.234832 4.632355 -0.4488086
v -1.234832 4.632356 -1.249631
v -1.589937 4.485266 -1.249631
v -1.589937 4.485265 -0.4488086
v -1.894873 4.25128 -1.249631
v -1.894873 4.25128 -0.4488086
v -2.128859 3.946346 -1.249631
v -2.128859 3.946345 -0.4488086
v -2.28911 3.591239 -1.249631
v -2.28911 3.591238 -0.4488086
v 2.28911 3.591238 -0.4488086
v 2.28911 3.591239 -1.249631
v 2.260029 1.726124 -1.249631
v 2.260029 1.726124 -0.4488086
v -2.28911 3.591238 -0.4488086
v -2.260029 1.726124 -0.4488086
v -2.260029 1.726124 -1.249631
v -2.28911 3.591239 -1.249631
v 2.28911 3.591238 -0.4488086
v 2.260029 1.726124 -0.4488086
v 1.949252 1.863632 -0.4488086
v 1.964311 3.521347 -0.4488086
v 2.128859 3.946345 -0.4488086
v 1.839174 3.773011 -0.4488086
v 1.894873 4.25128 -0.4488086
v 1.656627 4.013033 -0.4488086
v 1.589937 4.485265 -0.4488086
v 1.421471 4.193474 -0.4488086
v 1.234832 4.632355 -0.4488086
v 1.169806 4.30545 -0.4488086
v -1.234832 4.632355 -0.4488086
v -1.169806 4.30545 -0.4488086
v -1.589937 4.485265 -0.4488086
v -1.421471 4.193474 -0.4488086
v -1.894873 4.25128 -0.4488086
v -1.656627 4.013033 -0.4488086
v -2.128859 3.946345 -0.4488086
v -1.839174 3.773011 -0.4488086
v -2.28911 3.591238 -0.4488086
v -1.964311 3.521347 -0.4488086
v -2.260029 1.726124 -0.4488086
v -1.949252 1.863632 -0.4488086
v 2.260029 1.726124 -1.249631
v 1.964311 3.521348 -1.534129
v 1.949253 1.863632 -1.534129
v 2.28911 3.591239 -1.249631
v 1.839174 3.773011 -1.53413
v 2.128859 3.946346 -1.249631
v 1.656627 4.013033 -1.53413
v 1.894873 4.25128 -1.249631
v 1.421471 4.193475 -1.53413
v 1.589937 4.485266 -1.249631
v 1.169806 4.305451 -1.53413
v 1.234832 4.632356 -1.249631
v -1.169806 4.305451 -1.53413
v -1.234832 4.632356 -1.249631
v -1.421471 4.193475 -1.53413
v -1.589937 4.485266 -1.249631
v -1.656627 4.013033 -1.53413
v -1.894873 4.25128 -1.249631
v -1.839174 3.773011 -1.53413
v -2.128859 3.946346 -1.249631
v -1.964311 3.521348 -1.534129
v -2.28911 3.591239 -1.249631
v -1.949253 1.863632 -1.534129
v -2.260029 1.726124 -1.249631
v -1.949252 1.863632 -0.4488086
v -1.639512 3.451456 -0.4488086
v -1.630408 2.001139 -0.4488086
v -1.964311 3.521347 -0.4488086
v -1.839174 3.773011 -0.4488086
v -1.549488 3.599677 -0.4488086
v -1.656627 4.013033 -0.4488086
v -1.41838 3.774786 -0.4488086
v -1.421471 4.193474 -0.4488086
v -1.253005 3.901683 -0.4488086
v -1.169806 4.30545 -0.4488086
v -1.104781 3.978545 -0.4488086
v 1.169806 4.30545 -0.4488086
v 1.104781 3.978545 -0.4488086
v 1.421471 4.193474 -0.4488086
v 1.253005 3.901683 -0.4488086
v 1.656627 4.013033 -0.4488086
v 1.41838 3.774786 -0.4488086
v 1.839174 3.773011 -0.4488086
v 1.549488 3.599677 -0.4488086
v 1.964311 3.521347 -0.4488086
v 1.639512 3.451456 -0.4488086
v 1.949252 1.863632 -0.4488086
v 1.630408 2.001139 -0.4488086
v 1.949253 1.863632 -1.534129
v 1.639512 3.451456 -1.249632
v 1.630408 2.00114 -1.249631
v 1.964311 3.521348 -1.534129
v 1.839174 3.773011 -1.53413
v 1.549488 3.599678 -1.249633
v 1.656627 4.013033 -1.53413
v 1.41838 3.774786 -1.249633
v 1.421471 4.193475 -1.53413
v 1.253005 3.901683 -1.249633
v 1.169806 4.305451 -1.53413
v 1.104781 3.978546 -1.249633
v -1.169806 4.305451 -1.53413
v -1.104781 3.978546 -1.249633
v -1.421471 4.193475 -1.53413
v -1.253005 3.901683 -1.249633
v -1.656627 4.013033 -1.53413
v -1.41838 3.774786 -1.249633
v -1.839174 3.773011 -1.53413
v -1.549488 3.599678 -1.249633
v -1.964311 3.521348 -1.534129
v -1.639512 3.451456 -1.249632
v -1.949253 1.863632 -1.534129
v -1.630408 2.00114 -1.249631
vt 0.1514431 0.896174
vt 0.1518101 0.896174
vt 0.1518101 0.8892149
vt 0.1514431 0.8892149
vt 0.1509087 0.896174
vt 0.1509087 0.8892149
vt 0.1502346 0.896174
vt 0.1502346 0.8892149
vt 0.1496304 0.896174
vt 0.1496304 0.8892149
vt 0.1406239 0.896174
vt 0.1406239 0.8892149
vt 0.1400197 0.8892149
vt 0.1400197 0.896174
vt 0.1393456 0.8892149
vt 0.1393456 0.896174
vt 0.1388112 0.8892149
vt 0.1388112 0.896174
vt 0.1384442 0.8892149
vt 0.1384442 0.896174
vt 0.1518101 0.896174
vt 0.151773 0.896174
vt 0.151773 0.889215
vt 0.1518101 0.8892149
vt 0.1384442 0.896174
vt 0.1384442 0.8892149
vt 0.1384813 0.889215
vt 0.1384813 0.896174
vt 0.3775884 0.8870014
vt 0.3778282 0.8932304
vt 0.3778282 0.8870014
vt 0.3775884 0.8932304
vt 0.3772383 0.8870014
vt 0.3772383 0.8932304
vt 0.3767821 0.8870014
vt 0.3767821 0.8932304
vt 0.3762508 0.8870014
vt 0.3762508 0.8932304
vt 0.3725556 0.8870014
vt 0.3725556 0.8932304
vt 0.3720243 0.8932304
vt 0.3720243 0.8870014
vt 0.3715681 0.8932304
vt 0.3715681 0.8870014
vt 0.371218 0.8932304
vt 0.371218 0.8870014
vt 0.3709782 0.8932304
vt 0.3709782 0.8870014
vt 0.3778282 0.8870014
vt 0.3778282 0.8932304
vt 0.3777847 0.8932303
vt 0.3777847 0.8870013
vt 0.3709782 0.8870014
vt 0.3710217 0.8870013
vt 0.3710217 0.8932303
vt 0.3709782 0.8932304
vt 0.2520811 0.916534
vt 0.252008 0.9120787
vt 0.2512258 0.9122593
vt 0.2512637 0.9162192
vt 0.2516778 0.9173823
vt 0.2509488 0.9168203
vt 0.2510889 0.9181107
vt 0.2504894 0.9173937
vt 0.2503215 0.9186696
vt 0.2498975 0.9178247
vt 0.2494278 0.919021
vt 0.2492641 0.9180922
vt 0.2432123 0.919021
vt 0.2433759 0.9180922
vt 0.2423186 0.9186696
vt 0.2427426 0.9178247
vt 0.2415511 0.9181107
vt 0.2421507 0.9173937
vt 0.2409622 0.9173823
vt 0.2416913 0.9168203
vt 0.2405589 0.916534
vt 0.2413764 0.9162192
vt 0.2406321 0.9120787
vt 0.2414143 0.9122593
vt 0.2439327 0.9085063
vt 0.2442003 0.9099513
vt 0.244214 0.9085518
vt 0.2439064 0.910081
vt 0.2443136 0.9101638
vt 0.2440514 0.9103808
vt 0.2444787 0.9103665
vt 0.2442632 0.9106383
vt 0.2446915 0.9105188
vt 0.2445391 0.9108359
vt 0.2449193 0.9106134
vt 0.2448605 0.91096
vt 0.2470365 0.9106134
vt 0.2470953 0.91096
vt 0.2472642 0.9105188
vt 0.2474167 0.9108359
vt 0.247477 0.9103665
vt 0.2476926 0.9106383
vt 0.2476422 0.9101638
vt 0.2479043 0.9103808
vt 0.2477555 0.9099513
vt 0.2480493 0.910081
vt 0.2477418 0.9085518
vt 0.248023 0.9085063
vt 0.1300657 0.9149287
vt 0.1322061 0.9249215
vt 0.1322691 0.9154193
vt 0.1299616 0.9257895
vt 0.1308264 0.9274384
vt 0.1328282 0.9258925
vt 0.1320879 0.929011
vt 0.1337343 0.9270398
vt 0.1337129 0.9301932
vt 0.1348771 0.9278712
vt 0.135452 0.9309268
vt 0.1359014 0.9283748
vt 0.1516197 0.9309268
vt 0.1511703 0.9283748
vt 0.1533588 0.9301932
vt 0.1521946 0.9278712
vt 0.1549838 0.929011
vt 0.1533374 0.9270398
vt 0.1562453 0.9274384
vt 0.1542435 0.9258925
vt 0.1571101 0.9257895
vt 0.1548656 0.9249215
vt 0.157006 0.9149287
vt 0.1548027 0.9154193
vt 0.1303079 0.9152084
vt 0.1324098 0.9247126
vt 0.1324716 0.9155429
vt 0.1302057 0.9256894
vt 0.1310549 0.9272805
vt 0.1330208 0.9256497
vt 0.1322937 0.9287981
vt 0.1339105 0.9267569
vt 0.1338895 0.929939
vt 0.1350327 0.9275592
vt 0.1355973 0.930647
vt 0.1360386 0.9280452
vt 0.1514744 0.930647
vt 0.1510331 0.9280452
vt 0.1531822 0.929939
vt 0.152039 0.9275592
vt 0.154778 0.9287982
vt 0.1531612 0.9267569
vt 0.1560168 0.9272806
vt 0.154051 0.9256498
vt 0.156866 0.9256895
vt 0.1546619 0.9247127
vt 0.1567639 0.9152085
vt 0.1546001 0.915543
vn -0.7286052 -0.4983065 0.4699204
vn -0.8878096 -0.04494182 0.4580112
vn -0.9431043 -0.04960961 -0.3287752
vn -0.7793151 -0.5250912 -0.3419756
vn -0.6253325 -0.6138967 0.4817574
vn -0.6684634 -0.6575114 -0.3476137
vn -0.4763157 -0.733081 0.4855055
vn -0.5055754 -0.7885965 -0.3500129
vn -0.02927823 -0.8981169 0.4387809
vn -0.03276486 -0.9471262 -0.3191839
vn 0.02927823 -0.898117 0.4387809
vn 0.03276487 -0.9471262 -0.3191839
vn 0.5055755 -0.7885965 -0.3500129
vn 0.4763157 -0.733081 0.4855055
vn 0.6684634 -0.6575114 -0.3476138
vn 0.6253325 -0.6138967 0.4817573
vn 0.779315 -0.5250912 -0.3419757
vn 0.7286051 -0.4983066 0.4699204
vn 0.9431043 -0.0496096 -0.3287752
vn 0.8878096 -0.04494182 0.4580112
vn -0.8878096 -0.04494182 0.4580112
vn -0.8795482 0.005521168 0.4757779
vn -0.942654 0.006358399 -0.3337111
vn -0.9431043 -0.04960961 -0.3287752
vn 0.8878096 -0.04494182 0.4580112
vn 0.9431043 -0.0496096 -0.3287752
vn 0.942654 0.006358399 -0.3337111
vn 0.8795482 0.005521168 0.4757779
vn 0.8130311 0.4856154 0.3211822
vn 0.9662573 0.05705246 -0.251181
vn 0.9499887 0.05612509 0.3071993
vn 0.8284623 0.4971125 -0.2579329
vn 0.6688209 0.6688225 0.3245845
vn 0.6827896 0.6823422 -0.2611654
vn 0.4741843 0.8213113 0.3171704
vn 0.4847346 0.8363703 -0.2559628
vn 0.04914637 0.9438269 0.326765
vn 0.04920045 0.9633429 -0.2637229
vn -0.04914637 0.9438269 0.326765
vn -0.04920046 0.9633429 -0.2637229
vn -0.4847347 0.8363703 -0.2559627
vn -0.4741843 0.8213113 0.3171704
vn -0.6827896 0.6823423 -0.2611654
vn -0.6688209 0.6688225 0.3245845
vn -0.8284623 0.4971125 -0.257933
vn -0.8130311 0.4856155 0.321182
vn -0.9662573 0.05705246 -0.251181
vn -0.9499887 0.05612511 0.3071993
vn 0.9499887 0.05612509 0.3071993
vn 0.9662573 0.05705246 -0.251181
vn 0.9726812 -0.01453143 -0.2316897
vn 0.962988 -0.01501469 0.2691254
vn -0.9499887 0.05612511 0.3071993
vn -0.962988 -0.01501469 0.2691255
vn -0.9726812 -0.01453143 -0.2316897
vn -0.9662573 0.05705246 -0.251181
vn 0.9499887 0.05612509 0.3071993
vn 0.962988 -0.01501469 0.2691254
vn 0 0 1
vn 0 0 1
vn 0.8130311 0.4856154 0.3211822
vn 0 0 1
vn 0.6688209 0.6688225 0.3245845
vn 0 0 1
vn 0.4741843 0.8213113 0.3171704
vn 0 0 1
vn 0.04914637 0.9438269 0.326765
vn 0 0 1
vn -0.04914637 0.9438269 0.326765
vn 0 0 1
vn -0.4741843 0.8213113 0.3171704
vn 0 0 1
vn -0.6688209 0.6688225 0.3245845
vn 0 0 1
vn -0.8130311 0.4856155 0.321182
vn 0 0 1
vn -0.9499887 0.05612511 0.3071993
vn 0 0 1
vn -0.962988 -0.01501469 0.2691255
vn 0 0 1
vn 0.9726812 -0.01453143 -0.2316897
vn 0.1618103 0.01151341 -0.9867547
vn 0.2208383 -0.00430578 -0.9753009
vn 0.9662573 0.05705246 -0.251181
vn 0.153314 0.08317809 -0.9846706
vn 0.8284623 0.4971125 -0.2579329
vn 0.1201181 0.1216268 -0.9852809
vn 0.6827896 0.6823422 -0.2611654
vn 0.08960337 0.1666375 -0.9819385
vn 0.4847346 0.8363703 -0.2559628
vn 0.00971332 0.1200977 -0.9927146
vn 0.04920045 0.9633429 -0.2637229
vn -0.009713328 0.1200978 -0.9927146
vn -0.04920046 0.9633429 -0.2637229
vn -0.0896035 0.1666376 -0.9819385
vn -0.4847347 0.8363703 -0.2559627
vn -0.1201182 0.1216267 -0.9852809
vn -0.6827896 0.6823423 -0.2611654
vn -0.1533139 0.08317804 -0.9846706
vn -0.8284623 0.4971125 -0.257933
vn -0.1618104 0.01151341 -0.9867547
vn -0.9662573 0.05705246 -0.251181
vn -0.2208383 -0.00430578 -0.9753009
vn -0.9726812 -0.01453143 -0.2316897
vn 0 0 1
vn 0.8878096 -0.04494182 0.4580112
vn 0.8795482 0.005521168 0.4757779
vn 0 0 1
vn 0 0 1
vn 0.7286051 -0.4983066 0.4699204
vn 0 0 1
vn 0.6253325 -0.6138967 0.4817573
vn 0 0 1
vn 0.4763157 -0.733081 0.4855055
vn 0 0 1
vn 0.02927823 -0.898117 0.4387809
vn 0 0 1
vn -0.02927823 -0.8981169 0.4387809
vn 0 0 1
vn -0.4763157 -0.733081 0.4855055
vn 0 0 1
vn -0.6253325 -0.6138967 0.4817574
vn 0 0 1
vn -0.7286052 -0.4983065 0.4699204
vn 0 0 1
vn -0.8878096 -0.04494182 0.4580112
vn 0 0 1
vn -0.8795482 0.005521168 0.4757779
vn 0.2208383 -0.00430578 -0.9753009
vn -0.9431043 -0.04960961 -0.3287752
vn -0.942654 0.006358399 -0.3337111
vn 0.1618103 0.01151341 -0.9867547
vn 0.153314 0.08317809 -0.9846706
vn -0.7793151 -0.5250912 -0.3419756
vn 0.1201181 0.1216268 -0.9852809
vn -0.6684634 -0.6575114 -0.3476137
vn 0.08960337 0.1666375 -0.9819385
vn -0.5055754 -0.7885965 -0.3500129
vn 0.00971332 0.1200977 -0.9927146
vn -0.03276486 -0.9471262 -0.3191839
vn -0.009713328 0.1200978 -0.9927146
vn 0.03276487 -0.9471262 -0.3191839
vn -0.0896035 0.1666376 -0.9819385
vn 0.5055755 -0.7885965 -0.3500129
vn -0.1201182 0.1216267 -0.9852809
vn 0.6684634 -0.6575114 -0.3476138
vn -0.1533139 0.08317804 -0.9846706
vn 0.779315 -0.5250912 -0.3419757
vn -0.1618104 0.01151341 -0.9867547
vn 0.9431043 -0.0496096 -0.3287752
vn -0.2208383 -0.00430578 -0.9753009
vn 0.942654 0.006358399 -0.3337111
g GripHandle_Grey_0
f 3/3/3 2/2/2 1/1/1
f 4/4/4 3/3/3 1/1/1
f 4/4/4 1/1/1 5/5/5
f 6/6/6 4/4/4 5/5/5
f 6/6/6 5/5/5 7/7/7
f 8/8/8 6/6/6 7/7/7
f 8/8/8 7/7/7 9/9/9
f 10/10/10 8/8/8 9/9/9
f 10/10/10 9/9/9 11/11/11
f 12/12/12 10/10/10 11/11/11
f 13/13/13 12/12/12 11/11/11
f 14/14/14 13/13/13 11/11/11
f 15/15/15 13/13/13 14/14/14
f 16/16/16 15/15/15 14/14/14
f 17/17/17 15/15/15 16/16/16
f 18/18/18 17/17/17 16/16/16
f 19/19/19 17/17/17 18/18/18
f 20/20/20 19/19/19 18/18/18
f 23/23/23 22/22/22 21/21/21
f 24/24/24 23/23/23 21/21/21
f 27/27/27 26/26/26 25/25/25
f 28/28/28 27/27/27 25/25/25
f 31/31/31 30/30/30 29/29/29
f 30/30/30 32/32/32 29/29/29
f 29/29/29 32/32/32 33/33/33
f 32/32/32 34/34/34 33/33/33
f 33/33/33 34/34/34 35/35/35
f 34/34/34 36/36/36 35/35/35
f 35/35/35 36/36/36 37/37/37
f 36/36/36 38/38/38 37/37/37
f 37/37/37 38/38/38 39/39/39
f 38/38/38 40/40/40 39/39/39
f 40/40/40 41/41/41 39/39/39
f 41/41/41 42/42/42 39/39/39
f 41/41/41 43/43/43 42/42/42
f 43/43/43 44/44/44 42/42/42
f 43/43/43 45/45/45 44/44/44
f 45/45/45 46/46/46 44/44/44
f 45/45/45 47/47/47 46/46/46
f 47/47/47 48/48/48 46/46/46
f 51/51/51 50/50/50 49/49/49
f 52/52/52 51/51/51 49/49/49
f 55/55/55 54/54/54 53/53/53
f 56/56/56 55/55/55 53/53/53
f 59/59/59 58/58/58 57/57/57
f 60/60/60 59/59/59 57/57/57
f 60/60/60 57/57/57 61/61/61
f 62/62/62 60/60/60 61/61/61
f 62/62/62 61/61/61 63/63/63
f 64/64/64 62/62/62 63/63/63
f 64/64/64 63/63/63 65/65/65
f 66/66/66 64/64/64 65/65/65
f 66/66/66 65/65/65 67/67/67
f 68/68/68 66/66/66 67/67/67
f 68/68/68 67/67/67 69/69/69
f 70/70/70 68/68/68 69/69/69
f 70/70/70 69/69/69 71/71/71
f 72/72/72 70/70/70 71/71/71
f 72/72/72 71/71/71 73/73/73
f 74/74/74 72/72/72 73/73/73
f 74/74/74 73/73/73 75/75/75
f 76/76/76 74/74/74 75/75/75
f 76/76/76 75/75/75 77/77/77
f 78/78/78 76/76/76 77/77/77
f 78/78/78 77/77/77 79/79/79
f 80/80/80 78/78/78 79/79/79
f 83/83/83 82/82/82 81/81/81
f 82/82/82 84/84/84 81/81/81
f 82/82/82 85/85/85 84/84/84
f 85/85/85 86/86/86 84/84/84
f 85/85/85 87/87/87 86/86/86
f 87/87/87 88/88/88 86/86/86
f 87/87/87 89/89/89 88/88/88
f 89/89/89 90/90/90 88/88/88
f 89/89/89 91/91/91 90/90/90
f 91/91/91 92/92/92 90/90/90
f 91/91/91 93/93/93 92/92/92
f 93/93/93 94/94/94 92/92/92
f 93/93/93 95/95/95 94/94/94
f 95/95/95 96/96/96 94/94/94
f 95/95/95 97/97/97 96/96/96
f 97/97/97 98/98/98 96/96/96
f 97/97/97 99/99/99 98/98/98
f 99/99/99 100/100/100 98/98/98
f 99/99/99 101/101/101 100/100/100
f 101/101/101 102/102/102 100/100/100
f 101/101/101 103/103/103 102/102/102
f 103/103/103 104/104/104 102/102/102
f 107/107/107 106/106/106 105/105/105
f 106/106/106 108/108/108 105/105/105
f 108/108/108 106/106/106 109/109/109
f 106/106/106 110/110/110 109/109/109
f 109/109/109 110/110/110 111/111/111
f 110/110/110 112/112/112 111/111/111
f 111/111/111 112/112/112 113/113/113
f 112/112/112 114/114/114 113/113/113
f 113/113/113 114/114/114 115/115/115
f 114/114/114 116/116/116 115/115/115
f 115/115/115 116/116/116 117/117/117
f 116/116/116 118/118/118 117/117/117
f 117/117/117 118/118/118 119/119/119
f 118/118/118 120/120/120 119/119/119
f 119/119/119 120/120/120 121/121/121
f 120/120/120 122/122/122 121/121/121
f 121/121/121 122/122/122 123/123/123
f 122/122/122 124/124/124 123/123/123
f 123/123/123 124/124/124 125/125/125
f 124/124/124 126/126/126 125/125/125
f 125/125/125 126/126/126 127/127/127
f 126/126/126 128/128/128 127/127/127
f 131/131/131 130/130/130 129/129/129
f 130/130/130 132/132/132 129/129/129
f 132/132/132 130/130/130 133/133/133
f 130/130/130 134/134/134 133/133/133
f 133/133/133 134/134/134 135/135/135
f 134/134/134 136/136/136 135/135/135
f 135/135/135 136/136/136 137/137/137
f 136/136/136 138/138/138 137/137/137
f 137/137/137 138/138/138 139/139/139
f 138/138/138 140/140/140 139/139/139
f 139/139/139 140/140/140 141/141/141
f 140/140/140 142/142/142 141/141/141
f 141/141/141 142/142/142 143/143/143
f 142/142/142 144/144/144 143/143/143
f 143/143/143 144/144/144 145/145/145
f 144/144/144 146/146/146 145/145/145
f 145/145/145 146/146/146 147/147/147
f 146/146/146 148/148/148 147/147/147
f 147/147/147 148/148/148 149/149/149
f 148/148/148 150/150/150 149/149/149
f 149/149/149 150/150/150 151/151/151
f 150/150/150 152/152/152 151/151/151
