g GripHandle_Gold
v 1.549488 10.38313 5.234951
v 1.639512 10.23491 5.234951
v 1.639512 10.23491 4.434128
v 1.549488 10.38314 4.434127
v 1.41838 10.55824 5.234951
v 1.41838 10.55824 4.434127
v 1.253005 10.68514 5.234951
v 1.253005 10.68514 4.434127
v 1.104781 10.762 5.234951
v 1.104781 10.762 4.434127
v -1.104781 10.762 5.234951
v -1.104781 10.762 4.434127
v -1.253005 10.68514 4.434127
v -1.253005 10.68514 5.234951
v -1.41838 10.55824 4.434127
v -1.41838 10.55824 5.234951
v -1.549488 10.38314 4.434127
v -1.549488 10.38313 5.234951
v -1.639512 10.23491 4.434128
v -1.639512 10.23491 5.234951
v 1.639512 10.23491 5.234951
v 1.630408 8.784597 5.234951
v 1.630408 8.784598 4.434129
v 1.639512 10.23491 4.434128
v -1.639512 10.23491 5.234951
v -1.639512 10.23491 4.434128
v -1.630408 8.784598 4.434129
v -1.630408 8.784597 5.234951
v 2.128859 10.7298 5.234951
v 2.28911 10.3747 4.434129
v 2.28911 10.3747 5.234951
v 2.128859 10.7298 4.434129
v 1.894873 11.03474 5.234951
v 1.894873 11.03474 4.434129
v 1.589937 11.26872 5.234951
v 1.589937 11.26872 4.434129
v 1.234832 11.41581 5.234951
v 1.234832 11.41581 4.434129
v -1.234832 11.41581 5.234951
v -1.234832 11.41581 4.434129
v -1.589937 11.26872 4.434129
v -1.589937 11.26872 5.234951
v -1.894873 11.03474 4.434129
v -1.894873 11.03474 5.234951
v -2.128859 10.7298 4.434129
v -2.128859 10.7298 5.234951
v -2.28911 10.3747 4.434129
v -2.28911 10.3747 5.234951
v 2.28911 10.3747 5.234951
v 2.28911 10.3747 4.434129
v 2.260029 8.509583 4.434129
v 2.260029 8.509582 5.234951
v -2.28911 10.3747 5.234951
v -2.260029 8.509582 5.234951
v -2.260029 8.509583 4.434129
v -2.28911 10.3747 4.434129
v 2.28911 10.3747 5.234951
v 2.260029 8.509582 5.234951
v 1.949252 8.64709 5.234951
v 1.964311 10.3048 5.234951
v 2.128859 10.7298 5.234951
v 1.839174 10.55647 5.234951
v 1.894873 11.03474 5.234951
v 1.656627 10.79649 5.234951
v 1.589937 11.26872 5.234951
v 1.421471 10.97693 5.234951
v 1.234832 11.41581 5.234951
v 1.169806 11.08891 5.234951
v -1.234832 11.41581 5.234951
v -1.169806 11.08891 5.234951
v -1.589937 11.26872 5.234951
v -1.421471 10.97693 5.234951
v -1.894873 11.03474 5.234951
v -1.656627 10.79649 5.234951
v -2.128859 10.7298 5.234951
v -1.839174 10.55647 5.234951
v -2.28911 10.3747 5.234951
v -1.964311 10.3048 5.234951
v -2.260029 8.509582 5.234951
v -1.949252 8.64709 5.234951
v 2.260029 8.509583 4.434129
v 1.964311 10.30481 4.149631
v 1.949253 8.64709 4.149631
v 2.28911 10.3747 4.434129
v 1.839174 10.55647 4.14963
v 2.128859 10.7298 4.434129
v 1.656627 10.79649 4.14963
v 1.894873 11.03474 4.434129
v 1.421471 10.97693 4.14963
v 1.589937 11.26872 4.434129
v 1.169806 11.08891 4.14963
v 1.234832 11.41581 4.434129
v -1.169806 11.08891 4.14963
v -1.234832 11.41581 4.434129
v -1.421471 10.97693 4.14963
v -1.589937 11.26872 4.434129
v -1.656627 10.79649 4.14963
v -1.894873 11.03474 4.434129
v -1.839174 10.55647 4.14963
v -2.128859 10.7298 4.434129
v -1.964311 10.30481 4.149631
v -2.28911 10.3747 4.434129
v -1.949253 8.64709 4.149631
v -2.260029 8.509583 4.434129
v -1.949252 8.64709 5.234951
v -1.639512 10.23491 5.234951
v -1.630408 8.784597 5.234951
v -1.964311 10.3048 5.234951
v -1.839174 10.55647 5.234951
v -1.549488 10.38313 5.234951
v -1.656627 10.79649 5.234951
v -1.41838 10.55824 5.234951
v -1.421471 10.97693 5.234951
v -1.253005 10.68514 5.234951
v -1.169806 11.08891 5.234951
v -1.104781 10.762 5.234951
v 1.169806 11.08891 5.234951
v 1.104781 10.762 5.234951
v 1.421471 10.97693 5.234951
v 1.253005 10.68514 5.234951
v 1.656627 10.79649 5.234951
v 1.41838 10.55824 5.234951
v 1.839174 10.55647 5.234951
v 1.549488 10.38313 5.234951
v 1.964311 10.3048 5.234951
v 1.639512 10.23491 5.234951
v 1.949252 8.64709 5.234951
v 1.630408 8.784597 5.234951
v 1.949253 8.64709 4.149631
v 1.639512 10.23491 4.434128
v 1.630408 8.784598 4.434129
v 1.964311 10.30481 4.149631
v 1.839174 10.55647 4.14963
v 1.549488 10.38314 4.434127
v 1.656627 10.79649 4.14963
v 1.41838 10.55824 4.434127
v 1.421471 10.97693 4.14963
v 1.253005 10.68514 4.434127
v 1.169806 11.08891 4.14963
v 1.104781 10.762 4.434127
v -1.169806 11.08891 4.14963
v -1.104781 10.762 4.434127
v -1.421471 10.97693 4.14963
v -1.253005 10.68514 4.434127
v -1.656627 10.79649 4.14963
v -1.41838 10.55824 4.434127
v -1.839174 10.55647 4.14963
v -1.549488 10.38314 4.434127
v -1.964311 10.30481 4.149631
v -1.639512 10.23491 4.434128
v -1.949253 8.64709 4.149631
v -1.630408 8.784598 4.434129
vt 0.05993962 0.6681225
vt 0.06030657 0.6681225
vt 0.06030657 0.6611634
vt 0.05993962 0.6611634
vt 0.0594052 0.6681225
vt 0.0594052 0.6611634
vt 0.0587311 0.6681225
vt 0.0587311 0.6611634
vt 0.05812692 0.6681225
vt 0.05812692 0.6611634
vt 0.04912037 0.6681225
vt 0.04912037 0.6611634
vt 0.04851621 0.6611634
vt 0.04851621 0.6681225
vt 0.04784209 0.6611634
vt 0.04784209 0.6681225
vt 0.04730769 0.6611634
vt 0.04730769 0.6681225
vt 0.04694074 0.6611634
vt 0.04694074 0.6681225
vt 0.06030657 0.6681225
vt 0.06026947 0.6681225
vt 0.06026947 0.6611636
vt 0.06030657 0.6611634
vt 0.04694074 0.6681225
vt 0.04694074 0.6611634
vt 0.04697784 0.6611636
vt 0.04697784 0.6681225
vt 0.2502764 0.6722155
vt 0.2505161 0.6784444
vt 0.2505161 0.6722155
vt 0.2502764 0.6784444
vt 0.2499263 0.6722155
vt 0.2499263 0.6784444
vt 0.24947 0.6722155
vt 0.24947 0.6784444
vt 0.2489387 0.6722155
vt 0.2489387 0.6784444
vt 0.2452436 0.6722155
vt 0.2452436 0.6784444
vt 0.2447123 0.6784444
vt 0.2447123 0.6722155
vt 0.244256 0.6784444
vt 0.244256 0.6722155
vt 0.2439059 0.6784444
vt 0.2439059 0.6722155
vt 0.2436662 0.6784444
vt 0.2436661 0.6722155
vt 0.2505161 0.6722155
vt 0.2505161 0.6784444
vt 0.2504726 0.6784444
vt 0.2504726 0.6722154
vt 0.2436661 0.6722155
vt 0.2437097 0.6722154
vt 0.2437097 0.6784444
vt 0.2436662 0.6784444
vt 0.1564487 0.6773832
vt 0.1563755 0.6729279
vt 0.1555933 0.6731085
vt 0.1556312 0.6770684
vt 0.1560453 0.6782315
vt 0.1553163 0.6776696
vt 0.1554565 0.67896
vt 0.1548569 0.6782429
vt 0.154689 0.6795189
vt 0.154265 0.678674
vt 0.1537953 0.6798702
vt 0.1536317 0.6789414
vt 0.1475798 0.6798702
vt 0.1477434 0.6789414
vt 0.1466861 0.6795189
vt 0.14711 0.678674
vt 0.1459186 0.67896
vt 0.1465182 0.6782429
vt 0.1453297 0.6782315
vt 0.1460588 0.6776696
vt 0.1449264 0.6773832
vt 0.1457438 0.6770684
vt 0.1449996 0.6729279
vt 0.1457818 0.6731085
vt 0.1483002 0.6693555
vt 0.1485678 0.6708006
vt 0.1485814 0.669401
vt 0.1482739 0.6709303
vt 0.148681 0.6710131
vt 0.1484189 0.6712301
vt 0.1488462 0.6712158
vt 0.1486307 0.6714876
vt 0.1490591 0.6713681
vt 0.1489066 0.6716851
vt 0.1492868 0.6714627
vt 0.1492279 0.6718093
vt 0.151404 0.6714627
vt 0.1514628 0.6718093
vt 0.1516317 0.6713681
vt 0.1517842 0.6716851
vt 0.1518445 0.6712158
vt 0.1520601 0.6714876
vt 0.1520097 0.6710131
vt 0.1522719 0.6712301
vt 0.152123 0.6708006
vt 0.1524169 0.6709303
vt 0.1521094 0.669401
vt 0.1523905 0.6693555
vt 0.0385622 0.6868773
vt 0.04070263 0.69687
vt 0.04076555 0.6873679
vt 0.03845813 0.6977381
vt 0.03932288 0.699387
vt 0.04132473 0.697841
vt 0.04058438 0.7009596
vt 0.04223075 0.6989883
vt 0.04220938 0.7021418
vt 0.04337358 0.6998197
vt 0.04394849 0.7028754
vt 0.04439785 0.7003233
vt 0.06011619 0.7028754
vt 0.05966683 0.7003233
vt 0.06185531 0.7021418
vt 0.06069114 0.6998197
vt 0.06348034 0.7009596
vt 0.06183397 0.6989883
vt 0.06474182 0.699387
vt 0.06273996 0.697841
vt 0.06560656 0.6977381
vt 0.06336205 0.69687
vt 0.06550252 0.6868773
vt 0.06329914 0.6873679
vt 0.03880437 0.6871569
vt 0.04090633 0.6966611
vt 0.04096814 0.6874914
vt 0.03870215 0.6976379
vt 0.0395514 0.6992291
vt 0.04151725 0.6975982
vt 0.04079016 0.7007467
vt 0.04240697 0.6987054
vt 0.04238599 0.7018875
vt 0.04352923 0.6995077
vt 0.04409384 0.7025955
vt 0.04453512 0.6999937
vt 0.05997088 0.7025955
vt 0.0595296 0.6999937
vt 0.06167873 0.7018876
vt 0.06053548 0.6995077
vt 0.06327453 0.7007468
vt 0.06165775 0.6987054
vt 0.06451333 0.6992291
vt 0.06254747 0.6975983
vt 0.06536254 0.697638
vt 0.06315839 0.6966612
vt 0.06526038 0.687157
vt 0.06309664 0.6874915
vn -0.5855437 -0.3956666 0.7075213
vn -0.6682583 -0.1847793 0.720616
vn -0.8748268 -0.2313411 -0.4256281
vn -0.7574851 -0.5013378 -0.4181826
vn -0.5005797 -0.4946984 0.7104178
vn -0.6440349 -0.6375984 -0.4227141
vn -0.378719 -0.5955089 0.708478
vn -0.4814089 -0.7696505 -0.4193849
vn -0.1650891 -0.6769845 0.717243
vn -0.2078023 -0.8811324 -0.4247633
vn 0.1650891 -0.6769845 0.717243
vn 0.2078023 -0.8811324 -0.4247633
vn 0.4814089 -0.7696505 -0.4193849
vn 0.378719 -0.5955089 0.708478
vn 0.6440349 -0.6375983 -0.4227141
vn 0.5005797 -0.4946984 0.7104178
vn 0.7574851 -0.5013378 -0.4181826
vn 0.5855437 -0.3956666 0.7075213
vn 0.8748268 -0.2313411 -0.4256281
vn 0.6682583 -0.1847793 0.720616
vn -0.6682583 -0.1847793 0.720616
vn -0.7070928 0.004438565 0.7071066
vn -0.9115793 0.006265561 -0.4110767
vn -0.8748268 -0.2313411 -0.4256281
vn 0.6682583 -0.1847793 0.720616
vn 0.8748268 -0.2313411 -0.4256281
vn 0.9115793 0.006265561 -0.4110767
vn 0.7070928 0.004438565 0.7071066
vn 0.6047553 0.3618567 0.7094581
vn 0.8877282 0.1864013 -0.4209433
vn 0.6839432 0.1416079 0.7156597
vn 0.7774771 0.4679006 -0.420236
vn 0.4978465 0.4978481 0.710138
vn 0.6411128 0.6406769 -0.4225015
vn 0.3520309 0.609736 0.7101383
vn 0.4550997 0.7846738 -0.4209173
vn 0.1366052 0.6867596 0.713933
vn 0.1785134 0.8886261 -0.422465
vn -0.1366052 0.6867596 0.713933
vn -0.1785134 0.8886261 -0.422465
vn -0.4550997 0.7846738 -0.4209173
vn -0.3520309 0.609736 0.7101383
vn -0.6411128 0.6406769 -0.4225015
vn -0.4978465 0.4978481 0.710138
vn -0.7774771 0.4679006 -0.420236
vn -0.6047553 0.3618567 0.7094581
vn -0.8877282 0.1864013 -0.4209433
vn -0.6839432 0.1416079 0.7156597
vn 0.6839432 0.1416079 0.7156597
vn 0.8877282 0.1864013 -0.4209433
vn 0.9127421 -0.01311316 -0.4083256
vn 0.7070208 -0.01102364 0.7071068
vn -0.6839432 0.1416079 0.7156597
vn -0.7070208 -0.01102364 0.7071068
vn -0.9127421 -0.01311316 -0.4083256
vn -0.8877282 0.1864013 -0.4209433
vn 0.6839432 0.1416079 0.7156597
vn 0.7070208 -0.01102364 0.7071068
vn 0 0 1
vn 0 0 1
vn 0.6047553 0.3618567 0.7094581
vn 0 0 1
vn 0.4978465 0.4978481 0.710138
vn 0 0 1
vn 0.3520309 0.609736 0.7101383
vn 0 0 1
vn 0.1366052 0.6867596 0.713933
vn 0 0 1
vn -0.1366052 0.6867596 0.713933
vn 0 0 1
vn -0.3520309 0.609736 0.7101383
vn 0 0 1
vn -0.4978465 0.4978481 0.710138
vn 0 0 1
vn -0.6047553 0.3618567 0.7094581
vn 0 0 1
vn -0.6839432 0.1416079 0.7156597
vn 0 0 1
vn -0.7070208 -0.01102364 0.7071068
vn 0 0 1
vn 0.9127421 -0.01311316 -0.4083256
vn 0.00623046 -0.01182203 -0.9999107
vn 0.002994319 -0.002143363 -0.9999932
vn 0.8877282 0.1864013 -0.4209433
vn 0.003972373 -0.009714002 -0.9999449
vn 0.7774771 0.4679006 -0.420236
vn -0.0007222792 0.0009386216 -0.9999993
vn 0.6411128 0.6406769 -0.4225015
vn -0.007499927 0.003058731 -0.9999672
vn 0.4550997 0.7846738 -0.4209173
vn -0.00753492 0.00307227 -0.999967
vn 0.1785134 0.8886261 -0.422465
vn 0.00753492 0.00307227 -0.999967
vn -0.1785134 0.8886261 -0.422465
vn 0.007499926 0.00305873 -0.9999672
vn -0.4550997 0.7846738 -0.4209173
vn 0.000722289 0.0009386216 -0.9999993
vn -0.6411128 0.6406769 -0.4225015
vn -0.003972373 -0.009714002 -0.9999449
vn -0.7774771 0.4679006 -0.420236
vn -0.006230458 -0.01182203 -0.9999107
vn -0.8877282 0.1864013 -0.4209433
vn -0.002994319 -0.002143363 -0.9999932
vn -0.9127421 -0.01311316 -0.4083256
vn 0 0 1
vn 0.6682583 -0.1847793 0.720616
vn 0.7070928 0.004438565 0.7071066
vn 0 0 1
vn 0 0 1
vn 0.5855437 -0.3956666 0.7075213
vn 0 0 1
vn 0.5005797 -0.4946984 0.7104178
vn 0 0 1
vn 0.378719 -0.5955089 0.708478
vn 0 0 1
vn 0.1650891 -0.6769845 0.717243
vn 0 0 1
vn -0.1650891 -0.6769845 0.717243
vn 0 0 1
vn -0.378719 -0.5955089 0.708478
vn 0 0 1
vn -0.5005797 -0.4946984 0.7104178
vn 0 0 1
vn -0.5855437 -0.3956666 0.7075213
vn 0 0 1
vn -0.6682583 -0.1847793 0.720616
vn 0 0 1
vn -0.7070928 0.004438565 0.7071066
vn 0.002994319 -0.002143363 -0.9999932
vn -0.8748268 -0.2313411 -0.4256281
vn -0.9115793 0.006265561 -0.4110767
vn 0.00623046 -0.01182203 -0.9999107
vn 0.003972373 -0.009714002 -0.9999449
vn -0.7574851 -0.5013378 -0.4181826
vn -0.0007222792 0.0009386216 -0.9999993
vn -0.6440349 -0.6375984 -0.4227141
vn -0.007499927 0.003058731 -0.9999672
vn -0.4814089 -0.7696505 -0.4193849
vn -0.00753492 0.00307227 -0.999967
vn -0.2078023 -0.8811324 -0.4247633
vn 0.00753492 0.00307227 -0.999967
vn 0.2078023 -0.8811324 -0.4247633
vn 0.007499926 0.00305873 -0.9999672
vn 0.4814089 -0.7696505 -0.4193849
vn 0.000722289 0.0009386216 -0.9999993
vn 0.6440349 -0.6375983 -0.4227141
vn -0.003972373 -0.009714002 -0.9999449
vn 0.7574851 -0.5013378 -0.4181826
vn -0.006230458 -0.01182203 -0.9999107
vn 0.8748268 -0.2313411 -0.4256281
vn -0.002994319 -0.002143363 -0.9999932
vn 0.9115793 0.006265561 -0.4110767
g GripHandle_Gold_0
f 3/3/3 2/2/2 1/1/1
f 4/4/4 3/3/3 1/1/1
f 4/4/4 1/1/1 5/5/5
f 6/6/6 4/4/4 5/5/5
f 6/6/6 5/5/5 7/7/7
f 8/8/8 6/6/6 7/7/7
f 8/8/8 7/7/7 9/9/9
f 10/10/10 8/8/8 9/9/9
f 10/10/10 9/9/9 11/11/11
f 12/12/12 10/10/10 11/11/11
f 13/13/13 12/12/12 11/11/11
f 14/14/14 13/13/13 11/11/11
f 15/15/15 13/13/13 14/14/14
f 16/16/16 15/15/15 14/14/14
f 17/17/17 15/15/15 16/16/16
f 18/18/18 17/17/17 16/16/16
f 19/19/19 17/17/17 18/18/18
f 20/20/20 19/19/19 18/18/18
f 23/23/23 22/22/22 21/21/21
f 24/24/24 23/23/23 21/21/21
f 27/27/27 26/26/26 25/25/25
f 28/28/28 27/27/27 25/25/25
f 31/31/31 30/30/30 29/29/29
f 30/30/30 32/32/32 29/29/29
f 29/29/29 32/32/32 33/33/33
f 32/32/32 34/34/34 33/33/33
f 33/33/33 34/34/34 35/35/35
f 34/34/34 36/36/36 35/35/35
f 35/35/35 36/36/36 37/37/37
f 36/36/36 38/38/38 37/37/37
f 37/37/37 38/38/38 39/39/39
f 38/38/38 40/40/40 39/39/39
f 40/40/40 41/41/41 39/39/39
f 41/41/41 42/42/42 39/39/39
f 41/41/41 43/43/43 42/42/42
f 43/43/43 44/44/44 42/42/42
f 43/43/43 45/45/45 44/44/44
f 45/45/45 46/46/46 44/44/44
f 45/45/45 47/47/47 46/46/46
f 47/47/47 48/48/48 46/46/46
f 51/51/51 50/50/50 49/49/49
f 52/52/52 51/51/51 49/49/49
f 55/55/55 54/54/54 53/53/53
f 56/56/56 55/55/55 53/53/53
f 59/59/59 58/58/58 57/57/57
f 60/60/60 59/59/59 57/57/57
f 60/60/60 57/57/57 61/61/61
f 62/62/62 60/60/60 61/61/61
f 62/62/62 61/61/61 63/63/63
f 64/64/64 62/62/62 63/63/63
f 64/64/64 63/63/63 65/65/65
f 66/66/66 64/64/64 65/65/65
f 66/66/66 65/65/65 67/67/67
f 68/68/68 66/66/66 67/67/67
f 68/68/68 67/67/67 69/69/69
f 70/70/70 68/68/68 69/69/69
f 70/70/70 69/69/69 71/71/71
f 72/72/72 70/70/70 71/71/71
f 72/72/72 71/71/71 73/73/73
f 74/74/74 72/72/72 73/73/73
f 74/74/74 73/73/73 75/75/75
f 76/76/76 74/74/74 75/75/75
f 76/76/76 75/75/75 77/77/77
f 78/78/78 76/76/76 77/77/77
f 78/78/78 77/77/77 79/79/79
f 80/80/80 78/78/78 79/79/79
f 83/83/83 82/82/82 81/81/81
f 82/82/82 84/84/84 81/81/81
f 82/82/82 85/85/85 84/84/84
f 85/85/85 86/86/86 84/84/84
f 85/85/85 87/87/87 86/86/86
f 87/87/87 88/88/88 86/86/86
f 87/87/87 89/89/89 88/88/88
f 89/89/89 90/90/90 88/88/88
f 89/89/89 91/91/91 90/90/90
f 91/91/91 92/92/92 90/90/90
f 91/91/91 93/93/93 92/92/92
f 93/93/93 94/94/94 92/92/92
f 93/93/93 95/95/95 94/94/94
f 95/95/95 96/96/96 94/94/94
f 95/95/95 97/97/97 96/96/96
f 97/97/97 98/98/98 96/96/96
f 97/97/97 99/99/99 98/98/98
f 99/99/99 100/100/100 98/98/98
f 99/99/99 101/101/101 100/100/100
f 101/101/101 102/102/102 100/100/100
f 101/101/101 103/103/103 102/102/102
f 103/103/103 104/104/104 102/102/102
f 107/107/107 106/106/106 105/105/105
f 106/106/106 108/108/108 105/105/105
f 108/108/108 106/106/106 109/109/109
f 106/106/106 110/110/110 109/109/109
f 109/109/109 110/110/110 111/111/111
f 110/110/110 112/112/112 111/111/111
f 111/111/111 112/112/112 113/113/113
f 112/112/112 114/114/114 113/113/113
f 113/113/113 114/114/114 115/115/115
f 114/114/114 116/116/116 115/115/115
f 115/115/115 116/116/116 117/117/117
f 116/116/116 118/118/118 117/117/117
f 117/117/117 118/118/118 119/119/119
f 118/118/118 120/120/120 119/119/119
f 119/119/119 120/120/120 121/121/121
f 120/120/120 122/122/122 121/121/121
f 121/121/121 122/122/122 123/123/123
f 122/122/122 124/124/124 123/123/123
f 123/123/123 124/124/124 125/125/125
f 124/124/124 126/126/126 125/125/125
f 125/125/125 126/126/126 127/127/127
f 126/126/126 128/128/128 127/127/127
f 131/131/131 130/130/130 129/129/129
f 130/130/130 132/132/132 129/129/129
f 132/132/132 130/130/130 133/133/133
f 130/130/130 134/134/134 133/133/133
f 133/133/133 134/134/134 135/135/135
f 134/134/134 136/136/136 135/135/135
f 135/135/135 136/136/136 137/137/137
f 136/136/136 138/138/138 137/137/137
f 137/137/137 138/138/138 139/139/139
f 138/138/138 140/140/140 139/139/139
f 139/139/139 140/140/140 141/141/141
f 140/140/140 142/142/142 141/141/141
f 141/141/141 142/142/142 143/143/143
f 142/142/142 144/144/144 143/143/143
f 143/143/143 144/144/144 145/145/145
f 144/144/144 146/146/146 145/145/145
f 145/145/145 146/146/146 147/147/147
f 146/146/146 148/148/148 147/147/147
f 147/147/147 148/148/148 149/149/149
f 148/148/148 150/150/150 149/149/149
f 149/149/149 150/150/150 151/151/151
f 150/150/150 152/152/152 151/151/151
