g GunLVL1
v -19.80686 8.077412 3.381885
v -19.50565 8.405644 4.461432
v -18.72696 8.405644 4.461432
v -18.42575 8.077412 3.381885
v -19.50565 8.405644 4.461432
v -19.51585 9.004897 4.461432
v -18.73715 9.004897 4.461432
v -18.72696 8.405644 4.461432
v -19.51585 9.004897 4.461432
v -19.81706 9.333135 3.381885
v -18.43594 9.333135 3.381885
v -18.73715 9.004897 4.461432
v -18.42575 8.077412 3.381885
v -18.72696 8.405644 4.461432
v -18.73715 9.004897 4.461432
v -18.43594 9.333135 3.381885
v -19.81706 9.333135 3.381885
v -19.51585 9.004897 4.461432
v -19.50565 8.405644 4.461432
v -19.80686 8.077412 3.381885
v -9.951644 8.182034 -0.7770837
v -10.90024 8.182034 -0.06990676
v -10.87399 8.182031 1.788296
v -8.414512 8.182034 0.6367277
v -9.234449 8.097597 -2.997712
v -7.100481 8.097597 -2.139793
v -10.90024 9.228513 -0.06990676
v -8.414512 9.228513 0.6367276
v -10.87399 9.228511 1.788296
v -9.951644 9.228513 -0.7770837
v -7.100481 9.312946 -2.139793
v -9.234449 9.312946 -2.997712
v -8.414512 8.182034 0.6367277
v -10.87399 8.182031 1.788296
v -10.87399 9.228511 1.788296
v -8.414512 9.228513 0.6367276
v -7.100481 8.097597 -2.139793
v -7.100481 9.312946 -2.139793
v -9.234449 9.312946 -2.997712
v -9.234449 8.097597 -2.997712
v -9.951644 8.182034 -0.7770837
v -9.951644 9.228513 -0.7770837
v -10.90024 8.182034 -0.06990676
v -10.90024 9.228513 -0.06990676
v -11.18742 8.202495 2.506788
v -10.0951 8.341577 4.91957
v -9.4611 8.341577 4.696914
v -10.06184 8.202495 2.50679
v -10.0951 8.341577 4.91957
v -10.0951 9.068965 4.91957
v -9.4611 9.068965 4.696914
v -9.4611 8.341577 4.696914
v -10.0951 9.068965 4.91957
v -11.18742 9.208052 2.506788
v -10.06184 9.208052 2.506789
v -9.4611 9.068965 4.696914
v -10.06184 8.202495 2.50679
v -9.4611 8.341577 4.696914
v -9.4611 9.068965 4.696914
v -10.06184 9.208052 2.506789
v -11.18742 9.208052 2.506788
v -10.0951 9.068965 4.91957
v -10.0951 8.341577 4.91957
v -11.18742 8.202495 2.506788
v -13.11672 9.317397 1.356081
v -21.01782 9.317397 1.356081
v -21.01782 8.093149 1.356079
v -13.11672 8.093149 1.356079
v -21.01782 7.481025 2.416308
v -13.11672 7.481025 2.416308
v -21.01782 8.093149 3.476537
v -13.11672 8.093149 3.476537
v -21.01782 9.317397 3.476536
v -13.11672 9.317392 3.476536
v -13.11672 9.317392 3.476536
v -21.01782 9.317397 3.476536
v -21.01782 9.929517 2.416308
v -13.11672 9.929517 2.416308
v -21.01782 9.317397 1.356081
v -13.11672 9.317397 1.356081
v -21.01782 7.481025 2.416308
v -21.01782 9.317397 3.476536
v -21.01782 8.093149 3.476537
v -21.01782 9.929517 2.416308
v -21.01782 9.317397 1.356081
v -21.01782 8.093149 1.356079
v -10.76354 10.37135 0.5442383
v -13.24348 10.37135 0.5442383
v -13.24348 9.341658 -0.2038751
v -10.76354 9.341658 -0.2038751
v -13.24348 8.068889 -0.2038751
v -10.76354 8.068889 -0.2038751
v -13.24348 7.039199 0.5442383
v -10.76354 7.039199 0.5442383
v -13.24348 6.645894 1.754712
v -10.76354 6.645894 1.754712
v -13.24348 7.039199 2.965186
v -10.76354 7.039199 2.965186
v -13.24348 8.068892 3.7133
v -10.76354 8.068892 3.7133
v -13.24348 9.341655 3.7133
v -10.76354 9.341655 3.7133
v -10.76354 9.341655 3.7133
v -13.24348 9.341655 3.7133
v -13.24348 10.37135 2.965186
v -10.76354 10.37135 2.965186
v -13.24348 10.76465 1.754712
v -10.76354 10.76465 1.754712
v -13.24348 10.37135 0.5442383
v -10.76354 10.37135 0.5442383
v -12.6583 9.083005 -1.068958
v -12.6583 9.083005 -0.131927
v -13.0569 9.083005 -0.131927
v -13.0569 9.083005 -1.428201
v -10.9648 9.083005 -1.428201
v -11.3634 9.083005 -1.068958
v -11.3634 9.083005 -0.131927
v -10.9648 9.083005 -0.131927
v -13.0569 9.083005 -1.428201
v -13.0569 9.083005 -0.131927
v -13.0569 8.327541 -0.131927
v -13.0569 8.327541 -1.428201
v -11.3634 9.083005 -1.068958
v -11.3634 8.327541 -1.068958
v -12.6583 8.327541 -1.068958
v -12.6583 9.083005 -1.068958
v -10.9648 8.327541 -1.428201
v -10.9648 9.083005 -1.428201
v -13.0569 9.083005 -1.428201
v -13.0569 8.327541 -1.428201
v -12.6583 8.327541 -1.068958
v -13.0569 8.327541 -0.131927
v -12.6583 8.327541 -0.131927
v -13.0569 8.327541 -1.428201
v -11.3634 8.327541 -1.068958
v -10.9648 8.327541 -1.428201
v -10.9648 8.327541 -0.131927
v -11.3634 8.327541 -0.131927
v -12.6583 8.327541 -1.068958
v -12.6583 8.327541 -0.131927
v -12.6583 9.083005 -0.131927
v -12.6583 9.083005 -1.068958
v -10.9648 8.327541 -1.428201
v -10.9648 8.327541 -0.131927
v -10.9648 9.083005 -0.131927
v -10.9648 9.083005 -1.428201
v -11.3634 9.083005 -1.068958
v -11.3634 9.083005 -0.131927
v -11.3634 8.327541 -0.131927
v -11.3634 8.327541 -1.068958
v -10.06184 8.202495 2.50679
v -10.06184 9.208052 2.506789
v -11.18742 9.208052 2.506788
v -11.18742 8.202495 2.506788
v -10.76354 9.341658 -0.2038751
v -10.76354 8.705274 1.754712
v -10.76354 10.37135 0.5442383
v -10.76354 8.068889 -0.2038751
v -10.76354 10.76465 1.754712
v -10.76354 7.039199 0.5442383
v -10.76354 10.37135 2.965186
v -10.76354 6.645894 1.754712
v -10.76354 9.341655 3.7133
v -10.76354 7.039199 2.965186
v -10.76354 8.068892 3.7133
v -13.24348 10.37135 0.5442383
v -13.24348 8.705274 1.754712
v -13.24348 9.341658 -0.2038751
v -13.24348 10.76465 1.754712
v -13.24348 8.068889 -0.2038751
v -13.24348 10.37135 2.965186
v -13.24348 7.039199 0.5442383
v -13.24348 9.341655 3.7133
v -13.24348 6.645894 1.754712
v -13.24348 8.068892 3.7133
v -13.24348 7.039199 2.965186
vt 0.3139168 0.506419
vt 0.3139168 0.5142667
vt 0.3060693 0.5142667
vt 0.3060693 0.506419
vt 0.3722616 0.506743
vt 0.3722616 0.5145906
vt 0.3644141 0.5145906
vt 0.3644141 0.506743
vt 0.3141547 0.5066105
vt 0.3141547 0.5145156
vt 0.3062496 0.5145156
vt 0.3062496 0.5066105
vt 0.3435131 0.5068372
vt 0.3435131 0.5146849
vt 0.3356655 0.5146849
vt 0.3356655 0.5068372
vt 0.3430838 0.5068372
vt 0.3430838 0.5146849
vt 0.3352361 0.5146849
vt 0.3352361 0.5068372
vt 0.4529535 0.5843301
vt 0.4484248 0.5929783
vt 0.4500496 0.6127355
vt 0.4625582 0.5955805
vt 0.4523791 0.5646657
vt 0.46308 0.5647342
vt 0.4500496 0.6127353
vt 0.4529535 0.5843301
vt 0.4484248 0.5929786
vt 0.4625582 0.5955805
vt 0.4523791 0.5646656
vt 0.46308 0.5647345
vt 0.4912763 0.5846313
vt 0.4912763 0.5636411
vt 0.4792962 0.5636411
vt 0.4792962 0.5846314
vt 0.4912763 0.5981209
vt 0.4792962 0.5981207
vt 0.4792962 0.6012568
vt 0.4912763 0.6012568
vt 0.4912763 0.6069158
vt 0.4792962 0.6069158
vt 0.4912763 0.6124618
vt 0.4792962 0.6124618
vt 0.4892124 0.6288061
vt 0.4892124 0.6378549
vt 0.4801635 0.6378549
vt 0.4801635 0.6288061
vt 0.4608265 0.6567585
vt 0.4608265 0.6667674
vt 0.4508178 0.6667674
vt 0.4508178 0.6567585
vt 0.4894631 0.6291051
vt 0.4894631 0.6381542
vt 0.4804142 0.6381542
vt 0.4804142 0.6291051
vt 0.4604425 0.6286833
vt 0.4604425 0.6383514
vt 0.4507741 0.6383514
vt 0.4507741 0.6286833
vt 0.4602266 0.6286831
vt 0.4602266 0.6383512
vt 0.450558 0.6383512
vt 0.450558 0.6286831
vt 0.2708279 0.505344
vt 0.2708285 0.5154973
vt 0.2964836 0.5154969
vt 0.2964836 0.505344
vt 0.3248972 0.5154977
vt 0.3248972 0.5053435
vt 0.3531864 0.5154969
vt 0.3531864 0.5053446
vt 0.3789847 0.5154972
vt 0.3789832 0.505344
vt 0.3531864 0.505344
vt 0.3531864 0.5154972
vt 0.3248972 0.515497
vt 0.3248972 0.505344
vt 0.2964836 0.515497
vt 0.2964836 0.5053443
vt 0.3867249 0.5292037
vt 0.4252958 0.5069346
vt 0.3995819 0.5069346
vt 0.4381527 0.5292037
vt 0.4252958 0.5514727
vt 0.3995819 0.5514727
vt 0.2428721 0.5200582
vt 0.2428721 0.5268314
vt 0.243979 0.5268314
vt 0.243979 0.5200582
vt 0.2448409 0.5268314
vt 0.2448409 0.5200582
vt 0.246871 0.5268314
vt 0.246871 0.5200582
vt 0.2832839 0.5268314
vt 0.2832839 0.5200582
vt 0.2989229 0.5268314
vt 0.2989229 0.5200582
vt 0.3191939 0.5268314
vt 0.3191939 0.5200582
vt 0.3437915 0.5268314
vt 0.3437915 0.5200582
vt 0.3189092 0.5200582
vt 0.3189092 0.5268314
vt 0.2989844 0.5268314
vt 0.2989844 0.5200582
vt 0.2831182 0.5268314
vt 0.2831182 0.5200582
vt 0.2467376 0.5268314
vt 0.2467376 0.5200582
vt 0.4506075 0.6444206
vt 0.4506075 0.6444206
vt 0.4475027 0.6444206
vt 0.4475027 0.6444206
vt 0.4637988 0.6444206
vt 0.460694 0.6444206
vt 0.460694 0.6444206
vt 0.4637988 0.6444206
vt 0.4736321 0.6370843
vt 0.4736321 0.6370843
vt 0.4736321 0.6287233
vt 0.4736321 0.6287233
vt 0.4484282 0.6695794
vt 0.4484282 0.6542537
vt 0.4634784 0.6542537
vt 0.4634784 0.6695794
vt 0.4779111 0.6558489
vt 0.4779111 0.6696094
vt 0.4931259 0.6696094
vt 0.4931259 0.6558489
vt 0.4506075 0.623361
vt 0.4475027 0.623361
vt 0.4506075 0.623361
vt 0.4475027 0.623361
vt 0.460694 0.623361
vt 0.4637988 0.623361
vt 0.4637988 0.623361
vt 0.460694 0.623361
vt 0.4765961 0.6289678
vt 0.4765961 0.6289678
vt 0.4765961 0.6372905
vt 0.4765961 0.6372905
vt 0.4967864 0.6287233
vt 0.4967864 0.6287233
vt 0.4967864 0.6370843
vt 0.4967864 0.6370843
vt 0.4941175 0.6372905
vt 0.4941175 0.6372905
vt 0.4941175 0.6289678
vt 0.4941175 0.6289678
vt 0.4806323 0.658003
vt 0.4806323 0.6668853
vt 0.4905747 0.6668853
vt 0.4905747 0.658003
vt 0.4786459 0.5043536
vt 0.470724 0.5282221
vt 0.4914638 0.5136663
vt 0.4628021 0.5043536
vt 0.4963599 0.5282221
vt 0.4499842 0.5136665
vt 0.4914638 0.5438032
vt 0.4450882 0.5282221
vt 0.4786459 0.5531158
vt 0.4499842 0.5438032
vt 0.4628021 0.5531158
vt 0.4914638 0.5438032
vt 0.470724 0.5282221
vt 0.4786459 0.5531158
vt 0.4963599 0.5282221
vt 0.4628021 0.5531158
vt 0.4914638 0.5136663
vt 0.4499842 0.5438032
vt 0.4786459 0.5043536
vt 0.4450882 0.5282221
vt 0.4628021 0.5043536
vt 0.4499842 0.5136665
vn -0.5937529 -0.7095737 0.379424
vn -0.5413838 -0.6296935 0.5571262
vn 0.5485507 -0.6228576 0.5577998
vn 0.5980958 -0.7040205 0.3829315
vn -0.5413838 -0.6296935 0.5571262
vn -0.5485508 0.6228557 0.5578016
vn 0.5413844 0.6296918 0.5571277
vn 0.5485507 -0.6228576 0.5577998
vn -0.5485508 0.6228557 0.5578016
vn -0.5980934 0.7040205 0.3829352
vn 0.5937504 0.7095741 0.3794271
vn 0.5413844 0.6296918 0.5571277
vn 0.5980958 -0.7040205 0.3829315
vn 0.5485507 -0.6228576 0.5577998
vn 0.5413844 0.6296918 0.5571277
vn 0.5937504 0.7095741 0.3794271
vn -0.5980934 0.7040205 0.3829352
vn -0.5485508 0.6228557 0.5578016
vn -0.5413838 -0.6296935 0.5571262
vn -0.5937529 -0.7095737 0.379424
vn -0.2890886 -0.9474634 -0.1368974
vn -0.1459812 -0.9697137 -0.1958184
vn 0.314719 -0.6701854 0.6721633
vn 0.4570605 -0.7699515 0.4452757
vn -0.2295997 -0.8381382 -0.4947811
vn 0.5840486 -0.7991187 -0.1424658
vn -0.1459817 0.9697139 -0.1958169
vn 0.4570605 0.7699515 0.4452756
vn 0.3147186 0.6701847 0.6721642
vn -0.2890882 0.9474635 -0.1368972
vn 0.5840493 0.7991182 -0.1424663
vn -0.2295993 0.838138 -0.4947814
vn 0.4570605 -0.7699515 0.4452757
vn 0.314719 -0.6701854 0.6721633
vn 0.3147186 0.6701847 0.6721642
vn 0.4570605 0.7699515 0.4452756
vn 0.5840486 -0.7991187 -0.1424658
vn 0.5840493 0.7991182 -0.1424663
vn -0.2295993 0.838138 -0.4947814
vn -0.2295997 -0.8381382 -0.4947811
vn -0.2890886 -0.9474634 -0.1368974
vn -0.2890882 0.9474635 -0.1368972
vn -0.1459812 -0.9697137 -0.1958184
vn -0.1459817 0.9697139 -0.1958169
vn -0.7915003 -0.6090959 -0.05029287
vn -0.5872698 -0.6627069 0.4646867
vn 0.6966381 -0.7172527 0.01561218
vn 0.5371715 -0.723116 -0.4342233
vn -0.5872698 -0.6627069 0.4646867
vn -0.58727 0.662706 0.4646879
vn 0.6966383 0.7172526 0.0156131
vn 0.6966381 -0.7172527 0.01561218
vn -0.58727 0.662706 0.4646879
vn -0.7915002 0.6090962 -0.05029225
vn 0.5371712 0.7231171 -0.434222
vn 0.6966383 0.7172526 0.0156131
vn 0.5371715 -0.723116 -0.4342233
vn 0.6966381 -0.7172527 0.01561218
vn 0.6966383 0.7172526 0.0156131
vn 0.5371712 0.7231171 -0.434222
vn -0.7915002 0.6090962 -0.05029225
vn -0.58727 0.662706 0.4646879
vn -0.5872698 -0.6627069 0.4646867
vn -0.7915003 -0.6090959 -0.05029287
vn 0 0.5000007 -0.8660251
vn -0.1531191 0.4941044 -0.8558127
vn -0.1531189 -0.4941029 -0.8558136
vn 0 -0.499999 -0.866026
vn -0.153119 -0.9882078 0
vn 0 -1 0
vn -0.1531192 -0.4941038 0.8558131
vn 0 -0.4999999 0.8660255
vn -0.153119 0.4941047 0.8558125
vn 1.574947E-07 0.5000005 0.8660251
vn 1.574947E-07 0.5000005 0.8660251
vn -0.153119 0.4941047 0.8558125
vn -0.1531194 0.9882076 1.085434E-06
vn 1.574947E-07 1 1.098386E-06
vn -0.1531191 0.4941044 -0.8558127
vn 0 0.5000007 -0.8660251
vn -0.153119 -0.9882078 0
vn -0.153119 0.4941047 0.8558125
vn -0.1531192 -0.4941038 0.8558131
vn -0.1531194 0.9882076 1.085434E-06
vn -0.1531191 0.4941044 -0.8558127
vn -0.1531189 -0.4941029 -0.8558136
vn 0.3152305 0.7677696 -0.5578168
vn -0.3152305 0.7677696 -0.5578167
vn -0.3152305 0.2932617 -0.902567
vn 0.3152305 0.2932615 -0.902567
vn -0.3152305 -0.2932615 -0.902567
vn 0.3152306 -0.2932614 -0.9025671
vn -0.3152305 -0.7677696 -0.5578168
vn 0.3152305 -0.7677696 -0.5578169
vn -0.3152306 -0.9490151 0
vn 0.3152306 -0.9490151 0
vn -0.3152304 -0.7677693 0.5578173
vn 0.3152304 -0.7677693 0.5578173
vn -0.3152306 -0.2932618 0.902567
vn 0.3152306 -0.2932618 0.902567
vn -0.3152306 0.2932618 0.902567
vn 0.3152306 0.2932618 0.902567
vn 0.3152306 0.2932618 0.902567
vn -0.3152306 0.2932618 0.902567
vn -0.3152304 0.7677693 0.5578172
vn 0.3152304 0.7677693 0.5578173
vn -0.3152306 0.9490151 0
vn 0.3152306 0.9490151 0
vn -0.3152305 0.7677696 -0.5578167
vn 0.3152305 0.7677696 -0.5578168
vn 0.3551809 0.7955702 0.4908307
vn 0.8465626 0.5322893 0
vn -0.9103779 0.4137779 0
vn -0.5071373 0.2699854 -0.8184862
vn 0.5071373 0.2699856 -0.8184862
vn -0.3551807 0.7955703 0.4908304
vn -0.8465621 0.5322899 0
vn 0.9103776 0.4137785 0
vn -0.5071373 0.2699854 -0.8184862
vn -0.9103779 0.4137779 0
vn -0.9103779 -0.4137779 0
vn -0.5071373 -0.2699856 -0.818486
vn -0.3551807 0.7955703 0.4908304
vn -0.3551807 -0.7955705 0.4908303
vn 0.3551809 -0.79557 0.4908308
vn 0.3551809 0.7955702 0.4908307
vn 0.5071372 -0.269986 -0.818486
vn 0.5071373 0.2699856 -0.8184862
vn -0.5071373 0.2699854 -0.8184862
vn -0.5071373 -0.2699856 -0.818486
vn 0.3551809 -0.79557 0.4908308
vn -0.9103779 -0.4137779 0
vn 0.8465626 -0.5322892 0
vn -0.5071373 -0.2699856 -0.818486
vn -0.3551807 -0.7955705 0.4908303
vn 0.5071372 -0.269986 -0.818486
vn 0.9103773 -0.4137791 0
vn -0.8465617 -0.5322905 0
vn 0.3551809 -0.79557 0.4908308
vn 0.8465626 -0.5322892 0
vn 0.8465626 0.5322893 0
vn 0.3551809 0.7955702 0.4908307
vn 0.5071372 -0.269986 -0.818486
vn 0.9103773 -0.4137791 0
vn 0.9103776 0.4137785 0
vn 0.5071373 0.2699856 -0.8184862
vn -0.3551807 0.7955703 0.4908304
vn -0.8465621 0.5322899 0
vn -0.8465617 -0.5322905 0
vn -0.3551807 -0.7955705 0.4908303
vn 0.5371715 -0.723116 -0.4342233
vn 0.5371712 0.7231171 -0.434222
vn -0.7915002 0.6090962 -0.05029225
vn -0.7915003 -0.6090959 -0.05029287
vn 0.3152305 0.2932615 -0.902567
vn 1 0 0
vn 0.3152305 0.7677696 -0.5578168
vn 0.3152306 -0.2932614 -0.9025671
vn 0.3152306 0.9490151 0
vn 0.3152305 -0.7677696 -0.5578169
vn 0.3152304 0.7677693 0.5578173
vn 0.3152306 -0.9490151 0
vn 0.3152306 0.2932618 0.902567
vn 0.3152304 -0.7677693 0.5578173
vn 0.3152306 -0.2932618 0.902567
vn -0.3152305 0.7677696 -0.5578167
vn -1 1.771812E-07 0
vn -0.3152305 0.2932617 -0.902567
vn -0.3152306 0.9490151 0
vn -0.3152305 -0.2932615 -0.902567
vn -0.3152304 0.7677693 0.5578172
vn -0.3152305 -0.7677696 -0.5578168
vn -0.3152306 0.2932618 0.902567
vn -0.3152306 -0.9490151 0
vn -0.3152306 -0.2932618 0.902567
vn -0.3152304 -0.7677693 0.5578173
g GunLVL1_0
f 3/3/3 2/2/2 1/1/1
f 4/4/4 3/3/3 1/1/1
f 7/7/7 6/6/6 5/5/5
f 8/8/8 7/7/7 5/5/5
f 11/11/11 10/10/10 9/9/9
f 12/12/12 11/11/11 9/9/9
f 15/15/15 14/14/14 13/13/13
f 16/16/16 15/15/15 13/13/13
f 19/19/19 18/18/18 17/17/17
f 20/20/20 19/19/19 17/17/17
f 23/23/23 22/22/22 21/21/21
f 24/24/24 23/23/23 21/21/21
f 21/21/21 25/25/25 24/24/24
f 25/25/25 26/26/26 24/24/24
f 29/29/29 28/28/28 27/27/27
f 28/28/28 30/30/30 27/27/27
f 28/28/28 31/31/31 30/30/30
f 31/31/31 32/32/32 30/30/30
f 35/35/35 34/34/34 33/33/33
f 36/36/36 35/35/35 33/33/33
f 33/33/33 37/37/37 36/36/36
f 37/37/37 38/38/38 36/36/36
f 38/38/38 37/37/37 39/39/39
f 37/37/37 40/40/40 39/39/39
f 39/39/39 40/40/40 41/41/41
f 42/42/42 39/39/39 41/41/41
f 41/41/41 43/43/43 42/42/42
f 43/43/43 44/44/44 42/42/42
f 47/47/47 46/46/46 45/45/45
f 48/48/48 47/47/47 45/45/45
f 51/51/51 50/50/50 49/49/49
f 52/52/52 51/51/51 49/49/49
f 55/55/55 54/54/54 53/53/53
f 56/56/56 55/55/55 53/53/53
f 59/59/59 58/58/58 57/57/57
f 60/60/60 59/59/59 57/57/57
f 63/63/63 62/62/62 61/61/61
f 64/64/64 63/63/63 61/61/61
f 67/67/67 66/66/66 65/65/65
f 68/68/68 67/67/67 65/65/65
f 69/69/69 67/67/67 68/68/68
f 70/70/70 69/69/69 68/68/68
f 71/71/71 69/69/69 70/70/70
f 72/72/72 71/71/71 70/70/70
f 73/73/73 71/71/71 72/72/72
f 74/74/74 73/73/73 72/72/72
f 77/77/77 76/76/76 75/75/75
f 78/78/78 77/77/77 75/75/75
f 79/79/79 77/77/77 78/78/78
f 80/80/80 79/79/79 78/78/78
f 83/83/83 82/82/82 81/81/81
f 82/82/82 84/84/84 81/81/81
f 84/84/84 85/85/85 81/81/81
f 85/85/85 86/86/86 81/81/81
f 89/89/89 88/88/88 87/87/87
f 90/90/90 89/89/89 87/87/87
f 91/91/91 89/89/89 90/90/90
f 92/92/92 91/91/91 90/90/90
f 93/93/93 91/91/91 92/92/92
f 94/94/94 93/93/93 92/92/92
f 95/95/95 93/93/93 94/94/94
f 96/96/96 95/95/95 94/94/94
f 97/97/97 95/95/95 96/96/96
f 98/98/98 97/97/97 96/96/96
f 99/99/99 97/97/97 98/98/98
f 100/100/100 99/99/99 98/98/98
f 101/101/101 99/99/99 100/100/100
f 102/102/102 101/101/101 100/100/100
f 105/105/105 104/104/104 103/103/103
f 106/106/106 105/105/105 103/103/103
f 107/107/107 105/105/105 106/106/106
f 108/108/108 107/107/107 106/106/106
f 109/109/109 107/107/107 108/108/108
f 110/110/110 109/109/109 108/108/108
f 113/113/113 112/112/112 111/111/111
f 114/114/114 113/113/113 111/111/111
f 114/114/114 111/111/111 115/115/115
f 111/111/111 116/116/116 115/115/115
f 116/116/116 117/117/117 115/115/115
f 117/117/117 118/118/118 115/115/115
f 121/121/121 120/120/120 119/119/119
f 122/122/122 121/121/121 119/119/119
f 125/125/125 124/124/124 123/123/123
f 126/126/126 125/125/125 123/123/123
f 129/129/129 128/128/128 127/127/127
f 130/130/130 129/129/129 127/127/127
f 133/133/133 132/132/132 131/131/131
f 132/132/132 134/134/134 131/131/131
f 131/131/131 134/134/134 135/135/135
f 134/134/134 136/136/136 135/135/135
f 136/136/136 137/137/137 135/135/135
f 137/137/137 138/138/138 135/135/135
f 141/141/141 140/140/140 139/139/139
f 142/142/142 141/141/141 139/139/139
f 145/145/145 144/144/144 143/143/143
f 146/146/146 145/145/145 143/143/143
f 149/149/149 148/148/148 147/147/147
f 150/150/150 149/149/149 147/147/147
f 153/153/153 152/152/152 151/151/151
f 154/154/154 153/153/153 151/151/151
f 157/157/157 156/156/156 155/155/155
f 155/155/155 156/156/156 158/158/158
f 159/159/159 156/156/156 157/157/157
f 158/158/158 156/156/156 160/160/160
f 161/161/161 156/156/156 159/159/159
f 160/160/160 156/156/156 162/162/162
f 163/163/163 156/156/156 161/161/161
f 162/162/162 156/156/156 164/164/164
f 165/165/165 156/156/156 163/163/163
f 164/164/164 156/156/156 165/165/165
f 168/168/168 167/167/167 166/166/166
f 166/166/166 167/167/167 169/169/169
f 170/170/170 167/167/167 168/168/168
f 169/169/169 167/167/167 171/171/171
f 172/172/172 167/167/167 170/170/170
f 171/171/171 167/167/167 173/173/173
f 174/174/174 167/167/167 172/172/172
f 173/173/173 167/167/167 175/175/175
f 176/176/176 167/167/167 174/174/174
f 175/175/175 167/167/167 176/176/176
