g Guns_front_edge
v 4.454133 -0.7949138 11.62295
v 4.458072 -0.8563141 2.788785
v 3.593716 1.201129 2.781216
v 3.589773 1.262532 11.61538
v 4.437361 3.267147 2.774011
v 4.433424 3.328548 11.60817
v 6.490883 4.192899 11.60555
v 6.494823 4.131497 2.771384
v 8.560863 3.287852 2.774884
v 8.556915 3.349256 11.60905
v 6.505517 1.277171 11.616
v 4.433424 3.328548 11.60817
v 3.589773 1.262532 11.61538
v 4.454133 -0.7949138 11.62295
v 6.520165 -1.638556 11.62644
v 8.577609 -0.7742051 11.62382
v 9.421268 1.291812 11.61662
v 9.421268 1.291812 11.61662
v 9.425212 1.230413 2.782452
v 8.577609 -0.7742051 11.62382
v 8.581552 -0.8356076 2.789659
v 8.581552 -0.8356076 2.789659
v 6.494823 4.131497 2.771384
v 6.524103 -1.699956 2.792279
v 4.458072 -0.8563141 2.788785
v 4.437361 3.267147 2.774011
v 3.593716 1.201129 2.781216
v 6.524103 -1.699956 2.792279
v 6.520165 -1.638556 11.62644
v 4.454133 -0.7949138 11.62295
v 4.458072 -0.8563141 2.788785
v -4.454133 -0.7949138 11.62295
v -3.593716 1.201129 2.781216
v -4.458072 -0.8563141 2.788785
v -3.589773 1.262532 11.61538
v -4.437361 3.267147 2.774011
v -4.433424 3.328548 11.60817
v -6.490883 4.192899 11.60555
v -6.494823 4.131497 2.771384
v -8.560863 3.287852 2.774884
v -8.556915 3.349256 11.60905
v -6.505517 1.277171 11.616
v -4.433424 3.328548 11.60817
v -3.589773 1.262532 11.61538
v -4.454133 -0.7949138 11.62295
v -6.520165 -1.638556 11.62644
v -8.577609 -0.7742051 11.62382
v -9.421268 1.291812 11.61662
v -9.421268 1.291812 11.61662
v -9.425212 1.230413 2.782452
v -8.577609 -0.7742051 11.62382
v -8.581552 -0.8356076 2.789659
v -8.581552 -0.8356076 2.789659
v -6.494823 4.131497 2.771384
v -6.524103 -1.699956 2.792279
v -4.458072 -0.8563141 2.788785
v -4.437361 3.267147 2.774011
v -3.593716 1.201129 2.781216
v -6.524103 -1.699956 2.792279
v -6.520165 -1.638556 11.62644
v -4.454133 -0.7949138 11.62295
v -4.458072 -0.8563141 2.788785
vt 0.7791467 0.8025499
vt 0.7946388 0.667569
vt 0.7771047 0.6655549
vt 0.7615297 0.800526
vt 0.7596037 0.663519
vt 0.7438687 0.7984709
vt 0.7262007 0.796442
vt 0.7421007 0.661405
vt 0.7245667 0.6592249
vt 0.7086858 0.7940479
vt 0.7141768 0.816349
vt 0.7366238 0.81086
vt 0.7338778 0.8283929
vt 0.7195487 0.8388169
vt 0.7020798 0.8360469
vt 0.6916957 0.8217689
vt 0.6944287 0.8043509
vt 0.6912407 0.7920229
vt 0.7069898 0.657056
vt 0.6737968 0.7899839
vt 0.6961807 0.6430479
vt 0.6893357 0.655008
vt 0.7385408 0.6484129
vt 0.6984028 0.6255029
vt 0.7123808 0.6146659
vt 0.7407627 0.6308669
vt 0.7299267 0.6168879
vt 0.6716677 0.652984
vt 0.6563437 0.787984
vt 0.6388267 0.7860079
vt 0.6540418 0.650996
vt 0.7791467 0.8025499
vt 0.7771047 0.6655549
vt 0.7946388 0.667569
vt 0.7615297 0.800526
vt 0.7596037 0.663519
vt 0.7438687 0.7984709
vt 0.7262007 0.796442
vt 0.7421007 0.661405
vt 0.7245667 0.6592249
vt 0.7086858 0.7940479
vt 0.7141768 0.816349
vt 0.7366238 0.81086
vt 0.7338778 0.8283929
vt 0.7195487 0.8388169
vt 0.7020798 0.8360469
vt 0.6916957 0.8217689
vt 0.6944287 0.8043509
vt 0.6912407 0.7920229
vt 0.7069898 0.657056
vt 0.6737968 0.7899839
vt 0.6961807 0.6430479
vt 0.6893357 0.655008
vt 0.7385408 0.6484129
vt 0.6984028 0.6255029
vt 0.7123808 0.6146659
vt 0.7407627 0.6308669
vt 0.7299267 0.6168879
vt 0.6716677 0.652984
vt 0.6563437 0.787984
vt 0.6388267 0.7860079
vt 0.6540418 0.650996
vn -0.618274 -0.6226892 0.4795783
vn -0.3691339 -0.3761027 -0.8498747
vn -0.9321555 -0.1346936 -0.3360711
vn -0.806818 0.1093349 0.5805949
vn -0.62422 0.6163751 -0.4800324
vn -0.4830196 0.4806505 0.7318928
vn -0.004530568 0.8823833 0.4705095
vn -0.001893882 0.415559 -0.9095643
vn 0.6182749 0.6226885 -0.4795781
vn 0.4777907 0.4854081 0.732185
vn -0.0002300964 0.0035819 0.9999936
vn -0.4830196 0.4806505 0.7318928
vn -0.806818 0.1093349 0.5805949
vn -0.618274 -0.6226892 0.4795783
vn 0.003233204 -0.6748102 0.7379842
vn 0.6242191 -0.6163761 0.4800324
vn 0.8052825 0.1174096 0.5811498
vn 0.8052825 0.1174096 0.5811498
vn 0.9337199 -0.1253402 -0.3353458
vn 0.6242191 -0.6163761 0.4800324
vn 0.3732994 -0.3724215 -0.8496763
vn 0.3732994 -0.3724215 -0.8496763
vn -0.001893882 0.415559 -0.9095643
vn 0.004531585 -0.8823833 -0.4705094
vn -0.3691339 -0.3761027 -0.8498747
vn -0.62422 0.6163751 -0.4800324
vn -0.9321555 -0.1346936 -0.3360711
vn 0.004531585 -0.8823833 -0.4705094
vn 0.003233204 -0.6748102 0.7379842
vn -0.618274 -0.6226892 0.4795783
vn -0.3691339 -0.3761027 -0.8498747
vn 0.618274 -0.6226892 0.4795783
vn 0.9321555 -0.1346936 -0.3360711
vn 0.3691339 -0.3761027 -0.8498747
vn 0.806818 0.1093349 0.5805949
vn 0.62422 0.6163751 -0.4800324
vn 0.4830196 0.4806505 0.7318928
vn 0.004530561 0.8823833 0.4705095
vn 0.001893882 0.415559 -0.9095643
vn -0.6182749 0.6226885 -0.479578
vn -0.4777907 0.4854081 0.732185
vn 0.0002300964 0.0035819 0.9999936
vn 0.4830196 0.4806505 0.7318928
vn 0.806818 0.1093349 0.5805949
vn 0.618274 -0.6226892 0.4795783
vn -0.003233205 -0.6748102 0.7379842
vn -0.6242191 -0.6163761 0.4800324
vn -0.8052825 0.1174096 0.5811498
vn -0.8052825 0.1174096 0.5811498
vn -0.9337199 -0.1253402 -0.3353457
vn -0.6242191 -0.6163761 0.4800324
vn -0.3732994 -0.3724215 -0.8496763
vn -0.3732994 -0.3724215 -0.8496763
vn 0.001893882 0.415559 -0.9095643
vn -0.004531585 -0.8823833 -0.4705094
vn 0.3691339 -0.3761027 -0.8498747
vn 0.62422 0.6163751 -0.4800324
vn 0.9321555 -0.1346936 -0.3360711
vn -0.004531585 -0.8823833 -0.4705094
vn -0.003233205 -0.6748102 0.7379842
vn 0.618274 -0.6226892 0.4795783
vn 0.3691339 -0.3761027 -0.8498747
g Guns_front_edge_0
f 3/3/3 2/2/2 1/1/1
f 1/1/1 4/4/4 3/3/3
f 5/5/5 3/3/3 4/4/4
f 4/4/4 6/6/6 5/5/5
f 5/5/5 6/6/6 7/7/7
f 7/7/7 8/8/8 5/5/5
f 9/9/9 8/8/8 7/7/7
f 9/9/9 7/7/7 10/10/10
f 7/7/7 11/11/11 10/10/10
f 12/12/12 11/11/11 7/7/7
f 13/13/13 11/11/11 12/12/12
f 14/14/14 11/11/11 13/13/13
f 15/15/15 11/11/11 14/14/14
f 16/16/16 11/11/11 15/15/15
f 17/17/17 11/11/11 16/16/16
f 10/10/10 11/11/11 17/17/17
f 9/9/9 10/10/10 18/18/18
f 18/18/18 19/19/19 9/9/9
f 19/19/19 18/18/18 20/20/20
f 9/9/9 19/19/19 21/21/21
f 20/20/20 22/22/22 19/19/19
f 23/23/23 9/9/9 21/21/21
f 21/21/21 24/24/24 23/23/23
f 23/23/23 24/24/24 25/25/25
f 25/25/25 26/26/26 23/23/23
f 25/25/25 27/27/27 26/26/26
f 28/28/28 22/22/22 20/20/20
f 28/28/28 20/20/20 29/29/29
f 28/28/28 29/29/29 30/30/30
f 30/30/30 31/31/31 28/28/28
f 34/34/34 33/33/33 32/32/32
f 35/35/35 32/32/32 33/33/33
f 33/33/33 36/36/36 35/35/35
f 37/37/37 35/35/35 36/36/36
f 38/38/38 37/37/37 36/36/36
f 36/36/36 39/39/39 38/38/38
f 39/39/39 40/40/40 38/38/38
f 41/41/41 38/38/38 40/40/40
f 42/42/42 38/38/38 41/41/41
f 42/42/42 43/43/43 38/38/38
f 42/42/42 44/44/44 43/43/43
f 42/42/42 45/45/45 44/44/44
f 42/42/42 46/46/46 45/45/45
f 42/42/42 47/47/47 46/46/46
f 42/42/42 48/48/48 47/47/47
f 42/42/42 41/41/41 48/48/48
f 49/49/49 41/41/41 40/40/40
f 40/40/40 50/50/50 49/49/49
f 51/51/51 49/49/49 50/50/50
f 52/52/52 50/50/50 40/40/40
f 50/50/50 53/53/53 51/51/51
f 52/52/52 40/40/40 54/54/54
f 54/54/54 55/55/55 52/52/52
f 56/56/56 55/55/55 54/54/54
f 54/54/54 57/57/57 56/56/56
f 57/57/57 58/58/58 56/56/56
f 53/53/53 59/59/59 51/51/51
f 60/60/60 51/51/51 59/59/59
f 61/61/61 60/60/60 59/59/59
f 59/59/59 62/62/62 61/61/61
