g Guns_back_red
v 10.14908 1.782123 8.389205
v 10.15164 1.742157 2.700472
v 9.589025 3.081365 2.695546
v 9.58646 3.121332 8.384276
v 10.13816 4.426153 2.690856
v 10.1356 4.46612 8.379588
v 11.47482 5.028733 8.377879
v 11.47738 4.988766 2.689146
v 12.82218 4.43963 2.691424
v 12.81962 4.479599 8.380157
v 11.48434 3.130861 8.38468
v 10.1356 4.46612 8.379588
v 9.58646 3.121332 8.384276
v 10.14908 1.782123 8.389205
v 11.49388 1.23299 8.391479
v 12.83308 1.795603 8.389773
v 13.38223 3.140391 8.385083
v 13.38223 3.140391 8.385083
v 13.3848 3.100426 2.69635
v 12.83308 1.795603 8.389773
v 12.83565 1.755635 2.701041
v 12.83565 1.755635 2.701041
v 11.47738 4.988766 2.689146
v 11.49644 1.193024 2.702748
v 10.15164 1.742157 2.700472
v 10.13816 4.426153 2.690856
v 9.589025 3.081365 2.695546
v 11.49644 1.193024 2.702748
v 11.49388 1.23299 8.391479
v 10.14908 1.782123 8.389205
v 10.15164 1.742157 2.700472
v -10.14908 1.782123 8.389205
v -9.589025 3.081365 2.695546
v -10.15164 1.742157 2.700472
v -9.58646 3.121332 8.384276
v -10.13816 4.426153 2.690856
v -10.1356 4.46612 8.379588
v -11.47482 5.028733 8.377879
v -11.47738 4.988766 2.689146
v -12.82218 4.43963 2.691424
v -12.81962 4.479599 8.380157
v -11.48434 3.130861 8.38468
v -10.1356 4.46612 8.379588
v -9.58646 3.121332 8.384276
v -10.14908 1.782123 8.389205
v -11.49388 1.23299 8.391479
v -12.83308 1.795603 8.389773
v -13.38223 3.140391 8.385083
v -13.38223 3.140391 8.385083
v -13.3848 3.100426 2.69635
v -12.83308 1.795603 8.389773
v -12.83565 1.755635 2.701041
v -12.83565 1.755635 2.701041
v -11.47738 4.988766 2.689146
v -11.49644 1.193024 2.702748
v -10.15164 1.742157 2.700472
v -10.13816 4.426153 2.690856
v -9.589025 3.081365 2.695546
v -11.49644 1.193024 2.702748
v -11.49388 1.23299 8.391479
v -10.14908 1.782123 8.389205
v -10.15164 1.742157 2.700472
vt 0.4066327 0.8545963
vt 0.2707661 0.8541769
vt 0.2707101 0.8718261
vt 0.4065758 0.8723291
vt 0.2706285 0.8894449
vt 0.4064931 0.8901091
vt 0.406437 0.9078931
vt 0.2704696 0.9070744
vt 0.2702485 0.9247421
vt 0.4060012 0.9255656
vt 0.4275553 0.9176341
vt 0.4196095 0.8959347
vt 0.4373389 0.8967184
vt 0.4492885 0.9098023
vt 0.4484739 0.9274707
vt 0.4354361 0.9393749
vt 0.4178225 0.9385914
vt 0.4059243 0.9431275
vt 0.2700432 0.9424512
vt 0.4058333 0.96069
vt 0.257321 0.9547477
vt 0.2699667 0.9602234
vt 0.2579528 0.912054
vt 0.2396378 0.9544861
vt 0.2273168 0.941797
vt 0.2402686 0.9117926
vt 0.2275783 0.9241127
vt 0.2699156 0.9780069
vt 0.4057822 0.9782572
vt 0.4057621 0.9958853
vt 0.2698956 0.9957446
vt 0.4066327 0.8545963
vt 0.2707101 0.8718261
vt 0.2707661 0.8541769
vt 0.4065758 0.8723291
vt 0.2706285 0.8894449
vt 0.4064931 0.8901091
vt 0.406437 0.9078931
vt 0.2704696 0.9070744
vt 0.2702485 0.9247421
vt 0.4060012 0.9255656
vt 0.4275553 0.9176341
vt 0.4196095 0.8959347
vt 0.4373389 0.8967184
vt 0.4492885 0.9098023
vt 0.4484739 0.9274707
vt 0.4354361 0.9393749
vt 0.4178225 0.9385914
vt 0.4059243 0.9431275
vt 0.2700432 0.9424512
vt 0.4058333 0.96069
vt 0.257321 0.9547477
vt 0.2699667 0.9602234
vt 0.2579528 0.912054
vt 0.2396378 0.9544861
vt 0.2273168 0.941797
vt 0.2402686 0.9117926
vt 0.2275783 0.9241127
vt 0.2699156 0.9780069
vt 0.4057822 0.9782572
vt 0.4057621 0.9958853
vt 0.2698956 0.9957446
vn -0.618261 -0.622676 0.4796122
vn -0.3691422 -0.376111 -0.8498673
vn -0.9321573 -0.1346938 -0.336066
vn -0.8068238 0.1093351 0.580587
vn -0.6242054 0.6163601 -0.4800706
vn -0.4830332 0.4806637 0.7318753
vn -0.0045306 0.8824108 0.470458
vn -0.001893979 0.4155469 -0.9095699
vn 0.6182621 0.6226751 -0.479612
vn 0.4778026 0.4854201 0.7321694
vn -0.0002301612 0.003581772 0.9999936
vn -0.4830332 0.4806637 0.7318753
vn -0.8068238 0.1093351 0.580587
vn -0.618261 -0.622676 0.4796122
vn 0.003233036 -0.6747848 0.7380075
vn 0.6242043 -0.6163615 0.4800704
vn 0.8052849 0.1174095 0.5811467
vn 0.8052849 0.1174095 0.5811467
vn 0.9337243 -0.1253411 -0.3353336
vn 0.6242043 -0.6163615 0.4800704
vn 0.3733087 -0.3724309 -0.8496681
vn 0.3733087 -0.3724309 -0.8496681
vn -0.001893979 0.4155469 -0.9095699
vn 0.004531781 -0.8824107 -0.470458
vn -0.3691422 -0.376111 -0.8498673
vn -0.6242054 0.6163601 -0.4800706
vn -0.9321573 -0.1346938 -0.336066
vn 0.004531781 -0.8824107 -0.470458
vn 0.003233036 -0.6747848 0.7380075
vn -0.618261 -0.622676 0.4796122
vn -0.3691422 -0.376111 -0.8498673
vn 0.618261 -0.622676 0.4796122
vn 0.9321573 -0.1346938 -0.336066
vn 0.3691422 -0.376111 -0.8498673
vn 0.8068238 0.1093351 0.580587
vn 0.6242054 0.6163601 -0.4800706
vn 0.4830332 0.4806637 0.7318753
vn 0.004530607 0.8824108 0.470458
vn 0.001893973 0.4155469 -0.9095699
vn -0.6182621 0.6226751 -0.479612
vn -0.4778026 0.4854201 0.7321694
vn 0.0002301612 0.003581772 0.9999936
vn 0.4830332 0.4806637 0.7318753
vn 0.8068238 0.1093351 0.580587
vn 0.618261 -0.622676 0.4796122
vn -0.003233025 -0.6747848 0.7380075
vn -0.6242043 -0.6163615 0.4800704
vn -0.8052849 0.1174095 0.5811467
vn -0.8052849 0.1174095 0.5811467
vn -0.9337243 -0.1253411 -0.3353335
vn -0.6242043 -0.6163615 0.4800704
vn -0.3733087 -0.3724309 -0.8496681
vn -0.3733087 -0.3724309 -0.8496681
vn 0.001893973 0.4155469 -0.9095699
vn -0.004531781 -0.8824107 -0.470458
vn 0.3691422 -0.376111 -0.8498673
vn 0.6242054 0.6163601 -0.4800706
vn 0.9321573 -0.1346938 -0.336066
vn -0.004531781 -0.8824107 -0.470458
vn -0.003233025 -0.6747848 0.7380075
vn 0.618261 -0.622676 0.4796122
vn 0.3691422 -0.376111 -0.8498673
g Guns_back_red_0
f 3/3/3 2/2/2 1/1/1
f 1/1/1 4/4/4 3/3/3
f 5/5/5 3/3/3 4/4/4
f 4/4/4 6/6/6 5/5/5
f 5/5/5 6/6/6 7/7/7
f 7/7/7 8/8/8 5/5/5
f 9/9/9 8/8/8 7/7/7
f 9/9/9 7/7/7 10/10/10
f 7/7/7 11/11/11 10/10/10
f 12/12/12 11/11/11 7/7/7
f 13/13/13 11/11/11 12/12/12
f 14/14/14 11/11/11 13/13/13
f 15/15/15 11/11/11 14/14/14
f 16/16/16 11/11/11 15/15/15
f 17/17/17 11/11/11 16/16/16
f 10/10/10 11/11/11 17/17/17
f 9/9/9 10/10/10 18/18/18
f 18/18/18 19/19/19 9/9/9
f 19/19/19 18/18/18 20/20/20
f 9/9/9 19/19/19 21/21/21
f 20/20/20 22/22/22 19/19/19
f 23/23/23 9/9/9 21/21/21
f 21/21/21 24/24/24 23/23/23
f 23/23/23 24/24/24 25/25/25
f 25/25/25 26/26/26 23/23/23
f 25/25/25 27/27/27 26/26/26
f 28/28/28 22/22/22 20/20/20
f 28/28/28 20/20/20 29/29/29
f 28/28/28 29/29/29 30/30/30
f 30/30/30 31/31/31 28/28/28
f 34/34/34 33/33/33 32/32/32
f 35/35/35 32/32/32 33/33/33
f 33/33/33 36/36/36 35/35/35
f 37/37/37 35/35/35 36/36/36
f 38/38/38 37/37/37 36/36/36
f 36/36/36 39/39/39 38/38/38
f 39/39/39 40/40/40 38/38/38
f 41/41/41 38/38/38 40/40/40
f 42/42/42 38/38/38 41/41/41
f 42/42/42 43/43/43 38/38/38
f 42/42/42 44/44/44 43/43/43
f 42/42/42 45/45/45 44/44/44
f 42/42/42 46/46/46 45/45/45
f 42/42/42 47/47/47 46/46/46
f 42/42/42 48/48/48 47/47/47
f 42/42/42 41/41/41 48/48/48
f 49/49/49 41/41/41 40/40/40
f 40/40/40 50/50/50 49/49/49
f 51/51/51 49/49/49 50/50/50
f 52/52/52 50/50/50 40/40/40
f 50/50/50 53/53/53 51/51/51
f 52/52/52 40/40/40 54/54/54
f 54/54/54 55/55/55 52/52/52
f 56/56/56 55/55/55 54/54/54
f 54/54/54 57/57/57 56/56/56
f 57/57/57 58/58/58 56/56/56
f 53/53/53 59/59/59 51/51/51
f 60/60/60 51/51/51 59/59/59
f 61/61/61 60/60/60 59/59/59
f 59/59/59 62/62/62 61/61/61
