g GwenPLacementFIreBallRim
v 1.687356 -0.6761149 -2.922586
v 4.636336 0.34027 -2.67679
v 2.922586 -0.6761149 -1.687356
v 2.67679 0.34027 -4.636336
v 7.649368 1.016385 -4.416365
v 0 -0.6761149 -3.374712
v 4.416365 1.016385 -7.649368
v 0 0.34027 -5.35358
v -1.687356 -0.6761149 -2.922586
v 0 1.016385 -8.832729
v -2.67679 0.34027 -4.636336
v -2.922586 -0.6761149 -1.687356
v -4.416365 1.016385 -7.649368
v -4.636336 0.34027 -2.67679
v -3.374712 -0.6761149 0
v -7.649368 1.016385 -4.416365
v -5.35358 0.34027 0
v -2.922586 -0.6761149 1.687356
v -8.832729 1.016385 0
v -4.636336 0.34027 2.67679
v -1.687356 -0.6761149 2.922586
v -7.649368 1.016385 4.416365
v -2.67679 0.34027 4.636336
v 0 -0.6761149 3.374712
v -4.416365 1.016385 7.649368
v 0 0.34027 5.35358
v 1.687356 -0.6761149 2.922586
v 0 1.016385 8.832729
v 2.67679 0.34027 4.636336
v 2.922586 -0.6761149 1.687356
v 4.416365 1.016385 7.649368
v 4.636336 0.34027 2.67679
v 3.374712 -0.6761149 0
v 7.649368 1.016385 4.416365
v 5.35358 0.34027 0
v 2.922586 -0.6761149 -1.687356
v 8.832729 1.016385 0
v 4.636336 0.34027 -2.67679
v 7.649368 1.016385 -4.416365
vt 0.6666666 0.0833334
vt 0.4999999 1.192093E-07
vt 0.6666666 -2.980232E-08
vt 0.5 0.08333343
vt 0.3333334 1.192093E-07
vt 0.6666666 0.1666667
vt 0.3333334 0.08333337
vt 0.5 0.1666667
vt 0.6666666 0.2500001
vt 0.3333334 0.1666667
vt 0.5 0.2500001
vt 0.6666667 0.3333334
vt 0.3333334 0.2500001
vt 0.5 0.3333334
vt 0.6666667 0.4166667
vt 0.3333334 0.3333334
vt 0.5 0.4166667
vt 0.6666667 0.5000001
vt 0.3333334 0.4166668
vt 0.5000001 0.5000001
vt 0.6666667 0.5833334
vt 0.3333334 0.5000001
vt 0.5000001 0.5833334
vt 0.6666667 0.6666667
vt 0.3333334 0.5833334
vt 0.5000001 0.6666667
vt 0.6666667 0.75
vt 0.3333334 0.6666667
vt 0.5000001 0.75
vt 0.6666667 0.8333334
vt 0.3333334 0.75
vt 0.5000001 0.8333334
vt 0.6666667 0.9166667
vt 0.3333334 0.8333334
vt 0.5000001 0.9166667
vt 0.6666667 1
vt 0.3333334 0.9166667
vt 0.5000001 1
vt 0.3333334 1
vn -0.2284396 0.8895287 0.395669
vn -0.2175034 0.9679479 0.1255756
vn -0.3956689 0.8895287 0.2284396
vn -0.1255756 0.9679479 0.2175034
vn -0.165207 0.9816358 0.0953823
vn 0 0.8895287 0.4568792
vn -0.0953823 0.9816358 0.165207
vn 0 0.9679479 0.2511513
vn 0.2284396 0.8895287 0.3956689
vn 0 0.9816358 0.1907646
vn 0.1255757 0.9679479 0.2175034
vn 0.395669 0.8895287 0.2284396
vn 0.09538231 0.9816358 0.165207
vn 0.2175034 0.9679479 0.1255757
vn 0.4568792 0.8895287 0
vn 0.165207 0.9816358 0.09538232
vn 0.2511513 0.9679479 0
vn 0.3956689 0.8895287 -0.2284396
vn 0.1907646 0.9816358 0
vn 0.2175034 0.9679479 -0.1255756
vn 0.2284396 0.8895287 -0.395669
vn 0.165207 0.9816358 -0.0953823
vn 0.1255756 0.9679479 -0.2175034
vn 0 0.8895287 -0.4568792
vn 0.0953823 0.9816358 -0.165207
vn 0 0.9679479 -0.2511513
vn -0.2284396 0.8895287 -0.3956689
vn 0 0.9816358 -0.1907646
vn -0.1255757 0.9679479 -0.2175034
vn -0.395669 0.8895287 -0.2284396
vn -0.09538231 0.9816358 -0.165207
vn -0.2175034 0.9679479 -0.1255757
vn -0.4568792 0.8895287 0
vn -0.165207 0.9816358 -0.09538232
vn -0.2511513 0.9679479 0
vn -0.3956689 0.8895287 0.2284396
vn -0.1907646 0.9816358 0
vn -0.2175034 0.9679479 0.1255756
vn -0.165207 0.9816358 0.0953823
g GwenPLacementFIreBallRim_0
f 3/3/3 2/2/2 1/1/1
f 2/2/2 4/4/4 1/1/1
f 2/2/2 5/5/5 4/4/4
f 1/1/1 4/4/4 6/6/6
f 5/5/5 7/7/7 4/4/4
f 4/4/4 8/8/8 6/6/6
f 4/4/4 7/7/7 8/8/8
f 6/6/6 8/8/8 9/9/9
f 7/7/7 10/10/10 8/8/8
f 8/8/8 11/11/11 9/9/9
f 8/8/8 10/10/10 11/11/11
f 9/9/9 11/11/11 12/12/12
f 10/10/10 13/13/13 11/11/11
f 11/11/11 14/14/14 12/12/12
f 11/11/11 13/13/13 14/14/14
f 12/12/12 14/14/14 15/15/15
f 13/13/13 16/16/16 14/14/14
f 14/14/14 17/17/17 15/15/15
f 14/14/14 16/16/16 17/17/17
f 15/15/15 17/17/17 18/18/18
f 16/16/16 19/19/19 17/17/17
f 17/17/17 20/20/20 18/18/18
f 17/17/17 19/19/19 20/20/20
f 18/18/18 20/20/20 21/21/21
f 19/19/19 22/22/22 20/20/20
f 20/20/20 23/23/23 21/21/21
f 20/20/20 22/22/22 23/23/23
f 21/21/21 23/23/23 24/24/24
f 22/22/22 25/25/25 23/23/23
f 23/23/23 26/26/26 24/24/24
f 23/23/23 25/25/25 26/26/26
f 24/24/24 26/26/26 27/27/27
f 25/25/25 28/28/28 26/26/26
f 26/26/26 29/29/29 27/27/27
f 26/26/26 28/28/28 29/29/29
f 27/27/27 29/29/29 30/30/30
f 28/28/28 31/31/31 29/29/29
f 29/29/29 32/32/32 30/30/30
f 29/29/29 31/31/31 32/32/32
f 30/30/30 32/32/32 33/33/33
f 31/31/31 34/34/34 32/32/32
f 32/32/32 35/35/35 33/33/33
f 32/32/32 34/34/34 35/35/35
f 33/33/33 35/35/35 36/36/36
f 34/34/34 37/37/37 35/35/35
f 35/35/35 38/38/38 36/36/36
f 35/35/35 37/37/37 38/38/38
f 37/37/37 39/39/39 38/38/38
