g HairLVL3
v 0.8628439 22.12391 -1.147664
v 1.687153 22.39544 -0.6653203
v 0.8240324 21.66491 -0.9906971
v 1.629803 23.10593 -0.9401166
v 0.876694 22.02535 -1.249783
v 3.037848 23.51573 -0.2826339
v 1.675535 22.93593 -1.24001
v 2.945424 24.50985 -0.5674977
v 4.529142 23.85711 0.1086855
v 2.996742 24.33015 -0.9038461
v 4.448809 25.04659 -0.1374767
v 4.503796 24.87026 -0.5005139
v 0.8855792 22.07141 -0.8766402
v 1.85341 21.85409 -0.8326281
v 0.703761 21.67934 -0.6529291
v 2.031708 22.52197 -1.157815
v 0.8040475 21.98881 -0.9594939
v 3.190362 21.41817 -1.149151
v 1.853608 22.38014 -1.420673
v 3.5968 22.44089 -1.573949
v 4.621213 20.5424 -1.494443
v 3.384003 22.29765 -1.860753
v 5.330534 21.58719 -2.018263
v 5.083307 21.46091 -2.316332
v 0.1526221 22.49565 -1.032549
v 0.1249245 22.03144 -0.4020813
v 0.1735091 21.87245 -0.8756543
v 0.1284791 22.68012 -0.5887524
v 1.315645 22.93795 -0.648977
v 1.272859 22.78823 -1.076196
v 1.570421 22.23726 -0.930072
v 1.605298 22.35293 -0.4771619
v 0.9996535 21.58408 -0.7813794
v 1.605298 22.35293 -0.4771619
v 1.570421 22.23726 -0.930072
v 0.9798301 21.69752 -0.2958813
v 0.1735091 21.87245 -0.8756543
v 1.315645 22.93795 -0.648977
v 0.1249245 22.03144 -0.4020813
v 0.1284791 22.68012 -0.5887524
v 2.653654 25.78274 -3.587811
v 0.1016007 26.33136 -3.623956
v 2.228689 25.21138 -5.194677
v 1.24251 26.29189 -1.997759
v 4.161271 24.59132 -3.108896
v -0.9750736 26.29189 -1.997759
v -2.386217 25.78274 -3.587811
v -3.893834 24.59132 -3.108896
v -1.672031 25.45225 -0.9417022
v -3.54968 23.02673 -2.359699
v 1.939467 25.45225 -0.9417022
v 3.817116 23.02673 -2.359699
v -1.581182 23.8195 -0.434528
v -2.030569 22.01722 -2.074294
v 1.848619 23.8195 -0.434528
v -0.8405995 22.47333 -0.8483922
v 0.1016007 21.72143 -1.782764
v 1.108036 22.47333 -0.8483922
v 2.298005 22.01722 -2.074294
v 3.348965 22.01414 -4.441061
v 1.921563 21.62279 -3.176126
v 0.1016007 21.72143 -1.782764
v 2.298005 22.01722 -2.074294
v 1.921563 21.62279 -3.176126
v 0.09859165 21.39796 -3.484036
v 3.348965 22.01414 -4.441061
v -1.654127 21.62279 -3.176126
v -2.030569 22.01722 -2.074294
v -3.081529 22.01414 -4.441061
v -3.54968 23.02673 -2.359699
v -3.893834 24.59132 -3.108896
v 0.09859168 21.5229 -5.327863
v -3.193391 23.61134 -5.388991
v -2.386217 25.78274 -3.587811
v -1.961253 25.21138 -5.194677
v 0.1016007 26.33136 -3.623956
v 0.09859167 24.98672 -5.824913
v 2.228689 25.21138 -5.194677
v 0.09859166 23.22891 -6.281588
v 3.460828 23.61134 -5.388991
v 2.653654 25.78274 -3.587811
v 4.161271 24.59132 -3.108896
v 3.817116 23.02673 -2.359699
v 0.2841366 14.69801 5.915907
v -0.4316812 12.32839 5.44552
v 1.237651 14.3911 6.099741
v 0.7664875 16.88275 5.839685
v 2.203976 17.01149 6.021895
v 0.9473038 19.18696 5.45326
v 2.431455 19.31554 5.635239
v 0.6656239 21.15989 4.015567
v 2.155781 21.37224 4.102678
v 0.2433466 21.69961 2.239725
v 1.200141 21.92374 1.927247
v -0.08358072 21.59139 0.1520337
v 0.8240324 21.66491 -0.9906971
v 1.754186 22.24864 -0.9845746
v 0.8595172 21.57469 -1.098673
v 0.876694 22.02535 -1.249783
v 1.675535 22.93593 -1.24001
v 1.687153 22.39544 -0.6653203
v 2.996742 24.33015 -0.9038461
v 3.112537 23.36238 -0.6398091
v 3.037848 23.51573 -0.2826339
v 4.503796 24.87026 -0.5005139
v 4.608178 23.7099 -0.275562
v 4.529142 23.85711 0.1086855
v 4.448809 25.04659 -0.1374767
v 0.703761 21.67934 -0.6529291
v 1.69421 21.72358 -1.125184
v 0.6401285 21.5938 -0.7513722
v 0.8040475 21.98881 -0.9594939
v 1.853608 22.38014 -1.420673
v 1.85341 21.85409 -0.8326281
v 3.384003 22.29765 -1.860753
v 2.999717 21.28416 -1.469096
v 3.190362 21.41817 -1.149151
v 5.083307 21.46091 -2.316332
v 4.398686 20.42036 -1.82784
v 4.621213 20.5424 -1.494443
v 5.330534 21.58719 -2.018263
v 1.681369 20.90057 -1.55702
v 1.480898 21.41114 -3.256017
v 1.332365 20.47283 -2.887808
v 0.02192994 20.29886 -3.460742
v 1.793294 21.90022 -1.859282
v 0.1296615 21.2216 -3.908617
v 0.8061359 21.25998 -0.4704898
v -1.242908 21.47432 -3.32566
v 0.8316079 22.33807 -0.7895045
v -1.263151 20.50967 -2.844391
v -0.6342666 21.28042 -0.4463959
v -1.603237 21.97899 -1.946124
v -0.6799906 22.33807 -0.7895048
v -1.555186 20.9465 -1.502881
v 0.8316079 22.33807 -0.7895045
v -0.6799906 22.33807 -0.7895048
v 0.1013323 21.54464 -2.172191
v 1.793294 21.90022 -1.859282
v -1.603237 21.97899 -1.946124
v 1.480898 21.41114 -3.256017
v -1.242908 21.47432 -3.32566
v 0.1296615 21.2216 -3.908617
v 0.7574243 14.62556 6.51166
v 1.237651 14.3911 6.099741
v -0.4316812 12.32839 5.44552
v 0.2841366 14.69801 5.915907
v 0.7664875 16.88275 5.839685
v 1.491309 17.05815 6.621341
v 2.203976 17.01149 6.021895
v 0.9473038 19.18696 5.45326
v 1.719535 19.36228 6.234798
v 2.431455 19.31554 5.635239
v 0.6656239 21.15989 4.015567
v 1.425979 21.7303 4.582257
v 2.155781 21.37224 4.102678
v 0.2433466 21.69961 2.239725
v 0.7064654 22.27649 2.157579
v 1.200141 21.92374 1.927247
v -0.08358072 21.59139 0.1520337
vt 0.3126548 0.8097391
vt 0.3115579 0.7965946
vt 0.3107259 0.8127428
vt 0.3146027 0.7933346
vt 0.312957 0.8108671
vt 0.3118604 0.775355
vt 0.3157778 0.7957035
vt 0.3157113 0.7691621
vt 0.3107259 0.7577319
vt 0.3170251 0.7719921
vt 0.3149863 0.7475067
vt 0.3164098 0.7507895
vt 0.3042777 0.8250929
vt 0.3030618 0.8118121
vt 0.3024245 0.8276189
vt 0.305998 0.809398
vt 0.3046006 0.8259785
vt 0.3031139 0.792664
vt 0.3072132 0.8112193
vt 0.3071459 0.7872841
vt 0.3023986 0.7717929
vt 0.3085054 0.7895332
vt 0.306825 0.762134
vt 0.3082972 0.7648462
vt 0.289366 0.8419244
vt 0.2872627 0.8359815
vt 0.287776 0.8337948
vt 0.2892611 0.8443729
vt 0.3053756 0.8443723
vt 0.3047012 0.8425617
vt 0.3068986 0.834589
vt 0.3073571 0.8359806
vt 0.297581 0.8277358
vt 0.3073571 0.8359806
vt 0.3068986 0.834589
vt 0.2973033 0.8292518
vt 0.287776 0.8337948
vt 0.3053756 0.8443723
vt 0.2872627 0.8359815
vt 0.2892611 0.8443729
vt 0.3033831 0.6471087
vt 0.2707839 0.658128
vt 0.3035959 0.647132
vt 0.2786892 0.6491406
vt 0.3207954 0.6271961
vt 0.2497768 0.6524693
vt 0.2394355 0.6544487
vt 0.2190442 0.6396541
vt 0.2358784 0.6378914
vt 0.2200736 0.6165399
vt 0.2832893 0.6320928
vt 0.3126985 0.6042488
vt 0.2348952 0.6142079
vt 0.2374182 0.6004149
vt 0.2795224 0.6082787
vt 0.2464629 0.5979522
vt 0.2624808 0.5917003
vt 0.2713405 0.5944854
vt 0.2915216 0.5929042
vt 0.3134728 0.6026342
vt 0.2908651 0.5942367
vt 0.2624808 0.5917003
vt 0.2915216 0.5929042
vt 0.2908651 0.5942367
vt 0.2695237 0.5961564
vt 0.3134728 0.6026342
vt 0.2469987 0.6003028
vt 0.2374182 0.6004149
vt 0.2356085 0.6130171
vt 0.2200736 0.6165399
vt 0.2190442 0.6396541
vt 0.2768398 0.6062245
vt 0.2382355 0.6361334
vt 0.2394355 0.6544487
vt 0.2518741 0.6530676
vt 0.2707839 0.658128
vt 0.2794526 0.6499134
vt 0.3035959 0.647132
vt 0.2808318 0.6304733
vt 0.3189751 0.6262062
vt 0.3033831 0.6471087
vt 0.3207954 0.6271961
vt 0.3126985 0.6042488
vt 0.0328964 0.54784
vt 0.02243304 0.5268633
vt 0.04423094 0.5443127
vt 0.03941867 0.5703312
vt 0.05659741 0.5714849
vt 0.04300696 0.5958548
vt 0.06072855 0.5970424
vt 0.03896955 0.6245283
vt 0.05660534 0.6271607
vt 0.02953264 0.6409248
vt 0.0401355 0.6458554
vt 0.02245042 0.6531157
vt 0.3107259 0.8127428
vt 0.3129063 0.7986704
vt 0.311097 0.8136144
vt 0.312957 0.8108671
vt 0.3157778 0.7957035
vt 0.3115579 0.7965946
vt 0.3170251 0.7719921
vt 0.3133603 0.7778459
vt 0.3118604 0.775355
vt 0.3164098 0.7507895
vt 0.3123356 0.7606429
vt 0.3107259 0.7577319
vt 0.3149863 0.7475067
vt 0.3024245 0.8276189
vt 0.304446 0.8133333
vt 0.3028139 0.8282302
vt 0.3046006 0.8259785
vt 0.3072132 0.8112193
vt 0.3030618 0.8118121
vt 0.3085054 0.7895332
vt 0.3046544 0.79456
vt 0.3031139 0.792664
vt 0.3082972 0.7648462
vt 0.3040521 0.7741092
vt 0.3023986 0.7717929
vt 0.306825 0.762134
vt 0.2816602 0.7842993
vt 0.2846525 0.7616494
vt 0.2849872 0.7632407
vt 0.2900865 0.7642658
vt 0.281313 0.7844588
vt 0.2900094 0.7616459
vt 0.2826107 0.8115842
vt 0.2933498 0.7844516
vt 0.282527 0.8126917
vt 0.2931182 0.7866027
vt 0.2871231 0.8245487
vt 0.2921583 0.812893
vt 0.2873107 0.82576
vt 0.2917993 0.8134312
vt 0.282527 0.8126917
vt 0.2873107 0.82576
vt 0.2873057 0.7918916
vt 0.281313 0.7844588
vt 0.2921583 0.812893
vt 0.2846525 0.7616494
vt 0.2933498 0.7844516
vt 0.2900094 0.7616459
vt 0.03960663 0.5436347
vt 0.04423094 0.5443127
vt 0.02243304 0.5268633
vt 0.0328964 0.54784
vt 0.03941867 0.5703312
vt 0.04956365 0.5675694
vt 0.05659741 0.5714849
vt 0.04300696 0.5958548
vt 0.05370378 0.5931276
vt 0.06072855 0.5970424
vt 0.03896955 0.6245283
vt 0.04927522 0.6270897
vt 0.05660534 0.6271607
vt 0.02953264 0.6409248
vt 0.03503591 0.6475081
vt 0.0401355 0.6458554
vt 0.02245042 0.6531157
vn -0.7207794 0.4614019 0.5172865
vn -0.2151589 -0.1334302 0.9674208
vn -0.109967 -0.2855976 0.9520196
vn -0.6667798 0.4782835 0.5715328
vn 0.1980934 -0.1653323 -0.9661389
vn -0.2805576 -0.05683387 0.9581531
vn 0.1884966 -0.006187086 -0.9820544
vn -0.4913999 0.5322816 0.6893493
vn -0.002976055 -0.04586543 0.9989433
vn 0.1120522 0.1423964 -0.9834468
vn -0.1235708 0.5406178 0.8321434
vn 0.4480098 0.2066412 -0.8698199
vn -0.09965076 0.7072671 0.6998878
vn 0.165451 0.03716671 0.9855174
vn 0.1949474 -0.2805227 0.9398417
vn 0.1760128 0.6746557 0.7168396
vn -0.3511716 -0.1515051 -0.9239722
vn 0.2234763 0.01440941 0.9746028
vn -0.3418877 0.06691315 -0.9373556
vn 0.3852899 0.570601 0.7252353
vn 0.4104365 -0.1113149 0.9050695
vn -0.2579633 0.1067628 -0.9602377
vn 0.6192729 0.3610875 0.6972209
vn -0.005847605 -0.04608162 -0.9989206
vn -0.6694046 0.6811126 -0.2966193
vn -0.2939396 0.03225761 0.9552796
vn -0.7281076 -0.6717311 0.1365163
vn -0.2802716 0.5702986 0.7721447
vn 0.08598444 0.6406884 0.7629711
vn 0.1838246 0.9126236 -0.3651392
vn 0.9651086 -0.261787 0.005750925
vn 0.333384 0.1724796 0.9268796
vn 0.2304961 -0.9455315 0.2298735
vn 0.333384 0.1724796 0.9268796
vn 0.9651086 -0.261787 0.005750925
vn 0.07711723 -0.1393178 0.9872404
vn -0.7281076 -0.6717311 0.1365163
vn 0.08598444 0.6406884 0.7629711
vn -0.2939396 0.03225761 0.9552796
vn -0.2802716 0.5702986 0.7721447
vn 0.5565705 0.8214267 -0.1244485
vn -0.001102278 0.9556113 -0.2946283
vn 0.3805974 0.5659708 -0.7313158
vn 0.251796 0.900656 0.3541436
vn 0.9313128 0.3435734 0.1208883
vn -0.2519546 0.8995304 0.356881
vn -0.5593178 0.8197576 -0.1231304
vn -0.9313128 0.3435732 0.1208887
vn -0.3942706 0.5228856 0.755739
vn -0.8641036 -0.2705967 0.4243847
vn 0.3942706 0.5228859 0.7557389
vn 0.8641035 -0.2705967 0.4243848
vn -0.3595167 0.01213723 0.9330597
vn -0.4713415 -0.7293113 0.4959255
vn 0.3595166 0.01213722 0.9330597
vn -0.2127081 -0.4967606 0.841418
vn -0.001017302 -0.9214956 0.3883875
vn 0.2125395 -0.4992507 0.8399855
vn 0.4692549 -0.7309231 0.4955314
vn 0.5984188 -0.6693445 -0.44031
vn 0.2758058 -0.9590202 0.06489628
vn -0.001017302 -0.9214956 0.3883875
vn 0.4692549 -0.7309231 0.4955314
vn 0.2758058 -0.9590202 0.06489628
vn -0.0001980918 -0.9995838 -0.02884833
vn 0.5984188 -0.6693445 -0.44031
vn -0.2806388 -0.9574619 0.06714575
vn -0.4713415 -0.7293113 0.4959255
vn -0.60471 -0.6670592 -0.4351525
vn -0.8641036 -0.2705967 0.4243847
vn -0.9313128 0.3435732 0.1208887
vn 0.0001309286 -0.764734 -0.6443461
vn -0.6460993 -0.06169364 -0.760756
vn -0.5593178 0.8197576 -0.1231304
vn -0.3860928 0.5670194 -0.7276135
vn -0.001102278 0.9556113 -0.2946283
vn -0.0002187483 0.4652674 -0.8851702
vn 0.3805974 0.5659708 -0.7313158
vn 0.0001667863 -0.1959759 -0.9806086
vn 0.6394848 -0.06471703 -0.766075
vn 0.5565705 0.8214267 -0.1244485
vn 0.9313128 0.3435734 0.1208883
vn 0.8641035 -0.2705967 0.4243848
vn -0.5668374 0.1521459 -0.8096586
vn 0.007053671 -0.2253183 -0.9742597
vn 0.7478297 -0.3446337 -0.5674313
vn -0.6264299 0.02105636 -0.7791933
vn 0.7702112 -0.2356229 -0.5926691
vn -0.731115 -0.2743704 -0.6246533
vn 0.8282456 -0.190791 -0.5268853
vn -0.7262841 -0.6144629 -0.3081342
vn 0.8406193 -0.2174356 -0.4960656
vn -0.6184569 -0.7852991 -0.02857169
vn 0.7910179 -0.4187425 -0.4460327
vn -0.02011773 -0.9418187 -0.3355186
vn -0.109967 -0.2855976 0.9520196
vn 0.5722708 -0.5577036 -0.6012263
vn 0.5578101 -0.6734186 -0.4851342
vn 0.1980934 -0.1653323 -0.9661389
vn 0.1884966 -0.006187086 -0.9820544
vn -0.2151589 -0.1334302 0.9674208
vn 0.1120522 0.1423964 -0.9834468
vn 0.4758429 -0.5017734 -0.7223552
vn -0.2805576 -0.05683387 0.9581531
vn 0.4480098 0.2066412 -0.8698199
vn 0.5251849 -0.4649158 -0.7127652
vn -0.002976055 -0.04586543 0.9989433
vn -0.1235708 0.5406178 0.8321434
vn 0.1949474 -0.2805227 0.9398417
vn -0.2933037 -0.6256549 -0.7228615
vn -0.112182 -0.8129511 -0.5714244
vn -0.3511716 -0.1515051 -0.9239722
vn -0.3418877 0.06691315 -0.9373556
vn 0.165451 0.03716671 0.9855174
vn -0.2579633 0.1067628 -0.9602377
vn -0.4219179 -0.5007432 -0.7558052
vn 0.2234763 0.01440941 0.9746028
vn -0.005847605 -0.04608162 -0.9989206
vn -0.3071361 -0.5497507 -0.7768149
vn 0.4104365 -0.1113149 0.9050695
vn 0.6192729 0.3610875 0.6972209
vn 0.9661871 -0.02734422 0.2563881
vn 0.6936901 0.2865003 -0.6608417
vn 0.7670972 -0.3351564 -0.547021
vn -0.03676214 -0.4337572 -0.9002796
vn 0.851845 0.5228834 0.03086838
vn 0.02691106 0.1921107 -0.9810042
vn 0.428906 0.2385002 0.8712963
vn -0.650557 0.3147949 -0.6911438
vn 0.3761839 0.7383431 0.5597635
vn -0.808598 -0.2516682 -0.5318199
vn -0.4188369 0.270999 0.8666806
vn -0.824341 0.565989 -0.0108718
vn -0.3696656 0.7418023 0.5595325
vn -0.9666879 0.05722342 0.2494796
vn 0.3761839 0.7383431 0.5597635
vn -0.3696656 0.7418023 0.5595325
vn 0.02693451 0.9412935 -0.3365133
vn 0.851845 0.5228834 0.03086838
vn -0.824341 0.565989 -0.0108718
vn 0.6936901 0.2865003 -0.6608417
vn -0.650557 0.3147949 -0.6911438
vn 0.02691106 0.1921107 -0.9810042
vn -0.1174601 -0.09434375 0.988586
vn 0.7478297 -0.3446337 -0.5674313
vn 0.007053671 -0.2253183 -0.9742597
vn -0.5668374 0.1521459 -0.8096586
vn -0.6264299 0.02105636 -0.7791933
vn -0.08351662 0.07057557 0.9940041
vn 0.7702112 -0.2356229 -0.5926691
vn -0.731115 -0.2743704 -0.6246533
vn -0.08242487 0.3727441 0.9242662
vn 0.8282456 -0.190791 -0.5268853
vn -0.7262841 -0.6144629 -0.3081342
vn -0.08343309 0.7717052 0.6304838
vn 0.8406193 -0.2174356 -0.4960656
vn -0.6184569 -0.7852991 -0.02857169
vn -0.1257628 0.9848607 0.119303
vn 0.7910179 -0.4187425 -0.4460327
vn -0.02011773 -0.9418187 -0.3355186
g HairLVL3_0
f 3/3/3 2/2/2 1/1/1
f 2/2/2 4/4/4 1/1/1
f 5/5/5 1/1/1 4/4/4
f 2/2/2 6/6/6 4/4/4
f 7/7/7 5/5/5 4/4/4
f 6/6/6 8/8/8 4/4/4
f 4/4/4 8/8/8 7/7/7
f 6/6/6 9/9/9 8/8/8
f 8/8/8 10/10/10 7/7/7
f 9/9/9 11/11/11 8/8/8
f 8/8/8 11/11/11 10/10/10
f 11/11/11 12/12/12 10/10/10
f 15/15/15 14/14/14 13/13/13
f 14/14/14 16/16/16 13/13/13
f 17/17/17 13/13/13 16/16/16
f 14/14/14 18/18/18 16/16/16
f 19/19/19 17/17/17 16/16/16
f 18/18/18 20/20/20 16/16/16
f 16/16/16 20/20/20 19/19/19
f 18/18/18 21/21/21 20/20/20
f 20/20/20 22/22/22 19/19/19
f 21/21/21 23/23/23 20/20/20
f 20/20/20 23/23/23 22/22/22
f 23/23/23 24/24/24 22/22/22
f 27/27/27 26/26/26 25/25/25
f 26/26/26 28/28/28 25/25/25
f 25/25/25 28/28/28 29/29/29
f 30/30/30 25/25/25 29/29/29
f 30/30/30 29/29/29 31/31/31
f 29/29/29 32/32/32 31/31/31
f 35/35/35 34/34/34 33/33/33
f 34/34/34 36/36/36 33/33/33
f 33/33/33 36/36/36 37/37/37
f 36/36/36 34/34/34 38/38/38
f 36/36/36 39/39/39 37/37/37
f 38/38/38 40/40/40 36/36/36
f 40/40/40 39/39/39 36/36/36
f 43/43/43 42/42/42 41/41/41
f 42/42/42 44/44/44 41/41/41
f 41/41/41 44/44/44 45/45/45
f 44/44/44 42/42/42 46/46/46
f 46/46/46 42/42/42 47/47/47
f 46/46/46 47/47/47 48/48/48
f 49/49/49 46/46/46 48/48/48
f 44/44/44 46/46/46 49/49/49
f 49/49/49 48/48/48 50/50/50
f 44/44/44 51/51/51 45/45/45
f 51/51/51 44/44/44 49/49/49
f 45/45/45 51/51/51 52/52/52
f 53/53/53 49/49/49 50/50/50
f 51/51/51 49/49/49 53/53/53
f 53/53/53 50/50/50 54/54/54
f 51/51/51 55/55/55 52/52/52
f 55/55/55 51/51/51 53/53/53
f 56/56/56 53/53/53 54/54/54
f 55/55/55 53/53/53 56/56/56
f 56/56/56 54/54/54 57/57/57
f 58/58/58 56/56/56 57/57/57
f 58/58/58 55/55/55 56/56/56
f 59/59/59 58/58/58 57/57/57
f 55/55/55 58/58/58 59/59/59
f 52/52/52 55/55/55 59/59/59
f 52/52/52 59/59/59 60/60/60
f 59/59/59 61/61/61 60/60/60
f 64/64/64 63/63/63 62/62/62
f 65/65/65 64/64/64 62/62/62
f 66/66/66 64/64/64 65/65/65
f 67/67/67 65/65/65 62/62/62
f 68/68/68 67/67/67 62/62/62
f 67/67/67 68/68/68 69/69/69
f 67/67/67 69/69/69 65/65/65
f 68/68/68 70/70/70 69/69/69
f 70/70/70 71/71/71 69/69/69
f 69/69/69 72/72/72 65/65/65
f 72/72/72 66/66/66 65/65/65
f 71/71/71 73/73/73 69/69/69
f 72/72/72 69/69/69 73/73/73
f 71/71/71 74/74/74 73/73/73
f 74/74/74 75/75/75 73/73/73
f 76/76/76 75/75/75 74/74/74
f 75/75/75 76/76/76 77/77/77
f 73/73/73 75/75/75 77/77/77
f 76/76/76 78/78/78 77/77/77
f 79/79/79 72/72/72 73/73/73
f 79/79/79 73/73/73 77/77/77
f 78/78/78 80/80/80 77/77/77
f 80/80/80 79/79/79 77/77/77
f 72/72/72 79/79/79 80/80/80
f 66/66/66 72/72/72 80/80/80
f 78/78/78 81/81/81 80/80/80
f 81/81/81 82/82/82 80/80/80
f 80/80/80 82/82/82 66/66/66
f 82/82/82 83/83/83 66/66/66
f 86/86/86 85/85/85 84/84/84
f 84/84/84 87/87/87 86/86/86
f 87/87/87 88/88/88 86/86/86
f 88/88/88 87/87/87 89/89/89
f 90/90/90 88/88/88 89/89/89
f 90/90/90 89/89/89 91/91/91
f 92/92/92 90/90/90 91/91/91
f 91/91/91 93/93/93 92/92/92
f 93/93/93 94/94/94 92/92/92
f 93/93/93 95/95/95 94/94/94
f 98/98/98 97/97/97 96/96/96
f 97/97/97 98/98/98 99/99/99
f 100/100/100 97/97/97 99/99/99
f 97/97/97 101/101/101 96/96/96
f 100/100/100 102/102/102 97/97/97
f 97/97/97 103/103/103 101/101/101
f 102/102/102 103/103/103 97/97/97
f 103/103/103 104/104/104 101/101/101
f 102/102/102 105/105/105 103/103/103
f 103/103/103 106/106/106 104/104/104
f 105/105/105 106/106/106 103/103/103
f 106/106/106 107/107/107 104/104/104
f 105/105/105 108/108/108 106/106/106
f 108/108/108 107/107/107 106/106/106
f 111/111/111 110/110/110 109/109/109
f 110/110/110 111/111/111 112/112/112
f 113/113/113 110/110/110 112/112/112
f 110/110/110 114/114/114 109/109/109
f 113/113/113 115/115/115 110/110/110
f 110/110/110 116/116/116 114/114/114
f 115/115/115 116/116/116 110/110/110
f 116/116/116 117/117/117 114/114/114
f 115/115/115 118/118/118 116/116/116
f 116/116/116 119/119/119 117/117/117
f 118/118/118 119/119/119 116/116/116
f 119/119/119 120/120/120 117/117/117
f 118/118/118 121/121/121 119/119/119
f 121/121/121 120/120/120 119/119/119
f 124/124/124 123/123/123 122/122/122
f 124/124/124 125/125/125 123/123/123
f 123/123/123 126/126/126 122/122/122
f 125/125/125 127/127/127 123/123/123
f 122/122/122 126/126/126 128/128/128
f 129/129/129 127/127/127 125/125/125
f 126/126/126 130/130/130 128/128/128
f 131/131/131 129/129/129 125/125/125
f 128/128/128 130/130/130 132/132/132
f 133/133/133 129/129/129 131/131/131
f 130/130/130 134/134/134 132/132/132
f 135/135/135 133/133/133 131/131/131
f 132/132/132 134/134/134 135/135/135
f 134/134/134 133/133/133 135/135/135
f 138/138/138 137/137/137 136/136/136
f 138/138/138 136/136/136 139/139/139
f 140/140/140 137/137/137 138/138/138
f 138/138/138 139/139/139 141/141/141
f 142/142/142 140/140/140 138/138/138
f 138/138/138 141/141/141 143/143/143
f 142/142/142 138/138/138 143/143/143
f 146/146/146 145/145/145 144/144/144
f 144/144/144 147/147/147 146/146/146
f 148/148/148 147/147/147 144/144/144
f 144/144/144 145/145/145 149/149/149
f 149/149/149 148/148/148 144/144/144
f 145/145/145 150/150/150 149/149/149
f 151/151/151 148/148/148 149/149/149
f 149/149/149 150/150/150 152/152/152
f 152/152/152 151/151/151 149/149/149
f 150/150/150 153/153/153 152/152/152
f 154/154/154 151/151/151 152/152/152
f 152/152/152 153/153/153 155/155/155
f 155/155/155 154/154/154 152/152/152
f 153/153/153 156/156/156 155/155/155
f 157/157/157 154/154/154 155/155/155
f 155/155/155 156/156/156 158/158/158
f 158/158/158 157/157/157 155/155/155
f 156/156/156 159/159/159 158/158/158
f 160/160/160 157/157/157 158/158/158
f 158/158/158 159/159/159 160/160/160
