g HandLVL20
v 9.488703 9.098067 0.8615424
v 10.77015 9.236428 0.1402457
v 11.07343 9.212721 -0.4918267
v 9.467222 9.098067 -1.769954
v 10.46625 9.247408 -1.773448
v 8.257849 8.203201 -1.400672
v 8.222106 8.153197 1.124274
v 9.702123 8.691105 1.409528
v 9.273533 8.118901 1.791041
v 7.446249 8.548814 0.8327787
v 7.560031 8.542304 -1.115527
v 9.467222 9.098067 -1.769954
v 10.46625 9.247408 -1.773448
v 10.4707 9.849397 -1.770965
v 9.454805 10.59352 -1.743996
v 7.711625 10.29828 -1.219587
v 8.257849 8.203201 -1.400672
v 7.560031 8.542304 -1.115527
v 7.546924 10.31748 0.6788169
v 11.08249 9.956631 -0.4918267
v 10.46625 9.247408 -1.773448
v 11.07343 9.212721 -0.4918267
v 10.77015 9.236428 0.1402457
v 10.79814 9.879291 0.4766971
v 9.460608 10.63317 1.011212
v 8.200592 9.597383 1.365668
v 10.77015 9.236428 0.1402457
v 9.488703 9.098067 0.8615424
v 7.446249 8.548814 0.8327787
v 8.222106 8.153197 1.124274
v 9.702123 8.691105 1.409528
v 9.273533 8.118901 1.791041
v 9.267519 8.655184 1.7928
v -9.488703 9.098067 0.8615424
v -11.07343 9.212721 -0.4918267
v -10.77015 9.236428 0.1402457
v -9.467222 9.098067 -1.769954
v -10.46625 9.247408 -1.773448
v -8.257849 8.203201 -1.400672
v -8.222106 8.153197 1.124274
v -9.702123 8.691105 1.409528
v -9.273533 8.118901 1.791041
v -7.446249 8.548814 0.8327787
v -7.560031 8.542304 -1.115527
v -9.467222 9.098067 -1.769954
v -10.4707 9.849397 -1.770965
v -10.46625 9.247408 -1.773448
v -9.454805 10.59352 -1.743996
v -7.711625 10.29828 -1.219587
v -8.257849 8.203201 -1.400672
v -7.560031 8.542304 -1.115527
v -7.546924 10.31748 0.6788169
v -11.08249 9.956631 -0.4918267
v -10.46625 9.247408 -1.773448
v -11.07343 9.212721 -0.4918267
v -10.77015 9.236428 0.1402457
v -10.79814 9.879291 0.4766971
v -9.460608 10.63317 1.011212
v -8.200592 9.597383 1.365668
v -10.77015 9.236428 0.1402457
v -9.488703 9.098067 0.8615424
v -7.446249 8.548814 0.8327787
v -8.222106 8.153197 1.124274
v -9.702123 8.691105 1.409528
v -9.273533 8.118901 1.791041
v -9.267519 8.655184 1.7928
vt 0.5692753 0.5924132
vt 0.5464703 0.6294746
vt 0.527454 0.637568
vt 0.4918378 0.5885744
vt 0.4903656 0.6182991
vt 0.5046117 0.5447582
vt 0.5790098 0.5462323
vt 0.5903419 0.592006
vt 0.6044095 0.5727162
vt 0.5780475 0.5101123
vt 0.5081789 0.5120245
vt 0.3962639 0.4238741
vt 0.4116459 0.454633
vt 0.4295509 0.4507929
vt 0.4363334 0.4158861
vt 0.4382522 0.3526756
vt 0.3688051 0.3863514
vt 0.3721425 0.3525032
vt 0.516059 0.3519878
vt 0.4697986 0.4644202
vt 0.4245956 0.4684608
vt 0.4668238 0.484741
vt 0.490383 0.4826702
vt 0.4987175 0.4597789
vt 0.5101288 0.4150558
vt 0.5453369 0.3894807
vt 0.514448 0.4745147
vt 0.5441384 0.4373604
vt 0.5841151 0.3546039
vt 0.5900593 0.3909176
vt 0.5650484 0.4409316
vt 0.5870129 0.4293685
vt 0.5720001 0.4255818
vt 0.5692753 0.5924132
vt 0.527454 0.637568
vt 0.5464703 0.6294746
vt 0.4918378 0.5885744
vt 0.4903656 0.6182991
vt 0.5046117 0.5447582
vt 0.5790098 0.5462323
vt 0.5903419 0.592006
vt 0.6044095 0.5727162
vt 0.5780475 0.5101123
vt 0.5081789 0.5120245
vt 0.3962639 0.4238741
vt 0.4295509 0.4507929
vt 0.4116459 0.454633
vt 0.4363334 0.4158861
vt 0.4382522 0.3526756
vt 0.3688051 0.3863514
vt 0.3721425 0.3525032
vt 0.516059 0.3519878
vt 0.4697986 0.4644202
vt 0.4245956 0.4684608
vt 0.4668238 0.484741
vt 0.490383 0.4826702
vt 0.4987175 0.4597789
vt 0.5101288 0.4150558
vt 0.5453369 0.3894807
vt 0.514448 0.4745147
vt 0.5441384 0.4373604
vt 0.5841151 0.3546039
vt 0.5900593 0.3909176
vt 0.5650484 0.4409316
vt 0.5870129 0.4293685
vt 0.5720001 0.4255818
vn 0.6328219 -0.7159998 0.2947553
vn 0.5940617 -0.3700969 0.7142261
vn 0.5837482 -0.8080108 -0.07972851
vn 0.2372168 -0.7472575 -0.620753
vn 0.469833 -0.3877833 -0.7930202
vn 0.1930353 -0.8465107 -0.496142
vn 0.09694074 -0.9530442 0.286896
vn 0.9384968 -0.1425634 -0.3144828
vn -0.1024236 -0.9355897 0.3379072
vn -0.6356141 -0.6217183 0.4576691
vn -0.4956461 -0.5373595 -0.6823339
vn 0.2372168 -0.7472575 -0.620753
vn 0.469833 -0.3877833 -0.7930202
vn 0.5214385 0.2837513 -0.804728
vn -0.03535396 0.9306679 -0.3641528
vn -0.267178 0.8885838 -0.3728736
vn 0.1930353 -0.8465107 -0.496142
vn -0.4956461 -0.5373595 -0.6823339
vn -0.2657658 0.940029 0.2138084
vn 0.7251844 0.6840347 -0.07876639
vn 0.469833 -0.3877833 -0.7930202
vn 0.5837482 -0.8080108 -0.07972851
vn 0.5940617 -0.3700969 0.7142261
vn 0.6064962 0.09798601 0.7890254
vn 0.08708033 0.9387977 0.3332806
vn -0.3078081 0.1709389 0.9359669
vn 0.5940617 -0.3700969 0.7142261
vn 0.6328219 -0.7159998 0.2947553
vn -0.6356141 -0.6217183 0.4576691
vn 0.09694074 -0.9530442 0.286896
vn 0.9384968 -0.1425634 -0.3144828
vn -0.1024236 -0.9355897 0.3379072
vn -0.118158 0.2876337 0.9504238
vn -0.6328219 -0.7159998 0.2947554
vn -0.5837481 -0.8080108 -0.07972854
vn -0.5940619 -0.370097 0.7142259
vn -0.2372168 -0.7472575 -0.620753
vn -0.4698328 -0.3877833 -0.7930202
vn -0.1930354 -0.8465107 -0.4961421
vn -0.09694068 -0.9530442 0.286896
vn -0.9384966 -0.142563 -0.3144833
vn 0.1024242 -0.93559 0.3379065
vn 0.635614 -0.6217183 0.457669
vn 0.4956459 -0.5373596 -0.6823341
vn -0.2372168 -0.7472575 -0.620753
vn -0.5214386 0.2837512 -0.804728
vn -0.4698328 -0.3877833 -0.7930202
vn 0.035354 0.9306679 -0.3641528
vn 0.2671779 0.8885839 -0.3728736
vn -0.1930354 -0.8465107 -0.4961421
vn 0.4956459 -0.5373596 -0.6823341
vn 0.2657658 0.9400291 0.2138083
vn -0.7251844 0.6840347 -0.07876632
vn -0.4698328 -0.3877833 -0.7930202
vn -0.5837481 -0.8080108 -0.07972854
vn -0.5940619 -0.370097 0.7142259
vn -0.6064962 0.09798617 0.7890254
vn -0.08708027 0.9387977 0.3332804
vn 0.3078081 0.1709389 0.9359669
vn -0.5940619 -0.370097 0.7142259
vn -0.6328219 -0.7159998 0.2947554
vn 0.635614 -0.6217183 0.457669
vn -0.09694068 -0.9530442 0.286896
vn -0.9384966 -0.142563 -0.3144833
vn 0.1024242 -0.93559 0.3379065
vn 0.1181582 0.2876335 0.950424
g HandLVL20_0
f 3/3/3 2/2/2 1/1/1
f 1/1/1 4/4/4 3/3/3
f 3/3/3 4/4/4 5/5/5
f 4/4/4 1/1/1 6/6/6
f 1/1/1 7/7/7 6/6/6
f 1/1/1 8/8/8 7/7/7
f 8/8/8 9/9/9 7/7/7
f 6/6/6 7/7/7 10/10/10
f 11/11/11 6/6/6 10/10/10
f 14/14/14 13/13/13 12/12/12
f 15/15/15 14/14/14 12/12/12
f 16/16/16 15/15/15 12/12/12
f 16/16/16 12/12/12 17/17/17
f 18/18/18 16/16/16 17/17/17
f 16/16/16 19/19/19 15/15/15
f 15/15/15 20/20/20 14/14/14
f 14/14/14 20/20/20 21/21/21
f 20/20/20 22/22/22 21/21/21
f 23/23/23 22/22/22 20/20/20
f 24/24/24 23/23/23 20/20/20
f 15/15/15 25/25/25 20/20/20
f 24/24/24 20/20/20 25/25/25
f 19/19/19 25/25/25 15/15/15
f 25/25/25 19/19/19 26/26/26
f 27/27/27 24/24/24 25/25/25
f 28/28/28 27/27/27 25/25/25
f 28/28/28 25/25/25 26/26/26
f 19/19/19 29/29/29 26/26/26
f 29/29/29 30/30/30 26/26/26
f 31/31/31 28/28/28 26/26/26
f 30/30/30 32/32/32 26/26/26
f 32/32/32 31/31/31 33/33/33
f 32/32/32 33/33/33 26/26/26
f 33/33/33 31/31/31 26/26/26
f 36/36/36 35/35/35 34/34/34
f 37/37/37 34/34/34 35/35/35
f 37/37/37 35/35/35 38/38/38
f 34/34/34 37/37/37 39/39/39
f 40/40/40 34/34/34 39/39/39
f 41/41/41 34/34/34 40/40/40
f 42/42/42 41/41/41 40/40/40
f 40/40/40 39/39/39 43/43/43
f 39/39/39 44/44/44 43/43/43
f 47/47/47 46/46/46 45/45/45
f 46/46/46 48/48/48 45/45/45
f 48/48/48 49/49/49 45/45/45
f 45/45/45 49/49/49 50/50/50
f 49/49/49 51/51/51 50/50/50
f 52/52/52 49/49/49 48/48/48
f 53/53/53 48/48/48 46/46/46
f 53/53/53 46/46/46 54/54/54
f 55/55/55 53/53/53 54/54/54
f 55/55/55 56/56/56 53/53/53
f 56/56/56 57/57/57 53/53/53
f 58/58/58 48/48/48 53/53/53
f 53/53/53 57/57/57 58/58/58
f 58/58/58 52/52/52 48/48/48
f 52/52/52 58/58/58 59/59/59
f 57/57/57 60/60/60 58/58/58
f 60/60/60 61/61/61 58/58/58
f 58/58/58 61/61/61 59/59/59
f 62/62/62 52/52/52 59/59/59
f 63/63/63 62/62/62 59/59/59
f 61/61/61 64/64/64 59/59/59
f 65/65/65 63/63/63 59/59/59
f 64/64/64 65/65/65 66/66/66
f 66/66/66 65/65/65 59/59/59
f 64/64/64 66/66/66 59/59/59
