g HandLvl1
v 9.490638 22.09542 0.0477607
v 10.63091 22.50469 0.9370245
v 10.58534 22.50967 0.1246673
v 9.518092 22.09319 0.9624341
v 9.48999 23.62829 1.112105
v 10.65556 23.36845 0.9620762
v 10.60801 23.35638 0.1378892
v 9.495969 23.62185 0.1620822
v 10.58534 22.50967 0.1246673
v 10.63091 22.50469 0.9370245
v 10.58534 22.50967 0.1246673
v 9.490638 22.09542 0.0477607
v 8.229989 22.0932 1.466561
v 9.302938 21.11403 1.891933
v 8.251495 21.14833 1.225169
v 9.296905 21.65032 1.893692
v 9.731519 21.68624 1.510424
v 9.518092 22.09319 0.9624341
v 8.251495 21.14833 1.225169
v 9.302938 21.11403 1.891933
v 9.296905 21.65032 1.893692
v 9.496614 22.0932 -1.54575
v 10.49565 22.51945 -1.557965
v 10.50288 23.32969 -1.594108
v 9.484191 23.58865 -1.643103
v 9.46129 23.60781 -0.7297524
v 10.54518 23.34043 -0.8609963
v 10.49565 22.51945 -1.557965
v 10.5362 22.51503 -0.8350918
v 9.459203 22.09754 -0.7588992
v 10.5362 22.51503 -0.8350918
v 9.496614 22.0932 -1.54575
v 10.49565 22.51945 -1.557965
v 8.229989 22.0932 1.466561
v 8.251495 21.14833 1.225169
v 6.933973 21.49603 1.249829
v 7.034737 23.7928 1.076246
v 9.48999 23.62829 1.112105
v 9.518092 22.09319 0.9624341
v 9.495969 23.62185 0.1620822
v 7.158655 23.7564 -1.345279
v 9.46129 23.60781 -0.7297524
v 9.484191 23.58865 -1.643103
v 9.496614 22.0932 -1.54575
v 5.951898 24.06866 1.245522
v 5.949546 21.42278 1.439051
v 5.097744 23.95878 1.224123
v 5.098039 21.62906 1.411594
v 5.95568 24.14767 -1.515332
v 5.097744 23.95878 1.224123
v 8.287238 21.19833 -1.299779
v 9.459203 22.09754 -0.7588992
v 5.104351 23.91112 -1.316037
v 5.098039 21.62906 1.411594
v 5.102921 21.54056 -1.369643
v 5.102921 21.54056 -1.369643
v 5.952092 21.49485 -1.455564
v 5.098039 21.62906 1.411594
v 5.949546 21.42278 1.439051
v 7.017554 21.47428 -1.228612
v 6.933973 21.49603 1.249829
v 8.251495 21.14833 1.225169
v 9.490638 22.09542 0.0477607
v 9.518092 22.09319 0.9624341
v 10.53783 22.51485 -0.7519804
v 10.58199 22.51003 0.03525278
v 10.598 23.35384 0.02696669
v 10.55303 23.34243 -0.7524281
v 9.495969 23.62185 0.1620822
v 9.46129 23.60781 -0.7297524
v 10.53783 22.51485 -0.7519804
v 9.459203 22.09754 -0.7588992
v 9.490638 22.09542 0.0477607
v 10.58199 22.51003 0.03525278
v 9.459203 22.09754 -0.7588992
v 10.53783 22.51485 -0.7519804
v -9.490638 22.09542 0.0477607
v -10.58534 22.50967 0.1246673
v -10.63091 22.50469 0.9370245
v -9.518092 22.09319 0.9624341
v -9.48999 23.62829 1.112105
v -10.65556 23.36845 0.9620762
v -10.60801 23.35638 0.1378892
v -9.495969 23.62185 0.1620823
v -10.58534 22.50967 0.1246673
v -10.63091 22.50469 0.9370245
v -10.58534 22.50967 0.1246673
v -9.490638 22.09542 0.0477607
v -8.229989 22.0932 1.466561
v -8.251495 21.14833 1.225169
v -9.302938 21.11403 1.891933
v -9.296905 21.65032 1.893692
v -9.731519 21.68624 1.510424
v -9.518092 22.09319 0.9624341
v -8.251495 21.14833 1.225169
v -9.302938 21.11403 1.891933
v -9.296905 21.65032 1.893692
v -9.496614 22.0932 -1.54575
v -10.50288 23.32969 -1.594108
v -10.49565 22.51945 -1.557965
v -9.484191 23.58865 -1.643103
v -9.46129 23.60781 -0.7297524
v -10.54518 23.34043 -0.8609963
v -10.49565 22.51945 -1.557965
v -10.5362 22.51503 -0.8350918
v -9.459203 22.09754 -0.7588992
v -10.5362 22.51503 -0.8350918
v -9.496614 22.0932 -1.54575
v -10.49565 22.51945 -1.557965
v -8.229989 22.0932 1.466561
v -6.933973 21.49603 1.249829
v -8.251495 21.14833 1.225169
v -7.034737 23.7928 1.076246
v -9.48999 23.62829 1.112105
v -9.518092 22.09319 0.9624341
v -9.495969 23.62185 0.1620823
v -7.158655 23.7564 -1.345279
v -9.46129 23.60781 -0.7297524
v -9.484191 23.58865 -1.643103
v -9.496614 22.0932 -1.54575
v -5.951898 24.06866 1.245522
v -5.949546 21.42278 1.439051
v -5.097744 23.95878 1.224123
v -5.098039 21.62906 1.411594
v -5.95568 24.14767 -1.515332
v -5.097744 23.95878 1.224123
v -8.287238 21.19833 -1.299779
v -9.459203 22.09754 -0.7588992
v -5.104351 23.91112 -1.316037
v -5.098039 21.62906 1.411594
v -5.102921 21.54056 -1.369643
v -5.102921 21.54056 -1.369643
v -5.952092 21.49485 -1.455564
v -5.098039 21.62906 1.411594
v -5.949546 21.42278 1.439051
v -7.017554 21.47428 -1.228612
v -6.933973 21.49603 1.249829
v -8.251495 21.14833 1.225169
v -9.490638 22.09542 0.0477607
v -9.518092 22.09319 0.9624341
v -10.53783 22.51485 -0.7519804
v -10.598 23.35384 0.0269664
v -10.58199 22.51003 0.03525278
v -10.55303 23.34243 -0.7524281
v -9.495969 23.62185 0.1620823
v -9.46129 23.60781 -0.7297524
v -10.53783 22.51485 -0.7519804
v -9.459203 22.09754 -0.7588992
v -9.490638 22.09542 0.0477607
v -10.58199 22.51003 0.03525278
v -9.459203 22.09754 -0.7588992
v -10.53783 22.51485 -0.7519804
vt 0.4391944 0.9523978
vt 0.3958316 0.9670792
vt 0.4159264 0.9811682
vt 0.4179497 0.9366619
vt 0.3704573 0.9235176
vt 0.3692263 0.9610217
vt 0.3440738 0.9619133
vt 0.3409071 0.9263544
vt 0.3446634 0.9760317
vt 0.3696992 0.9759013
vt 0.318655 0.9704408
vt 0.2947374 0.9423871
vt 0.5354568 0.9300317
vt 0.5130044 0.9708735
vt 0.548498 0.956907
vt 0.5075332 0.9553869
vt 0.4912578 0.9482287
vt 0.4932502 0.9264185
vt 0.4446461 0.9330677
vt 0.4702102 0.9613757
vt 0.4861678 0.9652646
vt 0.2947374 0.9423869
vt 0.318655 0.9704408
vt 0.3440738 0.9619133
vt 0.3409071 0.9263545
vt 0.3704573 0.9235176
vt 0.3692263 0.9610217
vt 0.3446634 0.9760317
vt 0.3696992 0.9759013
vt 0.4179497 0.9366619
vt 0.3958316 0.9670792
vt 0.4391944 0.9523977
vt 0.4159264 0.9811683
vt 0.5224723 0.8797263
vt 0.5468063 0.8847975
vt 0.5437111 0.8503005
vt 0.4840841 0.8397613
vt 0.4780982 0.9040176
vt 0.5155498 0.9143628
vt 0.4546243 0.9021331
vt 0.4186296 0.8409184
vt 0.4321565 0.9006608
vt 0.4092745 0.9008623
vt 0.3719287 0.8986097
vt 0.4867893 0.8096231
vt 0.5518653 0.8262575
vt 0.4947709 0.7890782
vt 0.5522166 0.8038143
vt 0.4217431 0.8102829
vt 0.4857328 0.7869632
vt 0.3524856 0.8678094
vt 0.3500259 0.9042946
vt 0.4210971 0.7880455
vt 0.4846542 0.7723698
vt 0.4209566 0.7722703
vt 0.3599589 0.7869464
vt 0.3602954 0.8085324
vt 0.2883909 0.7862594
vt 0.2873671 0.8087866
vt 0.3574874 0.8355505
vt 0.2923624 0.8340701
vt 0.2920832 0.8695921
vt 0.3282124 0.9088836
vt 0.3042782 0.9109588
vt 0.3446634 0.9760317
vt 0.3696992 0.9759013
vt 0.3692262 0.9610215
vt 0.3440737 0.9619133
vt 0.3704573 0.9235178
vt 0.3409071 0.9263545
vt 0.318655 0.9704406
vt 0.2947374 0.9423871
vt 0.4179497 0.9366619
vt 0.3958314 0.967079
vt 0.4391944 0.9523975
vt 0.4159264 0.9811683
vt 0.4391944 0.9523978
vt 0.4159264 0.9811682
vt 0.3958315 0.9670792
vt 0.4179496 0.9366619
vt 0.3704573 0.9235176
vt 0.3692263 0.9610217
vt 0.3440738 0.9619133
vt 0.3409071 0.9263544
vt 0.3446634 0.9760317
vt 0.3696992 0.9759013
vt 0.318655 0.9704408
vt 0.2947373 0.9423871
vt 0.5354567 0.9300317
vt 0.5484979 0.956907
vt 0.5130044 0.9708735
vt 0.5075331 0.9553869
vt 0.4912578 0.9482287
vt 0.4932502 0.9264185
vt 0.4446461 0.9330677
vt 0.4702101 0.9613757
vt 0.4861678 0.9652646
vt 0.2947374 0.9423869
vt 0.3440737 0.9619133
vt 0.318655 0.9704408
vt 0.3409071 0.9263545
vt 0.3704573 0.9235176
vt 0.3692263 0.9610217
vt 0.3446634 0.9760317
vt 0.3696992 0.9759013
vt 0.4179496 0.9366619
vt 0.3958315 0.9670792
vt 0.4391943 0.9523977
vt 0.4159264 0.9811683
vt 0.5224722 0.8797263
vt 0.5437111 0.8503005
vt 0.5468062 0.8847975
vt 0.4840841 0.8397613
vt 0.4780981 0.9040176
vt 0.5155498 0.9143628
vt 0.4546243 0.9021331
vt 0.4186295 0.8409184
vt 0.4321565 0.9006608
vt 0.4092745 0.9008623
vt 0.3719287 0.8986097
vt 0.4867892 0.8096231
vt 0.5518653 0.8262575
vt 0.4947709 0.7890782
vt 0.5522166 0.8038143
vt 0.4217431 0.8102829
vt 0.4857327 0.7869632
vt 0.3524855 0.8678094
vt 0.3500259 0.9042946
vt 0.4210971 0.7880455
vt 0.4846542 0.7723698
vt 0.4209566 0.7722703
vt 0.3599589 0.7869464
vt 0.3602955 0.8085324
vt 0.2883908 0.7862594
vt 0.287367 0.8087866
vt 0.3574874 0.8355505
vt 0.2923623 0.8340701
vt 0.2920832 0.8695921
vt 0.3282124 0.9088836
vt 0.3042781 0.9109588
vt 0.3446634 0.9760317
vt 0.3692261 0.9610215
vt 0.3696992 0.9759013
vt 0.3440737 0.9619133
vt 0.3704573 0.9235178
vt 0.3409071 0.9263545
vt 0.318655 0.9704406
vt 0.2947373 0.9423871
vt 0.4179496 0.9366619
vt 0.3958314 0.967079
vt 0.4391943 0.9523975
vt 0.4159264 0.9811683
vn 0.5400432 -0.8414925 -0.01561184
vn 0.5217385 -0.4683276 0.7130625
vn 0.4965331 -0.4261563 -0.7562049
vn 0.4180468 -0.2835653 0.8630338
vn 0.1602819 0.4828039 0.8609356
vn 0.5145391 0.456035 0.7261416
vn 0.4612232 0.5138817 -0.7233248
vn 0.1210656 0.992508 -0.01645871
vn 0.4965331 -0.4261563 -0.7562049
vn 0.5217385 -0.4683276 0.7130625
vn 0.4965331 -0.4261563 -0.7562049
vn 0.5400432 -0.8414925 -0.01561184
vn -0.03309081 0.08603355 0.9957425
vn 0.06523909 -0.9940844 0.08683326
vn -0.04042071 -0.9343972 0.3539323
vn -0.1185274 0.4145357 0.9022812
vn 0.868797 -0.1773921 -0.4623027
vn 0.4180468 -0.2835653 0.8630338
vn -0.04042071 -0.9343972 0.3539323
vn 0.06523909 -0.9940844 0.08683326
vn -0.1185274 0.4145357 0.9022812
vn 0.04164923 -0.3087412 -0.9502338
vn 0.48641 -0.4467197 -0.7508973
vn 0.4610661 0.4560235 -0.7612232
vn 0.01876863 0.5009637 -0.8652647
vn 0.1201113 0.9926036 -0.01764391
vn 0.5047392 0.4662421 0.7265375
vn 0.48641 -0.4467197 -0.7508973
vn 0.5200469 -0.3954686 0.7570706
vn 0.5456527 -0.8379694 -0.008382306
vn 0.5200469 -0.3954686 0.7570706
vn 0.04164923 -0.3087412 -0.9502338
vn 0.48641 -0.4467197 -0.7508973
vn -0.03309081 0.08603355 0.9957425
vn -0.04042071 -0.9343972 0.3539323
vn -0.06900161 -0.7682031 0.6364768
vn 0.1986451 0.7700227 0.6063045
vn 0.1602819 0.4828039 0.8609356
vn 0.4180468 -0.2835653 0.8630338
vn 0.1210656 0.992508 -0.01645871
vn 0.1512319 0.7151206 -0.6824452
vn 0.1201113 0.9926036 -0.01764391
vn 0.01876863 0.5009637 -0.8652647
vn 0.04164923 -0.3087412 -0.9502338
vn 0.1008444 0.776555 0.6219266
vn 0.01721602 -0.7282658 0.6850785
vn -0.7298645 0.500681 0.4654207
vn -0.7193049 -0.4714464 0.5102341
vn 0.07905058 0.7498832 -0.6568304
vn -0.7298645 0.500681 0.4654207
vn 0.0008395459 -0.7073582 -0.7068548
vn 0.5456527 -0.8379694 -0.008382306
vn -0.7591597 0.4686026 -0.4517611
vn -0.7193049 -0.4714464 0.5102341
vn -0.757203 -0.4956148 -0.4254521
vn -0.757203 -0.4956148 -0.4254521
vn -0.02055017 -0.6943468 -0.7193472
vn -0.7193049 -0.4714464 0.5102341
vn 0.01721602 -0.7282658 0.6850785
vn -0.07173069 -0.7086723 -0.7018819
vn -0.06900161 -0.7682031 0.6364768
vn -0.04042071 -0.9343972 0.3539323
vn 0.5400432 -0.8414925 -0.01561184
vn 0.4180468 -0.2835653 0.8630338
vn 0.4681919 -0.4213264 -0.7767112
vn 0.5132354 -0.4391886 0.737362
vn 0.5097687 0.4538043 0.7308882
vn 0.4415735 0.4760402 -0.7605252
vn 0.1210656 0.992508 -0.01645871
vn 0.1201113 0.9926036 -0.01764391
vn 0.4681919 -0.4213264 -0.7767112
vn 0.5456527 -0.8379694 -0.008382306
vn 0.5400432 -0.8414925 -0.01561184
vn 0.5132354 -0.4391886 0.737362
vn 0.5456527 -0.8379694 -0.008382306
vn 0.4681919 -0.4213264 -0.7767112
vn -0.5400432 -0.8414926 -0.0156117
vn -0.4965329 -0.426156 -0.756205
vn -0.5217385 -0.4683274 0.7130626
vn -0.4180467 -0.2835652 0.863034
vn -0.1602819 0.4828036 0.8609358
vn -0.5145391 0.456035 0.7261416
vn -0.461223 0.5138817 -0.7233249
vn -0.1210657 0.992508 -0.01645822
vn -0.4965329 -0.426156 -0.756205
vn -0.5217385 -0.4683274 0.7130626
vn -0.4965329 -0.426156 -0.756205
vn -0.5400432 -0.8414926 -0.0156117
vn 0.03309069 0.08603351 0.9957425
vn 0.04042071 -0.9343971 0.3539324
vn -0.06523922 -0.9940845 0.08683222
vn 0.118527 0.4145359 0.9022812
vn -0.8687965 -0.1773912 -0.4623039
vn -0.4180467 -0.2835652 0.863034
vn 0.04042071 -0.9343971 0.3539324
vn -0.06523922 -0.9940845 0.08683222
vn 0.118527 0.4145359 0.9022812
vn -0.04164929 -0.3087414 -0.9502337
vn -0.4610661 0.4560235 -0.7612231
vn -0.4864099 -0.4467199 -0.7508973
vn -0.0187687 0.5009639 -0.8652647
vn -0.1201112 0.9926036 -0.01764344
vn -0.5047391 0.466242 0.7265375
vn -0.4864099 -0.4467199 -0.7508973
vn -0.5200471 -0.3954689 0.7570702
vn -0.5456526 -0.8379695 -0.008382201
vn -0.5200471 -0.3954689 0.7570702
vn -0.04164929 -0.3087414 -0.9502337
vn -0.4864099 -0.4467199 -0.7508973
vn 0.03309069 0.08603351 0.9957425
vn 0.06900159 -0.768203 0.636477
vn 0.04042071 -0.9343971 0.3539324
vn -0.1986451 0.7700226 0.6063048
vn -0.1602819 0.4828036 0.8609358
vn -0.4180467 -0.2835652 0.863034
vn -0.1210657 0.992508 -0.01645822
vn -0.1512319 0.7151207 -0.6824449
vn -0.1201112 0.9926036 -0.01764344
vn -0.0187687 0.5009639 -0.8652647
vn -0.04164929 -0.3087414 -0.9502337
vn -0.1008444 0.7765549 0.6219267
vn -0.017216 -0.7282656 0.6850786
vn 0.7298645 0.5006809 0.4654208
vn 0.7193049 -0.4714463 0.5102342
vn -0.07905062 0.7498832 -0.6568304
vn 0.7298645 0.5006809 0.4654208
vn -0.0008394778 -0.7073582 -0.7068548
vn -0.5456526 -0.8379695 -0.008382201
vn 0.7591598 0.4686026 -0.4517609
vn 0.7193049 -0.4714463 0.5102342
vn 0.7572032 -0.4956147 -0.4254521
vn 0.7572032 -0.4956147 -0.4254521
vn 0.02055012 -0.6943469 -0.7193471
vn 0.7193049 -0.4714463 0.5102342
vn -0.017216 -0.7282656 0.6850786
vn 0.07173068 -0.7086724 -0.7018819
vn 0.06900159 -0.768203 0.636477
vn 0.04042071 -0.9343971 0.3539324
vn -0.5400432 -0.8414926 -0.0156117
vn -0.4180467 -0.2835652 0.863034
vn -0.468192 -0.4213267 -0.776711
vn -0.5097687 0.4538039 0.7308884
vn -0.5132353 -0.4391885 0.7373622
vn -0.4415736 0.47604 -0.7605253
vn -0.1210657 0.992508 -0.01645822
vn -0.1201112 0.9926036 -0.01764344
vn -0.468192 -0.4213267 -0.776711
vn -0.5456526 -0.8379695 -0.008382201
vn -0.5400432 -0.8414926 -0.0156117
vn -0.5132353 -0.4391885 0.7373622
vn -0.5456526 -0.8379695 -0.008382201
vn -0.468192 -0.4213267 -0.776711
g HandLvl1_0
f 3/3/3 2/2/2 1/1/1
f 2/2/2 4/4/4 1/1/1
f 4/4/4 2/2/2 5/5/5
f 2/2/2 6/6/6 5/5/5
f 5/5/5 6/6/6 7/7/7
f 8/8/8 5/5/5 7/7/7
f 7/7/7 6/6/6 9/9/9
f 6/6/6 10/10/10 9/9/9
f 8/8/8 7/7/7 11/11/11
f 12/12/12 8/8/8 11/11/11
f 15/15/15 14/14/14 13/13/13
f 14/14/14 16/16/16 13/13/13
f 16/16/16 17/17/17 13/13/13
f 17/17/17 18/18/18 13/13/13
f 18/18/18 17/17/17 19/19/19
f 17/17/17 20/20/20 19/19/19
f 20/20/20 17/17/17 21/21/21
f 24/24/24 23/23/23 22/22/22
f 25/25/25 24/24/24 22/22/22
f 25/25/25 26/26/26 24/24/24
f 26/26/26 27/27/27 24/24/24
f 24/24/24 27/27/27 28/28/28
f 27/27/27 29/29/29 28/28/28
f 26/26/26 30/30/30 27/27/27
f 30/30/30 31/31/31 27/27/27
f 31/31/31 30/30/30 32/32/32
f 33/33/33 31/31/31 32/32/32
f 36/36/36 35/35/35 34/34/34
f 37/37/37 36/36/36 34/34/34
f 38/38/38 37/37/37 34/34/34
f 39/39/39 38/38/38 34/34/34
f 37/37/37 38/38/38 40/40/40
f 41/41/41 37/37/37 40/40/40
f 42/42/42 41/41/41 40/40/40
f 42/42/42 43/43/43 41/41/41
f 41/41/41 43/43/43 44/44/44
f 37/37/37 45/45/45 36/36/36
f 45/45/45 46/46/46 36/36/36
f 46/46/46 45/45/45 47/47/47
f 48/48/48 46/46/46 47/47/47
f 49/49/49 45/45/45 37/37/37
f 41/41/41 49/49/49 37/37/37
f 50/50/50 45/45/45 49/49/49
f 41/41/41 44/44/44 51/51/51
f 51/51/51 44/44/44 52/52/52
f 53/53/53 50/50/50 49/49/49
f 53/53/53 54/54/54 50/50/50
f 54/54/54 53/53/53 55/55/55
f 53/53/53 49/49/49 56/56/56
f 49/49/49 57/57/57 56/56/56
f 57/57/57 49/49/49 41/41/41
f 56/56/56 57/57/57 58/58/58
f 57/57/57 59/59/59 58/58/58
f 60/60/60 57/57/57 41/41/41
f 57/57/57 60/60/60 59/59/59
f 60/60/60 41/41/41 51/51/51
f 60/60/60 61/61/61 59/59/59
f 60/60/60 51/51/51 61/61/61
f 51/51/51 62/62/62 61/61/61
f 51/51/51 52/52/52 62/62/62
f 52/52/52 63/63/63 62/62/62
f 63/63/63 64/64/64 62/62/62
f 67/67/67 66/66/66 65/65/65
f 68/68/68 67/67/67 65/65/65
f 69/69/69 67/67/67 68/68/68
f 70/70/70 69/69/69 68/68/68
f 70/70/70 68/68/68 71/71/71
f 72/72/72 70/70/70 71/71/71
f 69/69/69 73/73/73 67/67/67
f 73/73/73 74/74/74 67/67/67
f 74/74/74 73/73/73 75/75/75
f 76/76/76 74/74/74 75/75/75
f 79/79/79 78/78/78 77/77/77
f 80/80/80 79/79/79 77/77/77
f 79/79/79 80/80/80 81/81/81
f 82/82/82 79/79/79 81/81/81
f 82/82/82 81/81/81 83/83/83
f 81/81/81 84/84/84 83/83/83
f 82/82/82 83/83/83 85/85/85
f 86/86/86 82/82/82 85/85/85
f 83/83/83 84/84/84 87/87/87
f 84/84/84 88/88/88 87/87/87
f 91/91/91 90/90/90 89/89/89
f 92/92/92 91/91/91 89/89/89
f 93/93/93 92/92/92 89/89/89
f 94/94/94 93/93/93 89/89/89
f 93/93/93 94/94/94 95/95/95
f 96/96/96 93/93/93 95/95/95
f 93/93/93 96/96/96 97/97/97
f 100/100/100 99/99/99 98/98/98
f 99/99/99 101/101/101 98/98/98
f 102/102/102 101/101/101 99/99/99
f 103/103/103 102/102/102 99/99/99
f 103/103/103 99/99/99 104/104/104
f 105/105/105 103/103/103 104/104/104
f 106/106/106 102/102/102 103/103/103
f 107/107/107 106/106/106 103/103/103
f 106/106/106 107/107/107 108/108/108
f 107/107/107 109/109/109 108/108/108
f 112/112/112 111/111/111 110/110/110
f 111/111/111 113/113/113 110/110/110
f 113/113/113 114/114/114 110/110/110
f 114/114/114 115/115/115 110/110/110
f 114/114/114 113/113/113 116/116/116
f 113/113/113 117/117/117 116/116/116
f 117/117/117 118/118/118 116/116/116
f 119/119/119 118/118/118 117/117/117
f 119/119/119 117/117/117 120/120/120
f 121/121/121 113/113/113 111/111/111
f 122/122/122 121/121/121 111/111/111
f 121/121/121 122/122/122 123/123/123
f 122/122/122 124/124/124 123/123/123
f 121/121/121 125/125/125 113/113/113
f 125/125/125 117/117/117 113/113/113
f 121/121/121 126/126/126 125/125/125
f 120/120/120 117/117/117 127/127/127
f 120/120/120 127/127/127 128/128/128
f 126/126/126 129/129/129 125/125/125
f 130/130/130 129/129/129 126/126/126
f 129/129/129 130/130/130 131/131/131
f 125/125/125 129/129/129 132/132/132
f 133/133/133 125/125/125 132/132/132
f 125/125/125 133/133/133 117/117/117
f 133/133/133 132/132/132 134/134/134
f 135/135/135 133/133/133 134/134/134
f 133/133/133 136/136/136 117/117/117
f 136/136/136 133/133/133 135/135/135
f 117/117/117 136/136/136 127/127/127
f 137/137/137 136/136/136 135/135/135
f 127/127/127 136/136/136 137/137/137
f 138/138/138 127/127/127 137/137/137
f 128/128/128 127/127/127 138/138/138
f 139/139/139 128/128/128 138/138/138
f 140/140/140 139/139/139 138/138/138
f 143/143/143 142/142/142 141/141/141
f 142/142/142 144/144/144 141/141/141
f 142/142/142 145/145/145 144/144/144
f 145/145/145 146/146/146 144/144/144
f 144/144/144 146/146/146 147/147/147
f 146/146/146 148/148/148 147/147/147
f 149/149/149 145/145/145 142/142/142
f 150/150/150 149/149/149 142/142/142
f 149/149/149 150/150/150 151/151/151
f 150/150/150 152/152/152 151/151/151
