g Handle
v 0.6053616 21.73667 -15.21955
v 1.584858 21.37245 -15.21955
v 1.584858 21.03388 -11.39408
v 0.6053616 21.34983 -11.39408
v -0.6053621 21.73667 -15.21955
v -0.605362 21.34983 -11.39408
v -1.584858 21.03388 -11.39408
v -1.584858 21.37245 -15.21955
v -1.958992 20.78312 -15.21955
v -1.584858 21.37245 -15.21955
v -1.584858 21.03388 -11.39408
v -1.958992 20.59009 -11.39408
v -1.584858 20.1938 -15.21955
v -1.584858 20.07887 -11.39408
v -0.6053617 19.76292 -11.39408
v -0.6053618 19.82958 -15.21955
v 0.6053618 19.76292 -11.39408
v 0.6053618 19.82958 -15.21955
v 1.584858 20.1938 -15.21955
v 1.584858 20.07887 -11.39408
v 1.958992 20.59009 -11.39408
v 1.958992 20.78312 -15.21955
v 1.584858 21.03388 -11.39408
v 1.584858 21.37245 -15.21955
v 0.6053616 21.73667 -15.21955
v 1.16765E-08 20.78312 -15.21955
v 1.584858 21.37245 -15.21955
v -0.6053621 21.73667 -15.21955
v 1.958992 20.78312 -15.21955
v -1.584858 21.37245 -15.21955
v 1.584858 20.1938 -15.21955
v -1.958992 20.78312 -15.21955
v 0.6053618 19.82958 -15.21955
v -1.584858 20.1938 -15.21955
v -0.6053618 19.82958 -15.21955
vt 0.4077303 0.4865848
vt 0.3897907 0.4865848
vt 0.3897907 0.5717459
vt 0.4077303 0.5717459
vt 0.4256699 0.4865848
vt 0.4256699 0.5717459
vt 0.4436095 0.5717459
vt 0.4436095 0.4865848
vt 0.823296 0.9397525
vt 0.8191789 0.9397525
vt 0.8191788 0.986415
vt 0.823296 0.986415
vt 0.8274131 0.9397525
vt 0.827413 0.986415
vt 0.8335766 0.986415
vt 0.8335766 0.9397525
vt 0.8407175 0.986415
vt 0.8407175 0.9397525
vt 0.8468811 0.9397525
vt 0.8468811 0.986415
vt 0.8509982 0.986415
vt 0.8509982 0.9397525
vt 0.8551154 0.986415
vt 0.8551154 0.9397525
vt 0.7992366 0.857635
vt 0.793204 0.8754208
vt 0.8089977 0.8647269
vt 0.7871713 0.857635
vt 0.8127261 0.8762017
vt 0.7774102 0.8647269
vt 0.8089977 0.8876765
vt 0.7736819 0.8762017
vt 0.7992366 0.8947683
vt 0.7774102 0.8876765
vt 0.7871714 0.8947683
vn 0.1515203 0.9881436 -0.02477389
vn 0.5248508 0.847877 -0.07507505
vn 0.5407462 0.8379835 0.07332896
vn 0.1543237 0.983284 0.09662753
vn -0.1515211 0.9881435 -0.02477374
vn -0.1543248 0.9832839 0.09662726
vn -0.5407462 0.8379835 0.07332862
vn -0.524851 0.8478768 -0.0750749
vn -0.9857044 0.01874798 -0.1674377
vn -0.524851 0.8478768 -0.0750749
vn -0.5407462 0.8379835 0.07332862
vn -0.9998011 -0.01765771 0.009271726
vn -0.5445957 -0.8215609 -0.168681
vn -0.5465807 -0.8370729 -0.02363025
vn -0.1531226 -0.9880047 -0.01999878
vn -0.1522593 -0.9784949 -0.1391582
vn 0.1531226 -0.9880047 -0.01999888
vn 0.1522592 -0.9784949 -0.1391581
vn 0.5445957 -0.8215608 -0.1686816
vn 0.5465808 -0.8370729 -0.0236304
vn 0.9998011 -0.01765743 0.009271665
vn 0.9857042 0.0187482 -0.1674384
vn 0.5407462 0.8379835 0.07332896
vn 0.5248508 0.847877 -0.07507505
vn 0.1515203 0.9881436 -0.02477389
vn 0 0 -1
vn 0.5248508 0.847877 -0.07507505
vn -0.1515211 0.9881435 -0.02477374
vn 0.9857042 0.0187482 -0.1674384
vn -0.524851 0.8478768 -0.0750749
vn 0.5445957 -0.8215608 -0.1686816
vn -0.9857044 0.01874798 -0.1674377
vn 0.1522592 -0.9784949 -0.1391581
vn -0.5445957 -0.8215609 -0.168681
vn -0.1522593 -0.9784949 -0.1391582
g Handle_0
f 3/3/3 2/2/2 1/1/1
f 1/1/1 4/4/4 3/3/3
f 4/4/4 1/1/1 5/5/5
f 5/5/5 6/6/6 4/4/4
f 5/5/5 7/7/7 6/6/6
f 5/5/5 8/8/8 7/7/7
f 11/11/11 10/10/10 9/9/9
f 9/9/9 12/12/12 11/11/11
f 12/12/12 9/9/9 13/13/13
f 13/13/13 14/14/14 12/12/12
f 13/13/13 15/15/15 14/14/14
f 13/13/13 16/16/16 15/15/15
f 16/16/16 17/17/17 15/15/15
f 16/16/16 18/18/18 17/17/17
f 17/17/17 18/18/18 19/19/19
f 19/19/19 20/20/20 17/17/17
f 19/19/19 21/21/21 20/20/20
f 22/22/22 21/21/21 19/19/19
f 22/22/22 23/23/23 21/21/21
f 24/24/24 23/23/23 22/22/22
f 27/27/27 26/26/26 25/25/25
f 25/25/25 26/26/26 28/28/28
f 29/29/29 26/26/26 27/27/27
f 28/28/28 26/26/26 30/30/30
f 31/31/31 26/26/26 29/29/29
f 30/30/30 26/26/26 32/32/32
f 33/33/33 26/26/26 31/31/31
f 32/32/32 26/26/26 34/34/34
f 35/35/35 26/26/26 33/33/33
f 34/34/34 26/26/26 35/35/35
