g Hands_Lvl1
v 5.225552 5.231812 1.14499
v 5.578438 5.198781 0.8674934
v 5.150063 4.82309 1.132246
v 4.757081 4.723299 0.6800743
v 5.488387 5.26885 0.5283766
v 5.484055 5.26885 -0.002410126
v 6.326025 5.451604 0.3426531
v 6.380796 5.483991 -0.09605009
v 4.777717 4.752172 -0.7777804
v 4.05571 4.868423 0.6211275
v 4.135478 4.863915 -0.711276
v 5.479713 5.26885 -0.5342841
v 6.392176 5.486247 -0.1739816
v 6.345616 5.48394 -0.5601382
v 5.475986 5.26885 -0.9909958
v 6.29448 5.479042 -0.6321346
v 6.183425 5.477784 -0.993014
v 5.475986 5.26885 -0.9909958
v 6.183425 5.477784 -0.993014
v 6.185542 5.92975 -0.9915802
v 5.468817 6.132294 -0.9760092
v 4.241756 6.079652 -0.7824405
v 4.777717 4.752172 -0.7777804
v 4.135478 4.863915 -0.711276
v 5.469653 6.138011 -0.5335615
v 4.12629 6.09294 0.5158355
v 6.293331 5.993714 -0.6463755
v 6.183425 5.477784 -0.993014
v 6.29448 5.479042 -0.6321346
v 5.47082 6.145986 0.03518441
v 6.343133 6.005893 -0.5848352
v 6.396515 6.019871 -0.1754949
v 6.345616 5.48394 -0.5601382
v 6.392176 5.486247 -0.1739816
v 5.472166 6.155183 0.6147936
v 4.74466 5.557142 0.8194493
v 4.05571 4.868423 0.6211275
v 4.757081 4.723299 0.6800743
v 5.150063 4.82309 1.132246
v 5.225552 5.231812 1.14499
v 5.578438 5.198781 0.8674934
v 5.488387 5.26885 0.5283766
v 6.326025 5.451604 0.3426531
v 6.387462 6.013898 -0.1018053
v 6.33724 5.927993 0.3365471
v 6.380796 5.483991 -0.09605009
v 6.326025 5.451604 0.3426531
v 5.484055 5.26885 -0.002410126
v 6.380796 5.483991 -0.09605009
v 6.387462 6.013898 -0.1018053
v 5.47082 6.145986 0.03518441
v 6.392176 5.486247 -0.1739816
v 6.396515 6.019871 -0.1754949
v 6.29448 5.479042 -0.6321346
v 5.469653 6.138011 -0.5335615
v 6.293331 5.993714 -0.6463755
v 5.479713 5.26885 -0.5342841
v 6.343133 6.005893 -0.5848352
v 6.345616 5.48394 -0.5601382
v -5.225552 5.231812 1.14499
v -5.150063 4.82309 1.132246
v -5.578438 5.198781 0.8674934
v -4.757081 4.723299 0.6800743
v -5.488387 5.26885 0.5283766
v -5.484055 5.26885 -0.002410126
v -6.326025 5.451604 0.3426531
v -6.380796 5.483991 -0.09605009
v -4.777717 4.752172 -0.7777804
v -4.05571 4.868423 0.6211275
v -4.135478 4.863915 -0.711276
v -5.479713 5.26885 -0.5342841
v -6.392176 5.486247 -0.1739816
v -6.345616 5.48394 -0.5601382
v -5.475986 5.26885 -0.9909958
v -6.29448 5.479042 -0.6321346
v -6.183425 5.477784 -0.993014
v -5.475986 5.26885 -0.9909958
v -6.185542 5.92975 -0.9915802
v -6.183425 5.477784 -0.993014
v -5.468817 6.132294 -0.9760092
v -4.241756 6.079652 -0.7824405
v -4.777717 4.752172 -0.7777804
v -4.135478 4.863915 -0.711276
v -5.469653 6.138011 -0.5335615
v -4.12629 6.09294 0.5158355
v -6.293331 5.993714 -0.6463755
v -6.183425 5.477784 -0.993014
v -6.29448 5.479042 -0.6321346
v -5.47082 6.145986 0.03518441
v -6.343133 6.005893 -0.5848352
v -6.396515 6.019871 -0.1754949
v -6.345616 5.48394 -0.5601382
v -6.392176 5.486247 -0.1739816
v -5.472166 6.155183 0.6147936
v -4.74466 5.557142 0.8194493
v -4.05571 4.868423 0.6211275
v -4.757081 4.723299 0.6800743
v -5.150063 4.82309 1.132246
v -5.225552 5.231812 1.14499
v -5.578438 5.198781 0.8674934
v -5.488387 5.26885 0.5283766
v -6.326025 5.451604 0.3426531
v -6.387462 6.013898 -0.1018053
v -6.33724 5.927993 0.3365471
v -6.380796 5.483991 -0.09605009
v -6.326025 5.451604 0.3426531
v -5.484055 5.26885 -0.002410126
v -6.387462 6.013898 -0.1018053
v -6.380796 5.483991 -0.09605009
v -5.47082 6.145986 0.03518441
v -6.392176 5.486247 -0.1739816
v -6.396515 6.019871 -0.1754949
v -6.29448 5.479042 -0.6321346
v -6.293331 5.993714 -0.6463755
v -5.469653 6.138011 -0.5335615
v -5.479713 5.26885 -0.5342841
v -6.343133 6.005893 -0.5848352
v -6.345616 5.48394 -0.5601382
v 4.12629 6.09294 0.5158355
v 3.685636 5.476233 -0.08918838
v 4.241756 6.079652 -0.7824405
v 4.05571 4.868423 0.6211275
v 4.135478 4.863915 -0.711276
v 3.685635 5.476233 -0.08918834
v -4.12629 6.09294 0.5158355
v -4.241756 6.079652 -0.7824405
v -3.685636 5.476233 -0.08918838
v -4.05571 4.868423 0.6211275
v -4.135478 4.863915 -0.711276
v -3.685635 5.476233 -0.08918834
vt 0.8529898 0.321763
vt 0.8616949 0.3378571
vt 0.8377297 0.3290315
vt 0.8275975 0.349673
vt 0.8643242 0.3524013
vt 0.8643243 0.3738985
vt 0.8960609 0.3566617
vt 0.8989351 0.3742039
vt 0.8275974 0.4085566
vt 0.7999291 0.3551146
vt 0.7999291 0.4086399
vt 0.8643243 0.39544
vt 0.899469 0.3772973
vt 0.899199 0.3931032
vt 0.8643242 0.4139376
vt 0.8979563 0.3961657
vt 0.8958782 0.4112222
vt 0.8624518 0.5689144
vt 0.8852664 0.5613558
vt 0.8880594 0.5479544
vt 0.8527309 0.5453354
vt 0.7999194 0.5419286
vt 0.8296254 0.5898524
vt 0.7999192 0.5843648
vt 0.8541553 0.5263084
vt 0.7999194 0.4788259
vt 0.8924923 0.5296226
vt 0.9046627 0.5499013
vt 0.9094285 0.5315284
vt 0.8534985 0.5014067
vt 0.8934147 0.5239716
vt 0.8944722 0.5053141
vt 0.9115647 0.5235983
vt 0.9116198 0.506433
vt 0.8557069 0.4813608
vt 0.832965 0.4551989
vt 0.7999192 0.4315706
vt 0.8271434 0.4236925
vt 0.8530819 0.4245377
vt 0.8570635 0.4389763
vt 0.8748561 0.4458756
vt 0.873271 0.4581779
vt 0.8945723 0.4655998
vt 0.8926826 0.5002937
vt 0.8903283 0.4814754
vt 0.9108499 0.4992041
vt 0.9084641 0.4824026
vt 0.774085 0.3907591
vt 0.7724695 0.3780562
vt 0.7651962 0.3780562
vt 0.7634658 0.390759
vt 0.7724695 0.4032695
vt 0.7651962 0.4032694
vt 0.7724695 0.4032694
vt 0.7634657 0.3907544
vt 0.7651962 0.4032694
vt 0.774085 0.3907544
vt 0.7651961 0.3780562
vt 0.7724695 0.3780562
vt 0.8529898 0.321763
vt 0.8377297 0.3290315
vt 0.8616949 0.3378571
vt 0.8275975 0.349673
vt 0.8643242 0.3524013
vt 0.8643243 0.3738985
vt 0.8960609 0.3566617
vt 0.8989351 0.3742039
vt 0.8275974 0.4085566
vt 0.7999291 0.3551146
vt 0.7999291 0.4086399
vt 0.8643243 0.39544
vt 0.899469 0.3772973
vt 0.899199 0.3931032
vt 0.8643242 0.4139376
vt 0.8979563 0.3961657
vt 0.8958782 0.4112222
vt 0.8624518 0.5689144
vt 0.8880594 0.5479544
vt 0.8852664 0.5613558
vt 0.8527309 0.5453354
vt 0.7999194 0.5419286
vt 0.8296254 0.5898524
vt 0.7999192 0.5843648
vt 0.8541553 0.5263084
vt 0.7999194 0.4788259
vt 0.8924923 0.5296226
vt 0.9046627 0.5499013
vt 0.9094285 0.5315284
vt 0.8534985 0.5014067
vt 0.8934147 0.5239716
vt 0.8944722 0.5053141
vt 0.9115647 0.5235983
vt 0.9116198 0.506433
vt 0.8557069 0.4813608
vt 0.832965 0.4551989
vt 0.7999192 0.4315706
vt 0.8271434 0.4236925
vt 0.8530819 0.4245377
vt 0.8570635 0.4389763
vt 0.8748561 0.4458756
vt 0.873271 0.4581779
vt 0.8945723 0.4655998
vt 0.8926826 0.5002937
vt 0.8903283 0.4814754
vt 0.9108499 0.4992041
vt 0.9084641 0.4824026
vt 0.774085 0.3907591
vt 0.7651962 0.3780562
vt 0.7724695 0.3780562
vt 0.7634658 0.390759
vt 0.7724695 0.4032695
vt 0.7651962 0.4032694
vt 0.7724695 0.4032694
vt 0.7651962 0.4032694
vt 0.7634657 0.3907544
vt 0.774085 0.3907544
vt 0.7651961 0.3780562
vt 0.7724695 0.3780562
vt 0.7761628 0.4488889
vt 0.7655628 0.4372092
vt 0.7539974 0.4488889
vt 0.7761628 0.4265392
vt 0.7539976 0.4265392
vt 0.7655628 0.4372092
vt 0.7761628 0.4488889
vt 0.7539974 0.4488889
vt 0.7655628 0.4372092
vt 0.7761628 0.4265392
vt 0.7539976 0.4265392
vt 0.7655628 0.4372092
vn -0.1672239 0.5060428 0.8461423
vn 0.9942095 -0.1019277 -0.03403221
vn -0.1931273 -0.792323 0.5787281
vn -0.1049238 -0.8978832 0.4275474
vn 0.5152784 -0.4128806 0.7510111
vn 0.418484 -0.9082202 -0.002665395
vn 0.4633373 -0.5749455 0.6743562
vn 0.2373771 -0.429142 -0.8714867
vn -0.03571018 -0.7354048 -0.6766863
vn -0.5504379 -0.6364386 0.5403369
vn -0.4705085 -0.6044073 -0.6428946
vn 0.420334 -0.9068099 -0.0318616
vn 0.4542738 -0.4943044 0.7411467
vn 0.2862894 -0.5147455 -0.8081308
vn -0.03129656 -0.3164893 -0.9480796
vn 0.4213991 -0.4030725 0.8123764
vn 0.3099909 -0.4964167 -0.8108491
vn -0.03129656 -0.3164893 -0.9480796
vn 0.3099909 -0.4964167 -0.8108491
vn 0.3610277 0.4298569 -0.827576
vn 0.009157408 0.5173376 -0.8557323
vn -0.3027588 0.7422991 -0.5977703
vn -0.03571018 -0.7354048 -0.6766863
vn -0.4705085 -0.6044073 -0.6428946
vn 0.1136638 0.9924977 -0.04504051
vn -0.3093757 0.793162 0.5245767
vn 0.4598905 0.3870769 0.7991697
vn 0.3099909 -0.4964167 -0.8108491
vn 0.4213991 -0.4030725 0.8123764
vn 0.1206766 0.9926828 0.004238968
vn 0.3153657 0.495763 -0.8091746
vn 0.4972454 0.4686658 0.7301365
vn 0.2862894 -0.5147455 -0.8081308
vn 0.4542738 -0.4943044 0.7411467
vn 0.2197899 0.5584376 0.7998999
vn -0.1030353 0.1540766 0.982672
vn -0.5504379 -0.6364386 0.5403369
vn -0.1049238 -0.8978832 0.4275474
vn -0.1931273 -0.792323 0.5787281
vn -0.1672239 0.5060428 0.8461423
vn 0.9942095 -0.1019277 -0.03403221
vn 0.5152784 -0.4128806 0.7510111
vn 0.4633373 -0.5749455 0.6743562
vn 0.2756083 0.4954486 -0.8237541
vn 0.5539016 0.447057 0.7023768
vn 0.2373771 -0.429142 -0.8714867
vn 0.4633373 -0.5749455 0.6743562
vn 0.418484 -0.9082202 -0.002665395
vn 0.2373771 -0.429142 -0.8714867
vn 0.2756083 0.4954486 -0.8237541
vn 0.1206766 0.9926828 0.004238968
vn 0.4542738 -0.4943044 0.7411467
vn 0.4972454 0.4686658 0.7301365
vn 0.4213991 -0.4030725 0.8123764
vn 0.1136638 0.9924977 -0.04504051
vn 0.4598905 0.3870769 0.7991697
vn 0.420334 -0.9068099 -0.0318616
vn 0.3153657 0.495763 -0.8091746
vn 0.2862894 -0.5147455 -0.8081308
vn 0.2021311 0.4841844 0.8512982
vn 0.1337358 -0.8094937 0.5716947
vn -0.9979063 -0.05349284 -0.03635266
vn 0.04182635 -0.9041272 0.4252112
vn -0.5431504 -0.3808879 0.7482727
vn -0.48323 -0.8754756 -0.005587087
vn -0.4985095 -0.545989 0.6733381
vn -0.2635766 -0.4133668 -0.8715821
vn -0.01782761 -0.7363051 -0.6764148
vn 0.5148708 -0.6675523 0.5378495
vn 0.4359961 -0.6317193 -0.6409667
vn -0.4866254 -0.8730833 -0.03035353
vn -0.4876551 -0.4617959 0.7409028
vn -0.3214498 -0.4941683 -0.8077546
vn 0.007853521 -0.3171144 -0.9483548
vn -0.4485226 -0.3723587 0.8125125
vn -0.3443056 -0.4751703 -0.8097326
vn 0.007853521 -0.3171144 -0.9483548
vn -0.3300564 0.4529363 -0.8281978
vn -0.3443056 -0.4751703 -0.8097326
vn 0.02816505 0.5166326 -0.8557438
vn 0.3526097 0.7110885 -0.6082922
vn -0.01782761 -0.7363051 -0.6764148
vn 0.4359961 -0.6317193 -0.6409667
vn -0.04052004 0.9980322 -0.04785279
vn 0.3600107 0.7668095 0.5314088
vn -0.4316876 0.4190372 0.7987827
vn -0.3443056 -0.4751703 -0.8097326
vn -0.4485226 -0.3723587 0.8125125
vn -0.05015438 0.9987229 0.006096569
vn -0.2801153 0.5165122 -0.8091666
vn -0.4632986 0.5027665 0.729781
vn -0.3214498 -0.4941683 -0.8077546
vn -0.4876551 -0.4617959 0.7409028
vn -0.1821097 0.5700639 0.8011636
vn 0.1155699 0.1492705 0.9820192
vn 0.5148708 -0.6675523 0.5378495
vn 0.04182635 -0.9041272 0.4252112
vn 0.1337358 -0.8094937 0.5716947
vn 0.2021311 0.4841844 0.8512982
vn -0.9979063 -0.05349284 -0.03635266
vn -0.5431504 -0.3808879 0.7482727
vn -0.4985095 -0.545989 0.6733381
vn -0.2441523 0.513173 -0.8228262
vn -0.5238261 0.4826364 0.7019034
vn -0.2635766 -0.4133668 -0.8715821
vn -0.4985095 -0.545989 0.6733381
vn -0.48323 -0.8754756 -0.005587087
vn -0.2441523 0.513173 -0.8228262
vn -0.2635766 -0.4133668 -0.8715821
vn -0.05015438 0.9987229 0.006096569
vn -0.4876551 -0.4617959 0.7409028
vn -0.4632986 0.5027665 0.729781
vn -0.4485226 -0.3723587 0.8125125
vn -0.4316876 0.4190372 0.7987827
vn -0.04052004 0.9980322 -0.04785279
vn -0.4866254 -0.8730833 -0.03035353
vn -0.2801153 0.5165122 -0.8091666
vn -0.3214498 -0.4941683 -0.8077546
vn -0.3093757 0.793162 0.5245767
vn -0.9996598 0.02608011 0.000321706
vn -0.3027588 0.7422991 -0.5977703
vn -0.5504379 -0.6364386 0.5403369
vn -0.4705085 -0.6044073 -0.6428946
vn -0.9374015 -0.2319974 0.2597224
vn 0.3600107 0.7668095 0.5314088
vn 0.3526097 0.7110885 -0.6082922
vn 0.9999141 -0.01282577 -0.002707527
vn 0.5148708 -0.6675523 0.5378495
vn 0.4359961 -0.6317193 -0.6409667
vn 0.929285 -0.2644316 0.2578861
g Hands_Lvl1_0
f 3/3/3 2/2/2 1/1/1
f 2/2/2 3/3/3 4/4/4
f 5/5/5 2/2/2 4/4/4
f 6/6/6 5/5/5 4/4/4
f 7/7/7 5/5/5 6/6/6
f 8/8/8 7/7/7 6/6/6
f 6/6/6 4/4/4 9/9/9
f 9/9/9 4/4/4 10/10/10
f 11/11/11 9/9/9 10/10/10
f 12/12/12 6/6/6 9/9/9
f 13/13/13 6/6/6 12/12/12
f 14/14/14 13/13/13 12/12/12
f 15/15/15 12/12/12 9/9/9
f 16/16/16 12/12/12 15/15/15
f 17/17/17 16/16/16 15/15/15
f 20/20/20 19/19/19 18/18/18
f 21/21/21 20/20/20 18/18/18
f 22/22/22 21/21/21 18/18/18
f 22/22/22 18/18/18 23/23/23
f 24/24/24 22/22/22 23/23/23
f 22/22/22 25/25/25 21/21/21
f 21/21/21 25/25/25 20/20/20
f 22/22/22 26/26/26 25/25/25
f 25/25/25 27/27/27 20/20/20
f 20/20/20 27/27/27 28/28/28
f 27/27/27 29/29/29 28/28/28
f 26/26/26 30/30/30 25/25/25
f 25/25/25 30/30/30 31/31/31
f 30/30/30 32/32/32 31/31/31
f 31/31/31 32/32/32 33/33/33
f 32/32/32 34/34/34 33/33/33
f 26/26/26 35/35/35 30/30/30
f 35/35/35 26/26/26 36/36/36
f 26/26/26 37/37/37 36/36/36
f 37/37/37 38/38/38 36/36/36
f 38/38/38 39/39/39 36/36/36
f 39/39/39 40/40/40 36/36/36
f 40/40/40 41/41/41 36/36/36
f 41/41/41 42/42/42 36/36/36
f 42/42/42 35/35/35 36/36/36
f 42/42/42 43/43/43 35/35/35
f 30/30/30 35/35/35 44/44/44
f 43/43/43 45/45/45 35/35/35
f 35/35/35 45/45/45 44/44/44
f 44/44/44 45/45/45 46/46/46
f 45/45/45 47/47/47 46/46/46
f 50/50/50 49/49/49 48/48/48
f 51/51/51 50/50/50 48/48/48
f 51/51/51 48/48/48 52/52/52
f 53/53/53 51/51/51 52/52/52
f 56/56/56 55/55/55 54/54/54
f 55/55/55 57/57/57 54/54/54
f 55/55/55 58/58/58 57/57/57
f 58/58/58 59/59/59 57/57/57
f 62/62/62 61/61/61 60/60/60
f 61/61/61 62/62/62 63/63/63
f 62/62/62 64/64/64 63/63/63
f 64/64/64 65/65/65 63/63/63
f 64/64/64 66/66/66 65/65/65
f 66/66/66 67/67/67 65/65/65
f 63/63/63 65/65/65 68/68/68
f 63/63/63 68/68/68 69/69/69
f 68/68/68 70/70/70 69/69/69
f 65/65/65 71/71/71 68/68/68
f 65/65/65 72/72/72 71/71/71
f 72/72/72 73/73/73 71/71/71
f 71/71/71 74/74/74 68/68/68
f 71/71/71 75/75/75 74/74/74
f 75/75/75 76/76/76 74/74/74
f 79/79/79 78/78/78 77/77/77
f 78/78/78 80/80/80 77/77/77
f 80/80/80 81/81/81 77/77/77
f 77/77/77 81/81/81 82/82/82
f 81/81/81 83/83/83 82/82/82
f 84/84/84 81/81/81 80/80/80
f 84/84/84 80/80/80 78/78/78
f 85/85/85 81/81/81 84/84/84
f 86/86/86 84/84/84 78/78/78
f 86/86/86 78/78/78 87/87/87
f 88/88/88 86/86/86 87/87/87
f 89/89/89 85/85/85 84/84/84
f 89/89/89 84/84/84 90/90/90
f 91/91/91 89/89/89 90/90/90
f 91/91/91 90/90/90 92/92/92
f 93/93/93 91/91/91 92/92/92
f 94/94/94 85/85/85 89/89/89
f 85/85/85 94/94/94 95/95/95
f 96/96/96 85/85/85 95/95/95
f 97/97/97 96/96/96 95/95/95
f 98/98/98 97/97/97 95/95/95
f 99/99/99 98/98/98 95/95/95
f 100/100/100 99/99/99 95/95/95
f 101/101/101 100/100/100 95/95/95
f 94/94/94 101/101/101 95/95/95
f 102/102/102 101/101/101 94/94/94
f 94/94/94 89/89/89 103/103/103
f 104/104/104 102/102/102 94/94/94
f 104/104/104 94/94/94 103/103/103
f 104/104/104 103/103/103 105/105/105
f 106/106/106 104/104/104 105/105/105
f 109/109/109 108/108/108 107/107/107
f 108/108/108 110/110/110 107/107/107
f 107/107/107 110/110/110 111/111/111
f 110/110/110 112/112/112 111/111/111
f 115/115/115 114/114/114 113/113/113
f 116/116/116 115/115/115 113/113/113
f 117/117/117 115/115/115 116/116/116
f 118/118/118 117/117/117 116/116/116
f 121/121/121 120/120/120 119/119/119
f 119/119/119 120/120/120 122/122/122
f 123/123/123 120/120/120 121/121/121
f 122/122/122 124/124/124 123/123/123
f 124/124/124 120/120/120 123/123/123
f 120/120/120 124/124/124 122/122/122
f 127/127/127 126/126/126 125/125/125
f 127/127/127 125/125/125 128/128/128
f 127/127/127 129/129/129 126/126/126
f 130/130/130 128/128/128 129/129/129
f 127/127/127 130/130/130 129/129/129
f 130/130/130 127/127/127 128/128/128
