g Head
v 5.480313 18.36286 -1.749877
v 5.687595 15.48594 1.18534
v 5.707246 18.40992 1.004289
v 5.417932 15.74411 -1.723545
v 4.157784 18.17535 -3.611525
v 5.262603 12.97063 1.486615
v 4.055552 15.77221 -3.584519
v 1.482104 18.07785 -5.081789
v 4.989209 13.47633 -1.377829
v 3.141288 11.4255 0.4596916
v 1.536119 15.68009 -4.917831
v -1.482104 18.07785 -5.081789
v 3.681875 13.68871 -3.124401
v 2.631589 11.96996 -1.108914
v 1.482104 13.60688 -4.25802
v -1.536119 15.68009 -4.917831
v -1.482104 13.60688 -4.25802
v -4.055552 15.77221 -3.584519
v -4.157784 18.17535 -3.611525
v -2.631589 11.96996 -1.108914
v -3.681875 13.68871 -3.124401
v -5.417932 15.74411 -1.723545
v -5.480313 18.36286 -1.749877
v -4.989209 13.47633 -1.377829
v -5.687595 15.48594 1.18534
v -5.707246 18.40992 1.004289
v -5.262603 12.97063 1.486615
v -3.141288 11.4255 0.4596916
v 1.410441 11.00767 3.265981
v 3.559064 11.65494 2.785722
v 5.262603 12.97063 1.486615
v 4.338393 12.94179 3.399902
v 5.687595 15.48594 1.18534
v 4.792591 15.47777 3.415359
v 5.707246 18.40992 1.004289
v 4.825054 18.42631 3.443355
v 4.585008 21.0113 0.8011301
v -1.410441 11.00767 3.265981
v 1.404052 11.45172 4.051164
v 3.227403 12.02812 3.447853
v 1.244257 12.90112 4.617908
v -3.559064 11.65494 2.785722
v -5.262603 12.97063 1.486615
v -1.404052 11.45172 4.051164
v 1.428023 15.43399 4.81674
v -4.338393 12.94179 3.399902
v -5.687595 15.48594 1.18534
v -3.227403 12.02812 3.447853
v -1.244257 12.90112 4.617908
v -4.792591 15.47777 3.415359
v -5.707246 18.40992 1.004289
v -1.428023 15.43399 4.81674
v -4.825054 18.42631 3.443355
v -4.585008 21.0113 0.8011301
v 1.480885 18.38203 5.063975
v -1.480885 18.38203 5.063975
v 1.480889 21.15324 3.798195
v -1.480889 21.15324 3.798195
v 4.010039 20.32696 2.756238
v 1.480885 22.21597 0.71894
v -4.010039 20.32696 2.756238
v -1.480885 22.21597 0.71894
v 1.480889 21.92638 -1.9129
v -1.480889 21.92638 -1.9129
v 4.249383 20.67683 -1.689472
v 5.707246 18.40992 1.004289
v 5.480313 18.36286 -1.749877
v 3.747048 19.81083 -3.099465
v 4.157784 18.17535 -3.611525
v 1.480885 20.607 -3.971948
v 1.482104 18.07785 -5.081789
v -1.480885 20.607 -3.971948
v -1.482104 18.07785 -5.081789
v -4.157784 18.17535 -3.611525
v -3.747048 19.81083 -3.099465
v -5.480313 18.36286 -1.749877
v -4.249383 20.67683 -1.689472
v -5.707246 18.40992 1.004289
v -2.053795 14.98197 4.872783
v -2.71543 14.98847 4.758849
v -2.368715 15.11796 4.829395
v -2.816708 14.77213 4.717787
v -1.91065 14.76725 4.895547
v -1.882021 13.83187 4.820242
v -2.756183 13.82318 4.561145
v -1.999569 13.59268 4.76201
v -2.589476 13.59005 4.584456
v -2.314721 13.47779 4.676568
v 2.053795 14.98197 4.872783
v 2.368715 15.11796 4.829395
v 2.71543 14.98847 4.758849
v 2.816708 14.77213 4.717787
v 1.91065 14.76725 4.895547
v 1.882021 13.83187 4.820242
v 2.756183 13.82318 4.561145
v 1.999569 13.59268 4.76201
v 2.589476 13.59005 4.584456
v 2.314721 13.47779 4.676568
v -1.439687 12.97763 4.733583
v -2.892548 14.6304 4.504748
v -1.163789 14.40553 4.947547
v -2.318813 12.60907 4.298933
v -1.298937 15.52046 4.947532
v -2.971003 12.58773 4.03727
v -1.978124 16.1861 4.92018
v -3.761864 12.77458 3.805596
v -2.841926 16.71675 4.46334
v -4.37674 13.37843 3.671534
v -3.876906 16.69445 4.045248
v -4.697534 14.67898 3.525076
v -4.464673 16.07588 3.815183
v 1.439687 12.97763 4.733583
v 1.163789 14.40553 4.947547
v 2.892548 14.6304 4.504748
v 2.318813 12.60907 4.298933
v 1.298937 15.52046 4.947532
v 2.971003 12.58773 4.03727
v 1.978124 16.1861 4.92018
v 3.761864 12.77458 3.805596
v 2.841926 16.71675 4.46334
v 4.37674 13.37843 3.671534
v 3.876906 16.69445 4.045248
v 4.697534 14.67898 3.525076
v 4.464673 16.07588 3.815183
v 1.278774 18.18056 5.561766
v 1.398962 16.86604 5.420216
v 1.229705 16.93862 4.759925
v 1.101147 18.25224 4.910054
v 3.05214 17.38566 4.084031
v 2.976846 18.42313 4.8736
v 2.87536 18.49209 4.247217
v 3.143943 17.3129 4.745075
v -1.278774 18.18056 5.561766
v -1.101147 18.25224 4.910054
v -1.229705 16.93862 4.759925
v -1.398962 16.86604 5.420216
v -3.05214 17.38566 4.084031
v -2.976846 18.42313 4.8736
v -2.87536 18.49209 4.247217
v -3.143943 17.3129 4.745075
vt 0.7136014 0.1127765
vt 0.7511741 0.2626906
vt 0.806388 0.2047949
vt 0.6778586 0.1846653
vt 0.6498905 0.07058624
vt 0.703542 0.2999477
vt 0.6276971 0.1450727
vt 0.5543137 0.04544726
vt 0.6470239 0.2348455
vt 0.6135916 0.3280544
vt 0.5510314 0.125127
vt 0.4456863 0.04526386
vt 0.6085511 0.1974939
vt 0.5834585 0.2721329
vt 0.5481997 0.1820285
vt 0.4489686 0.1249436
vt 0.4518002 0.1818451
vt 0.3723029 0.1448893
vt 0.3501095 0.07040284
vt 0.4165415 0.2719495
vt 0.3914489 0.1973105
vt 0.3221414 0.1844819
vt 0.2863986 0.1125931
vt 0.3529761 0.2346622
vt 0.2488258 0.2625072
vt 0.193612 0.2046115
vt 0.296458 0.2997643
vt 0.3864084 0.327871
vt 0.5424587 0.3892379
vt 0.6057596 0.4005835
vt 0.6820759 0.4229971
vt 0.6261417 0.451493
vt 0.6943254 0.5101051
vt 0.637989 0.5188654
vt 0.7085248 0.6110786
vt 0.6517222 0.5969619
vt 0.6483175 0.7286507
vt 0.4577949 0.3871696
vt 0.5392969 0.4099297
vt 0.5960631 0.4196454
vt 0.534892 0.452441
vt 0.3942404 0.4004002
vt 0.3179241 0.4228137
vt 0.4606608 0.4084665
vt 0.5399859 0.5152444
vt 0.3738584 0.4513096
vt 0.3056746 0.5099217
vt 0.4039369 0.419462
vt 0.4649963 0.4519986
vt 0.362011 0.518682
vt 0.2914752 0.6108951
vt 0.4600333 0.5150781
vt 0.3482778 0.5967785
vt 0.3516825 0.7284673
vt 0.5425873 0.5870355
vt 0.457443 0.5865595
vt 0.540672 0.6583346
vt 0.4586782 0.6583346
vt 0.6221942 0.6565223
vt 0.5466367 0.7604134
vt 0.3778057 0.6563389
vt 0.4531307 0.7594185
vt 0.5434287 0.8600552
vt 0.4566604 0.8588347
vt 0.6305323 0.8601182
vt 0.7233315 0.7470469
vt 0.6929974 0.8869748
vt 0.6196104 0.9120182
vt 0.6508869 0.9539157
vt 0.5450239 0.933261
vt 0.5604263 0.9966401
vt 0.4554022 0.9312305
vt 0.4395737 0.9964567
vt 0.3491131 0.9537322
vt 0.3803896 0.9118348
vt 0.3070026 0.8867914
vt 0.3694677 0.8599347
vt 0.2766685 0.7468634
vt 0.1236107 0.0214109
vt 0.1244678 0.02137962
vt 0.1240115 0.02122551
vt 0.1246125 0.02165404
vt 0.1234321 0.02169032
vt 0.1234466 0.02289164
vt 0.1246121 0.02287949
vt 0.1236173 0.02319564
vt 0.1244046 0.02318349
vt 0.1240384 0.02333351
vt 0.1244486 0.02141074
vt 0.1240477 0.0212255
vt 0.1235914 0.02137978
vt 0.1234469 0.02165427
vt 0.1246273 0.02169009
vt 0.1246132 0.02289141
vt 0.1234477 0.02287971
vt 0.1244426 0.02319549
vt 0.1236553 0.02318364
vt 0.1240216 0.02333351
vt 0.03488706 0.02669907
vt 0.03488706 0.02669907
vt 0.03488706 0.02669907
vt 0.03488706 0.02669907
vt 0.03488706 0.02669907
vt 0.03488706 0.02669907
vt 0.03488706 0.02669907
vt 0.03488706 0.02669907
vt 0.03488706 0.02669907
vt 0.03488706 0.02669907
vt 0.03488706 0.02669907
vt 0.03488706 0.02669907
vt 0.03488706 0.02669907
vt 0.03488706 0.02669907
vt 0.03488706 0.02669907
vt 0.03488706 0.02669907
vt 0.03488706 0.02669907
vt 0.03488706 0.02669907
vt 0.03488706 0.02669907
vt 0.03488706 0.02669907
vt 0.03488706 0.02669907
vt 0.03488706 0.02669907
vt 0.03488706 0.02669907
vt 0.03488706 0.02669907
vt 0.03488706 0.02669907
vt 0.03488706 0.02669907
vt 0.1175656 0.02571144
vt 0.1172172 0.01807567
vt 0.1169674 0.01725905
vt 0.1172103 0.02715378
vt 0.1304232 0.01826026
vt 0.1287944 0.02631501
vt 0.1308891 0.02629146
vt 0.1283426 0.01892124
vt 0.1175656 0.02571144
vt 0.1172103 0.02715378
vt 0.1169674 0.01725905
vt 0.1172172 0.01807567
vt 0.1304232 0.01826026
vt 0.1287944 0.02631501
vt 0.1308891 0.02629146
vt 0.1283426 0.01892124
vn 0.9379099 0.07730555 -0.3381551
vn 0.9890611 -0.04260246 0.1412203
vn 0.9746398 0.2202418 0.03963298
vn 0.9400148 -0.2111415 -0.2679395
vn 0.6292325 -0.1073023 -0.7697744
vn 0.9000252 -0.3941376 0.1860377
vn 0.6321396 -0.3775813 -0.6766329
vn 0.2150698 -0.1495799 -0.9650756
vn 0.8257705 -0.5406868 -0.1605013
vn 0.2298491 -0.9696567 0.08327733
vn 0.2326776 -0.4661601 -0.8535548
vn -0.2150698 -0.1495799 -0.9650756
vn 0.5577795 -0.6594304 -0.5040175
vn 0.1511286 -0.985008 -0.08318261
vn 0.113334 -0.8928934 -0.4357716
vn -0.2326775 -0.46616 -0.8535549
vn -0.113334 -0.8928934 -0.4357716
vn -0.6321396 -0.3775812 -0.6766329
vn -0.6292325 -0.1073023 -0.7697744
vn -0.1511286 -0.985008 -0.08318277
vn -0.5577794 -0.6594303 -0.5040176
vn -0.9400148 -0.2111414 -0.2679396
vn -0.9379099 0.07730553 -0.3381552
vn -0.8257705 -0.5406869 -0.1605015
vn -0.9890611 -0.04260245 0.1412203
vn -0.9746398 0.2202417 0.03963297
vn -0.9000254 -0.3941376 0.1860376
vn -0.2298491 -0.9696568 0.08327718
vn 0.04938634 -0.9504085 0.3070579
vn 0.5287018 -0.7047648 0.4730549
vn 0.9000252 -0.3941376 0.1860377
vn 0.6153312 0.04361159 0.7870613
vn 0.9890611 -0.04260246 0.1412203
vn 0.6624521 0.1756232 0.7282263
vn 0.9746398 0.2202418 0.03963298
vn 0.6705598 0.3919845 0.6298394
vn 0.6550086 0.7394334 -0.1555701
vn -0.04938634 -0.9504085 0.3070579
vn 0.1661808 -0.2802997 0.9454184
vn 0.4587027 -0.2626482 0.8488863
vn 0.1898082 0.1476279 0.9706589
vn -0.5287018 -0.704765 0.4730547
vn -0.9000254 -0.3941376 0.1860376
vn -0.1661808 -0.2802997 0.9454184
vn 0.2290661 0.2417265 0.9429194
vn -0.6153314 0.04361172 0.7870613
vn -0.9890611 -0.04260245 0.1412203
vn -0.4587026 -0.2626483 0.8488863
vn -0.1898083 0.147628 0.9706589
vn -0.6624522 0.1756232 0.7282263
vn -0.9746398 0.2202417 0.03963297
vn -0.2290661 0.2417266 0.9429194
vn -0.6705598 0.3919846 0.6298394
vn -0.6550085 0.7394334 -0.1555701
vn 0.222483 0.4633862 0.857773
vn -0.222483 0.4633864 0.857773
vn 0.1905979 0.8999054 0.3922278
vn -0.1905979 0.8999054 0.3922276
vn 0.5482504 0.7702494 0.3257873
vn 0.1866308 0.961365 -0.2023515
vn -0.5482504 0.7702494 0.3257871
vn -0.1866308 0.961365 -0.2023515
vn 0.195017 0.7769085 -0.5986497
vn -0.195017 0.7769085 -0.5986497
vn 0.6398571 0.5812636 -0.5027083
vn 0.9746398 0.2202418 0.03963298
vn 0.9379099 0.07730555 -0.3381551
vn 0.5383191 0.2772024 -0.7958463
vn 0.6292325 -0.1073023 -0.7697744
vn 0.1886758 0.3437986 -0.9198935
vn 0.2150698 -0.1495799 -0.9650756
vn -0.1886759 0.3437986 -0.9198935
vn -0.2150698 -0.1495799 -0.9650756
vn -0.6292325 -0.1073023 -0.7697744
vn -0.5383189 0.2772022 -0.7958464
vn -0.9379099 0.07730553 -0.3381552
vn -0.639857 0.5812635 -0.5027084
vn -0.9746398 0.2202417 0.03963297
vn -0.1824302 0.2580244 0.9487584
vn -0.1824389 0.2580371 0.9487534
vn -0.1699261 0.2395807 0.9558902
vn -0.2294852 0.1956638 0.9534423
vn -0.2304262 0.1943503 0.953484
vn -0.2419875 0.189614 0.9515717
vn -0.241466 0.1893382 0.951759
vn -0.2839146 0.2168366 0.9340099
vn -0.2839293 0.2171448 0.9339337
vn -0.2876335 0.3815469 0.8784583
vn 0.1824301 0.2580245 0.9487584
vn 0.1699236 0.2395767 0.9558918
vn 0.1824387 0.2580372 0.9487534
vn 0.2294855 0.195664 0.9534422
vn 0.2304265 0.1943505 0.9534839
vn 0.2419877 0.1896141 0.9515716
vn 0.2414662 0.1893383 0.9517589
vn 0.283914 0.2168362 0.9340101
vn 0.2839287 0.2171444 0.9339341
vn 0.2876335 0.3815469 0.8784583
vn -0.3160016 0.1608066 0.9350316
vn -0.3691906 0.2230844 0.9021816
vn -0.2559079 0.2447274 0.935211
vn -0.3641442 0.1067506 0.9252045
vn -0.2203836 0.2280348 0.9483835
vn -0.3371301 0.1084053 0.935196
vn -0.3436925 0.2553603 0.903696
vn -0.3440539 0.1198648 0.9312676
vn -0.4054491 0.3199498 0.8562962
vn -0.4301975 0.2052822 0.8790843
vn -0.3796583 0.3205287 0.8678254
vn -0.4773831 0.2214782 0.850325
vn -0.4342248 0.2482389 0.865925
vn 0.3160014 0.1608066 0.9350317
vn 0.2559077 0.2447273 0.9352111
vn 0.3691907 0.2230844 0.9021816
vn 0.364144 0.1067506 0.9252046
vn 0.2203837 0.2280348 0.9483835
vn 0.33713 0.1084053 0.9351961
vn 0.3436924 0.2553604 0.903696
vn 0.3440536 0.1198647 0.9312677
vn 0.4054494 0.31995 0.8562959
vn 0.4301975 0.2052822 0.8790843
vn 0.3796589 0.320529 0.8678251
vn 0.4773832 0.2214783 0.850325
vn 0.4342251 0.2482391 0.865925
vn -0.04055854 0.6099766 0.7913808
vn 0.07179081 -0.2675641 0.9608618
vn -0.3861567 -0.8697144 0.3073756
vn -0.6184762 0.7857339 -0.0104627
vn 0.6845109 -0.7273796 0.04861705
vn 0.4926929 0.6636074 0.5629201
vn 0.4775876 0.8410866 -0.253936
vn 0.620312 -0.258776 0.7404377
vn 0.040559 0.6099766 0.7913808
vn 0.6184763 0.7857338 -0.01046278
vn 0.3861571 -0.8697148 0.3073743
vn -0.07179044 -0.2675642 0.9608618
vn -0.684511 -0.7273796 0.04861574
vn -0.4926927 0.6636074 0.5629203
vn -0.4775876 0.8410866 -0.2539359
vn -0.6203121 -0.2587762 0.7404376
g Head_0
f 3/3/3 2/2/2 1/1/1
f 2/2/2 4/4/4 1/1/1
f 1/1/1 4/4/4 5/5/5
f 2/2/2 6/6/6 4/4/4
f 4/4/4 7/7/7 5/5/5
f 5/5/5 7/7/7 8/8/8
f 6/6/6 9/9/9 4/4/4
f 4/4/4 9/9/9 7/7/7
f 6/6/6 10/10/10 9/9/9
f 7/7/7 11/11/11 8/8/8
f 12/12/12 8/8/8 11/11/11
f 9/9/9 13/13/13 7/7/7
f 7/7/7 13/13/13 11/11/11
f 14/14/14 13/13/13 9/9/9
f 10/10/10 14/14/14 9/9/9
f 13/13/13 15/15/15 11/11/11
f 13/13/13 14/14/14 15/15/15
f 16/16/16 12/12/12 11/11/11
f 16/16/16 11/11/11 15/15/15
f 17/17/17 15/15/15 14/14/14
f 17/17/17 16/16/16 15/15/15
f 16/16/16 18/18/18 12/12/12
f 18/18/18 19/19/19 12/12/12
f 20/20/20 17/17/17 14/14/14
f 20/20/20 14/14/14 10/10/10
f 17/17/17 21/21/21 16/16/16
f 21/21/21 18/18/18 16/16/16
f 20/20/20 21/21/21 17/17/17
f 18/18/18 22/22/22 19/19/19
f 22/22/22 23/23/23 19/19/19
f 21/21/21 24/24/24 18/18/18
f 21/21/21 20/20/20 24/24/24
f 24/24/24 22/22/22 18/18/18
f 22/22/22 25/25/25 23/23/23
f 25/25/25 26/26/26 23/23/23
f 27/27/27 25/25/25 22/22/22
f 24/24/24 27/27/27 22/22/22
f 28/28/28 27/27/27 24/24/24
f 20/20/20 28/28/28 24/24/24
f 28/28/28 20/20/20 10/10/10
f 28/28/28 10/10/10 29/29/29
f 10/10/10 30/30/30 29/29/29
f 10/10/10 31/31/31 30/30/30
f 31/31/31 32/32/32 30/30/30
f 32/32/32 31/31/31 33/33/33
f 34/34/34 32/32/32 33/33/33
f 34/34/34 33/33/33 35/35/35
f 36/36/36 34/34/34 35/35/35
f 35/35/35 37/37/37 36/36/36
f 38/38/38 28/28/28 29/29/29
f 29/29/29 30/30/30 39/39/39
f 38/38/38 29/29/29 39/39/39
f 32/32/32 40/40/40 30/30/30
f 30/30/30 40/40/40 39/39/39
f 40/40/40 32/32/32 41/41/41
f 41/41/41 32/32/32 34/34/34
f 39/39/39 40/40/40 41/41/41
f 42/42/42 28/28/28 38/38/38
f 43/43/43 28/28/28 42/42/42
f 44/44/44 38/38/38 39/39/39
f 44/44/44 39/39/39 41/41/41
f 42/42/42 38/38/38 44/44/44
f 45/45/45 41/41/41 34/34/34
f 45/45/45 34/34/34 36/36/36
f 46/46/46 43/43/43 42/42/42
f 43/43/43 46/46/46 47/47/47
f 48/48/48 42/42/42 44/44/44
f 48/48/48 46/46/46 42/42/42
f 49/49/49 44/44/44 41/41/41
f 48/48/48 44/44/44 49/49/49
f 46/46/46 48/48/48 49/49/49
f 49/49/49 41/41/41 45/45/45
f 46/46/46 50/50/50 47/47/47
f 46/46/46 49/49/49 50/50/50
f 47/47/47 50/50/50 51/51/51
f 52/52/52 49/49/49 45/45/45
f 49/49/49 52/52/52 50/50/50
f 50/50/50 53/53/53 51/51/51
f 50/50/50 52/52/52 53/53/53
f 54/54/54 51/51/51 53/53/53
f 52/52/52 45/45/45 55/55/55
f 55/55/55 45/45/45 36/36/36
f 56/56/56 52/52/52 55/55/55
f 52/52/52 56/56/56 53/53/53
f 55/55/55 36/36/36 57/57/57
f 56/56/56 55/55/55 57/57/57
f 53/53/53 56/56/56 58/58/58
f 58/58/58 56/56/56 57/57/57
f 36/36/36 59/59/59 57/57/57
f 37/37/37 59/59/59 36/36/36
f 57/57/57 59/59/59 60/60/60
f 58/58/58 57/57/57 60/60/60
f 59/59/59 37/37/37 60/60/60
f 61/61/61 53/53/53 58/58/58
f 61/61/61 54/54/54 53/53/53
f 61/61/61 58/58/58 62/62/62
f 62/62/62 58/58/58 60/60/60
f 54/54/54 61/61/61 62/62/62
f 60/60/60 37/37/37 63/63/63
f 62/62/62 60/60/60 63/63/63
f 54/54/54 62/62/62 64/64/64
f 64/64/64 62/62/62 63/63/63
f 37/37/37 65/65/65 63/63/63
f 65/65/65 37/37/37 66/66/66
f 67/67/67 65/65/65 66/66/66
f 68/68/68 65/65/65 67/67/67
f 63/63/63 65/65/65 68/68/68
f 69/69/69 68/68/68 67/67/67
f 70/70/70 63/63/63 68/68/68
f 70/70/70 68/68/68 69/69/69
f 64/64/64 63/63/63 70/70/70
f 71/71/71 70/70/70 69/69/69
f 72/72/72 70/70/70 71/71/71
f 72/72/72 64/64/64 70/70/70
f 73/73/73 72/72/72 71/71/71
f 72/72/72 73/73/73 74/74/74
f 75/75/75 72/72/72 74/74/74
f 64/64/64 72/72/72 75/75/75
f 75/75/75 74/74/74 76/76/76
f 77/77/77 64/64/64 75/75/75
f 77/77/77 75/75/75 76/76/76
f 77/77/77 54/54/54 64/64/64
f 77/77/77 76/76/76 78/78/78
f 54/54/54 77/77/77 78/78/78
f 81/81/81 80/80/80 79/79/79
f 79/79/79 80/80/80 82/82/82
f 83/83/83 79/79/79 82/82/82
f 84/84/84 83/83/83 82/82/82
f 85/85/85 84/84/84 82/82/82
f 86/86/86 84/84/84 85/85/85
f 87/87/87 86/86/86 85/85/85
f 87/87/87 88/88/88 86/86/86
f 91/91/91 90/90/90 89/89/89
f 91/91/91 89/89/89 92/92/92
f 89/89/89 93/93/93 92/92/92
f 93/93/93 94/94/94 92/92/92
f 94/94/94 95/95/95 92/92/92
f 94/94/94 96/96/96 95/95/95
f 96/96/96 97/97/97 95/95/95
f 98/98/98 97/97/97 96/96/96
f 101/101/101 100/100/100 99/99/99
f 99/99/99 100/100/100 102/102/102
f 100/100/100 101/101/101 103/103/103
f 104/104/104 102/102/102 100/100/100
f 105/105/105 100/100/100 103/103/103
f 106/106/106 104/104/104 100/100/100
f 107/107/107 100/100/100 105/105/105
f 106/106/106 100/100/100 108/108/108
f 109/109/109 100/100/100 107/107/107
f 108/108/108 100/100/100 110/110/110
f 111/111/111 100/100/100 109/109/109
f 110/110/110 100/100/100 111/111/111
f 114/114/114 113/113/113 112/112/112
f 114/114/114 112/112/112 115/115/115
f 113/113/113 114/114/114 116/116/116
f 115/115/115 117/117/117 114/114/114
f 114/114/114 118/118/118 116/116/116
f 117/117/117 119/119/119 114/114/114
f 114/114/114 120/120/120 118/118/118
f 114/114/114 119/119/119 121/121/121
f 114/114/114 122/122/122 120/120/120
f 114/114/114 121/121/121 123/123/123
f 114/114/114 124/124/124 122/122/122
f 114/114/114 123/123/123 124/124/124
f 127/127/127 126/126/126 125/125/125
f 128/128/128 127/127/127 125/125/125
f 127/127/127 129/129/129 126/126/126
f 128/128/128 125/125/125 130/130/130
f 125/125/125 126/126/126 130/130/130
f 131/131/131 128/128/128 130/130/130
f 132/132/132 129/129/129 131/131/131
f 129/129/129 132/132/132 126/126/126
f 130/130/130 132/132/132 131/131/131
f 126/126/126 132/132/132 130/130/130
f 135/135/135 134/134/134 133/133/133
f 136/136/136 135/135/135 133/133/133
f 137/137/137 135/135/135 136/136/136
f 133/133/133 134/134/134 138/138/138
f 136/136/136 133/133/133 138/138/138
f 134/134/134 139/139/139 138/138/138
f 137/137/137 140/140/140 139/139/139
f 140/140/140 137/137/137 136/136/136
f 140/140/140 138/138/138 139/139/139
f 140/140/140 136/136/136 138/138/138
