g Head
v 5.480313 18.36286 -1.749877
v 5.687595 15.48594 1.18534
v 5.707246 18.40992 1.004289
v 5.417932 15.74411 -1.723545
v 4.157784 18.17535 -3.611525
v 5.262603 12.97063 1.486615
v 4.055552 15.77221 -3.584519
v 1.482104 18.07785 -5.081789
v 4.989209 13.47633 -1.377829
v 3.141288 11.4255 0.4596916
v 1.536119 15.68009 -4.917831
v -1.482104 18.07785 -5.081789
v 3.681875 13.68871 -3.124401
v 2.631589 11.96996 -1.108914
v 1.482104 13.60688 -4.25802
v -1.536119 15.68009 -4.917831
v -1.482104 13.60688 -4.25802
v -4.055552 15.77221 -3.584519
v -4.157784 18.17535 -3.611525
v -2.631589 11.96996 -1.108914
v -3.681875 13.68871 -3.124401
v -5.417932 15.74411 -1.723545
v -5.480313 18.36286 -1.749877
v -4.989209 13.47633 -1.377829
v -5.687595 15.48594 1.18534
v -5.707246 18.40992 1.004289
v -5.262603 12.97063 1.486615
v -3.141288 11.4255 0.4596916
v 1.410441 11.00767 3.265981
v 3.559064 11.65494 2.785722
v 5.262603 12.97063 1.486615
v 4.338393 12.94179 3.399902
v 5.687595 15.48594 1.18534
v 4.792591 15.47777 3.415359
v 5.707246 18.40992 1.004289
v 4.825054 18.42631 3.443355
v 4.585008 21.0113 0.8011301
v -1.410441 11.00767 3.265981
v 1.404052 11.45172 4.051164
v 3.227403 12.02812 3.447853
v 1.244257 12.90112 4.617908
v -3.559064 11.65494 2.785722
v -5.262603 12.97063 1.486615
v -1.404052 11.45172 4.051164
v 1.428023 15.43399 4.81674
v -4.338393 12.94179 3.399902
v -5.687595 15.48594 1.18534
v -3.227403 12.02812 3.447853
v -1.244257 12.90112 4.617908
v -4.792591 15.47777 3.415359
v -5.707246 18.40992 1.004289
v -1.428023 15.43399 4.81674
v -4.825054 18.42631 3.443355
v -4.585008 21.0113 0.8011301
v 1.480885 18.38203 5.063975
v -1.480885 18.38203 5.063975
v 1.480889 21.15324 3.798195
v -1.480889 21.15324 3.798195
v 4.010039 20.32696 2.756238
v 1.480885 22.21597 0.71894
v -4.010039 20.32696 2.756238
v -1.480885 22.21597 0.71894
v 1.480889 21.92638 -1.9129
v -1.480889 21.92638 -1.9129
v 4.249383 20.67683 -1.689472
v 5.707246 18.40992 1.004289
v 5.480313 18.36286 -1.749877
v 3.747048 19.81083 -3.099465
v 4.157784 18.17535 -3.611525
v 1.480885 20.607 -3.971948
v 1.482104 18.07785 -5.081789
v -1.480885 20.607 -3.971948
v -1.482104 18.07785 -5.081789
v -4.157784 18.17535 -3.611525
v -3.747048 19.81083 -3.099465
v -5.480313 18.36286 -1.749877
v -4.249383 20.67683 -1.689472
v -5.707246 18.40992 1.004289
v -2.053795 14.98197 4.872783
v -2.71543 14.98847 4.758849
v -2.368715 15.11796 4.829395
v -2.816708 14.77213 4.717787
v -1.91065 14.76725 4.895547
v -1.882021 13.83187 4.820242
v -2.756183 13.82318 4.561145
v -1.999569 13.59268 4.76201
v -2.589476 13.59005 4.584456
v -2.314721 13.47779 4.676568
v 2.053795 14.98197 4.872783
v 2.368715 15.11796 4.829395
v 2.71543 14.98847 4.758849
v 2.816708 14.77213 4.717787
v 1.91065 14.76725 4.895547
v 1.882021 13.83187 4.820242
v 2.756183 13.82318 4.561145
v 1.999569 13.59268 4.76201
v 2.589476 13.59005 4.584456
v 2.314721 13.47779 4.676568
v -1.439687 12.97763 4.733583
v -2.892548 14.6304 4.504748
v -1.163789 14.40553 4.947547
v -2.318813 12.60907 4.298933
v -1.298937 15.52046 4.947532
v -2.971003 12.58773 4.03727
v -1.978124 16.1861 4.92018
v -3.761864 12.77458 3.805596
v -2.841926 16.71675 4.46334
v -4.37674 13.37843 3.671534
v -3.876906 16.69445 4.045248
v -4.697534 14.67898 3.525076
v -4.464673 16.07588 3.815183
v 1.439687 12.97763 4.733583
v 1.163789 14.40553 4.947547
v 2.892548 14.6304 4.504748
v 2.318813 12.60907 4.298933
v 1.298937 15.52046 4.947532
v 2.971003 12.58773 4.03727
v 1.978124 16.1861 4.92018
v 3.761864 12.77458 3.805596
v 2.841926 16.71675 4.46334
v 4.37674 13.37843 3.671534
v 3.876906 16.69445 4.045248
v 4.697534 14.67898 3.525076
v 4.464673 16.07588 3.815183
v 1.278774 18.18056 5.561766
v 1.398962 16.86604 5.420216
v 1.229705 16.93862 4.759925
v 1.101147 18.25224 4.910054
v 3.05214 17.38566 4.084031
v 2.976846 18.42313 4.8736
v 2.87536 18.49209 4.247217
v 3.143943 17.3129 4.745075
v -1.278774 18.18056 5.561766
v -1.101147 18.25224 4.910054
v -1.229705 16.93862 4.759925
v -1.398962 16.86604 5.420216
v -3.05214 17.38566 4.084031
v -2.976846 18.42313 4.8736
v -2.87536 18.49209 4.247217
v -3.143943 17.3129 4.745075
vt 0.7136014 0.1127765
vt 0.7511741 0.2626906
vt 0.806388 0.2047949
vt 0.6778586 0.1846653
vt 0.6498905 0.07058624
vt 0.703542 0.2999477
vt 0.6276971 0.1450727
vt 0.5543137 0.04544726
vt 0.6470239 0.2348455
vt 0.6135916 0.3280544
vt 0.5510314 0.125127
vt 0.4456863 0.04526386
vt 0.6085511 0.1974939
vt 0.5834585 0.2721329
vt 0.5481997 0.1820285
vt 0.4489686 0.1249436
vt 0.4518002 0.1818451
vt 0.3723029 0.1448893
vt 0.3501095 0.07040284
vt 0.4165415 0.2719495
vt 0.3914489 0.1973105
vt 0.3221414 0.1844819
vt 0.2863986 0.1125931
vt 0.3529761 0.2346622
vt 0.2488258 0.2625072
vt 0.193612 0.2046115
vt 0.296458 0.2997643
vt 0.3864084 0.327871
vt 0.5424587 0.3892379
vt 0.6057596 0.4005835
vt 0.6820759 0.4229971
vt 0.6261417 0.451493
vt 0.6943254 0.5101051
vt 0.637989 0.5188654
vt 0.7085248 0.6110786
vt 0.6517222 0.5969619
vt 0.6483175 0.7286507
vt 0.4577949 0.3871696
vt 0.5392969 0.4099297
vt 0.5960631 0.4196454
vt 0.534892 0.452441
vt 0.3942404 0.4004002
vt 0.3179241 0.4228137
vt 0.4606608 0.4084665
vt 0.5399859 0.5152444
vt 0.3738584 0.4513096
vt 0.3056746 0.5099217
vt 0.4039369 0.419462
vt 0.4649963 0.4519986
vt 0.362011 0.518682
vt 0.2914752 0.6108951
vt 0.4600333 0.5150781
vt 0.3482778 0.5967785
vt 0.3516825 0.7284673
vt 0.5425873 0.5870355
vt 0.457443 0.5865595
vt 0.540672 0.6583346
vt 0.4586782 0.6583346
vt 0.6221942 0.6565223
vt 0.5466367 0.7604134
vt 0.3778057 0.6563389
vt 0.4531307 0.7594185
vt 0.5434287 0.8600552
vt 0.4566604 0.8588347
vt 0.6305323 0.8601182
vt 0.7233315 0.7470469
vt 0.6929974 0.8869748
vt 0.6196104 0.9120182
vt 0.6508869 0.9539157
vt 0.5450239 0.933261
vt 0.5604263 0.9966401
vt 0.4554022 0.9312305
vt 0.4395737 0.9964567
vt 0.3491131 0.9537322
vt 0.3803896 0.9118348
vt 0.3070026 0.8867914
vt 0.3694677 0.8599347
vt 0.2766685 0.7468634
vt 0.1236107 0.0214109
vt 0.1244678 0.02137962
vt 0.1240115 0.02122551
vt 0.1246125 0.02165404
vt 0.1234321 0.02169032
vt 0.1234466 0.02289164
vt 0.1246121 0.02287949
vt 0.1236173 0.02319564
vt 0.1244046 0.02318349
vt 0.1240384 0.02333351
vt 0.1244486 0.02141074
vt 0.1240477 0.0212255
vt 0.1235914 0.02137978
vt 0.1234469 0.02165427
vt 0.1246273 0.02169009
vt 0.1246132 0.02289141
vt 0.1234477 0.02287971
vt 0.1244426 0.02319549
vt 0.1236553 0.02318364
vt 0.1240216 0.02333351
vt 0.03488706 0.02669907
vt 0.03488706 0.02669907
vt 0.03488706 0.02669907
vt 0.03488706 0.02669907
vt 0.03488706 0.02669907
vt 0.03488706 0.02669907
vt 0.03488706 0.02669907
vt 0.03488706 0.02669907
vt 0.03488706 0.02669907
vt 0.03488706 0.02669907
vt 0.03488706 0.02669907
vt 0.03488706 0.02669907
vt 0.03488706 0.02669907
vt 0.03488706 0.02669907
vt 0.03488706 0.02669907
vt 0.03488706 0.02669907
vt 0.03488706 0.02669907
vt 0.03488706 0.02669907
vt 0.03488706 0.02669907
vt 0.03488706 0.02669907
vt 0.03488706 0.02669907
vt 0.03488706 0.02669907
vt 0.03488706 0.02669907
vt 0.03488706 0.02669907
vt 0.03488706 0.02669907
vt 0.03488706 0.02669907
vt 0.1175656 0.02571144
vt 0.1172172 0.01807567
vt 0.1169674 0.01725905
vt 0.1172103 0.02715378
vt 0.1304232 0.01826026
vt 0.1287944 0.02631501
vt 0.1308891 0.02629146
vt 0.1283426 0.01892124
vt 0.1175656 0.02571144
vt 0.1172103 0.02715378
vt 0.1169674 0.01725905
vt 0.1172172 0.01807567
vt 0.1304232 0.01826026
vt 0.1287944 0.02631501
vt 0.1308891 0.02629146
vt 0.1283426 0.01892124
vn 0.9379099 0.1818188 -0.2954099
vn 0.9890611 -0.08570247 0.1200552
vn 0.9746398 0.1958434 0.1082707
vn 0.9400148 -0.1138974 -0.3215583
vn 0.6292323 0.14562 -0.7634537
vn 0.9000254 -0.433007 0.04959145
vn 0.6321394 -0.1402541 -0.7620555
vn 0.2150696 0.1683094 -0.9619859
vn 0.8257706 -0.46049 -0.325656
vn 0.229849 -0.9450291 -0.2325709
vn 0.2326774 -0.1673159 -0.9580536
vn -0.2150697 0.1683095 -0.9619859
vn 0.5577797 -0.4626116 -0.6891098
vn 0.1511286 -0.9061034 -0.3951415
vn 0.113334 -0.7056245 -0.6994637
vn -0.2326775 -0.167316 -0.9580535
vn -0.1133341 -0.7056245 -0.6994636
vn -0.6321394 -0.1402542 -0.7620555
vn -0.6292323 0.14562 -0.7634537
vn -0.1511286 -0.9061034 -0.3951416
vn -0.5577797 -0.4626116 -0.6891097
vn -0.9400148 -0.1138974 -0.3215584
vn -0.9379099 0.1818188 -0.2954099
vn -0.8257706 -0.46049 -0.3256561
vn -0.9890611 -0.08570247 0.1200551
vn -0.9746398 0.1958435 0.1082707
vn -0.9000254 -0.433007 0.04959135
vn -0.229849 -0.9450291 -0.232571
vn 0.04938628 -0.9986749 -0.01446403
vn 0.5287021 -0.819361 0.221634
vn 0.9000254 -0.433007 0.04959145
vn 0.6153313 -0.2114881 0.7593683
vn 0.9890611 -0.08570247 0.1200552
vn 0.6624523 -0.0675742 0.74605
vn 0.9746398 0.1958434 0.1082707
vn 0.6705596 0.1689238 0.7223673
vn 0.6550087 0.7502227 0.09016438
vn -0.04938627 -0.9986749 -0.01446407
vn 0.1661806 -0.5690991 0.8053013
vn 0.4587023 -0.5213787 0.7195529
vn 0.1898082 -0.171951 0.9666466
vn -0.528702 -0.8193612 0.2216339
vn -0.9000254 -0.433007 0.04959135
vn -0.1661806 -0.5690991 0.8053013
vn 0.2290663 -0.07392856 0.9705994
vn -0.6153312 -0.2114881 0.7593684
vn -0.9890611 -0.08570247 0.1200551
vn -0.4587022 -0.5213787 0.7195529
vn -0.1898082 -0.171951 0.9666467
vn -0.6624523 -0.06757422 0.7460501
vn -0.9746398 0.1958435 0.1082707
vn -0.2290662 -0.07392856 0.9705994
vn -0.6705597 0.1689238 0.7223672
vn -0.6550087 0.7502227 0.09016451
vn 0.2224831 0.1633344 0.9611572
vn -0.2224831 0.1633344 0.9611572
vn 0.1905979 0.7262503 0.6604792
vn -0.1905979 0.7262503 0.6604792
vn 0.5482504 0.624803 0.5559161
vn 0.1866309 0.9754214 0.1171418
vn -0.5482504 0.624803 0.5559161
vn -0.1866309 0.9754214 0.1171419
vn 0.1950169 0.9280212 -0.3174037
vn -0.195017 0.9280212 -0.3174038
vn 0.6398571 0.7119273 -0.2893827
vn 0.9746398 0.1958434 0.1082707
vn 0.9379099 0.1818188 -0.2954099
vn 0.5383191 0.5181265 -0.6646484
vn 0.6292323 0.14562 -0.7634537
vn 0.1886757 0.6210357 -0.760734
vn 0.2150696 0.1683094 -0.9619859
vn -0.1886757 0.6210358 -0.760734
vn -0.2150697 0.1683095 -0.9619859
vn -0.6292323 0.14562 -0.7634537
vn -0.538319 0.5181267 -0.6646484
vn -0.9379099 0.1818188 -0.2954099
vn -0.6398571 0.7119274 -0.2893827
vn -0.9746398 0.1958435 0.1082707
vn -0.1824292 -0.06036829 0.981364
vn -0.1824378 -0.06035463 0.9813632
vn -0.1699235 -0.0801301 0.9821941
vn -0.2294845 -0.1209305 0.9657705
vn -0.2304255 -0.1221878 0.9653881
vn -0.2419871 -0.1260591 0.9620558
vn -0.2414655 -0.1263805 0.9621446
vn -0.2839154 -0.09463789 0.9541675
vn -0.2839301 -0.09432159 0.9541945
vn -0.2876297 0.0791813 0.9544629
vn 0.1824291 -0.06036823 0.981364
vn 0.1699232 -0.08012997 0.9821941
vn 0.1824377 -0.06035456 0.9813633
vn 0.2294843 -0.1209304 0.9657706
vn 0.2304252 -0.1221877 0.9653881
vn 0.2419869 -0.1260591 0.9620559
vn 0.2414653 -0.1263804 0.9621447
vn 0.2839155 -0.09463792 0.9541675
vn 0.2839301 -0.09432164 0.9541945
vn 0.2876267 0.07918013 0.954464
vn -0.3160012 -0.148028 0.9371397
vn -0.3691906 -0.07849893 0.9260325
vn -0.2559081 -0.06861091 0.9642633
vn -0.3641446 -0.1960637 0.9104712
vn -0.2203839 -0.0886502 0.9713764
vn -0.3371296 -0.1977058 0.9204651
vn -0.3436928 -0.04841927 0.937833
vn -0.344053 -0.1855918 0.9204256
vn -0.4054492 0.02797166 0.9136895
vn -0.4301979 -0.08793891 0.8984412
vn -0.3796581 0.02481695 0.924794
vn -0.4773832 -0.06336435 0.8764076
vn -0.4342253 -0.04303194 0.8997759
vn 0.3160013 -0.1480279 0.9371397
vn 0.2559082 -0.06861091 0.9642633
vn 0.3691906 -0.07849893 0.9260325
vn 0.3641446 -0.1960637 0.9104712
vn 0.2203841 -0.08865025 0.9713764
vn 0.3371295 -0.1977057 0.9204652
vn 0.3436927 -0.0484193 0.937833
vn 0.344053 -0.1855917 0.9204256
vn 0.405449 0.02797166 0.9136896
vn 0.430198 -0.08793892 0.8984412
vn 0.3796579 0.02481695 0.9247941
vn 0.4773834 -0.06336436 0.8764075
vn 0.4342252 -0.04303196 0.899776
vn -0.04055917 0.3234812 0.945365
vn 0.07179051 -0.5619992 0.8240164
vn -0.3861559 -0.9223587 0.0117529
vn -0.618477 0.7474627 0.2424575
vn 0.6845107 -0.7044564 -0.18758
vn 0.4926918 0.4476481 0.7462345
vn 0.4775878 0.8780832 0.02966266
vn 0.6203126 -0.4828803 0.618093
vn 0.04055896 0.3234814 0.9453648
vn 0.6184769 0.747463 0.2424568
vn 0.3861558 -0.9223587 0.01175305
vn -0.07179078 -0.5619991 0.8240165
vn -0.6845108 -0.7044563 -0.1875802
vn -0.4926921 0.4476482 0.7462343
vn -0.4775879 0.8780831 0.02966163
vn -0.6203128 -0.4828801 0.6180928
g Head_0
f 3/3/3 2/2/2 1/1/1
f 2/2/2 4/4/4 1/1/1
f 1/1/1 4/4/4 5/5/5
f 2/2/2 6/6/6 4/4/4
f 4/4/4 7/7/7 5/5/5
f 5/5/5 7/7/7 8/8/8
f 6/6/6 9/9/9 4/4/4
f 4/4/4 9/9/9 7/7/7
f 6/6/6 10/10/10 9/9/9
f 7/7/7 11/11/11 8/8/8
f 12/12/12 8/8/8 11/11/11
f 9/9/9 13/13/13 7/7/7
f 7/7/7 13/13/13 11/11/11
f 14/14/14 13/13/13 9/9/9
f 10/10/10 14/14/14 9/9/9
f 13/13/13 15/15/15 11/11/11
f 13/13/13 14/14/14 15/15/15
f 16/16/16 12/12/12 11/11/11
f 16/16/16 11/11/11 15/15/15
f 17/17/17 15/15/15 14/14/14
f 17/17/17 16/16/16 15/15/15
f 16/16/16 18/18/18 12/12/12
f 18/18/18 19/19/19 12/12/12
f 20/20/20 17/17/17 14/14/14
f 20/20/20 14/14/14 10/10/10
f 17/17/17 21/21/21 16/16/16
f 21/21/21 18/18/18 16/16/16
f 20/20/20 21/21/21 17/17/17
f 18/18/18 22/22/22 19/19/19
f 22/22/22 23/23/23 19/19/19
f 21/21/21 24/24/24 18/18/18
f 21/21/21 20/20/20 24/24/24
f 24/24/24 22/22/22 18/18/18
f 22/22/22 25/25/25 23/23/23
f 25/25/25 26/26/26 23/23/23
f 27/27/27 25/25/25 22/22/22
f 24/24/24 27/27/27 22/22/22
f 28/28/28 27/27/27 24/24/24
f 20/20/20 28/28/28 24/24/24
f 28/28/28 20/20/20 10/10/10
f 28/28/28 10/10/10 29/29/29
f 10/10/10 30/30/30 29/29/29
f 10/10/10 31/31/31 30/30/30
f 31/31/31 32/32/32 30/30/30
f 32/32/32 31/31/31 33/33/33
f 34/34/34 32/32/32 33/33/33
f 34/34/34 33/33/33 35/35/35
f 36/36/36 34/34/34 35/35/35
f 35/35/35 37/37/37 36/36/36
f 38/38/38 28/28/28 29/29/29
f 29/29/29 30/30/30 39/39/39
f 38/38/38 29/29/29 39/39/39
f 32/32/32 40/40/40 30/30/30
f 30/30/30 40/40/40 39/39/39
f 40/40/40 32/32/32 41/41/41
f 41/41/41 32/32/32 34/34/34
f 39/39/39 40/40/40 41/41/41
f 42/42/42 28/28/28 38/38/38
f 43/43/43 28/28/28 42/42/42
f 44/44/44 38/38/38 39/39/39
f 44/44/44 39/39/39 41/41/41
f 42/42/42 38/38/38 44/44/44
f 45/45/45 41/41/41 34/34/34
f 45/45/45 34/34/34 36/36/36
f 46/46/46 43/43/43 42/42/42
f 43/43/43 46/46/46 47/47/47
f 48/48/48 42/42/42 44/44/44
f 48/48/48 46/46/46 42/42/42
f 49/49/49 44/44/44 41/41/41
f 48/48/48 44/44/44 49/49/49
f 46/46/46 48/48/48 49/49/49
f 49/49/49 41/41/41 45/45/45
f 46/46/46 50/50/50 47/47/47
f 46/46/46 49/49/49 50/50/50
f 47/47/47 50/50/50 51/51/51
f 52/52/52 49/49/49 45/45/45
f 49/49/49 52/52/52 50/50/50
f 50/50/50 53/53/53 51/51/51
f 50/50/50 52/52/52 53/53/53
f 54/54/54 51/51/51 53/53/53
f 52/52/52 45/45/45 55/55/55
f 55/55/55 45/45/45 36/36/36
f 56/56/56 52/52/52 55/55/55
f 52/52/52 56/56/56 53/53/53
f 55/55/55 36/36/36 57/57/57
f 56/56/56 55/55/55 57/57/57
f 53/53/53 56/56/56 58/58/58
f 58/58/58 56/56/56 57/57/57
f 36/36/36 59/59/59 57/57/57
f 37/37/37 59/59/59 36/36/36
f 57/57/57 59/59/59 60/60/60
f 58/58/58 57/57/57 60/60/60
f 59/59/59 37/37/37 60/60/60
f 61/61/61 53/53/53 58/58/58
f 61/61/61 54/54/54 53/53/53
f 61/61/61 58/58/58 62/62/62
f 62/62/62 58/58/58 60/60/60
f 54/54/54 61/61/61 62/62/62
f 60/60/60 37/37/37 63/63/63
f 62/62/62 60/60/60 63/63/63
f 54/54/54 62/62/62 64/64/64
f 64/64/64 62/62/62 63/63/63
f 37/37/37 65/65/65 63/63/63
f 65/65/65 37/37/37 66/66/66
f 67/67/67 65/65/65 66/66/66
f 68/68/68 65/65/65 67/67/67
f 63/63/63 65/65/65 68/68/68
f 69/69/69 68/68/68 67/67/67
f 70/70/70 63/63/63 68/68/68
f 70/70/70 68/68/68 69/69/69
f 64/64/64 63/63/63 70/70/70
f 71/71/71 70/70/70 69/69/69
f 72/72/72 70/70/70 71/71/71
f 72/72/72 64/64/64 70/70/70
f 73/73/73 72/72/72 71/71/71
f 72/72/72 73/73/73 74/74/74
f 75/75/75 72/72/72 74/74/74
f 64/64/64 72/72/72 75/75/75
f 75/75/75 74/74/74 76/76/76
f 77/77/77 64/64/64 75/75/75
f 77/77/77 75/75/75 76/76/76
f 77/77/77 54/54/54 64/64/64
f 77/77/77 76/76/76 78/78/78
f 54/54/54 77/77/77 78/78/78
f 81/81/81 80/80/80 79/79/79
f 79/79/79 80/80/80 82/82/82
f 83/83/83 79/79/79 82/82/82
f 84/84/84 83/83/83 82/82/82
f 85/85/85 84/84/84 82/82/82
f 86/86/86 84/84/84 85/85/85
f 87/87/87 86/86/86 85/85/85
f 87/87/87 88/88/88 86/86/86
f 91/91/91 90/90/90 89/89/89
f 91/91/91 89/89/89 92/92/92
f 89/89/89 93/93/93 92/92/92
f 93/93/93 94/94/94 92/92/92
f 94/94/94 95/95/95 92/92/92
f 94/94/94 96/96/96 95/95/95
f 96/96/96 97/97/97 95/95/95
f 98/98/98 97/97/97 96/96/96
f 101/101/101 100/100/100 99/99/99
f 99/99/99 100/100/100 102/102/102
f 100/100/100 101/101/101 103/103/103
f 104/104/104 102/102/102 100/100/100
f 105/105/105 100/100/100 103/103/103
f 106/106/106 104/104/104 100/100/100
f 107/107/107 100/100/100 105/105/105
f 106/106/106 100/100/100 108/108/108
f 109/109/109 100/100/100 107/107/107
f 108/108/108 100/100/100 110/110/110
f 111/111/111 100/100/100 109/109/109
f 110/110/110 100/100/100 111/111/111
f 114/114/114 113/113/113 112/112/112
f 114/114/114 112/112/112 115/115/115
f 113/113/113 114/114/114 116/116/116
f 115/115/115 117/117/117 114/114/114
f 114/114/114 118/118/118 116/116/116
f 117/117/117 119/119/119 114/114/114
f 114/114/114 120/120/120 118/118/118
f 114/114/114 119/119/119 121/121/121
f 114/114/114 122/122/122 120/120/120
f 114/114/114 121/121/121 123/123/123
f 114/114/114 124/124/124 122/122/122
f 114/114/114 123/123/123 124/124/124
f 127/127/127 126/126/126 125/125/125
f 128/128/128 127/127/127 125/125/125
f 127/127/127 129/129/129 126/126/126
f 128/128/128 125/125/125 130/130/130
f 125/125/125 126/126/126 130/130/130
f 131/131/131 128/128/128 130/130/130
f 132/132/132 129/129/129 131/131/131
f 129/129/129 132/132/132 126/126/126
f 130/130/130 132/132/132 131/131/131
f 126/126/126 132/132/132 130/130/130
f 135/135/135 134/134/134 133/133/133
f 136/136/136 135/135/135 133/133/133
f 137/137/137 135/135/135 136/136/136
f 133/133/133 134/134/134 138/138/138
f 136/136/136 133/133/133 138/138/138
f 134/134/134 139/139/139 138/138/138
f 137/137/137 140/140/140 139/139/139
f 140/140/140 137/137/137 136/136/136
f 140/140/140 138/138/138 139/139/139
f 140/140/140 136/136/136 138/138/138
