g HeadPatternLvl3
v 6.95817 12.3977 3.992667
v 7.045363 12.45748 3.463039
v 5.635054 10.71913 3.222575
v 5.567115 10.64907 3.758885
v -0.06087155 10.26435 4.716286
v 7.248414 14.07431 4.293956
v 7.045363 12.45748 3.463039
v 6.95817 12.3977 3.992667
v 7.342448 14.12449 3.770564
v 6.453242 16.07157 4.621104
v 6.614546 16.19116 4.112546
v 5.156974 18.35047 4.995128
v 5.394584 18.43982 4.463327
v 3.899455 19.69261 5.527092
v 3.656825 20.45137 5.238866
v 3.264739 20.23122 5.546051
v 3.026974 19.5021 5.997434
v 2.513972 21.04742 5.381472
v 1.60618 19.69618 6.548384
v 2.908954 21.19105 5.021433
v 1.611627 19.06952 6.86807
v 1.642534 21.72182 5.125527
v 1.715545 22.00554 4.58892
v -0.06087155 18.83698 7.335814
v -0.06087155 18.2084 7.57612
v -1.73337 19.06952 6.86807
v -1.727923 19.69618 6.548384
v -3.148717 19.5021 5.997434
v -0.06087155 22.50213 4.032772
v -0.06087155 22.79473 3.459418
v -1.837288 22.00554 4.58892
v -1.764277 21.72182 5.125527
v -3.030697 21.19105 5.021433
v -2.635715 21.04742 5.381472
v -3.386482 20.23122 5.546051
v -3.778568 20.45137 5.066049
v -4.021198 19.69261 5.527092
v -5.516327 18.43982 4.463327
v -5.278717 18.35047 4.995128
v -6.73629 16.19116 4.112546
v -6.574985 16.07157 4.621104
v -7.464191 14.12449 3.770564
v -7.370157 14.07431 4.293956
v -7.167106 12.45748 3.463039
v -7.079913 12.3977 3.992667
v 1.529267 21.29967 5.826835
v 2.129417 20.73601 5.932253
v 1.544804 20.34362 6.214978
v -0.06087155 19.53257 6.982355
v -0.06087155 21.4039 6.030843
v -0.06087155 22.06461 4.791647
v -1.65101 21.29967 5.826835
v -1.666547 20.34362 6.214978
v -2.25116 20.73601 5.932253
v -7.079913 12.3977 3.992667
v -5.869333 10.71913 3.222575
v -7.167106 12.45748 3.463039
v -5.801394 10.64907 3.758885
v -0.06087155 10.26435 4.716286
vt 0.7417958 0.8634834
vt 0.7419093 0.8638905
vt 0.7399446 0.8619656
vt 0.7398576 0.8615415
vt 0.7321893 0.8605465
vt 0.742233 0.8653107
vt 0.7419093 0.8638905
vt 0.7417958 0.8634834
vt 0.7423557 0.8657024
vt 0.7411981 0.8675234
vt 0.741414 0.8679885
vt 0.7394867 0.8700531
vt 0.7398057 0.8704953
vt 0.7378093 0.8713517
vt 0.7374919 0.8724536
vt 0.7369565 0.8719983
vt 0.7366219 0.8708351
vt 0.7359491 0.8730978
vt 0.7346966 0.8707387
vt 0.736486 0.8734942
vt 0.7346941 0.8697798
vt 0.7347729 0.8740859
vt 0.7348717 0.874768
vt 0.7324149 0.8692252
vt 0.732404 0.8683141
vt 0.7301342 0.8698257
vt 0.7301514 0.8707848
vt 0.7282031 0.8709201
vt 0.732454 0.8757447
vt 0.7324532 0.8764616
vt 0.7300286 0.8748167
vt 0.7301288 0.8741328
vt 0.728389 0.8735759
vt 0.7289289 0.8731686
vt 0.7278894 0.8720897
vt 0.7273536 0.8726654
vt 0.7270119 0.8714607
vt 0.7249318 0.8706454
vt 0.7252606 0.8701965
vt 0.723214 0.868172
vt 0.7234377 0.8677026
vt 0.7221709 0.8659059
vt 0.7223048 0.8655117
vt 0.7225347 0.8640861
vt 0.7226591 0.8636764
vt 0.7240081 0.8360961
vt 0.7209059 0.8386254
vt 0.7240365 0.8413526
vt 0.7325962 0.8469989
vt 0.7323681 0.8361157
vt 0.7322286 0.8294587
vt 0.74072 0.835746
vt 0.7409117 0.8409991
vt 0.7439253 0.8381431
vt 0.7226591 0.8636764
vt 0.7242618 0.8621237
vt 0.7225347 0.8640861
vt 0.7243598 0.8616977
vt 0.7321893 0.8605465
vn 0.8844219 -0.4587688 0.08560986
vn 0.8874055 -0.4526655 0.08721009
vn 0.4776777 -0.8775156 -0.04231231
vn 0.366573 -0.9280415 -0.06605463
vn 0.0467421 -0.9912367 -0.123552
vn 0.9685701 0.0962605 0.22936
vn 0.8874055 -0.4526655 0.08721009
vn 0.8844219 -0.4587688 0.08560986
vn 0.9726081 0.06817881 0.2222273
vn 0.8678797 0.3558137 0.3466718
vn 0.8712989 0.3519913 0.3419655
vn 0.7793458 0.4396556 0.446456
vn 0.7964501 0.425248 0.4299202
vn 0.6991388 0.470086 0.5387245
vn 0.5619679 0.5119258 0.6497108
vn 0.3788853 0.4631281 0.801223
vn 0.3767017 0.4071907 0.8320405
vn 0.3716168 0.6818757 0.6300369
vn 0.3198767 0.40713 0.8555256
vn 0.3742746 0.653557 0.6578616
vn 0.2588373 0.4046531 0.8770742
vn 0.2458046 0.8208168 0.5155966
vn 0.169058 0.8554252 0.4895579
vn 0 0.4081377 0.9129204
vn 0 0.4081376 0.9129204
vn -0.2588373 0.4046533 0.8770741
vn -0.3198766 0.40713 0.8555256
vn -0.3767015 0.4071906 0.8320407
vn 0 0.8847522 0.4660619
vn 0 0.8847522 0.4660619
vn -0.1690577 0.8554252 0.489558
vn -0.2458041 0.8208162 0.5155978
vn -0.4294257 0.646836 0.6302354
vn -0.4114203 0.6782948 0.6088098
vn -0.4307319 0.4830517 0.7623195
vn -0.6219606 0.5420488 0.565109
vn -0.7030085 0.5135761 0.4919539
vn -0.7940974 0.4453631 0.4135952
vn -0.7780799 0.4666657 0.4204934
vn -0.8712987 0.3519914 0.3419658
vn -0.8678796 0.3558138 0.3466721
vn -0.9726081 0.06817906 0.2222275
vn -0.9685699 0.09626075 0.2293602
vn -0.8982508 -0.4298083 0.09170726
vn -0.8959988 -0.4347553 0.09040976
vn 0.1724342 0.5081046 0.8438579
vn 0.1897589 0.3719792 0.908638
vn 0.1775157 0.4197296 0.8901209
vn 1.27859E-07 0.428989 0.9033097
vn 0 0.5883995 0.8085704
vn 0 0.8824096 0.4704818
vn -0.1724341 0.5081046 0.8438579
vn -0.1775156 0.4197297 0.8901209
vn -0.1897591 0.3719795 0.9086378
vn -0.8959988 -0.4347553 0.09040976
vn -0.4841549 -0.8740148 -0.04113599
vn -0.8982508 -0.4298083 0.09170726
vn -0.3702363 -0.9266252 -0.06550466
vn -0.04580734 -0.9912651 -0.1236734
g HeadPatternLvl3_0
f 3/3/3 2/2/2 1/1/1
f 4/4/4 3/3/3 1/1/1
f 4/4/4 5/5/5 3/3/3
f 8/8/8 7/7/7 6/6/6
f 7/7/7 9/9/9 6/6/6
f 6/6/6 9/9/9 10/10/10
f 9/9/9 11/11/11 10/10/10
f 10/10/10 11/11/11 12/12/12
f 11/11/11 13/13/13 12/12/12
f 12/12/12 13/13/13 14/14/14
f 13/13/13 15/15/15 14/14/14
f 15/15/15 16/16/16 14/14/14
f 16/16/16 17/17/17 14/14/14
f 16/16/16 15/15/15 18/18/18
f 16/16/16 19/19/19 17/17/17
f 15/15/15 20/20/20 18/18/18
f 19/19/19 21/21/21 17/17/17
f 18/18/18 20/20/20 22/22/22
f 20/20/20 23/23/23 22/22/22
f 19/19/19 24/24/24 21/21/21
f 24/24/24 25/25/25 21/21/21
f 25/25/25 24/24/24 26/26/26
f 24/24/24 27/27/27 26/26/26
f 26/26/26 27/27/27 28/28/28
f 29/29/29 22/22/22 23/23/23
f 30/30/30 29/29/29 23/23/23
f 29/29/29 30/30/30 31/31/31
f 32/32/32 29/29/29 31/31/31
f 31/31/31 33/33/33 32/32/32
f 33/33/33 34/34/34 32/32/32
f 27/27/27 35/35/35 28/28/28
f 33/33/33 36/36/36 34/34/34
f 36/36/36 35/35/35 34/34/34
f 28/28/28 35/35/35 37/37/37
f 35/35/35 36/36/36 37/37/37
f 36/36/36 38/38/38 37/37/37
f 38/38/38 39/39/39 37/37/37
f 38/38/38 40/40/40 39/39/39
f 40/40/40 41/41/41 39/39/39
f 40/40/40 42/42/42 41/41/41
f 42/42/42 43/43/43 41/41/41
f 42/42/42 44/44/44 43/43/43
f 44/44/44 45/45/45 43/43/43
f 48/48/48 47/47/47 46/46/46
f 48/48/48 46/46/46 49/49/49
f 46/46/46 50/50/50 49/49/49
f 46/46/46 51/51/51 50/50/50
f 51/51/51 52/52/52 50/50/50
f 50/50/50 52/52/52 49/49/49
f 52/52/52 53/53/53 49/49/49
f 54/54/54 53/53/53 52/52/52
f 57/57/57 56/56/56 55/55/55
f 56/56/56 58/58/58 55/55/55
f 59/59/59 58/58/58 56/56/56
