g HeadBandLVL1
v 1.562319 21.66238 1.893149
v 0 21.05761 3.811908
v 0 21.65402 1.901561
v 1.562321 21.05761 3.811908
v 4.639991 20.80989 0.9920043
v 0 19.18881 5.237722
v 4.277131 20.31064 2.960289
v 5.189696 19.08223 1.819901
v 4.724927 18.64521 3.826051
v 5.2615 18.45424 2.442847
v 5.039454 17.56164 3.738255
v 1.621486 18.18327 5.271544
v 1.583956 19.18881 5.237722
v 0 18.18327 5.271544
v -5.798072 18.26328 1.059643
v -4.639991 20.80989 0.9920043
v -5.189696 19.08223 1.819901
v -5.2615 18.45424 2.442847
v -5.039454 17.56164 3.738255
v -6.010568 16.98063 1.178054
v -0.009833965 16.27037 0.1940569
v -1.621486 18.18327 5.271544
v -5.835352 15.60851 -1.932706
v 0 18.18327 5.271544
v -4.096962 14.47737 -3.738677
v 1.621486 18.18327 5.271544
v -1.602445 14.05937 -4.893319
v 1.602445 14.05937 -4.893319
v 4.096962 14.77603 -3.738677
v 5.835352 15.60851 -1.932706
v 6.010568 16.98063 1.178054
v 5.039454 17.56164 3.738255
v 5.798072 18.26328 1.059643
v 5.2615 18.45424 2.442847
v 5.189696 19.08223 1.819901
v 4.639991 20.80989 0.9920043
v -5.798072 18.26328 1.059643
v -6.010568 16.98063 1.178054
v -5.835352 15.60851 -1.932706
v -5.873501 16.996 -1.894935
v -4.096962 14.47737 -3.738677
v -5.514917 18.42467 -1.861689
v -4.639991 20.80989 0.9920043
v -0.007758306 18.84001 -1.475856
v -1.562319 21.64565 1.909973
v 0 21.65402 1.901561
v 1.562319 21.66238 1.893149
v 4.639991 20.80989 0.9920043
v -4.276725 15.96653 -3.889787
v -1.602445 14.05937 -4.893319
v -4.255638 17.05569 -3.895008
v -1.552345 15.05124 -5.379518
v 1.602445 14.05937 -4.893319
v -1.59046 15.91789 -5.132104
v 1.548788 15.05124 -5.386056
v 4.096962 14.77603 -3.738677
v 1.59046 15.91789 -5.132104
v 4.28462 15.96654 -3.890635
v 5.835352 15.60851 -1.932706
v 4.255638 16.91784 -3.683854
v 5.874021 17.0325 -1.89504
v 6.010568 16.98063 1.178054
v 5.798072 18.26328 1.059643
v 5.514917 18.42467 -1.861689
v -1.583956 19.18881 5.237722
v -1.621486 18.18327 5.271544
v -5.039454 17.56164 3.738255
v 0 18.18327 5.271544
v 0 19.18881 5.237722
v -4.724927 18.64521 3.826051
v -5.2615 18.45424 2.442847
v -5.189696 19.08223 1.819901
v -1.562321 21.05761 3.811908
v 0 21.05761 3.811908
v 0 21.65402 1.901561
v -1.562319 21.64565 1.909973
v -4.277131 20.31064 2.960289
v -4.639991 20.80989 0.9920043
vt 0.3893928 0.8402349
vt 0.4063063 0.8054511
vt 0.4063054 0.839995
vt 0.3893936 0.8054503
vt 0.3560755 0.8390077
vt 0.406307 0.7576695
vt 0.3600045 0.8051971
vt 0.3501252 0.801334
vt 0.3551573 0.767983
vt 0.3493482 0.7833707
vt 0.3517525 0.752403
vt 0.3887538 0.7416818
vt 0.3891601 0.7576686
vt 0.406307 0.7416827
vt 0.6118419 0.8284779
vt 0.6109264 0.8344895
vt 0.6113588 0.8302464
vt 0.6114143 0.828636
vt 0.6112378 0.8262578
vt 0.6120134 0.8254275
vt 0.6073439 0.823871
vt 0.6085603 0.8273623
vt 0.6119025 0.8228271
vt 0.6072959 0.82734
vt 0.6105636 0.8205049
vt 0.6060316 0.8273177
vt 0.6086276 0.8197218
vt 0.6061286 0.8196778
vt 0.6041729 0.8210976
vt 0.6028023 0.8226667
vt 0.60264 0.8252624
vt 0.6033788 0.8261193
vt 0.6027999 0.8283185
vt 0.603209 0.8284914
vt 0.6032656 0.8301038
vt 0.6036904 0.8343619
vt 0.6118419 0.8284779
vt 0.6120134 0.8254275
vt 0.6119025 0.8228271
vt 0.6119249 0.8260962
vt 0.6105636 0.8205049
vt 0.6116379 0.8294581
vt 0.6109264 0.8344895
vt 0.6073393 0.8302835
vt 0.6085169 0.8362312
vt 0.6072986 0.8362312
vt 0.6060805 0.8362313
vt 0.6036904 0.8343619
vt 0.6106972 0.824055
vt 0.6086276 0.8197218
vt 0.6106752 0.8266277
vt 0.6085864 0.8221637
vt 0.6061286 0.8196778
vt 0.6086102 0.8241596
vt 0.6061683 0.8221224
vt 0.6041729 0.8210976
vt 0.6061299 0.8241159
vt 0.6040215 0.8239375
vt 0.6028023 0.8226667
vt 0.604038 0.8261417
vt 0.6027647 0.826021
vt 0.60264 0.8252624
vt 0.6027999 0.8283185
vt 0.6030375 0.8293064
vt 0.3891601 0.7576686
vt 0.3887538 0.7416818
vt 0.3517525 0.752403
vt 0.406307 0.7416827
vt 0.406307 0.7576695
vt 0.3551573 0.767983
vt 0.3493482 0.7833707
vt 0.3501252 0.801334
vt 0.3893936 0.8054503
vt 0.4063063 0.8054511
vt 0.4063054 0.839995
vt 0.3893928 0.8402349
vt 0.3600045 0.8051971
vt 0.3560755 0.8390077
vn 0.1379749 0.9672026 -0.2132655
vn -0.0008430632 0.8036023 0.5951661
vn -0.005456549 0.9755509 -0.219706
vn 0.2526471 0.7696783 0.5863146
vn 0.3419742 0.8653983 -0.3662503
vn 0 0.450579 0.8927366
vn 0.4786472 0.7086663 0.5183521
vn 0.8763421 0.394724 0.2760751
vn 0.5386848 0.3507562 0.7660214
vn 0.9088365 0.2850196 0.3045983
vn 0.2159847 -0.8519272 0.4770435
vn 0.1020159 -0.7668182 0.6337054
vn 0.2772264 0.4127836 0.8676147
vn 0 -0.7890809 0.6142895
vn -0.9634041 0.2666498 0.02739336
vn -0.3416427 0.8654234 -0.3665004
vn -0.8763421 0.394724 0.2760752
vn -0.9088365 0.2850195 0.3045984
vn -0.2163249 -0.8516027 0.4774688
vn -0.4591436 -0.8233545 0.3335781
vn 0.004032564 -0.9283854 0.3715971
vn -0.102202 -0.7664539 0.6341161
vn -0.4764865 -0.8541485 0.2083049
vn 0 -0.7890809 0.6142895
vn -0.3134624 -0.9480918 0.05350894
vn 0.1020159 -0.7668182 0.6337054
vn -0.1125637 -0.9924811 -0.04806986
vn 0.1398336 -0.9901727 -0.002122378
vn 0.3217098 -0.9460851 0.03776073
vn 0.4438715 -0.8747625 0.1943413
vn 0.4608606 -0.8225545 0.3331839
vn 0.2159847 -0.8519272 0.4770435
vn 0.963445 0.2664301 0.02808234
vn 0.9088365 0.2850196 0.3045983
vn 0.8763421 0.394724 0.2760751
vn 0.3419742 0.8653983 -0.3662503
vn -0.9634041 0.2666498 0.02739336
vn -0.4591436 -0.8233545 0.3335781
vn -0.4764865 -0.8541485 0.2083049
vn -0.9436533 0.1436348 -0.2981399
vn -0.3134624 -0.9480918 0.05350894
vn -0.5221528 0.6889437 -0.5027057
vn -0.3416427 0.8654234 -0.3665004
vn 0.006783132 0.7759549 -0.6307519
vn -0.137605 0.9676828 -0.2113169
vn -0.005456549 0.9755509 -0.219706
vn 0.1379749 0.9672026 -0.2132655
vn 0.3419742 0.8653983 -0.3662503
vn -0.6381812 -0.03211382 -0.7692161
vn -0.1125637 -0.9924811 -0.04806986
vn -0.2556734 0.6364521 -0.7277087
vn -0.2372686 -0.1282264 -0.9629443
vn 0.1398336 -0.9901727 -0.002122378
vn -0.07796644 0.6107275 -0.7879931
vn 0.2288767 -0.1169328 -0.9664069
vn 0.3217098 -0.9460851 0.03776073
vn 0.09661811 0.6374083 -0.7644447
vn 0.6257499 2.11511E-05 -0.7800238
vn 0.4438715 -0.8747625 0.1943413
vn 0.2500286 0.6349514 -0.7309735
vn 0.9424841 0.1620572 -0.2923373
vn 0.4608606 -0.8225545 0.3331839
vn 0.963445 0.2664301 0.02808234
vn 0.5076936 0.6866354 -0.5203643
vn -0.2772265 0.4127835 0.8676147
vn -0.102202 -0.7664539 0.6341161
vn -0.2163249 -0.8516027 0.4774688
vn 0 -0.7890809 0.6142895
vn 0 0.450579 0.8927366
vn -0.5386848 0.3507562 0.7660214
vn -0.9088365 0.2850195 0.3045984
vn -0.8763421 0.394724 0.2760752
vn -0.2526953 0.7698189 0.5861092
vn -0.0008430632 0.8036023 0.5951661
vn -0.005456549 0.9755509 -0.219706
vn -0.137605 0.9676828 -0.2113169
vn -0.4783126 0.7090483 0.5181386
vn -0.3416427 0.8654234 -0.3665004
g HeadBandLVL1_0
f 3/3/3 2/2/2 1/1/1
f 2/2/2 4/4/4 1/1/1
f 1/1/1 4/4/4 5/5/5
f 2/2/2 6/6/6 4/4/4
f 4/4/4 7/7/7 5/5/5
f 8/8/8 5/5/5 7/7/7
f 8/8/8 7/7/7 9/9/9
f 9/9/9 7/7/7 4/4/4
f 10/10/10 8/8/8 9/9/9
f 10/10/10 9/9/9 11/11/11
f 12/12/12 11/11/11 9/9/9
f 6/6/6 13/13/13 4/4/4
f 13/13/13 9/9/9 4/4/4
f 13/13/13 12/12/12 9/9/9
f 6/6/6 14/14/14 13/13/13
f 14/14/14 12/12/12 13/13/13
f 17/17/17 16/16/16 15/15/15
f 18/18/18 17/17/17 15/15/15
f 19/19/19 18/18/18 15/15/15
f 20/20/20 19/19/19 15/15/15
f 19/19/19 20/20/20 21/21/21
f 22/22/22 19/19/19 21/21/21
f 20/20/20 23/23/23 21/21/21
f 24/24/24 22/22/22 21/21/21
f 23/23/23 25/25/25 21/21/21
f 24/24/24 21/21/21 26/26/26
f 25/25/25 27/27/27 21/21/21
f 21/21/21 27/27/27 28/28/28
f 21/21/21 28/28/28 29/29/29
f 21/21/21 29/29/29 30/30/30
f 21/21/21 30/30/30 31/31/31
f 21/21/21 32/32/32 26/26/26
f 21/21/21 31/31/31 32/32/32
f 32/32/32 31/31/31 33/33/33
f 34/34/34 32/32/32 33/33/33
f 34/34/34 33/33/33 35/35/35
f 35/35/35 33/33/33 36/36/36
f 39/39/39 38/38/38 37/37/37
f 40/40/40 39/39/39 37/37/37
f 41/41/41 39/39/39 40/40/40
f 42/42/42 40/40/40 37/37/37
f 43/43/43 42/42/42 37/37/37
f 42/42/42 43/43/43 44/44/44
f 43/43/43 45/45/45 44/44/44
f 44/44/44 45/45/45 46/46/46
f 44/44/44 46/46/46 47/47/47
f 44/44/44 47/47/47 48/48/48
f 49/49/49 41/41/41 40/40/40
f 50/50/50 41/41/41 49/49/49
f 42/42/42 51/51/51 40/40/40
f 51/51/51 42/42/42 44/44/44
f 51/51/51 49/49/49 40/40/40
f 52/52/52 50/50/50 49/49/49
f 53/53/53 50/50/50 52/52/52
f 49/49/49 51/51/51 54/54/54
f 52/52/52 49/49/49 54/54/54
f 54/54/54 51/51/51 44/44/44
f 55/55/55 53/53/53 52/52/52
f 55/55/55 52/52/52 54/54/54
f 56/56/56 53/53/53 55/55/55
f 57/57/57 55/55/55 54/54/54
f 54/54/54 44/44/44 57/57/57
f 58/58/58 56/56/56 55/55/55
f 58/58/58 55/55/55 57/57/57
f 59/59/59 56/56/56 58/58/58
f 44/44/44 60/60/60 57/57/57
f 60/60/60 58/58/58 57/57/57
f 61/61/61 59/59/59 58/58/58
f 58/58/58 60/60/60 61/61/61
f 62/62/62 59/59/59 61/61/61
f 63/63/63 62/62/62 61/61/61
f 44/44/44 64/64/64 60/60/60
f 60/60/60 64/64/64 61/61/61
f 61/61/61 64/64/64 63/63/63
f 44/44/44 48/48/48 64/64/64
f 64/64/64 48/48/48 63/63/63
f 67/67/67 66/66/66 65/65/65
f 65/65/65 66/66/66 68/68/68
f 69/69/69 65/65/65 68/68/68
f 70/70/70 67/67/67 65/65/65
f 67/67/67 70/70/70 71/71/71
f 71/71/71 70/70/70 72/72/72
f 73/73/73 65/65/65 69/69/69
f 70/70/70 65/65/65 73/73/73
f 74/74/74 73/73/73 69/69/69
f 73/73/73 74/74/74 75/75/75
f 76/76/76 73/73/73 75/75/75
f 70/70/70 77/77/77 72/72/72
f 77/77/77 70/70/70 73/73/73
f 77/77/77 73/73/73 76/76/76
f 72/72/72 77/77/77 78/78/78
f 78/78/78 77/77/77 76/76/76
