g HeadPatternLvl5
v -6.207867 27.24578 -0.2259753
v -2.307646 23.18038 2.090217
v -3.950854 22.23945 2.783783
v -6.207867 27.24578 -0.2259753
v -4.799451 21.56537 1.01356
v -3.197796 22.61863 -0.060836
v -6.207867 27.24578 -0.2259753
v -3.950854 22.23945 2.783783
v -4.799451 21.56537 1.01356
v -6.207867 27.24578 -0.2259753
v -3.197796 22.61863 -0.060836
v -2.307646 23.18038 2.090217
v 6.097411 27.24578 -0.2259753
v 3.840398 22.23945 2.783783
v 2.197189 23.18038 2.090217
v 6.097411 27.24578 -0.2259753
v 3.08734 22.61863 -0.060836
v 4.688995 21.56537 1.01356
v 6.097411 27.24578 -0.2259753
v 4.688995 21.56537 1.01356
v 3.840398 22.23945 2.783783
v 6.097411 27.24578 -0.2259753
v 2.197189 23.18038 2.090217
v 3.08734 22.61863 -0.060836
v 6.95817 12.3977 3.992667
v 7.045363 12.45748 3.463039
v 5.635054 10.71913 3.222575
v 5.567115 10.64907 3.758885
v -0.06087155 10.26435 4.716286
v 7.248414 14.07431 4.293956
v 7.045363 12.45748 3.463039
v 6.95817 12.3977 3.992667
v 7.342448 14.12449 3.770564
v 6.453242 16.07157 4.621104
v 6.614546 16.19116 4.112546
v 5.156974 18.35047 4.995128
v 5.394584 18.43982 4.463327
v 3.899455 19.69261 5.527092
v 3.656825 20.45137 5.238866
v 3.264739 20.23122 5.546051
v 3.026974 19.5021 5.997434
v 2.513972 21.04742 5.381472
v 1.60618 19.69618 6.548384
v 2.908954 21.19105 5.021433
v 1.611627 19.06952 6.86807
v 1.642534 21.72182 5.125527
v 1.715545 22.00554 4.58892
v -0.06087155 18.83698 7.335814
v -0.06087155 18.2084 7.57612
v -1.73337 19.06952 6.86807
v -1.727923 19.69618 6.548384
v -3.148717 19.5021 5.997434
v -0.06087155 22.50213 4.032772
v -0.06087155 22.79473 3.459418
v -1.837288 22.00554 4.58892
v -1.764277 21.72182 5.125527
v -3.030697 21.19105 5.021433
v -2.635715 21.04742 5.381472
v -3.386482 20.23122 5.546051
v -3.778568 20.45137 5.066049
v -4.021198 19.69261 5.527092
v -5.516327 18.43982 4.463327
v -5.278717 18.35047 4.995128
v -6.73629 16.19116 4.112546
v -6.574985 16.07157 4.621104
v -7.464191 14.12449 3.770564
v -7.370157 14.07431 4.293956
v -7.167106 12.45748 3.463039
v -7.079913 12.3977 3.992667
v 1.529267 21.29967 5.826835
v 2.129417 20.73601 5.932253
v 1.544804 20.34362 6.214978
v -0.06087155 19.53257 6.982355
v -0.06087155 21.4039 6.030843
v -0.06087155 22.06461 4.791647
v -1.65101 21.29967 5.826835
v -1.666547 20.34362 6.214978
v -2.25116 20.73601 5.932253
v -7.079913 12.3977 3.992667
v -5.869333 10.71913 3.222575
v -7.167106 12.45748 3.463039
v -5.801394 10.64907 3.758885
v -0.06087155 10.26435 4.716286
v -3.902217 22.15976 -0.7069904
v -2.844864 22.95099 -1.27016
v -3.049556 22.78624 -0.7368923
v -2.278348 23.27876 0.02884689
v -3.921993 22.18333 -0.1959206
v -2.297813 23.27526 1.111582
v -1.973377 23.28733 1.83438
v -1.500142 23.42486 1.795262
v -4.745884 21.48952 -0.1199711
v -4.780665 21.54419 0.4245614
v -1.705208 23.23997 2.30444
v -1.105661 23.18878 2.451652
v -2.163672 22.67348 3.098765
v -2.249241 22.93037 2.613338
v -3.734343 21.48182 3.841777
v -3.853317 21.75033 3.322654
v -5.222728 21.04391 0.8411481
v -5.537142 20.40762 0.6215079
v -4.663976 21.44155 2.841916
v -5.106011 21.34059 2.254282
v -4.701869 21.71509 2.328362
v -4.859207 21.61694 2.017395
v -4.864452 21.62011 2.306467
v 3.79176 22.15976 -0.7069904
v 2.9391 22.78624 -0.7368923
v 2.734408 22.95099 -1.27016
v 2.167892 23.27876 0.02884689
v 3.811537 22.18333 -0.1959206
v 2.187356 23.27526 1.111582
v 1.862921 23.28733 1.83438
v 1.389686 23.42486 1.795262
v 4.635428 21.48952 -0.1199711
v 4.670208 21.54419 0.4245614
v 1.594752 23.23997 2.30444
v 0.9952047 23.18878 2.451652
v 2.053216 22.67348 3.098765
v 2.138785 22.93037 2.613338
v 3.623887 21.48182 3.841777
v 3.742861 21.75033 3.322654
v 5.112272 21.04391 0.8411481
v 5.426686 20.40762 0.6215079
v 4.55352 21.44155 2.841916
v 4.995555 21.34059 2.254282
v 4.591413 21.71509 2.328362
v 4.748751 21.61694 2.017395
v 4.753996 21.62011 2.306467
vt 0.79517 0.9898123
vt 0.8341473 0.7987441
vt 0.7551668 0.7987549
vt 0.7951701 0.9898124
vt 0.8341473 0.7987441
vt 0.7551669 0.7987549
vt 0.79517 0.9898124
vt 0.8341473 0.7987441
vt 0.7551668 0.798755
vt 0.7951701 0.9898124
vt 0.8341473 0.7987441
vt 0.7551669 0.7987549
vt 0.79517 0.9898123
vt 0.7551668 0.7987549
vt 0.8341473 0.7987441
vt 0.7951701 0.9898124
vt 0.7551669 0.7987549
vt 0.8341473 0.7987441
vt 0.79517 0.9898124
vt 0.7551668 0.798755
vt 0.8341473 0.7987441
vt 0.7951701 0.9898124
vt 0.7551669 0.7987549
vt 0.8341473 0.7987441
vt 0.7417958 0.8634834
vt 0.7419093 0.8638905
vt 0.7399446 0.8619656
vt 0.7398576 0.8615415
vt 0.7321893 0.8605465
vt 0.742233 0.8653107
vt 0.7419093 0.8638905
vt 0.7417958 0.8634834
vt 0.7423557 0.8657024
vt 0.7411981 0.8675234
vt 0.741414 0.8679885
vt 0.7394867 0.8700531
vt 0.7398057 0.8704953
vt 0.7378093 0.8713517
vt 0.7374919 0.8724536
vt 0.7369565 0.8719983
vt 0.7366219 0.8708351
vt 0.7359491 0.8730978
vt 0.7346966 0.8707387
vt 0.736486 0.8734942
vt 0.7346941 0.8697798
vt 0.7347729 0.8740859
vt 0.7348717 0.874768
vt 0.7324149 0.8692252
vt 0.732404 0.8683141
vt 0.7301342 0.8698257
vt 0.7301514 0.8707848
vt 0.7282031 0.8709201
vt 0.732454 0.8757447
vt 0.7324532 0.8764616
vt 0.7300286 0.8748167
vt 0.7301288 0.8741328
vt 0.728389 0.8735759
vt 0.7289289 0.8731686
vt 0.7278894 0.8720897
vt 0.7273536 0.8726654
vt 0.7270119 0.8714607
vt 0.7249318 0.8706454
vt 0.7252606 0.8701965
vt 0.723214 0.868172
vt 0.7234377 0.8677026
vt 0.7221709 0.8659059
vt 0.7223048 0.8655117
vt 0.7225347 0.8640861
vt 0.7226591 0.8636764
vt 0.7240081 0.8360961
vt 0.7209059 0.8386254
vt 0.7240365 0.8413526
vt 0.7325962 0.8469989
vt 0.7323681 0.8361157
vt 0.7322286 0.8294587
vt 0.74072 0.835746
vt 0.7409117 0.8409991
vt 0.7439253 0.8381431
vt 0.7226591 0.8636764
vt 0.7242618 0.8621237
vt 0.7225347 0.8640861
vt 0.7243598 0.8616977
vt 0.7321893 0.8605465
vt 0.730162 0.8160805
vt 0.7329429 0.8182113
vt 0.7326397 0.8168024
vt 0.735256 0.8155579
vt 0.7304507 0.8148999
vt 0.7358479 0.8130268
vt 0.7369467 0.8114387
vt 0.7380528 0.8117507
vt 0.7279767 0.8140332
vt 0.7282923 0.8127915
vt 0.7377101 0.8103842
vt 0.738953 0.8101695
vt 0.7365558 0.8080281
vt 0.7364092 0.8093086
vt 0.7323501 0.8050697
vt 0.7321299 0.8064277
vt 0.7270299 0.8113647
vt 0.7254879 0.8113638
vt 0.7298242 0.8071205
vt 0.7284577 0.8083023
vt 0.7297783 0.8084909
vt 0.7291564 0.8091069
vt 0.7293195 0.8084338
vt 0.730162 0.8160805
vt 0.7326397 0.8168024
vt 0.7329429 0.8182113
vt 0.735256 0.8155579
vt 0.7304507 0.8148999
vt 0.7358479 0.8130268
vt 0.7369467 0.8114387
vt 0.7380528 0.8117507
vt 0.7279767 0.8140332
vt 0.7282923 0.8127915
vt 0.7377101 0.8103842
vt 0.738953 0.8101695
vt 0.7365558 0.8080281
vt 0.7364092 0.8093086
vt 0.7323501 0.8050697
vt 0.7321299 0.8064277
vt 0.7270299 0.8113647
vt 0.7254879 0.8113638
vt 0.7298242 0.8071205
vt 0.7284577 0.8083023
vt 0.7297783 0.8084909
vt 0.7291564 0.8091069
vt 0.7293195 0.8084338
vn -0.3703693 0.8779576 -0.303343
vn 0.5436698 0.7434672 0.3894609
vn -0.506307 0.2650782 0.8206014
vn -0.3703693 0.8779576 -0.303343
vn -0.9510022 -0.2690397 -0.1523558
vn 0.3045153 0.1646116 -0.9381756
vn -0.3703693 0.8779576 -0.303343
vn -0.506307 0.2650782 0.8206014
vn -0.9510022 -0.2690397 -0.1523558
vn -0.3703693 0.8779576 -0.303343
vn 0.3045153 0.1646116 -0.9381756
vn 0.5436698 0.7434672 0.3894609
vn 0.3703711 0.8779568 -0.3033432
vn 0.5063071 0.2650782 0.8206013
vn -0.5436696 0.743467 0.3894615
vn 0.3703711 0.8779568 -0.3033432
vn -0.3045151 0.1646114 -0.9381757
vn 0.9510021 -0.2690398 -0.1523569
vn 0.3703711 0.8779568 -0.3033432
vn 0.9510021 -0.2690398 -0.1523569
vn 0.5063071 0.2650782 0.8206013
vn 0.3703711 0.8779568 -0.3033432
vn -0.5436696 0.743467 0.3894615
vn -0.3045151 0.1646114 -0.9381757
vn 0.8844219 -0.4587688 0.08560986
vn 0.8874055 -0.4526655 0.08721009
vn 0.4776777 -0.8775156 -0.04231231
vn 0.366573 -0.9280415 -0.06605463
vn 0.0467421 -0.9912367 -0.123552
vn 0.9685701 0.0962605 0.22936
vn 0.8874055 -0.4526655 0.08721009
vn 0.8844219 -0.4587688 0.08560986
vn 0.9726081 0.06817881 0.2222273
vn 0.8678797 0.3558137 0.3466718
vn 0.8712989 0.3519913 0.3419655
vn 0.7793458 0.4396556 0.446456
vn 0.7964501 0.425248 0.4299202
vn 0.6991388 0.470086 0.5387245
vn 0.5619679 0.5119258 0.6497108
vn 0.3788853 0.4631281 0.801223
vn 0.3767017 0.4071907 0.8320405
vn 0.3716168 0.6818757 0.6300369
vn 0.3198767 0.40713 0.8555256
vn 0.3742746 0.653557 0.6578616
vn 0.2588373 0.4046531 0.8770742
vn 0.2458046 0.8208168 0.5155966
vn 0.169058 0.8554252 0.4895579
vn 0 0.4081377 0.9129204
vn 0 0.4081376 0.9129204
vn -0.2588373 0.4046533 0.8770741
vn -0.3198766 0.40713 0.8555256
vn -0.3767015 0.4071906 0.8320407
vn 0 0.8847522 0.4660619
vn 0 0.8847522 0.4660619
vn -0.1690577 0.8554252 0.489558
vn -0.2458041 0.8208162 0.5155978
vn -0.4294257 0.646836 0.6302354
vn -0.4114203 0.6782948 0.6088098
vn -0.4307319 0.4830517 0.7623195
vn -0.6219606 0.5420488 0.565109
vn -0.7030085 0.5135761 0.4919539
vn -0.7940974 0.4453631 0.4135952
vn -0.7780799 0.4666657 0.4204934
vn -0.8712987 0.3519914 0.3419658
vn -0.8678796 0.3558138 0.3466721
vn -0.9726081 0.06817906 0.2222275
vn -0.9685699 0.09626075 0.2293602
vn -0.8982508 -0.4298083 0.09170726
vn -0.8959988 -0.4347553 0.09040976
vn 0.1724342 0.5081046 0.8438579
vn 0.1897589 0.3719792 0.908638
vn 0.1775157 0.4197296 0.8901209
vn 1.27859E-07 0.428989 0.9033097
vn 0 0.5883995 0.8085704
vn 0 0.8824096 0.4704818
vn -0.1724341 0.5081046 0.8438579
vn -0.1775156 0.4197297 0.8901209
vn -0.1897591 0.3719795 0.9086378
vn -0.8959988 -0.4347553 0.09040976
vn -0.4841549 -0.8740148 -0.04113599
vn -0.8982508 -0.4298083 0.09170726
vn -0.3702363 -0.9266252 -0.06550466
vn -0.04580734 -0.9912651 -0.1236734
vn -0.6126037 0.7891558 -0.04415676
vn -0.5618778 0.8272189 0.001480354
vn -0.5659316 0.8244514 -0.001126765
vn -0.5126787 0.8584721 0.01364304
vn -0.6290787 0.7745423 -0.06591035
vn -0.2760969 0.9607391 0.02740136
vn -0.1875409 0.9778265 0.09318691
vn -0.1677367 0.9748307 0.1468656
vn -0.7224931 0.6808576 -0.120153
vn -0.7811968 0.607098 -0.1454772
vn -0.1121954 0.8878132 0.446318
vn -0.1124596 0.8832256 0.455264
vn -0.3206867 0.8046543 0.4996915
vn -0.2548681 0.819802 0.512803
vn -0.4108352 0.774331 0.4812754
vn -0.4368991 0.7631131 0.4762118
vn -0.8426423 0.5304602 -0.09255195
vn -0.8420619 0.5301474 -0.09937523
vn -0.5426357 0.7074465 0.4528421
vn -0.8443295 0.5356808 -0.0124052
vn -0.536121 0.7173325 0.4449814
vn -0.8441201 0.534795 -0.03815038
vn -0.7503461 0.6334553 0.1889843
vn 0.6126037 0.7891558 -0.04415745
vn 0.5659316 0.8244514 -0.00112695
vn 0.5618779 0.8272188 0.001480302
vn 0.5126788 0.8584721 0.01364344
vn 0.6290786 0.7745425 -0.0659107
vn 0.2760969 0.9607391 0.02740138
vn 0.1875408 0.9778265 0.09318685
vn 0.1677367 0.9748308 0.1468656
vn 0.7224929 0.6808578 -0.1201532
vn 0.7811966 0.607098 -0.1454776
vn 0.1121954 0.8878129 0.4463187
vn 0.1124596 0.8832252 0.4552649
vn 0.3206865 0.8046541 0.499692
vn 0.2548679 0.8198016 0.5128038
vn 0.410835 0.7743307 0.4812761
vn 0.4368988 0.7631127 0.4762127
vn 0.8426421 0.5304606 -0.09255192
vn 0.8420616 0.5301478 -0.09937527
vn 0.5426353 0.7074459 0.4528436
vn 0.8443292 0.5356812 -0.01240474
vn 0.5361205 0.7173319 0.444983
vn 0.8441197 0.5347956 -0.03814986
vn 0.7503458 0.6334554 0.1889853
g HeadPatternLvl5_0
f 3/3/3 2/2/2 1/1/1
f 6/6/6 5/5/5 4/4/4
f 9/9/9 8/8/8 7/7/7
f 12/12/12 11/11/11 10/10/10
f 15/15/15 14/14/14 13/13/13
f 18/18/18 17/17/17 16/16/16
f 21/21/21 20/20/20 19/19/19
f 24/24/24 23/23/23 22/22/22
f 27/27/27 26/26/26 25/25/25
f 28/28/28 27/27/27 25/25/25
f 28/28/28 29/29/29 27/27/27
f 32/32/32 31/31/31 30/30/30
f 31/31/31 33/33/33 30/30/30
f 30/30/30 33/33/33 34/34/34
f 33/33/33 35/35/35 34/34/34
f 34/34/34 35/35/35 36/36/36
f 35/35/35 37/37/37 36/36/36
f 36/36/36 37/37/37 38/38/38
f 37/37/37 39/39/39 38/38/38
f 39/39/39 40/40/40 38/38/38
f 40/40/40 41/41/41 38/38/38
f 40/40/40 39/39/39 42/42/42
f 40/40/40 43/43/43 41/41/41
f 39/39/39 44/44/44 42/42/42
f 43/43/43 45/45/45 41/41/41
f 42/42/42 44/44/44 46/46/46
f 44/44/44 47/47/47 46/46/46
f 43/43/43 48/48/48 45/45/45
f 48/48/48 49/49/49 45/45/45
f 49/49/49 48/48/48 50/50/50
f 48/48/48 51/51/51 50/50/50
f 50/50/50 51/51/51 52/52/52
f 53/53/53 46/46/46 47/47/47
f 54/54/54 53/53/53 47/47/47
f 53/53/53 54/54/54 55/55/55
f 56/56/56 53/53/53 55/55/55
f 55/55/55 57/57/57 56/56/56
f 57/57/57 58/58/58 56/56/56
f 51/51/51 59/59/59 52/52/52
f 57/57/57 60/60/60 58/58/58
f 60/60/60 59/59/59 58/58/58
f 52/52/52 59/59/59 61/61/61
f 59/59/59 60/60/60 61/61/61
f 60/60/60 62/62/62 61/61/61
f 62/62/62 63/63/63 61/61/61
f 62/62/62 64/64/64 63/63/63
f 64/64/64 65/65/65 63/63/63
f 64/64/64 66/66/66 65/65/65
f 66/66/66 67/67/67 65/65/65
f 66/66/66 68/68/68 67/67/67
f 68/68/68 69/69/69 67/67/67
f 72/72/72 71/71/71 70/70/70
f 72/72/72 70/70/70 73/73/73
f 70/70/70 74/74/74 73/73/73
f 70/70/70 75/75/75 74/74/74
f 75/75/75 76/76/76 74/74/74
f 74/74/74 76/76/76 73/73/73
f 76/76/76 77/77/77 73/73/73
f 78/78/78 77/77/77 76/76/76
f 81/81/81 80/80/80 79/79/79
f 80/80/80 82/82/82 79/79/79
f 83/83/83 82/82/82 80/80/80
f 86/86/86 85/85/85 84/84/84
f 87/87/87 85/85/85 86/86/86
f 88/88/88 86/86/86 84/84/84
f 89/89/89 87/87/87 86/86/86
f 89/89/89 90/90/90 87/87/87
f 90/90/90 91/91/91 87/87/87
f 88/88/88 84/84/84 92/92/92
f 93/93/93 88/88/88 92/92/92
f 91/91/91 90/90/90 94/94/94
f 95/95/95 91/91/91 94/94/94
f 96/96/96 95/95/95 94/94/94
f 97/97/97 96/96/96 94/94/94
f 96/96/96 97/97/97 98/98/98
f 97/97/97 99/99/99 98/98/98
f 93/93/93 92/92/92 100/100/100
f 92/92/92 101/101/101 100/100/100
f 102/102/102 98/98/98 99/99/99
f 100/100/100 101/101/101 103/103/103
f 102/102/102 99/99/99 104/104/104
f 103/103/103 105/105/105 100/100/100
f 106/106/106 104/104/104 105/105/105
f 104/104/104 106/106/106 102/102/102
f 103/103/103 106/106/106 105/105/105
f 102/102/102 106/106/106 103/103/103
f 109/109/109 108/108/108 107/107/107
f 109/109/109 110/110/110 108/108/108
f 108/108/108 111/111/111 107/107/107
f 110/110/110 112/112/112 108/108/108
f 113/113/113 112/112/112 110/110/110
f 114/114/114 113/113/113 110/110/110
f 107/107/107 111/111/111 115/115/115
f 111/111/111 116/116/116 115/115/115
f 113/113/113 114/114/114 117/117/117
f 114/114/114 118/118/118 117/117/117
f 118/118/118 119/119/119 117/117/117
f 119/119/119 120/120/120 117/117/117
f 120/120/120 119/119/119 121/121/121
f 122/122/122 120/120/120 121/121/121
f 115/115/115 116/116/116 123/123/123
f 124/124/124 115/115/115 123/123/123
f 122/122/122 121/121/121 125/125/125
f 126/126/126 124/124/124 123/123/123
f 127/127/127 122/122/122 125/125/125
f 123/123/123 128/128/128 126/126/126
f 125/125/125 129/129/129 127/127/127
f 129/129/129 125/125/125 126/126/126
f 127/127/127 129/129/129 128/128/128
f 128/128/128 129/129/129 126/126/126
