g Head
v 0 11.60527 6.957162
v 0.7556394 11.91009 5.861378
v -0.004375163 11.77972 5.852337
v -0.008749427 11.96999 4.754299
v 1.070136 12.21491 4.765594
v -0.00400945 12.32799 3.459986
v 0.8038205 12.45892 3.46919
v 0 12.66535 2.372419
v -0.8038205 12.45892 3.46919
v -0.00400945 12.32799 3.459986
v 0 12.66535 2.372419
v -1.070136 12.21491 4.765594
v -0.008749427 11.96999 4.754299
v -0.7556394 11.91009 5.861378
v -0.004375163 11.77972 5.852337
v 0 11.60527 6.957162
v -0.6141929 11.83638 9.257689
v -0.4269332 10.77108 9.681298
v -1.337295 10.47558 8.376442
v -0.705692 11.48679 7.788392
v -3.508163 8.918593 6.649648
v 0.705692 11.48679 7.788392
v 0.6141929 11.83638 9.257689
v -0.4269332 10.77108 9.681298
v 0.4269332 10.77108 9.681298
v 1.337295 10.47558 8.376442
v 0.4269332 10.77108 9.681298
v 3.508163 8.918593 6.649648
v 1.000154 11.66825 5.536282
v -1.000154 11.66825 5.536282
v 2.907422 9.725913 4.858829
v 2.916139 7.978586 5.113058
v 1.022436 10.14439 3.537754
v 1.359792 7.119878 3.751162
v -2.907422 9.725913 4.858829
v -2.916139 7.978586 5.113058
v -1.359792 7.119878 3.751162
v -1.022436 10.14439 3.537754
v 0.8397915 8.364253 3.220998
v -0.8397915 8.364253 3.220998
v -2.960072 10.90442 4.204982
v -2.664785 12.47334 3.401524
v -1.445615 12.18549 4.632729
v -2.907422 9.725913 4.858829
v -1.000154 11.66825 5.536282
v -1.022436 10.14439 3.537754
v -2.960072 10.90442 4.204982
v -2.907422 9.725913 4.858829
v -1.514352 10.89251 3.238705
v -1.000154 11.66825 5.536282
v -2.664785 12.47334 3.401524
v -1.445615 12.18549 4.632729
v 2.954696 10.91274 4.234856
v 1.440235 12.19382 4.662596
v 2.659251 12.48571 3.427987
v 2.907422 9.725913 4.858829
v 1.000154 11.66825 5.536282
v 1.022436 10.14439 3.537754
v 2.907422 9.725913 4.858829
v 2.954696 10.91274 4.234856
v 1.507229 10.90728 3.266083
v 1.000154 11.66825 5.536282
v 2.659251 12.48571 3.427987
v 1.440235 12.19382 4.662596
v -0.8038205 12.45892 3.46919
v 0 12.66535 2.372419
v -0.0008274738 12.82098 2.487079
v -0.7314475 12.6364 3.441426
v -0.004317173 12.73986 3.449853
v -1.070136 12.21491 4.765594
v -0.009169194 12.53381 4.778912
v -1.015936 12.38461 4.768107
v -0.7556394 11.91009 5.861378
v -0.00469153 12.17448 5.898063
v -0.6717124 12.07526 5.889976
v 0 11.60527 6.957162
v -0.0005876711 11.78312 6.917172
v -0.0005876711 11.78312 6.917172
v -0.00469153 12.17448 5.898063
v 0.7143006 12.06876 5.889446
v 0 11.60527 6.957162
v -0.009169194 12.53381 4.778912
v 0.7556394 11.91009 5.861378
v 1.033954 12.38173 4.767899
v -0.004317173 12.73986 3.449853
v 1.070136 12.21491 4.765594
v 0.7538438 12.63306 3.441153
v -0.0008274738 12.82098 2.487079
v 0.8038205 12.45892 3.46919
v 0 12.66535 2.372419
v -0.4269332 10.77108 9.681298
v -0.9821582 9.464377 8.964493
v -1.337295 10.47558 8.376442
v 0.4269332 10.77108 9.681298
v -3.508163 8.918593 6.649648
v 0.9821582 9.464377 8.964493
v 1.337295 10.47558 8.376442
v 3.508163 8.918593 6.649648
v -1.558777 7.718036 8.23886
v 1.558777 7.718036 8.23886
v -1.274938 6.313536 6.15192
v -2.916139 7.978586 5.113058
v -1.359792 7.119878 3.751162
v 1.359792 7.119878 3.751162
v 1.274938 6.313536 6.15192
v 2.916139 7.978586 5.113058
vt 0.2787281 0.7106971
vt 0.3374185 0.7733484
vt 0.2787281 0.7737619
vt 0.2787281 0.8467269
vt 0.3547556 0.8461397
vt 0.2787281 0.9127309
vt 0.3397465 0.9122912
vt 0.2787281 0.9759308
vt 0.3397466 0.9122913
vt 0.2787281 0.9127309
vt 0.2787281 0.9759308
vt 0.3547556 0.8461397
vt 0.2787281 0.8467269
vt 0.3374185 0.7733483
vt 0.2787281 0.7737619
vt 0.2787281 0.7106971
vt 0.4074039 0.5706397
vt 0.4698782 0.5985157
vt 0.4773102 0.4771837
vt 0.4037136 0.4389531
vt 0.6374002 0.2993408
vt 0.3142563 0.4389531
vt 0.3062331 0.5706397
vt 0.3944263 0.6260235
vt 0.3222007 0.6260235
vt 0.2426149 0.4771837
vt 0.2505297 0.6048181
vt 0.08105639 0.2993408
vt 0.3001062 0.2443863
vt 0.4198852 0.2443863
vt 0.1776609 0.2095013
vt 0.08282202 0.1666116
vt 0.2995589 0.1404296
vt 0.2169446 0.01590513
vt 0.5390643 0.20409
vt 0.6319296 0.1580045
vt 0.4915937 0.01590513
vt 0.4150175 0.1404296
vt 0.3077312 0.072594
vt 0.4068282 0.072594
vt 0.2134193 0.8560583
vt 0.1470868 0.9721105
vt 0.05949691 0.8914856
vt 0.2422513 0.7430976
vt 0.03796053 0.8152419
vt 0.02137965 0.5775336
vt 0.1207125 0.7402797
vt 0.02074802 0.7718456
vt 0.1008688 0.6222212
vt 0.2132414 0.559981
vt 0.2179984 0.6972213
vt 0.2190009 0.6072862
vt 0.2134193 0.8560582
vt 0.05949691 0.8914856
vt 0.1470868 0.9721105
vt 0.2422513 0.7430976
vt 0.03796053 0.8152419
vt 0.02137967 0.5775336
vt 0.020748 0.7718456
vt 0.1207125 0.7402797
vt 0.1008688 0.6222212
vt 0.2132415 0.559981
vt 0.2179984 0.6972213
vt 0.2190009 0.6072862
vt 0.3397466 0.9122913
vt 0.2787281 0.9759308
vt 0.2787281 0.9664679
vt 0.3329207 0.9123405
vt 0.2787281 0.9127309
vt 0.3547556 0.8461397
vt 0.2787281 0.8467269
vt 0.349178 0.8461828
vt 0.3374185 0.7733483
vt 0.2787281 0.7737619
vt 0.329634 0.7734031
vt 0.2787281 0.7106971
vt 0.2787281 0.7159737
vt 0.2787281 0.7159737
vt 0.2787281 0.7737619
vt 0.3329685 0.7733797
vt 0.2787281 0.7106971
vt 0.2787281 0.8467269
vt 0.3374185 0.7733484
vt 0.3505381 0.8461723
vt 0.2787281 0.9127309
vt 0.3547556 0.8461397
vt 0.3346724 0.9123278
vt 0.2787281 0.9664679
vt 0.3397465 0.9122912
vt 0.2787281 0.9759308
vt 0.9053198 0.04344224
vt 0.8791605 0.1246441
vt 0.9182813 0.1273214
vt 0.8887607 0.02858659
vt 0.9023189 0.2536773
vt 0.8090028 0.05782426
vt 0.805707 0.01852037
vt 0.6803655 0.03604671
vt 0.8597745 0.1773998
vt 0.7573908 0.07731465
vt 0.807694 0.2272805
vt 0.8393509 0.2818703
vt 0.7570662 0.2812429
vt 0.6557167 0.1813221
vt 0.7097118 0.1294246
vt 0.653901 0.09936411
vn -0.005917768 -0.8848565 0.4658262
vn 0.4186955 -0.9044297 -0.08185985
vn 0.0002390373 -0.978291 -0.2072353
vn -0.0004517327 -0.969145 -0.246491
vn 0.3897775 -0.894313 -0.2197216
vn 0.000213888 -0.9593276 -0.2822951
vn 0.4072316 -0.8485423 -0.3378436
vn -0.0009690085 -0.6309681 -0.7758082
vn -0.4208791 -0.8412213 -0.3394221
vn 0.000213888 -0.9593276 -0.2822951
vn -0.0009690085 -0.6309681 -0.7758082
vn -0.4074734 -0.8872929 -0.2160483
vn -0.0004517327 -0.969145 -0.246491
vn -0.4388265 -0.8955658 -0.07343891
vn 0.0002390373 -0.978291 -0.2072353
vn -0.005917768 -0.8848565 0.4658262
vn -0.4829815 0.8232352 0.2983502
vn -0.3902662 -0.08017837 0.9172043
vn -0.7904571 0.4260149 0.4401011
vn -0.5000327 0.851644 0.1570658
vn -0.9186418 0.137729 0.370308
vn 0.5000471 0.8516362 0.1570622
vn 0.4829813 0.8232352 0.2983504
vn -0.3902662 -0.08017837 0.9172043
vn 0.390266 -0.0801783 0.9172044
vn 0.7904628 0.4260182 0.4400874
vn 0.390266 -0.0801783 0.9172044
vn 0.918644 0.1377013 0.3703127
vn 0.3099553 0.9506512 -0.01378508
vn -0.3114605 0.9501404 -0.01501729
vn 0.9027617 0.2448136 -0.3536774
vn 0.8077077 -0.3758553 -0.4542477
vn 0.05608295 0.425686 -0.9031313
vn 0.324588 -0.6882222 -0.6488396
vn -0.9045475 0.2454121 -0.3486642
vn -0.8077161 -0.3758833 -0.4542097
vn -0.3245777 -0.6881943 -0.6488744
vn -0.04954761 0.4229518 -0.9047966
vn 0.2911612 -0.06434052 -0.9545079
vn -0.2911664 -0.06433465 -0.9545068
vn -0.9961197 0.07338154 0.04858803
vn -0.4353316 0.7916982 -0.4286028
vn 0.1568415 0.907908 0.3887207
vn -0.9045475 0.2454121 -0.3486642
vn -0.3114605 0.9501404 -0.01501729
vn -0.04954761 0.4229518 -0.9047966
vn -0.9961197 0.07338154 0.04858803
vn -0.9045475 0.2454121 -0.3486642
vn 0.2928202 -0.01717795 -0.9560133
vn -0.3114605 0.9501404 -0.01501729
vn -0.4353316 0.7916982 -0.4286028
vn 0.1568415 0.907908 0.3887207
vn 0.9957114 0.07713244 0.05108134
vn -0.1626001 0.9017011 0.4006201
vn 0.4375589 0.7911685 -0.427311
vn 0.9027617 0.2448136 -0.3536774
vn 0.3099553 0.9506512 -0.01378508
vn 0.05608295 0.425686 -0.9031313
vn 0.9027617 0.2448136 -0.3536774
vn 0.9957114 0.07713244 0.05108134
vn -0.2875704 -0.001446515 -0.9577584
vn 0.3099553 0.9506512 -0.01378508
vn 0.4375589 0.7911685 -0.427311
vn -0.1626001 0.9017011 0.4006201
vn -0.4208791 -0.8412213 -0.3394221
vn -0.0009690085 -0.6309681 -0.7758082
vn -0.003878512 0.8714517 -0.4904659
vn -0.3521644 0.9348062 0.04601686
vn 0.002061254 0.986603 0.1631264
vn -0.4074734 -0.8872929 -0.2160483
vn 0.001842876 0.9684159 0.2493336
vn -0.3312958 0.9141151 0.2337445
vn -0.4388265 -0.8955658 -0.07343891
vn 0.003301735 0.9386912 0.3447435
vn -0.3462831 0.8419567 0.4137595
vn -0.005917768 -0.8848565 0.4658262
vn -0.006673429 0.6140894 0.7892082
vn -0.006673429 0.6140894 0.7892082
vn 0.003301735 0.9386912 0.3447435
vn 0.3434937 0.8442184 0.4114698
vn -0.005917768 -0.8848565 0.4658262
vn 0.001842876 0.9684159 0.2493336
vn 0.4186955 -0.9044297 -0.08185985
vn 0.3237953 0.9167424 0.2339654
vn 0.002061254 0.986603 0.1631264
vn 0.3897775 -0.894313 -0.2197216
vn 0.3461765 0.9368537 0.04966907
vn -0.003878512 0.8714517 -0.4904659
vn 0.4072316 -0.8485423 -0.3378436
vn -0.0009690085 -0.6309681 -0.7758082
vn -0.3902662 -0.08017837 0.9172043
vn -0.3672873 -0.2449583 0.8972711
vn -0.7904571 0.4260149 0.4401011
vn 0.390266 -0.0801783 0.9172044
vn -0.9186418 0.137729 0.370308
vn 0.3672797 -0.2449602 0.8972737
vn 0.7904628 0.4260182 0.4400874
vn 0.918644 0.1377013 0.3703127
vn -0.3391354 -0.5855054 0.7363224
vn 0.3391216 -0.5855043 0.7363296
vn -0.1805317 -0.9747539 0.1313893
vn -0.8077161 -0.3758833 -0.4542097
vn -0.3245777 -0.6881943 -0.6488744
vn 0.324588 -0.6882222 -0.6488396
vn 0.1805424 -0.9747533 0.131379
vn 0.8077077 -0.3758553 -0.4542477
g Head_0
f 3/3/3 2/2/2 1/1/1
f 2/2/2 3/3/3 4/4/4
f 5/5/5 2/2/2 4/4/4
f 5/5/5 4/4/4 6/6/6
f 7/7/7 5/5/5 6/6/6
f 7/7/7 6/6/6 8/8/8
f 11/11/11 10/10/10 9/9/9
f 9/9/9 10/10/10 12/12/12
f 10/10/10 13/13/13 12/12/12
f 12/12/12 13/13/13 14/14/14
f 13/13/13 15/15/15 14/14/14
f 14/14/14 15/15/15 16/16/16
f 19/19/19 18/18/18 17/17/17
f 20/20/20 19/19/19 17/17/17
f 19/19/19 20/20/20 21/21/21
f 22/22/22 20/20/20 17/17/17
f 23/23/23 22/22/22 17/17/17
f 23/23/23 17/17/17 24/24/24
f 25/25/25 23/23/23 24/24/24
f 26/26/26 22/22/22 23/23/23
f 27/27/27 26/26/26 23/23/23
f 22/22/22 26/26/26 28/28/28
f 22/22/22 29/29/29 20/20/20
f 29/29/29 22/22/22 28/28/28
f 20/20/20 30/30/30 21/21/21
f 29/29/29 30/30/30 20/20/20
f 31/31/31 29/29/29 28/28/28
f 31/31/31 28/28/28 32/32/32
f 29/29/29 33/33/33 30/30/30
f 31/31/31 32/32/32 34/34/34
f 30/30/30 35/35/35 21/21/21
f 21/21/21 35/35/35 36/36/36
f 36/36/36 35/35/35 37/37/37
f 33/33/33 38/38/38 30/30/30
f 31/31/31 39/39/39 33/33/33
f 39/39/39 31/31/31 34/34/34
f 33/33/33 39/39/39 38/38/38
f 34/34/34 37/37/37 40/40/40
f 35/35/35 40/40/40 37/37/37
f 38/38/38 40/40/40 35/35/35
f 39/39/39 34/34/34 40/40/40
f 39/39/39 40/40/40 38/38/38
f 43/43/43 42/42/42 41/41/41
f 43/43/43 41/41/41 44/44/44
f 45/45/45 43/43/43 44/44/44
f 48/48/48 47/47/47 46/46/46
f 47/47/47 49/49/49 46/46/46
f 46/46/46 49/49/49 50/50/50
f 47/47/47 51/51/51 49/49/49
f 49/49/49 52/52/52 50/50/50
f 49/49/49 51/51/51 52/52/52
f 55/55/55 54/54/54 53/53/53
f 53/53/53 54/54/54 56/56/56
f 54/54/54 57/57/57 56/56/56
f 60/60/60 59/59/59 58/58/58
f 61/61/61 60/60/60 58/58/58
f 61/61/61 58/58/58 62/62/62
f 63/63/63 60/60/60 61/61/61
f 64/64/64 61/61/61 62/62/62
f 63/63/63 61/61/61 64/64/64
f 67/67/67 66/66/66 65/65/65
f 68/68/68 67/67/67 65/65/65
f 68/68/68 69/69/69 67/67/67
f 68/68/68 65/65/65 70/70/70
f 71/71/71 69/69/69 68/68/68
f 72/72/72 68/68/68 70/70/70
f 72/72/72 71/71/71 68/68/68
f 72/72/72 70/70/70 73/73/73
f 74/74/74 71/71/71 72/72/72
f 75/75/75 72/72/72 73/73/73
f 75/75/75 74/74/74 72/72/72
f 75/75/75 73/73/73 76/76/76
f 77/77/77 74/74/74 75/75/75
f 77/77/77 75/75/75 76/76/76
f 80/80/80 79/79/79 78/78/78
f 80/80/80 78/78/78 81/81/81
f 79/79/79 80/80/80 82/82/82
f 83/83/83 80/80/80 81/81/81
f 80/80/80 84/84/84 82/82/82
f 80/80/80 83/83/83 84/84/84
f 82/82/82 84/84/84 85/85/85
f 83/83/83 86/86/86 84/84/84
f 84/84/84 87/87/87 85/85/85
f 84/84/84 86/86/86 87/87/87
f 88/88/88 85/85/85 87/87/87
f 86/86/86 89/89/89 87/87/87
f 88/88/88 87/87/87 90/90/90
f 87/87/87 89/89/89 90/90/90
f 93/93/93 92/92/92 91/91/91
f 94/94/94 91/91/91 92/92/92
f 93/93/93 95/95/95 92/92/92
f 96/96/96 94/94/94 92/92/92
f 96/96/96 97/97/97 94/94/94
f 98/98/98 97/97/97 96/96/96
f 95/95/95 99/99/99 92/92/92
f 96/96/96 92/92/92 99/99/99
f 100/100/100 98/98/98 96/96/96
f 100/100/100 96/96/96 99/99/99
f 95/95/95 101/101/101 99/99/99
f 100/100/100 99/99/99 101/101/101
f 95/95/95 102/102/102 101/101/101
f 102/102/102 103/103/103 101/101/101
f 103/103/103 104/104/104 101/101/101
f 105/105/105 98/98/98 100/100/100
f 105/105/105 100/100/100 101/101/101
f 104/104/104 105/105/105 101/101/101
f 105/105/105 106/106/106 98/98/98
f 106/106/106 105/105/105 104/104/104
