g HeadSwitch02
v -1.140148 0.5352207 -1.934007
v -2.256495 0.511456 -2.233198
v -2.232692 -0.04758938 -2.233198
v -1.116346 -0.02382717 -1.934007
v -0.3229263 0.5526425 -1.1166
v -0.2991238 -0.006405299 -1.116599
v -0.02380264 0.5590512 0
v 0 9.505694E-07 0
v -0.3229272 0.552728 1.1166
v -0.2991247 -0.00631985 1.1166
v -1.14015 0.5353696 1.934007
v -1.116348 -0.02367825 1.934008
v -2.256497 0.5116269 2.2332
v -2.232694 -0.04742093 2.2332
v -2.256495 0.511456 -2.233198
v -2.232693 -0.04750637 9.536743E-07
v -2.232692 -0.04758938 -2.233198
v -2.256496 0.5115415 9.155273E-07
v -1.140148 0.5352207 -1.934007
v -2.232694 -0.04742093 2.2332
v -0.3229263 0.5526425 -1.1166
v -2.256497 0.5116269 2.2332
v -0.02380264 0.5590512 0
v -1.14015 0.5353696 1.934007
v -0.3229272 0.552728 1.1166
vt 0.902715 0.3847784
vt 0.902715 0.4607207
vt 0.8844575 0.4607207
vt 0.8844575 0.3847784
vt 0.902715 0.3088058
vt 0.8844575 0.3088058
vt 0.902715 0.2328026
vt 0.8844575 0.2328026
vt 0.902715 0.1567993
vt 0.8844575 0.1567993
vt 0.902715 0.08082621
vt 0.8844575 0.08082621
vt 0.902715 0.004883021
vt 0.8844575 0.004883021
vt 0.654183 0.3030781
vt 0.5675999 0.2923342
vt 0.6541811 0.2923126
vt 0.5676018 0.3030996
vt 0.6425941 0.3463715
vt 0.4810187 0.2923558
vt 0.6109111 0.3780704
vt 0.4810206 0.3031212
vt 0.5676234 0.3896808
vt 0.4926311 0.3464089
vt 0.52433 0.3780919
vn 0.2370978 0.8633038 -0.4455235
vn -0.687257 0.6170785 -0.3832649
vn -0.8620073 -0.03670201 -0.5055654
vn 0.5022593 0.02138454 -0.8644527
vn 0.4247843 0.8680722 -0.2569222
vn 0.8661643 0.03687856 -0.4983968
vn 0.4933668 0.8698214 -3.117667E-05
vn 0.9990948 0.04253849 -7.538966E-06
vn 0.4247874 0.8680882 0.256863
vn 0.8661709 0.03687899 0.4983854
vn 0.2371001 0.8633304 0.445471
vn 0.502266 0.02138508 0.8644487
vn -0.6872504 0.6171055 0.3832329
vn -0.8620159 -0.03670208 0.5055506
vn -0.687257 0.6170785 -0.3832649
vn -0.9990948 -0.04253866 1.194047E-06
vn -0.8620073 -0.03670201 -0.5055654
vn -0.7300926 0.6833482 -2.606206E-05
vn 0.2370978 0.8633038 -0.4455235
vn -0.8620159 -0.03670208 0.5055506
vn 0.4247843 0.8680722 -0.2569222
vn -0.6872504 0.6171055 0.3832329
vn 0.4933668 0.8698214 -3.117667E-05
vn 0.2371001 0.8633304 0.445471
vn 0.4247874 0.8680882 0.256863
g HeadSwitch02_0
f 3/3/3 2/2/2 1/1/1
f 4/4/4 3/3/3 1/1/1
f 4/4/4 1/1/1 5/5/5
f 6/6/6 4/4/4 5/5/5
f 6/6/6 5/5/5 7/7/7
f 8/8/8 6/6/6 7/7/7
f 8/8/8 7/7/7 9/9/9
f 10/10/10 8/8/8 9/9/9
f 10/10/10 9/9/9 11/11/11
f 12/12/12 10/10/10 11/11/11
f 12/12/12 11/11/11 13/13/13
f 14/14/14 12/12/12 13/13/13
f 17/17/17 16/16/16 15/15/15
f 16/16/16 18/18/18 15/15/15
f 18/18/18 19/19/19 15/15/15
f 16/16/16 20/20/20 18/18/18
f 18/18/18 21/21/21 19/19/19
f 20/20/20 22/22/22 18/18/18
f 18/18/18 23/23/23 21/21/21
f 18/18/18 22/22/22 24/24/24
f 18/18/18 25/25/25 23/23/23
f 18/18/18 24/24/24 25/25/25
