g HeadSwitch01
v 1.116347 0.5832358 -1.934008
v 2.232694 0.04742771 -2.2332
v 2.232694 0.6069834 -2.2332
v 1.116347 0.02368259 -1.934008
v 0.2991247 0.5658798 -1.1166
v 0.2991247 0.006324193 -1.1166
v 1.525879E-07 0.5595566 0
v 0 9.505694E-07 0
v 0.2991238 0.5659629 1.116599
v 0.2991238 0.006409642 1.116599
v 1.116346 0.5833848 1.934006
v 1.116346 0.02382908 1.934007
v 2.232692 0.6071518 2.233198
v 2.232692 0.04759616 2.233198
v 2.232694 0.6069834 -2.2332
v 2.232694 0.04742771 -2.2332
v 2.232693 0.04751315 -8.392334E-07
v 2.232693 0.6070664 -8.773803E-07
v 1.116347 0.5832358 -1.934008
v 2.232692 0.04759616 2.233198
v 0.2991247 0.5658798 -1.1166
v 2.232692 0.6071518 2.233198
v 1.525879E-07 0.5595566 0
v 1.116346 0.5833848 1.934006
v 0.2991238 0.5659629 1.116599
vt 0.902715 0.3847784
vt 0.8844575 0.4607207
vt 0.902715 0.4607207
vt 0.8844575 0.3847784
vt 0.902715 0.3088058
vt 0.8844575 0.3088058
vt 0.902715 0.2328026
vt 0.8844575 0.2328026
vt 0.902715 0.1567993
vt 0.8844575 0.1567993
vt 0.902715 0.08082621
vt 0.8844575 0.08082621
vt 0.902715 0.004883021
vt 0.8844575 0.004883021
vt 0.654183 0.3030781
vt 0.6541811 0.2923126
vt 0.5675999 0.2923342
vt 0.5676018 0.3030996
vt 0.6425941 0.3463715
vt 0.4810187 0.2923558
vt 0.6109111 0.3780704
vt 0.4810206 0.3031212
vt 0.5676234 0.3896808
vt 0.4926311 0.3464089
vt 0.52433 0.3780919
vn -0.2736079 0.8524349 -0.445526
vn 0.8627874 -2.628145E-07 -0.5055669
vn 0.6603836 0.645754 -0.3832693
vn -0.5027145 -3.518772E-07 -0.8644525
vn -0.4613265 0.8492176 -0.256919
vn -0.8669496 0 -0.4983957
vn -0.5299213 0.8480468 -2.768722E-05
vn -1 1.237546E-07 -6.278316E-06
vn -0.4613301 0.8492326 0.2568629
vn -0.8669542 0 0.4983879
vn -0.2736105 0.8524632 0.4454702
vn -0.502718 0 0.8644505
vn 0.6603779 0.6457816 0.3832325
vn 0.8627952 1.157065E-07 0.5055536
vn 0.6603836 0.645754 -0.3832693
vn 0.8627874 -2.628145E-07 -0.5055669
vn 1 0 3.971502E-07
vn 0.7003635 0.7137863 -2.741584E-05
vn -0.2736079 0.8524349 -0.445526
vn 0.8627952 1.157065E-07 0.5055536
vn -0.4613265 0.8492176 -0.256919
vn 0.6603779 0.6457816 0.3832325
vn -0.5299213 0.8480468 -2.768722E-05
vn -0.2736105 0.8524632 0.4454702
vn -0.4613301 0.8492326 0.2568629
g HeadSwitch01_0
f 3/3/3 2/2/2 1/1/1
f 2/2/2 4/4/4 1/1/1
f 1/1/1 4/4/4 5/5/5
f 4/4/4 6/6/6 5/5/5
f 5/5/5 6/6/6 7/7/7
f 6/6/6 8/8/8 7/7/7
f 7/7/7 8/8/8 9/9/9
f 8/8/8 10/10/10 9/9/9
f 9/9/9 10/10/10 11/11/11
f 10/10/10 12/12/12 11/11/11
f 11/11/11 12/12/12 13/13/13
f 12/12/12 14/14/14 13/13/13
f 17/17/17 16/16/16 15/15/15
f 18/18/18 17/17/17 15/15/15
f 19/19/19 18/18/18 15/15/15
f 20/20/20 17/17/17 18/18/18
f 21/21/21 18/18/18 19/19/19
f 22/22/22 20/20/20 18/18/18
f 23/23/23 18/18/18 21/21/21
f 22/22/22 18/18/18 24/24/24
f 25/25/25 18/18/18 23/23/23
f 24/24/24 18/18/18 25/25/25
