g Head
v -5.707523 16.37473 2.259453
v -4.004689 12.2424 2.132631
v -4.151787 11.82901 0.685947
v -6.011771 16.28676 0.7491049
v -7.156639 19.70014 2.577863
v -4.461606 15.04572 -2.093159
v -3.324963 12.91588 -1.574957
v -7.794188 19.58133 0.02109203
v -6.832093 24.05507 2.532569
v 3.304101E-06 15.47783 -2.819144
v 3.304101E-06 13.1621 -2.399373
v -5.117748 17.8357 -0.8414212
v -1.557712 19.55183 -0.9796057
v 3.304101E-06 19.59651 -1.663133
v -6.984214 23.97488 0.5486361
v -4.230471 29.24726 1.969738
v -4.59492 24.11918 -0.9320295
v -2.205613 24.33649 0.5384421
v -2.205613 24.35384 1.127406
v -4.230471 28.27916 0.4272738
v -1.557712 19.55183 -0.9796057
v 3.304101E-06 19.59651 -1.663133
v -1.930051 19.30402 -0.1749945
v -1.989591 19.34138 3.313463
v -5.054976 17.22418 3.32207
v 3.304101E-06 19.74306 3.311635
v 3.304101E-06 15.00077 6.051869
v -2.837938 15.54874 5.596852
v -3.664598 13.71772 4.17495
v -5.707523 16.37473 2.259453
v -4.004689 12.2424 2.132631
v 3.304101E-06 12.423 5.537382
v 3.304101E-06 11.14349 3.486419
v 4.004695 12.2424 2.132631
v 3.664594 13.71772 4.17495
v 5.707533 16.37473 2.259453
v 5.05498 17.22418 3.32207
v 1.804428 19.38764 -0.3295279
v 1.557725 19.55183 -0.9796057
v 1.989597 19.34138 3.313463
v 2.837945 15.54874 5.596852
v -7.156639 19.70014 2.577863
v -5.054976 17.22418 3.32207
v -5.707523 16.37473 2.259453
v -1.930051 19.30402 -0.1749945
v -6.832093 24.05507 2.532569
v -2.205613 24.35384 1.127406
v -1.557712 19.55183 -0.9796057
v -4.230471 29.24726 1.969738
v 1.557725 19.55183 -0.9796057
v 2.205626 24.35384 1.127406
v 1.804428 19.38764 -0.3295279
v 7.15665 19.70014 2.577863
v 5.05498 17.22418 3.32207
v 5.707533 16.37473 2.259453
v 6.832103 24.05507 2.532569
v 4.230481 29.24726 1.969738
v 5.707533 16.37473 2.259453
v 4.151791 11.82901 0.6859463
v 4.004695 12.2424 2.132631
v 6.011781 16.28676 0.7491049
v 7.15665 19.70014 2.577863
v 4.461613 15.04572 -2.093159
v 3.324976 12.91588 -1.574957
v 7.794191 19.58133 0.02109203
v 6.832103 24.05507 2.532569
v 3.304101E-06 15.47783 -2.819144
v 3.304101E-06 13.1621 -2.399373
v 5.117757 17.8357 -0.8414212
v 1.557725 19.55183 -0.9796057
v 3.304101E-06 19.59651 -1.663133
v 6.984217 23.97488 0.5486361
v 4.230481 29.24726 1.969738
v 4.59493 24.11918 -0.9320295
v 2.205626 24.33649 0.5384421
v 2.205626 24.35384 1.127406
v 4.230481 28.27916 0.4272738
v 3.324976 12.91588 -1.574957
v 3.304101E-06 10.87876 0.7598768
v 4.151791 11.82901 0.6859463
v 3.304101E-06 13.1621 -2.399373
v -3.324963 12.91588 -1.574957
v -4.151787 11.82901 0.685947
v 3.304101E-06 10.87876 0.7598768
v -4.004689 12.2424 2.132631
v 3.304101E-06 10.87876 0.7598768
v 3.304101E-06 11.14349 3.486419
v 4.151791 11.82901 0.6859463
v 3.304101E-06 10.87876 0.7598768
v 4.004695 12.2424 2.132631
v 3.304101E-06 10.87876 0.7598768
vt 0.1809653 0.2636199
vt 0.1723371 0.1943678
vt 0.1391516 0.188844
vt 0.1560247 0.2684324
vt 0.2019956 0.3274251
vt 0.1036904 0.2485069
vt 0.09996574 0.2056377
vt 0.1617953 0.3241811
vt 0.1875123 0.3934072
vt 0.02944174 0.2543383
vt 0.03265397 0.2075003
vt 0.1210765 0.2923363
vt 0.06196782 0.3252077
vt 0.0328524 0.3240917
vt 0.1603622 0.380439
vt 0.127547 0.4740088
vt 0.1144393 0.3815756
vt 0.07281996 0.4002326
vt 0.0651724 0.4072219
vt 0.1233962 0.4442326
vt 0.4603423 0.4435629
vt 0.5064279 0.4616883
vt 0.4528663 0.4282269
vt 0.4589742 0.342751
vt 0.3770716 0.2960517
vt 0.5078517 0.350679
vt 0.5092629 0.2405677
vt 0.4452878 0.249547
vt 0.4158667 0.2049302
vt 0.3495017 0.2700615
vt 0.3955418 0.1591283
vt 0.509868 0.1933399
vt 0.510583 0.1375231
vt 0.625033 0.1620687
vt 0.6035413 0.2073351
vt 0.6682154 0.2741457
vt 0.6399887 0.2994213
vt 0.5577049 0.4348325
vt 0.5529634 0.4447507
vt 0.5569161 0.3440064
vt 0.5729867 0.2511835
vt 0.2831185 0.1740351
vt 0.216215 0.1530432
vt 0.1984201 0.1644169
vt 0.2172413 0.03829753
vt 0.3575108 0.12965
vt 0.3250717 0.02208805
vt 0.2170962 0.02445459
vt 0.4272889 0.03766718
vt 0.2170962 0.02445446
vt 0.3250718 0.02208808
vt 0.2172202 0.03364435
vt 0.2831186 0.1740351
vt 0.2162153 0.1530432
vt 0.1984201 0.1644169
vt 0.3575108 0.1296499
vt 0.427289 0.03766706
vt 0.1809618 0.2636174
vt 0.139145 0.1888441
vt 0.1723304 0.194366
vt 0.1560217 0.2684317
vt 0.2019952 0.3274218
vt 0.1036873 0.2485085
vt 0.09996071 0.2056396
vt 0.161795 0.3241808
vt 0.1875138 0.3934059
vt 0.02943939 0.2543418
vt 0.03264973 0.207504
vt 0.1210754 0.2923372
vt 0.06196828 0.3252091
vt 0.03285272 0.3240941
vt 0.1603634 0.3804393
vt 0.1275472 0.4740096
vt 0.1144404 0.3815769
vt 0.07282036 0.4002325
vt 0.06517249 0.4072213
vt 0.1233968 0.4442333
vt 0.5276945 0.1252084
vt 0.5054709 0.1439892
vt 0.5319729 0.1401285
vt 0.5034147 0.1210676
vt 0.4803094 0.1291864
vt 0.4785775 0.1444145
vt 0.5054718 0.1439908
vt 0.4793474 0.1568554
vt 0.5054721 0.1439913
vt 0.5065885 0.1604858
vt 0.5319729 0.1401285
vt 0.505472 0.1439902
vt 0.5331326 0.1526958
vt 0.5054721 0.1439913
vn -0.8364755 -0.3673941 0.4066084
vn -0.5882763 -0.7276242 0.3528373
vn -0.6361014 -0.7639279 -0.1085777
vn -0.8919729 -0.3640815 -0.2680095
vn -0.5346352 -0.06348808 0.8426946
vn -0.6022753 -0.0839671 -0.7938602
vn -0.3574727 -0.6489458 -0.6716269
vn -0.8915194 -0.2102453 -0.4012359
vn -0.5096146 0.188467 0.8395076
vn -2.375714E-07 0.125613 -0.9920793
vn 0 -0.5623527 -0.8268975
vn -0.412645 0.01633178 -0.9107455
vn 0.5175005 0.5563148 -0.6501592
vn -0.007625023 0.9265808 -0.3760182
vn -0.8192121 0.2951704 -0.4916971
vn 0.2746252 0.7657667 0.5815344
vn -0.06595198 0.2079191 -0.9759201
vn 0.7552216 0.2714153 -0.5966357
vn 0.7511424 0.06778954 0.6566504
vn -0.001632841 0.5965564 -0.8025696
vn 0.5175005 0.5563148 -0.6501592
vn -0.007625023 0.9265808 -0.3760182
vn 0.09748251 0.785084 0.61167
vn -0.341837 0.8230919 0.4535056
vn -0.6439372 0.2437555 0.725209
vn -0.006646151 0.8741603 0.4855919
vn 1.020502E-07 0.1071028 0.9942479
vn -0.4342048 0.163429 0.8858652
vn -0.6341226 -0.4466384 0.6311915
vn -0.8364755 -0.3673941 0.4066084
vn -0.5882763 -0.7276242 0.3528373
vn 2.112616E-07 -0.634479 0.77294
vn 1.293915E-07 -0.9402281 0.3405454
vn 0.5882758 -0.7276241 0.3528383
vn 0.6341219 -0.4466383 0.6311923
vn 0.8364749 -0.3673941 0.4066095
vn 0.6438745 0.243989 0.7251862
vn -0.1071179 0.7822838 0.6136432
vn -0.4983968 0.5542886 -0.666607
vn 0.3364536 0.8240811 0.4557292
vn 0.4342054 0.1634282 0.8858651
vn -0.5346352 -0.06348808 0.8426946
vn -0.6439372 0.2437555 0.725209
vn -0.8364755 -0.3673941 0.4066084
vn 0.09748251 0.785084 0.61167
vn -0.5096146 0.188467 0.8395076
vn 0.7511424 0.06778954 0.6566504
vn 0.5175005 0.5563148 -0.6501592
vn 0.2746252 0.7657667 0.5815344
vn -0.4983968 0.5542886 -0.666607
vn -0.7536514 0.06253771 0.6542925
vn -0.1071179 0.7822838 0.6136432
vn 0.5332938 -0.0666994 0.8432965
vn 0.6438745 0.243989 0.7251862
vn 0.8364749 -0.3673941 0.4066095
vn 0.508314 0.1848207 0.8411054
vn -0.2746259 0.765767 0.5815337
vn 0.8364749 -0.3673941 0.4066095
vn 0.6361012 -0.763928 -0.1085775
vn 0.5882758 -0.7276241 0.3528383
vn 0.8919729 -0.3640814 -0.2680095
vn 0.5332938 -0.0666994 0.8432965
vn 0.6022755 -0.08396751 -0.7938601
vn 0.3574727 -0.6489458 -0.6716269
vn 0.8915192 -0.2102445 -0.4012366
vn 0.508314 0.1848207 0.8411054
vn -2.375714E-07 0.125613 -0.9920793
vn 0 -0.5623527 -0.8268975
vn 0.4126452 0.01633178 -0.9107454
vn -0.4983968 0.5542886 -0.666607
vn -0.007625023 0.9265808 -0.3760182
vn 0.819212 0.29517 -0.4916975
vn -0.2746259 0.765767 0.5815337
vn 0.06595235 0.2079193 -0.97592
vn -0.7552218 0.2714151 -0.5966355
vn -0.7536514 0.06253771 0.6542925
vn 0.001633113 0.5965559 -0.8025699
vn 0.3574727 -0.6489458 -0.6716269
vn 0 -0.9581747 -0.2861838
vn 0.6361012 -0.763928 -0.1085775
vn 0 -0.5623527 -0.8268975
vn -0.3574727 -0.6489458 -0.6716269
vn -0.6361014 -0.7639279 -0.1085777
vn 0 -0.9581747 -0.2861838
vn -0.5882763 -0.7276242 0.3528373
vn 0 -0.9581747 -0.2861838
vn 1.293915E-07 -0.9402281 0.3405454
vn 0.6361012 -0.763928 -0.1085775
vn 0 -0.9581747 -0.2861838
vn 0.5882758 -0.7276241 0.3528383
vn 0 -0.9581747 -0.2861838
g Head_0
f 3/3/3 2/2/2 1/1/1
f 4/4/4 3/3/3 1/1/1
f 1/1/1 5/5/5 4/4/4
f 4/4/4 6/6/6 3/3/3
f 6/6/6 7/7/7 3/3/3
f 5/5/5 8/8/8 4/4/4
f 5/5/5 9/9/9 8/8/8
f 6/6/6 10/10/10 7/7/7
f 10/10/10 11/11/11 7/7/7
f 12/12/12 6/6/6 4/4/4
f 12/12/12 4/4/4 8/8/8
f 10/10/10 6/6/6 13/13/13
f 6/6/6 12/12/12 13/13/13
f 10/10/10 13/13/13 14/14/14
f 9/9/9 15/15/15 8/8/8
f 9/9/9 16/16/16 15/15/15
f 12/12/12 8/8/8 17/17/17
f 8/8/8 15/15/15 17/17/17
f 13/13/13 12/12/12 18/18/18
f 12/12/12 17/17/17 18/18/18
f 19/19/19 13/13/13 18/18/18
f 16/16/16 19/19/19 20/20/20
f 16/16/16 20/20/20 15/15/15
f 17/17/17 15/15/15 20/20/20
f 19/19/19 18/18/18 20/20/20
f 18/18/18 17/17/17 20/20/20
f 23/23/23 22/22/22 21/21/21
f 23/23/23 24/24/24 22/22/22
f 24/24/24 23/23/23 25/25/25
f 24/24/24 26/26/26 22/22/22
f 27/27/27 26/26/26 24/24/24
f 28/28/28 24/24/24 25/25/25
f 28/28/28 27/27/27 24/24/24
f 25/25/25 29/29/29 28/28/28
f 28/28/28 29/29/29 27/27/27
f 25/25/25 30/30/30 29/29/29
f 30/30/30 31/31/31 29/29/29
f 29/29/29 31/31/31 32/32/32
f 29/29/29 32/32/32 27/27/27
f 31/31/31 33/33/33 32/32/32
f 33/33/33 34/34/34 32/32/32
f 34/34/34 35/35/35 32/32/32
f 32/32/32 35/35/35 27/27/27
f 34/34/34 36/36/36 35/35/35
f 36/36/36 37/37/37 35/35/35
f 22/22/22 26/26/26 38/38/38
f 22/22/22 38/38/38 39/39/39
f 26/26/26 40/40/40 38/38/38
f 26/26/26 27/27/27 40/40/40
f 38/38/38 40/40/40 37/37/37
f 35/35/35 37/37/37 41/41/41
f 35/35/35 41/41/41 27/27/27
f 27/27/27 41/41/41 40/40/40
f 40/40/40 41/41/41 37/37/37
f 44/44/44 43/43/43 42/42/42
f 45/45/45 42/42/42 43/43/43
f 46/46/46 42/42/42 45/45/45
f 47/47/47 46/46/46 45/45/45
f 47/47/47 45/45/45 48/48/48
f 46/46/46 47/47/47 49/49/49
f 52/52/52 51/51/51 50/50/50
f 52/52/52 53/53/53 51/51/51
f 53/53/53 52/52/52 54/54/54
f 54/54/54 55/55/55 53/53/53
f 53/53/53 56/56/56 51/51/51
f 51/51/51 56/56/56 57/57/57
f 60/60/60 59/59/59 58/58/58
f 59/59/59 61/61/61 58/58/58
f 62/62/62 58/58/58 61/61/61
f 63/63/63 61/61/61 59/59/59
f 64/64/64 63/63/63 59/59/59
f 65/65/65 62/62/62 61/61/61
f 66/66/66 62/62/62 65/65/65
f 67/67/67 63/63/63 64/64/64
f 68/68/68 67/67/67 64/64/64
f 63/63/63 69/69/69 61/61/61
f 61/61/61 69/69/69 65/65/65
f 63/63/63 67/67/67 70/70/70
f 69/69/69 63/63/63 70/70/70
f 70/70/70 67/67/67 71/71/71
f 72/72/72 66/66/66 65/65/65
f 73/73/73 66/66/66 72/72/72
f 65/65/65 69/69/69 74/74/74
f 72/72/72 65/65/65 74/74/74
f 69/69/69 70/70/70 75/75/75
f 74/74/74 69/69/69 75/75/75
f 70/70/70 76/76/76 75/75/75
f 76/76/76 73/73/73 77/77/77
f 77/77/77 73/73/73 72/72/72
f 72/72/72 74/74/74 77/77/77
f 75/75/75 76/76/76 77/77/77
f 74/74/74 75/75/75 77/77/77
f 80/80/80 79/79/79 78/78/78
f 78/78/78 79/79/79 81/81/81
f 81/81/81 79/79/79 82/82/82
f 82/82/82 79/79/79 83/83/83
f 83/83/83 79/79/79 84/84/84
f 84/84/84 85/85/85 83/83/83
f 84/84/84 86/86/86 85/85/85
f 86/86/86 87/87/87 85/85/85
f 89/89/89 79/79/79 88/88/88
f 90/90/90 89/89/89 88/88/88
f 87/87/87 91/91/91 90/90/90
f 91/91/91 89/89/89 90/90/90
