g HeadDots_Lvl10
v 2.602559 12.98219 0.254128
v 2.318383 12.97288 0.5816785
v 2.319839 13.14033 0.1815674
v 2.718812 12.81859 0.5185622
v 2.036266 13.20039 0.3433866
v 2.6005 12.74537 0.8199697
v 1.917954 13.12717 0.6447945
v 2.316927 12.80542 0.9817889
v 2.034207 12.96357 0.9092286
v 1.649485 13.05373 1.133305
v 1.369085 13.06217 1.463719
v 1.369085 13.20261 1.053342
v 1.765631 12.90573 1.40682
v 1.061231 13.23562 1.171776
v 1.649485 12.85513 1.713666
v 0.9341906 13.17163 1.461957
v 1.369085 12.92174 1.874096
v 1.061231 13.03701 1.752137
v 2.571223 13.02708 -0.8838336
v 2.271026 13.16016 -0.6090312
v 2.289924 13.12214 -1.029699
v 2.67667 13.00997 -0.5769939
v 1.997554 13.23948 -0.9291431
v 2.540094 13.08374 -0.2721453
v 1.865383 13.31036 -0.6410667
v 2.246288 13.20124 -0.1766935
v 1.966912 13.29528 -0.3266325
v -2.602559 12.98219 0.254128
v -2.319839 13.14033 0.1815674
v -2.318383 12.97288 0.5816785
v -2.718812 12.81859 0.5185622
v -2.036266 13.20039 0.3433866
v -2.6005 12.74537 0.8199697
v -1.917954 13.12717 0.6447945
v -2.316927 12.80542 0.9817889
v -2.034207 12.96357 0.9092286
v -1.649487 13.05401 1.13358
v -1.369087 13.20288 1.053618
v -1.369087 13.06746 1.469212
v -1.765633 12.90601 1.407095
v -1.061232 13.25637 1.187034
v -1.649487 12.85541 1.713942
v -0.9341924 13.17684 1.473348
v -1.369087 12.92201 1.874372
v -1.061232 13.03728 1.752413
v -2.571223 13.02708 -0.8838336
v -2.289924 13.12214 -1.029699
v -2.271026 13.16016 -0.6090312
v -2.67667 13.00997 -0.5769939
v -1.997554 13.23948 -0.9291431
v -2.540094 13.08374 -0.2721453
v -1.865383 13.31036 -0.6410667
v -2.246288 13.20124 -0.1766935
v -1.966912 13.29528 -0.3266325
v 0.3231221 13.51379 -1.383067
v 0.01642032 13.54627 -1.07809
v 0.01642032 13.50034 -1.509393
v 0.4501622 13.54627 -1.07809
v -0.2902815 13.51379 -1.383067
v 0.3231221 13.57874 -0.7731121
v -0.4173215 13.54627 -1.07809
v 0.01642032 13.59219 -0.6467856
v -0.2902815 13.57874 -0.7731121
v 0.3231221 11.27169 2.881071
v 0.01642032 10.96724 2.918174
v 0.01642032 11.3978 2.865704
v 0.4501622 10.96724 2.918174
v -0.2902815 11.27169 2.881071
v 0.3231221 10.66279 2.955275
v -0.4173215 10.96724 2.918174
v 0.01642032 10.53669 2.970643
v -0.2902815 10.66279 2.955275
v 0.3231221 13.62505 0.08123069
v 0.01642032 13.52575 0.3714114
v 0.01642032 13.66619 -0.0389659
v 0.4501622 13.52575 0.3714114
v -0.2902815 13.62505 0.08123069
v 0.3231221 13.42645 0.6615922
v -0.4173215 13.52575 0.3714114
v 0.01642032 13.38531 0.7817888
v -0.2902815 13.42645 0.6615922
v 0.3231221 13.193 1.384002
v 0.01642031 13.0937 1.674183
v 0.01642031 13.23413 1.263805
v 0.4501622 13.0937 1.674183
v -0.2902815 13.193 1.384002
v 0.3231221 12.99439 1.964363
v -0.4173215 13.0937 1.674183
v 0.01642031 12.95326 2.08456
v -0.2902815 12.99439 1.964362
v 0.3231221 12.47791 2.321151
v 0.01642041 12.20827 2.467287
v 0.01642041 12.58961 2.26062
v 0.4501622 12.20827 2.467287
v -0.2902815 12.47791 2.321151
v 0.3231221 11.93862 2.613423
v -0.4173215 12.20827 2.467287
v 0.01642041 11.82693 2.673955
v -0.2902815 11.93862 2.613422
vt 0.653367 0.9834856
vt 0.6510793 0.9810685
vt 0.6510793 0.9844333
vt 0.6543146 0.9811978
vt 0.6487916 0.9834856
vt 0.653367 0.9789101
vt 0.6478439 0.9811978
vt 0.6510793 0.9779625
vt 0.6487916 0.9789101
vt 0.6913688 0.9886806
vt 0.6843187 0.9812319
vt 0.6843187 0.9916011
vt 0.6942891 0.9816305
vt 0.6772686 0.9886806
vt 0.6913688 0.9745805
vt 0.6743483 0.9816305
vt 0.6843187 0.9716603
vt 0.6772686 0.9745805
vt 0.653367 0.9834856
vt 0.6510793 0.9810685
vt 0.6510793 0.9844333
vt 0.6543146 0.9811978
vt 0.6487916 0.9834856
vt 0.653367 0.9789101
vt 0.6478439 0.9811978
vt 0.6510793 0.9779625
vt 0.6487916 0.9789101
vt 0.653367 0.9834856
vt 0.6510793 0.9844333
vt 0.6510793 0.9810685
vt 0.6543146 0.9811978
vt 0.6487916 0.9834856
vt 0.653367 0.9789101
vt 0.6478439 0.9811978
vt 0.6510793 0.9779625
vt 0.6487916 0.9789101
vt 0.6913688 0.9886806
vt 0.6843187 0.9916011
vt 0.6843187 0.9812319
vt 0.6942891 0.9816305
vt 0.6772686 0.9886806
vt 0.6913688 0.9745805
vt 0.6743483 0.9816305
vt 0.6843187 0.9716603
vt 0.6772686 0.9745805
vt 0.653367 0.9834856
vt 0.6510793 0.9844333
vt 0.6510793 0.9810685
vt 0.6543146 0.9811978
vt 0.6487916 0.9834856
vt 0.653367 0.9789101
vt 0.6478439 0.9811978
vt 0.6510793 0.9779625
vt 0.6487916 0.9789101
vt 0.653367 0.9834856
vt 0.6510793 0.9810685
vt 0.6510793 0.9844333
vt 0.6543146 0.9811978
vt 0.6487916 0.9834856
vt 0.653367 0.9789101
vt 0.6478439 0.9811978
vt 0.6510793 0.9779625
vt 0.6487916 0.9789101
vt 0.653367 0.9834856
vt 0.6510793 0.9810685
vt 0.6510793 0.9844333
vt 0.6543146 0.9811978
vt 0.6487916 0.9834856
vt 0.653367 0.9789101
vt 0.6478439 0.9811978
vt 0.6510793 0.9779625
vt 0.6487916 0.9789101
vt 0.6913688 0.9886806
vt 0.6843187 0.9812319
vt 0.6843187 0.9916011
vt 0.6942891 0.9816305
vt 0.6772686 0.9886806
vt 0.6913688 0.9745805
vt 0.6743483 0.9816305
vt 0.6843187 0.9716603
vt 0.6772686 0.9745805
vt 0.6913689 0.9890795
vt 0.6843187 0.9816307
vt 0.6843187 0.9919999
vt 0.6942891 0.9820295
vt 0.6772686 0.9890795
vt 0.6913689 0.9749794
vt 0.6743484 0.9820295
vt 0.6843187 0.9720592
vt 0.6772686 0.9749794
vt 0.6913688 0.9886806
vt 0.6843187 0.9812319
vt 0.6843187 0.9916011
vt 0.6942891 0.9816305
vt 0.6772686 0.9886806
vt 0.6913688 0.9745805
vt 0.6743483 0.9816305
vt 0.6843187 0.9716603
vt 0.6772686 0.9745805
vn 0.3843119 0.8511271 0.3576129
vn 0.3843133 0.8511248 0.3576171
vn 0.3843152 0.8511242 0.3576162
vn 0.3843104 0.8511266 0.357616
vn 0.3843142 0.8511226 0.3576213
vn 0.384308 0.8511251 0.3576217
vn 0.3843127 0.8511267 0.357613
vn 0.3843147 0.8511215 0.3576233
vn 0.3843189 0.851124 0.3576126
vn 0.3831932 0.8725883 0.302907
vn 0.3037528 0.9013855 0.3086072
vn 0.2968067 0.9035001 0.3091817
vn 0.3870109 0.8723906 0.2985918
vn 0.2259974 0.9233945 0.3102703
vn 0.3831275 0.8752523 0.2952062
vn 0.2304834 0.9208612 0.3144712
vn 0.3008825 0.9022891 0.3087785
vn 0.2251234 0.9200827 0.320573
vn 0.351164 0.933796 -0.06862132
vn 0.3511611 0.9337971 -0.06862153
vn 0.3511607 0.9337978 -0.0686138
vn 0.3511626 0.9337961 -0.06862622
vn 0.3511582 0.9337981 -0.06862296
vn 0.351162 0.9337966 -0.06862321
vn 0.3511602 0.9337972 -0.06862537
vn 0.3511609 0.9337972 -0.0686207
vn 0.3511604 0.9337976 -0.06861912
vn -0.3843118 0.8511271 0.3576129
vn -0.384315 0.8511239 0.3576172
vn -0.3843134 0.8511249 0.3576166
vn -0.3843105 0.851127 0.3576147
vn -0.3843143 0.8511226 0.3576209
vn -0.3843085 0.8511258 0.3576196
vn -0.384313 0.8511271 0.3576117
vn -0.3843149 0.8511217 0.3576225
vn -0.3843189 0.851124 0.3576127
vn -0.3920244 0.8721927 0.2925692
vn -0.3336966 0.8962936 0.2920693
vn -0.3160695 0.8944389 0.3163529
vn -0.3996071 0.8672988 0.2968282
vn -0.2590015 0.9091617 0.3261029
vn -0.3922461 0.8684878 0.3031038
vn -0.2314897 0.9070462 0.3516812
vn -0.3008133 0.8975984 0.3222245
vn -0.2229008 0.913754 0.3396599
vn -0.3511641 0.9337961 -0.0686198
vn -0.3511607 0.9337977 -0.06861512
vn -0.3511611 0.9337971 -0.06862088
vn -0.3511626 0.9337963 -0.0686233
vn -0.3511582 0.933798 -0.06862425
vn -0.351162 0.9337968 -0.06862161
vn -0.3511602 0.9337972 -0.06862461
vn -0.3511611 0.9337972 -0.06862054
vn -0.3511604 0.9337976 -0.06861838
vn 5.253368E-06 0.9943786 -0.105883
vn 0 0.994379 -0.10588
vn 0 0.9943792 -0.1058771
vn 0 0.9943783 -0.1058859
vn -5.230429E-06 0.9943786 -0.105883
vn -8.075049E-06 0.9943792 -0.1058771
vn 0 0.994378 -0.1058888
vn 0 0.9943802 -0.1058683
vn 8.075049E-06 0.9943792 -0.1058771
vn 1.468191E-06 0.1209724 0.9926559
vn 0 0.1209709 0.9926561
vn 0 0.1209716 0.992656
vn 0 0.1209709 0.9926561
vn -1.468191E-06 0.1209724 0.9926559
vn 7.340946E-07 0.1209694 0.9926563
vn 0 0.1209708 0.9926561
vn 0 0.1209702 0.9926562
vn -7.340946E-07 0.1209694 0.9926563
vn 5.574532E-06 0.9461306 0.3237852
vn 0 0.9461327 0.3237792
vn 0 0.9461305 0.3237852
vn 0 0.9461343 0.3237745
vn -5.574536E-06 0.9461324 0.3237799
vn -5.41395E-06 0.9461343 0.3237745
vn 0 0.9461343 0.3237745
vn 0 0.9461315 0.3237824
vn 5.413956E-06 0.9461334 0.3237771
vn 5.32219E-06 0.9461333 0.3237772
vn 0 0.9461331 0.323778
vn 0 0.9461343 0.3237747
vn 0 0.9461352 0.323772
vn -5.322201E-06 0.9461352 0.323772
vn -5.505719E-06 0.9461324 0.3237799
vn 0 0.9461342 0.3237751
vn -3.670577E-07 0.9461287 0.3237906
vn 5.138671E-06 0.9461313 0.3237831
vn 0 0.476476 0.8791875
vn 0 0.4764758 0.8791875
vn 0 0.4764749 0.879188
vn 0 0.4764756 0.8791876
vn 0 0.4764761 0.8791875
vn 1.468191E-06 0.4764763 0.8791873
vn 0 0.4764745 0.8791883
vn 0 0.4764785 0.8791862
vn -1.468191E-06 0.4764753 0.8791879
g HeadDots_Lvl10_0
f 3/3/3 2/2/2 1/1/1
f 1/1/1 2/2/2 4/4/4
f 5/5/5 2/2/2 3/3/3
f 4/4/4 2/2/2 6/6/6
f 7/7/7 2/2/2 5/5/5
f 6/6/6 2/2/2 8/8/8
f 9/9/9 2/2/2 7/7/7
f 8/8/8 2/2/2 9/9/9
f 12/12/12 11/11/11 10/10/10
f 10/10/10 11/11/11 13/13/13
f 14/14/14 11/11/11 12/12/12
f 13/13/13 11/11/11 15/15/15
f 16/16/16 11/11/11 14/14/14
f 15/15/15 11/11/11 17/17/17
f 18/18/18 11/11/11 16/16/16
f 17/17/17 11/11/11 18/18/18
f 21/21/21 20/20/20 19/19/19
f 19/19/19 20/20/20 22/22/22
f 23/23/23 20/20/20 21/21/21
f 22/22/22 20/20/20 24/24/24
f 25/25/25 20/20/20 23/23/23
f 24/24/24 20/20/20 26/26/26
f 27/27/27 20/20/20 25/25/25
f 26/26/26 20/20/20 27/27/27
f 30/30/30 29/29/29 28/28/28
f 30/30/30 28/28/28 31/31/31
f 30/30/30 32/32/32 29/29/29
f 30/30/30 31/31/31 33/33/33
f 30/30/30 34/34/34 32/32/32
f 30/30/30 33/33/33 35/35/35
f 30/30/30 36/36/36 34/34/34
f 30/30/30 35/35/35 36/36/36
f 39/39/39 38/38/38 37/37/37
f 39/39/39 37/37/37 40/40/40
f 39/39/39 41/41/41 38/38/38
f 39/39/39 40/40/40 42/42/42
f 39/39/39 43/43/43 41/41/41
f 39/39/39 42/42/42 44/44/44
f 39/39/39 45/45/45 43/43/43
f 39/39/39 44/44/44 45/45/45
f 48/48/48 47/47/47 46/46/46
f 48/48/48 46/46/46 49/49/49
f 48/48/48 50/50/50 47/47/47
f 48/48/48 49/49/49 51/51/51
f 48/48/48 52/52/52 50/50/50
f 48/48/48 51/51/51 53/53/53
f 48/48/48 54/54/54 52/52/52
f 48/48/48 53/53/53 54/54/54
f 57/57/57 56/56/56 55/55/55
f 55/55/55 56/56/56 58/58/58
f 59/59/59 56/56/56 57/57/57
f 58/58/58 56/56/56 60/60/60
f 61/61/61 56/56/56 59/59/59
f 60/60/60 56/56/56 62/62/62
f 63/63/63 56/56/56 61/61/61
f 62/62/62 56/56/56 63/63/63
f 66/66/66 65/65/65 64/64/64
f 64/64/64 65/65/65 67/67/67
f 68/68/68 65/65/65 66/66/66
f 67/67/67 65/65/65 69/69/69
f 70/70/70 65/65/65 68/68/68
f 69/69/69 65/65/65 71/71/71
f 72/72/72 65/65/65 70/70/70
f 71/71/71 65/65/65 72/72/72
f 75/75/75 74/74/74 73/73/73
f 73/73/73 74/74/74 76/76/76
f 77/77/77 74/74/74 75/75/75
f 76/76/76 74/74/74 78/78/78
f 79/79/79 74/74/74 77/77/77
f 78/78/78 74/74/74 80/80/80
f 81/81/81 74/74/74 79/79/79
f 80/80/80 74/74/74 81/81/81
f 84/84/84 83/83/83 82/82/82
f 82/82/82 83/83/83 85/85/85
f 86/86/86 83/83/83 84/84/84
f 85/85/85 83/83/83 87/87/87
f 88/88/88 83/83/83 86/86/86
f 87/87/87 83/83/83 89/89/89
f 90/90/90 83/83/83 88/88/88
f 89/89/89 83/83/83 90/90/90
f 93/93/93 92/92/92 91/91/91
f 91/91/91 92/92/92 94/94/94
f 95/95/95 92/92/92 93/93/93
f 94/94/94 92/92/92 96/96/96
f 97/97/97 92/92/92 95/95/95
f 96/96/96 92/92/92 98/98/98
f 99/99/99 92/92/92 97/97/97
f 98/98/98 92/92/92 99/99/99
