g Heed
v -0.5159522 9.498096 10.21601
v -0.2998978 8.70101 10.48254
v -1.512347 8.638277 8.610037
v -0.7092803 9.738212 8.610037
v -3.988231 8.513129 6.598954
v 0.7092803 9.738212 8.610037
v 0.5159522 9.498096 10.21601
v -0.2998978 8.70101 10.48254
v 0.2998978 8.70101 10.48254
v 1.512347 8.638277 8.610037
v 0.2998978 8.70101 10.48254
v 3.988231 8.513129 6.598954
v 2.018238 11.02566 7.073583
v -2.018238 11.02566 7.073583
v 3.276092 10.05508 5.355329
v 3.286426 8.477944 5.020172
v 1.303936 10.53566 4.476604
v 1.866526 8.427382 3.609614
v -3.276092 10.05508 5.355329
v -3.286426 8.477944 5.020172
v -1.866526 8.427382 3.609614
v -1.303936 10.53566 4.476604
v 0.8250532 9.604084 3.756246
v -0.8250532 9.604084 3.756246
v -3.276092 10.05508 5.355329
v -3.592835 14.52951 5.215186
v -2.018238 11.02566 7.073583
v -5.802692 12.11955 3.914302
v -1.303936 10.53566 4.476604
v -5.063096 15.67535 2.844225
v -2.881552 13.26688 3.365433
v -2.018238 11.02566 7.073583
v -3.592835 14.52951 5.215186
v 3.276092 10.05508 5.355329
v 2.018238 11.02566 7.073583
v 3.583639 14.52951 5.239888
v 5.793495 12.11955 3.939003
v 1.303936 10.53566 4.476604
v 5.0539 15.67535 2.868926
v 2.872356 13.26688 3.390134
v 2.018238 11.02566 7.073583
v 3.583639 14.52951 5.239888
v -0.2998978 8.70101 10.48254
v -1.373816 7.538341 8.610037
v -1.512347 8.638277 8.610037
v 0.2998978 8.70101 10.48254
v -3.988231 8.513129 6.598954
v 1.373816 7.538341 8.610037
v 1.512347 8.638277 8.610037
v 3.988231 8.513129 6.598954
v -2.195707 6.902896 7.274232
v 2.195707 6.902896 7.274232
v -2.195707 6.758245 5.07366
v -3.286426 8.477944 5.020172
v 2.195707 6.758245 5.07366
v 3.286426 8.477944 5.020172
v -0.9999497 7.283635 4.213705
v -1.866526 8.427382 3.609614
v 1.004771 7.283635 4.213705
v 1.866526 8.427382 3.609614
vt 0.394238 0.5070873
vt 0.4301311 0.549507
vt 0.4976592 0.4392544
vt 0.4210741 0.4192857
vt 0.6374002 0.2579802
vt 0.2986697 0.4192857
vt 0.3327835 0.5078964
vt 0.384878 0.5618727
vt 0.3493105 0.5638786
vt 0.2222659 0.4392544
vt 0.3018809 0.5558094
vt 0.08105639 0.2579802
vt 0.2593429 0.3016244
vt 0.4608972 0.3016244
vt 0.1776609 0.1985299
vt 0.1268681 0.1351821
vt 0.2917689 0.1595639
vt 0.2287767 0.03795335
vt 0.5390643 0.1931186
vt 0.5878836 0.1279558
vt 0.4817385 0.03121751
vt 0.4228075 0.1586559
vt 0.3077312 0.09184795
vt 0.4068282 0.09070066
vt 0.02414225 0.7008806
vt 0.249695 0.5846604
vt 0.01633581 0.5776306
vt 0.1793627 0.7222679
vt 0.01634928 0.8286729
vt 0.3381322 0.7615652
vt 0.1718092 0.8477817
vt 0.0236444 0.9857659
vt 0.2547967 0.9335974
vt 0.02414437 0.7008741
vt 0.0163496 0.5776225
vt 0.2497091 0.5846691
vt 0.179366 0.72227
vt 0.0163437 0.8286698
vt 0.3381326 0.7615814
vt 0.1718031 0.8477819
vt 0.02363874 0.9857614
vt 0.2547852 0.9336044
vt 0.8577661 0.0441754
vt 0.834475 0.1164743
vt 0.8693065 0.118858
vt 0.8430226 0.03094853
vt 0.8550943 0.2313601
vt 0.7720094 0.05698057
vt 0.769075 0.02198599
vt 0.657476 0.03759073
vt 0.8172144 0.1634457
vt 0.7260562 0.07433401
vt 0.770844 0.2078575
vt 0.7990301 0.256462
vt 0.6836048 0.1207306
vt 0.6339131 0.09396596
vt 0.7271405 0.2069758
vt 0.7257672 0.2559034
vt 0.6851078 0.1636719
vt 0.6355297 0.166938
vn -0.3891302 0.6487612 0.6539775
vn -0.6057494 -0.1032536 0.7889274
vn -0.8059428 0.05275184 0.5896383
vn -0.4751474 0.6659758 0.5750749
vn -0.9448712 -0.1365787 0.2975981
vn 0.4751473 0.6659759 0.5750749
vn 0.3891301 0.6487612 0.6539776
vn -0.6057494 -0.1032536 0.7889274
vn 0.6057493 -0.1032535 0.7889276
vn 0.8059428 0.05275184 0.5896384
vn 0.6057493 -0.1032535 0.7889276
vn 0.9448712 -0.1365787 0.2975982
vn 0.3492944 0.7225487 0.5965876
vn -0.3492945 0.7225487 0.5965875
vn 0.8141236 0.09343967 -0.5731246
vn 0.737443 -0.4053313 -0.5402633
vn -0.1922206 0.5704926 -0.7984919
vn 0.3096952 -0.07290449 -0.9480368
vn -0.8141236 0.09343963 -0.5731246
vn -0.7372919 -0.405445 -0.5403844
vn -0.3095307 -0.07292042 -0.9480893
vn 0.1922207 0.5704926 -0.7984919
vn 0.1254283 0.2311224 -0.9648058
vn -0.1254283 0.2311223 -0.9648058
vn -0.8141236 0.09343963 -0.5731246
vn 0.03038022 0.657311 0.7530069
vn -0.3492945 0.7225487 0.5965875
vn -0.8205559 -0.286597 -0.4945202
vn 0.1922207 0.5704926 -0.7984919
vn 0.08542272 0.8306974 -0.5501316
vn 0.8009015 0.1332263 -0.5837871
vn -0.3492945 0.7225487 0.5965875
vn 0.03038022 0.657311 0.7530069
vn 0.8141236 0.09343967 -0.5731246
vn 0.3492944 0.7225487 0.5965876
vn -0.03038035 0.657311 0.7530068
vn 0.8205559 -0.2865969 -0.4945201
vn -0.1922206 0.5704926 -0.7984919
vn -0.08542257 0.8306973 -0.5501319
vn -0.8009015 0.1332262 -0.5837873
vn 0.3492944 0.7225487 0.5965876
vn -0.03038035 0.657311 0.7530068
vn -0.6057494 -0.1032536 0.7889274
vn -0.4619548 -0.6611241 0.591196
vn -0.8059428 0.05275184 0.5896383
vn 0.6057493 -0.1032535 0.7889276
vn -0.9448712 -0.1365787 0.2975981
vn 0.4619548 -0.6611241 0.5911959
vn 0.8059428 0.05275184 0.5896384
vn 0.9448712 -0.1365787 0.2975982
vn -0.4210455 -0.8589664 0.2913715
vn 0.4210455 -0.8589664 0.2913715
vn -0.354644 -0.8538549 -0.380998
vn -0.7372919 -0.405445 -0.5403844
vn 0.3548747 -0.8537928 -0.3809221
vn 0.737443 -0.4053313 -0.5402633
vn -0.8351914 0.3216373 -0.4460996
vn -0.3095307 -0.07292042 -0.9480893
vn 0.8352885 0.3216834 -0.4458846
vn 0.3096952 -0.07290449 -0.9480368
g Heed_0
f 3/3/3 2/2/2 1/1/1
f 4/4/4 3/3/3 1/1/1
f 3/3/3 4/4/4 5/5/5
f 6/6/6 4/4/4 1/1/1
f 7/7/7 6/6/6 1/1/1
f 7/7/7 1/1/1 8/8/8
f 9/9/9 7/7/7 8/8/8
f 10/10/10 6/6/6 7/7/7
f 11/11/11 10/10/10 7/7/7
f 6/6/6 10/10/10 12/12/12
f 6/6/6 13/13/13 4/4/4
f 13/13/13 6/6/6 12/12/12
f 4/4/4 14/14/14 5/5/5
f 13/13/13 14/14/14 4/4/4
f 15/15/15 13/13/13 12/12/12
f 15/15/15 12/12/12 16/16/16
f 13/13/13 17/17/17 14/14/14
f 15/15/15 16/16/16 18/18/18
f 14/14/14 19/19/19 5/5/5
f 5/5/5 19/19/19 20/20/20
f 20/20/20 19/19/19 21/21/21
f 17/17/17 22/22/22 14/14/14
f 15/15/15 23/23/23 17/17/17
f 23/23/23 15/15/15 18/18/18
f 17/17/17 23/23/23 22/22/22
f 18/18/18 21/21/21 24/24/24
f 19/19/19 24/24/24 21/21/21
f 22/22/22 24/24/24 19/19/19
f 23/23/23 18/18/18 24/24/24
f 23/23/23 24/24/24 22/22/22
f 27/27/27 26/26/26 25/25/25
f 26/26/26 28/28/28 25/25/25
f 25/25/25 28/28/28 29/29/29
f 26/26/26 30/30/30 28/28/28
f 28/28/28 31/31/31 29/29/29
f 28/28/28 30/30/30 31/31/31
f 29/29/29 31/31/31 32/32/32
f 31/31/31 30/30/30 33/33/33
f 31/31/31 33/33/33 32/32/32
f 36/36/36 35/35/35 34/34/34
f 37/37/37 36/36/36 34/34/34
f 37/37/37 34/34/34 38/38/38
f 39/39/39 36/36/36 37/37/37
f 40/40/40 37/37/37 38/38/38
f 39/39/39 37/37/37 40/40/40
f 40/40/40 38/38/38 41/41/41
f 39/39/39 40/40/40 42/42/42
f 42/42/42 40/40/40 41/41/41
f 45/45/45 44/44/44 43/43/43
f 46/46/46 43/43/43 44/44/44
f 45/45/45 47/47/47 44/44/44
f 48/48/48 46/46/46 44/44/44
f 48/48/48 49/49/49 46/46/46
f 50/50/50 49/49/49 48/48/48
f 47/47/47 51/51/51 44/44/44
f 48/48/48 44/44/44 51/51/51
f 52/52/52 50/50/50 48/48/48
f 52/52/52 48/48/48 51/51/51
f 47/47/47 53/53/53 51/51/51
f 52/52/52 51/51/51 53/53/53
f 47/47/47 54/54/54 53/53/53
f 55/55/55 50/50/50 52/52/52
f 55/55/55 52/52/52 53/53/53
f 55/55/55 56/56/56 50/50/50
f 53/53/53 54/54/54 57/57/57
f 53/53/53 57/57/57 55/55/55
f 54/54/54 58/58/58 57/57/57
f 56/56/56 55/55/55 59/59/59
f 57/57/57 59/59/59 55/55/55
f 59/59/59 57/57/57 58/58/58
f 60/60/60 56/56/56 59/59/59
f 60/60/60 59/59/59 58/58/58
