g Helipad400
v 18.28992 -1.240377 -13.52754
v 18.28992 -1.240377 0
v 16.92399 1.240377 0
v 16.92399 1.240377 -12.50306
v 0 1.240377 0
v 16.60198 1.240377 -14.12193
v 17.94192 -1.240377 -15.27708
v 15.68496 1.240377 -15.49434
v 16.95088 -1.240377 -16.76026
v 14.31255 1.240377 -16.41136
v 15.4677 -1.240377 -17.75129
v 12.69368 1.240377 -16.73337
v 0 1.240377 -16.73337
v 13.71816 -1.240377 -18.0993
v 0 -1.240377 -18.0993
v 15.4677 -1.240377 -17.75129
v 13.71816 -1.240377 -18.0993
v 0 -1.240377 -18.0993
v 0 -1.240377 0
v 16.95088 -1.240377 -16.76026
v 17.94192 -1.240377 -15.27708
v 18.28992 -1.240377 -13.52754
v 18.28992 -1.240377 0
v 18.28992 -1.240377 13.52754
v 16.92399 1.240377 0
v 18.28992 -1.240377 0
v 16.92399 1.240377 12.50306
v 16.60198 1.240377 14.12193
v 17.94192 -1.240377 15.27708
v 0 1.240377 16.73337
v 0 1.240377 0
v 15.68496 1.240377 15.49434
v 16.95088 -1.240377 16.76026
v 14.31255 1.240377 16.41136
v 15.4677 -1.240377 17.75129
v 12.69368 1.240377 16.73337
v 0 -1.240377 18.0993
v 13.71816 -1.240377 18.0993
v 18.28992 -1.240377 13.52754
v 18.28992 -1.240377 0
v 0 -1.240377 0
v 0 -1.240377 18.0993
v 17.94192 -1.240377 15.27708
v 16.95088 -1.240377 16.76026
v 15.4677 -1.240377 17.75129
v 13.71816 -1.240377 18.0993
v -18.28992 -1.240377 -13.52754
v -16.92399 1.240377 0
v -18.28992 -1.240377 0
v -16.92399 1.240377 -12.50306
v 0 1.240377 0
v -16.60198 1.240377 -14.12193
v -17.94192 -1.240377 -15.27708
v -15.68496 1.240377 -15.49434
v -16.95088 -1.240377 -16.76026
v -14.31255 1.240377 -16.41136
v 0 1.240377 -16.73337
v -15.4677 -1.240377 -17.75129
v -12.69368 1.240377 -16.73337
v 0 -1.240377 -18.0993
v -13.71816 -1.240377 -18.0993
v 0 -1.240377 0
v 0 -1.240377 -18.0993
v -13.71816 -1.240377 -18.0993
v -15.4677 -1.240377 -17.75129
v -16.95088 -1.240377 -16.76026
v -17.94192 -1.240377 -15.27708
v -18.28992 -1.240377 -13.52754
v -18.28992 -1.240377 0
v -18.28992 -1.240377 13.52754
v -18.28992 -1.240377 0
v -16.92399 1.240377 0
v -16.92399 1.240377 12.50306
v 0 1.240377 0
v 0 1.240377 16.73337
v -16.60198 1.240377 14.12193
v -17.94192 -1.240377 15.27708
v -15.68496 1.240377 15.49434
v -16.95088 -1.240377 16.76026
v -14.31255 1.240377 16.41136
v -15.4677 -1.240377 17.75129
v -12.69368 1.240377 16.73337
v 0 -1.240377 18.0993
v -13.71816 -1.240377 18.0993
v 0 -1.240377 18.0993
v 0 -1.240377 0
v -18.28992 -1.240377 0
v -18.28992 -1.240377 13.52754
v -17.94192 -1.240377 15.27708
v -16.95088 -1.240377 16.76026
v -15.4677 -1.240377 17.75129
v -13.71816 -1.240377 18.0993
vt 0.527625 0.3467028
vt 0.527625 0.006741333
vt 0.5720403 0.006741333
vt 0.574833 0.3143997
vt 0.9818431 0.006741333
vt 0.5829735 0.3532093
vt 0.5412467 0.3968323
vt 0.6053494 0.386381
vt 0.5522965 0.4188371
vt 0.6387088 0.4085855
vt 0.5956308 0.4490488
vt 0.6775929 0.4167055
vt 0.9817825 0.4185969
vt 0.6458908 0.4610381
vt 0.9817825 0.4610381
vt 0.5110416 0.480038
vt 0.5128021 0.4803824
vt 0.5264588 0.4803277
vt 0.5264631 0.4620356
vt 0.5095469 0.4790506
vt 0.5085447 0.4775667
vt 0.5081872 0.4758097
vt 0.5081283 0.4621113
vt 0.527625 0.3466914
vt 0.5720297 0.006741333
vt 0.527625 0.006741333
vt 0.5748315 0.3143879
vt 0.582975 0.3532248
vt 0.5412499 0.3968737
vt 0.9817825 0.4187136
vt 0.981843 0.006741333
vt 0.6053485 0.3863691
vt 0.5522988 0.4188791
vt 0.638708 0.4085734
vt 0.5956348 0.4491464
vt 0.6775866 0.4166075
vt 0.9817825 0.4610381
vt 0.6458923 0.4610381
vt 0.5128037 0.4803858
vt 0.526459 0.4803219
vt 0.5264561 0.4620397
vt 0.5081292 0.4621206
vt 0.5110451 0.4800461
vt 0.5095484 0.4790542
vt 0.5085442 0.4775652
vt 0.5081868 0.4758082
vt 0.527625 0.3466936
vt 0.5720257 0.006741333
vt 0.527625 0.006741333
vt 0.5748303 0.3143902
vt 0.9818429 0.006741333
vt 0.5829766 0.3532217
vt 0.5412545 0.3968654
vt 0.6053472 0.3863714
vt 0.5523034 0.4188708
vt 0.6387067 0.4085757
vt 0.9817825 0.4186944
vt 0.5956453 0.4491275
vt 0.6775765 0.4166258
vt 0.9817825 0.4610381
vt 0.6458968 0.4610381
vt 0.5264558 0.4620368
vt 0.5081289 0.4621124
vt 0.5081872 0.4758089
vt 0.5085447 0.4775659
vt 0.5095471 0.4790524
vt 0.5110419 0.4800422
vt 0.5128022 0.4803843
vt 0.5264623 0.4803234
vt 0.527625 0.3467135
vt 0.527625 0.006741333
vt 0.5719973 0.006741333
vt 0.574831 0.314408
vt 0.9818428 0.006741333
vt 0.9817825 0.4186512
vt 0.5829742 0.3531989
vt 0.5412431 0.3967959
vt 0.60535 0.3863883
vt 0.5522875 0.4188045
vt 0.6387103 0.4085916
vt 0.5956013 0.4489872
vt 0.6776062 0.4167418
vt 0.9817825 0.4610381
vt 0.6458761 0.4610381
vt 0.5264608 0.4803276
vt 0.526459 0.4620357
vt 0.5081248 0.4621114
vt 0.5081875 0.4758097
vt 0.508545 0.4775667
vt 0.5095461 0.4790506
vt 0.5110397 0.480038
vt 0.5128013 0.4803825
vn 0.8622321 -0.4995641 -0.08361467
vn 0.860909 -0.5087589 0
vn 0.4041937 0.9146734 0
vn 0.4932955 0.8685454 -0.04783716
vn 0 1 0
vn 0.4309358 0.8849559 -0.1764862
vn 0.8116222 -0.4804 -0.3323931
vn 0.3199572 0.8917705 -0.3199573
vn 0.6254312 -0.4665526 -0.6254314
vn 0.1764864 0.8849558 -0.4309358
vn 0.2474855 -0.7573473 -0.6042978
vn 0.0478375 0.8685455 -0.4932953
vn 0 0.9146735 -0.4041936
vn 0.09652105 0.005610326 -0.9953151
vn 0 -0.757893 -0.6523787
vn 0.2474855 -0.7573473 -0.6042978
vn 0.09652105 0.005610326 -0.9953151
vn 0 -0.757893 -0.6523787
vn 0 -1 0
vn 0.6254312 -0.4665526 -0.6254314
vn 0.8116222 -0.4804 -0.3323931
vn 0.8622321 -0.4995641 -0.08361467
vn 0.860909 -0.5087589 0
vn 0.6502224 -0.7571228 0.06305509
vn 0.4041937 0.9146734 0
vn 0.860909 -0.5087589 0
vn 0.4932955 0.8685454 0.04783716
vn 0.4309358 0.8849559 0.1764862
vn 0.8116222 -0.4804 0.3323931
vn 0 0.9894485 0.1448845
vn 0 1 0
vn 0.3199572 0.8917705 0.3199573
vn 0.6254312 -0.4665526 0.6254314
vn 0.1764864 0.8849558 0.4309358
vn 0.3323936 -0.4804 0.811622
vn 0.06270683 0.7602252 0.6466262
vn 0 -0.9851004 0.1719798
vn 0.09652105 0.005610326 0.9953151
vn 0.6502224 -0.7571228 0.06305509
vn 0.860909 -0.5087589 0
vn 0 -1 0
vn 0 -0.9851004 0.1719798
vn 0.8116222 -0.4804 0.3323931
vn 0.6254312 -0.4665526 0.6254314
vn 0.3323936 -0.4804 0.811622
vn 0.09652105 0.005610326 0.9953151
vn -0.8622321 -0.4995641 -0.08361467
vn -0.5087588 0.8609091 0
vn -0.6523787 -0.7578931 0
vn -0.4932955 0.8685454 -0.04783716
vn 0 1 0
vn -0.4309358 0.8849559 -0.1764862
vn -0.8116222 -0.4804 -0.3323931
vn -0.3199572 0.8917705 -0.3199573
vn -0.6254312 -0.4665526 -0.6254314
vn -0.140154 0.9291079 -0.3422211
vn 0 0.9146735 -0.4041936
vn -0.3323936 -0.4804 -0.811622
vn -0.06270683 0.7602252 -0.6466262
vn 0 -0.757893 -0.6523787
vn -0.08361528 -0.4995641 -0.8622321
vn 0 -1 0
vn 0 -0.757893 -0.6523787
vn -0.08361528 -0.4995641 -0.8622321
vn -0.3323936 -0.4804 -0.811622
vn -0.6254312 -0.4665526 -0.6254314
vn -0.8116222 -0.4804 -0.3323931
vn -0.8622321 -0.4995641 -0.08361467
vn -0.6523787 -0.7578931 0
vn -0.8622321 -0.4995641 0.08361467
vn -0.6523787 -0.7578931 0
vn -0.5087588 0.8609091 0
vn -0.3918763 0.9192327 0.03800207
vn 0 1 0
vn 0 0.9894485 0.1448845
vn -0.4309358 0.8849559 0.1764862
vn -0.8116222 -0.4804 0.3323931
vn -0.3199572 0.8917705 0.3199573
vn -0.6254312 -0.4665526 0.6254314
vn -0.1764864 0.8849558 0.4309358
vn -0.3323936 -0.4804 0.811622
vn -0.06270683 0.7602252 0.6466262
vn 0 -0.9851004 0.1719798
vn -0.09652105 0.005610326 0.9953151
vn 0 -0.9851004 0.1719798
vn 0 -1 0
vn -0.6523787 -0.7578931 0
vn -0.8622321 -0.4995641 0.08361467
vn -0.8116222 -0.4804 0.3323931
vn -0.6254312 -0.4665526 0.6254314
vn -0.3323936 -0.4804 0.811622
vn -0.09652105 0.005610326 0.9953151
g Helipad400_0
f 3/3/3 2/2/2 1/1/1
f 4/4/4 3/3/3 1/1/1
f 5/5/5 3/3/3 4/4/4
f 4/4/4 1/1/1 6/6/6
f 5/5/5 4/4/4 6/6/6
f 1/1/1 7/7/7 6/6/6
f 6/6/6 7/7/7 8/8/8
f 5/5/5 6/6/6 8/8/8
f 7/7/7 9/9/9 8/8/8
f 8/8/8 9/9/9 10/10/10
f 5/5/5 8/8/8 10/10/10
f 9/9/9 11/11/11 10/10/10
f 5/5/5 10/10/10 12/12/12
f 10/10/10 11/11/11 12/12/12
f 12/12/12 13/13/13 5/5/5
f 11/11/11 14/14/14 12/12/12
f 15/15/15 13/13/13 12/12/12
f 14/14/14 15/15/15 12/12/12
f 18/18/18 17/17/17 16/16/16
f 16/16/16 19/19/19 18/18/18
f 16/16/16 20/20/20 19/19/19
f 20/20/20 21/21/21 19/19/19
f 21/21/21 22/22/22 19/19/19
f 22/22/22 23/23/23 19/19/19
f 26/26/26 25/25/25 24/24/24
f 25/25/25 27/27/27 24/24/24
f 24/24/24 27/27/27 28/28/28
f 29/29/29 24/24/24 28/28/28
f 30/30/30 27/27/27 25/25/25
f 30/30/30 28/28/28 27/27/27
f 25/25/25 31/31/31 30/30/30
f 29/29/29 28/28/28 32/32/32
f 30/30/30 32/32/32 28/28/28
f 33/33/33 29/29/29 32/32/32
f 33/33/33 32/32/32 34/34/34
f 30/30/30 34/34/34 32/32/32
f 35/35/35 33/33/33 34/34/34
f 30/30/30 36/36/36 34/34/34
f 35/35/35 34/34/34 36/36/36
f 30/30/30 37/37/37 36/36/36
f 38/38/38 35/35/35 36/36/36
f 37/37/37 38/38/38 36/36/36
f 41/41/41 40/40/40 39/39/39
f 39/39/39 42/42/42 41/41/41
f 39/39/39 43/43/43 42/42/42
f 43/43/43 44/44/44 42/42/42
f 44/44/44 45/45/45 42/42/42
f 45/45/45 46/46/46 42/42/42
f 49/49/49 48/48/48 47/47/47
f 48/48/48 50/50/50 47/47/47
f 50/50/50 48/48/48 51/51/51
f 47/47/47 50/50/50 52/52/52
f 52/52/52 50/50/50 51/51/51
f 53/53/53 47/47/47 52/52/52
f 53/53/53 52/52/52 54/54/54
f 54/54/54 52/52/52 51/51/51
f 55/55/55 53/53/53 54/54/54
f 56/56/56 54/54/54 51/51/51
f 55/55/55 54/54/54 56/56/56
f 56/56/56 51/51/51 57/57/57
f 58/58/58 55/55/55 56/56/56
f 57/57/57 59/59/59 56/56/56
f 58/58/58 56/56/56 59/59/59
f 57/57/57 60/60/60 59/59/59
f 61/61/61 58/58/58 59/59/59
f 60/60/60 61/61/61 59/59/59
f 64/64/64 63/63/63 62/62/62
f 62/62/62 65/65/65 64/64/64
f 62/62/62 66/66/66 65/65/65
f 62/62/62 67/67/67 66/66/66
f 62/62/62 68/68/68 67/67/67
f 62/62/62 69/69/69 68/68/68
f 72/72/72 71/71/71 70/70/70
f 73/73/73 72/72/72 70/70/70
f 74/74/74 72/72/72 73/73/73
f 73/73/73 75/75/75 74/74/74
f 73/73/73 70/70/70 76/76/76
f 73/73/73 76/76/76 75/75/75
f 70/70/70 77/77/77 76/76/76
f 76/76/76 77/77/77 78/78/78
f 76/76/76 78/78/78 75/75/75
f 77/77/77 79/79/79 78/78/78
f 78/78/78 79/79/79 80/80/80
f 78/78/78 80/80/80 75/75/75
f 79/79/79 81/81/81 80/80/80
f 80/80/80 82/82/82 75/75/75
f 80/80/80 81/81/81 82/82/82
f 83/83/83 75/75/75 82/82/82
f 81/81/81 84/84/84 82/82/82
f 84/84/84 83/83/83 82/82/82
f 87/87/87 86/86/86 85/85/85
f 85/85/85 88/88/88 87/87/87
f 85/85/85 89/89/89 88/88/88
f 85/85/85 90/90/90 89/89/89
f 85/85/85 91/91/91 90/90/90
f 85/85/85 92/92/92 91/91/91
