g Hook
v -0.0359062 -3.088387 -0.300413
v -0.0359062 5.538812 -0.300413
v -0.4779936 5.538812 -0.5202384
v -0.4779936 -3.088387 -0.5202384
v -0.6978251 5.538812 -0.07814611
v -0.6978251 -2.818421 -0.07814611
v -0.2557378 5.538812 0.1416766
v -0.6978251 -2.818421 -0.07814611
v -0.6978251 5.538812 -0.07814611
v -0.2557378 -3.088387 0.1416766
v -0.0359062 5.538812 -0.300413
v -0.0359062 -3.088387 -0.300413
v -1.804183 -3.652083 -0.7803953
v -1.492654 -4.188003 -0.7234781
v -1.684336 -3.806747 -0.7251291
v -1.929549 -4.362176 -0.9714588
v -1.048227 -4.571105 -0.5535477
v -1.736539 -4.97713 -1.012
v -0.6248295 -4.705202 -0.4214109
v -0.6501433 -5.53881 -0.6682529
v 0.02519121 -4.654502 -0.1806302
v 0.4729451 -5.524905 -0.2855088
v 0.4702852 -4.465677 -0.07298498
v 1.45479 -5.100517 0.004489992
v 0.7596052 -4.14495 -0.1056019
v 2.024433 -4.379013 0.1454354
v 0.8003829 -3.778174 -0.2290864
v 2.016951 -3.553675 0.131918
v 0.5731831 -3.463497 -0.3874824
v 1.454531 -2.845958 -0.085875
v 0.1478023 -3.285335 -0.5630033
v 0.6820918 -2.458437 -0.3786368
v -0.3750834 -3.291103 -0.6731162
v -0.6246367 -2.459237 -0.8620139
v 0.6701204 -0.8756306 -0.3998783
v -0.6363835 -0.8766974 -0.8831681
v -1.941946 -3.650186 -0.41443
v -1.816348 -3.80495 -0.3745597
v -1.673654 -4.185477 -0.2421775
v -2.168162 -4.35888 -0.3365311
v -1.228841 -4.568473 -0.07210486
v -2.054305 -4.97264 -0.1648111
v -0.8229716 -4.702398 0.1073709
v -1.011673 -5.533782 0.2962338
v -0.1729411 -4.651717 0.3481321
v 0.08905596 -5.519698 0.7382607
v 0.2358516 -4.462393 0.5525987
v 1.025781 -5.094637 1.148799
v 0.4358138 -4.14051 0.7580491
v 1.555334 -4.372644 1.396424
v 0.3887031 -3.772516 0.8690593
v 1.547841 -3.547297 1.382917
v 0.1152657 -3.457133 0.833313
v 0.9853315 -2.839415 1.165078
v -0.3200786 -3.278733 0.684902
v 0.2130977 -2.451895 0.8723983
v -0.7876628 -3.285272 0.4283327
v -1.093343 -2.452775 0.389126
v 0.2014729 -0.8673053 0.8512847
v -1.105046 -0.8683759 0.3680032
v -1.941946 -3.650186 -0.41443
v -1.929549 -4.362176 -0.9714588
v -1.804183 -3.652083 -0.7803953
v -2.168162 -4.35888 -0.3365311
v -1.736539 -4.97713 -1.012
v -2.054305 -4.97264 -0.1648111
v -0.6501433 -5.53881 -0.6682529
v -1.011673 -5.533782 0.2962338
v 0.4729451 -5.524905 -0.2855088
v 0.08905596 -5.519698 0.7382607
v 1.45479 -5.100517 0.004489992
v 1.025781 -5.094637 1.148799
v 2.024433 -4.379013 0.1454354
v 1.555334 -4.372644 1.396424
v 2.016951 -3.553675 0.131918
v 1.547841 -3.547297 1.382917
v 1.454531 -2.845958 -0.085875
v 0.9853315 -2.839415 1.165078
v 0.6820918 -2.458437 -0.3786368
v 0.2130977 -2.451895 0.8723983
v 0.6701204 -0.8756306 -0.3998783
v 0.2014729 -0.8673053 0.8512847
v -0.6363835 -0.8766974 -0.8831681
v -1.105046 -0.8683759 0.3680032
v -0.6246367 -2.459237 -0.8620139
v -1.093343 -2.452775 0.389126
v -0.3750834 -3.291103 -0.6731162
v -0.7876628 -3.285272 0.4283327
v 0.1478023 -3.285335 -0.5630033
v -0.3200786 -3.278733 0.684902
v 0.5731831 -3.463497 -0.3874824
v 0.1152657 -3.457133 0.833313
v 0.8003829 -3.778174 -0.2290864
v 0.3887031 -3.772516 0.8690593
v 0.7596052 -4.14495 -0.1056019
v 0.4358138 -4.14051 0.7580491
v 0.4702852 -4.465677 -0.07298498
v 0.2358516 -4.462393 0.5525987
v 0.02519121 -4.654502 -0.1806302
v -0.1729411 -4.651717 0.3481321
v -0.6248295 -4.705202 -0.4214109
v -0.8229716 -4.702398 0.1073709
v -1.048227 -4.571105 -0.5535477
v -1.228841 -4.568473 -0.07210486
v -1.492654 -4.188003 -0.7234781
v -1.673654 -4.185477 -0.2421775
v -1.684336 -3.806747 -0.7251291
v -1.816348 -3.80495 -0.3745597
v -1.804183 -3.652083 -0.7803953
v -1.941946 -3.650186 -0.41443
vt 0.7107998 0.5952045
vt 0.4623825 0.5952046
vt 0.4623825 0.6113813
vt 0.7107998 0.6113813
vt 0.4623825 0.6312901
vt 0.7107998 0.6312901
vt 0.4623825 0.6113813
vt 0.7107998 0.5952045
vt 0.4623825 0.5952046
vt 0.7107998 0.6113813
vt 0.4623825 0.6312901
vt 0.7107998 0.6312901
vt 0.3636294 0.6941895
vt 0.3855247 0.6815045
vt 0.3714651 0.6917262
vt 0.3717627 0.6648378
vt 0.4099362 0.6779889
vt 0.3900935 0.6459363
vt 0.4283175 0.681612
vt 0.4413938 0.6481596
vt 0.4520596 0.6965743
vt 0.4836207 0.6708472
vt 0.4658102 0.7112394
vt 0.5136573 0.7041343
vt 0.4719452 0.7282504
vt 0.524019 0.7403131
vt 0.4669468 0.7437913
vt 0.5113465 0.7711399
vt 0.4520415 0.7521175
vt 0.4782541 0.7888675
vt 0.4321158 0.75223
vt 0.4415138 0.7915683
vt 0.4120375 0.7438075
vt 0.3889754 0.7714568
vt 0.4180052 0.851002
vt 0.3654797 0.8308839
vt 0.3633563 0.6959904
vt 0.3711715 0.6934705
vt 0.3851316 0.6830327
vt 0.3712152 0.66636
vt 0.4095263 0.6793336
vt 0.3893802 0.6471298
vt 0.427936 0.6827785
vt 0.4406849 0.6488695
vt 0.4517879 0.6975651
vt 0.4830556 0.6712034
vt 0.4656146 0.7120559
vt 0.5132805 0.7041942
vt 0.4718037 0.7288251
vt 0.5238456 0.7402084
vt 0.4660172 0.7439211
vt 0.5105812 0.7707855
vt 0.4511318 0.7522569
vt 0.4776223 0.7887765
vt 0.4312055 0.7525059
vt 0.4409124 0.7917644
vt 0.4111204 0.7443712
vt 0.3882313 0.7720651
vt 0.4178573 0.8514526
vt 0.365176 0.8317448
vt 0.1211012 0.472506
vt 0.1427739 0.4391047
vt 0.1211012 0.4391047
vt 0.1427739 0.472506
vt 0.1615958 0.4391047
vt 0.1615958 0.472506
vt 0.1991161 0.4391047
vt 0.1991161 0.472506
vt 0.2341836 0.4391047
vt 0.2341836 0.472506
vt 0.2668867 0.4391047
vt 0.2668867 0.472506
vt 0.2943181 0.4391047
vt 0.2943181 0.472506
vt 0.3187252 0.4391047
vt 0.3187252 0.472506
vt 0.3462208 0.4391047
vt 0.3462208 0.472506
vt 0.3731959 0.4391047
vt 0.3731959 0.472506
vt 0.420027 0.4391047
vt 0.420027 0.472506
vt 0.4612148 0.4391047
vt 0.4612148 0.472506
vt 0.5080382 0.4391047
vt 0.5080382 0.472506
vt 0.5341941 0.4391047
vt 0.5341941 0.472506
vt 0.5498092 0.4391047
vt 0.5498092 0.472506
vt 0.5643913 0.4391047
vt 0.5643913 0.472506
vt 0.5766295 0.4391047
vt 0.5766295 0.472506
vt 0.5874935 0.4391047
vt 0.5874935 0.472506
vt 0.599704 0.4391047
vt 0.599704 0.472506
vt 0.6142606 0.4391047
vt 0.6142606 0.472506
vt 0.634811 0.4391047
vt 0.634811 0.472506
vt 0.6484938 0.4391047
vt 0.6484938 0.472506
vt 0.6665592 0.4391047
vt 0.6665592 0.472506
vt 0.6790165 0.4391047
vt 0.6790165 0.472506
vt 0.6850223 0.4391047
vt 0.6850223 0.472506
vn 0.947986 0 -0.318312
vn 0.947986 0 -0.318312
vn -0.31084 0 -0.9504623
vn -0.1290552 0 -0.9916374
vn -0.9479859 0 0.318312
vn -0.9479855 0 0.3183137
vn 0.3257888 0 0.9454425
vn -0.9479855 0 0.3183137
vn -0.9479859 0 0.318312
vn 0.4955838 0 0.8685601
vn 0.947986 0 -0.318312
vn 0.947986 0 -0.318312
vn -0.712438 0.4368905 -0.5491437
vn 0.69434 0.4667465 -0.5477588
vn 0.8136485 0.421977 -0.3998894
vn -0.5749257 0.04193071 -0.8171306
vn 0.5127624 0.5237223 -0.6802865
vn -0.3758489 -0.6726688 -0.6373808
vn 0.3236224 0.5500252 -0.7698966
vn -0.01264333 -0.831884 -0.5548055
vn 0.1518215 0.5363231 -0.8302457
vn 0.3236922 -0.8340763 -0.446699
vn -0.04335738 0.3509721 -0.9353816
vn 0.614351 -0.7248763 -0.3116522
vn -0.1377727 0.02360848 -0.9901825
vn 0.9166444 -0.3420564 -0.2067859
vn -0.07431979 -0.2674485 -0.9607018
vn 0.94032 0.2924751 -0.1739442
vn 0.003788159 -0.5015929 -0.8650954
vn 0.6789292 0.6898785 -0.2512425
vn 0.1567606 -0.6000057 -0.7844867
vn 0.8218252 0.2378895 -0.5176986
vn -0.3887431 -0.621442 -0.6802123
vn -0.4567816 -0.1022151 -0.883687
vn 0.7671775 0.5185863 -0.377501
vn -0.3413254 0.5114991 -0.7885846
vn -0.8948498 0.4420552 -0.06189408
vn 0.35317 0.4346268 0.8284748
vn 0.1663969 0.4817549 0.8603629
vn -0.9697268 0.05400938 0.2381449
vn -0.05413288 0.5393093 0.8403661
vn -0.705327 -0.6658416 0.2432462
vn -0.2536138 0.5655788 0.7847296
vn -0.3771856 -0.8243051 0.4221992
vn -0.421758 0.5528736 0.7186453
vn -0.05075314 -0.8257998 0.5616749
vn -0.6385748 0.370688 0.6743981
vn 0.2583417 -0.7161102 0.648418
vn -0.749873 0.04614646 0.6599705
vn 0.5562564 -0.3322801 0.7616881
vn -0.6871521 -0.2464717 0.6834278
vn 0.5968324 0.3011771 0.7436959
vn -0.5676174 -0.4852614 0.6650804
vn 0.3500539 0.6969062 0.6259266
vn -0.3967835 -0.5854884 0.7069414
vn 0.2815514 0.2542266 0.9252554
vn -0.7432159 -0.6123277 0.2696017
vn -0.924079 -0.08916613 0.3716551
vn 0.3367659 0.5289567 0.7789695
vn -0.7712704 0.5210052 0.3656441
vn -0.8948498 0.4420552 -0.06189408
vn -0.5749257 0.04193071 -0.8171306
vn -0.712438 0.4368905 -0.5491437
vn -0.9697268 0.05400938 0.2381449
vn -0.3758489 -0.6726688 -0.6373808
vn -0.705327 -0.6658416 0.2432462
vn -0.01264333 -0.831884 -0.5548055
vn -0.3771856 -0.8243051 0.4221992
vn 0.3236922 -0.8340763 -0.446699
vn -0.05075314 -0.8257998 0.5616749
vn 0.614351 -0.7248763 -0.3116522
vn 0.2583417 -0.7161102 0.648418
vn 0.9166444 -0.3420564 -0.2067859
vn 0.5562564 -0.3322801 0.7616881
vn 0.94032 0.2924751 -0.1739442
vn 0.5968324 0.3011771 0.7436959
vn 0.6789292 0.6898785 -0.2512425
vn 0.3500539 0.6969062 0.6259266
vn 0.8218252 0.2378895 -0.5176986
vn 0.2815514 0.2542266 0.9252554
vn 0.7671775 0.5185863 -0.377501
vn 0.3367659 0.5289567 0.7789695
vn -0.3413254 0.5114991 -0.7885846
vn -0.7712704 0.5210052 0.3656441
vn -0.4567816 -0.1022151 -0.883687
vn -0.924079 -0.08916613 0.3716551
vn -0.3887431 -0.621442 -0.6802123
vn -0.7432159 -0.6123277 0.2696017
vn 0.1567606 -0.6000057 -0.7844867
vn -0.3967835 -0.5854884 0.7069414
vn 0.003788159 -0.5015929 -0.8650954
vn -0.5676174 -0.4852614 0.6650804
vn -0.07431979 -0.2674485 -0.9607018
vn -0.6871521 -0.2464717 0.6834278
vn -0.1377727 0.02360848 -0.9901825
vn -0.749873 0.04614646 0.6599705
vn -0.04335738 0.3509721 -0.9353816
vn -0.6385748 0.370688 0.6743981
vn 0.1518215 0.5363231 -0.8302457
vn -0.421758 0.5528736 0.7186453
vn 0.3236224 0.5500252 -0.7698966
vn -0.2536138 0.5655788 0.7847296
vn 0.5127624 0.5237223 -0.6802865
vn -0.05413288 0.5393093 0.8403661
vn 0.69434 0.4667465 -0.5477588
vn 0.1663969 0.4817549 0.8603629
vn 0.8136485 0.421977 -0.3998894
vn 0.35317 0.4346268 0.8284748
vn -0.712438 0.4368905 -0.5491437
vn -0.8948498 0.4420552 -0.06189408
g Hook_0
f 3/3/3 2/2/2 1/1/1
f 4/4/4 3/3/3 1/1/1
f 5/5/5 3/3/3 4/4/4
f 6/6/6 5/5/5 4/4/4
f 9/9/9 8/8/8 7/7/7
f 8/8/8 10/10/10 7/7/7
f 11/11/11 7/7/7 10/10/10
f 12/12/12 11/11/11 10/10/10
f 15/15/15 14/14/14 13/13/13
f 14/14/14 16/16/16 13/13/13
f 14/14/14 17/17/17 16/16/16
f 17/17/17 18/18/18 16/16/16
f 17/17/17 19/19/19 18/18/18
f 19/19/19 20/20/20 18/18/18
f 19/19/19 21/21/21 20/20/20
f 21/21/21 22/22/22 20/20/20
f 21/21/21 23/23/23 22/22/22
f 23/23/23 24/24/24 22/22/22
f 23/23/23 25/25/25 24/24/24
f 25/25/25 26/26/26 24/24/24
f 25/25/25 27/27/27 26/26/26
f 27/27/27 28/28/28 26/26/26
f 27/27/27 29/29/29 28/28/28
f 29/29/29 30/30/30 28/28/28
f 29/29/29 31/31/31 30/30/30
f 31/31/31 32/32/32 30/30/30
f 31/31/31 33/33/33 32/32/32
f 33/33/33 34/34/34 32/32/32
f 35/35/35 32/32/32 34/34/34
f 36/36/36 35/35/35 34/34/34
f 39/39/39 38/38/38 37/37/37
f 40/40/40 39/39/39 37/37/37
f 41/41/41 39/39/39 40/40/40
f 42/42/42 41/41/41 40/40/40
f 43/43/43 41/41/41 42/42/42
f 44/44/44 43/43/43 42/42/42
f 45/45/45 43/43/43 44/44/44
f 46/46/46 45/45/45 44/44/44
f 47/47/47 45/45/45 46/46/46
f 48/48/48 47/47/47 46/46/46
f 49/49/49 47/47/47 48/48/48
f 50/50/50 49/49/49 48/48/48
f 51/51/51 49/49/49 50/50/50
f 52/52/52 51/51/51 50/50/50
f 53/53/53 51/51/51 52/52/52
f 54/54/54 53/53/53 52/52/52
f 55/55/55 53/53/53 54/54/54
f 56/56/56 55/55/55 54/54/54
f 57/57/57 55/55/55 56/56/56
f 58/58/58 57/57/57 56/56/56
f 56/56/56 59/59/59 58/58/58
f 59/59/59 60/60/60 58/58/58
f 63/63/63 62/62/62 61/61/61
f 62/62/62 64/64/64 61/61/61
f 62/62/62 65/65/65 64/64/64
f 65/65/65 66/66/66 64/64/64
f 65/65/65 67/67/67 66/66/66
f 67/67/67 68/68/68 66/66/66
f 67/67/67 69/69/69 68/68/68
f 69/69/69 70/70/70 68/68/68
f 69/69/69 71/71/71 70/70/70
f 71/71/71 72/72/72 70/70/70
f 71/71/71 73/73/73 72/72/72
f 73/73/73 74/74/74 72/72/72
f 73/73/73 75/75/75 74/74/74
f 75/75/75 76/76/76 74/74/74
f 75/75/75 77/77/77 76/76/76
f 77/77/77 78/78/78 76/76/76
f 77/77/77 79/79/79 78/78/78
f 79/79/79 80/80/80 78/78/78
f 79/79/79 81/81/81 80/80/80
f 81/81/81 82/82/82 80/80/80
f 81/81/81 83/83/83 82/82/82
f 83/83/83 84/84/84 82/82/82
f 83/83/83 85/85/85 84/84/84
f 85/85/85 86/86/86 84/84/84
f 85/85/85 87/87/87 86/86/86
f 87/87/87 88/88/88 86/86/86
f 87/87/87 89/89/89 88/88/88
f 89/89/89 90/90/90 88/88/88
f 89/89/89 91/91/91 90/90/90
f 91/91/91 92/92/92 90/90/90
f 91/91/91 93/93/93 92/92/92
f 93/93/93 94/94/94 92/92/92
f 93/93/93 95/95/95 94/94/94
f 95/95/95 96/96/96 94/94/94
f 95/95/95 97/97/97 96/96/96
f 97/97/97 98/98/98 96/96/96
f 97/97/97 99/99/99 98/98/98
f 99/99/99 100/100/100 98/98/98
f 99/99/99 101/101/101 100/100/100
f 101/101/101 102/102/102 100/100/100
f 101/101/101 103/103/103 102/102/102
f 103/103/103 104/104/104 102/102/102
f 103/103/103 105/105/105 104/104/104
f 105/105/105 106/106/106 104/104/104
f 105/105/105 107/107/107 106/106/106
f 107/107/107 108/108/108 106/106/106
f 107/107/107 109/109/109 108/108/108
f 109/109/109 110/110/110 108/108/108
