g HorizontalFinDamage
v -18.3137 -6.103515E-07 -3.080898
v -21.42785 -9.155273E-07 -1.602275
v -21.68584 2.746582E-06 1.798467
v 0 0 0
v -11.36825 4.882812E-06 18.63519
v 0 4.882812E-06 18.63519
v 9.661562 -7.629394E-07 -1.160356
v 8.981982 2.982562 -0.1204883
v 0 0 0
v 0 2.982562 0.5899512
v 0 2.982558 17.53504
v 9.101582 2.982561 1.889204
v 11.38744 2.982561 3.506099
v 12.63481 2.98256 4.263398
v 13.20871 2.982561 3.277568
v 12.35154 2.98256 6.141059
v 13.52217 2.98256 7.804795
v 10.49127 2.982558 17.53503
v 16.10398 2.982559 8.246562
v 11.36824 5.187988E-06 18.63519
v 17.57008 3.356934E-06 7.055171
v 0 0 0
v 9.031181 1.373291E-06 2.06938
v 9.661562 -7.629394E-07 -1.160356
v 0 4.882812E-06 18.63519
v 11.59977 1.831055E-06 3.775039
v 12.45228 2.441406E-06 5.689658
v 12.90394 2.13623E-06 3.620234
v 13.93964 3.051758E-06 8.165654
v 11.36824 5.187988E-06 18.63519
v 17.57008 3.356934E-06 7.055171
v 0 2.982562 0.5899512
v 0 2.982558 17.53504
v -10.49127 2.982556 17.53503
v -18.19214 2.982562 -2.109824
v 0 0 0
v -18.3137 -6.103515E-07 -3.080898
v -21.42785 -9.155273E-07 -1.602275
v -21.04968 2.982558 2.267388
v -11.36825 4.882812E-06 18.63519
v -21.68584 2.746582E-06 1.798467
v -20.77609 2.982562 -0.9209082
v 13.93964 3.051758E-06 8.165654
v 17.57008 3.356934E-06 7.055171
v 16.10398 2.982559 8.246562
v 13.52217 2.98256 7.804795
v 12.45228 2.441406E-06 5.689658
v 12.35154 2.98256 6.141059
v 12.63481 2.98256 4.263398
v 12.90394 2.13623E-06 3.620234
v 13.20871 2.982561 3.277568
v 11.38744 2.982561 3.506099
v 11.59977 1.831055E-06 3.775039
v 9.031181 1.373291E-06 2.06938
v 9.101582 2.982561 1.889204
v 8.981982 2.982562 -0.1204883
v 9.661562 -7.629394E-07 -1.160356
vt 0.5103462 0.5964184
vt 0.5409989 0.5804936
vt 0.5435841 0.5462159
vt 0.2971599 0.5748415
vt 0.4230736 0.3630021
vt 0.2970384 0.3663073
vt 0.4492874 0.6247377
vt 0.4361888 0.5889128
vt 0.2974278 0.6132563
vt 0.2971599 0.5748415
vt 0.2892982 0.3625166
vt 0.4377129 0.5672252
vt 0.4618322 0.5495316
vt 0.4749768 0.5412248
vt 0.4809563 0.5512787
vt 0.472271 0.5210062
vt 0.4847366 0.5029322
vt 0.4230739 0.3630021
vt 0.5117901 0.497879
vt 0.4561192 0.3388667
vt 0.5557459 0.5062284
vt 0.2971599 0.5748413
vt 0.4334176 0.5602374
vt 0.4405896 0.5918276
vt 0.2924371 0.3640901
vt 0.4590366 0.5428554
vt 0.4673159 0.5237002
vt 0.4723896 0.5439371
vt 0.4820459 0.4986798
vt 0.4230736 0.363002
vt 0.5195117 0.5082028
vt 0.2971599 0.574841
vt 0.2970381 0.3663072
vt 0.4230736 0.3630019
vt 0.5103463 0.5964183
vt 0.2974131 0.6132492
vt 0.5203611 0.630123
vt 0.5648602 0.6026386
vt 0.5435839 0.5462159
vt 0.4561315 0.3388729
vt 0.5812606 0.5491184
vt 0.5409987 0.5804931
vt 0.2867301 0.9843583
vt 0.186781 0.9843583
vt 0.2181164 0.9902661
vt 0.2874079 0.9902661
vt 0.3625944 0.9843583
vt 0.3408191 0.9902661
vt 0.3908652 0.9902661
vt 0.4184371 0.9843583
vt 0.4209884 0.9902661
vt 0.4695601 0.9902661
vt 0.4531934 0.9843583
vt 0.5350125 0.9843583
vt 0.5438526 0.9902661
vt 0.5971606 0.9902661
vt 0.6220949 0.9843583
vn 0.01462278 -0.9802641 -0.1971508
vn -0.8091617 -0.1391349 -0.5708756
vn -0.1722828 -0.9813046 0.08578956
vn 0 -0.9775293 -0.2107997
vn -0.1793359 -0.976852 0.1166142
vn 0 -1 2.574032E-07
vn 0.4362597 -0.8850644 -0.1622912
vn 0.47227 0.7354066 -0.4859406
vn 0 -0.9775293 -0.2107997
vn 0 0.9200541 -0.3917913
vn 0 1 2.049536E-07
vn 0.7752526 0.5164431 -0.3636893
vn 0.214193 0.4213044 -0.8812627
vn 0.8640742 0.4574807 0.2099694
vn 0.5862858 0.6569143 -0.4740595
vn 0.8459755 0.5014555 -0.1812952
vn 0.3553458 0.5661138 -0.7438041
vn 0.3291908 0.9196807 0.2140578
vn 0.4278599 0.856182 -0.2896348
vn 0.1793358 -0.976852 0.1166141
vn 0.2648374 -0.9147104 -0.3052311
vn 0 -0.9775293 -0.2107997
vn 0.7891356 -0.4901177 -0.3702022
vn 0.4362597 -0.8850644 -0.1622912
vn 0 -1 2.574032E-07
vn 0.2019659 -0.5183836 -0.8309562
vn 0.9506484 -0.3093106 -0.0243857
vn 0.5471894 -0.7105103 -0.4424466
vn 0.3868666 -0.4411195 -0.8097826
vn 0.1793358 -0.976852 0.1166141
vn 0.2648374 -0.9147104 -0.3052311
vn 0 0.9200541 -0.3917913
vn 0 1 3.355123E-07
vn -0.3291905 0.9196809 0.2140577
vn 0.0162935 0.9748468 -0.2222792
vn 0 -0.9775293 -0.2107997
vn 0.01462278 -0.9802641 -0.1971508
vn -0.8091617 -0.1391349 -0.5708756
vn -0.2171594 0.9688514 0.1190324
vn -0.1793359 -0.976852 0.1166142
vn -0.1722828 -0.9813046 0.08578956
vn -0.7208011 0.5119565 -0.4672754
vn 0.3868666 -0.4411195 -0.8097826
vn 0.2648374 -0.9147104 -0.3052311
vn 0.4278599 0.856182 -0.2896348
vn 0.3553458 0.5661138 -0.7438041
vn 0.9506484 -0.3093106 -0.0243857
vn 0.8459755 0.5014555 -0.1812952
vn 0.8640742 0.4574807 0.2099694
vn 0.5471894 -0.7105103 -0.4424466
vn 0.5862858 0.6569143 -0.4740595
vn 0.214193 0.4213044 -0.8812627
vn 0.2019659 -0.5183836 -0.8309562
vn 0.7891356 -0.4901177 -0.3702022
vn 0.7752526 0.5164431 -0.3636893
vn 0.47227 0.7354066 -0.4859406
vn 0.4362597 -0.8850644 -0.1622912
g HorizontalFinDamage_0
f 3/3/3 2/2/2 1/1/1
f 3/3/3 1/1/1 4/4/4
f 3/3/3 4/4/4 5/5/5
f 4/4/4 6/6/6 5/5/5
f 9/9/9 8/8/8 7/7/7
f 9/9/9 10/10/10 8/8/8
f 8/8/8 10/10/10 11/11/11
f 12/12/12 8/8/8 11/11/11
f 13/13/13 12/12/12 11/11/11
f 14/14/14 13/13/13 11/11/11
f 13/13/13 14/14/14 15/15/15
f 16/16/16 14/14/14 11/11/11
f 17/17/17 16/16/16 11/11/11
f 17/17/17 11/11/11 18/18/18
f 17/17/17 18/18/18 19/19/19
f 19/19/19 18/18/18 20/20/20
f 19/19/19 20/20/20 21/21/21
f 24/24/24 23/23/23 22/22/22
f 23/23/23 25/25/25 22/22/22
f 26/26/26 25/25/25 23/23/23
f 26/26/26 27/27/27 25/25/25
f 27/27/27 26/26/26 28/28/28
f 27/27/27 29/29/29 25/25/25
f 29/29/29 30/30/30 25/25/25
f 29/29/29 31/31/31 30/30/30
f 34/34/34 33/33/33 32/32/32
f 34/34/34 32/32/32 35/35/35
f 36/36/36 35/35/35 32/32/32
f 36/36/36 37/37/37 35/35/35
f 35/35/35 37/37/37 38/38/38
f 34/34/34 35/35/35 39/39/39
f 39/39/39 40/40/40 34/34/34
f 39/39/39 41/41/41 40/40/40
f 42/42/42 38/38/38 41/41/41
f 35/35/35 38/38/38 42/42/42
f 42/42/42 41/41/41 39/39/39
f 39/39/39 35/35/35 42/42/42
f 45/45/45 44/44/44 43/43/43
f 45/45/45 43/43/43 46/46/46
f 46/46/46 43/43/43 47/47/47
f 46/46/46 47/47/47 48/48/48
f 48/48/48 47/47/47 49/49/49
f 49/49/49 47/47/47 50/50/50
f 49/49/49 50/50/50 51/51/51
f 50/50/50 52/52/52 51/51/51
f 50/50/50 53/53/53 52/52/52
f 52/52/52 53/53/53 54/54/54
f 52/52/52 54/54/54 55/55/55
f 54/54/54 56/56/56 55/55/55
f 54/54/54 57/57/57 56/56/56
