g LargeFinLHBroken2
v 30.47748 -7.638234 0.5607188
v 25.23535 -7.638227 7.921813
v 25.23805 -4.971457 7.922671
v 30.57937 -4.971463 1.019578
v 34.15775 -4.971448 -3.676235
v 34.05619 -7.638219 -4.132497
v 25.42068 -4.971457 -13.95552
v 15.00764 -4.97146 -14.0385
v 22.35283 -4.971457 -18.31236
v 15.00493 -7.63823 -14.03936
v 21.65055 -7.643779 -17.88098
v 29.97534 -4.971452 -13.3895
v 27.9839 -4.971455 -18.01444
v 34.02417 -4.971455 -15.0608
v 36.68923 -4.971455 -10.48125
v 36.59154 -7.638224 -10.91773
v 38.05305 -4.971457 -15.2185
v 37.89075 -7.643778 -15.06212
v 33.67347 -7.643777 -15.7939
v 36.59154 -7.638224 -10.91773
v 37.89075 -7.643778 -15.06212
v 29.5797 -7.643774 -14.34833
v 34.05619 -7.638219 -4.132497
v 30.47748 -7.638234 0.5607188
v 25.05153 -7.643779 -15.01796
v 27.88818 -7.643778 -18.30935
v 15.00493 -7.63823 -14.03936
v 21.65055 -7.643779 -17.88098
v 25.23535 -7.638227 7.921813
v 27.9839 -4.971455 -18.01444
v 27.88818 -7.643778 -18.30935
v 29.5797 -7.643774 -14.34833
v 29.97534 -4.971452 -13.3895
v 22.35283 -4.971457 -18.31236
v 21.65055 -7.643779 -17.88098
v 25.05153 -7.643779 -15.01796
v 25.42068 -4.971457 -13.95552
v 25.42068 -4.971457 -13.95552
v 25.05153 -7.643779 -15.01796
v 27.88818 -7.643778 -18.30935
v 27.9839 -4.971455 -18.01444
v 29.97534 -4.971452 -13.3895
v 29.5797 -7.643774 -14.34833
v 33.67347 -7.643777 -15.7939
v 34.02417 -4.971455 -15.0608
v 34.02417 -4.971455 -15.0608
v 33.67347 -7.643777 -15.7939
v 37.89075 -7.643778 -15.06212
v 38.05305 -4.971457 -15.2185
vt 0.1400798 0.7172494
vt 0.1638883 0.7582218
vt 0.1519304 0.7653647
vt 0.1290365 0.7262708
vt 0.1130581 0.7000945
vt 0.1223852 0.6898026
vt 0.04686896 0.7207899
vt 0.02419536 0.7704956
vt 0.01961049 0.7267004
vt 0.0103332 0.7716099
vt 0.006265312 0.7317574
vt 0.05877826 0.7003716
vt 0.03293305 0.7005036
vt 0.05974241 0.677735
vt 0.08676363 0.6741062
vt 0.0939088 0.6617703
vt 0.06645724 0.6591581
vt 0.07358783 0.6479373
vt 0.1798854 0.7642013
vt 0.1763216 0.7642745
vt 0.1782914 0.7654498
vt 0.1803314 0.7626051
vt 0.1732153 0.7622243
vt 0.1716513 0.7601284
vt 0.1820574 0.761229
vt 0.183065 0.7627513
vt 0.1845257 0.7577899
vt 0.1847018 0.7606434
vt 0.1690892 0.7570695
vt 0.1993592 0.753325
vt 0.1993592 0.780423
vt 0.2264572 0.780423
vt 0.2264572 0.753325
vt 0.1993592 0.753325
vt 0.1993592 0.780423
vt 0.2264572 0.780423
vt 0.2264572 0.753325
vt 0.1993592 0.753325
vt 0.1993592 0.780423
vt 0.2264572 0.780423
vt 0.2264572 0.753325
vt 0.1993592 0.753325
vt 0.1993592 0.780423
vt 0.2264572 0.780423
vt 0.2264572 0.753325
vt 0.1993592 0.753325
vt 0.1993592 0.780423
vt 0.2264572 0.780423
vt 0.2264572 0.753325
vn 0.09732971 -0.9925355 0.07348628
vn 0.1429895 -0.9839733 0.1065395
vn 0.1400331 0.9846806 0.1038988
vn 0.1036369 0.9915787 0.0776599
vn 0.26548 0.9530864 0.1454186
vn 0.2571283 -0.9571631 0.1331308
vn -0.002183422 0.9996126 -0.02774808
vn -0.05246141 0.9945191 -0.09044167
vn 0.004819849 0.9932146 -0.1161966
vn -0.05330689 -0.9944053 -0.09119546
vn -0.01630575 -0.991702 -0.1275196
vn 0.02529118 0.9964393 -0.08043035
vn 0.04244361 0.9623741 -0.2683925
vn -0.0571719 0.9183487 -0.3916209
vn 0.4662694 0.8697138 0.1618353
vn 0.409633 -0.9014602 0.1398942
vn 0.7490489 0.4888825 -0.4471236
vn 0.7644644 -0.4687512 -0.4425682
vn -0.07075485 -0.9057188 -0.417932
vn 0.409633 -0.9014602 0.1398942
vn 0.7644644 -0.4687512 -0.4425682
vn 0.05735474 -0.9938074 -0.09517017
vn 0.2571283 -0.9571631 0.1331308
vn 0.09732971 -0.9925355 0.07348628
vn 0.001516759 -0.9989865 -0.04498314
vn 0.02442374 -0.97166 -0.2351179
vn -0.05330689 -0.9944053 -0.09119546
vn -0.01630575 -0.991702 -0.1275196
vn 0.1429895 -0.9839733 0.1065395
vn 0.04244361 0.9623741 -0.2683925
vn 0.02442374 -0.97166 -0.2351179
vn 0.05735474 -0.9938074 -0.09517017
vn 0.02529118 0.9964393 -0.08043035
vn 0.004819849 0.9932146 -0.1161966
vn -0.01630575 -0.991702 -0.1275196
vn 0.001516759 -0.9989865 -0.04498314
vn -0.002183422 0.9996126 -0.02774808
vn -0.002183422 0.9996126 -0.02774808
vn 0.001516759 -0.9989865 -0.04498314
vn 0.02442374 -0.97166 -0.2351179
vn 0.04244361 0.9623741 -0.2683925
vn 0.02529118 0.9964393 -0.08043035
vn 0.05735474 -0.9938074 -0.09517017
vn -0.07075485 -0.9057188 -0.417932
vn -0.0571719 0.9183487 -0.3916209
vn -0.0571719 0.9183487 -0.3916209
vn -0.07075485 -0.9057188 -0.417932
vn 0.7644644 -0.4687512 -0.4425682
vn 0.7490489 0.4888825 -0.4471236
g LargeFinLHBroken2_0
f 3/3/3 2/2/2 1/1/1
f 4/4/4 3/3/3 1/1/1
f 5/5/5 4/4/4 1/1/1
f 6/6/6 5/5/5 1/1/1
f 3/3/3 4/4/4 7/7/7
f 8/8/8 3/3/3 7/7/7
f 7/7/7 9/9/9 8/8/8
f 10/10/10 8/8/8 9/9/9
f 11/11/11 10/10/10 9/9/9
f 7/7/7 4/4/4 12/12/12
f 4/4/4 5/5/5 12/12/12
f 12/12/12 13/13/13 7/7/7
f 12/12/12 5/5/5 14/14/14
f 15/15/15 5/5/5 6/6/6
f 5/5/5 15/15/15 14/14/14
f 16/16/16 15/15/15 6/6/6
f 14/14/14 15/15/15 17/17/17
f 15/15/15 16/16/16 18/18/18
f 17/17/17 15/15/15 18/18/18
f 21/21/21 20/20/20 19/19/19
f 19/19/19 20/20/20 22/22/22
f 20/20/20 23/23/23 22/22/22
f 22/22/22 23/23/23 24/24/24
f 22/22/22 24/24/24 25/25/25
f 25/25/25 26/26/26 22/22/22
f 25/25/25 24/24/24 27/27/27
f 27/27/27 28/28/28 25/25/25
f 24/24/24 29/29/29 27/27/27
f 32/32/32 31/31/31 30/30/30
f 33/33/33 32/32/32 30/30/30
f 36/36/36 35/35/35 34/34/34
f 37/37/37 36/36/36 34/34/34
f 40/40/40 39/39/39 38/38/38
f 41/41/41 40/40/40 38/38/38
f 44/44/44 43/43/43 42/42/42
f 45/45/45 44/44/44 42/42/42
f 48/48/48 47/47/47 46/46/46
f 49/49/49 48/48/48 46/46/46
