g LaserCannon_DarkBarrel
v 1.018445E-08 7.0057 22.52772
v 0.8815076 7.0057 22.52772
v 0.5216101 6.317244 22.52772
v -0.4895637 7.815029 22.52772
v -0.4895637 7.815029 9.679356
v 4.240948E-08 8.006579 9.679356
v 4.240948E-08 8.006579 22.52772
v 0.4895638 7.815029 9.679356
v 0.4895638 7.815029 22.52772
v 0.4895638 7.815029 22.52772
v 0.4895638 7.815029 9.679356
v 0.8815076 7.0057 9.679356
v 0.8815076 7.0057 22.52772
v 0.5216101 6.317244 9.679356
v 0.5216101 6.317244 22.52772
v 0.5216101 6.317244 22.52772
v 0.5216101 6.317244 9.679356
v 1.104938E-07 6.125694 9.679356
v 1.104938E-07 6.125694 22.52772
v -0.52161 6.317244 9.679356
v -0.52161 6.317244 22.52772
v -0.52161 6.317244 22.52772
v -0.52161 6.317244 9.679356
v -0.8815072 7.0057 9.679356
v -0.8815072 7.0057 22.52772
v -0.8815072 7.0057 22.52772
v -0.8815072 7.0057 9.679356
v -0.4895637 7.815029 9.679356
v -0.4895637 7.815029 22.52772
v 1.018445E-08 7.0057 22.52772
v 0.4895638 7.815029 22.52772
v 0.8815076 7.0057 22.52772
v 4.240948E-08 8.006579 22.52772
v -0.4895637 7.815029 22.52772
v -0.8815072 7.0057 22.52772
v -0.52161 6.317244 22.52772
v 1.104938E-07 6.125694 22.52772
v 0.5216101 6.317244 22.52772
v 1.221478 8.3503 10.43617
v 1.221478 7.341744 25.49027
v 1.221478 6.999999 25.49027
v 1.221478 6.999999 10.43617
v 1.221478 6.658254 25.49027
v 1.221478 5.649698 10.43617
v 1.626788 7.341744 25.49027
v 1.221478 7.341744 25.49027
v 1.221478 8.3503 10.43617
v 1.640223 8.3503 10.99571
v 1.628378 6.999999 25.49027
v 1.221478 7.341744 25.49027
v 1.626788 7.341744 25.49027
v 1.221478 6.999999 25.49027
v 1.626788 6.658254 25.49027
v 1.221478 6.658254 25.49027
v 1.221478 5.649698 10.43617
v 1.221478 6.658254 25.49027
v 1.626788 6.658254 25.49027
v 1.640223 5.649698 10.99571
v 1.626788 7.341744 25.49027
v 1.640223 8.3503 10.99571
v 2.775996 6.999999 11.23009
v 1.628378 6.999999 25.49027
v 1.640223 5.649698 10.99571
v 1.626788 6.658254 25.49027
v -1.221478 8.3503 10.43617
v -1.221478 6.999999 25.49027
v -1.221478 7.341744 25.49027
v -1.221478 6.999999 10.43617
v -1.221478 6.658254 25.49027
v -1.221478 5.649698 10.43617
v -1.626788 7.341744 25.49027
v -2.775996 6.999999 11.23009
v -1.640223 8.3503 10.99571
v -1.628378 6.999999 25.49027
v -1.640223 5.649698 10.99571
v -1.626788 6.658254 25.49027
v -1.221478 7.341744 25.49027
v -1.626788 7.341744 25.49027
v -1.640223 8.3503 10.99571
v -1.221478 8.3503 10.43617
v -1.221478 6.999999 25.49027
v -1.626788 7.341744 25.49027
v -1.221478 7.341744 25.49027
v -1.628378 6.999999 25.49027
v -1.221478 6.658254 25.49027
v -1.626788 6.658254 25.49027
v -1.640223 5.649698 10.99571
v -1.626788 6.658254 25.49027
v -1.221478 6.658254 25.49027
v -1.221478 5.649698 10.43617
vt 0.5784769 0.3480734
vt 0.521523 0.3480733
vt 0.521523 0.3480734
vt 0.4814933 0.3480381
vt 0.01802468 0.3480381
vt 0.0180247 0.3480381
vt 0.4814933 0.3480381
vt 0.01802471 0.3480381
vt 0.4814933 0.3480381
vt 0.4814933 0.3104818
vt 0.01802471 0.3104818
vt 0.01802471 0.3104818
vt 0.4814933 0.3104818
vt 0.01802471 0.3104818
vt 0.4814933 0.3104818
vt 0.4814933 0.3480381
vt 0.01802471 0.3480381
vt 0.0180247 0.3480381
vt 0.4814933 0.3480381
vt 0.01802468 0.3480381
vt 0.4814933 0.3480381
vt 0.4814933 0.3104818
vt 0.01802468 0.3104818
vt 0.01802468 0.3104818
vt 0.4814933 0.3104818
vt 0.4814933 0.3104818
vt 0.01802468 0.3104818
vt 0.01802468 0.3104818
vt 0.4814933 0.3104818
vt 0.5784769 0.3480734
vt 0.521523 0.3480734
vt 0.521523 0.3480733
vt 0.521523 0.3480734
vt 0.521523 0.3480734
vt 0.521523 0.3480734
vt 0.521523 0.3480734
vt 0.521523 0.3480734
vt 0.521523 0.3480734
vt 0.01802471 0.3184263
vt 0.4814932 0.3184263
vt 0.4814932 0.3146954
vt 0.01802471 0.3146954
vt 0.4814932 0.3109645
vt 0.01802471 0.3109645
vt 0.360443 0.3830878
vt 0.360443 0.3830878
vt 0.139075 0.3830878
vt 0.1390749 0.3830878
vt 0.4778775 0.3647096
vt 0.4777065 0.3649375
vt 0.4778775 0.3649375
vt 0.4777065 0.3647096
vt 0.4778775 0.3644816
vt 0.4777065 0.3644816
vt 0.01802471 0.3647096
vt 0.4814933 0.3647096
vt 0.4814933 0.3647096
vt 0.0180247 0.3647096
vt 0.4814932 0.3109645
vt 0.01802468 0.3109645
vt 0.01802468 0.3146954
vt 0.4814932 0.3146954
vt 0.01802468 0.3184263
vt 0.4814932 0.3184263
vt 0.01802471 0.3184263
vt 0.4814932 0.3146954
vt 0.4814932 0.3184263
vt 0.01802471 0.3146954
vt 0.4814932 0.3109645
vt 0.01802471 0.3109645
vt 0.4814932 0.3109645
vt 0.01802468 0.3146954
vt 0.01802468 0.3109645
vt 0.4814932 0.3146954
vt 0.01802468 0.3184263
vt 0.4814932 0.3184263
vt 0.360443 0.3830878
vt 0.360443 0.3830878
vt 0.1390749 0.3830878
vt 0.139075 0.3830878
vt 0.4777065 0.3647096
vt 0.4778775 0.3649375
vt 0.4777065 0.3649375
vt 0.4778775 0.3647096
vt 0.4777065 0.3644816
vt 0.4778775 0.3644816
vt 0.0180247 0.3647096
vt 0.4814933 0.3647096
vt 0.4814933 0.3647096
vt 0.01802471 0.3647096
vn 0 0 1
vn 0.9994801 0.02138469 0.02413445
vn 0.7060231 -0.7072276 0.03688496
vn -0.7498804 0.6604441 0.03863746
vn -0.7504408 0.6609377 0
vn 0 1 0
vn 0 0.9982402 0.05929906
vn 0.7504407 0.6609378 0
vn 0.7498803 0.6604443 0.03863747
vn 0.7498803 0.6604443 0.03863747
vn 0.7504407 0.6609378 0
vn 0.9997712 0.02139091 0
vn 0.9994801 0.02138469 0.02413445
vn 0.7065039 -0.7077091 0
vn 0.7060231 -0.7072276 0.03688496
vn 0.7060231 -0.7072276 0.03688496
vn 0.7065039 -0.7077091 0
vn 0 -1 0
vn 0 -0.9985906 0.05307104
vn -0.7065039 -0.7077091 0
vn -0.7060231 -0.7072276 0.03688494
vn -0.7060231 -0.7072276 0.03688494
vn -0.7065039 -0.7077091 0
vn -0.9997712 0.02139086 0
vn -0.9994801 0.02138464 0.02413443
vn -0.9994801 0.02138464 0.02413443
vn -0.9997712 0.02139086 0
vn -0.7504408 0.6609377 0
vn -0.7498804 0.6604441 0.03863746
vn 0 0 1
vn 0.7498803 0.6604443 0.03863747
vn 0.9994801 0.02138469 0.02413445
vn 0 0.9982402 0.05929906
vn -0.7498804 0.6604441 0.03863746
vn -0.9994801 0.02138464 0.02413443
vn -0.7060231 -0.7072276 0.03688494
vn 0 -0.9985906 0.05307104
vn 0.7060231 -0.7072276 0.03688496
vn -0.9798703 0.199172 0.0135921
vn -0.9116149 0.4093528 0.03726523
vn -0.9999406 0 0.01089625
vn -1 0 0
vn -0.9116149 -0.4093528 0.03726523
vn -0.9798703 -0.199172 0.0135921
vn 0.6418139 0.7635652 0.07101431
vn -0.9116149 0.4093528 0.03726523
vn -0.9798703 0.199172 0.0135921
vn 0.5157518 0.8540464 0.06785818
vn 0.9971474 0 0.07547934
vn -0.9116149 0.4093528 0.03726523
vn 0.6418139 0.7635652 0.07101431
vn -0.9999406 0 0.01089625
vn 0.6418139 -0.7635652 0.07101431
vn -0.9116149 -0.4093528 0.03726523
vn -0.9798703 -0.199172 0.0135921
vn -0.9116149 -0.4093528 0.03726523
vn 0.6418139 -0.7635652 0.07101431
vn 0.5157518 -0.8540464 0.0678582
vn 0.6418139 0.7635652 0.07101431
vn 0.5157518 0.8540464 0.06785818
vn 0.9979413 0 0.06413414
vn 0.9971474 0 0.07547934
vn 0.5157518 -0.8540464 0.0678582
vn 0.6418139 -0.7635652 0.07101431
vn 0.9798703 0.199172 0.0135921
vn 0.9999406 0 0.01089625
vn 0.9116149 0.4093528 0.03726522
vn 1 0 0
vn 0.9116149 -0.4093528 0.03726522
vn 0.9798703 -0.199172 0.0135921
vn -0.6418139 0.7635652 0.07101434
vn -0.9979413 -1.170404E-07 0.06413414
vn -0.515752 0.8540463 0.0678582
vn -0.9971474 -1.228856E-07 0.07547934
vn -0.5157518 -0.8540464 0.06785817
vn -0.6418139 -0.7635652 0.07101431
vn 0.9116149 0.4093528 0.03726522
vn -0.6418139 0.7635652 0.07101434
vn -0.515752 0.8540463 0.0678582
vn 0.9798703 0.199172 0.0135921
vn 0.9999406 0 0.01089625
vn -0.6418139 0.7635652 0.07101434
vn 0.9116149 0.4093528 0.03726522
vn -0.9971474 -1.228856E-07 0.07547934
vn 0.9116149 -0.4093528 0.03726522
vn -0.6418139 -0.7635652 0.07101431
vn -0.5157518 -0.8540464 0.06785817
vn -0.6418139 -0.7635652 0.07101431
vn 0.9116149 -0.4093528 0.03726522
vn 0.9798703 -0.199172 0.0135921
g LaserCannon_DarkBarrel_0
f 3/3/3 2/2/2 1/1/1
f 6/6/6 5/5/5 4/4/4
f 7/7/7 6/6/6 4/4/4
f 8/8/8 6/6/6 7/7/7
f 9/9/9 8/8/8 7/7/7
f 12/12/12 11/11/11 10/10/10
f 13/13/13 12/12/12 10/10/10
f 14/14/14 12/12/12 13/13/13
f 15/15/15 14/14/14 13/13/13
f 18/18/18 17/17/17 16/16/16
f 19/19/19 18/18/18 16/16/16
f 20/20/20 18/18/18 19/19/19
f 21/21/21 20/20/20 19/19/19
f 24/24/24 23/23/23 22/22/22
f 25/25/25 24/24/24 22/22/22
f 28/28/28 27/27/27 26/26/26
f 29/29/29 28/28/28 26/26/26
f 32/32/32 31/31/31 30/30/30
f 31/31/31 33/33/33 30/30/30
f 33/33/33 34/34/34 30/30/30
f 34/34/34 35/35/35 30/30/30
f 35/35/35 36/36/36 30/30/30
f 36/36/36 37/37/37 30/30/30
f 37/37/37 38/38/38 30/30/30
f 41/41/41 40/40/40 39/39/39
f 42/42/42 41/41/41 39/39/39
f 43/43/43 41/41/41 42/42/42
f 44/44/44 43/43/43 42/42/42
f 47/47/47 46/46/46 45/45/45
f 48/48/48 47/47/47 45/45/45
f 51/51/51 50/50/50 49/49/49
f 50/50/50 52/52/52 49/49/49
f 49/49/49 52/52/52 53/53/53
f 52/52/52 54/54/54 53/53/53
f 57/57/57 56/56/56 55/55/55
f 58/58/58 57/57/57 55/55/55
f 61/61/61 60/60/60 59/59/59
f 62/62/62 61/61/61 59/59/59
f 63/63/63 61/61/61 62/62/62
f 64/64/64 63/63/63 62/62/62
f 67/67/67 66/66/66 65/65/65
f 66/66/66 68/68/68 65/65/65
f 66/66/66 69/69/69 68/68/68
f 69/69/69 70/70/70 68/68/68
f 73/73/73 72/72/72 71/71/71
f 72/72/72 74/74/74 71/71/71
f 72/72/72 75/75/75 74/74/74
f 75/75/75 76/76/76 74/74/74
f 79/79/79 78/78/78 77/77/77
f 80/80/80 79/79/79 77/77/77
f 83/83/83 82/82/82 81/81/81
f 82/82/82 84/84/84 81/81/81
f 81/81/81 84/84/84 85/85/85
f 84/84/84 86/86/86 85/85/85
f 89/89/89 88/88/88 87/87/87
f 90/90/90 89/89/89 87/87/87
