g LazerShock2
v -15.92983 -0.973464 0.7329705
v -13.35262 0.5222574 0.3891473
v -13.08396 0.6775406 0.8923846
v -14.86167 -0.3535434 3.745208
v -13.22035 0.5990201 1.154684
v -15.35667 -0.6408237 3.504228
v -16.11219 -1.079305 1.09444
v -16.30913 -1.19408 0.4227112
v -15.92983 -0.973464 0.7329705
v -16.11219 -1.079305 1.09444
v -16.547 -1.332131 0.8941919
v -15.35667 -0.6408237 3.504228
v -15.56153 -0.7602011 4.037395
v -14.86167 -0.3535434 3.745208
v -14.91588 -0.3854868 4.351716
v -14.91588 -0.3854868 4.351716
v -14.86167 -0.3535434 3.745208
v -13.22035 0.5990201 1.154684
v -12.77445 0.8583462 0.9727722
v -13.08396 0.6775406 0.8923846
v -12.59437 0.9628311 0.6306415
v -13.35262 0.5222574 0.3891473
v -12.94627 0.7586954 -0.02575378
v -12.94627 0.7586954 -0.02575378
v -13.35262 0.5222574 0.3891473
v -15.92983 -0.973464 0.7329705
v -16.30913 -1.19408 0.4227112
v -3.974452 3.566082 13.8415
v -0.8356965 4.073532 14.60045
v -0.7897449 4.059335 15.1414
v -4.429461 3.470782 15.66563
v 0.4623887 4.387557 7.187755
v -7.15622 2.808654 13.7042
v -1.196127 4.342799 3.438859
v 7.266007 3.246 6.190856
v 0.3216792 4.454182 2.992589
v 7.05974 3.468197 5.014308
v 11.99566 0.6745999 1.923659
v 10.07777 2.08654 0.2160461
v 14.74706 -1.916598 -5.326526
v 14.03202 -0.9533371 -6.673734
v 16.29733 -4.126787 -7.664886
v 13.34136 -0.5223154 -10.03657
v 10.1429 1.583671 -10.94416
v 13.39883 -0.6289657 -15.22711
v 5.74088 3.406046 -11.41427
v 12.89828 -0.3127231 -15.72039
v 6.045871 3.37394 -10.53406
v 0.9305719 4.339518 -9.085853
v 3.220523 4.299955 -6.944347
v -4.275847 3.643484 -8.281401
v -4.139003 3.68427 -7.493854
v -7.040168 2.912081 -8.099008
v -5.569921 3.451647 -5.157927
v -7.237829 2.859783 -8.085965
v -12.41874 1.162513 -7.043603
v -8.810615 2.594799 -5.05107
v -10.26704 2.192669 -1.423138
v -6.708923 3.388707 -2.160494
v -6.715529 3.431465 -1.11982
v -12.2562 1.160562 -0.37987
v -10.1261 2.287004 0.6379638
v -11.95209 1.334225 0.6422632
v -10.48377 2.078235 3.667811
v -11.01369 1.81924 3.63769
v -11.95209 1.334225 0.6422632
v -12.54621 0.994462 0.8712878
v -12.68624 0.9140164 -0.586289
v -12.2562 1.160562 -0.37987
v -11.01369 1.81924 3.63769
v -11.32416 1.652239 4.107801
v -12.54621 0.994462 0.8712878
v -11.95209 1.334225 0.6422632
v -10.48377 2.078235 3.667811
v -10.15347 2.217445 4.074667
v -11.32416 1.652239 4.107801
v -11.01369 1.81924 3.63769
v -10.1261 2.287004 0.6379638
v -9.63647 2.510834 1.004993
v -10.15347 2.217445 4.074667
v -10.48377 2.078235 3.667811
v -6.708923 3.388707 -2.160494
v -6.021489 3.524826 -2.388379
v -6.169602 3.56373 -0.8125744
v -6.715529 3.431465 -1.11982
v -8.810615 2.594799 -5.05107
v -8.526222 2.69736 -4.91232
v -6.021489 3.524826 -2.388379
v -6.708923 3.388707 -2.160494
v -10.26704 2.192669 -1.423138
v -10.70896 1.977483 -1.595375
v -12.77781 1.032337 -7.244069
v -12.41874 1.162513 -7.043603
v -6.715529 3.431465 -1.11982
v -6.169602 3.56373 -0.8125744
v -9.63647 2.510834 1.004993
v -10.1261 2.287004 0.6379638
v -12.2562 1.160562 -0.37987
v -12.68624 0.9140164 -0.586289
v -10.70896 1.977483 -1.595375
v -10.26704 2.192669 -1.423138
v -5.569921 3.451647 -5.157927
v -5.256366 3.55027 -4.635106
v -8.526222 2.69736 -4.91232
v -8.810615 2.594799 -5.05107
v -12.41874 1.162513 -7.043603
v -12.77781 1.032337 -7.244069
v -7.281894 2.822587 -8.792049
v -7.237829 2.859783 -8.085965
v -4.139003 3.68427 -7.493854
v -3.865579 3.755043 -6.971641
v -5.256366 3.55027 -4.635106
v -5.569921 3.451647 -5.157927
v -7.281894 2.822587 -8.792049
v -4.328474 3.633734 -8.988727
v -4.275847 3.643484 -8.281401
v -7.040168 2.912081 -8.099008
v -7.237829 2.859783 -8.085965
v 6.045871 3.37394 -10.53406
v 6.397675 3.292747 -9.992031
v 3.468399 4.295985 -6.4021
v 3.220523 4.299955 -6.944347
v 0.9305719 4.339518 -9.085853
v 0.7015427 4.319503 -9.74822
v 5.349518 3.488936 -12.03514
v 5.74088 3.406046 -11.41427
v 3.220523 4.299955 -6.944347
v 3.468399 4.295985 -6.4021
v -3.865579 3.755043 -6.971641
v -4.139003 3.68427 -7.493854
v -4.275847 3.643484 -8.281401
v -4.328474 3.633734 -8.988727
v 0.7015427 4.319503 -9.74822
v 0.9305719 4.339518 -9.085853
v 7.05974 3.468197 5.014308
v 6.90139 3.580109 4.490736
v 9.494734 2.438024 -0.1549316
v 10.07777 2.08654 0.2160461
v 11.99566 0.6745999 1.923659
v 12.44885 0.3152188 2.326614
v 7.513904 3.061753 6.811605
v 7.266007 3.246 6.190856
v 10.1429 1.583671 -10.94416
v 9.94369 1.734557 -10.35004
v 6.397675 3.292747 -9.992031
v 6.045871 3.37394 -10.53406
v 5.74088 3.406046 -11.41427
v 5.349518 3.488936 -12.03514
v 12.94141 -0.3280978 -16.30411
v 12.89828 -0.3127231 -15.72039
v 14.03202 -0.9533371 -6.673734
v 13.61641 -0.4540878 -6.618669
v 9.94369 1.734557 -10.35004
v 10.1429 1.583671 -10.94416
v 13.39883 -0.6289657 -15.22711
v 13.89902 -0.9359409 -15.48816
v 13.80009 -0.8771567 -10.33116
v 13.34136 -0.5223154 -10.03657
v 12.89828 -0.3127231 -15.72039
v 12.94141 -0.3280978 -16.30411
v 13.89902 -0.9359409 -15.48816
v 13.39883 -0.6289657 -15.22711
v 16.29733 -4.126787 -7.664886
v 16.547 -4.461242 -7.701909
v 15.06346 -2.389192 -4.923209
v 14.74706 -1.916598 -5.326526
v 13.34136 -0.5223154 -10.03657
v 13.80009 -0.8771567 -10.33116
v 16.547 -4.461242 -7.701909
v 16.29733 -4.126787 -7.664886
v 10.07777 2.08654 0.2160461
v 9.494734 2.438024 -0.1549316
v 13.61641 -0.4540878 -6.618669
v 14.03202 -0.9533371 -6.673734
v 14.74706 -1.916598 -5.326526
v 15.06346 -2.389192 -4.923209
v 12.44885 0.3152188 2.326614
v 11.99566 0.6745999 1.923659
v 0.3216792 4.454182 2.992589
v 0.3212563 4.461242 2.316264
v 6.90139 3.580109 4.490736
v 7.05974 3.468197 5.014308
v 7.266007 3.246 6.190856
v 7.513904 3.061753 6.811605
v 0.8641688 4.381332 7.736446
v 0.4623887 4.387557 7.187755
v -0.7897449 4.059335 15.1414
v -0.357973 4.088279 15.47473
v -4.569729 3.445545 16.30411
v -4.429461 3.470782 15.66563
v -0.8356965 4.073532 14.60045
v -0.3838147 4.131109 14.23617
v -0.357973 4.088279 15.47473
v -0.7897449 4.059335 15.1414
v -3.974452 3.566082 13.8415
v -3.585874 3.651605 13.69213
v -0.3838147 4.131109 14.23617
v -0.8356965 4.073532 14.60045
v -1.196127 4.342799 3.438859
v -1.66908 4.312943 2.915142
v 0.3212563 4.461242 2.316264
v 0.3216792 4.454182 2.992589
v -7.15622 2.808654 13.7042
v -7.681158 2.679181 13.80805
v -1.66908 4.312943 2.915142
v -1.196127 4.342799 3.438859
v -4.429461 3.470782 15.66563
v -4.569729 3.445545 16.30411
v -7.681158 2.679181 13.80805
v -7.15622 2.808654 13.7042
v 0.4623887 4.387557 7.187755
v 0.8641688 4.381332 7.736446
v -3.585874 3.651605 13.69213
v -3.974452 3.566082 13.8415
vt 0.2547553 0.6559245
vt 0.2721475 0.6687834
vt 0.2739587 0.6499625
vt 0.2619637 0.5432673
vt 0.2730401 0.6401525
vt 0.2586232 0.5522799
vt 0.2535245 0.6424056
vt 0.8299471 0.2730899
vt 0.8299471 0.2730899
vt 0.8774161 0.2868077
vt 0.8774161 0.2868077
vt 0.8770537 0.2934812
vt 0.8770537 0.2934812
vt 0.8462533 0.3016378
vt 0.8462533 0.3016378
vt 0.8766913 0.4113805
vt 0.8766913 0.4113805
vt 0.8679947 0.409156
vt 0.8679947 0.409156
vt 0.8020455 0.2979303
vt 0.8020455 0.2979303
vt 0.8299471 0.2730899
vt 0.8299471 0.2730899
vt 0.8462533 0.3016378
vt 0.8462533 0.3016378
vt 0.8817644 0.3535432
vt 0.8817644 0.3535432
vt 0.2812551 0.4299766
vt 0.2831179 0.4272777
vt 0.2831365 0.4253379
vt 0.2809376 0.4234477
vt 0.2839683 0.453881
vt 0.2793303 0.4304654
vt 0.2830749 0.4672834
vt 0.2875456 0.4574171
vt 0.2839333 0.4688975
vt 0.2873722 0.4616328
vt 0.2905811 0.4725899
vt 0.2892145 0.478743
vt 0.2924125 0.4984726
vt 0.2917844 0.5033114
vt 0.2940791 0.5067903
vt 0.2916369 0.5153466
vt 0.2894313 0.5186601
vt 0.291761 0.5339131
vt 0.286707 0.5204255
vt 0.2914011 0.5356883
vt 0.2868817 0.5172719
vt 0.2841746 0.5121252
vt 0.2855106 0.504446
vt 0.2811541 0.5091685
vt 0.2812602 0.5063484
vt 0.2794936 0.508479
vt 0.2805013 0.4979584
vt 0.2793749 0.5084296
vt 0.2761568 0.5046976
vt 0.2785614 0.4975687
vt 0.2777576 0.4845885
vt 0.2799372 0.4872267
vt 0.2799548 0.4835033
vt 0.2764167 0.4808559
vt 0.2778709 0.4772142
vt 0.2766322 0.4771988
vt 0.277605 0.4663739
vt 0.277252 0.4664817
vt 0.8964889 0.773568
vt 0.8964889 0.7096121
vt 0.8325329 0.7096121
vt 0.8325329 0.773568
vt 0.8964889 0.773568
vt 0.8964889 0.7096121
vt 0.8325329 0.7096121
vt 0.8325329 0.773568
vt 0.8964889 0.773568
vt 0.8964889 0.7096121
vt 0.8325329 0.7096121
vt 0.8325329 0.773568
vt 0.8964889 0.773568
vt 0.8964889 0.7096121
vt 0.8325329 0.7096121
vt 0.8325329 0.773568
vt 0.8964889 0.773568
vt 0.8964889 0.7096121
vt 0.8325329 0.7096121
vt 0.8325329 0.773568
vt 0.8964889 0.773568
vt 0.8964889 0.7096121
vt 0.8325329 0.7096121
vt 0.8325329 0.773568
vt 0.8964889 0.773568
vt 0.8964889 0.7096121
vt 0.8325329 0.7096121
vt 0.8325329 0.773568
vt 0.8964889 0.773568
vt 0.8964889 0.7096121
vt 0.8325329 0.7096121
vt 0.8325329 0.773568
vt 0.8964889 0.773568
vt 0.8964889 0.7096121
vt 0.8325329 0.7096121
vt 0.8325329 0.773568
vt 0.8964889 0.773568
vt 0.8964889 0.7096121
vt 0.8325329 0.7096121
vt 0.8325329 0.773568
vt 0.8964889 0.773568
vt 0.8964889 0.7096121
vt 0.8325329 0.7096121
vt 0.8325329 0.773568
vt 0.8964889 0.773568
vt 0.8964889 0.7096121
vt 0.8325329 0.7096121
vt 0.8325329 0.773568
vt 0.8964889 0.7096121
vt 0.8325329 0.7096121
vt 0.8325329 0.773568
vt 0.892221 0.773568
vt 0.8964889 0.773568
vt 0.8964889 0.773568
vt 0.8964889 0.7096121
vt 0.8325329 0.7096121
vt 0.8325329 0.773568
vt 0.8964889 0.773568
vt 0.8964889 0.7096121
vt 0.8325329 0.7096121
vt 0.8325329 0.773568
vt 0.8964889 0.773568
vt 0.8964889 0.7096121
vt 0.8325329 0.7096121
vt 0.8325329 0.773568
vt 0.8964889 0.773568
vt 0.8964889 0.7096121
vt 0.8325329 0.7096121
vt 0.8325329 0.773568
vt 0.8964889 0.773568
vt 0.8964889 0.7096121
vt 0.8325329 0.7096121
vt 0.8325329 0.773568
vt 0.8964889 0.773568
vt 0.8964889 0.7096121
vt 0.8325329 0.7096121
vt 0.8325329 0.773568
vt 0.8964889 0.773568
vt 0.8964889 0.7096121
vt 0.8325329 0.7096121
vt 0.8325329 0.773568
vt 0.8964889 0.773568
vt 0.8964889 0.7096121
vt 0.8325329 0.7096121
vt 0.8325329 0.773568
vt 0.8964889 0.773568
vt 0.8964889 0.7096121
vt 0.8325329 0.7096121
vt 0.8325329 0.773568
vt 0.8964889 0.773568
vt 0.8964889 0.7096121
vt 0.8325329 0.7096121
vt 0.8325329 0.773568
vt 0.8964889 0.773568
vt 0.8964889 0.7096121
vt 0.8325329 0.7096121
vt 0.8325329 0.773568
vt 0.8964889 0.773568
vt 0.8964889 0.7096121
vt 0.8325329 0.7096121
vt 0.8325329 0.773568
vt 0.8964889 0.773568
vt 0.8964889 0.7096121
vt 0.8325329 0.7096121
vt 0.8325329 0.773568
vt 0.8964889 0.773568
vt 0.8964889 0.7096121
vt 0.8325329 0.7096121
vt 0.8325329 0.773568
vt 0.8964889 0.773568
vt 0.8964889 0.7096121
vt 0.8325329 0.7096121
vt 0.8325329 0.773568
vt 0.8964889 0.773568
vt 0.8964889 0.7096121
vt 0.8325329 0.7096121
vt 0.8325329 0.773568
vt 0.8964889 0.773568
vt 0.8964889 0.7096121
vt 0.8325329 0.7096121
vt 0.8325329 0.773568
vt 0.8964889 0.773568
vt 0.8964889 0.7096121
vt 0.8325329 0.7096121
vt 0.8325329 0.773568
vt 0.8964889 0.773568
vt 0.8964889 0.7096121
vt 0.8325329 0.7096121
vt 0.8325329 0.773568
vt 0.8964889 0.773568
vt 0.8964889 0.7096121
vt 0.8325329 0.7096121
vt 0.8325329 0.773568
vt 0.8964889 0.773568
vt 0.8964889 0.7096121
vt 0.8325329 0.7096121
vt 0.8325329 0.773568
vt 0.8964889 0.773568
vt 0.8964889 0.7096121
vt 0.8325329 0.7096121
vt 0.8325329 0.773568
vt 0.8964889 0.773568
vt 0.8964889 0.7096121
vt 0.8325329 0.7096121
vt 0.8325329 0.773568
vt 0.8964889 0.773568
vt 0.8964889 0.7096121
vt 0.8325329 0.7096121
vt 0.8325329 0.773568
vn -0.5019817 0.8648782 1.746833E-05
vn -0.5019844 0.8648767 7.343163E-05
vn -0.5020122 0.8648606 -6.737521E-06
vn -0.5019901 0.8648733 5.739192E-05
vn -0.501953 0.8648949 -1.01137E-05
vn -0.5023715 0.8646518 0.0002352769
vn -0.5024021 0.8646341 0.0001379517
vn -0.5022015 0.8647507 -1.508782E-05
vn -0.5019817 0.8648782 1.746833E-05
vn -0.5024021 0.8646341 0.0001379517
vn -0.5027263 0.8644455 0.0001533626
vn -0.5023715 0.8646518 0.0002352769
vn -0.5025467 0.8645499 0.0004799042
vn -0.5019901 0.8648733 5.739192E-05
vn -0.5021343 0.8647896 0.0003332127
vn -0.5021343 0.8647896 0.0003332127
vn -0.5019901 0.8648733 5.739192E-05
vn -0.501953 0.8648949 -1.01137E-05
vn -0.5026534 0.8644878 -0.0006891949
vn -0.5020122 0.8648606 -6.737521E-06
vn -0.5027767 0.8644159 0.0006754207
vn -0.5019844 0.8648767 7.343163E-05
vn -0.502313 0.8646858 0.0005361809
vn -0.502313 0.8646858 0.0005361809
vn -0.5019844 0.8648767 7.343163E-05
vn -0.5019817 0.8648782 1.746833E-05
vn -0.5022015 0.8647507 -1.508782E-05
vn -0.2154743 0.9763387 -0.0182589
vn -0.154598 0.987789 0.01930033
vn -0.1507686 0.9881719 0.02802113
vn -0.2085763 0.9779684 -0.008583701
vn -0.02737213 0.9990332 0.03440142
vn -0.2015379 0.9794015 0.01246157
vn -0.03648794 0.9987608 0.03384299
vn 0.3496073 0.9341994 0.07103705
vn 0.1147372 0.9931299 0.02298635
vn 0.4202363 0.9018139 0.1006636
vn 0.6222767 0.7816129 0.04304683
vn 0.606518 0.7938641 0.0437691
vn 0.6942981 0.7195935 0.0116376
vn 0.6819822 0.731098 -0.01990036
vn 0.7415096 0.6708015 0.01374773
vn 0.6545913 0.7553482 -0.03097283
vn 0.4825577 0.8707703 -0.09432504
vn 0.4671459 0.8808852 -0.07626245
vn 0.3301543 0.938624 -0.09991606
vn 0.4185312 0.902652 -0.1002535
vn 0.309474 0.9444537 -0.1106033
vn -0.001521983 0.9999707 0.007515691
vn 0.06973593 0.9964718 -0.0467025
vn -0.1639424 0.9861228 0.02616625
vn -0.1563586 0.9874593 0.02182007
vn -0.283598 0.9572694 -0.0566346
vn -0.2730303 0.9600849 -0.06075741
vn -0.2969106 0.9528257 -0.06298607
vn -0.3311797 0.9426979 -0.04050257
vn -0.3191497 0.9463751 -0.05017733
vn -0.3580663 0.9333515 -0.02536425
vn -0.3180923 0.9472303 -0.03964846
vn -0.320536 0.9468569 -0.02680671
vn -0.427371 0.9040218 -0.009931525
vn -0.396919 0.9178022 -0.009725546
vn -0.4701234 0.8825997 0.001294039
vn -0.4426004 0.8966617 0.01014242
vn -0.4650656 0.8852477 0.007109341
vn -0.4701234 0.8825997 0.001294039
vn -0.4874246 0.8731468 0.005640739
vn -0.4824833 0.875905 -0.000527243
vn -0.427371 0.9040218 -0.009931525
vn -0.4650656 0.8852477 0.007109341
vn -0.4772184 0.8787019 0.01206903
vn -0.4874246 0.8731468 0.005640739
vn -0.4701234 0.8825997 0.001294039
vn -0.4426004 0.8966617 0.01014242
vn -0.4205839 0.9070376 0.01980161
vn -0.4772184 0.8787019 0.01206903
vn -0.4650656 0.8852477 0.007109341
vn -0.396919 0.9178022 -0.009725546
vn -0.3558744 0.9345166 -0.00567027
vn -0.4205839 0.9070376 0.01980161
vn -0.4426004 0.8966617 0.01014242
vn -0.3180923 0.9472303 -0.03964846
vn -0.2315778 0.9705297 -0.06666104
vn -0.2816775 0.9591296 -0.0269828
vn -0.320536 0.9468569 -0.02680671
vn -0.3191497 0.9463751 -0.05017733
vn -0.2477497 0.9659387 -0.07471608
vn -0.2315778 0.9705297 -0.06666104
vn -0.3180923 0.9472303 -0.03964846
vn -0.3580663 0.9333515 -0.02536425
vn -0.4153389 0.9096028 -0.0107841
vn -0.3470964 0.9374604 -0.02630823
vn -0.3311797 0.9426979 -0.04050257
vn -0.320536 0.9468569 -0.02680671
vn -0.2816775 0.9591296 -0.0269828
vn -0.3558744 0.9345166 -0.00567027
vn -0.396919 0.9178022 -0.009725546
vn -0.427371 0.9040218 -0.009931525
vn -0.4824833 0.875905 -0.000527243
vn -0.4153389 0.9096028 -0.0107841
vn -0.3580663 0.9333515 -0.02536425
vn -0.2730303 0.9600849 -0.06075741
vn -0.2287802 0.9722535 -0.04881273
vn -0.2477497 0.9659387 -0.07471608
vn -0.3191497 0.9463751 -0.05017733
vn -0.3311797 0.9426979 -0.04050257
vn -0.3470964 0.9374604 -0.02630823
vn -0.2915882 0.9562266 -0.0246377
vn -0.2969106 0.9528257 -0.06298607
vn -0.1563586 0.9874593 0.02182007
vn -0.1147141 0.9929848 -0.02866838
vn -0.2287802 0.9722535 -0.04881273
vn -0.2730303 0.9600849 -0.06075741
vn -0.2915882 0.9562266 -0.0246377
vn -0.1800386 0.9836585 -0.001496954
vn -0.1639424 0.9861228 0.02616625
vn -0.283598 0.9572694 -0.0566346
vn -0.2969106 0.9528257 -0.06298607
vn 0.309474 0.9444537 -0.1106033
vn 0.3192146 0.9438753 -0.08486156
vn 0.06461221 0.9970591 -0.04121284
vn 0.06973593 0.9964718 -0.0467025
vn -0.001521983 0.9999707 0.007515691
vn 0.01830692 0.9997377 -0.01375992
vn 0.3144499 0.9476794 -0.05500025
vn 0.3301543 0.938624 -0.09991606
vn 0.06973593 0.9964718 -0.0467025
vn 0.06461221 0.9970591 -0.04121284
vn -0.1147141 0.9929848 -0.02866838
vn -0.1563586 0.9874593 0.02182007
vn -0.1639424 0.9861228 0.02616625
vn -0.1800386 0.9836585 -0.001496954
vn 0.01830692 0.9997377 -0.01375992
vn -0.001521983 0.9999707 0.007515691
vn 0.4202363 0.9018139 0.1006636
vn 0.2942937 0.9531322 0.07021622
vn 0.574091 0.8173177 0.04910481
vn 0.606518 0.7938641 0.0437691
vn 0.6222767 0.7816129 0.04304683
vn 0.648513 0.7598898 0.04470431
vn 0.3808807 0.9219722 0.06997942
vn 0.3496073 0.9341994 0.07103705
vn 0.4825577 0.8707703 -0.09432504
vn 0.5322903 0.8356355 -0.1355744
vn 0.3192146 0.9438753 -0.08486156
vn 0.309474 0.9444537 -0.1106033
vn 0.3301543 0.938624 -0.09991606
vn 0.3144499 0.9476794 -0.05500025
vn 0.4307009 0.9002687 -0.0633491
vn 0.4185312 0.902652 -0.1002535
vn 0.6819822 0.731098 -0.01990036
vn 0.641177 0.7667425 -0.03158887
vn 0.5322903 0.8356355 -0.1355744
vn 0.4825577 0.8707703 -0.09432504
vn 0.4671459 0.8808852 -0.07626245
vn 0.560293 0.8282924 -0.001822112
vn 0.6360577 0.7695553 0.05670349
vn 0.6545913 0.7553482 -0.03097283
vn 0.4185312 0.902652 -0.1002535
vn 0.4307009 0.9002687 -0.0633491
vn 0.560293 0.8282924 -0.001822112
vn 0.4671459 0.8808852 -0.07626245
vn 0.7415096 0.6708015 0.01374773
vn 0.7755956 0.6270154 0.0728232
vn 0.7486613 0.6628032 0.01407553
vn 0.6942981 0.7195935 0.0116376
vn 0.6545913 0.7553482 -0.03097283
vn 0.6360577 0.7695553 0.05670349
vn 0.7755956 0.6270154 0.0728232
vn 0.7415096 0.6708015 0.01374773
vn 0.606518 0.7938641 0.0437691
vn 0.574091 0.8173177 0.04910481
vn 0.641177 0.7667425 -0.03158887
vn 0.6819822 0.731098 -0.01990036
vn 0.6942981 0.7195935 0.0116376
vn 0.7486613 0.6628032 0.01407553
vn 0.648513 0.7598898 0.04470431
vn 0.6222767 0.7816129 0.04304683
vn 0.1147372 0.9931299 0.02298635
vn 0.06918938 0.9954248 0.0658964
vn 0.2942937 0.9531322 0.07021622
vn 0.4202363 0.9018139 0.1006636
vn 0.3496073 0.9341994 0.07103705
vn 0.3808807 0.9219722 0.06997942
vn 0.06045589 0.9969689 0.04896935
vn -0.02737213 0.9990332 0.03440142
vn -0.1507686 0.9881719 0.02802113
vn -0.1391739 0.9894682 0.03979225
vn -0.1885376 0.9818929 0.01843335
vn -0.2085763 0.9779684 -0.008583701
vn -0.154598 0.987789 0.01930033
vn -0.1402186 0.9898592 0.02275279
vn -0.1391739 0.9894682 0.03979225
vn -0.1507686 0.9881719 0.02802113
vn -0.2154743 0.9763387 -0.0182589
vn -0.1283993 0.9911671 0.03318755
vn -0.1402186 0.9898592 0.02275279
vn -0.154598 0.987789 0.01930033
vn -0.03648794 0.9987608 0.03384299
vn -0.1623391 0.9858438 0.04192979
vn 0.06918938 0.9954248 0.0658964
vn 0.1147372 0.9931299 0.02298635
vn -0.2015379 0.9794015 0.01246157
vn -0.1891971 0.9812966 0.03551845
vn -0.1623391 0.9858438 0.04192979
vn -0.03648794 0.9987608 0.03384299
vn -0.2085763 0.9779684 -0.008583701
vn -0.1885376 0.9818929 0.01843335
vn -0.1891971 0.9812966 0.03551845
vn -0.2015379 0.9794015 0.01246157
vn -0.02737213 0.9990332 0.03440142
vn 0.06045589 0.9969689 0.04896935
vn -0.1283993 0.9911671 0.03318755
vn -0.2154743 0.9763387 -0.0182589
g LazerShock2_0
f 3/3/3 2/2/2 1/1/1
f 1/1/1 4/4/4 3/3/3
f 4/4/4 5/5/5 3/3/3
f 6/6/6 4/4/4 1/1/1
f 7/7/7 6/6/6 1/1/1
f 10/10/10 9/9/9 8/8/8
f 11/11/11 10/10/10 8/8/8
f 12/12/12 10/10/10 11/11/11
f 13/13/13 12/12/12 11/11/11
f 14/14/14 12/12/12 13/13/13
f 15/15/15 14/14/14 13/13/13
f 18/18/18 17/17/17 16/16/16
f 19/19/19 18/18/18 16/16/16
f 20/20/20 18/18/18 19/19/19
f 21/21/21 20/20/20 19/19/19
f 22/22/22 20/20/20 21/21/21
f 23/23/23 22/22/22 21/21/21
f 26/26/26 25/25/25 24/24/24
f 27/27/27 26/26/26 24/24/24
f 30/30/30 29/29/29 28/28/28
f 31/31/31 30/30/30 28/28/28
f 31/31/31 28/28/28 32/32/32
f 33/33/33 31/31/31 32/32/32
f 34/34/34 33/33/33 32/32/32
f 34/34/34 32/32/32 35/35/35
f 36/36/36 34/34/34 35/35/35
f 37/37/37 36/36/36 35/35/35
f 37/37/37 35/35/35 38/38/38
f 39/39/39 37/37/37 38/38/38
f 39/39/39 38/38/38 40/40/40
f 41/41/41 39/39/39 40/40/40
f 41/41/41 40/40/40 42/42/42
f 41/41/41 42/42/42 43/43/43
f 44/44/44 41/41/41 43/43/43
f 44/44/44 43/43/43 45/45/45
f 46/46/46 44/44/44 45/45/45
f 45/45/45 47/47/47 46/46/46
f 46/46/46 48/48/48 44/44/44
f 48/48/48 46/46/46 49/49/49
f 50/50/50 48/48/48 49/49/49
f 50/50/50 49/49/49 51/51/51
f 52/52/52 50/50/50 51/51/51
f 52/52/52 51/51/51 53/53/53
f 54/54/54 52/52/52 53/53/53
f 54/54/54 53/53/53 55/55/55
f 55/55/55 56/56/56 54/54/54
f 56/56/56 57/57/57 54/54/54
f 57/57/57 56/56/56 58/58/58
f 59/59/59 57/57/57 58/58/58
f 60/60/60 59/59/59 58/58/58
f 60/60/60 58/58/58 61/61/61
f 62/62/62 60/60/60 61/61/61
f 62/62/62 61/61/61 63/63/63
f 64/64/64 62/62/62 63/63/63
f 65/65/65 64/64/64 63/63/63
f 68/68/68 67/67/67 66/66/66
f 69/69/69 68/68/68 66/66/66
f 72/72/72 71/71/71 70/70/70
f 73/73/73 72/72/72 70/70/70
f 76/76/76 75/75/75 74/74/74
f 77/77/77 76/76/76 74/74/74
f 80/80/80 79/79/79 78/78/78
f 81/81/81 80/80/80 78/78/78
f 84/84/84 83/83/83 82/82/82
f 85/85/85 84/84/84 82/82/82
f 88/88/88 87/87/87 86/86/86
f 89/89/89 88/88/88 86/86/86
f 92/92/92 91/91/91 90/90/90
f 93/93/93 92/92/92 90/90/90
f 96/96/96 95/95/95 94/94/94
f 97/97/97 96/96/96 94/94/94
f 100/100/100 99/99/99 98/98/98
f 101/101/101 100/100/100 98/98/98
f 104/104/104 103/103/103 102/102/102
f 105/105/105 104/104/104 102/102/102
f 108/108/108 107/107/107 106/106/106
f 109/109/109 108/108/108 106/106/106
f 112/112/112 111/111/111 110/110/110
f 113/113/113 112/112/112 110/110/110
f 116/116/116 115/115/115 114/114/114
f 114/114/114 117/117/117 116/116/116
f 114/114/114 118/118/118 117/117/117
f 121/121/121 120/120/120 119/119/119
f 122/122/122 121/121/121 119/119/119
f 125/125/125 124/124/124 123/123/123
f 126/126/126 125/125/125 123/123/123
f 129/129/129 128/128/128 127/127/127
f 130/130/130 129/129/129 127/127/127
f 133/133/133 132/132/132 131/131/131
f 134/134/134 133/133/133 131/131/131
f 137/137/137 136/136/136 135/135/135
f 138/138/138 137/137/137 135/135/135
f 141/141/141 140/140/140 139/139/139
f 142/142/142 141/141/141 139/139/139
f 145/145/145 144/144/144 143/143/143
f 146/146/146 145/145/145 143/143/143
f 149/149/149 148/148/148 147/147/147
f 150/150/150 149/149/149 147/147/147
f 153/153/153 152/152/152 151/151/151
f 154/154/154 153/153/153 151/151/151
f 157/157/157 156/156/156 155/155/155
f 158/158/158 157/157/157 155/155/155
f 161/161/161 160/160/160 159/159/159
f 162/162/162 161/161/161 159/159/159
f 165/165/165 164/164/164 163/163/163
f 166/166/166 165/165/165 163/163/163
f 169/169/169 168/168/168 167/167/167
f 170/170/170 169/169/169 167/167/167
f 173/173/173 172/172/172 171/171/171
f 174/174/174 173/173/173 171/171/171
f 177/177/177 176/176/176 175/175/175
f 178/178/178 177/177/177 175/175/175
f 181/181/181 180/180/180 179/179/179
f 182/182/182 181/181/181 179/179/179
f 185/185/185 184/184/184 183/183/183
f 186/186/186 185/185/185 183/183/183
f 189/189/189 188/188/188 187/187/187
f 190/190/190 189/189/189 187/187/187
f 193/193/193 192/192/192 191/191/191
f 194/194/194 193/193/193 191/191/191
f 197/197/197 196/196/196 195/195/195
f 198/198/198 197/197/197 195/195/195
f 201/201/201 200/200/200 199/199/199
f 202/202/202 201/201/201 199/199/199
f 205/205/205 204/204/204 203/203/203
f 206/206/206 205/205/205 203/203/203
f 209/209/209 208/208/208 207/207/207
f 210/210/210 209/209/209 207/207/207
f 213/213/213 212/212/212 211/211/211
f 214/214/214 213/213/213 211/211/211
