g LazerShock1
v 10.51862 1.327562 13.26052
v 12.60841 0.1045795 10.58345
v 12.74838 -0.02745178 11.26999
v 10.95404 0.8278095 16.02784
v 7.16136 2.898774 -15.79306
v 11.23398 1.034636 -15.92371
v 9.607498 1.98683 -13.5533
v 7.118216 2.961099 -14.88077
v 14.05665 -0.4992523 -7.589267
v 15.96802 -2.939777 -6.548968
v 12.21686 0.805711 -4.367218
v 11.83065 1.058925 -6.569011
v 11.23398 1.034636 -15.92371
v 14.05665 -0.4992523 -7.589267
v 11.83065 1.058925 -6.569011
v 9.607498 1.98683 -13.5533
v -1.752058 3.815926 -13.24323
v -11.85877 0.8648138 -15.63443
v 0.2227287 4.094446 -13.60301
v -9.396914 1.853062 -13.04079
v -11.51601 0.9235577 -6.577114
v -10.16983 1.618189 -4.94256
v -16.32141 -1.863863 -2.85389
v -13.21145 -0.05894836 -6.985395
v -13.99616 -0.5143695 -2.484882
v -11.89022 0.7721893 5.075919
v -12.28218 0.4819256 -0.1181146
v -10.98525 1.201757 2.709425
v -7.993649 2.468898 3.584751
v -11.48886 0.9396331 -1.677789
v -7.791254 2.384628 5.723445
v -5.605386 2.982757 5.786065
v -5.449847 3.253522 2.351538
v -0.2305885 3.962945 8.442264
v -4.334877 3.237026 7.41701
v -2.952754 3.592492 9.487076
v -2.881646 3.666752 11.71373
v -1.080894 3.880959 12.59677
v -4.64967 3.361153 13.57981
v -0.4179218 4.001278 12.96528
v 4.205166 3.654516 14.27597
v -0.3268072 3.97471 14.8574
v 8.275221 2.340988 14.03794
v 10.51862 1.327562 13.26052
v 10.95404 0.8278095 16.02784
v 8.185226 2.247519 14.92629
v 6.112832 3.347502 -16.27884
v 7.118216 2.961099 -14.88077
v 6.055166 3.424184 -15.06448
v 7.16136 2.898774 -15.79306
v 11.58935 0.8466644 -16.45211
v 11.23398 1.034636 -15.92371
v 6.055166 3.424184 -15.06448
v 9.607498 1.98683 -13.5533
v 9.415977 2.099664 -13.29702
v 11.24469 1.387026 -6.588694
v 11.83065 1.058925 -6.569011
v 12.21686 0.805711 -4.367218
v 11.78734 1.028804 -3.457356
v 15.96802 -2.939777 -6.548968
v 16.81958 -4.158559 -6.5599
v 16.81958 -4.158559 -6.5599
v 15.96802 -2.939777 -6.548968
v 14.05665 -0.4992523 -7.589267
v 14.32426 -0.7794427 -8.039674
v 9.415977 2.099664 -13.29702
v 9.607498 1.98683 -13.5533
v 11.83065 1.058925 -6.569011
v 11.24469 1.387026 -6.588694
v 14.32426 -0.7794427 -8.039674
v 14.05665 -0.4992523 -7.589267
v 11.23398 1.034636 -15.92371
v 11.58935 0.8466644 -16.45211
v -12.35367 0.7161493 -16.23404
v -11.85877 0.8648138 -15.63443
v -11.51601 0.9235577 -6.577114
v -11.74454 0.7902582 -7.024663
v -9.924417 1.72778 -4.811046
v -10.16983 1.618189 -4.94256
v -9.396914 1.853062 -13.04079
v -9.01138 2.015192 -12.72158
v 1.481738 4.158559 -12.99063
v -1.752058 3.815926 -13.24323
v 0.2227287 4.094446 -13.60301
v 4.417098 4.004296 -13.48983
v 4.417098 4.004296 -13.48983
v 0.2227287 4.094446 -13.60301
v -11.85877 0.8648138 -15.63443
v -12.35367 0.7161493 -16.23404
v -9.01138 2.015192 -12.72158
v -9.396914 1.853062 -13.04079
v -1.752058 3.815926 -13.24323
v 1.481738 4.158559 -12.99063
v -11.74454 0.7902582 -7.024663
v -11.51601 0.9235577 -6.577114
v -13.21145 -0.05894836 -6.985395
v -13.17661 -0.04259094 -7.88135
v -16.32141 -1.863863 -2.85389
v -16.81958 -2.156841 -2.884013
v -11.89022 0.7721893 5.075919
v -11.69604 0.8886505 6.182583
v -13.67057 -0.3292694 -2.38428
v -13.99616 -0.5143695 -2.484882
v -10.16983 1.618189 -4.94256
v -9.924417 1.72778 -4.811046
v -5.815047 2.905378 6.19316
v -4.334877 3.237026 7.41701
v -5.255681 3.022524 6.829913
v -5.605386 2.982757 5.786065
v -7.890704 2.323139 6.108645
v -7.791254 2.384628 5.723445
v -5.255681 3.022524 6.829913
v -4.334877 3.237026 7.41701
v -2.952754 3.592492 9.487076
v -3.380509 3.504125 9.631897
v -2.881646 3.666752 11.71373
v -3.140147 3.610597 11.28105
v -4.64967 3.361153 13.57981
v -5.745053 3.087442 13.55384
v 0.3034405 4.003566 8.216641
v -5.449847 3.253522 2.351538
v -5.594623 3.263677 1.5422
v -0.2305885 3.962945 8.442264
v -0.6906732 3.935567 12.47689
v -1.080894 3.880959 12.59677
v -11.69604 0.8886505 6.182583
v -11.89022 0.7721893 5.075919
v -10.98525 1.201757 2.709425
v -10.77899 1.292935 3.398353
v -12.49741 0.3515924 -0.670907
v -13.99616 -0.5143695 -2.484882
v -13.67057 -0.3292694 -2.38428
v -12.28218 0.4819256 -0.1181146
v -11.42164 0.9722711 -2.669841
v -11.48886 0.9396331 -1.677789
v -10.77899 1.292935 3.398353
v -10.98525 1.201757 2.709425
v -7.791254 2.384628 5.723445
v -7.890704 2.323139 6.108645
v -7.942729 2.518454 3.0414
v -7.993649 2.468898 3.584751
v -11.48886 0.9396331 -1.677789
v -11.42164 0.9722711 -2.669841
v -5.594623 3.263677 1.5422
v -5.449847 3.253522 2.351538
v -7.993649 2.468898 3.584751
v -7.942729 2.518454 3.0414
v -5.745053 3.087442 13.55384
v -4.64967 3.361153 13.57981
v -0.3268072 3.97471 14.8574
v 0.07688614 3.992898 15.28447
v 0.07688614 3.992898 15.28447
v -0.3268072 3.97471 14.8574
v 4.205166 3.654516 14.27597
v 5.943026 3.086204 14.49083
v 5.943026 3.086204 14.49083
v 4.205166 3.654516 14.27597
v -0.4179218 4.001278 12.96528
v -0.03853607 4.052027 12.72245
v -0.03853607 4.052027 12.72245
v -0.4179218 4.001278 12.96528
v -1.080894 3.880959 12.59677
v -0.6906732 3.935567 12.47689
v 11.00478 0.7722613 16.45211
v 10.95404 0.8278095 16.02784
v 12.74838 -0.02745178 11.26999
v 13.21549 -0.3225482 10.46282
v 12.60841 0.1045795 10.58345
v 13.0383 -0.1587189 9.598577
v 13.0383 -0.1587189 9.598577
v 12.60841 0.1045795 10.58345
v 10.51862 1.327562 13.26052
v 10.44955 1.392913 12.96854
v 7.594709 2.616363 13.9472
v 8.275221 2.340988 14.03794
v 8.185226 2.247519 14.92629
v 7.488299 2.489522 15.06544
v 10.95404 0.8278095 16.02784
v 11.00478 0.7722613 16.45211
v 10.44955 1.392913 12.96854
v 10.51862 1.327562 13.26052
v 8.275221 2.340988 14.03794
v 7.594709 2.616363 13.9472
vt 0.2767728 0.5243865
vt 0.2768101 0.6084195
vt 0.2929218 0.6067595
vt 0.2930386 0.523293
vt 0.3108983 0.6464303
vt 0.3105458 0.3974373
vt 0.259601 0.3900356
vt 0.2590022 0.6506873
vt 0.309536 0.5994794
vt 0.3111441 0.339257
vt 0.2594192 0.3329742
vt 0.2623595 0.5957512
vt 0.3104698 0.5888256
vt 0.3098615 0.3866354
vt 0.2625245 0.3802757
vt 0.2626373 0.582374
vt 0.2881116 0.4903091
vt 0.2841369 0.4962785
vt 0.2888362 0.4912377
vt 0.2852146 0.4897519
vt 0.284406 0.4791664
vt 0.2849767 0.4750532
vt 0.2827084 0.4714726
vt 0.2839298 0.4807582
vt 0.2837642 0.470544
vt 0.2843646 0.4546258
vt 0.2841575 0.4673603
vt 0.2846958 0.4597992
vt 0.2855653 0.4604625
vt 0.2845095 0.4710746
vt 0.2855146 0.4547632
vt 0.2861048 0.4546099
vt 0.2862484 0.4632482
vt 0.2877633 0.4508943
vt 0.2862484 0.453432
vt 0.2867246 0.4482585
vt 0.286766 0.4452075
vt 0.2874129 0.4430082
vt 0.286 0.4409627
vt 0.2875734 0.4425545
vt 0.289126 0.4392382
vt 0.2875724 0.4377951
vt 0.2928454 0.6073055
vt 0.2927298 0.5233856
vt 0.2769109 0.5248054
vt 0.2767849 0.6089064
vt 0.8703786 0.3706834
vt 0.8410519 0.3710675
vt 0.8410519 0.3710675
vt 0.8703786 0.3706834
vt 0.8701794 0.3482156
vt 0.8701794 0.3482156
vt 0.8410519 0.3710675
vt 0.8413903 0.3475477
vt 0.8413903 0.3475477
vt 0.8429492 0.3661104
vt 0.8429492 0.3661104
vt 0.8412876 0.3423987
vt 0.8412876 0.3423987
vt 0.8705176 0.3429657
vt 0.8705176 0.3429657
vt 0.8705176 0.3429657
vt 0.8705176 0.3429657
vt 0.8696088 0.3664468
vt 0.8696088 0.3664468
vt 0.8431062 0.3649033
vt 0.8431062 0.3649033
vt 0.8430424 0.346667
vt 0.8430424 0.346667
vt 0.8697928 0.3472409
vt 0.8697928 0.3472409
vt 0.8701366 0.3654855
vt 0.8701366 0.3654855
vt 0.8183369 0.3399025
vt 0.8183369 0.3399025
vt 0.8209036 0.313843
vt 0.8209036 0.313843
vt 0.8263466 0.3075791
vt 0.8263466 0.3075791
vt 0.8286154 0.3299634
vt 0.8286154 0.3299634
vt 0.856245 0.3308119
vt 0.856245 0.3308119
vt 0.8631554 0.3322261
vt 0.8631554 0.3322261
vt 0.8631554 0.3322261
vt 0.8631554 0.3322261
vt 0.8183369 0.3399025
vt 0.8183369 0.3399025
vt 0.8286154 0.3299634
vt 0.8286154 0.3299634
vt 0.856245 0.3308119
vt 0.856245 0.3308119
vt 0.8209036 0.313843
vt 0.8209036 0.313843
vt 0.8163626 0.3162671
vt 0.8163626 0.3162671
vt 0.8047137 0.3021262
vt 0.8047137 0.3021262
vt 0.8205087 0.2764708
vt 0.8205087 0.2764708
vt 0.814783 0.3007122
vt 0.814783 0.3007122
vt 0.8263466 0.3075791
vt 0.8263466 0.3075791
vt 0.8371059 0.2764465
vt 0.8384756 0.2746526
vt 0.8384756 0.2746526
vt 0.8371059 0.2764465
vt 0.8314767 0.27668
vt 0.8314767 0.27668
vt 0.8384756 0.2746526
vt 0.8384756 0.2746526
vt 0.8430167 0.2667741
vt 0.8430167 0.2667741
vt 0.8434116 0.2621279
vt 0.8434116 0.2621279
vt 0.8361064 0.2556635
vt 0.8361064 0.2556635
vt 0.8529229 0.270788
vt 0.8384756 0.2896015
vt 0.8384756 0.2896015
vt 0.8529229 0.270788
vt 0.8495814 0.2587785
vt 0.8495814 0.2587785
vt 0.8205087 0.2764708
vt 0.8205087 0.2764708
vt 0.8236678 0.2843492
vt 0.8236678 0.2843492
vt 0.8185344 0.2958639
vt 0.814783 0.3007122
vt 0.814783 0.3007122
vt 0.8185344 0.2958639
vt 0.8218908 0.3015202
vt 0.8218908 0.3015202
vt 0.8236678 0.2843492
vt 0.8236678 0.2843492
vt 0.8314767 0.27668
vt 0.8314767 0.27668
vt 0.8319601 0.2853593
vt 0.8319601 0.2853593
vt 0.8218908 0.3015202
vt 0.8218908 0.3015202
vt 0.8384756 0.2896015
vt 0.8384756 0.2896015
vt 0.8319601 0.2853593
vt 0.8319601 0.2853593
vt 0.8361064 0.2556635
vt 0.8361064 0.2556635
vt 0.8511028 0.2508397
vt 0.8511028 0.2508397
vt 0.8511028 0.2508397
vt 0.8511028 0.2508397
vt 0.8659195 0.2530374
vt 0.8659195 0.2530374
vt 0.8659195 0.2530374
vt 0.8659195 0.2530374
vt 0.8511117 0.2580877
vt 0.8511117 0.2580877
vt 0.8511117 0.2580877
vt 0.8511117 0.2580877
vt 0.8495814 0.2587785
vt 0.8495814 0.2587785
vt 0.885105 0.2716389
vt 0.885105 0.2716389
vt 0.8844755 0.3434907
vt 0.8844755 0.3434907
vt 0.7976152 0.3449196
vt 0.7976152 0.3449196
vt 0.7976152 0.3449196
vt 0.7976152 0.3449196
vt 0.7974142 0.2725802
vt 0.7974142 0.2725802
vt 0.8840636 0.3439606
vt 0.8840636 0.3439606
vt 0.7974793 0.3453388
vt 0.7974793 0.3453388
vt 0.7981588 0.2729409
vt 0.7981588 0.2729409
vt 0.8834406 0.2717187
vt 0.8834406 0.2717187
vt 0.8840636 0.3439606
vt 0.8840636 0.3439606
vn 0.5077074 0.8580593 0.07724819
vn 0.5563189 0.8288759 0.05894003
vn 0.5563189 0.8288759 0.05894003
vn 0.4799248 0.8729553 0.08730011
vn 0.4096612 0.9101749 -0.06131401
vn 0.5050973 0.8620533 -0.04172455
vn 0.5016761 0.8639802 -0.04312079
vn 0.4072545 0.9106382 -0.06987023
vn 0.6000982 0.799802 0.01410916
vn 0.7439867 0.6661652 0.05203508
vn 0.690868 0.7153507 0.1047608
vn 0.5810555 0.8138112 0.009264871
vn 0.5050973 0.8620533 -0.04172455
vn 0.6000982 0.799802 0.01410916
vn 0.5810555 0.8138112 0.009264871
vn 0.5016761 0.8639802 -0.04312079
vn -0.2333157 0.9535263 -0.1906608
vn -0.337863 0.937986 -0.07765898
vn -0.2333156 0.9535263 -0.1906608
vn -0.3279631 0.940505 -0.08882888
vn -0.4472214 0.894419 0.002780108
vn -0.4565974 0.8896664 0.003542767
vn -0.4922949 0.8704273 -0.001430654
vn -0.4935527 0.8696909 0.006586035
vn -0.4922236 0.8704668 -0.00187897
vn -0.4909054 0.871155 -0.01005419
vn -0.4645865 0.8855267 -0.001331118
vn -0.4549335 0.8905236 0.001831502
vn -0.3722167 0.9276898 0.02909201
vn -0.4136989 0.910288 0.01512939
vn -0.3349343 0.9413334 0.04135663
vn -0.2088419 0.9774311 0.03183616
vn -0.2199371 0.9747733 0.03800692
vn -0.1751907 0.9844537 0.01260983
vn -0.1924077 0.981052 0.02272191
vn -0.1719572 0.9850462 0.0107148
vn -0.09105066 0.9958417 0.003008822
vn -0.07888868 0.9968458 0.008653296
vn -0.06571264 0.9977295 0.0147592
vn -0.06571264 0.9977295 0.0147592
vn -0.06571264 0.9977295 0.0147592
vn -0.06571263 0.9977295 0.0147592
vn 0.4287798 0.897276 0.1050887
vn 0.5077074 0.8580593 0.07724819
vn 0.4799248 0.8729553 0.08730011
vn 0.4287798 0.897276 0.1050887
vn 0.4099306 0.9110459 -0.04418476
vn 0.4072545 0.9106382 -0.06987023
vn 0.4068702 0.9125937 -0.04036333
vn 0.4096612 0.9101749 -0.06131401
vn 0.5178539 0.8546062 -0.03841259
vn 0.5050973 0.8620533 -0.04172455
vn 0.4101339 0.9062937 -0.102088
vn 0.4614911 0.8852186 -0.05842949
vn 0.4672565 0.8825086 -0.05338416
vn 0.4850886 0.8741455 -0.02363481
vn 0.4856631 0.8740246 -0.01457552
vn 0.6988891 0.6832812 0.2113787
vn 0.7007713 0.6807153 0.2134155
vn 0.76238 0.5808008 0.2853895
vn 0.7623799 0.5808008 0.2853895
vn 0.7995548 0.6004844 -0.01142177
vn 0.7439867 0.6661652 0.05203508
vn 0.6000982 0.799802 0.01410916
vn 0.6390302 0.7687038 -0.02711022
vn 0.4672565 0.8825086 -0.05338416
vn 0.4614911 0.8852186 -0.05842949
vn 0.4856631 0.8740246 -0.01457552
vn 0.4850886 0.8741455 -0.02363481
vn 0.6390302 0.7687038 -0.02711022
vn 0.6000982 0.799802 0.01410916
vn 0.5050973 0.8620533 -0.04172455
vn 0.5178539 0.8546062 -0.03841259
vn -0.3794575 0.9251171 0.01304556
vn -0.3794575 0.9251171 0.01304556
vn -0.3794575 0.9251171 0.01304556
vn -0.3794575 0.9251171 0.01304556
vn -0.3889312 0.9212023 -0.01090583
vn -0.3889313 0.9212022 -0.01090583
vn -0.3889312 0.9212022 -0.01090583
vn -0.3889312 0.9212022 -0.01090583
vn -0.03204205 0.9987376 -0.0386833
vn -0.03204205 0.9987376 -0.0386833
vn -0.03204206 0.9987376 -0.03868331
vn -0.03204206 0.9987376 -0.03868331
vn -0.04573255 0.7141988 -0.6984473
vn -0.04573255 0.7141987 -0.6984473
vn -0.04573255 0.7141988 -0.6984473
vn -0.04573255 0.7141988 -0.6984473
vn -0.1900587 0.8876827 0.4194009
vn -0.1900587 0.8876827 0.4194009
vn -0.1900587 0.8876827 0.4194008
vn -0.1900587 0.8876827 0.4194008
vn -0.5010703 0.865401 -0.003089986
vn -0.5010703 0.865401 -0.003089986
vn -0.5010703 0.865401 -0.003089986
vn -0.5010703 0.865401 -0.003089986
vn -0.5062806 0.8623582 -0.00428954
vn -0.5062807 0.8623581 -0.004289541
vn -0.5081238 0.861281 -0.002260624
vn -0.5081238 0.8612812 -0.002260624
vn -0.4683852 0.8829727 0.03121758
vn -0.4683852 0.8829726 0.03121758
vn -0.4683853 0.8829726 0.03121759
vn -0.4683852 0.8829726 0.03121758
vn -0.2570511 0.965137 0.04934921
vn -0.2570511 0.965137 0.0493492
vn -0.2570511 0.965137 0.0493492
vn -0.2570511 0.9651369 0.0493492
vn -0.268432 0.9611871 0.06374773
vn -0.268432 0.9611871 0.06374773
vn -0.210576 0.9772015 -0.02710955
vn -0.210576 0.9772015 -0.02710955
vn -0.210576 0.9772015 -0.02710955
vn -0.210576 0.9772015 -0.02710955
vn -0.1938566 0.9805666 -0.03014632
vn -0.1938566 0.9805666 -0.03014632
vn -0.2233833 0.9738676 -0.04101159
vn -0.2233833 0.9738676 -0.04101159
vn -0.129295 0.9916062 2.087807E-05
vn -0.129295 0.9916062 2.087807E-05
vn -0.129295 0.9916062 2.087807E-05
vn -0.129295 0.9916062 2.087807E-05
vn -0.1043976 0.9945222 -0.005155794
vn -0.1043976 0.9945222 -0.005155794
vn -0.4335933 0.9010775 -0.007504044
vn -0.4335933 0.9010775 -0.007504044
vn -0.4335932 0.9010775 -0.007504044
vn -0.4335933 0.9010775 -0.007504044
vn -0.4880306 0.8727236 -0.01340331
vn -0.4880306 0.8727236 -0.01340332
vn -0.4880307 0.8727236 -0.01340331
vn -0.4880307 0.8727236 -0.01340332
vn -0.507999 0.8613381 -0.005799484
vn -0.507999 0.8613381 -0.005799484
vn -0.3492394 0.936992 0.008829529
vn -0.3492393 0.936992 0.008829529
vn -0.3492394 0.936992 0.008829529
vn -0.3492394 0.936992 0.008829529
vn -0.4241877 0.905436 0.01583007
vn -0.4241877 0.905436 0.01583007
vn -0.4241877 0.905436 0.01583007
vn -0.4241877 0.905436 0.01583007
vn -0.2667426 0.9618374 0.06096873
vn -0.2667426 0.9618374 0.06096873
vn -0.2667426 0.9618374 0.06096873
vn -0.2667426 0.9618374 0.06096873
vn -0.2123809 0.947862 0.2375963
vn -0.2123809 0.947862 0.2375964
vn -0.2123809 0.947862 0.2375964
vn -0.2123809 0.947862 0.2375964
vn 0.1510517 0.9410829 0.3025661
vn 0.1510517 0.9410829 0.3025661
vn 0.1510517 0.9410829 0.3025661
vn 0.1510517 0.9410829 0.3025661
vn 0.2169845 0.9071211 -0.360623
vn 0.2169845 0.9071211 -0.360623
vn 0.2169845 0.9071211 -0.360623
vn 0.2169846 0.9071211 -0.360623
vn -0.156453 0.9866425 -0.04537759
vn -0.156453 0.9866425 -0.0453776
vn -0.156453 0.9866425 -0.0453776
vn -0.156453 0.9866425 -0.0453776
vn 0.5978933 0.7977663 0.07805566
vn 0.5978933 0.7977663 0.07805565
vn 0.5978933 0.7977662 0.07805565
vn 0.5978934 0.7977662 0.07805566
vn 0.5799009 0.8138613 0.03667097
vn 0.5799009 0.8138613 0.03667097
vn 0.5260188 0.8503065 0.01682035
vn 0.5260189 0.8503065 0.01682035
vn 0.5260189 0.8503065 0.01682035
vn 0.5260189 0.8503065 0.01682035
vn 0.3525385 0.9258388 0.1361584
vn 0.3525385 0.9258388 0.1361584
vn 0.3525385 0.9258388 0.1361584
vn 0.3525384 0.9258388 0.1361584
vn 0.3930852 0.9070781 0.1506423
vn 0.3930852 0.9070781 0.1506423
vn 0.4065952 0.9134525 0.01688018
vn 0.4065951 0.9134525 0.01688018
vn 0.4065951 0.9134525 0.01688019
vn 0.4065951 0.9134525 0.01688018
g LazerShock1_0
f 3/3/3 2/2/2 1/1/1
f 4/4/4 3/3/3 1/1/1
f 7/7/7 6/6/6 5/5/5
f 8/8/8 7/7/7 5/5/5
f 11/11/11 10/10/10 9/9/9
f 12/12/12 11/11/11 9/9/9
f 15/15/15 14/14/14 13/13/13
f 16/16/16 15/15/15 13/13/13
f 19/19/19 18/18/18 17/17/17
f 18/18/18 20/20/20 17/17/17
f 18/18/18 21/21/21 20/20/20
f 21/21/21 22/22/22 20/20/20
f 23/23/23 22/22/22 21/21/21
f 21/21/21 24/24/24 23/23/23
f 23/23/23 25/25/25 22/22/22
f 25/25/25 23/23/23 26/26/26
f 26/26/26 27/27/27 25/25/25
f 26/26/26 28/28/28 27/27/27
f 27/27/27 28/28/28 29/29/29
f 29/29/29 30/30/30 27/27/27
f 28/28/28 31/31/31 29/29/29
f 31/31/31 32/32/32 29/29/29
f 32/32/32 33/33/33 29/29/29
f 34/34/34 33/33/33 32/32/32
f 32/32/32 35/35/35 34/34/34
f 35/35/35 36/36/36 34/34/34
f 36/36/36 37/37/37 34/34/34
f 37/37/37 38/38/38 34/34/34
f 38/38/38 37/37/37 39/39/39
f 39/39/39 40/40/40 38/38/38
f 39/39/39 41/41/41 40/40/40
f 39/39/39 42/42/42 41/41/41
f 45/45/45 44/44/44 43/43/43
f 46/46/46 45/45/45 43/43/43
f 49/49/49 48/48/48 47/47/47
f 48/48/48 50/50/50 47/47/47
f 47/47/47 50/50/50 51/51/51
f 50/50/50 52/52/52 51/51/51
f 54/54/54 48/48/48 53/53/53
f 55/55/55 54/54/54 53/53/53
f 58/58/58 57/57/57 56/56/56
f 59/59/59 58/58/58 56/56/56
f 60/60/60 58/58/58 59/59/59
f 61/61/61 60/60/60 59/59/59
f 64/64/64 63/63/63 62/62/62
f 65/65/65 64/64/64 62/62/62
f 68/68/68 67/67/67 66/66/66
f 69/69/69 68/68/68 66/66/66
f 72/72/72 71/71/71 70/70/70
f 73/73/73 72/72/72 70/70/70
f 76/76/76 75/75/75 74/74/74
f 77/77/77 76/76/76 74/74/74
f 80/80/80 79/79/79 78/78/78
f 81/81/81 80/80/80 78/78/78
f 84/84/84 83/83/83 82/82/82
f 85/85/85 84/84/84 82/82/82
f 88/88/88 87/87/87 86/86/86
f 89/89/89 88/88/88 86/86/86
f 92/92/92 91/91/91 90/90/90
f 93/93/93 92/92/92 90/90/90
f 96/96/96 95/95/95 94/94/94
f 97/97/97 96/96/96 94/94/94
f 98/98/98 96/96/96 97/97/97
f 99/99/99 98/98/98 97/97/97
f 100/100/100 98/98/98 99/99/99
f 101/101/101 100/100/100 99/99/99
f 104/104/104 103/103/103 102/102/102
f 105/105/105 104/104/104 102/102/102
f 108/108/108 107/107/107 106/106/106
f 107/107/107 109/109/109 106/106/106
f 106/106/106 109/109/109 110/110/110
f 109/109/109 111/111/111 110/110/110
f 114/114/114 113/113/113 112/112/112
f 115/115/115 114/114/114 112/112/112
f 116/116/116 114/114/114 115/115/115
f 117/117/117 116/116/116 115/115/115
f 118/118/118 116/116/116 117/117/117
f 119/119/119 118/118/118 117/117/117
f 122/122/122 121/121/121 120/120/120
f 121/121/121 123/123/123 120/120/120
f 120/120/120 123/123/123 124/124/124
f 123/123/123 125/125/125 124/124/124
f 128/128/128 127/127/127 126/126/126
f 129/129/129 128/128/128 126/126/126
f 132/132/132 131/131/131 130/130/130
f 131/131/131 133/133/133 130/130/130
f 130/130/130 133/133/133 134/134/134
f 133/133/133 135/135/135 134/134/134
f 138/138/138 137/137/137 136/136/136
f 139/139/139 138/138/138 136/136/136
f 142/142/142 141/141/141 140/140/140
f 143/143/143 142/142/142 140/140/140
f 146/146/146 145/145/145 144/144/144
f 147/147/147 146/146/146 144/144/144
f 150/150/150 149/149/149 148/148/148
f 151/151/151 150/150/150 148/148/148
f 154/154/154 153/153/153 152/152/152
f 155/155/155 154/154/154 152/152/152
f 158/158/158 157/157/157 156/156/156
f 159/159/159 158/158/158 156/156/156
f 162/162/162 161/161/161 160/160/160
f 163/163/163 162/162/162 160/160/160
f 166/166/166 165/165/165 164/164/164
f 167/167/167 166/166/166 164/164/164
f 168/168/168 166/166/166 167/167/167
f 169/169/169 168/168/168 167/167/167
f 172/172/172 171/171/171 170/170/170
f 173/173/173 172/172/172 170/170/170
f 176/176/176 175/175/175 174/174/174
f 177/177/177 176/176/176 174/174/174
f 178/178/178 176/176/176 177/177/177
f 179/179/179 178/178/178 177/177/177
f 182/182/182 181/181/181 180/180/180
f 183/183/183 182/182/182 180/180/180
