g LEG_L
v 3.39506 5.403629 -1.046519
v 2.660763 4.871219 -1.531153
v 3.747463 4.795709 -1.638648
v 2.660763 4.871219 -1.531153
v 2.021298 2.914791 -1.941634
v 3.033663 3.016766 -2.448007
v 1.78907 2.07036 -1.882368
v 2.773573 2.005196 -2.489688
v 1.713192 0.7588591 -1.461275
v 2.692386 0.6263693 -2.045469
v 1.768635 0.2054204 -1.114628
v 2.663801 0.1711307 -1.897702
v 3.286687 5.232273 0.9723877
v 3.840604 5.524582 0.2097031
v 4.712765 4.866632 0.3443201
v 4.958633 3.47131 0.4490408
v 3.412355 4.152782 1.502347
v 4.520148 1.940673 -0.2138137
v 3.16987 1.902963 0.8881937
v 4.19596 0.9681097 -0.4584624
v 3.097361 0.9624035 0.6742317
v 3.76669 0.5510693 1.915185
v 5.343041 0.5510693 0.2129098
v 2.663801 0.1711307 -1.897702
v 5.402705 0.2375221 0.01183873
v 5.388853 0.6731755 1.880988
v 4.65169 0.4734325 2.765603
v 4.727716 0.2230712 2.913361
v 5.917019 0.2366926 0.61746
v 5.255342 0 0.08239665
v 5.753457 0 0.6781161
v 5.757164 0.4734325 0.6188618
v 5.541838 0.2287348 1.972298
v 5.753457 0 0.6781161
v 5.40029 0 1.900119
v 4.65169 0.4734325 2.765603
v 3.686947 0.2116459 1.916823
v 3.76669 0.5510693 1.915185
v 1.768635 0.2054204 -1.114628
v 3.097361 0.9624035 0.6742317
v 1.713192 0.7588591 -1.461275
v 3.808417 0 1.778638
v 2.01453 0 -1.054512
v 2.660763 4.871219 -1.531153
v 3.286687 5.232273 0.9723877
v 3.412355 4.152782 1.502347
v 2.021298 2.914791 -1.941634
v 1.78907 2.07036 -1.882368
v 3.16987 1.902963 0.8881937
v 3.097361 0.9624035 0.6742317
v 1.713192 0.7588591 -1.461275
v 3.840604 5.524582 0.2097031
v 3.286687 5.232273 0.9723877
v 3.39506 5.403629 -1.046519
v 3.840604 5.524582 0.2097031
v 3.39506 5.403629 -1.046519
v 3.747463 4.795709 -1.638648
v 4.712765 4.866632 0.3443201
v 4.958633 3.47131 0.4490408
v 3.033663 3.016766 -2.448007
v 4.520148 1.940673 -0.2138137
v 2.773573 2.005196 -2.489688
v 4.19596 0.9681097 -0.4584624
v 2.692386 0.6263693 -2.045469
v 2.663801 0.1711307 -1.897702
v 4.727716 0.2230712 2.913361
v 5.541838 0.2287348 1.972298
v 5.40029 0 1.900119
v 4.739047 0 2.661106
v 3.686947 0.2116459 1.916823
v 3.808417 0 1.778638
v 5.255342 0 0.08239665
v 5.753457 0 0.6781161
v 2.671077 0 -1.634134
v 5.402705 0.2375221 0.01183873
v 2.01453 0 -1.054512
v 2.663801 0.1711307 -1.897702
v 1.768635 0.2054204 -1.114628
vt 0.09680535 0.3121746
vt 0.1297501 0.2808897
vt 0.08853479 0.2810333
vt 0.1297501 0.2808897
vt 0.1382337 0.1946889
vt 0.09807974 0.2083712
vt 0.1331705 0.1570957
vt 0.09380576 0.172544
vt 0.1130932 0.106181
vt 0.07389849 0.1248865
vt 0.1040803 0.08273853
vt 0.06671224 0.1084117
vt 0.5252239 0.5642102
vt 0.4947391 0.6398017
vt 0.5508457 0.6981623
vt 0.558166 0.7000346
vt 0.5274144 0.562978
vt 0.6687062 0.6847097
vt 0.6603871 0.5619126
vt 0.749244 0.6850239
vt 0.7347597 0.5600079
vt 0.8345186 0.5183662
vt 0.8555329 0.6980343
vt 0.5907734 0.7484294
vt 0.8577047 0.7267622
vt 0.9290414 0.598919
vt 0.9332027 0.5191002
vt 0.9522862 0.5060452
vt 0.9189047 0.7032582
vt 0.8584685 0.7368659
vt 0.9189977 0.7133363
vt 0.9018089 0.6901893
vt 0.9718005 0.6041322
vt 0.931671 0.6993783
vt 0.9840964 0.6096563
vt 0.9332027 0.5191002
vt 0.8321539 0.4914153
vt 0.8345186 0.5183662
vt 0.5510787 0.5054345
vt 0.7347597 0.5600079
vt 0.5274073 0.5508026
vt 0.8286182 0.4781943
vt 0.5650501 0.492152
vt 0.3758357 0.2980529
vt 0.3260859 0.3100361
vt 0.3148403 0.2815884
vt 0.3855135 0.2433834
vt 0.3854873 0.2198428
vt 0.3254104 0.2204327
vt 0.3283715 0.194817
vt 0.3772959 0.1846257
vt 0.3393753 0.3290697
vt 0.3260859 0.3100361
vt 0.3646234 0.3208528
vt 0.1288415 0.3796155
vt 0.1767054 0.361021
vt 0.1836423 0.3264551
vt 0.1016001 0.3473429
vt 0.08240327 0.2963282
vt 0.2090448 0.2507758
vt 0.09964281 0.2324432
vt 0.2075692 0.2106981
vt 0.1060596 0.1925186
vt 0.1844956 0.1600392
vt 0.1768924 0.1433459
vt 0.7888724 0.1064943
vt 0.7665498 0.1076948
vt 0.7664981 0.1106939
vt 0.7853423 0.1096345
vt 0.7891148 0.1333717
vt 0.7856723 0.1336475
vt 0.7440192 0.1364154
vt 0.745497 0.1219459
vt 0.754778 0.1934917
vt 0.7417878 0.1365789
vt 0.77113 0.1947173
vt 0.7521622 0.1964455
vt 0.7734555 0.198654
vn 0.01986265 0.9759027 -0.2173003
vn -0.924343 0.3794414 -0.04017744
vn 0.653146 0.2134883 -0.7265142
vn -0.924343 0.3794414 -0.04017744
vn -0.9773742 0.1808967 0.1096185
vn 0.5269879 0.07714351 -0.8463644
vn -0.9843189 0.04529722 0.1704829
vn 0.4736561 -0.1638981 -0.865325
vn -0.9958626 -0.001744531 0.09085516
vn 0.3171709 -0.3348516 -0.8872863
vn -0.9416188 -0.3347711 0.03580813
vn 0.1545884 -0.3906058 -0.9074853
vn -0.7147583 0.3975097 0.5754188
vn 0.1054383 0.9927631 -0.05748194
vn 0.9577203 0.2543728 -0.134411
vn 0.9873109 -0.1454975 0.06362067
vn -0.5014433 0.09278456 0.860201
vn 0.9547319 -0.2668436 -0.131459
vn -0.4890172 -0.07140399 0.8693466
vn 0.8961191 0.3686782 -0.2470765
vn -0.4910132 0.5354072 0.6872008
vn -0.3163514 0.8614257 0.3973254
vn 0.3753902 0.8933528 -0.2469875
vn 0.1545884 -0.3906058 -0.9074853
vn 0.6107921 -0.127928 -0.7813882
vn 0.3358763 0.9243854 0.180828
vn -0.03803322 0.7305284 0.6818224
vn 0.03664219 -0.2437125 0.9691551
vn 0.9743439 -0.06272672 -0.2161465
vn 0.2077786 -0.9409553 -0.2672661
vn 0.5625817 -0.8181304 -0.1190145
vn 0.6834315 0.7110954 -0.1651203
vn 0.8866491 -0.06858953 0.4573279
vn 0.5625817 -0.8181304 -0.1190145
vn 0.3320821 -0.9278392 0.1698114
vn -0.03803322 0.7305284 0.6818224
vn -0.7875604 -0.2483562 0.5639751
vn -0.3163514 0.8614257 0.3973254
vn -0.9416188 -0.3347711 0.03580813
vn -0.4910132 0.5354072 0.6872008
vn -0.9958626 -0.001744531 0.09085516
vn -0.2679379 -0.943438 0.1952796
vn -0.4194338 -0.9073594 -0.02782515
vn -0.924343 0.3794414 -0.04017744
vn -0.7147583 0.3975097 0.5754188
vn -0.5014433 0.09278456 0.860201
vn -0.9773742 0.1808967 0.1096185
vn -0.9843189 0.04529722 0.1704829
vn -0.4890172 -0.07140399 0.8693466
vn -0.4910132 0.5354072 0.6872008
vn -0.9958626 -0.001744531 0.09085516
vn 0.1054383 0.9927631 -0.05748194
vn -0.7147583 0.3975097 0.5754188
vn 0.01986265 0.9759027 -0.2173003
vn 0.1054383 0.9927631 -0.05748194
vn 0.01986265 0.9759027 -0.2173003
vn 0.653146 0.2134883 -0.7265142
vn 0.9577203 0.2543728 -0.134411
vn 0.9873109 -0.1454975 0.06362067
vn 0.5269879 0.07714351 -0.8463644
vn 0.9547319 -0.2668436 -0.131459
vn 0.4736561 -0.1638981 -0.865325
vn 0.8961191 0.3686782 -0.2470765
vn 0.3171709 -0.3348516 -0.8872863
vn 0.1545884 -0.3906058 -0.9074853
vn 0.03664219 -0.2437125 0.9691551
vn 0.8866491 -0.06858953 0.4573279
vn 0.3320821 -0.9278392 0.1698114
vn 0.04197245 -0.8968285 0.4403827
vn -0.7875604 -0.2483562 0.5639751
vn -0.2679379 -0.943438 0.1952796
vn 0.2077786 -0.9409553 -0.2672661
vn 0.5625817 -0.8181304 -0.1190145
vn -0.009958538 -0.9087761 -0.4171652
vn 0.6107921 -0.127928 -0.7813882
vn -0.4194338 -0.9073594 -0.02782515
vn 0.1545884 -0.3906058 -0.9074853
vn -0.9416188 -0.3347711 0.03580813
g LEG_L_0
f 3/3/3 2/2/2 1/1/1
f 5/5/5 4/4/4 3/3/3
f 6/6/6 5/5/5 3/3/3
f 7/7/7 5/5/5 6/6/6
f 8/8/8 7/7/7 6/6/6
f 9/9/9 7/7/7 8/8/8
f 10/10/10 9/9/9 8/8/8
f 11/11/11 9/9/9 10/10/10
f 12/12/12 11/11/11 10/10/10
f 15/15/15 14/14/14 13/13/13
f 15/15/15 13/13/13 16/16/16
f 13/13/13 17/17/17 16/16/16
f 16/16/16 17/17/17 18/18/18
f 17/17/17 19/19/19 18/18/18
f 18/18/18 19/19/19 20/20/20
f 19/19/19 21/21/21 20/20/20
f 20/20/20 21/21/21 22/22/22
f 23/23/23 20/20/20 22/22/22
f 20/20/20 23/23/23 24/24/24
f 23/23/23 25/25/25 24/24/24
f 23/23/23 22/22/22 26/26/26
f 22/22/22 27/27/27 26/26/26
f 27/27/27 28/28/28 26/26/26
f 29/29/29 25/25/25 23/23/23
f 30/30/30 25/25/25 29/29/29
f 31/31/31 30/30/30 29/29/29
f 23/23/23 26/26/26 32/32/32
f 32/32/32 29/29/29 23/23/23
f 28/28/28 33/33/33 26/26/26
f 26/26/26 33/33/33 32/32/32
f 33/33/33 29/29/29 32/32/32
f 29/29/29 33/33/33 34/34/34
f 33/33/33 35/35/35 34/34/34
f 37/37/37 28/28/28 36/36/36
f 38/38/38 37/37/37 36/36/36
f 39/39/39 37/37/37 38/38/38
f 40/40/40 39/39/39 38/38/38
f 40/40/40 41/41/41 39/39/39
f 37/37/37 39/39/39 42/42/42
f 39/39/39 43/43/43 42/42/42
f 46/46/46 45/45/45 44/44/44
f 47/47/47 46/46/46 44/44/44
f 47/47/47 48/48/48 46/46/46
f 48/48/48 49/49/49 46/46/46
f 50/50/50 49/49/49 48/48/48
f 51/51/51 50/50/50 48/48/48
f 44/44/44 53/53/53 52/52/52
f 54/54/54 44/44/44 52/52/52
f 57/57/57 56/56/56 55/55/55
f 58/58/58 57/57/57 55/55/55
f 58/58/58 59/59/59 57/57/57
f 59/59/59 60/60/60 57/57/57
f 59/59/59 61/61/61 60/60/60
f 61/61/61 62/62/62 60/60/60
f 61/61/61 63/63/63 62/62/62
f 63/63/63 64/64/64 62/62/62
f 65/65/65 64/64/64 63/63/63
f 68/68/68 67/67/67 66/66/66
f 69/69/69 68/68/68 66/66/66
f 66/66/66 70/70/70 69/69/69
f 70/70/70 71/71/71 69/69/69
f 68/68/68 69/69/69 71/71/71
f 68/68/68 71/71/71 72/72/72
f 73/73/73 68/68/68 72/72/72
f 74/74/74 72/72/72 71/71/71
f 72/72/72 74/74/74 75/75/75
f 76/76/76 74/74/74 71/71/71
f 74/74/74 77/77/77 75/75/75
f 74/74/74 76/76/76 77/77/77
f 76/76/76 78/78/78 77/77/77
