g LEyebrow
v 0.7313053 6.879407 4.221388
v 0.6031691 6.859384 4.141382
v 0.6805181 7.419473 4.089486
v 0.8195607 7.401446 4.166095
v 0.6766508 6.46323 4.148636
v 0.7858618 6.601624 4.225779
v 0.9941849 6.580038 4.179233
v 0.9670697 6.461214 4.082037
v 1.450831 6.538445 3.966189
v 1.432307 6.649866 4.074323
v 2.064279 6.757576 3.811903
v 0.9284862 7.624556 4.133966
v 0.8571606 7.695161 4.032106
v 1.11008 7.711044 4.086976
v 1.180937 7.821691 3.950011
v 1.038129 7.318572 4.119947
v 1.647705 7.024129 3.988229
v 1.108 7.436335 3.990247
v 1.978082 6.836291 3.937575
v 2.196706 6.993934 3.767077
v 1.642452 7.620841 3.966884
v 1.637488 7.730321 3.850688
v 2.070617 6.980953 3.907502
v 1.818679 7.035584 3.851389
v 2.183406 7.43366 3.743341
v 2.070468 7.436463 3.879783
v 2.169875 7.74771 3.727315
v 2.046271 7.632889 3.873374
vt 0.3136286 0.3116154
vt 0.292822 0.3065362
vt 0.296084 0.3528232
vt 0.318995 0.3501497
vt 0.307034 0.2744693
vt 0.3184601 0.2932604
vt 0.333506 0.2912907
vt 0.3317612 0.2680807
vt 0.3703477 0.2681194
vt 0.3657661 0.2921368
vt 0.4207915 0.2737537
vt 0.319886 0.3650369
vt 0.3041938 0.3790433
vt 0.3266058 0.3742728
vt 0.3289022 0.3962732
vt 0.3384843 0.3477809
vt 0.388733 0.3172242
vt 0.3500294 0.3728183
vt 0.4054218 0.293059
vt 0.4362545 0.2914504
vt 0.38843 0.3633076
vt 0.3930304 0.3865385
vt 0.4142902 0.298117
vt 0.4198628 0.3179448
vt 0.4423976 0.3538384
vt 0.418001 0.3522072
vt 0.436451 0.3799695
vt 0.4164068 0.3648132
vn -0.6217279 -0.06505373 0.780527
vn -0.8817406 -0.0488844 0.4691949
vn -0.8419191 0.2955113 0.4514923
vn -0.2479413 0.0941901 0.9641853
vn -0.489316 -0.7019632 0.5175108
vn -0.2518063 -0.5342782 0.8069327
vn 0.2268093 -0.5776555 0.7841375
vn 0.1583751 -0.9207142 0.3566547
vn 0.3184499 -0.892952 0.318161
vn 0.3059552 -0.4555901 0.8359599
vn 0.6399407 -0.6959491 0.3257771
vn -0.3865069 0.5465013 0.7429324
vn -0.5875825 0.7088906 0.3901551
vn 0.4808963 0.3410352 0.8077337
vn 0.6002507 0.66026 0.4513933
vn 0.3424722 0.1227317 0.9314772
vn 0.4034638 0.04597398 0.9138399
vn 0.5633797 0.6659459 0.4889983
vn 0.5620788 -0.5348625 0.6308641
vn 0.8047814 0.4497751 0.3873361
vn 0.0257676 0.5156224 0.8564283
vn -0.1913638 0.9056299 0.3784367
vn 0.6023123 0.2613445 0.7542672
vn 0.8297919 0.3517179 0.4332894
vn 0.8786926 -0.3205959 0.3537197
vn 0.7241232 -0.2656476 0.6364564
vn 0.6181499 0.6102039 0.4955218
vn 0.5179888 0.3812152 0.7657432
g LEyebrow_0
f 3/3/3 2/2/2 1/1/1
f 4/4/4 3/3/3 1/1/1
f 1/1/1 2/2/2 5/5/5
f 6/6/6 1/1/1 5/5/5
f 4/4/4 1/1/1 6/6/6
f 7/7/7 6/6/6 5/5/5
f 7/7/7 4/4/4 6/6/6
f 8/8/8 7/7/7 5/5/5
f 8/8/8 9/9/9 7/7/7
f 9/9/9 10/10/10 7/7/7
f 7/7/7 10/10/10 4/4/4
f 9/9/9 11/11/11 10/10/10
f 4/4/4 12/12/12 3/3/3
f 12/12/12 13/13/13 3/3/3
f 12/12/12 14/14/14 13/13/13
f 14/14/14 12/12/12 4/4/4
f 14/14/14 15/15/15 13/13/13
f 16/16/16 14/14/14 4/4/4
f 15/15/15 14/14/14 16/16/16
f 10/10/10 16/16/16 4/4/4
f 10/10/10 17/17/17 16/16/16
f 18/18/18 15/15/15 16/16/16
f 11/11/11 19/19/19 10/10/10
f 10/10/10 19/19/19 17/17/17
f 11/11/11 20/20/20 19/19/19
f 16/16/16 21/21/21 18/18/18
f 17/17/17 21/21/21 16/16/16
f 21/21/21 22/22/22 18/18/18
f 20/20/20 23/23/23 19/19/19
f 19/19/19 23/23/23 17/17/17
f 23/23/23 20/20/20 24/24/24
f 17/17/17 23/23/23 24/24/24
f 24/24/24 25/25/25 17/17/17
f 25/25/25 26/26/26 17/17/17
f 17/17/17 26/26/26 21/21/21
f 25/25/25 27/27/27 26/26/26
f 28/28/28 27/27/27 22/22/22
f 21/21/21 28/28/28 22/22/22
f 27/27/27 28/28/28 26/26/26
f 26/26/26 28/28/28 21/21/21
