g LightsSmall
v -14.65999 0 7.750535
v -13.62827 0 8.878622
v -15.12602 0 8.572415
v -13.79988 0 7.359549
v -15.01996 0 9.511253
v -12.87421 0 7.548796
v -14.38232 0 10.20845
v -12.23657 0 8.245991
v -13.45666 0 10.3977
v -12.13051 0 9.184831
v -12.59654 0 10.00671
v -14.65999 0 -7.639921
v -15.12602 0 -8.4618
v -13.62827 0 -8.768006
v -13.79988 0 -7.248934
v -15.01996 0 -9.400638
v -12.87421 0 -7.438181
v -14.38232 0 -10.09783
v -12.23657 0 -8.135376
v -13.45666 0 -10.28708
v -12.13051 0 -9.074216
v -12.59654 0 -9.896092
v 12.59654 0 7.750535
v 13.62827 0 8.878622
v 12.13051 0 8.572415
v 13.45666 0 7.359549
v 12.23657 0 9.511253
v 14.38232 0 7.548796
v 12.87422 0 10.20845
v 15.01996 0 8.245991
v 13.79988 0 10.3977
v 15.12602 0 9.184831
v 14.66 0 10.00671
v 12.59654 0 -7.639921
v 12.13051 0 -8.4618
v 13.62827 0 -8.768006
v 13.45666 0 -7.248934
v 12.23657 0 -9.400638
v 14.38232 0 -7.438181
v 12.87422 0 -10.09783
v 15.01996 0 -8.135376
v 13.79988 0 -10.28708
v 15.12602 0 -9.074216
v 14.66 0 -9.896092
v -7.582714 0 -14.65999
v -8.7108 0 -13.62827
v -8.404593 0 -15.12602
v -7.191727 0 -13.79988
v -9.343431 0 -15.01996
v -7.380973 0 -12.87421
v -10.04063 0 -14.38232
v -8.078168 0 -12.23657
v -10.22987 0 -13.45666
v -9.017009 0 -12.13051
v -9.838884 0 -12.59654
v 7.807744 0 -14.65999
v 8.629622 0 -15.12602
v 8.935828 0 -13.62827
v 7.416757 0 -13.79988
v 9.56846 0 -15.01996
v 7.606003 0 -12.87421
v 10.26566 0 -14.38232
v 8.303198 0 -12.23657
v 10.4549 0 -13.45666
v 9.242038 0 -12.13051
v 10.06391 0 -12.59654
v -7.582714 0 12.59654
v -8.7108 0 13.62827
v -8.404593 0 12.13051
v -7.191727 0 13.45666
v -9.343431 0 12.23657
v -7.380973 0 14.38232
v -10.04063 0 12.87422
v -8.078168 0 15.01996
v -10.22987 0 13.79988
v -9.017009 0 15.12602
v -9.838884 0 14.66
v 7.807744 0 12.59654
v 8.629622 0 12.13051
v 8.935828 0 13.62827
v 7.416757 0 13.45666
v 9.56846 0 12.23657
v 7.606003 0 14.38232
v 10.26566 0 12.87422
v 8.303198 0 15.01996
v 10.4549 0 13.79988
v 9.242038 0 15.12602
v 10.06391 0 14.66
vt 0.3092786 0.9438006
vt 0.2482809 0.8964676
vt 0.2715799 0.9711905
vt 0.323678 0.8994836
vt 0.224982 0.9711905
vt 0.3092786 0.8551664
vt 0.1872836 0.9438006
vt 0.2715799 0.8277767
vt 0.1728841 0.8994836
vt 0.224982 0.8277767
vt 0.1872836 0.8551664
vt 0.3092786 0.9438006
vt 0.2715799 0.9711905
vt 0.2482809 0.8964676
vt 0.323678 0.8994836
vt 0.224982 0.9711905
vt 0.3092786 0.8551664
vt 0.1872836 0.9438006
vt 0.2715799 0.8277767
vt 0.1728841 0.8994836
vt 0.224982 0.8277767
vt 0.1872836 0.8551664
vt 0.3092786 0.9438006
vt 0.2482809 0.8964676
vt 0.2715799 0.9711905
vt 0.323678 0.8994836
vt 0.224982 0.9711905
vt 0.3092786 0.8551664
vt 0.1872836 0.9438006
vt 0.2715799 0.8277767
vt 0.1728841 0.8994836
vt 0.224982 0.8277767
vt 0.1872836 0.8551664
vt 0.3092786 0.9438006
vt 0.2715799 0.9711905
vt 0.2482809 0.8964676
vt 0.323678 0.8994836
vt 0.224982 0.9711905
vt 0.3092786 0.8551664
vt 0.1872836 0.9438006
vt 0.2715799 0.8277767
vt 0.1728841 0.8994836
vt 0.224982 0.8277767
vt 0.1872836 0.8551664
vt 0.3092786 0.9438006
vt 0.2482809 0.8964676
vt 0.2715799 0.9711905
vt 0.323678 0.8994836
vt 0.224982 0.9711905
vt 0.3092786 0.8551664
vt 0.1872836 0.9438006
vt 0.2715799 0.8277767
vt 0.1728841 0.8994836
vt 0.224982 0.8277767
vt 0.1872836 0.8551664
vt 0.3092786 0.9438006
vt 0.2715799 0.9711905
vt 0.2482809 0.8964676
vt 0.323678 0.8994836
vt 0.224982 0.9711905
vt 0.3092786 0.8551664
vt 0.1872836 0.9438006
vt 0.2715799 0.8277767
vt 0.1728841 0.8994836
vt 0.224982 0.8277767
vt 0.1872836 0.8551664
vt 0.3092786 0.9438006
vt 0.2482809 0.8964676
vt 0.2715799 0.9711905
vt 0.323678 0.8994836
vt 0.224982 0.9711905
vt 0.3092786 0.8551664
vt 0.1872836 0.9438006
vt 0.2715799 0.8277767
vt 0.1728841 0.8994836
vt 0.224982 0.8277767
vt 0.1872836 0.8551664
vt 0.3092786 0.9438006
vt 0.2715799 0.9711905
vt 0.2482809 0.8964676
vt 0.323678 0.8994836
vt 0.224982 0.9711905
vt 0.3092786 0.8551664
vt 0.1872836 0.9438006
vt 0.2715799 0.8277767
vt 0.1728841 0.8994836
vt 0.224982 0.8277767
vt 0.1872836 0.8551664
vn 0 1 0
vn 0 1 0
vn 0 1 0
vn 0 1 0
vn 0 1 0
vn 0 1 0
vn 0 1 0
vn 0 1 0
vn 0 1 0
vn 0 1 0
vn 0 1 0
vn 0 1 0
vn 0 1 0
vn 0 1 0
vn 0 1 0
vn 0 1 0
vn 0 1 0
vn 0 1 0
vn 0 1 0
vn 0 1 0
vn 0 1 0
vn 0 1 0
vn 0 1 0
vn 0 1 0
vn 0 1 0
vn 0 1 0
vn 0 1 0
vn 0 1 0
vn 0 1 0
vn 0 1 0
vn 0 1 0
vn 0 1 0
vn 0 1 0
vn 0 1 0
vn 0 1 0
vn 0 1 0
vn 0 1 0
vn 0 1 0
vn 0 1 0
vn 0 1 0
vn 0 1 0
vn 0 1 0
vn 0 1 0
vn 0 1 0
vn 0 1 0
vn 0 1 0
vn 0 1 0
vn 0 1 0
vn 0 1 0
vn 0 1 0
vn 0 1 0
vn 0 1 0
vn 0 1 0
vn 0 1 0
vn 0 1 0
vn 0 1 0
vn 0 1 0
vn 0 1 0
vn 0 1 0
vn 0 1 0
vn 0 1 0
vn 0 1 0
vn 0 1 0
vn 0 1 0
vn 0 1 0
vn 0 1 0
vn 0 1 0
vn 0 1 0
vn 0 1 0
vn 0 1 0
vn 0 1 0
vn 0 1 0
vn 0 1 0
vn 0 1 0
vn 0 1 0
vn 0 1 0
vn 0 1 0
vn 0 1 0
vn 0 1 0
vn 0 1 0
vn 0 1 0
vn 0 1 0
vn 0 1 0
vn 0 1 0
vn 0 1 0
vn 0 1 0
vn 0 1 0
vn 0 1 0
g LightsSmall_0
f 3/3/3 2/2/2 1/1/1
f 1/1/1 2/2/2 4/4/4
f 5/5/5 2/2/2 3/3/3
f 4/4/4 2/2/2 6/6/6
f 7/7/7 2/2/2 5/5/5
f 6/6/6 2/2/2 8/8/8
f 9/9/9 2/2/2 7/7/7
f 8/8/8 2/2/2 10/10/10
f 11/11/11 2/2/2 9/9/9
f 10/10/10 2/2/2 11/11/11
f 14/14/14 13/13/13 12/12/12
f 14/14/14 12/12/12 15/15/15
f 14/14/14 16/16/16 13/13/13
f 14/14/14 15/15/15 17/17/17
f 14/14/14 18/18/18 16/16/16
f 14/14/14 17/17/17 19/19/19
f 14/14/14 20/20/20 18/18/18
f 14/14/14 19/19/19 21/21/21
f 14/14/14 22/22/22 20/20/20
f 14/14/14 21/21/21 22/22/22
f 25/25/25 24/24/24 23/23/23
f 23/23/23 24/24/24 26/26/26
f 27/27/27 24/24/24 25/25/25
f 26/26/26 24/24/24 28/28/28
f 29/29/29 24/24/24 27/27/27
f 28/28/28 24/24/24 30/30/30
f 31/31/31 24/24/24 29/29/29
f 30/30/30 24/24/24 32/32/32
f 33/33/33 24/24/24 31/31/31
f 32/32/32 24/24/24 33/33/33
f 36/36/36 35/35/35 34/34/34
f 36/36/36 34/34/34 37/37/37
f 36/36/36 38/38/38 35/35/35
f 36/36/36 37/37/37 39/39/39
f 36/36/36 40/40/40 38/38/38
f 36/36/36 39/39/39 41/41/41
f 36/36/36 42/42/42 40/40/40
f 36/36/36 41/41/41 43/43/43
f 36/36/36 44/44/44 42/42/42
f 36/36/36 43/43/43 44/44/44
f 47/47/47 46/46/46 45/45/45
f 45/45/45 46/46/46 48/48/48
f 49/49/49 46/46/46 47/47/47
f 48/48/48 46/46/46 50/50/50
f 51/51/51 46/46/46 49/49/49
f 50/50/50 46/46/46 52/52/52
f 53/53/53 46/46/46 51/51/51
f 52/52/52 46/46/46 54/54/54
f 55/55/55 46/46/46 53/53/53
f 54/54/54 46/46/46 55/55/55
f 58/58/58 57/57/57 56/56/56
f 58/58/58 56/56/56 59/59/59
f 58/58/58 60/60/60 57/57/57
f 58/58/58 59/59/59 61/61/61
f 58/58/58 62/62/62 60/60/60
f 58/58/58 61/61/61 63/63/63
f 58/58/58 64/64/64 62/62/62
f 58/58/58 63/63/63 65/65/65
f 58/58/58 66/66/66 64/64/64
f 58/58/58 65/65/65 66/66/66
f 69/69/69 68/68/68 67/67/67
f 67/67/67 68/68/68 70/70/70
f 71/71/71 68/68/68 69/69/69
f 70/70/70 68/68/68 72/72/72
f 73/73/73 68/68/68 71/71/71
f 72/72/72 68/68/68 74/74/74
f 75/75/75 68/68/68 73/73/73
f 74/74/74 68/68/68 76/76/76
f 77/77/77 68/68/68 75/75/75
f 76/76/76 68/68/68 77/77/77
f 80/80/80 79/79/79 78/78/78
f 80/80/80 78/78/78 81/81/81
f 80/80/80 82/82/82 79/79/79
f 80/80/80 81/81/81 83/83/83
f 80/80/80 84/84/84 82/82/82
f 80/80/80 83/83/83 85/85/85
f 80/80/80 86/86/86 84/84/84
f 80/80/80 85/85/85 87/87/87
f 80/80/80 88/88/88 86/86/86
f 80/80/80 87/87/87 88/88/88
