g LightsSmallEnd
v 6.723686 3.028296 6.655573
v 6.031458 3.028296 7.04809
v 5.773556 3.028296 5.786602
v 7.052996 3.028296 5.931141
v 5.240723 3.028296 6.95876
v 6.893603 3.028296 5.151499
v 4.653509 3.028296 6.421703
v 6.306389 3.028296 4.614446
v 4.494115 3.028296 5.642062
v 5.515651 3.028296 4.525116
v 4.823425 3.028296 4.91763
v 6.792349 3.028296 -5.442555
v 6.100121 3.028296 -5.050039
v 5.842218 3.028296 -6.311527
v 7.121659 3.028296 -6.166988
v 5.309385 3.028296 -5.139368
v 6.962265 3.028296 -6.946629
v 4.722171 3.028296 -5.676425
v 6.375051 3.028296 -7.483682
v 4.562778 3.028296 -6.456066
v 5.584314 3.028296 -7.573012
v 4.892087 3.028296 -7.180499
vt 0.8004413 0.1843039
vt 0.7467756 0.2232946
vt 0.7136082 0.1169232
vt 0.8209395 0.1212166
vt 0.6804412 0.2232946
vt 0.8004413 0.05812911
vt 0.6267759 0.1843039
vt 0.7467756 0.01913853
vt 0.6062775 0.1212166
vt 0.6804412 0.01913853
vt 0.6267759 0.05812911
vt 0.8004413 0.1843039
vt 0.7467756 0.2232946
vt 0.7136082 0.1169232
vt 0.8209395 0.1212166
vt 0.6804412 0.2232946
vt 0.8004413 0.05812911
vt 0.6267759 0.1843039
vt 0.7467756 0.01913853
vt 0.6062775 0.1212166
vt 0.6804412 0.01913853
vt 0.6267759 0.05812911
vn 0 1 0
vn 0 1 0
vn 0 1 0
vn 0 1 0
vn 0 1 0
vn 0 1 0
vn 0 1 0
vn 0 1 0
vn 0 1 0
vn 0 1 0
vn 0 1 0
vn 0 1 0
vn 0 1 0
vn 0 1 0
vn 0 1 0
vn 0 1 0
vn 0 1 0
vn 0 1 0
vn 0 1 0
vn 0 1 0
vn 0 1 0
vn 0 1 0
g LightsSmallEnd_0
f 3/3/3 2/2/2 1/1/1
f 3/3/3 1/1/1 4/4/4
f 3/3/3 5/5/5 2/2/2
f 3/3/3 4/4/4 6/6/6
f 3/3/3 7/7/7 5/5/5
f 3/3/3 6/6/6 8/8/8
f 3/3/3 9/9/9 7/7/7
f 3/3/3 8/8/8 10/10/10
f 3/3/3 11/11/11 9/9/9
f 3/3/3 10/10/10 11/11/11
f 14/14/14 13/13/13 12/12/12
f 14/14/14 12/12/12 15/15/15
f 14/14/14 16/16/16 13/13/13
f 14/14/14 15/15/15 17/17/17
f 14/14/14 18/18/18 16/16/16
f 14/14/14 17/17/17 19/19/19
f 14/14/14 20/20/20 18/18/18
f 14/14/14 19/19/19 21/21/21
f 14/14/14 22/22/22 20/20/20
f 14/14/14 21/21/21 22/22/22
