g Lvl1EyeRh
v -20.60386 22.5018 24.21276
v -20.75051 22.00471 24.4809
v -23.14129 20.14735 21.66194
v -23.19162 20.49138 21.16153
v -26.00574 17.42229 21.3252
v -19.51723 22.80513 28.78526
v -19.74659 22.28495 28.70535
v -26.29209 17.54181 20.79705
v -28.24974 14.87044 23.59931
v -20.34678 21.28553 33.13251
v -20.51299 20.88103 32.72167
v -28.72097 14.77971 23.25853
v -29.01615 13.46651 27.61565
v -22.77567 18.52342 35.59398
v -22.757 18.32919 34.99578
v -29.55053 13.26011 27.60577
v -28.01223 13.74676 31.84008
v -25.87613 15.57385 35.22949
v -25.62144 15.60414 34.65905
v -28.4639 13.56345 32.17827
v -18.8334 23.13494 28.8094
v -19.74925 21.45727 33.60885
v -22.43079 18.40785 36.32638
v -25.85376 15.15146 35.92398
v -28.71072 12.93192 32.55537
v -29.91038 12.59704 27.50723
v -20.03307 22.80005 23.76127
v -28.99454 14.27471 22.70778
v -22.89002 20.58052 20.39264
v -26.31299 17.32413 19.99026
v -19.51637 15.46746 35.85213
v -23.01683 12.13735 35.44063
v -16.77412 18.58593 33.07307
v -25.93847 9.867568 31.99574
v -27.1653 9.525085 26.83332
v -15.83753 20.30159 28.16497
v -26.2287 11.24074 21.92521
v -23.48647 14.35921 19.14616
v -17.06436 19.95911 23.00255
v -19.98599 17.68933 19.55767
v -20.75051 22.00471 24.4809
v -21.66208 21.09728 25.35795
v -23.4919 19.67571 23.20041
v -23.14129 20.14735 21.66194
v -19.74659 22.28495 28.70535
v -25.68427 17.59005 22.94268
v -26.00574 17.42229 21.3252
v -20.89371 21.31177 28.5912
v -20.51299 20.88103 32.72167
v -27.40174 15.63695 24.68322
v -28.24974 14.87044 23.59931
v -21.48029 20.23726 31.66517
v -22.757 18.32919 34.99578
v -27.98833 14.56243 27.75719
v -29.01615 13.46651 27.61565
v -23.19778 18.28415 33.40569
v -25.62144 15.60414 34.65905
v -27.21996 14.77692 30.99042
v -28.01223 13.74676 31.84008
v -25.39013 16.19849 33.14796
v -25.88972 16.53424 26.24961
v -26.20718 15.95272 27.91323
v -24.39283 17.88754 28.16312
v -24.96024 17.59126 25.30764
v -25.79135 16.0688 29.66306
v -24.80106 16.83815 30.8307
v -23.77374 18.72001 25.44712
v -23.61456 17.9669 30.97017
v -22.78344 19.48936 26.61477
v -22.68507 19.02391 30.02822
v -22.36761 19.60544 28.3646
vt 0.2038414 0.8213423
vt 0.2042558 0.8216138
vt 0.2069234 0.8194726
vt 0.2067471 0.8190097
vt 0.2103397 0.8193074
vt 0.2028633 0.8249396
vt 0.2033578 0.8249151
vt 0.2104691 0.8188294
vt 0.2132005 0.8211817
vt 0.2041858 0.8284242
vt 0.2045714 0.8281137
vt 0.2135861 0.8208709
vt 0.2144136 0.8243791
vt 0.2073039 0.8304664
vt 0.2074334 0.8299885
vt 0.2149082 0.8243544
vt 0.2135159 0.8276792
vt 0.2110264 0.8302844
vt 0.2108501 0.8298217
vt 0.2139306 0.8279498
vt 0.2022077 0.8249708
vt 0.2036737 0.828835
vt 0.207131 0.8310995
vt 0.2112589 0.8308983
vt 0.2144795 0.8283098
vt 0.2155639 0.8243231
vt 0.2032923 0.8209828
vt 0.2140982 0.8204602
vt 0.2065148 0.8183956
vt 0.210642 0.8181962
vt 0.2067494 0.8320612
vt 0.2115154 0.831901
vt 0.2027995 0.8293889
vt 0.2152764 0.8289707
vt 0.216597 0.8243898
vt 0.201175 0.824905
vt 0.2149735 0.8199077
vt 0.2110257 0.817235
vt 0.2024965 0.820322
vt 0.2062602 0.8173927
vt 0.158767 0.5522797
vt 0.1506427 0.5469528
vt 0.1353682 0.5592147
vt 0.1388107 0.5682981
vt 0.1654847 0.5275833
vt 0.1158067 0.5601599
vt 0.1132543 0.5695326
vt 0.1557843 0.5280533
vt 0.156406 0.5036545
vt 0.09942621 0.5494289
vt 0.09185298 0.5555125
vt 0.1488347 0.5097368
vt 0.1349959 0.4896294
vt 0.09248051 0.5311202
vt 0.08277789 0.5315925
vt 0.1324465 0.4990013
vt 0.1094361 0.4908774
vt 0.09762132 0.5122252
vt 0.08949332 0.5069055
vt 0.1128854 0.499958
vt 0.1107867 0.5402982
vt 0.1070383 0.5304079
vt 0.1241354 0.529584
vt 0.1196329 0.5460967
vt 0.1098191 0.520203
vt 0.1180672 0.5135801
vt 0.1301988 0.5455889
vt 0.1286319 0.5130683
vt 0.1384494 0.5389679
vt 0.1374793 0.5188683
vt 0.1412296 0.5287618
vn -0.6359828 0.7676113 0.07936484
vn -0.7573081 0.6302482 0.1710896
vn -0.7143611 0.6640847 0.2206344
vn -0.6666182 0.7443918 0.03874258
vn -0.6555535 0.7201048 0.2273737
vn -0.6273863 0.7690537 0.1222409
vn -0.7723785 0.6258581 0.10832
vn -0.7140909 0.6992834 0.03281324
vn -0.6132487 0.767675 0.1860138
vn -0.6329946 0.7562516 0.1655334
vn -0.7604345 0.6476867 0.0473424
vn -0.7448384 0.6637737 0.06797172
vn -0.6012166 0.7892517 0.1249819
vn -0.6636807 0.7204622 0.2011519
vn -0.71844 0.6955609 0.00624642
vn -0.7509236 0.6509851 0.1110504
vn -0.6164697 0.7849151 0.0622363
vn -0.7115595 0.6749849 0.1951372
vn -0.6597655 0.7513602 0.01293157
vn -0.7424145 0.6519868 0.1540575
vn 0.5988164 0.7948601 0.098064
vn 0.5063595 0.5949645 0.6241934
vn 0.1630629 0.1940086 0.9673526
vn -0.3158558 -0.2605795 0.9123231
vn -0.6823891 -0.5346327 0.4985106
vn -0.8273261 -0.5598668 -0.04561317
vn 0.4503773 0.7740019 -0.4450631
vn -0.7408124 -0.3547137 -0.5704167
vn 0.07551794 0.5088944 -0.85751
vn -0.4054758 0.05453239 -0.9124777
vn 0.2603568 0.1032235 0.9599788
vn -0.2307646 -0.3620334 0.9031498
vn 0.605981 0.5147116 0.6065138
vn -0.6061392 -0.6356608 0.4780487
vn -0.7516971 -0.6551947 -0.07530805
vn 0.6933705 0.7171396 0.07034248
vn -0.6598825 -0.445498 -0.605051
vn -0.3191833 -0.03466465 -0.9470587
vn 0.5399781 0.6921589 -0.4788943
vn 0.162737 0.4211487 -0.8922726
vn -0.7573081 0.6302482 0.1710896
vn -0.6944386 0.70934 0.1207964
vn -0.6918807 0.7118307 0.1208225
vn -0.7143611 0.6640847 0.2206344
vn -0.7723785 0.6258581 0.10832
vn -0.6912405 0.7124878 0.1206143
vn -0.6555535 0.7201048 0.2273737
vn -0.696385 0.7081584 0.1164467
vn -0.7604345 0.6476867 0.0473424
vn -0.6890219 0.714525 0.1212552
vn -0.6132487 0.767675 0.1860138
vn -0.6943541 0.7107175 0.112929
vn -0.71844 0.6955609 0.00624642
vn -0.6869981 0.7170616 0.1177126
vn -0.6012166 0.7892517 0.1249819
vn -0.6921564 0.7127524 0.1135943
vn -0.6597655 0.7513602 0.01293157
vn -0.6889724 0.7158645 0.1133805
vn -0.6164697 0.7849151 0.0622363
vn -0.6915347 0.7133893 0.1133823
vn -0.6512716 0.7430721 0.1539127
vn -0.644159 0.7551935 0.1214171
vn -0.6917026 0.7126145 0.1171668
vn -0.6741353 0.7176848 0.1745569
vn -0.6528422 0.7523906 0.08778021
vn -0.6762812 0.7339618 0.06280065
vn -0.7046455 0.6885865 0.1712403
vn -0.7067115 0.7049946 0.05951077
vn -0.7278921 0.6699463 0.1460994
vn -0.7293493 0.679448 0.07999977
vn -0.7364087 0.667134 0.1124022
g Lvl1EyeRh_0
f 3/3/3 2/2/2 1/1/1
f 4/4/4 3/3/3 1/1/1
f 5/5/5 3/3/3 4/4/4
f 1/1/1 2/2/2 6/6/6
f 2/2/2 7/7/7 6/6/6
f 8/8/8 5/5/5 4/4/4
f 9/9/9 5/5/5 8/8/8
f 6/6/6 7/7/7 10/10/10
f 7/7/7 11/11/11 10/10/10
f 12/12/12 9/9/9 8/8/8
f 13/13/13 9/9/9 12/12/12
f 10/10/10 11/11/11 14/14/14
f 11/11/11 15/15/15 14/14/14
f 16/16/16 13/13/13 12/12/12
f 17/17/17 13/13/13 16/16/16
f 14/14/14 15/15/15 18/18/18
f 15/15/15 19/19/19 18/18/18
f 19/19/19 17/17/17 20/20/20
f 20/20/20 17/17/17 16/16/16
f 18/18/18 19/19/19 20/20/20
f 21/21/21 6/6/6 10/10/10
f 22/22/22 10/10/10 14/14/14
f 22/22/22 21/21/21 10/10/10
f 23/23/23 14/14/14 18/18/18
f 23/23/23 22/22/22 14/14/14
f 24/24/24 18/18/18 20/20/20
f 24/24/24 23/23/23 18/18/18
f 25/25/25 20/20/20 16/16/16
f 25/25/25 24/24/24 20/20/20
f 26/26/26 16/16/16 12/12/12
f 26/26/26 25/25/25 16/16/16
f 21/21/21 27/27/27 6/6/6
f 27/27/27 1/1/1 6/6/6
f 28/28/28 26/26/26 12/12/12
f 28/28/28 12/12/12 8/8/8
f 27/27/27 29/29/29 1/1/1
f 29/29/29 4/4/4 1/1/1
f 30/30/30 8/8/8 4/4/4
f 30/30/30 28/28/28 8/8/8
f 29/29/29 30/30/30 4/4/4
f 31/31/31 23/23/23 24/24/24
f 32/32/32 31/31/31 24/24/24
f 32/32/32 24/24/24 25/25/25
f 31/31/31 33/33/33 23/23/23
f 34/34/34 32/32/32 25/25/25
f 34/34/34 25/25/25 26/26/26
f 33/33/33 22/22/22 23/23/23
f 35/35/35 34/34/34 26/26/26
f 35/35/35 26/26/26 28/28/28
f 33/33/33 36/36/36 22/22/22
f 37/37/37 35/35/35 28/28/28
f 37/37/37 28/28/28 30/30/30
f 36/36/36 21/21/21 22/22/22
f 38/38/38 37/37/37 30/30/30
f 36/36/36 39/39/39 21/21/21
f 38/38/38 30/30/30 29/29/29
f 39/39/39 27/27/27 21/21/21
f 40/40/40 38/38/38 29/29/29
f 40/40/40 29/29/29 27/27/27
f 39/39/39 40/40/40 27/27/27
f 43/43/43 42/42/42 41/41/41
f 44/44/44 43/43/43 41/41/41
f 41/41/41 42/42/42 45/45/45
f 46/46/46 43/43/43 44/44/44
f 47/47/47 46/46/46 44/44/44
f 42/42/42 48/48/48 45/45/45
f 45/45/45 48/48/48 49/49/49
f 50/50/50 46/46/46 47/47/47
f 51/51/51 50/50/50 47/47/47
f 48/48/48 52/52/52 49/49/49
f 49/49/49 52/52/52 53/53/53
f 54/54/54 50/50/50 51/51/51
f 55/55/55 54/54/54 51/51/51
f 52/52/52 56/56/56 53/53/53
f 53/53/53 56/56/56 57/57/57
f 58/58/58 54/54/54 55/55/55
f 59/59/59 58/58/58 55/55/55
f 57/57/57 60/60/60 59/59/59
f 56/56/56 60/60/60 57/57/57
f 60/60/60 58/58/58 59/59/59
f 50/50/50 61/61/61 46/46/46
f 54/54/54 62/62/62 50/50/50
f 62/62/62 61/61/61 50/50/50
f 62/62/62 63/63/63 61/61/61
f 61/61/61 63/63/63 64/64/64
f 61/61/61 64/64/64 46/46/46
f 65/65/65 63/63/63 62/62/62
f 65/65/65 62/62/62 54/54/54
f 58/58/58 65/65/65 54/54/54
f 46/46/46 64/64/64 43/43/43
f 66/66/66 65/65/65 58/58/58
f 60/60/60 66/66/66 58/58/58
f 66/66/66 63/63/63 65/65/65
f 64/64/64 67/67/67 43/43/43
f 64/64/64 63/63/63 67/67/67
f 43/43/43 67/67/67 42/42/42
f 68/68/68 66/66/66 60/60/60
f 68/68/68 63/63/63 66/66/66
f 56/56/56 68/68/68 60/60/60
f 67/67/67 69/69/69 42/42/42
f 67/67/67 63/63/63 69/69/69
f 42/42/42 69/69/69 48/48/48
f 70/70/70 68/68/68 56/56/56
f 70/70/70 63/63/63 68/68/68
f 52/52/52 70/70/70 56/56/56
f 48/48/48 71/71/71 52/52/52
f 69/69/69 71/71/71 48/48/48
f 69/69/69 63/63/63 71/71/71
f 71/71/71 70/70/70 52/52/52
f 71/71/71 63/63/63 70/70/70
