g Lvl1EyeLhDamaged
v 22.0015 21.20707 23.99123
v 24.33256 18.61346 21.43273
v 22.04131 20.63984 24.20181
v 24.48154 19.01371 20.79663
v 26.78521 16.55231 24.81832
v 20.64343 21.18826 28.67892
v 20.78661 20.62247 28.53267
v 27.13627 16.57232 24.21797
v 28.46242 14.74706 25.47746
v 20.92608 18.96448 32.95707
v 21.04774 18.56797 32.48517
v 28.95166 14.60327 24.95503
v 28.72355 10.20381 26.75142
v 22.74147 15.38513 35.19159
v 22.72495 15.30534 34.58526
v 29.23431 9.764788 26.63287
v 27.46885 9.938534 30.88239
v 25.3962 11.8174 34.52893
v 25.1776 11.97458 33.94515
v 27.87624 9.624052 31.22223
v 20.00141 21.65453 28.72181
v 20.31345 19.19942 33.44497
v 22.31768 15.24774 35.9119
v 25.24856 11.3089 35.18033
v 27.98658 8.887396 31.52967
v 29.48591 8.921454 26.36509
v 21.50074 21.67529 23.5465
v 29.17386 14.09989 24.22684
v 24.23876 19.25377 19.91244
v 27.16963 16.27831 23.22894
v 18.8036 12.86861 34.88503
v 21.80082 8.840594 34.1369
v 16.75399 16.90976 32.36224
v 24.60083 6.36426 30.40359
v 26.13411 6.385477 25.11111
v 16.43488 19.42045 27.53216
v 25.815 11.63281 22.86005
v 23.76539 13.61461 21.59223
v 17.96815 19.44168 22.23969
v 20.76815 16.96534 18.50637
v 22.04131 20.63984 24.20181
v 24.33256 18.61346 21.43273
v 24.50359 17.8829 23.5581
v 22.74994 19.43383 25.01083
v 20.78661 20.62247 28.53267
v 26.38076 16.58809 26.48209
v 26.78521 16.55231 24.81832
v 21.78963 19.42054 28.32553
v 21.04774 18.56797 32.48517
v 27.66444 15.56579 27.18833
v 28.46242 14.74706 25.47746
v 21.98949 18.02679 31.49473
v 22.72495 15.30534 34.58526
v 27.8643 11.88519 27.31599
v 28.72355 10.20381 26.75142
v 23.27317 15.93418 33.42823
v 25.1776 11.97458 33.94515
v 26.904 11.48471 30.3185
v 27.46885 9.938534 30.88239
v 25.15035 13.24006 32.8215
v 26.17747 16.58986 30.26391
v 26.28563 14.30751 29.39131
v 24.7689 16.76876 31.82476
v 25.48275 17.02649 29.34178
v 25.76592 13.68813 30.63857
v 24.81685 14.96948 32.12553
v 24.46683 16.96923 27.42302
v 23.80092 16.44911 32.44271
v 23.51775 17.52312 27.38209
v 23.10621 17.4833 31.43136
v 22.99804 17.86046 29.51591
vt 0.2129532 0.8393422
vt 0.2041787 0.8446658
vt 0.2117735 0.8385696
vt 0.2046806 0.8459834
vt 0.1944527 0.8451356
vt 0.2157378 0.8291011
vt 0.21433 0.8291708
vt 0.1940843 0.8464965
vt 0.186308 0.8398
vt 0.2119728 0.8191802
vt 0.2108749 0.8200644
vt 0.1852101 0.8406844
vt 0.1828543 0.8306967
vt 0.2030956 0.8133664
vt 0.2027269 0.8147268
vt 0.1814462 0.830767
vt 0.18541 0.8213016
vt 0.1924976 0.8138844
vt 0.1929996 0.8152018
vt 0.1842294 0.8205309
vt 0.2176043 0.8290119
vt 0.2134306 0.8180108
vt 0.2035878 0.8115638
vt 0.1918357 0.8121365
vt 0.1826665 0.819506
vt 0.1795793 0.8308563
vt 0.2145164 0.840366
vt 0.1837522 0.8418539
vt 0.2053421 0.8477316
vt 0.1935919 0.8482994
vt 0.2046743 0.8088256
vt 0.1911054 0.8092817
vt 0.2159194 0.8164339
vt 0.1803979 0.8176247
vt 0.1766382 0.8306661
vt 0.2205445 0.8291994
vt 0.1812601 0.8434269
vt 0.1924995 0.8510361
vt 0.2167822 0.8422471
vt 0.206067 0.8505871
vt 0.1548098 0.555336
vt 0.1301887 0.5750986
vt 0.1259415 0.563892
vt 0.1447864 0.548764
vt 0.1630976 0.5248669
vt 0.1018076 0.565058
vt 0.09865851 0.5766218
vt 0.1511299 0.5254467
vt 0.1518968 0.4953448
vt 0.08159818 0.5518187
vt 0.07225472 0.5593245
vt 0.1425558 0.5028488
vt 0.1254822 0.4780414
vt 0.07302894 0.5292305
vt 0.06105836 0.5298132
vt 0.1223368 0.4896039
vt 0.09394781 0.4795812
vt 0.07937139 0.5059189
vt 0.06934349 0.4993557
vt 0.09820342 0.4907843
vt 0.09561419 0.5405539
vt 0.09098962 0.5283517
vt 0.1120831 0.5273352
vt 0.1065281 0.5477078
vt 0.09442042 0.5157614
vt 0.1045965 0.5075904
vt 0.1195638 0.5470812
vt 0.1176306 0.5069591
vt 0.1297429 0.5389126
vt 0.128546 0.5141147
vt 0.133173 0.5263209
vn 0.7526194 0.6291711 0.194185
vn 0.6231144 0.7021697 0.3445086
vn 0.8348768 0.4755451 0.2771958
vn 0.7240467 0.6865856 0.0660053
vn 0.4915558 0.8448597 0.2111522
vn 0.7465717 0.619231 0.2432774
vn 0.8582062 0.4644145 0.2186352
vn 0.6079339 0.7823229 0.1355998
vn 0.7968728 0.3885514 0.4626248
vn 0.7441738 0.6013119 0.2909111
vn 0.8239233 0.529088 0.203018
vn 0.8468325 0.4409007 0.2974583
vn 0.7839947 0.4130688 0.4633857
vn 0.765061 0.5544876 0.3274525
vn 0.8075446 0.5346097 0.2491268
vn 0.8993719 0.2892725 0.3277981
vn 0.7934937 0.555998 0.2474554
vn 0.8073137 0.4997901 0.3137745
vn 0.8068459 0.5438488 0.2307127
vn 0.8486775 0.4498592 0.2781601
vn -0.4527433 0.8747978 0.1724886
vn -0.4315065 0.5949767 0.6780893
vn -0.1866035 0.0959135 0.9777421
vn 0.2015394 -0.4230518 0.8834076
vn 0.540269 -0.7057641 0.4582646
vn 0.7166269 -0.5892794 -0.3730893
vn -0.2706521 0.8907243 -0.3651818
vn 0.6495581 -0.1222499 -0.7504194
vn 0.3187602 0.2927194 -0.9015028
vn 0.6065566 -0.04233842 -0.7939121
vn -0.296837 0.02643725 0.9545621
vn 0.1021071 -0.5049425 0.8570923
vn -0.54231 0.5378361 0.6454704
vn 0.4483153 -0.7884974 0.4210526
vn 0.6467518 -0.7015826 -0.2991554
vn -0.5571002 0.8202354 0.1298197
vn 0.5045021 -0.2148015 -0.8362643
vn 0.5218694 -0.2159576 -0.8252361
vn -0.3713675 0.8309694 -0.4142172
vn 0.1733365 0.344346 -0.9227027
vn 0.8348768 0.4755451 0.2771958
vn 0.6231144 0.7021697 0.3445086
vn 0.5735694 0.7954161 0.1957844
vn 0.7414783 0.6373662 0.2097009
vn 0.8582062 0.4644145 0.2186352
vn 0.4464243 0.8903285 0.08955793
vn 0.4915558 0.8448597 0.2111522
vn 0.7464721 0.6288014 0.2176882
vn 0.8239233 0.529088 0.203018
vn 0.8603907 0.3476772 0.3726236
vn 0.7968728 0.3885514 0.4626248
vn 0.6405929 0.6930125 0.3307182
vn 0.8075446 0.5346097 0.2491268
vn 0.8781762 0.2103576 0.4296002
vn 0.7839947 0.4130688 0.4633857
vn 0.6609328 0.548546 0.5121182
vn 0.8068459 0.5438488 0.2307127
vn 0.8655787 0.3652763 0.3425591
vn 0.7934937 0.555998 0.2474554
vn 0.8172852 0.395041 0.4195087
vn 0.8250716 0.3371694 0.4534024
vn 0.8713593 0.09330172 0.4816927
vn 0.6432634 0.5775242 0.5026709
vn 0.332588 0.9407833 0.06566645
vn 0.8807583 0.3004994 0.3660122
vn 0.8113936 0.3110377 0.4948696
vn 0.4098557 0.9023482 0.133364
vn 0.5244679 0.5679867 0.6342906
vn 0.6984534 0.693288 0.1775235
vn 0.449593 0.8180748 0.3586358
vn 0.6366799 0.7563207 0.1503921
g Lvl1EyeLhDamaged_0
f 3/3/3 2/2/2 1/1/1
f 2/2/2 4/4/4 1/1/1
f 2/2/2 5/5/5 4/4/4
f 3/3/3 1/1/1 6/6/6
f 7/7/7 3/3/3 6/6/6
f 5/5/5 8/8/8 4/4/4
f 5/5/5 9/9/9 8/8/8
f 7/7/7 6/6/6 10/10/10
f 11/11/11 7/7/7 10/10/10
f 9/9/9 12/12/12 8/8/8
f 9/9/9 13/13/13 12/12/12
f 11/11/11 10/10/10 14/14/14
f 15/15/15 11/11/11 14/14/14
f 13/13/13 16/16/16 12/12/12
f 13/13/13 17/17/17 16/16/16
f 15/15/15 14/14/14 18/18/18
f 19/19/19 15/15/15 18/18/18
f 17/17/17 19/19/19 20/20/20
f 17/17/17 20/20/20 16/16/16
f 19/19/19 18/18/18 20/20/20
f 6/6/6 21/21/21 10/10/10
f 10/10/10 22/22/22 14/14/14
f 21/21/21 22/22/22 10/10/10
f 14/14/14 23/23/23 18/18/18
f 22/22/22 23/23/23 14/14/14
f 18/18/18 24/24/24 20/20/20
f 23/23/23 24/24/24 18/18/18
f 20/20/20 25/25/25 16/16/16
f 24/24/24 25/25/25 20/20/20
f 16/16/16 26/26/26 12/12/12
f 25/25/25 26/26/26 16/16/16
f 27/27/27 21/21/21 6/6/6
f 1/1/1 27/27/27 6/6/6
f 26/26/26 28/28/28 12/12/12
f 12/12/12 28/28/28 8/8/8
f 29/29/29 27/27/27 1/1/1
f 4/4/4 29/29/29 1/1/1
f 8/8/8 30/30/30 4/4/4
f 28/28/28 30/30/30 8/8/8
f 30/30/30 29/29/29 4/4/4
f 23/23/23 31/31/31 24/24/24
f 31/31/31 32/32/32 24/24/24
f 24/24/24 32/32/32 25/25/25
f 33/33/33 31/31/31 23/23/23
f 32/32/32 34/34/34 25/25/25
f 25/25/25 34/34/34 26/26/26
f 22/22/22 33/33/33 23/23/23
f 34/34/34 35/35/35 26/26/26
f 26/26/26 35/35/35 28/28/28
f 36/36/36 33/33/33 22/22/22
f 35/35/35 37/37/37 28/28/28
f 28/28/28 37/37/37 30/30/30
f 21/21/21 36/36/36 22/22/22
f 37/37/37 38/38/38 30/30/30
f 39/39/39 36/36/36 21/21/21
f 30/30/30 38/38/38 29/29/29
f 27/27/27 39/39/39 21/21/21
f 38/38/38 40/40/40 29/29/29
f 40/40/40 39/39/39 27/27/27
f 29/29/29 40/40/40 27/27/27
f 43/43/43 42/42/42 41/41/41
f 44/44/44 43/43/43 41/41/41
f 44/44/44 41/41/41 45/45/45
f 43/43/43 46/46/46 42/42/42
f 46/46/46 47/47/47 42/42/42
f 48/48/48 44/44/44 45/45/45
f 48/48/48 45/45/45 49/49/49
f 46/46/46 50/50/50 47/47/47
f 50/50/50 51/51/51 47/47/47
f 52/52/52 48/48/48 49/49/49
f 52/52/52 49/49/49 53/53/53
f 50/50/50 54/54/54 51/51/51
f 54/54/54 55/55/55 51/51/51
f 56/56/56 52/52/52 53/53/53
f 56/56/56 53/53/53 57/57/57
f 54/54/54 58/58/58 55/55/55
f 58/58/58 59/59/59 55/55/55
f 60/60/60 57/57/57 59/59/59
f 60/60/60 56/56/56 57/57/57
f 58/58/58 60/60/60 59/59/59
f 61/61/61 50/50/50 46/46/46
f 62/62/62 54/54/54 50/50/50
f 61/61/61 62/62/62 50/50/50
f 63/63/63 62/62/62 61/61/61
f 63/63/63 61/61/61 64/64/64
f 64/64/64 61/61/61 46/46/46
f 63/63/63 65/65/65 62/62/62
f 62/62/62 65/65/65 54/54/54
f 65/65/65 58/58/58 54/54/54
f 64/64/64 46/46/46 43/43/43
f 65/65/65 66/66/66 58/58/58
f 66/66/66 60/60/60 58/58/58
f 63/63/63 66/66/66 65/65/65
f 67/67/67 64/64/64 43/43/43
f 63/63/63 64/64/64 67/67/67
f 67/67/67 43/43/43 44/44/44
f 66/66/66 68/68/68 60/60/60
f 63/63/63 68/68/68 66/66/66
f 68/68/68 56/56/56 60/60/60
f 69/69/69 67/67/67 44/44/44
f 63/63/63 67/67/67 69/69/69
f 69/69/69 44/44/44 48/48/48
f 68/68/68 70/70/70 56/56/56
f 63/63/63 70/70/70 68/68/68
f 70/70/70 52/52/52 56/56/56
f 71/71/71 48/48/48 52/52/52
f 71/71/71 69/69/69 48/48/48
f 63/63/63 69/69/69 71/71/71
f 70/70/70 71/71/71 52/52/52
f 63/63/63 71/71/71 70/70/70
