g Lvl1RotorFront
v -19.91151 1.450894 -0.3144954
v -19.91152 -1.448325 -0.3251814
v -11.21986 -3.497882 -0.3328084
v -11.21982 3.50036 -0.3070076
v -2.631248 1.450803 -0.3146345
v -2.631263 -1.448416 -0.3253255
v 4.355246 3.17381 -2.586273
v 4.355288 3.154655 2.609533
v 1.663603 5.110287 2.616762
v 1.663561 5.129441 -2.579041
v -1.663514 5.110303 2.616791
v -1.663556 5.129458 -2.579015
v -1.663556 5.129458 -2.579015
v -1.663514 5.110303 2.616791
v -4.355219 3.1547 2.609603
v -4.355261 3.173856 -2.586202
v -5.383371 -0.009549713 2.597946
v -5.383414 0.009605331 -2.597857
v -5.383414 0.009605331 -2.597857
v -5.383371 -0.009549713 2.597946
v -4.355252 -3.17381 2.586271
v -4.355294 -3.154655 -2.609532
v -1.663568 -5.129441 2.57904
v -1.66361 -5.110286 -2.616764
v 1.663549 -5.129458 2.57901
v 1.663507 -5.110303 -2.616793
v 4.355254 -3.173856 2.5862
v 4.355212 -3.1547 -2.609603
v 5.383406 -0.009606552 2.597858
v 5.383364 0.009549255 -2.597948
v 5.383364 0.009549255 -2.597948
v 5.383406 -0.009606552 2.597858
v 4.355288 3.154655 2.609533
v 4.355246 3.17381 -2.586273
v 19.91151 1.450683 -0.3148201
v 11.2198 -3.498 -0.3329939
v 19.91149 -1.448535 -0.3255061
v 11.21984 3.50024 -0.3071907
v 2.631252 1.450775 -0.3146785
v 2.631237 -1.448444 -0.3253645
v -19.91149 1.444922 1.305509
v -19.91151 1.450894 -0.3144954
v -11.21982 3.50036 -0.3070076
v -19.91152 -1.448325 -0.3251814
v -11.21981 3.494387 1.312995
v -2.631248 1.450803 -0.3146345
v -19.91151 -1.454297 1.294821
v -11.21984 -3.503854 1.287194
v -11.21986 -3.497882 -0.3328084
v -2.631263 -1.448416 -0.3253255
v -2.63125 -1.454388 1.294679
v -2.631235 1.44483 1.305368
v 19.91152 1.444711 1.305185
v 11.21984 3.50024 -0.3071907
v 19.91151 1.450683 -0.3148201
v 19.91149 -1.448535 -0.3255061
v 11.21985 3.494268 1.312812
v 2.631252 1.450775 -0.3146785
v 19.9115 -1.454507 1.294496
v 11.21982 -3.503973 1.287011
v 11.2198 -3.498 -0.3329939
v 2.631237 -1.448444 -0.3253645
v 2.63125 -1.454416 1.294638
v 2.631265 1.444803 1.305326
v 4.355288 3.154655 2.609533
v 1.785278E-05 -0.009578018 2.597902
v 1.663603 5.110287 2.616762
v 5.383406 -0.009606552 2.597858
v -1.663514 5.110303 2.616791
v 4.355254 -3.173856 2.5862
v -4.355219 3.1547 2.609603
v 1.663549 -5.129458 2.57901
v -5.383371 -0.009549713 2.597946
v -1.663568 -5.129441 2.57904
v -4.355252 -3.17381 2.586271
vt 0.2389007 0.9428615
vt 0.2423019 0.9676244
vt 0.3189045 0.9751614
vt 0.3105564 0.9150093
vt 0.3855036 0.9205721
vt 0.390465 0.9495801
vt 0.3021056 0.9036792
vt 0.3029135 0.9036921
vt 0.2804151 0.9033346
vt 0.2757065 0.9032598
vt 0.2784939 0.903304
vt 0.2717113 0.9031963
vt 0.2717113 0.9031963
vt 0.2784939 0.903304
vt 0.2978844 0.9036121
vt 0.2916172 0.9035125
vt 0.3311558 0.9041408
vt 0.3278101 0.9040877
vt 0.3278101 0.9040877
vt 0.3311558 0.9041408
vt 0.3656099 0.9046882
vt 0.3664624 0.9047018
vt 0.3880952 0.9050456
vt 0.3928305 0.9051208
vt 0.3900252 0.9050763
vt 0.3968579 0.9051848
vt 0.370659 0.9047686
vt 0.3770008 0.9048693
vt 0.3373854 0.9042398
vt 0.3408185 0.9042944
vt 0.3408185 0.9042944
vt 0.3373854 0.9042398
vt 0.3029135 0.9036921
vt 0.3021056 0.9036792
vt 0.3893059 0.945519
vt 0.3079491 0.9743263
vt 0.3848325 0.970117
vt 0.3189132 0.9145832
vt 0.2438157 0.916864
vt 0.2375192 0.9456239
vt 0.2556669 0.9681513
vt 0.2469216 0.9792218
vt 0.3318426 0.9962497
vt 0.237301 0.937133
vt 0.3281818 0.9804758
vt 0.3998332 0.9508033
vt 0.2481247 0.9439293
vt 0.3124898 0.909592
vt 0.3093775 0.8929175
vt 0.3960153 0.9169596
vt 0.3865474 0.9240957
vt 0.3894287 0.9455515
vt 0.2519525 0.9452678
vt 0.312823 0.8908106
vt 0.239793 0.938251
vt 0.2460372 0.9809024
vt 0.3151186 0.9068156
vt 0.3926187 0.9076132
vt 0.2536777 0.9705628
vt 0.3261273 0.9784627
vt 0.3292488 0.9951029
vt 0.4013925 0.9404224
vt 0.3899651 0.9373512
vt 0.3848518 0.9163859
vt 0.7963055 0.96658
vt 0.7478334 0.9352435
vt 0.7686076 0.9890812
vt 0.8054619 0.9321038
vt 0.7329659 0.9910028
vt 0.7926058 0.8988261
vt 0.7030236 0.9716097
vt 0.7626532 0.8794574
vt 0.6901946 0.9383341
vt 0.7270426 0.8813877
vt 0.6993685 0.9038758
vn -0.1543411 0.2745652 -0.9491011
vn -0.1543439 -0.2675583 -0.9510996
vn -9.503459E-06 -0.3553154 -0.9347464
vn -5.745824E-06 0.3621979 -0.9321012
vn 0.155927 0.2741223 -0.9489698
vn 0.1559241 -0.2671192 -0.9509653
vn 0.8090202 0.5877769 0.002160365
vn 0.7473807 0.5415805 0.384854
vn 0.2854794 0.877173 0.3860946
vn 0.3090219 0.9510485 0.003503677
vn -0.2854641 0.8771757 0.3860996
vn -0.3090121 0.9510516 0.003508679
vn -0.3090121 0.9510516 0.003508679
vn -0.2854641 0.8771757 0.3860996
vn -0.7473688 0.5415884 0.3848661
vn -0.8090138 0.5877856 0.002173536
vn -0.9238029 -0.001406679 0.3828658
vn -1 5.24855E-06 8.195366E-06
vn -1 5.24855E-06 8.195366E-06
vn -0.9238029 -0.001406679 0.3828658
vn -0.7473745 -0.5444036 0.3808623
vn -0.80902 -0.5877771 -0.002160361
vn -0.2854731 -0.8799958 0.3796214
vn -0.3090218 -0.9510485 -0.003503787
vn 0.2854702 -0.8799989 0.3796165
vn 0.3090119 -0.9510517 -0.003508806
vn 0.747375 -0.5444114 0.3808502
vn 0.8090138 -0.5877855 -0.00217358
vn 0.9238092 -0.001416404 0.3828505
vn 1 -5.218301E-06 -8.172207E-06
vn 1 -5.218301E-06 -8.172207E-06
vn 0.9238092 -0.001416404 0.3828505
vn 0.7473807 0.5415805 0.384854
vn 0.8090202 0.5877769 0.002160365
vn 0.1543287 0.2745637 -0.9491035
vn -9.551267E-06 -0.3553155 -0.9347464
vn 0.1543259 -0.26756 -0.9511021
vn -5.703169E-06 0.3621981 -0.9321012
vn -0.1559398 0.2741239 -0.9489672
vn -0.1559429 -0.2671178 -0.9509625
vn -0.1543258 0.2675599 0.9511021
vn -0.1543411 0.2745652 -0.9491011
vn -5.745824E-06 0.3621979 -0.9321012
vn -0.1543439 -0.2675583 -0.9510996
vn 9.516835E-06 0.3553154 0.9347464
vn 0.155927 0.2741223 -0.9489698
vn -0.1543287 -0.2745636 0.9491035
vn 5.74987E-06 -0.3621979 0.9321012
vn -9.503459E-06 -0.3553154 -0.9347464
vn 0.1559241 -0.2671192 -0.9509653
vn 0.1559399 -0.2741239 0.9489672
vn 0.1559427 0.2671176 0.9509627
vn 0.1543441 0.2675582 0.9510996
vn -5.703169E-06 0.3621981 -0.9321012
vn 0.1543287 0.2745637 -0.9491035
vn 0.1543259 -0.26756 -0.9511021
vn 9.524313E-06 0.3553155 0.9347464
vn -0.1559398 0.2741239 -0.9489672
vn 0.1543412 -0.2745654 0.949101
vn 5.668113E-06 -0.3621981 0.9321012
vn -9.551267E-06 -0.3553155 -0.9347464
vn -0.1559429 -0.2671178 -0.9509625
vn -0.1559271 -0.2741223 0.9489698
vn -0.1559242 0.2671195 0.9509652
vn 0.7473807 0.5415805 0.384854
vn 8.101131E-06 -0.003686769 0.9999932
vn 0.2854794 0.877173 0.3860946
vn 0.9238092 -0.001416404 0.3828505
vn -0.2854641 0.8771757 0.3860996
vn 0.747375 -0.5444114 0.3808502
vn -0.7473688 0.5415884 0.3848661
vn 0.2854702 -0.8799989 0.3796165
vn -0.9238029 -0.001406679 0.3828658
vn -0.2854731 -0.8799958 0.3796214
vn -0.7473745 -0.5444036 0.3808623
g Lvl1RotorFront_0
f 3/3/3 2/2/2 1/1/1
f 4/4/4 3/3/3 1/1/1
f 4/4/4 5/5/5 3/3/3
f 5/5/5 6/6/6 3/3/3
f 9/9/9 8/8/8 7/7/7
f 10/10/10 9/9/9 7/7/7
f 11/11/11 9/9/9 10/10/10
f 12/12/12 11/11/11 10/10/10
f 15/15/15 14/14/14 13/13/13
f 16/16/16 15/15/15 13/13/13
f 17/17/17 15/15/15 16/16/16
f 18/18/18 17/17/17 16/16/16
f 21/21/21 20/20/20 19/19/19
f 22/22/22 21/21/21 19/19/19
f 23/23/23 21/21/21 22/22/22
f 24/24/24 23/23/23 22/22/22
f 25/25/25 23/23/23 24/24/24
f 26/26/26 25/25/25 24/24/24
f 27/27/27 25/25/25 26/26/26
f 28/28/28 27/27/27 26/26/26
f 29/29/29 27/27/27 28/28/28
f 30/30/30 29/29/29 28/28/28
f 33/33/33 32/32/32 31/31/31
f 34/34/34 33/33/33 31/31/31
f 37/37/37 36/36/36 35/35/35
f 36/36/36 38/38/38 35/35/35
f 39/39/39 38/38/38 36/36/36
f 40/40/40 39/39/39 36/36/36
f 43/43/43 42/42/42 41/41/41
f 41/41/41 42/42/42 44/44/44
f 45/45/45 43/43/43 41/41/41
f 46/46/46 43/43/43 45/45/45
f 47/47/47 41/41/41 44/44/44
f 45/45/45 41/41/41 47/47/47
f 48/48/48 47/47/47 44/44/44
f 48/48/48 45/45/45 47/47/47
f 49/49/49 48/48/48 44/44/44
f 49/49/49 50/50/50 48/48/48
f 50/50/50 51/51/51 48/48/48
f 50/50/50 46/46/46 51/51/51
f 48/48/48 51/51/51 45/45/45
f 46/46/46 52/52/52 51/51/51
f 52/52/52 46/46/46 45/45/45
f 51/51/51 52/52/52 45/45/45
f 55/55/55 54/54/54 53/53/53
f 55/55/55 53/53/53 56/56/56
f 54/54/54 57/57/57 53/53/53
f 54/54/54 58/58/58 57/57/57
f 53/53/53 59/59/59 56/56/56
f 53/53/53 57/57/57 59/59/59
f 59/59/59 60/60/60 56/56/56
f 57/57/57 60/60/60 59/59/59
f 60/60/60 61/61/61 56/56/56
f 62/62/62 61/61/61 60/60/60
f 63/63/63 62/62/62 60/60/60
f 58/58/58 62/62/62 63/63/63
f 63/63/63 60/60/60 57/57/57
f 64/64/64 58/58/58 63/63/63
f 58/58/58 64/64/64 57/57/57
f 64/64/64 63/63/63 57/57/57
f 67/67/67 66/66/66 65/65/65
f 65/65/65 66/66/66 68/68/68
f 69/69/69 66/66/66 67/67/67
f 68/68/68 66/66/66 70/70/70
f 71/71/71 66/66/66 69/69/69
f 70/70/70 66/66/66 72/72/72
f 73/73/73 66/66/66 71/71/71
f 72/72/72 66/66/66 74/74/74
f 75/75/75 66/66/66 73/73/73
f 74/74/74 66/66/66 75/75/75
