g Lvl3RotorFront
v -1.44952 19.91436 -0.736584
v 3.499197 11.22272 -0.7686665
v 1.449718 19.91435 -0.7366084
v -3.499092 11.22276 -0.7686104
v -1.449612 2.634226 -0.8002876
v 1.449626 2.634211 -0.8003145
v -1.449732 -19.90838 -0.8833955
v 1.449506 -19.90839 -0.8834199
v 3.499078 -11.21679 -0.8513936
v -3.499211 -11.21675 -0.8513374
v -1.44964 -2.628237 -0.8196919
v 1.449598 -2.628253 -0.8197139
v -1.449507 19.90839 0.8834208
v -3.499092 11.22276 -0.7686104
v -1.44952 19.91436 -0.736584
v 1.449718 19.91435 -0.7366084
v -3.499078 11.21679 0.851392
v -1.449612 2.634226 -0.8002876
v 1.449731 19.90838 0.8833964
v 3.499211 11.21675 0.8513359
v 3.499197 11.22272 -0.7686665
v 1.449626 2.634211 -0.8003145
v 1.44964 2.628239 0.8196904
v -1.449599 2.628255 0.8197123
v -1.449719 -19.91435 0.7366069
v -1.449732 -19.90838 -0.8833955
v -3.499211 -11.21675 -0.8513374
v 1.449506 -19.90839 -0.8834199
v -3.499198 -11.22272 0.7686675
v -1.44964 -2.628237 -0.8196919
v 1.44952 -19.91436 0.7365825
v 3.499091 -11.22276 0.7686064
v 3.499078 -11.21679 -0.8513936
v 1.449598 -2.628253 -0.8197139
v 1.449611 -2.634225 0.8002885
v -1.449627 -2.63421 0.8003129
vt 0.3893059 0.945519
vt 0.3079491 0.9743263
vt 0.3848325 0.970117
vt 0.3189132 0.9145832
vt 0.2438157 0.916864
vt 0.2375192 0.9456239
vt 0.2389007 0.9428615
vt 0.2423019 0.9676244
vt 0.3189045 0.9751614
vt 0.3105564 0.9150093
vt 0.3855036 0.9205721
vt 0.390465 0.9495801
vt 0.2519525 0.9452678
vt 0.312823 0.8908106
vt 0.239793 0.938251
vt 0.2460372 0.9809024
vt 0.3151186 0.9068156
vt 0.3926187 0.9076132
vt 0.2536777 0.9705628
vt 0.3261273 0.9784627
vt 0.3292488 0.9951029
vt 0.4013925 0.9404224
vt 0.3899651 0.9373512
vt 0.3848518 0.9163859
vt 0.3887682 0.9463371
vt 0.4009322 0.9391907
vt 0.3279634 0.8925315
vt 0.394638 0.9819037
vt 0.3256559 0.9085593
vt 0.2481216 0.9102342
vt 0.387015 0.9716455
vt 0.3145798 0.9803094
vt 0.3114346 0.9969777
vt 0.239409 0.9431592
vt 0.25082 0.9399415
vt 0.2559139 0.9189009
vn -0.2710706 0.1578381 -0.9495304
vn 0.3587515 0.00343928 -0.9334267
vn 0.2710565 0.1578352 -0.9495348
vn -0.3587667 0.003443151 -0.9334209
vn -0.270631 -0.1524288 -0.9505391
vn 0.2706138 -0.1524316 -0.9505433
vn -0.2710723 -0.1508298 -0.9506682
vn 0.2710548 -0.1508327 -0.9506729
vn 0.3587513 0.003439221 -0.9334269
vn -0.3587668 0.003443147 -0.9334208
vn -0.2706296 0.1594361 -0.9493892
vn 0.2706156 0.1594331 -0.9493937
vn -0.2710553 0.1508326 0.9506727
vn -0.3587667 0.003443151 -0.9334209
vn -0.2710706 0.1578381 -0.9495304
vn 0.2710565 0.1578352 -0.9495348
vn -0.3587516 -0.00343932 0.9334267
vn -0.270631 -0.1524288 -0.9505391
vn 0.2710721 0.1508298 0.9506683
vn 0.3587667 -0.003443199 0.9334209
vn 0.3587515 0.00343928 -0.9334267
vn 0.2706138 -0.1524316 -0.9505433
vn 0.2706294 -0.159436 0.9493892
vn -0.2706159 -0.1594331 0.9493936
vn -0.2710562 -0.1578351 0.9495349
vn -0.2710723 -0.1508298 -0.9506682
vn -0.3587668 0.003443147 -0.9334208
vn 0.2710548 -0.1508327 -0.9506729
vn -0.3587514 -0.003439342 0.9334269
vn -0.2706296 0.1594361 -0.9493892
vn 0.2710708 -0.1578379 0.9495304
vn 0.3587668 -0.003443104 0.9334208
vn 0.3587513 0.003439221 -0.9334269
vn 0.2706156 0.1594331 -0.9493937
vn 0.2706313 0.1524287 0.9505389
vn -0.270614 0.1524317 0.9505433
g Lvl3RotorFront_0
f 3/3/3 2/2/2 1/1/1
f 2/2/2 4/4/4 1/1/1
f 5/5/5 4/4/4 2/2/2
f 6/6/6 5/5/5 2/2/2
f 9/9/9 8/8/8 7/7/7
f 10/10/10 9/9/9 7/7/7
f 10/10/10 11/11/11 9/9/9
f 11/11/11 12/12/12 9/9/9
f 15/15/15 14/14/14 13/13/13
f 15/15/15 13/13/13 16/16/16
f 14/14/14 17/17/17 13/13/13
f 14/14/14 18/18/18 17/17/17
f 13/13/13 19/19/19 16/16/16
f 13/13/13 17/17/17 19/19/19
f 19/19/19 20/20/20 16/16/16
f 17/17/17 20/20/20 19/19/19
f 20/20/20 21/21/21 16/16/16
f 22/22/22 21/21/21 20/20/20
f 23/23/23 22/22/22 20/20/20
f 18/18/18 22/22/22 23/23/23
f 23/23/23 20/20/20 17/17/17
f 24/24/24 18/18/18 23/23/23
f 18/18/18 24/24/24 17/17/17
f 24/24/24 23/23/23 17/17/17
f 27/27/27 26/26/26 25/25/25
f 25/25/25 26/26/26 28/28/28
f 29/29/29 27/27/27 25/25/25
f 30/30/30 27/27/27 29/29/29
f 31/31/31 25/25/25 28/28/28
f 29/29/29 25/25/25 31/31/31
f 32/32/32 31/31/31 28/28/28
f 32/32/32 29/29/29 31/31/31
f 33/33/33 32/32/32 28/28/28
f 33/33/33 34/34/34 32/32/32
f 34/34/34 35/35/35 32/32/32
f 34/34/34 30/30/30 35/35/35
f 32/32/32 35/35/35 29/29/29
f 30/30/30 36/36/36 35/35/35
f 36/36/36 30/30/30 29/29/29
f 35/35/35 36/36/36 29/29/29
