g Lvl4EyeLhDamaged
v 20.79342 21.92142 23.16622
v 17.37994 19.51361 21.81286
v 20.32246 17.1407 18.54277
v 23.6708 19.60106 19.42911
v 23.46029 13.29642 22.19314
v 19.25586 21.87307 28.48231
v 15.80756 19.46416 27.24931
v 26.37411 16.16171 24.14022
v 24.73001 10.20687 21.58363
v 19.6454 19.47447 33.37194
v 16.20594 17.01126 32.24962
v 27.95867 12.84009 24.19965
v 26.12652 6.879478 24.96576
v 21.81327 15.64181 35.96743
v 18.42288 13.09182 34.90388
v 29.34636 9.567017 26.24932
v 24.55414 6.830046 30.40221
v 24.93141 11.83903 35.2774
v 21.61161 9.202948 34.19824
v 27.8088 9.518669 31.56541
v 20.27222 19.26453 32.87705
v 22.23583 15.79298 35.228
v 25.06018 12.3485 34.60298
v 27.66645 10.24677 31.24073
v 29.03426 10.31236 26.48318
v 27.70816 13.33764 25.11834
v 19.91937 21.43714 28.44812
v 26.32787 16.29815 24.41639
v 21.31207 21.48093 23.63291
v 23.91834 19.37919 20.04368
v 24.83957 12.48071 33.99063
v 27.24746 10.53895 30.88432
v 28.46053 10.6439 26.64394
v 27.21002 13.46112 25.68859
v 25.95081 16.18223 24.68499
v 23.78466 18.97621 20.54807
v 22.23022 15.66299 34.56807
v 21.37677 20.91796 23.8556
v 20.41608 18.87028 32.39608
v 20.09009 20.87749 28.30428
v 27.30221 12.11262 27.43643
v 26.36517 14.25125 26.7094
v 25.4985 16.24883 25.53244
v 23.97771 18.26714 22.73996
v 22.13479 19.75329 24.70634
v 21.15001 19.72232 28.11122
v 26.61062 11.82478 30.11751
v 21.39675 18.18847 31.24793
v 24.78305 13.29748 32.46708
v 22.78594 15.7331 32.90902
v 24.28496 16.35585 27.65009
v 23.56966 17.35374 26.66536
v 23.3273 16.61312 30.1473
v 22.68407 18.0601 26.95745
v 24.81863 15.21814 28.21503
v 22.04913 18.13268 28.79581
v 25.11147 14.24845 28.90814
v 22.07393 17.39783 30.46724
v 24.95048 13.9058 29.83568
v 22.76194 16.12491 31.38061
v 23.8624 14.78957 31.13004
vt 0.2017757 0.950674
vt 0.206403 0.9555764
vt 0.1558617 0.9949138
vt 0.1550113 0.9882187
vt 0.09186711 0.9970316
vt 0.2175156 0.8927987
vt 0.2241488 0.8940333
vt 0.09511742 0.991113
vt 0.03885341 0.961141
vt 0.1962407 0.8367229
vt 0.2023334 0.8338209
vt 0.04496127 0.9582579
vt 0.01705303 0.9009507
vt 0.1460692 0.8038607
vt 0.1492926 0.7979343
vt 0.0236912 0.9022006
vt 0.03478654 0.8394374
vt 0.08616544 0.8067805
vt 0.08529152 0.8000855
vt 0.03942729 0.8443449
vt 0.1888101 0.8426836
vt 0.1435602 0.8130489
vt 0.08953954 0.8156893
vt 0.04739387 0.8495687
vt 0.0332071 0.9017451
vt 0.05239281 0.9522972
vt 0.2080015 0.8932534
vt 0.0976271 0.9819227
vt 0.1938074 0.9454555
vt 0.1516394 0.9793074
vt 0.09209819 0.8224047
vt 0.05341177 0.853497
vt 0.04038472 0.9013866
vt 0.05798924 0.9477885
vt 0.09950502 0.9749858
vt 0.1490813 0.9725909
vt 0.1416811 0.8199837
vt 0.1877941 0.9415173
vt 0.1832139 0.8471906
vt 0.2008254 0.8936093
vt 0.05920658 0.9004704
vt 0.07268035 0.9359871
vt 0.1044565 0.9568037
vt 0.1424033 0.9549702
vt 0.1720338 0.9311839
vt 0.182008 0.894521
vt 0.06917909 0.8638166
vt 0.1685265 0.8589894
vt 0.09878948 0.8400199
vt 0.1367355 0.8381639
vt 0.1118788 0.9295231
vt 0.1323753 0.9285379
vt 0.1206131 0.8974902
vt 0.1483803 0.9156941
vt 0.09471832 0.9182747
vt 0.1537736 0.8958954
vt 0.08744691 0.8990887
vt 0.1464985 0.8767033
vt 0.09284131 0.8792925
vt 0.1293357 0.8654522
vt 0.1088416 0.8664448
vn -0.3277014 0.8670071 -0.3753805
vn -0.4227558 0.7996318 -0.4264581
vn 0.2452116 0.2193592 -0.9443266
vn 0.3662546 0.185786 -0.9117792
vn 0.5604958 -0.1015937 -0.8219022
vn -0.4947983 0.8542628 0.1594046
vn -0.5958022 0.7951825 0.112714
vn 0.6416264 -0.05902603 -0.7647428
vn 0.5897204 -0.07258252 -0.8043393
vn -0.4697602 0.5861981 0.6600736
vn -0.5793052 0.5246897 0.6237838
vn 0.647922 0.005862612 -0.7616841
vn 0.7184436 -0.639484 -0.2736768
vn -0.2048651 0.09777283 0.9738946
vn -0.3144198 0.02222454 0.9490238
vn 0.7827228 -0.5767201 -0.2339638
vn 0.48432 -0.7677682 0.4194831
vn 0.217554 -0.4139242 0.8839327
vn 0.121716 -0.5034694 0.8553969
vn 0.5701014 -0.6802506 0.4606988
vn 0.7171458 0.6390215 0.2781247
vn 0.7411735 0.594366 0.3120753
vn 0.7839163 0.5425456 0.3018602
vn 0.8153907 0.5164642 0.2615393
vn 0.8662987 0.4600361 0.194662
vn 0.836873 0.4748264 0.2723665
vn 0.7168178 0.655957 0.2364163
vn 0.5957848 0.6944879 0.4033944
vn 0.7334926 0.6491164 0.2015851
vn 0.7475213 0.6527551 0.1229745
vn 0.7514688 0.6468352 0.1299955
vn 0.7153853 0.6733851 0.1864842
vn 0.7006221 0.6300788 0.334857
vn 0.755578 0.4932351 0.4310696
vn 0.5951275 0.7050216 0.3857041
vn 0.6062349 0.6818397 0.4093578
vn 0.8031211 0.583816 0.1189758
vn 0.8192793 0.5097818 0.2624956
vn 0.8362259 0.5255085 0.1567395
vn 0.8411283 0.4963135 0.2148863
vn 0.798295 0.5211731 0.3018341
vn 0.7736496 0.5080672 0.3785949
vn 0.6722909 0.6780192 0.2971779
vn 0.6783315 0.7037886 0.2110641
vn 0.7405075 0.636444 0.2158418
vn 0.7583126 0.6083484 0.2342523
vn 0.7828993 0.567017 0.2560478
vn 0.7621331 0.601072 0.2405531
vn 0.7726814 0.5867263 0.2423136
vn 0.7664412 0.5949559 0.2420645
vn 0.6924474 0.6562572 0.2997382
vn 0.6541343 0.7137999 0.250196
vn 0.7097908 0.6149107 0.3436303
vn 0.7441612 0.6231973 0.2405189
vn 0.7663671 0.5174978 0.3806278
vn 0.769743 0.5978845 0.2236733
vn 0.7677052 0.5389749 0.3466044
vn 0.7772866 0.5894719 0.2198824
vn 0.7626777 0.5972781 0.2481562
vn 0.7847735 0.58236 0.2121022
vn 0.7767619 0.5901707 0.2198626
g Lvl4EyeLhDamaged_0
f 3/3/3 2/2/2 1/1/1
f 4/4/4 3/3/3 1/1/1
f 5/5/5 3/3/3 4/4/4
f 1/1/1 2/2/2 6/6/6
f 2/2/2 7/7/7 6/6/6
f 8/8/8 5/5/5 4/4/4
f 9/9/9 5/5/5 8/8/8
f 6/6/6 7/7/7 10/10/10
f 7/7/7 11/11/11 10/10/10
f 12/12/12 9/9/9 8/8/8
f 13/13/13 9/9/9 12/12/12
f 10/10/10 11/11/11 14/14/14
f 11/11/11 15/15/15 14/14/14
f 16/16/16 13/13/13 12/12/12
f 17/17/17 13/13/13 16/16/16
f 14/14/14 15/15/15 18/18/18
f 15/15/15 19/19/19 18/18/18
f 19/19/19 17/17/17 20/20/20
f 20/20/20 17/17/17 16/16/16
f 18/18/18 19/19/19 20/20/20
f 6/6/6 10/10/10 21/21/21
f 10/10/10 14/14/14 22/22/22
f 21/21/21 10/10/10 22/22/22
f 14/14/14 18/18/18 23/23/23
f 22/22/22 14/14/14 23/23/23
f 18/18/18 20/20/20 24/24/24
f 23/23/23 18/18/18 24/24/24
f 20/20/20 16/16/16 25/25/25
f 24/24/24 20/20/20 25/25/25
f 16/16/16 12/12/12 26/26/26
f 25/25/25 16/16/16 26/26/26
f 27/27/27 6/6/6 21/21/21
f 1/1/1 6/6/6 27/27/27
f 26/26/26 12/12/12 28/28/28
f 12/12/12 8/8/8 28/28/28
f 29/29/29 1/1/1 27/27/27
f 4/4/4 1/1/1 29/29/29
f 8/8/8 4/4/4 30/30/30
f 28/28/28 8/8/8 30/30/30
f 30/30/30 4/4/4 29/29/29
f 31/31/31 23/23/23 24/24/24
f 32/32/32 24/24/24 25/25/25
f 32/32/32 31/31/31 24/24/24
f 33/33/33 25/25/25 26/26/26
f 33/33/33 32/32/32 25/25/25
f 34/34/34 26/26/26 28/28/28
f 34/34/34 33/33/33 26/26/26
f 35/35/35 28/28/28 30/30/30
f 35/35/35 34/34/34 28/28/28
f 36/36/36 30/30/30 29/29/29
f 36/36/36 35/35/35 30/30/30
f 31/31/31 37/37/37 23/23/23
f 37/37/37 22/22/22 23/23/23
f 38/38/38 36/36/36 29/29/29
f 38/38/38 29/29/29 27/27/27
f 37/37/37 39/39/39 22/22/22
f 39/39/39 21/21/21 22/22/22
f 40/40/40 27/27/27 21/21/21
f 40/40/40 38/38/38 27/27/27
f 39/39/39 40/40/40 21/21/21
f 41/41/41 33/33/33 34/34/34
f 42/42/42 34/34/34 35/35/35
f 42/42/42 41/41/41 34/34/34
f 43/43/43 35/35/35 36/36/36
f 43/43/43 42/42/42 35/35/35
f 44/44/44 36/36/36 38/38/38
f 44/44/44 43/43/43 36/36/36
f 45/45/45 38/38/38 40/40/40
f 45/45/45 44/44/44 38/38/38
f 46/46/46 40/40/40 39/39/39
f 46/46/46 45/45/45 40/40/40
f 41/41/41 47/47/47 33/33/33
f 47/47/47 32/32/32 33/33/33
f 48/48/48 46/46/46 39/39/39
f 48/48/48 39/39/39 37/37/37
f 47/47/47 49/49/49 32/32/32
f 49/49/49 31/31/31 32/32/32
f 50/50/50 37/37/37 31/31/31
f 50/50/50 48/48/48 37/37/37
f 49/49/49 50/50/50 31/31/31
f 51/51/51 43/43/43 44/44/44
f 52/52/52 44/44/44 45/45/45
f 52/52/52 51/51/51 44/44/44
f 53/53/53 51/51/51 52/52/52
f 53/53/53 52/52/52 54/54/54
f 54/54/54 52/52/52 45/45/45
f 54/54/54 45/45/45 46/46/46
f 53/53/53 55/55/55 51/51/51
f 51/51/51 55/55/55 43/43/43
f 55/55/55 42/42/42 43/43/43
f 56/56/56 54/54/54 46/46/46
f 56/56/56 46/46/46 48/48/48
f 53/53/53 54/54/54 56/56/56
f 55/55/55 57/57/57 42/42/42
f 53/53/53 57/57/57 55/55/55
f 57/57/57 41/41/41 42/42/42
f 58/58/58 56/56/56 48/48/48
f 53/53/53 56/56/56 58/58/58
f 58/58/58 48/48/48 50/50/50
f 57/57/57 59/59/59 41/41/41
f 53/53/53 59/59/59 57/57/57
f 59/59/59 47/47/47 41/41/41
f 60/60/60 58/58/58 50/50/50
f 53/53/53 58/58/58 60/60/60
f 60/60/60 50/50/50 49/49/49
f 61/61/61 49/49/49 47/47/47
f 59/59/59 61/61/61 47/47/47
f 53/53/53 61/61/61 59/59/59
f 61/61/61 60/60/60 49/49/49
f 53/53/53 60/60/60 61/61/61
