g Lvl4EyeLh
v 20.79342 21.92142 23.16622
v 17.37994 19.51361 21.81286
v 20.32246 17.1407 18.01683
v 23.6708 19.60106 19.45423
v 23.5112 13.25183 17.31118
v 19.25586 21.87307 28.48231
v 15.80756 19.46416 27.24931
v 26.78894 15.79827 18.7642
v 25.72814 9.332388 19.96543
v 19.6454 19.47447 33.37194
v 16.20594 17.01126 32.24962
v 28.95681 11.96561 21.35969
v 26.12652 6.879478 24.96576
v 21.81327 15.64181 35.96743
v 18.42288 13.09182 34.90388
v 29.34636 9.567017 26.24932
v 24.55414 6.830046 30.40221
v 24.93141 11.83903 35.2774
v 21.61161 9.202948 34.19824
v 27.8088 9.518669 31.56541
v 20.27222 19.26453 32.87705
v 22.23583 15.79298 35.228
v 25.06018 12.3485 34.60298
v 27.66645 10.24677 31.24073
v 29.05915 10.29056 26.42553
v 28.7063 12.46316 21.9966
v 19.91937 21.43714 28.44812
v 26.74269 15.93471 19.64565
v 21.31207 21.48093 23.63291
v 23.91834 19.37919 20.27067
v 24.83957 12.48071 33.99063
v 27.24746 10.53895 30.88432
v 28.53415 10.57941 26.43565
v 28.20816 12.58663 22.34385
v 26.39401 15.79393 20.17186
v 23.78466 18.97621 20.7493
v 22.23022 15.66299 34.56807
v 21.37677 20.91796 23.8556
v 20.41608 18.87028 32.39608
v 20.09009 20.87749 28.30428
v 27.6128 11.8405 26.68102
v 27.3633 13.37677 23.54929
v 25.97482 15.83152 21.88692
v 23.97771 18.26714 22.32888
v 22.13479 19.75329 24.70634
v 21.15001 19.72232 28.11122
v 26.62802 11.80954 30.08589
v 21.3995 18.18606 31.24294
v 24.7851 13.29569 32.46336
v 22.78799 15.73131 32.90531
v 25.06532 15.67216 24.34722
v 23.98449 16.9903 24.5864
v 24.32543 15.73864 27.375
v 22.98711 17.7946 25.87309
v 25.81676 14.34365 25.24688
v 22.45415 17.77784 27.71578
v 25.95179 13.51223 26.94177
v 22.58917 16.94642 29.41066
v 25.41882 13.49548 28.78446
v 23.34062 15.61792 30.31033
v 24.42146 14.29977 30.07115
vt 0.2017757 0.950674
vt 0.206403 0.9555764
vt 0.1558617 0.9949138
vt 0.1550113 0.9882187
vt 0.09186711 0.9970316
vt 0.2175156 0.8927987
vt 0.2241488 0.8940333
vt 0.09511742 0.991113
vt 0.03885341 0.961141
vt 0.1962407 0.8367229
vt 0.2023334 0.8338209
vt 0.04496127 0.9582579
vt 0.01705303 0.9009507
vt 0.1460692 0.8038607
vt 0.1492926 0.7979343
vt 0.0236912 0.9022006
vt 0.03478654 0.8394374
vt 0.08616544 0.8067805
vt 0.08529152 0.8000855
vt 0.03942729 0.8443449
vt 0.1888101 0.8426836
vt 0.1435602 0.8130489
vt 0.08953954 0.8156893
vt 0.04739387 0.8495687
vt 0.0332071 0.9017451
vt 0.05239281 0.9522972
vt 0.2080015 0.8932534
vt 0.0976271 0.9819227
vt 0.1938074 0.9454555
vt 0.1516394 0.9793074
vt 0.09209819 0.8224047
vt 0.05341177 0.853497
vt 0.04038472 0.9013866
vt 0.05798924 0.9477885
vt 0.09950502 0.9749858
vt 0.1490813 0.9725909
vt 0.1416811 0.8199837
vt 0.1877941 0.9415173
vt 0.1832139 0.8471906
vt 0.2008254 0.8936093
vt 0.05920658 0.9004704
vt 0.07268035 0.9359871
vt 0.1044565 0.9568037
vt 0.1424033 0.9549702
vt 0.1720338 0.9311839
vt 0.182008 0.894521
vt 0.06917909 0.8638166
vt 0.1685265 0.8589894
vt 0.09878948 0.8400199
vt 0.1367355 0.8381639
vt 0.1118788 0.9295231
vt 0.1323753 0.9285379
vt 0.1206131 0.8974902
vt 0.1483803 0.9156941
vt 0.09471832 0.9182747
vt 0.1537736 0.8958954
vt 0.08744691 0.8990887
vt 0.1464985 0.8767033
vt 0.09284131 0.8792925
vt 0.1293357 0.8654522
vt 0.1088416 0.8664448
vn -0.313678 0.8770183 -0.3639298
vn -0.4080629 0.812501 -0.4163254
vn -0.04376149 0.547694 -0.8355336
vn 0.04907596 0.6192281 -0.7836759
vn 0.3807364 0.03712669 -0.923938
vn -0.4947983 0.8542628 0.1594046
vn -0.5958022 0.7951825 0.112714
vn 0.475342 0.1080565 -0.8731402
vn 0.6405751 -0.4597681 -0.6150421
vn -0.4697602 0.5861981 0.6600736
vn -0.5793052 0.5246897 0.6237838
vn 0.730437 -0.3881575 -0.5619569
vn 0.6630235 -0.7398518 -0.1141015
vn -0.2048651 0.09777283 0.9738946
vn -0.3144198 0.02222454 0.9490238
vn 0.7472399 -0.6614243 -0.06442358
vn 0.48432 -0.7677682 0.4194831
vn 0.217554 -0.4139242 0.8839327
vn 0.121716 -0.5034694 0.8553969
vn 0.5696784 -0.6806367 0.4606518
vn 0.7171458 0.6390215 0.2781247
vn 0.7411735 0.594366 0.3120753
vn 0.7839163 0.5425456 0.3018602
vn 0.8127211 0.5215179 0.2598145
vn 0.8229485 0.5239619 0.2195904
vn 0.8219563 0.5409623 0.1781786
vn 0.7168178 0.655957 0.2364163
vn 0.7978475 0.5851935 0.1448725
vn 0.7271544 0.6578072 0.196306
vn 0.7556337 0.6364223 0.1548685
vn 0.7514923 0.6468129 0.1299717
vn 0.7109656 0.6797054 0.1803572
vn 0.6932321 0.679338 0.2406847
vn 0.6982926 0.6504177 0.2989051
vn 0.7317702 0.592347 0.3371015
vn 0.7835035 0.5290049 0.3260002
vn 0.8030996 0.5838358 0.1190242
vn 0.8235835 0.495933 0.2752463
vn 0.8361983 0.5255393 0.1567827
vn 0.8411319 0.4963025 0.2148972
vn 0.7684721 0.597147 0.2299263
vn 0.7702088 0.5936608 0.2331209
vn 0.7721011 0.5916337 0.232012
vn 0.7724082 0.5910379 0.2325075
vn 0.7748345 0.5878776 0.2324469
vn 0.7769162 0.5869702 0.2277436
vn 0.7705858 0.5962066 0.225245
vn 0.7751701 0.5904833 0.2245902
vn 0.7730153 0.5930592 0.2252291
vn 0.7733011 0.592495 0.2257325
vn 0.7528746 0.5931789 0.2851645
vn 0.7796028 0.5602987 0.2797942
vn 0.7726938 0.5920489 0.2289597
vn 0.8012835 0.5416768 0.2540294
vn 0.7346238 0.6239957 0.2663777
vn 0.8110603 0.5414183 0.2214663
vn 0.7311534 0.6402881 0.2354694
vn 0.8076709 0.5579375 0.1907181
vn 0.7411121 0.6399626 0.2029796
vn 0.789693 0.5888479 0.1721716
vn 0.763037 0.6215135 0.1774697
g Lvl4EyeLh_0
f 3/3/3 2/2/2 1/1/1
f 4/4/4 3/3/3 1/1/1
f 5/5/5 3/3/3 4/4/4
f 1/1/1 2/2/2 6/6/6
f 2/2/2 7/7/7 6/6/6
f 8/8/8 5/5/5 4/4/4
f 9/9/9 5/5/5 8/8/8
f 6/6/6 7/7/7 10/10/10
f 7/7/7 11/11/11 10/10/10
f 12/12/12 9/9/9 8/8/8
f 13/13/13 9/9/9 12/12/12
f 10/10/10 11/11/11 14/14/14
f 11/11/11 15/15/15 14/14/14
f 16/16/16 13/13/13 12/12/12
f 17/17/17 13/13/13 16/16/16
f 14/14/14 15/15/15 18/18/18
f 15/15/15 19/19/19 18/18/18
f 19/19/19 17/17/17 20/20/20
f 20/20/20 17/17/17 16/16/16
f 18/18/18 19/19/19 20/20/20
f 6/6/6 10/10/10 21/21/21
f 10/10/10 14/14/14 22/22/22
f 21/21/21 10/10/10 22/22/22
f 14/14/14 18/18/18 23/23/23
f 22/22/22 14/14/14 23/23/23
f 18/18/18 20/20/20 24/24/24
f 23/23/23 18/18/18 24/24/24
f 20/20/20 16/16/16 25/25/25
f 24/24/24 20/20/20 25/25/25
f 16/16/16 12/12/12 26/26/26
f 25/25/25 16/16/16 26/26/26
f 27/27/27 6/6/6 21/21/21
f 1/1/1 6/6/6 27/27/27
f 26/26/26 12/12/12 28/28/28
f 12/12/12 8/8/8 28/28/28
f 29/29/29 1/1/1 27/27/27
f 4/4/4 1/1/1 29/29/29
f 8/8/8 4/4/4 30/30/30
f 28/28/28 8/8/8 30/30/30
f 30/30/30 4/4/4 29/29/29
f 31/31/31 23/23/23 24/24/24
f 32/32/32 24/24/24 25/25/25
f 32/32/32 31/31/31 24/24/24
f 33/33/33 25/25/25 26/26/26
f 33/33/33 32/32/32 25/25/25
f 34/34/34 26/26/26 28/28/28
f 34/34/34 33/33/33 26/26/26
f 35/35/35 28/28/28 30/30/30
f 35/35/35 34/34/34 28/28/28
f 36/36/36 30/30/30 29/29/29
f 36/36/36 35/35/35 30/30/30
f 31/31/31 37/37/37 23/23/23
f 37/37/37 22/22/22 23/23/23
f 38/38/38 36/36/36 29/29/29
f 38/38/38 29/29/29 27/27/27
f 37/37/37 39/39/39 22/22/22
f 39/39/39 21/21/21 22/22/22
f 40/40/40 27/27/27 21/21/21
f 40/40/40 38/38/38 27/27/27
f 39/39/39 40/40/40 21/21/21
f 41/41/41 33/33/33 34/34/34
f 42/42/42 34/34/34 35/35/35
f 42/42/42 41/41/41 34/34/34
f 43/43/43 35/35/35 36/36/36
f 43/43/43 42/42/42 35/35/35
f 44/44/44 36/36/36 38/38/38
f 44/44/44 43/43/43 36/36/36
f 45/45/45 38/38/38 40/40/40
f 45/45/45 44/44/44 38/38/38
f 46/46/46 40/40/40 39/39/39
f 46/46/46 45/45/45 40/40/40
f 41/41/41 47/47/47 33/33/33
f 47/47/47 32/32/32 33/33/33
f 48/48/48 46/46/46 39/39/39
f 48/48/48 39/39/39 37/37/37
f 47/47/47 49/49/49 32/32/32
f 49/49/49 31/31/31 32/32/32
f 50/50/50 37/37/37 31/31/31
f 50/50/50 48/48/48 37/37/37
f 49/49/49 50/50/50 31/31/31
f 51/51/51 43/43/43 44/44/44
f 52/52/52 44/44/44 45/45/45
f 52/52/52 51/51/51 44/44/44
f 53/53/53 51/51/51 52/52/52
f 53/53/53 52/52/52 54/54/54
f 54/54/54 52/52/52 45/45/45
f 54/54/54 45/45/45 46/46/46
f 53/53/53 55/55/55 51/51/51
f 51/51/51 55/55/55 43/43/43
f 55/55/55 42/42/42 43/43/43
f 56/56/56 54/54/54 46/46/46
f 56/56/56 46/46/46 48/48/48
f 53/53/53 54/54/54 56/56/56
f 55/55/55 57/57/57 42/42/42
f 53/53/53 57/57/57 55/55/55
f 57/57/57 41/41/41 42/42/42
f 58/58/58 56/56/56 48/48/48
f 53/53/53 56/56/56 58/58/58
f 58/58/58 48/48/48 50/50/50
f 57/57/57 59/59/59 41/41/41
f 53/53/53 59/59/59 57/57/57
f 59/59/59 47/47/47 41/41/41
f 60/60/60 58/58/58 50/50/50
f 53/53/53 58/58/58 60/60/60
f 60/60/60 50/50/50 49/49/49
f 61/61/61 49/49/49 47/47/47
f 59/59/59 61/61/61 47/47/47
f 53/53/53 61/61/61 59/59/59
f 61/61/61 60/60/60 49/49/49
f 53/53/53 60/60/60 61/61/61
