g LVL_1_Body
v -8.054348 16.70054 -8.772304
v -7.508986 16.70054 -9.3177
v -7.73708 16.70054 -9.098497
v 7.508986 16.70054 -9.3177
v 8.054348 16.70054 -8.772304
v 7.73708 16.70054 -9.098497
v -3.175198 16.74804 7.902081
v -2.91883 16.03943 7.801212
v -3.241499 16.69738 5.528558
v 3.16 16.69784 5.52529
v 2.910554 16.03943 7.801212
v 3.172354 16.74804 7.902081
v -6.445966 14.69193 -15.9391
v -6.445966 13.13667 -15.15141
v 6.901684 14.69193 -15.9391
v 6.901684 13.13667 -15.15141
v 6.901684 12.07721 -13.76692
v -6.445966 12.07721 -13.76692
v -6.445966 12.07721 -13.76692
v -6.445966 11.72337 -12.05985
v 6.901684 12.07721 -13.76692
v 6.901684 11.72337 -12.05985
v -6.445966 13.25926 -9.02733
v 6.901684 13.25926 -9.027328
v -6.445966 13.25926 -9.02733
v -6.445966 14.84479 -8.3025
v 6.901684 13.25926 -9.027328
v 6.901684 14.84479 -8.3025
v -6.445966 16.58779 -8.337393
v 6.901684 16.58779 -8.337393
v -6.445966 18.14305 -9.125089
v 6.901684 18.14305 -9.125088
v 6.901684 19.20251 -10.50958
v -6.445966 19.20251 -10.50958
v 6.901684 19.20251 -10.50958
v -6.445966 19.20251 -10.50958
v -6.445966 19.55635 -12.21665
v 6.901684 19.55635 -12.21665
v -6.445966 19.13448 -13.90819
v 6.901684 19.13448 -13.90819
v -6.445966 18.02046 -15.24917
v 6.901684 18.02046 -15.24917
v -6.445966 18.02046 -15.24917
v -6.445966 16.43493 -15.97399
v 6.901684 18.02046 -15.24917
v 6.901684 16.43493 -15.97399
v -6.445966 16.43493 -15.97399
v -6.445966 14.69193 -15.9391
v 6.901684 16.43493 -15.97399
v 6.901684 14.69193 -15.9391
v -8.054348 16.70054 5.526928
v -8.054348 16.23774 7.118995
v -8.054348 9.241716 7.881715
v -8.054348 9.107679 -9.520217
v -8.054348 16.70054 -8.772304
v -7.508986 16.70054 -9.3177
v -7.508986 9.103666 -10.06583
v 8.054348 9.241716 7.881715
v 8.054348 16.23774 7.118995
v 8.054348 16.70054 5.526928
v 8.054348 9.107679 -9.520217
v 8.054348 16.70054 -8.772304
v 7.508986 16.70054 -9.3177
v 7.508986 9.103666 -10.06583
v -7.508986 16.70054 -9.3177
v -7.508986 9.103666 -10.06583
v 7.508986 16.70054 -9.3177
v 7.508986 9.103666 -10.06583
v -2.979731 16.70054 5.526927
v -2.91883 16.03943 7.801212
v -7.508986 16.03943 7.801212
v -8.054348 16.70054 5.526928
v -8.054348 16.23774 7.118995
v -3.287692 16.70054 -0.5616739
v -8.054348 16.70054 -8.772304
v -3.287692 16.70054 -5.880034
v -7.73708 16.70054 -9.098497
v -7.508986 16.70054 -9.3177
v 3.287692 16.70054 -5.880034
v 7.508986 16.70054 -9.3177
v 7.73708 16.70054 -9.098497
v 8.054348 16.70054 -8.772304
v 3.287692 16.70054 -0.5616739
v 8.054348 16.70054 5.526928
v 2.899197 16.70101 5.52366
v 7.508986 16.03943 7.801212
v 8.054348 16.23774 7.118995
v 2.910554 16.03943 7.801212
v 2.889358 16.69783 5.525404
v 3.16 16.69784 5.52529
v -2.997754 16.69739 5.528469
v -3.241499 16.69738 5.528558
v -2.986079 16.74804 7.902081
v 2.937395 16.74804 7.902081
v -3.175209 16.76239 8.99504
v -3.175198 16.74804 7.902081
v 3.172343 16.76239 8.99504
v 3.172354 16.74804 7.902081
v 7.508986 16.03943 7.801212
v 8.054348 16.23774 7.118995
v 8.054348 9.241716 7.881715
v 7.508986 9.246182 8.489002
v 2.910554 16.03943 7.801212
v 2.910554 9.246182 8.489002
v 3.172343 9.919652 9.995555
v 3.172343 16.03943 9.090815
v 3.172354 16.74804 7.902081
v 3.172343 16.76239 8.99504
v -3.175209 16.03943 9.090815
v -3.175209 16.76239 8.99504
v -3.175198 16.74804 7.902081
v -2.91883 16.03943 7.801212
v -3.175209 9.919652 9.995555
v -2.91883 9.246182 8.489002
v -7.508986 16.03943 7.801212
v -7.508986 9.246182 8.489002
v -8.054348 9.241716 7.881715
v -8.054348 16.23774 7.118995
v -2.997754 16.69739 5.528469
v -2.986079 16.74804 7.902081
v -3.175198 16.74804 7.902081
v -3.241499 16.69738 5.528558
v 2.937395 16.74804 7.902081
v 2.889358 16.69783 5.525404
v 3.16 16.69784 5.52529
v 3.172354 16.74804 7.902081
v 6.23688 16.52809 -2.228721
v 4.748929 18.09847 -4.602559
v 4.978189 16.52809 -4.788488
v 2.733512 16.52809 -6.548633
v 5.949648 18.09847 -2.160678
v 2.607621 18.09847 -6.281647
v 6.260275 16.52809 0.6236722
v 5.971968 18.09847 0.560352
v -0.05257183 16.52809 -7.160542
v -0.0501518 18.09847 -6.865372
v -2.697996 18.09847 -6.238124
v -2.828245 16.52809 -6.503011
v 4.811468 18.09847 3.0216
v 5.043749 16.52809 3.203743
v 2.828247 16.52809 5.000473
v 2.697996 18.09847 4.735584
v -4.811468 18.09847 -4.524139
v -5.043749 16.52809 -4.706282
v 0.05257384 16.52809 5.658001
v 0.05015397 18.09847 5.362834
v -2.607624 18.09847 4.779106
v -2.733512 16.52809 5.046094
v -6.260275 16.52809 -2.126211
v -5.971966 18.09847 -2.06289
v -5.94965 18.09847 0.6581404
v -6.23688 16.52809 0.7261841
v -4.748929 18.09847 3.100021
v -4.978189 16.52809 3.285948
v -6.434789 15.63986 -12.13825
v -6.445966 13.13667 -15.15141
v -6.445966 14.69193 -15.9391
v -6.445966 12.07721 -13.76692
v -6.445966 16.43493 -15.97399
v -6.445966 11.72337 -12.05985
v -6.445966 18.02046 -15.24917
v -6.445966 13.25926 -9.02733
v -6.445966 19.13448 -13.90819
v -6.445966 14.84479 -8.3025
v -6.445966 19.55635 -12.21665
v -6.445966 16.58779 -8.337393
v -6.445966 19.20251 -10.50958
v -6.445966 18.14305 -9.125089
v 6.858492 15.63986 -12.13825
v 6.901684 14.69193 -15.9391
v 6.901684 13.13667 -15.15141
v 6.901684 12.07721 -13.76692
v 6.901684 16.43493 -15.97399
v 6.901684 11.72337 -12.05985
v 6.901684 18.02046 -15.24917
v 6.901684 13.25926 -9.027328
v 6.901684 19.13448 -13.90819
v 6.901684 14.84479 -8.3025
v 6.901684 19.55635 -12.21665
v 6.901684 16.58779 -8.337393
v 6.901684 19.20251 -10.50958
v 6.901684 18.14305 -9.125088
v 5.949648 18.09847 -2.160678
v 0 18.42687 -0.7512683
v 4.748929 18.09847 -4.602559
v 5.971968 18.09847 0.560352
v 2.607621 18.09847 -6.281647
v 4.811468 18.09847 3.0216
v -0.0501518 18.09847 -6.865372
v 2.697996 18.09847 4.735584
v -2.697996 18.09847 -6.238124
v 0.05015397 18.09847 5.362834
v -4.811468 18.09847 -4.524139
v -2.607624 18.09847 4.779106
v -5.971966 18.09847 -2.06289
v -4.748929 18.09847 3.100021
v -5.94965 18.09847 0.6581404
vt 0.05689484 0.9762126
vt 0.06627503 0.9870725
vt 0.06235185 0.9827077
vt 0.3245839 0.9870725
vt 0.333964 0.9762126
vt 0.328507 0.9827077
vt 0.4556738 0.764904
vt 0.4660323 0.7667755
vt 0.4564688 0.8089408
vt 0.4564177 0.808971
vt 0.4660323 0.7667452
vt 0.4556738 0.7648737
vt 0.850348 0.4575675
vt 0.8476188 0.4575675
vt 0.850348 0.1993576
vt 0.8476189 0.1993576
vt 0.8451893 0.1993576
vt 0.8451893 0.4575675
vt 0.8663304 0.4575675
vt 0.8945709 0.4575675
vt 0.8663304 0.1993576
vt 0.8945709 0.1993576
vt 0.9447391 0.4575675
vt 0.9447391 0.1993576
vt 0.9447106 0.4575675
vt 0.9184805 0.4575675
vt 0.9447106 0.1993576
vt 0.9184805 0.1993576
vt 0.8896454 0.4575675
vt 0.8896453 0.1993576
vt 0.8639163 0.4575675
vt 0.8639161 0.1993576
vt 0.8410119 0.1993576
vt 0.8410122 0.4575675
vt 0.8659071 0.1993576
vt 0.8659066 0.4575675
vt 0.8941474 0.4575675
vt 0.8941474 0.1993577
vt 0.9221309 0.4575675
vt 0.9221315 0.1993577
vt 0.9443157 0.4575676
vt 0.9443157 0.1993577
vt 0.8444228 0.4575675
vt 0.8416405 0.4575675
vt 0.8444228 0.1993576
vt 0.8416405 0.1993576
vt 0.8416405 0.4575675
vt 0.850348 0.4575675
vt 0.8416405 0.1993576
vt 0.850348 0.1993576
vt 0.6745447 0.60913
vt 0.692236 0.6024921
vt 0.7194535 0.5173643
vt 0.5192602 0.5173795
vt 0.5175983 0.5988414
vt 0.5116122 0.5984489
vt 0.5132661 0.51738
vt 0.7194499 0.5177594
vt 0.6922327 0.6028872
vt 0.674541 0.6095252
vt 0.5192565 0.5177747
vt 0.5175945 0.5992365
vt 0.5116084 0.5988441
vt 0.5132623 0.5177752
vt 0.4833676 0.9784491
vt 0.3770527 0.9784492
vt 0.4833676 0.6547966
vt 0.3770527 0.6547966
vt 0.1351663 0.6914878
vt 0.1364002 0.6462027
vt 0.06627502 0.6462027
vt 0.05689484 0.6914878
vt 0.05689484 0.6597868
vt 0.1178251 0.7930074
vt 0.05689484 0.9762126
vt 0.1178251 0.9383379
vt 0.06235185 0.9827077
vt 0.06627503 0.9870725
vt 0.2730338 0.9383379
vt 0.3245839 0.9870725
vt 0.328507 0.9827077
vt 0.333964 0.9762126
vt 0.2730338 0.7930074
vt 0.333964 0.6914878
vt 0.2559053 0.6914878
vt 0.3245839 0.6462027
vt 0.333964 0.6597868
vt 0.2545027 0.6462027
vt 0.2517068 0.6914878
vt 0.2598411 0.6914878
vt 0.138464 0.6914878
vt 0.1351663 0.6914878
vt 0.1419868 0.6462027
vt 0.2492862 0.6462027
vt 0.1392465 0.626867
vt 0.1369542 0.6462027
vt 0.251656 0.6268672
vt 0.2539487 0.6462027
vt 0.4879758 0.6547966
vt 0.4879758 0.6430435
vt 0.3857982 0.6430435
vt 0.3805233 0.6547965
vt 0.4879758 0.742606
vt 0.3805233 0.742606
vt 0.3805233 0.742606
vt 0.4879758 0.742606
vt 0.4903543 0.742606
vt 0.4903543 0.742606
vt 0.4879758 0.8905846
vt 0.4903543 0.8905846
vt 0.4903543 0.8905846
vt 0.4879758 0.8905846
vt 0.3805233 0.8905846
vt 0.3805233 0.8905846
vt 0.4879758 0.9784492
vt 0.3805233 0.9784491
vt 0.3857982 0.9902022
vt 0.4879758 0.9902022
vt 0.140836 0.6461835
vt 0.1415125 0.6358228
vt 0.1393891 0.6358228
vt 0.1376757 0.6461835
vt 0.2491434 0.6358228
vt 0.2493634 0.6461835
vt 0.2573229 0.6461835
vt 0.2554478 0.6358228
vt 0.8074675 0.9225783
vt 0.7656045 0.9372505
vt 0.7806869 0.9561614
vt 0.7419863 0.9747987
vt 0.7856739 0.9120833
vt 0.7366035 0.9512164
vt 0.8170258 0.8807017
vt 0.7928368 0.8807017
vt 0.6990321 0.9747987
vt 0.7044147 0.9512164
vt 0.6754138 0.9372505
vt 0.6603314 0.9561614
vt 0.7856739 0.8493202
vt 0.8074665 0.8388248
vt 0.7806858 0.8052421
vt 0.7656045 0.824154
vt 0.6553434 0.9120843
vt 0.6335497 0.9225796
vt 0.7419852 0.7866055
vt 0.7366025 0.8101882
vt 0.7044137 0.8101882
vt 0.6990311 0.7866055
vt 0.6239914 0.8807027
vt 0.6481805 0.8807027
vt 0.6553434 0.8493213
vt 0.6335497 0.8388258
vt 0.6754128 0.824155
vt 0.6603304 0.8052432
vt 0.8904552 0.524084
vt 0.8406073 0.4826728
vt 0.8275762 0.5084019
vt 0.8635113 0.4651457
vt 0.8269989 0.537237
vt 0.8917521 0.4592919
vt 0.8389901 0.5634671
vt 0.9419202 0.4847008
vt 0.8611745 0.5818968
vt 0.9539112 0.5109308
vt 0.8891581 0.5888761
vt 0.953334 0.5397661
vt 0.9173987 0.5830224
vt 0.940303 0.5654951
vt 0.8908911 0.524084
vt 0.9537699 0.5084019
vt 0.940739 0.4826728
vt 0.9178346 0.4651457
vt 0.9543471 0.537237
vt 0.8895943 0.4592919
vt 0.9423562 0.5634671
vt 0.8394259 0.4847008
vt 0.9201717 0.5818968
vt 0.8274349 0.5109308
vt 0.892188 0.5888761
vt 0.8280121 0.5397661
vt 0.8639474 0.5830224
vt 0.8410431 0.5654951
vt 0.7778347 0.906625
vt 0.7220845 0.8797781
vt 0.7606647 0.9281563
vt 0.7839628 0.8797772
vt 0.7358536 0.9401045
vt 0.7778347 0.8529294
vt 0.7083153 0.9401045
vt 0.7606647 0.831399
vt 0.6835041 0.9281563
vt 0.7358527 0.8194508
vt 0.6663333 0.9066259
vt 0.7083143 0.8194508
vt 0.6602052 0.8797781
vt 0.6835033 0.8314
vt 0.6663333 0.8529304
vn -0.6150397 0.7463339 -0.2543853
vn -0.3945683 0.6256597 -0.6729531
vn 0 1 0
vn 0.3601802 0.3408376 -0.8683892
vn 0.6150397 0.7463339 -0.2543853
vn 0 1 0
vn -0.7733129 0.6315535 -0.05592237
vn -0.9764819 0.09179705 0.1950805
vn -0.5502834 0.6414189 0.5345744
vn 0.3789459 0.8613657 0.3383033
vn 0.9071558 0.107038 0.4069537
vn 0.9042234 0.4213614 -0.06953062
vn -0.5640947 -0.1383369 -0.8140393
vn -0.4568712 -0.5684231 -0.684225
vn 0.5662189 -0.2600052 -0.7821723
vn 0.7199601 -0.4434849 -0.5338339
vn 0.458371 -0.8083031 -0.369516
vn -0.7170461 -0.6339253 -0.2897991
vn -0.7170461 -0.6339253 -0.2897991
vn -0.5750807 -0.8179941 0.01295554
vn 0.458371 -0.8083031 -0.369516
vn 0.5772816 -0.7913362 0.2013279
vn -0.5750828 -0.6314253 0.5201747
vn 0.5772715 -0.4930303 0.6509061
vn -0.5750828 -0.6314253 0.5201747
vn -0.5640948 -0.2285614 0.7934461
vn 0.5772715 -0.4930303 0.6509061
vn 0.5662189 -0.1051146 0.8175249
vn -0.5640946 0.1383383 0.8140392
vn 0.5662188 0.260006 0.7821721
vn -0.4568711 0.568422 0.684226
vn 0.7199599 0.4434842 0.5338348
vn 0.4583712 0.8083029 0.3695162
vn -0.7170464 0.633925 0.2897993
vn 0.4583712 0.8083029 0.3695162
vn -0.7170464 0.633925 0.2897993
vn -0.5640947 0.8244126 0.04627171
vn 0.5662188 0.8204182 -0.07943674
vn -0.5640948 0.7628467 -0.3160096
vn 0.5662189 0.7047048 -0.4275364
vn -0.5640948 0.5501891 -0.6157022
vn 0.5662189 0.4494152 -0.6909574
vn -0.5640948 0.5501891 -0.6157022
vn -0.5640945 0.22856 -0.7934467
vn 0.5662189 0.4494152 -0.6909574
vn 0.5662187 0.1051149 -0.817525
vn -0.5640945 0.22856 -0.7934467
vn -0.5640947 -0.1383369 -0.8140393
vn 0.5662187 0.1051149 -0.817525
vn 0.5662189 -0.2600052 -0.7821723
vn -0.6038527 0.7891353 0.1123717
vn -0.7891977 0.4592029 0.4077986
vn -0.9370577 0.03647684 0.3472638
vn -0.9234076 0.03762065 -0.3819729
vn -0.6150397 0.7463339 -0.2543853
vn -0.3945683 0.6256597 -0.6729531
vn -0.2519651 0.09484254 -0.9630776
vn 0.9370577 0.03647683 0.3472638
vn 0.7891976 0.4592029 0.4077986
vn 0.6038534 0.7891374 0.1123536
vn 0.9234076 0.03762065 -0.3819729
vn 0.6150397 0.7463339 -0.2543853
vn 0.3601802 0.3408376 -0.8683892
vn 0.3815076 0.09059203 -0.9199158
vn -0.3945683 0.6256597 -0.6729531
vn -0.2519651 0.09484254 -0.9630776
vn 0.3601802 0.3408376 -0.8683892
vn 0.3815076 0.09059203 -0.9199158
vn 0.0001795848 0.8525328 0.5226738
vn -0.9764819 0.09179705 0.1950805
vn -0.2774524 0.5907179 0.7576757
vn -0.6038527 0.7891353 0.1123717
vn -0.7891977 0.4592029 0.4077986
vn -1.582176E-05 1 -1.448527E-05
vn -0.6150397 0.7463339 -0.2543853
vn 0 1 0
vn 0 1 0
vn -0.3945683 0.6256597 -0.6729531
vn 0 1 0
vn 0.3601802 0.3408376 -0.8683892
vn 0 1 0
vn 0.6150397 0.7463339 -0.2543853
vn 2.256572E-05 1 -3.677321E-05
vn 0.6038534 0.7891374 0.1123536
vn 0.0001124459 0.9306032 0.3660294
vn 0.3235805 0.6674222 0.6707035
vn 0.7891976 0.4592029 0.4077986
vn 0.9071558 0.107038 0.4069537
vn 0.0002102843 0.8615317 0.5077037
vn 0.3789459 0.8613657 0.3383033
vn 0.0001395707 0.9127234 0.4085779
vn -0.5502834 0.6414189 0.5345744
vn -1.702315E-05 0.9998378 -0.01801175
vn -1.124495E-05 0.9998534 -0.01712739
vn -0.2922311 0.9149952 0.2781813
vn -0.7733129 0.6315535 -0.05592237
vn 0.3170787 0.7173852 0.6203381
vn 0.9042234 0.4213614 -0.06953062
vn 0.3235805 0.6674222 0.6707035
vn 0.7891976 0.4592029 0.4077986
vn 0.9370577 0.03647683 0.3472638
vn 0.2679701 0.09704722 0.958527
vn 0.9071558 0.107038 0.4069537
vn 0.3804942 -0.6719095 0.6354225
vn 0.6781179 -0.2298791 0.6980772
vn 0.8769221 -0.02061981 0.4801899
vn 0.9042234 0.4213614 -0.06953062
vn 0.3170787 0.7173852 0.6203381
vn -0.6303106 0.04662598 0.7749417
vn -0.2922311 0.9149952 0.2781813
vn -0.7733129 0.6315535 -0.05592237
vn -0.9764819 0.09179705 0.1950805
vn -0.6576999 -0.5766036 0.4847259
vn -0.3868199 -0.2852482 0.8769286
vn -0.2774524 0.5907179 0.7576757
vn -0.4063475 0.09204002 0.9090711
vn -0.9370577 0.03647684 0.3472638
vn -0.7891977 0.4592029 0.4077986
vn 0.0001395707 0.9127234 0.4085779
vn -1.702315E-05 0.9998378 -0.01801175
vn -0.7733129 0.6315535 -0.05592237
vn -0.5502834 0.6414189 0.5345744
vn -1.124495E-05 0.9998534 -0.01712739
vn 0.0002102843 0.8615317 0.5077037
vn 0.3789459 0.8613657 0.3383033
vn 0.9042234 0.4213614 -0.06953062
vn 0.9364725 0.184218 -0.2984676
vn 0.6394874 0.5675359 -0.5186122
vn 0.7633233 0.184731 -0.6190412
vn 0.485415 0.1842166 -0.8546557
vn 0.7529759 0.6468202 -0.1210406
vn 0.2739205 0.6468195 -0.7117527
vn 0.9599101 0.1847315 0.2108246
vn 0.6364524 0.7585439 0.1397836
vn -0.008061282 0.1847312 -0.982756
vn -0.005344998 0.7585441 -0.6515997
vn -0.2855595 0.6468195 -0.7071635
vn -0.4993695 0.1842168 -0.8465781
vn 0.647909 0.5675359 0.5080521
vn 0.7733758 0.1847312 0.6064357
vn 0.4993693 0.1842177 0.8465779
vn 0.2855594 0.6468197 0.7071634
vn -0.647909 0.5675359 -0.508052
vn -0.7733755 0.1847315 -0.6064358
vn 0.008061434 0.1847309 0.982756
vn 0.005345157 0.7585437 0.6516002
vn -0.2739203 0.6468194 0.7117529
vn -0.4854148 0.1842166 0.854656
vn -0.95991 0.1847318 -0.2108247
vn -0.636452 0.7585443 -0.1397838
vn -0.7529762 0.64682 0.1210404
vn -0.9364726 0.1842169 0.2984681
vn -0.6394876 0.5675355 0.5186126
vn -0.7633234 0.1847301 0.6190413
vn -1 -0.0001742839 8.827133E-05
vn -0.4568712 -0.5684231 -0.684225
vn -0.5640947 -0.1383369 -0.8140393
vn -0.7170461 -0.6339253 -0.2897991
vn -0.5640945 0.22856 -0.7934467
vn -0.5750807 -0.8179941 0.01295554
vn -0.5640948 0.5501891 -0.6157022
vn -0.5750828 -0.6314253 0.5201747
vn -0.5640948 0.7628467 -0.3160096
vn -0.5640948 -0.2285614 0.7934461
vn -0.5640947 0.8244126 0.04627171
vn -0.5640946 0.1383383 0.8140392
vn -0.7170464 0.633925 0.2897993
vn -0.4568711 0.568422 0.684226
vn 0.9999998 -0.000673476 0.0003411026
vn 0.5662189 -0.2600052 -0.7821723
vn 0.7199601 -0.4434849 -0.5338339
vn 0.458371 -0.8083031 -0.369516
vn 0.5662187 0.1051149 -0.817525
vn 0.5772816 -0.7913362 0.2013279
vn 0.5662189 0.4494152 -0.6909574
vn 0.5772715 -0.4930303 0.6509061
vn 0.5662189 0.7047048 -0.4275364
vn 0.5662189 -0.1051146 0.8175249
vn 0.5662188 0.8204182 -0.07943674
vn 0.5662188 0.260006 0.7821721
vn 0.4583712 0.8083029 0.3695162
vn 0.7199599 0.4434842 0.5338348
vn 0.7529759 0.6468202 -0.1210406
vn 0 1 0
vn 0.6394874 0.5675359 -0.5186122
vn 0.6364524 0.7585439 0.1397836
vn 0.2739205 0.6468195 -0.7117527
vn 0.647909 0.5675359 0.5080521
vn -0.005344998 0.7585441 -0.6515997
vn 0.2855594 0.6468197 0.7071634
vn -0.2855595 0.6468195 -0.7071635
vn 0.005345157 0.7585437 0.6516002
vn -0.647909 0.5675359 -0.508052
vn -0.2739203 0.6468194 0.7117529
vn -0.636452 0.7585443 -0.1397838
vn -0.6394876 0.5675355 0.5186126
vn -0.7529762 0.64682 0.1210404
g LVL_1_Body_0
f 3/3/3 2/2/2 1/1/1
f 6/6/6 5/5/5 4/4/4
f 9/9/9 8/8/8 7/7/7
f 12/12/12 11/11/11 10/10/10
f 15/15/15 14/14/14 13/13/13
f 14/14/14 15/15/15 16/16/16
f 14/14/14 16/16/16 17/17/17
f 18/18/18 14/14/14 17/17/17
f 21/21/21 20/20/20 19/19/19
f 20/20/20 21/21/21 22/22/22
f 23/23/23 20/20/20 22/22/22
f 22/22/22 24/24/24 23/23/23
f 27/27/27 26/26/26 25/25/25
f 26/26/26 27/27/27 28/28/28
f 28/28/28 29/29/29 26/26/26
f 29/29/29 28/28/28 30/30/30
f 30/30/30 31/31/31 29/29/29
f 31/31/31 30/30/30 32/32/32
f 31/31/31 32/32/32 33/33/33
f 33/33/33 34/34/34 31/31/31
f 37/37/37 36/36/36 35/35/35
f 35/35/35 38/38/38 37/37/37
f 39/39/39 37/37/37 38/38/38
f 38/38/38 40/40/40 39/39/39
f 41/41/41 39/39/39 40/40/40
f 40/40/40 42/42/42 41/41/41
f 45/45/45 44/44/44 43/43/43
f 44/44/44 45/45/45 46/46/46
f 49/49/49 48/48/48 47/47/47
f 48/48/48 49/49/49 50/50/50
f 53/53/53 52/52/52 51/51/51
f 51/51/51 54/54/54 53/53/53
f 51/51/51 55/55/55 54/54/54
f 54/54/54 55/55/55 56/56/56
f 56/56/56 57/57/57 54/54/54
f 60/60/60 59/59/59 58/58/58
f 58/58/58 61/61/61 60/60/60
f 61/61/61 62/62/62 60/60/60
f 63/63/63 62/62/62 61/61/61
f 63/63/63 61/61/61 64/64/64
f 67/67/67 66/66/66 65/65/65
f 66/66/66 67/67/67 68/68/68
f 71/71/71 70/70/70 69/69/69
f 71/71/71 69/69/69 72/72/72
f 72/72/72 73/73/73 71/71/71
f 72/72/72 69/69/69 74/74/74
f 75/75/75 72/72/72 74/74/74
f 75/75/75 74/74/74 76/76/76
f 76/76/76 77/77/77 75/75/75
f 78/78/78 77/77/77 76/76/76
f 76/76/76 79/79/79 78/78/78
f 78/78/78 79/79/79 80/80/80
f 79/79/79 81/81/81 80/80/80
f 82/82/82 81/81/81 79/79/79
f 82/82/82 79/79/79 83/83/83
f 83/83/83 84/84/84 82/82/82
f 83/83/83 74/74/74 85/85/85
f 85/85/85 84/84/84 83/83/83
f 74/74/74 69/69/69 85/85/85
f 84/84/84 85/85/85 86/86/86
f 86/86/86 87/87/87 84/84/84
f 85/85/85 88/88/88 86/86/86
f 69/69/69 89/89/89 85/85/85
f 90/90/90 85/85/85 89/89/89
f 89/89/89 69/69/69 91/91/91
f 92/92/92 91/91/91 69/69/69
f 89/89/89 91/91/91 93/93/93
f 93/93/93 94/94/94 89/89/89
f 94/94/94 93/93/93 95/95/95
f 93/93/93 96/96/96 95/95/95
f 95/95/95 97/97/97 94/94/94
f 98/98/98 94/94/94 97/97/97
f 101/101/101 100/100/100 99/99/99
f 99/99/99 102/102/102 101/101/101
f 103/103/103 102/102/102 99/99/99
f 104/104/104 102/102/102 103/103/103
f 105/105/105 104/104/104 103/103/103
f 103/103/103 106/106/106 105/105/105
f 103/103/103 107/107/107 106/106/106
f 106/106/106 107/107/107 108/108/108
f 109/109/109 106/106/106 108/108/108
f 109/109/109 105/105/105 106/106/106
f 110/110/110 109/109/109 108/108/108
f 109/109/109 110/110/110 111/111/111
f 111/111/111 112/112/112 109/109/109
f 104/104/104 105/105/105 113/113/113
f 113/113/113 105/105/105 109/109/109
f 109/109/109 112/112/112 113/113/113
f 113/113/113 114/114/114 104/104/104
f 114/114/114 113/113/113 112/112/112
f 115/115/115 114/114/114 112/112/112
f 116/116/116 114/114/114 115/115/115
f 117/117/117 116/116/116 115/115/115
f 117/117/117 115/115/115 118/118/118
f 121/121/121 120/120/120 119/119/119
f 119/119/119 122/122/122 121/121/121
f 125/125/125 124/124/124 123/123/123
f 123/123/123 126/126/126 125/125/125
f 129/129/129 128/128/128 127/127/127
f 128/128/128 129/129/129 130/130/130
f 127/127/127 128/128/128 131/131/131
f 130/130/130 132/132/132 128/128/128
f 127/127/127 131/131/131 133/133/133
f 134/134/134 133/133/133 131/131/131
f 132/132/132 130/130/130 135/135/135
f 135/135/135 136/136/136 132/132/132
f 137/137/137 136/136/136 135/135/135
f 137/137/137 135/135/135 138/138/138
f 133/133/133 134/134/134 139/139/139
f 139/139/139 140/140/140 133/133/133
f 141/141/141 140/140/140 139/139/139
f 142/142/142 141/141/141 139/139/139
f 143/143/143 137/137/137 138/138/138
f 143/143/143 138/138/138 144/144/144
f 145/145/145 141/141/141 142/142/142
f 146/146/146 145/145/145 142/142/142
f 145/145/145 146/146/146 147/147/147
f 147/147/147 148/148/148 145/145/145
f 143/143/143 144/144/144 149/149/149
f 149/149/149 150/150/150 143/143/143
f 151/151/151 150/150/150 149/149/149
f 149/149/149 152/152/152 151/151/151
f 148/148/148 147/147/147 153/153/153
f 153/153/153 151/151/151 152/152/152
f 153/153/153 154/154/154 148/148/148
f 152/152/152 154/154/154 153/153/153
f 157/157/157 156/156/156 155/155/155
f 156/156/156 158/158/158 155/155/155
f 159/159/159 157/157/157 155/155/155
f 158/158/158 160/160/160 155/155/155
f 161/161/161 159/159/159 155/155/155
f 160/160/160 162/162/162 155/155/155
f 163/163/163 161/161/161 155/155/155
f 162/162/162 164/164/164 155/155/155
f 165/165/165 163/163/163 155/155/155
f 164/164/164 166/166/166 155/155/155
f 167/167/167 165/165/165 155/155/155
f 166/166/166 168/168/168 155/155/155
f 168/168/168 167/167/167 155/155/155
f 171/171/171 170/170/170 169/169/169
f 172/172/172 171/171/171 169/169/169
f 170/170/170 173/173/173 169/169/169
f 174/174/174 172/172/172 169/169/169
f 173/173/173 175/175/175 169/169/169
f 174/174/174 169/169/169 176/176/176
f 175/175/175 177/177/177 169/169/169
f 178/178/178 176/176/176 169/169/169
f 177/177/177 179/179/179 169/169/169
f 180/180/180 178/178/178 169/169/169
f 179/179/179 181/181/181 169/169/169
f 182/182/182 180/180/180 169/169/169
f 181/181/181 182/182/182 169/169/169
f 185/185/185 184/184/184 183/183/183
f 183/183/183 184/184/184 186/186/186
f 187/187/187 184/184/184 185/185/185
f 186/186/186 184/184/184 188/188/188
f 189/189/189 184/184/184 187/187/187
f 188/188/188 184/184/184 190/190/190
f 191/191/191 184/184/184 189/189/189
f 190/190/190 184/184/184 192/192/192
f 193/193/193 184/184/184 191/191/191
f 192/192/192 184/184/184 194/194/194
f 195/195/195 184/184/184 193/193/193
f 194/194/194 184/184/184 196/196/196
f 197/197/197 184/184/184 195/195/195
f 196/196/196 184/184/184 197/197/197
