g LVL_10_Cannon
v 1.428725 16.79167 17.7332
v 1.001794E-14 17.11242 17.69439
v 1.424071 15.4696 6.496448
v -1.129159E-07 15.78874 6.458144
v -1.42407 15.4696 6.496448
v -1.428724 16.79167 17.7332
v -1.428724 16.79167 17.7332
v -2.574473 15.89294 17.84196
v -2.561836 14.57867 6.603406
v -1.42407 15.4696 6.496448
v -3.190401 13.29693 6.757339
v -2.561836 14.57867 6.603406
v -2.574473 15.89294 17.84196
v -3.210316 14.59425 17.99911
v -3.190408 11.87705 6.927905
v -3.210316 13.15281 18.17353
v -2.561852 10.59531 7.081892
v -3.190408 11.87705 6.927905
v -3.210316 13.15281 18.17353
v -2.574474 11.85411 18.33069
v -1.424084 9.704363 7.188926
v -1.428725 10.95539 18.43945
v 9.604753E-09 9.385223 7.227258
v 8.776667E-15 10.63463 18.47826
v 1.428725 10.95539 18.43945
v 1.424082 9.704363 7.188926
v 2.574473 11.85411 18.33069
v 2.561851 10.5953 7.081892
v 3.210316 13.15281 18.17353
v 3.190408 11.87705 6.927907
v 3.210316 13.15281 18.17353
v 3.210316 14.59425 17.99911
v 3.190408 11.87705 6.927907
v 3.190401 13.29693 6.757339
v 2.574473 15.89294 17.84196
v 2.561836 14.57867 6.603405
v 2.574473 15.89294 17.84196
v 1.428725 16.79167 17.7332
v 2.561836 14.57867 6.603405
v 1.424071 15.4696 6.496448
v -1.182593 16.25968 17.53826
v 9.35506E-15 13.84426 17.83055
v -2.13096 15.51579 17.62828
v 9.86878E-15 16.52518 17.50614
v -2.657264 14.44082 17.75836
v 1.182594 16.25968 17.53826
v -2.657264 13.2477 17.90274
v 2.13096 15.51579 17.62828
v -2.13096 12.17274 18.03282
v 2.657264 14.44082 17.75836
v -1.182594 11.42884 18.12284
v 2.657264 13.2477 17.90274
v 8.841341E-15 11.16334 18.15497
v 2.13096 12.17274 18.03282
v 1.182593 11.42884 18.12284
v -1.428724 16.79167 17.7332
v 1.001794E-14 17.11242 17.69439
v 9.86878E-15 16.52518 17.50614
v 1.428725 16.79167 17.7332
v -1.182593 16.25968 17.53826
v 1.182594 16.25968 17.53826
v -2.574473 15.89294 17.84196
v 2.574473 15.89294 17.84196
v -2.13096 15.51579 17.62828
v 2.13096 15.51579 17.62828
v -3.210316 14.59425 17.99911
v 3.210316 14.59425 17.99911
v -2.657264 14.44082 17.75836
v 2.657264 14.44082 17.75836
v -3.210316 13.15281 18.17353
v 3.210316 13.15281 18.17353
v -2.657264 13.2477 17.90274
v 2.657264 13.2477 17.90274
v -2.574474 11.85411 18.33069
v 2.574473 11.85411 18.33069
v -2.13096 12.17274 18.03282
v 2.13096 12.17274 18.03282
v -1.428725 10.95539 18.43945
v 1.428725 10.95539 18.43945
v -1.182594 11.42884 18.12284
v 1.182593 11.42884 18.12284
v 8.776667E-15 10.63463 18.47826
v 8.841341E-15 11.16334 18.15497
vt 0.6095289 0.6257712
vt 0.6196781 0.6257712
vt 0.6095289 0.7718087
vt 0.6196781 0.7718087
vt 0.6298275 0.7718087
vt 0.6298275 0.6257712
vt 0.5865883 0.6257712
vt 0.5964954 0.6257712
vt 0.5964954 0.7718087
vt 0.5865883 0.7718087
vt 0.5560396 0.7718087
vt 0.5485433 0.7718087
vt 0.5485433 0.6257712
vt 0.5560396 0.6257712
vt 0.5635745 0.7718087
vt 0.5635745 0.6257712
vt 0.5529246 0.7718087
vt 0.5499521 0.7718087
vt 0.5499521 0.6257712
vt 0.5529246 0.6257712
vt 0.5558622 0.7718087
vt 0.5558622 0.6257712
vt 0.5587714 0.7718087
vt 0.5587714 0.6257712
vt 0.5616812 0.6257712
vt 0.5616812 0.7718087
vt 0.5646189 0.6257712
vt 0.5646189 0.7718087
vt 0.5675915 0.6257712
vt 0.5675915 0.7718087
vt 0.5469598 0.6257712
vt 0.5499473 0.6257712
vt 0.5469598 0.7718087
vt 0.5499473 0.7718087
vt 0.5529198 0.6257712
vt 0.5529198 0.7718087
vt 0.5865886 0.6257712
vt 0.5964952 0.6257712
vt 0.5865886 0.7718087
vt 0.5964952 0.7718087
vt 0.6010345 0.8410587
vt 0.6107092 0.8202715
vt 0.593276 0.8346567
vt 0.6107092 0.8433436
vt 0.5889702 0.8254055
vt 0.6203841 0.8410587
vt 0.5889702 0.8151374
vt 0.6281426 0.8346567
vt 0.593276 0.8058862
vt 0.6324482 0.8254055
vt 0.6010345 0.7994841
vt 0.6324482 0.8151374
vt 0.6107092 0.7971992
vt 0.6281426 0.8058861
vt 0.6203841 0.7994841
vt 0.802402 0.7920586
vt 0.7997814 0.7914398
vt 0.7997814 0.7925064
vt 0.7971607 0.7920586
vt 0.8019505 0.7930185
vt 0.7976121 0.7930185
vt 0.8045036 0.7937928
vt 0.795059 0.7937928
vt 0.8036901 0.794454
vt 0.7958725 0.794454
vt 0.80567 0.7962988
vt 0.7938926 0.7962988
vt 0.8046557 0.7965282
vt 0.794907 0.7965282
vt 0.80567 0.7990802
vt 0.7938926 0.7990802
vt 0.8046557 0.7988304
vt 0.794907 0.7988304
vt 0.8045036 0.8015862
vt 0.795059 0.8015862
vt 0.8036901 0.8009046
vt 0.7958725 0.8009046
vt 0.802402 0.8033205
vt 0.7971607 0.8033205
vt 0.8019505 0.8023402
vt 0.7976121 0.8023402
vt 0.7997814 0.8039392
vt 0.7997814 0.8028526
vn 0.3136833 0.5280787 0.789136
vn 0 0.9150848 0.4032614
vn 0.3612602 0.9260579 -0.1091234
vn 0 0.9931325 -0.1169953
vn -0.3612597 0.9260581 -0.1091234
vn -0.3136827 0.528079 0.7891361
vn -0.3136827 0.528079 0.7891361
vn -0.4699887 0.3511106 0.8098345
vn -0.7290382 0.6797404 -0.08035023
vn -0.3612597 0.9260581 -0.1091234
vn -0.9544408 0.2962319 -0.03590667
vn -0.7290382 0.6797404 -0.08035023
vn -0.4699887 0.3511106 0.8098345
vn -0.534082 0.1223098 0.8365386
vn -0.9887877 -0.1485626 0.01510291
vn -0.4909028 -0.1122255 0.863956
vn -0.824365 -0.5626454 0.06206799
vn -0.9887877 -0.1485626 0.01510291
vn -0.4909028 -0.1122255 0.863956
vn -0.3491098 -0.3038749 0.8864437
vn -0.4973963 -0.8622276 0.09571082
vn -0.1386489 -0.4144003 0.8994714
vn 0 -0.9938876 0.1103972
vn 0 0.03837557 0.9992633
vn 0.1386491 -0.4144002 0.8994715
vn 0.4973955 -0.862228 0.09571091
vn 0.3491092 -0.3038754 0.8864438
vn 0.8243647 -0.5626459 0.06206813
vn 0.4909033 -0.1122258 0.8639556
vn 0.9887877 -0.1485626 0.01510288
vn 0.4909033 -0.1122258 0.8639556
vn 0.5340828 0.1223104 0.8365379
vn 0.9887877 -0.1485626 0.01510288
vn 0.954441 0.2962319 -0.03590667
vn 0.4699886 0.3511108 0.8098345
vn 0.7290386 0.6797401 -0.08035028
vn 0.4699886 0.3511108 0.8098345
vn 0.3136833 0.5280787 0.789136
vn 0.7290386 0.6797401 -0.08035028
vn 0.3612602 0.9260579 -0.1091234
vn 0.1272584 -0.1041443 0.986387
vn 0 0.1201325 0.9927578
vn 0.2099845 -0.02693668 0.9773336
vn 0 -0.166466 0.9860471
vn 0.2509739 0.07856643 0.9648002
vn -0.1272585 -0.1041443 0.986387
vn 0.2421194 0.1913021 0.9512001
vn -0.2099842 -0.0269356 0.9773336
vn 0.1853608 0.2888574 0.9392565
vn -0.250973 0.07856669 0.9648005
vn 0.09211848 0.3520637 0.9314319
vn -0.2421196 0.1913015 0.9512002
vn 0 0.3279609 0.9446912
vn -0.1853608 0.2888576 0.9392564
vn -0.0921185 0.3520637 0.9314319
vn -0.3136827 0.528079 0.7891361
vn 0 0.9150848 0.4032614
vn 0 -0.166466 0.9860471
vn 0.3136833 0.5280787 0.789136
vn 0.1272584 -0.1041443 0.986387
vn -0.1272585 -0.1041443 0.986387
vn -0.4699887 0.3511106 0.8098345
vn 0.4699886 0.3511108 0.8098345
vn 0.2099845 -0.02693668 0.9773336
vn -0.2099842 -0.0269356 0.9773336
vn -0.534082 0.1223098 0.8365386
vn 0.5340828 0.1223104 0.8365379
vn 0.2509739 0.07856643 0.9648002
vn -0.250973 0.07856669 0.9648005
vn -0.4909028 -0.1122255 0.863956
vn 0.4909033 -0.1122258 0.8639556
vn 0.2421194 0.1913021 0.9512001
vn -0.2421196 0.1913015 0.9512002
vn -0.3491098 -0.3038749 0.8864437
vn 0.3491092 -0.3038754 0.8864438
vn 0.1853608 0.2888574 0.9392565
vn -0.1853608 0.2888576 0.9392564
vn -0.1386489 -0.4144003 0.8994714
vn 0.1386491 -0.4144002 0.8994715
vn 0.09211848 0.3520637 0.9314319
vn -0.0921185 0.3520637 0.9314319
vn 0 0.03837557 0.9992633
vn 0 0.3279609 0.9446912
g LVL_10_Cannon_0
f 3/3/3 2/2/2 1/1/1
f 3/3/3 4/4/4 2/2/2
f 2/2/2 4/4/4 5/5/5
f 5/5/5 6/6/6 2/2/2
f 9/9/9 8/8/8 7/7/7
f 7/7/7 10/10/10 9/9/9
f 13/13/13 12/12/12 11/11/11
f 11/11/11 14/14/14 13/13/13
f 14/14/14 11/11/11 15/15/15
f 15/15/15 16/16/16 14/14/14
f 19/19/19 18/18/18 17/17/17
f 17/17/17 20/20/20 19/19/19
f 20/20/20 17/17/17 21/21/21
f 21/21/21 22/22/22 20/20/20
f 22/22/22 21/21/21 23/23/23
f 23/23/23 24/24/24 22/22/22
f 23/23/23 25/25/25 24/24/24
f 23/23/23 26/26/26 25/25/25
f 26/26/26 27/27/27 25/25/25
f 26/26/26 28/28/28 27/27/27
f 28/28/28 29/29/29 27/27/27
f 28/28/28 30/30/30 29/29/29
f 33/33/33 32/32/32 31/31/31
f 33/33/33 34/34/34 32/32/32
f 34/34/34 35/35/35 32/32/32
f 34/34/34 36/36/36 35/35/35
f 39/39/39 38/38/38 37/37/37
f 39/39/39 40/40/40 38/38/38
f 43/43/43 42/42/42 41/41/41
f 41/41/41 42/42/42 44/44/44
f 45/45/45 42/42/42 43/43/43
f 44/44/44 42/42/42 46/46/46
f 47/47/47 42/42/42 45/45/45
f 46/46/46 42/42/42 48/48/48
f 49/49/49 42/42/42 47/47/47
f 48/48/48 42/42/42 50/50/50
f 51/51/51 42/42/42 49/49/49
f 50/50/50 42/42/42 52/52/52
f 53/53/53 42/42/42 51/51/51
f 52/52/52 42/42/42 54/54/54
f 55/55/55 42/42/42 53/53/53
f 54/54/54 42/42/42 55/55/55
f 58/58/58 57/57/57 56/56/56
f 57/57/57 58/58/58 59/59/59
f 56/56/56 60/60/60 58/58/58
f 58/58/58 61/61/61 59/59/59
f 60/60/60 56/56/56 62/62/62
f 63/63/63 59/59/59 61/61/61
f 62/62/62 64/64/64 60/60/60
f 61/61/61 65/65/65 63/63/63
f 64/64/64 62/62/62 66/66/66
f 67/67/67 63/63/63 65/65/65
f 66/66/66 68/68/68 64/64/64
f 69/69/69 67/67/67 65/65/65
f 68/68/68 66/66/66 70/70/70
f 67/67/67 69/69/69 71/71/71
f 70/70/70 72/72/72 68/68/68
f 73/73/73 71/71/71 69/69/69
f 72/72/72 70/70/70 74/74/74
f 71/71/71 73/73/73 75/75/75
f 74/74/74 76/76/76 72/72/72
f 73/73/73 77/77/77 75/75/75
f 76/76/76 74/74/74 78/78/78
f 75/75/75 77/77/77 79/79/79
f 78/78/78 80/80/80 76/76/76
f 77/77/77 81/81/81 79/79/79
f 80/80/80 78/78/78 82/82/82
f 82/82/82 79/79/79 81/81/81
f 82/82/82 83/83/83 80/80/80
f 81/81/81 83/83/83 82/82/82
