g LVL_5_Gun
v 2.058847 22.06179 12.80235
v -2.058847 18.647 13.14946
v -2.058847 22.06179 12.80235
v 2.058847 18.647 13.14946
v 2.058847 22.06179 12.80235
v -2.058847 22.06179 12.80235
v 2.058847 21.59923 8.251904
v -2.058847 21.59923 8.251904
v 2.058847 18.18444 8.599017
v -2.058847 21.59923 8.251904
v -2.058847 18.18444 8.599017
v 2.058847 21.59923 8.251904
v 2.058847 18.647 13.14946
v -2.058847 18.18444 8.599017
v -2.058847 18.647 13.14946
v 2.058847 18.18444 8.599017
v 2.058847 22.06179 12.80235
v 2.058847 21.59923 8.251904
v 2.058847 18.647 13.14946
v 2.058847 18.18444 8.599017
v -2.058847 18.647 13.14946
v -2.058847 18.18444 8.599017
v -2.058847 21.59923 8.251904
v -2.058847 22.06179 12.80235
v -1.115619 21.38088 18.42316
v -1.115619 20.94489 18.47592
v -1.108701 20.20815 12.14567
v -1.108698 20.63761 12.09408
v -0.894657 21.77368 18.37563
v -0.8902656 21.02529 12.04752
v -0.4964968 22.04551 18.34274
v -0.4948794 21.29477 12.01517
v 4.911596E-07 22.14253 18.331
v -3.923947E-08 21.39129 12.00359
v 0.4948799 21.29477 12.01517
v 0.4964971 22.04551 18.34274
v 0.8902656 21.02529 12.04752
v 0.894657 21.77368 18.37563
v 1.108699 20.63761 12.09408
v 1.115619 21.38087 18.42316
v 1.108701 20.20815 12.14567
v 1.115619 20.94489 18.47592
v -0.8902711 19.82047 12.19225
v -1.108701 20.20815 12.14567
v -1.115619 20.94489 18.47592
v -0.8946574 20.55208 18.52345
v -0.4948844 19.55099 12.22462
v -0.4964974 20.28025 18.55635
v 3.337761E-09 19.45446 12.23622
v 4.911596E-07 20.18324 18.56809
v 0.4964971 20.28025 18.55635
v 0.4948839 19.55099 12.22462
v 0.894657 20.55208 18.52345
v 0.8902707 19.82047 12.19225
v 1.115619 20.94489 18.47592
v 1.108701 20.20815 12.14567
v 0 18.86754 6.035067
v 1.078964 18.81827 6.328113
v 1.078964 21.78676 6.827138
v 0 21.83603 6.534091
v -1.078964 21.78676 6.827138
v -1.078964 18.81827 6.328113
v -1.525885 21.66783 7.534614
v -1.525885 18.69934 7.035589
v -1.078964 18.58041 7.743065
v -1.078964 21.5489 8.24209
v 0 21.49964 8.535136
v 0 18.53115 8.036111
v 1.078964 18.58041 7.743065
v 1.078964 21.5489 8.24209
v 1.525885 21.66783 7.534614
v 1.525885 18.69934 7.035589
v 1.078964 18.81827 6.328113
v 1.078964 21.78676 6.827138
v -0.4109637 21.88461 18.28377
v 4.911596E-07 21.15403 18.37218
v -0.7405314 21.6596 18.311
v 4.911596E-07 21.96491 18.27406
v -0.9234278 21.33447 18.35034
v 0.410964 21.88461 18.28377
v -0.9234278 20.97359 18.39401
v 0.7405314 21.6596 18.311
v -0.7405314 20.64846 18.43336
v 0.9234278 21.33447 18.35035
v -0.410964 20.42345 18.46059
v 0.9234278 20.97359 18.39401
v 4.911596E-07 20.34315 18.4703
v 0.7405314 20.64846 18.43336
v 0.4109637 20.42345 18.46059
v 0.894657 21.77368 18.37563
v 1.115619 21.38087 18.42316
v 0.9234278 21.33447 18.35035
v 1.115619 20.94489 18.47592
v 0.7405314 21.6596 18.311
v 0.9234278 20.97359 18.39401
v 0.4964971 22.04551 18.34274
v 0.894657 20.55208 18.52345
v 0.410964 21.88461 18.28377
v 0.7405314 20.64846 18.43336
v 0.4964971 20.28025 18.55635
v 0.4109637 20.42345 18.46059
v 4.911596E-07 22.14253 18.331
v 4.911596E-07 21.96491 18.27406
v -0.4109637 21.88461 18.28377
v -0.4964968 22.04551 18.34274
v -0.7405314 21.6596 18.311
v -0.894657 21.77368 18.37563
v 4.911596E-07 20.18324 18.56809
v 4.911596E-07 20.34315 18.4703
v -0.410964 20.42345 18.46059
v -0.4964974 20.28025 18.55635
v -0.7405314 20.64846 18.43336
v -0.8946574 20.55208 18.52345
v -0.9234278 20.97359 18.39401
v -1.115619 20.94489 18.47592
v -0.9234278 21.33447 18.35034
v -1.115619 21.38088 18.42316
v 0 18.86754 6.035067
v 0 18.69934 7.035589
v 1.078964 18.81827 6.328113
v -1.078964 18.81827 6.328113
v 1.525885 18.69934 7.035589
v -1.525885 18.69934 7.035589
v 1.078964 18.58041 7.743065
v -1.078964 18.58041 7.743065
v 0 18.53115 8.036111
v 1.078964 21.78676 6.827138
v 0 21.66783 7.534614
v 0 21.83603 6.534091
v 1.525885 21.66783 7.534614
v -1.078964 21.78676 6.827138
v 1.078964 21.5489 8.24209
v -1.525885 21.66783 7.534614
v 0 21.49964 8.535136
v -1.078964 21.5489 8.24209
vt 0.5428013 0.3169692
vt 0.5196135 0.2937813
vt 0.5196135 0.3169692
vt 0.5428013 0.2937813
vt 0.6746668 0.373065
vt 0.6034663 0.373065
vt 0.6746668 0.4835485
vt 0.6034663 0.4835485
vt 0.5428014 0.3169692
vt 0.5196134 0.2937813
vt 0.5196134 0.3169692
vt 0.5428014 0.2937813
vt 0.5428013 0.3169692
vt 0.5196137 0.2937813
vt 0.5196137 0.3169692
vt 0.5428013 0.2937813
vt 0.5196134 0.3169692
vt 0.5428013 0.3169692
vt 0.5196134 0.2937813
vt 0.5428013 0.2937813
vt 0.5428014 0.2937813
vt 0.5196135 0.2937813
vt 0.5196135 0.3169692
vt 0.5428014 0.3169692
vt 0.5660223 0.4901868
vt 0.5846136 0.4901868
vt 0.5846136 0.3441493
vt 0.5660223 0.3441493
vt 0.5475266 0.4901868
vt 0.5475266 0.3441493
vt 0.5292476 0.4901868
vt 0.5292476 0.3441493
vt 0.5111446 0.4901868
vt 0.5111446 0.3441493
vt 0.493042 0.3441493
vt 0.493042 0.4901868
vt 0.474764 0.3441493
vt 0.474764 0.4901868
vt 0.4562695 0.3441493
vt 0.4562695 0.4901868
vt 0.4376794 0.3441493
vt 0.4376794 0.4901868
vt 0.474903 0.3443518
vt 0.4564076 0.3443518
vt 0.4564072 0.4903892
vt 0.4749025 0.4903893
vt 0.4931808 0.3443519
vt 0.4931804 0.4903893
vt 0.511282 0.3443519
vt 0.5112817 0.4903894
vt 0.5293859 0.4903894
vt 0.5293859 0.3443519
vt 0.547665 0.4903894
vt 0.547665 0.3443519
vt 0.5661601 0.4903894
vt 0.5661601 0.3443519
vt 0.6164264 0.3040381
vt 0.6131876 0.3040381
vt 0.6131876 0.3430011
vt 0.6164264 0.3430011
vt 0.6196652 0.3430011
vt 0.6196652 0.3040381
vt 0.622904 0.3430011
vt 0.622904 0.3040381
vt 0.6261428 0.3040381
vt 0.6261428 0.3430011
vt 0.6293816 0.3430011
vt 0.6293816 0.3040381
vt 0.6326204 0.3040381
vt 0.6326204 0.3430011
vt 0.6358592 0.3430011
vt 0.6358592 0.3040381
vt 0.639098 0.3040381
vt 0.639098 0.3430011
vt 0.4776933 0.3324756
vt 0.487368 0.3116884
vt 0.4699349 0.3260736
vt 0.487368 0.3347605
vt 0.465629 0.3168224
vt 0.4970429 0.3324756
vt 0.465629 0.3065543
vt 0.5048014 0.3260736
vt 0.4699349 0.2973031
vt 0.509107 0.3168224
vt 0.4776933 0.290901
vt 0.509107 0.3065543
vt 0.487368 0.2886162
vt 0.5048014 0.2973031
vt 0.4970429 0.290901
vt 0.8453429 0.9128461
vt 0.8448563 0.9138916
vt 0.8452795 0.9139873
vt 0.8448563 0.9150519
vt 0.8456823 0.9131219
vt 0.8452795 0.9149477
vt 0.8462198 0.9121226
vt 0.8453429 0.9160974
vt 0.8464081 0.912523
vt 0.8456823 0.9158131
vt 0.8462198 0.9168209
vt 0.8464081 0.916412
vt 0.847313 0.9118644
vt 0.847313 0.9123094
vt 0.848218 0.912523
vt 0.8484063 0.9121226
vt 0.8489437 0.9131219
vt 0.8492832 0.9128461
vt 0.847313 0.9170791
vt 0.847313 0.9166257
vt 0.848218 0.916412
vt 0.8484063 0.9168209
vt 0.8489437 0.9158131
vt 0.8492832 0.9160974
vt 0.8493465 0.9149477
vt 0.8497697 0.9150519
vt 0.8493465 0.9139873
vt 0.8497697 0.9138916
vt 0.6261428 0.3072769
vt 0.6261428 0.3228232
vt 0.6375937 0.31202
vt 0.6146919 0.31202
vt 0.6423368 0.3234709
vt 0.6099488 0.3234709
vt 0.6375937 0.3349218
vt 0.6146919 0.3349218
vt 0.6261428 0.3396649
vt 0.6375937 0.3349218
vt 0.6261428 0.3228232
vt 0.6261428 0.3396649
vt 0.6423368 0.3234709
vt 0.6146919 0.3349218
vt 0.6375937 0.31202
vt 0.6099488 0.3234709
vt 0.6261428 0.3072769
vt 0.6146919 0.31202
vn 0.4082485 0.4887264 0.7710251
vn -0.6666667 -0.2642056 0.6969584
vn -0.4082485 0.8535964 0.3235836
vn 0.6666667 -0.6295395 0.3990435
vn 0.4082485 0.4887264 0.7710251
vn -0.4082485 0.8535964 0.3235836
vn 0.6666665 0.6295391 -0.3990441
vn -0.6666666 0.2642052 -0.6969587
vn 0.4082482 -0.4887266 -0.771025
vn -0.6666666 0.2642052 -0.6969587
vn -0.4082483 -0.8535963 -0.3235842
vn 0.6666665 0.6295391 -0.3990441
vn 0.6666667 -0.6295395 0.3990435
vn -0.4082483 -0.8535963 -0.3235842
vn -0.6666667 -0.2642056 0.6969584
vn 0.4082482 -0.4887266 -0.771025
vn 0.4082485 0.4887264 0.7710251
vn 0.6666665 0.6295391 -0.3990441
vn 0.6666667 -0.6295395 0.3990435
vn 0.4082482 -0.4887266 -0.771025
vn -0.6666667 -0.2642056 0.6969584
vn -0.4082483 -0.8535963 -0.3235842
vn -0.6666666 0.2642052 -0.6969587
vn -0.4082485 0.8535964 0.3235836
vn -0.755764 0.1815967 0.6291608
vn -0.4991629 -0.1353138 0.8558777
vn -0.9858636 -0.1665468 0.01830584
vn -0.9422677 0.3324519 -0.04009053
vn -0.4284179 0.4296042 0.7949204
vn -0.6843424 0.7240564 -0.0861275
vn -0.2413954 0.5742225 0.7823021
vn -0.3232088 0.9397256 -0.1115882
vn 0 0.6266358 0.7793123
vn 0 0.9930255 -0.1178995
vn 0.323209 0.9397255 -0.1115882
vn 0.2413956 0.5742224 0.7823021
vn 0.6843426 0.7240562 -0.08612749
vn 0.4284184 0.4296046 0.7949198
vn 0.9422681 0.3324509 -0.04009035
vn 0.755765 0.1815962 0.6291599
vn 0.9858635 -0.1665473 0.01830588
vn 0.4991636 -0.1353145 0.8558771
vn -0.7889849 -0.610411 0.0700085
vn -0.9858636 -0.1665468 0.01830584
vn -0.4991629 -0.1353138 0.8558777
vn -0.3356674 -0.3303552 0.8821524
vn -0.4500661 -0.887141 0.1020844
vn -0.1269661 -0.4218221 0.8977449
vn 0 -0.9934399 0.1143555
vn 0 0.03591502 0.9993549
vn 0.1269663 -0.4218219 0.8977449
vn 0.4500661 -0.887141 0.1020844
vn 0.3356672 -0.3303552 0.8821524
vn 0.7889846 -0.6104114 0.07000855
vn 0.4991636 -0.1353145 0.8558771
vn 0.9858635 -0.1665473 0.01830588
vn 0 -0.3068477 -0.9517586
vn 0.5680964 -0.4737866 -0.6728987
vn 0.3993095 0.688651 -0.605237
vn 0 0.8250115 -0.5651159
vn -0.3993095 0.688651 -0.6052369
vn -0.5680965 -0.4737867 -0.6728987
vn -0.8616135 0.5005417 0.08414471
vn -0.6471045 -0.7518517 -0.1263918
vn -0.5270261 -0.5834776 0.6178976
vn -0.4076917 0.6310726 0.6599506
vn 0 0.3068482 0.9517585
vn 0 -0.8250111 0.5651165
vn 0.5270261 -0.5834775 0.6178976
vn 0.4076916 0.6310726 0.6599506
vn 0.8616133 0.5005417 0.08414473
vn 0.6471045 -0.7518517 -0.1263918
vn 0.5680964 -0.4737866 -0.6728987
vn 0.3993095 0.688651 -0.605237
vn 0.08089048 -0.1213022 0.9893141
vn 0 0.1201325 0.9927578
vn 0.1634436 -0.05804652 0.9848436
vn 0 -0.09438548 0.9955357
vn 0.2421464 0.05279096 0.9688024
vn -0.08089055 -0.1213022 0.9893141
vn 0.2139065 0.1931039 0.9575776
vn -0.1634444 -0.05804541 0.9848434
vn 0.162889 0.2906496 0.9428626
vn -0.2421455 0.05279135 0.9688026
vn 0.08052017 0.3526657 0.9322786
vn -0.2139068 0.1931028 0.9575778
vn 0 0.3280685 0.944654
vn -0.1628892 0.2906498 0.9428625
vn -0.08052024 0.3526656 0.9322786
vn 0.4284184 0.4296046 0.7949198
vn 0.755765 0.1815962 0.6291599
vn -0.2421455 0.05279135 0.9688026
vn 0.4991636 -0.1353145 0.8558771
vn -0.1634444 -0.05804541 0.9848434
vn -0.2139068 0.1931028 0.9575778
vn 0.2413956 0.5742224 0.7823021
vn 0.3356672 -0.3303552 0.8821524
vn -0.08089055 -0.1213022 0.9893141
vn -0.1628892 0.2906498 0.9428625
vn 0.1269663 -0.4218219 0.8977449
vn -0.08052024 0.3526656 0.9322786
vn 0 0.6266358 0.7793123
vn 0 -0.09438548 0.9955357
vn 0.08089048 -0.1213022 0.9893141
vn -0.2413954 0.5742225 0.7823021
vn 0.1634436 -0.05804652 0.9848436
vn -0.4284179 0.4296042 0.7949204
vn 0 0.03591502 0.9993549
vn 0 0.3280685 0.944654
vn 0.08052017 0.3526657 0.9322786
vn -0.1269661 -0.4218221 0.8977449
vn 0.162889 0.2906496 0.9428626
vn -0.3356674 -0.3303552 0.8821524
vn 0.2139065 0.1931039 0.9575776
vn -0.4991629 -0.1353138 0.8558777
vn 0.2421464 0.05279096 0.9688024
vn -0.755764 0.1815967 0.6291608
vn 0 -0.3068477 -0.9517586
vn 0 -0.9861625 -0.1657811
vn 0.5680964 -0.4737866 -0.6728987
vn -0.5680965 -0.4737867 -0.6728987
vn 0.6471045 -0.7518517 -0.1263918
vn -0.6471045 -0.7518517 -0.1263918
vn 0.5270261 -0.5834775 0.6178976
vn -0.5270261 -0.5834776 0.6178976
vn 0 -0.8250111 0.5651165
vn 0.3993095 0.688651 -0.605237
vn 0 0.9861626 0.1657809
vn 0 0.8250115 -0.5651159
vn 0.8616133 0.5005417 0.08414473
vn -0.3993095 0.688651 -0.6052369
vn 0.4076916 0.6310726 0.6599506
vn -0.8616135 0.5005417 0.08414471
vn 0 0.3068482 0.9517585
vn -0.4076917 0.6310726 0.6599506
g LVL_5_Gun_0
f 3/3/3 2/2/2 1/1/1
f 2/2/2 4/4/4 1/1/1
f 7/7/7 6/6/6 5/5/5
f 7/7/7 8/8/8 6/6/6
f 11/11/11 10/10/10 9/9/9
f 10/10/10 12/12/12 9/9/9
f 15/15/15 14/14/14 13/13/13
f 14/14/14 16/16/16 13/13/13
f 19/19/19 18/18/18 17/17/17
f 20/20/20 18/18/18 19/19/19
f 23/23/23 22/22/22 21/21/21
f 21/21/21 24/24/24 23/23/23
f 27/27/27 26/26/26 25/25/25
f 25/25/25 28/28/28 27/27/27
f 28/28/28 25/25/25 29/29/29
f 29/29/29 30/30/30 28/28/28
f 30/30/30 29/29/29 31/31/31
f 31/31/31 32/32/32 30/30/30
f 32/32/32 31/31/31 33/33/33
f 33/33/33 34/34/34 32/32/32
f 35/35/35 34/34/34 33/33/33
f 35/35/35 33/33/33 36/36/36
f 37/37/37 35/35/35 36/36/36
f 37/37/37 36/36/36 38/38/38
f 39/39/39 37/37/37 38/38/38
f 39/39/39 38/38/38 40/40/40
f 41/41/41 39/39/39 40/40/40
f 41/41/41 40/40/40 42/42/42
f 45/45/45 44/44/44 43/43/43
f 43/43/43 46/46/46 45/45/45
f 46/46/46 43/43/43 47/47/47
f 47/47/47 48/48/48 46/46/46
f 48/48/48 47/47/47 49/49/49
f 49/49/49 50/50/50 48/48/48
f 49/49/49 51/51/51 50/50/50
f 49/49/49 52/52/52 51/51/51
f 52/52/52 53/53/53 51/51/51
f 52/52/52 54/54/54 53/53/53
f 54/54/54 55/55/55 53/53/53
f 54/54/54 56/56/56 55/55/55
f 59/59/59 58/58/58 57/57/57
f 57/57/57 60/60/60 59/59/59
f 61/61/61 60/60/60 57/57/57
f 61/61/61 57/57/57 62/62/62
f 63/63/63 61/61/61 62/62/62
f 62/62/62 64/64/64 63/63/63
f 63/63/63 64/64/64 65/65/65
f 65/65/65 66/66/66 63/63/63
f 65/65/65 67/67/67 66/66/66
f 65/65/65 68/68/68 67/67/67
f 67/67/67 68/68/68 69/69/69
f 69/69/69 70/70/70 67/67/67
f 69/69/69 71/71/71 70/70/70
f 71/71/71 69/69/69 72/72/72
f 71/71/71 72/72/72 73/73/73
f 73/73/73 74/74/74 71/71/71
f 77/77/77 76/76/76 75/75/75
f 75/75/75 76/76/76 78/78/78
f 79/79/79 76/76/76 77/77/77
f 78/78/78 76/76/76 80/80/80
f 81/81/81 76/76/76 79/79/79
f 80/80/80 76/76/76 82/82/82
f 83/83/83 76/76/76 81/81/81
f 82/82/82 76/76/76 84/84/84
f 85/85/85 76/76/76 83/83/83
f 84/84/84 76/76/76 86/86/86
f 87/87/87 76/76/76 85/85/85
f 86/86/86 76/76/76 88/88/88
f 89/89/89 76/76/76 87/87/87
f 88/88/88 76/76/76 89/89/89
f 92/92/92 91/91/91 90/90/90
f 91/91/91 92/92/92 93/93/93
f 90/90/90 94/94/94 92/92/92
f 95/95/95 93/93/93 92/92/92
f 94/94/94 90/90/90 96/96/96
f 93/93/93 95/95/95 97/97/97
f 96/96/96 98/98/98 94/94/94
f 95/95/95 99/99/99 97/97/97
f 97/97/97 99/99/99 100/100/100
f 99/99/99 101/101/101 100/100/100
f 98/98/98 96/96/96 102/102/102
f 102/102/102 103/103/103 98/98/98
f 104/104/104 103/103/103 102/102/102
f 105/105/105 104/104/104 102/102/102
f 104/104/104 105/105/105 106/106/106
f 107/107/107 106/106/106 105/105/105
f 108/108/108 100/100/100 101/101/101
f 101/101/101 109/109/109 108/108/108
f 108/108/108 109/109/109 110/110/110
f 110/110/110 111/111/111 108/108/108
f 111/111/111 110/110/110 112/112/112
f 112/112/112 113/113/113 111/111/111
f 113/113/113 112/112/112 114/114/114
f 114/114/114 115/115/115 113/113/113
f 116/116/116 106/106/106 107/107/107
f 115/115/115 114/114/114 116/116/116
f 107/107/107 117/117/117 116/116/116
f 116/116/116 117/117/117 115/115/115
f 120/120/120 119/119/119 118/118/118
f 118/118/118 119/119/119 121/121/121
f 122/122/122 119/119/119 120/120/120
f 121/121/121 119/119/119 123/123/123
f 124/124/124 119/119/119 122/122/122
f 123/123/123 119/119/119 125/125/125
f 126/126/126 119/119/119 124/124/124
f 125/125/125 119/119/119 126/126/126
f 129/129/129 128/128/128 127/127/127
f 127/127/127 128/128/128 130/130/130
f 131/131/131 128/128/128 129/129/129
f 130/130/130 128/128/128 132/132/132
f 133/133/133 128/128/128 131/131/131
f 132/132/132 128/128/128 134/134/134
f 135/135/135 128/128/128 133/133/133
f 134/134/134 128/128/128 135/135/135
