g LVL_10_Body
v -8.018262 17.08935 3.913809
v -8.018262 16.59574 5.26044
v -9.761855 9.133953 5.905577
v -9.761855 8.990992 -16.53827
v -8.018262 17.08935 -15.90565
v -9.100883 8.986712 -16.99976
v -7.475344 17.08935 -16.36697
v 9.76186 9.133953 5.905577
v 8.018262 16.59574 5.26044
v 8.018262 17.08935 3.913809
v 9.76186 8.990992 -16.53827
v 8.018262 17.08935 -15.90565
v 9.100883 8.986712 -16.99976
v 7.475347 17.08935 -16.36697
v 7.475347 17.08935 -16.36697
v 6.073794 8.986712 -16.99976
v 9.100883 8.986712 -16.99976
v 5.595206 17.08935 -16.36697
v 5.095679 17.08935 -16.36697
v -7.475344 16.38422 5.837485
v -8.018262 16.59574 5.26044
v -8.018262 17.08935 3.913809
v -3.416559 16.38422 5.837485
v 8.018262 17.08935 3.913809
v 3.419107 16.38422 5.837485
v -3.416559 16.38422 6.92828
v 3.419107 16.38422 6.92828
v 7.475347 16.38422 5.837485
v 8.018262 16.59574 5.26044
v -5.589729 17.08935 -11.85196
v -8.018262 17.08935 -15.90565
v -5.548301 17.08935 -16.36697
v -7.475344 17.08935 -16.36697
v 5.595206 17.08935 -11.85196
v 8.018262 17.08935 -15.90565
v 5.595206 17.08935 -16.36697
v 7.475347 17.08935 -16.36697
v 9.76186 9.133953 5.905577
v 9.100883 9.138717 6.419244
v 8.018262 16.59574 5.26044
v 7.475347 16.38422 5.837485
v 3.419107 9.138717 6.419244
v 3.419107 16.38422 5.837485
v 3.419107 9.857022 7.693545
v 3.419107 16.38422 6.92828
v -3.416559 16.38422 6.92828
v -3.416559 9.138717 6.419244
v -3.416559 9.857022 7.693545
v -3.416559 16.38422 5.837485
v -7.475344 16.38422 5.837485
v -9.100883 9.138717 6.419244
v -8.018262 16.59574 5.26044
v -9.761855 9.133953 5.905577
v 5.095679 17.08935 -12.30673
v 5.095679 17.08935 -16.36697
v 5.595206 17.08935 -16.36697
v 5.595206 17.08935 -11.85196
v -5.09568 17.08935 -12.2486
v -5.589729 17.08935 -11.85196
v -5.548301 17.08935 -16.36697
v -5.09568 17.08935 -16.36697
v -6.07379 8.986712 -16.99976
v -5.09568 17.08935 -16.36697
v -5.548301 17.08935 -16.36697
v -7.475344 17.08935 -16.36697
v -9.100883 8.986712 -16.99976
v 5.095679 17.08935 -16.36697
v 5.095679 17.08935 -12.30673
v 5.095679 10.30318 -12.30673
v 6.073794 8.986712 -16.99976
v 5.095679 10.30318 -12.30673
v -5.09568 17.08935 -12.2486
v -5.09568 10.30318 -12.2486
v 5.095679 17.08935 -12.30673
v -5.09568 10.30318 -12.2486
v -5.09568 17.08935 -12.2486
v -5.09568 17.08935 -16.36697
v -6.07379 8.986712 -16.99976
v 6.790013 16.68422 -15.59749
v 7.616124 16.69068 -15.25537
v 6.790013 17.84077 -15.61934
v 7.616124 17.84723 -15.27721
v 5.963902 16.69068 -15.25537
v 6.790013 16.68422 -15.59749
v 6.790013 17.84077 -15.61934
v 5.963902 17.84723 -15.27721
v 5.621717 16.70629 -14.4294
v 5.963902 16.69068 -15.25537
v 5.963902 17.84723 -15.27721
v 5.621717 17.86283 -14.45125
v 5.963902 16.72189 -13.60344
v 5.621717 16.70629 -14.4294
v 5.621717 17.86283 -14.45125
v 5.963902 17.87843 -13.62529
v 5.963902 17.87843 -13.62529
v 6.790013 17.8849 -13.28316
v 6.790013 16.72835 -13.26131
v 5.963902 16.72189 -13.60344
v 7.616124 17.87843 -13.62529
v 6.790013 16.72835 -13.26131
v 6.790013 17.8849 -13.28316
v 7.616124 16.72189 -13.60344
v 7.616124 17.87843 -13.62529
v 7.95831 17.86283 -14.45125
v 7.616124 16.72189 -13.60344
v 7.95831 16.70629 -14.4294
v 7.95831 17.86283 -14.45125
v 7.616124 17.84723 -15.27721
v 7.95831 16.70629 -14.4294
v 7.616124 16.69068 -15.25537
v 6.325276 16.18307 -4.904178
v 4.810261 17.77373 -7.306815
v 5.048748 16.18307 -7.500223
v 2.772253 16.18307 -9.285316
v 6.02649 17.77373 -4.833397
v 2.641301 17.77373 -9.007588
v 6.349003 16.18307 -2.011357
v 6.049097 17.77373 -2.077225
v -0.05331707 16.18307 -9.905896
v -0.05079939 17.77373 -9.598852
v -2.732839 17.77373 -8.963504
v -2.868328 16.18307 -9.239048
v 4.87361 17.77373 0.4158101
v 5.115233 16.18307 0.60528
v 2.868331 16.18307 2.427475
v 2.732842 17.77373 2.15193
v -4.873607 17.77373 -7.227381
v -5.115233 16.18307 -7.416852
v 0.05332002 16.18307 3.094323
v 0.05080268 17.77373 2.787281
v -2.641299 17.77373 2.196015
v -2.772252 16.18307 2.473744
v -6.349002 16.18307 -4.800214
v -6.049094 17.77373 -4.734346
v -6.026489 17.77373 -1.978173
v -6.325274 16.18307 -1.907392
v -4.810259 17.77373 0.4952441
v -5.048746 16.18307 0.6886511
v 6.02649 17.77373 -4.833397
v -4.359528E-07 18.10637 -3.405785
v 4.810261 17.77373 -7.306815
v 6.049097 17.77373 -2.077225
v 2.641301 17.77373 -9.007588
v 4.87361 17.77373 0.4158101
v -0.05079939 17.77373 -9.598852
v 2.732842 17.77373 2.15193
v -2.732839 17.77373 -8.963504
v 0.05080268 17.77373 2.787281
v -4.873607 17.77373 -7.227381
v -2.641299 17.77373 2.196015
v -6.049094 17.77373 -4.734346
v -4.810259 17.77373 0.4952441
v -6.026489 17.77373 -1.978173
v 7.616124 17.84723 -15.27721
v 6.790013 17.86283 -14.45125
v 6.790013 17.84077 -15.61934
v 7.95831 17.86283 -14.45125
v 5.963902 17.84723 -15.27721
v 7.616124 17.87843 -13.62529
v 5.621717 17.86283 -14.45125
v 6.790013 17.8849 -13.28316
v 5.963902 17.87843 -13.62529
vt 0.6745447 0.60913
vt 0.692236 0.6024921
vt 0.7194535 0.5173643
vt 0.5192602 0.5173795
vt 0.5175983 0.5988414
vt 0.5132661 0.51738
vt 0.5116122 0.5984489
vt 0.7194499 0.5177594
vt 0.6922327 0.6028872
vt 0.674541 0.6095252
vt 0.5192565 0.5177747
vt 0.5175945 0.5992365
vt 0.5132623 0.5177752
vt 0.5116084 0.5988441
vt 0.4866287 0.6547966
vt 0.3803755 0.7314581
vt 0.3803138 0.6547966
vt 0.4866287 0.7263489
vt 0.4866287 0.7357097
vt 0.0669313 0.6462027
vt 0.05784734 0.6597868
vt 0.05784734 0.6914878
vt 0.1360989 0.6462026
vt 0.3312816 0.6914878
vt 0.2548026 0.6462027
vt 0.1370393 0.625392
vt 0.2538623 0.6253922
vt 0.3221976 0.6462027
vt 0.3312816 0.6597868
vt 0.1190795 0.9077796
vt 0.05784734 0.9762126
vt 0.1272454 0.9870725
vt 0.06693133 0.9870725
vt 0.2664579 0.9097276
vt 0.3312816 0.9762126
vt 0.2652023 0.9870725
vt 0.3221976 0.9870725
vt 0.3840435 0.6430435
vt 0.3787685 0.6547965
vt 0.4862211 0.6430435
vt 0.4862211 0.6547966
vt 0.3787685 0.742606
vt 0.4862211 0.742606
vt 0.3787685 0.742606
vt 0.4862211 0.742606
vt 0.4862211 0.8905846
vt 0.3787685 0.8905846
vt 0.3787685 0.8905846
vt 0.4862211 0.8905846
vt 0.4862211 0.9784492
vt 0.3787685 0.9784491
vt 0.4862211 0.9902022
vt 0.3840435 0.9902022
vt 0.08226103 0.6437681
vt 0.08175761 0.6516564
vt 0.08254838 0.6516564
vt 0.08268562 0.6432025
vt 0.06886492 0.6436552
vt 0.06657705 0.6429896
vt 0.06746959 0.6516564
vt 0.06808672 0.6516564
vt 0.380304 0.8975211
vt 0.4866287 0.897536
vt 0.4866287 0.9048411
vt 0.4866287 0.9784491
vt 0.3803138 0.9784492
vt 0.4099185 0.9145736
vt 0.3942305 0.9143975
vt 0.3940279 0.9324348
vt 0.4122369 0.9395643
vt 0.4132114 0.929177
vt 0.3906802 0.9181307
vt 0.3921548 0.9314996
vt 0.4117368 0.9158081
vt 0.4100386 0.9322416
vt 0.4095461 0.9143369
vt 0.3937505 0.9147713
vt 0.3918543 0.9396205
vt 0.6355173 0.9557047
vt 0.625585 0.9557047
vt 0.6355173 0.982296
vt 0.625585 0.982296
vt 0.6355173 0.9557047
vt 0.6255849 0.9557047
vt 0.6255849 0.982296
vt 0.6355173 0.982296
vt 0.6355174 0.9557047
vt 0.6255849 0.9557047
vt 0.6255849 0.982296
vt 0.6355174 0.982296
vt 0.6355174 0.9557047
vt 0.6255849 0.9557047
vt 0.6255849 0.982296
vt 0.6355174 0.982296
vt 0.625585 0.982296
vt 0.6355174 0.982296
vt 0.6355174 0.9557047
vt 0.625585 0.9557047
vt 0.6355173 0.982296
vt 0.6255849 0.9557047
vt 0.6255849 0.982296
vt 0.6355173 0.9557047
vt 0.625585 0.982296
vt 0.6355174 0.982296
vt 0.625585 0.9557047
vt 0.6355174 0.9557047
vt 0.625585 0.982296
vt 0.6355174 0.982296
vt 0.625585 0.9557047
vt 0.6355174 0.9557047
vt 0.8074675 0.9225786
vt 0.7656045 0.9372506
vt 0.7806869 0.9561612
vt 0.7419863 0.9747987
vt 0.7856739 0.9120833
vt 0.7366035 0.9512166
vt 0.8170258 0.8807017
vt 0.7928368 0.8807017
vt 0.6990321 0.9747987
vt 0.7044147 0.9512166
vt 0.6754138 0.9372506
vt 0.6603314 0.9561612
vt 0.7856739 0.8493203
vt 0.8074665 0.838825
vt 0.7806858 0.8052422
vt 0.7656045 0.824154
vt 0.6553434 0.9120843
vt 0.6335497 0.9225796
vt 0.7419852 0.7866057
vt 0.7366025 0.8101881
vt 0.7044137 0.8101881
vt 0.6990311 0.7866057
vt 0.6239914 0.8807028
vt 0.6481805 0.8807028
vt 0.6553434 0.8493213
vt 0.6335497 0.838826
vt 0.6754128 0.8241552
vt 0.6603304 0.8052433
vt 0.7819898 0.9086259
vt 0.7220845 0.8797782
vt 0.7635402 0.931762
vt 0.7885747 0.8797771
vt 0.7368798 0.9446008
vt 0.7819898 0.8509284
vt 0.707289 0.9446008
vt 0.7635402 0.8277933
vt 0.6806287 0.931762
vt 0.7368789 0.8149545
vt 0.6621782 0.908627
vt 0.7072881 0.8149545
vt 0.6555933 0.8797782
vt 0.6806278 0.8277944
vt 0.6621782 0.8509294
vt 0.5565584 0.8484141
vt 0.5307438 0.8211392
vt 0.5307438 0.8591067
vt 0.567251 0.8225995
vt 0.5049292 0.8484141
vt 0.5565584 0.796785
vt 0.4942365 0.8225995
vt 0.5307438 0.7860923
vt 0.5049292 0.796785
vn -0.4635401 0.8681961 0.1771043
vn -0.6700674 0.4743625 0.5709553
vn -0.9209313 0.2367561 0.3095675
vn -0.927883 0.2242735 -0.2978836
vn -0.4868324 0.8011827 -0.3479951
vn -0.4196833 0.1569107 -0.894005
vn -0.2039842 0.4302258 -0.8793725
vn 0.9209309 0.2367567 0.3095686
vn 0.6700671 0.4743627 0.5709555
vn 0.3607824 0.9150516 0.180323
vn 0.9278825 0.2242741 -0.2978844
vn 0.4868322 0.8011827 -0.3479951
vn 0.419683 0.1569107 -0.8940051
vn 0.2039849 0.4302261 -0.8793724
vn 0.2039849 0.4302261 -0.8793724
vn -0.2952448 0.03891261 -0.9546288
vn 0.419683 0.1569107 -0.8940051
vn 0 0.901592 -0.4325872
vn -0.7924547 0.3897371 -0.46917
vn -0.1632729 0.5447159 0.822573
vn -0.6700674 0.4743625 0.5709553
vn -0.4635401 0.8681961 0.1771043
vn -0.414311 0.8072369 0.4203749
vn 0.3607824 0.9150516 0.180323
vn 0.4215974 0.8343109 0.3552194
vn -0.3173155 0.7085305 0.6303136
vn 0.5561661 0.6209289 0.5523826
vn 0.1632735 0.5447161 0.8225728
vn 0.6700671 0.4743627 0.5709555
vn 0 1 0
vn -0.4868324 0.8011827 -0.3479951
vn 0 0.901592 -0.4325872
vn -0.2039842 0.4302258 -0.8793725
vn 0 1 0
vn 0.4868322 0.8011827 -0.3479951
vn 0 0.901592 -0.4325872
vn 0.2039849 0.4302261 -0.8793724
vn 0.9209309 0.2367567 0.3095686
vn 0.4502772 0.1749832 0.8755748
vn 0.6700671 0.4743627 0.5709555
vn 0.1632735 0.5447161 0.8225728
vn 0.3608675 -0.2566001 0.8966221
vn 0.4215974 0.8343109 0.3552194
vn 0.5148533 -0.3885542 0.7641672
vn 0.5561661 0.6209289 0.5523826
vn -0.3173155 0.7085305 0.6303136
vn -0.2844631 -0.4500771 0.8464699
vn -0.7685187 -0.2899964 0.5703342
vn -0.414311 0.8072369 0.4203749
vn -0.1632729 0.5447159 0.822573
vn -0.4502775 0.1749833 0.8755747
vn -0.6700674 0.4743625 0.5709553
vn -0.9209313 0.2367561 0.3095675
vn -0.3030737 0.9040653 -0.3013504
vn -0.7924547 0.3897371 -0.46917
vn 0 0.901592 -0.4325872
vn 0 1 0
vn 0.2158455 0.8733462 -0.4366661
vn 0 1 0
vn 0 0.901592 -0.4325872
vn 0.7928489 0.3897783 -0.4684693
vn 0.2955237 0.03887255 -0.9545442
vn 0.7928489 0.3897783 -0.4684693
vn 0 0.901592 -0.4325872
vn -0.2039842 0.4302258 -0.8793725
vn -0.4196833 0.1569107 -0.894005
vn -0.7924547 0.3897371 -0.46917
vn -0.3030737 0.9040653 -0.3013504
vn -0.6747451 -0.03543843 -0.7371996
vn -0.2952448 0.03891261 -0.9546288
vn -0.6747451 -0.03543843 -0.7371996
vn 0.2158455 0.8733462 -0.4366661
vn 0.858827 -0.04558002 -0.5102339
vn -0.3030737 0.9040653 -0.3013504
vn 0.858827 -0.04558002 -0.5102339
vn 0.2158455 0.8733462 -0.4366661
vn 0.7928489 0.3897783 -0.4684693
vn 0.2955237 0.03887255 -0.9545442
vn 0 -0.01888541 -0.9998217
vn 0.6037488 -0.01505495 -0.7970324
vn 0 0.4592691 -0.8882971
vn 0.6485263 0.572143 -0.502062
vn -0.6037489 -0.01505495 -0.7970324
vn 0 -0.01888541 -0.9998217
vn 0 0.4592691 -0.8882971
vn -0.6485263 0.572143 -0.502062
vn -0.9906024 -0.002583015 -0.1367489
vn -0.6037489 -0.01505495 -0.7970324
vn -0.6485263 0.572143 -0.502062
vn -0.8058851 0.5835201 0.1002673
vn -0.7971755 0.01140186 0.60364
vn -0.9906024 -0.002583015 -0.1367489
vn -0.8058851 0.5835201 0.1002673
vn -0.4911673 0.5936667 0.6374282
vn -0.4911673 0.5936667 0.6374282
vn 0 0.7471943 0.6646057
vn 0 0.01888592 0.9998217
vn -0.7971755 0.01140186 0.60364
vn 0.4911673 0.5936667 0.6374282
vn 0 0.01888592 0.9998217
vn 0 0.7471943 0.6646057
vn 0.7971755 0.01140186 0.60364
vn 0.4911673 0.5936667 0.6374282
vn 0.8058851 0.5835201 0.1002673
vn 0.7971755 0.01140186 0.60364
vn 0.9906024 -0.002583012 -0.1367489
vn 0.8058851 0.5835201 0.1002673
vn 0.6485263 0.572143 -0.502062
vn 0.9906024 -0.002583012 -0.1367489
vn 0.6037488 -0.01505495 -0.7970324
vn 0.9356052 0.1890102 -0.2981915
vn 0.6378845 0.5705184 -0.5173124
vn 0.7626124 0.1895365 -0.6184645
vn 0.4849654 0.1890093 -0.8538642
vn 0.7509573 0.649223 -0.1207179
vn 0.2731877 0.6492224 -0.7098442
vn 0.959016 0.1895364 0.2106284
vn 0.6346871 0.7600929 0.139396
vn -0.008053889 0.1895361 -0.9818407
vn -0.005330263 0.7600927 -0.6497928
vn -0.2847955 0.6492226 -0.7052671
vn -0.4989068 0.1890096 -0.8457938
vn 0.646285 0.5705183 0.5067787
vn 0.7726555 0.1895351 0.6058712
vn 0.4989068 0.1890099 0.8457938
vn 0.2847955 0.6492226 0.705267
vn -0.6462848 0.5705187 -0.5067785
vn -0.7726553 0.1895365 -0.6058711
vn 0.008053989 0.1895363 0.9818407
vn 0.005330329 0.7600925 0.649793
vn -0.2731876 0.6492226 0.709844
vn -0.4849651 0.1890099 0.8538643
vn -0.9590159 0.1895369 -0.2106283
vn -0.6346868 0.760093 -0.1393961
vn -0.7509573 0.6492228 0.120718
vn -0.9356052 0.1890097 0.2981918
vn -0.6378843 0.5705186 0.5173125
vn -0.7626123 0.1895363 0.6184645
vn 0.7509573 0.649223 -0.1207179
vn 0 1 0
vn 0.6378845 0.5705184 -0.5173124
vn 0.6346871 0.7600929 0.139396
vn 0.2731877 0.6492224 -0.7098442
vn 0.646285 0.5705183 0.5067787
vn -0.005330263 0.7600927 -0.6497928
vn 0.2847955 0.6492226 0.705267
vn -0.2847955 0.6492226 -0.7052671
vn 0.005330329 0.7600925 0.649793
vn -0.6462848 0.5705187 -0.5067785
vn -0.2731876 0.6492226 0.709844
vn -0.6346868 0.760093 -0.1393961
vn -0.6378843 0.5705186 0.5173125
vn -0.7509573 0.6492228 0.120718
vn 0.6485263 0.572143 -0.502062
vn 0 0.9998217 -0.01888582
vn 0 0.4592691 -0.8882971
vn 0.8058851 0.5835201 0.1002673
vn -0.6485263 0.572143 -0.502062
vn 0.4911673 0.5936667 0.6374282
vn -0.8058851 0.5835201 0.1002673
vn 0 0.7471943 0.6646057
vn -0.4911673 0.5936667 0.6374282
g LVL_10_Body_0
f 3/3/3 2/2/2 1/1/1
f 1/1/1 4/4/4 3/3/3
f 1/1/1 5/5/5 4/4/4
f 5/5/5 6/6/6 4/4/4
f 6/6/6 5/5/5 7/7/7
f 10/10/10 9/9/9 8/8/8
f 8/8/8 11/11/11 10/10/10
f 11/11/11 12/12/12 10/10/10
f 12/12/12 11/11/11 13/13/13
f 13/13/13 14/14/14 12/12/12
f 17/17/17 16/16/16 15/15/15
f 18/18/18 15/15/15 16/16/16
f 19/19/19 18/18/18 16/16/16
f 22/22/22 21/21/21 20/20/20
f 20/20/20 23/23/23 22/22/22
f 22/22/22 23/23/23 24/24/24
f 23/23/23 25/25/25 24/24/24
f 25/25/25 23/23/23 26/26/26
f 27/27/27 25/25/25 26/26/26
f 24/24/24 25/25/25 28/28/28
f 28/28/28 29/29/29 24/24/24
f 30/30/30 22/22/22 24/24/24
f 22/22/22 30/30/30 31/31/31
f 31/31/31 30/30/30 32/32/32
f 32/32/32 33/33/33 31/31/31
f 24/24/24 34/34/34 30/30/30
f 35/35/35 34/34/34 24/24/24
f 36/36/36 34/34/34 35/35/35
f 35/35/35 37/37/37 36/36/36
f 40/40/40 39/39/39 38/38/38
f 39/39/39 40/40/40 41/41/41
f 42/42/42 39/39/39 41/41/41
f 41/41/41 43/43/43 42/42/42
f 44/44/44 42/42/42 43/43/43
f 43/43/43 45/45/45 44/44/44
f 46/46/46 44/44/44 45/45/45
f 47/47/47 42/42/42 44/44/44
f 48/48/48 44/44/44 46/46/46
f 48/48/48 47/47/47 44/44/44
f 46/46/46 49/49/49 48/48/48
f 47/47/47 48/48/48 49/49/49
f 49/49/49 50/50/50 47/47/47
f 51/51/51 47/47/47 50/50/50
f 51/51/51 50/50/50 52/52/52
f 52/52/52 53/53/53 51/51/51
f 56/56/56 55/55/55 54/54/54
f 56/56/56 54/54/54 57/57/57
f 57/57/57 54/54/54 58/58/58
f 58/58/58 59/59/59 57/57/57
f 59/59/59 58/58/58 60/60/60
f 58/58/58 61/61/61 60/60/60
f 64/64/64 63/63/63 62/62/62
f 65/65/65 64/64/64 62/62/62
f 62/62/62 66/66/66 65/65/65
f 69/69/69 68/68/68 67/67/67
f 67/67/67 70/70/70 69/69/69
f 73/73/73 72/72/72 71/71/71
f 72/72/72 74/74/74 71/71/71
f 77/77/77 76/76/76 75/75/75
f 75/75/75 78/78/78 77/77/77
f 81/81/81 80/80/80 79/79/79
f 81/81/81 82/82/82 80/80/80
f 85/85/85 84/84/84 83/83/83
f 83/83/83 86/86/86 85/85/85
f 89/89/89 88/88/88 87/87/87
f 87/87/87 90/90/90 89/89/89
f 93/93/93 92/92/92 91/91/91
f 91/91/91 94/94/94 93/93/93
f 97/97/97 96/96/96 95/95/95
f 95/95/95 98/98/98 97/97/97
f 101/101/101 100/100/100 99/99/99
f 100/100/100 102/102/102 99/99/99
f 105/105/105 104/104/104 103/103/103
f 106/106/106 104/104/104 105/105/105
f 109/109/109 108/108/108 107/107/107
f 110/110/110 108/108/108 109/109/109
f 113/113/113 112/112/112 111/111/111
f 112/112/112 113/113/113 114/114/114
f 111/111/111 112/112/112 115/115/115
f 114/114/114 116/116/116 112/112/112
f 111/111/111 115/115/115 117/117/117
f 118/118/118 117/117/117 115/115/115
f 116/116/116 114/114/114 119/119/119
f 119/119/119 120/120/120 116/116/116
f 121/121/121 120/120/120 119/119/119
f 121/121/121 119/119/119 122/122/122
f 117/117/117 118/118/118 123/123/123
f 123/123/123 124/124/124 117/117/117
f 125/125/125 124/124/124 123/123/123
f 126/126/126 125/125/125 123/123/123
f 127/127/127 121/121/121 122/122/122
f 127/127/127 122/122/122 128/128/128
f 129/129/129 125/125/125 126/126/126
f 130/130/130 129/129/129 126/126/126
f 129/129/129 130/130/130 131/131/131
f 131/131/131 132/132/132 129/129/129
f 127/127/127 128/128/128 133/133/133
f 133/133/133 134/134/134 127/127/127
f 135/135/135 134/134/134 133/133/133
f 133/133/133 136/136/136 135/135/135
f 132/132/132 131/131/131 137/137/137
f 137/137/137 135/135/135 136/136/136
f 137/137/137 138/138/138 132/132/132
f 136/136/136 138/138/138 137/137/137
f 141/141/141 140/140/140 139/139/139
f 139/139/139 140/140/140 142/142/142
f 143/143/143 140/140/140 141/141/141
f 142/142/142 140/140/140 144/144/144
f 145/145/145 140/140/140 143/143/143
f 144/144/144 140/140/140 146/146/146
f 147/147/147 140/140/140 145/145/145
f 146/146/146 140/140/140 148/148/148
f 149/149/149 140/140/140 147/147/147
f 148/148/148 140/140/140 150/150/150
f 151/151/151 140/140/140 149/149/149
f 150/150/150 140/140/140 152/152/152
f 153/153/153 140/140/140 151/151/151
f 152/152/152 140/140/140 153/153/153
f 156/156/156 155/155/155 154/154/154
f 154/154/154 155/155/155 157/157/157
f 158/158/158 155/155/155 156/156/156
f 157/157/157 155/155/155 159/159/159
f 160/160/160 155/155/155 158/158/158
f 159/159/159 155/155/155 161/161/161
f 162/162/162 155/155/155 160/160/160
f 161/161/161 155/155/155 162/162/162
