g LVL_6_Goggles
v -0.1227087 23.28862 5.720366
v -0.6100816 23.77694 6.773477
v -0.8264081 26.97558 5.719878
v -0.3390353 26.87211 4.480217
v -1.324923 27.30831 5.469316
v -0.8375502 27.25196 4.206817
v -4.609791 26.70661 2.997417
v -5.097165 26.7709 4.256072
v -5.541589 26.30383 4.268953
v -5.054217 26.19043 3.034106
v -5.054217 26.19043 3.034106
v -5.541589 26.30383 4.268953
v -4.83789 22.60695 4.274253
v -5.325263 23.10518 5.322554
v -4.33938 22.2272 4.547612
v -4.826754 22.77255 5.573081
v -1.054512 23.30997 6.786328
v -0.5671394 22.77256 5.757014
v -0.1227087 23.28862 5.720366
v -0.6100816 23.77694 6.773477
v -4.397328 23.0944 5.050576
v -4.77418 23.34585 4.861189
v -4.937713 25.76389 4.064717
v -4.601748 26.11697 4.054976
v -1.545681 23.50066 6.031782
v -1.7501 26.52323 5.036181
v -1.209711 23.85367 6.022068
v -1.373245 26.27171 5.225598
v -4.432954 23.28262 5.531899
v -4.819344 23.54044 5.337715
v -4.397328 23.0944 5.050576
v -4.77418 23.34585 4.861189
v -4.937713 25.76389 4.064717
v -4.987017 26.01968 4.521083
v -4.601748 26.11697 4.054976
v -4.642548 26.3817 4.511098
v -1.545681 23.50066 6.031782
v -4.432954 23.28262 5.531899
v -4.397328 23.0944 5.050576
v -1.509128 23.69917 6.531299
v -1.209711 23.85367 6.022068
v -1.164654 24.06111 6.521333
v -1.373245 26.27171 5.225598
v -1.332327 26.54035 5.704708
v -1.718721 26.79824 5.510495
v -1.7501 26.52323 5.036181
v -4.642548 26.3817 4.511098
v -4.601748 26.11697 4.054976
v -5.054217 26.19043 3.034106
v -4.83789 22.60695 4.274253
v -4.33938 22.2272 4.547612
v -0.5671394 22.77256 5.757014
v -4.609791 26.70661 2.997417
v -0.1227087 23.28862 5.720366
v -0.8375502 27.25196 4.206817
v -0.3390353 26.87211 4.480217
v 0.003814832 26.14594 5.797222
v 1.094497 26.12856 5.71012
v 1.030161 24.34807 6.381511
v 0.003814832 24.36403 6.469302
v -1.137906 26.11856 5.686724
v -1.077477 24.33791 6.358191
v 0.003814832 24.36403 6.469302
v 1.030161 24.34807 6.381511
v 0.9874904 23.87462 5.98206
v 0.005142643 23.88172 6.074468
v 1.094497 26.12856 5.71012
v 0.003814832 26.14594 5.797222
v 0.005142643 26.17597 5.154038
v 1.051826 26.16702 5.062527
v 0.003814832 24.36403 6.469302
v -1.032092 23.86492 5.959165
v -1.077477 24.33791 6.358191
v 0.005142643 23.88172 6.074468
v -1.137906 26.11856 5.686724
v 0.005142643 26.17597 5.154038
v 0.003814832 26.14594 5.797222
v -1.092521 26.15753 5.039531
v 0.7488391 26.97558 5.719878
v 0.5325126 23.77694 6.773477
v 0.04513971 23.28862 5.720366
v 0.2614664 26.87211 4.480217
v 1.247354 27.30831 5.469316
v 0.7599813 27.25196 4.206817
v 4.532223 26.70661 2.997417
v 5.019596 26.7709 4.256072
v 5.46402 26.30383 4.268953
v 4.976647 26.19043 3.034106
v 4.760321 22.60695 4.274253
v 5.46402 26.30383 4.268953
v 4.976647 26.19043 3.034106
v 5.247693 23.10518 5.322554
v 4.261811 22.2272 4.547612
v 4.749184 22.77255 5.573081
v 0.9769432 23.30997 6.786328
v 0.4895703 22.77256 5.757014
v 0.04513971 23.28862 5.720366
v 0.5325126 23.77694 6.773477
v 1.306329 26.22222 5.138403
v 1.681294 26.47249 4.949939
v 1.143617 23.81632 5.930879
v 1.477901 23.46508 5.940544
v 4.518636 26.06826 3.972339
v 4.315242 23.06086 4.962944
v 4.852917 25.71695 3.982026
v 4.690203 23.31105 4.774504
v 4.563535 26.38046 4.511906
v 4.907687 26.01877 4.521884
v 4.518636 26.06826 3.972339
v 4.852917 25.71695 3.982026
v 4.740169 23.54182 5.337764
v 4.690203 23.31105 4.774504
v 4.315242 23.06086 4.962944
v 4.354135 23.28424 5.53177
v 1.681294 26.47249 4.949939
v 4.563535 26.38046 4.511906
v 4.518636 26.06826 3.972339
v 1.642402 26.79663 5.510625
v 1.306329 26.22222 5.138403
v 1.256364 26.53896 5.704658
v 1.088845 24.06201 6.520537
v 1.143617 23.81632 5.930879
v 1.433002 23.7004 6.530486
v 1.477901 23.46508 5.940544
v 4.354135 23.28424 5.53177
v 4.315242 23.06086 4.962944
v 0.7599813 27.25196 4.206817
v 0.2614664 26.87211 4.480217
v 0.04513971 23.28862 5.720366
v 4.532223 26.70661 2.997417
v 0.4895703 22.77256 5.757014
v 4.976647 26.19043 3.034106
v 4.261811 22.2272 4.547612
v 4.760321 22.60695 4.274253
v -4.432954 23.28262 5.531899
v -1.509128 23.69917 6.531299
v -1.054512 23.30997 6.786328
v -1.164654 24.06111 6.521333
v -4.826754 22.77255 5.573081
v -0.6100816 23.77694 6.773477
v -4.819344 23.54044 5.337715
v -5.325263 23.10518 5.322554
v -5.541589 26.30383 4.268953
v -4.987017 26.01968 4.521083
v -1.332327 26.54035 5.704708
v -0.8264081 26.97558 5.719878
v -1.324923 27.30831 5.469316
v -1.718721 26.79824 5.510495
v -5.097165 26.7709 4.256072
v -4.642548 26.3817 4.511098
v 4.907687 26.01877 4.521884
v 4.563535 26.38046 4.511906
v 5.019596 26.7709 4.256072
v 1.642402 26.79663 5.510625
v 5.46402 26.30383 4.268953
v 1.247354 27.30831 5.469316
v 4.740169 23.54182 5.337764
v 5.247693 23.10518 5.322554
v 4.749184 22.77255 5.573081
v 4.354135 23.28424 5.53177
v 1.256364 26.53896 5.704658
v 0.7488391 26.97558 5.719878
v 0.5325126 23.77694 6.773477
v 1.088845 24.06201 6.520537
v 0.9769432 23.30997 6.786328
v 1.433002 23.7004 6.530486
vt 0.5391526 0.01202094
vt 0.5391526 0.1175644
vt 0.6426547 0.1175644
vt 0.6426547 0.01202094
vt 0.6555908 0.1175644
vt 0.6555908 0.01202094
vt 0.759093 0.01202094
vt 0.759093 0.1175644
vt 0.772029 0.1175644
vt 0.772029 0.01202094
vt 0.5273379 0.01202094
vt 0.5273379 0.1175644
vt 0.6308402 0.01202094
vt 0.6308402 0.1175644
vt 0.6567124 0.01202094
vt 0.6567124 0.1175644
vt 0.7602145 0.1175644
vt 0.7602145 0.01202094
vt 0.7860869 0.01202094
vt 0.7860869 0.1175644
vt 0.8533015 0.03610316
vt 0.8414466 0.04795814
vt 0.8414466 0.142809
vt 0.8533015 0.154664
vt 0.9481523 0.03610316
vt 0.9481523 0.154664
vt 0.9600073 0.04795814
vt 0.9600073 0.142809
vt 0.8099021 0.007395475
vt 0.8107374 0.007005691
vt 0.8100091 0.004170704
vt 0.8108238 0.003790545
vt 0.8174786 0.005906223
vt 0.8175606 0.009174942
vt 0.8183278 0.006815313
vt 0.8184314 0.01010707
vt 0.8101464 0.009328156
vt 0.8099021 0.007395475
vt 0.8100091 0.004170704
vt 0.8100429 0.01268354
vt 0.8109953 0.01023725
vt 0.8109133 0.01361558
vt 0.8176503 0.01235297
vt 0.8177366 0.01578483
vt 0.818572 0.01539513
vt 0.8184651 0.01197287
vt 0.8184314 0.01010707
vt 0.8183278 0.006815313
vt 0.9637698 0.02075547
vt 0.9637799 0.02538073
vt 0.9643559 0.02595894
vt 0.9689546 0.02595971
vt 0.9643432 0.0201773
vt 0.9695281 0.02538168
vt 0.968942 0.02017806
vt 0.969518 0.02075642
vt 0.04812385 0.2260802
vt 0.08575448 0.2260802
vt 0.08575448 0.153403
vt 0.04812385 0.153403
vt 0.0118009 0.2260802
vt 0.0118009 0.153403
vt 0.7490347 0.05116469
vt 0.7490347 0.01928353
vt 0.7273282 0.01928353
vt 0.7273282 0.05116469
vt 0.7273282 0.01928353
vt 0.7273282 0.05116469
vt 0.7490347 0.05116469
vt 0.7490347 0.01928353
vt 0.7490347 0.02021265
vt 0.7273282 0.05023575
vt 0.7490347 0.05023575
vt 0.7273282 0.02021265
vt 0.7273283 0.05023575
vt 0.7490347 0.02021271
vt 0.7273283 0.02021271
vt 0.7490347 0.05023575
vt 0.6426547 0.1175644
vt 0.5391526 0.1175644
vt 0.5391526 0.01202094
vt 0.6426547 0.01202094
vt 0.6555908 0.1175644
vt 0.6555908 0.01202094
vt 0.759093 0.01202094
vt 0.759093 0.1175644
vt 0.772029 0.1175644
vt 0.772029 0.01202094
vt 0.6308402 0.01202094
vt 0.5273379 0.1175644
vt 0.5273379 0.01202094
vt 0.6308402 0.1175644
vt 0.6567124 0.01202094
vt 0.6567124 0.1175644
vt 0.7602145 0.1175644
vt 0.7602145 0.01202094
vt 0.7860869 0.01202094
vt 0.7860869 0.1175644
vt 0.8414466 0.142809
vt 0.8533015 0.1546638
vt 0.8414466 0.04795803
vt 0.8533015 0.03610316
vt 0.9481524 0.1546638
vt 0.9481524 0.03610316
vt 0.9600073 0.142809
vt 0.9600073 0.04795803
vt 0.8184274 0.01010826
vt 0.8175576 0.009176969
vt 0.8183073 0.006216913
vt 0.8174623 0.005312352
vt 0.8107406 0.007009714
vt 0.8108409 0.00320729
vt 0.8100303 0.003585559
vt 0.8099061 0.007399171
vt 0.8184439 0.01134857
vt 0.8184274 0.01010826
vt 0.8183073 0.006216913
vt 0.8185681 0.01539138
vt 0.817633 0.01172683
vt 0.8177334 0.01578078
vt 0.8109164 0.01361355
vt 0.8110116 0.009621649
vt 0.8100467 0.01268235
vt 0.810167 0.008717149
vt 0.8099061 0.007399171
vt 0.8100303 0.003585559
vt 0.9643558 0.02017818
vt 0.9637797 0.02075657
vt 0.9637699 0.02538183
vt 0.9689544 0.02017719
vt 0.9643434 0.02595981
vt 0.969528 0.02075532
vt 0.9689421 0.02595882
vt 0.9695181 0.02538059
vt 0.9664523 0.1473331
vt 0.9664523 0.03599156
vt 0.9866507 0.01912223
vt 0.9535655 0.02453989
vt 0.9866507 0.1627723
vt 0.9689033 0.004347766
vt 0.9530436 0.1637134
vt 0.9682299 0.1844887
vt 0.832517 0.1844887
vt 0.8478539 0.1637134
vt 0.8483757 0.02453989
vt 0.8331902 0.004347766
vt 0.8149894 0.02548136
vt 0.8349636 0.04092044
vt 0.8149894 0.1691313
vt 0.8349636 0.152262
vt 0.9538359 0.02460598
vt 0.9664021 0.03634337
vt 0.9866642 0.0195074
vt 0.9664021 0.1475793
vt 0.9693154 0.004350418
vt 0.9866642 0.1631535
vt 0.8487263 0.02460598
vt 0.8335809 0.004350418
vt 0.8149758 0.0250998
vt 0.8350137 0.04067389
vt 0.9526862 0.1636475
vt 0.9678308 0.1844862
vt 0.8320961 0.1844862
vt 0.8475767 0.1636475
vt 0.8149758 0.1687458
vt 0.8350137 0.1519101
vn 0.9061741 -0.3703847 -0.2041166
vn 0.1917318 0.1227807 0.973737
vn 0.4915616 0.4833679 0.7243775
vn 0.8168445 0.5684263 -0.09826836
vn -0.01105231 0.8485695 0.5289685
vn 0.4340837 0.522006 -0.7342214
vn -0.1675996 0.539546 -0.8251064
vn -0.4301527 0.5823035 0.6898488
vn -0.8749135 0.3761138 0.3050652
vn -0.2114367 -0.1373261 -0.9676962
vn -0.2114367 -0.1373261 -0.9676962
vn -0.8749135 0.3761138 0.3050652
vn -0.724668 -0.4693145 -0.5045793
vn -0.793013 -0.3448987 0.5021706
vn -0.1642558 -0.9717175 -0.1696615
vn -0.4010918 -0.2098663 0.8916734
vn -0.0004258714 -0.2961217 0.9551501
vn 0.476474 -0.7147191 -0.5120051
vn 0.9061741 -0.3703847 -0.2041166
vn 0.1917318 0.1227807 0.973737
vn 0.09036203 0.8628018 0.4974009
vn 0.7091205 0.5893924 0.3869944
vn 0.663288 0.03847443 0.7473745
vn 0.07320104 -0.2998487 0.9511742
vn -0.4070321 0.8085035 0.4250259
vn -0.3453502 -0.3249198 0.880432
vn -0.7753699 0.4915496 0.3964601
vn -0.8457486 -0.2562543 0.4680204
vn -0.08799859 0.8874223 0.4524797
vn 0.4431073 0.5796729 0.6838385
vn 0.09036203 0.8628018 0.4974009
vn 0.7091205 0.5893924 0.3869944
vn 0.663288 0.03847443 0.7473745
vn 0.3796509 -0.07563048 0.9220332
vn 0.07320104 -0.2998487 0.9511742
vn -0.01288033 -0.4962752 0.8680696
vn -0.4070321 0.8085035 0.4250259
vn -0.08799859 0.8874223 0.4524797
vn 0.09036203 0.8628018 0.4974009
vn -0.5697405 0.768957 0.2900015
vn -0.7753699 0.4915496 0.3964601
vn -0.7486997 0.3103468 0.5857762
vn -0.8457486 -0.2562543 0.4680204
vn -0.5420189 0.09134593 0.8353869
vn -0.4699176 -0.2768528 0.8381706
vn -0.3453502 -0.3249198 0.880432
vn -0.01288033 -0.4962752 0.8680696
vn 0.07320104 -0.2998487 0.9511742
vn -0.2114367 -0.1373261 -0.9676962
vn -0.724668 -0.4693145 -0.5045793
vn -0.1642558 -0.9717175 -0.1696615
vn 0.476474 -0.7147191 -0.5120051
vn -0.1675996 0.539546 -0.8251064
vn 0.9061741 -0.3703847 -0.2041166
vn 0.4340837 0.522006 -0.7342214
vn 0.8168445 0.5684263 -0.09826836
vn 0.01380098 0.7257041 0.6878684
vn 0.04415904 0.9135011 0.4044325
vn 0.0835793 0.02048972 0.9962904
vn -0.02187666 -0.2490019 0.9682559
vn -0.07588819 0.8053344 0.5879433
vn -0.09652619 -0.1733676 0.9801154
vn -0.02187666 -0.2490019 0.9682559
vn 0.0835793 0.02048972 0.9962904
vn 0.06154073 -0.6393529 0.7664468
vn -0.003743486 -0.6334442 0.7737793
vn 0.04415904 0.9135011 0.4044325
vn 0.01380098 0.7257041 0.6878684
vn -0.004510082 0.9986089 0.05253584
vn 0.013642 0.9982013 0.05837889
vn -0.02187666 -0.2490019 0.9682559
vn -0.06899606 -0.6394467 0.7657332
vn -0.09652619 -0.1733676 0.9801154
vn -0.003743486 -0.6334442 0.7737793
vn -0.07588819 0.8053344 0.5879433
vn -0.004510082 0.9986089 0.05253584
vn 0.01380098 0.7257041 0.6878684
vn -0.02286782 0.998026 0.05849101
vn -0.4915608 0.4833676 0.7243782
vn -0.1917348 0.1227802 0.9737366
vn -0.9061741 -0.3703847 -0.2041166
vn -0.8168445 0.5684263 -0.09826844
vn 0.01105201 0.8485691 0.5289692
vn -0.4340836 0.522006 -0.7342214
vn 0.1675997 0.5395457 -0.8251064
vn 0.4301672 0.5822895 0.6898516
vn 0.8749138 0.3761134 0.305065
vn 0.2114367 -0.1373263 -0.9676962
vn 0.7246682 -0.4693146 -0.5045787
vn 0.8749138 0.3761134 0.305065
vn 0.2114367 -0.1373263 -0.9676962
vn 0.7930131 -0.3448986 0.5021706
vn 0.164256 -0.9717175 -0.1696614
vn 0.4010924 -0.209867 0.891673
vn 0.0004378328 -0.2961349 0.955146
vn -0.476474 -0.7147191 -0.5120052
vn -0.9061741 -0.3703847 -0.2041166
vn -0.1917348 0.1227802 0.9737366
vn 0.8452839 -0.2555416 0.469248
vn 0.34539 -0.3251421 0.8803342
vn 0.7749137 0.4915412 0.3973613
vn 0.4071148 0.8085908 0.4247803
vn -0.07384863 -0.3012478 0.9506819
vn -0.09101377 0.8635241 0.4960269
vn -0.6660866 0.03703993 0.7449542
vn -0.7115839 0.5889958 0.3830566
vn 0.01239818 -0.4975232 0.8673621
vn -0.38155 -0.07701132 0.9211345
vn -0.07384863 -0.3012478 0.9506819
vn -0.6660866 0.03703993 0.7449542
vn -0.4450597 0.5800773 0.6822258
vn -0.7115839 0.5889958 0.3830566
vn -0.09101377 0.8635241 0.4960269
vn 0.08765075 0.8879673 0.4514769
vn 0.34539 -0.3251421 0.8803342
vn 0.01239818 -0.4975232 0.8673621
vn -0.07384863 -0.3012478 0.9506819
vn 0.469853 -0.2767906 0.8382273
vn 0.8452839 -0.2555416 0.469248
vn 0.5417089 0.09154943 0.8355658
vn 0.7480586 0.3104718 0.5865285
vn 0.7749137 0.4915412 0.3973613
vn 0.5697036 0.7688976 0.2902315
vn 0.4071148 0.8085908 0.4247803
vn 0.08765075 0.8879673 0.4514769
vn -0.09101377 0.8635241 0.4960269
vn -0.4340836 0.522006 -0.7342214
vn -0.8168445 0.5684263 -0.09826844
vn -0.9061741 -0.3703847 -0.2041166
vn 0.1675997 0.5395457 -0.8251064
vn -0.476474 -0.7147191 -0.5120052
vn 0.2114367 -0.1373263 -0.9676962
vn 0.164256 -0.9717175 -0.1696614
vn 0.7246682 -0.4693146 -0.5045787
vn -0.08799859 0.8874223 0.4524797
vn -0.5697405 0.768957 0.2900015
vn -0.0004258714 -0.2961217 0.9551501
vn -0.7486997 0.3103468 0.5857762
vn -0.4010918 -0.2098663 0.8916734
vn 0.1917318 0.1227807 0.973737
vn 0.4431073 0.5796729 0.6838385
vn -0.793013 -0.3448987 0.5021706
vn -0.8749135 0.3761138 0.3050652
vn 0.3796509 -0.07563048 0.9220332
vn -0.5420189 0.09134593 0.8353869
vn 0.4915616 0.4833679 0.7243775
vn -0.01105231 0.8485695 0.5289685
vn -0.4699176 -0.2768528 0.8381706
vn -0.4301527 0.5823035 0.6898488
vn -0.01288033 -0.4962752 0.8680696
vn -0.38155 -0.07701132 0.9211345
vn 0.01239818 -0.4975232 0.8673621
vn 0.4301672 0.5822895 0.6898516
vn 0.469853 -0.2767906 0.8382273
vn 0.8749138 0.3761134 0.305065
vn 0.01105201 0.8485691 0.5289692
vn -0.4450597 0.5800773 0.6822258
vn 0.7930131 -0.3448986 0.5021706
vn 0.4010924 -0.209867 0.891673
vn 0.08765075 0.8879673 0.4514769
vn 0.5417089 0.09154943 0.8355658
vn -0.4915608 0.4833676 0.7243782
vn -0.1917348 0.1227802 0.9737366
vn 0.7480586 0.3104718 0.5865285
vn 0.0004378328 -0.2961349 0.955146
vn 0.5697036 0.7688976 0.2902315
g LVL_6_Goggles_0
f 3/3/3 2/2/2 1/1/1
f 1/1/1 4/4/4 3/3/3
f 4/4/4 5/5/5 3/3/3
f 5/5/5 4/4/4 6/6/6
f 5/5/5 6/6/6 7/7/7
f 7/7/7 8/8/8 5/5/5
f 9/9/9 8/8/8 7/7/7
f 7/7/7 10/10/10 9/9/9
f 13/13/13 12/12/12 11/11/11
f 13/13/13 14/14/14 12/12/12
f 14/14/14 13/13/13 15/15/15
f 15/15/15 16/16/16 14/14/14
f 17/17/17 16/16/16 15/15/15
f 15/15/15 18/18/18 17/17/17
f 17/17/17 18/18/18 19/19/19
f 19/19/19 20/20/20 17/17/17
f 23/23/23 22/22/22 21/21/21
f 21/21/21 24/24/24 23/23/23
f 24/24/24 21/21/21 25/25/25
f 25/25/25 26/26/26 24/24/24
f 25/25/25 27/27/27 26/26/26
f 28/28/28 26/26/26 27/27/27
f 31/31/31 30/30/30 29/29/29
f 30/30/30 31/31/31 32/32/32
f 30/30/30 32/32/32 33/33/33
f 33/33/33 34/34/34 30/30/30
f 34/34/34 33/33/33 35/35/35
f 35/35/35 36/36/36 34/34/34
f 39/39/39 38/38/38 37/37/37
f 40/40/40 37/37/37 38/38/38
f 41/41/41 37/37/37 40/40/40
f 41/41/41 40/40/40 42/42/42
f 43/43/43 41/41/41 42/42/42
f 42/42/42 44/44/44 43/43/43
f 43/43/43 44/44/44 45/45/45
f 45/45/45 46/46/46 43/43/43
f 46/46/46 45/45/45 47/47/47
f 47/47/47 48/48/48 46/46/46
f 51/51/51 50/50/50 49/49/49
f 49/49/49 52/52/52 51/51/51
f 52/52/52 49/49/49 53/53/53
f 54/54/54 52/52/52 53/53/53
f 53/53/53 55/55/55 54/54/54
f 55/55/55 56/56/56 54/54/54
f 59/59/59 58/58/58 57/57/57
f 57/57/57 60/60/60 59/59/59
f 60/60/60 57/57/57 61/61/61
f 61/61/61 62/62/62 60/60/60
f 65/65/65 64/64/64 63/63/63
f 63/63/63 66/66/66 65/65/65
f 69/69/69 68/68/68 67/67/67
f 67/67/67 70/70/70 69/69/69
f 73/73/73 72/72/72 71/71/71
f 72/72/72 74/74/74 71/71/71
f 77/77/77 76/76/76 75/75/75
f 76/76/76 78/78/78 75/75/75
f 81/81/81 80/80/80 79/79/79
f 79/79/79 82/82/82 81/81/81
f 82/82/82 79/79/79 83/83/83
f 84/84/84 82/82/82 83/83/83
f 84/84/84 83/83/83 85/85/85
f 86/86/86 85/85/85 83/83/83
f 86/86/86 87/87/87 85/85/85
f 88/88/88 85/85/85 87/87/87
f 91/91/91 90/90/90 89/89/89
f 92/92/92 89/89/89 90/90/90
f 93/93/93 89/89/89 92/92/92
f 92/92/92 94/94/94 93/93/93
f 93/93/93 94/94/94 95/95/95
f 95/95/95 96/96/96 93/93/93
f 97/97/97 96/96/96 95/95/95
f 95/95/95 98/98/98 97/97/97
f 101/101/101 100/100/100 99/99/99
f 100/100/100 101/101/101 102/102/102
f 102/102/102 103/103/103 100/100/100
f 103/103/103 102/102/102 104/104/104
f 105/105/105 103/103/103 104/104/104
f 104/104/104 106/106/106 105/105/105
f 109/109/109 108/108/108 107/107/107
f 109/109/109 110/110/110 108/108/108
f 111/111/111 108/108/108 110/110/110
f 110/110/110 112/112/112 111/111/111
f 111/111/111 112/112/112 113/113/113
f 113/113/113 114/114/114 111/111/111
f 117/117/117 116/116/116 115/115/115
f 118/118/118 115/115/115 116/116/116
f 118/118/118 119/119/119 115/115/115
f 119/119/119 118/118/118 120/120/120
f 119/119/119 120/120/120 121/121/121
f 121/121/121 122/122/122 119/119/119
f 122/122/122 121/121/121 123/123/123
f 123/123/123 124/124/124 122/122/122
f 124/124/124 123/123/123 125/125/125
f 125/125/125 126/126/126 124/124/124
f 129/129/129 128/128/128 127/127/127
f 129/129/129 127/127/127 130/130/130
f 131/131/131 129/129/129 130/130/130
f 130/130/130 132/132/132 131/131/131
f 133/133/133 131/131/131 132/132/132
f 132/132/132 134/134/134 133/133/133
f 137/137/137 136/136/136 135/135/135
f 138/138/138 136/136/136 137/137/137
f 135/135/135 139/139/139 137/137/137
f 138/138/138 137/137/137 140/140/140
f 139/139/139 135/135/135 141/141/141
f 141/141/141 142/142/142 139/139/139
f 142/142/142 141/141/141 143/143/143
f 144/144/144 143/143/143 141/141/141
f 145/145/145 138/138/138 140/140/140
f 146/146/146 145/145/145 140/140/140
f 145/145/145 146/146/146 147/147/147
f 147/147/147 148/148/148 145/145/145
f 149/149/149 143/143/143 144/144/144
f 148/148/148 147/147/147 149/149/149
f 144/144/144 150/150/150 149/149/149
f 149/149/149 150/150/150 148/148/148
f 153/153/153 152/152/152 151/151/151
f 154/154/154 152/152/152 153/153/153
f 151/151/151 155/155/155 153/153/153
f 156/156/156 154/154/154 153/153/153
f 155/155/155 151/151/151 157/157/157
f 157/157/157 158/158/158 155/155/155
f 157/157/157 159/159/159 158/158/158
f 159/159/159 157/157/157 160/160/160
f 161/161/161 154/154/154 156/156/156
f 156/156/156 162/162/162 161/161/161
f 161/161/161 162/162/162 163/163/163
f 163/163/163 164/164/164 161/161/161
f 159/159/159 160/160/160 165/165/165
f 164/164/164 163/163/163 165/165/165
f 160/160/160 166/166/166 165/165/165
f 165/165/165 166/166/166 164/164/164
