g LVL_1_Aerial
v 4.716249 19.95507 -13.18851
v 4.552368 20.06993 -12.75076
v 4.545855 23.7305 -14.25108
v 4.668322 23.63388 -14.57499
v 4.539302 27.41327 -15.7605
v 4.311428 19.95507 -13.17709
v 4.620104 27.335 -15.96988
v 4.526682 34.50592 -16.98197
v 4.365943 23.64022 -14.56812
v 4.420789 27.34772 -15.96758
v 4.539302 27.41327 -15.7605
v 4.545855 23.7305 -14.25108
v 4.552368 20.06993 -12.75076
v 4.520734 19.01401 -13.73238
v 5.184068 19.07022 -13.46342
v 4.520734 19.92319 -13.9224
v 5.184068 19.9794 -13.65345
v 3.8574 19.07022 -13.46342
v 4.520734 19.01401 -13.73238
v 4.520734 19.92319 -13.9224
v 3.8574 19.9794 -13.65345
v 3.8574 19.07022 -13.46342
v 3.8574 19.9794 -13.65345
v 3.582639 20.11511 -13.00415
v 3.582639 19.20593 -12.81412
v 3.582639 19.20593 -12.81412
v 3.582639 20.11511 -13.00415
v 3.8574 20.25082 -12.35484
v 3.8574 19.34164 -12.16482
v 3.8574 20.25082 -12.35484
v 4.520734 20.30703 -12.08589
v 4.520734 19.39785 -11.89587
v 3.8574 19.34164 -12.16482
v 5.184068 20.25082 -12.35484
v 4.520734 19.39785 -11.89587
v 4.520734 20.30703 -12.08589
v 5.184068 19.34164 -12.16482
v 5.184068 20.25082 -12.35484
v 5.458829 20.11511 -13.00415
v 5.458829 19.20593 -12.81412
v 5.184068 19.34164 -12.16482
v 5.458829 20.11511 -13.00415
v 5.184068 19.9794 -13.65345
v 5.184068 19.07022 -13.46342
v 5.458829 19.20593 -12.81412
v 5.054309 33.89667 -17.89584
v 5.135934 34.50592 -18.03722
v 3.91743 34.50592 -18.03722
v 5.745186 34.50592 -16.98197
v 3.999054 33.89667 -17.89584
v 3.308178 34.50592 -16.98197
v 5.581938 33.89667 -16.98197
v 5.054309 33.89667 -16.06809
v 5.135934 34.50592 -15.92671
v 3.999054 33.89667 -16.06809
v 3.91743 34.50592 -15.92671
v 3.471427 33.89667 -16.98197
v 3.91743 33.45067 -16.98197
v 4.222056 33.45067 -17.50959
v 4.831308 33.45067 -17.50959
v 4.222056 33.45067 -16.45434
v 4.526682 33.28742 -16.98197
v 5.135934 33.45067 -16.98197
v 4.831308 33.45067 -16.45434
v 3.91743 34.50592 -18.03722
v 5.135934 34.50592 -18.03722
v 5.054309 35.11518 -17.89584
v 5.745186 34.50592 -16.98197
v 3.999054 35.11518 -17.89584
v 3.308178 34.50592 -16.98197
v 5.581938 35.11518 -16.98197
v 5.054309 35.11518 -16.06809
v 5.135934 34.50592 -15.92671
v 3.999054 35.11518 -16.06809
v 3.91743 34.50592 -15.92671
v 3.471427 35.11518 -16.98197
v 3.91743 35.56118 -16.98197
v 4.222056 35.56118 -17.50959
v 4.831308 35.56118 -17.50959
v 5.135934 35.56118 -16.98197
v 4.526682 35.72443 -16.98197
v 4.831308 35.56118 -16.45434
v 4.222056 35.56118 -16.45434
v 5.184068 19.9794 -13.65345
v 4.520734 20.11511 -13.00415
v 4.520734 19.92319 -13.9224
v 5.458829 20.11511 -13.00415
v 3.8574 19.9794 -13.65345
v 5.184068 20.25082 -12.35484
v 3.582639 20.11511 -13.00415
v 4.520734 20.30703 -12.08589
v 3.8574 20.25082 -12.35484
vt 0.334175 0.1671111
vt 0.3298213 0.1658295
vt 0.3292865 0.1699716
vt 0.332541 0.170917
vt 0.3287484 0.1741389
vt 0.3371022 0.1681617
vt 0.3308972 0.1747459
vt 0.3277121 0.1821645
vt 0.3347241 0.1717081
vt 0.3323315 0.175276
vt 0.3334062 0.1757258
vt 0.3363628 0.1723825
vt 0.3393015 0.1690595
vt 0.6355173 0.9557047
vt 0.625585 0.9557047
vt 0.6355173 0.982296
vt 0.625585 0.982296
vt 0.6355173 0.9557047
vt 0.6255849 0.9557047
vt 0.6255849 0.982296
vt 0.6355173 0.982296
vt 0.6255849 0.9557047
vt 0.6255849 0.982296
vt 0.6355174 0.982296
vt 0.6355174 0.9557047
vt 0.6255849 0.9557047
vt 0.6255849 0.982296
vt 0.6355174 0.982296
vt 0.6355174 0.9557047
vt 0.625585 0.982296
vt 0.6355174 0.982296
vt 0.6355174 0.9557047
vt 0.625585 0.9557047
vt 0.6355173 0.982296
vt 0.6255849 0.9557047
vt 0.6255849 0.982296
vt 0.6355173 0.9557047
vt 0.625585 0.982296
vt 0.6355174 0.982296
vt 0.6355174 0.9557047
vt 0.625585 0.9557047
vt 0.625585 0.982296
vt 0.6355174 0.982296
vt 0.6355174 0.9557047
vt 0.625585 0.9557047
vt 0.4163919 0.350254
vt 0.420524 0.35232
vt 0.420524 0.3214776
vt 0.3896815 0.3677413
vt 0.4163919 0.3235437
vt 0.3893818 0.3059815
vt 0.3896815 0.3636092
vt 0.3601988 0.350254
vt 0.3560666 0.35232
vt 0.3603487 0.3228693
vt 0.3562165 0.3208032
vt 0.3893818 0.3101135
vt 0.3896815 0.3214776
vt 0.4051028 0.3291882
vt 0.4051028 0.3446095
vt 0.3742603 0.3291882
vt 0.3896815 0.3368989
vt 0.3896815 0.35232
vt 0.3742603 0.3446095
vt 0.420524 0.3214776
vt 0.420524 0.35232
vt 0.4163919 0.350254
vt 0.3896815 0.3677413
vt 0.4163919 0.3235437
vt 0.3893818 0.3059815
vt 0.3896815 0.3636092
vt 0.3601988 0.350254
vt 0.3560666 0.35232
vt 0.3603487 0.3228693
vt 0.3562165 0.3208032
vt 0.3893818 0.3101135
vt 0.3896815 0.3214776
vt 0.4051028 0.3291882
vt 0.4051028 0.3446095
vt 0.3896815 0.35232
vt 0.3896815 0.3368989
vt 0.3742603 0.3446095
vt 0.3742603 0.3291882
vt 0.5565584 0.8484141
vt 0.5307438 0.8211392
vt 0.5307438 0.8591067
vt 0.567251 0.8225995
vt 0.5049292 0.8484141
vt 0.5565584 0.796785
vt 0.4942365 0.8225995
vt 0.5307438 0.7860923
vt 0.5049292 0.796785
vn 0.9858272 -0.04781898 -0.1608043
vn 0.07606383 0.3782588 0.9225696
vn 0.07622491 0.3783346 0.9225252
vn 0.810805 -0.1971158 -0.5511267
vn 0.07663661 0.3100622 0.9476225
vn -0.8674825 -0.1645019 -0.4694819
vn 0.6153165 -0.2241771 -0.7557317
vn 0.2360713 0.003211745 -0.9717304
vn -0.8679672 -0.1641847 -0.4686964
vn -0.868571 -0.1111728 -0.4829336
vn 0.07663661 0.3100622 0.9476225
vn 0.07622491 0.3783346 0.9225252
vn 0.07606383 0.3782588 0.9225696
vn 0 -0.2045847 -0.9788488
vn 0.7071074 -0.1446628 -0.6921502
vn 0 0.2859713 -0.9582382
vn 0.4798417 0.6208061 -0.6199611
vn -0.7071074 -0.1446628 -0.69215
vn 0 -0.2045847 -0.9788488
vn 0 0.2859713 -0.9582382
vn -0.4798418 0.6208062 -0.619961
vn -0.7071074 -0.1446628 -0.69215
vn -0.4798418 0.6208062 -0.619961
vn -0.8058851 0.5464588 -0.2278857
vn -0.9906024 0.02798171 0.1338805
vn -0.9906024 0.02798171 0.1338805
vn -0.8058851 0.5464588 -0.2278857
vn -0.6218764 0.5931218 0.5113475
vn -0.7071077 0.1446629 0.6921499
vn -0.6218764 0.5931218 0.5113475
vn 0 0.8578045 0.513976
vn 0 0.2045846 0.9788489
vn -0.7071077 0.1446629 0.6921499
vn 0.6218763 0.5931218 0.5113477
vn 0 0.2045846 0.9788489
vn 0 0.8578045 0.513976
vn 0.7071074 0.1446629 0.69215
vn 0.6218763 0.5931218 0.5113477
vn 0.8058851 0.5464588 -0.2278858
vn 0.9906024 0.02798175 0.1338807
vn 0.7071074 0.1446629 0.69215
vn 0.8058851 0.5464588 -0.2278858
vn 0.4798417 0.6208061 -0.6199611
vn 0.7071074 -0.1446628 -0.6921502
vn 0.9906024 0.02798175 0.1338807
vn 0.3856923 -0.4723661 -0.792535
vn 0.5 0 -0.8660254
vn -0.3273267 0 -0.9449112
vn 1 0 0
vn -0.566978 -0.4999169 -0.6546901
vn -1 0 0
vn 0.8308592 -0.5497957 -0.0860092
vn 0.4885326 -0.5374805 0.6873503
vn 0.3273267 0 0.9449112
vn -0.4935093 -0.4723661 0.7302868
vn -0.5 0 0.8660254
vn -0.8620929 -0.5067503 0
vn -0.5685862 -0.8226236 0
vn -0.1973781 -0.8398175 -0.5057158
vn 0.3392736 -0.8398173 -0.4237927
vn -0.1973781 -0.8398175 0.5057158
vn 0 -1 0
vn 0.5366518 -0.8398175 0.08192348
vn 0.2461604 -0.8704135 0.4263629
vn -0.3273267 0 -0.9449112
vn 0.5 0 -0.8660254
vn 0.3856922 0.472366 -0.7925351
vn 1 0 0
vn -0.566978 0.4999169 -0.65469
vn -1 0 0
vn 0.8308592 0.5497957 -0.0860092
vn 0.566978 0.4999168 0.6546901
vn 0.3273267 0 0.9449112
vn -0.4310462 0.5067506 0.7465941
vn -0.5 0 0.8660254
vn -0.8620929 0.5067503 0
vn -0.5685862 0.8226237 0
vn -0.1973781 0.8398175 -0.5057158
vn 0.3392736 0.8398173 -0.4237927
vn 0.5366518 0.8398175 0.08192347
vn 0 1 0
vn 0.1973781 0.8398175 0.5057158
vn -0.2461604 0.8704135 0.4263629
vn 0.4798417 0.6208061 -0.6199611
vn 0 0.9788491 -0.2045838
vn 0 0.2859713 -0.9582382
vn 0.8058851 0.5464588 -0.2278858
vn -0.4798418 0.6208062 -0.619961
vn 0.6218763 0.5931218 0.5113477
vn -0.8058851 0.5464588 -0.2278857
vn 0 0.8578045 0.513976
vn -0.6218764 0.5931218 0.5113475
g LVL_1_Aerial_0
f 3/3/3 2/2/2 1/1/1
f 1/1/1 4/4/4 3/3/3
f 5/5/5 3/3/3 4/4/4
f 4/4/4 1/1/1 6/6/6
f 4/4/4 7/7/7 5/5/5
f 7/7/7 8/8/8 5/5/5
f 6/6/6 9/9/9 4/4/4
f 7/7/7 4/4/4 9/9/9
f 10/10/10 8/8/8 7/7/7
f 9/9/9 10/10/10 7/7/7
f 11/11/11 8/8/8 10/10/10
f 9/9/9 11/11/11 10/10/10
f 9/9/9 12/12/12 11/11/11
f 6/6/6 12/12/12 9/9/9
f 6/6/6 13/13/13 12/12/12
f 16/16/16 15/15/15 14/14/14
f 16/16/16 17/17/17 15/15/15
f 20/20/20 19/19/19 18/18/18
f 18/18/18 21/21/21 20/20/20
f 24/24/24 23/23/23 22/22/22
f 22/22/22 25/25/25 24/24/24
f 28/28/28 27/27/27 26/26/26
f 26/26/26 29/29/29 28/28/28
f 32/32/32 31/31/31 30/30/30
f 30/30/30 33/33/33 32/32/32
f 36/36/36 35/35/35 34/34/34
f 35/35/35 37/37/37 34/34/34
f 40/40/40 39/39/39 38/38/38
f 38/38/38 41/41/41 40/40/40
f 44/44/44 43/43/43 42/42/42
f 42/42/42 45/45/45 44/44/44
f 48/48/48 47/47/47 46/46/46
f 46/46/46 47/47/47 49/49/49
f 50/50/50 48/48/48 46/46/46
f 51/51/51 48/48/48 50/50/50
f 49/49/49 52/52/52 46/46/46
f 52/52/52 49/49/49 53/53/53
f 53/53/53 49/49/49 54/54/54
f 55/55/55 53/53/53 54/54/54
f 56/56/56 55/55/55 54/54/54
f 55/55/55 56/56/56 51/51/51
f 50/50/50 57/57/57 51/51/51
f 51/51/51 57/57/57 55/55/55
f 58/58/58 57/57/57 50/50/50
f 55/55/55 57/57/57 58/58/58
f 59/59/59 50/50/50 46/46/46
f 50/50/50 59/59/59 58/58/58
f 60/60/60 46/46/46 52/52/52
f 46/46/46 60/60/60 59/59/59
f 58/58/58 61/61/61 55/55/55
f 55/55/55 61/61/61 53/53/53
f 59/59/59 62/62/62 58/58/58
f 60/60/60 62/62/62 59/59/59
f 58/58/58 62/62/62 61/61/61
f 52/52/52 63/63/63 60/60/60
f 63/63/63 52/52/52 53/53/53
f 63/63/63 62/62/62 60/60/60
f 61/61/61 64/64/64 53/53/53
f 61/61/61 62/62/62 64/64/64
f 53/53/53 64/64/64 63/63/63
f 64/64/64 62/62/62 63/63/63
f 67/67/67 66/66/66 65/65/65
f 66/66/66 67/67/67 68/68/68
f 65/65/65 69/69/69 67/67/67
f 69/69/69 65/65/65 70/70/70
f 68/68/68 67/67/67 71/71/71
f 68/68/68 71/71/71 72/72/72
f 72/72/72 73/73/73 68/68/68
f 73/73/73 72/72/72 74/74/74
f 74/74/74 75/75/75 73/73/73
f 70/70/70 75/75/75 74/74/74
f 70/70/70 76/76/76 69/69/69
f 74/74/74 76/76/76 70/70/70
f 76/76/76 77/77/77 69/69/69
f 77/77/77 76/76/76 74/74/74
f 67/67/67 69/69/69 78/78/78
f 77/77/77 78/78/78 69/69/69
f 71/71/71 67/67/67 79/79/79
f 78/78/78 79/79/79 67/67/67
f 71/71/71 80/80/80 72/72/72
f 79/79/79 80/80/80 71/71/71
f 78/78/78 81/81/81 79/79/79
f 77/77/77 81/81/81 78/78/78
f 79/79/79 81/81/81 80/80/80
f 80/80/80 82/82/82 72/72/72
f 72/72/72 82/82/82 74/74/74
f 80/80/80 81/81/81 82/82/82
f 74/74/74 83/83/83 77/77/77
f 82/82/82 83/83/83 74/74/74
f 83/83/83 81/81/81 77/77/77
f 82/82/82 81/81/81 83/83/83
f 86/86/86 85/85/85 84/84/84
f 84/84/84 85/85/85 87/87/87
f 88/88/88 85/85/85 86/86/86
f 87/87/87 85/85/85 89/89/89
f 90/90/90 85/85/85 88/88/88
f 89/89/89 85/85/85 91/91/91
f 92/92/92 85/85/85 90/90/90
f 91/91/91 85/85/85 92/92/92
