g LVL_3_Body
v -8.054347 16.69849 -8.852304
v -7.508987 16.69849 -9.3977
v -7.737079 16.69849 -9.178497
v 7.508987 16.69849 -9.3977
v 8.054347 16.69849 -8.852304
v 7.737079 16.69849 -9.178497
v -8.054347 16.69849 5.446929
v -8.054347 16.23569 7.038995
v -8.054347 9.23966 7.801715
v -8.054347 9.105623 -9.600217
v -8.054347 16.69849 -8.852304
v -7.508987 16.69849 -9.3977
v -7.508987 9.10161 -10.14583
v 8.054347 9.23966 7.801715
v 8.054347 16.23569 7.038995
v 8.054347 16.69849 5.446929
v 8.054347 9.105623 -9.600217
v 8.054347 16.69849 -8.852304
v 7.508987 16.69849 -9.3977
v 7.508987 9.10161 -10.14583
v -7.508987 16.69849 -9.3977
v -7.508987 9.10161 -10.14583
v 7.508987 16.69849 -9.3977
v 7.508987 9.10161 -10.14583
v -7.508987 16.03737 7.721212
v -8.054347 16.23569 7.038995
v -8.054347 16.69849 5.446929
v -3.431937 16.03737 7.721212
v 8.054347 16.69849 5.446929
v 3.434493 16.03737 7.721212
v -3.431937 16.03737 9.010815
v 3.434493 16.03737 9.010815
v 7.508987 16.03737 7.721212
v 8.054347 16.23569 7.038995
v 3.36364 16.69849 -0.5802448
v 8.054347 16.69849 -8.852304
v -3.36364 16.69849 -0.5802448
v -8.054347 16.69849 -8.852304
v 3.36364 16.69849 -6.021461
v -3.36364 16.69849 -6.021461
v -7.737079 16.69849 -9.178497
v -7.508987 16.69849 -9.3977
v 7.737079 16.69849 -9.178497
v 7.508987 16.69849 -9.3977
v 7.508987 16.03737 7.721212
v 8.054347 16.23569 7.038995
v 8.054347 9.23966 7.801715
v 7.508987 9.244126 8.409002
v 3.434493 16.03737 7.721212
v 3.434493 9.244126 8.409002
v 3.434493 9.917596 9.915555
v 3.434493 16.03737 9.010815
v -3.431937 16.03737 9.010815
v -3.431937 9.244126 8.409002
v -3.431937 9.917596 9.915555
v -3.431937 16.03737 7.721212
v -7.508987 16.03737 7.721212
v -7.508987 9.244126 8.409002
v -8.054347 9.23966 7.801715
v -8.054347 16.23569 7.038995
v 6.901684 12.07515 -13.84692
v -6.445966 13.13461 -15.23141
v -6.445966 12.07515 -13.84692
v 6.901684 13.13461 -15.23141
v 6.901684 14.68987 -16.0191
v -6.445966 14.68987 -16.0191
v 6.901684 16.43287 -16.05399
v -6.445966 16.43287 -16.05399
v 6.901684 18.0184 -15.32917
v -6.445966 18.0184 -15.32917
v -6.445966 12.07515 -13.84692
v -6.445966 11.72131 -12.13985
v 6.901684 12.07515 -13.84692
v 6.901684 11.72131 -12.13985
v -6.445966 13.2572 -9.10733
v 6.901684 13.2572 -9.107329
v -6.445966 13.2572 -9.10733
v -6.445966 14.84273 -8.3825
v 6.901684 13.2572 -9.107329
v 6.901684 14.84273 -8.3825
v -6.445966 16.58574 -8.417393
v 6.901684 16.58574 -8.417393
v -6.445966 18.14099 -9.205089
v 6.901684 18.14099 -9.205088
v 6.901684 19.20046 -10.58958
v -6.445966 19.20046 -10.58958
v 6.901684 19.20046 -10.58958
v -6.445966 19.20046 -10.58958
v -6.445966 19.5543 -12.29665
v 6.901684 19.5543 -12.29665
v -6.445966 19.13243 -13.98819
v 6.901684 19.13243 -13.98819
v -6.445966 18.0184 -15.32917
v 6.901684 18.0184 -15.32917
v 6.185222 16.51822 -2.126478
v 4.788002 18.10153 -4.544257
v 4.936958 16.51822 -4.665029
v 2.71087 16.51822 -6.410607
v 5.9986 18.10153 -2.082271
v 2.629077 18.10153 -6.237149
v 6.208425 16.51822 0.7022806
v 6.021106 18.10153 0.6611375
v -0.05213722 16.51822 -7.01746
v -0.05056473 18.10153 -6.82566
v -2.720194 18.10153 -6.193274
v -2.804821 16.51822 -6.36539
v 4.851057 18.10153 3.142651
v 5.001975 16.51822 3.260993
v 2.804822 16.51822 5.042828
v 2.720194 18.10153 4.870734
v -4.851056 18.10153 -4.465168
v -5.001973 16.51822 -4.583532
v 0.05213806 16.51822 5.694918
v 0.05056572 18.10153 5.503141
v -2.629078 18.10153 4.91461
v -2.71087 16.51822 5.088076
v -6.208423 16.51822 -2.02482
v -6.021103 18.10153 -1.98368
v -5.998602 18.10153 0.7597343
v -6.185221 16.51822 0.8039531
v -4.788002 18.10153 3.221717
v -4.936959 16.51822 3.342515
v 5.9986 18.10153 -2.082271
v -3.794379E-07 18.43262 -0.661268
v 4.788002 18.10153 -4.544257
v 6.021106 18.10153 0.6611375
v 2.629077 18.10153 -6.237149
v 4.851057 18.10153 3.142651
v -0.05056473 18.10153 -6.82566
v 2.720194 18.10153 4.870734
v -2.720194 18.10153 -6.193274
v 0.05056572 18.10153 5.503141
v -4.851056 18.10153 -4.465168
v -2.629078 18.10153 4.91461
v -6.021103 18.10153 -1.98368
v -4.788002 18.10153 3.221717
v -5.998602 18.10153 0.7597343
v -6.434789 15.6378 -12.21825
v -6.445966 13.13461 -15.23141
v -6.445966 14.68987 -16.0191
v -6.445966 12.07515 -13.84692
v -6.445966 16.43287 -16.05399
v -6.445966 11.72131 -12.13985
v -6.445966 18.0184 -15.32917
v -6.445966 13.2572 -9.10733
v -6.445966 19.13243 -13.98819
v -6.445966 14.84273 -8.3825
v -6.445966 19.5543 -12.29665
v -6.445966 16.58574 -8.417393
v -6.445966 19.20046 -10.58958
v -6.445966 18.14099 -9.205089
v 6.858492 15.6378 -12.21825
v 6.901684 14.68987 -16.0191
v 6.901684 13.13461 -15.23141
v 6.901684 12.07515 -13.84692
v 6.901684 16.43287 -16.05399
v 6.901684 11.72131 -12.13985
v 6.901684 18.0184 -15.32917
v 6.901684 13.2572 -9.107329
v 6.901684 19.13243 -13.98819
v 6.901684 14.84273 -8.3825
v 6.901684 19.5543 -12.29665
v 6.901684 16.58574 -8.417393
v 6.901684 19.20046 -10.58958
v 6.901684 18.14099 -9.205088
vt 0.05544059 0.9762126
vt 0.06491926 0.9870725
vt 0.06095488 0.9827077
vt 0.3259397 0.9870725
vt 0.3354183 0.9762126
vt 0.329904 0.9827077
vt 0.6745447 0.60913
vt 0.692236 0.6024921
vt 0.7194535 0.5173643
vt 0.5192602 0.5173795
vt 0.5175983 0.5988414
vt 0.5116122 0.5984489
vt 0.5132661 0.51738
vt 0.7194499 0.5177594
vt 0.6922327 0.6028872
vt 0.674541 0.6095252
vt 0.5192565 0.5177747
vt 0.5175945 0.5992365
vt 0.5116084 0.5988441
vt 0.5132623 0.5177752
vt 0.4895004 0.9784491
vt 0.3831855 0.9784492
vt 0.4895004 0.6547966
vt 0.3831855 0.6547966
vt 0.06491923 0.6462027
vt 0.05544059 0.6597868
vt 0.05544059 0.6914878
vt 0.1367113 0.6462026
vt 0.3354183 0.6914878
vt 0.2541921 0.6462027
vt 0.137642 0.625392
vt 0.2532614 0.6253922
vt 0.3259397 0.6462027
vt 0.3354183 0.6597868
vt 0.2738484 0.7930074
vt 0.3354183 0.9762126
vt 0.1170105 0.7930074
vt 0.05544059 0.9762126
vt 0.2738484 0.9383379
vt 0.1170105 0.9383379
vt 0.06095488 0.9827077
vt 0.06491926 0.9870725
vt 0.329904 0.9827077
vt 0.3259397 0.9870725
vt 0.4876087 0.6547966
vt 0.4876087 0.6430435
vt 0.3854311 0.6430435
vt 0.3801561 0.6547965
vt 0.4876087 0.742606
vt 0.3801561 0.742606
vt 0.3801561 0.742606
vt 0.4876087 0.742606
vt 0.4876087 0.8905846
vt 0.3801561 0.8905846
vt 0.3801561 0.8905846
vt 0.4876087 0.8905846
vt 0.4876087 0.9784492
vt 0.3801561 0.9784491
vt 0.3854311 0.9902022
vt 0.4876087 0.9902022
vt 0.8451893 0.1993576
vt 0.8476188 0.4575675
vt 0.8451893 0.4575675
vt 0.8476189 0.1993576
vt 0.850348 0.1993576
vt 0.850348 0.4575675
vt 0.8534067 0.1993576
vt 0.8534066 0.4575675
vt 0.856189 0.1993576
vt 0.856189 0.4575675
vt 0.8663304 0.4575675
vt 0.8945709 0.4575675
vt 0.8663304 0.1993576
vt 0.8945709 0.1993576
vt 0.9447391 0.4575675
vt 0.9447391 0.1993576
vt 0.9447106 0.4575675
vt 0.9184805 0.4575675
vt 0.9447106 0.1993576
vt 0.9184805 0.1993576
vt 0.8896454 0.4575675
vt 0.8896453 0.1993576
vt 0.8639163 0.4575675
vt 0.8639161 0.1993576
vt 0.8410119 0.1993576
vt 0.8410122 0.4575675
vt 0.8659071 0.1993576
vt 0.8659066 0.4575675
vt 0.8941474 0.4575675
vt 0.8941474 0.1993577
vt 0.9221309 0.4575675
vt 0.9221315 0.1993577
vt 0.9443157 0.4575676
vt 0.9443157 0.1993577
vt 0.8074675 0.9225786
vt 0.7656045 0.9372506
vt 0.7806869 0.9561612
vt 0.7419863 0.9747987
vt 0.7856739 0.9120833
vt 0.7366035 0.9512166
vt 0.8170258 0.8807017
vt 0.7928368 0.8807017
vt 0.6990321 0.9747987
vt 0.7044147 0.9512166
vt 0.6754138 0.9372506
vt 0.6603314 0.9561612
vt 0.7856739 0.8493203
vt 0.8074665 0.838825
vt 0.7806858 0.8052422
vt 0.7656045 0.824154
vt 0.6553434 0.9120843
vt 0.6335497 0.9225796
vt 0.7419852 0.7866057
vt 0.7366025 0.8101881
vt 0.7044137 0.8101881
vt 0.6990311 0.7866057
vt 0.6239914 0.8807028
vt 0.6481805 0.8807028
vt 0.6553434 0.8493213
vt 0.6335497 0.838826
vt 0.6754128 0.8241552
vt 0.6603304 0.8052433
vt 0.7779686 0.907303
vt 0.7207549 0.8797515
vt 0.7603479 0.9293995
vt 0.7842575 0.8797505
vt 0.7348855 0.9416615
vt 0.7779686 0.8521981
vt 0.7066243 0.9416615
vt 0.7603479 0.8301025
vt 0.6811619 0.9293995
vt 0.7348846 0.8178406
vt 0.6635403 0.907304
vt 0.7066233 0.8178406
vt 0.6572514 0.8797515
vt 0.681161 0.8301035
vt 0.6635403 0.852199
vt 0.8904552 0.524084
vt 0.8406073 0.4826728
vt 0.8275762 0.5084019
vt 0.8635113 0.4651457
vt 0.8269989 0.537237
vt 0.8917521 0.4592919
vt 0.8389901 0.5634671
vt 0.9419202 0.4847008
vt 0.8611745 0.5818968
vt 0.9539112 0.5109308
vt 0.8891581 0.5888761
vt 0.953334 0.5397661
vt 0.9173987 0.5830224
vt 0.940303 0.5654951
vt 0.8908911 0.524084
vt 0.9537699 0.5084019
vt 0.940739 0.4826728
vt 0.9178346 0.4651457
vt 0.9543471 0.537237
vt 0.8895943 0.4592919
vt 0.9423562 0.5634671
vt 0.8394259 0.4847008
vt 0.9201717 0.5818968
vt 0.8274349 0.5109308
vt 0.892188 0.5888761
vt 0.8280121 0.5397661
vt 0.8639474 0.5830224
vt 0.8410431 0.5654951
vn -0.61504 0.7463338 -0.254385
vn -0.3945688 0.6256597 -0.6729528
vn 0 1 0
vn 0.3601807 0.3408376 -0.868389
vn 0.61504 0.7463338 -0.254385
vn 0 1 0
vn -0.4508119 0.8837044 0.1258382
vn -0.7891979 0.4592028 0.4077982
vn -0.9370579 0.03647679 0.3472633
vn -0.9234076 0.0376206 -0.3819723
vn -0.61504 0.7463338 -0.254385
vn -0.3945688 0.6256597 -0.6729528
vn -0.2519655 0.09484254 -0.9630775
vn 0.9370579 0.03647679 0.3472633
vn 0.7891979 0.4592029 0.4077982
vn 0.4504078 0.8769446 0.1676338
vn 0.9234076 0.0376206 -0.3819723
vn 0.61504 0.7463338 -0.254385
vn 0.3601807 0.3408376 -0.868389
vn 0.3815082 0.09059202 -0.9199156
vn -0.3945688 0.6256597 -0.6729528
vn -0.2519655 0.09484254 -0.9630775
vn 0.3601807 0.3408376 -0.868389
vn 0.3815082 0.09059202 -0.9199156
vn -0.3208327 0.4793056 0.8169042
vn -0.7891979 0.4592028 0.4077982
vn -0.4508119 0.8837044 0.1258382
vn -0.4151411 0.8264393 0.3803366
vn 0.4504078 0.8769446 0.1676338
vn 0.3815001 0.7862651 0.4860503
vn -0.3135737 0.7188672 0.6204042
vn 0.5511087 0.6317078 0.5451831
vn 0.3891817 0.5554851 0.7348291
vn 0.7891979 0.4592029 0.4077982
vn 0 1 0
vn 0.61504 0.7463338 -0.254385
vn 0 1 0
vn -0.61504 0.7463338 -0.254385
vn 0 1 0
vn 0 1 0
vn 0 1 0
vn -0.3945688 0.6256597 -0.6729528
vn 0 1 0
vn 0.3601807 0.3408376 -0.868389
vn 0.3891817 0.5554851 0.7348291
vn 0.7891979 0.4592029 0.4077982
vn 0.9370579 0.03647679 0.3472633
vn 0.2679704 0.09704725 0.9585268
vn 0.3815001 0.7862651 0.4860503
vn 0.5249985 -0.4264055 0.7365834
vn 0.5314636 -0.4074653 0.7426429
vn 0.5511087 0.6317078 0.5451831
vn -0.3135737 0.7188672 0.6204042
vn -0.2947231 -0.47875 0.8270047
vn -0.7820377 -0.2997884 0.5463918
vn -0.4151411 0.8264393 0.3803366
vn -0.3208327 0.4793056 0.8169042
vn -0.4063481 0.09204002 0.9090709
vn -0.9370579 0.03647679 0.3472633
vn -0.7891979 0.4592028 0.4077982
vn 0.458371 -0.8083031 -0.369516
vn -0.4568712 -0.5684231 -0.684225
vn -0.7170461 -0.6339253 -0.2897991
vn 0.7199601 -0.4434849 -0.5338339
vn 0.5662189 -0.2600052 -0.7821723
vn -0.5640947 -0.1383369 -0.8140393
vn 0.5662187 0.1051149 -0.817525
vn -0.5640945 0.22856 -0.7934467
vn 0.5662189 0.4494152 -0.6909574
vn -0.5640948 0.5501891 -0.6157022
vn -0.7170461 -0.6339253 -0.2897991
vn -0.5750807 -0.8179941 0.01295554
vn 0.458371 -0.8083031 -0.369516
vn 0.5772816 -0.7913362 0.2013279
vn -0.5750828 -0.6314253 0.5201747
vn 0.5772715 -0.4930303 0.6509061
vn -0.5750828 -0.6314253 0.5201747
vn -0.5640948 -0.2285614 0.7934461
vn 0.5772715 -0.4930303 0.6509061
vn 0.5662189 -0.1051146 0.8175249
vn -0.5640946 0.1383383 0.8140392
vn 0.5662188 0.260006 0.7821721
vn -0.4568711 0.568422 0.684226
vn 0.7199599 0.4434842 0.5338348
vn 0.4583712 0.8083029 0.3695162
vn -0.7170464 0.633925 0.2897993
vn 0.4583712 0.8083029 0.3695162
vn -0.7170464 0.633925 0.2897993
vn -0.5640947 0.8244126 0.04627171
vn 0.5662188 0.8204182 -0.07943674
vn -0.5640948 0.7628467 -0.3160096
vn 0.5662189 0.7047048 -0.4275364
vn -0.5640948 0.5501891 -0.6157022
vn 0.5662189 0.4494152 -0.6909574
vn 0.9459048 0.1199068 -0.3014739
vn 0.6602291 0.5266957 -0.5354334
vn 0.7710562 0.1202388 -0.6253119
vn 0.4903057 0.1199003 -0.8632637
vn 0.779356 0.6139331 -0.1252609
vn 0.2834961 0.6139334 -0.7366925
vn 0.9696331 0.1202505 0.2129588
vn 0.6596591 0.7374685 0.1448795
vn -0.008140151 0.1202577 -0.9927093
vn -0.005539256 0.7374726 -0.6753542
vn -0.2955408 0.6139382 -0.7319396
vn -0.5043995 0.1199171 -0.855103
vn 0.6689218 0.5266997 0.5245294
vn 0.7812086 0.1202503 0.612579
vn 0.504398 0.1199058 0.8551054
vn 0.2955446 0.6139312 0.731944
vn -0.6689212 0.5267035 -0.5245263
vn -0.7812098 0.1202582 -0.6125759
vn 0.008143025 0.1202485 0.9927105
vn 0.005539469 0.7374684 0.6753589
vn -0.2834972 0.6139324 0.7366929
vn -0.4903027 0.1199075 0.8632644
vn -0.9696326 0.1202517 -0.21296
vn -0.6596586 0.7374687 -0.1448812
vn -0.7793558 0.6139334 0.1252606
vn -0.9459046 0.1199095 0.3014733
vn -0.6602268 0.5267001 0.5354323
vn -0.7710543 0.120249 0.6253122
vn 0.779356 0.6139331 -0.1252609
vn 0 1 0
vn 0.6602291 0.5266957 -0.5354334
vn 0.6596591 0.7374685 0.1448795
vn 0.2834961 0.6139334 -0.7366925
vn 0.6689218 0.5266997 0.5245294
vn -0.005539256 0.7374726 -0.6753542
vn 0.2955446 0.6139312 0.731944
vn -0.2955408 0.6139382 -0.7319396
vn 0.005539469 0.7374684 0.6753589
vn -0.6689212 0.5267035 -0.5245263
vn -0.2834972 0.6139324 0.7366929
vn -0.6596586 0.7374687 -0.1448812
vn -0.6602268 0.5267001 0.5354323
vn -0.7793558 0.6139334 0.1252606
vn -1 -0.0001742839 8.827133E-05
vn -0.4568712 -0.5684231 -0.684225
vn -0.5640947 -0.1383369 -0.8140393
vn -0.7170461 -0.6339253 -0.2897991
vn -0.5640945 0.22856 -0.7934467
vn -0.5750807 -0.8179941 0.01295554
vn -0.5640948 0.5501891 -0.6157022
vn -0.5750828 -0.6314253 0.5201747
vn -0.5640948 0.7628467 -0.3160096
vn -0.5640948 -0.2285614 0.7934461
vn -0.5640947 0.8244126 0.04627171
vn -0.5640946 0.1383383 0.8140392
vn -0.7170464 0.633925 0.2897993
vn -0.4568711 0.568422 0.684226
vn 0.9999998 -0.000673476 0.0003411026
vn 0.5662189 -0.2600052 -0.7821723
vn 0.7199601 -0.4434849 -0.5338339
vn 0.458371 -0.8083031 -0.369516
vn 0.5662187 0.1051149 -0.817525
vn 0.5772816 -0.7913362 0.2013279
vn 0.5662189 0.4494152 -0.6909574
vn 0.5772715 -0.4930303 0.6509061
vn 0.5662189 0.7047048 -0.4275364
vn 0.5662189 -0.1051146 0.8175249
vn 0.5662188 0.8204182 -0.07943674
vn 0.5662188 0.260006 0.7821721
vn 0.4583712 0.8083029 0.3695162
vn 0.7199599 0.4434842 0.5338348
g LVL_3_Body_0
f 3/3/3 2/2/2 1/1/1
f 6/6/6 5/5/5 4/4/4
f 9/9/9 8/8/8 7/7/7
f 7/7/7 10/10/10 9/9/9
f 7/7/7 11/11/11 10/10/10
f 10/10/10 11/11/11 12/12/12
f 12/12/12 13/13/13 10/10/10
f 16/16/16 15/15/15 14/14/14
f 14/14/14 17/17/17 16/16/16
f 17/17/17 18/18/18 16/16/16
f 19/19/19 18/18/18 17/17/17
f 19/19/19 17/17/17 20/20/20
f 23/23/23 22/22/22 21/21/21
f 22/22/22 23/23/23 24/24/24
f 27/27/27 26/26/26 25/25/25
f 25/25/25 28/28/28 27/27/27
f 28/28/28 29/29/29 27/27/27
f 28/28/28 30/30/30 29/29/29
f 30/30/30 28/28/28 31/31/31
f 32/32/32 30/30/30 31/31/31
f 29/29/29 30/30/30 33/33/33
f 33/33/33 34/34/34 29/29/29
f 27/27/27 29/29/29 35/35/35
f 35/35/35 29/29/29 36/36/36
f 35/35/35 37/37/37 27/27/27
f 38/38/38 27/27/27 37/37/37
f 36/36/36 39/39/39 35/35/35
f 38/38/38 37/37/37 40/40/40
f 40/40/40 41/41/41 38/38/38
f 42/42/42 41/41/41 40/40/40
f 40/40/40 39/39/39 42/42/42
f 36/36/36 43/43/43 39/39/39
f 42/42/42 39/39/39 44/44/44
f 39/39/39 43/43/43 44/44/44
f 47/47/47 46/46/46 45/45/45
f 45/45/45 48/48/48 47/47/47
f 49/49/49 48/48/48 45/45/45
f 50/50/50 48/48/48 49/49/49
f 51/51/51 50/50/50 49/49/49
f 49/49/49 52/52/52 51/51/51
f 53/53/53 51/51/51 52/52/52
f 54/54/54 50/50/50 51/51/51
f 55/55/55 51/51/51 53/53/53
f 55/55/55 54/54/54 51/51/51
f 53/53/53 56/56/56 55/55/55
f 54/54/54 55/55/55 56/56/56
f 57/57/57 54/54/54 56/56/56
f 58/58/58 54/54/54 57/57/57
f 59/59/59 58/58/58 57/57/57
f 59/59/59 57/57/57 60/60/60
f 63/63/63 62/62/62 61/61/61
f 62/62/62 64/64/64 61/61/61
f 62/62/62 65/65/65 64/64/64
f 65/65/65 62/62/62 66/66/66
f 66/66/66 67/67/67 65/65/65
f 67/67/67 66/66/66 68/68/68
f 68/68/68 69/69/69 67/67/67
f 69/69/69 68/68/68 70/70/70
f 73/73/73 72/72/72 71/71/71
f 72/72/72 73/73/73 74/74/74
f 75/75/75 72/72/72 74/74/74
f 74/74/74 76/76/76 75/75/75
f 79/79/79 78/78/78 77/77/77
f 78/78/78 79/79/79 80/80/80
f 80/80/80 81/81/81 78/78/78
f 81/81/81 80/80/80 82/82/82
f 82/82/82 83/83/83 81/81/81
f 83/83/83 82/82/82 84/84/84
f 83/83/83 84/84/84 85/85/85
f 85/85/85 86/86/86 83/83/83
f 89/89/89 88/88/88 87/87/87
f 87/87/87 90/90/90 89/89/89
f 91/91/91 89/89/89 90/90/90
f 90/90/90 92/92/92 91/91/91
f 93/93/93 91/91/91 92/92/92
f 92/92/92 94/94/94 93/93/93
f 97/97/97 96/96/96 95/95/95
f 96/96/96 97/97/97 98/98/98
f 95/95/95 96/96/96 99/99/99
f 98/98/98 100/100/100 96/96/96
f 95/95/95 99/99/99 101/101/101
f 102/102/102 101/101/101 99/99/99
f 100/100/100 98/98/98 103/103/103
f 103/103/103 104/104/104 100/100/100
f 105/105/105 104/104/104 103/103/103
f 105/105/105 103/103/103 106/106/106
f 101/101/101 102/102/102 107/107/107
f 107/107/107 108/108/108 101/101/101
f 109/109/109 108/108/108 107/107/107
f 110/110/110 109/109/109 107/107/107
f 111/111/111 105/105/105 106/106/106
f 111/111/111 106/106/106 112/112/112
f 113/113/113 109/109/109 110/110/110
f 114/114/114 113/113/113 110/110/110
f 113/113/113 114/114/114 115/115/115
f 115/115/115 116/116/116 113/113/113
f 111/111/111 112/112/112 117/117/117
f 117/117/117 118/118/118 111/111/111
f 119/119/119 118/118/118 117/117/117
f 117/117/117 120/120/120 119/119/119
f 116/116/116 115/115/115 121/121/121
f 121/121/121 119/119/119 120/120/120
f 121/121/121 122/122/122 116/116/116
f 120/120/120 122/122/122 121/121/121
f 125/125/125 124/124/124 123/123/123
f 123/123/123 124/124/124 126/126/126
f 127/127/127 124/124/124 125/125/125
f 126/126/126 124/124/124 128/128/128
f 129/129/129 124/124/124 127/127/127
f 128/128/128 124/124/124 130/130/130
f 131/131/131 124/124/124 129/129/129
f 130/130/130 124/124/124 132/132/132
f 133/133/133 124/124/124 131/131/131
f 132/132/132 124/124/124 134/134/134
f 135/135/135 124/124/124 133/133/133
f 134/134/134 124/124/124 136/136/136
f 137/137/137 124/124/124 135/135/135
f 136/136/136 124/124/124 137/137/137
f 140/140/140 139/139/139 138/138/138
f 139/139/139 141/141/141 138/138/138
f 142/142/142 140/140/140 138/138/138
f 141/141/141 143/143/143 138/138/138
f 144/144/144 142/142/142 138/138/138
f 143/143/143 145/145/145 138/138/138
f 146/146/146 144/144/144 138/138/138
f 145/145/145 147/147/147 138/138/138
f 148/148/148 146/146/146 138/138/138
f 147/147/147 149/149/149 138/138/138
f 150/150/150 148/148/148 138/138/138
f 149/149/149 151/151/151 138/138/138
f 151/151/151 150/150/150 138/138/138
f 154/154/154 153/153/153 152/152/152
f 155/155/155 154/154/154 152/152/152
f 153/153/153 156/156/156 152/152/152
f 157/157/157 155/155/155 152/152/152
f 156/156/156 158/158/158 152/152/152
f 157/157/157 152/152/152 159/159/159
f 158/158/158 160/160/160 152/152/152
f 161/161/161 159/159/159 152/152/152
f 160/160/160 162/162/162 152/152/152
f 163/163/163 161/161/161 152/152/152
f 162/162/162 164/164/164 152/152/152
f 165/165/165 163/163/163 152/152/152
f 164/164/164 165/165/165 152/152/152
