g LVL_10_Aerial
v 6.965528 17.95911 -11.9797
v 6.801647 18.07397 -11.54196
v 6.794526 22.07664 -13.18249
v 6.913121 21.98172 -13.49576
v 6.788581 25.41731 -14.55169
v 6.560707 17.95911 -11.96828
v 6.869383 25.33903 -14.76107
v 6.775961 32.50996 -15.77316
v 6.620317 21.98866 -13.48931
v 6.670068 25.35176 -14.75877
v 6.788581 25.41731 -14.55169
v 6.794526 22.07664 -13.18249
v 6.801647 18.07397 -11.54196
v 7.303589 31.90071 -16.68704
v 7.385213 32.50996 -16.82841
v 6.166709 32.50996 -16.82841
v 7.994465 32.50996 -15.77316
v 6.248333 31.90071 -16.68704
v 5.557457 32.50996 -15.77316
v 7.831217 31.90071 -15.77316
v 7.303589 31.90071 -14.85928
v 7.385213 32.50996 -14.7179
v 6.248333 31.90071 -14.85928
v 6.166709 32.50996 -14.7179
v 5.720706 31.90071 -15.77316
v 6.471335 31.45471 -15.24553
v 7.080587 31.45471 -15.24553
v 6.166709 31.45471 -15.77316
v 7.385213 31.45471 -15.77316
v 6.775961 31.29146 -15.77316
v 6.471335 31.45471 -16.30079
v 7.080587 31.45471 -16.30079
v 6.166709 32.50996 -16.82841
v 7.385213 32.50996 -16.82841
v 7.303589 33.11922 -16.68704
v 7.994465 32.50996 -15.77316
v 6.248333 33.11922 -16.68704
v 5.557457 32.50996 -15.77316
v 7.831217 33.11922 -15.77316
v 7.303589 33.11922 -14.85928
v 7.385213 32.50996 -14.7179
v 6.248333 33.11922 -14.85928
v 6.166709 32.50996 -14.7179
v 7.080587 33.56522 -15.24553
v 5.720706 33.11922 -15.77316
v 6.471335 33.56522 -15.24553
v 7.385213 33.56522 -15.77316
v 6.166709 33.56522 -15.77316
v 6.775961 33.72847 -15.77316
v 6.471335 33.56522 -16.30079
v 7.080587 33.56522 -16.30079
vt 0.334175 0.1671111
vt 0.3298213 0.1658295
vt 0.3292365 0.1703587
vt 0.3323883 0.1712726
vt 0.3287484 0.1741389
vt 0.3371022 0.1681617
vt 0.3308972 0.1747459
vt 0.3277121 0.1821645
vt 0.3345018 0.1720395
vt 0.3323315 0.175276
vt 0.3334062 0.1757258
vt 0.3360882 0.1726931
vt 0.3393015 0.1690595
vt 0.4163919 0.350254
vt 0.420524 0.35232
vt 0.420524 0.3214776
vt 0.3896815 0.3677413
vt 0.4163919 0.3235437
vt 0.3893818 0.3059815
vt 0.3896815 0.3636092
vt 0.3601988 0.350254
vt 0.3560666 0.35232
vt 0.3603487 0.3228693
vt 0.3562165 0.3208032
vt 0.3893818 0.3101135
vt 0.3742603 0.3291882
vt 0.3742603 0.3446095
vt 0.3896815 0.3214776
vt 0.3896815 0.35232
vt 0.3896815 0.3368989
vt 0.4051028 0.3291882
vt 0.4051028 0.3446095
vt 0.420524 0.3214776
vt 0.420524 0.35232
vt 0.4163919 0.350254
vt 0.3896815 0.3677413
vt 0.4163919 0.3235437
vt 0.3893818 0.3059815
vt 0.3896815 0.3636092
vt 0.3601988 0.350254
vt 0.3560666 0.35232
vt 0.3603487 0.3228693
vt 0.3562165 0.3208032
vt 0.3742603 0.3446095
vt 0.3893818 0.3101135
vt 0.3742603 0.3291882
vt 0.3896815 0.35232
vt 0.3896815 0.3214776
vt 0.3896815 0.3368989
vt 0.4051028 0.3291882
vt 0.4051028 0.3446095
vn 0.9858156 -0.04784336 -0.160868
vn 0.07606396 0.3782586 0.9225697
vn 0.07624786 0.3783368 0.9225223
vn 0.8107174 -0.1971586 -0.5512403
vn 0.0766488 0.310056 0.9476234
vn -0.8675099 -0.1644847 -0.4694373
vn 0.6152515 -0.2241925 -0.7557799
vn 0.2360478 0.003213506 -0.9717361
vn -0.8680041 -0.1641645 -0.468635
vn -0.8685731 -0.1111719 -0.4829301
vn 0.0766488 0.310056 0.9476234
vn 0.07624786 0.3783368 0.9225223
vn 0.07606396 0.3782586 0.9225697
vn 0.4310463 -0.50675 -0.7465946
vn 0.4999998 0 -0.8660256
vn -0.3273266 0 -0.9449113
vn 1 0 0
vn -0.566978 -0.4999164 -0.6546904
vn -1 0 0
vn 0.8308591 -0.549796 0.08600885
vn 0.4490691 -0.5066404 0.7359704
vn 0.3273269 0 0.9449112
vn -0.4520604 -0.4272785 0.7829908
vn -0.5000002 0 0.8660253
vn -0.8308591 -0.549796 0.08600884
vn -0.2842931 -0.8226238 0.4924098
vn 0.3392734 -0.8398176 0.4237924
vn -0.5366522 -0.8398173 -0.08192334
vn 0.5366521 -0.8398173 -0.08192331
vn 0 -1 0
vn -0.1973782 -0.8398171 -0.5057164
vn 0.2461608 -0.8704132 -0.4263633
vn -0.3273266 0 -0.9449113
vn 0.4999998 0 -0.8660256
vn 0.4310462 0.50675 -0.7465946
vn 1 0 0
vn -0.566978 0.4999165 -0.6546904
vn -1 0 0
vn 0.8308591 0.549796 0.08600884
vn 0.538201 0.4567479 0.7083226
vn 0.3273269 0 0.9449112
vn -0.3856924 0.4723669 0.7925345
vn -0.5000002 0 0.8660253
vn 0.2842929 0.822624 0.4924098
vn -0.8308591 0.549796 0.08600885
vn -0.3392735 0.8398175 0.4237925
vn 0.5366521 0.8398173 -0.08192331
vn -0.5366522 0.8398173 -0.08192334
vn 0 1 0
vn -0.1973782 0.8398171 -0.5057164
vn 0.2461608 0.8704132 -0.4263633
g LVL_10_Aerial_0
f 3/3/3 2/2/2 1/1/1
f 1/1/1 4/4/4 3/3/3
f 5/5/5 3/3/3 4/4/4
f 4/4/4 1/1/1 6/6/6
f 4/4/4 7/7/7 5/5/5
f 7/7/7 8/8/8 5/5/5
f 6/6/6 9/9/9 4/4/4
f 7/7/7 4/4/4 9/9/9
f 10/10/10 8/8/8 7/7/7
f 9/9/9 10/10/10 7/7/7
f 11/11/11 8/8/8 10/10/10
f 9/9/9 11/11/11 10/10/10
f 9/9/9 12/12/12 11/11/11
f 6/6/6 12/12/12 9/9/9
f 6/6/6 13/13/13 12/12/12
f 16/16/16 15/15/15 14/14/14
f 14/14/14 15/15/15 17/17/17
f 18/18/18 16/16/16 14/14/14
f 19/19/19 16/16/16 18/18/18
f 17/17/17 20/20/20 14/14/14
f 20/20/20 17/17/17 21/21/21
f 21/21/21 17/17/17 22/22/22
f 23/23/23 21/21/21 22/22/22
f 24/24/24 23/23/23 22/22/22
f 23/23/23 24/24/24 19/19/19
f 19/19/19 25/25/25 23/23/23
f 18/18/18 25/25/25 19/19/19
f 23/23/23 26/26/26 21/21/21
f 26/26/26 23/23/23 25/25/25
f 20/20/20 21/21/21 27/27/27
f 26/26/26 27/27/27 21/21/21
f 28/28/28 25/25/25 18/18/18
f 25/25/25 28/28/28 26/26/26
f 29/29/29 20/20/20 27/27/27
f 20/20/20 29/29/29 14/14/14
f 26/26/26 30/30/30 27/27/27
f 28/28/28 30/30/30 26/26/26
f 27/27/27 30/30/30 29/29/29
f 18/18/18 31/31/31 28/28/28
f 31/31/31 18/18/18 14/14/14
f 31/31/31 30/30/30 28/28/28
f 29/29/29 32/32/32 14/14/14
f 29/29/29 30/30/30 32/32/32
f 14/14/14 32/32/32 31/31/31
f 32/32/32 30/30/30 31/31/31
f 35/35/35 34/34/34 33/33/33
f 34/34/34 35/35/35 36/36/36
f 33/33/33 37/37/37 35/35/35
f 37/37/37 33/33/33 38/38/38
f 36/36/36 35/35/35 39/39/39
f 36/36/36 39/39/39 40/40/40
f 40/40/40 41/41/41 36/36/36
f 41/41/41 40/40/40 42/42/42
f 42/42/42 43/43/43 41/41/41
f 38/38/38 43/43/43 42/42/42
f 44/44/44 40/40/40 39/39/39
f 40/40/40 44/44/44 42/42/42
f 42/42/42 45/45/45 38/38/38
f 38/38/38 45/45/45 37/37/37
f 42/42/42 46/46/46 45/45/45
f 44/44/44 46/46/46 42/42/42
f 39/39/39 47/47/47 44/44/44
f 47/47/47 39/39/39 35/35/35
f 45/45/45 48/48/48 37/37/37
f 46/46/46 48/48/48 45/45/45
f 44/44/44 49/49/49 46/46/46
f 47/47/47 49/49/49 44/44/44
f 46/46/46 49/49/49 48/48/48
f 48/48/48 50/50/50 37/37/37
f 35/35/35 37/37/37 50/50/50
f 48/48/48 49/49/49 50/50/50
f 35/35/35 51/51/51 47/47/47
f 50/50/50 51/51/51 35/35/35
f 50/50/50 49/49/49 51/51/51
f 51/51/51 49/49/49 47/47/47
