g LVL_1_Cannon
v 1.176293 16.34524 16.65505
v 8.590259E-15 16.62158 16.61655
v 1.172462 15.20619 5.507436
v -9.296554E-08 15.48115 5.469435
v -1.17246 15.20619 5.507436
v -1.176292 16.34524 16.65505
v -1.176292 16.34524 16.65505
v -2.119607 15.57092 16.76294
v -2.109203 14.43859 5.613545
v -1.17246 15.20619 5.507436
v -2.626711 13.33429 5.766257
v -2.109203 14.43859 5.613545
v -2.119607 15.57092 16.76294
v -2.643107 14.45202 16.91885
v -2.626717 12.11097 5.935471
v -2.643107 13.21012 17.09189
v -2.109216 11.00666 6.088236
v -2.626717 12.11097 5.935471
v -2.643107 13.21012 17.09189
v -2.119608 12.09121 17.2478
v -1.172472 10.23906 6.194421
v -1.176294 11.3169 17.35569
v 7.907756E-09 9.964098 6.232449
v 7.568295E-15 11.04055 17.3942
v 1.176293 11.3169 17.35569
v 1.172471 10.23906 6.194421
v 2.119607 12.09121 17.2478
v 2.109215 11.00666 6.088236
v 2.643107 13.21012 17.09189
v 2.626716 12.11097 5.935473
v 2.643107 13.21012 17.09189
v 2.643107 14.45202 16.91885
v 2.626716 12.11097 5.935473
v 2.626711 13.33429 5.766257
v 2.119607 15.57092 16.76294
v 2.109203 14.43859 5.613544
v 2.119607 15.57092 16.76294
v 1.176293 16.34524 16.65505
v 2.109203 14.43859 5.613544
v 1.172462 15.20619 5.507436
v -0.9736484 15.8869 16.46166
v 8.044498E-15 13.80585 16.75163
v -1.754455 15.24598 16.55096
v 8.467452E-15 16.11563 16.42979
v -2.18777 14.31983 16.68001
v 0.9736492 15.8869 16.46166
v -2.18777 13.29188 16.82324
v 1.754455 15.24598 16.55096
v -1.754455 12.36573 16.95229
v 2.18777 14.31983 16.68001
v -0.9736492 11.72481 17.0416
v 2.18777 13.29188 16.82324
v 7.621544E-15 11.49606 17.07347
v 1.754455 12.36572 16.95229
v 0.9736484 11.72481 17.0416
v 1.176293 11.3169 17.35569
v 7.568295E-15 11.04055 17.3942
v 7.621544E-15 11.49606 17.07347
v -1.176294 11.3169 17.35569
v 0.9736484 11.72481 17.0416
v -0.9736492 11.72481 17.0416
v 1.754455 12.36572 16.95229
v -1.754455 12.36573 16.95229
v 2.119607 12.09121 17.2478
v -2.119608 12.09121 17.2478
v 2.18777 13.29188 16.82324
v -2.18777 13.29188 16.82324
v 2.643107 13.21012 17.09189
v -2.643107 13.21012 17.09189
v 2.18777 14.31983 16.68001
v -2.18777 14.31983 16.68001
v 2.643107 14.45202 16.91885
v -2.643107 14.45202 16.91885
v 1.754455 15.24598 16.55096
v -1.754455 15.24598 16.55096
v 2.119607 15.57092 16.76294
v -2.119607 15.57092 16.76294
v 0.9736492 15.8869 16.46166
v -0.9736484 15.8869 16.46166
v 1.176293 16.34524 16.65505
v -1.176292 16.34524 16.65505
v 8.467452E-15 16.11563 16.42979
v 8.590259E-15 16.62158 16.61655
vt 0.7725361 0.5074131
vt 0.7789371 0.5074131
vt 0.7725361 0.6534506
vt 0.7789371 0.6534506
vt 0.7853382 0.6534506
vt 0.7853382 0.5074131
vt 0.7580678 0.5074131
vt 0.7643161 0.5074131
vt 0.7643161 0.6534506
vt 0.7580678 0.6534506
vt 0.7388012 0.6534506
vt 0.7340734 0.6534506
vt 0.7340734 0.5074131
vt 0.7388012 0.5074131
vt 0.7435533 0.6534506
vt 0.7435533 0.5074131
vt 0.7368366 0.6534506
vt 0.7349619 0.6534506
vt 0.7349619 0.5074131
vt 0.7368366 0.5074131
vt 0.7386893 0.6534506
vt 0.7386893 0.5074131
vt 0.7405241 0.6534506
vt 0.7405241 0.5074131
vt 0.7423592 0.5074131
vt 0.7423592 0.6534506
vt 0.7442121 0.5074131
vt 0.7442121 0.6534506
vt 0.7460868 0.5074131
vt 0.7460868 0.6534506
vt 0.7330747 0.5074131
vt 0.7349588 0.5074131
vt 0.7330747 0.6534506
vt 0.7349588 0.6534506
vt 0.7368336 0.5074131
vt 0.7368336 0.6534506
vt 0.758068 0.5074131
vt 0.7643159 0.5074131
vt 0.758068 0.6534506
vt 0.7643159 0.6534506
vt 0.6010345 0.8410587
vt 0.6107092 0.8202715
vt 0.593276 0.8346567
vt 0.6107092 0.8433436
vt 0.5889702 0.8254055
vt 0.6203841 0.8410587
vt 0.5889702 0.8151374
vt 0.6281426 0.8346567
vt 0.593276 0.8058862
vt 0.6324482 0.8254055
vt 0.6010345 0.7994841
vt 0.6324482 0.8151374
vt 0.6107092 0.7971992
vt 0.6281426 0.8058861
vt 0.6203841 0.7994841
vt 0.8387551 0.8914453
vt 0.8407211 0.8919095
vt 0.8407211 0.8910943
vt 0.842687 0.8914453
vt 0.8390937 0.89071
vt 0.8423483 0.89071
vt 0.8377888 0.8896331
vt 0.8436533 0.8896331
vt 0.8371785 0.8901443
vt 0.8442636 0.8901443
vt 0.8370644 0.8880771
vt 0.8443776 0.8880771
vt 0.8363035 0.8882644
vt 0.8451385 0.8882644
vt 0.8370644 0.88635
vt 0.8443776 0.88635
vt 0.8363035 0.8861779
vt 0.8451385 0.8861779
vt 0.8377888 0.884794
vt 0.8436533 0.884794
vt 0.8371785 0.884298
vt 0.8442636 0.884298
vt 0.8390937 0.8837171
vt 0.8423483 0.8837171
vt 0.8387551 0.882997
vt 0.842687 0.882997
vt 0.8407211 0.883333
vt 0.8407211 0.8825328
vn 0.3112751 0.4999696 0.8081697
vn 0 0.9080626 0.4188343
vn 0.3747129 0.922324 -0.09438603
vn 0 0.9948073 -0.1017765
vn -0.3747126 0.9223241 -0.09438605
vn -0.3112747 0.4999699 0.8081696
vn -0.3112747 0.4999699 0.8081696
vn -0.4496301 0.330534 0.8298072
vn -0.7435707 0.6651619 -0.06828132
vn -0.3747126 0.9223241 -0.09438605
vn -0.9580485 0.2850319 -0.02999995
vn -0.7435707 0.6651619 -0.06828132
vn -0.4496301 0.330534 0.8298072
vn -0.5032944 0.1222068 0.8554299
vn -0.989651 -0.1429391 0.01262842
vn -0.4655571 -0.09177143 0.8802469
vn -0.8353665 -0.5471876 0.0524255
vn -0.989651 -0.1429391 0.01262842
vn -0.4655571 -0.09177143 0.8802469
vn -0.3363028 -0.2767199 0.9001814
vn -0.5136295 -0.8540527 0.08233284
vn -0.0775177 -0.1653334 0.9831866
vn 0 -0.9953796 0.09601886
vn 0 -0.4005616 0.9162698
vn 0.07751788 -0.165333 0.9831867
vn 0.5136285 -0.8540533 0.0823329
vn 0.3363016 -0.2767205 0.9001817
vn 0.8353663 -0.5471881 0.05242557
vn 0.4655573 -0.09177177 0.8802468
vn 0.989651 -0.1429394 0.01262846
vn 0.4655573 -0.09177177 0.8802468
vn 0.5032951 0.1222071 0.8554295
vn 0.989651 -0.1429394 0.01262846
vn 0.9580485 0.2850319 -0.02999994
vn 0.4496301 0.330534 0.8298073
vn 0.7435709 0.6651616 -0.06828132
vn 0.4496301 0.330534 0.8298073
vn 0.3112751 0.4999696 0.8081697
vn 0.7435709 0.6651616 -0.06828132
vn 0.3747129 0.922324 -0.09438603
vn 0.1512256 -0.1174273 0.9814997
vn 0 0.1380046 0.9904316
vn 0.2476956 -0.02907366 0.9684017
vn 0 -0.1892538 0.9819282
vn 0.2937603 0.08966059 0.9516647
vn -0.1512256 -0.1174273 0.9814997
vn 0.28181 0.2149256 0.9350883
vn -0.2476955 -0.02907301 0.9684017
vn 0.2151548 0.3227457 0.921707
vn -0.2937598 0.08966073 0.951665
vn 0.1058431 0.3435411 0.9331542
vn -0.2818105 0.2149248 0.9350883
vn 0 0.4402304 0.8978848
vn -0.2151548 0.322746 0.9217069
vn -0.1058425 0.3435414 0.9331542
vn 0.07751788 -0.165333 0.9831867
vn 0 -0.4005616 0.9162698
vn 0 0.4402304 0.8978848
vn -0.0775177 -0.1653334 0.9831866
vn -0.1058425 0.3435414 0.9331542
vn 0.1058431 0.3435411 0.9331542
vn -0.2151548 0.322746 0.9217069
vn 0.2151548 0.3227457 0.921707
vn 0.3363016 -0.2767205 0.9001817
vn -0.3363028 -0.2767199 0.9001814
vn -0.2818105 0.2149248 0.9350883
vn 0.28181 0.2149256 0.9350883
vn 0.4655573 -0.09177177 0.8802468
vn -0.4655571 -0.09177143 0.8802469
vn -0.2937598 0.08966073 0.951665
vn 0.2937603 0.08966059 0.9516647
vn 0.5032951 0.1222071 0.8554295
vn -0.5032944 0.1222068 0.8554299
vn -0.2476955 -0.02907301 0.9684017
vn 0.2476956 -0.02907366 0.9684017
vn 0.4496301 0.330534 0.8298073
vn -0.4496301 0.330534 0.8298072
vn -0.1512256 -0.1174273 0.9814997
vn 0.1512256 -0.1174273 0.9814997
vn 0.3112751 0.4999696 0.8081697
vn -0.3112747 0.4999699 0.8081696
vn 0 -0.1892538 0.9819282
vn 0 0.9080626 0.4188343
g LVL_1_Cannon_0
f 3/3/3 2/2/2 1/1/1
f 3/3/3 4/4/4 2/2/2
f 2/2/2 4/4/4 5/5/5
f 5/5/5 6/6/6 2/2/2
f 9/9/9 8/8/8 7/7/7
f 7/7/7 10/10/10 9/9/9
f 13/13/13 12/12/12 11/11/11
f 11/11/11 14/14/14 13/13/13
f 14/14/14 11/11/11 15/15/15
f 15/15/15 16/16/16 14/14/14
f 19/19/19 18/18/18 17/17/17
f 17/17/17 20/20/20 19/19/19
f 20/20/20 17/17/17 21/21/21
f 21/21/21 22/22/22 20/20/20
f 22/22/22 21/21/21 23/23/23
f 23/23/23 24/24/24 22/22/22
f 23/23/23 25/25/25 24/24/24
f 23/23/23 26/26/26 25/25/25
f 26/26/26 27/27/27 25/25/25
f 26/26/26 28/28/28 27/27/27
f 28/28/28 29/29/29 27/27/27
f 28/28/28 30/30/30 29/29/29
f 33/33/33 32/32/32 31/31/31
f 33/33/33 34/34/34 32/32/32
f 34/34/34 35/35/35 32/32/32
f 34/34/34 36/36/36 35/35/35
f 39/39/39 38/38/38 37/37/37
f 39/39/39 40/40/40 38/38/38
f 43/43/43 42/42/42 41/41/41
f 41/41/41 42/42/42 44/44/44
f 45/45/45 42/42/42 43/43/43
f 44/44/44 42/42/42 46/46/46
f 47/47/47 42/42/42 45/45/45
f 46/46/46 42/42/42 48/48/48
f 49/49/49 42/42/42 47/47/47
f 48/48/48 42/42/42 50/50/50
f 51/51/51 42/42/42 49/49/49
f 50/50/50 42/42/42 52/52/52
f 53/53/53 42/42/42 51/51/51
f 52/52/52 42/42/42 54/54/54
f 55/55/55 42/42/42 53/53/53
f 54/54/54 42/42/42 55/55/55
f 58/58/58 57/57/57 56/56/56
f 59/59/59 57/57/57 58/58/58
f 56/56/56 60/60/60 58/58/58
f 61/61/61 59/59/59 58/58/58
f 62/62/62 60/60/60 56/56/56
f 59/59/59 61/61/61 63/63/63
f 64/64/64 62/62/62 56/56/56
f 63/63/63 65/65/65 59/59/59
f 66/66/66 62/62/62 64/64/64
f 65/65/65 63/63/63 67/67/67
f 68/68/68 66/66/66 64/64/64
f 67/67/67 69/69/69 65/65/65
f 66/66/66 68/68/68 70/70/70
f 69/69/69 67/67/67 71/71/71
f 72/72/72 70/70/70 68/68/68
f 71/71/71 73/73/73 69/69/69
f 70/70/70 72/72/72 74/74/74
f 73/73/73 71/71/71 75/75/75
f 72/72/72 76/76/76 74/74/74
f 75/75/75 77/77/77 73/73/73
f 78/78/78 74/74/74 76/76/76
f 77/77/77 75/75/75 79/79/79
f 76/76/76 80/80/80 78/78/78
f 79/79/79 81/81/81 77/77/77
f 82/82/82 78/78/78 80/80/80
f 81/81/81 79/79/79 82/82/82
f 83/83/83 82/82/82 80/80/80
f 82/82/82 83/83/83 81/81/81
