g MechArmLvl2
v -1.386918 8.751116 1.839461
v -1.241387 10.98755 -0.9450311
v -1.531142 8.774531 -0.8038502
v -1.029946 10.96573 1.630576
v -2.973644 11.69388 -1.70251
v -2.935287 8.247887 -1.484517
v -1.531142 8.774531 -0.8038502
v -4.391796 8.508692 -1.313527
v -4.691776 11.6355 -1.512224
v -2.645677 11.70652 2.274406
v -1.386918 8.751116 1.839461
v -2.709723 8.243458 2.59694
v -1.531142 8.774531 -0.8038502
v -2.935287 8.247887 -1.484517
v -4.186592 8.522025 2.406654
v -4.391796 8.508692 -1.313527
v -4.394881 11.67221 2.11267
v -4.186592 8.522025 2.406654
v -4.391796 8.508692 -1.313527
v -7.158316 8.455462 2.383024
v -4.035429 8.629185 -1.10359
v -7.455434 8.440559 -1.292292
v -3.770212 8.629822 2.173026
v -7.464423 11.45078 2.092585
v -3.90249 11.46197 1.914094
v -7.891406 11.39181 -1.488594
v -4.285229 11.42761 -1.278596
v -7.455434 8.440559 -1.292292
v -4.035429 8.629185 -1.10359
v -12.82057 9.24294 -2.358697
v -13.8198 11.6395 -2.387003
v -13.79763 10.05115 -2.386561
v -12.82093 11.70225 -2.312395
v -9.565474 11.57982 -1.714357
v -11.05998 7.786181 -1.699959
v -9.233536 8.119887 -1.494491
v -7.446128 11.56017 -1.717452
v -7.11419 8.207588 -1.497586
v -9.236949 11.62044 2.29672
v -7.117603 11.60079 2.293625
v -6.887123 8.222342 2.618928
v -7.11419 8.207588 -1.497586
v -6.887123 8.222342 2.618928
v -9.006469 8.134643 2.622024
v -11.18417 10.59694 3.234748
v -11.00051 7.77954 2.965953
v -12.76435 8.531922 4.204572
v -12.82898 9.846392 4.288157
v -13.07157 11.76533 2.077288
v -13.60532 9.581602 3.118997
v -14.41231 9.383538 3.661841
v -12.76435 8.531922 4.204572
v -13.10115 9.796931 2.335468
v -14.06279 10.01994 2.167314
v -14.13119 11.71577 2.088785
v -14.68365 11.66774 0.6894047
v -14.52179 11.65409 -1.059529
v -14.66808 10.02816 0.6894055
v -15.22848 10.0101 2.376667
v -14.06279 10.01994 2.167314
v -15.57986 10.02046 0.8099104
v -14.68365 11.66774 0.6894047
v -17.04578 9.702547 1.857599
v -15.60784 11.40517 0.8560563
v -14.13119 11.71577 2.088785
v -15.31658 11.44806 2.235814
v -15.22848 10.0101 2.376667
v -14.06279 10.01994 2.167314
v -14.48616 10.03712 -1.064929
v -15.72528 10.01942 0.4782566
v -14.66808 10.02816 0.6894055
v -15.61992 10.02734 -1.100397
v -14.52179 11.65409 -1.059529
v -17.30677 9.690935 -0.3696133
v -15.6575 11.3891 -1.045177
v -14.68365 11.66774 0.6894047
v -15.73867 11.40175 0.4293205
v -15.72528 10.01942 0.4782566
v -14.66808 10.02816 0.6894055
v -13.79763 10.05115 -2.386561
v -15.40843 10.09237 -1.372103
v -14.48616 10.03712 -1.064929
v -14.96934 10.10366 -2.688276
v -13.8198 11.6395 -2.387003
v -16.70998 9.691242 -2.5308
v -14.99891 11.31225 -2.660116
v -14.52179 11.65409 -1.059529
v -15.431 11.32674 -1.390651
v -15.40843 10.09237 -1.372103
v -14.48616 10.03712 -1.064929
v -13.79763 10.05115 -2.386561
v -14.48616 10.03712 -1.064929
v -14.66808 10.02816 0.6894055
v -14.06279 10.01994 2.167314
v -12.82057 9.24294 -2.358697
v -13.10115 9.796931 2.335468
v -11.05998 7.786181 -1.699959
v -11.00051 7.77954 2.965953
v -13.60532 9.581602 3.118997
v -12.76435 8.531922 4.204572
v -14.41231 9.383538 3.661841
v -9.006469 8.134643 2.622024
v -9.233536 8.119887 -1.494491
v -7.11419 8.207588 -1.497586
v -6.887123 8.222342 2.618928
v -7.632146 11.75164 3.179681
v -6.471767 13.97595 0.37828
v -6.471767 11.75164 0.37828
v -7.632146 13.97595 3.179681
v -10.43355 11.75164 4.340058
v -10.43355 13.97595 4.340058
v -13.23495 11.75164 3.17968
v -13.23495 13.97595 3.17968
v -14.39532 11.75164 0.37828
v -14.39532 13.97595 0.37828
v -13.23495 11.75164 -2.42312
v -13.23495 13.97595 -2.42312
v -10.43355 11.75164 -3.583498
v -10.43355 13.97595 -3.583498
v -7.632146 11.75164 -2.42312
v -7.632146 13.97595 -2.42312
v -6.471767 11.75164 0.37828
v -6.471767 13.97595 0.37828
v -10.43355 11.75164 -3.583498
v -10.43355 11.75164 0.37828
v -7.632146 11.75164 -2.42312
v -13.23495 11.75164 -2.42312
v -6.471767 11.75164 0.37828
v -14.39532 11.75164 0.37828
v -7.632146 11.75164 3.179681
v -13.23495 11.75164 3.17968
v -10.43355 11.75164 4.340058
v -7.632146 13.97595 -2.42312
v -10.43355 13.97595 0.37828
v -10.43355 13.97595 -3.583498
v -6.471767 13.97595 0.37828
v -13.23495 13.97595 -2.42312
v -7.632146 13.97595 3.179681
v -14.39532 13.97595 0.37828
v -10.43355 13.97595 4.340058
v -13.23495 13.97595 3.17968
vt 0.4061531 0.2269953
vt 0.417005 0.1650771
vt 0.3988703 0.1719466
vt 0.4244127 0.2201903
vt 0.4547804 0.1504759
vt 0.4199964 0.09376755
vt 0.3974982 0.1209113
vt 0.4509309 0.08327556
vt 0.4868872 0.1415805
vt 0.4605858 0.2205452
vt 0.4208453 0.2709273
vt 0.4503524 0.2797346
vt 0.3949943 0.3206654
vt 0.4165968 0.3499483
vt 0.4797366 0.2886845
vt 0.4459854 0.3603448
vt 0.4960826 0.2182764
vt 0.5133849 0.2142056
vt 0.5034491 0.1370806
vt 0.6465685 0.1569967
vt 0.7134843 0.08910656
vt 0.644034 0.0819968
vt 0.7157376 0.155971
vt 0.6447623 0.2185318
vt 0.7171953 0.2138939
vt 0.6444159 0.2919395
vt 0.7168468 0.2793382
vt 0.6631106 0.3498414
vt 0.7312806 0.3347797
vt 0.7591325 0.7335436
vt 0.7128178 0.7599897
vt 0.7454171 0.7558159
vt 0.7097129 0.7396461
vt 0.6994349 0.6716567
vt 0.7844642 0.6924354
vt 0.7717966 0.6564381
vt 0.6979163 0.6280375
vt 0.7657255 0.6131516
vt 0.6129202 0.6656052
vt 0.6164954 0.6207469
vt 0.6162227 0.5960113
vt 0.7008644 0.6042678
vt 0.5501692 0.6049525
vt 0.5426254 0.6480469
vt 0.581853 0.7073384
vt 0.5252064 0.683384
vt 0.5243163 0.7272028
vt 0.5476031 0.738398
vt 0.6192495 0.7463407
vt 0.5633614 0.7621182
vt 0.5471627 0.7746703
vt 0.5208645 0.7451891
vt 0.5811875 0.7562189
vt 0.5892096 0.7745689
vt 0.6214948 0.7686962
vt 0.6507714 0.779503
vt 0.6864369 0.7751964
vt 0.4831427 0.5824853
vt 0.524644 0.6268485
vt 0.5309576 0.5926323
vt 0.4805694 0.6167942
vt 0.4257525 0.5855994
vt 0.4830932 0.6750194
vt 0.4432317 0.6146387
vt 0.3882762 0.6248541
vt 0.4157719 0.6420159
vt 0.42091 0.6808678
vt 0.3857341 0.6801761
vt 0.4831427 0.5824853
vt 0.524644 0.6268486
vt 0.5309576 0.5926323
vt 0.4805694 0.6167942
vt 0.4257526 0.5855994
vt 0.4830932 0.6750194
vt 0.4432317 0.6146387
vt 0.388276 0.6248541
vt 0.4157721 0.6420159
vt 0.42091 0.6808678
vt 0.3857341 0.6801761
vt 0.4831428 0.5824853
vt 0.524644 0.6268485
vt 0.5309578 0.5926323
vt 0.4805695 0.6167942
vt 0.4257525 0.5855994
vt 0.4830932 0.6750193
vt 0.4432317 0.6146387
vt 0.3882764 0.6248542
vt 0.4157721 0.6420158
vt 0.4209099 0.6808678
vt 0.3857341 0.6801761
vt 0.284329 0.9755894
vt 0.3114149 0.9891258
vt 0.3471173 0.9922215
vt 0.3769349 0.9794196
vt 0.2849177 0.9498264
vt 0.3806464 0.9594146
vt 0.2973199 0.9031247
vt 0.3920774 0.8999566
vt 0.3994792 0.9641945
vt 0.4208566 0.9363319
vt 0.4162889 0.9753355
vt 0.3842219 0.8589607
vt 0.300696 0.8653206
vt 0.2997994 0.8221843
vt 0.3833253 0.8158244
vt 0.9416778 0.01517544
vt 0.9843954 0.06044376
vt 0.9843954 0.01517544
vt 0.9416778 0.06044376
vt 0.8989604 0.01517544
vt 0.8989604 0.06044376
vt 0.8562429 0.01517544
vt 0.8562429 0.06044376
vt 0.8135253 0.01517544
vt 0.8135253 0.06044376
vt 0.7708077 0.01517544
vt 0.7708077 0.06044376
vt 0.7280902 0.01517544
vt 0.7280902 0.06044376
vt 0.6853727 0.01517544
vt 0.6853727 0.06044376
vt 0.6426554 0.01517544
vt 0.6426554 0.06044376
vt 0.6064934 0.02106224
vt 0.6064934 0.04236681
vt 0.6221857 0.02756219
vt 0.5908011 0.02756219
vt 0.6286856 0.04325451
vt 0.5843012 0.04325451
vt 0.6221857 0.0589468
vt 0.5908011 0.0589468
vt 0.6064934 0.06544675
vt 0.9447623 0.2253146
vt 0.914891 0.1479402
vt 0.8830524 0.2255141
vt 0.9882567 0.1815379
vt 0.8392756 0.1820198
vt 0.9880571 0.1198278
vt 0.8390762 0.1203098
vt 0.9442804 0.07633355
vt 0.8825704 0.07653306
vn 0.7859691 -0.4860298 0.3821356
vn 0.8003432 0.4235781 -0.4243023
vn 0.7477205 -0.5083367 -0.4272095
vn 0.8442781 0.4351686 0.3127662
vn 0.1829943 0.7360888 -0.6516796
vn 0.1040845 -0.7443775 -0.6595972
vn 0.7477205 -0.5083367 -0.4272095
vn -0.8400089 -0.4420481 -0.3146085
vn -0.8614173 0.4013564 -0.3112448
vn 0.2010646 0.7827849 0.588915
vn 0.7859691 -0.4860298 0.3821356
vn 0.122657 -0.6965733 0.7069235
vn 0.7477205 -0.5083367 -0.4272095
vn 0.1040845 -0.7443775 -0.6595972
vn -0.7949169 -0.416177 0.4414792
vn -0.8400089 -0.4420481 -0.3146085
vn -0.8174704 0.435528 0.3769051
vn -0.7949169 -0.416177 0.4414792
vn -0.8400089 -0.4420481 -0.3146085
vn 0.07880116 -0.7227246 0.6866291
vn 0.07556219 -0.8018895 -0.5926749
vn 0.07656566 -0.7256225 -0.6838199
vn 0.0788099 -0.7216342 0.6877741
vn 0.02578378 0.822977 0.5674891
vn 0.02942293 0.7760211 0.6300204
vn 0.0339197 0.7369815 -0.6750613
vn 0.03188266 0.7647759 -0.6435071
vn 0.07656566 -0.7256225 -0.6838199
vn 0.07556219 -0.8018895 -0.5926749
vn -0.4429389 -0.7250888 -0.5273057
vn -0.02183329 0.8652996 -0.5007793
vn -0.2431412 -0.7984764 -0.5507429
vn 0.05747779 0.9478285 -0.3135561
vn 0.07638307 0.8679703 -0.4907068
vn -0.2641397 -0.8457857 -0.4635482
vn 0.1506943 -0.7636392 -0.6278109
vn 0.7163514 0.5128449 -0.4731075
vn 0.7855818 -0.4487175 -0.4260445
vn 0.05893167 0.8792778 0.4726496
vn 0.7743603 0.5279649 0.3487396
vn 0.8197792 -0.4190213 0.3903629
vn 0.7855818 -0.4487175 -0.4260445
vn 0.8197792 -0.4190213 0.3903629
vn 0.1834396 -0.7563432 0.627929
vn 0.1313172 0.2785418 0.9514043
vn -0.1682269 -0.8881763 0.427601
vn 0.1254392 -0.6872402 0.7155179
vn 0.2326178 0.4213384 0.8765631
vn -0.03575872 0.9706395 0.2378661
vn -0.8741219 -0.03811548 -0.4842086
vn -0.9416223 -0.2204209 0.2544839
vn 0.1254392 -0.6872402 0.7155179
vn -0.7682759 -0.6075166 0.2016823
vn -0.3044745 -0.8062507 0.5072031
vn -0.06258561 0.8806855 0.4695487
vn -0.2021063 0.9790114 0.02626205
vn -0.1872273 0.9765911 -0.1059049
vn -0.07471437 -0.9969453 0.02275569
vn 0.008915145 -0.5921304 0.8057927
vn -0.3044745 -0.8062507 0.5072031
vn -0.2233611 -0.682345 -0.6960713
vn -0.2021063 0.9790114 0.02626205
vn -0.9114433 -0.3478506 0.2197066
vn -0.5405698 0.6663275 -0.5136067
vn -0.06258561 0.8806855 0.4695487
vn -0.29829 0.6404167 0.7077355
vn 0.008915145 -0.5921304 0.8057927
vn -0.3044745 -0.8062507 0.5072031
vn -0.06508397 -0.9952604 -0.07225464
vn -0.1955947 -0.7028316 0.6839374
vn -0.07471437 -0.9969453 0.02275569
vn -0.08382178 -0.6729924 -0.7348844
vn -0.1872273 0.9765911 -0.1059049
vn -0.9504238 -0.3068732 -0.05023247
vn -0.4021185 0.6720659 -0.6217942
vn -0.2021063 0.9790114 0.02626205
vn -0.507076 0.6853215 0.5226935
vn -0.1955947 -0.7028316 0.6839374
vn -0.07471437 -0.9969453 0.02275569
vn -0.2431412 -0.7984764 -0.5507429
vn -0.3284737 -0.6800204 0.6554976
vn -0.06508397 -0.9952604 -0.07225464
vn 0.1143343 -0.6339089 -0.7649099
vn -0.02183329 0.8652996 -0.5007793
vn -0.9083295 -0.2937691 -0.29772
vn -0.2202856 0.6306521 -0.7441453
vn -0.1872273 0.9765911 -0.1059049
vn -0.6117318 0.6722789 0.4169234
vn -0.3284737 -0.6800204 0.6554976
vn -0.06508397 -0.9952604 -0.07225464
vn -0.2431412 -0.7984764 -0.5507429
vn -0.06508397 -0.9952604 -0.07225464
vn -0.07471437 -0.9969453 0.02275569
vn -0.3044745 -0.8062507 0.5072031
vn -0.4429389 -0.7250888 -0.5273057
vn -0.7682759 -0.6075166 0.2016823
vn -0.2641397 -0.8457857 -0.4635482
vn -0.1682269 -0.8881763 0.427601
vn -0.8741219 -0.03811548 -0.4842086
vn 0.1254392 -0.6872402 0.7155179
vn -0.9416223 -0.2204209 0.2544839
vn 0.1834396 -0.7563432 0.627929
vn 0.1506943 -0.7636392 -0.6278109
vn 0.7855818 -0.4487175 -0.4260445
vn 0.8197792 -0.4190213 0.3903629
vn 0.5880079 -0.5554219 0.5880079
vn 0.8315688 0.5554218 1.72983E-07
vn 0.8315688 -0.5554218 0
vn 0.5880078 0.5554218 0.588008
vn 0 -0.5554219 0.8315687
vn 0 0.5554219 0.8315687
vn -0.5880078 -0.5554219 0.5880078
vn -0.5880078 0.5554219 0.5880078
vn -0.8315686 -0.555422 0
vn -0.8315686 0.555422 -1.39796E-07
vn -0.5880078 -0.5554219 -0.5880078
vn -0.5880078 0.5554219 -0.588008
vn 0 -0.5554219 -0.8315688
vn 0 0.5554219 -0.8315688
vn 0.5880078 -0.5554219 -0.5880078
vn 0.5880078 0.5554219 -0.5880078
vn 0.8315688 -0.5554218 0
vn 0.8315688 0.5554218 1.72983E-07
vn 0 -0.5554219 -0.8315688
vn 0 -1 0
vn 0.5880078 -0.5554219 -0.5880078
vn -0.5880078 -0.5554219 -0.5880078
vn 0.8315688 -0.5554218 0
vn -0.8315686 -0.555422 0
vn 0.5880079 -0.5554219 0.5880079
vn -0.5880078 -0.5554219 0.5880078
vn 0 -0.5554219 0.8315687
vn 0.5880078 0.5554219 -0.5880078
vn 0 1 0
vn 0 0.5554219 -0.8315688
vn 0.8315688 0.5554218 1.72983E-07
vn -0.5880078 0.5554219 -0.588008
vn 0.5880078 0.5554218 0.588008
vn -0.8315686 0.555422 -1.39796E-07
vn 0 0.5554219 0.8315687
vn -0.5880078 0.5554219 0.5880078
g MechArmLvl2_0
f 3/3/3 2/2/2 1/1/1
f 2/2/2 4/4/4 1/1/1
f 4/4/4 2/2/2 5/5/5
f 5/5/5 2/2/2 6/6/6
f 2/2/2 7/7/7 6/6/6
f 5/5/5 6/6/6 8/8/8
f 9/9/9 5/5/5 8/8/8
f 10/10/10 4/4/4 5/5/5
f 10/10/10 5/5/5 9/9/9
f 11/11/11 4/4/4 10/10/10
f 12/12/12 11/11/11 10/10/10
f 13/13/13 11/11/11 12/12/12
f 14/14/14 13/13/13 12/12/12
f 14/14/14 12/12/12 15/15/15
f 16/16/16 14/14/14 15/15/15
f 15/15/15 12/12/12 17/17/17
f 12/12/12 10/10/10 17/17/17
f 17/17/17 10/10/10 9/9/9
f 17/17/17 9/9/9 18/18/18
f 9/9/9 19/19/19 18/18/18
f 22/22/22 21/21/21 20/20/20
f 21/21/21 23/23/23 20/20/20
f 20/20/20 23/23/23 24/24/24
f 23/23/23 25/25/25 24/24/24
f 24/24/24 25/25/25 26/26/26
f 25/25/25 27/27/27 26/26/26
f 26/26/26 27/27/27 28/28/28
f 27/27/27 29/29/29 28/28/28
f 32/32/32 31/31/31 30/30/30
f 31/31/31 33/33/33 30/30/30
f 33/33/33 34/34/34 30/30/30
f 30/30/30 34/34/34 35/35/35
f 34/34/34 36/36/36 35/35/35
f 34/34/34 37/37/37 36/36/36
f 37/37/37 38/38/38 36/36/36
f 39/39/39 34/34/34 33/33/33
f 40/40/40 37/37/37 34/34/34
f 39/39/39 40/40/40 34/34/34
f 37/37/37 40/40/40 41/41/41
f 42/42/42 37/37/37 41/41/41
f 43/43/43 40/40/40 39/39/39
f 44/44/44 43/43/43 39/39/39
f 44/44/44 39/39/39 45/45/45
f 46/46/46 44/44/44 45/45/45
f 47/47/47 46/46/46 45/45/45
f 48/48/48 47/47/47 45/45/45
f 49/49/49 39/39/39 33/33/33
f 39/39/39 49/49/49 45/45/45
f 49/49/49 33/33/33 31/31/31
f 50/50/50 48/48/48 45/45/45
f 50/50/50 51/51/51 48/48/48
f 48/48/48 51/51/51 52/52/52
f 53/53/53 50/50/50 45/45/45
f 49/49/49 53/53/53 45/45/45
f 54/54/54 53/53/53 49/49/49
f 55/55/55 54/54/54 49/49/49
f 55/55/55 49/49/49 31/31/31
f 56/56/56 55/55/55 31/31/31
f 57/57/57 56/56/56 31/31/31
f 60/60/60 59/59/59 58/58/58
f 59/59/59 61/61/61 58/58/58
f 58/58/58 61/61/61 62/62/62
f 59/59/59 63/63/63 61/61/61
f 61/61/61 64/64/64 62/62/62
f 61/61/61 63/63/63 64/64/64
f 62/62/62 64/64/64 65/65/65
f 64/64/64 63/63/63 66/66/66
f 64/64/64 66/66/66 65/65/65
f 66/66/66 63/63/63 67/67/67
f 65/65/65 66/66/66 68/68/68
f 66/66/66 67/67/67 68/68/68
f 71/71/71 70/70/70 69/69/69
f 70/70/70 72/72/72 69/69/69
f 69/69/69 72/72/72 73/73/73
f 70/70/70 74/74/74 72/72/72
f 72/72/72 75/75/75 73/73/73
f 72/72/72 74/74/74 75/75/75
f 73/73/73 75/75/75 76/76/76
f 75/75/75 74/74/74 77/77/77
f 75/75/75 77/77/77 76/76/76
f 77/77/77 74/74/74 78/78/78
f 76/76/76 77/77/77 79/79/79
f 77/77/77 78/78/78 79/79/79
f 82/82/82 81/81/81 80/80/80
f 81/81/81 83/83/83 80/80/80
f 80/80/80 83/83/83 84/84/84
f 81/81/81 85/85/85 83/83/83
f 83/83/83 86/86/86 84/84/84
f 83/83/83 85/85/85 86/86/86
f 84/84/84 86/86/86 87/87/87
f 86/86/86 85/85/85 88/88/88
f 86/86/86 88/88/88 87/87/87
f 88/88/88 85/85/85 89/89/89
f 87/87/87 88/88/88 90/90/90
f 88/88/88 89/89/89 90/90/90
f 93/93/93 92/92/92 91/91/91
f 94/94/94 93/93/93 91/91/91
f 94/94/94 91/91/91 95/95/95
f 96/96/96 94/94/94 95/95/95
f 96/96/96 95/95/95 97/97/97
f 98/98/98 96/96/96 97/97/97
f 99/99/99 96/96/96 98/98/98
f 100/100/100 99/99/99 98/98/98
f 100/100/100 101/101/101 99/99/99
f 98/98/98 97/97/97 102/102/102
f 97/97/97 103/103/103 102/102/102
f 103/103/103 104/104/104 102/102/102
f 104/104/104 105/105/105 102/102/102
f 108/108/108 107/107/107 106/106/106
f 107/107/107 109/109/109 106/106/106
f 106/106/106 109/109/109 110/110/110
f 109/109/109 111/111/111 110/110/110
f 110/110/110 111/111/111 112/112/112
f 111/111/111 113/113/113 112/112/112
f 112/112/112 113/113/113 114/114/114
f 113/113/113 115/115/115 114/114/114
f 114/114/114 115/115/115 116/116/116
f 115/115/115 117/117/117 116/116/116
f 116/116/116 117/117/117 118/118/118
f 117/117/117 119/119/119 118/118/118
f 118/118/118 119/119/119 120/120/120
f 119/119/119 121/121/121 120/120/120
f 120/120/120 121/121/121 122/122/122
f 121/121/121 123/123/123 122/122/122
f 126/126/126 125/125/125 124/124/124
f 124/124/124 125/125/125 127/127/127
f 128/128/128 125/125/125 126/126/126
f 127/127/127 125/125/125 129/129/129
f 130/130/130 125/125/125 128/128/128
f 129/129/129 125/125/125 131/131/131
f 132/132/132 125/125/125 130/130/130
f 131/131/131 125/125/125 132/132/132
f 135/135/135 134/134/134 133/133/133
f 133/133/133 134/134/134 136/136/136
f 137/137/137 134/134/134 135/135/135
f 136/136/136 134/134/134 138/138/138
f 139/139/139 134/134/134 137/137/137
f 138/138/138 134/134/134 140/140/140
f 141/141/141 134/134/134 139/139/139
f 140/140/140 134/134/134 141/141/141
