g MechArmLvl5
v -1.386918 8.751116 1.839461
v -1.241387 10.98755 -0.9450311
v -1.531142 8.774531 -0.8038502
v -1.029946 10.96573 1.630576
v -2.973644 11.69388 -1.70251
v -2.935287 8.247887 -1.484517
v -1.531142 8.774531 -0.8038502
v -4.391796 8.508692 -1.313527
v -4.691776 11.6355 -1.512224
v -2.645677 11.70652 2.274406
v -1.386918 8.751116 1.839461
v -2.709723 8.243458 2.59694
v -1.531142 8.774531 -0.8038502
v -2.935287 8.247887 -1.484517
v -4.186592 8.522025 2.406654
v -4.391796 8.508692 -1.313527
v -4.394881 11.67221 2.11267
v -4.186592 8.522025 2.406654
v -4.391796 8.508692 -1.313527
v -7.158316 8.455462 2.383024
v -4.035429 8.629185 -1.10359
v -7.455434 8.440559 -1.292292
v -3.770212 8.629822 2.173026
v -7.464423 11.45078 2.092585
v -3.90249 11.46197 1.914094
v -7.891406 11.39181 -1.488594
v -4.285229 11.42761 -1.278596
v -7.455434 8.440559 -1.292292
v -4.035429 8.629185 -1.10359
v -13.23603 8.671865 -2.741156
v -13.67183 11.89713 -3.149269
v -14.07141 9.650325 -3.154132
v -13.23643 11.72913 -2.689028
v -9.627684 11.71509 -1.955001
v -11.31023 7.444154 -1.938792
v -9.253982 7.819847 -1.707472
v -7.240061 11.71509 -1.955001
v -6.866358 7.940701 -1.707472
v -9.257824 11.76083 2.560742
v -6.870201 11.76083 2.560742
v -6.610723 7.957311 2.926975
v -6.866358 7.940701 -1.707472
v -6.610723 7.957311 2.926975
v -8.998345 7.836457 2.926975
v -11.45005 10.60856 3.616791
v -11.24328 7.436677 3.314176
v -12.83906 8.304724 5.022029
v -12.92233 9.998565 5.129737
v -13.51861 11.80015 2.252958
v -13.80545 9.491368 3.356357
v -15.10164 9.342339 3.671801
v -12.83906 8.304724 5.022029
v -13.5519 9.295558 2.543621
v -14.41123 9.90521 2.681894
v -14.07089 11.99486 2.586684
v -14.7789 11.93331 0.7933064
v -14.57146 11.91582 -1.448043
v -15.11856 10.12698 0.7933074
v -15.56754 12.22694 3.099037
v -14.41123 9.90521 2.681894
v -16.33839 12.24022 1.19112
v -14.7789 11.93331 0.7933064
v -17.44125 11.61659 2.733671
v -15.89088 14.02317 1.214818
v -14.07089 11.99486 2.586684
v -15.23502 14.07814 2.898808
v -15.56754 12.22694 3.099037
v -14.41123 9.90521 2.681894
v -14.88542 9.843586 -1.454963
v -16.29653 12.24936 0.4307612
v -15.11856 10.12698 0.7933074
v -16.16151 12.2595 -1.592365
v -14.57146 11.91582 -1.448043
v -17.78367 11.61217 -0.6558276
v -15.73309 14.01304 -1.521598
v -14.7789 11.93331 0.7933064
v -15.8371 14.02925 0.368047
v -16.29653 12.24936 0.4307612
v -15.11856 10.12698 0.7933074
v -14.07141 9.650325 -3.154132
v -15.89482 12.29313 -2.300176
v -14.88542 9.843586 -1.454963
v -14.98434 12.30759 -3.827518
v -13.67183 11.89713 -3.149269
v -16.67946 11.56285 -3.992098
v -14.55825 13.86483 -3.747124
v -14.57146 11.91582 -1.448043
v -15.44717 13.8834 -2.276336
v -15.89482 12.29313 -2.300176
v -14.88542 9.843586 -1.454963
v -14.07141 9.650325 -3.154132
v -14.88542 9.843586 -1.454963
v -15.11856 10.12698 0.7933074
v -14.41123 9.90521 2.681894
v -13.23603 8.671865 -2.741156
v -13.5519 9.295558 2.543621
v -11.31023 7.444154 -1.938792
v -11.24328 7.436677 3.314176
v -13.80545 9.491368 3.356357
v -12.83906 8.304724 5.022029
v -15.10164 9.342339 3.671801
v -8.998345 7.836457 2.926975
v -9.253982 7.819847 -1.707472
v -6.866358 7.940701 -1.707472
v -6.610723 7.957311 2.926975
v -13.8757 11.88034 -0.2434597
v -14.90276 12.96288 -1.381831
v -14.53764 12.96288 1.646324
v -13.53278 11.89693 1.97415
v -10.29212 11.81004 0.3380672
v -12.64695 12.96288 3.600998
v -11.95204 11.88034 3.566831
v -13.39697 12.96288 4.072691
v -13.84736 14.03819 -0.2577705
v -14.90276 12.96288 -1.381831
v -14.11083 12.96288 -0.9637518
v -12.7975 12.96288 -3.389354
v -12.82147 13.99475 -2.253248
v -10.26378 13.9679 0.3237616
v -10.02911 12.96288 -4.63945
v -10.81864 13.94105 -3.264397
v -11.95204 11.88034 3.566831
v -13.39697 12.96288 4.072691
v -10.41522 12.96288 4.696181
v -9.737254 11.83689 3.926231
v -10.29212 11.81004 0.3380672
v -7.925387 12.96288 3.552982
v -7.734425 11.78319 2.915083
v -7.600139 12.96288 4.419611
v -11.92369 14.03819 3.55252
v -13.39697 12.96288 4.072691
v -12.64695 12.96288 3.600998
v -14.53764 12.96288 1.646324
v -13.50443 14.05479 1.959838
v -10.26378 13.9679 0.3237616
v -14.90276 12.96288 -1.381831
v -13.84736 14.03819 -0.2577705
v -7.734425 11.78319 2.915083
v -7.600139 12.96288 4.419611
v -6.060972 12.96288 1.810933
v -6.708542 11.73974 0.9195999
v -10.29212 11.81004 0.3380672
v -6.418809 12.96288 -0.9246484
v -7.051464 11.72315 -1.298008
v -5.55246 12.96288 -0.9142282
v -7.051464 11.72315 -1.298008
v -5.55246 12.96288 -0.9142282
v -7.586158 12.96288 -3.152817
v -8.632205 11.73974 -2.890691
v -10.29212 11.81004 0.3380672
v -10.26648 12.96288 -3.69303
v -10.84697 11.78319 -3.250092
v -10.02911 12.96288 -4.63945
v -10.84697 11.78319 -3.250092
v -10.02911 12.96288 -4.63945
v -12.7975 12.96288 -3.389354
v -12.84981 11.83689 -2.238943
v -10.29212 11.81004 0.3380672
v -14.11083 12.96288 -0.9637518
v -13.8757 11.88034 -0.2434597
v -14.90276 12.96288 -1.381831
v -10.81864 13.94105 -3.264397
v -10.02911 12.96288 -4.63945
v -10.26648 12.96288 -3.69303
v -7.586158 12.96288 -3.152817
v -8.603865 13.8976 -2.904999
v -10.26378 13.9679 0.3237616
v -5.55246 12.96288 -0.9142282
v -7.023123 13.88101 -1.312316
v -7.70609 13.94105 2.900778
v -7.600139 12.96288 4.419611
v -7.925387 12.96288 3.552982
v -10.41522 12.96288 4.696181
v -9.708919 13.99475 3.911926
v -10.26378 13.9679 0.3237616
v -13.39697 12.96288 4.072691
v -11.92369 14.03819 3.55252
v -7.023123 13.88101 -1.312316
v -5.55246 12.96288 -0.9142282
v -6.418809 12.96288 -0.9246484
v -6.060972 12.96288 1.810933
v -6.680202 13.8976 0.9052922
v -10.26378 13.9679 0.3237616
v -7.600139 12.96288 4.419611
v -7.70609 13.94105 2.900778
vt 0.530415 0.2244975
vt 0.5372489 0.1655928
vt 0.5231321 0.1694488
vt 0.5446566 0.220706
vt 0.5750244 0.1509916
vt 0.5402403 0.09428322
vt 0.5177421 0.1214269
vt 0.5711749 0.08379123
vt 0.6071312 0.1420962
vt 0.5808298 0.2210609
vt 0.5410892 0.2714429
vt 0.5705964 0.2802502
vt 0.5152382 0.3211811
vt 0.5368407 0.350464
vt 0.5999805 0.2892001
vt 0.5662293 0.3608604
vt 0.6163265 0.2187921
vt 0.6316199 0.2177348
vt 0.6216841 0.1406098
vt 0.7370564 0.15119
vt 0.8039722 0.08329988
vt 0.7345219 0.07619011
vt 0.8062254 0.1501643
vt 0.7352501 0.2127251
vt 0.8076831 0.2080872
vt 0.7349037 0.2861328
vt 0.8073347 0.2735315
vt 0.7535983 0.3440347
vt 0.8217684 0.3289731
vt 0.683876 0.5172397
vt 0.6359308 0.54893
vt 0.6757699 0.5381861
vt 0.628139 0.5391876
vt 0.6094515 0.4701838
vt 0.698836 0.4754544
vt 0.6817508 0.442937
vt 0.6084086 0.4246256
vt 0.6723056 0.3993543
vt 0.5224369 0.4585665
vt 0.5301588 0.4120897
vt 0.5303713 0.390166
vt 0.6130763 0.403445
vt 0.4707786 0.3828293
vt 0.4572848 0.425558
vt 0.4856285 0.4958696
vt 0.4340568 0.4530765
vt 0.4216717 0.4905695
vt 0.441864 0.5110363
vt 0.5217216 0.5455968
vt 0.4590079 0.5418411
vt 0.4395597 0.5596452
vt 0.4095711 0.5173218
vt 0.4724671 0.5473154
vt 0.4811313 0.5624655
vt 0.5177675 0.5573424
vt 0.5553588 0.5708407
vt 0.6013255 0.5664663
vt 0.4577892 0.7878021
vt 0.4351066 0.70166
vt 0.4901057 0.7415222
vt 0.4057724 0.7399453
vt 0.403667 0.7887969
vt 0.3779606 0.6941746
vt 0.3869211 0.750982
vt 0.337878 0.7842689
vt 0.3555197 0.7561773
vt 0.3382138 0.7379528
vt 0.2861404 0.7859507
vt 0.4577891 0.7878016
vt 0.4351066 0.7016602
vt 0.4901057 0.7415222
vt 0.4057723 0.7399449
vt 0.4036669 0.7887969
vt 0.3779606 0.6941746
vt 0.386921 0.7509822
vt 0.337878 0.7842689
vt 0.3555194 0.7561773
vt 0.3382137 0.7379529
vt 0.2861402 0.7859508
vt 0.4577891 0.7878016
vt 0.4351067 0.7016599
vt 0.4901054 0.7415221
vt 0.4057723 0.7399449
vt 0.403667 0.7887969
vt 0.3779606 0.6941746
vt 0.386921 0.7509822
vt 0.337878 0.7842689
vt 0.3555197 0.7561773
vt 0.3382138 0.7379528
vt 0.2861404 0.7859507
vt 0.4351488 0.9590151
vt 0.4652581 0.9759964
vt 0.5062246 0.9830957
vt 0.5412596 0.9711069
vt 0.4436778 0.9358752
vt 0.5396644 0.9517778
vt 0.4604002 0.894981
vt 0.5562215 0.8983912
vt 0.5541381 0.9584664
vt 0.5862806 0.9325579
vt 0.5658008 0.9800114
vt 0.5511543 0.8564828
vt 0.4664422 0.8570759
vt 0.468545 0.8134932
vt 0.5532573 0.8129002
vt 0.965964 0.4471204
vt 0.9849012 0.3933235
vt 0.8987961 0.4413498
vt 0.9042317 0.4840794
vt 0.9902343 0.5505731
vt 0.8605909 0.5169842
vt 0.8745375 0.5469812
vt 0.8370438 0.5260003
vt 0.8745375 0.5469812
vt 0.8370438 0.5260003
vt 0.8605909 0.5169842
vt 0.8987961 0.4413498
vt 0.9042317 0.4840794
vt 0.9902343 0.5505731
vt 0.9849012 0.3933235
vt 0.965964 0.4471204
vt 0.965964 0.4471204
vt 0.9849012 0.3933235
vt 0.8987961 0.4413498
vt 0.9042317 0.4840794
vt 0.9902343 0.5505731
vt 0.8605909 0.5169842
vt 0.8745375 0.5469812
vt 0.8370438 0.5260003
vt 0.8745375 0.5469812
vt 0.8370438 0.5260003
vt 0.8605909 0.5169842
vt 0.8987961 0.4413498
vt 0.9042317 0.4840794
vt 0.9902343 0.5505731
vt 0.9849012 0.3933235
vt 0.965964 0.4471204
vt 0.965964 0.4471204
vt 0.9849012 0.3933235
vt 0.8987961 0.4413498
vt 0.9042317 0.4840794
vt 0.9902343 0.5505731
vt 0.8605909 0.5169842
vt 0.8745375 0.5469812
vt 0.8370438 0.5260003
vt 0.965964 0.4471204
vt 0.9849012 0.3933235
vt 0.8987961 0.4413498
vt 0.9042317 0.4840794
vt 0.9902343 0.5505731
vt 0.8605909 0.5169842
vt 0.8745375 0.5469812
vt 0.8370438 0.5260003
vt 0.965964 0.4471204
vt 0.9849012 0.3933235
vt 0.8987961 0.4413498
vt 0.9042317 0.4840794
vt 0.9902343 0.5505731
vt 0.8605909 0.5169842
vt 0.8745375 0.5469812
vt 0.8370438 0.5260003
vt 0.8745375 0.5469812
vt 0.8370438 0.5260003
vt 0.8605909 0.5169842
vt 0.8987961 0.4413498
vt 0.9042317 0.4840794
vt 0.9902343 0.5505731
vt 0.9849012 0.3933235
vt 0.965964 0.4471204
vt 0.8745375 0.5469812
vt 0.8370438 0.5260003
vt 0.8605909 0.5169842
vt 0.8987961 0.4413498
vt 0.9042317 0.4840794
vt 0.9902343 0.5505731
vt 0.9849012 0.3933235
vt 0.965964 0.4471204
vt 0.8745375 0.5469812
vt 0.8370438 0.5260003
vt 0.8605909 0.5169842
vt 0.8987961 0.4413498
vt 0.9042317 0.4840794
vt 0.9902343 0.5505731
vt 0.9849012 0.3933235
vt 0.965964 0.4471204
vn 0.7859691 -0.4860298 0.3821356
vn 0.8003432 0.4235781 -0.4243023
vn 0.7477205 -0.5083367 -0.4272095
vn 0.8442781 0.4351686 0.3127662
vn 0.1829943 0.7360888 -0.6516796
vn 0.1040845 -0.7443775 -0.6595972
vn 0.7477205 -0.5083367 -0.4272095
vn -0.8400089 -0.4420481 -0.3146085
vn -0.8614173 0.4013564 -0.3112448
vn 0.2010646 0.7827849 0.588915
vn 0.7859691 -0.4860298 0.3821356
vn 0.122657 -0.6965733 0.7069235
vn 0.7477205 -0.5083367 -0.4272095
vn 0.1040845 -0.7443775 -0.6595972
vn -0.7949169 -0.416177 0.4414792
vn -0.8400089 -0.4420481 -0.3146085
vn -0.8174704 0.435528 0.3769051
vn -0.7949169 -0.416177 0.4414792
vn -0.8400089 -0.4420481 -0.3146085
vn 0.07880116 -0.7227246 0.6866291
vn 0.07556219 -0.8018895 -0.5926749
vn 0.07656566 -0.7256225 -0.6838199
vn 0.0788099 -0.7216342 0.6877741
vn 0.02578378 0.822977 0.5674891
vn 0.02942293 0.7760211 0.6300204
vn 0.0339197 0.7369815 -0.6750613
vn 0.03188266 0.7647759 -0.6435071
vn 0.07656566 -0.7256225 -0.6838199
vn 0.07556219 -0.8018895 -0.5926749
vn -0.4386429 -0.7422435 -0.5066231
vn 0.7695403 0.4461435 -0.4569067
vn -0.5562831 -0.6615148 -0.5029386
vn 0.1792897 0.9213602 -0.3448921
vn 0.0584357 0.8729202 -0.4843507
vn -0.1782954 -0.8659507 -0.4672687
vn 0.160184 -0.7712373 -0.6160634
vn 0.7149146 0.5153401 -0.4725693
vn 0.7862688 -0.4469438 -0.4266411
vn 0.03604589 0.876586 0.4798934
vn 0.7729348 0.5299252 0.3489283
vn 0.8202258 -0.4169044 0.3916891
vn 0.7862688 -0.4469438 -0.4266411
vn 0.8202258 -0.4169044 0.3916891
vn 0.1863694 -0.7570402 0.626224
vn 0.1406449 0.3120387 0.9396014
vn -0.07692247 -0.8962023 0.436926
vn 0.2316574 -0.5524246 0.800726
vn 0.3423348 0.424403 0.8382655
vn 0.01935269 0.9655821 0.2593776
vn -0.9029096 0.08190285 -0.4219551
vn -0.9692276 -0.1597467 0.1872933
vn 0.2316574 -0.5524246 0.800726
vn -0.7423064 -0.6483039 0.1693618
vn -0.6161293 -0.6498757 0.4450238
vn 0.676319 0.5267587 0.514896
vn 0.4500008 0.8855548 -0.115291
vn 0.4355113 0.8972147 0.07304636
vn -0.7379411 -0.6677067 0.09803378
vn -0.3049974 -0.3534313 0.8843433
vn -0.6161293 -0.6498757 0.4450238
vn -0.793947 -0.3429581 -0.5020238
vn 0.4500008 0.8855548 -0.115291
vn -0.8982018 -0.2694057 0.3473527
vn 0.2151668 0.8201485 -0.5301507
vn 0.676319 0.5267587 0.514896
vn 0.5102265 0.8279734 0.2326561
vn -0.3049974 -0.3534313 0.8843433
vn -0.6161293 -0.6498757 0.4450238
vn -0.7196007 -0.6764271 -0.1569117
vn -0.7381622 -0.3363291 0.5848072
vn -0.7379411 -0.6677067 0.09803378
vn -0.5571825 -0.3620948 -0.7472852
vn 0.4355113 0.8972147 0.07304636
vn -0.9785565 -0.1992962 -0.05204019
vn 0.4739889 0.8041203 -0.3587829
vn 0.4500008 0.8855548 -0.115291
vn 0.4300658 0.8213598 0.374715
vn -0.7381622 -0.3363291 0.5848072
vn -0.7379411 -0.6677067 0.09803378
vn -0.5562831 -0.6615148 -0.5029386
vn -0.9239067 -0.2549215 0.2853268
vn -0.7196007 -0.6764271 -0.1569117
vn -0.1675618 -0.4048083 -0.8989179
vn 0.7695403 0.4461435 -0.4569067
vn -0.8745424 -0.1655251 -0.4558256
vn 0.5745054 0.7973446 -0.1848923
vn 0.4355113 0.8972147 0.07304636
vn 0.1435372 0.8346006 0.5318261
vn -0.9239067 -0.2549215 0.2853268
vn -0.7196007 -0.6764271 -0.1569117
vn -0.5562831 -0.6615148 -0.5029386
vn -0.7196007 -0.6764271 -0.1569117
vn -0.7379411 -0.6677067 0.09803378
vn -0.6161293 -0.6498757 0.4450238
vn -0.4386429 -0.7422435 -0.5066231
vn -0.7423064 -0.6483039 0.1693618
vn -0.1782954 -0.8659507 -0.4672687
vn -0.07692247 -0.8962023 0.436926
vn -0.9029096 0.08190285 -0.4219551
vn 0.2316574 -0.5524246 0.800726
vn -0.9692276 -0.1597467 0.1872933
vn 0.1863694 -0.7570402 0.626224
vn 0.160184 -0.7712373 -0.6160634
vn 0.7862688 -0.4469438 -0.4266411
vn 0.8202258 -0.4169044 0.3916891
vn -0.4903132 -0.8708034 -0.0359781
vn -0.9997702 0.01749834 0.01237813
vn -0.9457575 0.01308156 0.3246098
vn -0.4425104 -0.8572854 0.2631469
vn -0.02136071 -0.9997136 0.01078413
vn -0.8349999 0.01558814 0.5500293
vn -0.2044861 -0.8605834 0.4664565
vn -0.2852781 0.005790699 0.9584273
vn -0.4618677 0.8858535 -0.04406789
vn -0.9997702 0.01749834 0.01237813
vn -0.7856169 0.0043029 -0.6186982
vn -0.5905947 -0.0001775061 -0.8069684
vn -0.3568 0.8770387 -0.3217096
vn 0.02136063 0.9997136 -0.01078408
vn -0.3147021 -0.03013589 -0.948712
vn -0.08784705 0.8955151 -0.4362747
vn -0.2044861 -0.8605834 0.4664565
vn -0.2852781 0.005790699 0.9584273
vn 0.0008523187 0.006951058 0.9999756
vn 0.1079311 -0.8416455 0.529135
vn -0.02136071 -0.9997136 0.01078413
vn 0.2524229 0.01219755 0.9675401
vn 0.3761923 -0.8573742 0.3512675
vn 0.8095617 -0.04877596 0.585005
vn -0.1787413 0.8760462 0.4478778
vn -0.2852781 0.005790699 0.9584273
vn -0.8349999 0.01558814 0.5500293
vn -0.9457575 0.01308156 0.3246098
vn -0.4210693 0.8712584 0.2522091
vn 0.02136063 0.9997136 -0.01078408
vn -0.9997702 0.01749834 0.01237813
vn -0.4618677 0.8858535 -0.04406789
vn 0.3761923 -0.8573742 0.3512675
vn 0.8095617 -0.04877596 0.585005
vn 0.9523574 -0.01136951 0.3047722
vn 0.5322948 -0.8445277 0.05861082
vn -0.02136071 -0.9997136 0.01078413
vn 0.998935 6.047901E-05 0.04613782
vn 0.4529335 -0.8497422 -0.2697953
vn 0.7929153 -0.07043712 -0.605247
vn 0.4529335 -0.8497422 -0.2697953
vn 0.7929153 -0.07043712 -0.605247
vn 0.5851089 -0.01407529 -0.8108326
vn 0.2120824 -0.8383287 -0.5022211
vn -0.02136071 -0.9997136 0.01078413
vn 0.3755249 -0.006008246 -0.9267927
vn -0.119342 -0.8626629 -0.4914979
vn -0.3147021 -0.03013589 -0.948712
vn -0.119342 -0.8626629 -0.4914979
vn -0.3147021 -0.03013589 -0.948712
vn -0.5905947 -0.0001775061 -0.8069684
vn -0.400628 -0.8526897 -0.3352873
vn -0.02136071 -0.9997136 0.01078413
vn -0.7856169 0.0043029 -0.6186982
vn -0.4903132 -0.8708034 -0.0359781
vn -0.9997702 0.01749834 0.01237813
vn -0.08784705 0.8955151 -0.4362747
vn -0.3147021 -0.03013589 -0.948712
vn 0.3755249 -0.006008246 -0.9267927
vn 0.5851089 -0.01407529 -0.8108326
vn 0.1922753 0.8792171 -0.4358985
vn 0.02136063 0.9997136 -0.01078408
vn 0.7929153 -0.07043712 -0.605247
vn 0.3823175 0.894531 -0.2316199
vn 0.3479777 0.890793 0.2922317
vn 0.8095617 -0.04877596 0.585005
vn 0.2524229 0.01219755 0.9675401
vn 0.0008523187 0.006951058 0.9999756
vn 0.1230248 0.8661721 0.4843663
vn 0.02136063 0.9997136 -0.01078408
vn -0.2852781 0.005790699 0.9584273
vn -0.1787413 0.8760462 0.4478778
vn 0.3823175 0.894531 -0.2316199
vn 0.7929153 -0.07043712 -0.605247
vn 0.998935 6.047901E-05 0.04613782
vn 0.9523574 -0.01136951 0.3047722
vn 0.4665939 0.8838013 0.03443102
vn 0.02136063 0.9997136 -0.01078408
vn 0.8095617 -0.04877596 0.585005
vn 0.3479777 0.890793 0.2922317
g MechArmLvl5_0
f 3/3/3 2/2/2 1/1/1
f 2/2/2 4/4/4 1/1/1
f 4/4/4 2/2/2 5/5/5
f 5/5/5 2/2/2 6/6/6
f 2/2/2 7/7/7 6/6/6
f 5/5/5 6/6/6 8/8/8
f 9/9/9 5/5/5 8/8/8
f 10/10/10 4/4/4 5/5/5
f 10/10/10 5/5/5 9/9/9
f 11/11/11 4/4/4 10/10/10
f 12/12/12 11/11/11 10/10/10
f 13/13/13 11/11/11 12/12/12
f 14/14/14 13/13/13 12/12/12
f 14/14/14 12/12/12 15/15/15
f 16/16/16 14/14/14 15/15/15
f 15/15/15 12/12/12 17/17/17
f 12/12/12 10/10/10 17/17/17
f 17/17/17 10/10/10 9/9/9
f 17/17/17 9/9/9 18/18/18
f 9/9/9 19/19/19 18/18/18
f 22/22/22 21/21/21 20/20/20
f 21/21/21 23/23/23 20/20/20
f 20/20/20 23/23/23 24/24/24
f 23/23/23 25/25/25 24/24/24
f 24/24/24 25/25/25 26/26/26
f 25/25/25 27/27/27 26/26/26
f 26/26/26 27/27/27 28/28/28
f 27/27/27 29/29/29 28/28/28
f 32/32/32 31/31/31 30/30/30
f 31/31/31 33/33/33 30/30/30
f 33/33/33 34/34/34 30/30/30
f 30/30/30 34/34/34 35/35/35
f 34/34/34 36/36/36 35/35/35
f 34/34/34 37/37/37 36/36/36
f 37/37/37 38/38/38 36/36/36
f 39/39/39 34/34/34 33/33/33
f 40/40/40 37/37/37 34/34/34
f 39/39/39 40/40/40 34/34/34
f 37/37/37 40/40/40 41/41/41
f 42/42/42 37/37/37 41/41/41
f 43/43/43 40/40/40 39/39/39
f 44/44/44 43/43/43 39/39/39
f 44/44/44 39/39/39 45/45/45
f 46/46/46 44/44/44 45/45/45
f 47/47/47 46/46/46 45/45/45
f 48/48/48 47/47/47 45/45/45
f 49/49/49 39/39/39 33/33/33
f 39/39/39 49/49/49 45/45/45
f 49/49/49 33/33/33 31/31/31
f 50/50/50 48/48/48 45/45/45
f 50/50/50 51/51/51 48/48/48
f 48/48/48 51/51/51 52/52/52
f 53/53/53 50/50/50 45/45/45
f 49/49/49 53/53/53 45/45/45
f 54/54/54 53/53/53 49/49/49
f 55/55/55 54/54/54 49/49/49
f 55/55/55 49/49/49 31/31/31
f 56/56/56 55/55/55 31/31/31
f 57/57/57 56/56/56 31/31/31
f 60/60/60 59/59/59 58/58/58
f 59/59/59 61/61/61 58/58/58
f 58/58/58 61/61/61 62/62/62
f 59/59/59 63/63/63 61/61/61
f 61/61/61 64/64/64 62/62/62
f 61/61/61 63/63/63 64/64/64
f 62/62/62 64/64/64 65/65/65
f 64/64/64 63/63/63 66/66/66
f 64/64/64 66/66/66 65/65/65
f 66/66/66 63/63/63 67/67/67
f 65/65/65 66/66/66 68/68/68
f 66/66/66 67/67/67 68/68/68
f 71/71/71 70/70/70 69/69/69
f 70/70/70 72/72/72 69/69/69
f 69/69/69 72/72/72 73/73/73
f 70/70/70 74/74/74 72/72/72
f 72/72/72 75/75/75 73/73/73
f 72/72/72 74/74/74 75/75/75
f 73/73/73 75/75/75 76/76/76
f 75/75/75 74/74/74 77/77/77
f 75/75/75 77/77/77 76/76/76
f 77/77/77 74/74/74 78/78/78
f 76/76/76 77/77/77 79/79/79
f 77/77/77 78/78/78 79/79/79
f 82/82/82 81/81/81 80/80/80
f 81/81/81 83/83/83 80/80/80
f 80/80/80 83/83/83 84/84/84
f 81/81/81 85/85/85 83/83/83
f 83/83/83 86/86/86 84/84/84
f 83/83/83 85/85/85 86/86/86
f 84/84/84 86/86/86 87/87/87
f 86/86/86 85/85/85 88/88/88
f 86/86/86 88/88/88 87/87/87
f 88/88/88 85/85/85 89/89/89
f 87/87/87 88/88/88 90/90/90
f 88/88/88 89/89/89 90/90/90
f 93/93/93 92/92/92 91/91/91
f 94/94/94 93/93/93 91/91/91
f 94/94/94 91/91/91 95/95/95
f 96/96/96 94/94/94 95/95/95
f 96/96/96 95/95/95 97/97/97
f 98/98/98 96/96/96 97/97/97
f 99/99/99 96/96/96 98/98/98
f 100/100/100 99/99/99 98/98/98
f 100/100/100 101/101/101 99/99/99
f 98/98/98 97/97/97 102/102/102
f 97/97/97 103/103/103 102/102/102
f 103/103/103 104/104/104 102/102/102
f 104/104/104 105/105/105 102/102/102
f 108/108/108 107/107/107 106/106/106
f 109/109/109 108/108/108 106/106/106
f 106/106/106 110/110/110 109/109/109
f 111/111/111 108/108/108 109/109/109
f 109/109/109 110/110/110 112/112/112
f 112/112/112 111/111/111 109/109/109
f 111/111/111 112/112/112 113/113/113
f 116/116/116 115/115/115 114/114/114
f 117/117/117 116/116/116 114/114/114
f 118/118/118 117/117/117 114/114/114
f 114/114/114 119/119/119 118/118/118
f 120/120/120 117/117/117 118/118/118
f 118/118/118 119/119/119 121/121/121
f 121/121/121 120/120/120 118/118/118
f 124/124/124 123/123/123 122/122/122
f 125/125/125 124/124/124 122/122/122
f 122/122/122 126/126/126 125/125/125
f 127/127/127 124/124/124 125/125/125
f 125/125/125 126/126/126 128/128/128
f 128/128/128 127/127/127 125/125/125
f 127/127/127 128/128/128 129/129/129
f 132/132/132 131/131/131 130/130/130
f 133/133/133 132/132/132 130/130/130
f 134/134/134 133/133/133 130/130/130
f 130/130/130 135/135/135 134/134/134
f 136/136/136 133/133/133 134/134/134
f 134/134/134 135/135/135 137/137/137
f 137/137/137 136/136/136 134/134/134
f 140/140/140 139/139/139 138/138/138
f 141/141/141 140/140/140 138/138/138
f 138/138/138 142/142/142 141/141/141
f 143/143/143 140/140/140 141/141/141
f 141/141/141 142/142/142 144/144/144
f 144/144/144 143/143/143 141/141/141
f 143/143/143 144/144/144 145/145/145
f 148/148/148 147/147/147 146/146/146
f 149/149/149 148/148/148 146/146/146
f 146/146/146 150/150/150 149/149/149
f 151/151/151 148/148/148 149/149/149
f 149/149/149 150/150/150 152/152/152
f 152/152/152 151/151/151 149/149/149
f 151/151/151 152/152/152 153/153/153
f 156/156/156 155/155/155 154/154/154
f 157/157/157 156/156/156 154/154/154
f 154/154/154 158/158/158 157/157/157
f 159/159/159 156/156/156 157/157/157
f 157/157/157 158/158/158 160/160/160
f 160/160/160 159/159/159 157/157/157
f 159/159/159 160/160/160 161/161/161
f 164/164/164 163/163/163 162/162/162
f 165/165/165 164/164/164 162/162/162
f 166/166/166 165/165/165 162/162/162
f 162/162/162 167/167/167 166/166/166
f 168/168/168 165/165/165 166/166/166
f 166/166/166 167/167/167 169/169/169
f 169/169/169 168/168/168 166/166/166
f 172/172/172 171/171/171 170/170/170
f 173/173/173 172/172/172 170/170/170
f 174/174/174 173/173/173 170/170/170
f 170/170/170 175/175/175 174/174/174
f 176/176/176 173/173/173 174/174/174
f 174/174/174 175/175/175 177/177/177
f 177/177/177 176/176/176 174/174/174
f 180/180/180 179/179/179 178/178/178
f 181/181/181 180/180/180 178/178/178
f 182/182/182 181/181/181 178/178/178
f 178/178/178 183/183/183 182/182/182
f 184/184/184 181/181/181 182/182/182
f 182/182/182 183/183/183 185/185/185
f 185/185/185 184/184/184 182/182/182
