g MidDeck040
v 1.016687 9.176377 6.057404
v 1.016687 9.176377 13.2379
v -1.016687 9.176377 13.2379
v -1.016687 9.176377 6.057404
v 3.212893 8.737539 6.057404
v 3.212893 8.73718 13.2379
v 2.773696 9.176377 13.2379
v 2.774055 9.176377 6.057404
v 1.016687 9.176377 6.057404
v 1.016687 9.176377 13.2379
v -2.774055 9.176377 6.057404
v -3.212893 8.73718 13.2379
v -3.212893 8.737539 6.057404
v -2.773696 9.176377 13.2379
v -1.016687 9.176377 6.057404
v -1.016687 9.176377 13.2379
v 3.212893 8.737539 6.057404
v 3.212893 6.802539 6.057404
v 3.212893 6.802539 13.2379
v 3.212893 8.73718 13.2379
v -3.212893 8.73718 13.2379
v -3.212893 6.802539 13.2379
v -3.212893 6.802539 6.057404
v -3.212893 8.737539 6.057404
v -3.212893 3.910203 6.057404
v -3.212893 3.916807 13.2379
v -2.706177 3.41009 13.2379
v -2.71278 3.41009 6.057404
v -3.212893 6.802539 6.057404
v -3.212893 3.916807 13.2379
v -3.212893 6.802539 13.2379
v 2.71278 3.41009 6.057404
v -2.71278 3.41009 6.057404
v 2.706177 3.41009 13.2379
v 3.212893 3.916807 13.2379
v 3.212893 3.910203 6.057404
v 3.212893 6.802539 6.057404
v 3.212893 6.802539 13.2379
v 2.773696 9.176377 13.2379
v 3.212893 8.73718 13.2379
v 3.212893 6.802539 13.2379
v 2.743765 6.802539 13.2379
v 1.016687 9.176377 13.2379
v -1.016687 9.176377 13.2379
v 2.706177 3.41009 13.2379
v 3.212893 3.916807 13.2379
v -2.743764 6.802539 13.2379
v -2.773696 9.176377 13.2379
v -3.212893 8.73718 13.2379
v -2.706177 3.41009 13.2379
v -3.212893 6.802539 13.2379
v -3.212893 3.916807 13.2379
vt 0.9758965 0.5625564
vt 0.9758965 0.5668768
vt 0.9758965 0.5668768
vt 0.9758965 0.5625564
vt 0.867856 0.5597612
vt 0.867856 0.5694557
vt 0.8628564 0.5694458
vt 0.8628605 0.5596274
vt 0.842856 0.5590914
vt 0.842856 0.5694064
vt 0.8628606 0.5596274
vt 0.867856 0.5694557
vt 0.867856 0.5597612
vt 0.8628564 0.5694458
vt 0.842856 0.5590914
vt 0.842856 0.5694064
vt 0.746893 0.5571052
vt 0.7503674 0.5571052
vt 0.7503674 0.5652837
vt 0.7468936 0.5652837
vt 0.7468936 0.5652837
vt 0.7503674 0.5652837
vt 0.7503674 0.5571052
vt 0.746893 0.5571052
vt 0.6456707 0.5514332
vt 0.6460589 0.5631421
vt 0.6460589 0.5631421
vt 0.6460589 0.5514332
vt 0.6437451 0.5514332
vt 0.6456656 0.5631421
vt 0.6437451 0.5631421
vt 0.6460589 0.5514332
vt 0.6460589 0.5514332
vt 0.6460589 0.5631421
vt 0.6456656 0.5631421
vt 0.6456707 0.5514332
vt 0.6437451 0.5514332
vt 0.6437451 0.5631421
vt 0.5474497 0.5594404
vt 0.5479392 0.5589511
vt 0.5479392 0.5567954
vt 0.5474164 0.5567954
vt 0.5454921 0.5594404
vt 0.5432264 0.5594404
vt 0.5473745 0.5534738
vt 0.5479392 0.5540384
vt 0.541302 0.5567954
vt 0.5412686 0.5594404
vt 0.5407792 0.5589511
vt 0.5413438 0.5534738
vt 0.5407792 0.5567954
vt 0.5407792 0.5540384
vn 0 1 0
vn 0 0.8925509 0.4509466
vn 0 0.8925509 0.4509466
vn 0 1 0
vn 0.9833236 0.1818642 9.104408E-06
vn 0.9797972 0.181196 0.08464886
vn 0.1935607 0.9683382 0.157656
vn 0.1960284 0.9805982 9.813496E-06
vn 0 1 0
vn 0 0.8925509 0.4509466
vn -0.1960284 0.9805982 9.808559E-06
vn -0.9797972 0.181196 0.08464896
vn -0.9833236 0.1818642 9.099829E-06
vn -0.1935607 0.9683382 0.157656
vn 0 1 0
vn 0 0.8925509 0.4509466
vn 0.9833236 0.1818642 9.104408E-06
vn 1 0 0
vn 0.9973878 0 0.07223299
vn 0.9797972 0.181196 0.08464886
vn -0.9797972 0.181196 0.08464896
vn -0.9973878 0 0.07223307
vn -1 0 0
vn -0.9833236 0.1818642 9.099829E-06
vn -0.9891502 -0.1469078 0.0001351074
vn -0.9849273 -0.1460318 0.09269808
vn -0.07705834 -0.9073736 0.4132012
vn -0.08477377 -0.9964002 7.792774E-05
vn -1 0 0
vn -0.9849273 -0.1460318 0.09269808
vn -0.9973878 0 0.07223307
vn 0.08477377 -0.9964002 7.792616E-05
vn -0.08477377 -0.9964002 7.792774E-05
vn 0.07705835 -0.9073736 0.4132012
vn 0.9849273 -0.1460318 0.09269795
vn 0.9891502 -0.1469078 0.0001351047
vn 1 0 0
vn 0.9973878 0 0.07223299
vn 0.1935607 0.9683382 0.157656
vn 0.9797972 0.181196 0.08464886
vn 0.9973878 0 0.07223299
vn 1.591768E-07 0 1
vn 0 0.8925509 0.4509466
vn 0 0.8925509 0.4509466
vn 0.07705835 -0.9073736 0.4132012
vn 0.9849273 -0.1460318 0.09269795
vn -1.153693E-07 0 1
vn -0.1935607 0.9683382 0.157656
vn -0.9797972 0.181196 0.08464896
vn -0.07705834 -0.9073736 0.4132012
vn -0.9973878 0 0.07223307
vn -0.9849273 -0.1460318 0.09269808
g MidDeck040_0
f 3/3/3 2/2/2 1/1/1
f 4/4/4 3/3/3 1/1/1
f 7/7/7 6/6/6 5/5/5
f 8/8/8 7/7/7 5/5/5
f 7/7/7 8/8/8 9/9/9
f 10/10/10 7/7/7 9/9/9
f 13/13/13 12/12/12 11/11/11
f 12/12/12 14/14/14 11/11/11
f 11/11/11 14/14/14 15/15/15
f 14/14/14 16/16/16 15/15/15
f 19/19/19 18/18/18 17/17/17
f 20/20/20 19/19/19 17/17/17
f 23/23/23 22/22/22 21/21/21
f 24/24/24 23/23/23 21/21/21
f 27/27/27 26/26/26 25/25/25
f 28/28/28 27/27/27 25/25/25
f 25/25/25 30/30/30 29/29/29
f 30/30/30 31/31/31 29/29/29
f 33/33/33 32/32/32 27/27/27
f 32/32/32 34/34/34 27/27/27
f 35/35/35 34/34/34 32/32/32
f 36/36/36 35/35/35 32/32/32
f 35/35/35 36/36/36 37/37/37
f 38/38/38 35/35/35 37/37/37
f 41/41/41 40/40/40 39/39/39
f 42/42/42 41/41/41 39/39/39
f 42/42/42 39/39/39 43/43/43
f 42/42/42 43/43/43 44/44/44
f 42/42/42 45/45/45 41/41/41
f 45/45/45 46/46/46 41/41/41
f 47/47/47 42/42/42 44/44/44
f 42/42/42 47/47/47 45/45/45
f 48/48/48 47/47/47 44/44/44
f 48/48/48 49/49/49 47/47/47
f 47/47/47 50/50/50 45/45/45
f 49/49/49 51/51/51 47/47/47
f 47/47/47 51/51/51 50/50/50
f 51/51/51 52/52/52 50/50/50
