g MissileDoor_L
v -8.984518 16.15545 -0.6167814
v -9.589167 13.20142 -0.3966388
v -9.589168 13.1909 -3.970135
v -8.984518 16.15545 -4.220324
v -8.1556 15.94567 -4.220111
v -8.984518 16.15545 -4.220324
v -9.589168 13.1909 -3.970135
v -8.760249 12.98112 -3.969922
v -9.589167 13.20142 -0.3966388
v -8.760248 12.99163 -0.3964256
v -8.760249 12.98112 -3.969922
v -9.589168 13.1909 -3.970135
v -8.1556 15.94567 -0.6165682
v -8.760248 12.99163 -0.3964256
v -9.589167 13.20142 -0.3966388
v -8.984518 16.15545 -0.6167814
v -8.984518 16.15545 -0.6167814
v -8.984518 16.15545 -4.220324
v -8.1556 15.94567 -4.220111
v -8.1556 15.94567 -0.6165682
v -8.984518 16.15545 4.385542
v -9.589167 13.20142 4.596288
v -9.589168 13.1909 1.175322
v -8.984518 16.15545 0.9358119
v -8.1556 15.94567 0.9360156
v -8.984518 16.15545 0.9358119
v -9.589168 13.1909 1.175322
v -8.760249 12.98112 1.175526
v -9.589167 13.20142 4.596288
v -8.760248 12.99163 4.596492
v -8.760249 12.98112 1.175526
v -9.589168 13.1909 1.175322
v -8.1556 15.94567 4.385746
v -8.760248 12.99163 4.596492
v -9.589167 13.20142 4.596288
v -8.984518 16.15545 4.385542
v -8.984518 16.15545 4.385542
v -8.984518 16.15545 0.9358119
v -8.1556 15.94567 0.9360156
v -8.1556 15.94567 4.385746
vt 0.4764063 0.0156514
vt 0.3922906 0.0156514
vt 0.3922906 0.1389904
vt 0.4764063 0.1389904
vt 0.479984 0.04021137
vt 0.5070779 0.04021137
vt 0.5070779 0.1270838
vt 0.479984 0.1270838
vt 0.5060167 0.005158237
vt 0.4796949 0.005170121
vt 0.4797499 0.1274763
vt 0.5060717 0.1274644
vt 0.4981741 0.04634713
vt 0.4981741 0.1332195
vt 0.4888878 0.1332196
vt 0.4888878 0.04634713
vt 0.4800506 0.01652311
vt 0.479723 0.1379209
vt 0.5057161 0.1379209
vt 0.5060437 0.01652311
vt 0.4764063 0.0156514
vt 0.3922906 0.0156514
vt 0.3922906 0.1389904
vt 0.4764063 0.1389904
vt 0.479984 0.04021137
vt 0.5070779 0.04021137
vt 0.5070779 0.1270838
vt 0.479984 0.1270838
vt 0.5060167 0.005158237
vt 0.4796949 0.005170121
vt 0.4797499 0.1274763
vt 0.5060717 0.1274644
vt 0.4981741 0.04634713
vt 0.4981741 0.1332195
vt 0.4888878 0.1332196
vt 0.4888878 0.04634713
vt 0.4800506 0.01652311
vt 0.479723 0.1379209
vt 0.5057161 0.1379209
vt 0.5060437 0.01652311
vn -0.4862442 0.8074811 0.3339775
vn -0.489114 -0.5442709 0.6815693
vn -0.726998 -0.2361362 -0.6447585
vn -0.4550574 0.6569753 -0.6010875
vn 0.1663556 0.6565684 -0.7356927
vn -0.4550574 0.6569753 -0.6010875
vn -0.726998 -0.2361362 -0.6447585
vn -0.2214431 -0.8754165 -0.4296615
vn -0.489114 -0.5442709 0.6815693
vn -0.1669672 -0.6589839 0.733391
vn -0.2214431 -0.8754165 -0.4296615
vn -0.726998 -0.2361362 -0.6447585
vn 0.1219945 0.4829144 0.8671281
vn -0.1669672 -0.6589839 0.733391
vn -0.489114 -0.5442709 0.6815693
vn -0.4862442 0.8074811 0.3339775
vn -0.4862442 0.8074811 0.3339775
vn -0.4550574 0.6569753 -0.6010875
vn 0.1663556 0.6565684 -0.7356927
vn 0.1219945 0.4829144 0.8671281
vn -0.4868205 0.8070141 0.3342662
vn -0.488881 -0.5454883 0.6807626
vn -0.7270443 -0.2341293 -0.6454378
vn -0.4539939 0.6582218 -0.6005278
vn 0.1666639 0.6578211 -0.7345029
vn -0.4539939 0.6582218 -0.6005278
vn -0.7270443 -0.2341293 -0.6454378
vn -0.2213774 -0.8751385 -0.4302611
vn -0.488881 -0.5454883 0.6807626
vn -0.1672267 -0.660043 0.7323787
vn -0.2213774 -0.8751385 -0.4302611
vn -0.7270443 -0.2341293 -0.6454378
vn 0.1214855 0.480866 0.868337
vn -0.1672267 -0.660043 0.7323787
vn -0.488881 -0.5454883 0.6807626
vn -0.4868205 0.8070141 0.3342662
vn -0.4868205 0.8070141 0.3342662
vn -0.4539939 0.6582218 -0.6005278
vn 0.1666639 0.6578211 -0.7345029
vn 0.1214855 0.480866 0.868337
g MissileDoor_L_0
f 3/3/3 2/2/2 1/1/1
f 1/1/1 4/4/4 3/3/3
f 7/7/7 6/6/6 5/5/5
f 5/5/5 8/8/8 7/7/7
f 11/11/11 10/10/10 9/9/9
f 9/9/9 12/12/12 11/11/11
f 15/15/15 14/14/14 13/13/13
f 13/13/13 16/16/16 15/15/15
f 19/19/19 18/18/18 17/17/17
f 17/17/17 20/20/20 19/19/19
f 23/23/23 22/22/22 21/21/21
f 21/21/21 24/24/24 23/23/23
f 27/27/27 26/26/26 25/25/25
f 25/25/25 28/28/28 27/27/27
f 31/31/31 30/30/30 29/29/29
f 29/29/29 32/32/32 31/31/31
f 35/35/35 34/34/34 33/33/33
f 33/33/33 36/36/36 35/35/35
f 39/39/39 38/38/38 37/37/37
f 37/37/37 40/40/40 39/39/39
