g MonkeyAceScarf
v -0.09779547 -0.01199934 0.001026058
v -0.09779547 0.01199934 0.001026058
v -0.0782982 0.01060897 0.001026058
v -0.0782982 -0.01060897 0.001026058
v -0.05880094 0.009405302 0.001026058
v -0.05880094 -0.009405302 0.001026058
v -0.03930367 0.008152459 0.001026058
v -0.03930367 -0.008152459 0.001026058
v -0.0198064 0.006609735 0.001026058
v -0.0198064 -0.006609735 0.001026058
v -0.0003091335 0.004917074 0.001026058
v -0.0003091335 -0.004917074 0.001026058
v -0.0198064 0.006609735 0.001026058
v -0.0003091335 0.004917074 -0.001026058
v -0.0003091335 0.004917074 0.001026058
v -0.0198064 0.006609735 -0.001026058
v -0.03930367 0.008152459 0.001026058
v -0.0003091335 -0.004917074 -0.001026058
v -0.03930367 0.008152459 -0.001026058
v -0.05880094 0.009405302 0.001026058
v -0.0198064 -0.006609735 -0.001026058
v -0.0003091335 -0.004917074 0.001026058
v -0.0198064 -0.006609735 0.001026058
v -0.03930367 -0.008152459 -0.001026058
v -0.03930367 -0.008152459 0.001026058
v -0.05880094 0.009405302 -0.001026058
v -0.0782982 0.01060897 0.001026058
v -0.05880094 -0.009405302 -0.001026058
v -0.05880094 -0.009405302 0.001026058
v -0.0782982 0.01060897 -0.001026058
v -0.09779547 0.01199934 0.001026058
v -0.09779547 0.01199934 -0.001026058
v -0.0782982 -0.01060897 -0.001026058
v -0.0782982 -0.01060897 0.001026058
v -0.09779547 -0.01199934 -0.001026058
v -0.09779547 -0.01199934 0.001026058
v -0.0003091335 -0.004917074 0.001026058
v -0.0003091335 0.004917074 0.001026058
v -0.0003091335 0.004917074 -0.001026058
v -0.0003091335 -0.004917074 -0.001026058
v -0.09779547 -0.01199934 -0.001026058
v -0.09779547 0.01199934 -0.001026058
v -0.09779547 0.01199934 0.001026058
v -0.09779547 -0.01199934 0.001026058
vt 0.9880022 0.4185693
vt 0.9880022 0.4005171
vt 0.9843918 0.4005171
vt 0.9843918 0.4185693
vt 0.9807814 0.4005171
vt 0.9807814 0.4185693
vt 0.9771709 0.4005171
vt 0.9771709 0.4185693
vt 0.9735605 0.4005171
vt 0.9735605 0.4185693
vt 0.96995 0.4005171
vt 0.96995 0.4185693
vt 0.9688269 0.03607127
vt 0.9699695 0.04178444
vt 0.9699695 0.03607127
vt 0.9688269 0.04178444
vt 0.9676843 0.03607127
vt 0.9699695 0.04749763
vt 0.9676843 0.04178444
vt 0.9665416 0.03607127
vt 0.9688269 0.04749763
vt 0.9699695 0.05321074
vt 0.9688269 0.05321074
vt 0.9676843 0.04749763
vt 0.9676843 0.05321074
vt 0.9665416 0.04178444
vt 0.965399 0.03607127
vt 0.9665416 0.04749763
vt 0.9665416 0.05321074
vt 0.965399 0.04178444
vt 0.9642563 0.03607127
vt 0.9642563 0.04178444
vt 0.965399 0.04749763
vt 0.965399 0.05321074
vt 0.9642563 0.04749763
vt 0.9642563 0.05321074
vt 0.9699695 0.03035811
vt 0.9699695 0.03607127
vt 0.9756827 0.03607127
vt 0.9756827 0.03035811
vt 0.9585432 0.03035811
vt 0.9585432 0.03607127
vt 0.9642563 0.03607127
vt 0.9642563 0.03035811
vn -0.109098 -0.09408549 0.9895684
vn -0.109098 0.09408549 0.9895684
vn 0.006340826 0.09531753 0.9954268
vn 0.006340826 -0.09531753 0.9954268
vn 0.006828354 0.1083931 0.9940848
vn 0.006828354 -0.1083931 0.9940848
vn 0.009037831 0.126066 0.9919807
vn 0.009037831 -0.126066 0.9919807
vn 0.01274677 0.1536307 0.9880461
vn 0.01274677 -0.1536307 0.9880461
vn 0.09788945 0.1655772 0.9813265
vn 0.09788945 -0.1655772 0.9813265
vn 0.01274677 0.1536307 0.9880461
vn 0.09788945 0.1655772 -0.9813265
vn 0.09788945 0.1655772 0.9813265
vn 0.01274677 0.1536307 -0.9880461
vn 0.009037831 0.126066 0.9919807
vn 0.09788945 -0.1655772 -0.9813265
vn 0.009037831 0.126066 -0.9919807
vn 0.006828354 0.1083931 0.9940848
vn 0.01274677 -0.1536307 -0.9880461
vn 0.09788945 -0.1655772 0.9813265
vn 0.01274677 -0.1536307 0.9880461
vn 0.009037831 -0.126066 -0.9919807
vn 0.009037831 -0.126066 0.9919807
vn 0.006828354 0.1083931 -0.9940848
vn 0.006340826 0.09531753 0.9954268
vn 0.006828354 -0.1083931 -0.9940848
vn 0.006828354 -0.1083931 0.9940848
vn 0.006340826 0.09531753 -0.9954268
vn -0.109098 0.09408549 0.9895684
vn -0.109098 0.09408549 -0.9895684
vn 0.006340826 -0.09531753 -0.9954268
vn 0.006340826 -0.09531753 0.9954268
vn -0.109098 -0.09408549 -0.9895684
vn -0.109098 -0.09408549 0.9895684
vn 0.09788945 -0.1655772 0.9813265
vn 0.09788945 0.1655772 0.9813265
vn 0.09788945 0.1655772 -0.9813265
vn 0.09788945 -0.1655772 -0.9813265
vn -0.109098 -0.09408549 -0.9895684
vn -0.109098 0.09408549 -0.9895684
vn -0.109098 0.09408549 0.9895684
vn -0.109098 -0.09408549 0.9895684
g MonkeyAceScarf_0
f 3/3/3 2/2/2 1/1/1
f 4/4/4 3/3/3 1/1/1
f 5/5/5 3/3/3 4/4/4
f 6/6/6 5/5/5 4/4/4
f 7/7/7 5/5/5 6/6/6
f 8/8/8 7/7/7 6/6/6
f 9/9/9 7/7/7 8/8/8
f 10/10/10 9/9/9 8/8/8
f 11/11/11 9/9/9 10/10/10
f 12/12/12 11/11/11 10/10/10
f 15/15/15 14/14/14 13/13/13
f 14/14/14 16/16/16 13/13/13
f 13/13/13 16/16/16 17/17/17
f 14/14/14 18/18/18 16/16/16
f 16/16/16 19/19/19 17/17/17
f 17/17/17 19/19/19 20/20/20
f 18/18/18 21/21/21 16/16/16
f 16/16/16 21/21/21 19/19/19
f 18/18/18 22/22/22 21/21/21
f 22/22/22 23/23/23 21/21/21
f 21/21/21 23/23/23 24/24/24
f 21/21/21 24/24/24 19/19/19
f 23/23/23 25/25/25 24/24/24
f 19/19/19 26/26/26 20/20/20
f 19/19/19 24/24/24 26/26/26
f 20/20/20 26/26/26 27/27/27
f 24/24/24 25/25/25 28/28/28
f 24/24/24 28/28/28 26/26/26
f 25/25/25 29/29/29 28/28/28
f 26/26/26 30/30/30 27/27/27
f 26/26/26 28/28/28 30/30/30
f 27/27/27 30/30/30 31/31/31
f 30/30/30 32/32/32 31/31/31
f 28/28/28 29/29/29 33/33/33
f 28/28/28 33/33/33 30/30/30
f 30/30/30 33/33/33 32/32/32
f 29/29/29 34/34/34 33/33/33
f 33/33/33 35/35/35 32/32/32
f 33/33/33 34/34/34 35/35/35
f 34/34/34 36/36/36 35/35/35
f 39/39/39 38/38/38 37/37/37
f 40/40/40 39/39/39 37/37/37
f 43/43/43 42/42/42 41/41/41
f 44/44/44 43/43/43 41/41/41
