g MonkeyEyelidsGeo
v -4.719489 16.32072 3.182455
v -3.996917 17.1006 3.495628
v -3.972016 16.77044 4.095286
v -3.972016 16.77044 4.095286
v -2.674754 17.12829 4.072692
v -2.833007 16.79569 4.530097
v -3.972016 16.77044 4.095286
v -3.996917 17.1006 3.495628
v -2.674754 17.12829 4.072692
v -4.618861 16.07017 3.856021
v -4.719489 16.32072 3.182455
v -4.99597 14.51224 2.964005
v -2.891767 14.43423 4.561983
v -2.833007 16.79569 4.530097
v -4.875127 14.48877 3.554315
v -1.882383 16.19495 4.853236
v -4.522089 13.01643 3.706629
v -4.612437 12.8345 3.011847
v -3.845411 12.33282 3.846051
v -2.674754 17.12829 4.072692
v -2.975058 12.12129 4.086989
v -2.257315 12.14545 4.359116
v -1.619493 16.47188 4.38298
v -1.289824 12.5627 4.811145
v -1.134928 15.44139 5.033648
v -0.8003887 15.61754 4.626912
v -0.6161596 14.15687 4.632199
v -0.9425793 12.33191 4.384687
v -0.9861953 14.1792 5.033665
v 4.521301 12.76534 2.981144
v 3.726951 11.98138 3.186501
v 3.691638 12.26746 3.830055
v 3.833495 16.84153 4.086954
v 3.877791 17.21145 3.483435
v 4.633789 16.39802 3.158504
v 3.833495 16.84153 4.086954
v 2.656326 16.86754 4.535132
v 2.496647 17.24094 4.08158
v 2.496647 17.24094 4.08158
v 3.877791 17.21145 3.483435
v 3.833495 16.84153 4.086954
v 4.633789 16.39802 3.158504
v 4.50201 16.11973 3.840333
v 4.922718 14.51306 2.925871
v 2.718218 14.43414 4.561146
v 2.656326 16.86754 4.535132
v 4.766862 14.4897 3.52935
v 1.673853 16.24833 4.872876
v 4.401996 12.9721 3.686347
v 4.521301 12.76534 2.981144
v 3.691638 12.26746 3.830055
v 2.496647 17.24094 4.08158
v 2.803135 12.04944 4.0784
v 2.061347 12.07434 4.358895
v 1.392357 16.55616 4.414948
v 1.061443 12.50441 4.814246
v 0.9013569 15.47161 5.054166
v 0.5352052 15.66562 4.660106
v 0.342907 14.14488 4.665684
v 0.7476417 14.17061 5.054182
v 0.6855811 12.24202 4.394722
v 1.827291 11.76006 3.874748
v 3.691638 12.26746 3.830055
v 3.726951 11.98138 3.186501
v 2.696273 11.73196 3.546935
v -1.289824 12.5627 4.811145
v -0.9425793 12.33191 4.384687
v -2.033782 11.87201 3.874629
v -2.257315 12.14545 4.359116
v -2.975058 12.12129 4.086989
v -2.867817 11.84452 3.559112
v -3.845411 12.33282 3.846051
v -3.866074 12.08332 3.210384
v -4.612437 12.8345 3.011847
v 1.061443 12.50441 4.814246
v 2.061347 12.07434 4.358895
v 1.827291 11.76006 3.874748
v 2.803135 12.04944 4.0784
v 2.696273 11.73196 3.546935
v 3.691638 12.26746 3.830055
vt 0.8218514 0.7591761
vt 0.8016542 0.7763367
vt 0.8031979 0.7756291
vt 0.8031979 0.7756291
vt 0.7645909 0.7765275
vt 0.7682552 0.7774687
vt 0.8031979 0.7756291
vt 0.8016542 0.7763367
vt 0.7645909 0.7765275
vt 0.8206317 0.7575309
vt 0.8218514 0.7591761
vt 0.8318845 0.7109729
vt 0.7701585 0.7101392
vt 0.7682552 0.7774687
vt 0.8289416 0.7113899
vt 0.7399893 0.7603116
vt 0.8175957 0.6687976
vt 0.8188597 0.6667241
vt 0.7997396 0.6513509
vt 0.7645909 0.7765275
vt 0.7724787 0.6439694
vt 0.7511376 0.6446594
vt 0.7375177 0.7603518
vt 0.7223704 0.6565759
vt 0.7177649 0.7387902
vt 0.716503 0.7392988
vt 0.7117766 0.7033044
vt 0.7201511 0.6583326
vt 0.7133424 0.7027425
vt 0.8186 0.6672417
vt 0.7984145 0.6516735
vt 0.7996823 0.6525717
vt 0.8033893 0.7759004
vt 0.8017903 0.7771412
vt 0.8212315 0.7601581
vt 0.8033893 0.7759004
vt 0.7686058 0.7777309
vt 0.7650083 0.7774193
vt 0.7650083 0.7774193
vt 0.8017903 0.7771412
vt 0.8033893 0.7759004
vt 0.8212315 0.7601581
vt 0.8204399 0.7579643
vt 0.8317761 0.711898
vt 0.7704828 0.7108086
vt 0.7686058 0.7777309
vt 0.8289236 0.7124088
vt 0.7404725 0.7606999
vt 0.8176786 0.6698376
vt 0.8186 0.6672417
vt 0.7996823 0.6525717
vt 0.7650083 0.7774193
vt 0.7728096 0.6452123
vt 0.7515685 0.6458973
vt 0.7377241 0.7611682
vt 0.7229362 0.657726
vt 0.7183521 0.7393367
vt 0.7165459 0.7400339
vt 0.7117944 0.703944
vt 0.7139505 0.7035538
vt 0.7202614 0.6587854
vt 0.7484701 0.6473473
vt 0.7996823 0.6525717
vt 0.7984145 0.6516735
vt 0.7699405 0.6466806
vt 0.7223704 0.6565759
vt 0.7201511 0.6583326
vt 0.7481464 0.6469997
vt 0.7511376 0.6446594
vt 0.7724787 0.6439694
vt 0.7695442 0.6463223
vt 0.7997396 0.6513509
vt 0.7986046 0.6511809
vt 0.8188597 0.6667241
vt 0.7229362 0.657726
vt 0.7515685 0.6458973
vt 0.7484701 0.6473473
vt 0.7728096 0.6452123
vt 0.7699405 0.6466806
vt 0.7996823 0.6525717
vn -0.8505199 0.4351181 0.2954457
vn -0.5150361 0.7416683 0.4297277
vn -0.5062959 0.5417398 0.6709564
vn -0.5062959 0.5417398 0.6709564
vn 0.02530676 0.8171101 0.5759257
vn -0.1808932 0.4598323 0.8693859
vn -0.5062959 0.5417398 0.6709564
vn -0.5150361 0.7416683 0.4297277
vn 0.02530676 0.8171101 0.5759257
vn -0.7983123 0.1694672 0.5779087
vn -0.8505199 0.4351181 0.2954457
vn -0.9799466 -0.04580423 0.1939245
vn -0.3376839 -0.07352846 0.9383833
vn -0.1808932 0.4598323 0.8693859
vn -0.7931277 -0.05706177 0.6063764
vn 0.1043707 0.4850433 0.8682394
vn -0.7807347 -0.2840524 0.5565678
vn -0.8199049 -0.5166656 0.2466024
vn -0.5101932 -0.6290671 0.5864959
vn 0.02530676 0.8171101 0.5759257
vn -0.2747305 -0.6660569 0.6934633
vn -0.2005933 -0.5841738 0.7864498
vn 0.4067973 0.6646997 0.62665
vn 0.2035224 -0.4751106 0.8560658
vn 0.3745152 0.2689694 0.8873521
vn 0.6298249 0.3747799 0.6803386
vn 0.7314172 -0.06563089 0.6787647
vn 0.4434233 -0.5860188 0.6782019
vn 0.2782428 -0.07403813 0.957653
vn 0.8091357 -0.5101767 0.2915807
vn 0.5379858 -0.7589208 0.3668931
vn 0.5034516 -0.6092063 0.6127023
vn 0.5024428 0.5139339 0.6952863
vn 0.5182887 0.7116647 0.4742469
vn 0.841997 0.4182895 0.3406977
vn 0.5024428 0.5139339 0.6952863
vn 0.1929588 0.4347321 0.8796448
vn 0.0002208883 0.785989 0.6182405
vn 0.0002208883 0.785989 0.6182405
vn 0.5182887 0.7116647 0.4742469
vn 0.5024428 0.5139339 0.6952863
vn 0.841997 0.4182895 0.3406977
vn 0.7821922 0.1587954 0.6024611
vn 0.9695724 -0.04771606 0.2401098
vn 0.33671 -0.07435241 0.9386683
vn 0.1929588 0.4347321 0.8796448
vn 0.7766503 -0.05743483 0.6273081
vn -0.07986289 0.4601484 0.8842428
vn 0.7643425 -0.2774595 0.5820625
vn 0.8091357 -0.5101767 0.2915807
vn 0.5034516 -0.6092063 0.6127023
vn 0.0002208883 0.785989 0.6182405
vn 0.2818014 -0.63932 0.7154425
vn 0.207915 -0.559867 0.8020725
vn -0.3745076 0.641151 0.6698279
vn -0.1739933 -0.4569147 0.8723276
vn -0.3396933 0.2523511 0.9060505
vn -0.5892887 0.3584742 0.7240408
vn -0.6885204 -0.06955701 0.7218736
vn -0.247416 -0.07650868 0.9658839
vn -0.4034711 -0.5684349 0.7170027
vn 0.03526372 -0.844543 0.5343253
vn 0.5034516 -0.6092063 0.6127023
vn 0.5379858 -0.7589208 0.3668931
vn 0.2767738 -0.8540125 0.4405211
vn 0.2035224 -0.4751106 0.8560658
vn 0.4434233 -0.5860188 0.6782019
vn -0.01377816 -0.8717514 0.4897548
vn -0.2005933 -0.5841738 0.7864498
vn -0.2747305 -0.6660569 0.6934633
vn -0.2635532 -0.8798609 0.3954547
vn -0.5101932 -0.6290671 0.5864959
vn -0.5393486 -0.777757 0.3227958
vn -0.8199049 -0.5166656 0.2466024
vn -0.1739933 -0.4569147 0.8723276
vn 0.207915 -0.559867 0.8020725
vn 0.03526372 -0.844543 0.5343253
vn 0.2818014 -0.63932 0.7154425
vn 0.2767738 -0.8540125 0.4405211
vn 0.5034516 -0.6092063 0.6127023
g MonkeyEyelidsGeo_0
f 3/3/3 2/2/2 1/1/1
f 6/6/6 5/5/5 4/4/4
f 9/9/9 8/8/8 7/7/7
f 11/11/11 10/10/10 7/7/7
f 10/10/10 11/11/11 12/12/12
f 10/10/10 13/13/13 7/7/7
f 7/7/7 13/13/13 14/14/14
f 15/15/15 13/13/13 10/10/10
f 12/12/12 15/15/15 10/10/10
f 14/14/14 13/13/13 16/16/16
f 17/17/17 13/13/13 15/15/15
f 17/17/17 15/15/15 12/12/12
f 12/12/12 18/18/18 17/17/17
f 19/19/19 17/17/17 18/18/18
f 19/19/19 13/13/13 17/17/17
f 20/20/20 14/14/14 16/16/16
f 19/19/19 21/21/21 13/13/13
f 21/21/21 22/22/22 13/13/13
f 16/16/16 23/23/23 20/20/20
f 24/24/24 13/13/13 22/22/22
f 23/23/23 16/16/16 25/25/25
f 16/16/16 13/13/13 25/25/25
f 25/25/25 26/26/26 23/23/23
f 27/27/27 26/26/26 25/25/25
f 24/24/24 28/28/28 27/27/27
f 29/29/29 13/13/13 24/24/24
f 13/13/13 29/29/29 25/25/25
f 27/27/27 29/29/29 24/24/24
f 29/29/29 27/27/27 25/25/25
f 32/32/32 31/31/31 30/30/30
f 35/35/35 34/34/34 33/33/33
f 38/38/38 37/37/37 36/36/36
f 41/41/41 40/40/40 39/39/39
f 41/41/41 43/43/43 42/42/42
f 44/44/44 42/42/42 43/43/43
f 45/45/45 43/43/43 41/41/41
f 45/45/45 41/41/41 46/46/46
f 45/45/45 47/47/47 43/43/43
f 43/43/43 47/47/47 44/44/44
f 45/45/45 46/46/46 48/48/48
f 45/45/45 49/49/49 47/47/47
f 44/44/44 47/47/47 49/49/49
f 49/49/49 50/50/50 44/44/44
f 50/50/50 49/49/49 51/51/51
f 45/45/45 51/51/51 49/49/49
f 48/48/48 46/46/46 52/52/52
f 53/53/53 51/51/51 45/45/45
f 54/54/54 53/53/53 45/45/45
f 52/52/52 55/55/55 48/48/48
f 45/45/45 56/56/56 54/54/54
f 48/48/48 55/55/55 57/57/57
f 45/45/45 48/48/48 57/57/57
f 55/55/55 58/58/58 57/57/57
f 57/57/57 58/58/58 59/59/59
f 60/60/60 45/45/45 57/57/57
f 59/59/59 60/60/60 57/57/57
f 45/45/45 60/60/60 56/56/56
f 56/56/56 60/60/60 59/59/59
f 61/61/61 56/56/56 59/59/59
f 56/56/56 61/61/61 62/62/62
f 65/65/65 64/64/64 63/63/63
f 68/68/68 67/67/67 66/66/66
f 66/66/66 69/69/69 68/68/68
f 68/68/68 69/69/69 70/70/70
f 70/70/70 71/71/71 68/68/68
f 71/71/71 70/70/70 72/72/72
f 72/72/72 73/73/73 71/71/71
f 74/74/74 73/73/73 72/72/72
f 77/77/77 76/76/76 75/75/75
f 76/76/76 77/77/77 78/78/78
f 77/77/77 79/79/79 78/78/78
f 78/78/78 79/79/79 80/80/80
