g MotorLH
v 27.33333 -15.7196 -5.970722
v 29.29481 -18.22157 -4.627619
v 29.57788 -17.35036 -5.970722
v 26.59223 -16.25803 -4.627619
v 26.47598 -13.08096 -5.970722
v 29.29481 -18.22157 5.08833
v 25.55994 -13.08096 -4.627619
v 27.33332 -10.44233 -5.970722
v 26.59223 -16.25803 5.08833
v 29.50713 -17.56813 6.963517
v 27.14808 -15.85419 6.963517
v 25.55994 -13.08096 5.08833
v 26.24701 -13.08096 6.963517
v 26.59223 -9.903891 -4.627619
v 29.57788 -8.81156 -5.970722
v 26.59223 -9.903891 5.08833
v 27.14808 -10.30774 6.963517
v 29.29481 -7.940352 -4.627619
v 32.35231 -8.811559 -5.970722
v 29.29481 -7.940352 5.08833
v 29.50713 -8.593792 6.963517
v 32.63538 -7.940351 -4.627619
v 34.59686 -10.44233 -5.970722
v 32.63538 -7.940351 5.08833
v 32.42306 -8.593792 6.963517
v 35.33796 -9.903889 -4.627619
v 35.45421 -13.08096 -5.970722
v 35.33796 -9.903889 5.08833
v 34.78211 -10.30774 6.963517
v 36.37025 -13.08096 -4.627619
v 34.59686 -15.7196 -5.970722
v 36.37025 -13.08096 5.08833
v 35.68319 -13.08096 6.963517
v 35.33796 -16.25803 -4.627619
v 32.35231 -17.35036 -5.970722
v 35.33796 -16.25803 5.08833
v 34.78211 -15.85418 6.963517
v 32.63538 -18.22157 -4.627619
v 29.57788 -17.35036 -5.970722
v 29.29481 -18.22157 -4.627619
v 32.63538 -18.22157 5.08833
v 32.42306 -17.56813 6.963517
v 29.29481 -18.22157 5.08833
v 29.50713 -17.56813 6.963517
v 34.78211 -10.30774 6.963517
v 30.9651 -13.08096 6.963517
v 32.42306 -8.593792 6.963517
v 35.68319 -13.08096 6.963517
v 29.50713 -8.593792 6.963517
v 34.78211 -15.85418 6.963517
v 27.14808 -10.30774 6.963517
v 32.42306 -17.56813 6.963517
v 26.24701 -13.08096 6.963517
v 29.50713 -17.56813 6.963517
v 27.14808 -15.85419 6.963517
v 32.35231 -8.811559 -5.970722
v 30.9651 -13.08096 -6.963517
v 34.59686 -10.44233 -5.970722
v 29.57788 -8.81156 -5.970722
v 35.45421 -13.08096 -5.970722
v 27.33332 -10.44233 -5.970722
v 34.59686 -15.7196 -5.970722
v 26.47598 -13.08096 -5.970722
v 32.35231 -17.35036 -5.970722
v 27.33333 -15.7196 -5.970722
v 29.57788 -17.35036 -5.970722
vt 0.01266462 0.05300325
vt 0.02185948 0.01640022
vt 0.007826672 0.02287596
vt 0.02654443 0.05069715
vt 0.01470345 0.08503592
vt 0.1045272 0.01320732
vt 0.02861902 0.0840981
vt 0.01586071 0.1174709
vt 0.1040274 0.04684436
vt 0.1212876 0.01695991
vt 0.1203085 0.04774785
vt 0.1054121 0.08082199
vt 0.1217376 0.08079368
vt 0.02981343 0.1171294
vt 0.0164542 0.149974
vt 0.1068455 0.1149072
vt 0.1232117 0.11475
vt 0.03042579 0.1499777
vt 0.01650381 0.1827051
vt 0.1077196 0.149081
vt 0.1241048 0.1491516
vt 0.03047368 0.182645
vt 0.01596081 0.213283
vt 0.1078618 0.1832318
vt 0.1242244 0.1841321
vt 0.02992216 0.2144403
vt 0.01480429 0.2458146
vt 0.1072547 0.2164956
vt 0.1236669 0.2164196
vt 0.02871597 0.2470072
vt 0.01286848 0.277785
vt 0.1057909 0.2507181
vt 0.1221545 0.2514349
vt 0.02666038 0.2796385
vt 0.009632081 0.3089266
vt 0.1035218 0.2850689
vt 0.1198798 0.285868
vt 0.0230837 0.3122613
vt 0.002911389 0.3373399
vt 0.01601934 0.344574
vt 0.1006911 0.3195487
vt 0.117199 0.3196822
vt 0.09861264 0.3545734
vt 0.1160402 0.3518052
vt 0.03039487 0.3637235
vt 0.0492506 0.4045557
vt 0.05981211 0.3609019
vt 0.01024634 0.3820066
vt 0.08312458 0.3748896
vt 0.004561663 0.4089313
vt 0.09392649 0.4001808
vt 0.01571441 0.4341996
vt 0.08788487 0.4271286
vt 0.03973703 0.4481412
vt 0.06720424 0.4454467
vt 0.1572329 0.4417262
vt 0.1394975 0.4025266
vt 0.1293716 0.4443847
vt 0.176715 0.4242907
vt 0.1069831 0.430859
vt 0.1823077 0.3985021
vt 0.0966872 0.4065511
vt 0.1717122 0.3742307
vt 0.1025797 0.380726
vt 0.1488873 0.3607582
vt 0.1224979 0.363237
vn -0.4631178 -0.3364746 -0.8199431
vn -0.3082851 -0.9488053 -0.06876601
vn -0.1768951 -0.5444281 -0.8199428
vn -0.8071018 -0.586394 -0.06876615
vn -0.5724452 -3.232402E-07 -0.819943
vn -0.3085863 -0.9497321 0.05275619
vn -0.9976329 0 -0.06876609
vn -0.4631182 0.3364747 -0.8199429
vn -0.8078902 -0.5869669 0.05275633
vn -0.1935179 -0.5955878 0.7796319
vn -0.5066369 -0.3680936 0.7796322
vn -0.9986075 0 0.05275638
vn -0.6262379 0 0.779632
vn -0.8071019 0.5863938 -0.06876606
vn -0.1768955 0.544428 -0.8199428
vn -0.8078904 0.5869668 0.0527563
vn -0.5066369 0.3680936 0.779632
vn -0.3082856 0.9488051 -0.06876603
vn 0.1768952 0.5444278 -0.8199429
vn -0.3085869 0.9497321 0.05275633
vn -0.1935184 0.5955875 0.7796321
vn 0.3082853 0.9488052 -0.06876613
vn 0.4631178 0.3364746 -0.8199431
vn 0.3085866 0.9497321 0.05275647
vn 0.1935178 0.5955873 0.7796324
vn 0.8071021 0.5863936 -0.0687662
vn 0.5724453 0 -0.8199429
vn 0.8078905 0.5869663 0.05275646
vn 0.5066369 0.3680931 0.7796323
vn 0.9976329 0 -0.06876617
vn 0.4631179 -0.3364749 -0.8199429
vn 0.9986075 0 0.05275638
vn 0.6262378 0 0.7796321
vn 0.807102 -0.5863937 -0.06876609
vn 0.1768953 -0.5444283 -0.8199426
vn 0.8078904 -0.5869666 0.05275642
vn 0.506637 -0.3680935 0.779632
vn 0.3082854 -0.9488052 -0.06876598
vn -0.1768951 -0.5444281 -0.8199428
vn -0.3082851 -0.9488053 -0.06876601
vn 0.3085867 -0.9497321 0.05275628
vn 0.193518 -0.5955878 0.779632
vn -0.3085863 -0.9497321 0.05275619
vn -0.1935179 -0.5955878 0.7796319
vn 0.5066369 0.3680931 0.7796323
vn 0 0 1
vn 0.1935178 0.5955873 0.7796324
vn 0.6262378 0 0.7796321
vn -0.1935184 0.5955875 0.7796321
vn 0.506637 -0.3680935 0.779632
vn -0.5066369 0.3680936 0.779632
vn 0.193518 -0.5955878 0.779632
vn -0.6262379 0 0.779632
vn -0.1935179 -0.5955878 0.7796319
vn -0.5066369 -0.3680936 0.7796322
vn 0.1768952 0.5444278 -0.8199429
vn 0 0 -1
vn 0.4631178 0.3364746 -0.8199431
vn -0.1768955 0.544428 -0.8199428
vn 0.5724453 0 -0.8199429
vn -0.4631182 0.3364747 -0.8199429
vn 0.4631179 -0.3364749 -0.8199429
vn -0.5724452 -3.232402E-07 -0.819943
vn 0.1768953 -0.5444283 -0.8199426
vn -0.4631178 -0.3364746 -0.8199431
vn -0.1768951 -0.5444281 -0.8199428
g MotorLH_0
f 3/3/3 2/2/2 1/1/1
f 2/2/2 4/4/4 1/1/1
f 1/1/1 4/4/4 5/5/5
f 2/2/2 6/6/6 4/4/4
f 4/4/4 7/7/7 5/5/5
f 5/5/5 7/7/7 8/8/8
f 6/6/6 9/9/9 4/4/4
f 4/4/4 9/9/9 7/7/7
f 6/6/6 10/10/10 9/9/9
f 10/10/10 11/11/11 9/9/9
f 9/9/9 11/11/11 12/12/12
f 9/9/9 12/12/12 7/7/7
f 11/11/11 13/13/13 12/12/12
f 7/7/7 14/14/14 8/8/8
f 7/7/7 12/12/12 14/14/14
f 8/8/8 14/14/14 15/15/15
f 12/12/12 13/13/13 16/16/16
f 12/12/12 16/16/16 14/14/14
f 13/13/13 17/17/17 16/16/16
f 14/14/14 18/18/18 15/15/15
f 14/14/14 16/16/16 18/18/18
f 15/15/15 18/18/18 19/19/19
f 16/16/16 17/17/17 20/20/20
f 16/16/16 20/20/20 18/18/18
f 17/17/17 21/21/21 20/20/20
f 18/18/18 22/22/22 19/19/19
f 18/18/18 20/20/20 22/22/22
f 19/19/19 22/22/22 23/23/23
f 20/20/20 21/21/21 24/24/24
f 20/20/20 24/24/24 22/22/22
f 21/21/21 25/25/25 24/24/24
f 22/22/22 26/26/26 23/23/23
f 22/22/22 24/24/24 26/26/26
f 23/23/23 26/26/26 27/27/27
f 24/24/24 25/25/25 28/28/28
f 24/24/24 28/28/28 26/26/26
f 25/25/25 29/29/29 28/28/28
f 26/26/26 30/30/30 27/27/27
f 26/26/26 28/28/28 30/30/30
f 27/27/27 30/30/30 31/31/31
f 28/28/28 29/29/29 32/32/32
f 28/28/28 32/32/32 30/30/30
f 29/29/29 33/33/33 32/32/32
f 30/30/30 34/34/34 31/31/31
f 30/30/30 32/32/32 34/34/34
f 31/31/31 34/34/34 35/35/35
f 32/32/32 33/33/33 36/36/36
f 32/32/32 36/36/36 34/34/34
f 33/33/33 37/37/37 36/36/36
f 34/34/34 38/38/38 35/35/35
f 34/34/34 36/36/36 38/38/38
f 35/35/35 38/38/38 39/39/39
f 38/38/38 40/40/40 39/39/39
f 36/36/36 37/37/37 41/41/41
f 36/36/36 41/41/41 38/38/38
f 38/38/38 41/41/41 40/40/40
f 37/37/37 42/42/42 41/41/41
f 41/41/41 43/43/43 40/40/40
f 41/41/41 42/42/42 43/43/43
f 42/42/42 44/44/44 43/43/43
f 47/47/47 46/46/46 45/45/45
f 45/45/45 46/46/46 48/48/48
f 49/49/49 46/46/46 47/47/47
f 48/48/48 46/46/46 50/50/50
f 51/51/51 46/46/46 49/49/49
f 50/50/50 46/46/46 52/52/52
f 53/53/53 46/46/46 51/51/51
f 52/52/52 46/46/46 54/54/54
f 55/55/55 46/46/46 53/53/53
f 54/54/54 46/46/46 55/55/55
f 58/58/58 57/57/57 56/56/56
f 56/56/56 57/57/57 59/59/59
f 60/60/60 57/57/57 58/58/58
f 59/59/59 57/57/57 61/61/61
f 62/62/62 57/57/57 60/60/60
f 61/61/61 57/57/57 63/63/63
f 64/64/64 57/57/57 62/62/62
f 63/63/63 57/57/57 65/65/65
f 66/66/66 57/57/57 64/64/64
f 65/65/65 57/57/57 66/66/66
