g Mouth2
v -1.642956 13.83359 5.858987
v -1.441972 13.81289 5.930242
v -1.276748 13.63268 5.992674
v -1.87395 13.70205 5.773685
v -1.293622 13.35197 6.005379
v -1.961822 13.36959 5.769391
v -1.250788 13.00717 6.055432
v -0.2466163 13.09624 6.320579
v -0.04207073 12.79339 6.292645
v 0.4251375 13.08591 6.290403
v 0.7137879 12.82779 6.190894
v 1.023077 13.17138 6.13266
v 1.374309 12.96036 5.964327
v 1.529546 13.34751 5.950869
v 1.907876 13.12612 5.765647
v 2.012856 13.30543 5.744303
v 1.789798 13.59895 5.872737
v 1.531371 13.55847 5.974507
v 1.634805 13.65941 5.943307
v -2.16919 13.76647 5.684422
v -1.87395 13.70205 5.773685
v -1.961822 13.36959 5.769391
v -1.642956 13.83359 5.858987
v -1.953782 14.10716 5.755741
v -1.462873 14.37873 5.90298
v -1.441972 13.81289 5.930242
v -0.8860444 14.38301 6.09972
v -1.276748 13.63268 5.992674
v -0.05884987 14.03436 6.408004
v -0.2466163 13.09624 6.320579
v -1.293622 13.35197 6.005379
v 0.3453729 13.95542 6.427836
v 0.4251375 13.08591 6.290403
v 0.6683201 13.93055 6.370494
v 1.023077 13.17138 6.13266
v 1.531371 13.55847 5.974507
v 1.529546 13.34751 5.950869
v 1.415357 13.98729 6.086662
v 1.634805 13.65941 5.943307
v 1.761747 13.90747 5.916851
v 1.789798 13.59895 5.872737
v 2.105156 13.63059 5.744325
v 2.012856 13.30543 5.744303
v 2.176231 13.30366 5.674731
v 1.907876 13.12612 5.765647
vt 0.1829515 0.01984545
vt 0.182562 0.01986234
vt 0.1821543 0.02025694
vt 0.183302 0.02019501
vt 0.1820576 0.02088878
vt 0.183282 0.02096518
vt 0.1819006 0.02167054
vt 0.1803082 0.0214536
vt 0.1799979 0.02218402
vt 0.1791861 0.02154421
vt 0.1786835 0.02217526
vt 0.1780093 0.02138244
vt 0.1773946 0.02180672
vt 0.1769431 0.02095799
vt 0.1761436 0.02144903
vt 0.1758783 0.02102748
vt 0.1762884 0.02036244
vt 0.1768506 0.02047477
vt 0.1766058 0.02023208
vt 0.127761 0.01932131
vt 0.1281654 0.01926811
vt 0.1281788 0.0187527
vt 0.1284 0.01950204
vt 0.127887 0.01987589
vt 0.1283982 0.0203627
vt 0.1286606 0.01949074
vt 0.129142 0.02042209
vt 0.1289335 0.01922667
vt 0.130431 0.01993819
vt 0.1301689 0.01842584
vt 0.1289982 0.01880383
vt 0.1308384 0.0198217
vt 0.1309199 0.0183652
vt 0.1312971 0.01969049
vt 0.1317074 0.01847346
vt 0.1324829 0.01908089
vt 0.1324209 0.01875751
vt 0.132371 0.01975138
vt 0.1326467 0.0192433
vt 0.1328669 0.0196346
vt 0.1328591 0.01915606
vt 0.1333151 0.01921772
vt 0.1331335 0.01871101
vt 0.1333672 0.01871532
vt 0.132956 0.01842889
vn -0.3211319 -0.001141313 0.9470338
vn -0.326943 0.03044433 0.9445535
vn -0.3230061 0.02693927 0.9460134
vn -0.3193271 0.02294082 0.9473668
vn -0.3069558 0.08003847 0.9483522
vn -0.3122291 0.07715528 0.9468686
vn -0.2771088 -0.0131166 0.960749
vn -0.1537655 -0.05724782 0.9864476
vn -0.01490266 -0.1758351 0.9843068
vn 0.1553648 -0.1364282 0.978391
vn 0.252324 -0.1502222 0.9559109
vn 0.3338749 -0.1232504 0.934525
vn 0.366336 -0.1313635 0.9211631
vn 0.3769952 -0.1125206 0.9193551
vn 0.3829745 -0.117621 0.91624
vn 0.3850041 -0.1126054 0.9160196
vn 0.3814012 -0.1038301 0.91856
vn 0.3766997 -0.1171835 0.9188935
vn 0.3937266 -0.1114985 0.9124405
vn -0.2992593 -0.006512416 0.9541495
vn -0.3193271 0.02294082 0.9473668
vn -0.3122291 0.07715528 0.9468686
vn -0.3211319 -0.001141313 0.9470338
vn -0.3065265 0.0109395 0.9517993
vn -0.3173316 0.02944293 0.9478575
vn -0.326943 0.03044433 0.9445535
vn -0.3263408 0.0353254 0.9445919
vn -0.3230061 0.02693927 0.9460134
vn -0.2401046 -0.02201765 0.9704973
vn -0.1537655 -0.05724782 0.9864476
vn -0.3069558 0.08003847 0.9483522
vn 0.04700022 -0.1244336 0.9911142
vn 0.1553648 -0.1364282 0.978391
vn 0.2938974 -0.1419318 0.9452406
vn 0.3338749 -0.1232504 0.934525
vn 0.3766997 -0.1171835 0.9188935
vn 0.3769952 -0.1125206 0.9193551
vn 0.3922154 -0.1296828 0.9106863
vn 0.3937266 -0.1114985 0.9124405
vn 0.3934097 -0.1032405 0.9135482
vn 0.3814012 -0.1038301 0.91856
vn 0.385442 -0.1052964 0.9167044
vn 0.3850041 -0.1126054 0.9160196
vn 0.3881783 -0.1143203 0.9144662
vn 0.3829745 -0.117621 0.91624
g Mouth2_0
f 3/3/3 2/2/2 1/1/1
f 1/1/1 4/4/4 3/3/3
f 5/5/5 3/3/3 4/4/4
f 4/4/4 6/6/6 5/5/5
f 7/7/7 5/5/5 6/6/6
f 5/5/5 7/7/7 8/8/8
f 8/8/8 7/7/7 9/9/9
f 10/10/10 8/8/8 9/9/9
f 10/10/10 9/9/9 11/11/11
f 12/12/12 10/10/10 11/11/11
f 12/12/12 11/11/11 13/13/13
f 14/14/14 12/12/12 13/13/13
f 13/13/13 15/15/15 14/14/14
f 16/16/16 14/14/14 15/15/15
f 14/14/14 16/16/16 17/17/17
f 17/17/17 18/18/18 14/14/14
f 17/17/17 19/19/19 18/18/18
f 22/22/22 21/21/21 20/20/20
f 20/20/20 21/21/21 23/23/23
f 24/24/24 20/20/20 23/23/23
f 23/23/23 25/25/25 24/24/24
f 23/23/23 26/26/26 25/25/25
f 27/27/27 25/25/25 26/26/26
f 27/27/27 26/26/26 28/28/28
f 29/29/29 27/27/27 28/28/28
f 30/30/30 29/29/29 28/28/28
f 28/28/28 31/31/31 30/30/30
f 32/32/32 29/29/29 30/30/30
f 30/30/30 33/33/33 32/32/32
f 34/34/34 32/32/32 33/33/33
f 33/33/33 35/35/35 34/34/34
f 36/36/36 34/34/34 35/35/35
f 35/35/35 37/37/37 36/36/36
f 38/38/38 34/34/34 36/36/36
f 36/36/36 39/39/39 38/38/38
f 40/40/40 38/38/38 39/39/39
f 39/39/39 41/41/41 40/40/40
f 42/42/42 40/40/40 41/41/41
f 41/41/41 43/43/43 42/42/42
f 43/43/43 44/44/44 42/42/42
f 44/44/44 43/43/43 45/45/45
