g Mouth2
v -1.702956 14.15018 5.959759
v -1.501972 14.13241 6.041256
v -1.336748 13.87836 6.120144
v -1.93395 13.94142 5.869413
v -1.353622 13.46754 6.147466
v -2.021821 13.45142 5.87991
v -1.310788 12.96909 6.219961
v -0.3066162 13.1474 6.51555
v -0.1020707 12.69677 6.497959
v 0.3651375 13.12682 6.481919
v 0.6537879 12.72926 6.381359
v 0.9630766 13.22448 6.299672
v 1.314309 12.88397 6.119145
v 1.469546 13.45127 6.086058
v 1.847876 13.09248 5.886919
v 1.952855 13.35255 5.854515
v 1.729798 13.80734 5.986135
v 1.47137 13.76592 6.103036
v 1.574805 13.90889 6.063111
v -2.22919 14.02029 5.765544
v -1.93395 13.94142 5.869413
v -2.021821 13.45142 5.87991
v -1.702956 14.15018 5.959759
v -2.013783 14.53434 5.830427
v -1.522873 14.96019 5.984317
v -1.501972 14.13241 6.041256
v -0.9460444 15.00154 6.2065
v -1.336748 13.87836 6.120144
v -0.1188499 14.54345 6.571056
v -0.3066162 13.1474 6.51555
v -1.353622 13.46754 6.147466
v 0.2853729 14.43081 6.597118
v 0.3651375 13.12682 6.481919
v 0.6083202 14.384 6.533452
v 0.9630766 13.22448 6.299672
v 1.47137 13.76592 6.103036
v 1.469546 13.45127 6.086058
v 1.355357 14.41691 6.21001
v 1.574805 13.90889 6.063111
v 1.701746 14.26921 6.021753
v 1.729798 13.80734 5.986135
v 2.045156 13.83103 5.839527
v 1.952855 13.35255 5.854515
v 2.116231 13.33754 5.775958
v 1.847876 13.09248 5.886919
vt 0.1829515 0.01984545
vt 0.182562 0.01986234
vt 0.1821543 0.02025694
vt 0.183302 0.02019501
vt 0.1820576 0.02088878
vt 0.183282 0.02096518
vt 0.1819006 0.02167054
vt 0.1803082 0.0214536
vt 0.1799979 0.02218402
vt 0.1791861 0.02154421
vt 0.1786835 0.02217526
vt 0.1780093 0.02138244
vt 0.1773946 0.02180672
vt 0.1769431 0.02095799
vt 0.1761436 0.02144903
vt 0.1758783 0.02102748
vt 0.1762884 0.02036244
vt 0.1768506 0.02047477
vt 0.1766058 0.02023208
vt 0.127761 0.01932131
vt 0.1281654 0.01926811
vt 0.1281788 0.0187527
vt 0.1284 0.01950204
vt 0.127887 0.01987589
vt 0.1283982 0.0203627
vt 0.1286606 0.01949074
vt 0.129142 0.02042209
vt 0.1289335 0.01922667
vt 0.130431 0.01993819
vt 0.1301689 0.01842584
vt 0.1289982 0.01880383
vt 0.1308384 0.0198217
vt 0.1309199 0.0183652
vt 0.1312971 0.01969049
vt 0.1317074 0.01847346
vt 0.1324829 0.01908089
vt 0.1324209 0.01875751
vt 0.132371 0.01975138
vt 0.1326467 0.0192433
vt 0.1328669 0.0196346
vt 0.1328591 0.01915606
vt 0.1333151 0.01921772
vt 0.1331335 0.01871101
vt 0.1333672 0.01871532
vt 0.132956 0.01842889
vn -0.3562517 0.3379649 0.8711281
vn -0.3707818 0.3467248 0.8615699
vn -0.3572761 0.3370496 0.8710634
vn -0.3581728 0.3562433 0.8630196
vn -0.34277 0.3557521 0.8694534
vn -0.354725 0.3790027 0.8547088
vn -0.3231615 0.3817655 0.8659225
vn -0.2075123 0.2881804 0.9348212
vn -0.06557152 0.2175524 0.9738436
vn 0.130319 0.2427243 0.9613022
vn 0.2732865 0.2280247 0.9345156
vn 0.3498541 0.2298987 0.9081568
vn 0.4090648 0.2269943 0.883821
vn 0.4141459 0.2348023 0.8794038
vn 0.4172159 0.2320834 0.8786741
vn 0.4245278 0.2359132 0.8741401
vn 0.42582 0.2388029 0.8727259
vn 0.4112963 0.2309287 0.8817637
vn 0.4184851 0.2223713 0.8805801
vn -0.334836 0.3364447 0.8801646
vn -0.3581728 0.3562433 0.8630196
vn -0.354725 0.3790027 0.8547088
vn -0.3562517 0.3379649 0.8711281
vn -0.3425123 0.3355248 0.8775582
vn -0.359392 0.3447919 0.8671539
vn -0.3707818 0.3467248 0.8615699
vn -0.370626 0.349462 0.8605304
vn -0.3572761 0.3370496 0.8710634
vn -0.2253137 0.3099618 0.9236652
vn -0.2075123 0.2881804 0.9348212
vn -0.34277 0.3557521 0.8694534
vn 0.09649253 0.2460442 0.9644436
vn 0.130319 0.2427243 0.9613022
vn 0.3073841 0.2236134 0.924939
vn 0.3498541 0.2298987 0.9081568
vn 0.4112963 0.2309287 0.8817637
vn 0.4141459 0.2348023 0.8794038
vn 0.4101913 0.2183771 0.8854685
vn 0.4184851 0.2223713 0.8805801
vn 0.4391435 0.2353377 0.8670462
vn 0.42582 0.2388029 0.8727259
vn 0.4243575 0.240898 0.8728626
vn 0.4245278 0.2359132 0.8741401
vn 0.428426 0.2332761 0.8729452
vn 0.4172159 0.2320834 0.8786741
g Mouth2_0
f 3/3/3 2/2/2 1/1/1
f 1/1/1 4/4/4 3/3/3
f 5/5/5 3/3/3 4/4/4
f 4/4/4 6/6/6 5/5/5
f 7/7/7 5/5/5 6/6/6
f 5/5/5 7/7/7 8/8/8
f 8/8/8 7/7/7 9/9/9
f 10/10/10 8/8/8 9/9/9
f 10/10/10 9/9/9 11/11/11
f 12/12/12 10/10/10 11/11/11
f 12/12/12 11/11/11 13/13/13
f 14/14/14 12/12/12 13/13/13
f 13/13/13 15/15/15 14/14/14
f 16/16/16 14/14/14 15/15/15
f 14/14/14 16/16/16 17/17/17
f 17/17/17 18/18/18 14/14/14
f 17/17/17 19/19/19 18/18/18
f 22/22/22 21/21/21 20/20/20
f 20/20/20 21/21/21 23/23/23
f 20/20/20 23/23/23 24/24/24
f 25/25/25 24/24/24 23/23/23
f 23/23/23 26/26/26 25/25/25
f 27/27/27 25/25/25 26/26/26
f 27/27/27 26/26/26 28/28/28
f 29/29/29 27/27/27 28/28/28
f 30/30/30 29/29/29 28/28/28
f 28/28/28 31/31/31 30/30/30
f 32/32/32 29/29/29 30/30/30
f 30/30/30 33/33/33 32/32/32
f 34/34/34 32/32/32 33/33/33
f 33/33/33 35/35/35 34/34/34
f 36/36/36 34/34/34 35/35/35
f 35/35/35 37/37/37 36/36/36
f 38/38/38 34/34/34 36/36/36
f 36/36/36 39/39/39 38/38/38
f 40/40/40 38/38/38 39/39/39
f 39/39/39 41/41/41 40/40/40
f 42/42/42 40/40/40 41/41/41
f 41/41/41 43/43/43 42/42/42
f 43/43/43 44/44/44 42/42/42
f 44/44/44 43/43/43 45/45/45
