g Mouth1
v -2.120244 13.69381 5.700218
v -1.531093 14.16333 5.48915
v -1.377547 13.89965 5.664511
v -0.9764943 14.05494 5.671595
v -0.9940328 14.34415 5.494675
v -0.02921779 14.12371 5.691561
v -0.009348755 14.40845 5.513982
v 1.054052 14.23266 5.642688
v 1.013445 14.01748 5.781387
v 1.847119 13.73099 5.865135
v 1.938428 13.88762 5.765072
v 2.410474 13.48772 5.869652
vt 0.1093004 0.02242512
vt 0.1144759 0.02777266
vt 0.1157234 0.02508747
vt 0.1194667 0.02647072
vt 0.11911 0.0296443
vt 0.1283789 0.02647072
vt 0.1278442 0.02931849
vt 0.1369343 0.02720297
vt 0.1365775 0.02500618
vt 0.1441528 0.02150676
vt 0.1449549 0.0234597
vt 0.1484308 0.01971708
vn -0.1002345 0.7551916 0.6477953
vn -0.1494101 0.7430748 0.6523163
vn -0.1528223 0.7421588 0.6525685
vn -0.1033021 0.7564156 0.6458824
vn -0.09447847 0.7585976 0.6446732
vn -0.03511205 0.7723073 0.634278
vn -0.03515058 0.7722983 0.6342869
vn 0.02117061 0.7718083 0.6355028
vn 0.02781216 0.7708223 0.6364428
vn 0.1080417 0.7496476 0.652959
vn 0.1085436 0.7493798 0.6531832
vn 0.1869433 0.7037766 0.6853837
g Mouth1_0
f 3/3/3 2/2/2 1/1/1
f 2/2/2 3/3/3 4/4/4
f 2/2/2 4/4/4 5/5/5
f 6/6/6 5/5/5 4/4/4
f 5/5/5 6/6/6 7/7/7
f 8/8/8 7/7/7 6/6/6
f 6/6/6 9/9/9 8/8/8
f 9/9/9 10/10/10 8/8/8
f 8/8/8 10/10/10 11/11/11
f 10/10/10 12/12/12 11/11/11
