g Mud
v -10.6904 0.89181 -1.224075
v -11.06796 0.89181 3.888634
v -11.56667 0.89181 0.7447902
v -9.988439 0.89181 4.072582
v -10.61516 0.89181 4.92856
v -9.086775 0.89181 6.199193
v -7.470996 0.89181 3.714935
v -7.960929 0.89181 7.935276
v -6.537914 0.89181 8.086102
v -1.878864 0.89181 3.837105
v -4.878699 0.89181 7.062439
v -3.371439 0.89181 8.584739
v -0.6204323 0.89181 8.343297
v -8.0173 0.89181 -4.2423
v -11.14469 0.89181 -3.490988
v -10.25245 0.89181 -5.467572
v -7.938174 0.89181 -7.7255
v -4.328896 0.89181 -12.10432
v 2.66577 0.89181 4.614681
v 0.69052 0.89181 7.652606
v 5.333936 0.8918101 5.385778
v 5.452013 0.89181 -10.51993
v 2.779079 0.89181 9.787734
v 9.710216 0.89181 -4.954175
v 7.004635 0.89181 7.24805
v 6.102353 0.89181 8.592884
v 7.294937 0.89181 4.900539
v 9.649529 0.8918101 2.184765
v 10.85214 0.89181 -0.9684173
v 9.610211 0.89181 3.792871
v 10.84852 0.89181 2.142093
v -10.6904 0.89181 -1.224075
v -10.75567 -1.445127 -1.11323
v -11.1477 -1.445127 -3.606121
v -11.14469 0.89181 -3.490988
v -10.25245 0.89181 -5.467572
v -10.25105 -1.445127 -5.493363
v -7.938174 0.89181 -7.7255
v -8.008089 -1.445127 -7.587938
v -9.086775 0.89181 6.199193
v -9.139504 -1.445127 6.305462
v -10.67212 -1.445127 5.03495
v -10.61516 0.89181 4.92856
v -11.56667 0.89181 0.7447902
v -11.62781 -1.445127 0.8704911
v -10.75567 -1.445127 -1.11323
v -10.6904 0.89181 -1.224075
v -11.06796 0.89181 3.888634
v -11.12313 -1.445127 3.999143
v -11.62781 -1.445127 0.8704911
v -11.56667 0.89181 0.7447902
v 10.85214 0.89181 -0.9684173
v 10.74998 -1.445127 -0.8145095
v 10.73507 -1.445127 2.301658
v 10.84852 0.89181 2.142093
v -0.6204323 0.89181 8.343297
v -0.5473524 -1.445127 8.724262
v -3.115998 -1.445127 8.924185
v -3.371439 0.89181 8.584739
v -4.878699 0.89181 7.062439
v -4.588822 -1.445127 7.409015
v 0.69052 0.89181 7.652606
v 0.6240911 -1.445127 8.010007
v -0.5473524 -1.445127 8.724262
v -0.6204323 0.89181 8.343297
v 2.779079 0.89181 9.787734
v 2.70347 -1.445127 9.874542
v 0.6240911 -1.445127 8.010007
v 0.69052 0.89181 7.652606
v 6.102353 0.89181 8.592884
v 6.014968 -1.445127 8.699705
v 2.70347 -1.445127 9.874542
v 2.779079 0.89181 9.787734
v 7.294937 0.89181 4.900539
v 7.199029 -1.445127 5.052462
v 7.087974 -1.445127 7.079564
v 7.004635 0.89181 7.24805
v 6.102353 0.89181 8.592884
v 6.014968 -1.445127 8.699705
v -7.960929 0.89181 7.935276
v -8.004559 -1.445127 8.036966
v -9.139504 -1.445127 6.305462
v -9.086775 0.89181 6.199193
v -4.878699 0.89181 7.062439
v -4.588822 -1.445127 7.409015
v -6.250075 -1.445127 8.420654
v -6.537914 0.89181 8.086102
v -4.328896 0.89181 -12.10432
v -4.388649 -1.445127 -11.93551
v 5.35352 -1.445127 -10.3574
v 5.452013 0.89181 -10.51993
v -7.938174 0.89181 -7.7255
v -8.008089 -1.445127 -7.587938
v -4.388649 -1.445127 -11.93551
v -4.328896 0.89181 -12.10432
v 5.452013 0.89181 -10.51993
v 5.35352 -1.445127 -10.3574
v 9.608359 -1.445127 -4.791347
v 9.710216 0.89181 -4.954175
v 10.84852 0.89181 2.142093
v 10.73507 -1.445127 2.301658
v 9.535591 -1.445127 3.8782
v 9.610211 0.89181 3.792871
v 7.294937 0.89181 4.900539
v 7.199029 -1.445127 5.052462
v -10.61516 0.89181 4.92856
v -10.67212 -1.445127 5.03495
v -11.12313 -1.445127 3.999143
v -11.06796 0.89181 3.888634
v -6.537914 0.89181 8.086102
v -6.250075 -1.445127 8.420654
v -8.004559 -1.445127 8.036966
v -7.960929 0.89181 7.935276
v 9.710216 0.89181 -4.954175
v 9.608359 -1.445127 -4.791347
v 10.74998 -1.445127 -0.8145095
v 10.85214 0.89181 -0.9684173
v 1.513371 0.8571562 11.29807
v 0.4074146 0.8571562 9.592408
v 1.650133 0.8571562 10.52206
v 1.101806 0.8571562 11.68268
v 0.3834479 0.8571562 11.70929
v -0.5804616 0.8571565 11.99441
v -0.2820465 0.8571562 9.597021
v -1.320038 0.8571562 10.22028
v -1.531486 0.8571562 10.82032
v -1.411815 0.8571562 11.50209
v 1.101806 0.8571562 11.68268
v 0.4131103 -1.453061 11.7931
v 0.3834479 0.8571562 11.70929
v 1.197207 -1.453061 11.76406
v 1.513371 0.8571562 11.29807
v 1.646436 -1.453061 11.34426
v 1.650133 0.8571562 10.52206
v 1.795717 -1.453061 10.66911
v 0.4074146 0.8571562 9.592408
v 0.4392694 -1.453061 9.654384
v -0.2820465 0.8571562 9.597021
v -0.313286 -1.453061 9.659421
v -1.320038 0.8571562 10.22028
v -0.313286 -1.453061 9.659421
v -0.2820465 0.8571562 9.597021
v -1.446269 -1.453061 10.33972
v -1.531486 0.8571562 10.82032
v -1.677066 -1.453061 10.82279
v -1.411815 0.8571562 11.50209
v -1.546447 -1.453061 11.56694
v -0.5804616 0.8571565 11.99441
v -0.6390071 -1.453061 12.10432
v 0.3834479 0.8571562 11.70929
v 0.4131103 -1.453061 11.7931
v 8.00087 0.8827595 6.259153
v 8.41501 0.8827595 8.902149
v 7.678575 0.8827595 7.528852
v 8.593034 0.8827595 5.855039
v 9.501814 0.8827595 6.280671
v 10.46199 0.9109077 6.06977
v 9.596491 0.8827595 9.274592
v 10.69516 0.8827598 8.686482
v 11.23069 0.8827595 8.182755
v 11.40502 0.8827595 7.219056
v 11.38648 0.8827595 6.338295
v 8.593034 0.8827595 5.855039
v 8.479592 -1.441753 5.650603
v 9.497029 -1.441753 6.127126
v 9.501814 0.8827595 6.280671
v 10.57203 -1.41024 5.891009
v 10.46199 0.9109077 6.06977
v 11.60705 -1.441753 6.191638
v 11.38648 0.8827595 6.338295
v 11.62781 -1.441753 7.177715
v 11.40502 0.8827595 7.219056
v 11.43263 -1.441753 8.256641
v 11.23069 0.8827595 8.182755
v 10.83307 -1.441753 8.820596
v 10.69516 0.8827598 8.686482
v 9.603034 -1.441753 9.47903
v 9.596491 0.8827595 9.274592
v 8.280277 -1.441753 9.062052
v 8.41501 0.8827595 8.902149
v 8.41501 0.8827595 8.902149
v 8.280277 -1.441753 9.062052
v 7.455789 -1.441753 7.524551
v 7.678575 0.8827595 7.528852
v 7.816618 -1.441753 6.103036
v 8.00087 0.8827595 6.259153
v 8.479592 -1.441753 5.650603
v 8.593034 0.8827595 5.855039
vt 0.1673519 0.5176706
vt 0.1337393 0.3298323
vt 0.1273489 0.4481422
vt 0.1730002 0.3188763
vt 0.1465098 0.2895921
vt 0.1982159 0.2366799
vt 0.2675771 0.3224499
vt 0.2332312 0.1680813
vt 0.2853364 0.1570325
vt 0.474146 0.2964516
vt 0.3506968 0.1885599
vt 0.4006543 0.1264114
vt 0.5034322 0.1247857
vt 0.2779091 0.6191492
vt 0.1592381 0.6033432
vt 0.1998622 0.6730961
vt 0.2942149 0.7478042
vt 0.4446573 0.8960612
vt 0.6394164 0.2502108
vt 0.5546201 0.1453228
vt 0.7352389 0.2114159
vt 0.8006924 0.7998412
vt 0.6237456 0.05825325
vt 0.9369703 0.577427
vt 0.7899418 0.136053
vt 0.751372 0.08972807
vt 0.8097047 0.2218503
vt 0.9073082 0.3133544
vt 0.9639415 0.4254766
vt 0.899677 0.2539684
vt 0.9518626 0.3103298
vt 0.955787 0.9327604
vt 0.9855651 0.9327604
vt 0.9855652 0.8849355
vt 0.9557869 0.89131
vt 0.9557869 0.8523599
vt 0.9855651 0.8460144
vt 0.955787 0.7008521
vt 0.9855651 0.7008521
vt 0.955787 0.9327604
vt 0.9855651 0.9327604
vt 0.9855651 0.7008521
vt 0.955787 0.7008521
vt 0.955787 0.9327604
vt 0.9855651 0.9327604
vt 0.9855651 0.7008521
vt 0.955787 0.7008521
vt 0.955787 0.9327604
vt 0.9855651 0.9327604
vt 0.9855651 0.7008521
vt 0.955787 0.7008521
vt 0.955787 0.9327604
vt 0.9855651 0.9327604
vt 0.9855651 0.7008521
vt 0.955787 0.7008521
vt 0.955787 0.9327604
vt 0.9855651 0.9327604
vt 0.9855652 0.8353357
vt 0.9557871 0.8301007
vt 0.955787 0.7008521
vt 0.9855651 0.7008521
vt 0.955787 0.9327604
vt 0.9855651 0.9327604
vt 0.9855651 0.7008521
vt 0.955787 0.7008521
vt 0.955787 0.9327604
vt 0.9855651 0.9327604
vt 0.9855651 0.7008521
vt 0.955787 0.7008521
vt 0.955787 0.9327604
vt 0.9855651 0.9327604
vt 0.9855651 0.7008521
vt 0.955787 0.7008521
vt 0.955787 0.9327604
vt 0.9855651 0.9327604
vt 0.9855651 0.8110067
vt 0.9557869 0.7954498
vt 0.955787 0.7008521
vt 0.9855651 0.7008521
vt 0.955787 0.9327604
vt 0.9855651 0.9327604
vt 0.9855651 0.7008521
vt 0.955787 0.7008521
vt 0.955787 0.9327604
vt 0.9855651 0.9327604
vt 0.9855651 0.7008521
vt 0.955787 0.7008521
vt 0.955787 0.9327604
vt 0.9855651 0.9327604
vt 0.9855651 0.7008521
vt 0.955787 0.7008521
vt 0.955787 0.9327604
vt 0.9855651 0.9327604
vt 0.9855651 0.7008521
vt 0.955787 0.7008521
vt 0.955787 0.9327604
vt 0.9855651 0.9327604
vt 0.9855651 0.7008521
vt 0.955787 0.7008521
vt 0.955787 0.9327604
vt 0.9855651 0.9327604
vt 0.9855651 0.8543216
vt 0.955787 0.8368354
vt 0.955787 0.7008521
vt 0.9855651 0.7008521
vt 0.955787 0.9327604
vt 0.9855651 0.9327604
vt 0.9855651 0.7008521
vt 0.955787 0.7008521
vt 0.955787 0.9327604
vt 0.9855651 0.9327604
vt 0.9855651 0.7008521
vt 0.955787 0.7008521
vt 0.955787 0.9327604
vt 0.9855651 0.9327604
vt 0.9855651 0.7008521
vt 0.955787 0.7008521
vt 0.2367896 0.4102985
vt 0.1882751 0.5230382
vt 0.2528044 0.4550971
vt 0.2083913 0.3915845
vt 0.1653667 0.3972908
vt 0.1051041 0.3901026
vt 0.1471938 0.5297602
vt 0.07909068 0.5031991
vt 0.06041658 0.469632
vt 0.0606204 0.4278411
vt 0.953506 0.7657542
vt 0.9920929 0.7271672
vt 0.953506 0.7271672
vt 0.9920929 0.7657542
vt 0.953506 0.8043411
vt 0.9920929 0.8043411
vt 0.953506 0.8429281
vt 0.9920929 0.8429281
vt 0.953506 0.881515
vt 0.9920929 0.881515
vt 0.953506 0.9201018
vt 0.9920929 0.9201018
vt 0.9920928 0.8815149
vt 0.953506 0.9201018
vt 0.992093 0.9201018
vt 0.9535059 0.8815149
vt 0.9920929 0.8429281
vt 0.9535059 0.8429281
vt 0.992093 0.8043411
vt 0.953506 0.8043411
vt 0.9920931 0.7657542
vt 0.953506 0.7657542
vt 0.992093 0.7271672
vt 0.953506 0.7271672
vt 0.3928073 0.6368703
vt 0.4378446 0.5073378
vt 0.3881508 0.5698804
vt 0.4189847 0.6626646
vt 0.4687135 0.649498
vt 0.51524 0.6689132
vt 0.5008426 0.4993457
vt 0.550894 0.5390411
vt 0.5733111 0.5693375
vt 0.5733112 0.6195405
vt 0.5643452 0.6638012
vt 0.9646067 0.9401621
vt 0.9802576 0.9401621
vt 0.9802576 0.9088602
vt 0.9646067 0.9088602
vt 0.9802576 0.8775585
vt 0.9646067 0.8775585
vt 0.9802576 0.8462566
vt 0.9646067 0.8462566
vt 0.9802576 0.8149548
vt 0.9646067 0.8149548
vt 0.9802576 0.783653
vt 0.9646067 0.783653
vt 0.9802576 0.7523512
vt 0.9646067 0.7523512
vt 0.9802576 0.7210493
vt 0.9646067 0.7210493
vt 0.9802576 0.6897475
vt 0.9646067 0.6897475
vt 0.9646067 0.6897475
vt 0.9802576 0.6897475
vt 0.9802576 0.7288748
vt 0.9646067 0.7288748
vt 0.9802576 0.9010348
vt 0.9646067 0.9010348
vt 0.9802576 0.9401621
vt 0.9646067 0.9401621
vn -0.3174728 0.947796 -0.02989651
vn -0.8039185 0.5663152 0.1816648
vn -0.8319398 0.5505747 -0.06887384
vn 0 1 0
vn -0.7004592 0.3896202 0.5979574
vn -0.4695179 0.7780486 0.4173648
vn 0 1 0
vn -0.474527 0.6016112 0.6425635
vn 0.1025354 0.8681309 0.4856286
vn 0 1 0
vn -0.02261701 0.9737582 0.2264588
vn -0.252461 0.6599619 0.7076112
vn 0.1153583 0.86781 0.4833201
vn 0 1 0
vn -0.5046206 0.8618661 -0.0504486
vn -0.7138373 0.4333447 -0.5501351
vn -0.2048341 0.961386 -0.1837933
vn -0.05181225 0.9619732 -0.2681848
vn 0 1 0
vn -0.08365344 0.9733568 0.2134914
vn 0 1 0
vn 0.1160472 0.9668269 -0.2275492
vn -0.09516727 0.7414026 0.6642781
vn 0.2755949 0.9482766 -0.1575407
vn 0.6279463 0.7488263 0.2119967
vn 0.3653244 0.7310203 0.5763223
vn 0.6750206 0.5047389 0.5381317
vn 0 1 0
vn 0.9219975 0.3560816 -0.1520739
vn 0.5840638 0.3315094 0.7409257
vn 0.9138302 0.3396172 0.2226531
vn -0.3174728 0.947796 -0.02989651
vn -0.9936252 0.009792097 -0.1123083
vn -0.9929276 0.01427864 -0.1178595
vn -0.5046206 0.8618661 -0.0504486
vn -0.7138373 0.4333447 -0.5501351
vn -0.7907722 0.0009155948 -0.61211
vn -0.2048341 0.961386 -0.1837933
vn -0.741322 -0.01547877 -0.6709712
vn -0.4695179 0.7780486 0.4173648
vn -0.7489861 0.04612075 0.6609786
vn -0.755856 0.04775641 0.652994
vn -0.7004592 0.3896202 0.5979574
vn -0.8319398 0.5505747 -0.06887384
vn -0.997768 0.02243659 -0.06289352
vn -0.9936252 0.009792097 -0.1123083
vn -0.3174728 0.947796 -0.02989651
vn -0.8039185 0.5663152 0.1816648
vn -0.9737459 0.03492276 0.2249429
vn -0.997768 0.02243659 -0.06289352
vn -0.8319398 0.5505747 -0.06887384
vn 0.9219975 0.3560816 -0.1520739
vn 0.9868323 -0.05451663 -0.1522828
vn 0.9634841 -0.02840626 0.2662546
vn 0.9138302 0.3396172 0.2226531
vn 0.1153583 0.86781 0.4833201
vn 0.2251264 0.1535568 0.962153
vn -0.2575394 0.1130979 0.9596261
vn -0.252461 0.6599619 0.7076112
vn -0.02261701 0.9737582 0.2264588
vn -0.206943 0.1199085 0.9709771
vn -0.08365344 0.9733568 0.2134914
vn -0.3565957 0.1270108 0.9255851
vn 0.2251264 0.1535568 0.962153
vn 0.1153583 0.86781 0.4833201
vn -0.09516727 0.7414026 0.6642781
vn -0.1570815 0.06536409 0.9854202
vn -0.3565957 0.1270108 0.9255851
vn -0.08365344 0.9733568 0.2134914
vn 0.3653244 0.7310203 0.5763223
vn 0.5180398 0.01669884 0.8551934
vn -0.1570815 0.06536409 0.9854202
vn -0.09516727 0.7414026 0.6642781
vn 0.6750206 0.5047389 0.5381317
vn 0.8104413 0.01594161 0.5856031
vn 0.9550344 -0.005292999 0.2964477
vn 0.6279463 0.7488263 0.2119967
vn 0.3653244 0.7310203 0.5763223
vn 0.5180398 0.01669884 0.8551934
vn -0.474527 0.6016112 0.6425635
vn -0.5895314 0.06526546 0.8051044
vn -0.7489861 0.04612075 0.6609786
vn -0.4695179 0.7780486 0.4173648
vn -0.02261701 0.9737582 0.2264588
vn -0.206943 0.1199085 0.9709771
vn 0.2433759 0.15191 0.9579621
vn 0.1025354 0.8681309 0.4856286
vn -0.05181225 0.9619732 -0.2681848
vn -0.2168317 -0.06228147 -0.9742202
vn 0.4526385 -0.0811079 -0.8879976
vn 0.1160472 0.9668269 -0.2275492
vn -0.2048341 0.961386 -0.1837933
vn -0.741322 -0.01547877 -0.6709712
vn -0.2168317 -0.06228147 -0.9742202
vn -0.05181225 0.9619732 -0.2681848
vn 0.1160472 0.9668269 -0.2275492
vn 0.4526385 -0.0811079 -0.8879976
vn 0.8705549 -0.07130615 -0.4868774
vn 0.2755949 0.9482766 -0.1575407
vn 0.9138302 0.3396172 0.2226531
vn 0.9634841 -0.02840626 0.2662546
vn 0.6080154 0.01723302 0.7937381
vn 0.5840638 0.3315094 0.7409257
vn 0.6750206 0.5047389 0.5381317
vn 0.8104413 0.01594161 0.5856031
vn -0.7004592 0.3896202 0.5979574
vn -0.755856 0.04775641 0.652994
vn -0.9737459 0.03492276 0.2249429
vn -0.8039185 0.5663152 0.1816648
vn 0.1025354 0.8681309 0.4856286
vn 0.2433759 0.15191 0.9579621
vn -0.5895314 0.06526546 0.8051044
vn -0.474527 0.6016112 0.6425635
vn 0.2755949 0.9482766 -0.1575407
vn 0.8705549 -0.07130615 -0.4868774
vn 0.9868323 -0.05451663 -0.1522828
vn 0.9219975 0.3560816 -0.1520739
vn 0.7429383 0.5513835 0.3794983
vn 0.3904249 0.4120247 -0.8232886
vn 0.7783312 0.2920804 -0.5557783
vn 0.2974613 0.4699527 0.8310602
vn 0.1462863 0.5992122 0.7871119
vn -0.09619802 0.4827791 0.8704426
vn -0.2857081 0.5367924 -0.7938669
vn -0.5739689 0.5054021 -0.6443045
vn -0.7774649 0.626026 -0.06032926
vn -0.765474 0.1599705 0.6232648
vn 0.2974613 0.4699527 0.8310602
vn 0.1815574 0.03798237 0.9826466
vn 0.1462863 0.5992122 0.7871119
vn 0.346712 0.04731694 0.9367774
vn 0.7429383 0.5513835 0.3794983
vn 0.8905337 0.06433382 0.4503451
vn 0.7783312 0.2920804 -0.5557783
vn 0.8391388 0.01563022 -0.5436928
vn 0.3904249 0.4120247 -0.8232886
vn 0.4350027 -0.01815218 -0.9002461
vn -0.2857081 0.5367924 -0.7938669
vn -0.3444559 -0.0206932 -0.9385744
vn -0.5739689 0.5054021 -0.6443045
vn -0.3444559 -0.0206932 -0.9385744
vn -0.2857081 0.5367924 -0.7938669
vn -0.6840493 0.00440079 -0.7294224
vn -0.7774649 0.626026 -0.06032926
vn -0.9956217 0.05645995 -0.0744952
vn -0.765474 0.1599705 0.6232648
vn -0.7771716 0.06286822 0.6261405
vn -0.09619802 0.4827791 0.8704426
vn -0.1194312 0.05020157 0.9915725
vn 0.1462863 0.5992122 0.7871119
vn 0.1815574 0.03798237 0.9826466
vn -0.7537011 0.5137157 -0.4099157
vn -0.5592652 0.5621438 0.6092755
vn -0.9015029 0.4081017 0.1440326
vn 0.0226788 0.5178457 -0.8551734
vn 0.05702076 0.8029096 -0.5933675
vn 0.0159738 0.6132936 -0.7896934
vn 0.0707532 0.6065214 0.7919127
vn 0.4722688 0.526221 0.7071446
vn 0.7710645 0.5143039 0.3754345
vn 0.8758771 0.4762646 0.07753237
vn 0.7492194 0.2313791 -0.6205918
vn 0.0226788 0.5178457 -0.8551734
vn 0.001299823 0.08754712 -0.9961596
vn 0.1178731 0.06520995 -0.9908852
vn 0.05702076 0.8029096 -0.5933675
vn 0.0375274 0.07850169 -0.9962074
vn 0.0159738 0.6132936 -0.7896934
vn 0.775851 0.1127845 -0.6207535
vn 0.7492194 0.2313791 -0.6205918
vn 0.9922075 0.09363442 0.08220133
vn 0.8758771 0.4762646 0.07753237
vn 0.8975679 0.09168345 0.4312377
vn 0.7710645 0.5143039 0.3754345
vn 0.5546671 0.08068893 0.8281508
vn 0.4722688 0.526221 0.7071446
vn 0.09246293 0.08749309 0.9918646
vn 0.0707532 0.6065214 0.7919127
vn -0.6705602 0.08952596 0.7364334
vn -0.5592652 0.5621438 0.6092755
vn -0.5592652 0.5621438 0.6092755
vn -0.6705602 0.08952596 0.7364334
vn -0.9840464 0.09403425 0.1510305
vn -0.9015029 0.4081017 0.1440326
vn -0.8721043 0.1012786 -0.478724
vn -0.7537011 0.5137157 -0.4099157
vn 0.001299823 0.08754712 -0.9961596
vn 0.0226788 0.5178457 -0.8551734
g Mud_0
f 3/3/3 2/2/2 1/1/1
f 2/2/2 4/4/4 1/1/1
f 2/2/2 5/5/5 4/4/4
f 5/5/5 6/6/6 4/4/4
f 4/4/4 6/6/6 7/7/7
f 4/4/4 7/7/7 1/1/1
f 6/6/6 8/8/8 7/7/7
f 7/7/7 8/8/8 9/9/9
f 7/7/7 9/9/9 10/10/10
f 9/9/9 11/11/11 10/10/10
f 11/11/11 12/12/12 10/10/10
f 12/12/12 13/13/13 10/10/10
f 7/7/7 14/14/14 1/1/1
f 14/14/14 7/7/7 10/10/10
f 14/14/14 15/15/15 1/1/1
f 14/14/14 16/16/16 15/15/15
f 14/14/14 17/17/17 16/16/16
f 14/14/14 10/10/10 17/17/17
f 10/10/10 18/18/18 17/17/17
f 10/10/10 13/13/13 19/19/19
f 10/10/10 19/19/19 18/18/18
f 13/13/13 20/20/20 19/19/19
f 19/19/19 20/20/20 21/21/21
f 19/19/19 22/22/22 18/18/18
f 19/19/19 21/21/21 22/22/22
f 20/20/20 23/23/23 21/21/21
f 21/21/21 24/24/24 22/22/22
f 21/21/21 23/23/23 25/25/25
f 23/23/23 26/26/26 25/25/25
f 21/21/21 25/25/25 27/27/27
f 21/21/21 28/28/28 24/24/24
f 28/28/28 21/21/21 27/27/27
f 28/28/28 29/29/29 24/24/24
f 28/28/28 27/27/27 30/30/30
f 28/28/28 30/30/30 29/29/29
f 30/30/30 31/31/31 29/29/29
f 34/34/34 33/33/33 32/32/32
f 35/35/35 34/34/34 32/32/32
f 35/35/35 36/36/36 34/34/34
f 36/36/36 37/37/37 34/34/34
f 36/36/36 38/38/38 37/37/37
f 38/38/38 39/39/39 37/37/37
f 42/42/42 41/41/41 40/40/40
f 43/43/43 42/42/42 40/40/40
f 46/46/46 45/45/45 44/44/44
f 47/47/47 46/46/46 44/44/44
f 50/50/50 49/49/49 48/48/48
f 51/51/51 50/50/50 48/48/48
f 54/54/54 53/53/53 52/52/52
f 55/55/55 54/54/54 52/52/52
f 58/58/58 57/57/57 56/56/56
f 59/59/59 58/58/58 56/56/56
f 59/59/59 60/60/60 58/58/58
f 60/60/60 61/61/61 58/58/58
f 64/64/64 63/63/63 62/62/62
f 65/65/65 64/64/64 62/62/62
f 68/68/68 67/67/67 66/66/66
f 69/69/69 68/68/68 66/66/66
f 72/72/72 71/71/71 70/70/70
f 73/73/73 72/72/72 70/70/70
f 76/76/76 75/75/75 74/74/74
f 77/77/77 76/76/76 74/74/74
f 77/77/77 78/78/78 76/76/76
f 78/78/78 79/79/79 76/76/76
f 82/82/82 81/81/81 80/80/80
f 83/83/83 82/82/82 80/80/80
f 86/86/86 85/85/85 84/84/84
f 87/87/87 86/86/86 84/84/84
f 90/90/90 89/89/89 88/88/88
f 91/91/91 90/90/90 88/88/88
f 94/94/94 93/93/93 92/92/92
f 95/95/95 94/94/94 92/92/92
f 98/98/98 97/97/97 96/96/96
f 99/99/99 98/98/98 96/96/96
f 102/102/102 101/101/101 100/100/100
f 103/103/103 102/102/102 100/100/100
f 103/103/103 104/104/104 102/102/102
f 104/104/104 105/105/105 102/102/102
f 108/108/108 107/107/107 106/106/106
f 109/109/109 108/108/108 106/106/106
f 112/112/112 111/111/111 110/110/110
f 113/113/113 112/112/112 110/110/110
f 116/116/116 115/115/115 114/114/114
f 117/117/117 116/116/116 114/114/114
f 120/120/120 119/119/119 118/118/118
f 119/119/119 121/121/121 118/118/118
f 119/119/119 122/122/122 121/121/121
f 123/123/123 122/122/122 119/119/119
f 124/124/124 123/123/123 119/119/119
f 124/124/124 125/125/125 123/123/123
f 125/125/125 126/126/126 123/123/123
f 126/126/126 127/127/127 123/123/123
f 130/130/130 129/129/129 128/128/128
f 129/129/129 131/131/131 128/128/128
f 128/128/128 131/131/131 132/132/132
f 131/131/131 133/133/133 132/132/132
f 132/132/132 133/133/133 134/134/134
f 133/133/133 135/135/135 134/134/134
f 134/134/134 135/135/135 136/136/136
f 135/135/135 137/137/137 136/136/136
f 136/136/136 137/137/137 138/138/138
f 137/137/137 139/139/139 138/138/138
f 142/142/142 141/141/141 140/140/140
f 141/141/141 143/143/143 140/140/140
f 140/140/140 143/143/143 144/144/144
f 143/143/143 145/145/145 144/144/144
f 144/144/144 145/145/145 146/146/146
f 145/145/145 147/147/147 146/146/146
f 146/146/146 147/147/147 148/148/148
f 147/147/147 149/149/149 148/148/148
f 148/148/148 149/149/149 150/150/150
f 149/149/149 151/151/151 150/150/150
f 154/154/154 153/153/153 152/152/152
f 153/153/153 155/155/155 152/152/152
f 153/153/153 156/156/156 155/155/155
f 157/157/157 156/156/156 153/153/153
f 158/158/158 157/157/157 153/153/153
f 158/158/158 159/159/159 157/157/157
f 159/159/159 160/160/160 157/157/157
f 160/160/160 161/161/161 157/157/157
f 161/161/161 162/162/162 157/157/157
f 165/165/165 164/164/164 163/163/163
f 166/166/166 165/165/165 163/163/163
f 167/167/167 165/165/165 166/166/166
f 168/168/168 167/167/167 166/166/166
f 169/169/169 167/167/167 168/168/168
f 170/170/170 169/169/169 168/168/168
f 171/171/171 169/169/169 170/170/170
f 172/172/172 171/171/171 170/170/170
f 173/173/173 171/171/171 172/172/172
f 174/174/174 173/173/173 172/172/172
f 175/175/175 173/173/173 174/174/174
f 176/176/176 175/175/175 174/174/174
f 177/177/177 175/175/175 176/176/176
f 178/178/178 177/177/177 176/176/176
f 179/179/179 177/177/177 178/178/178
f 180/180/180 179/179/179 178/178/178
f 183/183/183 182/182/182 181/181/181
f 184/184/184 183/183/183 181/181/181
f 185/185/185 183/183/183 184/184/184
f 186/186/186 185/185/185 184/184/184
f 187/187/187 185/185/185 186/186/186
f 188/188/188 187/187/187 186/186/186
