g Mushroom1
v -2.775189 -188.4237 26.41113
v -2.775189 -189.7449 47.23826
v 15.20567 -188.4237 33.22786
v 35.41544 -179.5338 17.9715
v -2.775189 -179.3331 3.578552
v 44.47364 -159.6276 12.72097
v -2.775189 -159.4888 -4.958527
v -2.775189 -123.6393 1.659401
v 40.12811 -122.7634 17.80486
v -2.775189 -71.18772 8.483219
v 64.12426 -159.5755 55.74298
v 51.26054 -179.5764 52.88312
v 33.50389 -69.73659 22.15608
v -2.775189 9.153761 7.56601
v 29.67011 10.74412 19.78399
v 58.06834 -121.0373 56.91886
v 48.70621 -66.15176 55.15298
v 43.20207 14.9303 49.17767
v 44.56422 -159.5598 98.89813
v 22.65412 -188.4224 49.68731
v -2.775189 -189.7449 47.23826
v 33.72572 -62.70457 88.36447
v 29.80613 19.15053 78.69183
v 40.31418 -119.5492 96.23459
v 35.44543 -179.5083 87.87994
v -2.775189 -61.39979 102.1489
v -2.775189 20.84251 90.94253
v -2.775189 -159.55 116.8698
v -2.775189 -119.1424 112.6064
v 15.20605 -188.4224 66.14471
v -2.775189 -189.7449 47.23826
v -39.2761 -62.70457 88.36447
v -35.35651 19.15053 78.69183
v -2.775189 -179.4201 102.4058
v -50.11459 -159.5598 98.89809
v -45.86456 -119.5492 96.23459
v -54.25657 -66.15176 55.15298
v -48.75243 14.9303 49.17767
v -2.775189 -188.4224 72.96161
v -2.775189 -189.7449 47.23826
v -40.9958 -179.5083 87.87994
v -69.67464 -159.5755 55.74298
v -63.61872 -121.0373 56.91886
v -39.05427 -69.73659 22.15608
v -35.22049 10.74412 19.78399
v -20.75643 -188.4224 66.14471
v -2.775189 -189.7449 47.23826
v -56.81092 -179.5764 52.88312
v -50.02402 -159.6276 12.72097
v -45.67849 -122.7634 17.80486
v -2.775189 -71.18772 8.483219
v -2.775189 9.153761 7.56601
v -2.775189 -123.6393 1.659401
v -2.775189 -159.4888 -4.958527
v -40.96581 -179.5338 17.9715
v -2.775189 -179.3331 3.578552
v -28.2045 -188.4224 49.68731
v -2.775189 -189.7449 47.23826
v -20.75605 -188.4237 33.22786
v -2.775189 -189.7449 47.23826
v -2.775189 -188.4237 26.41113
v -2.775189 -189.7449 47.23826
v 126.7068 -61.11377 -100.4627
v 142.2597 -22.4377 -134.4141
v 50.68618 -50.29489 -187.1926
v 49.36838 -83.65863 -145.5243
v 171.2381 -28.60268 -23.30445
v -54.66144 -64.92313 -185.3276
v -40.9309 -95.83559 -143.878
v 194.2627 13.291 -45.42651
v 171.7576 10.01015 63.14983
v -144.0248 -60.3064 -127.8083
v -118.1652 -92.40552 -94.31028
v 193.2927 55.98938 51.63136
v 126.5333 40.11003 131.5309
v -194.2627 -38.22179 -30.24355
v -162.5646 -73.51782 -9.713242
v 140.9733 91.19398 131.4073
v 49.40205 49.3037 176.1607
v -193.6527 -0.6905077 78.84515
v -161.94 -38.63817 84.59307
v 51.01429 101.6224 182.5564
v -40.76059 37.31166 182.7978
v -143.4691 48.04112 156.4958
v -118.1708 2.858961 151.6179
v -53.88354 87.67055 190.2785
v -190.6367 19.12962 -45.3035
v -191.2294 54.55266 52.1354
v -144.1087 98.71016 121.498
v -60.17668 134.3543 152.5681
v 37.98639 147.4152 145.3581
v 121.9606 137.4096 96.77995
v -142.2539 -0.3938005 -134.7039
v 170.6971 105.2985 22.2971
v -58.59642 -4.66408 -188.4991
v 171.314 65.51685 -65.96118
v 39.95205 8.972898 -190.2785
v 124.4882 33.46559 -143.3387
v 88.88954 168.2812 54.25832
v 127.6458 141.7485 -9.622185
v 128.4963 109.4487 -78.77204
v 91.09132 83.19667 -137.3728
v 23.85741 65.11075 -171.0388
v -55.39695 55.84271 -167.642
v 20.24383 176.353 93.63955
v -124.8078 57.88058 -125.2662
v -59.84731 165.7596 99.73058
v -165.8459 72.99706 -55.96386
v -128.4157 138.0858 74.71759
v -167.145 102.0903 18.94954
v -49.28584 106.4139 -136.0694
v -99.28761 107.1875 -108.2746
v -129.0784 118.0106 -62.44576
v -130.5366 138.3588 -12.67417
v -29.31313 171.8979 -56.16854
v 5.687193 111.6881 -141.2076
v -103.0543 163.013 26.72685
v -54.19899 182.2121 46.18054
v 52.36517 124.2203 -120.8825
v 2.453686 189.7449 42.10348
v 78.39397 143.0506 -82.17779
v 50.51659 183.7302 12.39496
v 77.5914 165.3324 -34.38789
v 126.7068 -61.11377 -100.4627
v 49.36838 -83.65863 -145.5243
v 44.12101 -94.83505 -102.6714
v 104.1838 -77.11668 -67.11263
v 171.2381 -28.60268 -23.30445
v -27.91789 -104.5332 -101.1312
v -40.9309 -95.83559 -143.878
v -5.059952 19.11003 6.924515
v 138.5862 -49.1945 -5.925789
v -90.85243 -102.4073 -60.98264
v 138.7016 -16.68961 62.55531
v 171.7576 10.01015 63.14983
v -118.1652 -92.40552 -94.31028
v 126.5333 40.11003 131.5309
v -127.1751 -85.63365 6.929001
v -162.5646 -73.51782 -9.713242
v 102.8891 6.746321 118.0929
v 49.40205 49.3037 176.1607
v -127.3606 -55.37703 81.13335
v -161.94 -38.63817 84.59307
v 41.2791 14.11079 153.806
v -40.76059 37.31166 182.7978
v -92.80292 -21.41213 133.6426
v -118.1708 2.858961 151.6179
v -30.77804 4.506056 159.0408
vt 0.1886891 0.0211845
vt 0.1759937 0.01596919
vt 0.1807311 0.03201184
vt 0.191855 0.03758409
vt 0.2066199 0.01913577
vt 0.201649 0.05709366
vt 0.2232913 0.03870123
vt 0.2360637 0.09020517
vt 0.2104554 0.09776393
vt 0.2324687 0.1766342
vt 0.1805539 0.06919513
vt 0.1746442 0.04821187
vt 0.2083529 0.174868
vt 0.2236287 0.2096148
vt 0.2028967 0.2034885
vt 0.1859728 0.104508
vt 0.1847192 0.1746884
vt 0.1817915 0.1995144
vt 0.1593632 0.07610453
vt 0.1679609 0.03831663
vt 0.1703824 0.01897664
vt 0.1614241 0.1747338
vt 0.1603654 0.19714
vt 0.1619774 0.1086928
vt 0.156458 0.05395367
vt 0.1384308 0.1744963
vt 0.1386353 0.1964369
vt 0.1378642 0.07899871
vt 0.1381566 0.1101032
vt 0.1530843 0.04106816
vt 0.1598849 0.02091029
vt 0.115445 0.1753377
vt 0.1169188 0.1977107
vt 0.1376845 0.05588373
vt 0.116329 0.07666997
vt 0.1143207 0.1093189
vt 0.09215349 0.1759043
vt 0.0955295 0.2006474
vt 0.1375012 0.04052276
vt 0.1467654 0.02098415
vt 0.1188877 0.05444738
vt 0.0950461 0.07031862
vt 0.09027159 0.1057652
vt 0.06852657 0.1767045
vt 0.07448334 0.205175
vt 0.1219285 0.04147757
vt 0.1279672 0.0212312
vt 0.1006252 0.04918449
vt 0.07378685 0.05877353
vt 0.06569982 0.09966543
vt 0.04443961 0.1791035
vt 0.05383998 0.2118444
vt 0.03999132 0.09278045
vt 0.05189347 0.04095285
vt 0.08327001 0.03901079
vt 0.06825179 0.02095369
vt 0.1070163 0.03911748
vt 0.114849 0.02150204
vt 0.09416097 0.03314937
vt 0.1043268 0.01984452
vt 0.08605433 0.02253304
vt 0.09867489 0.01698511
vt 0.4963526 0.1628241
vt 0.4860835 0.1549077
vt 0.4565677 0.1823744
vt 0.4623026 0.1935106
vt 0.5102957 0.1198425
vt 0.4166549 0.1925765
vt 0.4164318 0.2050251
vt 0.4977226 0.1182445
vt 0.498995 0.07548775
vt 0.3768755 0.1820184
vt 0.3705837 0.1928743
vt 0.4881334 0.0817159
vt 0.4663613 0.04120186
vt 0.3471876 0.1533963
vt 0.3370066 0.1596843
vt 0.459954 0.05260287
vt 0.4201091 0.02844199
vt 0.3362056 0.1142128
vt 0.3241511 0.114919
vt 0.4199962 0.04015725
vt 0.3730717 0.03762726
vt 0.3482729 0.07604624
vt 0.3376659 0.06992108
vt 0.3791955 0.0490799
vt 0.3616685 0.1447112
vt 0.3529891 0.1145656
vt 0.363135 0.08536196
vt 0.3875223 0.0648445
vt 0.41962 0.05721686
vt 0.4509532 0.06787406
vt 0.3854784 0.1665885
vt 0.4734703 0.09025864
vt 0.41672 0.175521
vt 0.480686 0.1189065
vt 0.4484031 0.1674534
vt 0.4716683 0.1464547
vt 0.4422393 0.08243228
vt 0.4590846 0.098993
vt 0.4642138 0.1197208
vt 0.4575401 0.1392347
vt 0.4404088 0.153578
vt 0.4170475 0.1585965
vt 0.4190932 0.07405151
vt 0.3934871 0.1528252
vt 0.395237 0.08002678
vt 0.3758053 0.1371916
vt 0.3768458 0.0949596
vt 0.3696821 0.1159363
vt 0.4170736 0.1433428
vt 0.4012834 0.1401028
vt 0.3896687 0.1303535
vt 0.3855893 0.116948
vt 0.4172326 0.1170828
vt 0.4325174 0.1408069
vt 0.3904581 0.1035922
vt 0.4025763 0.09361705
vt 0.4438924 0.1320902
vt 0.4183637 0.09015638
vt 0.4484485 0.1196501
vt 0.4337358 0.09523955
vt 0.4447808 0.1063238
vt 0.5664052 0.4400251
vt 0.5131487 0.4910715
vt 0.4946153 0.4573384
vt 0.5334883 0.4200785
vt 0.5870024 0.3691907
vt 0.4423198 0.4701681
vt 0.4415033 0.5086483
vt 0.4445267 0.3661708
vt 0.5485225 0.3683752
vt 0.390617 0.4551307
vt 0.5356914 0.3160824
vt 0.5694234 0.2975491
vt 0.3706697 0.488047
vt 0.5183797 0.2442954
vt 0.3533602 0.416257
vt 0.3196274 0.4347894
vt 0.4984334 0.2772115
vt 0.4475483 0.2236976
vt 0.3405318 0.3639637
vt 0.3020523 0.3631471
vt 0.4467322 0.2621767
vt 0.3759075 0.2412741
vt 0.3555681 0.3122626
vt 0.3226525 0.2923159
vt 0.3944402 0.2750063
vn 0 -0.9458701 -0.3245454
vn 0 -0.9999956 -0.002983885
vn 0.1941533 -0.9535977 -0.2301216
vn 0.4944263 -0.6635622 -0.5614513
vn 0 -0.6263264 -0.7795609
vn 0.6824082 -0.04131758 -0.7298027
vn 0 -0.01925277 -0.9998147
vn 0 0.1524837 -0.988306
vn 0.6682787 0.1578437 -0.7269725
vn 0 0.05163238 -0.9986662
vn 0.996103 -0.0877247 0.009120091
vn 0.6881633 -0.7254575 -0.01193787
vn 0.6709338 0.06982704 -0.7382221
vn 0 -0.01145934 -0.9999343
vn 0.6787536 0.01063838 -0.734289
vn 0.9867924 0.1618603 0.006471816
vn 0.9935952 0.1129553 -0.003135603
vn 0.9976143 0.06838056 0.009476509
vn 0.6694676 -0.1252504 0.7322059
vn 0.2641003 -0.9644779 -0.005792333
vn 0 -0.9999956 -0.002983885
vn 0.6679843 0.14586 0.729741
vn 0.6649573 0.1190046 0.7373397
vn 0.6632451 0.1523146 0.7327388
vn 0.4468095 -0.753266 0.4826506
vn 0 0.1551137 0.9878967
vn 0 0.1351279 0.9908282
vn 0 -0.1370495 0.9905642
vn 0 0.1457694 0.9893185
vn 0.1714617 -0.9668863 0.1890286
vn 0 -0.9999956 -0.002983885
vn -0.6679845 0.14586 0.7297409
vn -0.6649574 0.1190046 0.7373395
vn 0 -0.7567739 0.6536766
vn -0.6694678 -0.1252504 0.7322057
vn -0.6632452 0.1523144 0.7327389
vn -0.9935952 0.1129553 -0.003135561
vn -0.9976143 0.06838051 0.009476493
vn 0 -0.9661796 0.25787
vn 0 -0.9999956 -0.002983885
vn -0.4468096 -0.7532659 0.4826508
vn -0.996103 -0.0877248 0.009120136
vn -0.9867924 0.1618603 0.00647186
vn -0.670934 0.06982709 -0.738222
vn -0.6787539 0.01063839 -0.7342888
vn -0.1714617 -0.9668863 0.1890286
vn 0 -0.9999956 -0.002983885
vn -0.6881633 -0.7254576 -0.01193788
vn -0.6824082 -0.04131768 -0.7298027
vn -0.6682788 0.1578437 -0.7269723
vn 0 0.05163238 -0.9986662
vn 0 -0.01145934 -0.9999343
vn 0 0.1524837 -0.988306
vn 0 -0.01925277 -0.9998147
vn -0.4944263 -0.6635624 -0.5614513
vn 0 -0.6263264 -0.7795609
vn -0.2641003 -0.9644779 -0.005792338
vn 0 -0.9999956 -0.002983885
vn -0.1941533 -0.9535977 -0.2301216
vn 0 -0.9999956 -0.002983885
vn 0 -0.9458701 -0.3245454
vn 0 -0.9999956 -0.002983885
vn 0.6177943 -0.7306253 -0.2907183
vn 0.7323313 -0.2539174 -0.631836
vn 0.2981311 -0.3722394 -0.8789514
vn 0.2984307 -0.8313909 -0.4687517
vn 0.7931862 -0.6076105 0.04080461
vn -0.2407482 -0.4401871 -0.8650292
vn -0.09150034 -0.8888181 -0.4490322
vn 0.97145 -0.0912245 -0.2190044
vn 0.779891 -0.4560026 0.4287559
vn -0.7024768 -0.4179834 -0.5760348
vn -0.4396458 -0.8626159 -0.2502106
vn 0.9634349 0.118398 0.2403642
vn 0.5848354 -0.3253493 0.7430447
vn -0.9351229 -0.3253414 -0.1403503
vn -0.6300637 -0.7729773 0.07433648
vn 0.6976635 0.295761 0.6525267
vn 0.2844569 -0.2838991 0.9156885
vn -0.9266444 -0.1661291 0.3372407
vn -0.6125638 -0.6404845 0.4631905
vn 0.2704917 0.3379827 0.9014443
vn -0.04564879 -0.3220974 0.9456053
vn -0.6468047 0.0831611 0.7581082
vn -0.3691066 -0.4594498 0.8078775
vn -0.2026641 0.2760408 0.9395365
vn -0.946462 0.1494859 -0.2861183
vn -0.9475438 0.2920485 0.129879
vn -0.6986895 0.5222901 0.4889233
vn -0.2748944 0.7017047 0.6573002
vn 0.1750604 0.7675919 0.6165684
vn 0.5784967 0.7273165 0.3692593
vn -0.7210764 0.09837729 -0.6858359
vn 0.8169807 0.5766299 -0.006365315
vn -0.2951959 0.1001117 -0.9501773
vn 0.8284069 0.392208 -0.3998936
vn 0.2047737 0.148999 -0.9674022
vn 0.612407 0.2427917 -0.7523363
vn 0.4369275 0.8853556 0.1588702
vn 0.6270449 0.7638791 -0.1526541
vn 0.6339399 0.6205418 -0.4615714
vn 0.4492959 0.4999118 -0.7404197
vn 0.109795 0.4263081 -0.8978901
vn -0.2877697 0.3908532 -0.8743125
vn 0.09986648 0.9218523 0.3744529
vn -0.632346 0.3808629 -0.6745976
vn -0.2809085 0.8684286 0.4085611
vn -0.8322446 0.4199885 -0.3619095
vn -0.6334413 0.7278162 0.2627468
vn -0.839355 0.5428917 -0.02741663
vn -0.2586639 0.624913 -0.7365981
vn -0.4927418 0.6216596 -0.6088882
vn -0.6321632 0.6590429 -0.4074704
vn -0.6399372 0.7442704 -0.1911596
vn -0.15148 0.9105148 -0.384729
vn 0.01177222 0.6529128 -0.7573416
vn -0.5029083 0.8643383 -0.001535269
vn -0.2590562 0.9599249 0.1069304
vn 0.2470662 0.7100087 -0.6594284
vn 0.01191361 0.9958221 0.09053384
vn 0.3768419 0.7912088 -0.4816418
vn 0.2488095 0.9663742 -0.06492212
vn 0.3744518 0.8850023 -0.2766886
vn 0.6177943 -0.7306253 -0.2907183
vn 0.2984307 -0.8313909 -0.4687517
vn 0.1112181 -0.9347813 0.3373644
vn 0.08500506 -0.9318284 0.3528029
vn 0.7931862 -0.6076105 0.04080461
vn 0.1523743 -0.929795 0.3350572
vn -0.09150034 -0.8888181 -0.4490322
vn 0.1545429 -0.9091775 0.3866687
vn 0.07557219 -0.9154161 0.3953505
vn 0.1806701 -0.9250792 0.3340462
vn 0.07829571 -0.9015232 0.4255884
vn 0.779891 -0.4560026 0.4287559
vn -0.4396458 -0.8626159 -0.2502106
vn 0.5848354 -0.3253493 0.7430447
vn 0.2079513 -0.913376 0.3500006
vn -0.6300637 -0.7729773 0.07433648
vn 0.09149078 -0.9065544 0.4120541
vn 0.2844569 -0.2838991 0.9156885
vn 0.226502 -0.8970969 0.37936
vn -0.6125638 -0.6404845 0.4631905
vn 0.1315131 -0.9134169 0.3851933
vn -0.04564879 -0.3220974 0.9456053
vn 0.2334139 -0.8885025 0.3950713
vn -0.3691066 -0.4594498 0.8078775
vn 0.1887332 -0.9062032 0.3783854
g Mushroom1_0
f 3/3/3 2/2/2 1/1/1
f 3/3/3 1/1/1 4/4/4
f 1/1/1 5/5/5 4/4/4
f 4/4/4 5/5/5 6/6/6
f 5/5/5 7/7/7 6/6/6
f 7/7/7 8/8/8 6/6/6
f 8/8/8 9/9/9 6/6/6
f 8/8/8 10/10/10 9/9/9
f 6/6/6 11/11/11 4/4/4
f 6/6/6 9/9/9 11/11/11
f 4/4/4 12/12/12 3/3/3
f 11/11/11 12/12/12 4/4/4
f 10/10/10 13/13/13 9/9/9
f 10/10/10 14/14/14 13/13/13
f 14/14/14 15/15/15 13/13/13
f 9/9/9 16/16/16 11/11/11
f 9/9/9 13/13/13 16/16/16
f 13/13/13 15/15/15 17/17/17
f 13/13/13 17/17/17 16/16/16
f 15/15/15 18/18/18 17/17/17
f 11/11/11 16/16/16 19/19/19
f 12/12/12 11/11/11 19/19/19
f 12/12/12 20/20/20 3/3/3
f 20/20/20 21/21/21 3/3/3
f 17/17/17 18/18/18 22/22/22
f 18/18/18 23/23/23 22/22/22
f 16/16/16 17/17/17 24/24/24
f 16/16/16 24/24/24 19/19/19
f 17/17/17 22/22/22 24/24/24
f 25/25/25 12/12/12 19/19/19
f 20/20/20 12/12/12 25/25/25
f 22/22/22 23/23/23 26/26/26
f 23/23/23 27/27/27 26/26/26
f 19/19/19 24/24/24 28/28/28
f 25/25/25 19/19/19 28/28/28
f 24/24/24 22/22/22 29/29/29
f 22/22/22 26/26/26 29/29/29
f 24/24/24 29/29/29 28/28/28
f 30/30/30 20/20/20 25/25/25
f 30/30/30 31/31/31 20/20/20
f 26/26/26 27/27/27 32/32/32
f 27/27/27 33/33/33 32/32/32
f 34/34/34 25/25/25 28/28/28
f 30/30/30 25/25/25 34/34/34
f 28/28/28 29/29/29 35/35/35
f 34/34/34 28/28/28 35/35/35
f 29/29/29 26/26/26 36/36/36
f 26/26/26 32/32/32 36/36/36
f 29/29/29 36/36/36 35/35/35
f 32/32/32 33/33/33 37/37/37
f 33/33/33 38/38/38 37/37/37
f 39/39/39 30/30/30 34/34/34
f 39/39/39 40/40/40 30/30/30
f 41/41/41 34/34/34 35/35/35
f 39/39/39 34/34/34 41/41/41
f 35/35/35 36/36/36 42/42/42
f 41/41/41 35/35/35 42/42/42
f 36/36/36 32/32/32 43/43/43
f 32/32/32 37/37/37 43/43/43
f 36/36/36 43/43/43 42/42/42
f 37/37/37 38/38/38 44/44/44
f 38/38/38 45/45/45 44/44/44
f 46/46/46 39/39/39 41/41/41
f 46/46/46 47/47/47 39/39/39
f 48/48/48 41/41/41 42/42/42
f 46/46/46 41/41/41 48/48/48
f 42/42/42 43/43/43 49/49/49
f 48/48/48 42/42/42 49/49/49
f 43/43/43 37/37/37 50/50/50
f 37/37/37 44/44/44 50/50/50
f 43/43/43 50/50/50 49/49/49
f 44/44/44 45/45/45 51/51/51
f 45/45/45 52/52/52 51/51/51
f 44/44/44 51/51/51 53/53/53
f 50/50/50 44/44/44 53/53/53
f 50/50/50 53/53/53 54/54/54
f 49/49/49 50/50/50 54/54/54
f 55/55/55 49/49/49 54/54/54
f 55/55/55 48/48/48 49/49/49
f 56/56/56 55/55/55 54/54/54
f 57/57/57 46/46/46 48/48/48
f 57/57/57 48/48/48 55/55/55
f 57/57/57 58/58/58 46/46/46
f 59/59/59 55/55/55 56/56/56
f 59/59/59 57/57/57 55/55/55
f 59/59/59 60/60/60 57/57/57
f 61/61/61 59/59/59 56/56/56
f 61/61/61 62/62/62 59/59/59
f 65/65/65 64/64/64 63/63/63
f 66/66/66 65/65/65 63/63/63
f 63/63/63 64/64/64 67/67/67
f 68/68/68 65/65/65 66/66/66
f 69/69/69 68/68/68 66/66/66
f 64/64/64 70/70/70 67/67/67
f 67/67/67 70/70/70 71/71/71
f 72/72/72 68/68/68 69/69/69
f 73/73/73 72/72/72 69/69/69
f 70/70/70 74/74/74 71/71/71
f 71/71/71 74/74/74 75/75/75
f 76/76/76 72/72/72 73/73/73
f 77/77/77 76/76/76 73/73/73
f 74/74/74 78/78/78 75/75/75
f 75/75/75 78/78/78 79/79/79
f 80/80/80 76/76/76 77/77/77
f 81/81/81 80/80/80 77/77/77
f 78/78/78 82/82/82 79/79/79
f 79/79/79 82/82/82 83/83/83
f 84/84/84 80/80/80 81/81/81
f 85/85/85 84/84/84 81/81/81
f 83/83/83 86/86/86 85/85/85
f 82/82/82 86/86/86 83/83/83
f 86/86/86 84/84/84 85/85/85
f 76/76/76 87/87/87 72/72/72
f 80/80/80 88/88/88 76/76/76
f 88/88/88 87/87/87 76/76/76
f 84/84/84 89/89/89 80/80/80
f 89/89/89 88/88/88 80/80/80
f 86/86/86 90/90/90 84/84/84
f 90/90/90 89/89/89 84/84/84
f 82/82/82 91/91/91 86/86/86
f 91/91/91 90/90/90 86/86/86
f 78/78/78 92/92/92 82/82/82
f 92/92/92 91/91/91 82/82/82
f 87/87/87 93/93/93 72/72/72
f 72/72/72 93/93/93 68/68/68
f 94/94/94 92/92/92 78/78/78
f 74/74/74 94/94/94 78/78/78
f 93/93/93 95/95/95 68/68/68
f 68/68/68 95/95/95 65/65/65
f 96/96/96 94/94/94 74/74/74
f 70/70/70 96/96/96 74/74/74
f 95/95/95 97/97/97 65/65/65
f 65/65/65 97/97/97 64/64/64
f 64/64/64 98/98/98 70/70/70
f 98/98/98 96/96/96 70/70/70
f 97/97/97 98/98/98 64/64/64
f 92/92/92 99/99/99 91/91/91
f 94/94/94 100/100/100 92/92/92
f 100/100/100 99/99/99 92/92/92
f 96/96/96 101/101/101 94/94/94
f 101/101/101 100/100/100 94/94/94
f 98/98/98 102/102/102 96/96/96
f 102/102/102 101/101/101 96/96/96
f 97/97/97 103/103/103 98/98/98
f 103/103/103 102/102/102 98/98/98
f 95/95/95 104/104/104 97/97/97
f 104/104/104 103/103/103 97/97/97
f 99/99/99 105/105/105 91/91/91
f 91/91/91 105/105/105 90/90/90
f 106/106/106 104/104/104 95/95/95
f 93/93/93 106/106/106 95/95/95
f 105/105/105 107/107/107 90/90/90
f 90/90/90 107/107/107 89/89/89
f 108/108/108 106/106/106 93/93/93
f 87/87/87 108/108/108 93/93/93
f 107/107/107 109/109/109 89/89/89
f 89/89/89 109/109/109 88/88/88
f 88/88/88 110/110/110 87/87/87
f 110/110/110 108/108/108 87/87/87
f 109/109/109 110/110/110 88/88/88
f 104/104/104 111/111/111 103/103/103
f 106/106/106 112/112/112 104/104/104
f 112/112/112 111/111/111 104/104/104
f 108/108/108 113/113/113 106/106/106
f 113/113/113 112/112/112 106/106/106
f 110/110/110 114/114/114 108/108/108
f 114/114/114 113/113/113 108/108/108
f 115/115/115 112/112/112 113/113/113
f 115/115/115 111/111/111 112/112/112
f 115/115/115 113/113/113 114/114/114
f 115/115/115 116/116/116 111/111/111
f 111/111/111 116/116/116 103/103/103
f 115/115/115 114/114/114 117/117/117
f 117/117/117 114/114/114 110/110/110
f 109/109/109 117/117/117 110/110/110
f 103/103/103 116/116/116 102/102/102
f 118/118/118 117/117/117 109/109/109
f 115/115/115 117/117/117 118/118/118
f 107/107/107 118/118/118 109/109/109
f 116/116/116 119/119/119 102/102/102
f 115/115/115 119/119/119 116/116/116
f 102/102/102 119/119/119 101/101/101
f 120/120/120 118/118/118 107/107/107
f 115/115/115 118/118/118 120/120/120
f 105/105/105 120/120/120 107/107/107
f 119/119/119 121/121/121 101/101/101
f 115/115/115 121/121/121 119/119/119
f 101/101/101 121/121/121 100/100/100
f 122/122/122 120/120/120 105/105/105
f 115/115/115 120/120/120 122/122/122
f 99/99/99 122/122/122 105/105/105
f 100/100/100 123/123/123 99/99/99
f 121/121/121 123/123/123 100/100/100
f 115/115/115 123/123/123 121/121/121
f 123/123/123 122/122/122 99/99/99
f 115/115/115 122/122/122 123/123/123
f 126/126/126 125/125/125 124/124/124
f 127/127/127 126/126/126 124/124/124
f 124/124/124 128/128/128 127/127/127
f 126/126/126 129/129/129 125/125/125
f 129/129/129 130/130/130 125/125/125
f 127/127/127 131/131/131 126/126/126
f 126/126/126 131/131/131 129/129/129
f 128/128/128 132/132/132 127/127/127
f 132/132/132 131/131/131 127/127/127
f 129/129/129 131/131/131 133/133/133
f 129/129/129 133/133/133 130/130/130
f 134/134/134 131/131/131 132/132/132
f 132/132/132 128/128/128 135/135/135
f 134/134/134 132/132/132 135/135/135
f 133/133/133 136/136/136 130/130/130
f 134/134/134 135/135/135 137/137/137
f 133/133/133 138/138/138 136/136/136
f 133/133/133 131/131/131 138/138/138
f 138/138/138 139/139/139 136/136/136
f 140/140/140 134/134/134 137/137/137
f 140/140/140 131/131/131 134/134/134
f 140/140/140 137/137/137 141/141/141
f 138/138/138 142/142/142 139/139/139
f 138/138/138 131/131/131 142/142/142
f 142/142/142 143/143/143 139/139/139
f 144/144/144 140/140/140 141/141/141
f 144/144/144 131/131/131 140/140/140
f 144/144/144 141/141/141 145/145/145
f 142/142/142 146/146/146 143/143/143
f 142/142/142 131/131/131 146/146/146
f 146/146/146 147/147/147 143/143/143
f 148/148/148 145/145/145 147/147/147
f 148/148/148 144/144/144 145/145/145
f 148/148/148 131/131/131 144/144/144
f 146/146/146 131/131/131 148/148/148
f 146/146/146 148/148/148 147/147/147
