g Nose
v 1.067641 14.07144 4.966297
v 1.122583 14.11135 5.395085
v 0.4287886 14.61542 5.395085
v 0.4078022 14.55084 4.966297
v -0.428789 14.61542 5.395085
v 1.319676 13.29575 4.966297
v 1.387589 13.29575 5.395085
v -0.4078025 14.55084 4.966297
v -1.122584 14.11135 5.395085
v 1.067641 12.52006 4.966297
v 1.122583 12.48015 5.395085
v -1.067641 14.07144 4.966297
v -1.38759 13.29575 5.395085
v 0.4078024 12.04066 4.966297
v 0.4287887 11.97607 5.395085
v -1.319676 13.29575 4.966297
v -1.122583 12.48014 5.395085
v -0.4078023 12.04066 4.966297
v -0.4287886 11.97607 5.395085
v -1.067641 12.52006 4.966297
v 0.9081892 12.63591 4.579481
v 0.3468974 12.22811 4.579481
v -1.704974E-16 13.29575 4.007496
v -0.3468973 12.22811 4.579481
v 1.122583 13.29575 4.579481
v -0.9081892 12.63591 4.579481
v 0.9081892 13.95559 4.579481
v -1.122583 13.29575 4.579481
v 0.3468973 14.36339 4.579481
v -0.9081894 13.95559 4.579481
v -0.3468975 14.36339 4.579481
v 1.122583 14.11135 5.395085
v 1.067641 14.07143 5.823874
v 0.4078022 14.55083 5.823874
v 0.4287886 14.61542 5.395085
v 1.387589 13.29575 5.395085
v -0.4078025 14.55083 5.823874
v -0.428789 14.61542 5.395085
v 1.319676 13.29575 5.823874
v 1.122583 12.48015 5.395085
v -1.067641 14.07143 5.823874
v -1.122584 14.11135 5.395085
v 1.067641 12.52006 5.823874
v 0.4287887 11.97607 5.395085
v -1.319676 13.29575 5.823874
v -1.38759 13.29575 5.395085
v 0.4078024 12.04066 5.823873
v -0.4287886 11.97607 5.395085
v -1.067641 12.52006 5.823874
v -1.122583 12.48014 5.395085
v -0.4078023 12.04066 5.823873
v -0.9081894 13.95559 6.21069
v -1.122583 13.29575 6.21069
v -0.9081892 12.63591 6.21069
v -0.3468973 12.22811 6.21069
v 0.3468974 12.22811 6.21069
v 0.9081892 12.63591 6.21069
v -0.3468975 14.36339 6.21069
v 1.122583 13.29575 6.21069
v 0.3468973 14.36339 6.21069
v 0.9081892 13.95559 6.21069
v -0.2520357 12.52006 6.51767
v 0.2520357 12.52006 6.51767
v 0.659838 12.81635 6.517671
v 0.8156047 13.29575 6.51767
v 0.659838 13.77515 6.51767
v 0.2520357 14.07143 6.51767
v -0.659838 12.81635 6.517671
v -0.2520358 14.07143 6.51767
v -0.8156047 13.29575 6.51767
v -0.6598381 13.77515 6.51767
v 0.4287886 13.29575 6.714763
v 0.3468974 13.54779 6.714763
v -6.341265E-17 13.29575 6.782675
v 0.3468973 13.04371 6.714763
v 0.132503 13.70355 6.714763
v 0.132503 12.88795 6.714763
v -0.1325031 13.70355 6.714763
v -0.132503 12.88795 6.714763
v -0.3468975 13.54779 6.714763
v -0.3468974 13.04371 6.714763
v -0.4287887 13.29575 6.714763
vt 0.3379839 0.1017732
vt 0.3715357 0.07758087
vt 0.271219 0.01607366
vt 0.2599045 0.05336274
vt 0.1498221 0.01928277
vt 0.3694761 0.1821695
vt 0.4124498 0.18032
vt 0.1650652 0.05542543
vt 0.05371028 0.08597732
vt 0.3423435 0.2638387
vt 0.3783171 0.285038
vt 0.08968908 0.1071702
vt 0.01958948 0.1906827
vt 0.2669582 0.3155811
vt 0.2821903 0.3517274
vt 0.0625636 0.1888326
vt 0.06049043 0.2934093
vt 0.1721188 0.3176363
vt 0.1607929 0.3549229
vt 0.0940482 0.2692226
vt 0.3077411 0.2434264
vt 0.2523212 0.2807957
vt 0.2160202 0.1855014
vt 0.1830365 0.2817651
vt 0.3281258 0.1839299
vt 0.1263503 0.2459658
vt 0.3056854 0.1250339
vt 0.1039135 0.1870722
vt 0.2489951 0.08923592
vt 0.1242948 0.1275786
vt 0.1797104 0.09020847
vt 0.8985832 0.1945868
vt 0.8538086 0.1954829
vt 0.8222248 0.2821768
vt 0.859032 0.3050978
vt 0.8582765 0.08430511
vt 0.7399433 0.3356327
vt 0.7547178 0.3736137
vt 0.8226382 0.1086721
vt 0.7535177 0.01636923
vt 0.6384013 0.3354282
vt 0.6254998 0.373956
vt 0.7406257 0.05490027
vt 0.6243184 0.01671984
vt 0.556389 0.2816455
vt 0.5207421 0.3060021
vt 0.6390955 0.05470073
vt 0.5200202 0.08522131
vt 0.5252317 0.1948317
vt 0.4804559 0.1957144
vt 0.5568238 0.1081484
vt 0.6507245 0.2987456
vt 0.5903602 0.2584764
vt 0.5678753 0.194026
vt 0.5918519 0.1300125
vt 0.6531312 0.09088437
vt 0.7283091 0.09158535
vt 0.7259092 0.2994495
vt 0.7886725 0.1318486
vt 0.7871938 0.2603171
vt 0.8111658 0.196298
vt 0.6254641 0.1515543
vt 0.6662317 0.1260601
vt 0.7158943 0.126961
vt 0.7554837 0.1539132
vt 0.7698787 0.1966236
vt 0.7535792 0.2387784
vt 0.6091628 0.1937066
vt 0.7128094 0.2642745
vt 0.623554 0.2364176
vt 0.6631436 0.2633724
vt 0.722578 0.1749165
vt 0.7295151 0.1962398
vt 0.6895206 0.1951678
vt 0.7030144 0.1613285
vt 0.7211756 0.2171537
vt 0.6782969 0.1606656
vt 0.7007445 0.2296695
vt 0.6578663 0.173181
vt 0.676026 0.2290065
vt 0.6495264 0.1940944
vt 0.6564626 0.2154179
vn 0.7737762 0.5621812 -0.2919293
vn 0.8090168 0.5877855 1.028221E-06
vn 0.3090163 0.9510568 1.178047E-06
vn 0.2955554 0.9096287 -0.2919291
vn -0.3090166 0.9510567 1.683344E-06
vn 0.9564397 0 -0.29193
vn 1 2.232707E-07 0
vn -0.295556 0.9096285 -0.2919291
vn -0.8090171 0.5877851 1.360189E-06
vn 0.7737761 -0.5621806 -0.2919305
vn 0.8090174 -0.5877848 -1.574646E-06
vn -0.7737759 0.5621815 -0.2919294
vn -1 1.468887E-07 1.498264E-07
vn 0.2955566 -0.9096276 -0.2919315
vn 0.3090174 -0.9510565 -1.642217E-06
vn -0.9564397 0 -0.29193
vn -0.809017 -0.5877852 -1.342562E-06
vn -0.2955565 -0.9096274 -0.2919322
vn -0.309017 -0.9510565 -1.671595E-06
vn -0.7737761 -0.5621805 -0.2919309
vn 0.5714269 -0.4151656 -0.7078904
vn 0.2182659 -0.6717525 -0.7078903
vn 0 0 -1
vn -0.2182661 -0.6717525 -0.7078902
vn 0.7063219 0 -0.7078907
vn -0.5714269 -0.4151656 -0.7078905
vn 0.5714266 0.4151653 -0.7078908
vn -0.706322 0 -0.7078906
vn 0.2182653 0.6717528 -0.7078903
vn -0.5714272 0.4151657 -0.70789
vn -0.218266 0.671753 -0.7078897
vn 0.8090168 0.5877855 1.028221E-06
vn 0.7737759 0.5621812 0.2919301
vn 0.2955551 0.9096283 0.2919306
vn 0.3090163 0.9510568 1.178047E-06
vn 1 2.232707E-07 0
vn -0.2955556 0.9096282 0.2919304
vn -0.3090166 0.9510567 1.683344E-06
vn 0.9564398 -6.210021E-07 0.2919299
vn 0.8090174 -0.5877848 -1.574646E-06
vn -0.7737755 0.5621816 0.2919304
vn -0.8090171 0.5877851 1.360189E-06
vn 0.7737755 -0.5621814 0.2919304
vn 0.3090174 -0.9510565 -1.642217E-06
vn -0.9564394 -7.009333E-07 0.2919307
vn -1 1.468887E-07 1.498264E-07
vn 0.2955564 -0.9096277 0.2919314
vn -0.309017 -0.9510565 -1.671595E-06
vn -0.7737754 -0.5621812 0.2919313
vn -0.809017 -0.5877852 -1.342562E-06
vn -0.2955562 -0.9096274 0.291932
vn -0.6713769 0.4877836 0.5579607
vn -0.8298668 3.773812E-07 0.5579616
vn -0.671376 -0.4877829 0.5579625
vn -0.2564432 -0.7892498 0.557962
vn 0.2564432 -0.7892497 0.5579622
vn 0.6713759 -0.4877828 0.5579627
vn -0.2564428 0.7892512 0.5579602
vn 0.829867 4.770664E-07 0.5579612
vn 0.2564424 0.789251 0.5579607
vn 0.6713764 0.4877842 0.5579608
vn -0.195837 -0.6027237 0.7735451
vn 0.1958372 -0.6027237 0.773545
vn 0.5127068 -0.372503 0.7735459
vn 0.6337401 -4.521965E-07 0.773546
vn 0.5127071 0.3725024 0.773546
vn 0.1958364 0.6027232 0.7735457
vn -0.5127066 -0.3725034 0.7735459
vn -0.1958365 0.6027226 0.7735461
vn -0.6337399 -4.736171E-07 0.7735461
vn -0.5127063 0.3725025 0.7735464
vn 0.4004321 4.536423E-07 0.9163265
vn 0.3239577 0.2353684 0.9163259
vn 0 0 1
vn 0.3239562 -0.2353672 0.9163267
vn 0.1237413 0.3808342 0.9163261
vn 0.1237409 -0.3808329 0.9163267
vn -0.1237413 0.3808337 0.9163262
vn -0.123741 -0.3808333 0.9163264
vn -0.3239577 0.2353683 0.9163259
vn -0.3239566 -0.2353679 0.9163264
vn -0.4004325 4.992187E-07 0.9163262
g Nose_0
f 3/3/3 2/2/2 1/1/1
f 4/4/4 3/3/3 1/1/1
f 5/5/5 3/3/3 4/4/4
f 1/1/1 2/2/2 6/6/6
f 2/2/2 7/7/7 6/6/6
f 8/8/8 5/5/5 4/4/4
f 9/9/9 5/5/5 8/8/8
f 6/6/6 7/7/7 10/10/10
f 7/7/7 11/11/11 10/10/10
f 12/12/12 9/9/9 8/8/8
f 13/13/13 9/9/9 12/12/12
f 10/10/10 11/11/11 14/14/14
f 11/11/11 15/15/15 14/14/14
f 16/16/16 13/13/13 12/12/12
f 17/17/17 13/13/13 16/16/16
f 14/14/14 15/15/15 18/18/18
f 15/15/15 19/19/19 18/18/18
f 19/19/19 17/17/17 20/20/20
f 20/20/20 17/17/17 16/16/16
f 18/18/18 19/19/19 20/20/20
f 6/6/6 10/10/10 21/21/21
f 10/10/10 14/14/14 22/22/22
f 21/21/21 10/10/10 22/22/22
f 21/21/21 22/22/22 23/23/23
f 22/22/22 24/24/24 23/23/23
f 22/22/22 14/14/14 24/24/24
f 14/14/14 18/18/18 24/24/24
f 25/25/25 21/21/21 23/23/23
f 25/25/25 6/6/6 21/21/21
f 1/1/1 6/6/6 25/25/25
f 24/24/24 18/18/18 26/26/26
f 18/18/18 20/20/20 26/26/26
f 24/24/24 26/26/26 23/23/23
f 27/27/27 1/1/1 25/25/25
f 27/27/27 25/25/25 23/23/23
f 4/4/4 1/1/1 27/27/27
f 26/26/26 20/20/20 28/28/28
f 26/26/26 28/28/28 23/23/23
f 20/20/20 16/16/16 28/28/28
f 29/29/29 4/4/4 27/27/27
f 29/29/29 27/27/27 23/23/23
f 8/8/8 4/4/4 29/29/29
f 28/28/28 16/16/16 30/30/30
f 28/28/28 30/30/30 23/23/23
f 16/16/16 12/12/12 30/30/30
f 31/31/31 29/29/29 23/23/23
f 31/31/31 8/8/8 29/29/29
f 30/30/30 31/31/31 23/23/23
f 12/12/12 8/8/8 31/31/31
f 30/30/30 12/12/12 31/31/31
f 34/34/34 33/33/33 32/32/32
f 35/35/35 34/34/34 32/32/32
f 32/32/32 33/33/33 36/36/36
f 37/37/37 34/34/34 35/35/35
f 38/38/38 37/37/37 35/35/35
f 33/33/33 39/39/39 36/36/36
f 36/36/36 39/39/39 40/40/40
f 41/41/41 37/37/37 38/38/38
f 42/42/42 41/41/41 38/38/38
f 39/39/39 43/43/43 40/40/40
f 40/40/40 43/43/43 44/44/44
f 45/45/45 41/41/41 42/42/42
f 46/46/46 45/45/45 42/42/42
f 43/43/43 47/47/47 44/44/44
f 44/44/44 47/47/47 48/48/48
f 49/49/49 45/45/45 46/46/46
f 50/50/50 49/49/49 46/46/46
f 48/48/48 51/51/51 50/50/50
f 47/47/47 51/51/51 48/48/48
f 51/51/51 49/49/49 50/50/50
f 41/41/41 52/52/52 37/37/37
f 45/45/45 53/53/53 41/41/41
f 53/53/53 52/52/52 41/41/41
f 49/49/49 54/54/54 45/45/45
f 54/54/54 53/53/53 45/45/45
f 51/51/51 55/55/55 49/49/49
f 55/55/55 54/54/54 49/49/49
f 47/47/47 56/56/56 51/51/51
f 56/56/56 55/55/55 51/51/51
f 43/43/43 57/57/57 47/47/47
f 57/57/57 56/56/56 47/47/47
f 52/52/52 58/58/58 37/37/37
f 37/37/37 58/58/58 34/34/34
f 59/59/59 57/57/57 43/43/43
f 39/39/39 59/59/59 43/43/43
f 58/58/58 60/60/60 34/34/34
f 34/34/34 60/60/60 33/33/33
f 33/33/33 61/61/61 39/39/39
f 61/61/61 59/59/59 39/39/39
f 60/60/60 61/61/61 33/33/33
f 55/55/55 62/62/62 54/54/54
f 56/56/56 63/63/63 55/55/55
f 63/63/63 62/62/62 55/55/55
f 57/57/57 64/64/64 56/56/56
f 64/64/64 63/63/63 56/56/56
f 59/59/59 65/65/65 57/57/57
f 65/65/65 64/64/64 57/57/57
f 61/61/61 66/66/66 59/59/59
f 66/66/66 65/65/65 59/59/59
f 60/60/60 67/67/67 61/61/61
f 67/67/67 66/66/66 61/61/61
f 62/62/62 68/68/68 54/54/54
f 54/54/54 68/68/68 53/53/53
f 69/69/69 67/67/67 60/60/60
f 58/58/58 69/69/69 60/60/60
f 68/68/68 70/70/70 53/53/53
f 53/53/53 70/70/70 52/52/52
f 52/52/52 71/71/71 58/58/58
f 71/71/71 69/69/69 58/58/58
f 70/70/70 71/71/71 52/52/52
f 65/65/65 72/72/72 64/64/64
f 66/66/66 73/73/73 65/65/65
f 73/73/73 72/72/72 65/65/65
f 73/73/73 74/74/74 72/72/72
f 72/72/72 74/74/74 75/75/75
f 72/72/72 75/75/75 64/64/64
f 76/76/76 74/74/74 73/73/73
f 76/76/76 73/73/73 66/66/66
f 64/64/64 75/75/75 63/63/63
f 67/67/67 76/76/76 66/66/66
f 75/75/75 77/77/77 63/63/63
f 75/75/75 74/74/74 77/77/77
f 63/63/63 77/77/77 62/62/62
f 78/78/78 76/76/76 67/67/67
f 78/78/78 74/74/74 76/76/76
f 69/69/69 78/78/78 67/67/67
f 77/77/77 79/79/79 62/62/62
f 77/77/77 74/74/74 79/79/79
f 62/62/62 79/79/79 68/68/68
f 80/80/80 78/78/78 69/69/69
f 80/80/80 74/74/74 78/78/78
f 71/71/71 80/80/80 69/69/69
f 79/79/79 81/81/81 68/68/68
f 79/79/79 74/74/74 81/81/81
f 68/68/68 81/81/81 70/70/70
f 82/82/82 80/80/80 71/71/71
f 82/82/82 74/74/74 80/80/80
f 70/70/70 82/82/82 71/71/71
f 81/81/81 82/82/82 70/70/70
f 81/81/81 74/74/74 82/82/82
