g OdysseyHelmet
v 2.366127 3.502017 5.302684
v -0.03591308 -0.5843063 6.753595
v -0.03591308 5.896929 5.717203
v 2.052163 -0.9794332 5.907432
v 4.445519 1.213745 4.1869
v 4.801268 -1.866015 4.820182
v 6.112048 0.3289993 1.882342
v 1.264148 -2.800444 6.370811
v -0.03591308 -2.948379 6.906088
v 1.067673 -2.785483 4.722021
v -0.03591308 -2.924628 4.722021
v 1.863973 -0.9772506 4.321231
v 4.475143 -1.568906 3.152781
v 3.6693 -8.401703 2.737242
v 4.028876 -8.639345 4.251027
v 6.287688 -8.236831 2.156475
v 3.6693 -8.401703 2.737242
v 4.98773 -8.154994 1.609695
v 6.509508 -2.182241 1.96817
v 6.501513 -7.539691 -1.302263
v 4.988456 -7.633471 -1.302256
v 6.887081 -2.701499 -1.302264
v 6.712656 0.1235404 -1.302266
v 5.549 -0.2459469 -4.461044
v 5.153669 -7.13497 -3.927405
v 4.130449 -7.320014 -3.03548
v 1.601787 -7.111156 -4.417106
v 5.647806 -3.020659 -4.374436
v 1.812171 -0.4274948 -6.087438
v 2.031766 -6.872304 -5.598045
v -0.03591308 -7.111156 -4.417106
v 2.157174 -3.257304 -6.358443
v -0.03591308 -6.872304 -5.598045
v -0.03591308 -3.257304 -6.358443
v -0.03591308 -0.4274948 -6.087438
v -1.883998 -0.4274948 -6.087438
v -2.103592 -6.872304 -5.598045
v -1.673613 -7.111156 -4.417106
v -2.229 -3.257304 -6.358443
v -5.719632 -3.020659 -4.374436
v -5.620826 -0.2459469 -4.461044
v -5.225495 -7.13497 -3.927405
v -4.202275 -7.320014 -3.03548
v -5.060283 -7.633471 -1.302256
v -6.958907 -2.701499 -1.302264
v -6.784482 0.1235404 -1.302266
v -6.183875 0.3289993 1.882342
v -6.573339 -7.539691 -1.302263
v -5.059556 -8.154994 1.609695
v -6.581334 -2.182241 1.96817
v -4.873094 -1.866015 4.820182
v -4.517345 1.213745 4.1869
v -6.359515 -8.236831 2.156475
v -3.741126 -8.401703 2.737242
v -4.100702 -8.639345 4.251027
v -3.741126 -8.401703 2.737242
v -4.54697 -1.568906 3.152781
v -1.935799 -0.9772506 4.321231
v -2.123989 -0.9794332 5.907432
v -2.437953 3.502017 5.302684
v -1.335975 -2.800444 6.370811
v -1.139499 -2.785483 4.722021
v -0.03591308 -0.5843063 6.753595
v -0.03591308 5.896929 5.717203
v -0.03591308 -2.948379 6.906088
v -0.03591308 -2.924628 4.722021
v 4.98773 -8.154994 1.609695
v 4.475143 -1.568906 3.152781
v 3.6693 -8.401703 2.737242
v 4.98773 -2.030537 1.609695
v 4.988456 -7.633471 -1.302256
v -0.03591308 0.968052 -0.998656
v 1.863973 -0.9772506 4.321231
v 4.988456 -2.216015 -1.290693
v 4.130449 -7.320014 -3.03548
v 4.130449 -2.393325 -3.043087
v 1.601787 -7.111156 -4.417106
v 1.601787 -2.574082 -4.42867
v -0.03591308 -2.574082 -4.42867
v -0.03591308 -0.4994968 4.321231
v -0.03591308 -7.111156 -4.417106
v -1.673613 -7.111156 -4.417106
v -0.03591308 -2.924628 4.722021
v 1.067673 -2.785483 4.722021
v -1.935799 -0.9772506 4.321231
v -1.139499 -2.785483 4.722021
v -4.54697 -1.568906 3.152781
v -1.673613 -2.574082 -4.42867
v -4.202275 -2.393325 -3.043087
v -4.202275 -7.320014 -3.03548
v -5.060283 -2.216015 -1.290693
v -5.060283 -7.633471 -1.302256
v -5.059556 -2.030537 1.609695
v -5.059556 -8.154994 1.609695
v -3.741126 -8.401703 2.737242
v 1.999138 5.332105 3.325892
v 1.462416 2.230459 2.820152
v -0.03591354 2.230459 2.820151
v -0.03591325 5.332105 3.325892
v -1.534242 2.230459 2.820151
v -2.070965 5.332105 3.325892
v -0.03591293 9.29177 5.719328
v 2.321131 9.29177 5.719328
v -2.392957 9.29177 5.719328
v -0.03591308 8.441535 -1.453491
v 1.82324 8.441535 -1.453491
v -1.895066 8.441535 -1.453491
v 1.999138 5.332105 3.325892
v -2.070965 5.332105 3.325892
v 1.656883 5.57083 -1.762582
v -1.728709 5.57083 -1.762582
v 1.462416 2.230459 2.820152
v -1.534242 2.230459 2.820151
v 1.193477 2.613252 -1.309689
v -1.265303 2.613252 -1.309689
v 1.19348 1.917666 -3.90802
v -1.265306 1.917666 -3.90802
v 1.82324 4.873389 -5.88893
v 1.82324 8.118063 -2.992314
v -1.895066 4.873389 -5.88893
v -1.895066 8.118063 -2.992314
v 1.82324 2.119732 -6.451516
v 1.217303 0.4817532 -4.892996
v 1.54144 -0.7358004 -5.348388
v -0.03591308 -0.7358053 -5.348386
v -0.03591308 4.873389 -5.88893
v -0.03591308 8.118063 -2.992314
v -0.03591308 2.119732 -6.451517
v -1.895066 2.119732 -6.451516
v -1.28913 0.4817532 -4.892996
v -1.613266 -0.7358004 -5.348388
v -0.03591308 8.118063 -2.992314
v 1.82324 8.118063 -2.992314
v 1.656883 5.57083 -1.762582
v -0.03591308 5.57083 -1.762582
v 1.82324 8.441535 -1.453491
v -0.03591308 8.441535 -1.453491
v -1.895066 8.441535 -1.453491
v -1.728709 5.57083 -1.762582
v -1.895066 8.118063 -2.992314
v 1.193477 2.613252 -1.309689
v 1.19348 1.917666 -3.90802
v 3.379747 1.316514 -3.674891
v 1.217303 0.4817532 -4.892996
v 3.918835 0.4416409 -3.94811
v 1.54144 -0.7358004 -5.348388
v 3.665112 1.942486 -1.30969
v 3.304177 1.522637 1.705001
v 1.462416 2.230459 2.820152
v 2.899281 0.9824124 3.595601
v -0.03591354 2.230459 2.820151
v 4.489791 0.6661819 1.12055
v 5.115423 0.6484476 -1.309694
v 4.796489 -0.05114714 1.512327
v 5.534728 -0.2615671 -1.309695
v 4.554274 -0.5216599 -3.94612
v 6.112048 0.3289993 1.882342
v 6.712656 0.1235404 -1.302266
v 5.549 -0.2459469 -4.461044
v 1.812171 -0.4274948 -6.087438
v 4.445519 1.213745 4.1869
v -0.03591308 -0.4274948 -6.087438
v -0.03591308 -0.7358053 -5.348386
v -1.613266 -0.7358004 -5.348388
v 2.366127 3.502017 5.302684
v -0.03591308 5.043877 4.574528
v -0.03591308 5.896929 5.717203
v -1.883998 -0.4274948 -6.087438
v -2.437953 3.502017 5.302684
v -2.971107 0.9824124 3.595601
v -4.517345 1.213745 4.1869
v -6.183875 0.3289993 1.882342
v -4.626101 -0.5216599 -3.94612
v -5.620826 -0.2459469 -4.461044
v -3.990661 0.4416409 -3.94811
v -1.28913 0.4817532 -4.892996
v -5.606555 -0.2615671 -1.309695
v -6.784482 0.1235404 -1.302266
v -4.868316 -0.05114714 1.512326
v -3.451573 1.316514 -3.674891
v -1.265306 1.917666 -3.90802
v -1.265303 2.613252 -1.309689
v -5.187249 0.6484476 -1.309694
v -3.736938 1.942486 -1.30969
v -4.561617 0.6661819 1.12055
v -3.376003 1.522637 1.705001
v -1.534242 2.230459 2.820151
v -0.03591308 0.9824124 3.595601
v -0.03591308 4.552842 4.456175
vt 0.8441358 0.3436047
vt 0.9397373 0.3017182
vt 0.8590321 0.4173588
vt 0.9054649 0.2596328
vt 0.8253793 0.2807551
vt 0.84126 0.2101479
vt 0.7663209 0.2682374
vt 0.9492244 0.2571709
vt 0.9714651 0.2723127
vt 0.9494847 0.2254722
vt 0.973649 0.2244028
vt 0.912424 0.224066
vt 0.8749806 0.1830074
vt 0.8221265 0.04851229
vt 0.7941134 0.07561982
vt 0.7440923 0.09009014
vt 0.7718848 0.04710111
vt 0.7358838 0.06149523
vt 0.7630432 0.2133085
vt 0.6806475 0.1052992
vt 0.6667227 0.07614544
vt 0.6931348 0.2065186
vt 0.6958978 0.2654928
vt 0.6282727 0.2629672
vt 0.6223002 0.116617
vt 0.616219 0.08833097
vt 0.5449716 0.09484112
vt 0.6268712 0.2045321
vt 0.5420095 0.2667178
vt 0.5471007 0.1219936
vt 0.5019082 0.09260586
vt 0.5453954 0.2038502
vt 0.5016024 0.1190243
vt 0.5004001 0.2035541
vt 0.4995236 0.268273
vt 0.4570383 0.2656617
vt 0.4560458 0.12078
vt 0.4588377 0.0936937
vt 0.4553932 0.2026777
vt 0.3738642 0.2011222
vt 0.3707527 0.2595423
vt 0.3810053 0.1133935
vt 0.3878181 0.08529265
vt 0.3377355 0.07177249
vt 0.3074472 0.201223
vt 0.302938 0.2601719
vt 0.232211 0.2609916
vt 0.3230233 0.1004747
vt 0.2690895 0.05517544
vt 0.2371522 0.2059787
vt 0.1588712 0.2004012
vt 0.1727172 0.271586
vt 0.2600002 0.08345196
vt 0.2337535 0.0401928
vt 0.2104259 0.06707534
vt 0.1836006 0.0387841
vt 0.1260661 0.1723108
vt 0.08726332 0.2124413
vt 0.09325212 0.2482723
vt 0.1523428 0.3338078
vt 0.04941356 0.2446723
vt 0.05002534 0.2129149
vt 0.05778149 0.289553
vt 0.1355186 0.407182
vt 0.02669629 0.2593353
vt 0.02583373 0.2113231
vt 0.729391 0.3767889
vt 0.6673388 0.4499138
vt 0.7468154 0.3926696
vt 0.6666811 0.4278204
vt 0.6980595 0.3498124
vt 0.606229 0.4200713
vt 0.6324874 0.4725891
vt 0.6546822 0.3960044
vt 0.6735457 0.3336655
vt 0.6435634 0.379272
vt 0.6328096 0.316412
vt 0.6205718 0.3665951
vt 0.6061542 0.3661124
vt 0.606366 0.4712723
vt 0.6059798 0.3131357
vt 0.5791598 0.3165033
vt 0.6064281 0.4994392
vt 0.6214139 0.4972717
vt 0.5802762 0.4728284
vt 0.5914577 0.4973336
vt 0.5452217 0.4506512
vt 0.5917192 0.3668232
vt 0.5687685 0.3798756
vt 0.5385147 0.334086
vt 0.5576976 0.3968018
vt 0.5141317 0.3503391
vt 0.5458179 0.4286804
vt 0.482888 0.3772091
vt 0.4654009 0.3929856
vt 0.8099452 0.5146933
vt 0.8099452 0.4430249
vt 0.7736819 0.4430249
vt 0.7736846 0.5146933
vt 0.7374633 0.4430249
vt 0.7374632 0.5146933
vt 0.7736874 0.5863616
vt 0.8099452 0.5863616
vt 0.7374632 0.5863616
vt 0.7736691 0.7040221
vt 0.809945 0.704022
vt 0.7374632 0.7040221
vt 0.8903051 0.6323826
vt 0.6570904 0.6323826
vt 0.8388667 0.748338
vt 0.7084844 0.7483379
vt 0.970665 0.6784037
vt 0.5767176 0.6784037
vt 0.9137402 0.7744361
vt 0.6336045 0.7744361
vt 0.880219 0.8623247
vt 0.6671491 0.8623248
vt 0.8099451 0.8488079
vt 0.8099451 0.7744321
vt 0.7374632 0.8488079
vt 0.7374632 0.774432
vt 0.8099452 0.90276
vt 0.8542826 0.9264892
vt 0.809945 0.9619639
vt 0.7736991 0.9619639
vt 0.7736826 0.8488079
vt 0.7737207 0.7744321
vt 0.7736929 0.90276
vt 0.7374633 0.90276
vt 0.693096 0.9264892
vt 0.7374634 0.9619638
vt 0.902136 0.5715411
vt 0.9462635 0.5715411
vt 0.9422669 0.5178565
vt 0.9021266 0.5178564
vt 0.9461598 0.463164
vt 0.9021202 0.4631639
vt 0.8580989 0.463164
vt 0.8619877 0.5178566
vt 0.8579972 0.5715411
vt 0.2619596 0.6197829
vt 0.2619596 0.5433897
vt 0.2097133 0.5389806
vt 0.2619596 0.491931
vt 0.1838181 0.5166043
vt 0.2619596 0.4504941
vt 0.1913241 0.6164374
vt 0.1976044 0.7182992
vt 0.2619596 0.748769
vt 0.1995551 0.7895659
vt 0.3033541 0.7470921
vt 0.1496823 0.6940065
vt 0.1396798 0.6057453
vt 0.1238355 0.7085201
vt 0.1049989 0.5995396
vt 0.1485339 0.4982452
vt 0.07509857 0.7220855
vt 0.05763841 0.5983745
vt 0.1113136 0.4792106
vt 0.242844 0.4235426
vt 0.1415274 0.8098031
vt 0.3033541 0.418849
vt 0.3033541 0.4460439
vt 0.3422373 0.4518203
vt 0.2116195 0.8974462
vt 0.3033541 0.9254171
vt 0.3033541 0.9736407
vt 0.3679463 0.4254368
vt 0.3918752 0.8971659
vt 0.4023738 0.7909239
vt 0.459282 0.8109343
vt 0.5248735 0.7257269
vt 0.4579988 0.5055412
vt 0.4956077 0.488577
vt 0.4222745 0.5222031
vt 0.3422373 0.4925339
vt 0.4976265 0.6056906
vt 0.5438128 0.6056969
vt 0.4774217 0.7119012
vt 0.3957402 0.5432982
vt 0.3422373 0.5448686
vt 0.3422373 0.6232566
vt 0.4634314 0.610886
vt 0.4123122 0.6200489
vt 0.4522517 0.6972921
vt 0.4048693 0.7206537
vt 0.3422373 0.7500015
vt 0.3033541 0.794636
vt 0.3033541 0.9095667
vn 0.6133344 0.3850722 0.6895943
vn -1.775801E-07 0.1245999 0.9922071
vn -1.848502E-07 0.6116171 0.7911539
vn 0.4804934 -0.06669606 0.8744585
vn 0.6539961 0.4243787 0.6262522
vn 0.4545461 -0.0889999 0.8862656
vn 0.8308684 0.5047094 0.2343633
vn 0.6474777 -0.4736204 0.5970396
vn 0 -0.4221617 0.9065205
vn 0.4515616 -0.6335104 -0.6282968
vn -3.864366E-07 -0.6899525 -0.7238547
vn -0.1323344 -0.9385072 -0.3188918
vn -0.8763961 -0.4599614 -0.1427079
vn -0.9772242 -0.1238654 -0.1723082
vn 0.2599393 -0.1757124 0.9495034
vn 0.8945069 -0.2273815 0.3849091
vn -0.9772242 -0.1238654 -0.1723082
vn -0.8908167 -0.3332297 -0.3088748
vn 0.9272739 -0.002170603 0.3743773
vn 0.9534906 -0.2658514 -0.1420523
vn -0.9461666 -0.312588 0.08400892
vn 0.9918754 -0.02588634 -0.1245523
vn 0.8925594 0.4288659 -0.139326
vn 0.6616856 0.3138177 -0.6809484
vn 0.6864244 -0.3256187 -0.6502262
vn -0.6825929 -0.3734331 0.6281836
vn -0.3223615 -0.3369802 0.8846058
vn 0.7245351 -0.06264479 -0.6863851
vn 0.2679009 0.3237202 -0.9074329
vn 0.2979301 -0.3765328 -0.8771892
vn 0 -0.2964407 0.9550513
vn 0.3187548 -0.07643911 -0.94475
vn 0 -0.4235601 -0.9058681
vn 0 -0.07965755 -0.9968224
vn 0 0.3298539 -0.944032
vn -0.2679009 0.3237202 -0.9074329
vn -0.2979301 -0.3765328 -0.8771892
vn 0.3223615 -0.3369802 0.8846058
vn -0.3187548 -0.07643913 -0.94475
vn -0.7245351 -0.06264479 -0.6863851
vn -0.6616856 0.3138177 -0.6809484
vn -0.6864244 -0.3256187 -0.6502262
vn 0.6825929 -0.373433 0.6281836
vn 0.9461666 -0.3125881 0.08400901
vn -0.9918754 -0.02588634 -0.1245523
vn -0.8925595 0.4288659 -0.139326
vn -0.8308684 0.5047094 0.2343632
vn -0.9534905 -0.2658515 -0.1420523
vn 0.8908166 -0.3332297 -0.3088749
vn -0.9272739 -0.002170599 0.3743774
vn -0.4545462 -0.08899993 0.8862656
vn -0.6539963 0.4243788 0.626252
vn -0.8945069 -0.2273815 0.3849091
vn 0.9772242 -0.1238654 -0.1723083
vn -0.2599394 -0.1757124 0.9495034
vn 0.9772242 -0.1238654 -0.1723083
vn 0.8763961 -0.4599613 -0.1427079
vn 0.1323342 -0.9385072 -0.3188917
vn -0.4804936 -0.06669607 0.8744584
vn -0.6133346 0.3850722 0.6895941
vn -0.6474777 -0.4736204 0.5970396
vn -0.4515621 -0.6335101 -0.6282964
vn -1.775801E-07 0.1245999 0.9922071
vn -1.848502E-07 0.6116171 0.7911539
vn 0 -0.4221617 0.9065205
vn -3.864366E-07 -0.6899525 -0.7238547
vn -0.8908167 -0.3332297 -0.3088748
vn -0.8763961 -0.4599614 -0.1427079
vn -0.9772242 -0.1238654 -0.1723082
vn -0.9463175 -0.2668883 -0.182356
vn -0.9461666 -0.312588 0.08400892
vn 0 -0.9820912 0.1884062
vn -0.1323344 -0.9385072 -0.3188918
vn -0.9360459 -0.3051254 0.1752607
vn -0.6825929 -0.3734331 0.6281836
vn -0.6597069 -0.2727786 0.7002704
vn -0.3223615 -0.3369802 0.8846058
vn -0.3052365 -0.2547435 0.9175709
vn 0 -0.2607008 0.9654196
vn -2.186482E-07 -0.8088404 -0.5880283
vn 0 -0.2964407 0.9550513
vn 0.3223615 -0.3369802 0.8846058
vn -3.864366E-07 -0.6899525 -0.7238547
vn 0.4515616 -0.6335104 -0.6282968
vn 0.1323342 -0.9385072 -0.3188917
vn -0.4515621 -0.6335101 -0.6282964
vn 0.8763961 -0.4599613 -0.1427079
vn 0.3052365 -0.2547434 0.9175711
vn 0.6597068 -0.2727785 0.7002704
vn 0.6825929 -0.373433 0.6281836
vn 0.9360459 -0.3051254 0.1752607
vn 0.9461666 -0.3125881 0.08400901
vn 0.9463175 -0.2668884 -0.182356
vn 0.8908166 -0.3332297 -0.3088749
vn 0.9772242 -0.1238654 -0.1723083
vn 0.9212199 -0.2328501 0.3116645
vn 0.6281105 0.4218048 0.6538792
vn -1.885373E-07 0.09960809 0.9950268
vn -1.011215E-07 -0.3979874 0.9173909
vn -0.6281106 0.421805 0.6538787
vn -0.9212199 -0.2328501 0.3116644
vn 0 0.8193178 0.5733396
vn 0.7443862 0.5590625 0.365155
vn -0.7443862 0.5590626 0.3651549
vn 0 0.9154032 -0.4025379
vn 0.8041084 0.5215617 -0.2852773
vn -0.8041084 0.5215617 -0.2852773
vn 0.9212199 -0.2328501 0.3116645
vn -0.9212199 -0.2328501 0.3116644
vn 0.9992213 -0.0270234 -0.02874905
vn -0.9992213 -0.02702337 -0.02874901
vn 0.6281105 0.4218048 0.6538792
vn -0.6281106 0.421805 0.6538787
vn 0.8116413 0.5812503 -0.05819421
vn -0.8116413 0.5812501 -0.05819431
vn 0.9626858 0.256451 -0.08642273
vn -0.9626858 0.2564509 -0.08642288
vn 0.8506305 0.2269429 -0.4742624
vn 0.8193383 0.5647867 -0.09849119
vn -0.8506304 0.2269429 -0.4742624
vn -0.8193383 0.5647869 -0.09849103
vn 0.7076636 -0.1198864 -0.6963042
vn 0.8951929 0.2547397 -0.3657012
vn 0.1745406 0.5126829 -0.8406496
vn 0 -0.1423454 -0.989817
vn 0 0.4995737 -0.8662714
vn 0 0.980713 -0.1954532
vn 0 -0.08442935 -0.9964295
vn -0.7076637 -0.1198865 -0.6963041
vn -0.8951929 0.2547397 -0.3657012
vn -0.1745407 0.512683 -0.8406495
vn 0 0.980713 -0.1954532
vn 0.8193383 0.5647867 -0.09849119
vn 0.9992213 -0.0270234 -0.02874905
vn 0 0.9786127 -0.2057116
vn 0.8041084 0.5215617 -0.2852773
vn 0 0.9154032 -0.4025379
vn -0.8041084 0.5215617 -0.2852773
vn -0.9992213 -0.02702337 -0.02874901
vn -0.8193383 0.5647869 -0.09849103
vn 0.8116413 0.5812503 -0.05819421
vn 0.9626858 0.256451 -0.08642273
vn 0.415688 0.7769319 -0.4728427
vn 0.8951929 0.2547397 -0.3657012
vn 0.5507511 0.512564 -0.6587498
vn 0.1745406 0.5126829 -0.8406496
vn 0.4565742 0.8881921 -0.05152493
vn 0.4747554 0.8602614 0.1858962
vn 0.6281105 0.4218048 0.6538792
vn 0.2766193 0.8199952 -0.5010883
vn -1.885373E-07 0.09960809 0.9950268
vn 0.7235269 0.6471273 0.2402812
vn 0.7784379 0.6227902 -0.07852917
vn 0.1796427 0.9746422 -0.1334205
vn 0.1573671 0.9815372 -0.1087215
vn 0.1535033 0.965963 -0.2082123
vn 0.8308684 0.5047094 0.2343633
vn 0.8925594 0.4288659 -0.139326
vn 0.6616856 0.3138177 -0.6809484
vn 0.2679009 0.3237202 -0.9074329
vn 0.6539961 0.4243787 0.6262522
vn 0 0.3298539 -0.944032
vn 0 -0.1423454 -0.989817
vn -0.1745407 0.512683 -0.8406495
vn 0.6133344 0.3850722 0.6895943
vn 0 0.605969 -0.7954883
vn -1.848502E-07 0.6116171 0.7911539
vn -0.2679009 0.3237202 -0.9074329
vn -0.6133346 0.3850722 0.6895941
vn -0.2766193 0.8199954 -0.5010882
vn -0.6539963 0.4243788 0.626252
vn -0.8308684 0.5047094 0.2343632
vn -0.1535033 0.965963 -0.2082123
vn -0.6616856 0.3138177 -0.6809484
vn -0.5507512 0.512564 -0.6587498
vn -0.8951929 0.2547397 -0.3657012
vn -0.1573671 0.9815372 -0.1087216
vn -0.8925595 0.4288659 -0.139326
vn -0.1796428 0.9746422 -0.1334204
vn -0.415688 0.7769319 -0.472843
vn -0.9626858 0.2564509 -0.08642288
vn -0.8116413 0.5812501 -0.05819431
vn -0.7784379 0.6227902 -0.07852922
vn -0.4565744 0.8881919 -0.05152504
vn -0.7235268 0.6471274 0.2402812
vn -0.4747555 0.8602614 0.1858962
vn -0.6281106 0.421805 0.6538787
vn -1.739998E-07 0.7028272 -0.7113606
vn -1.274202E-07 0.2343178 -0.9721601
g OdysseyHelmet_0
f 3/3/3 2/2/2 1/1/1
f 2/2/2 4/4/4 1/1/1
f 1/1/1 4/4/4 5/5/5
f 4/4/4 6/6/6 5/5/5
f 5/5/5 6/6/6 7/7/7
f 4/4/4 2/2/2 8/8/8
f 2/2/2 9/9/9 8/8/8
f 10/10/10 8/8/8 9/9/9
f 11/11/11 10/10/10 9/9/9
f 8/8/8 10/10/10 12/12/12
f 4/4/4 8/8/8 12/12/12
f 6/6/6 4/4/4 12/12/12
f 13/13/13 6/6/6 12/12/12
f 6/6/6 13/13/13 14/14/14
f 15/15/15 6/6/6 14/14/14
f 6/6/6 15/15/15 16/16/16
f 16/16/16 15/15/15 17/17/17
f 18/18/18 16/16/16 17/17/17
f 6/6/6 19/19/19 7/7/7
f 19/19/19 6/6/6 16/16/16
f 16/16/16 18/18/18 20/20/20
f 16/16/16 20/20/20 19/19/19
f 18/18/18 21/21/21 20/20/20
f 19/19/19 22/22/22 7/7/7
f 20/20/20 22/22/22 19/19/19
f 22/22/22 23/23/23 7/7/7
f 23/23/23 22/22/22 24/24/24
f 20/20/20 21/21/21 25/25/25
f 20/20/20 25/25/25 22/22/22
f 21/21/21 26/26/26 25/25/25
f 25/25/25 26/26/26 27/27/27
f 22/22/22 28/28/28 24/24/24
f 25/25/25 28/28/28 22/22/22
f 24/24/24 28/28/28 29/29/29
f 30/30/30 25/25/25 27/27/27
f 25/25/25 30/30/30 28/28/28
f 27/27/27 31/31/31 30/30/30
f 28/28/28 32/32/32 29/29/29
f 30/30/30 32/32/32 28/28/28
f 31/31/31 33/33/33 30/30/30
f 30/30/30 33/33/33 32/32/32
f 32/32/32 34/34/34 29/29/29
f 33/33/33 34/34/34 32/32/32
f 34/34/34 35/35/35 29/29/29
f 35/35/35 34/34/34 36/36/36
f 33/33/33 31/31/31 37/37/37
f 31/31/31 38/38/38 37/37/37
f 34/34/34 33/33/33 39/39/39
f 34/34/34 39/39/39 36/36/36
f 33/33/33 37/37/37 39/39/39
f 39/39/39 40/40/40 36/36/36
f 39/39/39 37/37/37 40/40/40
f 40/40/40 41/41/41 36/36/36
f 42/42/42 37/37/37 38/38/38
f 37/37/37 42/42/42 40/40/40
f 43/43/43 42/42/42 38/38/38
f 43/43/43 44/44/44 42/42/42
f 40/40/40 45/45/45 41/41/41
f 40/40/40 42/42/42 45/45/45
f 45/45/45 46/46/46 41/41/41
f 46/46/46 45/45/45 47/47/47
f 44/44/44 48/48/48 42/42/42
f 42/42/42 48/48/48 45/45/45
f 44/44/44 49/49/49 48/48/48
f 45/45/45 50/50/50 47/47/47
f 45/45/45 48/48/48 50/50/50
f 50/50/50 51/51/51 47/47/47
f 51/51/51 52/52/52 47/47/47
f 49/49/49 53/53/53 48/48/48
f 48/48/48 53/53/53 50/50/50
f 51/51/51 50/50/50 53/53/53
f 53/53/53 49/49/49 54/54/54
f 55/55/55 53/53/53 54/54/54
f 55/55/55 51/51/51 53/53/53
f 51/51/51 55/55/55 56/56/56
f 57/57/57 51/51/51 56/56/56
f 51/51/51 57/57/57 58/58/58
f 51/51/51 59/59/59 52/52/52
f 59/59/59 51/51/51 58/58/58
f 59/59/59 60/60/60 52/52/52
f 61/61/61 59/59/59 58/58/58
f 62/62/62 61/61/61 58/58/58
f 59/59/59 63/63/63 60/60/60
f 63/63/63 59/59/59 61/61/61
f 63/63/63 64/64/64 60/60/60
f 65/65/65 63/63/63 61/61/61
f 61/61/61 62/62/62 65/65/65
f 62/62/62 66/66/66 65/65/65
f 69/69/69 68/68/68 67/67/67
f 68/68/68 70/70/70 67/67/67
f 67/67/67 70/70/70 71/71/71
f 68/68/68 72/72/72 70/70/70
f 73/73/73 72/72/72 68/68/68
f 70/70/70 74/74/74 71/71/71
f 70/70/70 72/72/72 74/74/74
f 71/71/71 74/74/74 75/75/75
f 74/74/74 76/76/76 75/75/75
f 74/74/74 72/72/72 76/76/76
f 75/75/75 76/76/76 77/77/77
f 76/76/76 72/72/72 78/78/78
f 76/76/76 78/78/78 77/77/77
f 72/72/72 79/79/79 78/78/78
f 77/77/77 78/78/78 79/79/79
f 80/80/80 72/72/72 73/73/73
f 81/81/81 77/77/77 79/79/79
f 82/82/82 81/81/81 79/79/79
f 80/80/80 73/73/73 83/83/83
f 73/73/73 84/84/84 83/83/83
f 85/85/85 80/80/80 83/83/83
f 72/72/72 80/80/80 85/85/85
f 86/86/86 85/85/85 83/83/83
f 72/72/72 85/85/85 87/87/87
f 88/88/88 82/82/82 79/79/79
f 88/88/88 79/79/79 72/72/72
f 88/88/88 89/89/89 82/82/82
f 72/72/72 89/89/89 88/88/88
f 89/89/89 90/90/90 82/82/82
f 89/89/89 91/91/91 90/90/90
f 72/72/72 91/91/91 89/89/89
f 91/91/91 92/92/92 90/90/90
f 72/72/72 93/93/93 91/91/91
f 91/91/91 93/93/93 92/92/92
f 72/72/72 87/87/87 93/93/93
f 93/93/93 94/94/94 92/92/92
f 93/93/93 87/87/87 94/94/94
f 87/87/87 95/95/95 94/94/94
f 98/98/98 97/97/97 96/96/96
f 99/99/99 98/98/98 96/96/96
f 100/100/100 98/98/98 99/99/99
f 101/101/101 100/100/100 99/99/99
f 99/99/99 96/96/96 102/102/102
f 101/101/101 99/99/99 102/102/102
f 96/96/96 103/103/103 102/102/102
f 104/104/104 101/101/101 102/102/102
f 105/105/105 102/102/102 103/103/103
f 102/102/102 105/105/105 104/104/104
f 106/106/106 105/105/105 103/103/103
f 105/105/105 107/107/107 104/104/104
f 103/103/103 108/108/108 106/106/106
f 109/109/109 104/104/104 107/107/107
f 108/108/108 110/110/110 106/106/106
f 111/111/111 109/109/109 107/107/107
f 108/108/108 112/112/112 110/110/110
f 111/111/111 113/113/113 109/109/109
f 112/112/112 114/114/114 110/110/110
f 115/115/115 113/113/113 111/111/111
f 116/116/116 110/110/110 114/114/114
f 111/111/111 117/117/117 115/115/115
f 116/116/116 118/118/118 110/110/110
f 118/118/118 119/119/119 110/110/110
f 120/120/120 117/117/117 111/111/111
f 121/121/121 120/120/120 111/111/111
f 122/122/122 118/118/118 116/116/116
f 123/123/123 122/122/122 116/116/116
f 124/124/124 122/122/122 123/123/123
f 124/124/124 125/125/125 122/122/122
f 118/118/118 126/126/126 119/119/119
f 126/126/126 120/120/120 121/121/121
f 126/126/126 127/127/127 119/119/119
f 127/127/127 126/126/126 121/121/121
f 122/122/122 128/128/128 118/118/118
f 128/128/128 126/126/126 118/118/118
f 125/125/125 128/128/128 122/122/122
f 126/126/126 128/128/128 120/120/120
f 120/120/120 129/129/129 117/117/117
f 128/128/128 129/129/129 120/120/120
f 128/128/128 125/125/125 129/129/129
f 129/129/129 130/130/130 117/117/117
f 125/125/125 131/131/131 129/129/129
f 129/129/129 131/131/131 130/130/130
f 134/134/134 133/133/133 132/132/132
f 135/135/135 134/134/134 132/132/132
f 136/136/136 134/134/134 135/135/135
f 137/137/137 136/136/136 135/135/135
f 138/138/138 137/137/137 135/135/135
f 139/139/139 138/138/138 135/135/135
f 139/139/139 135/135/135 132/132/132
f 140/140/140 139/139/139 132/132/132
f 143/143/143 142/142/142 141/141/141
f 142/142/142 143/143/143 144/144/144
f 143/143/143 145/145/145 144/144/144
f 144/144/144 145/145/145 146/146/146
f 147/147/147 143/143/143 141/141/141
f 145/145/145 143/143/143 147/147/147
f 148/148/148 147/147/147 141/141/141
f 149/149/149 148/148/148 141/141/141
f 148/148/148 149/149/149 150/150/150
f 149/149/149 151/151/151 150/150/150
f 148/148/148 152/152/152 147/147/147
f 152/152/152 153/153/153 147/147/147
f 153/153/153 145/145/145 147/147/147
f 154/154/154 152/152/152 148/148/148
f 153/153/153 152/152/152 154/154/154
f 150/150/150 154/154/154 148/148/148
f 153/153/153 155/155/155 145/145/145
f 155/155/155 153/153/153 154/154/154
f 145/145/145 156/156/156 146/146/146
f 155/155/155 156/156/156 145/145/145
f 154/154/154 150/150/150 157/157/157
f 154/154/154 157/157/157 155/155/155
f 157/157/157 158/158/158 155/155/155
f 155/155/155 158/158/158 159/159/159
f 156/156/156 155/155/155 159/159/159
f 156/156/156 159/159/159 160/160/160
f 146/146/146 156/156/156 160/160/160
f 150/150/150 161/161/161 157/157/157
f 160/160/160 162/162/162 146/146/146
f 162/162/162 163/163/163 146/146/146
f 163/163/163 162/162/162 164/164/164
f 165/165/165 161/161/161 150/150/150
f 165/165/165 150/150/150 166/166/166
f 167/167/167 165/165/165 166/166/166
f 162/162/162 168/168/168 164/164/164
f 169/169/169 167/167/167 166/166/166
f 170/170/170 169/169/169 166/166/166
f 171/171/171 169/169/169 170/170/170
f 171/171/171 170/170/170 172/172/172
f 173/173/173 164/164/164 168/168/168
f 174/174/174 173/173/173 168/168/168
f 173/173/173 175/175/175 164/164/164
f 175/175/175 176/176/176 164/164/164
f 177/177/177 173/173/173 174/174/174
f 173/173/173 177/177/177 175/175/175
f 178/178/178 177/177/177 174/174/174
f 178/178/178 172/172/172 177/177/177
f 172/172/172 179/179/179 177/177/177
f 170/170/170 179/179/179 172/172/172
f 175/175/175 180/180/180 176/176/176
f 180/180/180 181/181/181 176/176/176
f 181/181/181 180/180/180 182/182/182
f 177/177/177 183/183/183 175/175/175
f 183/183/183 177/177/177 179/179/179
f 180/180/180 175/175/175 184/184/184
f 180/180/180 184/184/184 182/182/182
f 175/175/175 183/183/183 184/184/184
f 185/185/185 183/183/183 179/179/179
f 183/183/183 185/185/185 184/184/184
f 184/184/184 186/186/186 182/182/182
f 185/185/185 186/186/186 184/184/184
f 185/185/185 179/179/179 186/186/186
f 179/179/179 170/170/170 186/186/186
f 186/186/186 187/187/187 182/182/182
f 187/187/187 186/186/186 170/170/170
f 151/151/151 187/187/187 170/170/170
f 188/188/188 151/151/151 170/170/170
f 151/151/151 188/188/188 150/150/150
f 188/188/188 170/170/170 166/166/166
f 150/150/150 188/188/188 166/166/166
f 188/188/188 189/189/189 166/166/166
f 189/189/189 188/188/188 166/166/166
