g PadDarker
v 0.04494313 0.06030999 0.005641859
v 4.073422E-05 0.0554218 9.118611E-05
v 0.04423957 0.06030999 -0.009100118
v 0.03942069 0.06030999 0.02106377
v 0.02975784 0.06030999 0.03101596
v 0.01768875 0.06030999 0.03346453
v 0.006715388 0.06030999 0.04236801
v -0.006816028 0.06030999 0.04281412
v -0.02223008 0.06030999 0.03776921
v -0.02853572 0.06030999 0.02347542
v -0.03934352 0.06030999 0.01418084
v -0.0424578 0.06030999 -0.003998408
v 0.04423957 0.06030999 -0.009100118
v 4.073422E-05 0.0554218 9.118611E-05
v 0.03753592 0.06030999 -0.02292293
v 0.0263905 0.06030999 -0.03182516
v 0.01582072 0.06030999 -0.03586275
v 0.006774715 0.06030999 -0.04329842
v -0.004524489 0.06030999 -0.04387498
v -0.01646022 0.06030999 -0.0385595
v -0.0254266 0.06030999 -0.02658935
v -0.03605378 0.06030999 -0.02062873
v -0.0424578 0.06030999 -0.003998408
vt 0.2783823 0.9746628
vt 0.2783822 0.7337381
vt 0.2783823 0.9746628
vt 0.2048991 0.9570618
vt 0.1422629 0.918203
vt 0.09470028 0.8618908
vt 0.06686699 0.7936368
vt 0.06148773 0.7201226
vt 0.07908884 0.648544
vt 0.1179475 0.5859076
vt 0.1742599 0.538345
vt 0.2783822 0.5078223
vt 0.2783823 0.9746628
vt 0.2783822 0.7337381
vt 0.2048991 0.9570617
vt 0.1422628 0.918203
vt 0.09470028 0.8618908
vt 0.06686705 0.7936368
vt 0.06148767 0.7201225
vt 0.07908881 0.6485439
vt 0.1179475 0.5859076
vt 0.1742599 0.538345
vt 0.2783822 0.5078223
vn -0.1061834 0.9942085 -0.01657312
vn 0.005859698 0.9999778 -0.003187391
vn -0.1044714 0.9941787 0.02635352
vn -0.09411321 0.9940427 -0.05497166
vn -0.06324317 0.9933468 -0.09624214
vn -0.05607793 0.9917114 -0.1156013
vn -0.03510428 0.9933869 -0.1093164
vn 0.01785465 0.9936793 -0.1108273
vn 0.0676708 0.993737 -0.08892435
vn 0.1068995 0.9913157 -0.07658708
vn 0.1062487 0.9932005 -0.04758267
vn 0.1132508 0.9935096 0.01063053
vn -0.1044714 0.9941787 0.02635352
vn 0.005859698 0.9999778 -0.003187391
vn -0.08861765 0.9938292 0.06671125
vn -0.06241366 0.9929723 0.1005521
vn -0.06399314 0.9922177 0.1068127
vn -0.03514846 0.993692 0.1064926
vn 0.02049295 0.9938989 0.1083747
vn 0.07068019 0.9929264 0.09540133
vn 0.08824132 0.9913264 0.09739355
vn 0.09692951 0.9931372 0.06544484
vn 0.1132508 0.9935096 0.01063053
g PadDarker_0
f 3/3/3 2/2/2 1/1/1
f 1/1/1 2/2/2 4/4/4
f 4/4/4 2/2/2 5/5/5
f 5/5/5 2/2/2 6/6/6
f 6/6/6 2/2/2 7/7/7
f 7/7/7 2/2/2 8/8/8
f 8/8/8 2/2/2 9/9/9
f 9/9/9 2/2/2 10/10/10
f 10/10/10 2/2/2 11/11/11
f 11/11/11 2/2/2 12/12/12
f 15/15/15 14/14/14 13/13/13
f 16/16/16 14/14/14 15/15/15
f 17/17/17 14/14/14 16/16/16
f 18/18/18 14/14/14 17/17/17
f 19/19/19 14/14/14 18/18/18
f 20/20/20 14/14/14 19/19/19
f 21/21/21 14/14/14 20/20/20
f 22/22/22 14/14/14 21/21/21
f 23/23/23 14/14/14 22/22/22
