g PatFustyBlink
v 2.288024 15.84429 6.077538
v 1.679156 15.70528 5.883099
v 1.675753 15.98427 5.918034
v 2.28654 16.12143 6.131666
v 2.896893 15.9833 5.881976
v 2.897327 16.25858 5.955298
v 3.989447 16.44886 5.232378
v 4.037726 16.23397 5.182314
v -1.675753 15.98427 5.918034
v -1.679156 15.70528 5.883099
v -2.288024 15.84429 6.077538
v -2.28654 16.12143 6.131666
v -2.896893 15.9833 5.881976
v -2.897327 16.25858 5.955298
v -3.989447 16.44886 5.232378
v -4.037726 16.23397 5.182314
v 3.039903 14.67191 4.971191
v 2.37723 14.67135 5.214733
v 2.66727 15.27715 5.560079
v 3.726635 14.95248 4.817401
v 1.633628 14.97835 5.534758
v 4.149082 15.60107 4.6
v 1.679156 15.70528 5.883099
v 1.219222 16.0629 5.689216
v 2.288024 15.84429 6.077538
v 2.896893 15.9833 5.881976
v 1.675753 15.98427 5.918034
v 1.221785 17.10496 5.8837
v 1.922039 17.15692 5.719536
v 2.28654 16.12143 6.131666
v 4.037726 16.23397 5.182314
v 4.248903 16.31739 4.568223
v 2.622293 17.20888 5.555372
v 2.897327 16.25858 5.955298
v 3.989447 16.44886 5.232378
v 4.060996 17.2663 4.617081
v -3.039903 14.67191 4.971191
v -2.66727 15.27715 5.560079
v -2.37723 14.67135 5.214733
v -3.726635 14.95248 4.817401
v -1.633628 14.97835 5.534758
v -4.149082 15.60107 4.725541
v -1.679156 15.70528 5.883099
v -1.219222 16.0629 5.689216
v -2.288024 15.84429 6.077538
v -2.896893 15.9833 5.881976
v -1.675753 15.98427 5.918034
v -1.221785 17.10496 5.8837
v -1.922039 17.15692 5.719536
v -2.28654 16.12143 6.131666
v -4.037726 16.23397 5.182314
v -4.248903 16.31739 4.568223
v -2.622293 17.20888 5.555372
v -2.897327 16.25858 5.955298
v -3.989447 16.44886 5.232378
v -4.060996 17.2663 4.617081
vt 0.1282889 0.01506586
vt 0.1274977 0.01175877
vt 0.1255136 0.01210416
vt 0.1263119 0.01637972
vt 0.1290802 0.01837295
vt 0.1271102 0.02065527
vt 0.1255208 0.02767354
vt 0.1271369 0.02769786
vt 0.1255136 0.01210416
vt 0.1274977 0.01175877
vt 0.1282889 0.01506586
vt 0.1263119 0.01637972
vt 0.1290802 0.01837295
vt 0.1271102 0.02065527
vt 0.1255208 0.02767354
vt 0.1271369 0.02769786
vt 0.08055866 0.02265376
vt 0.08055866 0.02265376
vt 0.08055866 0.02265376
vt 0.08055866 0.02265376
vt 0.08055866 0.02265376
vt 0.08055866 0.02265376
vt 0.08055866 0.02265376
vt 0.08055866 0.02265376
vt 0.08055866 0.02265376
vt 0.08055866 0.02265376
vt 0.08055866 0.02265376
vt 0.08055866 0.02265376
vt 0.08055866 0.02265376
vt 0.08055866 0.02265376
vt 0.08055866 0.02265376
vt 0.08055866 0.02265376
vt 0.08055866 0.02265376
vt 0.08055866 0.02265376
vt 0.08055866 0.02265376
vt 0.08055866 0.02265376
vt 0.08055866 0.02265376
vt 0.08055866 0.02265376
vt 0.08055866 0.02265376
vt 0.08055866 0.02265376
vt 0.08055866 0.02265376
vt 0.08055866 0.02265376
vt 0.08055866 0.02265376
vt 0.08055866 0.02265376
vt 0.08055866 0.02265376
vt 0.08055866 0.02265376
vt 0.08055866 0.02265376
vt 0.08055866 0.02265376
vt 0.08055866 0.02265376
vt 0.08055866 0.02265376
vt 0.08055866 0.02265376
vt 0.08055866 0.02265376
vt 0.08055866 0.02265376
vt 0.08055866 0.02265376
vt 0.08055866 0.02265376
vt 0.08055866 0.02265376
vn 0.06912287 -0.4472534 0.8917323
vn -0.2126223 -0.4368823 0.8740283
vn -0.2523398 -0.0006871716 0.9676385
vn 0.06725866 0.2204125 0.973085
vn 0.5137231 -0.4282458 0.743434
vn 0.3888583 0.3564468 0.8495498
vn 0.574452 0.3534904 0.7382746
vn 0.659287 -0.3794776 0.6491051
vn 0.2523398 -0.0006871754 0.9676385
vn 0.2126226 -0.4368822 0.8740284
vn -0.06912294 -0.4472532 0.8917323
vn -0.06725881 0.2204125 0.973085
vn -0.4993426 -0.3965144 0.7703463
vn -0.3888582 0.3564467 0.8495498
vn -0.5728125 0.3568278 0.7379429
vn -0.6580986 -0.3329288 0.6753256
vn 0.4260969 -0.3484088 0.8348969
vn 0.2018624 -0.5562088 0.8061535
vn 0.3634511 -0.4968098 0.7880884
vn 0.4979446 -0.2644785 0.8258949
vn 0.02465325 -0.536747 0.843383
vn 0.5875821 -0.4094396 0.6979303
vn -0.2126223 -0.4368823 0.8740283
vn -0.5030404 -0.2133333 0.8375197
vn 0.06912287 -0.4472534 0.8917323
vn 0.5137231 -0.4282458 0.743434
vn -0.2523398 -0.0006871716 0.9676385
vn -0.1088414 0.1437974 0.9836036
vn 0.0432294 0.2921282 0.9554017
vn 0.06725866 0.2204125 0.973085
vn 0.659287 -0.3794776 0.6491051
vn 0.9445307 0.0453052 0.325283
vn 0.3546679 0.4666535 0.810213
vn 0.3888583 0.3564468 0.8495498
vn 0.574452 0.3534904 0.7382746
vn 0.5226795 0.456741 0.7198568
vn -0.4013393 -0.403193 0.8224125
vn -0.3446035 -0.4911524 0.8000112
vn -0.2018622 -0.5562091 0.8061533
vn -0.4669715 -0.3418328 0.8155292
vn -0.02465311 -0.5367469 0.843383
vn -0.5665826 -0.3949173 0.7232043
vn 0.2126226 -0.4368822 0.8740284
vn 0.5030408 -0.2133333 0.8375194
vn -0.06912294 -0.4472532 0.8917323
vn -0.4993426 -0.3965144 0.7703463
vn 0.2523398 -0.0006871754 0.9676385
vn 0.1088411 0.1437975 0.9836036
vn -0.04322957 0.2921282 0.9554017
vn -0.06725881 0.2204125 0.973085
vn -0.6580986 -0.3329288 0.6753256
vn -0.94179 0.07418707 0.3279145
vn -0.3546679 0.4666535 0.810213
vn -0.3888582 0.3564467 0.8495498
vn -0.5728125 0.3568278 0.7379429
vn -0.5226793 0.456741 0.7198569
g PatFustyBlink_0
f 3/3/3 2/2/2 1/1/1
f 3/3/3 1/1/1 4/4/4
f 4/4/4 1/1/1 5/5/5
f 4/4/4 5/5/5 6/6/6
f 7/7/7 6/6/6 5/5/5
f 7/7/7 5/5/5 8/8/8
f 11/11/11 10/10/10 9/9/9
f 11/11/11 9/9/9 12/12/12
f 13/13/13 11/11/11 12/12/12
f 13/13/13 12/12/12 14/14/14
f 13/13/13 14/14/14 15/15/15
f 13/13/13 15/15/15 16/16/16
f 19/19/19 18/18/18 17/17/17
f 19/19/19 17/17/17 20/20/20
f 19/19/19 21/21/21 18/18/18
f 19/19/19 20/20/20 22/22/22
f 23/23/23 21/21/21 19/19/19
f 24/24/24 21/21/21 23/23/23
f 23/23/23 19/19/19 25/25/25
f 26/26/26 25/25/25 19/19/19
f 24/24/24 23/23/23 27/27/27
f 28/28/28 24/24/24 27/27/27
f 27/27/27 29/29/29 28/28/28
f 27/27/27 30/30/30 29/29/29
f 31/31/31 26/26/26 19/19/19
f 31/31/31 19/19/19 22/22/22
f 32/32/32 31/31/31 22/22/22
f 30/30/30 33/33/33 29/29/29
f 30/30/30 34/34/34 33/33/33
f 32/32/32 35/35/35 31/31/31
f 35/35/35 33/33/33 34/34/34
f 35/35/35 32/32/32 36/36/36
f 35/35/35 36/36/36 33/33/33
f 39/39/39 38/38/38 37/37/37
f 40/40/40 37/37/37 38/38/38
f 39/39/39 41/41/41 38/38/38
f 40/40/40 38/38/38 42/42/42
f 43/43/43 38/38/38 41/41/41
f 43/43/43 41/41/41 44/44/44
f 43/43/43 45/45/45 38/38/38
f 45/45/45 46/46/46 38/38/38
f 43/43/43 44/44/44 47/47/47
f 44/44/44 48/48/48 47/47/47
f 47/47/47 48/48/48 49/49/49
f 47/47/47 49/49/49 50/50/50
f 38/38/38 46/46/46 51/51/51
f 38/38/38 51/51/51 42/42/42
f 51/51/51 52/52/52 42/42/42
f 50/50/50 49/49/49 53/53/53
f 50/50/50 53/53/53 54/54/54
f 51/51/51 55/55/55 52/52/52
f 53/53/53 55/55/55 54/54/54
f 52/52/52 55/55/55 56/56/56
f 53/53/53 56/56/56 55/55/55
