g pCylinder3
v 5.189697 0.8215895 -10.1665
v 3.352172 0.8215895 -11.48044
v 3.352178 -1.424769 -11.48043
v 5.189698 -1.424769 -10.1665
v 6.917911 -1.424769 -9.404532
v 6.917907 0.8215895 -9.404528
v 9.817899 -1.424769 -6.836592
v 9.817896 0.8215895 -6.836592
v 11.27433 -1.424769 -3.510848
v 11.27433 0.8215895 -3.510847
v 11.61168 0.8215895 -1.432837
v 11.61168 -1.424769 -1.432842
v 12.07541 -1.424769 0.4886156
v 12.07541 0.8215895 0.4886134
v 11.51873 -1.424769 3.881833
v 11.51873 0.8215895 3.881833
v 10.48279 0.8215895 5.694678
v 10.48279 -1.424769 5.694672
v 9.643208 -1.424769 7.342456
v 9.643204 0.8215895 7.342457
v 6.837473 -1.424769 9.658961
v 6.837473 0.8215895 9.658961
v 3.541914 -1.424769 11.48044
v 3.541914 0.8215895 11.48044
v -0.1112443 -1.424769 12.05905
v -0.1112419 0.8215895 12.05904
v -3.764394 -1.424769 11.48044
v -3.764398 0.8215895 11.48044
v -5.412178 0.8215895 10.64086
v -5.412178 -1.424769 10.64086
v -7.344572 -1.424769 9.991012
v -7.344573 0.8215895 9.991013
v 3.352178 -1.424769 -11.48043
v 3.352172 0.8215895 -11.48044
v -0.3009851 0.8215895 -12.05904
v -0.3009782 -1.424769 -12.05905
v -3.954143 0.8215895 -11.48044
v -3.954143 -1.424769 -11.48044
v -6.835259 0.8215895 -9.801265
v -6.835261 -1.424769 -9.801268
v -8.367645 0.8215895 -8.01922
v -8.367645 -1.424769 -8.019217
v -9.675332 -1.424769 -6.711536
v -9.675331 0.8215895 -6.711535
v -11.19759 0.8215895 -3.569796
v -11.19759 -1.424769 -3.569797
v -12.07541 0.8215895 -0.1897402
v -12.07541 -1.424769 -0.1897435
v -11.5245 0.8215895 3.192406
v -11.5245 -1.424769 3.192408
v -10.51491 0.8215895 5.538119
v -10.51491 -1.424769 5.53812
v -9.959941 -1.424769 7.375642
v -9.959945 0.8215895 7.375643
v -7.344573 0.8215895 9.991013
v -7.344572 -1.424769 9.991012
v -4.9958 1.424769 -6.485832
v -3.954143 0.8215895 -11.48044
v -0.3009851 0.8215895 -12.05904
v -6.835259 0.8215895 -9.801265
v -8.367645 0.8215895 -8.01922
v -9.675331 0.8215895 -6.711535
v -11.19759 0.8215895 -3.569796
v 2.456722 1.424769 -7.666195
v 7.792136 1.424769 -2.330782
v 3.352172 0.8215895 -11.48044
v 5.189697 0.8215895 -10.1665
v 6.917907 0.8215895 -9.404528
v 9.817896 0.8215895 -6.836592
v 11.27433 0.8215895 -3.510847
v 11.61168 0.8215895 -1.432837
v 12.07541 0.8215895 0.4886134
v 6.611771 1.424769 5.121738
v 11.51873 0.8215895 3.881833
v 10.48279 0.8215895 5.694678
v 9.643204 0.8215895 7.342457
v 6.837473 0.8215895 9.658961
v 3.541914 0.8215895 11.48044
v -6.60008 1.424769 -1.982651
v -8.204361 1.424769 2.52053
v -12.07541 0.8215895 -0.1897402
v -11.5245 0.8215895 3.192406
v -10.51491 0.8215895 5.538119
v -9.959945 0.8215895 7.375643
v -2.679205 1.424769 8.140555
v -7.344573 0.8215895 9.991013
v -5.412178 0.8215895 10.64086
v -3.764398 0.8215895 11.48044
v -0.1112419 0.8215895 12.05904
v 1.966283 1.424769 6.631147
v -4.995801 -1.424769 -6.485834
v -0.3009782 -1.424769 -12.05905
v -3.954143 -1.424769 -11.48044
v -6.835261 -1.424769 -9.801268
v -8.367645 -1.424769 -8.019217
v -9.675332 -1.424769 -6.711536
v -11.19759 -1.424769 -3.569797
v 2.45672 -1.424769 -7.666196
v 7.792138 -1.424769 -2.330783
v 3.352178 -1.424769 -11.48043
v 5.189698 -1.424769 -10.1665
v 6.917911 -1.424769 -9.404532
v 9.817899 -1.424769 -6.836592
v 11.27433 -1.424769 -3.510848
v 11.61168 -1.424769 -1.432842
v 12.07541 -1.424769 0.4886156
v 6.611771 -1.424769 5.121742
v 11.51873 -1.424769 3.881833
v 10.48279 -1.424769 5.694672
v 9.643208 -1.424769 7.342456
v 6.837473 -1.424769 9.658961
v 3.541914 -1.424769 11.48044
v -6.600079 -1.424769 -1.982648
v -8.204359 -1.424769 2.520525
v -12.07541 -1.424769 -0.1897435
v -11.5245 -1.424769 3.192408
v -10.51491 -1.424769 5.53812
v -9.959941 -1.424769 7.375642
v -2.679205 -1.424769 8.140553
v -7.344572 -1.424769 9.991012
v -5.412178 -1.424769 10.64086
v -3.764394 -1.424769 11.48044
v -0.1112443 -1.424769 12.05905
v 1.966287 -1.424769 6.631142
vt 0.9747126 0.05231077
vt 0.9747126 0.01664401
vt 0.9136799 0.01664401
vt 0.9136799 0.05231077
vt 0.9136799 0.07896425
vt 0.9747126 0.07896425
vt 0.9136799 0.1487526
vt 0.9747126 0.1487526
vt 0.9136799 0.2330909
vt 0.9747126 0.2330909
vt 0.9747126 0.2853678
vt 0.9136799 0.2853678
vt 0.9136799 0.337516
vt 0.9747126 0.337516
vt 0.9136799 0.4367906
vt 0.9747126 0.4367906
vt 0.9747126 0.4790241
vt 0.9136799 0.4790241
vt 0.9136799 0.5237041
vt 0.9747126 0.5237041
vt 0.9136799 0.5909173
vt 0.9747125 0.5909171
vt 0.9136806 0.6804062
vt 0.9747131 0.6804058
vt 0.9136813 0.7796808
vt 0.9747139 0.7796804
vt 0.913682 0.8789553
vt 0.9747146 0.8789548
vt 0.9747149 0.9236994
vt 0.9136823 0.9236998
vt 0.9136827 0.9761698
vt 0.9747153 0.9761693
vt 0.9147325 0.8847005
vt 0.9757652 0.8847012
vt 0.9757664 0.7852978
vt 0.9147337 0.7852972
vt 0.9757675 0.686152
vt 0.9147348 0.6861513
vt 0.9757686 0.5965343
vt 0.9147359 0.596534
vt 0.9757686 0.5481201
vt 0.9147359 0.5481201
vt 0.9147359 0.512582
vt 0.9757686 0.512582
vt 0.9757686 0.4218057
vt 0.9147359 0.4218057
vt 0.9757686 0.3354072
vt 0.9147359 0.3354072
vt 0.9757686 0.2361648
vt 0.9147359 0.2361648
vt 0.9757686 0.1797997
vt 0.9147359 0.1797997
vt 0.9147359 0.1298728
vt 0.9757686 0.1298728
vt 0.9757686 0.05882896
vt 0.9147359 0.05882896
vt 0.6997145 0.6687655
vt 0.8848469 0.6300864
vt 0.9064721 0.4945337
vt 0.8226086 0.7522771
vt 0.7565025 0.7937694
vt 0.7079778 0.842294
vt 0.5840289 0.8869509
vt 0.7434924 0.3922099
vt 0.5455257 0.1942433
vt 0.8848469 0.358981
vt 0.8361465 0.290941
vt 0.7997528 0.2315159
vt 0.7044616 0.1239176
vt 0.5893033 0.06519568
vt 0.5179229 0.05956965
vt 0.4467182 0.03319752
vt 0.26897 0.2381967
vt 0.3111655 0.05464682
vt 0.2534984 0.1015892
vt 0.1924909 0.1327083
vt 0.100716 0.2297577
vt 0.03320331 0.3519485
vt 0.5325153 0.7281907
vt 0.365492 0.7877916
vt 0.4660577 0.9312561
vt 0.330505 0.9203556
vt 0.2534984 0.8734132
vt 0.1854583 0.8528429
vt 0.1569764 0.5827924
vt 0.08840897 0.7557935
vt 0.06432243 0.6840613
vt 0.03320331 0.6230538
vt 0.01175399 0.4875012
vt 0.2130611 0.4104946
vt 0.6997145 0.6687655
vt 0.9064721 0.4945337
vt 0.8848469 0.6300864
vt 0.8226086 0.7522771
vt 0.7565025 0.7937694
vt 0.7079778 0.842294
vt 0.5840289 0.8869509
vt 0.7434924 0.3922099
vt 0.5455257 0.1942433
vt 0.8848469 0.358981
vt 0.8361465 0.290941
vt 0.7997528 0.2315159
vt 0.7044616 0.1239176
vt 0.5893033 0.06519568
vt 0.5179229 0.05956965
vt 0.4467182 0.03319752
vt 0.26897 0.2381967
vt 0.3111655 0.05464682
vt 0.2534984 0.1015892
vt 0.1924909 0.1327083
vt 0.100716 0.2297577
vt 0.03320331 0.3519485
vt 0.5325153 0.7281907
vt 0.365492 0.7877916
vt 0.4660577 0.9312561
vt 0.330505 0.9203556
vt 0.2534984 0.8734132
vt 0.1854583 0.8528429
vt 0.1569764 0.5827924
vt 0.08840897 0.7557935
vt 0.06432243 0.6840613
vt 0.03320331 0.6230538
vt 0.01175399 0.4875012
vt 0.2130611 0.4104946
vn 0.4070339 0.5832441 -0.7029579
vn 0.2668745 0.5646843 -0.7809671
vn 0.32587 1.438038E-07 -0.9454146
vn 0.5031288 8.438074E-07 -0.8642115
vn 0.5840275 1.678082E-06 -0.811734
vn 0.2733084 0.8940475 -0.3549387
vn 0.8041618 5.174617E-07 -0.5944104
vn 0.4140942 0.8508175 -0.3234743
vn 0.9490759 -1.044227E-06 -0.3150474
vn 0.7865137 0.5595272 -0.2613913
vn 0.8006377 0.5770075 -0.1613743
vn 0.9805245 -1.240426E-06 -0.1963969
vn 0.9998471 -1.154394E-06 0.01748763
vn 0.4327442 0.9012658 0.02127077
vn 0.9562548 -1.347617E-06 0.292535
vn 0.4229298 0.8987616 0.1155766
vn 0.707158 0.593812 0.3838162
vn 0.8791838 -9.162242E-07 0.4764828
vn 0.7361004 1.05282E-07 0.6768724
vn 0.6195866 0.5406561 0.5690371
vn 0.5612993 6.175518E-07 0.8276129
vn 0.3038022 0.8245059 0.4773827
vn 0.3264739 1.191064E-06 0.9452062
vn 0.1638194 0.8628737 0.4781339
vn -2.954592E-07 1.009675E-06 1
vn 0.01983407 0.8227761 0.5680194
vn -0.2584465 1.029918E-07 0.9660256
vn -0.218898 0.5316319 0.8182001
vn -0.3147915 0.566334 0.7616904
vn -0.3841074 -6.53191E-07 0.9232884
vn -0.5832246 -9.412536E-07 0.812311
vn -0.2687496 0.8990346 0.3457026
vn 0.32587 1.438038E-07 -0.9454146
vn 0.2668745 0.5646843 -0.7809671
vn -0.01320729 0.8708737 -0.4913294
vn 4.924316E-07 6.459355E-07 -1
vn -0.1441943 0.8744271 -0.4632336
vn -0.3265827 1.24247E-06 -0.9451686
vn -0.5082631 0.563598 -0.6511728
vn -0.6171013 9.653601E-07 -0.7868838
vn -0.605823 0.5672477 -0.5578605
vn -0.7362254 1.27546E-07 -0.6767364
vn -0.8437911 3.042552E-07 -0.5366719
vn -0.4380911 0.8607372 -0.2592444
vn -0.459807 0.871901 -0.1684222
vn -0.9384685 4.484852E-07 -0.3453651
vn -0.5716055 0.8191197 -0.04806283
vn -0.9988335 -1.758624E-07 -0.04828759
vn -0.8191115 0.5287288 0.2224908
vn -0.9648342 -5.888172E-07 0.2628594
vn -0.7982595 0.5243236 0.2964231
vn -0.9366349 -7.225654E-07 0.350307
vn -0.8146233 -1.105115E-06 0.5799903
vn -0.3405655 0.9028709 0.2623722
vn -0.2687496 0.8990346 0.3457026
vn -0.5832246 -9.412536E-07 0.812311
vn -0.02172722 0.9992855 -0.03092757
vn -0.1441943 0.8744271 -0.4632336
vn -0.01320729 0.8708737 -0.4913294
vn -0.5082631 0.563598 -0.6511728
vn -0.605823 0.5672477 -0.5578605
vn -0.4380911 0.8607372 -0.2592444
vn -0.459807 0.871901 -0.1684222
vn 0.01123868 0.9993111 -0.03536766
vn 0.03478424 0.9993172 -0.01245656
vn 0.2668745 0.5646843 -0.7809671
vn 0.4070339 0.5832441 -0.7029579
vn 0.2733084 0.8940475 -0.3549387
vn 0.4140942 0.8508175 -0.3234743
vn 0.7865137 0.5595272 -0.2613913
vn 0.8006377 0.5770075 -0.1613743
vn 0.4327442 0.9012658 0.02127077
vn 0.03066053 0.9992561 0.02339119
vn 0.4229298 0.8987616 0.1155766
vn 0.707158 0.593812 0.3838162
vn 0.6195866 0.5406561 0.5690371
vn 0.3038022 0.8245059 0.4773827
vn 0.1638194 0.8628737 0.4781339
vn -0.03139006 0.9994428 -0.01134701
vn -0.04858132 0.9987154 0.01440269
vn -0.5716055 0.8191197 -0.04806283
vn -0.8191115 0.5287288 0.2224908
vn -0.7982595 0.5243236 0.2964231
vn -0.3405655 0.9028709 0.2623722
vn -0.01577822 0.9986772 0.04893715
vn -0.2687496 0.8990346 0.3457026
vn -0.3147915 0.566334 0.7616904
vn -0.218898 0.5316319 0.8182001
vn 0.01983407 0.8227761 0.5680194
vn 0.01079214 0.9994186 0.03234253
vn 0 -1 0
vn 0 -1 0
vn 0 -1 0
vn 0 -1 0
vn 0 -1 0
vn 0 -1 0
vn 0 -1 0
vn 0 -1 0
vn 0 -1 0
vn 0 -1 0
vn 0 -1 0
vn 0 -1 0
vn 0 -1 0
vn 0 -1 0
vn 0 -1 0
vn 0 -1 0
vn 0 -1 0
vn 0 -1 0
vn 0 -1 0
vn 0 -1 0
vn 0 -1 0
vn 0 -1 0
vn 0 -1 0
vn 0 -1 0
vn 0 -1 0
vn 0 -1 0
vn 0 -1 0
vn 0 -1 0
vn 0 -1 0
vn 0 -1 0
vn 0 -1 0
vn 0 -1 0
vn 0 -1 0
vn 0 -1 0
g pCylinder3_0
f 3/3/3 2/2/2 1/1/1
f 4/4/4 3/3/3 1/1/1
f 4/4/4 1/1/1 5/5/5
f 1/1/1 6/6/6 5/5/5
f 5/5/5 6/6/6 7/7/7
f 6/6/6 8/8/8 7/7/7
f 7/7/7 8/8/8 9/9/9
f 8/8/8 10/10/10 9/9/9
f 9/9/9 10/10/10 11/11/11
f 12/12/12 9/9/9 11/11/11
f 12/12/12 11/11/11 13/13/13
f 11/11/11 14/14/14 13/13/13
f 13/13/13 14/14/14 15/15/15
f 14/14/14 16/16/16 15/15/15
f 15/15/15 16/16/16 17/17/17
f 18/18/18 15/15/15 17/17/17
f 18/18/18 17/17/17 19/19/19
f 17/17/17 20/20/20 19/19/19
f 19/19/19 20/20/20 21/21/21
f 20/20/20 22/22/22 21/21/21
f 21/21/21 22/22/22 23/23/23
f 22/22/22 24/24/24 23/23/23
f 23/23/23 24/24/24 25/25/25
f 24/24/24 26/26/26 25/25/25
f 25/25/25 26/26/26 27/27/27
f 26/26/26 28/28/28 27/27/27
f 27/27/27 28/28/28 29/29/29
f 30/30/30 27/27/27 29/29/29
f 30/30/30 29/29/29 31/31/31
f 29/29/29 32/32/32 31/31/31
f 35/35/35 34/34/34 33/33/33
f 36/36/36 35/35/35 33/33/33
f 37/37/37 35/35/35 36/36/36
f 38/38/38 37/37/37 36/36/36
f 39/39/39 37/37/37 38/38/38
f 40/40/40 39/39/39 38/38/38
f 41/41/41 39/39/39 40/40/40
f 42/42/42 41/41/41 40/40/40
f 42/42/42 43/43/43 41/41/41
f 43/43/43 44/44/44 41/41/41
f 45/45/45 44/44/44 43/43/43
f 46/46/46 45/45/45 43/43/43
f 47/47/47 45/45/45 46/46/46
f 48/48/48 47/47/47 46/46/46
f 49/49/49 47/47/47 48/48/48
f 50/50/50 49/49/49 48/48/48
f 51/51/51 49/49/49 50/50/50
f 52/52/52 51/51/51 50/50/50
f 52/52/52 53/53/53 51/51/51
f 53/53/53 54/54/54 51/51/51
f 55/55/55 54/54/54 53/53/53
f 56/56/56 55/55/55 53/53/53
f 59/59/59 58/58/58 57/57/57
f 58/58/58 60/60/60 57/57/57
f 57/57/57 60/60/60 61/61/61
f 61/61/61 62/62/62 57/57/57
f 57/57/57 62/62/62 63/63/63
f 64/64/64 59/59/59 57/57/57
f 64/64/64 57/57/57 65/65/65
f 64/64/64 66/66/66 59/59/59
f 67/67/67 66/66/66 64/64/64
f 67/67/67 64/64/64 68/68/68
f 69/69/69 68/68/68 64/64/64
f 65/65/65 69/69/69 64/64/64
f 69/69/69 65/65/65 70/70/70
f 71/71/71 70/70/70 65/65/65
f 72/72/72 71/71/71 65/65/65
f 57/57/57 73/73/73 65/65/65
f 73/73/73 74/74/74 65/65/65
f 74/74/74 72/72/72 65/65/65
f 73/73/73 75/75/75 74/74/74
f 75/75/75 73/73/73 76/76/76
f 76/76/76 73/73/73 77/77/77
f 78/78/78 77/77/77 73/73/73
f 57/57/57 79/79/79 73/73/73
f 79/79/79 57/57/57 63/63/63
f 79/79/79 63/63/63 80/80/80
f 63/63/63 81/81/81 80/80/80
f 82/82/82 80/80/80 81/81/81
f 83/83/83 80/80/80 82/82/82
f 80/80/80 83/83/83 84/84/84
f 85/85/85 80/80/80 84/84/84
f 86/86/86 85/85/85 84/84/84
f 86/86/86 87/87/87 85/85/85
f 87/87/87 88/88/88 85/85/85
f 89/89/89 85/85/85 88/88/88
f 85/85/85 89/89/89 78/78/78
f 90/90/90 78/78/78 73/73/73
f 79/79/79 90/90/90 73/73/73
f 79/79/79 80/80/80 90/90/90
f 80/80/80 85/85/85 90/90/90
f 90/90/90 85/85/85 78/78/78
f 93/93/93 92/92/92 91/91/91
f 94/94/94 93/93/93 91/91/91
f 94/94/94 91/91/91 95/95/95
f 96/96/96 95/95/95 91/91/91
f 96/96/96 91/91/91 97/97/97
f 92/92/92 98/98/98 91/91/91
f 91/91/91 98/98/98 99/99/99
f 100/100/100 98/98/98 92/92/92
f 100/100/100 101/101/101 98/98/98
f 98/98/98 101/101/101 102/102/102
f 102/102/102 103/103/103 98/98/98
f 103/103/103 99/99/99 98/98/98
f 99/99/99 103/103/103 104/104/104
f 104/104/104 105/105/105 99/99/99
f 105/105/105 106/106/106 99/99/99
f 107/107/107 91/91/91 99/99/99
f 108/108/108 107/107/107 99/99/99
f 106/106/106 108/108/108 99/99/99
f 109/109/109 107/107/107 108/108/108
f 107/107/107 109/109/109 110/110/110
f 107/107/107 110/110/110 111/111/111
f 111/111/111 112/112/112 107/107/107
f 113/113/113 91/91/91 107/107/107
f 91/91/91 113/113/113 97/97/97
f 97/97/97 113/113/113 114/114/114
f 115/115/115 97/97/97 114/114/114
f 114/114/114 116/116/116 115/115/115
f 114/114/114 117/117/117 116/116/116
f 117/117/117 114/114/114 118/118/118
f 114/114/114 119/119/119 118/118/118
f 119/119/119 120/120/120 118/118/118
f 121/121/121 120/120/120 119/119/119
f 122/122/122 121/121/121 119/119/119
f 119/119/119 123/123/123 122/122/122
f 123/123/123 119/119/119 112/112/112
f 112/112/112 124/124/124 107/107/107
f 124/124/124 113/113/113 107/107/107
f 114/114/114 113/113/113 124/124/124
f 119/119/119 114/114/114 124/124/124
f 119/119/119 124/124/124 112/112/112
