g PineTreeGeo
v -0.4295614 59.37509 9.441447
v -0.4295614 50.49071 15.53582
v -8.049547 46.12382 18.83001
v -3.876665 59.37509 8.755781
v -0.4295614 80.02813 0.4337856
v -11.10833 50.49071 11.11251
v -6.798965 59.37509 6.803149
v -18.82582 46.12382 8.053737
v -8.75158 59.37509 3.880843
v -15.53161 50.49071 0.4337513
v -9.437252 59.37509 0.4337856
v -18.82582 46.12382 -7.186223
v -8.75158 59.37509 -3.013346
v -11.10833 50.49071 -10.245
v -6.798965 59.37509 -5.935624
v -8.049536 46.12382 -17.9625
v -3.876665 59.37509 -7.888255
v -0.4295614 59.37509 -8.573927
v -0.4295614 50.49071 -14.66829
v -0.4295614 59.37509 -8.573927
v -0.4295614 50.49071 -14.66829
v 7.190418 46.12382 -17.9625
v 3.01753 59.37509 -7.888255
v -0.4295614 80.02813 0.4337856
v 10.24919 50.49071 -10.24499
v 5.939813 59.37509 -5.935624
v 17.9667 46.12382 -7.186211
v 7.892445 59.37509 -3.013335
v 14.67248 50.49071 0.4337856
v 8.578111 59.37509 0.4337856
v 17.96669 46.12382 8.053737
v 7.892445 59.37509 3.880843
v 10.24919 50.49071 11.11252
v 5.939813 59.37509 6.803149
v 7.190406 46.12382 18.83001
v 3.01753 59.37509 8.755781
v -0.4295614 59.37509 9.441447
v -0.4295614 50.49071 15.53582
v 1.05352 45.09432 12.66492
v 2.056947 32.15214 20.94022
v -7.74753 25.79075 26.66787
v -3.740045 45.09432 12.30145
v -0.4295663 75.18034 0.433801
v -13.17158 32.15214 16.69223
v -8.029606 45.09432 10.13119
v -24.15446 25.79075 13.8095
v -11.16213 45.09432 6.484612
v -20.93599 32.15214 2.920256
v -12.66072 45.09432 1.916887
v -26.66368 25.79075 -6.884206
v -12.29724 45.09432 -2.876726
v -16.68804 32.15214 -12.30824
v -10.12701 45.09432 -7.166257
v -13.80529 25.79075 -23.29113
v -6.480436 45.09432 -10.29881
v -1.912652 45.09432 -11.7974
v -2.91608 32.15214 -20.07269
v -1.912652 45.09432 -11.7974
v -2.91608 32.15214 -20.07269
v 6.888392 25.79075 -25.80035
v 2.880902 45.09432 -11.43391
v -0.4295663 75.18034 0.433801
v 12.31244 32.15214 -15.82469
v 7.170443 45.09432 -9.263659
v 23.29534 25.79075 -12.94197
v 10.30298 45.09432 -5.617097
v 20.07688 32.15214 -2.052713
v 11.80159 45.09432 -1.049295
v 25.80454 25.79075 7.751721
v 11.43809 45.09432 3.744221
v 15.8289 32.15214 13.17578
v 9.267845 45.09432 8.033792
v 12.94618 25.79075 24.15866
v 5.621293 45.09432 11.16633
v 1.05352 45.09432 12.66492
v 2.056947 32.15214 20.94022
v -0.4295712 34.36779 0.4337912
v 4.761327 14.89487 -21.71392
v 17.06858 12.01595 -23.92584
v 18.90168 14.89487 -11.55647
v 29.1683 12.01595 -4.418015
v 21.71809 14.89487 5.624671
v 23.93 12.01595 17.93188
v 11.56067 14.89487 19.76503
v 4.422216 12.01595 30.03162
v -5.62044 14.89487 22.58143
v -0.4295712 34.36779 0.4337912
v -5.281339 12.01595 -29.16412
v 4.761327 14.89487 -21.71392
v -12.41983 14.89487 -18.89751
v -24.78915 12.01595 -17.06437
v -22.57721 14.89487 -4.757136
v -30.02744 12.01595 5.285549
v -19.76084 14.89487 12.424
v -17.9277 12.01595 24.79334
v -5.62044 14.89487 22.58143
v 6.156143 16.92122 -11.58373
v 10.72866 4.944324 -18.88509
v 22.91024 1.330837 -17.46904
v 13.73384 14.67341 -10.70287
v 21.12095 4.944324 -5.33664
v 12.62078 16.92122 -3.155768
v 28.73335 1.330837 4.278312
v 17.35616 14.67341 2.825322
v 18.88926 4.944324 11.59202
v 11.23254 16.92122 7.374898
v 17.47322 1.330837 23.77356
v 10.35168 14.67341 14.95256
v 5.340854 4.944324 21.9843
v 2.804596 16.92122 13.83954
v -4.274116 1.330837 29.59667
v -3.176506 14.67341 18.5749
v -11.5878 4.944324 19.75262
v -7.726064 16.92122 12.45129
v 1.606586 14.67341 -17.70735
v 10.72866 4.944324 -18.88509
v 6.156143 16.92122 -11.58373
v 3.414984 1.330837 -28.72915
v -4.374528 16.92122 -12.97198
v -6.200006 4.944324 -21.11677
v -11.9216 14.67341 -14.08502
v -18.33237 1.330837 -22.90605
v -12.80246 16.92122 -6.507327
v -19.7484 4.944324 -10.72447
v -16.79732 15.83971 -1.690532
v -29.59249 1.330837 -3.410779
v -14.19072 16.92122 4.023333
v -21.98011 4.944324 6.204183
v -15.30375 14.67341 11.57041
v -23.76937 1.330837 18.33655
v -7.726064 16.92122 12.45129
v -11.5878 4.944324 19.75262
vt 0.05279147 0.7499302
vt 0.0142832 0.8873762
vt 0.07851925 0.980023
vt 0.09310781 0.7528364
vt 0.0682919 0.4410113
vt 0.1527241 0.892786
vt 0.1343071 0.7483103
vt 0.2447245 0.954858
vt 0.175292 0.7374327
vt 0.2822354 0.8491793
vt 0.2145656 0.7200835
vt 0.390486 0.8784556
vt 0.2511798 0.6976568
vt 0.3917818 0.7674812
vt 0.2834426 0.6701417
vt 0.5057418 0.7560879
vt 0.3106046 0.6388349
vt 0.3311521 0.6040264
vt 0.466094 0.6505516
vt 0.05232777 0.7494827
vt 0.01331433 0.8867764
vt 0.07720526 0.9796557
vt 0.09262493 0.7525245
vt 0.06878444 0.4406309
vt 0.1517106 0.8926824
vt 0.133819 0.7481403
vt 0.2434627 0.9550832
vt 0.1748128 0.7374072
vt 0.2813221 0.8495434
vt 0.2141173 0.7202001
vt 0.3894331 0.8792195
vt 0.2507819 0.6979147
vt 0.391105 0.7682627
vt 0.2831235 0.6705257
vt 0.5050889 0.7573019
vt 0.3103872 0.6393252
vt 0.331059 0.6045956
vt 0.465829 0.6516224
vt 0.7681643 0.4644883
vt 0.9163645 0.4474765
vt 0.9806456 0.3487378
vt 0.7550567 0.4243302
vt 0.4631301 0.5714719
vt 0.8669332 0.3113833
vt 0.734409 0.3862525
vt 0.8906669 0.1978525
vt 0.7077001 0.3508903
vt 0.7735991 0.2032854
vt 0.6754051 0.3197393
vt 0.7591826 0.08698066
vt 0.6392468 0.2931665
vt 0.6512907 0.1295469
vt 0.5998834 0.2728135
vt 0.5952675 0.02377669
vt 0.5588652 0.2588932
vt 0.5170704 0.2527558
vt 0.5088047 0.1038132
vt 0.7679145 0.4651137
vt 0.9161665 0.4486508
vt 0.9808092 0.3501543
vt 0.7549456 0.4249206
vt 0.4625675 0.5711454
vt 0.8672331 0.3124048
vt 0.7344372 0.3867919
vt 0.8913831 0.1989845
vt 0.7078647 0.3513639
vt 0.774312 0.2040255
vt 0.6756949 0.320127
vt 0.7603375 0.08769776
vt 0.6396536 0.2934496
vt 0.6523142 0.1298932
vt 0.600381 0.2729705
vt 0.5967 0.02392922
vt 0.5594255 0.25891
vt 0.5176581 0.2526213
vt 0.5099456 0.1036468
vt 0.4502066 0.5936428
vt 0.716415 0.9559351
vt 0.826651 0.9795288
vt 0.8210356 0.8651442
vt 0.9305764 0.8474504
vt 0.8855774 0.7447514
vt 0.9845225 0.6920397
vt 0.9095067 0.6102663
vt 0.9848005 0.5239918
vt 0.8836682 0.4741744
vt 0.4501098 0.5942575
vt 0.9844409 0.522661
vt 0.8831251 0.4732143
vt 0.9094617 0.6092334
vt 0.9847627 0.6907611
vt 0.885991 0.7438592
vt 0.9313386 0.84642
vt 0.8218432 0.8645234
vt 0.8278582 0.9788933
vt 0.7175313 0.9557055
vt 0.4689978 0.4036508
vt 0.5019423 0.1812877
vt 0.4402409 0.08693953
vt 0.4381471 0.3564767
vt 0.3637219 0.1721466
vt 0.3998876 0.3990803
vt 0.2734543 0.1076171
vt 0.3547538 0.3668155
vt 0.233137 0.2122425
vt 0.3345951 0.4191282
vt 0.1257496 0.1800462
vt 0.2809014 0.4030301
vt 0.1214831 0.2909335
vt 0.2787682 0.4584737
vt 0.007274144 0.2992256
vt 0.2216637 0.4626198
vt 0.0440517 0.4057943
vt 0.2400525 0.5159041
vt 0.2215738 0.4630346
vt 0.04376163 0.4068587
vt 0.2401581 0.5162519
vt 0.006593071 0.300424
vt 0.2786714 0.4586721
vt 0.1207882 0.291699
vt 0.2806168 0.4032153
vt 0.1246792 0.1807853
vt 0.3343849 0.4191152
vt 0.2322153 0.2125852
vt 0.3543269 0.36659
vt 0.2721876 0.1078127
vt 0.3996328 0.3988323
vt 0.3627111 0.1720193
vt 0.4377452 0.3560934
vt 0.4389358 0.08654158
vt 0.4687711 0.4031553
vt 0.5009878 0.1806654
vn -0.02982718 0.5333915 0.8453425
vn -0.03324434 0.5944996 0.8034083
vn -0.3351673 0.5990971 0.7271489
vn -0.350162 0.5294915 0.7726741
vn -0.05583336 0.9984401 2.049492E-06
vn -0.6004542 0.5627812 0.5680953
vn -0.6266429 0.5000176 0.5977467
vn -0.7604566 0.575315 0.3011949
vn -0.8020774 0.5042205 0.3200524
vn -0.8353996 0.549643 1.060413E-07
vn -0.8738509 0.4861941 1.712778E-07
vn -0.7604569 0.5753151 -0.3011943
vn -0.8020777 0.5042207 -0.3200514
vn -0.6004534 0.5627813 -0.568096
vn -0.6266416 0.5000182 -0.5977476
vn -0.335167 0.5990973 -0.7271488
vn -0.3501619 0.5294921 -0.7726738
vn -0.02982724 0.5333922 -0.845342
vn -0.03324434 0.5944996 -0.8034083
vn -0.02982724 0.5333922 -0.845342
vn -0.03324434 0.5944996 -0.8034083
vn 0.2662844 0.6327307 -0.7271482
vn 0.2889462 0.565231 -0.7726733
vn -0.05583336 0.9984401 2.049492E-06
vn 0.5339652 0.6262177 -0.5680956
vn 0.5669879 0.5667654 -0.5977473
vn 0.6915726 0.656513 -0.3011942
vn 0.7408602 0.5905019 -0.3200524
vn 0.7689105 0.6393565 3.81244E-07
vn 0.8141962 0.5805898 2.324487E-07
vn 0.6915718 0.6565129 0.3011961
vn 0.7408599 0.5905017 0.3200536
vn 0.5339651 0.626218 0.5680953
vn 0.5669885 0.5667652 0.5977468
vn 0.2662838 0.6327302 0.7271488
vn 0.2889459 0.5652303 0.772674
vn -0.02982718 0.5333915 0.8453425
vn -0.03324434 0.5944996 0.8034083
vn 0.06914592 0.5145138 0.8546897
vn 0.05828531 0.5751126 0.8159953
vn -0.2466139 0.5788949 0.7772145
vn -0.2561403 0.5100509 0.8211214
vn -0.05583138 0.9984402 -5.168086E-07
vn -0.5430684 0.5411753 0.6420327
vn -0.5619572 0.4794018 0.6740755
vn -0.7341917 0.5503433 0.397599
vn -0.7699673 0.4810349 0.4192323
vn -0.8460854 0.5239965 0.09781171
vn -0.8811135 0.4615936 0.102813
vn -0.8090577 0.5459475 -0.2176395
vn -0.8486734 0.4765753 -0.2294111
vn -0.6805916 0.533385 -0.5022903
vn -0.7067125 0.4713289 -0.5276424
vn -0.4262618 0.5684113 -0.7037112
vn -0.4457025 0.4993731 -0.7429507
vn -0.137633 0.5030263 -0.8532419
vn -0.1390371 0.5640008 -0.8139851
vn -0.137633 0.5030263 -0.8532419
vn -0.1390371 0.5640008 -0.8139851
vn 0.1855888 0.6040179 -0.7750608
vn 0.2010302 0.5357016 -0.8201285
vn -0.05583138 0.9984402 -5.168086E-07
vn 0.4684727 0.5981492 -0.6501929
vn 0.4979007 0.5382944 -0.6799514
vn 0.6674833 0.6318009 -0.394073
vn 0.7122536 0.5641885 -0.4175957
vn 0.7816551 0.6156723 -0.0998141
vn 0.8243765 0.5563581 -0.1042547
vn 0.7409669 0.6360202 0.2155143
vn 0.7903222 0.5685188 0.2284231
vn 0.6100091 0.6060719 0.5104562
vn 0.6455469 0.5464652 0.5335212
vn 0.3638298 0.6143239 0.7001671
vn 0.3899541 0.54625 0.7413142
vn 0.06914592 0.5145138 0.8546897
vn 0.05828531 0.5751126 0.8159953
vn -0.07903989 0.9968714 3.968231E-07
vn 0.08527458 0.7670543 -0.6358898
vn 0.2779814 0.8241838 -0.4934039
vn 0.4964816 0.7952855 -0.3478896
vn 0.5293095 0.842581 -0.09944206
vn 0.5793839 0.800961 0.1509167
vn 0.419785 0.8345709 0.3567522
vn 0.2819349 0.7805858 0.5578517
vn 0.02135351 0.8053414 0.5924267
vn -0.2111596 0.7465795 0.6308967
vn -0.07903989 0.9968714 3.968231E-07
vn -0.1713868 0.791153 -0.5871145
vn 0.08527458 0.7670543 -0.6358898
vn -0.4027433 0.7333021 -0.5477827
vn -0.5487694 0.7632746 -0.3409751
vn -0.6851434 0.7136411 -0.1459276
vn -0.6478469 0.7559334 0.09412242
vn -0.6073059 0.7190624 0.3378294
vn -0.4175728 0.7729793 0.4776358
vn -0.2111596 0.7465795 0.6308967
vn 0.3575259 0.617096 -0.7009763
vn 0.3536564 0.6167021 -0.7032821
vn 0.5487982 0.6999642 -0.4570238
vn 0.5431838 0.6994063 -0.4645236
vn 0.7250364 0.6563319 -0.2086875
vn 0.7253649 0.6563653 -0.2074375
vn 0.6925551 0.7147264 0.09764025
vn 0.6922955 0.7147006 0.09964986
vn 0.6457331 0.6478453 0.4041353
vn 0.6469822 0.647972 0.4019282
vn 0.4131224 0.6859579 0.5989922
vn 0.4035126 0.6850021 0.6065886
vn 0.1591127 0.5958948 0.787142
vn 0.1640623 0.5964009 0.7857414
vn -0.1441261 0.6285996 0.764258
vn -0.1596277 0.6270531 0.7624456
vn -0.460213 0.529636 0.7125234
vn -0.4559301 0.5300773 0.7149447
vn 0.04017623 0.6476322 -0.760893
vn 0.3536564 0.6167021 -0.7032821
vn 0.3575259 0.617096 -0.7009763
vn 0.05555092 0.6491649 -0.7586166
vn -0.2565967 0.5513955 -0.7938017
vn -0.2617869 0.5508628 -0.7924757
vn -0.5271826 0.5891043 -0.6124007
vn -0.5170145 0.590121 -0.6200429
vn -0.7613071 0.5130336 -0.3964947
vn -0.769886 0.5104083 -0.3830911
vn -0.8120601 0.5749444 -0.09998674
vn -0.8119295 0.5749572 -0.1009691
vn -0.8404524 0.5047954 0.1970312
vn -0.8449472 0.5026674 0.1827285
vn -0.6699681 0.5744028 0.4703234
vn -0.6639363 0.5750067 0.4780752
vn -0.4559301 0.5300773 0.7149447
vn -0.460213 0.529636 0.7125234
g PineTreeGeo_0
f 3/3/3 2/2/2 1/1/1
f 4/4/4 3/3/3 1/1/1
f 1/1/1 5/5/5 4/4/4
f 6/6/6 3/3/3 4/4/4
f 7/7/7 6/6/6 4/4/4
f 4/4/4 5/5/5 7/7/7
f 8/8/8 6/6/6 7/7/7
f 9/9/9 8/8/8 7/7/7
f 7/7/7 5/5/5 9/9/9
f 10/10/10 8/8/8 9/9/9
f 11/11/11 10/10/10 9/9/9
f 9/9/9 5/5/5 11/11/11
f 12/12/12 10/10/10 11/11/11
f 13/13/13 12/12/12 11/11/11
f 11/11/11 5/5/5 13/13/13
f 14/14/14 12/12/12 13/13/13
f 15/15/15 14/14/14 13/13/13
f 13/13/13 5/5/5 15/15/15
f 16/16/16 14/14/14 15/15/15
f 15/15/15 5/5/5 17/17/17
f 17/17/17 16/16/16 15/15/15
f 17/17/17 5/5/5 18/18/18
f 19/19/19 16/16/16 17/17/17
f 18/18/18 19/19/19 17/17/17
f 22/22/22 21/21/21 20/20/20
f 23/23/23 22/22/22 20/20/20
f 20/20/20 24/24/24 23/23/23
f 25/25/25 22/22/22 23/23/23
f 26/26/26 25/25/25 23/23/23
f 23/23/23 24/24/24 26/26/26
f 27/27/27 25/25/25 26/26/26
f 28/28/28 27/27/27 26/26/26
f 26/26/26 24/24/24 28/28/28
f 29/29/29 27/27/27 28/28/28
f 30/30/30 29/29/29 28/28/28
f 28/28/28 24/24/24 30/30/30
f 31/31/31 29/29/29 30/30/30
f 32/32/32 31/31/31 30/30/30
f 30/30/30 24/24/24 32/32/32
f 33/33/33 31/31/31 32/32/32
f 34/34/34 33/33/33 32/32/32
f 32/32/32 24/24/24 34/34/34
f 35/35/35 33/33/33 34/34/34
f 34/34/34 24/24/24 36/36/36
f 36/36/36 35/35/35 34/34/34
f 36/36/36 24/24/24 37/37/37
f 38/38/38 35/35/35 36/36/36
f 37/37/37 38/38/38 36/36/36
f 41/41/41 40/40/40 39/39/39
f 42/42/42 41/41/41 39/39/39
f 39/39/39 43/43/43 42/42/42
f 44/44/44 41/41/41 42/42/42
f 45/45/45 44/44/44 42/42/42
f 42/42/42 43/43/43 45/45/45
f 46/46/46 44/44/44 45/45/45
f 47/47/47 46/46/46 45/45/45
f 45/45/45 43/43/43 47/47/47
f 48/48/48 46/46/46 47/47/47
f 49/49/49 48/48/48 47/47/47
f 47/47/47 43/43/43 49/49/49
f 50/50/50 48/48/48 49/49/49
f 51/51/51 50/50/50 49/49/49
f 49/49/49 43/43/43 51/51/51
f 52/52/52 50/50/50 51/51/51
f 53/53/53 52/52/52 51/51/51
f 51/51/51 43/43/43 53/53/53
f 54/54/54 52/52/52 53/53/53
f 53/53/53 43/43/43 55/55/55
f 55/55/55 54/54/54 53/53/53
f 55/55/55 43/43/43 56/56/56
f 57/57/57 54/54/54 55/55/55
f 56/56/56 57/57/57 55/55/55
f 60/60/60 59/59/59 58/58/58
f 61/61/61 60/60/60 58/58/58
f 58/58/58 62/62/62 61/61/61
f 63/63/63 60/60/60 61/61/61
f 64/64/64 63/63/63 61/61/61
f 61/61/61 62/62/62 64/64/64
f 65/65/65 63/63/63 64/64/64
f 66/66/66 65/65/65 64/64/64
f 64/64/64 62/62/62 66/66/66
f 67/67/67 65/65/65 66/66/66
f 68/68/68 67/67/67 66/66/66
f 66/66/66 62/62/62 68/68/68
f 69/69/69 67/67/67 68/68/68
f 70/70/70 69/69/69 68/68/68
f 68/68/68 62/62/62 70/70/70
f 71/71/71 69/69/69 70/70/70
f 72/72/72 71/71/71 70/70/70
f 70/70/70 62/62/62 72/72/72
f 73/73/73 71/71/71 72/72/72
f 72/72/72 62/62/62 74/74/74
f 74/74/74 73/73/73 72/72/72
f 74/74/74 62/62/62 75/75/75
f 76/76/76 73/73/73 74/74/74
f 75/75/75 76/76/76 74/74/74
f 79/79/79 78/78/78 77/77/77
f 80/80/80 79/79/79 77/77/77
f 81/81/81 80/80/80 77/77/77
f 82/82/82 81/81/81 77/77/77
f 83/83/83 82/82/82 77/77/77
f 84/84/84 83/83/83 77/77/77
f 85/85/85 84/84/84 77/77/77
f 86/86/86 85/85/85 77/77/77
f 89/89/89 88/88/88 87/87/87
f 88/88/88 90/90/90 87/87/87
f 90/90/90 91/91/91 87/87/87
f 91/91/91 92/92/92 87/87/87
f 92/92/92 93/93/93 87/87/87
f 93/93/93 94/94/94 87/87/87
f 94/94/94 95/95/95 87/87/87
f 95/95/95 96/96/96 87/87/87
f 99/99/99 98/98/98 97/97/97
f 100/100/100 99/99/99 97/97/97
f 101/101/101 99/99/99 100/100/100
f 102/102/102 101/101/101 100/100/100
f 103/103/103 101/101/101 102/102/102
f 104/104/104 103/103/103 102/102/102
f 105/105/105 103/103/103 104/104/104
f 106/106/106 105/105/105 104/104/104
f 107/107/107 105/105/105 106/106/106
f 108/108/108 107/107/107 106/106/106
f 109/109/109 107/107/107 108/108/108
f 110/110/110 109/109/109 108/108/108
f 111/111/111 109/109/109 110/110/110
f 112/112/112 111/111/111 110/110/110
f 113/113/113 111/111/111 112/112/112
f 114/114/114 113/113/113 112/112/112
f 117/117/117 116/116/116 115/115/115
f 116/116/116 118/118/118 115/115/115
f 115/115/115 118/118/118 119/119/119
f 118/118/118 120/120/120 119/119/119
f 119/119/119 120/120/120 121/121/121
f 120/120/120 122/122/122 121/121/121
f 121/121/121 122/122/122 123/123/123
f 122/122/122 124/124/124 123/123/123
f 123/123/123 124/124/124 125/125/125
f 124/124/124 126/126/126 125/125/125
f 125/125/125 126/126/126 127/127/127
f 126/126/126 128/128/128 127/127/127
f 127/127/127 128/128/128 129/129/129
f 128/128/128 130/130/130 129/129/129
f 129/129/129 130/130/130 131/131/131
f 130/130/130 132/132/132 131/131/131
