g PineTreeTrunk
v -2.369568 -9.103354 -4.104207
v 9.710751E-16 -9.103354 -3.769874E-08
v 2.369569 -9.103354 -4.104209
v -4.739127 -9.103354 -7.438837E-07
v 4.739127 -9.103354 -3.769873E-08
v -2.369568 -9.103354 4.104208
v 2.369568 -9.103354 4.104206
v 2.369569 -9.103354 -4.104209
v 3.002045 7.04639 -5.199691
v -3.002043 7.04639 -5.199692
v -2.369568 -9.103354 -4.104207
v 4.739127 -9.103354 -3.769873E-08
v -6.004087 7.04639 -8.946786E-07
v 6.004087 7.04639 1.083624E-15
v -4.739127 -9.103354 -7.438837E-07
v 2.369568 -9.103354 4.104206
v -3.002044 7.04639 5.199692
v 3.002043 7.04639 5.199692
v -2.369568 -9.103354 4.104208
vt 0.9513811 0.0407021
vt 0.9363266 0.0407021
vt 0.9513811 0.0407021
vt 0.9355976 0.0407021
vt 0.9355976 0.0407021
vt 0.9198141 0.0407021
vt 0.9198141 0.0407021
vt 0.824749 0.03455449
vt 0.9069426 0.03455449
vt 0.9069426 0.03455449
vt 0.824749 0.03455449
vt 0.824749 0.03455449
vt 0.9069426 0.03455449
vt 0.9069426 0.03455449
vt 0.824749 0.03455449
vt 0.824749 0.03455449
vt 0.9069426 0.03455449
vt 0.9069426 0.03455449
vt 0.824749 0.03455449
vn -0.4935239 -0.160427 -0.8548084
vn 0 -1 0
vn 0.4935239 -0.160427 -0.8548084
vn -0.9870477 -0.1604271 0
vn 0.9870477 -0.1604271 1.34195E-07
vn -0.493524 -0.1604271 0.8548084
vn 0.493524 -0.1604271 0.8548084
vn 0.4935239 -0.160427 -0.8548084
vn 0.4984732 -0.07808754 -0.863381
vn -0.4984732 -0.07808755 -0.8633811
vn -0.4935239 -0.160427 -0.8548084
vn 0.9870477 -0.1604271 1.34195E-07
vn -0.9969465 -0.07808754 0
vn 0.9969465 -0.07808755 1.353647E-07
vn -0.9870477 -0.1604271 0
vn 0.493524 -0.1604271 0.8548084
vn -0.4984732 -0.07808755 0.863381
vn 0.4984732 -0.07808758 0.863381
vn -0.493524 -0.1604271 0.8548084
g PineTreeTrunk_0
f 3/3/3 2/2/2 1/1/1
f 1/1/1 2/2/2 4/4/4
f 5/5/5 2/2/2 3/3/3
f 4/4/4 2/2/2 6/6/6
f 7/7/7 2/2/2 5/5/5
f 6/6/6 2/2/2 7/7/7
f 10/10/10 9/9/9 8/8/8
f 11/11/11 10/10/10 8/8/8
f 8/8/8 9/9/9 12/12/12
f 13/13/13 10/10/10 11/11/11
f 9/9/9 14/14/14 12/12/12
f 15/15/15 13/13/13 11/11/11
f 12/12/12 14/14/14 16/16/16
f 17/17/17 13/13/13 15/15/15
f 14/14/14 18/18/18 16/16/16
f 19/19/19 17/17/17 15/15/15
f 16/16/16 18/18/18 19/19/19
f 18/18/18 17/17/17 19/19/19
