g PitchFork
v -10.03174 6.634003 -8.56061
v -10.03174 10.1166 9.836962
v -9.186131 10.1166 9.836962
v -9.186131 10.2678 10.63574
v -9.186131 6.634003 -8.56061
v -9.186131 10.94745 9.679685
v -10.03174 7.464865 -8.717887
v -9.186131 7.464865 -8.717887
v -10.03174 10.94745 9.679685
v -10.03174 11.09866 10.47846
v -7.569366 10.1166 9.836962
v -7.569366 10.94745 9.679685
v -11.51552 10.1166 9.836962
v -11.51552 10.94745 9.679685
v -10.03174 10.2678 10.63574
v -11.14249 10.2678 10.63574
v -9.186131 11.09866 10.47846
v -7.942397 11.09866 10.47846
v -6.071536 11.17913 10.90357
v -6.910396 11.24732 11.2638
v -13.16844 10.34827 11.06085
v -12.30747 10.41646 11.42108
v -7.942397 10.2678 10.63574
v -6.071536 10.34827 11.06085
v -6.910396 10.41646 11.42108
v -9.454781 12.27349 18.1292
v -9.454781 11.97056 18.18655
v -9.763089 12.27349 18.1292
v -9.763089 11.97056 18.18655
v -11.14249 11.09866 10.47846
v -12.30747 11.24732 11.2638
v -13.16844 11.17913 10.90357
v -12.175 12.07171 17.02069
v -12.46055 12.07171 17.02069
v -12.175 11.75322 17.08098
v -12.46055 11.75322 17.08098
v -6.757316 12.07171 17.02069
v -6.757316 11.75322 17.08098
v -7.042862 12.07171 17.02069
v -7.042862 11.75322 17.08098
vt 0.020353 0.580149
vt 0.020353 0.580149
vt 0.020353 0.580149
vt 0.020353 0.580149
vt 0.020353 0.580149
vt 0.020353 0.580149
vt 0.020353 0.580149
vt 0.020353 0.580149
vt 0.020353 0.580149
vt 0.020353 0.580149
vt 0.020353 0.580149
vt 0.020353 0.580149
vt 0.020353 0.580149
vt 0.020353 0.580149
vt 0.020353 0.580149
vt 0.020353 0.580149
vt 0.020353 0.580149
vt 0.020353 0.580149
vt 0.020353 0.580149
vt 0.020353 0.580149
vt 0.020353 0.580149
vt 0.020353 0.580149
vt 0.020353 0.580149
vt 0.020353 0.580149
vt 0.020353 0.580149
vt 0.020353 0.580149
vt 0.020353 0.580149
vt 0.020353 0.580149
vt 0.020353 0.580149
vt 0.020353 0.580149
vt 0.020353 0.580149
vt 0.020353 0.580149
vt 0.020353 0.580149
vt 0.020353 0.580149
vt 0.020353 0.580149
vt 0.020353 0.580149
vt 0.020353 0.580149
vt 0.020353 0.580149
vt 0.020353 0.580149
vt 0.020353 0.580149
vn -0.5773508 -0.6746584 -0.4598935
vn -0.3015112 -0.9448298 -0.128014
vn 0.3015112 -0.9448298 -0.128014
vn 0.2994461 -0.8234212 0.4819849
vn 0.5773508 -0.6746584 -0.4598935
vn 0.3015111 0.8326708 -0.4644893
vn -0.5773498 0.4598941 -0.674659
vn 0.5773498 0.4598941 -0.674659
vn -0.3015111 0.8326708 -0.4644893
vn -0.2994461 0.9426148 0.1476801
vn 0.2328927 -0.8355867 -0.4975499
vn 0.2328931 0.5959219 -0.7685296
vn -0.2183473 -0.8343155 -0.5062035
vn -0.2183477 0.5915759 -0.7761199
vn -0.2994461 -0.8234212 0.4819849
vn 0.2045553 -0.5878209 0.7827028
vn 0.2994461 0.9426148 0.1476801
vn -0.2223881 0.8346572 0.5038757
vn 0.6189325 0.6948135 -0.3662742
vn -0.5950639 0.7878357 0.1587889
vn -0.6085132 -0.7875567 -0.09729397
vn 0.5814351 -0.6771517 0.4509974
vn -0.2223886 -0.5927446 0.7740782
vn 0.6189315 -0.7806138 -0.08698174
vn -0.5950649 -0.6752906 0.4357527
vn 0.5638806 0.6662692 0.4879796
vn 0.5638822 -0.4418152 0.6977366
vn -0.5638806 0.6662692 0.4879796
vn -0.5638822 -0.4418152 0.6977366
vn 0.2045549 0.8332264 0.5137032
vn 0.5814341 0.7951398 0.1722987
vn -0.6085142 0.6975068 -0.3784106
vn 0.5677764 0.6749191 0.4712899
vn -0.5501624 0.6534556 0.5199204
vn 0.5677753 -0.4559749 0.6853598
vn -0.5501593 -0.4182231 0.7227822
vn 0.551087 0.6537606 0.5185559
vn 0.5510862 -0.419 0.7216253
vn -0.5676692 0.6749822 0.4713286
vn -0.5676705 -0.4560139 0.6854207
g PitchFork_0
f 3/3/3 2/2/2 1/1/1
f 3/3/3 4/4/4 2/2/2
f 5/5/5 3/3/3 1/1/1
f 6/6/6 3/3/3 5/5/5
f 5/5/5 1/1/1 7/7/7
f 1/1/1 2/2/2 7/7/7
f 8/8/8 5/5/5 7/7/7
f 8/8/8 6/6/6 5/5/5
f 8/8/8 7/7/7 9/9/9
f 2/2/2 9/9/9 7/7/7
f 6/6/6 8/8/8 9/9/9
f 6/6/6 9/9/9 10/10/10
f 3/3/3 11/11/11 4/4/4
f 6/6/6 12/12/12 3/3/3
f 12/12/12 11/11/11 3/3/3
f 2/2/2 13/13/13 9/9/9
f 9/9/9 14/14/14 10/10/10
f 13/13/13 14/14/14 9/9/9
f 4/4/4 15/15/15 2/2/2
f 16/16/16 13/13/13 2/2/2
f 15/15/15 16/16/16 2/2/2
f 17/17/17 6/6/6 10/10/10
f 18/18/18 12/12/12 6/6/6
f 17/17/17 18/18/18 6/6/6
f 12/12/12 19/19/19 11/11/11
f 18/18/18 20/20/20 12/12/12
f 20/20/20 19/19/19 12/12/12
f 13/13/13 21/21/21 14/14/14
f 16/16/16 22/22/22 13/13/13
f 22/22/22 21/21/21 13/13/13
f 11/11/11 23/23/23 4/4/4
f 23/23/23 18/18/18 17/17/17
f 4/4/4 23/23/23 17/17/17
f 11/11/11 24/24/24 23/23/23
f 19/19/19 24/24/24 11/11/11
f 23/23/23 25/25/25 18/18/18
f 25/25/25 20/20/20 18/18/18
f 24/24/24 25/25/25 23/23/23
f 17/17/17 26/26/26 4/4/4
f 26/26/26 27/27/27 4/4/4
f 4/4/4 27/27/27 15/15/15
f 26/26/26 17/17/17 28/28/28
f 17/17/17 10/10/10 28/28/28
f 27/27/27 26/26/26 29/29/29
f 26/26/26 28/28/28 29/29/29
f 27/27/27 29/29/29 15/15/15
f 29/29/29 28/28/28 10/10/10
f 15/15/15 29/29/29 10/10/10
f 10/10/10 30/30/30 15/15/15
f 30/30/30 16/16/16 15/15/15
f 14/14/14 30/30/30 10/10/10
f 30/30/30 31/31/31 16/16/16
f 31/31/31 22/22/22 16/16/16
f 14/14/14 32/32/32 30/30/30
f 32/32/32 31/31/31 30/30/30
f 21/21/21 32/32/32 14/14/14
f 31/31/31 33/33/33 22/22/22
f 32/32/32 34/34/34 31/31/31
f 34/34/34 33/33/33 31/31/31
f 33/33/33 35/35/35 22/22/22
f 22/22/22 35/35/35 21/21/21
f 33/33/33 34/34/34 35/35/35
f 36/36/36 34/34/34 32/32/32
f 21/21/21 36/36/36 32/32/32
f 34/34/34 36/36/36 35/35/35
f 35/35/35 36/36/36 21/21/21
f 19/19/19 37/37/37 24/24/24
f 37/37/37 38/38/38 24/24/24
f 24/24/24 38/38/38 25/25/25
f 39/39/39 37/37/37 19/19/19
f 38/38/38 37/37/37 39/39/39
f 20/20/20 39/39/39 19/19/19
f 25/25/25 40/40/40 20/20/20
f 38/38/38 40/40/40 25/25/25
f 40/40/40 38/38/38 39/39/39
f 40/40/40 39/39/39 20/20/20
