g PlasmaGlasses
v 1.667489 17.5291 3.861504
v 2.467672 18.67188 6.020765
v 2.467672 18.67188 3.861504
v 1.667489 17.5291 6.020765
v 0.4031207 16.93952 3.861504
v 0.4031207 16.93952 6.020765
v -0.9866468 17.06111 3.861504
v -0.9866468 17.06111 6.020765
v -2.129426 17.86129 3.861504
v -2.129426 17.86129 6.020765
v -2.719011 19.12566 3.861504
v -2.719011 19.12566 6.020765
v -2.597422 20.51543 3.861504
v -2.597422 20.51543 6.020765
v 2.467672 18.67188 3.861504
v 2.467672 18.67188 6.020765
v 2.589261 20.06165 6.020765
v 2.589261 20.06165 3.861504
v 1.999676 21.32602 6.020765
v 1.999676 21.32602 3.861504
v 0.8568966 22.1262 6.020765
v 0.8568966 22.1262 3.861504
v -0.5328709 22.24779 6.020765
v -0.5328709 22.24779 3.861504
v -1.79724 21.65821 6.020765
v -1.79724 21.65821 3.861504
v -2.597422 20.51543 6.020765
v -2.597422 20.51543 3.861504
v 4.352806 13.06956 3.861504
v 5.152989 14.21234 6.020765
v 5.152989 14.21234 3.861504
v 4.352806 13.06956 6.020765
v 3.088438 12.47997 3.861504
v 3.088438 12.47997 6.020765
v 1.698671 12.60156 3.861504
v 1.698671 12.60156 6.020765
v 0.555891 13.40174 3.861504
v 0.555891 13.40174 6.020765
v -0.03369385 14.66611 3.861504
v -0.03369385 14.66611 6.020765
v 0.08789505 16.05588 3.861504
v 0.08789505 16.05588 6.020765
v 5.152989 14.21234 3.861504
v 5.152989 14.21234 6.020765
v 5.274578 15.60211 6.020765
v 5.274578 15.60211 3.861504
v 4.684993 16.86647 6.020765
v 4.684993 16.86647 3.861504
v 3.542214 17.66666 6.020765
v 3.542214 17.66666 3.861504
v 2.152446 17.78825 6.020765
v 2.152446 17.78825 3.861504
v 0.8880779 17.19866 6.020765
v 0.8880779 17.19866 3.861504
v 0.08789505 16.05588 6.020765
v 0.08789505 16.05588 3.861504
v -1.23482 12.8001 3.861504
v -0.2483517 13.78657 6.020765
v -0.2483517 13.78657 3.861504
v -1.23482 12.8001 6.020765
v -2.58236 12.43903 3.861504
v -2.58236 12.43903 6.020765
v -3.9299 12.8001 3.861504
v -3.9299 12.8001 6.020765
v -4.916368 13.78657 3.861504
v -4.916368 13.78657 6.020765
v -5.27744 15.13411 3.861504
v -5.27744 15.13411 6.020765
v -4.916368 16.48165 3.861504
v -4.916368 16.48165 6.020765
v -0.2483517 13.78657 3.861504
v -0.2483517 13.78657 6.020765
v 0.1127206 15.13411 6.020765
v 0.1127206 15.13411 3.861504
v -0.2483517 16.48165 6.020765
v -0.2483517 16.48165 3.861504
v -1.23482 17.46812 6.020765
v -1.23482 17.46812 3.861504
v -2.58236 17.82919 6.020765
v -2.58236 17.82919 3.861504
v -3.9299 17.46812 6.020765
v -3.9299 17.46812 3.861504
v -4.916368 16.48165 6.020765
v -4.916368 16.48165 3.861504
v 1.667489 17.5291 6.020765
v -0.06487514 19.59365 6.020765
v 2.467672 18.67188 6.020765
v 0.4031207 16.93952 6.020765
v 2.589261 20.06165 6.020765
v -0.9866468 17.06111 6.020765
v 1.999676 21.32602 6.020765
v -2.129426 17.86129 6.020765
v 0.8568966 22.1262 6.020765
v -2.719011 19.12566 6.020765
v -0.5328709 22.24779 6.020765
v -2.597422 20.51543 6.020765
v -1.79724 21.65821 6.020765
v 4.352806 13.06956 6.020765
v 2.620442 15.13411 6.020765
v 5.152989 14.21234 6.020765
v 3.088438 12.47997 6.020765
v 5.274578 15.60211 6.020765
v 1.698671 12.60156 6.020765
v 4.684993 16.86647 6.020765
v 0.555891 13.40174 6.020765
v 3.542214 17.66666 6.020765
v -0.03369385 14.66611 6.020765
v 2.152446 17.78825 6.020765
v 0.08789505 16.05588 6.020765
v 0.8880779 17.19866 6.020765
v -1.23482 12.8001 6.020765
v -2.58236 15.13411 6.020765
v -0.2483517 13.78657 6.020765
v -2.58236 12.43903 6.020765
v 0.1127206 15.13411 6.020765
v -3.9299 12.8001 6.020765
v -0.2483517 16.48165 6.020765
v -4.916368 13.78657 6.020765
v -1.23482 17.46812 6.020765
v -5.27744 15.13411 6.020765
v -2.58236 17.82919 6.020765
v -4.916368 16.48165 6.020765
v -3.9299 17.46812 6.020765
vt 0.9333939 0.007781886
vt 0.9722335 0.2200433
vt 0.9722335 0.007781886
vt 0.9333939 0.2200433
vt 0.8803254 0.007781886
vt 0.8803254 0.2200433
vt 0.827257 0.007781886
vt 0.827257 0.2200433
vt 0.7884174 0.007781863
vt 0.7884174 0.2200433
vt 0.7353551 0.007781856
vt 0.7353551 0.2200433
vt 0.7158876 0.007781863
vt 0.7158876 0.2200433
vt 0.7148319 0.008979388
vt 0.7148318 0.2212532
vt 0.7342961 0.2212532
vt 0.7342963 0.008979395
vt 0.7873616 0.2212501
vt 0.7873616 0.008982487
vt 0.8262073 0.221247
vt 0.8262073 0.008985572
vt 0.8792697 0.221247
vt 0.8792697 0.008985579
vt 0.932335 0.221247
vt 0.932335 0.008985579
vt 0.9711807 0.221247
vt 0.9711807 0.008985579
vt 0.9333939 0.007781886
vt 0.9722335 0.2200433
vt 0.9722335 0.007781886
vt 0.9333939 0.2200433
vt 0.8803254 0.007781886
vt 0.8803254 0.2200433
vt 0.827257 0.007781886
vt 0.827257 0.2200433
vt 0.7884174 0.007781863
vt 0.7884174 0.2200433
vt 0.7353551 0.007781856
vt 0.7353551 0.2200433
vt 0.7158876 0.007781863
vt 0.7158876 0.2200433
vt 0.7148319 0.008979388
vt 0.7148318 0.2212532
vt 0.7342961 0.2212532
vt 0.7342963 0.008979395
vt 0.7873616 0.2212501
vt 0.7873616 0.008982487
vt 0.8262073 0.221247
vt 0.8262073 0.008985572
vt 0.8792697 0.221247
vt 0.8792697 0.008985579
vt 0.932335 0.221247
vt 0.932335 0.008985579
vt 0.9711807 0.221247
vt 0.9711807 0.008985579
vt 0.9333939 0.007781886
vt 0.9722335 0.2200433
vt 0.9722335 0.007781886
vt 0.9333939 0.2200433
vt 0.8803254 0.007781886
vt 0.8803254 0.2200433
vt 0.827257 0.007781886
vt 0.827257 0.2200433
vt 0.7884174 0.007781863
vt 0.7884174 0.2200433
vt 0.7353551 0.007781856
vt 0.7353551 0.2200433
vt 0.7158876 0.007781863
vt 0.7158876 0.2200433
vt 0.7148319 0.008979388
vt 0.7148318 0.2212532
vt 0.7342961 0.2212532
vt 0.7342963 0.008979395
vt 0.7873616 0.2212501
vt 0.7873616 0.008982487
vt 0.8262073 0.221247
vt 0.8262073 0.008985572
vt 0.8792697 0.221247
vt 0.8792697 0.008985579
vt 0.932335 0.221247
vt 0.932335 0.008985579
vt 0.9711807 0.221247
vt 0.9711807 0.008985579
vt 0.953843 0.2590525
vt 0.853601 0.3588603
vt 0.9903139 0.3225333
vt 0.890506 0.2222913
vt 0.9901542 0.3957611
vt 0.8172741 0.2221474
vt 0.953409 0.4591023
vt 0.7537931 0.2586184
vt 0.889928 0.4955732
vt 0.7170479 0.3219596
vt 0.816696 0.4954294
vt 0.7168881 0.3951874
vt 0.7533591 0.4586682
vt 0.953843 0.2590525
vt 0.853601 0.3588603
vt 0.9903139 0.3225333
vt 0.890506 0.2222913
vt 0.9901542 0.3957611
vt 0.8172741 0.2221474
vt 0.953409 0.4591023
vt 0.7537931 0.2586184
vt 0.889928 0.4955732
vt 0.7170479 0.3219596
vt 0.816696 0.4954294
vt 0.7168881 0.3951874
vt 0.7533591 0.4586682
vt 0.953843 0.2590525
vt 0.853601 0.3588603
vt 0.9903139 0.3225333
vt 0.890506 0.2222913
vt 0.9901542 0.3957611
vt 0.8172741 0.2221474
vt 0.953409 0.4591023
vt 0.7537931 0.2586184
vt 0.889928 0.4955732
vt 0.7170479 0.3219596
vt 0.816696 0.4954294
vt 0.7168881 0.3951874
vt 0.7533591 0.4586682
vn 0.6427877 -0.7660444 0
vn 0.6528482 -0.2376173 0.7192546
vn 0.9396926 -0.3420201 0
vn 0.4465745 -0.5322068 0.7192546
vn 0.1736486 -0.9848077 0
vn 0.1206417 -0.6841918 0.7192546
vn -0.34202 -0.9396926 0
vn -0.2376172 -0.6528482 0.7192547
vn -0.7660445 -0.6427875 0
vn -0.5322068 -0.4465744 0.7192546
vn -0.9848077 -0.173648 0
vn -0.6841919 -0.1206414 0.7192546
vn -0.9396926 0.3420204 0
vn -0.6528482 0.2376175 0.7192546
vn 0.9396926 -0.3420201 0
vn 0.6528482 -0.2376173 0.7192546
vn 0.6841918 0.1206417 0.7192547
vn 0.9848077 0.1736485 0
vn 0.5322068 0.4465746 0.7192546
vn 0.7660443 0.6427878 0
vn 0.2376175 0.6528482 0.7192546
vn 0.3420204 0.9396926 0
vn -0.1206414 0.6841919 0.7192546
vn -0.1736481 0.9848077 0
vn -0.4465744 0.5322069 0.7192546
vn -0.6427876 0.7660445 0
vn -0.6528482 0.2376175 0.7192546
vn -0.9396926 0.3420204 0
vn 0.6427876 -0.7660444 0
vn 0.6528482 -0.2376174 0.7192546
vn 0.9396926 -0.3420202 0
vn 0.4465745 -0.5322068 0.7192546
vn 0.1736486 -0.9848077 0
vn 0.1206418 -0.6841918 0.7192546
vn -0.3420199 -0.9396926 0
vn -0.2376172 -0.6528482 0.7192547
vn -0.7660445 -0.6427875 0
vn -0.5322068 -0.4465744 0.7192546
vn -0.9848077 -0.1736481 0
vn -0.6841919 -0.1206414 0.7192546
vn -0.9396926 0.3420201 0
vn -0.6528482 0.2376173 0.7192546
vn 0.9396926 -0.3420202 0
vn 0.6528482 -0.2376174 0.7192546
vn 0.6841918 0.1206415 0.7192546
vn 0.9848077 0.1736482 0
vn 0.5322068 0.4465745 0.7192546
vn 0.7660445 0.6427876 0
vn 0.2376172 0.6528482 0.7192547
vn 0.34202 0.9396926 0
vn -0.1206417 0.6841918 0.7192546
vn -0.1736486 0.9848077 0
vn -0.4465745 0.5322068 0.7192546
vn -0.6427877 0.7660444 0
vn -0.6528482 0.2376173 0.7192546
vn -0.9396926 0.3420201 0
vn 0.5 -0.8660254 0
vn 0.6016682 -0.3473732 0.7192546
vn 0.8660254 -0.4999999 0
vn 0.3473733 -0.6016682 0.7192547
vn 0 -1 0
vn 0 -0.6947467 0.7192546
vn -0.5 -0.8660254 0
vn -0.3473733 -0.6016682 0.7192547
vn -0.8660255 -0.4999999 0
vn -0.6016682 -0.3473732 0.7192546
vn -1 0 0
vn -0.6947466 0 0.7192546
vn -0.8660255 0.4999999 0
vn -0.6016682 0.3473732 0.7192546
vn 0.8660254 -0.4999999 0
vn 0.6016682 -0.3473732 0.7192546
vn 0.6947466 0 0.7192546
vn 1 0 0
vn 0.6016682 0.3473732 0.7192546
vn 0.8660254 0.4999999 0
vn 0.3473733 0.6016682 0.7192547
vn 0.5 0.8660254 0
vn 0 0.6947467 0.7192546
vn 0 1 0
vn -0.3473733 0.6016682 0.7192547
vn -0.5 0.8660254 0
vn -0.6016682 0.3473732 0.7192546
vn -0.8660255 0.4999999 0
vn 0.4465745 -0.5322068 0.7192546
vn 0 0 1
vn 0.6528482 -0.2376173 0.7192546
vn 0.1206417 -0.6841918 0.7192546
vn 0.6841918 0.1206417 0.7192547
vn -0.2376172 -0.6528482 0.7192547
vn 0.5322068 0.4465746 0.7192546
vn -0.5322068 -0.4465744 0.7192546
vn 0.2376175 0.6528482 0.7192546
vn -0.6841919 -0.1206414 0.7192546
vn -0.1206414 0.6841919 0.7192546
vn -0.6528482 0.2376175 0.7192546
vn -0.4465744 0.5322069 0.7192546
vn 0.4465745 -0.5322068 0.7192546
vn 0 0 1
vn 0.6528482 -0.2376174 0.7192546
vn 0.1206418 -0.6841918 0.7192546
vn 0.6841918 0.1206415 0.7192546
vn -0.2376172 -0.6528482 0.7192547
vn 0.5322068 0.4465745 0.7192546
vn -0.5322068 -0.4465744 0.7192546
vn 0.2376172 0.6528482 0.7192547
vn -0.6841919 -0.1206414 0.7192546
vn -0.1206417 0.6841918 0.7192546
vn -0.6528482 0.2376173 0.7192546
vn -0.4465745 0.5322068 0.7192546
vn 0.3473733 -0.6016682 0.7192547
vn 0 0 1
vn 0.6016682 -0.3473732 0.7192546
vn 0 -0.6947467 0.7192546
vn 0.6947466 0 0.7192546
vn -0.3473733 -0.6016682 0.7192547
vn 0.6016682 0.3473732 0.7192546
vn -0.6016682 -0.3473732 0.7192546
vn 0.3473733 0.6016682 0.7192547
vn -0.6947466 0 0.7192546
vn 0 0.6947467 0.7192546
vn -0.6016682 0.3473732 0.7192546
vn -0.3473733 0.6016682 0.7192547
g PlasmaGlasses_0
f 3/3/3 2/2/2 1/1/1
f 2/2/2 4/4/4 1/1/1
f 1/1/1 4/4/4 5/5/5
f 4/4/4 6/6/6 5/5/5
f 5/5/5 6/6/6 7/7/7
f 6/6/6 8/8/8 7/7/7
f 7/7/7 8/8/8 9/9/9
f 8/8/8 10/10/10 9/9/9
f 9/9/9 10/10/10 11/11/11
f 10/10/10 12/12/12 11/11/11
f 11/11/11 12/12/12 13/13/13
f 12/12/12 14/14/14 13/13/13
f 17/17/17 16/16/16 15/15/15
f 18/18/18 17/17/17 15/15/15
f 19/19/19 17/17/17 18/18/18
f 20/20/20 19/19/19 18/18/18
f 21/21/21 19/19/19 20/20/20
f 22/22/22 21/21/21 20/20/20
f 23/23/23 21/21/21 22/22/22
f 24/24/24 23/23/23 22/22/22
f 25/25/25 23/23/23 24/24/24
f 26/26/26 25/25/25 24/24/24
f 27/27/27 25/25/25 26/26/26
f 28/28/28 27/27/27 26/26/26
f 31/31/31 30/30/30 29/29/29
f 30/30/30 32/32/32 29/29/29
f 29/29/29 32/32/32 33/33/33
f 32/32/32 34/34/34 33/33/33
f 33/33/33 34/34/34 35/35/35
f 34/34/34 36/36/36 35/35/35
f 35/35/35 36/36/36 37/37/37
f 36/36/36 38/38/38 37/37/37
f 37/37/37 38/38/38 39/39/39
f 38/38/38 40/40/40 39/39/39
f 39/39/39 40/40/40 41/41/41
f 40/40/40 42/42/42 41/41/41
f 45/45/45 44/44/44 43/43/43
f 46/46/46 45/45/45 43/43/43
f 47/47/47 45/45/45 46/46/46
f 48/48/48 47/47/47 46/46/46
f 49/49/49 47/47/47 48/48/48
f 50/50/50 49/49/49 48/48/48
f 51/51/51 49/49/49 50/50/50
f 52/52/52 51/51/51 50/50/50
f 53/53/53 51/51/51 52/52/52
f 54/54/54 53/53/53 52/52/52
f 55/55/55 53/53/53 54/54/54
f 56/56/56 55/55/55 54/54/54
f 59/59/59 58/58/58 57/57/57
f 58/58/58 60/60/60 57/57/57
f 57/57/57 60/60/60 61/61/61
f 60/60/60 62/62/62 61/61/61
f 61/61/61 62/62/62 63/63/63
f 62/62/62 64/64/64 63/63/63
f 63/63/63 64/64/64 65/65/65
f 64/64/64 66/66/66 65/65/65
f 65/65/65 66/66/66 67/67/67
f 66/66/66 68/68/68 67/67/67
f 67/67/67 68/68/68 69/69/69
f 68/68/68 70/70/70 69/69/69
f 73/73/73 72/72/72 71/71/71
f 74/74/74 73/73/73 71/71/71
f 75/75/75 73/73/73 74/74/74
f 76/76/76 75/75/75 74/74/74
f 77/77/77 75/75/75 76/76/76
f 78/78/78 77/77/77 76/76/76
f 79/79/79 77/77/77 78/78/78
f 80/80/80 79/79/79 78/78/78
f 81/81/81 79/79/79 80/80/80
f 82/82/82 81/81/81 80/80/80
f 83/83/83 81/81/81 82/82/82
f 84/84/84 83/83/83 82/82/82
f 87/87/87 86/86/86 85/85/85
f 85/85/85 86/86/86 88/88/88
f 89/89/89 86/86/86 87/87/87
f 88/88/88 86/86/86 90/90/90
f 91/91/91 86/86/86 89/89/89
f 90/90/90 86/86/86 92/92/92
f 93/93/93 86/86/86 91/91/91
f 92/92/92 86/86/86 94/94/94
f 95/95/95 86/86/86 93/93/93
f 94/94/94 86/86/86 96/96/96
f 97/97/97 86/86/86 95/95/95
f 96/96/96 86/86/86 97/97/97
f 100/100/100 99/99/99 98/98/98
f 98/98/98 99/99/99 101/101/101
f 102/102/102 99/99/99 100/100/100
f 101/101/101 99/99/99 103/103/103
f 104/104/104 99/99/99 102/102/102
f 103/103/103 99/99/99 105/105/105
f 106/106/106 99/99/99 104/104/104
f 105/105/105 99/99/99 107/107/107
f 108/108/108 99/99/99 106/106/106
f 107/107/107 99/99/99 109/109/109
f 110/110/110 99/99/99 108/108/108
f 109/109/109 99/99/99 110/110/110
f 113/113/113 112/112/112 111/111/111
f 111/111/111 112/112/112 114/114/114
f 115/115/115 112/112/112 113/113/113
f 114/114/114 112/112/112 116/116/116
f 117/117/117 112/112/112 115/115/115
f 116/116/116 112/112/112 118/118/118
f 119/119/119 112/112/112 117/117/117
f 118/118/118 112/112/112 120/120/120
f 121/121/121 112/112/112 119/119/119
f 120/120/120 112/112/112 122/122/122
f 123/123/123 112/112/112 121/121/121
f 122/122/122 112/112/112 123/123/123
