g pPlane8
v 5.990019 -1.864442 -2.235126
v 5.601262 -1.735356 -1.968533
v 5.144361 -1.617098 -2.158266
v 5.341971 -1.709165 -2.691515
v 8.998009 -2.712376 -2.029378
v 6.192508 -1.897281 -1.856778
v 6.555307 -2.000078 -1.839871
v 9.035889 -2.777332 -2.842962
v 5.659267 -1.814417 -2.907528
v 5.385523 -1.772031 -3.449252
v 8.779722 -2.77152 -3.858928
v 8.362836 -2.667177 -4.085537
v 5.60636 -1.898575 -4.400885
v 5.886759 -2.01029 -4.872991
v 7.875088 -2.581855 -4.903391
v 6.595559 -2.236445 -5.220707
v 7.267055 -2.440492 -5.396656
v 8.403424 -2.515782 -1.634213
v 8.782279 -2.616844 -1.522074
v 8.637553 -2.572823 -1.483496
v 6.809131 -2.042647 -1.386692
v 8.200165 -2.425811 -1.156822
v 7.58295 -2.237595 -0.9850979
v 2.146942 -0.9160092 -4.52658
v 1.817932 -0.7863742 -3.994405
v 1.440883 -0.6816671 -4.043958
v 1.492831 -0.7342538 -4.610949
v 3.212681 -1.232771 -4.699327
v 2.612452 -1.038275 -4.360035
v 1.127501 -0.6539304 -4.97668
v 3.535826 -1.350212 -5.073423
v 4.31356 -1.622675 -5.820563
v 0.8285667 -0.6423849 -6.090645
v 1.066211 -0.7483725 -6.660779
v 4.170047 -1.532157 -5.07759
v 3.789866 -1.407069 -4.834181
v 3.826005 -1.551635 -6.852342
v 3.417715 -1.451296 -7.102147
v 2.115143 -1.085691 -7.215025
v 2.820819 -1.291466 -7.269759
v -2.988361 0.4736331 -5.74951
v -2.370948 0.2711319 -6.135176
v -1.742612 0.1013858 -5.981254
v -0.8059608 -0.1410446 -5.592297
v -1.282573 -0.03725552 -6.084499
v -3.234596 0.5836233 -5.156196
v -0.8748891 -0.09473843 -5.19289
v -1.09221 -0.01714078 -4.962108
v -3.118226 0.605098 -4.33205
v -0.9582621 -0.03223965 -4.612204
v -1.090076 0.0339017 -4.1854
v -2.627353 0.4993961 -3.807182
v -1.581938 0.2110245 -3.640575
v -2.253234 0.4007865 -3.67857
v -2.05076 0.3679495 -3.300226
v -1.690902 0.2712516 -3.204283
v -4.438022 1.186878 -1.268535
v -4.949212 1.320966 -1.454068
v -4.223626 1.115375 -1.420275
v -3.777848 0.9786453 -1.556188
v -3.969587 1.058517 -1.181033
v -5.337184 1.392918 -2.04321
v -3.54275 0.8501895 -2.475154
v -5.370957 1.366077 -2.592284
v -5.250672 1.310036 -2.916873
v -3.842076 0.8903018 -3.16125
v -4.901737 1.180583 -3.360518
v -4.410274 1.032029 -3.477458
v -6.784075 1.906183 -0.557371
v -6.492353 1.798654 -0.9177701
v -5.972568 1.660561 -0.7554336
v -5.41022 1.531022 -0.2811404
v -5.624024 1.559674 -0.77121
v -7.121679 2.039822 -0.001999842
v -5.691018 1.671308 0.6188473
v -6.053807 1.774103 0.6019625
v -7.356593 2.153997 0.7030172
v -6.336738 1.863345 0.7252414
v -8.42251 2.485037 1.089697
v -7.813493 2.272255 0.5132846
v -6.431441 1.921659 1.194203
v -8.731615 2.614857 1.710413
v -6.845795 2.048476 1.316417
v -6.691936 2.033561 1.754847
v -9.349616 2.815732 2.069083
v -6.875286 2.123715 2.320764
v -9.249644 2.832556 2.752658
v -6.666952 2.078689 2.541045
v -7.235741 2.263268 2.866646
v -6.912973 2.17439 2.920423
v -9.051928 2.816265 3.359306
v -7.676262 2.43066 3.486283
v -8.262036 2.60896 3.644317
vt 0.2367968 0.7684052
vt 0.259026 0.7528868
vt 0.259026 0.7246715
vt 0.2270707 0.7246715
vt 0.1826112 0.9334677
vt 0.252079 0.7867457
vt 0.2451328 0.8064972
vt 0.1395417 0.9193596
vt 0.2090095 0.7373686
vt 0.1867793 0.7119744
vt 0.09230329 0.8855009
vt 0.08952521 0.8586956
vt 0.1325947 0.7049198
vt 0.1020293 0.7105633
vt 0.05756988 0.8163722
vt 0.06868501 0.7416009
vt 0.04506575 0.7740487
vt 0.2159565 0.9094838
vt 0.2136099 0.9319835
vt 0.2187346 0.9250031
vt 0.2631941 0.8290691
vt 0.2451328 0.9080737
vt 0.2673621 0.8784472
vt 0.2006734 0.5172853
vt 0.2354068 0.5102316
vt 0.2409648 0.4890699
vt 0.2103985 0.4806052
vt 0.1687181 0.5708958
vt 0.1992834 0.5455016
vt 0.1992834 0.4538
vt 0.1423208 0.5807706
vt 0.0867462 0.6075758
vt 0.1478778 0.4157088
vt 0.1131435 0.41712
vt 0.1284266 0.6146303
vt 0.1492669 0.5991111
vt 0.04367672 0.5610199
vt 0.03950866 0.5342147
vt 0.06173794 0.4622647
vt 0.04367672 0.4989457
vt 0.2479109 0.2181994
vt 0.2145665 0.2435935
vt 0.2090095 0.2802736
vt 0.2090095 0.3381154
vt 0.1937263 0.3028464
vt 0.2840343 0.2167883
vt 0.2312387 0.3423478
vt 0.2479109 0.3352941
vt 0.3243257 0.2393612
vt 0.2631941 0.3494023
vt 0.2882023 0.3508125
vt 0.3409978 0.2760412
vt 0.3271047 0.3352942
vt 0.3396088 0.2986141
vt 0.354891 0.3169536
vt 0.3521129 0.3381154
vt 0.5118886 0.2294854
vt 0.5132776 0.1984478
vt 0.4993844 0.2379501
vt 0.4827123 0.2591118
vt 0.5063305 0.2562905
vt 0.4910484 0.1660001
vt 0.4299167 0.2534684
vt 0.4632611 0.153303
vt 0.44381 0.153303
vt 0.4007404 0.2238419
vt 0.4132446 0.1631788
vt 0.3965724 0.1871618
vt 0.5953552 0.1307099
vt 0.5711943 0.1388879
vt 0.5685094 0.1688737
vt 0.5805898 0.2070374
vt 0.5604558 0.1865928
vt 0.6302546 0.1238953
vt 0.6315965 0.2097631
vt 0.6383082 0.1906817
vt 0.6705226 0.1252577
vt 0.6503886 0.1784149
vt 0.7121328 0.07755369
vt 0.6705226 0.09799838
vt 0.6758915 0.1825038
vt 0.7497169 0.07346475
vt 0.6906567 0.1634215
vt 0.7094489 0.1797773
vt 0.7805893 0.04838347
vt 0.7416633 0.1811405
vt 0.812804 0.06665012
vt 0.748375 0.196133
vt 0.7765628 0.1729626
vt 0.772536 0.1906817
vt 0.8391225 0.08849671
vt 0.8168308 0.1620582
vt 0.8369649 0.1347989
vn 0.2748076 0.95938 -0.06380203
vn 0.2748076 0.95938 -0.06380203
vn 0.2748076 0.95938 -0.06380203
vn 0.2748077 0.95938 -0.06380203
vn 0.2748076 0.95938 -0.06380203
vn 0.2748076 0.95938 -0.06380203
vn 0.2748076 0.95938 -0.06380203
vn 0.2748076 0.95938 -0.06380203
vn 0.2748076 0.95938 -0.06380203
vn 0.2748076 0.95938 -0.06380203
vn 0.2748076 0.95938 -0.06380203
vn 0.2748076 0.95938 -0.06380203
vn 0.2748076 0.95938 -0.06380203
vn 0.2748076 0.95938 -0.06380203
vn 0.2748076 0.95938 -0.06380202
vn 0.2748076 0.95938 -0.06380203
vn 0.2748077 0.95938 -0.06380203
vn 0.2748076 0.95938 -0.06380203
vn 0.2748076 0.95938 -0.06380203
vn 0.2748076 0.95938 -0.06380203
vn 0.2748076 0.95938 -0.06380203
vn 0.2748076 0.95938 -0.06380203
vn 0.2748076 0.95938 -0.06380203
vn 0.2748078 0.9593799 -0.06380199
vn 0.2748078 0.9593799 -0.06380199
vn 0.2748078 0.9593799 -0.06380199
vn 0.2748078 0.9593799 -0.06380199
vn 0.2748078 0.9593799 -0.063802
vn 0.2748078 0.9593799 -0.06380199
vn 0.2748078 0.9593799 -0.06380199
vn 0.2748078 0.9593799 -0.06380199
vn 0.2748078 0.9593799 -0.06380199
vn 0.2748078 0.9593799 -0.06380198
vn 0.2748078 0.9593799 -0.06380199
vn 0.2748078 0.9593799 -0.06380199
vn 0.2748078 0.9593799 -0.06380199
vn 0.2748078 0.9593799 -0.06380199
vn 0.2748078 0.9593799 -0.063802
vn 0.2748078 0.9593799 -0.06380199
vn 0.2748078 0.9593799 -0.06380199
vn 0.2748075 0.9593801 -0.06380138
vn 0.2748075 0.9593801 -0.06380139
vn 0.2748075 0.9593801 -0.06380138
vn 0.2748075 0.9593801 -0.06380138
vn 0.2748075 0.9593801 -0.06380138
vn 0.2748075 0.9593801 -0.06380138
vn 0.2748075 0.9593801 -0.06380139
vn 0.2748075 0.9593801 -0.06380139
vn 0.2748075 0.9593801 -0.06380139
vn 0.2748075 0.9593801 -0.06380139
vn 0.2748075 0.9593801 -0.06380139
vn 0.2748074 0.9593801 -0.06380138
vn 0.2748075 0.9593801 -0.06380138
vn 0.2748075 0.9593801 -0.06380138
vn 0.2748075 0.9593801 -0.06380138
vn 0.2748075 0.9593801 -0.06380137
vn 0.2748075 0.95938 -0.0638013
vn 0.2748076 0.95938 -0.06380131
vn 0.2748075 0.95938 -0.0638013
vn 0.2748076 0.95938 -0.06380131
vn 0.2748076 0.95938 -0.0638013
vn 0.2748075 0.95938 -0.0638013
vn 0.2748076 0.95938 -0.0638013
vn 0.2748075 0.95938 -0.0638013
vn 0.2748076 0.95938 -0.06380131
vn 0.2748076 0.95938 -0.06380131
vn 0.2748075 0.95938 -0.06380131
vn 0.2748075 0.95938 -0.0638013
vn 0.2748075 0.9593799 -0.06380301
vn 0.2748075 0.9593799 -0.06380301
vn 0.2748075 0.9593799 -0.06380301
vn 0.2748075 0.95938 -0.06380301
vn 0.2748075 0.9593799 -0.063803
vn 0.2748075 0.95938 -0.06380301
vn 0.2748075 0.9593799 -0.06380301
vn 0.2748075 0.9593799 -0.06380301
vn 0.2748075 0.9593799 -0.06380301
vn 0.2748075 0.9593799 -0.06380302
vn 0.2748075 0.9593799 -0.06380301
vn 0.2748075 0.9593799 -0.063803
vn 0.2748075 0.9593799 -0.063803
vn 0.2748075 0.9593799 -0.06380301
vn 0.2748075 0.9593799 -0.063803
vn 0.2748075 0.95938 -0.06380301
vn 0.2748075 0.9593799 -0.063803
vn 0.2748075 0.9593799 -0.063803
vn 0.2748075 0.9593799 -0.063803
vn 0.2748075 0.95938 -0.06380301
vn 0.2748075 0.9593799 -0.063803
vn 0.2748075 0.95938 -0.06380301
vn 0.2748075 0.9593799 -0.063803
vn 0.2748075 0.9593799 -0.06380301
vn 0.2748075 0.9593799 -0.063803
g pPlane8_0
f 3/3/3 2/2/2 1/1/1
f 1/1/1 4/4/4 3/3/3
f 4/4/4 1/1/1 5/5/5
f 1/1/1 6/6/6 5/5/5
f 6/6/6 7/7/7 5/5/5
f 4/4/4 5/5/5 8/8/8
f 9/9/9 4/4/4 8/8/8
f 10/10/10 9/9/9 8/8/8
f 10/10/10 8/8/8 11/11/11
f 10/10/10 11/11/11 12/12/12
f 13/13/13 10/10/10 12/12/12
f 14/14/14 13/13/13 12/12/12
f 14/14/14 12/12/12 15/15/15
f 16/16/16 14/14/14 15/15/15
f 15/15/15 17/17/17 16/16/16
f 7/7/7 18/18/18 5/5/5
f 18/18/18 19/19/19 5/5/5
f 18/18/18 20/20/20 19/19/19
f 18/18/18 7/7/7 21/21/21
f 21/21/21 22/22/22 18/18/18
f 21/21/21 23/23/23 22/22/22
f 26/26/26 25/25/25 24/24/24
f 24/24/24 27/27/27 26/26/26
f 27/27/27 24/24/24 28/28/28
f 24/24/24 29/29/29 28/28/28
f 30/30/30 27/27/27 28/28/28
f 30/30/30 28/28/28 31/31/31
f 30/30/30 31/31/31 32/32/32
f 33/33/33 30/30/30 32/32/32
f 34/34/34 33/33/33 32/32/32
f 31/31/31 35/35/35 32/32/32
f 35/35/35 31/31/31 36/36/36
f 34/34/34 32/32/32 37/37/37
f 34/34/34 37/37/37 38/38/38
f 39/39/39 34/34/34 38/38/38
f 38/38/38 40/40/40 39/39/39
f 43/43/43 42/42/42 41/41/41
f 43/43/43 41/41/41 44/44/44
f 44/44/44 45/45/45 43/43/43
f 41/41/41 46/46/46 44/44/44
f 46/46/46 47/47/47 44/44/44
f 46/46/46 48/48/48 47/47/47
f 46/46/46 49/49/49 48/48/48
f 49/49/49 50/50/50 48/48/48
f 49/49/49 51/51/51 50/50/50
f 49/49/49 52/52/52 51/51/51
f 52/52/52 53/53/53 51/51/51
f 52/52/52 54/54/54 53/53/53
f 54/54/54 55/55/55 53/53/53
f 55/55/55 56/56/56 53/53/53
f 59/59/59 58/58/58 57/57/57
f 58/58/58 59/59/59 60/60/60
f 59/59/59 61/61/61 60/60/60
f 62/62/62 58/58/58 60/60/60
f 62/62/62 60/60/60 63/63/63
f 64/64/64 62/62/62 63/63/63
f 65/65/65 64/64/64 63/63/63
f 65/65/65 63/63/63 66/66/66
f 67/67/67 65/65/65 66/66/66
f 66/66/66 68/68/68 67/67/67
f 71/71/71 70/70/70 69/69/69
f 71/71/71 69/69/69 72/72/72
f 72/72/72 73/73/73 71/71/71
f 69/69/69 74/74/74 72/72/72
f 74/74/74 75/75/75 72/72/72
f 74/74/74 76/76/76 75/75/75
f 76/76/76 74/74/74 77/77/77
f 77/77/77 78/78/78 76/76/76
f 79/79/79 78/78/78 77/77/77
f 77/77/77 80/80/80 79/79/79
f 79/79/79 81/81/81 78/78/78
f 79/79/79 82/82/82 81/81/81
f 82/82/82 83/83/83 81/81/81
f 82/82/82 84/84/84 83/83/83
f 82/82/82 85/85/85 84/84/84
f 85/85/85 86/86/86 84/84/84
f 85/85/85 87/87/87 86/86/86
f 87/87/87 88/88/88 86/86/86
f 87/87/87 89/89/89 88/88/88
f 89/89/89 90/90/90 88/88/88
f 89/89/89 87/87/87 91/91/91
f 91/91/91 92/92/92 89/89/89
f 91/91/91 93/93/93 92/92/92
