g pPlane5
v 3.737118 -3.84985 4.791074
v 4.377293 -4.164569 4.780313
v 4.699206 -4.43273 5.039963
v 3.648414 -4.050475 5.381584
v 7.497088 -5.84484 5.081285
v 5.224386 -4.471104 4.501013
v 6.926661 -5.295748 4.442941
v 6.332071 -4.954591 4.335124
v 7.868256 -6.308177 5.752419
v 4.044957 -4.379747 5.698875
v 3.681142 -4.359647 6.087863
v 7.484696 -6.485969 6.642404
v 3.758202 -4.568501 6.498898
v 3.325411 -4.551119 6.977381
v 6.711463 -6.472191 7.538939
v 3.086677 -4.861171 8.012198
v 6.571537 -6.635429 8.100871
v 3.438866 -5.29076 8.624755
v 4.018936 -5.588136 8.644444
v 5.518744 -6.410944 8.825398
v 3.914492 -5.671125 8.970175
v 4.611557 -6.087081 9.135166
v 3.995212 -5.77123 9.11454
v 5.785536 -2.512208 -0.8980167
v 6.935121 -2.74764 -1.712524
v 7.626532 -3.099761 -1.694689
v 8.51444 -3.927041 -0.7671812
v 5.478592 -2.593337 -0.333277
v 8.760951 -4.365741 -0.005579586
v 4.839632 -2.352487 -0.1458289
v 4.884449 -2.557697 0.2951861
v 8.733573 -4.65757 0.7311489
v 5.558104 -2.949931 0.4311123
v 5.497245 -3.164251 1.021173
v 8.565802 -4.807119 1.293549
v 6.02974 -3.645845 1.542344
v 6.527525 -3.97604 1.740123
v 7.556608 -4.713975 2.282405
v 6.330711 -4.038039 2.126304
v 6.699425 -4.353638 2.444082
v 3.954658 0.2440609 -5.343823
v 4.8328 0.007747457 -5.829811
v 5.55204 -0.3580545 -5.812443
v 6.140209 -0.8670182 -5.292208
v 3.505342 0.1474472 -4.570544
v 6.136224 -1.182561 -4.526415
v 3.462204 -0.0267374 -4.098593
v 6.371432 -1.493584 -4.059142
v 3.098392 -0.006629984 -3.709624
v 5.954381 -1.593845 -3.315863
v 5.183917 -1.190656 -3.361808
v 5.495746 -1.40501 -3.2198
v 3.59739 -0.4106998 -3.33514
v 3.087518 -0.1844608 -3.267673
v 4.833389 -1.140453 -3.061397
v 4.327954 -0.90418 -3.023463
v 1.441847 2.224311 -7.098116
v 1.831522 2.032743 -7.104667
v 2.412805 1.661491 -6.908273
v 0.8452548 2.407697 -6.823027
v 2.67141 1.326761 -6.411955
v 0.2979148 2.395908 -6.136454
v 2.472594 1.106997 -5.642887
v 0.2281675 2.161535 -5.487348
v 1.794951 1.183687 -5.01302
v 0.4520578 1.978197 -5.314404
v 0.2552426 1.916198 -4.928223
v 0.7195309 1.663527 -4.877131
v -4.372924 4.936383 -6.646958
v -4.560884 4.894459 -6.31984
v -5.044148 5.18088 -6.42951
v -5.069989 5.352338 -6.811947
v -3.700484 4.618017 -6.687718
v -5.86951 5.843092 -7.034131
v -3.257587 4.546824 -7.048578
v -6.198308 6.248967 -7.617622
v -0.7424698 3.261513 -6.973045
v -0.7005667 3.509575 -7.621683
v -1.174958 3.816062 -7.790417
v -2.471372 4.025978 -6.737818
v -3.013507 4.255863 -6.640351
v -0.6331277 3.049004 -6.592011
v -2.260788 3.812546 -6.476297
v -1.117159 3.103781 -6.142106
v -2.183706 3.603688 -6.065281
v -2.715898 4.622456 -7.882325
v -1.876459 4.221984 -7.925874
v -2.627194 4.823082 -8.472835
v -6.092378 6.611739 -8.619898
v -3.423497 5.39773 -8.901218
v -4.189541 5.810962 -8.976695
v -5.475545 6.504234 -9.102327
v -4.748096 6.310273 -9.50926
vt 0.259026 0.7246715
vt 0.2270707 0.7246715
vt 0.2090095 0.7373686
vt 0.259026 0.7528868
vt 0.06868501 0.7416009
vt 0.1867793 0.7119744
vt 0.1020293 0.7105633
vt 0.1325947 0.7049198
vt 0.04506575 0.7740487
vt 0.2367968 0.7684052
vt 0.252079 0.7867457
vt 0.05756988 0.8163722
vt 0.2451328 0.8064972
vt 0.2631941 0.8290691
vt 0.08952521 0.8586956
vt 0.2673621 0.8784472
vt 0.09230329 0.8855009
vt 0.2451328 0.9080737
vt 0.2159565 0.9094838
vt 0.1395417 0.9193596
vt 0.2187346 0.9250031
vt 0.1826112 0.9334677
vt 0.2136099 0.9319835
vt 0.1992834 0.4538
vt 0.1478778 0.4157088
vt 0.1131435 0.41712
vt 0.06173794 0.4622647
vt 0.2103985 0.4806052
vt 0.04367672 0.4989457
vt 0.2409648 0.4890699
vt 0.2354068 0.5102316
vt 0.03950866 0.5342147
vt 0.2006734 0.5172853
vt 0.1992834 0.5455016
vt 0.04367672 0.5610199
vt 0.1687181 0.5708958
vt 0.1423208 0.5807706
vt 0.0867462 0.6075758
vt 0.1492669 0.5991111
vt 0.1284266 0.6146303
vt 0.3243257 0.2393612
vt 0.2840343 0.2167883
vt 0.2479109 0.2181994
vt 0.2145665 0.2435935
vt 0.3409978 0.2760412
vt 0.2090095 0.2802736
vt 0.3396088 0.2986141
vt 0.1937263 0.3028464
vt 0.354891 0.3169536
vt 0.2090095 0.3381154
vt 0.2479109 0.3352941
vt 0.2312387 0.3423478
vt 0.3271047 0.3352942
vt 0.3521129 0.3381154
vt 0.2631941 0.3494023
vt 0.2882023 0.3508125
vt 0.4632611 0.153303
vt 0.44381 0.153303
vt 0.4132446 0.1631788
vt 0.4910484 0.1660001
vt 0.3965724 0.1871618
vt 0.5132776 0.1984478
vt 0.4007404 0.2238419
vt 0.5118886 0.2294854
vt 0.4299167 0.2534684
vt 0.4993844 0.2379501
vt 0.5063305 0.2562905
vt 0.4827123 0.2591118
vt 0.7416633 0.1811405
vt 0.748375 0.196133
vt 0.772536 0.1906817
vt 0.7765628 0.1729626
vt 0.7094489 0.1797773
vt 0.8168308 0.1620582
vt 0.6906567 0.1634215
vt 0.8369649 0.1347989
vt 0.5685094 0.1688737
vt 0.5711943 0.1388879
vt 0.5953552 0.1307099
vt 0.6503886 0.1784149
vt 0.6758915 0.1825038
vt 0.5604558 0.1865928
vt 0.6383082 0.1906817
vt 0.5805898 0.2070374
vt 0.6315965 0.2097631
vt 0.6705226 0.1252577
vt 0.6302546 0.1238953
vt 0.6705226 0.09799838
vt 0.8391225 0.08849671
vt 0.7121328 0.07755369
vt 0.7497169 0.07346475
vt 0.812804 0.06665012
vt 0.7805893 0.04838347
vn 0.4183248 0.83903 0.3478982
vn 0.4183249 0.83903 0.3478982
vn 0.4183249 0.83903 0.3478982
vn 0.4183249 0.83903 0.3478982
vn 0.4183249 0.83903 0.3478982
vn 0.4183249 0.83903 0.3478982
vn 0.4183249 0.83903 0.3478983
vn 0.4183249 0.83903 0.3478982
vn 0.4183249 0.83903 0.3478982
vn 0.4183249 0.83903 0.3478982
vn 0.4183248 0.83903 0.3478982
vn 0.4183249 0.83903 0.3478982
vn 0.4183249 0.83903 0.3478982
vn 0.4183249 0.83903 0.3478982
vn 0.4183249 0.8390298 0.3478982
vn 0.4183249 0.83903 0.3478982
vn 0.4183249 0.83903 0.3478982
vn 0.4183249 0.83903 0.3478982
vn 0.4183248 0.83903 0.3478982
vn 0.4183249 0.83903 0.3478982
vn 0.4183249 0.83903 0.3478982
vn 0.4183249 0.83903 0.3478982
vn 0.4183249 0.83903 0.3478982
vn 0.4183253 0.8390296 0.3478984
vn 0.4183253 0.8390296 0.3478984
vn 0.4183253 0.8390296 0.3478984
vn 0.4183252 0.8390296 0.3478984
vn 0.4183252 0.8390296 0.3478983
vn 0.4183252 0.8390296 0.3478984
vn 0.4183253 0.8390296 0.3478984
vn 0.4183252 0.8390296 0.3478984
vn 0.4183253 0.8390296 0.3478984
vn 0.4183253 0.8390296 0.3478984
vn 0.4183253 0.8390296 0.3478984
vn 0.4183253 0.8390296 0.3478984
vn 0.4183253 0.8390296 0.3478984
vn 0.4183252 0.8390296 0.3478983
vn 0.4183253 0.8390296 0.3478983
vn 0.4183253 0.8390296 0.3478983
vn 0.4183252 0.8390296 0.3478984
vn 0.4183253 0.8390294 0.347899
vn 0.4183252 0.8390294 0.347899
vn 0.4183252 0.8390294 0.347899
vn 0.4183252 0.8390294 0.347899
vn 0.4183252 0.8390294 0.347899
vn 0.4183252 0.8390294 0.347899
vn 0.4183252 0.8390294 0.347899
vn 0.4183253 0.8390294 0.347899
vn 0.4183252 0.8390294 0.347899
vn 0.4183252 0.8390294 0.347899
vn 0.4183252 0.8390294 0.347899
vn 0.4183253 0.8390294 0.347899
vn 0.4183252 0.8390294 0.347899
vn 0.4183252 0.8390294 0.347899
vn 0.4183252 0.8390294 0.347899
vn 0.4183252 0.8390294 0.347899
vn 0.4183252 0.8390294 0.3478989
vn 0.4183252 0.8390294 0.3478989
vn 0.4183252 0.8390294 0.3478989
vn 0.4183252 0.8390294 0.3478989
vn 0.4183252 0.8390294 0.3478989
vn 0.4183252 0.8390294 0.3478989
vn 0.4183252 0.8390294 0.3478989
vn 0.4183252 0.8390294 0.3478988
vn 0.4183252 0.8390294 0.3478989
vn 0.4183252 0.8390294 0.3478989
vn 0.4183252 0.8390294 0.3478989
vn 0.4183252 0.8390294 0.3478989
vn 0.4183252 0.8390294 0.3478991
vn 0.4183252 0.8390294 0.347899
vn 0.4183252 0.8390294 0.347899
vn 0.4183252 0.8390294 0.3478991
vn 0.4183252 0.8390294 0.3478991
vn 0.4183252 0.8390294 0.3478991
vn 0.4183252 0.8390294 0.3478991
vn 0.4183252 0.8390294 0.347899
vn 0.4183252 0.8390294 0.3478991
vn 0.4183252 0.8390294 0.3478991
vn 0.4183252 0.8390294 0.3478991
vn 0.4183252 0.8390294 0.3478991
vn 0.4183252 0.8390294 0.3478991
vn 0.4183252 0.8390294 0.3478991
vn 0.4183252 0.8390294 0.3478991
vn 0.4183252 0.8390294 0.3478991
vn 0.4183252 0.8390294 0.3478991
vn 0.4183252 0.8390294 0.3478991
vn 0.4183252 0.8390294 0.3478991
vn 0.4183252 0.8390294 0.347899
vn 0.4183252 0.8390294 0.347899
vn 0.4183252 0.8390294 0.3478991
vn 0.4183252 0.8390294 0.347899
vn 0.4183252 0.8390294 0.3478991
vn 0.4183251 0.8390294 0.3478991
g pPlane5_0
f 3/3/3 2/2/2 1/1/1
f 1/1/1 4/4/4 3/3/3
f 4/4/4 5/5/5 3/3/3
f 6/6/6 3/3/3 5/5/5
f 6/6/6 5/5/5 7/7/7
f 7/7/7 8/8/8 6/6/6
f 4/4/4 9/9/9 5/5/5
f 4/4/4 10/10/10 9/9/9
f 10/10/10 11/11/11 9/9/9
f 11/11/11 12/12/12 9/9/9
f 11/11/11 13/13/13 12/12/12
f 13/13/13 14/14/14 12/12/12
f 14/14/14 15/15/15 12/12/12
f 14/14/14 16/16/16 15/15/15
f 16/16/16 17/17/17 15/15/15
f 16/16/16 18/18/18 17/17/17
f 18/18/18 19/19/19 17/17/17
f 19/19/19 20/20/20 17/17/17
f 19/19/19 21/21/21 20/20/20
f 21/21/21 22/22/22 20/20/20
f 21/21/21 23/23/23 22/22/22
f 26/26/26 25/25/25 24/24/24
f 24/24/24 27/27/27 26/26/26
f 24/24/24 28/28/28 27/27/27
f 28/28/28 29/29/29 27/27/27
f 28/28/28 30/30/30 29/29/29
f 30/30/30 31/31/31 29/29/29
f 31/31/31 32/32/32 29/29/29
f 31/31/31 33/33/33 32/32/32
f 33/33/33 34/34/34 32/32/32
f 34/34/34 35/35/35 32/32/32
f 34/34/34 36/36/36 35/35/35
f 36/36/36 37/37/37 35/35/35
f 37/37/37 38/38/38 35/35/35
f 37/37/37 39/39/39 38/38/38
f 39/39/39 40/40/40 38/38/38
f 43/43/43 42/42/42 41/41/41
f 41/41/41 44/44/44 43/43/43
f 41/41/41 45/45/45 44/44/44
f 45/45/45 46/46/46 44/44/44
f 45/45/45 47/47/47 46/46/46
f 47/47/47 48/48/48 46/46/46
f 47/47/47 49/49/49 48/48/48
f 49/49/49 50/50/50 48/48/48
f 49/49/49 51/51/51 50/50/50
f 51/51/51 52/52/52 50/50/50
f 53/53/53 51/51/51 49/49/49
f 49/49/49 54/54/54 53/53/53
f 55/55/55 51/51/51 53/53/53
f 53/53/53 56/56/56 55/55/55
f 59/59/59 58/58/58 57/57/57
f 57/57/57 60/60/60 59/59/59
f 60/60/60 61/61/61 59/59/59
f 60/60/60 62/62/62 61/61/61
f 62/62/62 63/63/63 61/61/61
f 62/62/62 64/64/64 63/63/63
f 64/64/64 65/65/65 63/63/63
f 64/64/64 66/66/66 65/65/65
f 66/66/66 67/67/67 65/65/65
f 67/67/67 68/68/68 65/65/65
f 71/71/71 70/70/70 69/69/69
f 72/72/72 71/71/71 69/69/69
f 72/72/72 69/69/69 73/73/73
f 74/74/74 72/72/72 73/73/73
f 74/74/74 73/73/73 75/75/75
f 75/75/75 76/76/76 74/74/74
f 76/76/76 75/75/75 77/77/77
f 76/76/76 77/77/77 78/78/78
f 76/76/76 78/78/78 79/79/79
f 75/75/75 80/80/80 77/77/77
f 75/75/75 81/81/81 80/80/80
f 82/82/82 77/77/77 80/80/80
f 80/80/80 83/83/83 82/82/82
f 83/83/83 84/84/84 82/82/82
f 83/83/83 85/85/85 84/84/84
f 76/76/76 79/79/79 86/86/86
f 87/87/87 86/86/86 79/79/79
f 76/76/76 86/86/86 88/88/88
f 89/89/89 76/76/76 88/88/88
f 89/89/89 88/88/88 90/90/90
f 89/89/89 90/90/90 91/91/91
f 92/92/92 89/89/89 91/91/91
f 91/91/91 93/93/93 92/92/92
