g pPlane9
v 7.238945 -2.381621 -4.632505
v 7.78469 -2.546004 -4.753668
v 8.435678 -2.707379 -4.376318
v 6.90992 -2.251983 -4.100336
v 8.889276 -2.790979 -3.679667
v 7.083903 -2.281003 -3.787317
v 7.263337 -2.293642 -3.2045
v 8.825798 -2.728292 -3.010463
v 7.888755 -2.457295 -2.97155
v 8.491317 -2.615033 -2.748075
v 2.168073 -1.126077 -7.59433
v 2.749252 -1.299782 -7.703045
v 3.091499 -1.388363 -7.560921
v 1.830467 -0.9924381 -7.03896
v 3.541728 -1.486952 -7.104159
v 3.618262 -1.465841 -6.457069
v 2.015572 -1.002987 -6.400295
v 3.260736 -1.332386 -5.990246
v 2.609351 -1.142441 -5.939715
v -2.884096 0.4235189 -6.053986
v -2.232496 0.2192843 -6.318453
v -1.644189 0.06345665 -6.127662
v -1.550277 0.06227867 -5.740871
v -3.210181 0.5470577 -5.600852
v -1.813482 0.1659859 -5.315119
v -3.347651 0.6111056 -5.229889
v -2.22489 0.2867013 -5.271955
v -2.399465 0.3585726 -4.943165
v -3.030925 0.5486984 -4.804103
v -4.560617 1.081617 -3.379378
v -4.146279 0.9548043 -3.501598
v -3.795204 0.87639 -3.16855
v -4.955238 1.222895 -2.954705
v -4.144324 1.020125 -2.510957
v -4.998392 1.257193 -2.62485
v -4.652987 1.176689 -2.347649
v -6.777029 1.891906 -0.7417044
v -6.422637 1.77883 -0.9155655
v -6.151418 1.713969 -0.7226822
v -7.094524 2.011444 -0.3117508
v -6.014739 1.707059 -0.2378946
v -7.115042 2.054116 0.241528
v -6.312324 1.826781 0.2805856
v -6.683901 1.947862 0.5008212
v -8.786057 2.609377 1.39351
v -8.255756 2.443657 1.185708
v -7.867377 2.343133 1.346987
v -7.799235 2.353962 1.803315
v -8.98486 2.698194 1.872766
v -8.01403 2.454035 2.382938
v -8.962408 2.72085 2.310139
v -8.548462 2.622605 2.615785
vt 0.06818399 0.821702
vt 0.04852301 0.850879
vt 0.054573 0.896949
vt 0.105992 0.814023
vt 0.083307 0.938413
vt 0.119603 0.830916
vt 0.148338 0.853951
vt 0.122628 0.949162
vt 0.146825 0.895414
vt 0.145313 0.935341
vt 0.05156146 0.4655726
vt 0.03338172 0.4945202
vt 0.03338172 0.5156553
vt 0.0876848 0.458519
vt 0.0473934 0.5488095
vt 0.07934873 0.5657389
vt 0.1168611 0.4810919
vt 0.1113031 0.5558631
vt 0.1279753 0.5220042
vt 0.2405134 0.2257388
vt 0.2127261 0.2553661
vt 0.2099471 0.2906351
vt 0.2280093 0.3033322
vt 0.2710788 0.2172741
vt 0.2557966 0.2976896
vt 0.293309 0.2172741
vt 0.2669107 0.2765279
vt 0.287751 0.2737057
vt 0.3085912 0.2426691
vt 0.4155722 0.1890587
vt 0.4002891 0.2088093
vt 0.4100142 0.2342035
vt 0.4461376 0.1763617
vt 0.4516946 0.2285609
vt 0.4641988 0.180594
vt 0.4711458 0.204577
vt 0.6003561 0.1227522
vt 0.5836839 0.1382705
vt 0.5878519 0.156611
vt 0.6295325 0.1142874
vt 0.6100813 0.1735404
vt 0.6587088 0.1241623
vt 0.6434256 0.1678969
vt 0.6628768 0.1523786
vt 0.7439093 0.04958156
vt 0.7216808 0.07384101
vt 0.7216807 0.09782493
vt 0.74391 0.110522
vt 0.7730863 0.04844686
vt 0.7786443 0.110522
vt 0.7953165 0.0583227
vt 0.8022626 0.08653805
vn 0.2748076 0.95938 -0.0638009
vn 0.2748077 0.95938 -0.06380091
vn 0.2748077 0.95938 -0.06380092
vn 0.2748076 0.95938 -0.06380091
vn 0.2748076 0.95938 -0.06380091
vn 0.2748076 0.95938 -0.06380091
vn 0.2748077 0.95938 -0.06380091
vn 0.2748077 0.95938 -0.06380091
vn 0.2748077 0.95938 -0.06380091
vn 0.2748077 0.95938 -0.06380091
vn 0.2748072 0.9593801 -0.06380131
vn 0.2748072 0.9593801 -0.0638013
vn 0.2748072 0.9593801 -0.06380131
vn 0.2748072 0.9593801 -0.0638013
vn 0.2748072 0.9593801 -0.06380131
vn 0.2748072 0.9593801 -0.06380131
vn 0.2748072 0.9593801 -0.0638013
vn 0.2748072 0.9593801 -0.06380131
vn 0.2748072 0.9593801 -0.0638013
vn 0.2748075 0.95938 -0.0638022
vn 0.2748075 0.95938 -0.0638022
vn 0.2748075 0.95938 -0.0638022
vn 0.2748075 0.95938 -0.06380221
vn 0.2748075 0.95938 -0.0638022
vn 0.2748074 0.95938 -0.06380218
vn 0.2748075 0.95938 -0.0638022
vn 0.2748075 0.95938 -0.06380221
vn 0.2748075 0.95938 -0.0638022
vn 0.2748075 0.95938 -0.06380221
vn 0.2748079 0.9593799 -0.06380236
vn 0.2748079 0.9593799 -0.06380236
vn 0.2748079 0.9593799 -0.06380236
vn 0.2748079 0.9593799 -0.06380236
vn 0.2748079 0.9593799 -0.06380236
vn 0.2748079 0.9593799 -0.06380237
vn 0.2748079 0.9593799 -0.06380236
vn 0.274807 0.9593801 -0.06380259
vn 0.274807 0.9593801 -0.06380259
vn 0.274807 0.9593801 -0.06380259
vn 0.274807 0.9593801 -0.06380259
vn 0.274807 0.9593801 -0.06380259
vn 0.274807 0.9593801 -0.06380259
vn 0.274807 0.9593801 -0.06380259
vn 0.274807 0.9593801 -0.06380259
vn 0.2748078 0.95938 -0.06380067
vn 0.2748077 0.9593801 -0.06380067
vn 0.2748077 0.95938 -0.06380067
vn 0.2748077 0.95938 -0.06380066
vn 0.2748077 0.95938 -0.06380066
vn 0.2748077 0.95938 -0.06380067
vn 0.2748077 0.9593801 -0.06380067
vn 0.2748077 0.9593801 -0.06380067
g pPlane9_0
f 3/3/3 2/2/2 1/1/1
f 1/1/1 4/4/4 3/3/3
f 4/4/4 5/5/5 3/3/3
f 4/4/4 6/6/6 5/5/5
f 6/6/6 7/7/7 5/5/5
f 7/7/7 8/8/8 5/5/5
f 7/7/7 9/9/9 8/8/8
f 9/9/9 10/10/10 8/8/8
f 13/13/13 12/12/12 11/11/11
f 11/11/11 14/14/14 13/13/13
f 14/14/14 15/15/15 13/13/13
f 14/14/14 16/16/16 15/15/15
f 14/14/14 17/17/17 16/16/16
f 17/17/17 18/18/18 16/16/16
f 17/17/17 19/19/19 18/18/18
f 22/22/22 21/21/21 20/20/20
f 20/20/20 23/23/23 22/22/22
f 20/20/20 24/24/24 23/23/23
f 24/24/24 25/25/25 23/23/23
f 24/24/24 26/26/26 25/25/25
f 26/26/26 27/27/27 25/25/25
f 26/26/26 28/28/28 27/27/27
f 26/26/26 29/29/29 28/28/28
f 32/32/32 31/31/31 30/30/30
f 30/30/30 33/33/33 32/32/32
f 33/33/33 34/34/34 32/32/32
f 33/33/33 35/35/35 34/34/34
f 35/35/35 36/36/36 34/34/34
f 39/39/39 38/38/38 37/37/37
f 37/37/37 40/40/40 39/39/39
f 40/40/40 41/41/41 39/39/39
f 40/40/40 42/42/42 41/41/41
f 42/42/42 43/43/43 41/41/41
f 42/42/42 44/44/44 43/43/43
f 47/47/47 46/46/46 45/45/45
f 45/45/45 48/48/48 47/47/47
f 45/45/45 49/49/49 48/48/48
f 49/49/49 50/50/50 48/48/48
f 49/49/49 51/51/51 50/50/50
f 51/51/51 52/52/52 50/50/50
