g pPlane3
v -22.74986 1.344585 3.413969
v -25.27596 1.344585 3.413969
v -25.90174 8.957558 -0.7838982
v -23.21122 10.22167 -1.477072
v -20.20325 1.344585 3.413969
v -26.52752 16.57053 -4.981766
v -20.50142 11.41416 -2.130169
v -17.61565 1.344585 3.413969
v -23.67257 19.09875 -6.368113
v -27.1533 24.1835 -9.179633
v -17.75307 12.46343 -2.703112
v -14.96655 1.344585 3.413969
v -24.13393 27.97583 -11.25915
v -27.77907 31.79647 -13.3775
v -24.59529 36.85291 -16.1502
v -20.79958 21.48374 -7.674306
v -21.09775 31.55331 -13.21844
v -21.39591 41.62289 -18.76258
v -14.94692 13.29784 -3.155827
v -12.23547 1.344585 3.413969
v -17.8905 23.58227 -8.820194
v -18.02792 34.70111 -14.93728
v -18.16535 45.81995 -21.05436
v -12.06367 13.8458 -3.448233
v -9.523948 1.344585 3.413969
v -14.92728 25.2511 -9.725621
v -14.90764 37.20436 -16.29542
v -14.88801 49.15762 -22.86521
v -9.161806 14.1642 -3.613951
v -6.93355 1.344585 3.413969
v -11.89188 26.34701 -10.31044
v -11.72008 38.84823 -17.17264
v -11.54829 51.34945 -24.03484
v -6.29978 14.30995 -3.686593
v -4.565835 1.344585 3.413969
v -8.799665 26.98382 -10.64187
v -8.437524 39.80343 -17.66979
v -8.075382 52.62305 -24.69771
v -3.536059 14.33996 -3.699776
v -2.522358 1.344585 3.413969
v -5.66601 27.27532 -10.78715
v -5.032239 40.24069 -17.88772
v -4.398469 53.20606 -24.98828
v -0.9291075 14.31114 -3.687116
v -0.7153446 1.344585 3.413969
v -2.506284 27.33534 -10.81352
v -1.476509 40.33072 -17.92727
v -0.4467332 53.32611 -25.04102
v 1.541655 14.16643 -3.614933
v 0.9429802 1.344585 3.413969
v 0.664143 27.2777 -10.7882
v 2.257393 40.24426 -17.88929
v 3.850644 53.21082 -24.99038
v 8.312656 52.63196 -24.70164
v 3.798656 26.98827 -10.64384
v 6.055656 39.81011 -17.67274
v 12.7583 51.36133 -24.04008
v 9.804471 38.85714 -17.17657
v 17.00657 49.17069 -22.87098
v 3.896811 13.84877 -3.449543
v 2.540391 1.344585 3.413969
v 6.850641 26.35295 -10.31306
v 13.39003 37.21416 -16.29974
v 20.87647 45.83183 -21.0596
v 6.156937 13.30111 -3.157267
v 4.164663 1.344585 3.413969
v 9.773481 25.25763 -9.728502
v 16.69852 34.71002 -14.9412
v 24.46258 41.63181 -18.76651
v 8.342614 12.4664 -2.704422
v 5.80908 1.344585 3.413969
v 12.52057 23.58821 -8.822812
v 19.79921 31.56 -13.22139
v 27.8595 36.85767 -16.15229
v 10.47245 11.41639 -2.13115
v 7.466928 1.344585 3.413969
v 15.13583 21.4882 -7.676272
v 22.76136 27.9794 -11.26073
v 31.16183 31.79647 -13.3775
v 25.65425 24.1835 -9.179633
v 17.66322 19.10113 -6.369161
v 20.14666 16.57053 -4.981766
v 12.56507 10.22286 -1.477595
v 9.131489 1.344585 3.413969
v 14.63908 8.957558 -0.7838982
vt 0.08807858 0.01200844
vt 0.01336832 0.01200844
vt 0.01336832 0.2394543
vt 0.08469567 0.2394543
vt 0.1627888 0.01200844
vt 0.01336832 0.4669001
vt 0.1559456 0.2394543
vt 0.2374991 0.01200844
vt 0.08131276 0.4669001
vt 0.01336832 0.694346
vt 0.2270408 0.2394543
vt 0.3122094 0.01200844
vt 0.07792984 0.694346
vt 0.01336832 0.9217918
vt 0.07454694 0.9217918
vt 0.1491411 0.4669001
vt 0.142414 0.694346
vt 0.1357256 0.9217918
vt 0.2975633 0.2394543
vt 0.384196 0.01200844
vt 0.2167372 0.4669001
vt 0.2067433 0.694346
vt 0.1969042 0.9217918
vt 0.3670952 0.2394543
vt 0.4561827 0.01200844
vt 0.2838302 0.4669001
vt 0.2705616 0.694346
vt 0.2580828 0.9217918
vt 0.4356485 0.2394543
vt 0.5281695 0.01200844
vt 0.3501492 0.4669001
vt 0.3335128 0.694346
vt 0.3170311 0.9217918
vt 0.5032347 0.2394543
vt 0.6001561 0.01200844
vt 0.4153559 0.4669001
vt 0.3955469 0.694346
vt 0.3759795 0.9217918
vt 0.5662836 0.2394543
vt 0.6462083 0.01200844
vt 0.4791122 0.4669001
vt 0.456614 0.694346
vt 0.4349278 0.9217918
vt 0.6212245 0.2394543
vt 0.6922605 0.01200844
vt 0.5401129 0.4669001
vt 0.5163787 0.694346
vt 0.4938762 0.9217918
vt 0.6718186 0.2394543
vt 0.7383127 0.01200844
vt 0.5970529 0.4669001
vt 0.5745056 0.694346
vt 0.5527703 0.9217918
vt 0.6116645 0.9217918
vt 0.6515231 0.4669001
vt 0.6315206 0.694346
vt 0.6705586 0.9217918
vt 0.6879498 0.694346
vt 0.7294527 0.9217918
vt 0.7218268 0.2394543
vt 0.7843649 0.01200844
vt 0.7051146 0.4669001
vt 0.7448202 0.694346
vt 0.7924106 0.9217918
vt 0.7721656 0.2394543
vt 0.8335948 0.01200844
vt 0.7588323 0.4669001
vt 0.8031592 0.694346
vt 0.8553685 0.9217918
vt 0.8237513 0.2394543
vt 0.8828247 0.01200844
vt 0.8136816 0.4669001
vt 0.8623457 0.694346
vt 0.9183264 0.9217918
vt 0.8760738 0.2394543
vt 0.9320545 0.01200844
vt 0.8692663 0.4669001
vt 0.9217585 0.694346
vt 0.9812843 0.9217918
vt 0.9812843 0.694346
vt 0.9251904 0.4669001
vt 0.9812843 0.4669001
vt 0.9286225 0.2394543
vt 0.9812843 0.01200844
vt 0.9812843 0.2394543
vn -0.0006007064 0.4825338 0.8758771
vn -0.0005903575 0.4826787 0.8757974
vn -0.0009889574 0.4826584 0.8758081
vn -0.001142158 0.4825163 0.8758862
vn -0.0006798198 0.482271 0.8760218
vn -0.001869023 0.4826132 0.8758316
vn -0.001292883 0.48226 0.8760272
vn -0.0008679361 0.4819816 0.8761808
vn -0.002110182 0.4824779 0.8759056
vn -0.002656789 0.4825725 0.875852
vn -0.001665568 0.4819757 0.876183
vn -0.001167355 0.4816245 0.8763769
vn -0.002944038 0.4824444 0.8759217
vn -0.003227853 0.482543 0.8758664
vn -0.003408236 0.4823604 0.8759663
vn -0.002414299 0.482235 0.8760387
vn -0.003400009 0.4822122 0.8760478
vn -0.004158827 0.4821272 0.8760914
vn -0.00227224 0.4816259 0.8763739
vn -0.001369058 0.4812013 0.8766091
vn -0.003134152 0.4819619 0.8761866
vn -0.004443315 0.4819486 0.8761882
vn -0.005549099 0.4818593 0.876231
vn -0.002690239 0.4812125 0.8765999
vn -0.001283317 0.4807727 0.8768444
vn -0.004300569 0.4816276 0.8763654
vn -0.006125104 0.4816272 0.8763549
vn -0.007569102 0.481538 0.8763925
vn -0.002496599 0.4807937 0.8768302
vn -0.0008753294 0.4804296 0.8770329
vn -0.00508027 0.4812337 0.8765776
vn -0.007216398 0.4812503 0.8765535
vn -0.008154459 0.4811868 0.8765801
vn -0.001658633 0.480452 0.8770195
vn -3.650231E-05 0.4802478 0.8771328
vn -0.004623327 0.4808346 0.8767992
vn -0.006457501 0.4808679 0.8767693
vn -0.007009605 0.4808428 0.8767788
vn -4.379732E-05 0.4802414 0.8771364
vn 0.0009714513 0.4802704 0.87712
vn -0.002957059 0.4804938 0.8769931
vn -0.004005258 0.4805272 0.8769707
vn -0.004237791 0.4805242 0.8769712
vn 0.001753448 0.4801991 0.8771577
vn 0.001647275 0.4804745 0.8770072
vn -5.478537E-05 0.4802317 0.8771417
vn -6.273073E-05 0.4802246 0.8771456
vn 6.671907E-05 0.4802133 0.8771517
vn 0.002871202 0.4803227 0.8770872
vn 0.001888028 0.4807979 0.8768293
vn 0.002824899 0.4800902 0.8772146
vn 0.003540815 0.480017 0.877252
vn 0.003830192 0.4799883 0.8772665
vn 0.005713813 0.4799239 0.8772915
vn 0.004424877 0.4801076 0.8771984
vn 0.005398336 0.4799722 0.877267
vn 0.006124295 0.4800374 0.8772267
vn 0.005759694 0.4801172 0.8771854
vn 0.005258607 0.4803835 0.8770428
vn 0.003196918 0.4805848 0.8769425
vn 0.001638801 0.4812071 0.8766054
vn 0.004794625 0.4802937 0.8770947
vn 0.004724695 0.4805276 0.8769668
vn 0.003718663 0.480897 0.8767692
vn 0.002673297 0.4809978 0.8767177
vn 0.001173086 0.4816158 0.8763817
vn 0.003956639 0.4807039 0.8768741
vn 0.003288954 0.4810407 0.8766922
vn 0.002666896 0.4813209 0.8765404
vn 0.001879763 0.4814412 0.8764765
vn 0.0008829723 0.4819386 0.8762047
vn 0.00276393 0.4811899 0.876612
vn 0.002385638 0.4814379 0.8764769
vn 0.002090858 0.481623 0.876376
vn 0.001396387 0.4817849 0.8762884
vn 0.0007427785 0.4821973 0.8760623
vn 0.002022638 0.4815652 0.876408
vn 0.001938526 0.4817048 0.8763314
vn 0.001905624 0.4817622 0.8762999
vn 0.001794416 0.4818171 0.8762699
vn 0.001664724 0.4818248 0.8762659
vn 0.001543625 0.4819413 0.8762022
vn 0.001173389 0.4820399 0.8761485
vn 0.0007107292 0.4823526 0.8759769
vn 0.001111701 0.4821548 0.8760854
g pPlane3_0
f 3/3/3 2/2/2 1/1/1
f 3/3/3 1/1/1 4/4/4
f 4/4/4 1/1/1 5/5/5
f 6/6/6 3/3/3 4/4/4
f 4/4/4 5/5/5 7/7/7
f 7/7/7 5/5/5 8/8/8
f 6/6/6 4/4/4 9/9/9
f 9/9/9 4/4/4 7/7/7
f 10/10/10 6/6/6 9/9/9
f 7/7/7 8/8/8 11/11/11
f 11/11/11 8/8/8 12/12/12
f 10/10/10 9/9/9 13/13/13
f 14/14/14 10/10/10 13/13/13
f 14/14/14 13/13/13 15/15/15
f 9/9/9 7/7/7 16/16/16
f 13/13/13 9/9/9 16/16/16
f 16/16/16 7/7/7 11/11/11
f 15/15/15 13/13/13 17/17/17
f 13/13/13 16/16/16 17/17/17
f 15/15/15 17/17/17 18/18/18
f 11/11/11 12/12/12 19/19/19
f 19/19/19 12/12/12 20/20/20
f 16/16/16 11/11/11 21/21/21
f 17/17/17 16/16/16 21/21/21
f 21/21/21 11/11/11 19/19/19
f 18/18/18 17/17/17 22/22/22
f 17/17/17 21/21/21 22/22/22
f 18/18/18 22/22/22 23/23/23
f 19/19/19 20/20/20 24/24/24
f 24/24/24 20/20/20 25/25/25
f 21/21/21 19/19/19 26/26/26
f 22/22/22 21/21/21 26/26/26
f 26/26/26 19/19/19 24/24/24
f 23/23/23 22/22/22 27/27/27
f 22/22/22 26/26/26 27/27/27
f 23/23/23 27/27/27 28/28/28
f 24/24/24 25/25/25 29/29/29
f 29/29/29 25/25/25 30/30/30
f 26/26/26 24/24/24 31/31/31
f 27/27/27 26/26/26 31/31/31
f 31/31/31 24/24/24 29/29/29
f 28/28/28 27/27/27 32/32/32
f 27/27/27 31/31/31 32/32/32
f 28/28/28 32/32/32 33/33/33
f 29/29/29 30/30/30 34/34/34
f 34/34/34 30/30/30 35/35/35
f 31/31/31 29/29/29 36/36/36
f 32/32/32 31/31/31 36/36/36
f 36/36/36 29/29/29 34/34/34
f 33/33/33 32/32/32 37/37/37
f 32/32/32 36/36/36 37/37/37
f 33/33/33 37/37/37 38/38/38
f 34/34/34 35/35/35 39/39/39
f 40/40/40 39/39/39 35/35/35
f 36/36/36 34/34/34 41/41/41
f 37/37/37 36/36/36 41/41/41
f 41/41/41 34/34/34 39/39/39
f 38/38/38 37/37/37 42/42/42
f 37/37/37 41/41/41 42/42/42
f 38/38/38 42/42/42 43/43/43
f 40/40/40 44/44/44 39/39/39
f 45/45/45 44/44/44 40/40/40
f 41/41/41 39/39/39 46/46/46
f 42/42/42 41/41/41 46/46/46
f 44/44/44 46/46/46 39/39/39
f 43/43/43 42/42/42 47/47/47
f 42/42/42 46/46/46 47/47/47
f 43/43/43 47/47/47 48/48/48
f 45/45/45 49/49/49 44/44/44
f 50/50/50 49/49/49 45/45/45
f 44/44/44 51/51/51 46/46/46
f 51/51/51 47/47/47 46/46/46
f 49/49/49 51/51/51 44/44/44
f 52/52/52 48/48/48 47/47/47
f 51/51/51 52/52/52 47/47/47
f 52/52/52 53/53/53 48/48/48
f 52/52/52 54/54/54 53/53/53
f 55/55/55 52/52/52 51/51/51
f 49/49/49 55/55/55 51/51/51
f 52/52/52 56/56/56 54/54/54
f 55/55/55 56/56/56 52/52/52
f 56/56/56 57/57/57 54/54/54
f 56/56/56 58/58/58 57/57/57
f 55/55/55 58/58/58 56/56/56
f 58/58/58 59/59/59 57/57/57
f 50/50/50 60/60/60 49/49/49
f 61/61/61 60/60/60 50/50/50
f 49/49/49 62/62/62 55/55/55
f 55/55/55 62/62/62 58/58/58
f 49/49/49 60/60/60 62/62/62
f 58/58/58 63/63/63 59/59/59
f 62/62/62 63/63/63 58/58/58
f 63/63/63 64/64/64 59/59/59
f 61/61/61 65/65/65 60/60/60
f 66/66/66 65/65/65 61/61/61
f 60/60/60 67/67/67 62/62/62
f 62/62/62 67/67/67 63/63/63
f 60/60/60 65/65/65 67/67/67
f 63/63/63 68/68/68 64/64/64
f 67/67/67 68/68/68 63/63/63
f 68/68/68 69/69/69 64/64/64
f 66/66/66 70/70/70 65/65/65
f 71/71/71 70/70/70 66/66/66
f 65/65/65 72/72/72 67/67/67
f 67/67/67 72/72/72 68/68/68
f 65/65/65 70/70/70 72/72/72
f 68/68/68 73/73/73 69/69/69
f 72/72/72 73/73/73 68/68/68
f 73/73/73 74/74/74 69/69/69
f 71/71/71 75/75/75 70/70/70
f 76/76/76 75/75/75 71/71/71
f 70/70/70 77/77/77 72/72/72
f 72/72/72 77/77/77 73/73/73
f 70/70/70 75/75/75 77/77/77
f 73/73/73 78/78/78 74/74/74
f 77/77/77 78/78/78 73/73/73
f 78/78/78 79/79/79 74/74/74
f 78/78/78 80/80/80 79/79/79
f 77/77/77 81/81/81 78/78/78
f 81/81/81 80/80/80 78/78/78
f 75/75/75 81/81/81 77/77/77
f 81/81/81 82/82/82 80/80/80
f 76/76/76 83/83/83 75/75/75
f 75/75/75 83/83/83 81/81/81
f 83/83/83 82/82/82 81/81/81
f 84/84/84 83/83/83 76/76/76
f 83/83/83 85/85/85 82/82/82
f 84/84/84 85/85/85 83/83/83
