g pPlane1
v 7.409123 3.699062 2.071865
v 7.814034 3.771305 1.786766
v 8.136147 3.971411 1.997301
v 10.71638 5.075699 2.154928
v 10.28396 4.77004 1.758765
v 8.797199 4.113125 1.604741
v 9.785261 4.493853 1.535885
v 5.60956 3.013677 2.22191
v 7.32025 3.534031 1.677048
v 10.82648 5.501047 3.321343
v 6.09726 2.958048 1.441158
v 6.965406 3.2217 1.163368
v 6.641612 2.861421 0.4638221
v 6.181073 2.642555 0.3689539
v 5.046049 2.860839 2.458324
v 4.825353 2.87614 2.781365
v -9.275802 -2.787317 3.059161
v 4.359903 2.618368 2.573352
v 3.799646 2.344274 2.433911
v -8.87628 -2.32786 3.96805
v 10.74902 5.563229 3.608923
v 10.17581 5.774172 4.972878
v 0.1012776 0.8244471 2.401146
v -0.3560222 0.4843274 1.930449
v 0.8206722 1.085333 2.300985
v 1.858282 1.319783 1.721628
v 3.506894 1.936038 1.548485
v 2.506783 1.411114 1.190293
v 3.331869 1.578529 0.6713013
v 3.050633 1.408302 0.5012293
v -0.8596355 0.1692273 1.594406
v -8.808475 -3.22686 1.12677
v -3.302913 -1.010187 1.035084
v -8.185589 -3.142474 0.6061792
v -0.7228959 0.02780645 0.9897119
v -7.384437 -2.821833 0.5869446
v -2.355711 -0.659331 0.9257593
v -1.492481 -0.4345922 0.5348048
v -0.7971464 -0.4620861 -0.4194652
v 0.07644729 -0.2533337 -0.8723992
v -3.381436 -1.191201 0.5783131
v -4.34065 -1.686243 0.260575
v -3.749345 -1.460098 0.2141529
v -5.090054 -2.086798 -0.02996087
v -4.739088 -2.000998 -0.2060021
v -6.825346 -2.80173 -0.05092278
v -7.667353 -3.152235 -0.0721386
v -5.263399 -2.284133 -0.4181347
v -8.800454 -3.750816 -0.4897802
v -5.920698 -2.640917 -0.6897008
v -5.18061 -2.412004 -0.9137877
v -9.088804 -4.026321 -0.9737462
v -4.588783 -2.279667 -1.248489
v -10.19627 -4.617942 -1.402125
v -2.857894 -1.697466 -1.628988
v -10.51463 -5.033116 -2.276786
v -3.496045 -1.804781 -1.159606
v -4.356061 -2.150786 -1.144491
v -2.490629 -1.776361 -2.330397
v -1.322748 -1.440812 -2.762754
v -2.714687 -2.081407 -2.985377
v -1.352758 -1.580481 -3.15345
v -3.638471 -2.491672 -3.087509
v -10.58449 -5.390288 -3.284521
v -4.51323 -2.954417 -3.411882
v -5.170528 -3.3112 -3.683448
v -4.712189 -3.158699 -3.78931
v -5.507907 -3.534235 -3.945192
v -5.558101 -3.735755 -4.500277
v -10.02927 -5.596715 -4.612109
v -5.722779 -4.109247 -5.439415
v -8.995518 -5.588792 -5.881195
v -6.100522 -4.455976 -6.029917
v -7.264129 -5.100404 -6.549966
v -8.002518 -5.484411 -6.803545
v -1.89299 1.486125 6.925065
v -3.08377 1.116177 7.280602
v -4.042483 0.5273218 6.674592
v -1.018877 1.601069 6.183851
v -4.481285 0.08887213 5.879255
v -0.5153874 1.47457 5.166046
v -4.364725 -0.114392 5.110191
v -0.1186491 1.629147 5.14362
v -5.246596 -0.6824047 4.471942
v 9.552931 5.689784 5.493442
v -6.733875 -1.245511 4.606197
v -7.402043 -1.492504 4.684865
v -5.812807 -0.8077941 4.795898
v 2.842345 2.892609 5.312904
v -0.1839616 1.84631 5.891186
v 2.414554 2.785973 5.521174
v 1.890889 2.850637 6.374628
v 0.05536209 2.174286 6.597374
v 0.9840474 2.623468 6.812695
v 3.030441 3.206691 6.040585
v 6.424673 4.521891 5.826454
v 9.166005 5.613027 5.742201
v 8.714293 5.614267 6.31116
v 6.837856 4.953385 6.632518
v 7.692562 5.347463 6.771449
v 4.287211 3.707278 6.003036
v 3.654489 3.545058 6.297284
v 5.750552 4.423602 6.368519
v 4.501435 3.93449 6.431672
v 5.048641 4.252017 6.720609
vt 0.7739773 0.2659113
vt 0.7950407 0.2709438
vt 0.8061919 0.2558465
vt 0.9151102 0.2016841
vt 0.9015954 0.2269097
vt 0.8396453 0.2608789
vt 0.8830102 0.2457817
vt 0.6946809 0.2923319
vt 0.7752162 0.2847833
vt 0.9048949 0.1487237
vt 0.7256564 0.3174949
vt 0.7665432 0.3137201
vt 0.7615871 0.3502055
vt 0.7430018 0.3627875
vt 0.6674225 0.2923319
vt 0.6537932 0.2822671
vt 0.04394518 0.5285128
vt 0.636447 0.2998805
vt 0.6141455 0.3162363
vt 0.04947414 0.4814967
vt 0.8978784 0.1375831
vt 0.8557517 0.08851582
vt 0.4555519 0.3854333
vt 0.4419226 0.41437
vt 0.4877664 0.3766261
vt 0.5398043 0.3829171
vt 0.6129064 0.3602712
vt 0.5744969 0.3942404
vt 0.6166236 0.4017891
vt 0.6067114 0.41437
vt 0.4245764 0.4382744
vt 0.08880459 0.6043466
vt 0.3266947 0.5074714
vt 0.1222581 0.61567
vt 0.4382056 0.4621788
vt 0.1569507 0.6018304
vt 0.3688213 0.4948904
vt 0.4109471 0.4961481
vt 0.4530738 0.5250849
vt 0.4964395 0.5288596
vt 0.3291727 0.5288596
vt 0.292003 0.5603126
vt 0.3180215 0.5515054
vt 0.2635055 0.5867332
vt 0.2808518 0.5879909
vt 0.1891643 0.6194447
vt 0.1532336 0.6357996
vt 0.2610275 0.6068628
vt 0.1098679 0.6748021
vt 0.2362471 0.6307672
vt 0.2709397 0.6269933
vt 0.1036728 0.7012228
vt 0.3006752 0.6307672
vt 0.06154706 0.7402244
vt 0.3799725 0.61567
vt 0.05906902 0.7842584
vt 0.346519 0.6068628
vt 0.3093484 0.6219609
vt 0.4047529 0.6395744
vt 0.4605079 0.6370581
vt 0.4035139 0.6722859
vt 0.464225 0.6546715
vt 0.3651043 0.6936733
vt 0.06898116 0.829551
vt 0.3316507 0.7238686
vt 0.3068703 0.7477729
vt 0.3279336 0.7439982
vt 0.2957192 0.7653863
vt 0.3006752 0.7905493
vt 0.1098679 0.8773597
vt 0.3056313 0.8345833
vt 0.1705799 0.9138451
vt 0.2969582 0.8672949
vt 0.2535934 0.911329
vt 0.2250959 0.9359336
vt 0.3118264 0.2243935
vt 0.2560714 0.2306845
vt 0.2226178 0.2747185
vt 0.3589092 0.2407493
vt 0.2139447 0.3174948
vt 0.3936018 0.2759762
vt 0.228813 0.3489479
vt 0.4109471 0.2696861
vt 0.1990765 0.3929819
vt 0.8222991 0.07719332
vt 0.1334093 0.41437
vt 0.1036728 0.4231772
vt 0.1705799 0.389208
vt 0.5360872 0.2080377
vt 0.3985578 0.2382331
vt 0.5150248 0.2067801
vt 0.4815713 0.1791009
vt 0.3997968 0.2030053
vt 0.4369666 0.1765848
vt 0.5348482 0.17281
vt 0.6835297 0.1199688
vt 0.8024747 0.07341859
vt 0.7757611 0.05684623
vt 0.6909638 0.07719332
vt 0.7259318 0.05546468
vt 0.5893651 0.1514218
vt 0.5583896 0.1501641
vt 0.647598 0.1086463
vt 0.5930821 0.128776
vt 0.6129064 0.1061301
vn -0.3616813 0.8863522 -0.2890788
vn -0.3616813 0.8863522 -0.2890788
vn -0.3616813 0.8863522 -0.2890788
vn -0.3616813 0.8863522 -0.2890788
vn -0.3616813 0.8863522 -0.2890788
vn -0.3616813 0.8863522 -0.2890788
vn -0.3616813 0.8863522 -0.2890788
vn -0.3616813 0.8863522 -0.2890788
vn -0.3616813 0.8863522 -0.2890788
vn -0.3616813 0.8863522 -0.2890788
vn -0.3616813 0.8863522 -0.2890788
vn -0.3616813 0.8863522 -0.2890788
vn -0.3616813 0.8863522 -0.2890788
vn -0.3616813 0.8863522 -0.2890788
vn -0.3616813 0.8863522 -0.2890788
vn -0.3616813 0.8863522 -0.2890788
vn -0.3616813 0.8863522 -0.2890788
vn -0.3616813 0.8863522 -0.2890788
vn -0.3616813 0.8863522 -0.2890788
vn -0.3616813 0.8863522 -0.2890788
vn -0.3616813 0.8863522 -0.2890788
vn -0.3616813 0.8863522 -0.2890788
vn -0.3616813 0.8863522 -0.2890788
vn -0.3616813 0.8863522 -0.2890788
vn -0.3616813 0.8863522 -0.2890788
vn -0.3616813 0.8863522 -0.2890788
vn -0.3616813 0.8863522 -0.2890788
vn -0.3616813 0.8863522 -0.2890788
vn -0.3616813 0.8863522 -0.2890788
vn -0.3616813 0.8863522 -0.2890788
vn -0.3616813 0.8863522 -0.2890788
vn -0.3616813 0.8863522 -0.2890788
vn -0.3616813 0.8863522 -0.2890788
vn -0.3616813 0.8863522 -0.2890788
vn -0.3616813 0.8863522 -0.2890788
vn -0.3616813 0.8863522 -0.2890788
vn -0.3616813 0.8863522 -0.2890788
vn -0.3616813 0.8863522 -0.2890788
vn -0.3616813 0.8863522 -0.2890788
vn -0.3616813 0.8863522 -0.2890788
vn -0.3616813 0.8863522 -0.2890788
vn -0.3616813 0.8863522 -0.2890788
vn -0.3616813 0.8863521 -0.2890788
vn -0.3616813 0.8863522 -0.2890788
vn -0.3616813 0.8863522 -0.2890788
vn -0.3616813 0.8863522 -0.2890788
vn -0.3616813 0.8863522 -0.2890788
vn -0.3616813 0.8863522 -0.2890788
vn -0.3616813 0.8863522 -0.2890788
vn -0.3616813 0.8863522 -0.2890788
vn -0.3616813 0.8863522 -0.2890788
vn -0.3616813 0.8863522 -0.2890788
vn -0.3616813 0.8863522 -0.2890788
vn -0.3616813 0.8863522 -0.2890788
vn -0.3616813 0.8863522 -0.2890788
vn -0.3616813 0.8863522 -0.2890788
vn -0.3616813 0.8863522 -0.2890788
vn -0.3616813 0.8863522 -0.2890788
vn -0.3616813 0.8863522 -0.2890788
vn -0.3616813 0.8863522 -0.2890788
vn -0.3616813 0.8863522 -0.2890788
vn -0.3616813 0.8863522 -0.2890788
vn -0.3616813 0.8863522 -0.2890788
vn -0.3616813 0.8863522 -0.2890788
vn -0.3616813 0.8863522 -0.2890788
vn -0.3616813 0.8863522 -0.2890788
vn -0.3616813 0.8863522 -0.2890788
vn -0.3616813 0.8863522 -0.2890788
vn -0.3616813 0.8863522 -0.2890788
vn -0.3616813 0.8863522 -0.2890788
vn -0.3616813 0.8863522 -0.2890788
vn -0.3616813 0.8863522 -0.2890788
vn -0.3616813 0.8863522 -0.2890788
vn -0.3616813 0.8863522 -0.2890788
vn -0.3616813 0.8863522 -0.2890788
vn -0.3616813 0.8863522 -0.2890788
vn -0.3616813 0.8863522 -0.2890788
vn -0.3616813 0.8863522 -0.2890788
vn -0.3616813 0.8863522 -0.2890788
vn -0.3616813 0.8863522 -0.2890788
vn -0.3616813 0.8863522 -0.2890788
vn -0.3616813 0.8863522 -0.2890788
vn -0.3616813 0.8863522 -0.2890788
vn -0.3616813 0.8863522 -0.2890788
vn -0.3616813 0.8863522 -0.2890788
vn -0.3616813 0.8863522 -0.2890788
vn -0.3616813 0.8863522 -0.2890788
vn -0.3616813 0.8863522 -0.2890788
vn -0.3616813 0.8863522 -0.2890788
vn -0.3616813 0.8863522 -0.2890788
vn -0.3616813 0.8863522 -0.2890788
vn -0.3616813 0.8863522 -0.2890788
vn -0.3616813 0.8863522 -0.2890788
vn -0.3616813 0.8863522 -0.2890788
vn -0.3616813 0.8863522 -0.2890788
vn -0.3616813 0.8863522 -0.2890788
vn -0.3616813 0.8863522 -0.2890788
vn -0.3616813 0.8863522 -0.2890788
vn -0.3616813 0.8863522 -0.2890788
vn -0.3616813 0.8863522 -0.2890788
vn -0.3616813 0.8863522 -0.2890788
vn -0.3616813 0.8863522 -0.2890788
vn -0.3616813 0.8863522 -0.2890788
vn -0.3616813 0.8863522 -0.2890788
vn -0.3616813 0.8863522 -0.2890788
g pPlane1_0
f 3/3/3 2/2/2 1/1/1
f 3/3/3 1/1/1 4/4/4
f 3/3/3 4/4/4 5/5/5
f 6/6/6 3/3/3 5/5/5
f 5/5/5 7/7/7 6/6/6
f 8/8/8 4/4/4 1/1/1
f 8/8/8 1/1/1 9/9/9
f 8/8/8 10/10/10 4/4/4
f 11/11/11 8/8/8 9/9/9
f 11/11/11 9/9/9 12/12/12
f 11/11/11 12/12/12 13/13/13
f 13/13/13 14/14/14 11/11/11
f 8/8/8 15/15/15 10/10/10
f 15/15/15 16/16/16 10/10/10
f 16/16/16 17/17/17 10/10/10
f 17/17/17 16/16/16 18/18/18
f 17/17/17 18/18/18 19/19/19
f 17/17/17 20/20/20 10/10/10
f 20/20/20 21/21/21 10/10/10
f 20/20/20 22/22/22 21/21/21
f 17/17/17 19/19/19 23/23/23
f 17/17/17 23/23/23 24/24/24
f 25/25/25 23/23/23 19/19/19
f 26/26/26 25/25/25 19/19/19
f 26/26/26 19/19/19 27/27/27
f 28/28/28 26/26/26 27/27/27
f 28/28/28 27/27/27 29/29/29
f 29/29/29 30/30/30 28/28/28
f 17/17/17 24/24/24 31/31/31
f 32/32/32 17/17/17 31/31/31
f 33/33/33 32/32/32 31/31/31
f 34/34/34 32/32/32 33/33/33
f 33/33/33 31/31/31 35/35/35
f 36/36/36 34/34/34 33/33/33
f 37/37/37 33/33/33 35/35/35
f 38/38/38 37/37/37 35/35/35
f 39/39/39 38/38/38 35/35/35
f 35/35/35 40/40/40 39/39/39
f 36/36/36 33/33/33 41/41/41
f 36/36/36 41/41/41 42/42/42
f 43/43/43 42/42/42 41/41/41
f 36/36/36 42/42/42 44/44/44
f 45/45/45 44/44/44 42/42/42
f 46/46/46 36/36/36 44/44/44
f 47/47/47 46/46/46 44/44/44
f 47/47/47 44/44/44 48/48/48
f 49/49/49 47/47/47 48/48/48
f 49/49/49 48/48/48 50/50/50
f 49/49/49 50/50/50 51/51/51
f 52/52/52 49/49/49 51/51/51
f 52/52/52 51/51/51 53/53/53
f 53/53/53 54/54/54 52/52/52
f 54/54/54 53/53/53 55/55/55
f 56/56/56 54/54/54 55/55/55
f 53/53/53 57/57/57 55/55/55
f 53/53/53 58/58/58 57/57/57
f 56/56/56 55/55/55 59/59/59
f 56/56/56 59/59/59 60/60/60
f 56/56/56 60/60/60 61/61/61
f 62/62/62 61/61/61 60/60/60
f 56/56/56 61/61/61 63/63/63
f 64/64/64 56/56/56 63/63/63
f 64/64/64 63/63/63 65/65/65
f 64/64/64 65/65/65 66/66/66
f 67/67/67 66/66/66 65/65/65
f 64/64/64 66/66/66 68/68/68
f 64/64/64 68/68/68 69/69/69
f 70/70/70 64/64/64 69/69/69
f 70/70/70 69/69/69 71/71/71
f 72/72/72 70/70/70 71/71/71
f 72/72/72 71/71/71 73/73/73
f 72/72/72 73/73/73 74/74/74
f 74/74/74 75/75/75 72/72/72
f 78/78/78 77/77/77 76/76/76
f 78/78/78 76/76/76 79/79/79
f 80/80/80 78/78/78 79/79/79
f 80/80/80 79/79/79 81/81/81
f 82/82/82 80/80/80 81/81/81
f 81/81/81 83/83/83 82/82/82
f 82/82/82 83/83/83 22/22/22
f 84/84/84 82/82/82 22/22/22
f 20/20/20 84/84/84 22/22/22
f 83/83/83 85/85/85 22/22/22
f 86/86/86 84/84/84 20/20/20
f 20/20/20 87/87/87 86/86/86
f 84/84/84 86/86/86 88/88/88
f 83/83/83 89/89/89 85/85/85
f 89/89/89 83/83/83 90/90/90
f 90/90/90 91/91/91 89/89/89
f 90/90/90 92/92/92 91/91/91
f 90/90/90 93/93/93 92/92/92
f 93/93/93 94/94/94 92/92/92
f 89/89/89 95/95/95 85/85/85
f 95/95/95 96/96/96 85/85/85
f 96/96/96 97/97/97 85/85/85
f 98/98/98 97/97/97 96/96/96
f 96/96/96 99/99/99 98/98/98
f 99/99/99 100/100/100 98/98/98
f 95/95/95 101/101/101 96/96/96
f 95/95/95 102/102/102 101/101/101
f 103/103/103 96/96/96 101/101/101
f 101/101/101 104/104/104 103/103/103
f 104/104/104 105/105/105 103/103/103
