g pPlane3
v -10.00613 -5.619653 -4.711398
v -9.342532 -5.510912 -5.208239
v -8.851885 -5.286232 -5.133216
v -8.609163 -4.95577 -4.423658
v -10.31009 -5.427279 -3.741251
v -8.358152 -4.612879 -3.686364
v -10.17303 -5.084763 -2.862523
v -8.761358 -4.569567 -3.049091
v -8.920139 -4.500668 -2.63918
v -9.655195 -4.750929 -2.486848
v -8.640406 -2.816652 2.174242
v -7.944319 -2.556605 2.100667
v -7.412891 -2.168192 2.626693
v -9.17941 -2.840704 2.774863
v -7.395082 -1.868198 3.524233
v -9.264939 -2.624711 3.544142
v -7.845505 -1.827511 4.212529
v -9.141068 -2.438634 3.959695
v -8.608315 -2.085294 4.376526
v -4.133348 0.2989234 6.087981
v -3.545301 0.499126 5.966087
v -3.199296 0.7456434 6.289039
v -4.419677 0.3128675 6.488973
v -2.168394 1.269526 6.605517
v -2.766526 0.8833826 6.169905
v -4.157464 0.6384351 7.159139
v -2.324777 1.410325 7.232882
v -3.428841 1.049805 7.508833
v -2.768766 1.289904 7.419153
v -0.09311813 1.89347 5.922128
v 0.7724116 2.168933 5.683822
v 1.301467 2.485459 5.992404
v -0.1385173 2.064364 6.502909
v 1.303281 2.658978 6.522164
v 0.2824812 2.321041 6.763184
v 0.9673604 2.598402 6.756717
v 4.258242 3.511329 5.438477
v 4.957284 3.741642 5.27004
v 5.436723 3.983635 5.412173
v 5.518851 4.209479 6.001881
v 3.913493 3.539962 5.957603
v 3.937739 3.678856 6.353135
v 4.994006 4.13837 6.440513
v 4.361675 3.905796 6.518553
v 7.466575 4.778461 5.309554
v 8.160301 4.966617 5.018511
v 8.772584 5.305717 5.292175
v 8.799222 5.516502 5.905144
v 7.09702 4.76983 5.745464
v 7.237588 4.98099 6.217031
v 8.413114 5.48303 6.285591
v 7.823728 5.314986 6.50776
vt 0.083307 0.938413
vt 0.122628 0.949162
vt 0.145313 0.935341
vt 0.146825 0.895414
vt 0.054573 0.896949
vt 0.148338 0.853951
vt 0.04852301 0.850879
vt 0.119603 0.830916
vt 0.105992 0.814023
vt 0.06818399 0.821702
vt 0.07934873 0.5657389
vt 0.1113031 0.5558631
vt 0.1279753 0.5220042
vt 0.0473934 0.5488095
vt 0.1168611 0.4810919
vt 0.03338172 0.5156553
vt 0.0876848 0.458519
vt 0.03338172 0.4945202
vt 0.05156146 0.4655726
vt 0.2280093 0.3033322
vt 0.2557966 0.2976896
vt 0.2669107 0.2765279
vt 0.2099471 0.2906351
vt 0.3085912 0.2426691
vt 0.287751 0.2737057
vt 0.2127261 0.2553661
vt 0.293309 0.2172741
vt 0.2405134 0.2257388
vt 0.2710788 0.2172741
vt 0.4100142 0.2342035
vt 0.4516946 0.2285609
vt 0.4711458 0.204577
vt 0.4002891 0.2088093
vt 0.4641988 0.180594
vt 0.4155722 0.1890587
vt 0.4461376 0.1763617
vt 0.6100813 0.1735404
vt 0.6434256 0.1678969
vt 0.6628768 0.1523786
vt 0.6587088 0.1241623
vt 0.5878519 0.156611
vt 0.5836839 0.1382705
vt 0.6295325 0.1142874
vt 0.6003561 0.1227522
vt 0.74391 0.110522
vt 0.7786443 0.110522
vt 0.8022626 0.08653805
vt 0.7953165 0.0583227
vt 0.7216807 0.09782493
vt 0.7216808 0.07384101
vt 0.7730863 0.04844686
vt 0.7439093 0.04958156
vn -0.3616812 0.8863522 -0.2890787
vn -0.3616813 0.8863522 -0.2890788
vn -0.3616813 0.8863522 -0.2890788
vn -0.3616812 0.8863522 -0.2890787
vn -0.3616812 0.8863522 -0.2890787
vn -0.3616813 0.8863522 -0.2890787
vn -0.3616812 0.8863522 -0.2890787
vn -0.3616812 0.8863522 -0.2890788
vn -0.3616812 0.8863522 -0.2890787
vn -0.3616813 0.8863522 -0.2890788
vn -0.3616812 0.8863522 -0.2890786
vn -0.3616812 0.8863522 -0.2890786
vn -0.3616812 0.8863522 -0.2890786
vn -0.3616812 0.8863522 -0.2890786
vn -0.3616812 0.8863522 -0.2890786
vn -0.3616812 0.8863522 -0.2890786
vn -0.3616811 0.8863522 -0.2890786
vn -0.3616812 0.8863522 -0.2890786
vn -0.3616813 0.8863522 -0.2890787
vn -0.3616812 0.8863522 -0.2890787
vn -0.3616812 0.8863522 -0.2890787
vn -0.3616812 0.8863522 -0.2890788
vn -0.3616812 0.8863522 -0.2890787
vn -0.3616812 0.8863522 -0.2890787
vn -0.3616812 0.8863522 -0.2890787
vn -0.3616812 0.8863522 -0.2890787
vn -0.3616812 0.8863522 -0.2890787
vn -0.3616812 0.8863522 -0.2890787
vn -0.3616812 0.8863522 -0.2890787
vn -0.3616809 0.8863527 -0.2890779
vn -0.3616809 0.8863525 -0.2890779
vn -0.3616809 0.8863527 -0.2890779
vn -0.3616809 0.8863525 -0.2890779
vn -0.3616809 0.8863527 -0.2890779
vn -0.3616809 0.8863527 -0.2890779
vn -0.3616809 0.8863527 -0.2890779
vn -0.3616804 0.8863525 -0.2890788
vn -0.3616805 0.8863525 -0.2890789
vn -0.3616805 0.8863525 -0.2890789
vn -0.3616805 0.8863525 -0.2890789
vn -0.3616804 0.8863525 -0.2890789
vn -0.3616805 0.8863525 -0.2890789
vn -0.3616805 0.8863525 -0.2890789
vn -0.3616805 0.8863525 -0.2890788
vn -0.3616814 0.886352 -0.2890792
vn -0.3616814 0.8863519 -0.2890792
vn -0.3616814 0.8863519 -0.2890792
vn -0.3616813 0.886352 -0.2890792
vn -0.3616814 0.8863519 -0.2890792
vn -0.3616814 0.8863519 -0.2890792
vn -0.3616814 0.886352 -0.2890792
vn -0.3616814 0.886352 -0.2890792
g pPlane3_0
f 3/3/3 2/2/2 1/1/1
f 1/1/1 4/4/4 3/3/3
f 1/1/1 5/5/5 4/4/4
f 5/5/5 6/6/6 4/4/4
f 5/5/5 7/7/7 6/6/6
f 7/7/7 8/8/8 6/6/6
f 7/7/7 9/9/9 8/8/8
f 7/7/7 10/10/10 9/9/9
f 13/13/13 12/12/12 11/11/11
f 11/11/11 14/14/14 13/13/13
f 14/14/14 15/15/15 13/13/13
f 14/14/14 16/16/16 15/15/15
f 16/16/16 17/17/17 15/15/15
f 16/16/16 18/18/18 17/17/17
f 18/18/18 19/19/19 17/17/17
f 22/22/22 21/21/21 20/20/20
f 20/20/20 23/23/23 22/22/22
f 22/22/22 23/23/23 24/24/24
f 24/24/24 25/25/25 22/22/22
f 23/23/23 26/26/26 24/24/24
f 26/26/26 27/27/27 24/24/24
f 26/26/26 28/28/28 27/27/27
f 28/28/28 29/29/29 27/27/27
f 32/32/32 31/31/31 30/30/30
f 30/30/30 33/33/33 32/32/32
f 33/33/33 34/34/34 32/32/32
f 33/33/33 35/35/35 34/34/34
f 35/35/35 36/36/36 34/34/34
f 39/39/39 38/38/38 37/37/37
f 37/37/37 40/40/40 39/39/39
f 37/37/37 41/41/41 40/40/40
f 41/41/41 42/42/42 40/40/40
f 42/42/42 43/43/43 40/40/40
f 42/42/42 44/44/44 43/43/43
f 47/47/47 46/46/46 45/45/45
f 45/45/45 48/48/48 47/47/47
f 45/45/45 49/49/49 48/48/48
f 49/49/49 50/50/50 48/48/48
f 50/50/50 51/51/51 48/48/48
f 50/50/50 52/52/52 51/51/51
