g ProjectileFlask
v -1.713547 -0.001061554 0.5570093
v -1.721696 2.788111 0.5591549
v -1.058886 -0.0009979248 1.457827
v -1.06441 2.78844 1.463586
v -1.470841 3.318006 0.4775161
v 0.0002316729 -0.0005529785 1.801805
v -0.9094863 3.318287 1.249944
v -1.05371 3.747104 0.3418454
v -0.001042062 2.788937 1.808942
v 1.059263 0.0001031494 1.457554
v -0.6517959 3.747305 0.8948853
v -1.038605 4.670227 0.3367687
v -0.001318818 3.318712 1.544896
v 1.062235 2.789412 1.463311
v 1.713691 0.0007199097 0.556567
v -0.642622 4.670425 0.8816447
v -0.6956276 4.668077 0.2252803
v -0.4306819 4.66821 0.5898525
v -0.001570061 3.747609 1.106063
v -0.001994608 4.670726 1.089707
v -0.00204058 4.668411 0.7290648
v 0.9067742 3.319118 1.24971
v 1.719292 2.789684 0.55871
v 1.713547 0.001061554 -0.5570096
v 0.6385792 4.671011 0.8814807
v 0.4265628 4.668602 0.5897421
v 0.6486002 3.747899 0.8947174
v 1.467929 3.31935 0.4771367
v 1.719144 2.789648 -0.5593317
v 1.058887 0.0009977722 -1.457827
v 1.03442 4.671175 0.3365013
v 0.6914175 4.668711 0.2251007
v 1.050374 3.748066 0.3415737
v 1.467806 3.319319 -0.4777269
v 1.061861 2.789319 -1.463764
v -0.0002316698 0.0005529785 -1.801806
v 1.034334 4.671153 -0.3370654
v 0.6913591 4.668696 -0.2255771
v 1.050286 3.748044 -0.3420839
v 0.9064512 3.319038 -1.250155
v -0.001507505 2.788823 -1.80912
v -1.059263 -0.0001031494 -1.457554
v 0.6383526 4.670956 -0.8819415
v 0.4264108 4.668564 -0.590149
v 0.6483687 3.747842 -0.8951225
v -0.001716283 3.318613 -1.545107
v -1.064787 2.788347 -1.463488
v -1.71369 -0.0007199097 -0.5565671
v -0.002274538 4.670656 -1.090003
v -0.002228082 4.668363 -0.7293617
v -0.001854699 3.747538 -1.106302
v -0.909807 3.318208 -1.249921
v -1.72184 2.788075 -0.5588877
v -1.713547 -0.001061554 0.5570093
v -1.721696 2.788111 0.5591549
v -1.470964 3.317975 -0.4773474
v -1.470841 3.318006 0.4775161
v -0.6520274 3.747248 -0.8949556
v -0.6428508 4.67037 -0.8817763
v -0.4308313 4.668171 -0.590039
v -1.053798 3.747082 -0.341812
v -1.05371 3.747104 0.3418454
v -1.038692 4.670206 -0.3367979
v -0.6956884 4.668062 -0.225397
v -1.038605 4.670227 0.3367687
v -0.6956276 4.668077 0.2252803
v -0.6956276 4.668077 0.2252803
v -0.8382612 5.712396 0.2714564
v -0.4306819 4.66821 0.5898525
v -0.5190022 5.712555 0.7107594
v -0.00204058 4.668411 0.7290648
v -0.00249924 5.712798 0.8785079
v 0.4265628 4.668602 0.5897421
v 0.5139626 5.713028 0.7106261
v 0.6914175 4.668711 0.2251007
v 0.8331055 5.71316 0.2712403
v 0.6913591 4.668696 -0.2255771
v 0.8330356 5.713142 -0.2718191
v 0.4264108 4.668564 -0.590149
v 0.5137768 5.712983 -0.711122
v -0.002228082 4.668363 -0.7293617
v -0.002723726 5.712741 -0.8788709
v -0.4308313 4.668171 -0.590039
v -0.5191829 5.712511 -0.7109894
v -0.6956884 4.668062 -0.225397
v -0.8383308 5.712378 -0.2716029
v -0.6956276 4.668077 0.2252803
v -0.8382612 5.712396 0.2714564
v 1.058887 0.0009977722 -1.457827
v -3.177139E-09 2.842171E-16 3.445421E-09
v 1.713547 0.001061554 -0.5570096
v -0.0002316698 0.0005529785 -1.801806
v 1.713691 0.0007199097 0.556567
v -1.059263 -0.0001031494 -1.457554
v 1.059263 0.0001031494 1.457554
v -1.71369 -0.0007199097 -0.5565671
v 0.0002316729 -0.0005529785 1.801805
v -1.713547 -0.001061554 0.5570093
v -1.058886 -0.0009979248 1.457827
v 0.8330356 5.713142 -0.2718191
v 0.5873538 5.713033 -0.191957
v 0.5137768 5.712983 -0.711122
v 0.5874026 5.713046 0.191442
v 0.8331055 5.71316 0.2712403
v -0.002612642 5.712769 -0.0001814617
v 0.3620875 5.712952 0.5016468
v 0.3619587 5.712921 -0.5021042
v 0.5139626 5.713028 0.7106261
v -0.002723726 5.712741 -0.8788709
v -0.002530654 5.712789 0.6201705
v -0.00249924 5.712798 0.8785079
v -0.002690037 5.712749 -0.6205338
v -0.5191829 5.712511 -0.7109894
v -0.3671814 5.712618 0.5017413
v -0.5190022 5.712555 0.7107594
v -0.36731 5.712586 -0.5020099
v -0.8383308 5.712378 -0.2716029
v -0.5925791 5.712505 0.1915943
v -0.8382612 5.712396 0.2714564
v -0.5926279 5.712494 -0.1918048
vt 0.4778492 0.273393
vt 0.5405751 0.273393
vt 0.4778492 0.2504566
vt 0.540575 0.2504567
vt 0.5537168 0.273393
vt 0.4778492 0.225993
vt 0.5537168 0.2504566
vt 0.5674264 0.273393
vt 0.540575 0.225993
vt 0.4778492 0.1994591
vt 0.5674264 0.2504566
vt 0.5883216 0.273393
vt 0.5537168 0.225993
vt 0.5405751 0.199459
vt 0.4778492 0.1719761
vt 0.5883216 0.2504567
vt 0.5962818 0.2733929
vt 0.5962818 0.2504566
vt 0.5674264 0.225993
vt 0.5883216 0.2259931
vt 0.5962818 0.225993
vt 0.5537168 0.1994591
vt 0.540575 0.1719761
vt 0.4778492 0.145062
vt 0.5883216 0.199459
vt 0.5962818 0.199459
vt 0.5674263 0.1994591
vt 0.5537168 0.171976
vt 0.5405751 0.145062
vt 0.4778493 0.118342
vt 0.5883216 0.1719761
vt 0.5962818 0.1719761
vt 0.5674264 0.171976
vt 0.5537167 0.145062
vt 0.540575 0.118342
vt 0.4778492 0.08996708
vt 0.5883216 0.145062
vt 0.5962818 0.145062
vt 0.5674263 0.145062
vt 0.5537168 0.118342
vt 0.5405751 0.08996703
vt 0.4778493 0.06306361
vt 0.5883216 0.118342
vt 0.5962818 0.118342
vt 0.5674264 0.118342
vt 0.5537168 0.08996708
vt 0.540575 0.06306366
vt 0.4778492 0.03813579
vt 0.5883216 0.08996703
vt 0.5962818 0.08996702
vt 0.5674263 0.08996708
vt 0.5537168 0.06306359
vt 0.5405751 0.03813574
vt 0.4778493 0.01473268
vt 0.5405751 0.01473273
vt 0.5537168 0.03813577
vt 0.5537168 0.01473276
vt 0.5674264 0.0630636
vt 0.5883216 0.06306365
vt 0.5962818 0.06306364
vt 0.5674264 0.03813577
vt 0.5674263 0.01473276
vt 0.5883217 0.03813574
vt 0.5962818 0.03813582
vt 0.5883216 0.01473273
vt 0.5962818 0.01473271
vt 0.5992712 0.2729237
vt 0.6344013 0.2729238
vt 0.5992712 0.2499875
vt 0.6344013 0.2499876
vt 0.5992712 0.2255237
vt 0.6344015 0.2255238
vt 0.5992712 0.1989898
vt 0.6344013 0.1989899
vt 0.5992712 0.1715068
vt 0.6344015 0.1715068
vt 0.5992712 0.1445927
vt 0.6344015 0.1445927
vt 0.5992712 0.1178728
vt 0.6344015 0.1178728
vt 0.5992712 0.08949782
vt 0.6344013 0.08949786
vt 0.5992712 0.06259444
vt 0.6344015 0.06259439
vt 0.5992712 0.03766652
vt 0.6344013 0.03766657
vt 0.5992712 0.01426349
vt 0.6344015 0.01426346
vt 0.559922 0.5315381
vt 0.5333805 0.5508217
vt 0.5661876 0.5508217
vt 0.5435184 0.5196203
vt 0.559922 0.5701053
vt 0.5232426 0.5196203
vt 0.5435184 0.5820231
vt 0.506839 0.5315381
vt 0.5232426 0.5820231
vt 0.5005734 0.5508217
vt 0.506839 0.5701053
vt 0.4687246 0.06912941
vt 0.4516028 0.06912999
vt 0.4576032 0.1033623
vt 0.44375 0.04496185
vt 0.4576021 0.03489661
vt 0.4104864 0.06913052
vt 0.4231915 0.03002527
vt 0.4437506 0.09329809
vt 0.4284817 0.01374095
vt 0.4284833 0.1245196
vt 0.3977802 0.03002578
vt 0.3924873 0.01374204
vt 0.4231927 0.1082347
vt 0.3924894 0.1245179
vt 0.3772216 0.04496296
vt 0.3633689 0.03489988
vt 0.3977812 0.1082342
vt 0.3633706 0.1033623
vt 0.3693694 0.06913052
vt 0.352247 0.06913164
vt 0.3772222 0.09329809
vn -0.8439707 -0.4610054 0.2742033
vn -0.948166 0.06788112 0.3104409
vn -0.521551 -0.4608423 0.7180592
vn -0.584621 0.06805953 0.8084467
vn -0.77891 0.5653104 0.2715206
vn 0.00020481 -0.4605877 0.8876142
vn -0.4705945 0.5654634 0.6773418
vn -0.8801994 0.3675579 0.3002504
vn 0.002211294 0.0683348 0.99766
vn 0.5219635 -0.4603408 0.7180811
vn -0.5356381 0.36773 0.7601753
vn -0.9108242 0.2867351 0.2969549
vn 0.01737313 0.5656902 0.8244348
vn 0.5881879 0.06860129 0.8058094
vn 0.8443986 -0.460195 0.2742475
vn -0.562346 0.2869097 0.7755319
vn -0.9094247 0.3022147 0.2856799
vn -0.567842 0.3023848 0.765584
vn 0.01345406 0.3679855 0.9297341
vn 0.0008780673 0.2871733 0.9578782
vn -0.009414825 0.3026489 0.9530556
vn 0.4986067 0.565905 0.6566147
vn 0.9494916 0.0687587 0.3061664
vn 0.8443697 -0.4602058 -0.2743181
vn 0.5637184 0.2874252 0.7743438
vn 0.5525546 0.3028995 0.7764891
vn 0.5573434 0.3682284 0.7441614
vn 0.7892899 0.5660264 0.2379821
vn 0.9481082 0.06874526 -0.3104271
vn 0.5219331 -0.4603695 -0.7180847
vn 0.9111855 0.2875705 0.2950326
vn 0.9034147 0.3030448 0.3033244
vn 0.8882818 0.3683655 0.2743399
vn 0.778394 0.5660034 -0.2715567
vn 0.5845606 0.06856719 -0.8084475
vn 0.0002560254 -0.4606228 -0.887596
vn 0.9105615 0.28755 -0.2969728
vn 0.9091474 0.3030289 -0.2856998
vn 0.8798622 0.3683441 -0.3002753
vn 0.4700765 0.5658517 -0.6773773
vn -0.002288483 0.06829209 -0.9976628
vn -0.5214365 -0.4608701 -0.7181244
vn 0.5620848 0.2873745 -0.7755492
vn 0.5675648 0.3028582 -0.7656025
vn 0.5353019 0.3681709 -0.7601987
vn -0.0178906 0.5656222 -0.8244704
vn -0.5882717 0.06802494 -0.8057971
vn -0.8439097 -0.4610165 -0.2743725
vn -0.001141502 0.2871122 -0.9578963
vn 0.00913812 0.3025978 -0.9530746
vn -0.01378978 0.3679138 -0.9297577
vn -0.4991235 0.5654078 -0.6566504
vn -0.9495629 0.06786801 -0.306144
vn -0.8439707 -0.4610054 0.2742033
vn -0.948166 0.06788112 0.3104409
vn -0.7898073 0.5652889 -0.238019
vn -0.77891 0.5653104 0.2715206
vn -0.5576796 0.3676716 -0.7441848
vn -0.5639804 0.2868599 -0.7743626
vn -0.5528309 0.3023442 -0.7765087
vn -0.8886183 0.3675361 -0.2743625
vn -0.8801994 0.3675579 0.3002504
vn -0.9114488 0.2867154 -0.2950512
vn -0.9036906 0.3022004 -0.3033449
vn -0.9108242 0.2867351 0.2969549
vn -0.9094247 0.3022147 0.2856799
vn -0.9094247 0.3022147 0.2856799
vn -0.9522615 0.04583583 0.301823
vn -0.567842 0.3023848 0.765584
vn -0.5929902 0.04601729 0.8038937
vn -0.009414825 0.3026489 0.9530556
vn -0.007226422 0.04629109 0.9989018
vn 0.5525546 0.3028995 0.7764891
vn 0.5812904 0.0465534 0.8123634
vn 0.9034147 0.3030448 0.3033244
vn 0.9477665 0.04670619 0.3155271
vn 0.9091474 0.3030289 -0.2856998
vn 0.9522189 0.04668812 -0.3018267
vn 0.5675648 0.3028582 -0.7656025
vn 0.5929494 0.04650751 -0.8038956
vn 0.00913812 0.3025978 -0.9530746
vn 0.007184885 0.04623405 -0.9989048
vn -0.5528309 0.3023442 -0.7765087
vn -0.5813317 0.04597178 -0.8123669
vn -0.9036906 0.3022004 -0.3033449
vn -0.9478075 0.04581827 -0.315534
vn -0.9094247 0.3022147 0.2856799
vn -0.9522615 0.04583583 0.301823
vn 0.5219331 -0.4603695 -0.7180847
vn 0.0005197551 -0.9999999 -0.0003069547
vn 0.8443697 -0.4602058 -0.2743181
vn 0.0002560254 -0.4606228 -0.887596
vn 0.8443986 -0.460195 0.2742475
vn -0.5214365 -0.4608701 -0.7181244
vn 0.5219635 -0.4603408 0.7180811
vn -0.8439097 -0.4610165 -0.2743725
vn 0.00020481 -0.4605877 0.8876142
vn -0.8439707 -0.4610054 0.2742033
vn -0.521551 -0.4608423 0.7180592
vn 0.9522189 0.04668812 -0.3018267
vn -0.0004569775 0.9999999 -3.159799E-05
vn 0.5929494 0.04650751 -0.8038956
vn -0.0004570105 0.9999999 -3.108224E-05
vn 0.9477665 0.04670619 0.3155271
vn -0.0004575254 0.9999999 -3.156111E-05
vn -0.0004570931 0.9999999 -3.177271E-05
vn -0.0004563725 0.9999999 -3.15734E-05
vn 0.5812904 0.0465534 0.8123634
vn 0.007184885 0.04623405 -0.9989048
vn -0.0004569761 0.9999999 -3.268962E-05
vn -0.007226422 0.04629109 0.9989018
vn -0.0004590127 0.9999999 -3.092525E-05
vn -0.5813317 0.04597178 -0.8123669
vn -0.0004578545 0.9999999 -3.208562E-05
vn -0.5929902 0.04601729 0.8038937
vn -0.0004570563 0.9999999 -3.091913E-05
vn -0.9478075 0.04581827 -0.315534
vn -0.0004562013 0.9999999 -3.10388E-05
vn -0.9522615 0.04583583 0.301823
vn -0.0004577008 0.9999999 -3.313337E-05
g ProjectileFlask_0
f 3/3/3 2/2/2 1/1/1
f 3/3/3 4/4/4 2/2/2
f 4/4/4 5/5/5 2/2/2
f 6/6/6 4/4/4 3/3/3
f 4/4/4 7/7/7 5/5/5
f 7/7/7 8/8/8 5/5/5
f 6/6/6 9/9/9 4/4/4
f 9/9/9 7/7/7 4/4/4
f 10/10/10 9/9/9 6/6/6
f 7/7/7 11/11/11 8/8/8
f 11/11/11 12/12/12 8/8/8
f 9/9/9 13/13/13 7/7/7
f 13/13/13 11/11/11 7/7/7
f 10/10/10 14/14/14 9/9/9
f 14/14/14 13/13/13 9/9/9
f 15/15/15 14/14/14 10/10/10
f 11/11/11 16/16/16 12/12/12
f 17/17/17 12/12/12 16/16/16
f 17/17/17 16/16/16 18/18/18
f 13/13/13 19/19/19 11/11/11
f 19/19/19 16/16/16 11/11/11
f 18/18/18 16/16/16 20/20/20
f 19/19/19 20/20/20 16/16/16
f 18/18/18 20/20/20 21/21/21
f 14/14/14 22/22/22 13/13/13
f 22/22/22 19/19/19 13/13/13
f 15/15/15 23/23/23 14/14/14
f 23/23/23 22/22/22 14/14/14
f 24/24/24 23/23/23 15/15/15
f 21/21/21 20/20/20 25/25/25
f 21/21/21 25/25/25 26/26/26
f 27/27/27 20/20/20 19/19/19
f 22/22/22 27/27/27 19/19/19
f 27/27/27 25/25/25 20/20/20
f 23/23/23 28/28/28 22/22/22
f 28/28/28 27/27/27 22/22/22
f 24/24/24 29/29/29 23/23/23
f 29/29/29 28/28/28 23/23/23
f 30/30/30 29/29/29 24/24/24
f 26/26/26 25/25/25 31/31/31
f 26/26/26 31/31/31 32/32/32
f 33/33/33 25/25/25 27/27/27
f 28/28/28 33/33/33 27/27/27
f 33/33/33 31/31/31 25/25/25
f 29/29/29 34/34/34 28/28/28
f 34/34/34 33/33/33 28/28/28
f 30/30/30 35/35/35 29/29/29
f 35/35/35 34/34/34 29/29/29
f 36/36/36 35/35/35 30/30/30
f 32/32/32 31/31/31 37/37/37
f 32/32/32 37/37/37 38/38/38
f 39/39/39 31/31/31 33/33/33
f 34/34/34 39/39/39 33/33/33
f 39/39/39 37/37/37 31/31/31
f 35/35/35 40/40/40 34/34/34
f 40/40/40 39/39/39 34/34/34
f 36/36/36 41/41/41 35/35/35
f 41/41/41 40/40/40 35/35/35
f 42/42/42 41/41/41 36/36/36
f 38/38/38 37/37/37 43/43/43
f 38/38/38 43/43/43 44/44/44
f 45/45/45 37/37/37 39/39/39
f 40/40/40 45/45/45 39/39/39
f 45/45/45 43/43/43 37/37/37
f 41/41/41 46/46/46 40/40/40
f 46/46/46 45/45/45 40/40/40
f 42/42/42 47/47/47 41/41/41
f 47/47/47 46/46/46 41/41/41
f 48/48/48 47/47/47 42/42/42
f 44/44/44 43/43/43 49/49/49
f 44/44/44 49/49/49 50/50/50
f 51/51/51 43/43/43 45/45/45
f 46/46/46 51/51/51 45/45/45
f 51/51/51 49/49/49 43/43/43
f 47/47/47 52/52/52 46/46/46
f 52/52/52 51/51/51 46/46/46
f 48/48/48 53/53/53 47/47/47
f 53/53/53 52/52/52 47/47/47
f 54/54/54 53/53/53 48/48/48
f 54/54/54 55/55/55 53/53/53
f 55/55/55 56/56/56 53/53/53
f 53/53/53 56/56/56 52/52/52
f 55/55/55 57/57/57 56/56/56
f 52/52/52 58/58/58 51/51/51
f 58/58/58 49/49/49 51/51/51
f 56/56/56 58/58/58 52/52/52
f 50/50/50 49/49/49 59/59/59
f 58/58/58 59/59/59 49/49/49
f 50/50/50 59/59/59 60/60/60
f 57/57/57 61/61/61 56/56/56
f 56/56/56 61/61/61 58/58/58
f 61/61/61 59/59/59 58/58/58
f 57/57/57 62/62/62 61/61/61
f 60/60/60 59/59/59 63/63/63
f 61/61/61 63/63/63 59/59/59
f 62/62/62 63/63/63 61/61/61
f 60/60/60 63/63/63 64/64/64
f 62/62/62 65/65/65 63/63/63
f 64/64/64 63/63/63 65/65/65
f 64/64/64 65/65/65 66/66/66
f 69/69/69 68/68/68 67/67/67
f 69/69/69 70/70/70 68/68/68
f 71/71/71 70/70/70 69/69/69
f 71/71/71 72/72/72 70/70/70
f 73/73/73 72/72/72 71/71/71
f 73/73/73 74/74/74 72/72/72
f 75/75/75 74/74/74 73/73/73
f 75/75/75 76/76/76 74/74/74
f 77/77/77 76/76/76 75/75/75
f 77/77/77 78/78/78 76/76/76
f 79/79/79 78/78/78 77/77/77
f 79/79/79 80/80/80 78/78/78
f 81/81/81 80/80/80 79/79/79
f 81/81/81 82/82/82 80/80/80
f 83/83/83 82/82/82 81/81/81
f 83/83/83 84/84/84 82/82/82
f 85/85/85 84/84/84 83/83/83
f 85/85/85 86/86/86 84/84/84
f 87/87/87 86/86/86 85/85/85
f 87/87/87 88/88/88 86/86/86
f 91/91/91 90/90/90 89/89/89
f 89/89/89 90/90/90 92/92/92
f 93/93/93 90/90/90 91/91/91
f 92/92/92 90/90/90 94/94/94
f 95/95/95 90/90/90 93/93/93
f 94/94/94 90/90/90 96/96/96
f 97/97/97 90/90/90 95/95/95
f 96/96/96 90/90/90 98/98/98
f 99/99/99 90/90/90 97/97/97
f 98/98/98 90/90/90 99/99/99
f 102/102/102 101/101/101 100/100/100
f 100/100/100 101/101/101 103/103/103
f 100/100/100 103/103/103 104/104/104
f 101/101/101 105/105/105 103/103/103
f 103/103/103 105/105/105 106/106/106
f 104/104/104 103/103/103 106/106/106
f 107/107/107 105/105/105 101/101/101
f 102/102/102 107/107/107 101/101/101
f 104/104/104 106/106/106 108/108/108
f 109/109/109 107/107/107 102/102/102
f 108/108/108 106/106/106 110/110/110
f 106/106/106 105/105/105 110/110/110
f 108/108/108 110/110/110 111/111/111
f 109/109/109 112/112/112 107/107/107
f 112/112/112 105/105/105 107/107/107
f 113/113/113 112/112/112 109/109/109
f 111/111/111 110/110/110 114/114/114
f 110/110/110 105/105/105 114/114/114
f 111/111/111 114/114/114 115/115/115
f 113/113/113 116/116/116 112/112/112
f 116/116/116 105/105/105 112/112/112
f 117/117/117 116/116/116 113/113/113
f 115/115/115 114/114/114 118/118/118
f 114/114/114 105/105/105 118/118/118
f 115/115/115 118/118/118 119/119/119
f 117/117/117 120/120/120 116/116/116
f 120/120/120 105/105/105 116/116/116
f 119/119/119 120/120/120 117/117/117
f 119/119/119 118/118/118 120/120/120
f 118/118/118 105/105/105 120/120/120
