g ProjectileBomb
v 0.6351508 5.810618 0.3136822
v 0.0600259 6.064937 0.3136844
v 0.06002449 6.064939 -0.3151612
v 0.6351494 5.810618 -0.3151623
v 0.313251 4.14531 -0.3151623
v -0.3049337 5.15207 -0.3151612
v -0.3155942 4.14531 -0.3151612
v 0.3025905 4.989709 -0.3151623
v 0.06002449 6.064939 -0.3151612
v 0.3132525 4.14531 0.3136822
v 0.6351494 5.810618 -0.3151623
v 0.3025919 4.989708 0.3136822
v -0.3155927 4.14531 0.3136844
v 0.6351508 5.810618 0.3136822
v -0.3049322 5.15207 0.3136844
v -0.3155942 4.14531 -0.3151612
v 0.0600259 6.064937 0.3136844
v -0.3049337 5.15207 -0.3151612
v 0.06002449 6.064939 -0.3151612
v -0.7811299 4.29604 -0.0007388198
v -0.0002566145 4.29604 0.7801315
v -0.5524172 4.29604 0.5514213
v 4.640848E-05 4.29604 8.370835E-05
v -0.0002576541 4.29604 -0.7816114
v -0.5524195 4.29604 -0.5528982
v 0.780615 4.29604 -0.0007411588
v 0.5519004 4.29604 -0.5529
v -0.0002566145 4.29604 0.7801315
v 0.5519033 4.29604 0.551419
v -1.378858 0.2127887 -7.534675E-07
v 1.574234E-05 0.2127887 -1.35508
v -1.083019 0.2127954 -1.083036
v 1.574234E-05 -0.2188196 -7.534675E-07
v 1.378888 0.2127887 -7.534675E-07
v 1.083055 0.212793 -1.083036
v -1.470733 3.318098 -0.001788745
v -0.7653381 3.656914 0.01366465
v -0.5395193 3.656914 0.5432005
v -1.041303 3.318098 1.038641
v 0.002191999 3.656914 0.7541016
v -1.480895 2.466247 1.480102
v -2.065597 2.466251 -0.00053923
v -1.497125 1.170776 1.497136
v -2.081166 1.170776 -7.534675E-07
v -1.378858 0.2127887 -7.534675E-07
v -0.0018814 3.318098 1.470651
v 0.5424693 3.656914 0.5228288
v -0.0005546998 2.466251 2.037572
v 1.038652 3.318094 1.041175
v 0.7648224 3.656914 -0.01514489
v 1.470767 3.318098 0.001792956
v 1.480114 2.466251 1.480864
v 1.497147 1.170776 1.497136
v 2.065608 2.466251 0.0005398021
v 2.081169 1.170776 -7.534675E-07
v 1.378888 0.2127887 -7.534675E-07
v 1.626211E-05 1.170776 2.045252
v 1.574234E-05 0.2127887 1.355083
v 1.083055 0.212793 1.083042
v 1.574234E-05 -0.2188196 -7.534675E-07
v -1.083019 0.2127954 1.083042
v 1.470767 3.318098 0.001792956
v 0.7648224 3.656914 -0.01514489
v 0.5390028 3.656914 -0.5446779
v 1.041337 3.318098 -1.038638
v -0.002708086 3.656914 -0.7555806
v 2.065608 2.466251 0.0005398021
v 0.001915743 3.318098 -1.470647
v -0.5429845 3.656916 -0.5243065
v 1.480922 2.466247 -1.480099
v 1.497147 1.170776 -1.497134
v 2.081169 1.170776 -7.534675E-07
v 1.378888 0.2127887 -7.534675E-07
v 1.083055 0.212793 -1.083036
v 1.574234E-05 0.2127887 -1.35508
v 0.0005893031 2.466247 -2.037568
v -1.038618 3.318098 -1.04117
v -0.7653381 3.656914 0.01366465
v -1.470733 3.318098 -0.001788745
v -1.480086 2.466247 -1.480862
v -1.497125 1.170776 -1.497134
v -2.065597 2.466251 -0.00053923
v -2.081166 1.170776 -7.534675E-07
v -1.378858 0.2127887 -7.534675E-07
v -1.083019 0.2127954 -1.083036
v 1.626211E-05 1.170776 -2.045248
v 0.5390028 3.656914 -0.5446779
v -0.0002576541 4.29604 -0.7816114
v -0.002708086 3.656914 -0.7555806
v 0.5519004 4.29604 -0.5529
v 0.7648224 3.656914 -0.01514489
v 0.780615 4.29604 -0.0007411588
v 0.5424693 3.656914 0.5228288
v 0.5519033 4.29604 0.551419
v 0.002191999 3.656914 0.7541016
v -0.0002566145 4.29604 0.7801315
v -0.5395193 3.656914 0.5432005
v -0.5524172 4.29604 0.5514213
v -0.7653381 3.656914 0.01366465
v -0.7811299 4.29604 -0.0007388198
v -0.5429845 3.656916 -0.5243065
v -0.5524195 4.29604 -0.5528982
v -0.002708086 3.656914 -0.7555806
v -0.0002576541 4.29604 -0.7816114
vt 0.6635953 0.9674978
vt 0.6635661 0.9786597
vt 0.6655835 0.9786597
vt 0.6655836 0.9674978
vt 0.7631264 0.9787632
vt 0.7135479 0.9900274
vt 0.7631264 0.9900274
vt 0.7135482 0.9787633
vt 0.6695985 0.9900274
vt 0.7631264 0.9675667
vt 0.6695986 0.9787633
vt 0.7135479 0.9675667
vt 0.7631264 0.9556426
vt 0.6695985 0.9675667
vt 0.7135479 0.9556426
vt 0.7631263 0.9442376
vt 0.6695985 0.9556426
vt 0.7135482 0.9442378
vt 0.6695986 0.9442378
vt 0.7411786 0.9276417
vt 0.7448403 0.9239765
vt 0.7421869 0.9249851
vt 0.7448403 0.9276417
vt 0.7448403 0.9313002
vt 0.7421869 0.9302917
vt 0.7485011 0.9276417
vt 0.7474927 0.9302917
vt 0.7448403 0.9239765
vt 0.7474927 0.9249851
vt 0.8160165 0.793754
vt 0.8154107 0.78317
vt 0.8158863 0.7851752
vt 0.8154101 0.7772807
vt 0.8148053 0.7941643
vt 0.8149351 0.7854974
vt 0.6901107 0.9123191
vt 0.7164227 0.9244598
vt 0.7248232 0.9204462
vt 0.706085 0.904435
vt 0.7449905 0.9187844
vt 0.6895913 0.870112
vt 0.667842 0.8813283
vt 0.6888056 0.8227441
vt 0.6670811 0.8340842
vt 0.6930972 0.7808285
vt 0.7447809 0.9010409
vt 0.7651109 0.9204479
vt 0.7447029 0.8657129
vt 0.783531 0.9041248
vt 0.7733979 0.9244623
vt 0.7996358 0.9118804
vt 0.7998429 0.8696921
vt 0.8002958 0.822325
vt 0.8216652 0.8807422
vt 0.8220634 0.8335016
vt 0.7957804 0.7804425
vt 0.7445428 0.8184129
vt 0.744419 0.7886677
vt 0.7847494 0.790562
vt 0.7443784 0.7766391
vt 0.7040966 0.7908651
vt 0.8147701 0.9141896
vt 0.8150808 0.9270423
vt 0.8151798 0.9227928
vt 0.8149585 0.9058417
vt 0.8154176 0.9210329
vt 0.8145074 0.8813505
vt 0.8154148 0.9022474
vt 0.8156549 0.9227941
vt 0.8147639 0.8694745
vt 0.8147547 0.819281
vt 0.8144985 0.8312879
vt 0.8148053 0.7941643
vt 0.8149351 0.7854974
vt 0.8154107 0.78317
vt 0.815414 0.864816
vt 0.815872 0.9055121
vt 0.8157527 0.927044
vt 0.8160619 0.9137235
vt 0.8160642 0.8690281
vt 0.8160697 0.8188355
vt 0.8163217 0.8807272
vt 0.8163265 0.8306687
vt 0.8160165 0.793754
vt 0.8158863 0.7851752
vt 0.815412 0.814694
vt 0.6843529 0.8083526
vt 0.686166 0.8196602
vt 0.6861736 0.8083526
vt 0.6843429 0.8196602
vt 0.6825636 0.8083526
vt 0.6825199 0.8196602
vt 0.6807384 0.8083526
vt 0.6806967 0.8196602
vt 0.6788812 0.8083526
vt 0.6788736 0.8196602
vt 0.6770605 0.8083526
vt 0.6770505 0.8196602
vt 0.6752712 0.8083526
vt 0.6752275 0.8196602
vt 0.6734461 0.8083527
vt 0.6734044 0.8196602
vt 0.6715888 0.8083526
vt 0.6715812 0.8196602
vn 0.7391339 0.1667441 0.6525929
vn -0.4497116 0.6419679 0.6209965
vn -0.4497144 0.6419697 -0.6209927
vn 0.7391306 0.1667448 -0.6525964
vn 0.6831528 0.008624817 -0.7302245
vn -0.7549075 0.1477147 -0.6389798
vn -0.7441281 0.007879517 -0.6679906
vn 0.6218248 -0.1201967 -0.7738777
vn -0.4497144 0.6419697 -0.6209927
vn 0.6831565 0.008624814 0.730221
vn 0.7391306 0.1667448 -0.6525964
vn 0.6218292 -0.1201974 0.773874
vn -0.7441249 0.007879519 0.667994
vn 0.7391339 0.1667441 0.6525929
vn -0.7549046 0.1477143 0.6389832
vn -0.7441281 0.007879517 -0.6679906
vn -0.4497116 0.6419679 0.6209965
vn -0.7549075 0.1477147 -0.6389798
vn -0.4497144 0.6419697 -0.6209927
vn 0 1 0
vn 0 1 0
vn 0 1 0
vn 0 1 0
vn 0 1 0
vn 0 1 0
vn 0 1 -3.578E-07
vn 0 1 0
vn 0 1 -3.578E-07
vn 0 1 -3.578E-07
vn -0.6010509 -0.7992107 0
vn -2.712494E-07 -0.7992001 -0.601065
vn -0.4536838 -0.7616507 -0.4626653
vn -5.738213E-07 -1 0
vn 0.6010554 -0.7992074 0
vn 0.4536879 -0.761649 -0.4626641
vn -0.7393145 0.673359 -0.001340162
vn -0.7085586 0.7056378 0.004490825
vn -0.4958046 0.7060115 0.5056931
vn -0.5211501 0.6734521 0.5242755
vn 0.007202973 0.7054139 0.708759
vn -0.6838752 0.2313952 0.6919327
vn -0.9721559 0.2343348 -0.0002506665
vn -0.6836902 -0.2260844 0.6938686
vn -0.9757402 -0.2189317 -2.431468E-05
vn -0.6010509 -0.7992107 0
vn -0.0002118415 0.6684373 0.7437685
vn 0.5045789 0.7053378 0.4978943
vn -0.000231123 0.2283863 0.9735705
vn 0.5189399 0.6751031 0.5243445
vn 0.7082818 0.7059146 -0.004624831
vn 0.7392334 0.6734479 0.001407651
vn 0.6835274 0.231415 0.6922697
vn 0.6836735 -0.2260754 0.6938879
vn 0.9721578 0.2343271 0.0002505293
vn 0.9757411 -0.2189277 2.429429E-05
vn 0.6010554 -0.7992074 0
vn -1.866826E-05 -0.2183303 0.9758749
vn -2.799989E-07 -0.7992011 0.6010638
vn 0.4536882 -0.7616491 0.4626635
vn -5.738213E-07 -1 0
vn -0.4536841 -0.7616509 0.4626647
vn 0.7392334 0.6734479 0.001407651
vn 0.7082818 0.7059146 -0.004624831
vn 0.4959512 0.7056643 -0.506034
vn 0.521273 0.6733364 -0.5243019
vn -0.007259689 0.7046477 -0.7095202
vn 0.9721578 0.2343271 0.0002505293
vn 0.0002367244 0.6681812 -0.7439985
vn -0.5050605 0.7045994 -0.4984511
vn 0.6838788 0.2313919 -0.6919304
vn 0.6836923 -0.2260828 -0.693867
vn 0.9757411 -0.2189277 2.429429E-05
vn 0.6010554 -0.7992074 0
vn 0.4536879 -0.761649 -0.4626641
vn -2.712494E-07 -0.7992001 -0.601065
vn 0.0002313443 0.2283865 -0.9735705
vn -0.5191123 0.674863 -0.5244828
vn -0.7085586 0.7056378 0.004490825
vn -0.7393145 0.673359 -0.001340162
vn -0.6835225 0.2314195 -0.6922731
vn -0.6836695 -0.2260772 -0.6938913
vn -0.9721559 0.2343348 -0.0002506665
vn -0.9757402 -0.2189317 -2.431468E-05
vn -0.6010509 -0.7992107 0
vn -0.4536838 -0.7616507 -0.4626653
vn 1.866828E-05 -0.2183311 -0.9758747
vn 0.4959512 0.7056643 -0.506034
vn -0.008375209 -0.03827865 -0.9992319
vn -0.007259689 0.7046477 -0.7095202
vn 0.7015093 -0.02608098 -0.7121829
vn 0.7082818 0.7059146 -0.004624831
vn 0.9996239 -0.02713626 0.003958845
vn 0.5045789 0.7053378 0.4978943
vn 0.7044147 -0.03929836 0.7086999
vn 0.007202973 0.7054139 0.708759
vn 0.008376559 -0.03827658 0.9992321
vn -0.4958046 0.7060115 0.5056931
vn -0.7015097 -0.02607947 0.7121826
vn -0.7085586 0.7056378 0.004490825
vn -0.9996239 -0.02713629 -0.003959251
vn -0.5050605 0.7045994 -0.4984511
vn -0.7044141 -0.03929967 -0.7087005
vn -0.007259689 0.7046477 -0.7095202
vn -0.008375209 -0.03827865 -0.9992319
g ProjectileBomb_0
f 3/3/3 2/2/2 1/1/1
f 4/4/4 3/3/3 1/1/1
f 7/7/7 6/6/6 5/5/5
f 6/6/6 8/8/8 5/5/5
f 6/6/6 9/9/9 8/8/8
f 5/5/5 8/8/8 10/10/10
f 9/9/9 11/11/11 8/8/8
f 8/8/8 12/12/12 10/10/10
f 8/8/8 11/11/11 12/12/12
f 10/10/10 12/12/12 13/13/13
f 11/11/11 14/14/14 12/12/12
f 12/12/12 15/15/15 13/13/13
f 12/12/12 14/14/14 15/15/15
f 13/13/13 15/15/15 16/16/16
f 14/14/14 17/17/17 15/15/15
f 15/15/15 18/18/18 16/16/16
f 15/15/15 17/17/17 18/18/18
f 17/17/17 19/19/19 18/18/18
f 22/22/22 21/21/21 20/20/20
f 21/21/21 23/23/23 20/20/20
f 20/20/20 23/23/23 24/24/24
f 25/25/25 20/20/20 24/24/24
f 24/24/24 23/23/23 26/26/26
f 27/27/27 24/24/24 26/26/26
f 26/26/26 23/23/23 28/28/28
f 29/29/29 26/26/26 28/28/28
f 32/32/32 31/31/31 30/30/30
f 31/31/31 33/33/33 30/30/30
f 34/34/34 33/33/33 31/31/31
f 35/35/35 34/34/34 31/31/31
f 38/38/38 37/37/37 36/36/36
f 39/39/39 38/38/38 36/36/36
f 40/40/40 38/38/38 39/39/39
f 39/39/39 36/36/36 41/41/41
f 36/36/36 42/42/42 41/41/41
f 41/41/41 42/42/42 43/43/43
f 42/42/42 44/44/44 43/43/43
f 43/43/43 44/44/44 45/45/45
f 46/46/46 40/40/40 39/39/39
f 39/39/39 41/41/41 46/46/46
f 47/47/47 40/40/40 46/46/46
f 41/41/41 43/43/43 48/48/48
f 41/41/41 48/48/48 46/46/46
f 49/49/49 47/47/47 46/46/46
f 50/50/50 47/47/47 49/49/49
f 51/51/51 50/50/50 49/49/49
f 49/49/49 46/46/46 52/52/52
f 49/49/49 52/52/52 51/51/51
f 46/46/46 48/48/48 52/52/52
f 52/52/52 48/48/48 53/53/53
f 52/52/52 54/54/54 51/51/51
f 52/52/52 53/53/53 54/54/54
f 53/53/53 55/55/55 54/54/54
f 56/56/56 55/55/55 53/53/53
f 43/43/43 57/57/57 48/48/48
f 48/48/48 57/57/57 53/53/53
f 58/58/58 57/57/57 43/43/43
f 53/53/53 57/57/57 58/58/58
f 59/59/59 56/56/56 53/53/53
f 59/59/59 53/53/53 58/58/58
f 59/59/59 58/58/58 56/56/56
f 58/58/58 60/60/60 56/56/56
f 45/45/45 60/60/60 58/58/58
f 61/61/61 58/58/58 43/43/43
f 61/61/61 45/45/45 58/58/58
f 61/61/61 43/43/43 45/45/45
f 64/64/64 63/63/63 62/62/62
f 65/65/65 64/64/64 62/62/62
f 66/66/66 64/64/64 65/65/65
f 65/65/65 62/62/62 67/67/67
f 68/68/68 66/66/66 65/65/65
f 69/69/69 66/66/66 68/68/68
f 70/70/70 65/65/65 67/67/67
f 65/65/65 70/70/70 68/68/68
f 70/70/70 67/67/67 71/71/71
f 67/67/67 72/72/72 71/71/71
f 71/71/71 72/72/72 73/73/73
f 74/74/74 71/71/71 73/73/73
f 74/74/74 75/75/75 71/71/71
f 70/70/70 71/71/71 76/76/76
f 70/70/70 76/76/76 68/68/68
f 77/77/77 69/69/69 68/68/68
f 78/78/78 69/69/69 77/77/77
f 79/79/79 78/78/78 77/77/77
f 77/77/77 68/68/68 80/80/80
f 77/77/77 80/80/80 79/79/79
f 68/68/68 76/76/76 80/80/80
f 80/80/80 76/76/76 81/81/81
f 80/80/80 82/82/82 79/79/79
f 80/80/80 81/81/81 82/82/82
f 81/81/81 83/83/83 82/82/82
f 84/84/84 83/83/83 81/81/81
f 85/85/85 84/84/84 81/81/81
f 85/85/85 81/81/81 75/75/75
f 75/75/75 86/86/86 71/71/71
f 71/71/71 86/86/86 76/76/76
f 81/81/81 86/86/86 75/75/75
f 76/76/76 86/86/86 81/81/81
f 89/89/89 88/88/88 87/87/87
f 88/88/88 90/90/90 87/87/87
f 87/87/87 90/90/90 91/91/91
f 90/90/90 92/92/92 91/91/91
f 91/91/91 92/92/92 93/93/93
f 92/92/92 94/94/94 93/93/93
f 93/93/93 94/94/94 95/95/95
f 94/94/94 96/96/96 95/95/95
f 95/95/95 96/96/96 97/97/97
f 96/96/96 98/98/98 97/97/97
f 97/97/97 98/98/98 99/99/99
f 98/98/98 100/100/100 99/99/99
f 99/99/99 100/100/100 101/101/101
f 100/100/100 102/102/102 101/101/101
f 101/101/101 102/102/102 103/103/103
f 102/102/102 104/104/104 103/103/103
