g Propeller_R
v -7.784074 0.8501498 0.1147925
v -7.784074 -0.8501546 0.1147925
v -7.162238 -1.415474 -0.3136694
v -7.162238 1.415471 -0.3136694
v -1.406757 -0.8121843 -0.6048315
v -1.406747 0.8121867 -0.6048315
v 5.493164E-06 -1.624371 -0.6048315
v 5.493164E-06 1.624371 -0.6048315
v 1.406744 0.8121867 -0.6048315
v 5.493164E-06 1.406746 -0.05193115
v 1.218277 0.703372 -0.05193115
v 6.103515E-07 -4.577637E-07 0.6048315
v 7.127886 1.269217 0.5306689
v 7.162241 1.415474 -0.3136694
v 7.784074 0.8501521 0.1147925
v 7.784074 -0.8501529 0.1147925
v 7.12789 -1.269213 0.5306689
v 7.162241 -1.415473 -0.3136694
v 1.406744 -0.8121843 -0.6048315
v 1.218277 -0.7033696 -0.05193115
v 5.493164E-06 -1.406749 -0.05193115
v 7.784074 -0.8501529 0.1147925
v 7.784074 0.8501521 0.1147925
v 7.162241 -1.415473 -0.3136694
v 7.162241 1.415474 -0.3136694
v 1.406744 0.8121867 -0.6048315
v 1.406744 -0.8121843 -0.6048315
v 5.493164E-06 1.624371 -0.6048315
v 5.493164E-06 -1.624371 -0.6048315
v -1.406757 -0.8121843 -0.6048315
v 5.493164E-06 -1.406749 -0.05193115
v -1.218273 -0.7033697 -0.05193115
v 6.103515E-07 -4.577637E-07 0.6048315
v -7.127882 -1.269218 0.5306689
v -7.162238 -1.415474 -0.3136694
v -7.784074 -0.8501546 0.1147925
v -7.784074 0.8501498 0.1147925
v -7.127882 1.269212 0.5306689
v -7.162238 1.415471 -0.3136694
v -1.406747 0.8121867 -0.6048315
v -1.218278 0.703372 -0.05193115
v 5.493164E-06 1.406746 -0.05193115
vt 0.9477596 0.9849323
vt 0.8806716 0.9843504
vt 0.8461151 0.9629999
vt 0.9825746 0.9629141
vt 0.8766352 0.7492692
vt 0.956067 0.7503262
vt 0.84453 0.6922176
vt 0.9830738 0.6922176
vt 0.956067 0.7503262
vt 0.9658362 0.6922176
vt 0.9414177 0.7429005
vt 0.9149358 0.6922176
vt 0.9601275 0.9548925
vt 0.983345 0.9609178
vt 0.9489164 0.9835322
vt 0.8818278 0.9841121
vt 0.8701242 0.9556713
vt 0.8469075 0.9633627
vt 0.8766352 0.7492725
vt 0.8883986 0.7425383
vt 0.865888 0.6922176
vt 0.8818278 0.9841121
vt 0.9489164 0.9835322
vt 0.8469075 0.9633627
vt 0.983345 0.9609178
vt 0.956067 0.7503262
vt 0.8766352 0.7492725
vt 0.9830738 0.6922176
vt 0.84453 0.6922176
vt 0.8766352 0.7492692
vt 0.865888 0.6922176
vt 0.8883986 0.7425383
vt 0.9149358 0.6922176
vt 0.8694603 0.9557097
vt 0.8461151 0.9629999
vt 0.8806716 0.9843504
vt 0.9477596 0.9849323
vt 0.9594657 0.9564905
vt 0.9825746 0.9629141
vt 0.956067 0.7503262
vt 0.9414176 0.7429005
vt 0.9658362 0.6922176
vn -0.9969618 0.06293508 -0.04589396
vn -0.9969619 -0.06293516 -0.04589314
vn -0.06629212 -0.332781 -0.9406711
vn -0.06629244 0.3327813 -0.940671
vn -0.02830962 -0.3061441 -0.9515641
vn -0.02831035 0.306143 -0.9515646
vn 1.822987E-07 -0.300546 -0.9537674
vn -1.020852E-07 0.3005455 -0.9537675
vn 0.02831058 0.3061419 -0.9515648
vn 2.12406E-07 0.7646611 0.6444327
vn -0.04331556 0.3015258 0.9524736
vn -4.494102E-07 -1.514866E-07 1
vn -0.05834978 0.316516 0.9467909
vn 0.0662923 0.3327807 -0.9406713
vn 0.9969618 0.06293491 -0.04589514
vn 0.9969618 -0.06293432 -0.04589543
vn -0.05834956 -0.3165157 0.946791
vn 0.06629205 -0.3327816 -0.9406709
vn 0.02831069 -0.306142 -0.9515648
vn -0.04331523 -0.3015258 0.9524736
vn 7.134677E-07 -0.7646606 0.6444333
vn 0.9969618 -0.06293432 -0.04589543
vn 0.9969618 0.06293491 -0.04589514
vn 0.06629205 -0.3327816 -0.9406709
vn 0.0662923 0.3327807 -0.9406713
vn 0.02831058 0.3061419 -0.9515648
vn 0.02831069 -0.306142 -0.9515648
vn -1.020852E-07 0.3005455 -0.9537675
vn 1.822987E-07 -0.300546 -0.9537674
vn -0.02830962 -0.3061441 -0.9515641
vn 7.134677E-07 -0.7646606 0.6444333
vn 0.04331427 -0.3015234 0.9524744
vn -4.494102E-07 -1.514866E-07 1
vn 0.05834947 -0.3165165 0.9467907
vn -0.06629212 -0.332781 -0.9406711
vn -0.9969619 -0.06293516 -0.04589314
vn -0.9969618 0.06293508 -0.04589396
vn 0.05834905 0.3165159 0.946791
vn -0.06629244 0.3327813 -0.940671
vn -0.02831035 0.306143 -0.9515646
vn 0.04331535 0.3015254 0.9524736
vn 2.12406E-07 0.7646611 0.6444327
g Propeller_R_0
f 3/3/3 2/2/2 1/1/1
f 3/3/3 1/1/1 4/4/4
f 5/5/5 3/3/3 4/4/4
f 5/5/5 4/4/4 6/6/6
f 7/7/7 5/5/5 6/6/6
f 7/7/7 6/6/6 8/8/8
f 10/10/10 9/9/9 8/8/8
f 10/10/10 11/11/11 9/9/9
f 12/12/12 11/11/11 10/10/10
f 13/13/13 9/9/9 11/11/11
f 13/13/13 14/14/14 9/9/9
f 15/15/15 14/14/14 13/13/13
f 16/16/16 15/15/15 13/13/13
f 16/16/16 13/13/13 17/17/17
f 17/17/17 13/13/13 11/11/11
f 16/16/16 17/17/17 18/18/18
f 17/17/17 19/19/19 18/18/18
f 20/20/20 7/7/7 19/19/19
f 17/17/17 20/20/20 19/19/19
f 17/17/17 11/11/11 20/20/20
f 12/12/12 20/20/20 11/11/11
f 20/20/20 21/21/21 7/7/7
f 21/21/21 20/20/20 12/12/12
f 24/24/24 23/23/23 22/22/22
f 24/24/24 25/25/25 23/23/23
f 24/24/24 26/26/26 25/25/25
f 24/24/24 27/27/27 26/26/26
f 27/27/27 28/28/28 26/26/26
f 27/27/27 29/29/29 28/28/28
f 31/31/31 30/30/30 29/29/29
f 31/31/31 32/32/32 30/30/30
f 33/33/33 32/32/32 31/31/31
f 34/34/34 30/30/30 32/32/32
f 34/34/34 35/35/35 30/30/30
f 36/36/36 35/35/35 34/34/34
f 37/37/37 36/36/36 34/34/34
f 37/37/37 34/34/34 38/38/38
f 38/38/38 34/34/34 32/32/32
f 37/37/37 38/38/38 39/39/39
f 38/38/38 40/40/40 39/39/39
f 41/41/41 28/28/28 40/40/40
f 38/38/38 41/41/41 40/40/40
f 38/38/38 32/32/32 41/41/41
f 33/33/33 41/41/41 32/32/32
f 41/41/41 42/42/42 28/28/28
f 42/42/42 41/41/41 33/33/33
