g Propeller_R
v 4.005283 5.722046E-08 1.09995
v 4.005282 -2.098083E-07 0.320365
v 4.653177 -4.653179 0.2573132
v 3.583383 -5.003721 2.210785
v 0.6979761 -8.60838 0.2573083
v 2.326589 -2.32659 2.619037
v 0 1.144409E-07 1.163002
v 0 -4.005282 1.09995
v 0.5375073 -8.660962 0.7055041
v 0 -8.511195 0.2667663
v -2.441406E-06 -8.511196 0.6526746
v 0 -8.511195 0.2667663
v 0 -4.005282 0.320365
v 0 4.005283 1.09995
v 0 4.005283 0.320365
v 4.653179 4.653178 0.2573132
v 5.003721 3.583382 2.210785
v 8.60838 0.6979765 0.2573083
v 2.326589 2.326589 2.619037
v 0 1.144409E-07 1.163002
v 4.005283 5.722046E-08 1.09995
v 8.660962 0.5375071 0.7055041
v 8.511196 -1.907349E-07 0.2667663
v 8.511196 -1.716614E-07 0.6526746
v 8.511196 -1.907349E-07 0.2667663
v 4.005282 -2.098083E-07 0.320365
v -4.005283 2.479553E-07 1.09995
v -4.005283 5.149841E-07 0.320365
v -4.653179 4.653179 0.2573132
v -3.583381 5.003721 2.210785
v -0.6979785 8.608381 0.2573083
v -2.326589 2.32659 2.619037
v 0 1.144409E-07 1.163002
v 0 4.005283 1.09995
v -0.5375073 8.660962 0.7055041
v 0 8.511197 0.2667663
v 0 8.511197 0.6526746
v 0 8.511197 0.2667663
v 0 4.005283 0.320365
v 0 -4.005282 1.09995
v 0 -4.005282 0.320365
v -4.653179 -4.653178 0.2573132
v -5.003721 -3.583383 2.210785
v -8.608378 -0.6979764 0.2573083
v -2.326589 -2.326589 2.619037
v 0 1.144409E-07 1.163002
v -4.005283 2.479553E-07 1.09995
v -8.660962 -0.537507 0.7055041
v -8.511196 4.577637E-07 0.2667663
v -8.511196 4.196167E-07 0.6526746
v -8.511196 4.577637E-07 0.2667663
v -4.005283 5.149841E-07 0.320365
v -4.653179 -4.653178 0.2573132
v 0 -4.005282 0.320365
v 0 4.386902E-07 -0.5675647
v -4.005283 5.149841E-07 0.320365
v -8.608378 -0.6979764 0.2573083
v -8.511196 4.577637E-07 0.2667663
v 4.653179 4.653178 0.2573132
v 0 4.005283 0.320365
v 0 4.386902E-07 -0.5675647
v 4.005282 -2.098083E-07 0.320365
v 8.60838 0.6979765 0.2573083
v 8.511196 -1.907349E-07 0.2667663
v -4.653179 4.653179 0.2573132
v -4.005283 5.149841E-07 0.320365
v 0 4.386902E-07 -0.5675647
v 0 4.005283 0.320365
v -0.6979785 8.608381 0.2573083
v 0 8.511197 0.2667663
v 0 4.386902E-07 -0.5675647
v 4.653177 -4.653179 0.2573132
v 4.005282 -2.098083E-07 0.320365
v 0 -4.005282 0.320365
v 0.6979761 -8.60838 0.2573083
v 0 -8.511195 0.2667663
v 0 0.8759089 0.6804797
v 0 0.8759089 1.619125
v -0.7585571 0.4379548 1.619125
v -0.7585571 0.4379548 0.6804797
v -0.7585571 -0.4379533 1.619125
v -0.7585571 -0.4379533 0.6804797
v 0 -0.8759077 1.619125
v 0 -0.8759077 0.6804797
v 0.7585595 -0.4379538 1.619125
v 0.7585595 -0.4379538 0.6804797
v 0.7585595 0.4379548 1.619125
v 0.7585595 0.4379548 0.6804797
v 0 0.8759089 1.619125
v 0 0.8759089 0.6804797
v 0 0.8759089 1.619125
v 0 6.103515E-07 2.021366
v -0.7585571 0.4379548 1.619125
v 0.7585595 0.4379548 1.619125
v -0.7585571 -0.4379533 1.619125
v 0.7585595 -0.4379538 1.619125
v 0 -0.8759077 1.619125
vt 0.5424565 0.9274223
vt 0.5423586 0.9392089
vt 0.6157092 0.9425233
vt 0.6148662 0.9165711
vt 0.6858711 0.8944438
vt 0.5793147 0.896315
vt 0.5407246 0.8603427
vt 0.6102996 0.8596428
vt 0.6820328 0.8884585
vt 0.6895674 0.8830715
vt 0.6833615 0.8808707
vt 0.6855639 0.8755142
vt 0.6149234 0.848707
vt 0.5424564 0.927423
vt 0.5423588 0.9392095
vt 0.6157094 0.9425233
vt 0.6148661 0.9165711
vt 0.685871 0.8944446
vt 0.5793145 0.8963151
vt 0.5407243 0.8603427
vt 0.6102998 0.8596426
vt 0.6820326 0.8884593
vt 0.6895673 0.8830728
vt 0.6833616 0.8808717
vt 0.6855643 0.8755152
vt 0.6149241 0.8487068
vt 0.5424563 0.927422
vt 0.5423584 0.9392085
vt 0.6157088 0.9425233
vt 0.6148659 0.9165713
vt 0.6858711 0.8944458
vt 0.5793148 0.8963146
vt 0.5407249 0.860342
vt 0.6103004 0.8596426
vt 0.6820329 0.8884603
vt 0.6895677 0.8830742
vt 0.6833621 0.8808728
vt 0.685565 0.8755165
vt 0.6149247 0.8487068
vt 0.5424567 0.9274226
vt 0.5423588 0.9392091
vt 0.6157099 0.9425232
vt 0.6148664 0.9165711
vt 0.6858713 0.8944432
vt 0.5793148 0.896315
vt 0.5407248 0.8603425
vt 0.6102997 0.8596427
vt 0.6820327 0.888458
vt 0.6895673 0.8830712
vt 0.6833615 0.8808703
vt 0.685564 0.8755138
vt 0.6149237 0.8487068
vt 0.585665 0.8596636
vt 0.601213 0.8572116
vt 0.6012877 0.8434681
vt 0.5875558 0.8440374
vt 0.5721784 0.8466541
vt 0.5724621 0.8443102
vt 0.585665 0.8596636
vt 0.601213 0.8572116
vt 0.6012877 0.8434681
vt 0.5875558 0.8440374
vt 0.5721785 0.8466541
vt 0.5724621 0.8443102
vt 0.5856649 0.8596636
vt 0.601213 0.8572116
vt 0.6012877 0.8434681
vt 0.5875558 0.8440374
vt 0.5721785 0.8466541
vt 0.5724621 0.8443102
vt 0.6012876 0.8434681
vt 0.5856649 0.8596635
vt 0.601213 0.8572115
vt 0.5875557 0.8440373
vt 0.5721784 0.8466541
vt 0.572462 0.8443101
vt 0.639151 0.7886593
vt 0.639151 0.7947423
vt 0.6448274 0.7947423
vt 0.6448274 0.7886593
vt 0.6505036 0.7947423
vt 0.6505036 0.7886593
vt 0.6561798 0.7947423
vt 0.6561799 0.7886593
vt 0.6618562 0.7947423
vt 0.6618562 0.7886593
vt 0.6675324 0.7947423
vt 0.6675324 0.7886593
vt 0.6732088 0.7947423
vt 0.6732088 0.7886593
vt 0.6678541 0.8306499
vt 0.6593747 0.8156875
vt 0.6506568 0.8305121
vt 0.6765721 0.8158253
vt 0.6421773 0.8155499
vt 0.6680926 0.8008631
vt 0.6508953 0.8007253
vn 0.4322626 -0.2197953 0.8745508
vn 0.2108476 -0.04852942 -0.9763135
vn 0.5343123 -0.1926103 -0.8230503
vn 0.458653 -0.3537097 0.8151852
vn 0.5703305 -0.5884881 -0.5730662
vn -0.04223874 0.1179769 0.9921176
vn 1.427973E-07 0 1
vn -0.219795 -0.4322625 0.8745509
vn 0.06145697 -0.4284862 0.9014558
vn -0.8364778 -0.07536011 -0.5427945
vn -0.4981305 -0.1261238 0.8578804
vn -0.8364778 -0.07536011 -0.5427945
vn -0.04852929 -0.2108476 -0.9763135
vn 0.2197953 0.4322625 0.8745509
vn 0.04852942 0.2108476 -0.9763135
vn 0.1926103 0.5343125 -0.82305
vn 0.3537099 0.4586534 0.8151849
vn 0.5884884 0.5703307 -0.5730657
vn -0.1179766 -0.042239 0.9921177
vn 1.427973E-07 0 1
vn 0.4322626 -0.2197953 0.8745508
vn 0.4284866 0.06145765 0.9014556
vn 0.07535969 -0.8364794 -0.5427921
vn 0.1261243 -0.4981304 0.8578804
vn 0.07535969 -0.8364794 -0.5427921
vn 0.2108476 -0.04852942 -0.9763135
vn -0.4322627 0.2197947 0.8745509
vn -0.2108477 0.04852927 -0.9763135
vn -0.5343128 0.1926099 -0.8230499
vn -0.4586531 0.3537096 0.8151851
vn -0.5703307 0.5884889 -0.5730651
vn 0.04223886 -0.1179766 0.9921177
vn 1.427973E-07 0 1
vn 0.2197953 0.4322625 0.8745509
vn -0.06145697 0.4284863 0.9014558
vn 0.8364789 0.07535965 -0.5427928
vn 0.4981308 0.126124 0.8578802
vn 0.8364789 0.07535965 -0.5427928
vn 0.04852942 0.2108476 -0.9763135
vn -0.219795 -0.4322625 0.8745509
vn -0.04852929 -0.2108476 -0.9763135
vn -0.1926099 -0.5343125 -0.8230501
vn -0.3537098 -0.4586533 0.8151851
vn -0.5884883 -0.5703303 -0.5730662
vn 0.1179769 0.04223873 0.9921176
vn 1.427973E-07 0 1
vn -0.4322627 0.2197947 0.8745509
vn -0.4284862 -0.06145677 0.9014558
vn -0.07535949 0.8364796 -0.5427917
vn -0.1261242 0.4981303 0.8578804
vn -0.07535949 0.8364796 -0.5427917
vn -0.2108477 0.04852927 -0.9763135
vn -0.1926099 -0.5343125 -0.8230501
vn -0.04852929 -0.2108476 -0.9763135
vn 0 0 -1
vn -0.2108477 0.04852927 -0.9763135
vn -0.5884883 -0.5703303 -0.5730662
vn -0.07535949 0.8364796 -0.5427917
vn 0.1926103 0.5343125 -0.82305
vn 0.04852942 0.2108476 -0.9763135
vn 0 0 -1
vn 0.2108476 -0.04852942 -0.9763135
vn 0.5884884 0.5703307 -0.5730657
vn 0.07535969 -0.8364794 -0.5427921
vn -0.5343128 0.1926099 -0.8230499
vn -0.2108477 0.04852927 -0.9763135
vn 0 0 -1
vn 0.04852942 0.2108476 -0.9763135
vn -0.5703307 0.5884889 -0.5730651
vn 0.8364789 0.07535965 -0.5427928
vn 0 0 -1
vn 0.5343123 -0.1926103 -0.8230503
vn 0.2108476 -0.04852942 -0.9763135
vn -0.04852929 -0.2108476 -0.9763135
vn 0.5703305 -0.5884881 -0.5730662
vn -0.8364778 -0.07536011 -0.5427945
vn 2.619455E-07 1 0
vn 4.040258E-07 0.9619806 0.2731173
vn -0.8331003 0.4809897 0.2731171
vn -0.866026 0.4999991 0
vn -0.8331006 -0.4809892 0.2731169
vn -0.866026 -0.4999987 0
vn -4.063084E-07 -0.9619806 0.2731173
vn -5.457198E-07 -1 0
vn 0.8330996 -0.4809907 0.2731173
vn 0.8660251 -0.5000004 0
vn 0.8330996 0.4809906 0.2731173
vn 0.8660253 0.5000004 0
vn 4.040258E-07 0.9619806 0.2731173
vn 2.619455E-07 1 0
vn 4.040258E-07 0.9619806 0.2731173
vn 3.375766E-07 0 1
vn -0.8331003 0.4809897 0.2731171
vn 0.8330996 0.4809906 0.2731173
vn -0.8331006 -0.4809892 0.2731169
vn 0.8330996 -0.4809907 0.2731173
vn -4.063084E-07 -0.9619806 0.2731173
g Propeller_R_0
f 3/3/3 2/2/2 1/1/1
f 4/4/4 3/3/3 1/1/1
f 5/5/5 3/3/3 4/4/4
f 1/1/1 6/6/6 4/4/4
f 1/1/1 7/7/7 6/6/6
f 7/7/7 8/8/8 6/6/6
f 6/6/6 8/8/8 4/4/4
f 9/9/9 5/5/5 4/4/4
f 9/9/9 4/4/4 8/8/8
f 5/5/5 9/9/9 10/10/10
f 9/9/9 11/11/11 10/10/10
f 11/11/11 9/9/9 8/8/8
f 11/11/11 8/8/8 12/12/12
f 8/8/8 13/13/13 12/12/12
f 16/16/16 15/15/15 14/14/14
f 17/17/17 16/16/16 14/14/14
f 18/18/18 16/16/16 17/17/17
f 14/14/14 19/19/19 17/17/17
f 14/14/14 20/20/20 19/19/19
f 20/20/20 21/21/21 19/19/19
f 19/19/19 21/21/21 17/17/17
f 22/22/22 18/18/18 17/17/17
f 22/22/22 17/17/17 21/21/21
f 18/18/18 22/22/22 23/23/23
f 22/22/22 24/24/24 23/23/23
f 24/24/24 22/22/22 21/21/21
f 24/24/24 21/21/21 25/25/25
f 21/21/21 26/26/26 25/25/25
f 29/29/29 28/28/28 27/27/27
f 30/30/30 29/29/29 27/27/27
f 31/31/31 29/29/29 30/30/30
f 27/27/27 32/32/32 30/30/30
f 27/27/27 33/33/33 32/32/32
f 33/33/33 34/34/34 32/32/32
f 32/32/32 34/34/34 30/30/30
f 35/35/35 31/31/31 30/30/30
f 35/35/35 30/30/30 34/34/34
f 31/31/31 35/35/35 36/36/36
f 35/35/35 37/37/37 36/36/36
f 37/37/37 35/35/35 34/34/34
f 37/37/37 34/34/34 38/38/38
f 34/34/34 39/39/39 38/38/38
f 42/42/42 41/41/41 40/40/40
f 43/43/43 42/42/42 40/40/40
f 44/44/44 42/42/42 43/43/43
f 40/40/40 45/45/45 43/43/43
f 40/40/40 46/46/46 45/45/45
f 46/46/46 47/47/47 45/45/45
f 45/45/45 47/47/47 43/43/43
f 48/48/48 44/44/44 43/43/43
f 48/48/48 43/43/43 47/47/47
f 44/44/44 48/48/48 49/49/49
f 48/48/48 50/50/50 49/49/49
f 50/50/50 48/48/48 47/47/47
f 50/50/50 47/47/47 51/51/51
f 47/47/47 52/52/52 51/51/51
f 55/55/55 54/54/54 53/53/53
f 56/56/56 55/55/55 53/53/53
f 53/53/53 57/57/57 56/56/56
f 57/57/57 58/58/58 56/56/56
f 61/61/61 60/60/60 59/59/59
f 62/62/62 61/61/61 59/59/59
f 59/59/59 63/63/63 62/62/62
f 63/63/63 64/64/64 62/62/62
f 67/67/67 66/66/66 65/65/65
f 68/68/68 67/67/67 65/65/65
f 65/65/65 69/69/69 68/68/68
f 69/69/69 70/70/70 68/68/68
f 73/73/73 72/72/72 71/71/71
f 72/72/72 74/74/74 71/71/71
f 75/75/75 74/74/74 72/72/72
f 75/75/75 76/76/76 74/74/74
f 79/79/79 78/78/78 77/77/77
f 80/80/80 79/79/79 77/77/77
f 81/81/81 79/79/79 80/80/80
f 82/82/82 81/81/81 80/80/80
f 83/83/83 81/81/81 82/82/82
f 84/84/84 83/83/83 82/82/82
f 85/85/85 83/83/83 84/84/84
f 86/86/86 85/85/85 84/84/84
f 87/87/87 85/85/85 86/86/86
f 88/88/88 87/87/87 86/86/86
f 89/89/89 87/87/87 88/88/88
f 90/90/90 89/89/89 88/88/88
f 93/93/93 92/92/92 91/91/91
f 91/91/91 92/92/92 94/94/94
f 95/95/95 92/92/92 93/93/93
f 94/94/94 92/92/92 96/96/96
f 97/97/97 92/92/92 95/95/95
f 96/96/96 92/92/92 97/97/97
