g Prop4
v -1.939754 0.5161411 -1.038814
v -2.015186 -0.3251655 -1.038814
v -1.813704 -1.039355 -1.038815
v 0.3587616 -1.949999 -0.5283124
v 1.488278 -1.29691 -0.5257648
v 0.9895819 -1.736985 -0.5644733
v 0.557409 -0.9888229 0.6412665
v -0.5247296 -1.907981 -0.5288312
v 1.046774 -0.2840977 0.6496332
v 1.892697 -0.5107619 -0.5233868
v -0.2975885 -1.060268 0.6496332
v -1.310872 -1.502622 -0.5283124
v -0.01348938 -1.525879E-07 1.038815
v 0.9753339 0.5708963 0.6412665
v 1.933713 0.3723074 -0.5210028
v 1.720773 1.001515 -0.5593268
v 1.282067 1.499323 -0.5184674
v 0.2706073 1.060267 0.6496332
v 0.4967914 1.9044 -0.517951
v -0.5843878 0.9888226 0.6412665
v -0.3858185 1.946231 -0.5184674
v -1.002315 -0.5708963 0.6412665
v -1.750667 -1.002737 -0.5644733
v -1.962515 -0.3722729 -0.5257648
v -1.919681 0.5107617 -0.5233868
v -1.073758 0.2840976 0.6496332
v -1.51366 1.296029 -0.5210028
v -1.014647 1.73447 -0.5593268
v 5.598312 -0.4583661 -0.7130231
v 0.0947406 -0.5804872 -0.7130231
v 0.0947406 -0.5804872 -0.07252868
v 5.598312 -0.4583661 -0.07252868
v 6.234881 -0.07046326 -0.7130231
v -0.02555481 0.6239389 -0.07252868
v 6.234881 -0.07046326 -0.07252868
v 6.094167 1.338425 -0.7130231
v 5.393439 1.592762 -0.07252868
v -0.02555481 0.6239389 -0.7130231
v 6.094167 1.338425 -0.07252868
v 5.393439 1.592762 -0.7130231
v 0.0947406 -0.5804872 -0.7130231
v 5.598312 -0.4583661 -0.7130231
v 6.094167 1.338425 -0.7130231
v 6.234881 -0.07046326 -0.7130231
v -0.02555481 0.6239389 -0.7130231
v -5.393445 -1.55622 -0.7130231
v 0.0947406 -0.5804872 -0.7130231
v -5.598313 0.4949084 -0.7130231
v -6.094168 -1.30188 -0.7130231
v -6.234881 0.1070077 -0.7130231
v -0.02555481 0.6239389 -0.07252868
v -5.598313 0.4949084 -0.07252868
v -6.234881 0.1070077 -0.7130231
v 0.0947406 -0.5804872 -0.07252868
v -6.234881 0.1070077 -0.07252868
v -6.094168 -1.30188 -0.7130231
v -5.393445 -1.55622 -0.07252868
v 0.0947406 -0.5804872 -0.7130231
v -5.393445 -1.55622 -0.7130231
v -6.094168 -1.30188 -0.07252868
v 1.988205 0.3251642 -1.038814
v 1.91277 -0.51614 -1.038814
v 1.892697 -0.5107619 -0.5233868
v 1.857519 1.080226 -1.038815
v 1.933713 0.3723074 -0.5210028
v 1.720773 1.001515 -0.5593268
v 1.268957 1.570936 -1.038814
v 1.282067 1.499323 -0.5184674
v 1.557446 -1.28245 -1.038814
v 1.91277 -0.51614 -1.038814
v 1.488278 -1.29691 -0.5257648
v 0.9895819 -1.736985 -0.5644733
v 1.066738 -1.871009 -1.038815
v 0.3587616 -1.949999 -0.5283124
v 0.5026483 1.926262 -1.038814
v 0.4967914 1.9044 -0.517951
v 0.3116717 -2.001696 -1.038814
v -0.5247296 -1.907981 -0.5288312
v -0.3386554 2.001696 -1.038814
v -0.3858185 1.946231 -0.5184674
v -0.529632 -1.926262 -1.038814
v -1.310872 -1.502622 -0.5283124
v -1.093719 1.871009 -1.038815
v -1.014647 1.73447 -0.5593268
v -1.295941 -1.570938 -1.038814
v -1.750667 -1.002737 -0.5644733
v -1.584427 1.282448 -1.038814
v -1.51366 1.296029 -0.5210028
v -1.919681 0.5107617 -0.5233868
v -1.813704 -1.039355 -1.038815
v -1.962515 -0.3722729 -0.5257648
v -1.939754 0.5161411 -1.038814
v -2.015186 -0.3251655 -1.038814
vt 0.5225434 0.7412711
vt 0.5225435 0.7412711
vt 0.5225435 0.7412712
vt 0.4475174 0.8106033
vt 0.4167779 0.7962149
vt 0.4306905 0.8064997
vt 0.4417067 0.7829376
vt 0.4703198 0.8075302
vt 0.4291389 0.7678155
vt 0.4045311 0.7767492
vt 0.4613696 0.782877
vt 0.489783 0.7952591
vt 0.4527851 0.7592309
vt 0.4290783 0.7481528
vt 0.401485 0.7539557
vt 0.4055902 0.7371706
vt 0.4158417 0.7232839
vt 0.4442005 0.7355847
vt 0.4352832 0.7110222
vt 0.4638634 0.7355242
vt 0.4580631 0.7079557
vt 0.4764918 0.770309
vt 0.5000582 0.7813162
vt 0.5041324 0.7645014
vt 0.501039 0.7417126
vt 0.4764312 0.7506464
vt 0.488753 0.7222736
vt 0.4748357 0.7120315
vt 0.5636494 0.6782951
vt 0.5525591 0.5153814
vt 0.5357392 0.5152375
vt 0.5496274 0.6731995
vt 0.545308 0.7013075
vt 0.4994799 0.5149176
vt 0.5395265 0.6890697
vt 0.4956143 0.7012916
vt 0.4912731 0.6733607
vt 0.4820257 0.5147577
vt 0.5014362 0.6891184
vt 0.4774134 0.6779181
vt 0.4466253 0.5144222
vt 0.4179509 0.6709612
vt 0.4658038 0.6963693
vt 0.4249212 0.6915716
vt 0.4796222 0.5157678
vt 0.4183671 0.6751738
vt 0.444222 0.5161033
vt 0.4779502 0.6809991
vt 0.4257267 0.6956488
vt 0.4666936 0.6996678
vt 0.4970766 0.5156079
vt 0.4917321 0.6761916
vt 0.4965664 0.7040457
vt 0.533336 0.5152881
vt 0.5021732 0.6917688
vt 0.5462538 0.703184
vt 0.5500802 0.6750017
vt 0.5501559 0.5151439
vt 0.5641901 0.6798543
vt 0.5402564 0.6910487
vt 0.5225435 0.7412713
vt 0.5225434 0.7412711
vt 0.5225434 0.7412711
vt 0.5225435 0.7412713
vt 0.5225434 0.7412711
vt 0.5225435 0.7412711
vt 0.5225435 0.741271
vt 0.5225435 0.741271
vt 0.5225435 0.7412713
vt 0.5225434 0.7412711
vt 0.5225435 0.7412711
vt 0.5225435 0.7412711
vt 0.5225435 0.7412713
vt 0.5225435 0.7412713
vt 0.5225435 0.7412713
vt 0.5225435 0.7412713
vt 0.5225435 0.741271
vt 0.5225435 0.7412713
vt 0.5225435 0.7412712
vt 0.5225435 0.7412712
vt 0.5225435 0.7412713
vt 0.5225435 0.7412712
vt 0.5225435 0.7412711
vt 0.5225435 0.7412711
vt 0.5225435 0.7412712
vt 0.5225434 0.7412711
vt 0.5225435 0.7412711
vt 0.5225434 0.7412711
vt 0.5225434 0.7412711
vt 0.5225435 0.7412712
vt 0.5225435 0.7412711
vt 0.5225434 0.7412711
vt 0.5225435 0.7412711
vn -0.701703 0.1883324 -0.6871273
vn -0.9164603 -0.1069035 -0.3855802
vn -0.4950661 -0.2856633 -0.8205522
vn 0.1572963 -0.9102697 0.3829713
vn 0.7092116 -0.5913812 0.38378
vn 0.4712681 -0.8164515 0.3336364
vn 0.3387356 -0.5874689 0.7349412
vn -0.2410802 -0.8997248 0.3638345
vn 0.5205227 -0.1397284 0.8423372
vn 0.8989996 -0.2409136 0.3657324
vn -0.1396184 -0.5210639 0.8420208
vn -0.6071647 -0.7061681 0.3642493
vn 0 0 1
vn 0.5869427 0.3384301 0.7355021
vn 0.9094101 0.1574053 0.3849633
vn 0.8157908 0.4708887 0.3357815
vn 0.591051 0.7084156 0.3857539
vn 0.1393623 0.5201063 0.842655
vn 0.2406975 0.8982937 0.3676045
vn -0.3390922 0.586561 0.7355016
vn -0.1576584 0.9090309 0.3857546
vn -0.587088 -0.3393959 0.7349408
vn -0.8317353 -0.4802591 0.2785098
vn -0.9147538 -0.1729522 0.3651206
vn -0.8990127 0.2408637 0.3657332
vn -0.5206497 0.1392536 0.8423374
vn -0.7088683 0.5910228 0.3849646
vn -0.4710529 0.8156952 0.3357834
vn 0.195134 -0.666705 -0.7193242
vn 0.0698333 -0.7025982 -0.7081519
vn 0.0698333 -0.7025982 0.7081519
vn 0.195134 -0.666705 0.7193242
vn 0.7707421 -0.383772 -0.5086018
vn -0.07051066 0.7025304 0.7081519
vn 0.7707421 -0.383772 0.5086018
vn 0.6796118 0.5286311 -0.508603
vn 0.05941273 0.6921294 0.719324
vn -0.07051066 0.7025304 -0.7081519
vn 0.6796118 0.5286311 0.508603
vn 0.05941273 0.6921294 -0.719324
vn 0.0698333 -0.7025982 -0.7081519
vn 0.195134 -0.666705 -0.7193242
vn 0.6796118 0.5286311 -0.508603
vn 0.7707421 -0.383772 -0.5086018
vn -0.07051066 0.7025304 -0.7081519
vn -0.05975226 -0.6921465 -0.7192793
vn 0.0698333 -0.7025982 -0.7081519
vn -0.1954678 0.6666558 -0.7192791
vn -0.6796136 -0.5286292 -0.5086025
vn -0.7707415 0.383773 -0.5086019
vn -0.07051066 0.7025304 0.7081519
vn -0.1954678 0.6666558 0.7192791
vn -0.7707415 0.383773 -0.5086019
vn 0.0698333 -0.7025982 0.7081519
vn -0.7707415 0.383773 0.5086019
vn -0.6796136 -0.5286292 -0.5086025
vn -0.05975226 -0.6921465 0.7192793
vn 0.0698333 -0.7025982 -0.7081519
vn -0.05975226 -0.6921465 -0.7192793
vn -0.6796136 -0.5286292 0.5086025
vn 0.9323183 0.08343357 -0.3518829
vn 0.7018586 -0.1877512 -0.6871274
vn 0.8989996 -0.2409136 0.3657324
vn 0.5065959 0.2926052 -0.8110135
vn 0.9094101 0.1574053 0.3849633
vn 0.8157908 0.4708887 0.3357815
vn 0.3344348 0.4759764 -0.8133878
vn 0.591051 0.7084156 0.3857539
vn 0.4755287 -0.3337529 -0.8139296
vn 0.7018586 -0.1877512 -0.6871274
vn 0.7092116 -0.5913812 0.38378
vn 0.4712681 -0.8164515 0.3336364
vn 0.2922282 -0.5059408 -0.8115582
vn 0.1572963 -0.9102697 0.3829713
vn 0.1466515 0.5473115 -0.8239803
vn 0.2406975 0.8982937 0.3676045
vn 0.05145919 -0.5783703 -0.8141497
vn -0.2410802 -0.8997248 0.3638345
vn -0.05164074 0.5794252 -0.8133878
vn -0.1576584 0.9090309 0.3857546
vn -0.1463025 -0.5460109 -0.8249047
vn -0.6071647 -0.7061681 0.3642493
vn -0.2924225 0.5067013 -0.8110135
vn -0.4710529 0.8156952 0.3357834
vn -0.3405679 -0.4572764 -0.8215302
vn -0.8317353 -0.4802591 0.2785098
vn -0.4756112 0.3344381 -0.8136001
vn -0.7088683 0.5910228 0.3849646
vn -0.8990127 0.2408637 0.3657332
vn -0.4950661 -0.2856633 -0.8205522
vn -0.9147538 -0.1729522 0.3651206
vn -0.701703 0.1883324 -0.6871273
vn -0.9164603 -0.1069035 -0.3855802
g Prop4_0
f 3/3/3 2/2/2 1/1/1
f 6/6/6 5/5/5 4/4/4
f 5/5/5 7/7/7 4/4/4
f 4/4/4 7/7/7 8/8/8
f 9/9/9 7/7/7 5/5/5
f 10/10/10 9/9/9 5/5/5
f 7/7/7 11/11/11 8/8/8
f 8/8/8 11/11/11 12/12/12
f 9/9/9 13/13/13 7/7/7
f 13/13/13 11/11/11 7/7/7
f 14/14/14 9/9/9 10/10/10
f 15/15/15 14/14/14 10/10/10
f 14/14/14 15/15/15 16/16/16
f 17/17/17 14/14/14 16/16/16
f 14/14/14 18/18/18 9/9/9
f 18/18/18 14/14/14 17/17/17
f 18/18/18 13/13/13 9/9/9
f 19/19/19 18/18/18 17/17/17
f 20/20/20 18/18/18 19/19/19
f 18/18/18 20/20/20 13/13/13
f 21/21/21 20/20/20 19/19/19
f 11/11/11 22/22/22 12/12/12
f 12/12/12 22/22/22 23/23/23
f 22/22/22 24/24/24 23/23/23
f 24/24/24 22/22/22 25/25/25
f 13/13/13 26/26/26 11/11/11
f 26/26/26 22/22/22 11/11/11
f 22/22/22 26/26/26 25/25/25
f 20/20/20 26/26/26 13/13/13
f 25/25/25 26/26/26 27/27/27
f 26/26/26 20/20/20 27/27/27
f 27/27/27 20/20/20 21/21/21
f 28/28/28 27/27/27 21/21/21
f 31/31/31 30/30/30 29/29/29
f 32/32/32 31/31/31 29/29/29
f 29/29/29 33/33/33 32/32/32
f 34/34/34 31/31/31 32/32/32
f 33/33/33 35/35/35 32/32/32
f 35/35/35 33/33/33 36/36/36
f 37/37/37 34/34/34 32/32/32
f 32/32/32 35/35/35 37/37/37
f 34/34/34 37/37/37 38/38/38
f 39/39/39 35/35/35 36/36/36
f 35/35/35 39/39/39 37/37/37
f 39/39/39 36/36/36 40/40/40
f 37/37/37 39/39/39 40/40/40
f 37/37/37 40/40/40 38/38/38
f 41/41/41 38/38/38 40/40/40
f 42/42/42 41/41/41 40/40/40
f 40/40/40 43/43/43 42/42/42
f 43/43/43 44/44/44 42/42/42
f 47/47/47 46/46/46 45/45/45
f 46/46/46 48/48/48 45/45/45
f 46/46/46 49/49/49 48/48/48
f 49/49/49 50/50/50 48/48/48
f 51/51/51 45/45/45 48/48/48
f 52/52/52 51/51/51 48/48/48
f 48/48/48 53/53/53 52/52/52
f 51/51/51 52/52/52 54/54/54
f 53/53/53 55/55/55 52/52/52
f 55/55/55 53/53/53 56/56/56
f 52/52/52 57/57/57 54/54/54
f 52/52/52 55/55/55 57/57/57
f 54/54/54 57/57/57 58/58/58
f 57/57/57 59/59/59 58/58/58
f 60/60/60 55/55/55 56/56/56
f 60/60/60 56/56/56 59/59/59
f 57/57/57 60/60/60 59/59/59
f 55/55/55 60/60/60 57/57/57
f 63/63/63 62/62/62 61/61/61
f 64/64/64 61/61/61 62/62/62
f 65/65/65 63/63/63 61/61/61
f 65/65/65 61/61/61 64/64/64
f 66/66/66 65/65/65 64/64/64
f 66/66/66 64/64/64 67/67/67
f 68/68/68 66/66/66 67/67/67
f 69/69/69 67/67/67 64/64/64
f 70/70/70 69/69/69 64/64/64
f 63/63/63 71/71/71 70/70/70
f 71/71/71 69/69/69 70/70/70
f 71/71/71 72/72/72 69/69/69
f 72/72/72 73/73/73 69/69/69
f 69/69/69 73/73/73 67/67/67
f 72/72/72 74/74/74 73/73/73
f 68/68/68 67/67/67 75/75/75
f 73/73/73 75/75/75 67/67/67
f 76/76/76 68/68/68 75/75/75
f 74/74/74 77/77/77 73/73/73
f 73/73/73 77/77/77 75/75/75
f 74/74/74 78/78/78 77/77/77
f 76/76/76 75/75/75 79/79/79
f 77/77/77 79/79/79 75/75/75
f 80/80/80 76/76/76 79/79/79
f 78/78/78 81/81/81 77/77/77
f 77/77/77 81/81/81 79/79/79
f 78/78/78 82/82/82 81/81/81
f 80/80/80 79/79/79 83/83/83
f 81/81/81 83/83/83 79/79/79
f 84/84/84 80/80/80 83/83/83
f 82/82/82 85/85/85 81/81/81
f 81/81/81 85/85/85 83/83/83
f 82/82/82 86/86/86 85/85/85
f 84/84/84 83/83/83 87/87/87
f 85/85/85 87/87/87 83/83/83
f 88/88/88 84/84/84 87/87/87
f 89/89/89 88/88/88 87/87/87
f 86/86/86 90/90/90 85/85/85
f 85/85/85 90/90/90 87/87/87
f 86/86/86 91/91/91 90/90/90
f 90/90/90 92/92/92 87/87/87
f 92/92/92 89/89/89 87/87/87
f 91/91/91 93/93/93 90/90/90
f 89/89/89 92/92/92 93/93/93
f 91/91/91 89/89/89 93/93/93
