g Propeller_R
v 5.493164E-06 -1.624371 -0.6048315
v -1.406757 -0.8121843 -0.6048315
v 5.493164E-06 -1.406749 -0.05193115
v -1.218273 -0.7033697 -0.05193115
v 6.103515E-07 -4.577637E-07 0.6048315
v -7.127882 -1.269218 0.5306689
v -7.162238 -1.415474 -0.3136694
v -7.784074 -0.8501546 0.1147925
v -7.784074 0.8501498 0.1147925
v -7.127882 1.269212 0.5306689
v -7.162238 1.415471 -0.3136694
v -1.406747 0.8121867 -0.6048315
v -1.218278 0.703372 -0.05193115
v 5.493164E-06 1.406746 -0.05193115
v 5.493164E-06 1.624371 -0.6048315
v 5.493164E-06 1.624371 -0.6048315
v 1.406744 0.8121867 -0.6048315
v 5.493164E-06 1.406746 -0.05193115
v 1.218277 0.703372 -0.05193115
v 6.103515E-07 -4.577637E-07 0.6048315
v 7.127886 1.269217 0.5306689
v 7.162241 1.415474 -0.3136694
v 7.784074 0.8501521 0.1147925
v 7.784074 -0.8501529 0.1147925
v 7.12789 -1.269213 0.5306689
v 7.162241 -1.415473 -0.3136694
v 1.406744 -0.8121843 -0.6048315
v 1.218277 -0.7033696 -0.05193115
v 5.493164E-06 -1.406749 -0.05193115
v 5.493164E-06 -1.624371 -0.6048315
v 5.493164E-06 1.624371 -0.6048315
v -1.406747 0.8121867 -0.6048315
v 5.493164E-06 -1.624371 -0.6048315
v -1.406757 -0.8121843 -0.6048315
v -7.162238 1.415471 -0.3136694
v -7.162238 -1.415474 -0.3136694
v -7.784074 0.8501498 0.1147925
v -7.784074 -0.8501546 0.1147925
v 5.493164E-06 1.624371 -0.6048315
v 5.493164E-06 -1.624371 -0.6048315
v 1.406744 -0.8121843 -0.6048315
v 1.406744 0.8121867 -0.6048315
v 7.162241 -1.415473 -0.3136694
v 7.162241 1.415474 -0.3136694
v 7.784074 0.8501521 0.1147925
v 7.784074 -0.8501529 0.1147925
vt 0.7002559 0.8848852
vt 0.6575046 0.908943
vt 0.7002559 0.9008896
vt 0.6625484 0.9177579
vt 0.7002559 0.9376433
vt 0.5028102 0.9035665
vt 0.4973472 0.8860729
vt 0.4813484 0.9119677
vt 0.4809124 0.9622396
vt 0.5022251 0.9710115
vt 0.4974116 0.9883279
vt 0.6567126 0.9684646
vt 0.662277 0.9574872
vt 0.7002559 0.9757851
vt 0.7002559 0.9887021
vt 0.7002559 0.9887021
vt 0.6567126 0.9684646
vt 0.7002559 0.9757851
vt 0.662277 0.9574873
vt 0.7002559 0.9376433
vt 0.5034224 0.9715073
vt 0.4989075 0.9889052
vt 0.4819616 0.9631064
vt 0.4815271 0.912834
vt 0.5028389 0.9040641
vt 0.4970754 0.8866668
vt 0.6575021 0.908943
vt 0.6625484 0.9177579
vt 0.7002559 0.9008896
vt 0.7002559 0.8848852
vt 0.7002559 0.9887021
vt 0.6567126 0.9684646
vt 0.7002559 0.8848852
vt 0.6575046 0.908943
vt 0.4974116 0.9883279
vt 0.4973472 0.8860729
vt 0.4809124 0.9622396
vt 0.4813484 0.9119677
vt 0.7002559 0.9887021
vt 0.7002559 0.8848852
vt 0.6575021 0.908943
vt 0.6567126 0.9684646
vt 0.4970754 0.8866668
vt 0.4989075 0.9889052
vt 0.4819616 0.9631064
vt 0.4815271 0.912834
vn 1.822987E-07 -0.300546 -0.9537674
vn -0.02830962 -0.3061441 -0.9515641
vn 7.134677E-07 -0.7646606 0.6444333
vn 0.04331427 -0.3015234 0.9524744
vn -4.494101E-07 -1.514866E-07 1
vn 0.05834947 -0.3165165 0.9467907
vn -0.06629213 -0.332781 -0.9406711
vn -0.9969619 -0.06293517 -0.04589314
vn -0.9969618 0.06293508 -0.04589396
vn 0.05834905 0.3165159 0.946791
vn -0.06629244 0.3327813 -0.940671
vn -0.02831035 0.306143 -0.9515646
vn 0.04331535 0.3015254 0.9524736
vn 2.12406E-07 0.7646611 0.6444327
vn -1.020852E-07 0.3005455 -0.9537675
vn -1.020852E-07 0.3005455 -0.9537675
vn 0.02831058 0.3061419 -0.9515648
vn 2.12406E-07 0.7646611 0.6444327
vn -0.04331556 0.3015258 0.9524736
vn -4.494101E-07 -1.514866E-07 1
vn -0.05834978 0.316516 0.9467909
vn 0.06629229 0.3327807 -0.9406713
vn 0.9969618 0.06293491 -0.04589514
vn 0.9969618 -0.06293432 -0.04589543
vn -0.05834956 -0.3165157 0.946791
vn 0.06629205 -0.3327816 -0.9406709
vn 0.02831069 -0.306142 -0.9515648
vn -0.04331522 -0.3015258 0.9524736
vn 7.134677E-07 -0.7646606 0.6444333
vn 1.822987E-07 -0.300546 -0.9537674
vn -1.020852E-07 0.3005455 -0.9537675
vn -0.02831035 0.306143 -0.9515646
vn 1.822987E-07 -0.300546 -0.9537674
vn -0.02830962 -0.3061441 -0.9515641
vn -0.06629244 0.3327813 -0.940671
vn -0.06629213 -0.332781 -0.9406711
vn -0.9969618 0.06293508 -0.04589396
vn -0.9969619 -0.06293517 -0.04589314
vn -1.020852E-07 0.3005455 -0.9537675
vn 1.822987E-07 -0.300546 -0.9537674
vn 0.02831069 -0.306142 -0.9515648
vn 0.02831058 0.3061419 -0.9515648
vn 0.06629205 -0.3327816 -0.9406709
vn 0.06629229 0.3327807 -0.9406713
vn 0.9969618 0.06293491 -0.04589514
vn 0.9969618 -0.06293432 -0.04589543
g Propeller_R_0
f 3/3/3 2/2/2 1/1/1
f 3/3/3 4/4/4 2/2/2
f 5/5/5 4/4/4 3/3/3
f 6/6/6 2/2/2 4/4/4
f 6/6/6 7/7/7 2/2/2
f 8/8/8 7/7/7 6/6/6
f 9/9/9 8/8/8 6/6/6
f 9/9/9 6/6/6 10/10/10
f 10/10/10 6/6/6 4/4/4
f 9/9/9 10/10/10 11/11/11
f 10/10/10 12/12/12 11/11/11
f 5/5/5 13/13/13 4/4/4
f 10/10/10 4/4/4 13/13/13
f 10/10/10 13/13/13 12/12/12
f 14/14/14 13/13/13 5/5/5
f 13/13/13 15/15/15 12/12/12
f 13/13/13 14/14/14 15/15/15
f 18/18/18 17/17/17 16/16/16
f 18/18/18 19/19/19 17/17/17
f 20/20/20 19/19/19 18/18/18
f 21/21/21 17/17/17 19/19/19
f 21/21/21 22/22/22 17/17/17
f 23/23/23 22/22/22 21/21/21
f 24/24/24 23/23/23 21/21/21
f 24/24/24 21/21/21 25/25/25
f 25/25/25 21/21/21 19/19/19
f 24/24/24 25/25/25 26/26/26
f 25/25/25 27/27/27 26/26/26
f 20/20/20 28/28/28 19/19/19
f 25/25/25 19/19/19 28/28/28
f 25/25/25 28/28/28 27/27/27
f 29/29/29 28/28/28 20/20/20
f 28/28/28 30/30/30 27/27/27
f 28/28/28 29/29/29 30/30/30
f 33/33/33 32/32/32 31/31/31
f 33/33/33 34/34/34 32/32/32
f 34/34/34 35/35/35 32/32/32
f 34/34/34 36/36/36 35/35/35
f 36/36/36 37/37/37 35/35/35
f 36/36/36 38/38/38 37/37/37
f 41/41/41 40/40/40 39/39/39
f 41/41/41 39/39/39 42/42/42
f 43/43/43 41/41/41 42/42/42
f 43/43/43 42/42/42 44/44/44
f 43/43/43 44/44/44 45/45/45
f 43/43/43 45/45/45 46/46/46
