g Propeller_L
v 4.00528 5.722046E-08 1.09995
v 4.00528 -2.098083E-07 0.320365
v 4.653176 -4.653179 0.2573132
v 3.583381 -5.003721 2.210785
v 0.6979761 -8.60838 0.2573083
v 2.326589 -2.32659 2.619037
v 0 1.144409E-07 1.163002
v 0 -4.005282 1.09995
v 0.5375073 -8.660962 0.7055041
v 0 -8.511195 0.2667663
v -2.441406E-06 -8.511196 0.6526746
v 0 -8.511195 0.2667663
v 0 -4.005282 0.320365
v 0 4.005283 1.09995
v 0 4.005283 0.320365
v 4.653176 4.653178 0.2573132
v 5.003718 3.583382 2.210785
v 8.608381 0.6979765 0.2573083
v 2.326589 2.326589 2.619037
v 0 1.144409E-07 1.163002
v 4.00528 5.722046E-08 1.09995
v 8.660959 0.5375071 0.7055041
v 8.511193 -1.907349E-07 0.2667663
v 8.511193 -1.716614E-07 0.6526746
v 8.511193 -1.907349E-07 0.2667663
v 4.00528 -2.098083E-07 0.320365
v -4.005282 2.479553E-07 1.09995
v -4.005283 5.149841E-07 0.320365
v -4.653179 4.653179 0.2573132
v -3.583383 5.003721 2.210785
v -0.6979785 8.608381 0.2573083
v -2.326589 2.32659 2.619037
v 0 1.144409E-07 1.163002
v 0 4.005283 1.09995
v -0.5375073 8.660962 0.7055041
v 0 8.511197 0.2667663
v 0 8.511197 0.6526746
v 0 8.511197 0.2667663
v 0 4.005283 0.320365
v 0 -4.005282 1.09995
v 0 -4.005282 0.320365
v -4.653179 -4.653178 0.2573132
v -5.003721 -3.583383 2.210785
v -8.60838 -0.6979764 0.2573083
v -2.326589 -2.326589 2.619037
v 0 1.144409E-07 1.163002
v -4.005282 2.479553E-07 1.09995
v -8.660962 -0.537507 0.7055041
v -8.511196 4.577637E-07 0.2667663
v -8.511196 4.196167E-07 0.6526746
v -8.511196 4.577637E-07 0.2667663
v -4.005283 5.149841E-07 0.320365
v -4.653179 -4.653178 0.2573132
v 0 -4.005282 0.320365
v 0 4.386902E-07 -0.5675647
v -4.005283 5.149841E-07 0.320365
v -8.60838 -0.6979764 0.2573083
v -8.511196 4.577637E-07 0.2667663
v 4.653176 4.653178 0.2573132
v 0 4.005283 0.320365
v 0 4.386902E-07 -0.5675647
v 4.00528 -2.098083E-07 0.320365
v 8.608381 0.6979765 0.2573083
v 8.511193 -1.907349E-07 0.2667663
v -4.653179 4.653179 0.2573132
v -4.005283 5.149841E-07 0.320365
v 0 4.386902E-07 -0.5675647
v 0 4.005283 0.320365
v -0.6979785 8.608381 0.2573083
v 0 8.511197 0.2667663
v 0 4.386902E-07 -0.5675647
v 4.653176 -4.653179 0.2573132
v 4.00528 -2.098083E-07 0.320365
v 0 -4.005282 0.320365
v 0.6979761 -8.60838 0.2573083
v 0 -8.511195 0.2667663
v 0 0.8759089 0.6804797
v 0 0.8759089 1.619125
v -0.7585571 0.4379548 1.619125
v -0.7585571 0.4379548 0.6804797
v -0.7585571 -0.4379533 1.619125
v -0.7585571 -0.4379533 0.6804797
v 0 -0.8759077 1.619125
v 0 -0.8759077 0.6804797
v 0.7585595 -0.4379538 1.619125
v 0.7585595 -0.4379538 0.6804797
v 0.7585595 0.4379548 1.619125
v 0.7585595 0.4379548 0.6804797
v 0 0.8759089 1.619125
v 0 0.8759089 0.6804797
v 0 0.8759089 1.619125
v 0 6.103515E-07 2.021366
v -0.7585571 0.4379548 1.619125
v 0.7585595 0.4379548 1.619125
v -0.7585571 -0.4379533 1.619125
v 0.7585595 -0.4379538 1.619125
v 0 -0.8759077 1.619125
vt 0.5428294 0.9330158
vt 0.5427314 0.9448023
vt 0.6160821 0.9481168
vt 0.6178493 0.9236562
vt 0.682515 0.8959354
vt 0.5796876 0.9019085
vt 0.5425891 0.8659362
vt 0.6106725 0.8652363
vt 0.6786766 0.8899501
vt 0.6862112 0.8845631
vt 0.6800053 0.8823623
vt 0.6822077 0.8770058
vt 0.6152962 0.8543004
vt 0.5428293 0.9330164
vt 0.5427316 0.9448029
vt 0.6160823 0.9481168
vt 0.6178492 0.9236562
vt 0.6825149 0.8959363
vt 0.5796874 0.9019086
vt 0.5425888 0.8659362
vt 0.6106727 0.8652361
vt 0.6786766 0.8899509
vt 0.6862112 0.8845644
vt 0.6800054 0.8823633
vt 0.6822082 0.8770068
vt 0.615297 0.8543003
vt 0.5428292 0.9330155
vt 0.5427313 0.944802
vt 0.6160817 0.9481168
vt 0.6178491 0.9236563
vt 0.682515 0.8959374
vt 0.5796877 0.9019081
vt 0.5425893 0.8659354
vt 0.6106733 0.865236
vt 0.6786767 0.8899519
vt 0.6862117 0.8845658
vt 0.680006 0.8823644
vt 0.6822089 0.8770081
vt 0.6152976 0.8543003
vt 0.5428296 0.9330161
vt 0.5427316 0.9448026
vt 0.6160828 0.9481167
vt 0.6178496 0.9236562
vt 0.6825153 0.8959348
vt 0.5796877 0.9019085
vt 0.5425893 0.865936
vt 0.6106726 0.8652362
vt 0.6786766 0.8899496
vt 0.6862112 0.8845628
vt 0.6800053 0.8823619
vt 0.6822079 0.8770054
vt 0.6152965 0.8543003
vt 0.5856649 0.8596636
vt 0.601213 0.8572116
vt 0.6012876 0.8434681
vt 0.5875557 0.8440374
vt 0.5721784 0.8466541
vt 0.572462 0.8443102
vt 0.5856649 0.8596636
vt 0.601213 0.8572116
vt 0.6012876 0.8434681
vt 0.5875557 0.8440374
vt 0.5721784 0.8466541
vt 0.5724621 0.8443102
vt 0.5856649 0.8596636
vt 0.601213 0.8572116
vt 0.6012876 0.8434681
vt 0.5875557 0.8440374
vt 0.5721784 0.8466541
vt 0.572462 0.8443102
vt 0.6012875 0.8434681
vt 0.5856649 0.8596635
vt 0.6012129 0.8572115
vt 0.5875556 0.8440373
vt 0.5721784 0.8466541
vt 0.572462 0.8443101
vt 0.639151 0.7886593
vt 0.639151 0.7947423
vt 0.6448274 0.7947423
vt 0.6448274 0.7886593
vt 0.6505036 0.7947423
vt 0.6505036 0.7886593
vt 0.6561799 0.7947423
vt 0.6561799 0.7886593
vt 0.6618562 0.7947423
vt 0.6618562 0.7886593
vt 0.6675324 0.7947423
vt 0.6675324 0.7886593
vt 0.6732088 0.7947423
vt 0.6732088 0.7886593
vt 0.6678541 0.8306498
vt 0.6593747 0.8156875
vt 0.6506568 0.8305121
vt 0.6765721 0.8158253
vt 0.6421773 0.8155499
vt 0.6680926 0.8008631
vt 0.6508954 0.8007253
vn 0.4322627 -0.219795 0.8745508
vn 0.2108477 -0.04852943 -0.9763135
vn 0.5343125 -0.19261 -0.8230501
vn 0.4586529 -0.3537098 0.8151852
vn 0.5703307 -0.5884881 -0.5730661
vn -0.04223864 0.1179767 0.9921177
vn 1.429842E-07 0 1
vn -0.2197951 -0.4322625 0.8745509
vn 0.06145699 -0.4284863 0.9014558
vn -0.8364778 -0.07535978 -0.5427945
vn -0.4981306 -0.1261239 0.8578804
vn -0.8364778 -0.07535978 -0.5427945
vn -0.04852931 -0.2108475 -0.9763135
vn 0.2197952 0.4322625 0.8745509
vn 0.04852942 0.2108476 -0.9763135
vn 0.1926102 0.5343128 -0.8230498
vn 0.3537096 0.4586537 0.8151849
vn 0.5884877 0.570331 -0.5730662
vn -0.1179766 -0.04223906 0.9921177
vn 1.429842E-07 0 1
vn 0.4322627 -0.219795 0.8745508
vn 0.428487 0.06145896 0.9014553
vn 0.07535956 -0.836479 -0.5427927
vn 0.1261242 -0.4981304 0.8578804
vn 0.07535956 -0.836479 -0.5427927
vn 0.2108477 -0.04852943 -0.9763135
vn -0.4322627 0.2197947 0.8745509
vn -0.2108477 0.04852942 -0.9763135
vn -0.5343128 0.19261 -0.8230499
vn -0.4586532 0.3537096 0.8151851
vn -0.5703307 0.5884886 -0.5730653
vn 0.04223889 -0.1179768 0.9921176
vn 1.429842E-07 0 1
vn 0.2197952 0.4322625 0.8745509
vn -0.06145703 0.4284861 0.9014558
vn 0.8364789 0.07535934 -0.5427928
vn 0.4981306 0.1261239 0.8578804
vn 0.8364789 0.07535934 -0.5427928
vn 0.04852942 0.2108476 -0.9763135
vn -0.2197951 -0.4322625 0.8745509
vn -0.04852931 -0.2108475 -0.9763135
vn -0.1926099 -0.5343125 -0.8230503
vn -0.3537098 -0.4586533 0.8151851
vn -0.588488 -0.5703305 -0.5730663
vn 0.1179769 0.04223884 0.9921176
vn 1.429842E-07 0 1
vn -0.4322627 0.2197947 0.8745509
vn -0.4284863 -0.06145737 0.9014557
vn -0.07535953 0.8364794 -0.5427921
vn -0.1261242 0.4981303 0.8578804
vn -0.07535953 0.8364794 -0.5427921
vn -0.2108477 0.04852942 -0.9763135
vn -0.1926099 -0.5343125 -0.8230503
vn -0.04852931 -0.2108475 -0.9763135
vn 0 0 -1
vn -0.2108477 0.04852942 -0.9763135
vn -0.588488 -0.5703305 -0.5730663
vn -0.07535953 0.8364794 -0.5427921
vn 0.1926102 0.5343128 -0.8230498
vn 0.04852942 0.2108476 -0.9763135
vn 0 0 -1
vn 0.2108477 -0.04852943 -0.9763135
vn 0.5884877 0.570331 -0.5730662
vn 0.07535956 -0.836479 -0.5427927
vn -0.5343128 0.19261 -0.8230499
vn -0.2108477 0.04852942 -0.9763135
vn 0 0 -1
vn 0.04852942 0.2108476 -0.9763135
vn -0.5703307 0.5884886 -0.5730653
vn 0.8364789 0.07535934 -0.5427928
vn 0 0 -1
vn 0.5343125 -0.19261 -0.8230501
vn 0.2108477 -0.04852943 -0.9763135
vn -0.04852931 -0.2108475 -0.9763135
vn 0.5703307 -0.5884881 -0.5730661
vn -0.8364778 -0.07535978 -0.5427945
vn 2.619455E-07 1 0
vn 4.063083E-07 0.9619808 0.2731172
vn -0.8331001 0.4809898 0.2731171
vn -0.866026 0.4999991 0
vn -0.8331004 -0.4809896 0.273117
vn -0.866026 -0.4999987 0
vn -4.063083E-07 -0.9619808 0.2731172
vn -5.457198E-07 -1 0
vn 0.8330996 -0.4809907 0.2731173
vn 0.8660251 -0.5000004 0
vn 0.8330996 0.4809906 0.2731173
vn 0.8660253 0.5000004 0
vn 4.063083E-07 0.9619808 0.2731172
vn 2.619455E-07 1 0
vn 4.063083E-07 0.9619808 0.2731172
vn 3.375766E-07 0 1
vn -0.8331001 0.4809898 0.2731171
vn 0.8330996 0.4809906 0.2731173
vn -0.8331004 -0.4809896 0.273117
vn 0.8330996 -0.4809907 0.2731173
vn -4.063083E-07 -0.9619808 0.2731172
g Propeller_L_0
f 3/3/3 2/2/2 1/1/1
f 4/4/4 3/3/3 1/1/1
f 5/5/5 3/3/3 4/4/4
f 1/1/1 6/6/6 4/4/4
f 1/1/1 7/7/7 6/6/6
f 7/7/7 8/8/8 6/6/6
f 6/6/6 8/8/8 4/4/4
f 9/9/9 5/5/5 4/4/4
f 9/9/9 4/4/4 8/8/8
f 5/5/5 9/9/9 10/10/10
f 9/9/9 11/11/11 10/10/10
f 11/11/11 9/9/9 8/8/8
f 11/11/11 8/8/8 12/12/12
f 8/8/8 13/13/13 12/12/12
f 16/16/16 15/15/15 14/14/14
f 17/17/17 16/16/16 14/14/14
f 18/18/18 16/16/16 17/17/17
f 14/14/14 19/19/19 17/17/17
f 14/14/14 20/20/20 19/19/19
f 20/20/20 21/21/21 19/19/19
f 19/19/19 21/21/21 17/17/17
f 22/22/22 18/18/18 17/17/17
f 22/22/22 17/17/17 21/21/21
f 18/18/18 22/22/22 23/23/23
f 22/22/22 24/24/24 23/23/23
f 24/24/24 22/22/22 21/21/21
f 24/24/24 21/21/21 25/25/25
f 21/21/21 26/26/26 25/25/25
f 29/29/29 28/28/28 27/27/27
f 30/30/30 29/29/29 27/27/27
f 31/31/31 29/29/29 30/30/30
f 27/27/27 32/32/32 30/30/30
f 27/27/27 33/33/33 32/32/32
f 33/33/33 34/34/34 32/32/32
f 32/32/32 34/34/34 30/30/30
f 35/35/35 31/31/31 30/30/30
f 35/35/35 30/30/30 34/34/34
f 31/31/31 35/35/35 36/36/36
f 35/35/35 37/37/37 36/36/36
f 37/37/37 35/35/35 34/34/34
f 37/37/37 34/34/34 38/38/38
f 34/34/34 39/39/39 38/38/38
f 42/42/42 41/41/41 40/40/40
f 43/43/43 42/42/42 40/40/40
f 44/44/44 42/42/42 43/43/43
f 40/40/40 45/45/45 43/43/43
f 40/40/40 46/46/46 45/45/45
f 46/46/46 47/47/47 45/45/45
f 45/45/45 47/47/47 43/43/43
f 48/48/48 44/44/44 43/43/43
f 48/48/48 43/43/43 47/47/47
f 44/44/44 48/48/48 49/49/49
f 48/48/48 50/50/50 49/49/49
f 50/50/50 48/48/48 47/47/47
f 50/50/50 47/47/47 51/51/51
f 47/47/47 52/52/52 51/51/51
f 55/55/55 54/54/54 53/53/53
f 56/56/56 55/55/55 53/53/53
f 53/53/53 57/57/57 56/56/56
f 57/57/57 58/58/58 56/56/56
f 61/61/61 60/60/60 59/59/59
f 62/62/62 61/61/61 59/59/59
f 59/59/59 63/63/63 62/62/62
f 63/63/63 64/64/64 62/62/62
f 67/67/67 66/66/66 65/65/65
f 68/68/68 67/67/67 65/65/65
f 65/65/65 69/69/69 68/68/68
f 69/69/69 70/70/70 68/68/68
f 73/73/73 72/72/72 71/71/71
f 72/72/72 74/74/74 71/71/71
f 75/75/75 74/74/74 72/72/72
f 75/75/75 76/76/76 74/74/74
f 79/79/79 78/78/78 77/77/77
f 80/80/80 79/79/79 77/77/77
f 81/81/81 79/79/79 80/80/80
f 82/82/82 81/81/81 80/80/80
f 83/83/83 81/81/81 82/82/82
f 84/84/84 83/83/83 82/82/82
f 85/85/85 83/83/83 84/84/84
f 86/86/86 85/85/85 84/84/84
f 87/87/87 85/85/85 86/86/86
f 88/88/88 87/87/87 86/86/86
f 89/89/89 87/87/87 88/88/88
f 90/90/90 89/89/89 88/88/88
f 93/93/93 92/92/92 91/91/91
f 91/91/91 92/92/92 94/94/94
f 95/95/95 92/92/92 93/93/93
f 94/94/94 92/92/92 96/96/96
f 97/97/97 92/92/92 95/95/95
f 96/96/96 92/92/92 97/97/97
