g PropellorLH
v -1.406744 -0.8121843 -0.6048315
v -5.493164E-06 -1.406749 -0.05193115
v -5.493164E-06 -1.624371 -0.6048315
v -1.218277 -0.7033696 -0.05193115
v -6.103515E-07 -4.577637E-07 0.6048315
v -7.12789 -1.269213 0.5306689
v -7.162241 -1.415473 -0.3136694
v -7.784074 -0.8501529 0.1147925
v -7.784074 0.8501521 0.1147925
v -7.127886 1.269217 0.5306689
v -7.162241 1.415474 -0.3136694
v -1.218277 0.703372 -0.05193115
v -5.493164E-06 1.406746 -0.05193115
v -1.406744 0.8121867 -0.6048315
v -5.493164E-06 1.624371 -0.6048315
v 1.406747 0.8121867 -0.6048315
v -5.493164E-06 1.406746 -0.05193115
v -5.493164E-06 1.624371 -0.6048315
v 1.218278 0.703372 -0.05193115
v -6.103515E-07 -4.577637E-07 0.6048315
v 7.127882 1.269212 0.5306689
v 7.162238 1.415471 -0.3136694
v 7.784074 0.8501498 0.1147925
v 7.784074 -0.8501546 0.1147925
v 7.127882 -1.269218 0.5306689
v 7.162238 -1.415474 -0.3136694
v 1.218273 -0.7033697 -0.05193115
v -5.493164E-06 -1.406749 -0.05193115
v 1.406757 -0.8121843 -0.6048315
v -5.493164E-06 -1.624371 -0.6048315
v -1.406744 -0.8121843 -0.6048315
v -5.493164E-06 -1.624371 -0.6048315
v -5.493164E-06 1.624371 -0.6048315
v -1.406744 0.8121867 -0.6048315
v -7.162241 -1.415473 -0.3136694
v -7.162241 1.415474 -0.3136694
v -7.784074 -0.8501529 0.1147925
v -7.784074 0.8501521 0.1147925
v -5.493164E-06 -1.624371 -0.6048315
v 1.406747 0.8121867 -0.6048315
v -5.493164E-06 1.624371 -0.6048315
v 1.406757 -0.8121843 -0.6048315
v 7.162238 1.415471 -0.3136694
v 7.162238 -1.415474 -0.3136694
v 7.784074 0.8501498 0.1147925
v 7.784074 -0.8501546 0.1147925
vt 0.7582744 0.4741798
vt 0.7176224 0.4819216
vt 0.7176529 0.4971449
vt 0.7534577 0.4658048
vt 0.7175524 0.4469615
vt 0.9053993 0.4785264
vt 0.9109147 0.4950638
vt 0.9256545 0.470144
vt 0.9251455 0.4223257
vt 0.904716 0.4143756
vt 0.9089774 0.3978182
vt 0.7536402 0.4280136
vt 0.7174799 0.4106809
vt 0.7589123 0.4175614
vt 0.7174554 0.3983943
vt 0.7589123 0.4175614
vt 0.7174799 0.4106809
vt 0.7174554 0.3983943
vt 0.7536403 0.4280137
vt 0.7175524 0.4469615
vt 0.9058558 0.414845
vt 0.9104015 0.3983645
vt 0.9261453 0.4231482
vt 0.9258261 0.4709677
vt 0.9054276 0.4789997
vt 0.9106573 0.4956292
vt 0.7534577 0.4658048
vt 0.7176224 0.4819216
vt 0.758272 0.4741798
vt 0.7176529 0.4971449
vt 0.7582744 0.4741798
vt 0.7176529 0.4971449
vt 0.7174554 0.3983943
vt 0.7589123 0.4175614
vt 0.9109147 0.4950638
vt 0.9089774 0.3978182
vt 0.9256545 0.470144
vt 0.9251455 0.4223257
vt 0.7176529 0.4971449
vt 0.7589123 0.4175614
vt 0.7174554 0.3983943
vt 0.758272 0.4741798
vt 0.9104015 0.3983645
vt 0.9106573 0.4956292
vt 0.9261453 0.4231482
vt 0.9258261 0.4709677
vn -0.02831058 -0.3061421 -0.9515648
vn 0 -0.7646607 0.6444332
vn 0 -0.300546 -0.9537672
vn 0.04331516 -0.301526 0.9524736
vn 5.907976E-07 -1.312883E-07 1
vn 0.05834937 -0.3165157 0.946791
vn -0.06629209 -0.3327816 -0.9406709
vn -0.9969618 -0.06293419 -0.04589618
vn -0.9969618 0.06293489 -0.04589576
vn 0.05834968 0.3165161 0.9467909
vn -0.06629224 0.3327807 -0.9406713
vn 0.04331545 0.3015258 0.9524736
vn -3.975805E-07 0.7646611 0.6444327
vn -0.02831047 0.3061419 -0.9515648
vn 0 0.3005455 -0.9537675
vn 0.02831041 0.3061429 -0.9515646
vn -3.975805E-07 0.7646611 0.6444327
vn 0 0.3005455 -0.9537675
vn -0.04331538 0.3015254 0.9524736
vn 5.907976E-07 -1.312883E-07 1
vn -0.05834905 0.3165159 0.946791
vn 0.0662926 0.3327811 -0.940671
vn 0.9969618 0.06293509 -0.04589475
vn 0.9969618 -0.06293514 -0.04589396
vn -0.05834945 -0.3165166 0.9467907
vn 0.06629229 -0.332781 -0.9406711
vn -0.04331421 -0.3015235 0.9524744
vn 0 -0.7646607 0.6444332
vn 0.02830973 -0.3061442 -0.9515641
vn 0 -0.300546 -0.9537672
vn -0.02831058 -0.3061421 -0.9515648
vn 0 -0.300546 -0.9537672
vn 0 0.3005455 -0.9537675
vn -0.02831047 0.3061419 -0.9515648
vn -0.06629209 -0.3327816 -0.9406709
vn -0.06629224 0.3327807 -0.9406713
vn -0.9969618 -0.06293419 -0.04589618
vn -0.9969618 0.06293489 -0.04589576
vn 0 -0.300546 -0.9537672
vn 0.02831041 0.3061429 -0.9515646
vn 0 0.3005455 -0.9537675
vn 0.02830973 -0.3061442 -0.9515641
vn 0.0662926 0.3327811 -0.940671
vn 0.06629229 -0.332781 -0.9406711
vn 0.9969618 0.06293509 -0.04589475
vn 0.9969618 -0.06293514 -0.04589396
g PropellorLH_0
f 3/3/3 2/2/2 1/1/1
f 2/2/2 4/4/4 1/1/1
f 4/4/4 2/2/2 5/5/5
f 4/4/4 6/6/6 1/1/1
f 6/6/6 7/7/7 1/1/1
f 6/6/6 8/8/8 7/7/7
f 9/9/9 8/8/8 6/6/6
f 10/10/10 9/9/9 6/6/6
f 10/10/10 6/6/6 4/4/4
f 11/11/11 9/9/9 10/10/10
f 4/4/4 5/5/5 12/12/12
f 12/12/12 10/10/10 4/4/4
f 11/11/11 10/10/10 12/12/12
f 12/12/12 5/5/5 13/13/13
f 14/14/14 11/11/11 12/12/12
f 12/12/12 13/13/13 15/15/15
f 14/14/14 12/12/12 15/15/15
f 18/18/18 17/17/17 16/16/16
f 17/17/17 19/19/19 16/16/16
f 19/19/19 17/17/17 20/20/20
f 19/19/19 21/21/21 16/16/16
f 21/21/21 22/22/22 16/16/16
f 21/21/21 23/23/23 22/22/22
f 24/24/24 23/23/23 21/21/21
f 25/25/25 24/24/24 21/21/21
f 25/25/25 21/21/21 19/19/19
f 26/26/26 24/24/24 25/25/25
f 19/19/19 20/20/20 27/27/27
f 27/27/27 25/25/25 19/19/19
f 26/26/26 25/25/25 27/27/27
f 27/27/27 20/20/20 28/28/28
f 29/29/29 26/26/26 27/27/27
f 27/27/27 28/28/28 30/30/30
f 29/29/29 27/27/27 30/30/30
f 33/33/33 32/32/32 31/31/31
f 34/34/34 33/33/33 31/31/31
f 34/34/34 31/31/31 35/35/35
f 36/36/36 34/34/34 35/35/35
f 36/36/36 35/35/35 37/37/37
f 38/38/38 36/36/36 37/37/37
f 41/41/41 40/40/40 39/39/39
f 40/40/40 42/42/42 39/39/39
f 40/40/40 43/43/43 42/42/42
f 43/43/43 44/44/44 42/42/42
f 43/43/43 45/45/45 44/44/44
f 45/45/45 46/46/46 44/44/44
