g Propellor
v -0.0007487869 -1.767696 -0.4093072
v -0.0007487869 -2.038723 0.1958954
v 1.751209 -1.027223 0.1958954
v 1.516492 -0.8917049 -0.4093072
v -0.0007547378 -0.01572639 -1.128196
v 8.876343 -1.596409 -1.047015
v 8.919124 -1.778561 -0.1228107
v 9.693558 -1.074509 -0.5917999
v 9.693558 1.043056 -0.5917999
v 8.876336 1.564962 -1.047015
v 8.919124 1.74711 -0.1228107
v 1.751209 0.9957742 0.1958954
v 1.516492 0.8602562 -0.4093072
v -0.0007487869 1.736241 -0.4093072
v -0.0007487869 2.007271 0.1958954
v -0.0007487869 1.736241 -0.4093072
v -0.0007487869 2.007271 0.1958954
v -1.752722 0.9957742 0.1958954
v -1.518001 0.8602562 -0.4093072
v -0.0007547378 -0.01572639 -1.128196
v -8.877847 1.564955 -1.047015
v -8.92063 1.747107 -0.1228107
v -9.69507 1.043054 -0.5917999
v -9.69507 -1.074511 -0.5917999
v -8.877847 -1.596415 -1.047015
v -8.92063 -1.778562 -0.1228107
v -1.752734 -1.027223 0.1958954
v -1.517998 -0.8917049 -0.4093072
v -0.0007487869 -1.767696 -0.4093072
v -0.0007487869 -2.038723 0.1958954
v 1.751209 0.9957742 0.1958954
v 8.919124 1.74711 -0.1228107
v 1.751209 -1.027223 0.1958954
v 8.919124 -1.778561 -0.1228107
v -1.752734 -1.027223 0.1958954
v -8.92063 -1.778562 -0.1228107
v -1.752722 0.9957742 0.1958954
v -8.92063 1.747107 -0.1228107
v 8.919124 1.74711 -0.1228107
v 9.693558 1.043056 -0.5917999
v 8.919124 -1.778561 -0.1228107
v 9.693558 -1.074509 -0.5917999
v -8.92063 -1.778562 -0.1228107
v -9.69507 -1.074511 -0.5917999
v -8.92063 1.747107 -0.1228107
v -9.69507 1.043054 -0.5917999
vt 0.7610096 0.9008896
vt 0.7610096 0.8848852
vt 0.7183356 0.9029092
vt 0.7233021 0.9177579
vt 0.7610096 0.9376433
vt 0.5599039 0.9040641
vt 0.5541403 0.8866668
vt 0.538592 0.912834
vt 0.5390265 0.9631064
vt 0.5604874 0.9715073
vt 0.5559725 0.9889052
vt 0.717386 0.9744984
vt 0.7230307 0.9574873
vt 0.7610096 0.9757851
vt 0.7610096 0.9887021
vt 0.7610096 0.9757851
vt 0.7610096 0.9887021
vt 0.717386 0.9744984
vt 0.7230307 0.9574872
vt 0.7610096 0.9376433
vt 0.5592901 0.9710115
vt 0.5544765 0.9883279
vt 0.5379773 0.9622396
vt 0.5384133 0.9119677
vt 0.5598751 0.9035665
vt 0.5544121 0.8860729
vt 0.7183386 0.9029092
vt 0.7233021 0.9177579
vt 0.7610096 0.9008896
vt 0.7610096 0.8848852
vt 0.7330062 0.9052722
vt 0.7330062 0.9052722
vt 0.7330062 0.9052722
vt 0.7330062 0.9052722
vt 0.7330062 0.9052722
vt 0.7330062 0.9052722
vt 0.7330062 0.9052722
vt 0.7330062 0.9052722
vt 0.5599039 0.9040641
vt 0.538592 0.912834
vt 0.5604874 0.9715073
vt 0.5390265 0.9631064
vt 0.5604874 0.9715073
vt 0.5379773 0.9622396
vt 0.5599039 0.9040641
vt 0.5384133 0.9119677
vn 0.01262407 -0.6225467 -0.782481
vn 0.02814743 -0.912299 -0.4085562
vn 0.03598497 -0.3561285 0.9337438
vn 0.003247019 -0.2518543 -0.9677597
vn 0 0 -1
vn -0.05604617 -0.2735502 -0.9602234
vn 0.05699489 -0.2878608 0.9559748
vn 0.9906223 -0.1353444 -0.01868444
vn 0.9926629 0.09390639 0.07617028
vn -0.04432822 0.2855147 -0.9573487
vn 0.06765372 0.3043076 0.9501684
vn 0.0370928 0.4306807 0.9017418
vn 0.01982835 0.2916702 -0.9563134
vn -0.01262376 0.6225458 -0.7824815
vn -0.02814882 0.9122981 -0.4085584
vn -0.01262376 0.6225458 -0.7824815
vn -0.02814882 0.9122981 -0.4085584
vn -0.03598488 0.3561312 0.9337428
vn -0.003246734 0.2518544 -0.9677597
vn 0 0 -1
vn 0.05604604 0.2735502 -0.9602234
vn -0.05699527 0.2878606 0.9559748
vn -0.9906222 0.135345 -0.01868594
vn -0.9926627 -0.09390625 0.07617327
vn 0.04432806 -0.285514 -0.9573488
vn -0.06765367 -0.3043078 0.9501683
vn -0.03709168 -0.4306847 0.90174
vn -0.01982954 -0.2916687 -0.9563138
vn 0.01262407 -0.6225467 -0.782481
vn 0.02814743 -0.912299 -0.4085562
vn 0.0370928 0.4306807 0.9017418
vn 0.06765372 0.3043076 0.9501684
vn 0.03598497 -0.3561285 0.9337438
vn 0.05699489 -0.2878608 0.9559748
vn -0.03709168 -0.4306847 0.90174
vn -0.06765367 -0.3043078 0.9501683
vn -0.03598488 0.3561312 0.9337428
vn -0.05699527 0.2878606 0.9559748
vn 0.06765372 0.3043076 0.9501684
vn 0.9926629 0.09390639 0.07617028
vn 0.05699489 -0.2878608 0.9559748
vn 0.9906223 -0.1353444 -0.01868444
vn -0.06765367 -0.3043078 0.9501683
vn -0.9926627 -0.09390625 0.07617327
vn -0.05699527 0.2878606 0.9559748
vn -0.9906222 0.135345 -0.01868594
g Propellor_0
f 3/3/3 2/2/2 1/1/1
f 3/3/3 1/1/1 4/4/4
f 4/4/4 1/1/1 5/5/5
f 6/6/6 3/3/3 4/4/4
f 6/6/6 7/7/7 3/3/3
f 6/6/6 8/8/8 7/7/7
f 6/6/6 9/9/9 8/8/8
f 6/6/6 10/10/10 9/9/9
f 4/4/4 10/10/10 6/6/6
f 11/11/11 9/9/9 10/10/10
f 12/12/12 11/11/11 10/10/10
f 4/4/4 5/5/5 13/13/13
f 4/4/4 13/13/13 10/10/10
f 12/12/12 10/10/10 13/13/13
f 13/13/13 5/5/5 14/14/14
f 15/15/15 12/12/12 13/13/13
f 15/15/15 13/13/13 14/14/14
f 18/18/18 17/17/17 16/16/16
f 18/18/18 16/16/16 19/19/19
f 19/19/19 16/16/16 20/20/20
f 21/21/21 18/18/18 19/19/19
f 21/21/21 22/22/22 18/18/18
f 21/21/21 23/23/23 22/22/22
f 21/21/21 24/24/24 23/23/23
f 21/21/21 25/25/25 24/24/24
f 19/19/19 25/25/25 21/21/21
f 26/26/26 24/24/24 25/25/25
f 27/27/27 26/26/26 25/25/25
f 19/19/19 20/20/20 28/28/28
f 19/19/19 28/28/28 25/25/25
f 27/27/27 25/25/25 28/28/28
f 28/28/28 20/20/20 29/29/29
f 30/30/30 27/27/27 28/28/28
f 30/30/30 28/28/28 29/29/29
f 33/33/33 32/32/32 31/31/31
f 33/33/33 34/34/34 32/32/32
f 37/37/37 36/36/36 35/35/35
f 37/37/37 38/38/38 36/36/36
f 41/41/41 40/40/40 39/39/39
f 41/41/41 42/42/42 40/40/40
f 45/45/45 44/44/44 43/43/43
f 45/45/45 46/46/46 44/44/44
