g Prop3
v -1.939753 0.5161411 -1.038814
v -2.015184 -0.3251655 -1.038814
v -1.813704 -1.039355 -1.038815
v 5.598312 -0.4583661 -0.7130231
v 0.09474243 -0.5804872 -0.7130231
v 0.09474243 -0.5804872 -0.07252868
v 5.598312 -0.4583661 -0.07252868
v 6.234883 -0.07046326 -0.7130231
v -0.0255542 0.6239389 -0.07252868
v 6.234883 -0.07046326 -0.07252868
v 6.094168 1.338425 -0.7130231
v 5.393442 1.592762 -0.07252868
v -0.0255542 0.6239389 -0.7130231
v 6.094168 1.338425 -0.07252868
v 5.393442 1.592762 -0.7130231
v 0.09474243 -0.5804872 -0.7130231
v 5.598312 -0.4583661 -0.7130231
v 6.094168 1.338425 -0.7130231
v 6.234883 -0.07046326 -0.7130231
v -0.0255542 0.6239389 -0.7130231
v -5.393444 -1.55622 -0.7130231
v 0.09474243 -0.5804872 -0.7130231
v -5.598311 0.4949084 -0.7130231
v -6.09417 -1.30188 -0.7130231
v -6.234883 0.1070077 -0.7130231
v -0.0255542 0.6239389 -0.07252868
v -5.598311 0.4949084 -0.07252868
v -6.234883 0.1070077 -0.7130231
v 0.09474243 -0.5804872 -0.07252868
v -6.234883 0.1070077 -0.07252868
v -6.09417 -1.30188 -0.7130231
v -5.393444 -1.55622 -0.07252868
v 0.09474243 -0.5804872 -0.7130231
v -5.393444 -1.55622 -0.7130231
v -6.09417 -1.30188 -0.07252868
v 0.3587634 -1.949999 -0.5283124
v 1.488281 -1.29691 -0.5257648
v 0.9895837 -1.736985 -0.5644733
v 0.5574096 -0.9888229 0.6412665
v -0.5247315 -1.907981 -0.5288312
v 1.046777 -0.2840977 0.6496332
v 1.892699 -0.5107619 -0.5233868
v -0.2975866 -1.060268 0.6496332
v -1.31087 -1.502622 -0.5283124
v -0.01348877 -1.525879E-07 1.038815
v 0.9753357 0.5708963 0.6412665
v 1.933715 0.3723074 -0.5210028
v 1.720775 1.001515 -0.5593268
v 1.28207 1.499323 -0.5184674
v 0.2706091 1.060267 0.6496332
v 0.4967932 1.9044 -0.517951
v -0.5843872 0.9888226 0.6412665
v -0.3858166 1.946231 -0.5184674
v -1.002313 -0.5708963 0.6412665
v -1.750666 -1.002737 -0.5644733
v -1.962513 -0.3722729 -0.5257648
v -1.919679 0.5107617 -0.5233868
v -1.073756 0.2840976 0.6496332
v -1.513662 1.296029 -0.5210028
v -1.014648 1.73447 -0.5593268
v 1.988207 0.3251642 -1.038814
v 1.912772 -0.51614 -1.038814
v 1.892699 -0.5107619 -0.5233868
v 1.857521 1.080226 -1.038815
v 1.933715 0.3723074 -0.5210028
v 1.720775 1.001515 -0.5593268
v 1.268959 1.570936 -1.038814
v 1.28207 1.499323 -0.5184674
v 1.557447 -1.28245 -1.038814
v 1.912772 -0.51614 -1.038814
v 1.488281 -1.29691 -0.5257648
v 0.9895837 -1.736985 -0.5644733
v 1.066739 -1.871009 -1.038815
v 0.3587634 -1.949999 -0.5283124
v 0.5026513 1.926262 -1.038814
v 0.4967932 1.9044 -0.517951
v 0.3116748 -2.001696 -1.038814
v -0.5247315 -1.907981 -0.5288312
v -0.3386548 2.001696 -1.038814
v -0.3858166 1.946231 -0.5184674
v -0.5296301 -1.926262 -1.038814
v -1.31087 -1.502622 -0.5283124
v -1.093718 1.871009 -1.038815
v -1.014648 1.73447 -0.5593268
v -1.295939 -1.570938 -1.038814
v -1.750666 -1.002737 -0.5644733
v -1.584426 1.282448 -1.038814
v -1.513662 1.296029 -0.5210028
v -1.919679 0.5107617 -0.5233868
v -1.813704 -1.039355 -1.038815
v -1.962513 -0.3722729 -0.5257648
v -1.939753 0.5161411 -1.038814
v -2.015184 -0.3251655 -1.038814
vt 0.5225434 0.7412711
vt 0.5225435 0.7412711
vt 0.5225435 0.7412712
vt 0.5636494 0.6782951
vt 0.5525591 0.5153814
vt 0.5357392 0.5152375
vt 0.5496274 0.6731995
vt 0.545308 0.7013075
vt 0.4994799 0.5149176
vt 0.5395265 0.6890697
vt 0.4956143 0.7012916
vt 0.4912731 0.6733607
vt 0.4820257 0.5147577
vt 0.5014362 0.6891184
vt 0.4774134 0.6779181
vt 0.4466253 0.5144222
vt 0.4179509 0.6709612
vt 0.4658038 0.6963693
vt 0.4249212 0.6915716
vt 0.4796222 0.5157678
vt 0.4183671 0.6751738
vt 0.444222 0.5161033
vt 0.4779502 0.6809991
vt 0.4257267 0.6956488
vt 0.4666936 0.6996678
vt 0.4970766 0.5156079
vt 0.4917321 0.6761916
vt 0.4965664 0.7040457
vt 0.533336 0.5152881
vt 0.5021732 0.6917688
vt 0.5462538 0.703184
vt 0.5500802 0.6750017
vt 0.5501559 0.5151439
vt 0.5641901 0.6798543
vt 0.5402564 0.6910487
vt 0.4475174 0.8106033
vt 0.4167779 0.7962149
vt 0.4306905 0.8064997
vt 0.4417067 0.7829376
vt 0.4703198 0.8075302
vt 0.4291389 0.7678155
vt 0.4045311 0.7767492
vt 0.4613696 0.782877
vt 0.489783 0.7952591
vt 0.4527851 0.7592309
vt 0.4290783 0.7481528
vt 0.401485 0.7539557
vt 0.4055902 0.7371706
vt 0.4158417 0.7232839
vt 0.4442005 0.7355847
vt 0.4352832 0.7110222
vt 0.4638634 0.7355242
vt 0.4580631 0.7079557
vt 0.4764918 0.770309
vt 0.5000582 0.7813162
vt 0.5041324 0.7645014
vt 0.501039 0.7417126
vt 0.4764312 0.7506464
vt 0.488753 0.7222736
vt 0.4748357 0.7120315
vt 0.5225435 0.7412713
vt 0.5225434 0.7412711
vt 0.5225434 0.7412711
vt 0.5225435 0.7412713
vt 0.5225434 0.7412711
vt 0.5225435 0.7412711
vt 0.5225435 0.741271
vt 0.5225435 0.741271
vt 0.5225435 0.7412713
vt 0.5225434 0.7412711
vt 0.5225435 0.7412711
vt 0.5225435 0.7412711
vt 0.5225435 0.7412713
vt 0.5225435 0.7412713
vt 0.5225435 0.7412713
vt 0.5225435 0.7412713
vt 0.5225435 0.741271
vt 0.5225435 0.7412713
vt 0.5225435 0.7412712
vt 0.5225435 0.7412712
vt 0.5225435 0.7412713
vt 0.5225435 0.7412712
vt 0.5225435 0.7412711
vt 0.5225435 0.7412711
vt 0.5225435 0.7412712
vt 0.5225434 0.7412711
vt 0.5225435 0.7412711
vt 0.5225434 0.7412711
vt 0.5225434 0.7412711
vt 0.5225435 0.7412712
vt 0.5225435 0.7412711
vt 0.5225434 0.7412711
vt 0.5225435 0.7412711
vn -0.7017033 0.1883315 -0.6871273
vn -0.9164605 -0.1069031 -0.3855796
vn -0.4950661 -0.2856632 -0.8205523
vn 0.1951336 -0.6667052 -0.7193241
vn 0.06983331 -0.7025982 -0.7081519
vn 0.06983331 -0.7025982 0.7081519
vn 0.1951336 -0.6667052 0.7193241
vn 0.7707417 -0.3837723 -0.508602
vn -0.07051063 0.7025305 0.7081519
vn 0.7707417 -0.3837723 0.508602
vn 0.6796119 0.528631 -0.5086029
vn 0.05941305 0.6921294 0.7193241
vn -0.07051063 0.7025305 -0.7081519
vn 0.6796119 0.528631 0.5086029
vn 0.05941305 0.6921294 -0.7193241
vn 0.06983331 -0.7025982 -0.7081519
vn 0.1951336 -0.6667052 -0.7193241
vn 0.6796119 0.528631 -0.5086029
vn 0.7707417 -0.3837723 -0.508602
vn -0.07051063 0.7025305 -0.7081519
vn -0.05975167 -0.6921467 -0.7192792
vn 0.06983331 -0.7025982 -0.7081519
vn -0.195467 0.6666561 -0.719279
vn -0.6796131 -0.5286297 -0.5086028
vn -0.7707408 0.3837739 -0.5086022
vn -0.07051063 0.7025305 0.7081519
vn -0.195467 0.6666561 0.719279
vn -0.7707408 0.3837739 -0.5086022
vn 0.06983331 -0.7025982 0.7081519
vn -0.7707408 0.3837739 0.5086022
vn -0.6796131 -0.5286297 -0.5086028
vn -0.05975167 -0.6921467 0.7192792
vn 0.06983331 -0.7025982 -0.7081519
vn -0.05975167 -0.6921467 -0.7192792
vn -0.6796131 -0.5286297 0.5086028
vn 0.1572963 -0.9102696 0.3829713
vn 0.7092116 -0.5913814 0.3837798
vn 0.4712679 -0.8164517 0.3336363
vn 0.3387353 -0.587469 0.7349413
vn -0.2410806 -0.8997248 0.3638342
vn 0.5205226 -0.1397284 0.8423373
vn 0.8989999 -0.2409134 0.3657321
vn -0.1396186 -0.5210639 0.8420208
vn -0.6071649 -0.7061681 0.3642491
vn 0 0 1
vn 0.5869427 0.3384302 0.735502
vn 0.9094102 0.1574053 0.3849632
vn 0.8157911 0.4708883 0.3357812
vn 0.5910513 0.7084154 0.3857538
vn 0.1393621 0.5201063 0.8426551
vn 0.2406974 0.8982938 0.3676045
vn -0.339092 0.5865606 0.735502
vn -0.157658 0.9090309 0.3857547
vn -0.5870881 -0.3393956 0.7349409
vn -0.8317353 -0.480259 0.2785101
vn -0.9147537 -0.1729519 0.365121
vn -0.8990129 0.2408624 0.3657334
vn -0.5206499 0.139253 0.8423374
vn -0.708869 0.5910224 0.384964
vn -0.4710526 0.8156959 0.3357825
vn 0.9323183 0.08343357 -0.3518829
vn 0.7018585 -0.187751 -0.6871275
vn 0.8989999 -0.2409134 0.3657321
vn 0.506596 0.292605 -0.8110135
vn 0.9094102 0.1574053 0.3849632
vn 0.8157911 0.4708883 0.3357812
vn 0.3344349 0.4759763 -0.8133879
vn 0.5910513 0.7084154 0.3857538
vn 0.4755285 -0.3337528 -0.8139298
vn 0.7018585 -0.187751 -0.6871275
vn 0.7092116 -0.5913814 0.3837798
vn 0.4712679 -0.8164517 0.3336363
vn 0.292228 -0.5059409 -0.8115581
vn 0.1572963 -0.9102696 0.3829713
vn 0.1466515 0.5473115 -0.8239803
vn 0.2406974 0.8982938 0.3676045
vn 0.05145931 -0.5783703 -0.8141497
vn -0.2410806 -0.8997248 0.3638342
vn -0.05164059 0.5794252 -0.8133878
vn -0.157658 0.9090309 0.3857547
vn -0.1463026 -0.5460104 -0.824905
vn -0.6071649 -0.7061681 0.3642491
vn -0.2924221 0.506701 -0.8110138
vn -0.4710526 0.8156959 0.3357825
vn -0.3405678 -0.4572763 -0.8215302
vn -0.8317353 -0.480259 0.2785101
vn -0.4756111 0.3344374 -0.8136005
vn -0.708869 0.5910224 0.384964
vn -0.8990129 0.2408624 0.3657334
vn -0.4950661 -0.2856632 -0.8205523
vn -0.9147537 -0.1729519 0.365121
vn -0.7017033 0.1883315 -0.6871273
vn -0.9164605 -0.1069031 -0.3855796
g Prop3_0
f 3/3/3 2/2/2 1/1/1
f 6/6/6 5/5/5 4/4/4
f 7/7/7 6/6/6 4/4/4
f 4/4/4 8/8/8 7/7/7
f 9/9/9 6/6/6 7/7/7
f 8/8/8 10/10/10 7/7/7
f 10/10/10 8/8/8 11/11/11
f 12/12/12 9/9/9 7/7/7
f 7/7/7 10/10/10 12/12/12
f 9/9/9 12/12/12 13/13/13
f 14/14/14 10/10/10 11/11/11
f 10/10/10 14/14/14 12/12/12
f 14/14/14 11/11/11 15/15/15
f 12/12/12 14/14/14 15/15/15
f 12/12/12 15/15/15 13/13/13
f 16/16/16 13/13/13 15/15/15
f 17/17/17 16/16/16 15/15/15
f 15/15/15 18/18/18 17/17/17
f 18/18/18 19/19/19 17/17/17
f 22/22/22 21/21/21 20/20/20
f 21/21/21 23/23/23 20/20/20
f 21/21/21 24/24/24 23/23/23
f 24/24/24 25/25/25 23/23/23
f 26/26/26 20/20/20 23/23/23
f 27/27/27 26/26/26 23/23/23
f 23/23/23 28/28/28 27/27/27
f 26/26/26 27/27/27 29/29/29
f 28/28/28 30/30/30 27/27/27
f 30/30/30 28/28/28 31/31/31
f 27/27/27 32/32/32 29/29/29
f 27/27/27 30/30/30 32/32/32
f 29/29/29 32/32/32 33/33/33
f 32/32/32 34/34/34 33/33/33
f 35/35/35 30/30/30 31/31/31
f 35/35/35 31/31/31 34/34/34
f 32/32/32 35/35/35 34/34/34
f 30/30/30 35/35/35 32/32/32
f 38/38/38 37/37/37 36/36/36
f 37/37/37 39/39/39 36/36/36
f 36/36/36 39/39/39 40/40/40
f 41/41/41 39/39/39 37/37/37
f 42/42/42 41/41/41 37/37/37
f 39/39/39 43/43/43 40/40/40
f 40/40/40 43/43/43 44/44/44
f 41/41/41 45/45/45 39/39/39
f 45/45/45 43/43/43 39/39/39
f 46/46/46 41/41/41 42/42/42
f 47/47/47 46/46/46 42/42/42
f 46/46/46 47/47/47 48/48/48
f 49/49/49 46/46/46 48/48/48
f 46/46/46 50/50/50 41/41/41
f 50/50/50 46/46/46 49/49/49
f 50/50/50 45/45/45 41/41/41
f 51/51/51 50/50/50 49/49/49
f 52/52/52 50/50/50 51/51/51
f 50/50/50 52/52/52 45/45/45
f 53/53/53 52/52/52 51/51/51
f 43/43/43 54/54/54 44/44/44
f 44/44/44 54/54/54 55/55/55
f 54/54/54 56/56/56 55/55/55
f 56/56/56 54/54/54 57/57/57
f 45/45/45 58/58/58 43/43/43
f 58/58/58 54/54/54 43/43/43
f 54/54/54 58/58/58 57/57/57
f 52/52/52 58/58/58 45/45/45
f 57/57/57 58/58/58 59/59/59
f 58/58/58 52/52/52 59/59/59
f 59/59/59 52/52/52 53/53/53
f 60/60/60 59/59/59 53/53/53
f 63/63/63 62/62/62 61/61/61
f 64/64/64 61/61/61 62/62/62
f 65/65/65 63/63/63 61/61/61
f 65/65/65 61/61/61 64/64/64
f 66/66/66 65/65/65 64/64/64
f 66/66/66 64/64/64 67/67/67
f 68/68/68 66/66/66 67/67/67
f 69/69/69 67/67/67 64/64/64
f 70/70/70 69/69/69 64/64/64
f 63/63/63 71/71/71 70/70/70
f 71/71/71 69/69/69 70/70/70
f 71/71/71 72/72/72 69/69/69
f 72/72/72 73/73/73 69/69/69
f 69/69/69 73/73/73 67/67/67
f 72/72/72 74/74/74 73/73/73
f 68/68/68 67/67/67 75/75/75
f 73/73/73 75/75/75 67/67/67
f 76/76/76 68/68/68 75/75/75
f 74/74/74 77/77/77 73/73/73
f 73/73/73 77/77/77 75/75/75
f 74/74/74 78/78/78 77/77/77
f 76/76/76 75/75/75 79/79/79
f 77/77/77 79/79/79 75/75/75
f 80/80/80 76/76/76 79/79/79
f 78/78/78 81/81/81 77/77/77
f 77/77/77 81/81/81 79/79/79
f 78/78/78 82/82/82 81/81/81
f 80/80/80 79/79/79 83/83/83
f 81/81/81 83/83/83 79/79/79
f 84/84/84 80/80/80 83/83/83
f 82/82/82 85/85/85 81/81/81
f 81/81/81 85/85/85 83/83/83
f 82/82/82 86/86/86 85/85/85
f 84/84/84 83/83/83 87/87/87
f 85/85/85 87/87/87 83/83/83
f 88/88/88 84/84/84 87/87/87
f 89/89/89 88/88/88 87/87/87
f 86/86/86 90/90/90 85/85/85
f 85/85/85 90/90/90 87/87/87
f 86/86/86 91/91/91 90/90/90
f 90/90/90 92/92/92 87/87/87
f 92/92/92 89/89/89 87/87/87
f 91/91/91 93/93/93 90/90/90
f 89/89/89 92/92/92 93/93/93
f 91/91/91 89/89/89 93/93/93
