g Propellor
v 1.643008 0.948593 0.6208715
v 8.365136 1.653202 0.3219849
v 1.643008 -0.9485904 0.6208715
v 8.365136 -1.653201 0.3219849
v -1.643018 -0.9485904 0.6208715
v -8.36513 -1.653202 0.3219849
v -1.643008 0.948593 0.6208715
v -8.36513 1.653199 0.3219849
v 8.365136 1.653202 0.3219849
v 9.091406 0.9929346 -0.1178369
v 8.365136 -1.653201 0.3219849
v 9.091406 -0.9929356 -0.1178369
v -8.36513 -1.653202 0.3219849
v -9.091406 -0.9929376 -0.1178369
v -8.36513 1.653199 0.3219849
v -9.091406 0.992932 -0.1178369
v 1.643008 -0.9485904 0.6208715
v 8.365136 -1.653201 0.3219849
v 8.325015 -1.482377 -0.5447388
v 9.091406 -0.9929356 -0.1178369
v 9.091406 0.9929346 -0.1178369
v 8.325009 1.482381 -0.5447388
v 8.365136 1.653202 0.3219849
v 1.643008 0.948593 0.6208715
v 1.422887 -0.8215002 0.0533081
v 1.422887 0.821503 0.0533081
v 7.010028E-06 1.897183 0.6208715
v 7.010028E-06 -1.643012 0.0533081
v 7.010028E-06 -1.897183 0.6208715
v 7.010028E-06 1.643009 0.0533081
v -1.643008 0.948593 0.6208715
v 1.429245E-06 -5.698204E-07 -1.11
v -1.422882 -0.8215004 0.0533081
v -1.643018 -0.9485904 0.6208715
v -1.422884 0.821503 0.0533081
v -8.325007 -1.482383 -0.5447388
v -8.36513 -1.653202 0.3219849
v -9.091406 -0.9929376 -0.1178369
v -8.325007 1.482376 -0.5447388
v -8.36513 1.653199 0.3219849
v -9.091406 0.992932 -0.1178369
vt 0.7330062 0.9052722
vt 0.7330062 0.9052722
vt 0.7330062 0.9052722
vt 0.7330062 0.9052722
vt 0.7330062 0.9052722
vt 0.7330062 0.9052722
vt 0.7330062 0.9052722
vt 0.7330062 0.9052722
vt 0.5599039 0.9040641
vt 0.538592 0.912834
vt 0.5604874 0.9715073
vt 0.5390265 0.9631064
vt 0.5604874 0.9715073
vt 0.5379773 0.9622396
vt 0.5599039 0.9040641
vt 0.5384133 0.9119677
vt 0.7183356 0.9029092
vt 0.5541403 0.8866668
vt 0.5599039 0.9040641
vt 0.538592 0.912834
vt 0.5390265 0.9631064
vt 0.5604874 0.9715073
vt 0.5559725 0.9889052
vt 0.717386 0.9744984
vt 0.7233021 0.9177579
vt 0.7230307 0.9574873
vt 0.7610096 0.9887021
vt 0.7610096 0.9008896
vt 0.7610096 0.8848852
vt 0.7610096 0.9757851
vt 0.717386 0.9744984
vt 0.7610096 0.9376433
vt 0.7233021 0.9177579
vt 0.7183386 0.9029092
vt 0.7230307 0.9574872
vt 0.5598751 0.9035665
vt 0.5544121 0.8860729
vt 0.5384133 0.9119677
vt 0.5592901 0.9710115
vt 0.5544765 0.9883279
vt 0.5379773 0.9622396
vn 0.1042763 0.9897105 0.09797687
vn 0.3387184 0.5430048 0.7683851
vn 0.2126339 -0.946789 0.2416143
vn 0.472497 -0.5288185 0.7050514
vn -0.1042738 -0.9897111 0.09797451
vn -0.3387158 -0.5430051 0.7683861
vn -0.2126314 0.9467898 0.241613
vn -0.4724948 0.5288191 0.7050525
vn 0.3387184 0.5430048 0.7683851
vn 0.9550408 0.2855375 -0.07978478
vn 0.472497 -0.5288185 0.7050514
vn 0.8937271 -0.4345928 -0.1112709
vn -0.3387158 -0.5430051 0.7683861
vn -0.9550401 -0.2855398 -0.0797837
vn -0.4724948 0.5288191 0.7050525
vn -0.8937255 0.4345954 -0.1112722
vn 0.2126339 -0.946789 0.2416143
vn 0.472497 -0.5288185 0.7050514
vn 0.2839148 -0.6129557 -0.737345
vn 0.8937271 -0.4345928 -0.1112709
vn 0.9550408 0.2855375 -0.07978478
vn 0.1566559 0.6176467 -0.7706954
vn 0.3387184 0.5430048 0.7683851
vn 0.1042763 0.9897105 0.09797687
vn 0.2345569 -0.4827272 -0.8437758
vn 0.3401862 0.6336281 -0.6948301
vn 0.1729951 0.8988988 -0.4025588
vn 0.1054828 -0.7961644 -0.595815
vn -0.1729914 -0.898899 -0.4025601
vn -0.1054801 0.796164 -0.5958161
vn -0.2126314 0.9467898 0.241613
vn 0 0 -1
vn -0.3401851 -0.6336284 -0.6948304
vn -0.1042738 -0.9897111 0.09797451
vn -0.2345553 0.482728 -0.8437757
vn -0.1566548 -0.617648 -0.7706947
vn -0.3387158 -0.5430051 0.7683861
vn -0.9550401 -0.2855398 -0.0797837
vn -0.2839131 0.612956 -0.7373455
vn -0.4724948 0.5288191 0.7050525
vn -0.8937255 0.4345954 -0.1112722
g Propellor_0
f 3/3/3 2/2/2 1/1/1
f 3/3/3 4/4/4 2/2/2
f 7/7/7 6/6/6 5/5/5
f 7/7/7 8/8/8 6/6/6
f 11/11/11 10/10/10 9/9/9
f 11/11/11 12/12/12 10/10/10
f 15/15/15 14/14/14 13/13/13
f 15/15/15 16/16/16 14/14/14
f 19/19/19 18/18/18 17/17/17
f 19/19/19 20/20/20 18/18/18
f 19/19/19 21/21/21 20/20/20
f 19/19/19 22/22/22 21/21/21
f 23/23/23 21/21/21 22/22/22
f 24/24/24 23/23/23 22/22/22
f 19/19/19 17/17/17 25/25/25
f 25/25/25 22/22/22 19/19/19
f 24/24/24 22/22/22 26/26/26
f 25/25/25 26/26/26 22/22/22
f 27/27/27 24/24/24 26/26/26
f 17/17/17 28/28/28 25/25/25
f 17/17/17 29/29/29 28/28/28
f 27/27/27 26/26/26 30/30/30
f 31/31/31 27/27/27 30/30/30
f 25/25/25 32/32/32 26/26/26
f 25/25/25 28/28/28 32/32/32
f 26/26/26 32/32/32 30/30/30
f 29/29/29 33/33/33 28/28/28
f 33/33/33 32/32/32 28/28/28
f 29/29/29 34/34/34 33/33/33
f 35/35/35 30/30/30 32/32/32
f 31/31/31 30/30/30 35/35/35
f 35/35/35 32/32/32 33/33/33
f 34/34/34 36/36/36 33/33/33
f 35/35/35 33/33/33 36/36/36
f 34/34/34 37/37/37 36/36/36
f 37/37/37 38/38/38 36/36/36
f 39/39/39 31/31/31 35/35/35
f 35/35/35 36/36/36 39/39/39
f 39/39/39 36/36/36 38/38/38
f 39/39/39 40/40/40 31/31/31
f 39/39/39 38/38/38 41/41/41
f 39/39/39 41/41/41 40/40/40
