g Propeller_R
v 5.493164E-06 -1.624371 -0.6048315
v -1.406757 -0.8121843 -0.6048315
v 5.493164E-06 -1.406749 -0.05193115
v -1.218273 -0.7033697 -0.05193115
v 6.103515E-07 -4.577637E-07 0.6048315
v -7.127882 -1.269218 0.5306689
v -7.162238 -1.415474 -0.3136694
v -7.784074 -0.8501546 0.1147925
v -7.784074 0.8501498 0.1147925
v -7.127882 1.269212 0.5306689
v -7.162238 1.415471 -0.3136694
v -1.406747 0.8121867 -0.6048315
v -1.218278 0.703372 -0.05193115
v 5.493164E-06 1.406746 -0.05193115
v 5.493164E-06 1.624371 -0.6048315
v 5.493164E-06 1.624371 -0.6048315
v 1.406744 0.8121867 -0.6048315
v 5.493164E-06 1.406746 -0.05193115
v 1.218277 0.703372 -0.05193115
v 6.103515E-07 -4.577637E-07 0.6048315
v 7.127886 1.269217 0.5306689
v 7.162241 1.415474 -0.3136694
v 7.784074 0.8501521 0.1147925
v 7.784074 -0.8501529 0.1147925
v 7.12789 -1.269213 0.5306689
v 7.162241 -1.415473 -0.3136694
v 1.406744 -0.8121843 -0.6048315
v 1.218277 -0.7033696 -0.05193115
v 5.493164E-06 -1.406749 -0.05193115
v 5.493164E-06 -1.624371 -0.6048315
v 5.493164E-06 1.624371 -0.6048315
v -1.406747 0.8121867 -0.6048315
v 5.493164E-06 -1.624371 -0.6048315
v -1.406757 -0.8121843 -0.6048315
v -7.162238 1.415471 -0.3136694
v -7.162238 -1.415474 -0.3136694
v -7.784074 0.8501498 0.1147925
v -7.784074 -0.8501546 0.1147925
v 5.493164E-06 1.624371 -0.6048315
v 5.493164E-06 -1.624371 -0.6048315
v 1.406744 -0.8121843 -0.6048315
v 1.406744 0.8121867 -0.6048315
v 7.162241 -1.415473 -0.3136694
v 7.162241 1.415474 -0.3136694
v 7.784074 0.8501521 0.1147925
v 7.784074 -0.8501529 0.1147925
vt 0.7002559 0.8848852
vt 0.6575046 0.908943
vt 0.7002559 0.9008896
vt 0.6625484 0.9177579
vt 0.7002559 0.9376433
vt 0.5028102 0.9035665
vt 0.4973472 0.8860729
vt 0.4813484 0.9119677
vt 0.4809124 0.9622396
vt 0.5022251 0.9710115
vt 0.4974116 0.9883279
vt 0.6567126 0.9684646
vt 0.662277 0.9574872
vt 0.7002559 0.9757851
vt 0.7002559 0.9887021
vt 0.7002559 0.9887021
vt 0.6567126 0.9684646
vt 0.7002559 0.9757851
vt 0.662277 0.9574873
vt 0.7002559 0.9376433
vt 0.5034224 0.9715073
vt 0.4989075 0.9889052
vt 0.4819616 0.9631064
vt 0.4815271 0.912834
vt 0.5028389 0.9040641
vt 0.4970754 0.8866668
vt 0.6575021 0.908943
vt 0.6625484 0.9177579
vt 0.7002559 0.9008896
vt 0.7002559 0.8848852
vt 0.7002559 0.9887021
vt 0.6567126 0.9684646
vt 0.7002559 0.8848852
vt 0.6575046 0.908943
vt 0.4974116 0.9883279
vt 0.4973472 0.8860729
vt 0.4809124 0.9622396
vt 0.4813484 0.9119677
vt 0.7002559 0.9887021
vt 0.7002559 0.8848852
vt 0.6575021 0.908943
vt 0.6567126 0.9684646
vt 0.4970754 0.8866668
vt 0.4989075 0.9889052
vt 0.4819616 0.9631064
vt 0.4815271 0.912834
vn -0.007816167 -0.2615494 -0.9651585
vn -0.03369594 -0.3177685 -0.9475694
vn -0.01304824 -0.6677057 0.744311
vn -0.003056725 -0.2903174 0.9569256
vn 0 0 1
vn 0.06310976 -0.3027748 0.9509703
vn -0.06374372 -0.3248324 -0.943621
vn -0.9885195 -0.1497034 0.0204482
vn -0.9925229 0.1047223 -0.06270187
vn 0.04982103 0.3157735 0.9475257
vn -0.07569259 0.3427368 -0.9363772
vn -0.02889766 0.3185087 -0.9474794
vn -0.02130934 0.3343632 0.9422033
vn 0.01304908 0.6677043 0.7443122
vn 0.007816166 0.261548 -0.9651589
vn 0.007816166 0.261548 -0.9651589
vn 0.03369687 0.3177661 -0.9475701
vn 0.01304908 0.6677043 0.7443122
vn 0.003055331 0.2903191 0.9569251
vn 0 0 1
vn -0.06310975 0.3027749 0.9509703
vn 0.0741891 0.3194554 -0.9446926
vn 0.9550537 0.1144701 -0.2734394
vn 0.9628321 -0.1244338 0.2397305
vn -0.04982118 -0.3157736 0.9475256
vn 0.06448954 -0.3488845 -0.9349442
vn 0.0288979 -0.3185079 -0.9474795
vn 0.02130979 -0.3343628 0.9422035
vn -0.01304824 -0.6677057 0.744311
vn -0.007816167 -0.2615494 -0.9651585
vn 0.007816166 0.261548 -0.9651589
vn -0.02889766 0.3185087 -0.9474794
vn -0.007816167 -0.2615494 -0.9651585
vn -0.03369594 -0.3177685 -0.9475694
vn -0.07569259 0.3427368 -0.9363772
vn -0.06374372 -0.3248324 -0.943621
vn -0.9925229 0.1047223 -0.06270187
vn -0.9885195 -0.1497034 0.0204482
vn 0.007816166 0.261548 -0.9651589
vn -0.007816167 -0.2615494 -0.9651585
vn 0.0288979 -0.3185079 -0.9474795
vn 0.03369687 0.3177661 -0.9475701
vn 0.06448954 -0.3488845 -0.9349442
vn 0.0741891 0.3194554 -0.9446926
vn 0.9550537 0.1144701 -0.2734394
vn 0.9628321 -0.1244338 0.2397305
g Propeller_R_0
f 3/3/3 2/2/2 1/1/1
f 3/3/3 4/4/4 2/2/2
f 5/5/5 4/4/4 3/3/3
f 6/6/6 2/2/2 4/4/4
f 6/6/6 7/7/7 2/2/2
f 8/8/8 7/7/7 6/6/6
f 9/9/9 8/8/8 6/6/6
f 9/9/9 6/6/6 10/10/10
f 10/10/10 6/6/6 4/4/4
f 9/9/9 10/10/10 11/11/11
f 10/10/10 12/12/12 11/11/11
f 5/5/5 13/13/13 4/4/4
f 10/10/10 4/4/4 13/13/13
f 10/10/10 13/13/13 12/12/12
f 14/14/14 13/13/13 5/5/5
f 13/13/13 15/15/15 12/12/12
f 13/13/13 14/14/14 15/15/15
f 18/18/18 17/17/17 16/16/16
f 18/18/18 19/19/19 17/17/17
f 20/20/20 19/19/19 18/18/18
f 21/21/21 17/17/17 19/19/19
f 21/21/21 22/22/22 17/17/17
f 23/23/23 22/22/22 21/21/21
f 24/24/24 23/23/23 21/21/21
f 24/24/24 21/21/21 25/25/25
f 25/25/25 21/21/21 19/19/19
f 24/24/24 25/25/25 26/26/26
f 25/25/25 27/27/27 26/26/26
f 20/20/20 28/28/28 19/19/19
f 25/25/25 19/19/19 28/28/28
f 25/25/25 28/28/28 27/27/27
f 29/29/29 28/28/28 20/20/20
f 28/28/28 30/30/30 27/27/27
f 28/28/28 29/29/29 30/30/30
f 33/33/33 32/32/32 31/31/31
f 33/33/33 34/34/34 32/32/32
f 34/34/34 35/35/35 32/32/32
f 34/34/34 36/36/36 35/35/35
f 36/36/36 37/37/37 35/35/35
f 36/36/36 38/38/38 37/37/37
f 41/41/41 40/40/40 39/39/39
f 41/41/41 39/39/39 42/42/42
f 43/43/43 41/41/41 42/42/42
f 43/43/43 42/42/42 44/44/44
f 43/43/43 44/44/44 45/45/45
f 43/43/43 45/45/45 46/46/46
