g Propeller
v -13.94395 1.438307 -3.334144
v -13.94397 -1.438316 -3.334144
v -12.76851 -2.147299 -4.079105
v -12.83004 -2.394738 -2.56661
v -2.214176 -1.086606 -1.834799
v -12.7685 2.147288 -4.079105
v -12.83004 2.394734 -2.56661
v -2.214179 1.08661 -1.834799
v -2.002791 -0.9201207 -0.7168054
v -2.002771 0.9201227 -0.7167907
v -2.002771 0.9201227 4.079105
v 8.601279E-06 1.840242 4.079105
v -2.00279 -0.9201207 4.079093
v 8.601279E-06 1.840242 -0.7167907
v 2.002771 0.9201227 4.079105
v 1.359893E-05 -1.840243 -0.7168054
v 1.359893E-05 -1.840243 4.079093
v 2.002771 0.9201227 -0.7167907
v 2.214199 1.08661 -1.834799
v 2.002775 -0.9201207 4.079093
v 2.002775 -0.9201207 -0.7168054
v 1.309385E-05 2.173224 -1.834799
v 6.713867E-06 -8.768488E-07 -2.986527
v 1.947383E-05 -2.173229 -1.834799
v 2.214205 -1.086606 -1.834799
v 12.83008 -2.394737 -2.56661
v 12.76854 -2.14729 -4.079105
v 12.83006 2.394738 -2.56661
v 12.76851 2.147296 -4.079105
v 13.94397 -1.438312 -3.334144
v 13.94396 1.438311 -3.334144
vt 0.7725482 0.9622396
vt 0.7729841 0.9119677
vt 0.794446 0.9035665
vt 0.788983 0.8860729
vt 0.9541842 0.9177579
vt 0.7938609 0.9710115
vt 0.7890474 0.9883279
vt 0.9539127 0.9574872
vt 0.9491404 0.908943
vt 0.9483484 0.9684646
vt 0.9483484 0.9684646
vt 0.9918916 0.9887021
vt 0.9491404 0.908943
vt 0.9918916 0.9887021
vt 0.9483484 0.9684646
vt 0.9918916 0.8848852
vt 0.9918916 0.8848852
vt 0.9483484 0.9684646
vt 0.9539129 0.9574873
vt 0.9491379 0.908943
vt 0.9491379 0.908943
vt 0.9918916 0.9757851
vt 0.9918916 0.9376433
vt 0.9918916 0.9008896
vt 0.9541842 0.9177579
vt 0.7887112 0.8866668
vt 0.7944747 0.9040641
vt 0.7905433 0.9889052
vt 0.7950583 0.9715073
vt 0.7731628 0.912834
vt 0.7735974 0.9631064
vn -0.9589664 0.2753022 -0.06776568
vn -0.8992266 -0.4272987 -0.0938477
vn -0.3537468 -0.4798059 -0.8029007
vn -0.4056952 -0.6841896 0.6060495
vn -0.1599395 -0.77762 -0.6080515
vn -0.1566279 0.4903483 -0.8573366
vn -0.3100846 0.6911641 0.6527938
vn -0.2186394 0.8558212 -0.4687929
vn -0.6448765 -0.5884575 0.4877009
vn -0.5057864 0.8122451 0.2905823
vn -0.936054 0.3518564 0
vn -0.1513747 0.9884765 0
vn -0.7104992 -0.703698 0
vn 0.06604439 0.9867779 0.1480117
vn 0.7105001 0.7036971 0
vn -0.06604026 -0.986778 0.1480127
vn 0.1513799 -0.9884757 0
vn 0.6448763 0.588457 0.4877016
vn 0.1599399 0.7776198 -0.6080515
vn 0.9360579 -0.3518462 0
vn 0.5057879 -0.8122434 0.2905841
vn 0 0.910058 -0.4144808
vn 0 0 -1
vn 0 -0.9100591 -0.4144785
vn 0.218641 -0.8558215 -0.4687915
vn 0.3793607 -0.5801626 0.7207612
vn 0.1566322 -0.4903468 -0.8573368
vn 0.3170022 0.8175919 0.4806798
vn 0.3537527 0.4798054 -0.8028984
vn 0.8633801 -0.3112466 -0.3971151
vn 0.9094085 0.3231748 0.2617904
g Propeller_0
f 3/3/3 2/2/2 1/1/1
f 1/1/1 2/2/2 4/4/4
f 4/4/4 2/2/2 3/3/3
f 4/4/4 3/3/3 5/5/5
f 3/3/3 1/1/1 6/6/6
f 5/5/5 3/3/3 6/6/6
f 1/1/1 4/4/4 7/7/7
f 6/6/6 1/1/1 7/7/7
f 5/5/5 6/6/6 8/8/8
f 8/8/8 6/6/6 7/7/7
f 7/7/7 4/4/4 9/9/9
f 4/4/4 5/5/5 9/9/9
f 8/8/8 7/7/7 10/10/10
f 7/7/7 9/9/9 10/10/10
f 9/9/9 11/11/11 10/10/10
f 10/10/10 11/11/11 12/12/12
f 9/9/9 13/13/13 11/11/11
f 10/10/10 12/12/12 14/14/14
f 14/14/14 8/8/8 10/10/10
f 14/14/14 12/12/12 15/15/15
f 16/16/16 13/13/13 9/9/9
f 5/5/5 16/16/16 9/9/9
f 16/16/16 17/17/17 13/13/13
f 14/14/14 15/15/15 18/18/18
f 19/19/19 14/14/14 18/18/18
f 18/18/18 15/15/15 20/20/20
f 21/21/21 20/20/20 17/17/17
f 21/21/21 17/17/17 16/16/16
f 18/18/18 20/20/20 21/21/21
f 14/14/14 22/22/22 8/8/8
f 19/19/19 22/22/22 14/14/14
f 8/8/8 22/22/22 23/23/23
f 8/8/8 23/23/23 5/5/5
f 19/19/19 23/23/23 22/22/22
f 5/5/5 24/24/24 16/16/16
f 5/5/5 23/23/23 24/24/24
f 16/16/16 24/24/24 25/25/25
f 25/25/25 24/24/24 23/23/23
f 16/16/16 25/25/25 21/21/21
f 25/25/25 23/23/23 19/19/19
f 18/18/18 21/21/21 26/26/26
f 25/25/25 26/26/26 21/21/21
f 19/19/19 27/27/27 25/25/25
f 25/25/25 27/27/27 26/26/26
f 28/28/28 19/19/19 18/18/18
f 18/18/18 26/26/26 28/28/28
f 19/19/19 29/29/29 27/27/27
f 28/28/28 29/29/29 19/19/19
f 27/27/27 30/30/30 26/26/26
f 29/29/29 30/30/30 27/27/27
f 28/28/28 31/31/31 29/29/29
f 31/31/31 28/28/28 26/26/26
f 29/29/29 31/31/31 30/30/30
f 31/31/31 26/26/26 30/30/30
