g Propeller_R
v 7.501927 1.33582 0.5585144
v 8.192548 0.8947642 0.1208142
v 8.192548 -0.8947651 0.1208142
v 7.538084 -1.489751 -0.3301282
v 7.50193 -1.335816 0.5585144
v 7.538084 1.489752 -0.3301282
v 1.480565 -0.8548042 -0.636571
v 1.480565 0.8548066 -0.636571
v 1.28221 0.7402818 -0.05465698
v 1.28221 -0.7402793 -0.05465698
v 3.051758E-06 -1.70961 -0.636571
v 3.051758E-06 1.480566 -0.05465698
v -1.831055E-06 -5.149841E-07 0.636571
v 3.051758E-06 1.70961 -0.636571
v 3.051758E-06 -1.480569 -0.05465698
v -1.282211 0.7402818 -0.05465698
v -1.480578 -0.8548042 -0.636571
v -1.282202 -0.7402794 -0.05465698
v -1.480568 0.8548066 -0.636571
v -7.501918 1.335815 0.5585144
v -7.501918 -1.335821 0.5585144
v -7.53808 -1.489752 -0.3301282
v -7.53808 1.489749 -0.3301282
v -8.192548 0.8947618 0.1208142
v -8.192548 -0.894767 0.1208142
vt 0.5296052 0.9715073
vt 0.5081443 0.9631064
vt 0.5077098 0.912834
vt 0.5232581 0.8866668
vt 0.5290217 0.9040641
vt 0.5250903 0.9889052
vt 0.6836849 0.908943
vt 0.6828954 0.9684646
vt 0.6884598 0.9574873
vt 0.6887312 0.9177579
vt 0.7264386 0.8848852
vt 0.7264386 0.9757851
vt 0.7264386 0.9376433
vt 0.7264386 0.9887021
vt 0.7264386 0.9008896
vt 0.6884598 0.9574872
vt 0.6836874 0.908943
vt 0.6887312 0.9177579
vt 0.6828954 0.9684646
vt 0.5284079 0.9710115
vt 0.528993 0.9035665
vt 0.5235299 0.8860729
vt 0.5235943 0.9883279
vt 0.5070952 0.9622396
vt 0.5075311 0.9119677
vn 0.3073979 0.6233307 0.7190031
vn 0.9133668 0.3147641 -0.2582337
vn 0.8664384 -0.3028668 0.3969334
vn 0.4984767 -0.5244184 -0.6902944
vn 0.1649741 -0.6288311 0.7598388
vn 0.3545924 0.5394475 -0.7637149
vn 0.09666415 -0.7597896 -0.6429431
vn 0.1845845 0.8559214 -0.4830395
vn 0.1812051 0.4558341 0.8714241
vn 0.2964632 -0.6195687 0.726804
vn 0.1467496 -0.7625207 -0.6301005
vn 0.1102301 0.7642033 0.6354861
vn 0 0 1
vn -0.1467462 0.7625223 -0.6300995
vn -0.1102282 -0.7642017 0.6354883
vn -0.2964614 0.6195691 0.7268045
vn -0.1845839 -0.8559222 -0.4830383
vn -0.1812057 -0.4558326 0.8714247
vn -0.09666344 0.7597897 -0.642943
vn -0.1649718 0.628831 0.7598394
vn -0.307394 -0.6233314 0.719004
vn -0.3545901 -0.5394487 -0.7637153
vn -0.498475 0.5244194 -0.6902949
vn -0.8664351 0.3028688 0.3969391
vn -0.9133657 -0.3147671 -0.2582339
g Propeller_R_0
f 3/3/3 2/2/2 1/1/1
f 4/4/4 2/2/2 3/3/3
f 3/3/3 1/1/1 5/5/5
f 3/3/3 5/5/5 4/4/4
f 4/4/4 6/6/6 2/2/2
f 2/2/2 6/6/6 1/1/1
f 7/7/7 6/6/6 4/4/4
f 5/5/5 7/7/7 4/4/4
f 1/1/1 6/6/6 8/8/8
f 7/7/7 8/8/8 6/6/6
f 5/5/5 1/1/1 9/9/9
f 1/1/1 8/8/8 9/9/9
f 5/5/5 10/10/10 7/7/7
f 5/5/5 9/9/9 10/10/10
f 11/11/11 8/8/8 7/7/7
f 10/10/10 11/11/11 7/7/7
f 12/12/12 9/9/9 8/8/8
f 13/13/13 10/10/10 9/9/9
f 13/13/13 9/9/9 12/12/12
f 12/12/12 8/8/8 14/14/14
f 11/11/11 14/14/14 8/8/8
f 10/10/10 15/15/15 11/11/11
f 15/15/15 10/10/10 13/13/13
f 12/12/12 16/16/16 13/13/13
f 16/16/16 12/12/12 14/14/14
f 15/15/15 17/17/17 11/11/11
f 17/17/17 14/14/14 11/11/11
f 13/13/13 18/18/18 15/15/15
f 13/13/13 16/16/16 18/18/18
f 15/15/15 18/18/18 17/17/17
f 16/16/16 14/14/14 19/19/19
f 17/17/17 19/19/19 14/14/14
f 20/20/20 18/18/18 16/16/16
f 20/20/20 16/16/16 19/19/19
f 21/21/21 17/17/17 18/18/18
f 20/20/20 21/21/21 18/18/18
f 22/22/22 19/19/19 17/17/17
f 21/21/21 22/22/22 17/17/17
f 20/20/20 19/19/19 23/23/23
f 22/22/22 23/23/23 19/19/19
f 24/24/24 21/21/21 20/20/20
f 24/24/24 20/20/20 23/23/23
f 25/25/25 22/22/22 21/21/21
f 25/25/25 23/23/23 22/22/22
f 24/24/24 25/25/25 21/21/21
f 25/25/25 24/24/24 23/23/23
