g pSphere1
v 0 -0.4707705 -0.2717994
v 0 -0.5435989 0
v 0.1921912 -0.4707705 -0.1921912
v 0.332885 -0.2717995 -0.332885
v 0 -0.2717995 -0.4707705
v 0.3843825 0 -0.3843825
v -0.1921912 -0.4707705 -0.1921912
v 0 -0.5435989 0
v 0 0 -0.5435989
v 0.332885 0.2717995 -0.332885
v -0.332885 -0.2717995 -0.332885
v 0 0.2717995 -0.4707705
v 0.1921912 0.4707705 -0.1921912
v -0.2717994 -0.4707705 0
v 0 -0.5435989 0
v -0.3843825 0 -0.3843825
v 0 0.4707705 -0.2717994
v 0 0.5435989 0
v -0.4707705 -0.2717995 0
v -0.332885 0.2717995 -0.332885
v -0.1921912 -0.4707705 0.1921912
v 0 -0.5435989 0
v -0.5435989 0 0
v -0.1921912 0.4707705 -0.1921912
v 0 0.5435989 0
v -0.332885 -0.2717995 0.332885
v -0.4707705 0.2717995 0
v 0 -0.4707705 0.2717995
v 0 -0.5435989 0
v -0.3843825 0 0.3843825
v -0.2717994 0.4707705 0
v 0 0.5435989 0
v 0 -0.2717995 0.4707705
v -0.332885 0.2717995 0.332885
v 0.1921913 -0.4707705 0.1921913
v 0 -0.5435989 0
v 0 0 0.5435989
v -0.1921912 0.4707705 0.1921912
v 0 0.5435989 0
v 0.332885 -0.2717995 0.332885
v 0 0.2717995 0.4707705
v 0.2717995 -0.4707705 0
v 0 -0.5435989 0
v 0.3843825 0 0.3843825
v 0 0.4707705 0.2717995
v 0 0.5435989 0
v 0.4707705 -0.2717995 0
v 0.332885 0.2717995 0.332885
v 0.1921912 -0.4707705 -0.1921912
v 0 -0.5435989 0
v 0.332885 -0.2717995 -0.332885
v 0.5435989 0 0
v 0.3843825 0 -0.3843825
v 0.4707705 0.2717995 0
v 0.332885 0.2717995 -0.332885
v 0.1921913 0.4707705 0.1921913
v 0 0.5435989 0
v 0.2717995 0.4707705 0
v 0 0.5435989 0
v 0.1921912 0.4707705 -0.1921912
v 0 0.5435989 0
vt 0.125 0.1666667
vt 0.0625 0
vt 0 0.1666667
vt 0 0.3333333
vt 0.125 0.3333333
vt 0 0.5
vt 0.25 0.1666667
vt 0.1875 0
vt 0.125 0.5
vt 0 0.6666667
vt 0.25 0.3333333
vt 0.125 0.6666667
vt 0 0.8333334
vt 0.375 0.1666667
vt 0.3125 0
vt 0.25 0.5
vt 0.125 0.8333334
vt 0.0625 1
vt 0.375 0.3333333
vt 0.25 0.6666667
vt 0.5 0.1666667
vt 0.4375 0
vt 0.375 0.5
vt 0.25 0.8333334
vt 0.1875 1
vt 0.5 0.3333333
vt 0.375 0.6666667
vt 0.625 0.1666667
vt 0.5625 0
vt 0.5 0.5
vt 0.375 0.8333334
vt 0.3125 1
vt 0.625 0.3333333
vt 0.5 0.6666667
vt 0.75 0.1666667
vt 0.6875 0
vt 0.625 0.5
vt 0.5 0.8333334
vt 0.4375 1
vt 0.75 0.3333333
vt 0.625 0.6666667
vt 0.875 0.1666667
vt 0.8125 0
vt 0.75 0.5
vt 0.625 0.8333334
vt 0.5625 1
vt 0.875 0.3333333
vt 0.75 0.6666667
vt 1 0.1666667
vt 0.9375 0
vt 1 0.3333333
vt 0.875 0.5
vt 1 0.5
vt 0.875 0.6666667
vt 1 0.6666667
vt 0.75 0.8333334
vt 0.6875 1
vt 0.875 0.8333334
vt 0.8125 1
vt 1 0.8333334
vt 0.9375 1
vn 0 -0.7728024 -0.6346467
vn 0 -1 0
vn 0.448763 -0.7728024 -0.448763
vn 0.6367102 -0.4349715 -0.6367102
vn 0 -0.4349715 -0.9004443
vn 0.7071066 0 -0.7071068
vn -0.448763 -0.7728024 -0.448763
vn 0 -1 0
vn 0 0 -1
vn 0.6367102 0.4349715 -0.6367102
vn -0.6367102 -0.4349715 -0.6367102
vn 0 0.4349715 -0.9004443
vn 0.448763 0.7728024 -0.448763
vn -0.6346467 -0.7728025 0
vn 0 -1 0
vn -0.7071068 0 -0.7071068
vn 0 0.7728024 -0.6346467
vn 0 1 0
vn -0.9004441 -0.4349716 0
vn -0.6367102 0.4349716 -0.6367102
vn -0.448763 -0.7728024 0.448763
vn 0 -1 0
vn -1 0 0
vn -0.448763 0.7728024 -0.448763
vn 0 1 0
vn -0.6367102 -0.4349716 0.6367102
vn -0.9004441 0.4349716 0
vn 0 -0.7728024 0.6346467
vn 0 -1 0
vn -0.7071068 0 0.7071068
vn -0.6346467 0.7728025 0
vn 0 1 0
vn 0 -0.4349715 0.9004443
vn -0.6367102 0.4349715 0.6367102
vn 0.448763 -0.7728024 0.448763
vn 0 -1 0
vn 0 0 1
vn -0.448763 0.7728024 0.448763
vn 0 1 0
vn 0.6367102 -0.4349715 0.6367102
vn 0 0.4349716 0.9004441
vn 0.6346467 -0.7728024 0
vn 0 -1 0
vn 0.7071066 0 0.7071068
vn 0 0.7728024 0.6346467
vn 0 1 0
vn 0.9004441 -0.4349716 0
vn 0.6367102 0.4349716 0.6367102
vn 0.448763 -0.7728024 -0.448763
vn 0 -1 0
vn 0.6367102 -0.4349715 -0.6367102
vn 1 0 0
vn 0.7071066 0 -0.7071068
vn 0.9004441 0.4349716 0
vn 0.6367102 0.4349715 -0.6367102
vn 0.448763 0.7728024 0.448763
vn 0 1 0
vn 0.6346467 0.7728024 0
vn 0 1 0
vn 0.448763 0.7728024 -0.448763
vn 0 1 0
g pSphere1_0
f 3/3/3 2/2/2 1/1/1
f 1/1/1 4/4/4 3/3/3
f 1/1/1 5/5/5 4/4/4
f 5/5/5 6/6/6 4/4/4
f 7/7/7 5/5/5 1/1/1
f 1/1/1 8/8/8 7/7/7
f 5/5/5 9/9/9 6/6/6
f 9/9/9 10/10/10 6/6/6
f 7/7/7 11/11/11 5/5/5
f 11/11/11 9/9/9 5/5/5
f 9/9/9 12/12/12 10/10/10
f 12/12/12 13/13/13 10/10/10
f 14/14/14 11/11/11 7/7/7
f 7/7/7 15/15/15 14/14/14
f 11/11/11 16/16/16 9/9/9
f 16/16/16 12/12/12 9/9/9
f 12/12/12 17/17/17 13/13/13
f 17/17/17 18/18/18 13/13/13
f 14/14/14 19/19/19 11/11/11
f 19/19/19 16/16/16 11/11/11
f 16/16/16 20/20/20 12/12/12
f 20/20/20 17/17/17 12/12/12
f 21/21/21 19/19/19 14/14/14
f 14/14/14 22/22/22 21/21/21
f 19/19/19 23/23/23 16/16/16
f 23/23/23 20/20/20 16/16/16
f 20/20/20 24/24/24 17/17/17
f 24/24/24 25/25/25 17/17/17
f 21/21/21 26/26/26 19/19/19
f 26/26/26 23/23/23 19/19/19
f 23/23/23 27/27/27 20/20/20
f 27/27/27 24/24/24 20/20/20
f 28/28/28 26/26/26 21/21/21
f 21/21/21 29/29/29 28/28/28
f 26/26/26 30/30/30 23/23/23
f 30/30/30 27/27/27 23/23/23
f 27/27/27 31/31/31 24/24/24
f 31/31/31 32/32/32 24/24/24
f 28/28/28 33/33/33 26/26/26
f 33/33/33 30/30/30 26/26/26
f 30/30/30 34/34/34 27/27/27
f 34/34/34 31/31/31 27/27/27
f 35/35/35 33/33/33 28/28/28
f 28/28/28 36/36/36 35/35/35
f 33/33/33 37/37/37 30/30/30
f 37/37/37 34/34/34 30/30/30
f 34/34/34 38/38/38 31/31/31
f 38/38/38 39/39/39 31/31/31
f 35/35/35 40/40/40 33/33/33
f 40/40/40 37/37/37 33/33/33
f 37/37/37 41/41/41 34/34/34
f 41/41/41 38/38/38 34/34/34
f 42/42/42 40/40/40 35/35/35
f 35/35/35 43/43/43 42/42/42
f 40/40/40 44/44/44 37/37/37
f 44/44/44 41/41/41 37/37/37
f 41/41/41 45/45/45 38/38/38
f 45/45/45 46/46/46 38/38/38
f 42/42/42 47/47/47 40/40/40
f 47/47/47 44/44/44 40/40/40
f 44/44/44 48/48/48 41/41/41
f 48/48/48 45/45/45 41/41/41
f 49/49/49 47/47/47 42/42/42
f 42/42/42 50/50/50 49/49/49
f 49/49/49 51/51/51 47/47/47
f 47/47/47 52/52/52 44/44/44
f 51/51/51 52/52/52 47/47/47
f 52/52/52 48/48/48 44/44/44
f 51/51/51 53/53/53 52/52/52
f 53/53/53 54/54/54 52/52/52
f 52/52/52 54/54/54 48/48/48
f 53/53/53 55/55/55 54/54/54
f 48/48/48 56/56/56 45/45/45
f 54/54/54 56/56/56 48/48/48
f 56/56/56 57/57/57 45/45/45
f 55/55/55 58/58/58 54/54/54
f 54/54/54 58/58/58 56/56/56
f 58/58/58 59/59/59 56/56/56
f 55/55/55 60/60/60 58/58/58
f 60/60/60 61/61/61 58/58/58
