g pSphere1
v 5.451595 -2.025673 -9.442433
v 2.832465 0 -10.22077
v -2.832461 0 -10.22077
v -5.45159 -2.025673 -9.442434
v -3.895524 -7.791051 -6.747249
v -4.868583 -7.791051 -5.061863
v -7.435212 0 -7.563371
v -6.753063 -5.375825 -3.530626
v -10.26768 0 -2.657401
v -7.13265 -7.791051 -1.140384
v -10.90318 -2.025673 -1.602173E-06
v -4.191329 -8.791471 -2.051608
v 0 -11.01821 0
v 3.895527 -7.791051 -6.747247
v -7.791051 -7.791051 -1.144409E-06
v 4.930789 -7.791051 -4.95412
v 7.435216 0 -7.563368
v 6.602143 -5.375825 -3.792027
v 10.26768 0 -2.6574
v 4.040409 -8.791471 -2.31301
v 6.771671 -7.791051 -1.765618
v 10.90318 -2.025673 7.629394E-08
v 7.791051 -7.791051 0
v -3.895526 -7.791051 6.747248
v 5.451591 -2.025673 9.442434
v 7.435214 0 7.563369
v 10.26768 0 2.6574
v 3.895525 -7.791051 6.747249
v 0.3636903 -8.791471 4.655601
v 2.100291 -7.791051 6.747248
v 0.3636902 -5.375825 7.613637
v 2.832462 0 10.22077
v -2.832464 0 10.22077
v -1.372909 -7.791051 6.747248
v -5.451593 -2.025673 9.442434
v -7.435215 0 7.563369
v -10.26768 0 2.657399
v 2.832465 0 -10.22077
v 5.451595 -2.025673 -9.442433
v 7.652415 0 -13.25437
v 7.435216 0 -7.563368
v -7.435212 0 -7.563371
v -5.45159 -2.025673 -9.442434
v -7.652409 0 -13.25437
v -2.832461 0 -10.22077
v -10.26768 0 2.657399
v -10.90318 -2.025673 -1.602173E-06
v -15.30483 0 -2.059936E-06
v -10.26768 0 -2.657401
v -2.832464 0 10.22077
v -5.451593 -2.025673 9.442434
v -7.652414 0 13.25437
v -7.435215 0 7.563369
v 7.435214 0 7.563369
v 5.451591 -2.025673 9.442434
v 7.652413 0 13.25437
v 2.832462 0 10.22077
v 10.26768 0 -2.6574
v 10.90318 -2.025673 7.629394E-08
v 15.30482 0 1.373291E-06
v 10.26768 0 2.6574
v 0.3636902 -5.375825 7.613637
v 2.100291 -7.791051 6.747248
v 0.3636903 -10.53065 9.979575
v -1.372909 -7.791051 6.747248
v 2.100291 -7.791051 6.747248
v 0.3636903 -8.791471 4.655601
v 0.3636903 -10.53065 9.979575
v -1.372909 -7.791051 6.747248
v -6.753063 -5.375825 -3.530626
v -7.13265 -7.791051 -1.140384
v -8.882919 -10.18699 -4.7603
v -4.868583 -7.791051 -5.061863
v -7.13265 -7.791051 -1.140384
v -4.191329 -8.791471 -2.051608
v -8.882919 -10.18699 -4.7603
v -4.868583 -7.791051 -5.061863
v 6.602143 -5.375825 -3.792027
v 4.930789 -7.791051 -4.95412
v 8.651108 -10.53065 -4.974994
v 6.771671 -7.791051 -1.765618
v 4.930789 -7.791051 -4.95412
v 4.040409 -8.791471 -2.31301
v 8.651108 -10.53065 -4.974994
v 6.771671 -7.791051 -1.765618
v 5.451595 2.025673 -9.442433
v -2.832461 0 -10.22077
v 2.832465 0 -10.22077
v -5.45159 2.025673 -9.442434
v 3.895527 7.79105 -6.747247
v 4.930789 7.79105 -4.95412
v 7.435216 0 -7.563368
v 6.602143 5.375825 -3.792027
v 10.26768 0 -2.6574
v 6.771671 7.79105 -1.765618
v 10.90318 2.025673 7.629394E-08
v 4.040409 8.791471 -2.31301
v 0 11.01821 0
v -3.895524 7.79105 -6.747249
v 7.791051 7.79105 0
v -4.868583 7.79105 -5.061863
v -7.435212 0 -7.563371
v -6.753063 5.375825 -3.530626
v -10.26768 0 -2.657401
v -4.191329 8.791471 -2.051608
v -7.13265 7.79105 -1.140384
v -10.90318 2.025673 -1.602173E-06
v -7.791051 7.79105 -1.144409E-06
v 3.895525 7.79105 6.747249
v -3.895526 7.79105 6.747248
v -5.451593 2.025673 9.442434
v -7.435215 0 7.563369
v -10.26768 0 2.657399
v 0.3636903 8.791471 4.655601
v -1.372909 7.79105 6.747248
v -2.832464 0 10.22077
v 0.3636902 5.375825 7.613637
v 2.832462 0 10.22077
v 5.451591 2.025673 9.442434
v 2.100291 7.79105 6.747248
v 7.435214 0 7.563369
v 10.26768 0 2.6574
v 2.832465 0 -10.22077
v 7.652415 0 -13.25437
v 5.451595 2.025673 -9.442433
v 7.435216 0 -7.563368
v -7.435212 0 -7.563371
v -7.652409 0 -13.25437
v -5.45159 2.025673 -9.442434
v -2.832461 0 -10.22077
v -10.26768 0 2.657399
v -15.30483 0 -2.059936E-06
v -10.90318 2.025673 -1.602173E-06
v -10.26768 0 -2.657401
v -2.832464 0 10.22077
v -7.652414 0 13.25437
v -5.451593 2.025673 9.442434
v -7.435215 0 7.563369
v 7.435214 0 7.563369
v 7.652413 0 13.25437
v 5.451591 2.025673 9.442434
v 2.832462 0 10.22077
v 10.26768 0 -2.6574
v 15.30482 0 1.373291E-06
v 10.90318 2.025673 7.629394E-08
v 10.26768 0 2.6574
v 0.3636902 5.375825 7.613637
v 0.3636903 10.53064 9.979575
v 2.100291 7.79105 6.747248
v -1.372909 7.79105 6.747248
v 2.100291 7.79105 6.747248
v 0.3636903 10.53064 9.979575
v 0.3636903 8.791471 4.655601
v -1.372909 7.79105 6.747248
v -6.753063 5.375825 -3.530626
v -8.882919 10.18699 -4.7603
v -7.13265 7.79105 -1.140384
v -4.868583 7.79105 -5.061863
v -7.13265 7.79105 -1.140384
v -8.882919 10.18699 -4.7603
v -4.191329 8.791471 -2.051608
v -4.868583 7.79105 -5.061863
v 6.602143 5.375825 -3.792027
v 8.651108 10.53065 -4.974994
v 4.930789 7.79105 -4.95412
v 6.771671 7.79105 -1.765618
v 4.930789 7.79105 -4.95412
v 8.651108 10.53065 -4.974994
v 4.040409 8.791471 -2.31301
v 6.771671 7.79105 -1.765618
vt 0.7349265 0.8528914
vt 0.6220599 0.8855622
vt 0.3779404 0.8855622
vt 0.2650738 0.8528916
vt 0.3321295 0.739761
vt 0.2901974 0.6690168
vt 0.1795932 0.7740178
vt 0.2089892 0.6047429
vt 0.05753335 0.5680893
vt 0.1926316 0.5044125
vt 0.03014731 0.4565448
vt 0.3193825 0.5426611
vt 0.5000001 0.4565447
vt 0.6678705 0.7397609
vt 0.164259 0.4565448
vt 0.7124833 0.6644943
vt 0.820407 0.7740176
vt 0.7845072 0.6157153
vt 0.9424667 0.5680891
vt 0.674114 0.5536334
vt 0.7918129 0.5306567
vt 0.9698527 0.4565447
vt 0.8357412 0.4565447
vt 0.3321295 0.1733285
vt 0.7349263 0.06019789
vt 0.8204069 0.1390719
vt 0.9424665 0.3450001
vt 0.6678705 0.1733285
vt 0.5156726 0.2611256
vt 0.5905082 0.1733285
vt 0.5156726 0.1369618
vt 0.6220598 0.02752718
vt 0.3779402 0.02752727
vt 0.440837 0.1733285
vt 0.2650737 0.06019789
vt 0.1795931 0.1390719
vt 0.05753335 0.3450002
vt 0.9817207 0.87874
vt 0.8954399 0.9723226
vt 0.8956692 0.7301769
vt 0.8053955 0.875054
vt 0.9817207 0.87874
vt 0.8954399 0.9723226
vt 0.895669 0.7301769
vt 0.8053955 0.875054
vt 0.9817207 0.87874
vt 0.8954399 0.9723225
vt 0.8956689 0.730177
vt 0.8053955 0.875054
vt 0.9817208 0.87874
vt 0.8954399 0.9723227
vt 0.8956689 0.730177
vt 0.8053955 0.8750539
vt 0.9817208 0.87874
vt 0.8954399 0.9723227
vt 0.8956689 0.730177
vt 0.8053955 0.8750539
vt 0.9817207 0.87874
vt 0.8954399 0.9723227
vt 0.8956689 0.730177
vt 0.8053955 0.8750539
vt 0.8954399 0.9723226
vt 0.9817207 0.87874
vt 0.895669 0.730177
vt 0.8053955 0.8750539
vt 0.9817207 0.87874
vt 0.8954399 0.9723226
vt 0.895669 0.730177
vt 0.8053955 0.8750539
vt 0.8954399 0.9723226
vt 0.9817207 0.87874
vt 0.895669 0.730177
vt 0.8053955 0.8750539
vt 0.9817207 0.87874
vt 0.8954399 0.9723226
vt 0.895669 0.730177
vt 0.8053955 0.8750539
vt 0.8954399 0.9723226
vt 0.9817207 0.87874
vt 0.895669 0.730177
vt 0.8053955 0.8750539
vt 0.9817207 0.87874
vt 0.8954399 0.9723226
vt 0.895669 0.730177
vt 0.8053955 0.8750539
vt 0.7349265 0.8528914
vt 0.3779404 0.8855622
vt 0.6220599 0.8855622
vt 0.2650738 0.8528916
vt 0.6678705 0.7397607
vt 0.7124833 0.6644943
vt 0.820407 0.7740176
vt 0.7845072 0.6157153
vt 0.9424667 0.5680891
vt 0.7918129 0.5306567
vt 0.9698527 0.4565447
vt 0.674114 0.5536334
vt 0.5000001 0.4565447
vt 0.3321295 0.7397609
vt 0.8357412 0.4565447
vt 0.2901974 0.6690167
vt 0.1795932 0.7740178
vt 0.2089892 0.6047429
vt 0.05753335 0.5680893
vt 0.3193825 0.542661
vt 0.1926316 0.5044123
vt 0.03014731 0.4565448
vt 0.164259 0.4565447
vt 0.6678705 0.1733285
vt 0.3321295 0.1733285
vt 0.2650737 0.06019789
vt 0.1795931 0.1390719
vt 0.05753335 0.3450002
vt 0.5156726 0.2611256
vt 0.440837 0.1733285
vt 0.3779402 0.02752727
vt 0.5156726 0.1369618
vt 0.6220598 0.02752718
vt 0.7349263 0.06019789
vt 0.5905082 0.1733285
vt 0.8204069 0.1390719
vt 0.9424665 0.3450001
vt 0.9817207 0.87874
vt 0.8956692 0.7301769
vt 0.8954399 0.9723226
vt 0.8053955 0.875054
vt 0.9817207 0.87874
vt 0.895669 0.7301769
vt 0.8954399 0.9723226
vt 0.8053955 0.875054
vt 0.9817207 0.87874
vt 0.8956689 0.730177
vt 0.8954399 0.9723225
vt 0.8053955 0.875054
vt 0.9817208 0.87874
vt 0.8956689 0.730177
vt 0.8954399 0.9723227
vt 0.8053955 0.8750539
vt 0.9817208 0.87874
vt 0.8956689 0.730177
vt 0.8954399 0.9723227
vt 0.8053955 0.8750539
vt 0.9817207 0.87874
vt 0.8956689 0.730177
vt 0.8954399 0.9723227
vt 0.8053955 0.8750539
vt 0.8954399 0.9723226
vt 0.895669 0.730177
vt 0.9817207 0.87874
vt 0.8053955 0.8750539
vt 0.9817207 0.87874
vt 0.895669 0.730177
vt 0.8954399 0.9723226
vt 0.8053955 0.8750539
vt 0.8954399 0.9723226
vt 0.895669 0.730177
vt 0.9817207 0.87874
vt 0.8053955 0.8750539
vt 0.9817207 0.87874
vt 0.895669 0.730177
vt 0.8954399 0.9723226
vt 0.8053955 0.8750539
vt 0.8954399 0.9723226
vt 0.895669 0.7301769
vt 0.9817207 0.87874
vt 0.8053955 0.8750539
vt 0.9817207 0.87874
vt 0.895669 0.7301769
vt 0.8954399 0.9723226
vt 0.8053955 0.8750539
vn 0.2384767 -0.4496391 -0.8607866
vn 1.32658E-07 0 -1
vn 1.32658E-07 0 -1
vn -0.2455359 -0.4504712 -0.8583635
vn -0.2288264 -0.5703899 -0.788856
vn -0.7099365 -0.5975124 -0.3727855
vn -0.8823903 0 -0.4705182
vn -0.7890393 -0.4109689 -0.4566416
vn -0.8480138 0 -0.5299741
vn -0.6843812 -0.5821931 -0.438946
vn -0.8608969 -0.4486121 0.2400077
vn -0.3736716 -0.902123 -0.2157396
vn 0.0009657842 -0.9999975 0.002019192
vn 0.2218519 -0.5682494 -0.7923853
vn -0.7955658 -0.5639617 0.2214092
vn 0.713806 -0.5926808 -0.3731092
vn 0.8824707 0 -0.4703674
vn 0.7900333 -0.4095623 -0.4561865
vn 0.8485519 0 -0.5291121
vn 0.3736717 -0.902123 -0.2157395
vn 0.6803596 -0.591911 -0.4321482
vn 0.8644323 -0.4495423 0.2250967
vn 0.7970518 -0.5679156 0.2053785
vn -0.5634847 -0.5717313 0.596329
vn 0.6361938 -0.4485063 0.6277735
vn 0.8660254 0 0.5000001
vn 0.8660254 0 0.5000001
vn 0.58701 -0.5645543 0.5802566
vn -1.043845E-07 -0.902123 0.431479
vn -0.03713781 -0.5836273 0.8111719
vn -0.0009742294 -0.4092398 0.9124264
vn -0.03445745 0 0.9994061
vn 0.03307073 0 0.999453
vn 0.03087309 -0.6001868 0.7992638
vn -0.6160762 -0.4505585 0.6461015
vn -0.8660255 0 0.4999998
vn -0.8660255 0 0.4999999
vn -0.5326642 1.003335E-07 -0.8463266
vn 0.2090311 -0.9084185 -0.3620523
vn 0.4999999 1.137924E-07 -0.8660255
vn 0.9992725 0 0.03813758
vn -0.9992725 1.337778E-07 0.03813724
vn -0.209031 -0.9084185 -0.3620524
vn -0.4999995 2.275848E-07 -0.8660257
vn 0.532665 0 -0.8463262
vn -0.4666083 0 0.8844641
vn -0.4180621 -0.9084184 0
vn -1 0 0
vn -0.4666081 0 -0.8844642
vn 0.5326647 0 0.8463264
vn -0.209031 -0.9084185 0.3620523
vn -0.5000001 0 0.8660253
vn -0.9992725 0 -0.03813757
vn 0.9992725 0 -0.03813774
vn 0.2090311 -0.9084185 0.3620521
vn 0.5000003 1.137924E-07 0.8660253
vn -0.5326641 1.003334E-07 0.8463266
vn 0.4666084 0 -0.884464
vn 0.418062 -0.9084185 1.22043E-07
vn 1 1.137924E-07 5.405138E-07
vn 0.4666079 0 0.8844642
vn 1.269094E-07 0.4171373 0.9088435
vn 0.925261 -0.2521788 0.283369
vn 3.5465E-07 -0.5991383 0.8006456
vn -0.9252611 -0.2521785 0.2833686
vn 0.925261 -0.2521788 0.283369
vn 0 -0.9505668 -0.3105204
vn 3.5465E-07 -0.5991383 0.8006456
vn -0.9252611 -0.2521785 0.2833686
vn -0.7709216 0.4551564 -0.4455476
vn -0.7340194 -0.3463698 0.5841605
vn -0.7090898 -0.5727652 -0.4112562
vn 0.1376036 -0.347304 -0.9276019
vn -0.7340194 -0.3463698 0.5841605
vn 0.2162354 -0.968386 0.1243814
vn -0.7090898 -0.5727652 -0.4112562
vn 0.1376036 -0.347304 -0.9276019
vn 0.7870009 0.4171371 -0.4545615
vn -0.2001814 -0.2646553 -0.9433371
vn 0.6910772 -0.6021855 -0.3997309
vn 0.7166671 -0.2643756 0.6453633
vn -0.2001814 -0.2646553 -0.9433371
vn -0.2689963 -0.9505666 0.1551258
vn 0.6910772 -0.6021855 -0.3997309
vn 0.7166671 -0.2643756 0.6453633
vn 0.2384767 0.4496391 -0.8607866
vn 1.32658E-07 0 -1
vn 1.32658E-07 0 -1
vn -0.2455358 0.4504712 -0.8583635
vn 0.2218519 0.5682494 -0.7923852
vn 0.713806 0.5926808 -0.3731091
vn 0.8824707 0 -0.4703674
vn 0.7900333 0.4095623 -0.4561865
vn 0.8485519 0 -0.5291121
vn 0.6803596 0.5919111 -0.4321481
vn 0.8644323 0.4495423 0.2250967
vn 0.3736717 0.9021231 -0.2157393
vn 0.0009657573 0.9999975 0.00201919
vn -0.2288264 0.5703899 -0.788856
vn 0.7970518 0.5679156 0.2053786
vn -0.7099365 0.5975125 -0.3727856
vn -0.8823903 0 -0.4705182
vn -0.7890393 0.4109689 -0.4566416
vn -0.8480138 0 -0.5299741
vn -0.3736717 0.902123 -0.2157396
vn -0.6843813 0.582193 -0.438946
vn -0.8608969 0.4486122 0.2400077
vn -0.7955658 0.5639617 0.2214092
vn 0.58701 0.5645544 0.5802566
vn -0.5634847 0.5717312 0.596329
vn -0.6160762 0.4505585 0.6461016
vn -0.8660255 0 0.4999998
vn -0.8660255 0 0.4999999
vn 0 0.902123 0.4314789
vn 0.03087297 0.6001866 0.7992639
vn 0.03307073 0 0.999453
vn -0.0009743546 0.4092398 0.9124264
vn -0.03445745 0 0.9994061
vn 0.6361938 0.4485063 0.6277735
vn -0.03713787 0.5836273 0.8111718
vn 0.8660254 0 0.5000001
vn 0.8660254 0 0.5000001
vn -0.5326642 1.003335E-07 -0.8463266
vn 0.4999999 1.137924E-07 -0.8660255
vn 0.2090312 0.9084185 -0.3620522
vn 0.9992725 0 0.03813758
vn -0.9992725 1.337778E-07 0.03813724
vn -0.4999995 2.275848E-07 -0.8660257
vn -0.2090309 0.9084185 -0.3620524
vn 0.532665 0 -0.8463262
vn -0.4666083 0 0.8844641
vn -1 0 0
vn -0.4180621 0.9084184 0
vn -0.4666081 0 -0.8844642
vn 0.5326647 0 0.8463264
vn -0.5000001 0 0.8660253
vn -0.209031 0.9084186 0.3620522
vn -0.9992725 0 -0.03813757
vn 0.9992725 0 -0.03813774
vn 0.5000003 1.137924E-07 0.8660253
vn 0.2090311 0.9084186 0.3620521
vn -0.5326641 1.003334E-07 0.8463266
vn 0.4666084 0 -0.884464
vn 1 1.137924E-07 5.405138E-07
vn 0.418062 0.9084185 0
vn 0.4666079 0 0.8844642
vn 0 -0.4171373 0.9088435
vn 4.433124E-07 0.599138 0.8006457
vn 0.925261 0.2521788 0.283369
vn -0.9252611 0.2521785 0.2833686
vn 0.925261 0.2521788 0.283369
vn 4.433124E-07 0.599138 0.8006457
vn 0 0.9505668 -0.3105201
vn -0.9252611 0.2521785 0.2833686
vn -0.7709216 -0.4551564 -0.4455476
vn -0.7090898 0.5727651 -0.4112563
vn -0.7340192 0.3463695 0.5841609
vn 0.1376034 0.3473037 -0.927602
vn -0.7340192 0.3463695 0.5841609
vn -0.7090898 0.5727651 -0.4112563
vn 0.2162353 0.968386 0.1243815
vn 0.1376034 0.3473037 -0.927602
vn 0.7870009 -0.4171372 -0.4545614
vn 0.6910771 0.6021858 -0.3997306
vn -0.2001817 0.2646552 -0.9433371
vn 0.7166673 0.2643754 0.6453632
vn -0.2001817 0.2646552 -0.9433371
vn 0.6910771 0.6021858 -0.3997306
vn -0.2689964 0.9505666 0.1551258
vn 0.7166673 0.2643754 0.6453632
g pSphere1_0
f 3/3/3 2/2/2 1/1/1
f 3/3/3 1/1/1 4/4/4
f 4/4/4 1/1/1 5/5/5
f 5/5/5 6/6/6 4/4/4
f 4/4/4 6/6/6 7/7/7
f 7/7/7 6/6/6 8/8/8
f 9/9/9 7/7/7 8/8/8
f 10/10/10 9/9/9 8/8/8
f 10/10/10 11/11/11 9/9/9
f 12/12/12 6/6/6 5/5/5
f 12/12/12 5/5/5 13/13/13
f 13/13/13 5/5/5 14/14/14
f 5/5/5 1/1/1 14/14/14
f 15/15/15 10/10/10 12/12/12
f 15/15/15 11/11/11 10/10/10
f 15/15/15 12/12/12 13/13/13
f 14/14/14 1/1/1 16/16/16
f 16/16/16 1/1/1 17/17/17
f 16/16/16 17/17/17 18/18/18
f 17/17/17 19/19/19 18/18/18
f 14/14/14 16/16/16 20/20/20
f 14/14/14 20/20/20 13/13/13
f 19/19/19 21/21/21 18/18/18
f 22/22/22 21/21/21 19/19/19
f 20/20/20 21/21/21 23/23/23
f 20/20/20 23/23/23 13/13/13
f 23/23/23 21/21/21 22/22/22
f 24/24/24 11/11/11 15/15/15
f 13/13/13 24/24/24 15/15/15
f 22/22/22 25/25/25 23/23/23
f 22/22/22 26/26/26 25/25/25
f 27/27/27 26/26/26 22/22/22
f 13/13/13 23/23/23 28/28/28
f 23/23/23 25/25/25 28/28/28
f 28/28/28 29/29/29 13/13/13
f 29/29/29 24/24/24 13/13/13
f 28/28/28 30/30/30 29/29/29
f 28/28/28 25/25/25 30/30/30
f 30/30/30 25/25/25 31/31/31
f 31/31/31 25/25/25 32/32/32
f 32/32/32 33/33/33 31/31/31
f 33/33/33 34/34/34 31/31/31
f 29/29/29 34/34/34 24/24/24
f 35/35/35 34/34/34 33/33/33
f 24/24/24 34/34/34 35/35/35
f 35/35/35 11/11/11 24/24/24
f 36/36/36 11/11/11 35/35/35
f 36/36/36 37/37/37 11/11/11
f 40/40/40 39/39/39 38/38/38
f 40/40/40 41/41/41 39/39/39
f 44/44/44 43/43/43 42/42/42
f 44/44/44 45/45/45 43/43/43
f 48/48/48 47/47/47 46/46/46
f 48/48/48 49/49/49 47/47/47
f 52/52/52 51/51/51 50/50/50
f 52/52/52 53/53/53 51/51/51
f 56/56/56 55/55/55 54/54/54
f 56/56/56 57/57/57 55/55/55
f 60/60/60 59/59/59 58/58/58
f 60/60/60 61/61/61 59/59/59
f 64/64/64 63/63/63 62/62/62
f 64/64/64 62/62/62 65/65/65
f 68/68/68 67/67/67 66/66/66
f 68/68/68 69/69/69 67/67/67
f 72/72/72 71/71/71 70/70/70
f 72/72/72 70/70/70 73/73/73
f 76/76/76 75/75/75 74/74/74
f 76/76/76 77/77/77 75/75/75
f 80/80/80 79/79/79 78/78/78
f 80/80/80 78/78/78 81/81/81
f 84/84/84 83/83/83 82/82/82
f 84/84/84 85/85/85 83/83/83
f 88/88/88 87/87/87 86/86/86
f 86/86/86 87/87/87 89/89/89
f 86/86/86 89/89/89 90/90/90
f 86/86/86 90/90/90 91/91/91
f 86/86/86 91/91/91 92/92/92
f 92/92/92 91/91/91 93/93/93
f 94/94/94 92/92/92 93/93/93
f 95/95/95 94/94/94 93/93/93
f 95/95/95 96/96/96 94/94/94
f 97/97/97 91/91/91 90/90/90
f 97/97/97 90/90/90 98/98/98
f 99/99/99 98/98/98 90/90/90
f 90/90/90 89/89/89 99/99/99
f 97/97/97 100/100/100 95/95/95
f 95/95/95 100/100/100 96/96/96
f 97/97/97 98/98/98 100/100/100
f 101/101/101 99/99/99 89/89/89
f 101/101/101 89/89/89 102/102/102
f 101/101/101 102/102/102 103/103/103
f 102/102/102 104/104/104 103/103/103
f 105/105/105 99/99/99 101/101/101
f 105/105/105 98/98/98 99/99/99
f 104/104/104 106/106/106 103/103/103
f 107/107/107 106/106/106 104/104/104
f 105/105/105 106/106/106 108/108/108
f 105/105/105 108/108/108 98/98/98
f 107/107/107 108/108/108 106/106/106
f 109/109/109 96/96/96 100/100/100
f 100/100/100 98/98/98 109/109/109
f 110/110/110 98/98/98 108/108/108
f 107/107/107 111/111/111 108/108/108
f 108/108/108 111/111/111 110/110/110
f 107/107/107 112/112/112 111/111/111
f 113/113/113 112/112/112 107/107/107
f 114/114/114 98/98/98 110/110/110
f 114/114/114 109/109/109 98/98/98
f 115/115/115 110/110/110 111/111/111
f 114/114/114 110/110/110 115/115/115
f 115/115/115 111/111/111 116/116/116
f 115/115/115 116/116/116 117/117/117
f 116/116/116 118/118/118 117/117/117
f 119/119/119 117/117/117 118/118/118
f 119/119/119 96/96/96 109/109/109
f 114/114/114 120/120/120 109/109/109
f 119/119/119 120/120/120 117/117/117
f 119/119/119 109/109/109 120/120/120
f 121/121/121 96/96/96 119/119/119
f 122/122/122 96/96/96 121/121/121
f 125/125/125 124/124/124 123/123/123
f 126/126/126 124/124/124 125/125/125
f 129/129/129 128/128/128 127/127/127
f 130/130/130 128/128/128 129/129/129
f 133/133/133 132/132/132 131/131/131
f 134/134/134 132/132/132 133/133/133
f 137/137/137 136/136/136 135/135/135
f 138/138/138 136/136/136 137/137/137
f 141/141/141 140/140/140 139/139/139
f 142/142/142 140/140/140 141/141/141
f 145/145/145 144/144/144 143/143/143
f 146/146/146 144/144/144 145/145/145
f 149/149/149 148/148/148 147/147/147
f 147/147/147 148/148/148 150/150/150
f 153/153/153 152/152/152 151/151/151
f 154/154/154 152/152/152 153/153/153
f 157/157/157 156/156/156 155/155/155
f 155/155/155 156/156/156 158/158/158
f 161/161/161 160/160/160 159/159/159
f 162/162/162 160/160/160 161/161/161
f 165/165/165 164/164/164 163/163/163
f 163/163/163 164/164/164 166/166/166
f 169/169/169 168/168/168 167/167/167
f 170/170/170 168/168/168 169/169/169
