g Purple
v -1.551324 2.340077 2.616436
v -6.162718 2.340077 2.616436
v -6.162718 2.340077 1.82452
v -1.551324 2.340077 1.82452
v -6.197896 -2.340077 2.616436
v -1.551324 -2.340077 2.616436
v -1.551324 -2.340077 1.82452
v -6.197896 -2.340077 1.82452
v -6.74962 1.333033 1.82452
v -6.74962 1.333033 2.616436
v -6.74962 -1.595764 2.616436
v -6.74962 -1.595764 1.82452
v -6.74962 1.333033 2.616436
v -6.162718 2.340077 1.82452
v -6.162718 2.340077 2.616436
v -6.74962 1.333033 1.82452
v -6.74962 1.333033 -0.9042981
v -6.74962 -1.595764 1.82452
v -6.74962 -1.595764 -0.9042981
v -6.197896 -2.340077 2.616436
v -6.197896 -2.340077 1.82452
v -6.74962 -1.595764 2.616436
v -6.197896 -2.340077 -0.9042981
v -6.74962 -1.595764 -1.682892
v -6.197896 -2.340077 -1.682892
v -1.551324 2.340077 2.616436
v -1.551324 -2.340077 2.616436
v -6.197896 -2.340077 2.616436
v -6.162718 2.340077 2.616436
v -6.74962 1.333033 2.616436
v -6.74962 -1.595764 2.616436
v -6.197896 -2.340077 1.82452
v -6.197896 -2.340077 -0.9042981
v -6.74962 -1.595764 -0.9042981
v -6.74962 -1.595764 1.82452
v -1.551324 -2.340077 1.82452
v -1.551324 -2.340077 -0.9042981
v -6.197896 -2.340077 -0.9042981
v -6.197896 -2.340077 1.82452
v -1.551324 2.340077 1.82452
v -6.162718 2.340077 1.82452
v -6.162718 2.340077 -0.9042981
v -1.551324 2.340077 -0.9042981
v -6.74962 1.333033 1.82452
v -6.74962 1.333033 -0.9042981
v -6.162718 2.340077 -0.9042981
v -6.162718 2.340077 1.82452
v -6.74962 1.333033 -0.9042981
v -6.74962 1.333033 -1.682892
v -6.162718 2.340077 -1.682892
v -6.162718 2.340077 -0.9042981
v -6.74962 -1.595764 -1.682892
v -6.74962 1.333033 -1.682892
v -6.74962 1.333033 -0.9042981
v -6.74962 -1.595764 -0.9042981
v -1.551324 -2.340077 -0.9042981
v -1.551324 -2.340077 -1.682892
v -6.197896 -2.340077 -1.682892
v -6.197896 -2.340077 -0.9042981
v -1.551324 2.340077 -1.682892
v -1.551324 2.340077 -0.9042981
v -6.162718 2.340077 -0.9042981
v -6.162718 2.340077 -1.682892
v -6.74962 -1.595764 -1.682892
v -6.162718 2.340077 -1.682892
v -6.74962 1.333033 -1.682892
v -6.197896 -2.340077 -1.682892
v -1.551324 2.340077 -1.682892
v -1.551324 -2.340077 -1.682892
v 0.4179497 2.340077 2.616436
v 0.4179497 2.340077 1.82452
v 5.029345 2.340077 1.82452
v 5.029345 2.340077 2.616436
v 5.064522 -2.340077 2.616436
v 5.064522 -2.340077 1.82452
v 0.4179497 -2.340077 1.82452
v 0.4179497 -2.340077 2.616436
v 5.616246 1.333033 1.82452
v 5.616246 -1.595764 1.82452
v 5.616246 -1.595764 2.616436
v 5.616246 1.333033 2.616436
v 5.616246 1.333033 2.616436
v 5.029345 2.340077 2.616436
v 5.029345 2.340077 1.82452
v 5.616246 1.333033 1.82452
v 5.616246 1.333033 -0.9042981
v 5.616246 -1.595764 1.82452
v 5.616246 -1.595764 -0.9042981
v 5.064522 -2.340077 -0.9042981
v 5.616246 -1.595764 -1.682892
v 5.064522 -2.340077 -1.682892
v 5.064522 -2.340077 2.616436
v 5.616246 -1.595764 2.616436
v 5.064522 -2.340077 1.82452
v 0.4179497 2.340077 2.616436
v 5.064522 -2.340077 2.616436
v 0.4179497 -2.340077 2.616436
v 5.029345 2.340077 2.616436
v 5.616246 1.333033 2.616436
v 5.616246 -1.595764 2.616436
v 5.064522 -2.340077 1.82452
v 5.616246 -1.595764 1.82452
v 5.616246 -1.595764 -0.9042981
v 5.064522 -2.340077 -0.9042981
v 0.4179497 -2.340077 1.82452
v 5.064522 -2.340077 1.82452
v 5.064522 -2.340077 -0.9042981
v 0.4179497 -2.340077 -0.9042981
v 0.4179497 2.340077 1.82452
v 0.4179497 2.340077 -0.9042981
v 5.029345 2.340077 -0.9042981
v 5.029345 2.340077 1.82452
v 5.616246 1.333033 1.82452
v 5.029345 2.340077 1.82452
v 5.029345 2.340077 -0.9042981
v 5.616246 1.333033 -0.9042981
v 5.616246 1.333033 -0.9042981
v 5.029345 2.340077 -0.9042981
v 5.029345 2.340077 -1.682892
v 5.616246 1.333033 -1.682892
v 5.616246 -1.595764 -1.682892
v 5.616246 -1.595764 -0.9042981
v 5.616246 1.333033 -0.9042981
v 5.616246 1.333033 -1.682892
v 0.4179497 -2.340077 -0.9042981
v 5.064522 -2.340077 -0.9042981
v 5.064522 -2.340077 -1.682892
v 0.4179497 -2.340077 -1.682892
v 0.4179497 2.340077 -1.682892
v 5.029345 2.340077 -1.682892
v 5.029345 2.340077 -0.9042981
v 0.4179497 2.340077 -0.9042981
v 5.616246 -1.595764 -1.682892
v 5.616246 1.333033 -1.682892
v 5.029345 2.340077 -1.682892
v 5.064522 -2.340077 -1.682892
v 0.4179497 2.340077 -1.682892
v 0.4179497 -2.340077 -1.682892
v 2.621296 3.547101 3.725244
v -2.621299 3.547101 3.725244
v -2.621299 3.547101 2.524853
v 2.621296 3.547101 2.524853
v -2.674621 -3.547101 3.725244
v 2.744313 -3.547101 3.725244
v 2.744313 -3.547101 2.524853
v -2.674621 -3.547101 2.524853
v 3.510928 -2.418867 3.725244
v 3.510928 2.020619 3.725244
v 3.510928 2.020619 2.524853
v 3.510928 -2.418867 2.524853
v -3.510928 2.020619 2.524853
v -3.510928 2.020619 3.725244
v -3.510928 -2.418867 3.725244
v -3.510928 -2.418867 2.524853
v -3.510928 2.020619 3.725244
v -2.621299 3.547101 2.524853
v -2.621299 3.547101 3.725244
v -3.510928 2.020619 2.524853
v -3.510928 2.020619 -1.611504
v -3.510928 -2.418867 2.524853
v -3.510928 -2.418867 -1.611504
v -2.674621 -3.547101 3.725244
v -2.674621 -3.547101 2.524853
v -3.510928 -2.418867 3.725244
v -2.674621 -3.547101 -1.611504
v -3.510928 -2.418867 -2.7917
v -2.674621 -3.547101 -2.7917
v 2.621296 3.547101 3.725244
v 2.621296 3.547101 2.524853
v 3.510928 2.020619 2.524853
v 3.510928 2.020619 3.725244
v 3.510928 2.020619 -1.611504
v 3.510928 -2.418867 -1.611504
v 3.510928 -2.418867 2.524853
v 2.621296 3.547101 -1.611504
v 3.510928 2.020619 -2.7917
v 2.621296 3.547101 -2.7917
v 3.510928 -2.418867 -2.7917
v 2.744313 -3.547101 -2.7917
v 2.744313 -3.547101 -1.611504
v 3.510928 -2.418867 3.725244
v 2.744313 -3.547101 2.524853
v 2.744313 -3.547101 3.725244
v -3.510928 2.020619 3.725244
v -2.621299 3.547101 3.725244
v 2.621296 3.547101 3.725244
v 3.510928 2.020619 3.725244
v 3.510928 -2.418867 3.725244
v -3.510928 -2.418867 3.725244
v -2.674621 -3.547101 3.725244
v 2.744313 -3.547101 3.725244
v -2.674621 -3.547101 2.524853
v -2.674621 -3.547101 -1.611504
v -3.510928 -2.418867 -1.611504
v -3.510928 -2.418867 2.524853
v 2.744313 -3.547101 2.524853
v 2.744313 -3.547101 -1.611504
v -2.674621 -3.547101 -1.611504
v -2.674621 -3.547101 2.524853
v 3.510928 -2.418867 2.524853
v 3.510928 -2.418867 -1.611504
v 2.744313 -3.547101 -1.611504
v 2.744313 -3.547101 2.524853
v 2.621296 3.547101 2.524853
v 2.621296 3.547101 -1.611504
v 3.510928 2.020619 -1.611504
v 3.510928 2.020619 2.524853
v 2.621296 3.547101 2.524853
v -2.621299 3.547101 2.524853
v -2.621299 3.547101 -1.611504
v 2.621296 3.547101 -1.611504
v -3.510928 2.020619 2.524853
v -3.510928 2.020619 -1.611504
v -2.621299 3.547101 -1.611504
v -2.621299 3.547101 2.524853
v -3.510928 2.020619 -1.611504
v -3.510928 2.020619 -2.7917
v -2.621299 3.547101 -2.7917
v -2.621299 3.547101 -1.611504
v -3.510928 -2.418867 -2.7917
v -3.510928 2.020619 -2.7917
v -3.510928 2.020619 -1.611504
v -3.510928 -2.418867 -1.611504
v 2.744313 -3.547101 -1.611504
v 2.744313 -3.547101 -2.7917
v -2.674621 -3.547101 -2.7917
v -2.674621 -3.547101 -1.611504
v 3.510928 2.020619 -1.611504
v 3.510928 2.020619 -2.7917
v 3.510928 -2.418867 -2.7917
v 3.510928 -2.418867 -1.611504
v 2.621296 3.547101 -2.7917
v 2.621296 3.547101 -1.611504
v -2.621299 3.547101 -1.611504
v -2.621299 3.547101 -2.7917
v 3.510928 2.020619 -2.7917
v 2.621296 3.547101 -2.7917
v -2.621299 3.547101 -2.7917
v -3.510928 2.020619 -2.7917
v 3.510928 -2.418867 -2.7917
v -3.510928 -2.418867 -2.7917
v -2.674621 -3.547101 -2.7917
v 2.744313 -3.547101 -2.7917
vt 0.04653328 0.4171832
vt 0.04653328 0.4171832
vt 0.04653328 0.4171832
vt 0.04653328 0.4171832
vt 0.04653332 0.4171832
vt 0.04653332 0.4171832
vt 0.04653332 0.4171832
vt 0.04653332 0.4171832
vt 0.04653332 0.4171832
vt 0.04653332 0.4171832
vt 0.04653332 0.4171832
vt 0.04653332 0.4171832
vt 0.160984 0.4171831
vt 0.1609839 0.4171831
vt 0.1609839 0.4171831
vt 0.160984 0.4171831
vt 0.160984 0.4171832
vt 0.1609839 0.4171831
vt 0.160984 0.4171832
vt 0.1609839 0.417183
vt 0.1609839 0.417183
vt 0.1609839 0.417183
vt 0.1609839 0.417183
vt 0.1609839 0.4171832
vt 0.1609839 0.4171831
vt 0.5038663 0.4106045
vt 0.5038663 0.4106043
vt 0.5038663 0.4106043
vt 0.5038663 0.4106045
vt 0.5038663 0.4106044
vt 0.5038663 0.4106044
vt 0.3888551 0.4106043
vt 0.3888551 0.4106043
vt 0.3888551 0.4106043
vt 0.3888551 0.4106043
vt 0.2667234 0.4106044
vt 0.2667234 0.4106044
vt 0.2667234 0.4106044
vt 0.2667234 0.4106044
vt 0.2667234 0.4106044
vt 0.2667234 0.4106044
vt 0.2667234 0.4106045
vt 0.2667234 0.4106045
vt 0.3729436 0.4106044
vt 0.3729436 0.4106044
vt 0.3729436 0.4106044
vt 0.3729436 0.4106044
vt 0.160984 0.4171831
vt 0.160984 0.4171832
vt 0.1609839 0.4171832
vt 0.1609839 0.4171831
vt 0.04653332 0.4171832
vt 0.04653332 0.4171832
vt 0.04653332 0.4171832
vt 0.04653332 0.4171832
vt 0.04653332 0.4171832
vt 0.04653332 0.4171832
vt 0.04653332 0.4171832
vt 0.04653332 0.4171832
vt 0.04653328 0.4171832
vt 0.04653328 0.4171832
vt 0.04653328 0.4171832
vt 0.04653328 0.4171832
vt 0.5038663 0.4106043
vt 0.5038663 0.4106043
vt 0.5038663 0.4106043
vt 0.5038663 0.4106043
vt 0.5038663 0.4106043
vt 0.5038663 0.4106043
vt 0.04653328 0.4171832
vt 0.04653328 0.4171832
vt 0.04653328 0.4171832
vt 0.04653328 0.4171832
vt 0.04653332 0.4171832
vt 0.04653332 0.4171832
vt 0.04653332 0.4171832
vt 0.04653332 0.4171832
vt 0.04653332 0.4171832
vt 0.04653332 0.4171832
vt 0.04653332 0.4171832
vt 0.04653332 0.4171832
vt 0.160984 0.4171831
vt 0.1609839 0.4171831
vt 0.1609839 0.4171831
vt 0.160984 0.4171831
vt 0.160984 0.4171832
vt 0.1609839 0.4171831
vt 0.160984 0.4171832
vt 0.1609839 0.417183
vt 0.1609839 0.4171832
vt 0.1609839 0.4171831
vt 0.1609839 0.417183
vt 0.1609839 0.417183
vt 0.1609839 0.417183
vt 0.5038663 0.4106045
vt 0.5038663 0.4106043
vt 0.5038663 0.4106043
vt 0.5038663 0.4106045
vt 0.5038663 0.4106044
vt 0.5038663 0.4106044
vt 0.3888551 0.4106043
vt 0.3888551 0.4106043
vt 0.3888551 0.4106043
vt 0.3888551 0.4106043
vt 0.2667234 0.4106044
vt 0.2667234 0.4106044
vt 0.2667234 0.4106044
vt 0.2667234 0.4106044
vt 0.2667234 0.4106044
vt 0.2667234 0.4106045
vt 0.2667234 0.4106045
vt 0.2667234 0.4106044
vt 0.3729436 0.4106044
vt 0.3729436 0.4106044
vt 0.3729436 0.4106044
vt 0.3729436 0.4106044
vt 0.160984 0.4171831
vt 0.1609839 0.4171831
vt 0.1609839 0.4171832
vt 0.160984 0.4171832
vt 0.04653332 0.4171832
vt 0.04653332 0.4171832
vt 0.04653332 0.4171832
vt 0.04653332 0.4171832
vt 0.04653332 0.4171832
vt 0.04653332 0.4171832
vt 0.04653332 0.4171832
vt 0.04653332 0.4171832
vt 0.04653328 0.4171832
vt 0.04653328 0.4171832
vt 0.04653328 0.4171832
vt 0.04653328 0.4171832
vt 0.5038663 0.4106043
vt 0.5038663 0.4106043
vt 0.5038663 0.4106043
vt 0.5038663 0.4106043
vt 0.5038663 0.4106043
vt 0.5038663 0.4106043
vt 0.04653328 0.4171832
vt 0.04653328 0.4171832
vt 0.04653328 0.4171832
vt 0.04653328 0.4171832
vt 0.04653332 0.4171832
vt 0.04653332 0.4171832
vt 0.04653332 0.4171832
vt 0.04653332 0.4171832
vt 0.04653332 0.4171832
vt 0.04653332 0.4171832
vt 0.04653332 0.4171832
vt 0.04653332 0.4171832
vt 0.04653332 0.4171832
vt 0.04653332 0.4171832
vt 0.04653332 0.4171832
vt 0.04653332 0.4171832
vt 0.160984 0.4171831
vt 0.1609839 0.4171831
vt 0.1609839 0.4171831
vt 0.160984 0.4171831
vt 0.160984 0.4171832
vt 0.1609839 0.4171831
vt 0.160984 0.4171832
vt 0.1609839 0.417183
vt 0.1609839 0.417183
vt 0.1609839 0.417183
vt 0.1609839 0.417183
vt 0.1609839 0.4171832
vt 0.1609839 0.4171831
vt 0.1609839 0.4171831
vt 0.1609839 0.4171831
vt 0.1609839 0.4171831
vt 0.1609839 0.4171831
vt 0.1609841 0.4171832
vt 0.1609841 0.4171832
vt 0.1609839 0.417183
vt 0.1609839 0.4171831
vt 0.1609839 0.4171832
vt 0.1609839 0.4171832
vt 0.1609839 0.417183
vt 0.1609839 0.4171832
vt 0.1609839 0.4171832
vt 0.1609839 0.417183
vt 0.1609839 0.4171832
vt 0.1609839 0.4171832
vt 0.5038663 0.4106044
vt 0.5038663 0.4106045
vt 0.5038663 0.4106045
vt 0.5038663 0.4106044
vt 0.5038663 0.4106044
vt 0.5038663 0.4106044
vt 0.5038663 0.4106043
vt 0.5038663 0.4106043
vt 0.3888551 0.4106043
vt 0.3888551 0.4106043
vt 0.3888551 0.4106043
vt 0.3888551 0.4106043
vt 0.2667234 0.4106044
vt 0.2667234 0.4106044
vt 0.2667234 0.4106044
vt 0.2667234 0.4106044
vt 0.3888551 0.4106044
vt 0.3888551 0.4106044
vt 0.3888551 0.4106044
vt 0.3888551 0.4106044
vt 0.3729436 0.4106044
vt 0.3729436 0.4106044
vt 0.3729436 0.4106044
vt 0.3729436 0.4106044
vt 0.2667234 0.4106044
vt 0.2667234 0.4106044
vt 0.2667234 0.4106045
vt 0.2667234 0.4106045
vt 0.3729436 0.4106044
vt 0.3729436 0.4106044
vt 0.3729436 0.4106044
vt 0.3729436 0.4106044
vt 0.160984 0.4171831
vt 0.160984 0.4171832
vt 0.1609839 0.4171832
vt 0.1609839 0.4171831
vt 0.04653332 0.4171832
vt 0.04653332 0.4171832
vt 0.04653332 0.4171832
vt 0.04653332 0.4171832
vt 0.04653332 0.4171832
vt 0.04653332 0.4171832
vt 0.04653332 0.4171832
vt 0.04653332 0.4171832
vt 0.04653332 0.4171832
vt 0.04653332 0.4171832
vt 0.04653332 0.4171832
vt 0.04653332 0.4171832
vt 0.04653328 0.4171832
vt 0.04653328 0.4171832
vt 0.04653328 0.4171832
vt 0.04653328 0.4171832
vt 0.5038663 0.4106043
vt 0.5038663 0.4106043
vt 0.5038663 0.4106043
vt 0.5038663 0.4106043
vt 0.5038663 0.4106043
vt 0.5038663 0.4106043
vt 0.5038663 0.4106043
vt 0.5038663 0.4106043
vn 0 0.1662196 0.9860888
vn -0.03486752 0.179984 0.9830513
vn -0.1901897 0.9817473 0
vn 0 1 0
vn -0.02581662 -0.1803037 0.9832721
vn 0 -0.1674521 0.9858802
vn 0 -1 0
vn -0.1417385 -0.9899041 0
vn -0.989064 0.1474866 0
vn -0.6514136 0.09713701 0.752479
vn -0.6417407 -0.09639355 0.7608397
vn -0.9889064 -0.1485399 0
vn -0.6514136 0.09713701 0.752479
vn -0.1901897 0.9817473 0
vn -0.03486752 0.179984 0.9830513
vn -0.989064 0.1474866 0
vn -0.989064 0.1474866 0
vn -0.9889064 -0.1485399 0
vn -0.9889064 -0.1485399 0
vn -0.02581662 -0.1803037 0.9832721
vn -0.1417385 -0.9899041 0
vn -0.6417407 -0.09639355 0.7608397
vn -0.1417385 -0.9899041 0
vn -0.6354242 -0.09544471 -0.7662418
vn -0.02539635 -0.1773684 -0.9838167
vn 0 0.1662196 0.9860888
vn 0 -0.1674521 0.9858802
vn -0.02581662 -0.1803037 0.9832721
vn -0.03486752 0.179984 0.9830513
vn -0.6514136 0.09713701 0.752479
vn -0.6417407 -0.09639355 0.7608397
vn -0.1417385 -0.9899041 0
vn -0.1417385 -0.9899041 0
vn -0.9889064 -0.1485399 0
vn -0.9889064 -0.1485399 0
vn 0 -1 0
vn 0 -1 0
vn -0.1417385 -0.9899041 0
vn -0.1417385 -0.9899041 0
vn 0 1 0
vn -0.1901897 0.9817473 0
vn -0.1901897 0.9817473 0
vn 0 1 0
vn -0.989064 0.1474866 0
vn -0.989064 0.1474866 0
vn -0.1901897 0.9817473 0
vn -0.1901897 0.9817473 0
vn -0.989064 0.1474866 0
vn -0.6451399 0.09620149 -0.757984
vn -0.03430016 0.1770553 -0.983603
vn -0.1901897 0.9817473 0
vn -0.6354242 -0.09544471 -0.7662418
vn -0.6451399 0.09620149 -0.757984
vn -0.989064 0.1474866 0
vn -0.9889064 -0.1485399 0
vn 0 -1 0
vn 0 -0.164712 -0.9863417
vn -0.02539635 -0.1773684 -0.9838167
vn -0.1417385 -0.9899041 0
vn 0 0.1634985 -0.9865436
vn 0 1 0
vn -0.1901897 0.9817473 0
vn -0.03430016 0.1770553 -0.983603
vn -0.6354242 -0.09544471 -0.7662418
vn -0.03430016 0.1770553 -0.983603
vn -0.6451399 0.09620149 -0.757984
vn -0.02539635 -0.1773684 -0.9838167
vn 0 0.1634985 -0.9865436
vn 0 -0.164712 -0.9863417
vn 0 0.1662195 0.9860888
vn 0 1 0
vn 0.1901897 0.9817473 0
vn 0.03486752 0.179984 0.9830513
vn 0.02581661 -0.1803037 0.9832721
vn 0.1417385 -0.9899041 0
vn 0 -1 0
vn 0 -0.1674521 0.9858802
vn 0.989064 0.1474866 0
vn 0.9889064 -0.1485399 0
vn 0.6417407 -0.09639356 0.7608398
vn 0.6514136 0.0971371 0.752479
vn 0.6514136 0.0971371 0.752479
vn 0.03486752 0.179984 0.9830513
vn 0.1901897 0.9817473 0
vn 0.989064 0.1474866 0
vn 0.989064 0.1474866 0
vn 0.9889064 -0.1485399 0
vn 0.9889064 -0.1485399 0
vn 0.1417385 -0.9899041 0
vn 0.6354242 -0.09544471 -0.7662418
vn 0.02539635 -0.1773684 -0.9838167
vn 0.02581661 -0.1803037 0.9832721
vn 0.6417407 -0.09639356 0.7608398
vn 0.1417385 -0.9899041 0
vn 0 0.1662195 0.9860888
vn 0.02581661 -0.1803037 0.9832721
vn 0 -0.1674521 0.9858802
vn 0.03486752 0.179984 0.9830513
vn 0.6514136 0.0971371 0.752479
vn 0.6417407 -0.09639356 0.7608398
vn 0.1417385 -0.9899041 0
vn 0.9889064 -0.1485399 0
vn 0.9889064 -0.1485399 0
vn 0.1417385 -0.9899041 0
vn 0 -1 0
vn 0.1417385 -0.9899041 0
vn 0.1417385 -0.9899041 0
vn 0 -1 0
vn 0 1 0
vn 0 1 0
vn 0.1901897 0.9817473 0
vn 0.1901897 0.9817473 0
vn 0.989064 0.1474866 0
vn 0.1901897 0.9817473 0
vn 0.1901897 0.9817473 0
vn 0.989064 0.1474866 0
vn 0.989064 0.1474866 0
vn 0.1901897 0.9817473 0
vn 0.03430016 0.1770553 -0.983603
vn 0.64514 0.09620149 -0.757984
vn 0.6354242 -0.09544471 -0.7662418
vn 0.9889064 -0.1485399 0
vn 0.989064 0.1474866 0
vn 0.64514 0.09620149 -0.757984
vn 0 -1 0
vn 0.1417385 -0.9899041 0
vn 0.02539635 -0.1773684 -0.9838167
vn 0 -0.164712 -0.9863417
vn 0 0.1634985 -0.9865436
vn 0.03430016 0.1770553 -0.983603
vn 0.1901897 0.9817473 0
vn 0 1 0
vn 0.6354242 -0.09544471 -0.7662418
vn 0.64514 0.09620149 -0.757984
vn 0.03430016 0.1770553 -0.983603
vn 0.02539635 -0.1773684 -0.9838167
vn 0 0.1634985 -0.9865436
vn 0 -0.164712 -0.9863417
vn 0.1252807 0.5032812 0.8549928
vn -0.1252808 0.5032812 0.8549928
vn -0.2415564 0.9703869 0
vn 0.2415563 0.9703869 0
vn -0.1085744 -0.6019665 0.7911056
vn 0.1103021 -0.6047318 0.788754
vn 0.1794379 -0.9837694 0
vn -0.177502 -0.9841204 0
vn 0.1848302 -0.02544911 0.9824409
vn 0.1880435 0.02804062 0.9817603
vn 0.989064 0.147487 0
vn 0.9906535 -0.1364022 0
vn -0.989064 0.1474864 0
vn -0.1880434 0.02804051 0.9817603
vn -0.1857443 -0.02789998 0.982202
vn -0.9889064 -0.14854 0
vn -0.1880434 0.02804051 0.9817603
vn -0.2415564 0.9703869 0
vn -0.1252808 0.5032812 0.8549928
vn -0.989064 0.1474864 0
vn -0.989064 0.1474865 0
vn -0.9889064 -0.14854 0
vn -0.9889064 -0.14854 0
vn -0.1085744 -0.6019665 0.7911056
vn -0.177502 -0.9841204 0
vn -0.1857443 -0.02789998 0.982202
vn -0.177502 -0.9841204 0
vn -0.182727 -0.02744674 -0.9827806
vn -0.1074203 -0.5955681 -0.7960902
vn 0.1252807 0.5032812 0.8549928
vn 0.2415563 0.9703869 0
vn 0.989064 0.147487 0
vn 0.1880435 0.02804062 0.9817603
vn 0.989064 0.147487 0
vn 0.9906535 -0.1364022 0
vn 0.9906535 -0.1364022 0
vn 0.2415563 0.9703869 0
vn 0.1849915 0.0275855 -0.9823529
vn 0.1237295 0.4970495 -0.8588555
vn 0.1818262 -0.02503549 -0.9830119
vn 0.1091365 -0.5983415 -0.7937737
vn 0.1794379 -0.9837694 0
vn 0.1848302 -0.02544911 0.9824409
vn 0.1794379 -0.9837694 0
vn 0.1103021 -0.6047318 0.788754
vn -0.1880434 0.02804051 0.9817603
vn -0.1252808 0.5032812 0.8549928
vn 0.1252807 0.5032812 0.8549928
vn 0.1880435 0.02804062 0.9817603
vn 0.1848302 -0.02544911 0.9824409
vn -0.1857443 -0.02789998 0.982202
vn -0.1085744 -0.6019665 0.7911056
vn 0.1103021 -0.6047318 0.788754
vn -0.177502 -0.9841204 0
vn -0.177502 -0.9841204 0
vn -0.9889064 -0.14854 0
vn -0.9889064 -0.14854 0
vn 0.1794379 -0.9837694 0
vn 0.1794379 -0.9837694 0
vn -0.177502 -0.9841204 0
vn -0.177502 -0.9841204 0
vn 0.9906535 -0.1364022 0
vn 0.9906535 -0.1364022 0
vn 0.1794379 -0.9837694 0
vn 0.1794379 -0.9837694 0
vn 0.2415563 0.9703869 0
vn 0.2415563 0.9703869 0
vn 0.989064 0.147487 0
vn 0.989064 0.147487 0
vn 0.2415563 0.9703869 0
vn -0.2415564 0.9703869 0
vn -0.2415564 0.9703869 0
vn 0.2415563 0.9703869 0
vn -0.989064 0.1474864 0
vn -0.989064 0.1474865 0
vn -0.2415564 0.9703869 0
vn -0.2415564 0.9703869 0
vn -0.989064 0.1474865 0
vn -0.1849914 0.02758539 -0.9823529
vn -0.1237295 0.4970495 -0.8588555
vn -0.2415564 0.9703869 0
vn -0.182727 -0.02744674 -0.9827806
vn -0.1849914 0.02758539 -0.9823529
vn -0.989064 0.1474865 0
vn -0.9889064 -0.14854 0
vn 0.1794379 -0.9837694 0
vn 0.1091365 -0.5983415 -0.7937737
vn -0.1074203 -0.5955681 -0.7960902
vn -0.177502 -0.9841204 0
vn 0.989064 0.147487 0
vn 0.1849915 0.0275855 -0.9823529
vn 0.1818262 -0.02503549 -0.9830119
vn 0.9906535 -0.1364022 0
vn 0.1237295 0.4970495 -0.8588555
vn 0.2415563 0.9703869 0
vn -0.2415564 0.9703869 0
vn -0.1237295 0.4970495 -0.8588555
vn 0.1849915 0.0275855 -0.9823529
vn 0.1237295 0.4970495 -0.8588555
vn -0.1237295 0.4970495 -0.8588555
vn -0.1849914 0.02758539 -0.9823529
vn 0.1818262 -0.02503549 -0.9830119
vn -0.182727 -0.02744674 -0.9827806
vn -0.1074203 -0.5955681 -0.7960902
vn 0.1091365 -0.5983415 -0.7937737
g Purple_0
f 3/3/3 2/2/2 1/1/1
f 4/4/4 3/3/3 1/1/1
f 7/7/7 6/6/6 5/5/5
f 8/8/8 7/7/7 5/5/5
f 11/11/11 10/10/10 9/9/9
f 12/12/12 11/11/11 9/9/9
f 15/15/15 14/14/14 13/13/13
f 14/14/14 16/16/16 13/13/13
f 18/18/18 16/16/16 17/17/17
f 19/19/19 18/18/18 17/17/17
f 18/18/18 21/21/21 20/20/20
f 22/22/22 18/18/18 20/20/20
f 19/19/19 24/24/24 23/23/23
f 24/24/24 25/25/25 23/23/23
f 28/28/28 27/27/27 26/26/26
f 29/29/29 28/28/28 26/26/26
f 29/29/29 30/30/30 28/28/28
f 30/30/30 31/31/31 28/28/28
f 34/34/34 33/33/33 32/32/32
f 35/35/35 34/34/34 32/32/32
f 38/38/38 37/37/37 36/36/36
f 39/39/39 38/38/38 36/36/36
f 42/42/42 41/41/41 40/40/40
f 43/43/43 42/42/42 40/40/40
f 46/46/46 45/45/45 44/44/44
f 47/47/47 46/46/46 44/44/44
f 50/50/50 49/49/49 48/48/48
f 51/51/51 50/50/50 48/48/48
f 54/54/54 53/53/53 52/52/52
f 55/55/55 54/54/54 52/52/52
f 58/58/58 57/57/57 56/56/56
f 59/59/59 58/58/58 56/56/56
f 62/62/62 61/61/61 60/60/60
f 63/63/63 62/62/62 60/60/60
f 66/66/66 65/65/65 64/64/64
f 65/65/65 67/67/67 64/64/64
f 65/65/65 68/68/68 67/67/67
f 68/68/68 69/69/69 67/67/67
f 72/72/72 71/71/71 70/70/70
f 73/73/73 72/72/72 70/70/70
f 76/76/76 75/75/75 74/74/74
f 77/77/77 76/76/76 74/74/74
f 80/80/80 79/79/79 78/78/78
f 81/81/81 80/80/80 78/78/78
f 84/84/84 83/83/83 82/82/82
f 85/85/85 84/84/84 82/82/82
f 85/85/85 87/87/87 86/86/86
f 87/87/87 88/88/88 86/86/86
f 90/90/90 88/88/88 89/89/89
f 91/91/91 90/90/90 89/89/89
f 87/87/87 93/93/93 92/92/92
f 94/94/94 87/87/87 92/92/92
f 97/97/97 96/96/96 95/95/95
f 96/96/96 98/98/98 95/95/95
f 99/99/99 98/98/98 96/96/96
f 100/100/100 99/99/99 96/96/96
f 103/103/103 102/102/102 101/101/101
f 104/104/104 103/103/103 101/101/101
f 107/107/107 106/106/106 105/105/105
f 108/108/108 107/107/107 105/105/105
f 111/111/111 110/110/110 109/109/109
f 112/112/112 111/111/111 109/109/109
f 115/115/115 114/114/114 113/113/113
f 116/116/116 115/115/115 113/113/113
f 119/119/119 118/118/118 117/117/117
f 120/120/120 119/119/119 117/117/117
f 123/123/123 122/122/122 121/121/121
f 124/124/124 123/123/123 121/121/121
f 127/127/127 126/126/126 125/125/125
f 128/128/128 127/127/127 125/125/125
f 131/131/131 130/130/130 129/129/129
f 132/132/132 131/131/131 129/129/129
f 135/135/135 134/134/134 133/133/133
f 136/136/136 135/135/135 133/133/133
f 137/137/137 135/135/135 136/136/136
f 138/138/138 137/137/137 136/136/136
f 141/141/141 140/140/140 139/139/139
f 142/142/142 141/141/141 139/139/139
f 145/145/145 144/144/144 143/143/143
f 146/146/146 145/145/145 143/143/143
f 149/149/149 148/148/148 147/147/147
f 150/150/150 149/149/149 147/147/147
f 153/153/153 152/152/152 151/151/151
f 154/154/154 153/153/153 151/151/151
f 157/157/157 156/156/156 155/155/155
f 156/156/156 158/158/158 155/155/155
f 160/160/160 158/158/158 159/159/159
f 161/161/161 160/160/160 159/159/159
f 160/160/160 163/163/163 162/162/162
f 164/164/164 160/160/160 162/162/162
f 161/161/161 166/166/166 165/165/165
f 166/166/166 167/167/167 165/165/165
f 170/170/170 169/169/169 168/168/168
f 171/171/171 170/170/170 168/168/168
f 173/173/173 172/172/172 170/170/170
f 174/174/174 173/173/173 170/170/170
f 172/172/172 176/176/176 175/175/175
f 176/176/176 177/177/177 175/175/175
f 179/179/179 178/178/178 173/173/173
f 180/180/180 179/179/179 173/173/173
f 182/182/182 174/174/174 181/181/181
f 183/183/183 182/182/182 181/181/181
f 186/186/186 185/185/185 184/184/184
f 187/187/187 186/186/186 184/184/184
f 187/187/187 184/184/184 188/188/188
f 184/184/184 189/189/189 188/188/188
f 189/189/189 190/190/190 188/188/188
f 190/190/190 191/191/191 188/188/188
f 194/194/194 193/193/193 192/192/192
f 195/195/195 194/194/194 192/192/192
f 198/198/198 197/197/197 196/196/196
f 199/199/199 198/198/198 196/196/196
f 202/202/202 201/201/201 200/200/200
f 203/203/203 202/202/202 200/200/200
f 206/206/206 205/205/205 204/204/204
f 207/207/207 206/206/206 204/204/204
f 210/210/210 209/209/209 208/208/208
f 211/211/211 210/210/210 208/208/208
f 214/214/214 213/213/213 212/212/212
f 215/215/215 214/214/214 212/212/212
f 218/218/218 217/217/217 216/216/216
f 219/219/219 218/218/218 216/216/216
f 222/222/222 221/221/221 220/220/220
f 223/223/223 222/222/222 220/220/220
f 226/226/226 225/225/225 224/224/224
f 227/227/227 226/226/226 224/224/224
f 230/230/230 229/229/229 228/228/228
f 231/231/231 230/230/230 228/228/228
f 234/234/234 233/233/233 232/232/232
f 235/235/235 234/234/234 232/232/232
f 238/238/238 237/237/237 236/236/236
f 239/239/239 238/238/238 236/236/236
f 239/239/239 236/236/236 240/240/240
f 241/241/241 239/239/239 240/240/240
f 241/241/241 240/240/240 242/242/242
f 240/240/240 243/243/243 242/242/242
