g Quiver1
v 7.522134 12.58765 -0.9847499
v 7.694469 13.64708 -0.7189887
v 7.305234 12.62337 -0.5666045
v 7.174712 12.74256 -1.930505
v 7.450931 13.73872 -1.537951
v 7.112579 12.68849 -1.465335
v 9.844723 14.90024 -1.323097
v 7.450931 13.73872 -1.537951
v 7.174712 12.74256 -1.930505
v 9.996335 16.05023 -0.9293036
v 9.78259 14.84617 -0.8579266
v 7.112579 12.68849 -1.465335
v 9.926407 14.8829 0.06634124
v 7.694469 13.64708 -0.7189887
v 7.522134 12.58765 -0.9847499
v 9.98788 16.09058 0.2619366
v 9.70951 14.91861 0.484489
v 7.305234 12.62337 -0.5666045
v 2.730414 7.600519 -1.483662
v 7.795619 12.43603 0.7307271
v 8.060152 12.08226 0.8981607
v 2.994949 7.246744 -1.31623
v 2.947314 7.564805 -1.901809
v 8.277052 12.04654 0.4800115
v 3.211848 7.211031 -1.734378
v 8.012518 12.40032 0.3125822
v 7.795619 12.43603 0.7307271
v 10.46443 14.3775 1.949254
v 10.19989 14.73128 1.781821
v 11.39839 15.33478 2.255556
v 11.22942 15.56075 2.148608
v 11.53694 15.31196 1.988459
v 10.68132 14.34179 1.531105
v 11.36796 15.53794 1.881511
v 2.947314 7.564805 -1.901809
v 8.012518 12.40032 0.3125822
v 7.795619 12.43603 0.7307271
v 2.730414 7.600519 -1.483662
v 10.41679 14.69556 1.363673
v 11.22942 15.56075 2.148608
v 10.19989 14.73128 1.781821
v 11.36796 15.53794 1.881511
v 10.68132 14.34179 1.531105
v 11.53694 15.31196 1.988459
v 8.277052 12.04654 0.4800115
v 8.012518 12.40032 0.3125822
v 2.45693 7.752139 -3.199142
v 7.522134 12.58765 -0.9847499
v 7.305234 12.62337 -0.5666045
v 2.240031 7.787852 -2.780994
v 2.504566 7.434078 -2.613561
v 7.569768 12.26959 -0.399171
v 9.974041 14.56484 0.6519222
v 9.70951 14.91861 0.484489
v 7.786668 12.23388 -0.8173205
v 10.90801 15.52211 0.9582231
v 2.721464 7.398365 -3.031709
v 7.522134 12.58765 -0.9847499
v 10.73903 15.74808 0.8512743
v 9.926407 14.8829 0.06634124
v 11.04655 15.4993 0.6911271
v 10.87758 15.72527 0.5841778
v 10.19094 14.52912 0.2337731
v 9.974041 14.56484 0.6519222
v 10.90801 15.52211 0.9582231
v 11.04655 15.4993 0.6911271
v 10.19094 14.52912 0.2337731
v 9.926407 14.8829 0.06634124
v 7.522134 12.58765 -0.9847499
v 7.786668 12.23388 -0.8173205
v 10.19094 14.52912 0.2337731
v 7.174712 12.74256 -1.930505
v 1.549669 8.196864 -3.210165
v 1.846993 7.829773 -3.213121
v 7.472037 12.37547 -1.933462
v 9.844723 14.90024 -1.323097
v 10.14205 14.53315 -1.326051
v 10.93395 15.67006 -1.001483
v 11.12387 15.43558 -1.003372
v 1.784863 7.775706 -2.74795
v 7.409906 12.3214 -1.468289
v 1.549669 8.196864 -3.210165
v 1.487536 8.142797 -2.744994
v 7.409906 12.3214 -1.468289
v 7.112579 12.68849 -1.465335
v 7.174712 12.74256 -1.930505
v 10.89426 15.63553 -0.7043508
v 10.93395 15.67006 -1.001483
v 9.844723 14.90024 -1.323097
v 11.08418 15.40105 -0.706239
v 9.78259 14.84617 -0.8579266
v 10.07992 14.47908 -0.8608789
v 11.12387 15.43558 -1.003372
v 10.14205 14.53315 -1.326051
v 7.112579 12.68849 -1.465335
v 10.07992 14.47908 -0.8608789
v 7.409906 12.3214 -1.468289
v 5.804777 10.6422 -3.142475
v -0.6378657 2.151273 -4.212056
v 6.50422 8.969485 -1.089701
v -1.337308 3.823992 -6.264828
v 5.290786 11.22102 -3.230712
v -1.851298 4.402805 -6.353065
v 4.544039 11.70581 -2.581234
v -2.598044 4.887599 -5.703586
v 4.311431 11.6117 -1.843648
v -2.83065 4.793483 -4.966
v 5.010875 9.938975 0.2091245
v -2.131208 3.120764 -2.913229
v 5.524866 9.360161 0.2973607
v -1.617218 2.54195 -2.824992
v 6.271611 8.875368 -0.3521159
v -0.870471 2.057156 -3.474469
v 6.50422 8.969485 -1.089701
v -0.6378657 2.151273 -4.212056
v 6.50422 8.969485 -1.089701
v 6.271611 8.875368 -0.3521159
v 5.524866 9.360161 0.2973607
v 5.804777 10.6422 -3.142475
v 5.010875 9.938975 0.2091245
v 4.311431 11.6117 -1.843648
v 5.290786 11.22102 -3.230712
v 4.544039 11.70581 -2.581234
v -1.617218 2.54195 -2.824992
v -0.870471 2.057156 -3.474469
v -0.6378657 2.151273 -4.212056
v -1.337308 3.823992 -6.264828
v -2.131208 3.120764 -2.913229
v -2.83065 4.793483 -4.966
v -1.851298 4.402805 -6.353065
v -2.598044 4.887599 -5.703586
v 8.012518 12.40032 0.3125822
v 8.184854 13.45975 0.578342
v 7.795619 12.43603 0.7307271
v 10.41679 14.69556 1.363673
v 10.47826 15.90325 1.559268
v 10.19989 14.73128 1.781821
v 8.060152 12.08226 0.8981607
v 9.12436 12.2033 1.172987
v 8.277052 12.04654 0.4800115
v 10.46443 14.3775 1.949254
v 11.63949 14.35028 2.294245
v 10.68132 14.34179 1.531105
v 7.569768 12.26959 -0.399171
v 8.633976 12.39063 -0.1243441
v 7.786668 12.23388 -0.8173205
v 9.974041 14.56484 0.6519222
v 11.1491 14.53762 0.9969136
v 10.19094 14.52912 0.2337731
v 7.409906 12.3214 -1.468289
v 8.506901 12.43497 -1.548446
v 7.472037 12.37547 -1.933462
v 10.07992 14.47908 -0.8608789
v 11.30151 14.43881 -0.9422762
v 10.14205 14.53315 -1.326051
vt 0.6446263 0.02633279
vt 0.6446263 0.02633279
vt 0.6446263 0.02633279
vt 0.6446263 0.02633279
vt 0.6446263 0.02633279
vt 0.6446263 0.02633279
vt 0.6974713 0.02633279
vt 0.6446263 0.02633279
vt 0.6446263 0.02633279
vt 0.6974713 0.02633279
vt 0.6974713 0.02633279
vt 0.6446263 0.02633279
vt 0.6974713 0.02633279
vt 0.6446263 0.02633279
vt 0.6446263 0.02633279
vt 0.6974713 0.02633279
vt 0.6974713 0.02633279
vt 0.6446263 0.02633279
vt 0.5909323 0.008890529
vt 0.6563029 0.008890528
vt 0.6563029 0.008890528
vt 0.5909324 0.008890529
vt 0.5909324 0.008890529
vt 0.6563029 0.008890528
vt 0.5909324 0.008890529
vt 0.656303 0.008890528
vt 0.6563029 0.008890528
vt 0.6813581 0.00889053
vt 0.6813582 0.00889053
vt 0.703598 0.008890535
vt 0.703598 0.008890535
vt 0.7035978 0.008890535
vt 0.6813582 0.00889053
vt 0.7035978 0.008890535
vt 0.5909324 0.008890529
vt 0.656303 0.008890528
vt 0.6563029 0.008890528
vt 0.5909323 0.008890529
vt 0.6813582 0.00889053
vt 0.703598 0.008890535
vt 0.6813582 0.00889053
vt 0.7035978 0.008890535
vt 0.6813582 0.00889053
vt 0.7035978 0.008890535
vt 0.6563029 0.008890528
vt 0.656303 0.008890528
vt 0.5909324 0.008890529
vt 0.6563029 0.008890528
vt 0.6563029 0.008890528
vt 0.5909324 0.008890529
vt 0.5909324 0.008890529
vt 0.6563029 0.008890528
vt 0.6813582 0.00889053
vt 0.6813582 0.00889053
vt 0.6563029 0.008890528
vt 0.703598 0.008890535
vt 0.5909324 0.008890529
vt 0.6563029 0.008890528
vt 0.7035978 0.008890535
vt 0.6813582 0.00889053
vt 0.7035978 0.008890535
vt 0.7035978 0.008890535
vt 0.6813581 0.00889053
vt 0.6813582 0.00889053
vt 0.703598 0.008890535
vt 0.7035978 0.008890535
vt 0.6813581 0.00889053
vt 0.6813582 0.00889053
vt 0.6563029 0.008890528
vt 0.6563029 0.008890528
vt 0.6813581 0.00889053
vt 0.656303 0.008890528
vt 0.5909324 0.008890529
vt 0.5909324 0.008890529
vt 0.656303 0.008890528
vt 0.6813581 0.00889053
vt 0.6813582 0.00889053
vt 0.7035978 0.008890535
vt 0.7035978 0.008890535
vt 0.5909324 0.008890529
vt 0.6563029 0.008890528
vt 0.5909324 0.008890529
vt 0.5909324 0.008890529
vt 0.6563029 0.008890528
vt 0.6563029 0.008890528
vt 0.656303 0.008890528
vt 0.7035978 0.008890535
vt 0.7035978 0.008890535
vt 0.6813581 0.00889053
vt 0.7035978 0.008890535
vt 0.6813582 0.00889053
vt 0.6813582 0.00889053
vt 0.7035978 0.008890535
vt 0.6813582 0.00889053
vt 0.6563029 0.008890528
vt 0.6813582 0.00889053
vt 0.6563029 0.008890528
vt 0.7961196 0.04330808
vt 0.6085042 0.04330808
vt 0.796657 0.04330808
vt 0.6084092 0.04330808
vt 0.796072 0.04330808
vt 0.6083014 0.04330808
vt 0.7959642 0.04330808
vt 0.6081927 0.04330808
vt 0.7958903 0.04330808
vt 0.6081257 0.04330808
vt 0.7957052 0.04330808
vt 0.607916 0.04330808
vt 0.7955932 0.04330808
vt 0.6078829 0.04330808
vt 0.7955066 0.04330808
vt 0.6076995 0.04330808
vt 0.7955413 0.04330808
vt 0.6073606 0.04330808
vt 0.8507974 0.0625963
vt 0.8507974 0.0625963
vt 0.8507974 0.0625963
vt 0.8507974 0.0625963
vt 0.8507974 0.0625963
vt 0.8507974 0.0625963
vt 0.8507974 0.0625963
vt 0.8507974 0.0625963
vt 0.8507974 0.0625963
vt 0.8507974 0.0625963
vt 0.8507974 0.0625963
vt 0.8507974 0.0625963
vt 0.8507974 0.0625963
vt 0.8507974 0.0625963
vt 0.8507974 0.0625963
vt 0.8507974 0.0625963
vt 0.6446263 0.02633279
vt 0.6446263 0.02633279
vt 0.6446263 0.02633279
vt 0.6974713 0.02633279
vt 0.6974713 0.02633279
vt 0.6974713 0.02633279
vt 0.6446263 0.02633279
vt 0.6446263 0.02633279
vt 0.6446263 0.02633279
vt 0.6974713 0.02633279
vt 0.6974713 0.02633279
vt 0.6974713 0.02633279
vt 0.6446263 0.02633279
vt 0.6446263 0.02633279
vt 0.6446263 0.02633279
vt 0.6974713 0.02633279
vt 0.6974713 0.02633279
vt 0.6974713 0.02633279
vt 0.6446263 0.02633279
vt 0.6446263 0.02633279
vt 0.6446263 0.02633279
vt 0.6974713 0.02633279
vt 0.6974713 0.02633279
vt 0.6974713 0.02633279
vn -0.1177283 0.1516578 -0.9813969
vn -0.8375689 0.4191413 -0.3504269
vn -0.4151749 0.7767115 0.473655
vn -0.3265657 0.4292721 -0.8420691
vn -0.8274938 0.561466 -0.003135466
vn -0.1654905 0.6383083 0.7517814
vn -0.17786 0.1623427 -0.9705723
vn -0.4123769 0.9079521 -0.07462085
vn -0.234681 0.1895816 -0.9534063
vn -0.3524141 0.9297606 -0.1065343
vn 0.01893378 0.3937314 0.9190305
vn -0.04064916 0.4180404 0.9075186
vn 0.08598956 -0.1229584 -0.9886795
vn -0.4462534 0.7881737 -0.4238397
vn 0.02405115 -0.1003744 -0.994659
vn -0.3857098 0.8190287 -0.4247586
vn -0.2680197 0.6182519 0.7388707
vn -0.3235801 0.6292042 0.7066809
vn -0.4670709 0.816808 0.3386287
vn -0.4049073 0.7607091 0.5073182
vn 0.06461164 -0.131568 0.9891993
vn 0.1342885 -0.328962 0.9347462
vn -0.2088811 0.2752046 -0.9384194
vn 0.3697372 -0.7722879 -0.5165907
vn 0.3898194 -0.8648847 -0.3162517
vn -0.09917542 0.1183949 -0.9880015
vn -0.4049073 0.7607091 0.5073182
vn -0.03569521 0.1727997 0.98431
vn -0.2621787 0.6034811 0.7530423
vn 0.3441624 -0.2016331 0.9170039
vn -0.2413203 0.9190125 0.3117381
vn 0.5970739 -0.7313106 -0.3296781
vn 0.3201484 -0.5737066 -0.7539005
vn 0.01050089 0.3930275 -0.9194668
vn -0.2088811 0.2752046 -0.9384194
vn -0.09917542 0.1183949 -0.9880015
vn -0.4049073 0.7607091 0.5073182
vn -0.4670709 0.816808 0.3386287
vn 0.09350889 -0.1417441 -0.9854769
vn -0.2413203 0.9190125 0.3117381
vn -0.2621787 0.6034811 0.7530423
vn 0.01050089 0.3930275 -0.9194668
vn 0.3201484 -0.5737066 -0.7539005
vn 0.5970739 -0.7313106 -0.3296781
vn 0.3697372 -0.7722879 -0.5165907
vn -0.09917542 0.1183949 -0.9880015
vn -0.2088807 0.2752041 -0.9384197
vn -0.1177283 0.1516578 -0.9813969
vn -0.4151749 0.7767115 0.473655
vn -0.4670713 0.8168085 0.338627
vn 0.1342884 -0.3289619 0.9347463
vn 0.06461153 -0.131568 0.9891993
vn -0.03569539 0.1728001 0.9843099
vn -0.2518302 0.5773767 0.7766709
vn 0.3697376 -0.7722892 -0.5165884
vn 0.3441637 -0.2016352 0.917003
vn 0.3898195 -0.8648854 -0.3162498
vn -0.1177283 0.1516578 -0.9813969
vn -0.2413202 0.9190111 0.3117423
vn 0.1063602 -0.1739434 -0.978995
vn 0.5970741 -0.7313085 -0.3296822
vn 0.01050186 0.3930266 -0.9194672
vn 0.3201487 -0.5737072 -0.7538998
vn -0.03569539 0.1728001 0.9843099
vn 0.3441637 -0.2016352 0.917003
vn 0.5970741 -0.7313085 -0.3296822
vn 0.3201487 -0.5737072 -0.7538998
vn 0.1063602 -0.1739434 -0.978995
vn -0.1177283 0.1516578 -0.9813969
vn 0.3697376 -0.7722892 -0.5165884
vn 0.3201487 -0.5737072 -0.7538998
vn -0.3265657 0.4292721 -0.8420691
vn -0.3866873 0.5479524 -0.741769
vn 0.1671296 -0.7664733 -0.6201502
vn 0.1090325 -0.6134177 -0.7821961
vn -0.1647178 0.1118614 -0.9799771
vn 0.03479138 -0.3509319 -0.9357544
vn -0.1523778 0.6316999 -0.7600896
vn 0.3819438 -0.6480644 -0.6588866
vn 0.3038874 -0.5844077 0.7524095
vn 0.2835299 -0.4157475 0.8641556
vn -0.3866873 0.5479524 -0.741769
vn -0.2407612 0.7170513 0.6541189
vn 0.2835299 -0.4157475 0.8641556
vn -0.1654905 0.6383083 0.7517814
vn -0.3265657 0.4292721 -0.8420691
vn -0.01774798 0.8071093 0.5901353
vn -0.1523778 0.6316999 -0.7600896
vn -0.1647178 0.1118614 -0.9799771
vn 0.5208584 -0.4807576 0.7053926
vn 0.03830961 0.3399871 0.9396495
vn 0.2316958 -0.1175075 0.9656651
vn 0.3819438 -0.6480644 -0.6588866
vn 0.03479138 -0.3509319 -0.9357544
vn -0.1654905 0.6383083 0.7517814
vn 0.2316958 -0.1175075 0.9656651
vn 0.2835299 -0.4157475 0.8641556
vn 0.5965213 -0.4648973 -0.6542423
vn 0.09475076 -0.9144931 -0.3933504
vn 0.6741893 -0.624275 -0.3946511
vn 0.01916732 -0.7564605 -0.6537585
vn 0.3747298 0.4584056 -0.8058796
vn -0.6051263 -0.03094139 -0.795528
vn 0.1817719 0.8455403 -0.5020165
vn -0.79422 0.3545523 -0.4934645
vn -0.09475096 0.914493 0.3933506
vn -0.6741889 0.6242752 0.3946514
vn -0.01916729 0.7564598 0.6537592
vn -0.5965209 0.4648969 0.6542429
vn 0.6051273 0.03094179 0.7955272
vn -0.3747303 -0.4584056 0.8058793
vn 0.7942204 -0.3545512 0.4934647
vn -0.1817713 -0.84554 0.5020174
vn 0.6741893 -0.624275 -0.3946511
vn 0.09475076 -0.9144931 -0.3933504
vn 0.6741893 -0.624275 -0.3946511
vn 0.7942204 -0.3545512 0.4934647
vn 0.6051273 0.03094179 0.7955272
vn 0.5965213 -0.4648973 -0.6542423
vn -0.01916729 0.7564598 0.6537592
vn -0.09475096 0.914493 0.3933506
vn 0.3747298 0.4584056 -0.8058796
vn 0.1817719 0.8455403 -0.5020165
vn -0.3747303 -0.4584056 0.8058793
vn -0.1817713 -0.84554 0.5020174
vn 0.09475076 -0.9144931 -0.3933504
vn 0.01916732 -0.7564605 -0.6537585
vn -0.5965209 0.4648969 0.6542429
vn -0.6741889 0.6242752 0.3946514
vn -0.6051263 -0.03094139 -0.795528
vn -0.79422 0.3545523 -0.4934645
vn -0.09917542 0.1183949 -0.9880015
vn -0.457886 0.7816474 -0.4235184
vn -0.4049073 0.7607091 0.5073182
vn 0.09350889 -0.1417441 -0.9854769
vn -0.3857118 0.819032 -0.4247504
vn -0.2621787 0.6034811 0.7530423
vn 0.06461164 -0.131568 0.9891993
vn 0.383507 -0.8194256 0.4259859
vn 0.3697372 -0.7722879 -0.5165907
vn -0.03569521 0.1727997 0.98431
vn 0.4571856 -0.7856498 0.4168162
vn 0.3201484 -0.5737066 -0.7539005
vn 0.06461153 -0.131568 0.9891993
vn 0.3835072 -0.8194258 0.4259855
vn 0.3697376 -0.7722892 -0.5165884
vn -0.03569539 0.1728001 0.9843099
vn 0.4571858 -0.7856495 0.4168165
vn 0.3201487 -0.5737072 -0.7538998
vn 0.2835299 -0.4157475 0.8641556
vn 0.3482723 -0.9331836 0.08874108
vn 0.1090325 -0.6134177 -0.7821961
vn 0.2316958 -0.1175075 0.9656651
vn 0.4219388 -0.9037071 0.07267093
vn 0.03479138 -0.3509319 -0.9357544
g Quiver1_0
f 3/3/3 2/2/2 1/1/1
f 6/6/6 5/5/5 4/4/4
f 9/9/9 8/8/8 7/7/7
f 8/8/8 10/10/10 7/7/7
f 7/7/7 10/10/10 11/11/11
f 10/10/10 8/8/8 12/12/12
f 11/11/11 10/10/10 12/12/12
f 15/15/15 14/14/14 13/13/13
f 14/14/14 16/16/16 13/13/13
f 13/13/13 16/16/16 17/17/17
f 16/16/16 14/14/14 18/18/18
f 17/17/17 16/16/16 18/18/18
f 21/21/21 20/20/20 19/19/19
f 22/22/22 21/21/21 19/19/19
f 22/22/22 19/19/19 23/23/23
f 24/24/24 21/21/21 22/22/22
f 25/25/25 22/22/22 23/23/23
f 25/25/25 24/24/24 22/22/22
f 25/25/25 23/23/23 26/26/26
f 24/24/24 25/25/25 26/26/26
f 21/21/21 28/28/28 27/27/27
f 28/28/28 29/29/29 27/27/27
f 28/28/28 30/30/30 29/29/29
f 30/30/30 31/31/31 29/29/29
f 32/32/32 30/30/30 28/28/28
f 30/30/30 32/32/32 31/31/31
f 33/33/33 32/32/32 28/28/28
f 32/32/32 34/34/34 31/31/31
f 37/37/37 36/36/36 35/35/35
f 38/38/38 37/37/37 35/35/35
f 41/41/41 40/40/40 39/39/39
f 40/40/40 42/42/42 39/39/39
f 43/43/43 39/39/39 42/42/42
f 44/44/44 43/43/43 42/42/42
f 43/43/43 45/45/45 39/39/39
f 45/45/45 46/46/46 39/39/39
f 49/49/49 48/48/48 47/47/47
f 50/50/50 49/49/49 47/47/47
f 51/51/51 50/50/50 47/47/47
f 52/52/52 49/49/49 50/50/50
f 51/51/51 52/52/52 50/50/50
f 52/52/52 53/53/53 49/49/49
f 53/53/53 54/54/54 49/49/49
f 55/55/55 52/52/52 51/51/51
f 53/53/53 56/56/56 54/54/54
f 57/57/57 51/51/51 47/47/47
f 57/57/57 55/55/55 51/51/51
f 57/57/57 47/47/47 58/58/58
f 55/55/55 57/57/57 58/58/58
f 56/56/56 59/59/59 54/54/54
f 54/54/54 59/59/59 60/60/60
f 56/56/56 61/61/61 59/59/59
f 59/59/59 62/62/62 60/60/60
f 61/61/61 62/62/62 59/59/59
f 63/63/63 60/60/60 62/62/62
f 61/61/61 63/63/63 62/62/62
f 66/66/66 65/65/65 64/64/64
f 67/67/67 66/66/66 64/64/64
f 70/70/70 69/69/69 68/68/68
f 71/71/71 70/70/70 68/68/68
f 74/74/74 73/73/73 72/72/72
f 75/75/75 74/74/74 72/72/72
f 75/75/75 72/72/72 76/76/76
f 77/77/77 75/75/75 76/76/76
f 77/77/77 76/76/76 78/78/78
f 79/79/79 77/77/77 78/78/78
f 74/74/74 75/75/75 80/80/80
f 75/75/75 81/81/81 80/80/80
f 74/74/74 80/80/80 82/82/82
f 80/80/80 83/83/83 82/82/82
f 80/80/80 84/84/84 83/83/83
f 84/84/84 85/85/85 83/83/83
f 83/83/83 85/85/85 82/82/82
f 85/85/85 86/86/86 82/82/82
f 79/79/79 88/88/88 87/87/87
f 87/87/87 88/88/88 89/89/89
f 90/90/90 79/79/79 87/87/87
f 91/91/91 87/87/87 89/89/89
f 90/90/90 87/87/87 91/91/91
f 92/92/92 90/90/90 91/91/91
f 93/93/93 90/90/90 92/92/92
f 94/94/94 93/93/93 92/92/92
f 96/96/96 91/91/91 95/95/95
f 97/97/97 96/96/96 95/95/95
f 100/100/100 99/99/99 98/98/98
f 99/99/99 101/101/101 98/98/98
f 98/98/98 101/101/101 102/102/102
f 101/101/101 103/103/103 102/102/102
f 102/102/102 103/103/103 104/104/104
f 103/103/103 105/105/105 104/104/104
f 104/104/104 105/105/105 106/106/106
f 105/105/105 107/107/107 106/106/106
f 106/106/106 107/107/107 108/108/108
f 107/107/107 109/109/109 108/108/108
f 108/108/108 109/109/109 110/110/110
f 109/109/109 111/111/111 110/110/110
f 110/110/110 111/111/111 112/112/112
f 111/111/111 113/113/113 112/112/112
f 112/112/112 113/113/113 114/114/114
f 113/113/113 115/115/115 114/114/114
f 118/118/118 117/117/117 116/116/116
f 116/116/116 119/119/119 118/118/118
f 119/119/119 120/120/120 118/118/118
f 119/119/119 121/121/121 120/120/120
f 119/119/119 122/122/122 121/121/121
f 122/122/122 123/123/123 121/121/121
f 126/126/126 125/125/125 124/124/124
f 124/124/124 127/127/127 126/126/126
f 124/124/124 128/128/128 127/127/127
f 128/128/128 129/129/129 127/127/127
f 129/129/129 130/130/130 127/127/127
f 129/129/129 131/131/131 130/130/130
f 134/134/134 133/133/133 132/132/132
f 132/132/132 133/133/133 135/135/135
f 136/136/136 133/133/133 134/134/134
f 133/133/133 136/136/136 135/135/135
f 137/137/137 136/136/136 134/134/134
f 135/135/135 136/136/136 137/137/137
f 140/140/140 139/139/139 138/138/138
f 138/138/138 139/139/139 141/141/141
f 142/142/142 139/139/139 140/140/140
f 139/139/139 142/142/142 141/141/141
f 143/143/143 142/142/142 140/140/140
f 141/141/141 142/142/142 143/143/143
f 146/146/146 145/145/145 144/144/144
f 144/144/144 145/145/145 147/147/147
f 148/148/148 145/145/145 146/146/146
f 145/145/145 148/148/148 147/147/147
f 149/149/149 148/148/148 146/146/146
f 147/147/147 148/148/148 149/149/149
f 152/152/152 151/151/151 150/150/150
f 150/150/150 151/151/151 153/153/153
f 154/154/154 151/151/151 152/152/152
f 151/151/151 154/154/154 153/153/153
f 155/155/155 154/154/154 152/152/152
f 153/153/153 154/154/154 155/155/155
