g Rear_Deck_Dark_230
v 25.99008 8.73493 12.12482
v 25.99008 8.73493 17.91582
v 24.00992 8.73493 17.91582
v 24.00992 8.73493 12.12482
v 28.12881 8.307577 12.12482
v 28.12881 8.307226 17.91582
v 27.70111 8.73493 17.91582
v 27.70146 8.73493 12.12482
v 22.29854 8.73493 12.12482
v 22.29889 8.73493 17.91582
v 21.87119 8.307226 17.91582
v 21.87119 8.307577 12.12482
v 25.99008 8.73493 12.12482
v 27.70146 8.73493 12.12482
v 27.70111 8.73493 17.91582
v 25.99008 8.73493 17.91582
v 28.12881 8.307577 12.12482
v 28.12881 6.423216 12.12482
v 28.12881 6.423216 17.91582
v 28.12881 8.307226 17.91582
v 24.00992 8.73493 12.12482
v 24.00992 8.73493 17.91582
v 22.29889 8.73493 17.91582
v 22.29854 8.73493 12.12482
v 21.87119 8.307226 17.91582
v 21.87119 6.423216 17.91582
v 21.87119 6.423216 12.12482
v 21.87119 8.307577 12.12482
v 21.87119 4.007268 12.12482
v 22.36464 3.520242 17.91582
v 22.35821 3.520242 12.12482
v 21.87119 4.013699 17.91582
v 21.87119 6.423216 12.12482
v 21.87119 6.423216 17.91582
v 27.64179 3.520242 12.12482
v 22.35821 3.520242 12.12482
v 27.63535 3.520242 17.91582
v 28.12881 4.013699 17.91582
v 28.12881 4.007268 12.12482
v 28.12881 6.423216 12.12482
v 28.12881 6.423216 17.91582
v 27.40466 8.436866 17.91582
v 27.78542 8.058057 17.91582
v 27.78542 6.38942 17.91582
v 27.37871 6.38942 17.91582
v 25.88142 8.436866 17.91582
v 24.11858 8.436866 17.91582
v 27.34612 3.818307 17.91582
v 27.78542 4.255352 17.91582
v 22.62129 6.38942 17.91582
v 22.59534 8.436866 17.91582
v 22.21458 8.058057 17.91582
v 22.65388 3.818307 17.91582
v 22.21458 6.38942 17.91582
v 22.21458 4.255352 17.91582
v 28.12881 6.423216 17.91582
v 27.78542 6.38942 17.91582
v 27.78542 8.058057 17.91582
v 28.12881 8.307226 17.91582
v 28.12881 4.013699 17.91582
v 27.40466 8.436866 17.91582
v 27.78542 4.255352 17.91582
v 27.70111 8.73493 17.91582
v 27.63535 3.520242 17.91582
v 25.88142 8.436866 17.91582
v 27.34612 3.818307 17.91582
v 25.99008 8.73493 17.91582
v 22.36464 3.520242 17.91582
v 24.11858 8.436866 17.91582
v 22.65388 3.818307 17.91582
v 24.00992 8.73493 17.91582
v 21.87119 4.013699 17.91582
v 22.59534 8.436866 17.91582
v 22.21458 4.255352 17.91582
v 22.29889 8.73493 17.91582
v 21.87119 6.423216 17.91582
v 22.21458 8.058057 17.91582
v 22.21458 6.38942 17.91582
v 21.87119 8.307226 17.91582
vt 0.3720873 0.9078357
vt 0.3720873 0.9121561
vt 0.3720873 0.9121561
vt 0.3720873 0.9078357
vt 0.139723 0.9170807
vt 0.139723 0.9267752
vt 0.1347235 0.9267654
vt 0.1347275 0.9169468
vt 0.1347276 0.9169469
vt 0.1347235 0.9267654
vt 0.139723 0.9267752
vt 0.139723 0.9170807
vt 0.2467769 0.9114826
vt 0.2667814 0.9120185
vt 0.2667774 0.921837
vt 0.2467769 0.9217975
vt 0.1532536 0.9309485
vt 0.156728 0.9309485
vt 0.156728 0.9391269
vt 0.1532543 0.9391269
vt 0.2467769 0.9114826
vt 0.2467769 0.9217975
vt 0.2667774 0.921837
vt 0.2667815 0.9120185
vt 0.1532543 0.9391269
vt 0.156728 0.9391269
vt 0.156728 0.9309485
vt 0.1532536 0.9309485
vt 0.06214564 0.9344754
vt 0.06253384 0.9461843
vt 0.06253384 0.9344754
vt 0.06253384 0.9461843
vt 0.06021999 0.9344754
vt 0.06021999 0.9461843
vt 0.06253384 0.9344754
vt 0.06253384 0.9344754
vt 0.06253384 0.9461843
vt 0.06214051 0.9461843
vt 0.06214564 0.9344754
vt 0.06021999 0.9344754
vt 0.06021999 0.9461843
vt 0.07399063 0.9223386
vt 0.07578497 0.9205443
vt 0.07578497 0.9126401
vt 0.07386832 0.9126401
vt 0.0668122 0.9223386
vt 0.05850478 0.9223386
vt 0.07371478 0.9004611
vt 0.07578497 0.9025314
vt 0.05144866 0.9126401
vt 0.05132638 0.9223386
vt 0.04953201 0.9205443
vt 0.05160223 0.9004611
vt 0.04953201 0.9126401
vt 0.04953201 0.9025314
vt 0.1776782 0.8929279
vt 0.1776782 0.8929279
vt 0.1776782 0.8950837
vt 0.1776782 0.8950837
vt 0.1776782 0.890171
vt 0.1771888 0.8955731
vt 0.1776782 0.890171
vt 0.1771888 0.8955731
vt 0.1771135 0.8896064
vt 0.1752311 0.8955731
vt 0.1771135 0.8896064
vt 0.1752311 0.8955731
vt 0.1710829 0.8896064
vt 0.1729654 0.8955731
vt 0.1710829 0.8896064
vt 0.1729654 0.8955731
vt 0.1705183 0.890171
vt 0.1710076 0.8955731
vt 0.1705183 0.890171
vt 0.1710076 0.8955731
vt 0.1705183 0.8929279
vt 0.1705183 0.8950837
vt 0.1705183 0.8929279
vt 0.1705183 0.8950837
vn 0 1 0
vn 0 0.9988569 0.04779946
vn 0 0.9988569 0.04779954
vn 0 1 0
vn 0.9833233 0.1818664 1.101853E-05
vn 0.9824297 0.1816817 0.04270487
vn 0.195868 0.979891 0.03806918
vn 0.19603 0.9805979 1.187669E-05
vn -0.19603 0.9805979 1.189023E-05
vn -0.1958681 0.979891 0.03806925
vn -0.9824297 0.1816816 0.04270488
vn -0.9833233 0.1818664 1.103109E-05
vn 0 1 0
vn 0.19603 0.9805979 1.187669E-05
vn 0.195868 0.979891 0.03806918
vn 0 0.9988569 0.04779946
vn 0.9833233 0.1818664 1.101853E-05
vn 1 0 0
vn 0.9984668 0 0.05535235
vn 0.9824297 0.1816817 0.04270487
vn 0 1 0
vn 0 0.9988569 0.04779954
vn -0.1958681 0.979891 0.03806925
vn -0.19603 0.9805979 1.189023E-05
vn -0.9824297 0.1816816 0.04270488
vn -0.9984668 0 0.05535235
vn -1 0 0
vn -0.9833233 0.1818664 1.103109E-05
vn -0.9860109 -0.1666804 0.0001850894
vn -0.08456417 -0.995945 0.03070087
vn -0.08478974 -0.9963988 9.415454E-05
vn -0.9851841 -0.1662069 0.0422794
vn -1 0 0
vn -0.9984668 0 0.05535235
vn 0.08478974 -0.9963988 9.415463E-05
vn -0.08478974 -0.9963988 9.415454E-05
vn 0.08456415 -0.995945 0.03070087
vn 0.9851841 -0.1662069 0.0422794
vn 0.9860109 -0.1666804 0.0001850896
vn 1 0 0
vn 0.9984668 0 0.05535235
vn -4.144014E-07 0 1
vn -1.090499E-06 0 1
vn -1.179136E-06 0 1
vn -1.262885E-07 0 1
vn 0 0 1
vn 0 0 1
vn 0 0 1
vn -1.095987E-06 0 1
vn 1.256038E-07 0 1
vn 4.170188E-07 0 1
vn 1.177707E-06 0 1
vn 0 0 1
vn 1.725741E-06 0 1
vn 1.482552E-06 0 1
vn 0.9984668 0 0.05535235
vn -1.179136E-06 0 1
vn -1.090499E-06 0 1
vn 0.9824297 0.1816817 0.04270487
vn 0.9851841 -0.1662069 0.0422794
vn -4.144014E-07 0 1
vn -1.095987E-06 0 1
vn 0.195868 0.979891 0.03806918
vn 0.08456415 -0.995945 0.03070087
vn 0 0 1
vn 0 0 1
vn 0 0.9988569 0.04779946
vn -0.08456417 -0.995945 0.03070087
vn 0 0 1
vn 0 0 1
vn 0 0.9988569 0.04779954
vn -0.9851841 -0.1662069 0.0422794
vn 4.170188E-07 0 1
vn 1.482552E-06 0 1
vn -0.1958681 0.979891 0.03806925
vn -0.9984668 0 0.05535235
vn 1.177707E-06 0 1
vn 1.725741E-06 0 1
vn -0.9824297 0.1816816 0.04270488
g Rear_Deck_Dark_230_0
f 3/3/3 2/2/2 1/1/1
f 4/4/4 3/3/3 1/1/1
f 7/7/7 6/6/6 5/5/5
f 8/8/8 7/7/7 5/5/5
f 11/11/11 10/10/10 9/9/9
f 12/12/12 11/11/11 9/9/9
f 15/15/15 14/14/14 13/13/13
f 16/16/16 15/15/15 13/13/13
f 19/19/19 18/18/18 17/17/17
f 20/20/20 19/19/19 17/17/17
f 23/23/23 22/22/22 21/21/21
f 24/24/24 23/23/23 21/21/21
f 27/27/27 26/26/26 25/25/25
f 28/28/28 27/27/27 25/25/25
f 31/31/31 30/30/30 29/29/29
f 30/30/30 32/32/32 29/29/29
f 29/29/29 32/32/32 33/33/33
f 32/32/32 34/34/34 33/33/33
f 36/36/36 35/35/35 30/30/30
f 35/35/35 37/37/37 30/30/30
f 38/38/38 37/37/37 35/35/35
f 39/39/39 38/38/38 35/35/35
f 38/38/38 39/39/39 40/40/40
f 41/41/41 38/38/38 40/40/40
f 44/44/44 43/43/43 42/42/42
f 45/45/45 44/44/44 42/42/42
f 45/45/45 42/42/42 46/46/46
f 45/45/45 46/46/46 47/47/47
f 45/45/45 48/48/48 44/44/44
f 48/48/48 49/49/49 44/44/44
f 50/50/50 45/45/45 47/47/47
f 45/45/45 50/50/50 48/48/48
f 51/51/51 50/50/50 47/47/47
f 51/51/51 52/52/52 50/50/50
f 50/50/50 53/53/53 48/48/48
f 52/52/52 54/54/54 50/50/50
f 50/50/50 54/54/54 53/53/53
f 54/54/54 55/55/55 53/53/53
f 58/58/58 57/57/57 56/56/56
f 59/59/59 58/58/58 56/56/56
f 56/56/56 57/57/57 60/60/60
f 61/61/61 58/58/58 59/59/59
f 57/57/57 62/62/62 60/60/60
f 63/63/63 61/61/61 59/59/59
f 60/60/60 62/62/62 64/64/64
f 65/65/65 61/61/61 63/63/63
f 62/62/62 66/66/66 64/64/64
f 67/67/67 65/65/65 63/63/63
f 64/64/64 66/66/66 68/68/68
f 69/69/69 65/65/65 67/67/67
f 66/66/66 70/70/70 68/68/68
f 71/71/71 69/69/69 67/67/67
f 68/68/68 70/70/70 72/72/72
f 73/73/73 69/69/69 71/71/71
f 70/70/70 74/74/74 72/72/72
f 75/75/75 73/73/73 71/71/71
f 72/72/72 74/74/74 76/76/76
f 77/77/77 73/73/73 75/75/75
f 74/74/74 78/78/78 76/76/76
f 79/79/79 77/77/77 75/75/75
f 76/76/76 78/78/78 79/79/79
f 78/78/78 77/77/77 79/79/79
