g Red_Glove_R
v 14.17149 10.84614 0.7692091
v 14.53208 10.13704 1.104287
v 13.21041 10.42507 1.760113
v 12.29291 11.30209 1.750561
v 12.79873 8.965433 1.369569
v 12.31907 8.670577 1.258572
v 10.07698 10.09155 0.09142509
v 9.939543 10.87906 0.5698535
v 14.10328 13.04988 0.8211603
v 10.34073 12.68631 0.5349861
v 12.54037 12.87159 0.3843665
v 10.44275 12.85988 -2.096354
v 13.52211 13.55142 -1.865426
v 12.72329 13.56175 -2.00369
v 10.17722 12.644 -4.08468
v 12.85713 12.76696 -4.435722
v 14.35822 12.98785 -4.437406
v 14.51789 10.6 -4.4584
v 12.85614 10.56776 -4.673246
v 10.07821 10.80052 -4.364748
v 10.34792 9.423555 -4.00914
v 12.82975 8.996758 -4.377054
v 14.38588 10.77176 -2.42076
v 12.21299 8.77602 -2.001406
v 10.46046 9.221468 -1.992193
v 10.07698 10.09155 0.09142509
v 14.40073 10.77047 -0.8336226
v 12.31907 8.670577 1.258572
v 14.17149 10.84614 0.7692091
v 12.79873 8.965433 1.369569
v 13.21041 10.42507 1.760113
v 14.05583 9.652792 1.966134
v 14.05095 8.76195 1.961735
v 14.53208 10.13704 1.104287
v 14.05583 9.652792 1.966134
v 13.21041 10.42507 1.760113
v 14.77815 9.701448 1.329042
v 14.05095 8.76195 1.961735
v 14.53208 10.13704 1.104287
v 12.79873 8.965433 1.369569
v 14.41123 11.00834 0.5435451
v 14.24334 12.95433 0.6396213
v 15.64367 12.79229 0.4419417
v 15.3845 11.05307 0.5481127
v 16.84473 12.09366 0.2091353
v 16.29235 10.83221 0.4526825
v 16.738 12.08705 -0.5722166
v 15.67909 12.78036 -0.7690501
v 14.43345 13.34983 -1.00024
v 14.24334 12.95433 0.6396213
v 13.71546 13.34111 -1.871448
v 14.42821 13.32723 -2.516082
v 14.40597 12.76229 -4.273843
v 15.70666 12.81877 -1.2112
v 15.51439 12.78517 -2.991916
v 15.62655 12.80224 -2.564878
v 17.07895 12.06477 -1.439372
v 16.91797 12.05481 -2.617884
v 15.44684 12.77133 -4.343887
v 16.55612 12.06915 -3.450021
v 16.42848 12.06125 -4.384468
v 12.79873 8.965433 1.369569
v 14.53208 10.13704 1.104287
v 14.17149 10.84614 0.7692091
v 12.31907 8.670577 1.258572
v 15.40996 11.05699 -0.6921286
v 16.17339 10.84015 -0.5639554
v 16.738 12.08705 -0.5722166
v 15.67909 12.78036 -0.7690501
v 14.55114 11.04948 -0.8703639
v 14.43345 13.34983 -1.00024
v 16.84473 12.09366 0.2091353
v 16.738 12.08705 -0.5722166
v 16.17339 10.84015 -0.5639554
v 16.29235 10.83221 0.4526825
v 15.3845 11.05307 0.5481127
v 15.40996 11.05699 -0.6921286
v 14.41123 11.00834 0.5435451
v 14.55114 11.04948 -0.8703639
v 17.07895 12.06477 -1.439372
v 16.51907 10.85134 -1.415025
v 15.47794 11.0671 -1.117721
v 15.70666 12.81877 -1.2112
v 14.55114 11.04948 -0.8703639
v 14.43345 13.34983 -1.00024
v 15.40394 11.07302 -2.506297
v 16.3803 10.8606 -2.600963
v 16.91797 12.05481 -2.617884
v 15.62655 12.80224 -2.564878
v 14.56591 11.01746 -2.421061
v 14.42821 13.32723 -2.516082
v 16.55612 12.06915 -3.450021
v 16.01891 10.85723 -3.429064
v 15.27433 11.0695 -2.933612
v 15.51439 12.78517 -2.991916
v 14.56591 11.01746 -2.421061
v 14.42821 13.32723 -2.516082
v 17.07895 12.06477 -1.439372
v 16.91797 12.05481 -2.617884
v 16.3803 10.8606 -2.600963
v 16.51907 10.85134 -1.415025
v 15.40394 11.07302 -2.506297
v 15.47794 11.0671 -1.117721
v 14.56591 11.01746 -2.421061
v 14.55114 11.04948 -0.8703639
v 14.54016 10.93828 -4.319776
v 14.56591 11.01746 -2.421061
v 15.27433 11.0695 -2.933612
v 15.21024 11.075 -4.369242
v 16.01891 10.85723 -3.429064
v 15.90656 10.86473 -4.389146
v 16.55612 12.06915 -3.450021
v 16.42848 12.06125 -4.384468
v 16.42848 12.06125 -4.384468
v 15.44684 12.77133 -4.343887
v 14.40597 12.76229 -4.273843
v 14.54016 10.93828 -4.319776
v 14.10328 13.04988 0.8211603
v 14.41123 11.00834 0.5435451
v 14.17149 10.84614 0.7692091
v 14.24334 12.95433 0.6396213
v 13.52211 13.55142 -1.865426
v 13.71546 13.34111 -1.871448
v 14.40597 12.76229 -4.273843
v 14.35822 12.98785 -4.437406
v 14.54016 10.93828 -4.319776
v 14.51789 10.6 -4.4584
v 14.38588 10.77176 -2.42076
v 14.56591 11.01746 -2.421061
v 14.55114 11.04948 -0.8703639
v 14.40073 10.77047 -0.8336226
v 14.41123 11.00834 0.5435451
v 14.17149 10.84614 0.7692091
vt 0.4288275 0.1717266
vt 0.4163376 0.1698005
vt 0.4079677 0.1524056
vt 0.4270183 0.1330001
vt 0.3877914 0.1433492
vt 0.3831429 0.133795
vt 0.3796304 0.07663305
vt 0.416888 0.07957192
vt 0.465255 0.1729721
vt 0.4512715 0.0758132
vt 0.4656749 0.1375293
vt 0.5034102 0.05999723
vt 0.5191706 0.1519727
vt 0.519016 0.1329528
vt 0.5532474 0.05033675
vt 0.5729665 0.1274896
vt 0.5772545 0.1631899
vt 0.6050209 0.1614471
vt 0.593959 0.1169956
vt 0.5805947 0.04335728
vt 0.6162943 0.04178795
vt 0.6180547 0.1078315
vt 0.6455471 0.1588502
vt 0.6598184 0.09676096
vt 0.6617573 0.04014484
vt 0.7151024 0.04596923
vt 0.6778138 0.1546608
vt 0.7217115 0.1103881
vt 0.7084382 0.1467585
vt 0.8755792 0.7867252
vt 0.8824574 0.7590805
vt 0.8984483 0.7711038
vt 0.9005729 0.7868254
vt 0.9044279 0.7562968
vt 0.8984483 0.7711038
vt 0.8824574 0.7590805
vt 0.9045704 0.7622755
vt 0.9126496 0.7744369
vt 0.9044279 0.7562968
vt 0.9288005 0.7668342
vt 0.9154108 0.721749
vt 0.9063427 0.7050611
vt 0.9350863 0.6981416
vt 0.9407346 0.7128422
vt 0.9636524 0.6916307
vt 0.9633469 0.7045979
vt 0.9608468 0.675494
vt 0.9343177 0.6730058
vt 0.9055945 0.6700812
vt 0.9063427 0.7050611
vt 0.8870224 0.6485722
vt 0.9013041 0.6364545
vt 0.8944021 0.5936692
vt 0.9362094 0.6617263
vt 0.9256781 0.6189131
vt 0.9306114 0.6311057
vt 0.9716418 0.651697
vt 0.9647459 0.6249321
vt 0.9178377 0.5887245
vt 0.9518236 0.602291
vt 0.9448511 0.581695
vt 0.4288274 0.1717266
vt 0.4160073 0.1698006
vt 0.4182525 0.1831385
vt 0.4301802 0.182816
vt 0.8595966 0.4901907
vt 0.8645321 0.4906512
vt 0.8651381 0.4973755
vt 0.8574376 0.4985232
vt 0.8545837 0.4885079
vt 0.8489226 0.4987466
vt 0.9524726 0.4674412
vt 0.9521399 0.484577
vt 0.9224035 0.485624
vt 0.9223003 0.4635494
vt 0.9021024 0.4641477
vt 0.9058222 0.4902109
vt 0.8854445 0.4664586
vt 0.8888894 0.4949664
vt 0.866071 0.4964769
vt 0.8635853 0.4902046
vt 0.8575283 0.4901923
vt 0.8577999 0.4985106
vt 0.8522547 0.4891777
vt 0.8502268 0.4996305
vt 0.8571844 0.4907297
vt 0.8613313 0.4912215
vt 0.8619447 0.4980874
vt 0.8559974 0.4997196
vt 0.8537283 0.4894521
vt 0.8506871 0.500392
vt 0.864494 0.4970419
vt 0.8624619 0.4900812
vt 0.8574035 0.4903597
vt 0.8573312 0.4993246
vt 0.8525655 0.4896374
vt 0.8500471 0.500721
vt 0.9579172 0.5011736
vt 0.9575239 0.5255892
vt 0.9306731 0.5264938
vt 0.9304858 0.501971
vt 0.9101496 0.5270807
vt 0.9079925 0.4985537
vt 0.893223 0.526768
vt 0.8892646 0.496562
vt 0.8951041 0.5675573
vt 0.8934073 0.5289263
vt 0.9086301 0.5373649
vt 0.9095789 0.5675327
vt 0.9255396 0.5464678
vt 0.9248523 0.5667797
vt 0.9534252 0.5466017
vt 0.9523814 0.5664486
vt 0.9248135 0.5759186
vt 0.9102713 0.5788321
vt 0.8950596 0.5787371
vt 0.8951041 0.5675573
vt 0.465255 0.1729721
vt 0.4301802 0.182816
vt 0.4288275 0.1717266
vt 0.4729843 0.1821544
vt 0.5191706 0.1519727
vt 0.5223699 0.1666743
vt 0.5805122 0.1758135
vt 0.5772545 0.1631899
vt 0.6078445 0.1733764
vt 0.6050209 0.1614471
vt 0.6455471 0.1588502
vt 0.6463726 0.1697647
vt 0.6819816 0.1654091
vt 0.6778138 0.1546608
vt 0.7056743 0.1604974
vt 0.7084382 0.1467585
vn 0.8202887 -0.2181703 0.5287041
vn 0.9120877 -0.00217741 -0.4099896
vn 0.2102966 0.2303825 0.9501049
vn -0.229208 0.1286794 0.9648344
vn 0.09459208 -0.9672663 0.2354747
vn -0.128555 -0.8846511 0.448181
vn -0.5290003 -0.6760718 0.5129188
vn -0.4209068 -0.001888799 0.9071019
vn 0.0203376 0.7534122 0.6572339
vn -0.2479372 0.7842787 0.5687127
vn -0.2180696 0.8677194 0.446664
vn -0.1832464 0.9823109 -0.03854926
vn -0.1040792 0.9945673 -0.001869869
vn -0.1540322 0.9875266 -0.03263776
vn -0.1740256 0.6535854 -0.7365739
vn -0.1030317 0.6101593 -0.7855507
vn 0.007650798 0.5324472 -0.8464286
vn 0.4136315 -0.3449843 -0.8425525
vn -0.05974021 -0.02043232 -0.9980049
vn -0.1315323 -0.001981565 -0.9913099
vn -0.2200955 -0.7327036 -0.6439748
vn 0.144155 -0.8461332 -0.5131063
vn 0.6825477 -0.7282472 0.06151936
vn 0.0548036 -0.9984689 0.007505824
vn -0.3537364 -0.9352524 0.01317931
vn -0.5290003 -0.6760718 0.5129188
vn 0.7038224 -0.7103589 0.004920905
vn -0.128555 -0.8846511 0.448181
vn 0.8202887 -0.2181703 0.5287041
vn -0.3887406 -0.08525064 0.9173948
vn -0.3887406 -0.08525065 0.9173948
vn -0.002549396 0.1776875 0.9840837
vn -0.04735525 -0.9974124 0.0540921
vn 0.4635719 0.6381377 0.6147205
vn -0.002549396 0.1776875 0.9840837
vn 0.4635719 0.6381377 0.6147205
vn 0.6600035 -0.3990911 -0.6364917
vn -0.04735525 -0.9974124 0.0540921
vn 0.1944838 -0.5671119 -0.80035
vn 0.1944838 -0.5671119 -0.80035
vn 0.08112602 0.0007208004 0.9967036
vn 0.08112603 0.0007208004 0.9967036
vn 0.3090854 0.610108 0.729544
vn 0.07434532 -0.4163546 0.9061576
vn 0.778756 0.2523731 0.5743229
vn 0.4554502 -0.5038795 0.7339417
vn 0.7439579 0.2218543 -0.6303231
vn 0.3803754 0.6009234 -0.7029976
vn 0.3142002 0.9418014 0.1195341
vn 0.2227743 0.9625434 0.1545369
vn -0.1159787 0.9925293 -0.03787355
vn 0.3087331 0.9367243 -0.1650195
vn 0.08088111 0.7167052 -0.6926702
vn 0.434641 0.6034443 0.6685373
vn 0.5681145 0.593878 0.5696974
vn 0.2640235 0.6257362 -0.7339929
vn 0.8016806 0.307769 0.512432
vn 0.6802317 0.3208202 -0.6590594
vn 0.2498419 0.7038211 -0.6649925
vn 0.8734179 0.2178432 0.4355291
vn 0.7139595 0.2641963 -0.6484305
vn 0.09459208 -0.9672663 0.2354747
vn 0.9120877 -0.00217741 -0.4099896
vn 0.8202887 -0.2181703 0.5287041
vn -0.128555 -0.8846511 0.448181
vn 0.10016 -0.5210046 -0.8476568
vn 0.3876612 -0.6349727 -0.6682279
vn 0.7439579 0.2218543 -0.6303231
vn 0.3803754 0.6009234 -0.7029976
vn 0.1759376 -0.05712954 -0.9827421
vn 0.3142002 0.9418014 0.1195341
vn 0.778756 0.2523731 0.5743229
vn 0.7439579 0.2218543 -0.6303231
vn 0.3876612 -0.6349727 -0.6682279
vn 0.4554502 -0.5038795 0.7339417
vn 0.07434532 -0.4163546 0.9061576
vn 0.10016 -0.5210046 -0.8476568
vn 0.03000452 -0.9994356 -0.01510269
vn 0.03000452 -0.9994356 -0.01510269
vn 0.8016806 0.307769 0.512432
vn 0.4742121 -0.6303021 0.6146886
vn 0.1522599 -0.4794373 0.8642667
vn 0.434641 0.6034443 0.6685373
vn 0.214413 0.04790056 0.9755678
vn 0.3142002 0.9418014 0.1195341
vn -0.1058079 -0.5367853 -0.837058
vn 0.308554 -0.6314437 -0.7113883
vn 0.6802317 0.3208202 -0.6590594
vn 0.2640235 0.6257362 -0.7339929
vn -0.07397315 -0.03634541 -0.9965977
vn 0.3087331 0.9367243 -0.1650195
vn 0.8734179 0.2178432 0.4355291
vn 0.5651914 -0.6395472 0.521093
vn 0.4130678 -0.4832743 0.7718945
vn 0.5681145 0.593878 0.5696974
vn 0.4866894 0.02088921 0.8733253
vn 0.3087331 0.9367243 -0.1650195
vn 0.8016806 0.307769 0.512432
vn 0.6802317 0.3208202 -0.6590594
vn 0.308554 -0.6314437 -0.7113883
vn 0.4742121 -0.6303021 0.6146886
vn -0.1058079 -0.5367853 -0.837058
vn 0.1522599 -0.4794373 0.8642667
vn 0.04293103 -0.9990459 0.008004937
vn 0.04293103 -0.9990459 0.008004936
vn 0.1428478 -0.9895806 0.01802065
vn 0.1428478 -0.9895806 0.01802065
vn 0.4130678 -0.4832743 0.7718945
vn -0.06716809 -0.5056908 -0.8600962
vn 0.5651914 -0.6395472 0.521093
vn 0.350922 -0.6120818 -0.7086675
vn 0.8734179 0.2178432 0.4355291
vn 0.7139595 0.2641963 -0.6484305
vn 0.7139595 0.2641963 -0.6484305
vn 0.2498419 0.7038211 -0.6649925
vn 0.08088111 0.7167052 -0.6926702
vn -0.07155164 0.0222747 -0.9971882
vn 0.8108223 0.4424103 0.3831974
vn 0.8329955 -0.3172418 0.4532948
vn 0.8182116 -0.2254403 0.5288728
vn 0.8076384 0.4711106 0.3546479
vn 0.7657325 0.6402574 0.06102593
vn 0.7736515 0.6299276 0.06822418
vn 0.9317342 0.3630155 -0.009547382
vn 0.8939582 0.443298 0.06576904
vn 0.98239 -0.1673696 -0.08304887
vn 0.9616141 -0.2743966 -0.002200138
vn 0.9042898 -0.425959 0.02861633
vn 0.9030778 -0.4285589 0.02806696
vn 0.8182105 -0.573051 0.04630613
vn 0.8120245 -0.581053 0.05471335
vn 0.8329955 -0.3172418 0.4532948
vn 0.8182116 -0.2254403 0.5288728
g Red_Glove_R_0
f 3/3/3 2/2/2 1/1/1
f 1/1/1 4/4/4 3/3/3
f 5/5/5 3/3/3 4/4/4
f 4/4/4 6/6/6 5/5/5
f 7/7/7 6/6/6 4/4/4
f 4/4/4 8/8/8 7/7/7
f 1/1/1 9/9/9 4/4/4
f 10/10/10 8/8/8 4/4/4
f 9/9/9 11/11/11 4/4/4
f 4/4/4 11/11/11 10/10/10
f 12/12/12 10/10/10 11/11/11
f 11/11/11 9/9/9 13/13/13
f 11/11/11 14/14/14 12/12/12
f 13/13/13 14/14/14 11/11/11
f 15/15/15 12/12/12 14/14/14
f 14/14/14 13/13/13 16/16/16
f 14/14/14 16/16/16 15/15/15
f 17/17/17 16/16/16 13/13/13
f 16/16/16 17/17/17 18/18/18
f 15/15/15 16/16/16 19/19/19
f 16/16/16 18/18/18 19/19/19
f 19/19/19 20/20/20 15/15/15
f 21/21/21 20/20/20 19/19/19
f 19/19/19 18/18/18 22/22/22
f 19/19/19 22/22/22 21/21/21
f 22/22/22 18/18/18 23/23/23
f 21/21/21 22/22/22 24/24/24
f 22/22/22 23/23/23 24/24/24
f 21/21/21 24/24/24 25/25/25
f 26/26/26 25/25/25 24/24/24
f 23/23/23 27/27/27 24/24/24
f 24/24/24 28/28/28 26/26/26
f 28/28/28 24/24/24 27/27/27
f 28/28/28 27/27/27 29/29/29
f 32/32/32 31/31/31 30/30/30
f 30/30/30 33/33/33 32/32/32
f 36/36/36 35/35/35 34/34/34
f 35/35/35 37/37/37 34/34/34
f 38/38/38 37/37/37 35/35/35
f 39/39/39 37/37/37 38/38/38
f 38/38/38 40/40/40 39/39/39
f 43/43/43 42/42/42 41/41/41
f 41/41/41 44/44/44 43/43/43
f 45/45/45 43/43/43 44/44/44
f 44/44/44 46/46/46 45/45/45
f 43/43/43 45/45/45 47/47/47
f 47/47/47 48/48/48 43/43/43
f 43/43/43 48/48/48 49/49/49
f 49/49/49 50/50/50 43/43/43
f 50/50/50 49/49/49 51/51/51
f 51/51/51 49/49/49 52/52/52
f 53/53/53 51/51/51 52/52/52
f 54/54/54 52/52/52 49/49/49
f 55/55/55 53/53/53 52/52/52
f 56/56/56 52/52/52 54/54/54
f 57/57/57 56/56/56 54/54/54
f 58/58/58 56/56/56 57/57/57
f 59/59/59 53/53/53 55/55/55
f 60/60/60 59/59/59 55/55/55
f 61/61/61 59/59/59 60/60/60
f 64/64/64 63/63/63 62/62/62
f 64/64/64 62/62/62 65/65/65
f 68/68/68 67/67/67 66/66/66
f 69/69/69 68/68/68 66/66/66
f 69/69/69 66/66/66 70/70/70
f 71/71/71 69/69/69 70/70/70
f 74/74/74 73/73/73 72/72/72
f 75/75/75 74/74/74 72/72/72
f 76/76/76 74/74/74 75/75/75
f 77/77/77 74/74/74 76/76/76
f 78/78/78 77/77/77 76/76/76
f 79/79/79 77/77/77 78/78/78
f 82/82/82 81/81/81 80/80/80
f 83/83/83 82/82/82 80/80/80
f 84/84/84 82/82/82 83/83/83
f 85/85/85 84/84/84 83/83/83
f 88/88/88 87/87/87 86/86/86
f 89/89/89 88/88/88 86/86/86
f 89/89/89 86/86/86 90/90/90
f 91/91/91 89/89/89 90/90/90
f 94/94/94 93/93/93 92/92/92
f 92/92/92 95/95/95 94/94/94
f 96/96/96 94/94/94 95/95/95
f 96/96/96 95/95/95 97/97/97
f 100/100/100 99/99/99 98/98/98
f 98/98/98 101/101/101 100/100/100
f 102/102/102 100/100/100 101/101/101
f 103/103/103 102/102/102 101/101/101
f 104/104/104 102/102/102 103/103/103
f 103/103/103 105/105/105 104/104/104
f 108/108/108 107/107/107 106/106/106
f 106/106/106 109/109/109 108/108/108
f 108/108/108 109/109/109 110/110/110
f 109/109/109 111/111/111 110/110/110
f 112/112/112 110/110/110 111/111/111
f 111/111/111 113/113/113 112/112/112
f 114/114/114 111/111/111 109/109/109
f 115/115/115 114/114/114 109/109/109
f 116/116/116 115/115/115 109/109/109
f 116/116/116 109/109/109 117/117/117
f 120/120/120 119/119/119 118/118/118
f 119/119/119 121/121/121 118/118/118
f 122/122/122 118/118/118 121/121/121
f 121/121/121 123/123/123 122/122/122
f 122/122/122 123/123/123 124/124/124
f 124/124/124 125/125/125 122/122/122
f 125/125/125 124/124/124 126/126/126
f 126/126/126 127/127/127 125/125/125
f 127/127/127 126/126/126 128/128/128
f 126/126/126 129/129/129 128/128/128
f 128/128/128 129/129/129 130/130/130
f 130/130/130 131/131/131 128/128/128
f 131/131/131 130/130/130 132/132/132
f 132/132/132 133/133/133 131/131/131
