g Red_Stripe
v 11.70383 3.488044 10.45718
v 9.303973 5.486553 10.91355
v 11.70383 5.449196 10.45718
v 9.303975 3.450687 10.91355
v 9.289183 5.413377 10.84173
v 9.289185 3.523863 10.84172
v 9.318282 3.464563 -3.028612
v 9.323936 3.537738 -2.955673
v 9.318281 5.472678 -3.028612
v 9.323936 5.399502 -2.955673
v 9.303973 5.486553 10.91355
v 9.318281 5.472678 -3.028612
v 11.70383 5.449196 10.45718
v 11.7188 5.436033 -3.251729
v 11.7188 5.436033 -3.251729
v 11.7188 3.501208 -3.251729
v 11.72445 5.362857 -3.178789
v 11.68904 5.376021 10.38535
v 11.72445 3.574383 -3.178789
v 11.68904 3.561219 10.38535
v -11.70383 3.488044 10.45718
v -11.70383 5.449196 10.45718
v -9.303973 5.486553 10.91355
v -9.303975 3.450687 10.91355
v -9.289183 5.413377 10.84173
v -9.289185 3.523863 10.84172
v -9.318282 3.464563 -3.028612
v -9.323936 3.537738 -2.955673
v -9.318281 5.472678 -3.028612
v -9.323936 5.399502 -2.955673
v -9.303973 5.486553 10.91355
v -9.318281 5.472678 -3.028612
v -11.70383 5.449196 10.45718
v -11.7188 5.436033 -3.251729
v -11.7188 5.436033 -3.251729
v -11.7188 3.501208 -3.251729
v -11.72445 5.362857 -3.178789
v -11.68904 5.376021 10.38535
v -11.72445 3.574383 -3.178789
v -11.68904 3.561219 10.38535
vt 0.449469 0.1192836
vt 0.509427 0.1192836
vt 0.449469 0.1192836
vt 0.509427 0.1192836
vt 0.509427 0.1192836
vt 0.509427 0.1192836
vt 0.509427 0.5026306
vt 0.509427 0.5026306
vt 0.509427 0.5026306
vt 0.509427 0.5026306
vt 0.509427 0.1192836
vt 0.509427 0.5026306
vt 0.449469 0.1192836
vt 0.449469 0.5026306
vt 0.449469 0.5026306
vt 0.449469 0.5026306
vt 0.449469 0.5026306
vt 0.449469 0.1192836
vt 0.449469 0.5026306
vt 0.449469 0.1192836
vt 0.449469 0.1192836
vt 0.449469 0.1192836
vt 0.509427 0.1192836
vt 0.509427 0.1192836
vt 0.509427 0.1192836
vt 0.509427 0.1192836
vt 0.509427 0.5026306
vt 0.509427 0.5026306
vt 0.509427 0.5026306
vt 0.509427 0.5026306
vt 0.509427 0.1192836
vt 0.509427 0.5026306
vt 0.449469 0.1192836
vt 0.449469 0.5026306
vt 0.449469 0.5026306
vt 0.449469 0.5026306
vt 0.449469 0.5026306
vt 0.449469 0.1192836
vt 0.449469 0.5026306
vt 0.449469 0.1192836
vn 0.8724879 -0.3753158 0.3128943
vn -0.7452247 0.4458437 0.4958464
vn 0.8724881 0.3753156 0.3128944
vn -0.7452241 -0.445845 0.4958459
vn -0.9944432 0.03132276 0.100506
vn -0.9944432 -0.03132413 0.100506
vn -0.8275188 -0.4241438 -0.3678513
vn -0.9987993 -0.03118405 0.0377828
vn -0.827519 0.4241434 -0.3678515
vn -0.9987993 0.03118348 0.03778275
vn -0.7452247 0.4458437 0.4958464
vn -0.827519 0.4241434 -0.3678515
vn 0.8724881 0.3753156 0.3128944
vn 0.8028311 0.3924974 -0.4487852
vn 0.8028311 0.3924974 -0.4487852
vn 0.8028311 -0.3924974 -0.4487852
vn 0.9988009 -0.03118351 -0.03774036
vn 0.9944476 -0.03132319 -0.100463
vn 0.9988009 0.03118358 -0.03774035
vn 0.9944476 0.03132339 -0.100463
vn -0.8724879 -0.3753158 0.3128943
vn -0.8724881 0.3753156 0.3128944
vn 0.7452247 0.4458437 0.4958464
vn 0.7452241 -0.445845 0.4958459
vn 0.9944432 0.03132276 0.100506
vn 0.9944432 -0.03132414 0.100506
vn 0.8275189 -0.4241438 -0.3678512
vn 0.9987993 -0.03118407 0.03778296
vn 0.827519 0.4241434 -0.3678514
vn 0.9987993 0.03118348 0.03778291
vn 0.7452247 0.4458437 0.4958464
vn 0.827519 0.4241434 -0.3678514
vn -0.8724881 0.3753156 0.3128944
vn -0.8028311 0.3924974 -0.4487852
vn -0.8028311 0.3924974 -0.4487852
vn -0.8028311 -0.3924974 -0.4487852
vn -0.9988009 -0.03118351 -0.03774036
vn -0.9944476 -0.03132319 -0.100463
vn -0.9988009 0.03118358 -0.03774035
vn -0.9944476 0.03132339 -0.100463
g Red_Stripe_0
f 3/3/3 2/2/2 1/1/1
f 2/2/2 4/4/4 1/1/1
f 4/4/4 2/2/2 5/5/5
f 6/6/6 4/4/4 5/5/5
f 7/7/7 4/4/4 6/6/6
f 8/8/8 7/7/7 6/6/6
f 9/9/9 7/7/7 8/8/8
f 10/10/10 9/9/9 8/8/8
f 5/5/5 11/11/11 10/10/10
f 11/11/11 12/12/12 10/10/10
f 12/12/12 11/11/11 13/13/13
f 7/7/7 9/9/9 14/14/14
f 15/15/15 12/12/12 13/13/13
f 4/4/4 7/7/7 16/16/16
f 16/16/16 7/7/7 14/14/14
f 1/1/1 4/4/4 16/16/16
f 16/16/16 14/14/14 17/17/17
f 17/17/17 15/15/15 18/18/18
f 15/15/15 13/13/13 18/18/18
f 19/19/19 16/16/16 17/17/17
f 1/1/1 16/16/16 19/19/19
f 18/18/18 13/13/13 20/20/20
f 20/20/20 1/1/1 19/19/19
f 13/13/13 1/1/1 20/20/20
f 23/23/23 22/22/22 21/21/21
f 24/24/24 23/23/23 21/21/21
f 23/23/23 24/24/24 25/25/25
f 24/24/24 26/26/26 25/25/25
f 24/24/24 27/27/27 26/26/26
f 27/27/27 28/28/28 26/26/26
f 27/27/27 29/29/29 28/28/28
f 29/29/29 30/30/30 28/28/28
f 31/31/31 25/25/25 30/30/30
f 32/32/32 31/31/31 30/30/30
f 31/31/31 32/32/32 33/33/33
f 29/29/29 27/27/27 34/34/34
f 32/32/32 35/35/35 33/33/33
f 27/27/27 24/24/24 36/36/36
f 27/27/27 36/36/36 34/34/34
f 24/24/24 21/21/21 36/36/36
f 34/34/34 36/36/36 37/37/37
f 35/35/35 37/37/37 38/38/38
f 33/33/33 35/35/35 38/38/38
f 36/36/36 39/39/39 37/37/37
f 36/36/36 21/21/21 39/39/39
f 33/33/33 38/38/38 40/40/40
f 21/21/21 40/40/40 39/39/39
f 21/21/21 33/33/33 40/40/40
