g RedAntenna
v -18.45082 16.87912 -0.04056713
v -17.82783 16.87912 -0.04056713
v -17.82783 13.83567 -0.04056713
v -18.45082 13.83567 -0.04056713
v -18.45082 16.87912 -0.6635638
v -18.45082 13.83567 -0.6635638
v -18.45082 13.83567 -0.6635638
v -17.82783 16.87912 -0.6635638
v -18.45082 16.87912 -0.6635638
v -17.82783 13.83567 -0.6635638
v -17.82783 16.87912 -0.04056713
v -17.82783 13.83567 -0.04056713
v -17.82783 16.87912 -0.6635638
v -17.82783 16.87912 -0.04056713
v -18.45082 16.87912 -0.04056713
v -18.45082 16.87912 -0.6635638
v -19.74771 12.83034 0.4591483
v -19.51219 13.96837 1.027741
v -19.51219 12.83034 1.027741
v -19.74771 13.96837 0.4591483
v -19.74771 13.96837 -1.149395
v -19.74771 12.83034 -1.149395
v -19.51219 12.83034 -1.717987
v -19.51219 13.96837 -1.717987
v -19.51219 12.83034 1.027741
v -19.51219 13.96837 1.027741
v -18.9436 13.96837 1.263259
v -18.9436 12.83034 1.263259
v -17.33506 12.83034 1.263259
v -17.33506 13.96837 1.263259
v -16.76646 13.96837 1.027741
v -16.76646 12.83034 1.027741
v -16.76646 12.83034 1.027741
v -16.76646 13.96837 1.027741
v -16.53094 13.96837 0.4591483
v -16.53094 12.83034 0.4591483
v -16.53094 12.83034 -1.149395
v -16.53094 13.96837 -1.149395
v -16.76646 13.96837 -1.717987
v -16.76646 12.83034 -1.717987
v -19.51219 13.96837 -1.717987
v -19.51219 12.83034 -1.717987
v -18.9436 12.83034 -1.953506
v -18.9436 13.96837 -1.953506
v -17.33506 13.96837 -1.953506
v -17.33506 12.83034 -1.953506
v -16.76646 12.83034 -1.717987
v -16.76646 13.96837 -1.717987
v -19.51219 13.96837 -1.717987
v -18.9436 13.96837 -1.953506
v -17.33506 13.96837 -1.953506
v -16.76646 13.96837 -1.717987
v -19.74771 13.96837 -1.149395
v -16.53094 13.96837 -1.149395
v -19.74771 13.96837 0.4591483
v -16.53094 13.96837 0.4591483
v -19.51219 13.96837 1.027741
v -16.76646 13.96837 1.027741
v -18.9436 13.96837 1.263259
v -17.33506 13.96837 1.263259
v -17.85664 16.76111 -1.198425
v -17.7324 16.63047 -0.2454233
v -17.25869 17.04222 -0.984863
v -18.15657 17.44141 -1.721723
v -17.31095 17.83897 -1.419701
v -18.45651 18.27286 -1.508777
v -17.85856 18.55397 -1.295215
v -18.58074 18.7684 -0.6843271
v -19.05445 18.09862 -1.201735
v -18.58074 18.7684 -0.6843271
v -19.00219 17.19501 -1.2875
v -18.45458 16.58688 -0.8913831
v -17.7324 16.63047 -0.2454233
v -19.30213 18.13333 -0.5539508
v -18.58074 18.7684 -0.6843271
v -19.35246 17.24409 -0.3713952
v -18.70226 16.62158 -0.2435989
v -17.7324 16.63047 -0.2454233
v -19.05445 18.35665 0.05511257
v -18.58074 18.7684 -0.6843271
v -19.00219 17.55991 0.4899504
v -18.45458 16.8449 0.3654644
v -17.7324 16.63047 -0.2454233
v -18.45651 18.63776 0.2686742
v -18.58074 18.7684 -0.6843271
v -18.15657 17.95746 0.7919723
v -17.85664 17.12601 0.579026
v -17.7324 16.63047 -0.2454233
v -17.85856 18.81199 -0.03836742
v -18.58074 18.7684 -0.6843271
v -17.31095 18.20387 0.3577499
v -17.25869 17.30025 0.2719845
v -17.7324 16.63047 -0.2454233
v -17.61088 18.77729 -0.6861515
v -18.58074 18.7684 -0.6843271
v -16.96068 18.15478 -0.5583553
v -17.85856 18.55397 -1.295215
v -18.58074 18.7684 -0.6843271
v -17.31095 17.83897 -1.419701
v -17.01101 17.26554 -0.3757996
v -17.7324 16.63047 -0.2454233
v -17.25869 17.04222 -0.984863
v -17.7324 16.63047 -0.2454233
vt 0.2104671 0.7436299
vt 0.2133467 0.7436298
vt 0.2077023 0.7436298
vt 0.2048227 0.7436299
vt 0.2094706 0.7499059
vt 0.2094706 0.7499059
vt 0.2094706 0.7499059
vt 0.2123502 0.7452963
vt 0.2094706 0.7499059
vt 0.2123502 0.7452963
vt 0.2133467 0.7436298
vt 0.2077023 0.7436298
vt 0.2921284 0.6752703
vt 0.2174086 0.6752703
vt 0.2174086 0.7390582
vt 0.2921284 0.7390582
vt 0.02102475 0.6484501
vt 0.0266692 0.6468208
vt 0.02102475 0.6468208
vt 0.0266692 0.6484501
vt 0.0266692 0.6530595
vt 0.02102475 0.6530595
vt 0.02102475 0.6546887
vt 0.0266692 0.6546887
vt 0.02889144 0.6453959
vt 0.03453594 0.6453959
vt 0.03453594 0.6437666
vt 0.02889144 0.6437666
vt 0.02889144 0.6391572
vt 0.03453594 0.6391572
vt 0.03453594 0.6375279
vt 0.02889144 0.6375279
vt 0.02678403 0.6546886
vt 0.03242832 0.6546886
vt 0.03242832 0.6530592
vt 0.02678403 0.6530592
vt 0.02678403 0.6484502
vt 0.03242832 0.6484502
vt 0.03242832 0.6468208
vt 0.02678403 0.6468208
vt 0.03254294 0.6533384
vt 0.03818727 0.6533384
vt 0.03818727 0.6517094
vt 0.03254294 0.6517094
vt 0.03254294 0.6470995
vt 0.03818727 0.6470995
vt 0.03818727 0.6454705
vt 0.03254294 0.6454705
vt 0.1174225 0.6459372
vt 0.124716 0.6309074
vt 0.124716 0.5883781
vt 0.1174225 0.5733483
vt 0.09981176 0.652166
vt 0.09981176 0.5671194
vt 0.04999618 0.652166
vt 0.04999618 0.5671194
vt 0.03238546 0.6459372
vt 0.03238546 0.5733483
vt 0.02509196 0.6309074
vt 0.02509196 0.5883781
vt 0.148984 0.5928682
vt 0.1455941 0.5793083
vt 0.1422041 0.5928682
vt 0.148984 0.606428
vt 0.1422041 0.606428
vt 0.148984 0.6199879
vt 0.1422041 0.6199879
vt 0.1455941 0.6335478
vt 0.155764 0.6199879
vt 0.152374 0.6335478
vt 0.155764 0.606428
vt 0.155764 0.5928682
vt 0.152374 0.5793083
vt 0.1625439 0.6199879
vt 0.1591539 0.6335478
vt 0.1625439 0.606428
vt 0.1625439 0.5928682
vt 0.1591539 0.5793083
vt 0.1693238 0.6199879
vt 0.1659339 0.6335478
vt 0.1693238 0.606428
vt 0.1693238 0.5928682
vt 0.1659339 0.5793083
vt 0.1761038 0.6199879
vt 0.1727138 0.6335478
vt 0.1761038 0.606428
vt 0.1761038 0.5928682
vt 0.1727138 0.5793083
vt 0.1828837 0.6199879
vt 0.1794937 0.6335478
vt 0.1828837 0.606428
vt 0.1828837 0.5928682
vt 0.1794937 0.5793083
vt 0.1896637 0.6199879
vt 0.1862737 0.6335478
vt 0.1896637 0.606428
vt 0.1964436 0.6199879
vt 0.1930537 0.6335478
vt 0.1964436 0.606428
vt 0.1896637 0.5928682
vt 0.1862737 0.5793083
vt 0.1964436 0.5928682
vt 0.1930537 0.5793083
vn -0.5773503 0.5773503 0.5773503
vn 0.5773503 0.5773503 0.5773503
vn 0.7071068 0 0.7071068
vn -0.7071068 0 0.7071068
vn -0.5773503 0.5773503 -0.5773503
vn -0.7071068 0 -0.7071068
vn -0.7071068 0 -0.7071068
vn 0.5773503 0.5773503 -0.5773503
vn -0.5773503 0.5773503 -0.5773503
vn 0.7071068 0 -0.7071068
vn 0.5773503 0.5773503 0.5773503
vn 0.7071068 0 0.7071068
vn 0.5773503 0.5773503 -0.5773503
vn 0.5773503 0.5773503 0.5773503
vn -0.5773503 0.5773503 0.5773503
vn -0.5773503 0.5773503 -0.5773503
vn -0.9807851 0 0.1950914
vn -0.3708265 0.8514547 0.3708268
vn -0.7071064 0 0.7071071
vn -0.5367401 0.8369656 0.1067648
vn -0.5367401 0.8369656 -0.1067648
vn -0.9807851 0 -0.1950913
vn -0.7071065 0 -0.7071071
vn -0.3708265 0.8514547 -0.3708268
vn -0.7071064 0 0.7071071
vn -0.3708265 0.8514547 0.3708268
vn -0.1366055 0.7139325 0.68676
vn -0.1950909 0 0.9807851
vn 0.1950894 0 0.9807854
vn 0.1738069 0.4541815 0.8737907
vn 0.370826 0.851455 0.3708268
vn 0.7071061 0 0.7071075
vn 0.7071061 0 0.7071075
vn 0.370826 0.851455 0.3708268
vn 0.5367402 0.8369655 0.1067643
vn 0.9807853 0 0.1950904
vn 0.9807853 0 -0.1950904
vn 0.5367402 0.8369655 -0.1067643
vn 0.370826 0.851455 -0.3708268
vn 0.7071061 0 -0.7071075
vn -0.3708265 0.8514547 -0.3708268
vn -0.7071065 0 -0.7071071
vn -0.1950909 0 -0.9807851
vn -0.1738083 0.4541816 -0.8737905
vn 0.1366044 0.7139324 -0.6867602
vn 0.1950894 0 -0.9807854
vn 0.7071061 0 -0.7071075
vn 0.370826 0.851455 -0.3708268
vn -0.3708265 0.8514547 -0.3708268
vn -0.1738083 0.4541816 -0.8737905
vn 0.1366044 0.7139324 -0.6867602
vn 0.370826 0.851455 -0.3708268
vn -0.5367401 0.8369656 -0.1067648
vn 0.5367402 0.8369655 -0.1067643
vn -0.5367401 0.8369656 0.1067648
vn 0.5367402 0.8369655 0.1067643
vn -0.3708265 0.8514547 0.3708268
vn 0.370826 0.851455 0.3708268
vn -0.1366055 0.7139325 0.68676
vn 0.1738069 0.4541815 0.8737907
vn 0.2671786 -0.8091413 -0.5233601
vn 0.3622934 -0.9130227 0.1874382
vn 0.7123043 -0.599875 -0.3643798
vn 0 -0.2010995 -0.9795709
vn 0.6590685 0.1087477 -0.7441791
vn -0.2671782 0.5375016 -0.7998173
vn 0.1779475 0.7467679 -0.6408372
vn -0.3622932 0.9130227 -0.187438
vn -0.7123041 0.4077967 -0.5712485
vn -0.3622932 0.9130227 -0.187438
vn -0.6590688 -0.3931454 -0.6411435
vn -0.1779474 -0.9388466 -0.294791
vn 0.3622934 -0.9130227 0.1874382
vn -0.8966816 0.4336327 -0.0890219
vn -0.3622932 0.9130227 -0.187438
vn -0.9320641 -0.3548923 0.07285714
vn -0.3623247 -0.9130108 0.1874357
vn 0.3622934 -0.9130227 0.1874382
vn -0.7123043 0.599875 0.3643798
vn -0.3622932 0.9130227 -0.187438
vn -0.6590686 -0.1087479 0.7441791
vn -0.1779474 -0.7467681 0.6408371
vn 0.3622934 -0.9130227 0.1874382
vn -0.2671787 0.8091415 0.52336
vn -0.3622932 0.9130227 -0.187438
vn 0 0.2010994 0.9795709
vn 0.2671784 -0.5375016 0.7998173
vn 0.3622934 -0.9130227 0.1874382
vn 0.1779474 0.9388466 0.2947909
vn -0.3622932 0.9130227 -0.187438
vn 0.6590689 0.3931453 0.6411436
vn 0.7123042 -0.4077965 0.5712484
vn 0.3622934 -0.9130227 0.1874382
vn 0.3623247 0.9130107 -0.1874358
vn -0.3622932 0.9130227 -0.187438
vn 0.9320641 0.354892 -0.07285746
vn 0.1779475 0.7467679 -0.6408372
vn -0.3622932 0.9130227 -0.187438
vn 0.6590685 0.1087477 -0.7441791
vn 0.8966816 -0.4336326 0.08902206
vn 0.3622934 -0.9130227 0.1874382
vn 0.7123043 -0.599875 -0.3643798
vn 0.3622934 -0.9130227 0.1874382
g RedAntenna_0
f 3/3/3 2/2/2 1/1/1
f 4/4/4 3/3/3 1/1/1
f 4/4/4 1/1/1 5/5/5
f 6/6/6 4/4/4 5/5/5
f 9/9/9 8/8/8 7/7/7
f 8/8/8 10/10/10 7/7/7
f 10/10/10 8/8/8 11/11/11
f 12/12/12 10/10/10 11/11/11
f 15/15/15 14/14/14 13/13/13
f 16/16/16 15/15/15 13/13/13
f 19/19/19 18/18/18 17/17/17
f 18/18/18 20/20/20 17/17/17
f 17/17/17 20/20/20 21/21/21
f 22/22/22 17/17/17 21/21/21
f 23/23/23 22/22/22 21/21/21
f 24/24/24 23/23/23 21/21/21
f 27/27/27 26/26/26 25/25/25
f 28/28/28 27/27/27 25/25/25
f 28/28/28 29/29/29 27/27/27
f 29/29/29 30/30/30 27/27/27
f 31/31/31 30/30/30 29/29/29
f 32/32/32 31/31/31 29/29/29
f 35/35/35 34/34/34 33/33/33
f 36/36/36 35/35/35 33/33/33
f 36/36/36 37/37/37 35/35/35
f 37/37/37 38/38/38 35/35/35
f 38/38/38 37/37/37 39/39/39
f 37/37/37 40/40/40 39/39/39
f 43/43/43 42/42/42 41/41/41
f 44/44/44 43/43/43 41/41/41
f 44/44/44 45/45/45 43/43/43
f 45/45/45 46/46/46 43/43/43
f 47/47/47 46/46/46 45/45/45
f 48/48/48 47/47/47 45/45/45
f 51/51/51 50/50/50 49/49/49
f 49/49/49 52/52/52 51/51/51
f 49/49/49 53/53/53 52/52/52
f 53/53/53 54/54/54 52/52/52
f 53/53/53 55/55/55 54/54/54
f 55/55/55 56/56/56 54/54/54
f 55/55/55 57/57/57 56/56/56
f 57/57/57 58/58/58 56/56/56
f 57/57/57 59/59/59 58/58/58
f 59/59/59 60/60/60 58/58/58
f 63/63/63 62/62/62 61/61/61
f 61/61/61 64/64/64 63/63/63
f 64/64/64 65/65/65 63/63/63
f 64/64/64 66/66/66 65/65/65
f 66/66/66 67/67/67 65/65/65
f 66/66/66 68/68/68 67/67/67
f 69/69/69 66/66/66 64/64/64
f 69/69/69 70/70/70 66/66/66
f 71/71/71 64/64/64 61/61/61
f 71/71/71 69/69/69 64/64/64
f 72/72/72 71/71/71 61/61/61
f 61/61/61 73/73/73 72/72/72
f 74/74/74 69/69/69 71/71/71
f 74/74/74 75/75/75 69/69/69
f 76/76/76 71/71/71 72/72/72
f 76/76/76 74/74/74 71/71/71
f 77/77/77 76/76/76 72/72/72
f 72/72/72 78/78/78 77/77/77
f 79/79/79 74/74/74 76/76/76
f 79/79/79 80/80/80 74/74/74
f 81/81/81 76/76/76 77/77/77
f 81/81/81 79/79/79 76/76/76
f 82/82/82 81/81/81 77/77/77
f 77/77/77 83/83/83 82/82/82
f 84/84/84 79/79/79 81/81/81
f 84/84/84 85/85/85 79/79/79
f 86/86/86 81/81/81 82/82/82
f 86/86/86 84/84/84 81/81/81
f 87/87/87 86/86/86 82/82/82
f 82/82/82 88/88/88 87/87/87
f 89/89/89 84/84/84 86/86/86
f 89/89/89 90/90/90 84/84/84
f 91/91/91 86/86/86 87/87/87
f 91/91/91 89/89/89 86/86/86
f 92/92/92 91/91/91 87/87/87
f 87/87/87 93/93/93 92/92/92
f 94/94/94 89/89/89 91/91/91
f 94/94/94 95/95/95 89/89/89
f 96/96/96 91/91/91 92/92/92
f 96/96/96 94/94/94 91/91/91
f 97/97/97 94/94/94 96/96/96
f 97/97/97 98/98/98 94/94/94
f 99/99/99 97/97/97 96/96/96
f 100/100/100 96/96/96 92/92/92
f 99/99/99 96/96/96 100/100/100
f 92/92/92 101/101/101 100/100/100
f 102/102/102 99/99/99 100/100/100
f 100/100/100 103/103/103 102/102/102
