g RedCrystal
v 0 6.398216 19.65004
v -1.472023 8.962731 17.83289
v 1.472023 8.962731 17.83289
v 0 6.398216 19.65004
v -2.671158 6.595754 17.98899
v -1.472023 8.962731 17.83289
v 0 6.398216 19.65004
v -1.570067 4.233105 17.86808
v -2.671158 6.595754 17.98899
v 0 6.398216 19.65004
v 1.570069 4.233105 17.86808
v -1.570067 4.233105 17.86808
v 0 6.398216 19.65004
v 2.671157 6.595754 17.98899
v 1.570069 4.233105 17.86808
v 0 6.398216 19.65004
v 1.472023 8.962731 17.83289
v 2.671157 6.595754 17.98899
v -1.472023 8.962731 17.83289
v 0.01004488 6.614154 16.21596
v 1.472023 8.962731 17.83289
v -2.671158 6.595754 17.98899
v -1.570067 4.233105 17.86808
v 0.01004488 6.614154 16.21596
v 0.01004488 6.614154 16.21596
v 2.671157 6.595754 17.98899
v 1.472023 8.962731 17.83289
v 1.570069 4.233105 17.86808
v 2.671157 6.595754 17.98899
v 0.01004488 6.614154 16.21596
v -1.570067 4.233105 17.86808
v 1.570069 4.233105 17.86808
v 0.01004488 6.614154 16.21596
v -1.472023 8.962731 17.83289
v -2.671158 6.595754 17.98899
v 0.01004488 6.614154 16.21596
vt 0.944411 0.6833842
vt 0.9424482 0.6896797
vt 0.9463741 0.6896797
vt 0.834953 0.6835329
vt 0.8286009 0.683787
vt 0.8329901 0.6898283
vt 0.7461784 0.7083366
vt 0.7424447 0.7034517
vt 0.7398263 0.7085907
vt 0.5557858 0.6733981
vt 0.5595195 0.6685132
vt 0.5520521 0.6685132
vt 0.6477382 0.6787775
vt 0.6540905 0.6790316
vt 0.6514719 0.6738926
vt 0.7391332 0.6743194
vt 0.7410963 0.6806148
vt 0.7454855 0.6745736
vt 0.7537236 0.6525531
vt 0.7582079 0.6611804
vt 0.7626313 0.6525531
vt 0.9650082 0.6530432
vt 0.9650078 0.6450509
vt 0.9558705 0.6493778
vt 0.8545483 0.6561515
vt 0.8484535 0.6561507
vt 0.8505458 0.6607645
vt 0.6662418 0.709873
vt 0.6612684 0.7098725
vt 0.6635329 0.7155311
vt 0.8352855 0.7126438
vt 0.8215964 0.7126438
vt 0.8283972 0.7252777
vt 0.6344557 0.6808839
vt 0.6429554 0.6621781
vt 0.6181074 0.662181
vn 0 -0.02042103 0.9997914
vn -0.4917794 0.8699684 0.03616896
vn 0.4904271 0.8706288 0.038558
vn 0 -0.02042103 0.9997914
vn -0.9989805 0.02890686 0.03467402
vn -0.4917794 0.8699684 0.03616896
vn 0 -0.02042103 0.9997914
vn -0.5024846 -0.8624521 -0.06070862
vn -0.9989805 0.02890686 0.03467402
vn 0 -0.02042103 0.9997914
vn 0.5012643 -0.8633158 -0.05847974
vn -0.5024846 -0.8624521 -0.06070862
vn 0 -0.02042103 0.9997914
vn 0.9987852 0.02892926 0.03988966
vn 0.5012643 -0.8633158 -0.05847974
vn 0 -0.02042103 0.9997914
vn 0.4904271 0.8706288 0.038558
vn 0.9987852 0.02892926 0.03988966
vn -0.4917794 0.8699684 0.03616896
vn 0.0008513862 -0.01088333 -0.9999404
vn 0.4904271 0.8706288 0.038558
vn -0.9989805 0.02890686 0.03467402
vn -0.5024846 -0.8624521 -0.06070862
vn 0.0008513862 -0.01088333 -0.9999404
vn 0.0008513862 -0.01088333 -0.9999404
vn 0.9987852 0.02892926 0.03988966
vn 0.4904271 0.8706288 0.038558
vn 0.5012643 -0.8633158 -0.05847974
vn 0.9987852 0.02892926 0.03988966
vn 0.0008513862 -0.01088333 -0.9999404
vn -0.5024846 -0.8624521 -0.06070862
vn 0.5012643 -0.8633158 -0.05847974
vn 0.0008513862 -0.01088333 -0.9999404
vn -0.4917794 0.8699684 0.03616896
vn -0.9989805 0.02890686 0.03467402
vn 0.0008513862 -0.01088333 -0.9999404
g RedCrystal_0
f 3/3/3 2/2/2 1/1/1
f 6/6/6 5/5/5 4/4/4
f 9/9/9 8/8/8 7/7/7
f 12/12/12 11/11/11 10/10/10
f 15/15/15 14/14/14 13/13/13
f 18/18/18 17/17/17 16/16/16
f 21/21/21 20/20/20 19/19/19
f 24/24/24 23/23/23 22/22/22
f 27/27/27 26/26/26 25/25/25
f 30/30/30 29/29/29 28/28/28
f 33/33/33 32/32/32 31/31/31
f 36/36/36 35/35/35 34/34/34
