g RedCircleSmall
v 1.284531 19.34327 4.323843
v 1.284531 20.00617 5.650713
v 0.7416245 20.49184 5.408074
v 0.7416245 19.82894 4.081203
v 2.81667E-15 20.66961 5.31926
v 2.50306E-15 20.0067 3.992391
v -0.7416245 20.49184 5.408074
v -0.7416245 19.82894 4.081203
v -1.284531 20.00617 5.650713
v -1.284531 19.34327 4.323843
v -1.483249 19.34274 5.982165
v -1.483249 18.67983 4.655296
v -1.284531 18.6793 6.313618
v -1.284531 18.0164 4.986749
v -0.7416245 18.19363 6.556258
v -0.7416245 17.53073 5.229388
v 3.151706E-15 18.01587 6.645071
v 2.838095E-15 17.35296 5.318201
v 0.7416245 18.19363 6.556258
v 0.7416245 17.53073 5.229388
v 1.284531 18.6793 6.313618
v 1.284531 18.0164 4.986749
v 1.483249 19.34274 5.982165
v 1.483249 18.67983 4.655296
v 1.284531 20.00617 5.650713
v 1.284531 20.00617 5.650713
v 2.984188E-15 19.34274 5.982165
v 0.7416245 20.49184 5.408074
v 1.483249 19.34274 5.982165
v 2.81667E-15 20.66961 5.31926
v 1.284531 18.6793 6.313618
v -0.7416245 20.49184 5.408074
v 0.7416245 18.19363 6.556258
v -1.284531 20.00617 5.650713
v 3.151706E-15 18.01587 6.645071
v -1.483249 19.34274 5.982165
v -0.7416245 18.19363 6.556258
v -1.284531 18.6793 6.313618
vt 0.02142011 0.2508188
vt 0.02142011 0.2517511
vt 0.02147175 0.2517511
vt 0.02147175 0.2508188
vt 0.0215234 0.2517511
vt 0.0215234 0.2508188
vt 0.02157508 0.2517511
vt 0.02157508 0.2508188
vt 0.02162673 0.2517511
vt 0.02162673 0.2508188
vt 0.0216784 0.2517511
vt 0.0216784 0.2508188
vt 0.02173005 0.2517511
vt 0.02173005 0.2508188
vt 0.0217817 0.2517511
vt 0.0217817 0.2508188
vt 0.02183338 0.2517511
vt 0.02183338 0.2508188
vt 0.02188505 0.2517511
vt 0.02188505 0.2508188
vt 0.02193667 0.2517511
vt 0.02193667 0.2508188
vt 0.02198835 0.2517511
vt 0.02198835 0.2508188
vt 0.02204002 0.2517511
vt 0.02448657 0.2088491
vt 0.02031636 0.2062488
vt 0.02272403 0.2106116
vt 0.02513173 0.2064414
vt 0.02031636 0.2112567
vt 0.02448657 0.2040337
vt 0.01790869 0.2106116
vt 0.02272403 0.2022712
vt 0.01614615 0.2088491
vt 0.02031636 0.2016261
vt 0.01550102 0.2064414
vt 0.01790869 0.2022712
vt 0.01614615 0.2040337
vn 0.8660256 0.4472846 -0.2234641
vn 0.6016691 0.6322032 0.4881737
vn 0.3473735 0.8596888 0.3745222
vn 0.5000004 0.7747198 -0.3870516
vn 0 0.9429544 0.3329221
vn 0 0.8945695 -0.4469288
vn -0.3473735 0.8596888 0.3745221
vn -0.5000004 0.7747198 -0.3870516
vn -0.6016691 0.6322032 0.4881737
vn -0.8660256 0.4472846 -0.2234641
vn -0.6947466 0.3214548 0.6434236
vn -1 0 0
vn -0.6016681 0.01070559 0.7986745
vn -0.8660253 -0.4472853 0.2234642
vn -0.3473736 -0.2167789 0.9123259
vn -0.5000003 -0.7747201 0.387051
vn 0 -0.3000436 0.9539255
vn 0 -0.8945699 0.4469281
vn 0.3473736 -0.2167789 0.9123259
vn 0.5000003 -0.7747201 0.387051
vn 0.6016681 0.01070557 0.7986745
vn 0.8660253 -0.4472853 0.2234642
vn 0.6947466 0.3214548 0.6434236
vn 1 0 0
vn 0.6016691 0.6322032 0.4881737
vn 0.6016691 0.6322032 0.4881737
vn 0 0.4469274 0.8945702
vn 0.3473735 0.8596888 0.3745222
vn 0.6947466 0.3214548 0.6434236
vn 0 0.9429544 0.3329221
vn 0.6016681 0.01070557 0.7986745
vn -0.3473735 0.8596888 0.3745221
vn 0.3473736 -0.2167789 0.9123259
vn -0.6016691 0.6322032 0.4881737
vn 0 -0.3000436 0.9539255
vn -0.6947466 0.3214548 0.6434236
vn -0.3473736 -0.2167789 0.9123259
vn -0.6016681 0.01070559 0.7986745
g RedCircleSmall_0
f 3/3/3 2/2/2 1/1/1
f 4/4/4 3/3/3 1/1/1
f 5/5/5 3/3/3 4/4/4
f 6/6/6 5/5/5 4/4/4
f 7/7/7 5/5/5 6/6/6
f 8/8/8 7/7/7 6/6/6
f 9/9/9 7/7/7 8/8/8
f 10/10/10 9/9/9 8/8/8
f 11/11/11 9/9/9 10/10/10
f 12/12/12 11/11/11 10/10/10
f 13/13/13 11/11/11 12/12/12
f 14/14/14 13/13/13 12/12/12
f 15/15/15 13/13/13 14/14/14
f 16/16/16 15/15/15 14/14/14
f 17/17/17 15/15/15 16/16/16
f 18/18/18 17/17/17 16/16/16
f 19/19/19 17/17/17 18/18/18
f 20/20/20 19/19/19 18/18/18
f 21/21/21 19/19/19 20/20/20
f 22/22/22 21/21/21 20/20/20
f 23/23/23 21/21/21 22/22/22
f 24/24/24 23/23/23 22/22/22
f 25/25/25 23/23/23 24/24/24
f 1/1/1 25/25/25 24/24/24
f 28/28/28 27/27/27 26/26/26
f 26/26/26 27/27/27 29/29/29
f 30/30/30 27/27/27 28/28/28
f 29/29/29 27/27/27 31/31/31
f 32/32/32 27/27/27 30/30/30
f 31/31/31 27/27/27 33/33/33
f 34/34/34 27/27/27 32/32/32
f 33/33/33 27/27/27 35/35/35
f 36/36/36 27/27/27 34/34/34
f 35/35/35 27/27/27 37/37/37
f 38/38/38 27/27/27 36/36/36
f 37/37/37 27/27/27 38/38/38
