g RedCircle
v 0.6919595 20.76011 2.694261
v 0.6919595 21.32595 3.270358
v 0.399503 21.53682 3.063244
v 0.399503 20.97097 2.487147
v 3.03707E-15 21.614 2.987434
v 2.777495E-15 21.04815 2.411338
v -0.399503 21.53682 3.063244
v -0.399503 20.97097 2.487147
v -0.6919595 21.32595 3.270358
v -0.6919595 20.76011 2.694261
v -0.799006 21.0379 3.553281
v -0.799006 20.47206 2.977184
v -0.6919595 20.74986 3.836204
v -0.6919595 20.18401 3.260108
v -0.399503 20.53899 4.043318
v -0.399503 19.97314 3.467221
v 3.095707E-15 20.46181 4.119127
v 2.836131E-15 19.89596 3.54303
v 0.399503 20.53899 4.043318
v 0.399503 19.97314 3.467221
v 0.6919595 20.74986 3.836204
v 0.6919595 20.18401 3.260108
v 0.799006 21.0379 3.553281
v 0.799006 20.47206 2.977184
v 0.6919595 21.32595 3.270358
v 0.6919595 21.32595 3.270358
v 3.066388E-15 21.0379 3.553281
v 0.399503 21.53682 3.063244
v 0.799006 21.0379 3.553281
v 3.03707E-15 21.614 2.987434
v 0.6919595 20.74986 3.836204
v -0.399503 21.53682 3.063244
v 0.399503 20.53899 4.043318
v -0.6919595 21.32595 3.270358
v 3.095707E-15 20.46181 4.119127
v -0.799006 21.0379 3.553281
v -0.399503 20.53899 4.043318
v -0.6919595 20.74986 3.836204
vt 0.02142011 0.2508188
vt 0.02142011 0.2517511
vt 0.02147175 0.2517511
vt 0.02147175 0.2508188
vt 0.0215234 0.2517511
vt 0.0215234 0.2508188
vt 0.02157508 0.2517511
vt 0.02157508 0.2508188
vt 0.02162673 0.2517511
vt 0.02162673 0.2508188
vt 0.0216784 0.2517511
vt 0.0216784 0.2508188
vt 0.02173005 0.2517511
vt 0.02173005 0.2508188
vt 0.0217817 0.2517511
vt 0.0217817 0.2508188
vt 0.02183338 0.2517511
vt 0.02183338 0.2508188
vt 0.02188505 0.2517511
vt 0.02188505 0.2508188
vt 0.02193667 0.2517511
vt 0.02193667 0.2508188
vt 0.02198835 0.2517511
vt 0.02198835 0.2508188
vt 0.02204002 0.2517511
vt 0.02448657 0.2088491
vt 0.02031636 0.2062488
vt 0.02272403 0.2106116
vt 0.02513173 0.2064414
vt 0.02031636 0.2112567
vt 0.02448657 0.2040337
vt 0.01790869 0.2106116
vt 0.02272403 0.2022712
vt 0.01614615 0.2088491
vt 0.02031636 0.2016261
vt 0.01550102 0.2064414
vt 0.01790869 0.2022712
vt 0.01614615 0.2040337
vn 0.8683016 0.3538847 -0.3475886
vn 0.8023287 0.5949166 -0.04840407
vn 0.4654607 0.8377756 -0.2854441
vn 0.5039759 0.6161972 -0.605235
vn 0 0.9277891 -0.3731052
vn 0 0.7134242 -0.7007324
vn -0.4654609 0.8377755 -0.2854442
vn -0.5039757 0.6161972 -0.6052351
vn -0.8023291 0.594916 -0.04840409
vn -0.8683016 0.3538848 -0.3475886
vn -0.9242399 0.267548 0.2723943
vn -1 3.932885E-07 1.013016E-07
vn -0.8023292 -0.05907543 0.5939512
vn -0.8683016 -0.3538847 0.3475886
vn -0.4654599 -0.3004378 0.8325168
vn -0.5039747 -0.6161985 0.6052345
vn 0 -0.3896989 0.9209424
vn 0 -0.7134257 0.7007309
vn 0.4654599 -0.3004379 0.8325168
vn 0.5039747 -0.6161985 0.6052345
vn 0.8023291 -0.05907552 0.5939511
vn 0.8683016 -0.3538847 0.3475886
vn 0.9242399 0.2675479 0.2723943
vn 1 2.502745E-07 1.608907E-07
vn 0.8023287 0.5949166 -0.04840407
vn 0.8023287 0.5949166 -0.04840407
vn 0 0.7007316 0.713425
vn 0.4654607 0.8377756 -0.2854441
vn 0.9242399 0.2675479 0.2723943
vn 0 0.9277891 -0.3731052
vn 0.8023291 -0.05907552 0.5939511
vn -0.4654609 0.8377755 -0.2854442
vn 0.4654599 -0.3004379 0.8325168
vn -0.8023291 0.594916 -0.04840409
vn 0 -0.3896989 0.9209424
vn -0.9242399 0.267548 0.2723943
vn -0.4654599 -0.3004378 0.8325168
vn -0.8023292 -0.05907543 0.5939512
g RedCircle_0
f 3/3/3 2/2/2 1/1/1
f 4/4/4 3/3/3 1/1/1
f 5/5/5 3/3/3 4/4/4
f 6/6/6 5/5/5 4/4/4
f 7/7/7 5/5/5 6/6/6
f 8/8/8 7/7/7 6/6/6
f 9/9/9 7/7/7 8/8/8
f 10/10/10 9/9/9 8/8/8
f 11/11/11 9/9/9 10/10/10
f 12/12/12 11/11/11 10/10/10
f 13/13/13 11/11/11 12/12/12
f 14/14/14 13/13/13 12/12/12
f 15/15/15 13/13/13 14/14/14
f 16/16/16 15/15/15 14/14/14
f 17/17/17 15/15/15 16/16/16
f 18/18/18 17/17/17 16/16/16
f 19/19/19 17/17/17 18/18/18
f 20/20/20 19/19/19 18/18/18
f 21/21/21 19/19/19 20/20/20
f 22/22/22 21/21/21 20/20/20
f 23/23/23 21/21/21 22/22/22
f 24/24/24 23/23/23 22/22/22
f 25/25/25 23/23/23 24/24/24
f 1/1/1 25/25/25 24/24/24
f 28/28/28 27/27/27 26/26/26
f 26/26/26 27/27/27 29/29/29
f 30/30/30 27/27/27 28/28/28
f 29/29/29 27/27/27 31/31/31
f 32/32/32 27/27/27 30/30/30
f 31/31/31 27/27/27 33/33/33
f 34/34/34 27/27/27 32/32/32
f 33/33/33 27/27/27 35/35/35
f 36/36/36 27/27/27 34/34/34
f 35/35/35 27/27/27 37/37/37
f 38/38/38 27/27/27 36/36/36
f 37/37/37 27/27/27 38/38/38
