g RedCircle
v 0.475668 23.09642 4.529233
v 0.4756677 22.7495 4.182579
v 0.8238806 22.51166 4.443608
v 0.8238812 22.85858 4.790261
v 2.320048E-15 23.18348 4.433689
v 1.873484E-15 22.83656 4.087035
v 0.4756677 22.7495 4.182579
v 0.475668 23.09642 4.529233
v -0.475668 23.09642 4.529233
v -0.4756677 22.7495 4.182579
v 1.873484E-15 22.83656 4.087035
v 2.320048E-15 23.18348 4.433689
v -0.8238812 22.85858 4.790261
v -0.8238806 22.51166 4.443608
v -0.4756677 22.7495 4.182579
v -0.475668 23.09642 4.529233
v -0.9513361 22.53369 5.146836
v -0.9513361 22.18676 4.800183
v -0.8238806 22.51166 4.443608
v -0.8238812 22.85858 4.790261
v -0.8238812 22.20879 5.50341
v -0.8238814 21.86187 5.156758
v -0.9513361 22.18676 4.800183
v -0.9513361 22.53369 5.146836
v -0.475668 21.97095 5.76444
v -0.4756686 21.62403 5.417788
v -0.8238814 21.86187 5.156758
v -0.8238812 22.20879 5.50341
v 2.879616E-15 21.88389 5.859983
v 1.412154E-08 21.53697 5.51333
v -0.4756686 21.62403 5.417788
v -0.475668 21.97095 5.76444
v 0.475668 21.97095 5.76444
v 0.4756686 21.62403 5.417788
v 1.412154E-08 21.53697 5.51333
v 2.879616E-15 21.88389 5.859983
v 0.8238812 22.20879 5.50341
v 0.823881 21.86187 5.156758
v 0.4756686 21.62403 5.417788
v 0.475668 21.97095 5.76444
v 0.9513361 22.53369 5.146836
v 0.9513359 22.18676 4.800183
v 0.823881 21.86187 5.156758
v 0.8238812 22.20879 5.50341
v 0.8238812 22.85858 4.790261
v 0.8238806 22.51166 4.443608
v 0.9513359 22.18676 4.800183
v 0.9513361 22.53369 5.146836
v 0.8238812 22.85858 4.790261
v 2.599832E-15 22.53369 5.146836
v 0.475668 23.09642 4.529233
v 0.9513361 22.53369 5.146836
v 2.320048E-15 23.18348 4.433689
v 0.8238812 22.20879 5.50341
v -0.475668 23.09642 4.529233
v 0.475668 21.97095 5.76444
v -0.8238812 22.85858 4.790261
v 2.879616E-15 21.88389 5.859983
v -0.9513361 22.53369 5.146836
v -0.475668 21.97095 5.76444
v -0.8238812 22.20879 5.50341
vt 0.009542755 0.2474776
vt 0.009542755 0.2612926
vt 0.02335787 0.2612926
vt 0.02335787 0.2474776
vt 0.009542755 0.2474776
vt 0.009542755 0.2612926
vt 0.02335787 0.2612926
vt 0.02335787 0.2474776
vt 0.009542755 0.2474776
vt 0.009542755 0.2612926
vt 0.02335787 0.2612926
vt 0.02335787 0.2474776
vt 0.009542755 0.2474776
vt 0.009542755 0.2612926
vt 0.02335787 0.2612926
vt 0.02335787 0.2474776
vt 0.009542755 0.2474776
vt 0.009542755 0.2612926
vt 0.02335787 0.2612926
vt 0.02335787 0.2474776
vt 0.009542755 0.2474776
vt 0.009542755 0.2612926
vt 0.02335787 0.2612926
vt 0.02335787 0.2474776
vt 0.009542755 0.2474776
vt 0.009542755 0.2612926
vt 0.02335787 0.2612926
vt 0.02335787 0.2474776
vt 0.009542755 0.2474776
vt 0.009542755 0.2612926
vt 0.02335787 0.2612926
vt 0.02335787 0.2474776
vt 0.009542755 0.2474776
vt 0.009542755 0.2612926
vt 0.02335787 0.2612926
vt 0.02335787 0.2474776
vt 0.009542755 0.2474776
vt 0.009542755 0.2612926
vt 0.02335787 0.2612926
vt 0.02335787 0.2474776
vt 0.009542755 0.2474776
vt 0.009542755 0.2612926
vt 0.02335787 0.2612926
vt 0.02335787 0.2474776
vt 0.009542755 0.2474776
vt 0.009542755 0.2612926
vt 0.02335787 0.2612926
vt 0.02335787 0.2474776
vt 0.0118704 0.216469
vt 0.01182087 0.2164381
vt 0.01184948 0.21649
vt 0.01187803 0.2164404
vt 0.01182087 0.2164976
vt 0.0118704 0.2164118
vt 0.01179223 0.21649
vt 0.01184948 0.2163909
vt 0.01177131 0.216469
vt 0.01182087 0.2163832
vt 0.01176362 0.2164404
vt 0.01179223 0.2163909
vt 0.01177131 0.2164118
vn 0.3873419 0.9206714 -0.04827363
vn 0.501525 0.6115149 -0.6119822
vn 0.8655368 0.3540153 -0.354287
vn 0.6703708 0.7260683 0.1530613
vn 1.192896E-07 0.9924921 -0.1223087
vn 1.510682E-07 0.7068371 -0.7073764
vn 0.501525 0.6115149 -0.6119822
vn 0.3873419 0.9206714 -0.04827363
vn -0.3873418 0.9206715 -0.04827392
vn -0.5015247 0.6115149 -0.6119824
vn 1.510682E-07 0.7068371 -0.7073764
vn 1.192896E-07 0.9924921 -0.1223087
vn -0.6703709 0.7260683 0.153061
vn -0.8655366 0.3540152 -0.3542873
vn -0.5015247 0.6115149 -0.6119824
vn -0.3873418 0.9206715 -0.04827392
vn -0.7767041 0.4616483 0.4284992
vn -0.9999719 0.005300885 -0.005303918
vn -0.8655366 0.3540152 -0.3542873
vn -0.6703709 0.7260683 0.153061
vn -0.6783453 0.195212 0.7083359
vn -0.8720251 -0.3459665 0.346236
vn -0.9999719 0.005300885 -0.005303918
vn -0.7767041 0.4616483 0.4284992
vn -0.3953526 -0.003454649 0.9185229
vn -0.5081726 -0.6087644 0.6092343
vn -0.8720251 -0.3459665 0.346236
vn -0.6783453 0.195212 0.7083359
vn -1.789897E-07 -0.07733505 0.9970052
vn 1.322346E-07 -0.7068356 0.7073779
vn -0.5081726 -0.6087644 0.6092343
vn -0.3953526 -0.003454649 0.9185229
vn 0.3953528 -0.003456153 0.9185228
vn 0.5081729 -0.6087648 0.6092336
vn 1.322346E-07 -0.7068356 0.7073779
vn -1.789897E-07 -0.07733505 0.9970052
vn 0.6783459 0.1952108 0.7083358
vn 0.8720253 -0.3459669 0.3462353
vn 0.5081729 -0.6087648 0.6092336
vn 0.3953528 -0.003456153 0.9185228
vn 0.7767043 0.4616481 0.428499
vn 0.9999719 0.00530053 -0.005304271
vn 0.8720253 -0.3459669 0.3462353
vn 0.6783459 0.1952108 0.7083358
vn 0.6703708 0.7260683 0.1530613
vn 0.8655368 0.3540153 -0.354287
vn 0.9999719 0.00530053 -0.005304271
vn 0.7767043 0.4616481 0.428499
vn 0.6703708 0.7260683 0.1530613
vn 0 0.7391788 0.6735091
vn 0.3873419 0.9206714 -0.04827363
vn 0.7767043 0.4616481 0.428499
vn 1.192896E-07 0.9924921 -0.1223087
vn 0.6783459 0.1952108 0.7083358
vn -0.3873418 0.9206715 -0.04827392
vn 0.3953528 -0.003456153 0.9185228
vn -0.6703709 0.7260683 0.153061
vn -1.789897E-07 -0.07733505 0.9970052
vn -0.7767041 0.4616483 0.4284992
vn -0.3953526 -0.003454649 0.9185229
vn -0.6783453 0.195212 0.7083359
g RedCircle_0
f 3/3/3 2/2/2 1/1/1
f 4/4/4 3/3/3 1/1/1
f 7/7/7 6/6/6 5/5/5
f 8/8/8 7/7/7 5/5/5
f 11/11/11 10/10/10 9/9/9
f 12/12/12 11/11/11 9/9/9
f 15/15/15 14/14/14 13/13/13
f 16/16/16 15/15/15 13/13/13
f 19/19/19 18/18/18 17/17/17
f 20/20/20 19/19/19 17/17/17
f 23/23/23 22/22/22 21/21/21
f 24/24/24 23/23/23 21/21/21
f 27/27/27 26/26/26 25/25/25
f 28/28/28 27/27/27 25/25/25
f 31/31/31 30/30/30 29/29/29
f 32/32/32 31/31/31 29/29/29
f 35/35/35 34/34/34 33/33/33
f 36/36/36 35/35/35 33/33/33
f 39/39/39 38/38/38 37/37/37
f 40/40/40 39/39/39 37/37/37
f 43/43/43 42/42/42 41/41/41
f 44/44/44 43/43/43 41/41/41
f 47/47/47 46/46/46 45/45/45
f 48/48/48 47/47/47 45/45/45
f 51/51/51 50/50/50 49/49/49
f 49/49/49 50/50/50 52/52/52
f 53/53/53 50/50/50 51/51/51
f 52/52/52 50/50/50 54/54/54
f 55/55/55 50/50/50 53/53/53
f 54/54/54 50/50/50 56/56/56
f 57/57/57 50/50/50 55/55/55
f 56/56/56 50/50/50 58/58/58
f 59/59/59 50/50/50 57/57/57
f 58/58/58 50/50/50 60/60/60
f 61/61/61 50/50/50 59/59/59
f 60/60/60 50/50/50 61/61/61
