g RedCircle_Big
v 1.544827 19.41054 4.021227
v 1.544827 20.20778 5.616972
v 0.8919063 20.79186 5.325166
v 0.8919063 19.99462 3.72942
v 2.988512E-15 21.00565 5.218354
v 2.611351E-15 20.20841 3.62261
v -0.8919063 20.79186 5.325166
v -0.8919063 19.99462 3.72942
v -1.544827 20.20778 5.616972
v -1.544827 19.41054 4.021227
v -1.783813 19.4099 6.015589
v -1.783813 18.61267 4.419846
v -1.544827 18.61203 6.414207
v -1.544827 17.81479 4.818464
v -0.8919063 18.02795 6.706016
v -0.8919063 17.23071 5.110271
v 3.391438E-15 17.81416 6.812826
v 3.014278E-15 17.01692 5.21708
v 0.8919063 18.02795 6.706016
v 0.8919063 17.23071 5.110271
v 1.544827 18.61203 6.414207
v 1.544827 17.81479 4.818464
v 1.783813 19.4099 6.015589
v 1.783813 18.61267 4.419846
v 1.544827 20.20778 5.616972
v 1.544827 20.20778 5.616972
v 3.189975E-15 19.4099 6.015589
v 0.8919063 20.79186 5.325166
v 1.783813 19.4099 6.015589
v 2.988512E-15 21.00565 5.218354
v 1.544827 18.61203 6.414207
v -0.8919063 20.79186 5.325166
v 0.8919063 18.02795 6.706016
v -1.544827 20.20778 5.616972
v 3.391438E-15 17.81416 6.812826
v -1.783813 19.4099 6.015589
v -0.8919063 18.02795 6.706016
v -1.544827 18.61203 6.414207
vt 0.02142011 0.2508188
vt 0.02142011 0.2517511
vt 0.02147175 0.2517511
vt 0.02147175 0.2508188
vt 0.0215234 0.2517511
vt 0.0215234 0.2508188
vt 0.02157508 0.2517511
vt 0.02157508 0.2508188
vt 0.02162673 0.2517511
vt 0.02162673 0.2508188
vt 0.0216784 0.2517511
vt 0.0216784 0.2508188
vt 0.02173005 0.2517511
vt 0.02173005 0.2508188
vt 0.0217817 0.2517511
vt 0.0217817 0.2508188
vt 0.02183338 0.2517511
vt 0.02183338 0.2508188
vt 0.02188505 0.2517511
vt 0.02188505 0.2508188
vt 0.02193667 0.2517511
vt 0.02193667 0.2508188
vt 0.02198835 0.2517511
vt 0.02198835 0.2508188
vt 0.02204002 0.2517511
vt 0.02448657 0.2088491
vt 0.02031636 0.2062488
vt 0.02272403 0.2106116
vt 0.02513173 0.2064414
vt 0.02031636 0.2112567
vt 0.02448657 0.2040337
vt 0.01790869 0.2106116
vt 0.02272403 0.2022712
vt 0.01614615 0.2088491
vt 0.02031636 0.2016261
vt 0.01550102 0.2064414
vt 0.01790869 0.2022712
vt 0.01614615 0.2040337
vn 0.8660254 0.4472848 -0.2234641
vn 0.6016688 0.6322034 0.4881738
vn 0.3473733 0.8596889 0.3745221
vn 0.5000004 0.77472 -0.3870513
vn 0 0.9429543 0.3329222
vn 0 0.8945697 -0.4469285
vn -0.3473733 0.8596889 0.3745221
vn -0.5000004 0.77472 -0.3870513
vn -0.6016688 0.6322034 0.4881738
vn -0.8660254 0.4472848 -0.2234641
vn -0.6947466 0.3214546 0.6434238
vn -1 0 0
vn -0.6016679 0.01070548 0.7986746
vn -0.8660251 -0.4472854 0.2234642
vn -0.3473735 -0.216779 0.9123259
vn -0.5000001 -0.7747201 0.3870511
vn 0 -0.3000438 0.9539255
vn 0 -0.8945699 0.4469282
vn 0.3473735 -0.2167789 0.9123259
vn 0.5000001 -0.7747201 0.3870511
vn 0.6016679 0.01070548 0.7986746
vn 0.8660251 -0.4472854 0.2234642
vn 0.6947466 0.3214546 0.6434238
vn 1 0 0
vn 0.6016688 0.6322034 0.4881738
vn 0.6016688 0.6322034 0.4881738
vn 0 0.4469274 0.8945702
vn 0.3473733 0.8596889 0.3745221
vn 0.6947466 0.3214546 0.6434238
vn 0 0.9429543 0.3329222
vn 0.6016679 0.01070548 0.7986746
vn -0.3473733 0.8596889 0.3745221
vn 0.3473735 -0.2167789 0.9123259
vn -0.6016688 0.6322034 0.4881738
vn 0 -0.3000438 0.9539255
vn -0.6947466 0.3214546 0.6434238
vn -0.3473735 -0.216779 0.9123259
vn -0.6016679 0.01070548 0.7986746
g RedCircle_Big_0
f 3/3/3 2/2/2 1/1/1
f 4/4/4 3/3/3 1/1/1
f 5/5/5 3/3/3 4/4/4
f 6/6/6 5/5/5 4/4/4
f 7/7/7 5/5/5 6/6/6
f 8/8/8 7/7/7 6/6/6
f 9/9/9 7/7/7 8/8/8
f 10/10/10 9/9/9 8/8/8
f 11/11/11 9/9/9 10/10/10
f 12/12/12 11/11/11 10/10/10
f 13/13/13 11/11/11 12/12/12
f 14/14/14 13/13/13 12/12/12
f 15/15/15 13/13/13 14/14/14
f 16/16/16 15/15/15 14/14/14
f 17/17/17 15/15/15 16/16/16
f 18/18/18 17/17/17 16/16/16
f 19/19/19 17/17/17 18/18/18
f 20/20/20 19/19/19 18/18/18
f 21/21/21 19/19/19 20/20/20
f 22/22/22 21/21/21 20/20/20
f 23/23/23 21/21/21 22/22/22
f 24/24/24 23/23/23 22/22/22
f 25/25/25 23/23/23 24/24/24
f 1/1/1 25/25/25 24/24/24
f 28/28/28 27/27/27 26/26/26
f 26/26/26 27/27/27 29/29/29
f 30/30/30 27/27/27 28/28/28
f 29/29/29 27/27/27 31/31/31
f 32/32/32 27/27/27 30/30/30
f 31/31/31 27/27/27 33/33/33
f 34/34/34 27/27/27 32/32/32
f 33/33/33 27/27/27 35/35/35
f 36/36/36 27/27/27 34/34/34
f 35/35/35 27/27/27 37/37/37
f 38/38/38 27/27/27 36/36/36
f 37/37/37 27/27/27 38/38/38
