g RedEye
v -2.133923 11.83657 3.322965
v -1.377441 11.52609 4.700407
v -1.066962 10.76961 3.322965
v -2.133923 12.90353 4.389926
v -1.066962 12.90353 5.456888
v -2.385798 12.90353 3.322965
v -2.133923 12.90353 2.256004
v -1.377441 14.28097 4.700407
v 0 13.97049 5.456888
v -2.133923 13.97049 3.322965
v 0 15.03745 4.389926
v 1.377442 14.28097 4.700407
v -1.377441 14.28097 1.945524
v -1.066961 12.90353 1.189042
v 0 13.97049 1.189042
v -1.066961 15.03745 3.322965
v 1.066962 15.03745 3.322965
v 2.133923 13.97049 3.322965
v 0 15.03745 2.256004
v 0 15.28933 3.322965
v 1.377441 14.28097 1.945524
v 2.133923 12.90353 2.256004
v 1.066961 12.90353 1.189042
v -1.066962 10.76961 3.322965
v 0 10.76961 4.389926
v 0 10.51773 3.322965
v -1.377441 11.52609 4.700407
v 1.066961 10.76961 3.322965
v 0 11.83657 5.456888
v -1.066962 12.90353 5.456888
v 1.377442 11.52609 4.700407
v 2.133923 11.83657 3.322965
v 0 12.90353 5.708764
v 0 13.97049 5.456888
v 1.066962 12.90353 5.456888
v 1.377442 14.28097 4.700407
v 2.133923 12.90353 4.389926
v 2.133923 13.97049 3.322965
v 2.385798 12.90353 3.322965
v 2.133923 12.90353 2.256004
vt 0.5978696 0.4677212
vt 0.6190962 0.4054413
vt 0.5648083 0.3972909
vt 0.6505785 0.4438176
vt 0.6626964 0.4090141
vt 0.6479218 0.4762093
vt 0.6624575 0.5231583
vt 0.6868751 0.4344265
vt 0.6939828 0.4038188
vt 0.6807928 0.4701633
vt 0.7180429 0.4248731
vt 0.7274237 0.3935678
vt 0.7227494 0.4963316
vt 0.7265503 0.5423325
vt 0.7916734 0.5076672
vt 0.7152174 0.4548853
vt 0.7527914 0.4233144
vt 0.7763126 0.3908274
vt 0.7546051 0.4614905
vt 0.735157 0.4411452
vt 0.8023098 0.4352637
vt 0.8325183 0.3778797
vt 0.8410835 0.4559622
vt 0.6207718 0.3436286
vt 0.6408088 0.3159493
vt 0.6241521 0.3094648
vt 0.6493583 0.3479204
vt 0.6697443 0.2818277
vt 0.6660207 0.3299165
vt 0.672317 0.3498017
vt 0.6728364 0.30037
vt 0.7222512 0.2946066
vt 0.6787067 0.3389918
vt 0.6887916 0.347066
vt 0.687702 0.3291624
vt 0.7064006 0.3416681
vt 0.7085251 0.3181216
vt 0.7321442 0.3402251
vt 0.7393974 0.3280669
vt 0.7617407 0.3334072
vn -0.9031742 -0.3989817 0.1583981
vn -0.5773503 -0.5773504 0.5773502
vn -0.442728 -0.8508317 0.2829798
vn -0.8870905 0 0.4615956
vn -0.4615958 0 0.8870904
vn -1 0 0
vn -0.9031741 0.1583981 -0.3989818
vn -0.5773501 0.5773505 0.5773501
vn 0 0.4615959 0.8870904
vn -0.8870904 0.4615957 0
vn 0 0.8870905 0.4615955
vn 0.5773501 0.5773505 0.5773501
vn -0.5773502 0.5773505 -0.5773501
vn -0.5438438 0.3064605 -0.7812272
vn 0 0.5713346 -0.8207172
vn -0.4615955 0.8870905 0
vn 0.4615956 0.8870905 0
vn 0.8870904 0.4615957 0
vn 0 0.8870905 -0.4615955
vn 0 1 0
vn 0.5773501 0.5773504 -0.5773502
vn 0.9031741 0.1583981 -0.3989818
vn 0.5438438 0.3064604 -0.7812272
vn -0.442728 -0.8508317 0.2829798
vn 0 -0.8870907 0.4615952
vn 0 -0.9732491 0.2297526
vn -0.5773503 -0.5773504 0.5773502
vn 0.4427279 -0.8508317 0.2829796
vn 0 -0.4615956 0.8870904
vn -0.4615958 0 0.8870904
vn 0.5773503 -0.5773504 0.5773502
vn 0.9031742 -0.3989818 0.1583981
vn 0 0 1
vn 0 0.4615959 0.8870904
vn 0.4615958 0 0.8870904
vn 0.5773501 0.5773505 0.5773501
vn 0.8870905 0 0.4615956
vn 0.8870904 0.4615957 0
vn 1 0 0
vn 0.9031741 0.1583981 -0.3989818
g RedEye_0
f 3/3/3 2/2/2 1/1/1
f 2/2/2 4/4/4 1/1/1
f 2/2/2 5/5/5 4/4/4
f 1/1/1 4/4/4 6/6/6
f 1/1/1 6/6/6 7/7/7
f 4/4/4 5/5/5 8/8/8
f 5/5/5 9/9/9 8/8/8
f 6/6/6 4/4/4 10/10/10
f 6/6/6 10/10/10 7/7/7
f 4/4/4 8/8/8 10/10/10
f 8/8/8 9/9/9 11/11/11
f 11/11/11 9/9/9 12/12/12
f 10/10/10 13/13/13 7/7/7
f 7/7/7 13/13/13 14/14/14
f 13/13/13 15/15/15 14/14/14
f 10/10/10 8/8/8 16/16/16
f 10/10/10 16/16/16 13/13/13
f 8/8/8 11/11/11 16/16/16
f 11/11/11 12/12/12 17/17/17
f 17/17/17 12/12/12 18/18/18
f 13/13/13 19/19/19 15/15/15
f 16/16/16 19/19/19 13/13/13
f 16/16/16 11/11/11 20/20/20
f 20/20/20 11/11/11 17/17/17
f 16/16/16 20/20/20 19/19/19
f 20/20/20 17/17/17 19/19/19
f 17/17/17 18/18/18 21/21/21
f 17/17/17 21/21/21 19/19/19
f 19/19/19 21/21/21 15/15/15
f 18/18/18 22/22/22 21/21/21
f 21/21/21 23/23/23 15/15/15
f 21/21/21 22/22/22 23/23/23
f 26/26/26 25/25/25 24/24/24
f 25/25/25 27/27/27 24/24/24
f 26/26/26 28/28/28 25/25/25
f 25/25/25 29/29/29 27/27/27
f 29/29/29 30/30/30 27/27/27
f 28/28/28 31/31/31 25/25/25
f 25/25/25 31/31/31 29/29/29
f 28/28/28 32/32/32 31/31/31
f 29/29/29 33/33/33 30/30/30
f 30/30/30 33/33/33 34/34/34
f 29/29/29 35/35/35 33/33/33
f 34/34/34 33/33/33 35/35/35
f 31/31/31 35/35/35 29/29/29
f 34/34/34 35/35/35 36/36/36
f 31/31/31 37/37/37 35/35/35
f 36/36/36 35/35/35 37/37/37
f 32/32/32 37/37/37 31/31/31
f 36/36/36 37/37/37 38/38/38
f 32/32/32 39/39/39 37/37/37
f 38/38/38 37/37/37 39/39/39
f 39/39/39 32/32/32 40/40/40
f 38/38/38 39/39/39 40/40/40
