g RedLight
v 6.346443 4.910223 4.773916
v 5.758878 5.583519 6.359789
v 5.758878 5.503665 4.744577
v 6.346443 4.990077 6.389128
v 6.561506 4.099566 4.813993
v 6.561506 4.17942 6.429204
v 6.346443 3.288909 4.854071
v 6.346443 3.368762 6.469283
v 5.758878 2.695467 4.88341
v 5.758878 2.77532 6.498621
v 4.956248 2.478251 4.894148
v 4.956248 2.558105 6.50936
v 4.15362 2.695467 4.88341
v 4.15362 2.77532 6.498621
v 3.566055 3.288909 4.854071
v 3.566055 3.368762 6.469283
v 3.350991 4.099566 4.813993
v 3.350991 4.17942 6.429204
v 3.566055 4.910223 4.773916
v 3.566055 4.990077 6.389128
v 4.15362 5.503665 4.744577
v 4.15362 5.583519 6.359789
v 5.758878 5.503665 4.744577
v 5.758878 5.583519 6.359789
v 4.956248 5.800734 6.34905
v 4.956248 5.72088 4.733838
v 4.15362 5.583519 6.359789
v 4.15362 5.503665 4.744577
v 6.179237 4.860648 6.32605
v 4.956247 4.177576 6.969839
v 5.662341 5.382713 6.30024
v 6.368435 4.147491 6.361307
v 4.956247 5.573802 6.290793
v 6.179237 3.434336 6.396564
v 4.250154 5.382713 6.30024
v 5.662341 2.91227 6.422374
v 3.733261 4.860648 6.32605
v 4.956247 2.72118 6.431821
v 3.544064 4.147491 6.361307
v 4.250154 2.91227 6.422374
v 3.733261 3.434336 6.396564
v 6.346443 4.990077 6.389128
v 4.956248 4.183105 6.503758
v 5.758878 5.583519 6.359789
v 6.561506 4.17942 6.429204
v 4.956248 5.800734 6.34905
v 6.346443 3.368762 6.469283
v 4.15362 5.583519 6.359789
v 5.758878 2.77532 6.498621
v 3.566055 4.990077 6.389128
v 4.956248 2.558105 6.50936
v 3.350991 4.17942 6.429204
v 4.15362 2.77532 6.498621
v 3.566055 3.368762 6.469283
vt 0.379076 0.7300435
vt 0.379076 0.7300435
vt 0.379076 0.7300435
vt 0.379076 0.7300435
vt 0.379076 0.7300435
vt 0.379076 0.7300435
vt 0.379076 0.7300435
vt 0.379076 0.7300435
vt 0.379076 0.7300435
vt 0.379076 0.7300435
vt 0.379076 0.7300435
vt 0.379076 0.7300435
vt 0.379076 0.7300435
vt 0.379076 0.7300435
vt 0.379076 0.7300435
vt 0.379076 0.7300435
vt 0.379076 0.7300435
vt 0.379076 0.7300435
vt 0.379076 0.7300435
vt 0.379076 0.7300435
vt 0.379076 0.7300435
vt 0.379076 0.7300435
vt 0.04465425 0.7327141
vt 0.04465425 0.7327141
vt 0.04465425 0.7327141
vt 0.04465425 0.7327141
vt 0.04465425 0.7327141
vt 0.04465425 0.7327141
vt 0.1654269 0.7390537
vt 0.1654269 0.7390537
vt 0.1654269 0.7390537
vt 0.1654269 0.7390537
vt 0.1654269 0.7390537
vt 0.1654269 0.7390537
vt 0.1654269 0.7390537
vt 0.1654269 0.7390537
vt 0.1654269 0.7390537
vt 0.1654269 0.7390537
vt 0.1654269 0.7390537
vt 0.1654269 0.7390537
vt 0.1654269 0.7390537
vt 0.4909737 0.7319216
vt 0.4909737 0.7319216
vt 0.4909737 0.7319216
vt 0.4909737 0.7319216
vt 0.4909737 0.7319216
vt 0.4909737 0.7319216
vt 0.4909737 0.7319216
vt 0.4909737 0.7319216
vt 0.4909737 0.7319216
vt 0.4909737 0.7319216
vt 0.4909737 0.7319216
vt 0.4909737 0.7319216
vt 0.4909737 0.7319216
vn 0.8684278 0.4952109 -0.02448234
vn 0.4666667 0.8170866 0.3385137
vn 0.5041952 0.8625362 -0.04264235
vn 0.8042217 0.4772661 0.3541813
vn 1 0 0
vn 0.926314 0.01860317 0.3762929
vn 0.8684279 -0.4952106 0.02448228
vn 0.8042219 -0.4400038 0.3995294
vn 0.5041956 -0.862536 0.04264224
vn 0.4666671 -0.7797125 0.4174567
vn 0 -0.9987802 0.04937796
vn 0 -0.9055464 0.4242472
vn -0.5041964 -0.8625356 0.0426423
vn -0.4666678 -0.7797123 0.4174566
vn -0.8684278 -0.4952109 0.02448247
vn -0.8042219 -0.4400041 0.3995291
vn -1 0 0
vn -0.9263142 0.01860314 0.3762925
vn -0.8684276 0.4952111 -0.0244822
vn -0.8042217 0.4772664 0.354181
vn -0.504196 0.8625358 -0.04264226
vn -0.4666675 0.8170863 0.3385135
vn 0.5041952 0.8625362 -0.04264235
vn 0.4666667 0.8170866 0.3385137
vn 0 0.9429765 0.3328592
vn 0 0.9987802 -0.0493781
vn -0.4666675 0.8170863 0.3385135
vn -0.504196 0.8625358 -0.04264226
vn 0.3428914 0.2416388 0.9077644
vn 0 0.04937793 0.9987802
vn 0.1977595 0.3850108 0.9014754
vn 0.396144 0.04533839 0.9170684
vn 0 0.4373622 0.8992854
vn 0.3428915 -0.1509228 0.9271719
vn -0.1977599 0.3850108 0.9014753
vn 0.1977595 -0.294216 0.9350551
vn -0.3428923 0.2416388 0.9077641
vn 0 -0.3465282 0.9380395
vn -0.3961449 0.04533837 0.917068
vn -0.1977599 -0.2942161 0.9350551
vn -0.3428923 -0.1509228 0.9271716
vn 0.8042217 0.4772661 0.3541813
vn 0 0.04937789 0.9987802
vn 0.4666667 0.8170866 0.3385137
vn 0.926314 0.01860317 0.3762929
vn 0 0.9429765 0.3328592
vn 0.8042219 -0.4400038 0.3995294
vn -0.4666675 0.8170863 0.3385135
vn 0.4666671 -0.7797125 0.4174567
vn -0.8042217 0.4772664 0.354181
vn 0 -0.9055464 0.4242472
vn -0.9263142 0.01860314 0.3762925
vn -0.4666678 -0.7797123 0.4174566
vn -0.8042219 -0.4400041 0.3995291
g RedLight_0
f 3/3/3 2/2/2 1/1/1
f 2/2/2 4/4/4 1/1/1
f 1/1/1 4/4/4 5/5/5
f 4/4/4 6/6/6 5/5/5
f 5/5/5 6/6/6 7/7/7
f 6/6/6 8/8/8 7/7/7
f 7/7/7 8/8/8 9/9/9
f 8/8/8 10/10/10 9/9/9
f 9/9/9 10/10/10 11/11/11
f 10/10/10 12/12/12 11/11/11
f 11/11/11 12/12/12 13/13/13
f 12/12/12 14/14/14 13/13/13
f 13/13/13 14/14/14 15/15/15
f 14/14/14 16/16/16 15/15/15
f 15/15/15 16/16/16 17/17/17
f 16/16/16 18/18/18 17/17/17
f 17/17/17 18/18/18 19/19/19
f 18/18/18 20/20/20 19/19/19
f 19/19/19 20/20/20 21/21/21
f 20/20/20 22/22/22 21/21/21
f 25/25/25 24/24/24 23/23/23
f 26/26/26 25/25/25 23/23/23
f 27/27/27 25/25/25 26/26/26
f 28/28/28 27/27/27 26/26/26
f 31/31/31 30/30/30 29/29/29
f 29/29/29 30/30/30 32/32/32
f 33/33/33 30/30/30 31/31/31
f 32/32/32 30/30/30 34/34/34
f 35/35/35 30/30/30 33/33/33
f 34/34/34 30/30/30 36/36/36
f 37/37/37 30/30/30 35/35/35
f 36/36/36 30/30/30 38/38/38
f 39/39/39 30/30/30 37/37/37
f 38/38/38 30/30/30 40/40/40
f 41/41/41 30/30/30 39/39/39
f 40/40/40 30/30/30 41/41/41
f 44/44/44 43/43/43 42/42/42
f 42/42/42 43/43/43 45/45/45
f 46/46/46 43/43/43 44/44/44
f 45/45/45 43/43/43 47/47/47
f 48/48/48 43/43/43 46/46/46
f 47/47/47 43/43/43 49/49/49
f 50/50/50 43/43/43 48/48/48
f 49/49/49 43/43/43 51/51/51
f 52/52/52 43/43/43 50/50/50
f 51/51/51 43/43/43 53/53/53
f 54/54/54 43/43/43 52/52/52
f 53/53/53 43/43/43 54/54/54
