g ReinforcementTurbine_R
v -15.19212 -2.62485 -27.87
v -13.49191 -2.604766 -18
v -16.0794 2.802269 -18
v -17.22695 1.627284 -27.87
v -21.52598 3.561058 -27.87
v -21.54607 5.261279 -18
v -26.9531 2.67379 -18
v -25.77811 1.526237 -27.87
v -27.71189 -2.772791 -27.87
v -29.41211 -2.792881 -18
v -26.82461 -8.199916 -18
v -25.67706 -7.024924 -27.87
v -21.37804 -8.958705 -27.87
v -21.35795 -10.65892 -18
v -15.95092 -8.071426 -18
v -17.12591 -6.923881 -27.87
v -13.49191 -2.604766 -18
v -15.19212 -2.62485 -27.87
v -15.95092 -8.071426 -18
v -17.12591 -6.923881 -27.87
v -21.45201 -2.698819 -27.87
v -15.19212 -2.62485 -27.87
v -17.22695 1.627284 -27.87
v -17.12591 -6.923881 -27.87
v -21.52598 3.561058 -27.87
v -21.37804 -8.958705 -27.87
v -25.77811 1.526237 -27.87
v -25.67706 -7.024924 -27.87
v -27.71189 -2.772791 -27.87
v -16.0794 2.802269 -18
v -13.49191 -2.604766 -18
v -21.45201 -2.698823 -18
v -21.54607 5.261279 -18
v -15.95092 -8.071426 -18
v -26.9531 2.67379 -18
v -21.35795 -10.65892 -18
v -29.41211 -2.792881 -18
v -26.82461 -8.199916 -18
vt 0.8398786 0.9463676
vt 0.6797878 0.9429317
vt 0.6846379 0.8628256
vt 0.8447157 0.8777743
vt 0.853662 0.809395
vt 0.6948787 0.7831534
vt 0.7112546 0.7042435
vt 0.8677785 0.7414927
vt 0.8859085 0.6744639
vt 0.7323156 0.6264005
vt 0.7591029 0.5504789
vt 0.9088961 0.6091616
vt 0.9356205 0.5457037
vt 0.7904934 0.4766184
vt 0.8277142 0.4045873
vt 0.9680811 0.4844946
vt 0.8827291 0.8459038
vt 0.9306806 0.8469329
vt 0.9270369 0.6846552
vt 0.9690806 0.7085896
vt 0.6277891 0.3566215
vt 0.6485739 0.3662655
vt 0.6353984 0.3774048
vt 0.6485724 0.3490121
vt 0.618145 0.3774063
vt 0.6374331 0.3358366
vt 0.6070058 0.3642308
vt 0.6201797 0.3358382
vt 0.6070042 0.3469774
vt 0.6374663 0.3830501
vt 0.6542203 0.3688852
vt 0.6277902 0.356622
vt 0.6155268 0.3830521
vt 0.6542183 0.3469458
vt 0.601362 0.3662981
vt 0.6400535 0.3301918
vt 0.60136 0.3443586
vt 0.6181141 0.3301938
vn 0.9829611 0.01161461 -0.1834463
vn 0.9999301 0.011815 0.0002481683
vn 0.6870549 0.703486 0.1818326
vn 0.6555855 0.6712641 -0.3458497
vn -0.01161513 0.9829609 -0.1834472
vn -0.01181567 0.9999301 0.000247818
vn -0.703486 0.6870551 0.1818318
vn -0.6712639 0.6555853 -0.3458504
vn -0.9829611 -0.01161514 -0.1834463
vn -0.9999301 -0.01181573 0.0002481774
vn -0.6870553 -0.7034857 0.1818321
vn -0.6555856 -0.6712638 -0.3458504
vn 0.0116155 -0.982961 -0.1834464
vn 0.01181612 -0.9999301 0.0002477765
vn 0.703486 -0.687055 0.181832
vn 0.6712637 -0.6555856 -0.3458503
vn 0.9999301 0.011815 0.0002481683
vn 0.9829611 0.01161461 -0.1834463
vn 0.703486 -0.687055 0.181832
vn 0.6712637 -0.6555856 -0.3458503
vn 1.495756E-07 0 -1
vn 0.9829611 0.01161461 -0.1834463
vn 0.6555855 0.6712641 -0.3458497
vn 0.6712637 -0.6555856 -0.3458503
vn -0.01161513 0.9829609 -0.1834472
vn 0.0116155 -0.982961 -0.1834464
vn -0.6712639 0.6555853 -0.3458504
vn -0.6555856 -0.6712638 -0.3458504
vn -0.9829611 -0.01161514 -0.1834463
vn 0.6870549 0.703486 0.1818326
vn 0.9999301 0.011815 0.0002481683
vn 0 0 1
vn -0.01181567 0.9999301 0.000247818
vn 0.703486 -0.687055 0.181832
vn -0.703486 0.6870551 0.1818318
vn 0.01181612 -0.9999301 0.0002477765
vn -0.9999301 -0.01181573 0.0002481774
vn -0.6870553 -0.7034857 0.1818321
g ReinforcementTurbine_R_0
f 3/3/3 2/2/2 1/1/1
f 3/3/3 1/1/1 4/4/4
f 3/3/3 4/4/4 5/5/5
f 3/3/3 5/5/5 6/6/6
f 5/5/5 7/7/7 6/6/6
f 5/5/5 8/8/8 7/7/7
f 7/7/7 8/8/8 9/9/9
f 7/7/7 9/9/9 10/10/10
f 9/9/9 11/11/11 10/10/10
f 9/9/9 12/12/12 11/11/11
f 11/11/11 12/12/12 13/13/13
f 11/11/11 13/13/13 14/14/14
f 13/13/13 15/15/15 14/14/14
f 13/13/13 16/16/16 15/15/15
f 19/19/19 18/18/18 17/17/17
f 19/19/19 20/20/20 18/18/18
f 23/23/23 22/22/22 21/21/21
f 21/21/21 22/22/22 24/24/24
f 21/21/21 25/25/25 23/23/23
f 21/21/21 24/24/24 26/26/26
f 21/21/21 27/27/27 25/25/25
f 21/21/21 26/26/26 28/28/28
f 21/21/21 29/29/29 27/27/27
f 21/21/21 28/28/28 29/29/29
f 32/32/32 31/31/31 30/30/30
f 30/30/30 33/33/33 32/32/32
f 34/34/34 31/31/31 32/32/32
f 33/33/33 35/35/35 32/32/32
f 36/36/36 34/34/34 32/32/32
f 35/35/35 37/37/37 32/32/32
f 38/38/38 36/36/36 32/32/32
f 37/37/37 38/38/38 32/32/32
