g ReinforcementTurbine_R
v -36.28413 -7.238375 -23.34135
v -26.07513 -7.388683 -18
v -24.79151 -7.390509 -27.81685
v -36.09877 -7.322889 -30.66445
v -36.09824 -4.133953 -30.66456
v -24.79074 -4.087141 -27.81673
v -36.28384 -4.220632 -23.34115
v -36.09877 -7.322889 -30.66445
v -36.28413 -7.238375 -23.34135
v -26.07443 -4.088726 -18
v -36.28413 -7.238375 -23.34135
v -26.07513 -7.388683 -18
v -14.26873 -4.226028 -27.87
v -12.56852 -4.205944 -18
v -15.15601 1.20109 -18
v -16.30355 0.02610578 -27.87
v -20.60258 1.95988 -27.87
v -20.62267 3.6601 -18
v -26.02971 1.072612 -18
v -24.85472 -0.07494175 -27.87
v -26.7885 -4.373969 -27.87
v -28.48871 -4.39406 -18
v -25.90122 -9.801093 -18
v -24.75367 -8.626102 -27.87
v -20.45465 -10.55988 -27.87
v -20.43456 -12.2601 -18
v -15.02752 -9.672606 -18
v -16.20251 -8.525059 -27.87
v -12.56852 -4.205944 -18
v -14.26873 -4.226028 -27.87
v -15.02752 -9.672606 -18
v -16.20251 -8.525059 -27.87
v -20.52862 -4.299997 -27.87
v -14.26873 -4.226028 -27.87
v -16.30355 0.02610578 -27.87
v -16.20251 -8.525059 -27.87
v -20.60258 1.95988 -27.87
v -20.45465 -10.55988 -27.87
v -24.85472 -0.07494175 -27.87
v -24.75367 -8.626102 -27.87
v -26.7885 -4.373969 -27.87
v -15.15601 1.20109 -18
v -12.56852 -4.205944 -18
v -20.52862 -4.300001 -18
v -20.62267 3.6601 -18
v -15.02752 -9.672606 -18
v -26.02971 1.072612 -18
v -20.43456 -12.2601 -18
v -28.48871 -4.39406 -18
v -25.90122 -9.801093 -18
vt 0.06567991 0.2561793
vt 0.01722845 0.4179246
vt 0.1729159 0.3956516
vt 0.1743933 0.2302895
vt 0.2053386 0.2304016
vt 0.2052608 0.3957715
vt 0.3138319 0.2572534
vt 0.2131055 0.2005497
vt 0.3209317 0.2297286
vt 0.360658 0.4194894
vt 0.341135 0.2490679
vt 0.3916254 0.410191
vt 0.8398786 0.9463676
vt 0.6797878 0.9429317
vt 0.6846379 0.8628256
vt 0.8447157 0.8777743
vt 0.853662 0.809395
vt 0.6948787 0.7831534
vt 0.7112546 0.7042435
vt 0.8677785 0.7414927
vt 0.8859085 0.6744639
vt 0.7323156 0.6264005
vt 0.7591029 0.5504789
vt 0.9088961 0.6091616
vt 0.9356205 0.5457037
vt 0.7904934 0.4766184
vt 0.8277142 0.4045873
vt 0.9680811 0.4844946
vt 0.8827291 0.8459038
vt 0.9306806 0.8469329
vt 0.9270369 0.6846552
vt 0.9690806 0.7085896
vt 0.6277891 0.3566215
vt 0.6485739 0.3662655
vt 0.6353984 0.3774048
vt 0.6485724 0.3490121
vt 0.618145 0.3774063
vt 0.6374331 0.3358366
vt 0.6070058 0.3642308
vt 0.6201797 0.3358382
vt 0.6070042 0.3469774
vt 0.6374663 0.3830501
vt 0.6542203 0.3688852
vt 0.6277902 0.356622
vt 0.6155268 0.3830521
vt 0.6542183 0.3469458
vt 0.601362 0.3662981
vt 0.6400535 0.3301918
vt 0.60136 0.3443586
vt 0.6181141 0.3301938
vn -0.5909141 -0.6061013 0.5324112
vn -0.3367873 -0.7052464 0.6238604
vn 0.1652802 -0.7097169 -0.6848243
vn -0.7788749 -0.4414172 -0.4455386
vn -0.2298909 0.4435251 -0.8662769
vn 0.1009129 0.896994 -0.43037
vn -0.7526339 0.606459 0.2564172
vn -0.7788749 -0.4414172 -0.4455386
vn -0.5909141 -0.6061013 0.5324112
vn -0.4193312 0.4464289 0.7904826
vn -0.5909141 -0.6061013 0.5324112
vn -0.3367873 -0.7052464 0.6238604
vn 0.8075593 0.009542302 -0.5897092
vn 0.7272858 0.008593736 0.6862809
vn 0.6547523 0.6704106 0.3490689
vn 0.4377114 0.4481798 -0.7794508
vn -0.009542321 0.807559 -0.5897096
vn -0.00859344 0.7272861 0.6862807
vn -0.6704107 0.6547525 0.3490683
vn -0.4481792 0.4377116 -0.7794511
vn -0.807559 -0.00954257 -0.5897096
vn -0.7272859 -0.008594114 0.6862808
vn -0.6547523 -0.6704108 0.3490684
vn -0.4377114 -0.4481796 -0.7794509
vn 0.009542241 -0.807559 -0.5897097
vn 0.008593887 -0.7272859 0.6862808
vn 0.6704109 -0.6547521 0.3490686
vn 0.4481795 -0.4377116 -0.7794509
vn 0.7272858 0.008593736 0.6862809
vn 0.8075593 0.009542302 -0.5897092
vn 0.6704109 -0.6547521 0.3490686
vn 0.4481795 -0.4377116 -0.7794509
vn 0 0 -1
vn 0.8075593 0.009542302 -0.5897092
vn 0.4377114 0.4481798 -0.7794508
vn 0.4481795 -0.4377116 -0.7794509
vn -0.009542321 0.807559 -0.5897096
vn 0.009542241 -0.807559 -0.5897097
vn -0.4481792 0.4377116 -0.7794511
vn -0.4377114 -0.4481796 -0.7794509
vn -0.807559 -0.00954257 -0.5897096
vn 0.6547523 0.6704106 0.3490689
vn 0.7272858 0.008593736 0.6862809
vn 0 0 1
vn -0.00859344 0.7272861 0.6862807
vn 0.6704109 -0.6547521 0.3490686
vn -0.6704107 0.6547525 0.3490683
vn 0.008593887 -0.7272859 0.6862808
vn -0.7272859 -0.008594114 0.6862808
vn -0.6547523 -0.6704108 0.3490684
g ReinforcementTurbine_R_0
f 3/3/3 2/2/2 1/1/1
f 3/3/3 1/1/1 4/4/4
f 5/5/5 3/3/3 4/4/4
f 5/5/5 6/6/6 3/3/3
f 7/7/7 6/6/6 5/5/5
f 7/7/7 5/5/5 8/8/8
f 7/7/7 8/8/8 9/9/9
f 7/7/7 10/10/10 6/6/6
f 10/10/10 7/7/7 11/11/11
f 10/10/10 11/11/11 12/12/12
f 15/15/15 14/14/14 13/13/13
f 15/15/15 13/13/13 16/16/16
f 15/15/15 16/16/16 17/17/17
f 15/15/15 17/17/17 18/18/18
f 17/17/17 19/19/19 18/18/18
f 17/17/17 20/20/20 19/19/19
f 19/19/19 20/20/20 21/21/21
f 19/19/19 21/21/21 22/22/22
f 21/21/21 23/23/23 22/22/22
f 21/21/21 24/24/24 23/23/23
f 23/23/23 24/24/24 25/25/25
f 23/23/23 25/25/25 26/26/26
f 25/25/25 27/27/27 26/26/26
f 25/25/25 28/28/28 27/27/27
f 31/31/31 30/30/30 29/29/29
f 31/31/31 32/32/32 30/30/30
f 35/35/35 34/34/34 33/33/33
f 33/33/33 34/34/34 36/36/36
f 33/33/33 37/37/37 35/35/35
f 33/33/33 36/36/36 38/38/38
f 33/33/33 39/39/39 37/37/37
f 33/33/33 38/38/38 40/40/40
f 33/33/33 41/41/41 39/39/39
f 33/33/33 40/40/40 41/41/41
f 44/44/44 43/43/43 42/42/42
f 42/42/42 45/45/45 44/44/44
f 46/46/46 43/43/43 44/44/44
f 45/45/45 47/47/47 44/44/44
f 48/48/48 46/46/46 44/44/44
f 47/47/47 49/49/49 44/44/44
f 50/50/50 48/48/48 44/44/44
f 49/49/49 50/50/50 44/44/44
