g ReinforcementTurbine_L
v -12.19543 0.09849075 6.332283
v -10.41507 0.07745956 -3.537717
v -9.485965 5.760421 6.332283
v -8.284323 4.530046 -3.537717
v -3.782631 6.554982 -3.537717
v -3.761589 8.335353 6.332283
v 1.900337 5.625886 6.332283
v 0.6699542 4.424235 -3.537717
v 2.694901 -0.07745529 -3.537717
v 4.475264 -0.09849289 6.332283
v 1.765792 -5.760424 6.332283
v 0.5641461 -4.530042 -3.537717
v -3.937537 -6.554983 -3.537717
v -3.958578 -8.335353 6.332283
v -9.620509 -5.625878 6.332283
v -8.390127 -4.424234 -3.537717
v -12.19543 0.09849075 6.332283
v -9.620509 -5.625878 6.332283
v -10.41507 0.07745956 -3.537717
v -8.390127 -4.424234 -3.537717
v 1.986426 -3.088682 6.332283
v 12.19543 -2.938375 0.9909301
v 0.7028058 -3.090508 -3.484573
v 12.01007 -3.022889 -6.332165
v 12.00954 0.1660481 -6.332283
v 0.7020343 0.2128596 -3.484446
v 12.19514 0.07936843 0.9911328
v 12.01007 -3.022889 -6.332165
v 12.19543 -2.938375 0.9909301
v 1.985731 0.2112752 6.332283
v 12.19543 -2.938375 0.9909301
v 1.986426 -3.088682 6.332283
v -3.860085 3.509521E-06 -3.537717
v -8.284323 4.530046 -3.537717
v -10.41507 0.07745956 -3.537717
v -8.390127 -4.424234 -3.537717
v -3.782631 6.554982 -3.537717
v -3.937537 -6.554983 -3.537717
v 0.6699542 4.424235 -3.537717
v 0.5641461 -4.530042 -3.537717
v 2.694901 -0.07745529 -3.537717
v -9.485965 5.760421 6.332283
v -3.860082 -4.577637E-07 6.332283
v -12.19543 0.09849075 6.332283
v -3.761589 8.335353 6.332283
v -9.620509 -5.625878 6.332283
v 1.900337 5.625886 6.332283
v -3.958578 -8.335353 6.332283
v 4.475264 -0.09849289 6.332283
v 1.765792 -5.760424 6.332283
vt 0.6797878 0.9429317
vt 0.8398786 0.9463676
vt 0.6846379 0.8628256
vt 0.8447157 0.8777743
vt 0.853662 0.809395
vt 0.6948787 0.7831534
vt 0.7112546 0.7042435
vt 0.8677785 0.7414927
vt 0.8859085 0.6744639
vt 0.7323156 0.6264005
vt 0.7591029 0.5504789
vt 0.9088961 0.6091616
vt 0.9356205 0.5457037
vt 0.7904934 0.4766184
vt 0.8277142 0.4045873
vt 0.9680811 0.4844946
vt 0.8898283 0.8044224
vt 0.9313357 0.6533656
vt 0.9347489 0.8053865
vt 0.970722 0.6757872
vt 0.01722845 0.4179246
vt 0.06567991 0.2561793
vt 0.1729159 0.3956516
vt 0.1743933 0.2302895
vt 0.2053386 0.2304016
vt 0.2052608 0.3957715
vt 0.3138319 0.2572534
vt 0.2131055 0.2005497
vt 0.3209317 0.2297286
vt 0.360658 0.4194894
vt 0.341135 0.2490679
vt 0.3916254 0.410191
vt 0.6277904 0.3566218
vt 0.6237012 0.3551247
vt 0.6258929 0.3525323
vt 0.6292875 0.3525327
vt 0.6237009 0.3585193
vt 0.6318799 0.3547243
vt 0.6262932 0.3607111
vt 0.6318796 0.358119
vt 0.6296878 0.3607114
vt 0.6225903 0.3547181
vt 0.6277902 0.356622
vt 0.6253772 0.3514217
vt 0.6225899 0.3590348
vt 0.6296939 0.3514221
vt 0.6258863 0.3618218
vt 0.6329904 0.3542091
vt 0.6302031 0.3618222
vt 0.63299 0.3585258
vn -0.7297722 0.008623173 0.6836361
vn -0.8041902 0.00950249 -0.5942961
vn -0.6562901 0.6719851 0.3431024
vn -0.4357758 0.4461979 -0.7816693
vn 0.009502556 0.8041899 -0.5942966
vn 0.008622902 0.7297724 0.6836358
vn 0.6719853 0.6562903 0.3431016
vn 0.4461972 0.435776 -0.7816696
vn 0.8041899 -0.009502713 -0.5942966
vn 0.7297722 -0.00862342 0.683636
vn 0.6562901 -0.6719854 0.3431019
vn 0.4357758 -0.4461977 -0.7816693
vn -0.009502423 -0.8041897 -0.5942966
vn -0.008623206 -0.7297722 0.683636
vn -0.6719856 -0.6562899 0.3431019
vn -0.4461976 -0.4357759 -0.7816694
vn -0.7297722 0.008623173 0.6836361
vn -0.6719856 -0.6562899 0.3431019
vn -0.8041902 0.00950249 -0.5942961
vn -0.4461976 -0.4357759 -0.7816694
vn 0.3367873 -0.7052464 0.6238604
vn 0.5909141 -0.6061013 0.5324112
vn -0.1652802 -0.7097169 -0.6848243
vn 0.7788749 -0.4414172 -0.4455386
vn 0.2298909 0.4435251 -0.8662769
vn -0.1009129 0.896994 -0.43037
vn 0.7526339 0.606459 0.2564172
vn 0.7788749 -0.4414172 -0.4455386
vn 0.5909141 -0.6061013 0.5324112
vn 0.4193312 0.4464289 0.7904826
vn 0.5909141 -0.6061013 0.5324112
vn 0.3367873 -0.7052464 0.6238604
vn 0 0 -1
vn -0.4357758 0.4461979 -0.7816693
vn -0.8041902 0.00950249 -0.5942961
vn -0.4461976 -0.4357759 -0.7816694
vn 0.009502556 0.8041899 -0.5942966
vn -0.009502423 -0.8041897 -0.5942966
vn 0.4461972 0.435776 -0.7816696
vn 0.4357758 -0.4461977 -0.7816693
vn 0.8041899 -0.009502713 -0.5942966
vn -0.6562901 0.6719851 0.3431024
vn 0 0 1
vn -0.7297722 0.008623173 0.6836361
vn 0.008622902 0.7297724 0.6836358
vn -0.6719856 -0.6562899 0.3431019
vn 0.6719853 0.6562903 0.3431016
vn -0.008623206 -0.7297722 0.683636
vn 0.7297722 -0.00862342 0.683636
vn 0.6562901 -0.6719854 0.3431019
g ReinforcementTurbine_L_0
f 3/3/3 2/2/2 1/1/1
f 3/3/3 4/4/4 2/2/2
f 5/5/5 4/4/4 3/3/3
f 5/5/5 3/3/3 6/6/6
f 5/5/5 6/6/6 7/7/7
f 5/5/5 7/7/7 8/8/8
f 9/9/9 8/8/8 7/7/7
f 9/9/9 7/7/7 10/10/10
f 9/9/9 10/10/10 11/11/11
f 9/9/9 11/11/11 12/12/12
f 13/13/13 12/12/12 11/11/11
f 13/13/13 11/11/11 14/14/14
f 13/13/13 14/14/14 15/15/15
f 13/13/13 15/15/15 16/16/16
f 19/19/19 18/18/18 17/17/17
f 19/19/19 20/20/20 18/18/18
f 23/23/23 22/22/22 21/21/21
f 23/23/23 24/24/24 22/22/22
f 23/23/23 25/25/25 24/24/24
f 23/23/23 26/26/26 25/25/25
f 27/27/27 25/25/25 26/26/26
f 28/28/28 25/25/25 27/27/27
f 28/28/28 27/27/27 29/29/29
f 27/27/27 26/26/26 30/30/30
f 31/31/31 27/27/27 30/30/30
f 31/31/31 30/30/30 32/32/32
f 35/35/35 34/34/34 33/33/33
f 35/35/35 33/33/33 36/36/36
f 37/37/37 33/33/33 34/34/34
f 36/36/36 33/33/33 38/38/38
f 39/39/39 33/33/33 37/37/37
f 38/38/38 33/33/33 40/40/40
f 41/41/41 33/33/33 39/39/39
f 40/40/40 33/33/33 41/41/41
f 44/44/44 43/43/43 42/42/42
f 45/45/45 42/42/42 43/43/43
f 44/44/44 46/46/46 43/43/43
f 47/47/47 45/45/45 43/43/43
f 46/46/46 48/48/48 43/43/43
f 49/49/49 47/47/47 43/43/43
f 48/48/48 50/50/50 43/43/43
f 50/50/50 49/49/49 43/43/43
