g ReinforcementTurbine_L
v -10.41507 0.07745956 -3.537717
v -9.485965 5.760421 6.332283
v -12.19543 0.09849075 6.332283
v -8.284323 4.530046 -3.537717
v -3.761589 8.335353 6.332283
v -3.782631 6.554982 -3.537717
v 1.900337 5.625886 6.332283
v 0.6699542 4.424235 -3.537717
v 4.475264 -0.09849289 6.332283
v 2.694901 -0.07745529 -3.537717
v 1.765792 -5.760424 6.332283
v 0.5641461 -4.530042 -3.537717
v -3.958578 -8.335353 6.332283
v -3.937537 -6.554983 -3.537717
v -9.620509 -5.625878 6.332283
v -8.390127 -4.424234 -3.537717
v -12.19543 0.09849075 6.332283
v -9.620509 -5.625878 6.332283
v -8.390127 -4.424234 -3.537717
v -10.41507 0.07745956 -3.537717
v 12.19543 -2.938375 0.9909301
v 0.7028058 -3.090508 -3.484573
v 1.986426 -3.088682 6.332283
v 12.01007 -3.022889 -6.332165
v 0.7020343 0.2128596 -3.484446
v 12.00954 0.1660481 -6.332283
v 12.19514 0.07936843 0.9911328
v 1.985731 0.2112752 6.332283
v 1.986426 -3.088682 6.332283
v 12.19543 -2.938375 0.9909301
v 12.19543 -2.938375 0.9909301
v 12.01007 -3.022889 -6.332165
v -3.860085 3.509521E-06 -3.537717
v -8.284323 4.530046 -3.537717
v -10.41507 0.07745956 -3.537717
v -8.390127 -4.424234 -3.537717
v -3.782631 6.554982 -3.537717
v -3.937537 -6.554983 -3.537717
v 0.6699542 4.424235 -3.537717
v 0.5641461 -4.530042 -3.537717
v 2.694901 -0.07745529 -3.537717
v -9.485965 5.760421 6.332283
v -3.860082 -4.577637E-07 6.332283
v -12.19543 0.09849075 6.332283
v -3.761589 8.335353 6.332283
v -9.620509 -5.625878 6.332283
v 1.900337 5.625886 6.332283
v -3.958578 -8.335353 6.332283
v 4.475264 -0.09849289 6.332283
v 1.765792 -5.760424 6.332283
vt 0.8398786 0.9463676
vt 0.6846379 0.8628256
vt 0.6797878 0.9429317
vt 0.8447157 0.8777743
vt 0.6948787 0.7831534
vt 0.853662 0.809395
vt 0.7112546 0.7042435
vt 0.8677785 0.7414927
vt 0.7323156 0.6264005
vt 0.8859085 0.6744639
vt 0.7591029 0.5504789
vt 0.9088961 0.6091616
vt 0.7904934 0.4766184
vt 0.9356205 0.5457037
vt 0.8277142 0.4045873
vt 0.9680811 0.4844946
vt 0.8898283 0.8044224
vt 0.9313357 0.6533656
vt 0.970722 0.6757872
vt 0.9347489 0.8053865
vt 0.06567991 0.2561793
vt 0.1729159 0.3956516
vt 0.01722845 0.4179246
vt 0.1743933 0.2302895
vt 0.2052608 0.3957715
vt 0.2053386 0.2304016
vt 0.3138319 0.2572534
vt 0.360658 0.4194894
vt 0.3916254 0.410191
vt 0.341135 0.2490679
vt 0.3209317 0.2297286
vt 0.2131055 0.2005497
vt 0.6277904 0.3566218
vt 0.6237012 0.3551247
vt 0.6258929 0.3525323
vt 0.6292875 0.3525327
vt 0.6237009 0.3585193
vt 0.6318799 0.3547243
vt 0.6262932 0.3607111
vt 0.6318796 0.358119
vt 0.6296878 0.3607114
vt 0.6225903 0.3547181
vt 0.6277902 0.356622
vt 0.6253772 0.3514217
vt 0.6225899 0.3590348
vt 0.6296939 0.3514221
vt 0.6258863 0.3618218
vt 0.6329904 0.3542091
vt 0.6302031 0.3618222
vt 0.63299 0.3585258
vn -0.9829611 0.01161461 -0.1834463
vn -0.6858805 0.7022836 0.1906972
vn -0.9999301 0.011815 0.0002481683
vn -0.6519078 0.6674984 -0.3598084
vn 0.01181567 0.9999301 0.000247818
vn 0.01161513 0.9829609 -0.1834472
vn 0.7022839 0.6858807 0.1906964
vn 0.6674984 0.6519074 -0.3598092
vn 0.9999301 -0.01181573 0.0002481774
vn 0.9829611 -0.01161514 -0.1834463
vn 0.6858808 -0.7022836 0.1906967
vn 0.6519076 -0.6674983 -0.3598089
vn -0.01181612 -0.9999301 0.0002477765
vn -0.0116155 -0.982961 -0.1834464
vn -0.7022839 -0.6858805 0.1906966
vn -0.6674982 -0.6519075 -0.3598091
vn -0.9999301 0.011815 0.0002481683
vn -0.7022839 -0.6858805 0.1906966
vn -0.6674982 -0.6519075 -0.3598091
vn -0.9829611 0.01161461 -0.1834463
vn 0.3047334 -0.9281325 0.2137934
vn -0.07079148 -0.9520572 -0.2976164
vn 0.2392277 -0.8945232 0.3776219
vn 0.1574297 -0.9119884 -0.3788049
vn -0.07248615 0.9519361 -0.2975962
vn 0.1559584 0.9124157 -0.3783839
vn 0.3031677 0.9286153 0.2139231
vn 0.2378687 0.8946729 0.3781256
vn 0.2392277 -0.8945232 0.3776219
vn 0.3047334 -0.9281325 0.2137934
vn 0.3047334 -0.9281325 0.2137934
vn 0.1574297 -0.9119884 -0.3788049
vn -1.214394E-07 0 -1
vn -0.6519078 0.6674984 -0.3598084
vn -0.9829611 0.01161461 -0.1834463
vn -0.6674982 -0.6519075 -0.3598091
vn 0.01161513 0.9829609 -0.1834472
vn -0.0116155 -0.982961 -0.1834464
vn 0.6674984 0.6519074 -0.3598092
vn 0.6519076 -0.6674983 -0.3598089
vn 0.9829611 -0.01161514 -0.1834463
vn -0.6858805 0.7022836 0.1906972
vn 0 0 1
vn -0.9999301 0.011815 0.0002481683
vn 0.01181567 0.9999301 0.000247818
vn -0.7022839 -0.6858805 0.1906966
vn 0.7022839 0.6858807 0.1906964
vn -0.01181612 -0.9999301 0.0002477765
vn 0.9999301 -0.01181573 0.0002481774
vn 0.6858808 -0.7022836 0.1906967
g ReinforcementTurbine_L_0
f 3/3/3 2/2/2 1/1/1
f 2/2/2 4/4/4 1/1/1
f 4/4/4 2/2/2 5/5/5
f 6/6/6 4/4/4 5/5/5
f 6/6/6 5/5/5 7/7/7
f 8/8/8 6/6/6 7/7/7
f 8/8/8 7/7/7 9/9/9
f 10/10/10 8/8/8 9/9/9
f 10/10/10 9/9/9 11/11/11
f 12/12/12 10/10/10 11/11/11
f 12/12/12 11/11/11 13/13/13
f 14/14/14 12/12/12 13/13/13
f 14/14/14 13/13/13 15/15/15
f 16/16/16 14/14/14 15/15/15
f 19/19/19 18/18/18 17/17/17
f 20/20/20 19/19/19 17/17/17
f 23/23/23 22/22/22 21/21/21
f 22/22/22 24/24/24 21/21/21
f 22/22/22 25/25/25 24/24/24
f 25/25/25 26/26/26 24/24/24
f 27/27/27 26/26/26 25/25/25
f 28/28/28 27/27/27 25/25/25
f 27/27/27 28/28/28 29/29/29
f 30/30/30 27/27/27 29/29/29
f 26/26/26 27/27/27 31/31/31
f 32/32/32 26/26/26 31/31/31
f 35/35/35 34/34/34 33/33/33
f 35/35/35 33/33/33 36/36/36
f 37/37/37 33/33/33 34/34/34
f 36/36/36 33/33/33 38/38/38
f 39/39/39 33/33/33 37/37/37
f 38/38/38 33/33/33 40/40/40
f 41/41/41 33/33/33 39/39/39
f 40/40/40 33/33/33 41/41/41
f 44/44/44 43/43/43 42/42/42
f 45/45/45 42/42/42 43/43/43
f 44/44/44 46/46/46 43/43/43
f 47/47/47 45/45/45 43/43/43
f 46/46/46 48/48/48 43/43/43
f 49/49/49 47/47/47 43/43/43
f 48/48/48 50/50/50 43/43/43
f 50/50/50 49/49/49 43/43/43
