g ReinforcementTurbine_L1
v -12.19543 0.09849075 6.332283
v -10.41507 0.07745956 -3.537717
v -9.485965 5.760421 6.332283
v -8.284323 4.530046 -3.537717
v -3.782631 6.554982 -3.537717
v -3.761589 8.335353 6.332283
v 1.900337 5.625886 6.332283
v 0.6699542 4.424235 -3.537717
v 2.694901 -0.07745529 -3.537717
v 4.475264 -0.09849289 6.332283
v 1.765792 -5.760424 6.332283
v 0.5641461 -4.530042 -3.537717
v -3.937537 -6.554983 -3.537717
v -3.958578 -8.335353 6.332283
v -9.620509 -5.625878 6.332283
v -8.390127 -4.424234 -3.537717
v -12.19543 0.09849075 6.332283
v -9.620509 -5.625878 6.332283
v -10.41507 0.07745956 -3.537717
v -8.390127 -4.424234 -3.537717
v -3.860085 3.509521E-06 -3.537717
v -8.284323 4.530046 -3.537717
v -10.41507 0.07745956 -3.537717
v -8.390127 -4.424234 -3.537717
v -3.782631 6.554982 -3.537717
v -3.937537 -6.554983 -3.537717
v 0.6699542 4.424235 -3.537717
v 0.5641461 -4.530042 -3.537717
v 2.694901 -0.07745529 -3.537717
v -9.485965 5.760421 6.332283
v -3.860082 -4.577637E-07 6.332283
v -12.19543 0.09849075 6.332283
v -3.761589 8.335353 6.332283
v -9.620509 -5.625878 6.332283
v 1.900337 5.625886 6.332283
v -3.958578 -8.335353 6.332283
v 4.475264 -0.09849289 6.332283
v 1.765792 -5.760424 6.332283
vt 0.6797878 0.9429317
vt 0.8398786 0.9463676
vt 0.6846379 0.8628256
vt 0.8447157 0.8777743
vt 0.853662 0.809395
vt 0.6948787 0.7831534
vt 0.7112546 0.7042435
vt 0.8677785 0.7414927
vt 0.8859085 0.6744639
vt 0.7323156 0.6264005
vt 0.7591029 0.5504789
vt 0.9088961 0.6091616
vt 0.9356205 0.5457037
vt 0.7904934 0.4766184
vt 0.8277142 0.4045873
vt 0.9680811 0.4844946
vt 0.8898283 0.8044224
vt 0.9313357 0.6533656
vt 0.9347489 0.8053865
vt 0.970722 0.6757872
vt 0.6277904 0.3566218
vt 0.6237012 0.3551247
vt 0.6258929 0.3525323
vt 0.6292875 0.3525327
vt 0.6237009 0.3585193
vt 0.6318799 0.3547243
vt 0.6262932 0.3607111
vt 0.6318796 0.358119
vt 0.6296878 0.3607114
vt 0.6225903 0.3547181
vt 0.6277902 0.356622
vt 0.6253772 0.3514217
vt 0.6225899 0.3590348
vt 0.6296939 0.3514221
vt 0.6258863 0.3618218
vt 0.6329904 0.3542091
vt 0.6302031 0.3618222
vt 0.63299 0.3585258
vn -0.9999301 0.011815 0.0002481683
vn -0.9829611 0.01161461 -0.1834463
vn -0.6858805 0.7022836 0.1906972
vn -0.6519078 0.6674984 -0.3598084
vn 0.01161513 0.9829609 -0.1834472
vn 0.01181567 0.9999301 0.000247818
vn 0.7022839 0.6858807 0.1906964
vn 0.6674984 0.6519074 -0.3598092
vn 0.9829611 -0.01161514 -0.1834463
vn 0.9999301 -0.01181573 0.0002481774
vn 0.6858808 -0.7022836 0.1906967
vn 0.6519076 -0.6674983 -0.3598089
vn -0.0116155 -0.982961 -0.1834464
vn -0.01181612 -0.9999301 0.0002477765
vn -0.7022839 -0.6858805 0.1906966
vn -0.6674982 -0.6519075 -0.3598091
vn -0.9999301 0.011815 0.0002481683
vn -0.7022839 -0.6858805 0.1906966
vn -0.9829611 0.01161461 -0.1834463
vn -0.6674982 -0.6519075 -0.3598091
vn -1.214394E-07 0 -1
vn -0.6519078 0.6674984 -0.3598084
vn -0.9829611 0.01161461 -0.1834463
vn -0.6674982 -0.6519075 -0.3598091
vn 0.01161513 0.9829609 -0.1834472
vn -0.0116155 -0.982961 -0.1834464
vn 0.6674984 0.6519074 -0.3598092
vn 0.6519076 -0.6674983 -0.3598089
vn 0.9829611 -0.01161514 -0.1834463
vn -0.6858805 0.7022836 0.1906972
vn 0 0 1
vn -0.9999301 0.011815 0.0002481683
vn 0.01181567 0.9999301 0.000247818
vn -0.7022839 -0.6858805 0.1906966
vn 0.7022839 0.6858807 0.1906964
vn -0.01181612 -0.9999301 0.0002477765
vn 0.9999301 -0.01181573 0.0002481774
vn 0.6858808 -0.7022836 0.1906967
g ReinforcementTurbine_L1_0
f 3/3/3 2/2/2 1/1/1
f 3/3/3 4/4/4 2/2/2
f 5/5/5 4/4/4 3/3/3
f 5/5/5 3/3/3 6/6/6
f 5/5/5 6/6/6 7/7/7
f 5/5/5 7/7/7 8/8/8
f 9/9/9 8/8/8 7/7/7
f 9/9/9 7/7/7 10/10/10
f 9/9/9 10/10/10 11/11/11
f 9/9/9 11/11/11 12/12/12
f 13/13/13 12/12/12 11/11/11
f 13/13/13 11/11/11 14/14/14
f 13/13/13 14/14/14 15/15/15
f 13/13/13 15/15/15 16/16/16
f 19/19/19 18/18/18 17/17/17
f 19/19/19 20/20/20 18/18/18
f 23/23/23 22/22/22 21/21/21
f 23/23/23 21/21/21 24/24/24
f 25/25/25 21/21/21 22/22/22
f 24/24/24 21/21/21 26/26/26
f 27/27/27 21/21/21 25/25/25
f 26/26/26 21/21/21 28/28/28
f 29/29/29 21/21/21 27/27/27
f 28/28/28 21/21/21 29/29/29
f 32/32/32 31/31/31 30/30/30
f 33/33/33 30/30/30 31/31/31
f 32/32/32 34/34/34 31/31/31
f 35/35/35 33/33/33 31/31/31
f 34/34/34 36/36/36 31/31/31
f 37/37/37 35/35/35 31/31/31
f 36/36/36 38/38/38 31/31/31
f 38/38/38 37/37/37 31/31/31
