g Revolver
v 1.454093 -2.518563 4.510667
v -3.071888E-14 -2.908187 -2.715257
v -3.071888E-14 -2.908187 4.510667
v 1.454093 -2.518563 -2.715257
v 2.518563 -1.454094 4.510667
v -2.717695E-14 -2.908187 -3.712171
v 2.518563 -1.454094 -2.715257
v 1.286434 -2.518563 -3.712171
v -1.785216E-14 -1.687951 -4.510667
v 2.228169 -1.454094 -3.712171
v 0.8450409 -1.461809 -4.510667
v 1.463654 -0.8439754 -4.510667
v -1.454093 -2.518563 4.510667
v -2.518563 -1.454094 -2.715257
v -2.518563 -1.454094 4.510667
v -1.454093 -2.518563 -2.715257
v -3.071888E-14 -2.908187 4.510667
v -2.228169 -1.454094 -3.712171
v -3.071888E-14 -2.908187 -2.715257
v -1.286434 -2.518563 -3.712171
v -1.463654 -0.8439754 -4.510667
v -2.717695E-14 -2.908187 -3.712171
v -0.8450409 -1.461809 -4.510667
v -1.785216E-14 -1.687951 -4.510667
v -2.908187 -1.525879E-07 4.510667
v -2.518563 1.454093 -2.715257
v -2.518563 1.454093 4.510667
v -2.908187 -1.525879E-07 -2.715257
v -2.518563 -1.454094 4.510667
v -2.228169 1.454093 -3.712171
v -2.518563 -1.454094 -2.715257
v -2.572868 -1.525879E-07 -3.712171
v -1.463654 0.8439744 -4.510667
v -2.228169 -1.454094 -3.712171
v -1.690082 -1.525879E-07 -4.510667
v -1.463654 -0.8439754 -4.510667
v -1.454093 2.518563 4.510667
v -3.071888E-14 2.908187 -2.715257
v -3.071888E-14 2.908187 4.510667
v -1.454093 2.518563 -2.715257
v -2.518563 1.454093 4.510667
v -2.717695E-14 2.908187 -3.712171
v -2.518563 1.454093 -2.715257
v -1.286434 2.518563 -3.712171
v -1.785216E-14 1.68795 -4.510667
v -2.228169 1.454093 -3.712171
v -0.8450409 1.461808 -4.510667
v -1.463654 0.8439744 -4.510667
v 1.454093 2.518563 4.510667
v 2.518563 1.454093 -2.715257
v 2.518563 1.454093 4.510667
v 1.454093 2.518563 -2.715257
v -3.071888E-14 2.908187 4.510667
v 2.228169 1.454093 -3.712171
v -3.071888E-14 2.908187 -2.715257
v 1.286434 2.518563 -3.712171
v 1.463654 0.8439744 -4.510667
v -2.717695E-14 2.908187 -3.712171
v 0.8450409 1.461808 -4.510667
v -1.785216E-14 1.68795 -4.510667
v 2.908187 -1.525879E-07 4.510667
v 2.518563 -1.454094 -2.715257
v 2.518563 -1.454094 4.510667
v 2.908187 -1.525879E-07 -2.715257
v 2.518563 1.454093 4.510667
v 2.228169 -1.454094 -3.712171
v 2.518563 1.454093 -2.715257
v 2.572868 -1.525879E-07 -3.712171
v 1.463654 -0.8439754 -4.510667
v 2.228169 1.454093 -3.712171
v 1.690082 -1.525879E-07 -4.510667
v 1.463654 0.8439744 -4.510667
v 1.454093 -2.518563 4.510667
v -3.071888E-14 -1.525879E-07 4.510667
v 2.518563 -1.454094 4.510667
v -3.071888E-14 -2.908187 4.510667
v 2.908187 -1.525879E-07 4.510667
v -1.454093 -2.518563 4.510667
v 2.518563 1.454093 4.510667
v -2.518563 -1.454094 4.510667
v 1.454093 2.518563 4.510667
v -2.908187 -1.525879E-07 4.510667
v -3.071888E-14 2.908187 4.510667
v -2.518563 1.454093 4.510667
v -1.454093 2.518563 4.510667
v 1.463654 -0.8439754 -4.510667
v -2.433997E-14 -1.525879E-07 -4.510667
v 0.8450409 -1.461809 -4.510667
v 1.690082 -1.525879E-07 -4.510667
v -1.785216E-14 -1.687951 -4.510667
v 1.463654 0.8439744 -4.510667
v -0.8450409 -1.461809 -4.510667
v 0.8450409 1.461808 -4.510667
v -1.463654 -0.8439754 -4.510667
v -1.785216E-14 1.68795 -4.510667
v -1.690082 -1.525879E-07 -4.510667
v -0.8450409 1.461808 -4.510667
v -1.463654 0.8439744 -4.510667
vt 0.7423774 0.5848412
vt 0.7777368 0.7191413
vt 0.7777368 0.5848412
vt 0.7423774 0.7191413
vt 0.7036884 0.5848412
vt 0.7777368 0.7382881
vt 0.7036884 0.7191413
vt 0.7423774 0.7382881
vt 0.7777368 0.7580175
vt 0.7036884 0.7382881
vt 0.7423774 0.7580176
vt 0.7036884 0.7580176
vt 0.7423774 0.5848412
vt 0.7777368 0.7191413
vt 0.7777368 0.5848412
vt 0.7423774 0.7191413
vt 0.7036884 0.5848412
vt 0.7777368 0.7382881
vt 0.7036884 0.7191413
vt 0.7423774 0.7382881
vt 0.7777368 0.7580175
vt 0.7036884 0.7382881
vt 0.7423774 0.7580176
vt 0.7036884 0.7580175
vt 0.7423774 0.5848412
vt 0.7777368 0.7191413
vt 0.7777368 0.5848412
vt 0.7423774 0.7191413
vt 0.7036884 0.5848412
vt 0.7777368 0.7382881
vt 0.7036884 0.7191413
vt 0.7423774 0.7382881
vt 0.7777368 0.7580175
vt 0.7036884 0.7382881
vt 0.7423774 0.7580176
vt 0.7036884 0.7580175
vt 0.7423774 0.5848412
vt 0.7777368 0.7191413
vt 0.7777368 0.5848412
vt 0.7423774 0.7191413
vt 0.7036884 0.5848412
vt 0.7777368 0.7382881
vt 0.7036884 0.7191413
vt 0.7423774 0.7382881
vt 0.7777368 0.7580176
vt 0.7036884 0.7382881
vt 0.7423774 0.7580176
vt 0.7036884 0.7580175
vt 0.7423774 0.5848412
vt 0.7777368 0.7191413
vt 0.7777368 0.5848412
vt 0.7423774 0.7191413
vt 0.7036884 0.5848412
vt 0.7777368 0.7382881
vt 0.7036884 0.7191413
vt 0.7423774 0.7382881
vt 0.7777368 0.7580175
vt 0.7036884 0.7382881
vt 0.7423774 0.7580176
vt 0.7036884 0.7580176
vt 0.7423774 0.5848412
vt 0.7777368 0.7191413
vt 0.7777368 0.5848412
vt 0.7423774 0.7191413
vt 0.7036884 0.5848412
vt 0.7777368 0.7382881
vt 0.7036884 0.7191413
vt 0.7423774 0.7382881
vt 0.7777368 0.7580176
vt 0.7036884 0.7382881
vt 0.7423774 0.7580176
vt 0.7036884 0.7580175
vt 0.7703071 0.784906
vt 0.7431722 0.8319049
vt 0.7901711 0.80477
vt 0.7431722 0.7776352
vt 0.7974419 0.8319049
vt 0.7160374 0.784906
vt 0.7901711 0.8590397
vt 0.6961733 0.80477
vt 0.7703071 0.8789038
vt 0.6889026 0.8319049
vt 0.7431722 0.8861746
vt 0.6961733 0.8590397
vt 0.7160374 0.8789038
vt 0.9762834 0.8189167
vt 0.9672615 0.8477641
vt 0.9894843 0.8273054
vt 0.960665 0.8182577
vt 0.9967306 0.8411759
vt 0.9468142 0.8255048
vt 0.9960808 0.8568118
vt 0.9384422 0.8387164
vt 0.9877087 0.8700233
vt 0.9377923 0.8543522
vt 0.9738579 0.8772704
vt 0.9450387 0.8682227
vt 0.9582396 0.8766115
vn 0.4931146 -0.8540995 0.1653847
vn 0 -0.9999963 -0.002750904
vn 0 -0.9862292 0.1653848
vn 0.5050301 -0.8630146 -0.01226547
vn 0.8540995 -0.4931147 0.1653847
vn 0 -0.881916 -0.4714065
vn 0.8684604 -0.4949109 -0.0289794
vn 0.4406228 -0.7575473 -0.4816364
vn 0 -0.4267723 -0.9043591
vn 0.7505839 -0.4284205 -0.5030702
vn 0.2422956 -0.3756706 -0.8945192
vn 0.4330918 -0.2227796 -0.8733847
vn -0.4931145 -0.8540995 0.1653847
vn -0.8684604 -0.4949109 -0.02897941
vn -0.8540995 -0.4931147 0.1653847
vn -0.5050301 -0.8630146 -0.01226548
vn 0 -0.9862292 0.1653848
vn -0.7505838 -0.4284206 -0.5030704
vn 0 -0.9999963 -0.002750904
vn -0.4406226 -0.7575473 -0.4816367
vn -0.4330917 -0.2227796 -0.8733847
vn 0 -0.881916 -0.4714065
vn -0.2422954 -0.3756706 -0.8945192
vn 0 -0.4267723 -0.9043591
vn -0.9862291 0 0.1653848
vn -0.8684604 0.4949109 -0.0289794
vn -0.8540995 0.4931146 0.1653847
vn -0.9993426 0 -0.03625385
vn -0.8540995 -0.4931147 0.1653847
vn -0.7505839 0.4284206 -0.5030702
vn -0.8684604 -0.4949109 -0.02897941
vn -0.858161 0 -0.5133807
vn -0.4330919 0.2227796 -0.8733845
vn -0.7505838 -0.4284206 -0.5030704
vn -0.5063393 0 -0.8623344
vn -0.4330917 -0.2227796 -0.8733847
vn -0.4931148 0.8540994 0.1653847
vn 0 0.9999963 -0.002750933
vn 0 0.9862292 0.1653847
vn -0.5050302 0.8630145 -0.01226549
vn -0.8540995 0.4931146 0.1653847
vn 0 0.881916 -0.4714065
vn -0.8684604 0.4949109 -0.0289794
vn -0.4406229 0.7575471 -0.4816365
vn 0 0.4267723 -0.9043591
vn -0.7505839 0.4284206 -0.5030702
vn -0.2422959 0.3756704 -0.894519
vn -0.4330919 0.2227796 -0.8733845
vn 0.4931147 0.8540993 0.1653847
vn 0.8684604 0.4949109 -0.02897939
vn 0.8540995 0.4931146 0.1653847
vn 0.5050303 0.8630145 -0.01226548
vn 0 0.9862292 0.1653847
vn 0.750584 0.4284204 -0.5030702
vn 0 0.9999963 -0.002750933
vn 0.440623 0.7575472 -0.4816364
vn 0.4330921 0.2227795 -0.8733845
vn 0 0.881916 -0.4714065
vn 0.2422962 0.3756705 -0.894519
vn 0 0.4267723 -0.9043591
vn 0.9862291 0 0.1653848
vn 0.8684604 -0.4949109 -0.0289794
vn 0.8540995 -0.4931147 0.1653847
vn 0.9993426 0 -0.03625385
vn 0.8540995 0.4931146 0.1653847
vn 0.7505839 -0.4284205 -0.5030702
vn 0.8684604 0.4949109 -0.02897939
vn 0.858161 0 -0.5133807
vn 0.4330918 -0.2227796 -0.8733847
vn 0.750584 0.4284204 -0.5030702
vn 0.5063393 0 -0.8623343
vn 0.4330921 0.2227795 -0.8733845
vn 0.4931146 -0.8540995 0.1653847
vn 0 0 1
vn 0.8540995 -0.4931147 0.1653847
vn 0 -0.9862292 0.1653848
vn 0.9862291 0 0.1653848
vn -0.4931145 -0.8540995 0.1653847
vn 0.8540995 0.4931146 0.1653847
vn -0.8540995 -0.4931147 0.1653847
vn 0.4931147 0.8540993 0.1653847
vn -0.9862291 0 0.1653848
vn 0 0.9862292 0.1653847
vn -0.8540995 0.4931146 0.1653847
vn -0.4931148 0.8540994 0.1653847
vn 0.4330918 -0.2227796 -0.8733847
vn 0 0 -1
vn 0.2422956 -0.3756706 -0.8945192
vn 0.5063393 0 -0.8623343
vn 0 -0.4267723 -0.9043591
vn 0.4330921 0.2227795 -0.8733845
vn -0.2422954 -0.3756706 -0.8945192
vn 0.2422962 0.3756705 -0.894519
vn -0.4330917 -0.2227796 -0.8733847
vn 0 0.4267723 -0.9043591
vn -0.5063393 0 -0.8623344
vn -0.2422959 0.3756704 -0.894519
vn -0.4330919 0.2227796 -0.8733845
g Revolver_0
f 3/3/3 2/2/2 1/1/1
f 2/2/2 4/4/4 1/1/1
f 1/1/1 4/4/4 5/5/5
f 2/2/2 6/6/6 4/4/4
f 4/4/4 7/7/7 5/5/5
f 6/6/6 8/8/8 4/4/4
f 4/4/4 8/8/8 7/7/7
f 6/6/6 9/9/9 8/8/8
f 8/8/8 10/10/10 7/7/7
f 9/9/9 11/11/11 8/8/8
f 8/8/8 11/11/11 10/10/10
f 11/11/11 12/12/12 10/10/10
f 15/15/15 14/14/14 13/13/13
f 14/14/14 16/16/16 13/13/13
f 13/13/13 16/16/16 17/17/17
f 14/14/14 18/18/18 16/16/16
f 16/16/16 19/19/19 17/17/17
f 18/18/18 20/20/20 16/16/16
f 16/16/16 20/20/20 19/19/19
f 18/18/18 21/21/21 20/20/20
f 20/20/20 22/22/22 19/19/19
f 21/21/21 23/23/23 20/20/20
f 20/20/20 23/23/23 22/22/22
f 23/23/23 24/24/24 22/22/22
f 27/27/27 26/26/26 25/25/25
f 26/26/26 28/28/28 25/25/25
f 25/25/25 28/28/28 29/29/29
f 26/26/26 30/30/30 28/28/28
f 28/28/28 31/31/31 29/29/29
f 30/30/30 32/32/32 28/28/28
f 28/28/28 32/32/32 31/31/31
f 30/30/30 33/33/33 32/32/32
f 32/32/32 34/34/34 31/31/31
f 33/33/33 35/35/35 32/32/32
f 32/32/32 35/35/35 34/34/34
f 35/35/35 36/36/36 34/34/34
f 39/39/39 38/38/38 37/37/37
f 38/38/38 40/40/40 37/37/37
f 37/37/37 40/40/40 41/41/41
f 38/38/38 42/42/42 40/40/40
f 40/40/40 43/43/43 41/41/41
f 42/42/42 44/44/44 40/40/40
f 40/40/40 44/44/44 43/43/43
f 42/42/42 45/45/45 44/44/44
f 44/44/44 46/46/46 43/43/43
f 45/45/45 47/47/47 44/44/44
f 44/44/44 47/47/47 46/46/46
f 47/47/47 48/48/48 46/46/46
f 51/51/51 50/50/50 49/49/49
f 50/50/50 52/52/52 49/49/49
f 49/49/49 52/52/52 53/53/53
f 50/50/50 54/54/54 52/52/52
f 52/52/52 55/55/55 53/53/53
f 54/54/54 56/56/56 52/52/52
f 52/52/52 56/56/56 55/55/55
f 54/54/54 57/57/57 56/56/56
f 56/56/56 58/58/58 55/55/55
f 57/57/57 59/59/59 56/56/56
f 56/56/56 59/59/59 58/58/58
f 59/59/59 60/60/60 58/58/58
f 63/63/63 62/62/62 61/61/61
f 62/62/62 64/64/64 61/61/61
f 61/61/61 64/64/64 65/65/65
f 62/62/62 66/66/66 64/64/64
f 64/64/64 67/67/67 65/65/65
f 66/66/66 68/68/68 64/64/64
f 64/64/64 68/68/68 67/67/67
f 66/66/66 69/69/69 68/68/68
f 68/68/68 70/70/70 67/67/67
f 69/69/69 71/71/71 68/68/68
f 68/68/68 71/71/71 70/70/70
f 71/71/71 72/72/72 70/70/70
f 75/75/75 74/74/74 73/73/73
f 73/73/73 74/74/74 76/76/76
f 77/77/77 74/74/74 75/75/75
f 76/76/76 74/74/74 78/78/78
f 79/79/79 74/74/74 77/77/77
f 78/78/78 74/74/74 80/80/80
f 81/81/81 74/74/74 79/79/79
f 80/80/80 74/74/74 82/82/82
f 83/83/83 74/74/74 81/81/81
f 82/82/82 74/74/74 84/84/84
f 85/85/85 74/74/74 83/83/83
f 84/84/84 74/74/74 85/85/85
f 88/88/88 87/87/87 86/86/86
f 86/86/86 87/87/87 89/89/89
f 90/90/90 87/87/87 88/88/88
f 89/89/89 87/87/87 91/91/91
f 92/92/92 87/87/87 90/90/90
f 91/91/91 87/87/87 93/93/93
f 94/94/94 87/87/87 92/92/92
f 93/93/93 87/87/87 95/95/95
f 96/96/96 87/87/87 94/94/94
f 95/95/95 87/87/87 97/97/97
f 98/98/98 87/87/87 96/96/96
f 97/97/97 87/87/87 98/98/98
