g REyebrow
v -0.7313053 6.879407 4.221388
v -0.6805181 7.419473 4.089486
v -0.6031691 6.859384 4.141382
v -0.8195607 7.401446 4.166095
v -0.6766508 6.46323 4.148636
v -0.7858618 6.601624 4.225779
v -0.9941849 6.580038 4.179233
v -0.9670697 6.461214 4.082037
v -1.450831 6.538445 3.966189
v -1.432307 6.649866 4.074323
v -2.064279 6.757576 3.811903
v -0.9284862 7.624556 4.133966
v -0.8571606 7.695161 4.032106
v -1.11008 7.711044 4.086976
v -1.180937 7.821691 3.950011
v -1.038129 7.318572 4.119947
v -1.647705 7.024129 3.988229
v -1.108 7.436335 3.990247
v -1.978082 6.836291 3.937575
v -2.196706 6.993934 3.767077
v -1.642452 7.620841 3.966884
v -1.637488 7.730321 3.850688
v -2.070617 6.980953 3.907502
v -1.818679 7.035584 3.851389
v -2.183406 7.43366 3.743341
v -2.070468 7.436463 3.879783
v -2.169875 7.74771 3.727315
v -2.046271 7.632889 3.873374
vt 0.3136286 0.3116154
vt 0.296084 0.3528232
vt 0.292822 0.3065362
vt 0.318995 0.3501497
vt 0.307034 0.2744693
vt 0.3184601 0.2932604
vt 0.333506 0.2912907
vt 0.3317612 0.2680807
vt 0.3703477 0.2681194
vt 0.3657661 0.2921368
vt 0.4207915 0.2737537
vt 0.319886 0.3650369
vt 0.3041938 0.3790433
vt 0.3266058 0.3742728
vt 0.3289022 0.3962732
vt 0.3384843 0.3477809
vt 0.388733 0.3172242
vt 0.3500294 0.3728183
vt 0.4054218 0.293059
vt 0.4362545 0.2914504
vt 0.38843 0.3633076
vt 0.3930304 0.3865385
vt 0.4142902 0.298117
vt 0.4198628 0.3179448
vt 0.4423976 0.3538384
vt 0.418001 0.3522072
vt 0.436451 0.3799695
vt 0.4164068 0.3648132
vn 0.6217279 -0.06505376 0.780527
vn 0.8419191 0.2955113 0.4514923
vn 0.8817406 -0.04888444 0.4691949
vn 0.2479415 0.09419015 0.9641853
vn 0.4893162 -0.701964 0.5175096
vn 0.2518064 -0.5342788 0.8069323
vn -0.2268094 -0.5776557 0.7841374
vn -0.1583751 -0.9207144 0.3566543
vn -0.3184501 -0.8929522 0.3181603
vn -0.3059556 -0.4555905 0.8359596
vn -0.6399413 -0.6959494 0.3257753
vn 0.3865074 0.5465013 0.7429323
vn 0.5875828 0.7088905 0.390155
vn -0.4808964 0.3410355 0.8077335
vn -0.6002511 0.6602604 0.4513922
vn -0.3424724 0.1227319 0.9314771
vn -0.4034641 0.04597407 0.9138397
vn -0.5633804 0.6659466 0.4889967
vn -0.5620797 -0.5348631 0.6308629
vn -0.8047822 0.4497756 0.3873339
vn -0.02576772 0.5156227 0.8564282
vn 0.1913636 0.9056301 0.3784362
vn -0.6023132 0.2613449 0.7542663
vn -0.8297925 0.3517184 0.4332881
vn -0.8786924 -0.3205961 0.3537199
vn -0.7241232 -0.2656476 0.6364565
vn -0.6181499 0.6102039 0.4955218
vn -0.5179886 0.3812152 0.7657433
g REyebrow_0
f 3/3/3 2/2/2 1/1/1
f 2/2/2 4/4/4 1/1/1
f 3/3/3 1/1/1 5/5/5
f 1/1/1 6/6/6 5/5/5
f 1/1/1 4/4/4 6/6/6
f 6/6/6 7/7/7 5/5/5
f 4/4/4 7/7/7 6/6/6
f 7/7/7 8/8/8 5/5/5
f 9/9/9 8/8/8 7/7/7
f 10/10/10 9/9/9 7/7/7
f 10/10/10 7/7/7 4/4/4
f 11/11/11 9/9/9 10/10/10
f 12/12/12 4/4/4 2/2/2
f 13/13/13 12/12/12 2/2/2
f 14/14/14 12/12/12 13/13/13
f 12/12/12 14/14/14 4/4/4
f 15/15/15 14/14/14 13/13/13
f 14/14/14 16/16/16 4/4/4
f 14/14/14 15/15/15 16/16/16
f 16/16/16 10/10/10 4/4/4
f 17/17/17 10/10/10 16/16/16
f 15/15/15 18/18/18 16/16/16
f 19/19/19 11/11/11 10/10/10
f 19/19/19 10/10/10 17/17/17
f 20/20/20 11/11/11 19/19/19
f 21/21/21 16/16/16 18/18/18
f 21/21/21 17/17/17 16/16/16
f 22/22/22 21/21/21 18/18/18
f 23/23/23 20/20/20 19/19/19
f 23/23/23 19/19/19 17/17/17
f 20/20/20 23/23/23 24/24/24
f 23/23/23 17/17/17 24/24/24
f 25/25/25 24/24/24 17/17/17
f 26/26/26 25/25/25 17/17/17
f 26/26/26 17/17/17 21/21/21
f 27/27/27 25/25/25 26/26/26
f 28/28/28 21/21/21 22/22/22
f 28/28/28 26/26/26 21/21/21
f 28/28/28 27/27/27 26/26/26
f 27/27/27 28/28/28 22/22/22
