g RFin
v 1.533609E-08 -0.443255 -2.085351
v -3.974958 4.711668 -7.686563
v -1.127249 -0.9101896 -2.011168
v -3.419128 4.941906 -7.723141
v -4.189671 6.66124 -7.627047
v -4.745502 6.431 -7.59047
v -5.112564 7.590864 -5.939771
v -4.556732 7.821103 -5.976349
v -5.411735 8.939193 -2.696744
v -4.855899 9.169425 -2.733318
v -0.460036 1.491725 2.249982
v -4.706612 9.309752 -0.5225958
v -5.262442 9.079515 -0.4860183
v -4.378572 7.619748 1.816727
v -3.822742 7.849989 1.780147
v -1.587286 1.024793 2.324164
v -1.127249 -0.9101896 -2.011168
v -3.974958 4.711668 -7.686563
v -4.745502 6.431 -7.59047
v -5.112564 7.590864 -5.939771
v -5.411735 8.939193 -2.696744
v -5.262442 9.079515 -0.4860183
v -1.587286 1.024793 2.324164
v -4.378572 7.619748 1.816727
vt 0.5864807 0.0873199
vt 0.7811877 0.01205165
vt 0.5819295 0.05504049
vt 0.7755039 0.02423621
vt 0.813385 0.04369683
vt 0.8255057 0.03839599
vt 0.8410295 0.08961374
vt 0.8251265 0.08953712
vt 0.8374196 0.17517
vt 0.8239282 0.1709218
vt 0.5890536 0.1998941
vt 0.8052842 0.2185973
vt 0.8147364 0.2279983
vt 0.7511374 0.2662068
vt 0.7494567 0.2529194
vt 0.5819088 0.226905
vt 0.5865999 0.08762451
vt 0.7753547 0.0246306
vt 0.8131816 0.04406339
vt 0.8249068 0.08983859
vt 0.82371 0.1711076
vt 0.8050925 0.2187153
vt 0.589169 0.2000387
vt 0.7493441 0.2529884
vn 0.919592 0.277504 -0.2781048
vn -0.3632421 -0.4842467 -0.795965
vn -0.8379969 -0.5360178 -0.1022055
vn 0.479951 -0.09425114 -0.8722177
vn 0.4473943 0.5883472 -0.673562
vn -0.8221003 0.02814885 -0.5686464
vn -0.9146435 0.2952815 -0.276109
vn 0.3577976 0.8501184 -0.3863671
vn -0.9272806 0.353022 -0.1246034
vn 0.3443945 0.9079201 -0.2389004
vn 0.8191276 0.444209 0.3629165
vn 0.3778917 0.9101658 0.1696939
vn -0.8918085 0.346403 0.2910029
vn -0.5524532 0.2222629 0.8033645
vn 0.3003423 0.6193092 0.7254313
vn -0.8005404 -0.3078566 0.5141588
vn -0.8379969 -0.5360178 -0.1022055
vn -0.3632421 -0.4842467 -0.795965
vn -0.8221003 0.02814885 -0.5686464
vn -0.9146435 0.2952815 -0.276109
vn -0.9272806 0.353022 -0.1246034
vn -0.8918085 0.346403 0.2910029
vn -0.8005404 -0.3078566 0.5141588
vn -0.5524532 0.2222629 0.8033645
g RFin_0
f 3/3/3 2/2/2 1/1/1
f 2/2/2 4/4/4 1/1/1
f 4/4/4 2/2/2 5/5/5
f 4/4/4 5/5/5 1/1/1
f 2/2/2 6/6/6 5/5/5
f 6/6/6 7/7/7 5/5/5
f 7/7/7 8/8/8 5/5/5
f 5/5/5 8/8/8 1/1/1
f 7/7/7 9/9/9 8/8/8
f 10/10/10 1/1/1 8/8/8
f 9/9/9 10/10/10 8/8/8
f 11/11/11 1/1/1 10/10/10
f 12/12/12 10/10/10 9/9/9
f 12/12/12 11/11/11 10/10/10
f 13/13/13 12/12/12 9/9/9
f 12/12/12 13/13/13 14/14/14
f 12/12/12 15/15/15 11/11/11
f 15/15/15 12/12/12 14/14/14
f 11/11/11 15/15/15 16/16/16
f 15/15/15 14/14/14 16/16/16
f 19/19/19 18/18/18 17/17/17
f 17/17/17 20/20/20 19/19/19
f 21/21/21 20/20/20 17/17/17
f 22/22/22 21/21/21 17/17/17
f 23/23/23 22/22/22 17/17/17
f 24/24/24 22/22/22 23/23/23
