g RightTurbine
v -1.220703E-06 3.242493E-07 10.47579
v 5.396905 5.396914 8.821951
v 7.37233 2.765655E-06 8.821951
v -1.220703E-06 3.242493E-07 10.47579
v 7.37233 2.765655E-06 8.821951
v 5.396905 -5.396901 8.821951
v -3.662109E-06 -7.372315 8.821951
v -5.39691 -5.39691 8.821951
v -7.372298 2.765655E-06 8.821951
v -5.39691 5.396914 8.821951
v -3.662109E-06 7.37232 8.821951
v 5.396905 5.396914 8.821951
v -8.614911 2.784729E-06 5.277197
v -5.39691 5.396914 8.821951
v -7.372298 2.765655E-06 8.821951
v -6.306559 6.30656 5.277197
v -3.662109E-06 7.37232 8.821951
v -4.846044 4.846037 -7.526684
v -6.619801 3.471374E-06 -7.526684
v -5.27984 5.607605E-06 -9.906865
v -3.865118 3.865113 -9.906865
v -3.662109E-06 6.619812 -7.526684
v -3.662109E-06 5.27984 -9.906865
v -3.662109E-06 8.614911 5.277197
v 5.396905 5.396914 8.821951
v 4.846039 4.846028 -7.526684
v 3.865124 3.865113 -9.906865
v 6.306533 6.30656 5.277197
v 7.37233 2.765655E-06 8.821951
v 8.614911 5.168915E-06 5.277197
v 6.619795 2.479553E-06 -7.526684
v 5.279835 -1.869202E-06 -9.906865
v -6.619801 3.471374E-06 -7.526684
v -3.86513 -3.865102 -9.906865
v -5.27984 5.607605E-06 -9.906865
v -4.846044 -4.846025 -7.526684
v -3.662109E-06 -5.279839 -9.906865
v -6.306573 -6.306554 5.277197
v -8.614911 2.784729E-06 5.277197
v -7.372298 2.765655E-06 8.821951
v -5.39691 -5.39691 8.821951
v -3.662109E-06 -8.614911 5.277197
v -3.662109E-06 -7.372315 8.821951
v -3.662109E-06 -6.619797 -7.526684
v 3.865124 -3.865111 -9.906865
v 6.306533 -6.306554 5.277197
v 5.396905 -5.396901 8.821951
v 7.37233 2.765655E-06 8.821951
v 8.614911 5.168915E-06 5.277197
v 4.846004 -4.846025 -7.526684
v 5.279835 -1.869202E-06 -9.906865
v 6.619795 2.479553E-06 -7.526684
v -5.27984 5.607605E-06 -9.906865
v -1.220703E-06 3.242493E-07 -10.47579
v -3.865118 3.865113 -9.906865
v -3.86513 -3.865102 -9.906865
v -3.662109E-06 5.27984 -9.906865
v -3.662109E-06 -5.279839 -9.906865
v 3.865124 3.865113 -9.906865
v 3.865124 -3.865111 -9.906865
v 5.279835 -1.869202E-06 -9.906865
vt 0.9731225 0.7652162
vt 0.9595364 0.7652163
vt 0.9595364 0.7652163
vt 0.9731225 0.7652162
vt 0.9595364 0.7652163
vt 0.9595364 0.7652163
vt 0.9595364 0.7652163
vt 0.9595364 0.7652163
vt 0.9595364 0.7652163
vt 0.9595364 0.7652163
vt 0.9595364 0.7652163
vt 0.9595364 0.7652163
vt 0.9161973 0.8336014
vt 0.9581728 0.8121778
vt 0.9581728 0.8336014
vt 0.9161973 0.8121778
vt 0.9581728 0.7698314
vt 0.7788711 0.8121778
vt 0.7788711 0.8336014
vt 0.7469446 0.8336014
vt 0.7469446 0.8121778
vt 0.7788711 0.7698312
vt 0.7469446 0.7698312
vt 0.9161973 0.7698314
vt 0.9581728 0.7274849
vt 0.7788711 0.7274848
vt 0.7469446 0.7274848
vt 0.9161973 0.7274849
vt 0.9581728 0.7060614
vt 0.9161973 0.7060614
vt 0.7788711 0.7060614
vt 0.7469446 0.7060614
vt 0.7788711 0.7064705
vt 0.7469446 0.727894
vt 0.7469446 0.7064705
vt 0.7788711 0.727894
vt 0.7469446 0.7702406
vt 0.9161975 0.727894
vt 0.9161975 0.7064705
vt 0.958173 0.7064705
vt 0.958173 0.727894
vt 0.9161975 0.7702406
vt 0.958173 0.7702406
vt 0.7788711 0.7702406
vt 0.7469446 0.8125871
vt 0.9161975 0.8125871
vt 0.958173 0.8125871
vt 0.958173 0.8340107
vt 0.9161975 0.8340107
vt 0.7788711 0.8125871
vt 0.7469446 0.8340107
vt 0.7788711 0.8340107
vt 0.8950735 0.8167623
vt 0.9086761 0.8167623
vt 0.8950735 0.8167623
vt 0.8950735 0.8167623
vt 0.8950735 0.8167623
vt 0.8950735 0.8167623
vt 0.8950735 0.8167623
vt 0.8950735 0.8167623
vt 0.8950735 0.8167623
vn -1.033313E-07 0 1
vn 0.5261852 0.5261853 0.6680255
vn 0.7404827 0 0.6720754
vn -1.033313E-07 0 1
vn 0.7404827 0 0.6720754
vn 0.5261852 -0.526185 0.6680257
vn 1.180455E-07 -0.7404815 0.6720768
vn -0.5261848 -0.5261844 0.6680266
vn -0.7404805 3.720213E-07 0.6720778
vn -0.5261852 0.5261844 0.6680263
vn -1.055256E-07 0.7404816 0.6720767
vn 0.5261852 0.5261853 0.6680255
vn -0.9989706 7.883799E-07 -0.04536209
vn -0.5261852 0.5261844 0.6680263
vn -0.7404805 3.720213E-07 0.6720778
vn -0.7062926 0.7062919 -0.04798486
vn -1.055256E-07 0.7404816 0.6720767
vn -0.6924849 0.6924839 -0.2023134
vn -0.9803613 8.762183E-07 -0.1972098
vn -0.650623 5.506587E-07 -0.7594009
vn -0.462856 0.462856 -0.7559953
vn 4.960834E-07 0.9803613 -0.1972097
vn 6.686541E-07 0.6506224 -0.7594014
vn 2.590391E-07 0.9989705 -0.04536275
vn 0.5261852 0.5261853 0.6680255
vn 0.692485 0.6924839 -0.2023129
vn 0.4628574 0.4628561 -0.7559941
vn 0.7062918 0.7062926 -0.04798545
vn 0.7404827 0 0.6720754
vn 0.9989705 -1.013632E-06 -0.04536373
vn 0.9803615 -1.467702E-06 -0.1972093
vn 0.6506247 -1.376649E-06 -0.7593995
vn -0.9803613 8.762183E-07 -0.1972098
vn -0.4628574 -0.4628559 -0.7559944
vn -0.650623 5.506587E-07 -0.7594009
vn -0.6924845 -0.6924843 -0.2023139
vn -2.491072E-07 -0.6506233 -0.7594006
vn -0.7062927 -0.7062917 -0.04798523
vn -0.9989706 7.883799E-07 -0.04536209
vn -0.7404805 3.720213E-07 0.6720778
vn -0.5261848 -0.5261844 0.6680266
vn 0 -0.9989705 -0.04536309
vn 1.180455E-07 -0.7404815 0.6720768
vn 0 -0.9803612 -0.19721
vn 0.4628596 -0.4628568 -0.7559925
vn 0.706292 -0.7062923 -0.04798603
vn 0.5261852 -0.526185 0.6680257
vn 0.7404827 0 0.6720754
vn 0.9989705 -1.013632E-06 -0.04536373
vn 0.6924843 -0.6924846 -0.2023132
vn 0.6506247 -1.376649E-06 -0.7593995
vn 0.9803615 -1.467702E-06 -0.1972093
vn -0.650623 5.506587E-07 -0.7594009
vn 0 0 -1
vn -0.462856 0.462856 -0.7559953
vn -0.4628574 -0.4628559 -0.7559944
vn 6.686541E-07 0.6506224 -0.7594014
vn -2.491072E-07 -0.6506233 -0.7594006
vn 0.4628574 0.4628561 -0.7559941
vn 0.4628596 -0.4628568 -0.7559925
vn 0.6506247 -1.376649E-06 -0.7593995
g RightTurbine_0
f 3/3/3 2/2/2 1/1/1
f 6/6/6 5/5/5 4/4/4
f 7/7/7 6/6/6 4/4/4
f 8/8/8 7/7/7 4/4/4
f 9/9/9 8/8/8 4/4/4
f 10/10/10 9/9/9 4/4/4
f 11/11/11 10/10/10 4/4/4
f 12/12/12 11/11/11 4/4/4
f 15/15/15 14/14/14 13/13/13
f 14/14/14 16/16/16 13/13/13
f 14/14/14 17/17/17 16/16/16
f 13/13/13 16/16/16 18/18/18
f 19/19/19 13/13/13 18/18/18
f 20/20/20 19/19/19 18/18/18
f 21/21/21 20/20/20 18/18/18
f 21/21/21 18/18/18 22/22/22
f 18/18/18 16/16/16 22/22/22
f 23/23/23 21/21/21 22/22/22
f 17/17/17 24/24/24 16/16/16
f 16/16/16 24/24/24 22/22/22
f 17/17/17 25/25/25 24/24/24
f 23/23/23 22/22/22 26/26/26
f 22/22/22 24/24/24 26/26/26
f 27/27/27 23/23/23 26/26/26
f 25/25/25 28/28/28 24/24/24
f 24/24/24 28/28/28 26/26/26
f 25/25/25 29/29/29 28/28/28
f 29/29/29 30/30/30 28/28/28
f 28/28/28 30/30/30 31/31/31
f 26/26/26 28/28/28 31/31/31
f 27/27/27 26/26/26 31/31/31
f 32/32/32 27/27/27 31/31/31
f 35/35/35 34/34/34 33/33/33
f 34/34/34 36/36/36 33/33/33
f 34/34/34 37/37/37 36/36/36
f 36/36/36 38/38/38 33/33/33
f 38/38/38 39/39/39 33/33/33
f 40/40/40 39/39/39 38/38/38
f 41/41/41 40/40/40 38/38/38
f 41/41/41 38/38/38 42/42/42
f 42/42/42 38/38/38 36/36/36
f 43/43/43 41/41/41 42/42/42
f 37/37/37 44/44/44 36/36/36
f 44/44/44 42/42/42 36/36/36
f 37/37/37 45/45/45 44/44/44
f 43/43/43 42/42/42 46/46/46
f 46/46/46 42/42/42 44/44/44
f 47/47/47 43/43/43 46/46/46
f 47/47/47 46/46/46 48/48/48
f 46/46/46 49/49/49 48/48/48
f 45/45/45 50/50/50 44/44/44
f 50/50/50 46/46/46 44/44/44
f 46/46/46 50/50/50 49/49/49
f 45/45/45 51/51/51 50/50/50
f 50/50/50 52/52/52 49/49/49
f 51/51/51 52/52/52 50/50/50
f 55/55/55 54/54/54 53/53/53
f 53/53/53 54/54/54 56/56/56
f 57/57/57 54/54/54 55/55/55
f 56/56/56 54/54/54 58/58/58
f 59/59/59 54/54/54 57/57/57
f 58/58/58 54/54/54 60/60/60
f 61/61/61 54/54/54 59/59/59
f 60/60/60 54/54/54 61/61/61
