g RightTurbine
v -6.103515E-07 5.340576E-07 9.953472
v 5.12782 5.127828 8.382097
v 7.004753 2.841949E-06 8.382097
v -6.289742 3.509521E-06 -7.151409
v -5.016593 5.550384E-06 -9.412915
v -3.672405 3.672402 -9.412915
v -4.604424 4.604418 -7.151409
v -8.185379 2.861023E-06 5.014082
v -3.051758E-06 6.289754 -7.151409
v -3.051758E-06 8.185378 5.014082
v -3.051758E-06 5.016592 -9.412915
v 3.672413 3.672402 -9.412915
v -5.99212 5.99212 5.014082
v -5.127825 5.127828 8.382097
v -7.004722 2.841949E-06 8.382097
v -3.051758E-06 7.004744 8.382097
v 5.12782 5.127828 8.382097
v 4.604419 4.604409 -7.151409
v 5.992095 5.99212 5.014082
v 8.185379 5.130768E-06 5.014082
v 7.004753 2.841949E-06 8.382097
v 6.289738 2.574921E-06 -7.151409
v 5.016587 -1.564026E-06 -9.412915
v 6.289738 2.574921E-06 -7.151409
v 5.016587 -1.564026E-06 -9.412915
v 3.672413 -3.6724 -9.412915
v 4.604386 -4.604406 -7.151409
v 8.185379 5.130768E-06 5.014082
v -3.051758E-06 -6.28974 -7.151409
v -3.051758E-06 -8.185378 5.014082
v -3.051758E-06 -5.016591 -9.412915
v -3.672417 -3.672391 -9.412915
v 5.992095 -5.992114 5.014082
v 5.12782 -5.127816 8.382097
v 7.004753 2.841949E-06 8.382097
v -3.051758E-06 -7.004737 8.382097
v -5.127825 -5.127825 8.382097
v -4.604424 -4.604406 -7.151409
v -5.992132 -5.992114 5.014082
v -8.185379 2.861023E-06 5.014082
v -7.004722 2.841949E-06 8.382097
v -6.289742 3.509521E-06 -7.151409
v -5.016593 5.550384E-06 -9.412915
v -6.103515E-07 5.340576E-07 9.953472
v 7.004753 2.841949E-06 8.382097
v 5.12782 -5.127816 8.382097
v -3.051758E-06 -7.004737 8.382097
v -5.127825 -5.127825 8.382097
v -7.004722 2.841949E-06 8.382097
v -5.127825 5.127828 8.382097
v -3.051758E-06 7.004744 8.382097
v 5.12782 5.127828 8.382097
v -5.016593 5.550384E-06 -9.412915
v -6.103515E-07 5.340576E-07 -9.953472
v -3.672405 3.672402 -9.412915
v -3.672417 -3.672391 -9.412915
v -3.051758E-06 5.016592 -9.412915
v -3.051758E-06 -5.016591 -9.412915
v 3.672413 3.672402 -9.412915
v 3.672413 -3.6724 -9.412915
v 5.016587 -1.564026E-06 -9.412915
vt 0.9743926 0.9243042
vt 0.9608066 0.9243044
vt 0.9608065 0.9243044
vt 0.7509258 0.9926895
vt 0.7189994 0.9926895
vt 0.7189994 0.9712659
vt 0.7509258 0.9712659
vt 0.9276431 0.9926895
vt 0.7509258 0.9289193
vt 0.9276431 0.9289194
vt 0.7189994 0.9289193
vt 0.7189994 0.8865728
vt 0.9276431 0.9712659
vt 0.9466895 0.9712659
vt 0.9466895 0.9926895
vt 0.9466895 0.9289194
vt 0.9466895 0.886573
vt 0.7509258 0.8865728
vt 0.9276431 0.886573
vt 0.9276431 0.8651495
vt 0.9466895 0.8651495
vt 0.7509258 0.8651495
vt 0.7189994 0.8651495
vt 0.7509259 0.9930987
vt 0.7189994 0.9930987
vt 0.7189994 0.9716752
vt 0.7509259 0.9716752
vt 0.9276432 0.9930987
vt 0.7509259 0.9293287
vt 0.9276432 0.9293287
vt 0.7189994 0.9293287
vt 0.7189994 0.8869821
vt 0.9276432 0.9716752
vt 0.9466898 0.9716752
vt 0.9466898 0.9930987
vt 0.9466898 0.9293287
vt 0.9466898 0.8869821
vt 0.7509259 0.8869821
vt 0.9276432 0.8869821
vt 0.9276432 0.8655586
vt 0.9466898 0.8655586
vt 0.7509259 0.8655586
vt 0.7189994 0.8655586
vt 0.9743926 0.9243042
vt 0.9608065 0.9243044
vt 0.9608066 0.9243044
vt 0.9608066 0.9243044
vt 0.9608066 0.9243044
vt 0.9608066 0.9243044
vt 0.9608066 0.9243044
vt 0.9608066 0.9243044
vt 0.9608066 0.9243044
vt 0.01992706 0.6829881
vt 0.01992706 0.6693856
vt 0.01992706 0.6829881
vt 0.01992706 0.6829881
vt 0.01992706 0.6829881
vt 0.01992706 0.6829881
vt 0.01992706 0.6829881
vt 0.01992706 0.6829881
vt 0.01992706 0.6829881
vn 0 0 1
vn 0.4326989 0.432699 0.7909129
vn 0.5830807 0 0.8124143
vn -0.9794517 0 -0.2016791
vn -0.4823878 0 -0.8759578
vn -0.3718563 0.3718559 -0.8505564
vn -0.6915237 0.6915225 -0.208786
vn -0.9986225 0 -0.05246955
vn 0 0.9794518 -0.2016785
vn 0 0.9986224 -0.05247033
vn 0 0.4823872 -0.8759581
vn 0.371857 0.3718564 -0.8505558
vn -0.706143 0.7061431 -0.05219169
vn -0.4326993 0.4326988 0.7909128
vn -0.5830791 0 0.8124154
vn 0 0.58308 0.8124146
vn 0.4326989 0.432699 0.7909129
vn 0.6915239 0.6915227 -0.2087852
vn 0.7061422 0.7061439 -0.05219195
vn 0.9986224 0 -0.05247106
vn 0.5830807 0 0.8124143
vn 0.9794517 0 -0.2016789
vn 0.4823874 0 -0.875958
vn 0.9794517 0 -0.2016789
vn 0.4823874 0 -0.875958
vn 0.3718584 -0.3718568 -0.850555
vn 0.6915231 -0.6915235 -0.2087846
vn 0.9986224 0 -0.05247106
vn 0 -0.9794517 -0.2016791
vn 0 -0.9986224 -0.05247069
vn 0 -0.4823882 -0.8759575
vn -0.3718568 -0.371856 -0.8505561
vn 0.7061428 -0.7061431 -0.05219301
vn 0.4326993 -0.4326988 0.7909128
vn 0.5830807 0 0.8124143
vn 0 -0.5830799 0.8124148
vn -0.432699 -0.4326988 0.790913
vn -0.6915231 -0.691523 -0.2087862
vn -0.7061434 -0.7061427 -0.05219209
vn -0.9986225 0 -0.05246955
vn -0.5830791 0 0.8124154
vn -0.9794517 0 -0.2016791
vn -0.4823878 0 -0.8759578
vn 0 0 1
vn 0.5830807 0 0.8124143
vn 0.4326993 -0.4326988 0.7909128
vn 0 -0.5830799 0.8124148
vn -0.432699 -0.4326988 0.790913
vn -0.5830791 0 0.8124154
vn -0.4326993 0.4326988 0.7909128
vn 0 0.58308 0.8124146
vn 0.4326989 0.432699 0.7909129
vn -0.4823878 0 -0.8759578
vn 0 0 -1
vn -0.3718563 0.3718559 -0.8505564
vn -0.3718568 -0.371856 -0.8505561
vn 0 0.4823872 -0.8759581
vn 0 -0.4823882 -0.8759575
vn 0.371857 0.3718564 -0.8505558
vn 0.3718584 -0.3718568 -0.850555
vn 0.4823874 0 -0.875958
g RightTurbine_0
f 3/3/3 2/2/2 1/1/1
f 6/6/6 5/5/5 4/4/4
f 6/6/6 4/4/4 7/7/7
f 8/8/8 7/7/7 4/4/4
f 6/6/6 7/7/7 9/9/9
f 7/7/7 10/10/10 9/9/9
f 6/6/6 9/9/9 11/11/11
f 12/12/12 11/11/11 9/9/9
f 8/8/8 13/13/13 7/7/7
f 7/7/7 13/13/13 10/10/10
f 14/14/14 13/13/13 8/8/8
f 14/14/14 10/10/10 13/13/13
f 14/14/14 8/8/8 15/15/15
f 14/14/14 16/16/16 10/10/10
f 17/17/17 10/10/10 16/16/16
f 12/12/12 9/9/9 18/18/18
f 10/10/10 18/18/18 9/9/9
f 17/17/17 19/19/19 10/10/10
f 10/10/10 19/19/19 18/18/18
f 17/17/17 20/20/20 19/19/19
f 18/18/18 19/19/19 20/20/20
f 17/17/17 21/21/21 20/20/20
f 18/18/18 20/20/20 22/22/22
f 12/12/12 18/18/18 22/22/22
f 12/12/12 22/22/22 23/23/23
f 26/26/26 25/25/25 24/24/24
f 26/26/26 24/24/24 27/27/27
f 27/27/27 24/24/24 28/28/28
f 26/26/26 27/27/27 29/29/29
f 27/27/27 30/30/30 29/29/29
f 26/26/26 29/29/29 31/31/31
f 32/32/32 31/31/31 29/29/29
f 27/27/27 28/28/28 33/33/33
f 27/27/27 33/33/33 30/30/30
f 34/34/34 33/33/33 28/28/28
f 34/34/34 30/30/30 33/33/33
f 34/34/34 28/28/28 35/35/35
f 34/34/34 36/36/36 30/30/30
f 37/37/37 30/30/30 36/36/36
f 32/32/32 29/29/29 38/38/38
f 30/30/30 38/38/38 29/29/29
f 37/37/37 39/39/39 30/30/30
f 30/30/30 39/39/39 38/38/38
f 37/37/37 40/40/40 39/39/39
f 38/38/38 39/39/39 40/40/40
f 37/37/37 41/41/41 40/40/40
f 38/38/38 40/40/40 42/42/42
f 32/32/32 38/38/38 42/42/42
f 32/32/32 42/42/42 43/43/43
f 46/46/46 45/45/45 44/44/44
f 47/47/47 46/46/46 44/44/44
f 48/48/48 47/47/47 44/44/44
f 49/49/49 48/48/48 44/44/44
f 50/50/50 49/49/49 44/44/44
f 51/51/51 50/50/50 44/44/44
f 52/52/52 51/51/51 44/44/44
f 55/55/55 54/54/54 53/53/53
f 53/53/53 54/54/54 56/56/56
f 57/57/57 54/54/54 55/55/55
f 56/56/56 54/54/54 58/58/58
f 59/59/59 54/54/54 57/57/57
f 58/58/58 54/54/54 60/60/60
f 61/61/61 54/54/54 59/59/59
f 60/60/60 54/54/54 61/61/61
