g Rim_Gold_2
v 3.250892 17.69702 16.05831
v 2.765374 18.6499 16.05831
v 2.853968 18.71427 15.43605
v 3.355041 17.73086 15.43605
v 3.418188 16.64074 16.05831
v 3.527696 16.64074 15.43605
v 3.25089 15.58446 16.05831
v 3.418188 16.64074 16.05831
v 3.355038 15.55062 15.43605
v 2.765372 14.63158 16.05831
v 2.853967 14.56721 15.43605
v 2.009161 13.87537 16.05831
v 2.073528 13.78677 15.43605
v 1.056278 13.38985 16.05831
v 1.090118 13.2857 15.43605
v 3.625318E-09 13.22255 16.05831
v 3.814632E-08 13.11304 15.43605
v -1.056278 13.38985 16.05831
v -1.090118 13.2857 15.43605
v -2.009161 13.87537 16.05831
v -2.073528 13.78677 15.43605
v -2.765373 14.63158 16.05831
v -2.853967 14.56721 15.43605
v -3.25089 15.58446 16.05831
v -3.355039 15.55062 15.43605
v -3.418188 16.64074 16.05831
v -3.527696 16.64074 15.43605
v -3.25089 17.69702 16.05831
v -3.418188 16.64074 16.05831
v -3.355039 17.73086 15.43605
v -2.765373 18.6499 16.05831
v -2.853968 18.71427 15.43605
v 2.765374 18.6499 16.05831
v 2.073529 19.49471 15.43605
v 2.853968 18.71427 15.43605
v 2.009162 19.40611 16.05831
v 1.090119 19.99578 15.43605
v 1.056279 19.89163 16.05831
v 1.056279 19.89163 16.05831
v 1.432798E-07 20.16844 15.43605
v 1.090119 19.99578 15.43605
v 2.217563E-07 20.05893 16.05831
v -1.090119 19.99578 15.43605
v -1.056278 19.89163 16.05831
v -1.056278 19.89163 16.05831
v -2.073529 19.49471 15.43605
v -1.090119 19.99578 15.43605
v -2.009161 19.40611 16.05831
v -2.853968 18.71427 15.43605
v -2.765373 18.6499 16.05831
v 3.355041 17.73086 13.58636
v 2.853968 18.71427 15.43605
v 2.853968 18.71427 13.58635
v 3.355041 17.73086 15.43605
v 3.527696 16.64074 13.58636
v 3.527696 16.64074 15.43605
v 2.853968 18.71427 13.58635
v 2.853968 18.71427 15.43605
v 2.073529 19.49471 15.43605
v 2.073529 19.49471 13.58636
v 1.090119 19.99578 15.43605
v 1.090119 19.99578 13.58636
v 1.090119 19.99578 13.58636
v 1.090119 19.99578 15.43605
v 1.432798E-07 20.16844 15.43605
v 1.432798E-07 20.16844 13.58636
v -1.090119 19.99578 15.43605
v -1.090119 19.99578 13.58636
v -1.090119 19.99578 13.58636
v -1.090119 19.99578 15.43605
v -2.073529 19.49471 15.43605
v -2.073529 19.49471 13.58636
v -2.853968 18.71427 15.43605
v -2.853968 18.71427 13.58635
v -2.853968 18.71427 13.58635
v -2.853968 18.71427 15.43605
v -3.355039 17.73086 15.43605
v -3.355039 17.73086 13.58636
v -3.527696 16.64074 15.43605
v -3.527696 16.64074 13.58636
v -3.527696 16.64074 13.58636
v -3.527696 16.64074 15.43605
v -3.355039 15.55062 15.43605
v -3.355039 15.55062 13.58636
v -2.853967 14.56721 15.43605
v -2.853967 14.56721 13.58636
v -2.073528 13.78677 15.43605
v -2.073528 13.78677 13.58636
v -1.090118 13.2857 15.43605
v -1.090118 13.2857 13.58635
v 3.814632E-08 13.11304 15.43605
v 3.814632E-08 13.11304 13.58636
v 1.090118 13.2857 15.43605
v 1.090118 13.2857 13.58635
v 2.073528 13.78677 15.43605
v 2.073528 13.78677 13.58636
v 2.853967 14.56721 15.43605
v 2.853967 14.56721 13.58636
v 3.355038 15.55062 15.43605
v 3.355038 15.55062 13.58636
v 3.527696 16.64074 15.43605
v 3.527696 16.64074 13.58636
v 2.853968 18.71427 13.58635
v 1.111006E-07 16.64074 13.58636
v 3.355041 17.73086 13.58636
v 2.073529 19.49471 13.58636
v 3.527696 16.64074 13.58636
v 1.090119 19.99578 13.58636
v 3.355038 15.55062 13.58636
v 1.432798E-07 20.16844 13.58636
v 2.853967 14.56721 13.58636
v -1.090119 19.99578 13.58636
v 2.073528 13.78677 13.58636
v -2.073529 19.49471 13.58636
v 1.090118 13.2857 13.58635
v -2.853968 18.71427 13.58635
v 3.814632E-08 13.11304 13.58636
v -3.355039 17.73086 13.58636
v -1.090118 13.2857 13.58635
v -3.527696 16.64074 13.58636
v -2.073528 13.78677 13.58636
v -3.355039 15.55062 13.58636
v -2.853967 14.56721 13.58636
vt 0.1556852 0.6870666
vt 0.1556852 0.6870666
vt 0.1556852 0.6853673
vt 0.1556852 0.6853673
vt 0.1556852 0.6870666
vt 0.1556852 0.6853673
vt 0.1556852 0.6887306
vt 0.1556852 0.6887306
vt 0.1556852 0.6862979
vt 0.1556852 0.6887306
vt 0.1556852 0.6862979
vt 0.1556852 0.6887306
vt 0.1556852 0.6862979
vt 0.1556852 0.6887306
vt 0.1556852 0.6862979
vt 0.1556852 0.6887306
vt 0.1556852 0.6862979
vt 0.1556852 0.6887306
vt 0.1556852 0.6862978
vt 0.1556852 0.6887307
vt 0.1556852 0.6862978
vt 0.1556852 0.6887306
vt 0.1556852 0.6862979
vt 0.1556852 0.6887306
vt 0.1556852 0.6862979
vt 0.1556852 0.6887306
vt 0.1556852 0.6853673
vt 0.1556852 0.6870666
vt 0.1556852 0.6870666
vt 0.1556852 0.6853673
vt 0.1556852 0.6870666
vt 0.1556852 0.6853672
vt 0.1556852 0.6928728
vt 0.1556852 0.6908586
vt 0.1556852 0.6908586
vt 0.1556852 0.6928728
vt 0.1556852 0.6913491
vt 0.1556852 0.6934923
vt 0.1556852 0.6872641
vt 0.1556852 0.6863664
vt 0.1556852 0.6863664
vt 0.1556852 0.6872641
vt 0.1556852 0.6863664
vt 0.1556852 0.6872641
vt 0.1556852 0.6934923
vt 0.1556852 0.6913491
vt 0.1556852 0.691349
vt 0.1556852 0.6934923
vt 0.1556852 0.6908586
vt 0.1556852 0.6928728
vt 0.2467844 0.6751053
vt 0.2467844 0.6904001
vt 0.2467844 0.6751053
vt 0.2467844 0.6904001
vt 0.2467844 0.6751053
vt 0.2467844 0.6904001
vt 0.3427888 0.6777613
vt 0.3427888 0.6958914
vt 0.3427888 0.6958914
vt 0.3427888 0.6777613
vt 0.3427888 0.6963819
vt 0.3427888 0.6770916
vt 0.4410355 0.6833196
vt 0.4410355 0.6913993
vt 0.4410355 0.6913992
vt 0.4410355 0.6833196
vt 0.4410355 0.6913992
vt 0.4410355 0.6833196
vt 0.3427888 0.6770916
vt 0.3427888 0.6963819
vt 0.3427888 0.6963819
vt 0.3427888 0.6770916
vt 0.3427888 0.6958914
vt 0.3427888 0.6777613
vt 0.2467844 0.6751053
vt 0.2467844 0.6904001
vt 0.2467844 0.6904001
vt 0.2467844 0.6751053
vt 0.2467844 0.6904001
vt 0.2467844 0.6751053
vt 0.1556852 0.6694334
vt 0.1556852 0.6913307
vt 0.1556852 0.6913307
vt 0.1556852 0.6694334
vt 0.1556852 0.6913307
vt 0.1556852 0.6694334
vt 0.1556852 0.6913307
vt 0.1556852 0.6694334
vt 0.1556852 0.6913307
vt 0.1556852 0.6694334
vt 0.1556852 0.6913307
vt 0.1556852 0.6694334
vt 0.1556852 0.6913307
vt 0.1556852 0.6694334
vt 0.1556852 0.6913307
vt 0.1556852 0.6694334
vt 0.1556852 0.6913307
vt 0.1556852 0.6694334
vt 0.1556852 0.6913307
vt 0.1556852 0.6694334
vt 0.1556852 0.6913307
vt 0.1556852 0.6694334
vt 0.04403555 0.7004468
vt 0.04403555 0.7007333
vt 0.04403555 0.6999019
vt 0.04403555 0.7010198
vt 0.04403555 0.6994383
vt 0.04403555 0.7015648
vt 0.04403555 0.6991014
vt 0.04403555 0.7020283
vt 0.04403555 0.6989244
vt 0.04403555 0.7023652
vt 0.04403555 0.6989244
vt 0.04403555 0.7025422
vt 0.04403555 0.6991014
vt 0.04403555 0.7025422
vt 0.04403555 0.6994383
vt 0.04403555 0.7023652
vt 0.04403555 0.6999019
vt 0.04403555 0.7020283
vt 0.04403555 0.7004468
vt 0.04403555 0.7015648
vt 0.04403555 0.7010198
vn 0.9360358 0.3041359 0.1770262
vn 0.7962396 0.5785016 0.1770268
vn 0.8081412 0.5871493 0.04651463
vn 0.9500273 0.3086819 0.04651447
vn 0.9842062 -8.914803E-07 0.1770259
vn 0.9989176 -1.008167E-06 0.0465144
vn 0.9360356 -0.3041363 0.1770267
vn 0.9842062 -8.914803E-07 0.1770259
vn 0.9500272 -0.3086823 0.04651459
vn 0.7962393 -0.5785022 0.1770264
vn 0.8081411 -0.5871494 0.04651452
vn 0.5785018 -0.7962396 0.1770258
vn 0.5871487 -0.8081416 0.04651435
vn 0.3041368 -0.9360356 0.1770258
vn 0.3086834 -0.9500269 0.04651432
vn 0 -0.9842063 0.1770252
vn 0 -0.9989176 0.04651413
vn -0.3041369 -0.9360358 0.1770246
vn -0.3086834 -0.9500269 0.04651402
vn -0.5785016 -0.79624 0.1770246
vn -0.5871486 -0.8081416 0.04651402
vn -0.7962394 -0.5785021 0.1770259
vn -0.8081412 -0.5871493 0.04651437
vn -0.9360358 -0.304136 0.1770262
vn -0.9500272 -0.3086821 0.04651451
vn -0.9842062 0 0.1770259
vn -0.9989176 0 0.04651438
vn -0.9360358 0.3041361 0.1770266
vn -0.9842062 0 0.1770259
vn -0.9500272 0.3086821 0.04651453
vn -0.7962396 0.5785013 0.1770274
vn -0.8081416 0.5871485 0.04651475
vn 0.7962396 0.5785016 0.1770268
vn 0.5871493 0.8081412 0.04651476
vn 0.8081412 0.5871493 0.04651463
vn 0.578502 0.7962391 0.1770273
vn 0.3086827 0.9500271 0.04651478
vn 0.3041371 0.9360352 0.1770274
vn 0.3041371 0.9360352 0.1770274
vn 0 0.9989176 0.04651478
vn 0.3086827 0.9500271 0.04651478
vn 1.43787E-07 0.984206 0.1770274
vn -0.3086826 0.9500271 0.04651476
vn -0.3041369 0.9360353 0.1770274
vn -0.3041369 0.9360353 0.1770274
vn -0.5871493 0.8081412 0.04651476
vn -0.3086826 0.9500271 0.04651476
vn -0.5785021 0.796239 0.1770273
vn -0.8081416 0.5871485 0.04651475
vn -0.7962396 0.5785013 0.1770274
vn 0.6923519 0.224958 -0.6855966
vn 0.8081412 0.5871493 0.04651463
vn 0.5889494 0.4278969 -0.6855966
vn 0.9500273 0.3086819 0.04651447
vn 0.7279806 -7.696992E-07 -0.6855977
vn 0.9989176 -1.008167E-06 0.0465144
vn 0.5889494 0.4278969 -0.6855966
vn 0.8081412 0.5871493 0.04651463
vn 0.5871493 0.8081412 0.04651476
vn 0.4278964 0.5889494 -0.685597
vn 0.3086827 0.9500271 0.04651478
vn 0.224958 0.6923511 -0.6855975
vn 0.224958 0.6923511 -0.6855975
vn 0.3086827 0.9500271 0.04651478
vn 0 0.9989176 0.04651478
vn 0 0.7279813 -0.6855971
vn -0.3086826 0.9500271 0.04651476
vn -0.224958 0.6923513 -0.6855971
vn -0.224958 0.6923513 -0.6855971
vn -0.3086826 0.9500271 0.04651476
vn -0.5871493 0.8081412 0.04651476
vn -0.4278963 0.5889493 -0.6855971
vn -0.8081416 0.5871485 0.04651475
vn -0.588949 0.4278959 -0.6855977
vn -0.588949 0.4278959 -0.6855977
vn -0.8081416 0.5871485 0.04651475
vn -0.9500272 0.3086821 0.04651453
vn -0.6923511 0.2249579 -0.6855974
vn -0.9989176 0 0.04651438
vn -0.7279813 0 -0.685597
vn -0.7279813 0 -0.685597
vn -0.9989176 0 0.04651438
vn -0.9500272 -0.3086821 0.04651451
vn -0.6923513 -0.2249582 -0.6855971
vn -0.8081412 -0.5871493 0.04651437
vn -0.5889491 -0.4278968 -0.6855969
vn -0.5871486 -0.8081416 0.04651402
vn -0.4278966 -0.5889496 -0.6855968
vn -0.3086834 -0.9500269 0.04651402
vn -0.2249592 -0.6923506 -0.6855975
vn 0 -0.9989176 0.04651413
vn 0 -0.727982 -0.6855962
vn 0.3086834 -0.9500269 0.04651432
vn 0.2249593 -0.6923506 -0.6855976
vn 0.5871487 -0.8081416 0.04651435
vn 0.4278965 -0.5889493 -0.6855971
vn 0.8081411 -0.5871494 0.04651452
vn 0.5889489 -0.4278969 -0.6855972
vn 0.9500272 -0.3086823 0.04651459
vn 0.6923515 -0.2249584 -0.6855969
vn 0.9989176 -1.008167E-06 0.0465144
vn 0.7279806 -7.696992E-07 -0.6855977
vn 0.5889494 0.4278969 -0.6855966
vn 0 0 -1
vn 0.6923519 0.224958 -0.6855966
vn 0.4278964 0.5889494 -0.685597
vn 0.7279806 -7.696992E-07 -0.6855977
vn 0.224958 0.6923511 -0.6855975
vn 0.6923515 -0.2249584 -0.6855969
vn 0 0.7279813 -0.6855971
vn 0.5889489 -0.4278969 -0.6855972
vn -0.224958 0.6923513 -0.6855971
vn 0.4278965 -0.5889493 -0.6855971
vn -0.4278963 0.5889493 -0.6855971
vn 0.2249593 -0.6923506 -0.6855976
vn -0.588949 0.4278959 -0.6855977
vn 0 -0.727982 -0.6855962
vn -0.6923511 0.2249579 -0.6855974
vn -0.2249592 -0.6923506 -0.6855975
vn -0.7279813 0 -0.685597
vn -0.4278966 -0.5889496 -0.6855968
vn -0.6923513 -0.2249582 -0.6855971
vn -0.5889491 -0.4278968 -0.6855969
g Rim_Gold_2_0
f 3/3/3 2/2/2 1/1/1
f 4/4/4 3/3/3 1/1/1
f 1/1/1 5/5/5 4/4/4
f 5/5/5 6/6/6 4/4/4
f 6/6/6 8/8/8 7/7/7
f 9/9/9 6/6/6 7/7/7
f 9/9/9 7/7/7 10/10/10
f 11/11/11 9/9/9 10/10/10
f 11/11/11 10/10/10 12/12/12
f 13/13/13 11/11/11 12/12/12
f 13/13/13 12/12/12 14/14/14
f 15/15/15 13/13/13 14/14/14
f 15/15/15 14/14/14 16/16/16
f 17/17/17 15/15/15 16/16/16
f 17/17/17 16/16/16 18/18/18
f 19/19/19 17/17/17 18/18/18
f 19/19/19 18/18/18 20/20/20
f 21/21/21 19/19/19 20/20/20
f 21/21/21 20/20/20 22/22/22
f 23/23/23 21/21/21 22/22/22
f 23/23/23 22/22/22 24/24/24
f 25/25/25 23/23/23 24/24/24
f 25/25/25 24/24/24 26/26/26
f 27/27/27 25/25/25 26/26/26
f 27/27/27 29/29/29 28/28/28
f 30/30/30 27/27/27 28/28/28
f 30/30/30 28/28/28 31/31/31
f 32/32/32 30/30/30 31/31/31
f 35/35/35 34/34/34 33/33/33
f 34/34/34 36/36/36 33/33/33
f 34/34/34 37/37/37 36/36/36
f 37/37/37 38/38/38 36/36/36
f 41/41/41 40/40/40 39/39/39
f 40/40/40 42/42/42 39/39/39
f 40/40/40 43/43/43 42/42/42
f 43/43/43 44/44/44 42/42/42
f 47/47/47 46/46/46 45/45/45
f 46/46/46 48/48/48 45/45/45
f 46/46/46 49/49/49 48/48/48
f 49/49/49 50/50/50 48/48/48
f 53/53/53 52/52/52 51/51/51
f 52/52/52 54/54/54 51/51/51
f 51/51/51 54/54/54 55/55/55
f 54/54/54 56/56/56 55/55/55
f 59/59/59 58/58/58 57/57/57
f 60/60/60 59/59/59 57/57/57
f 61/61/61 59/59/59 60/60/60
f 62/62/62 61/61/61 60/60/60
f 65/65/65 64/64/64 63/63/63
f 66/66/66 65/65/65 63/63/63
f 67/67/67 65/65/65 66/66/66
f 68/68/68 67/67/67 66/66/66
f 71/71/71 70/70/70 69/69/69
f 72/72/72 71/71/71 69/69/69
f 73/73/73 71/71/71 72/72/72
f 74/74/74 73/73/73 72/72/72
f 77/77/77 76/76/76 75/75/75
f 78/78/78 77/77/77 75/75/75
f 79/79/79 77/77/77 78/78/78
f 80/80/80 79/79/79 78/78/78
f 83/83/83 82/82/82 81/81/81
f 84/84/84 83/83/83 81/81/81
f 85/85/85 83/83/83 84/84/84
f 86/86/86 85/85/85 84/84/84
f 87/87/87 85/85/85 86/86/86
f 88/88/88 87/87/87 86/86/86
f 89/89/89 87/87/87 88/88/88
f 90/90/90 89/89/89 88/88/88
f 91/91/91 89/89/89 90/90/90
f 92/92/92 91/91/91 90/90/90
f 93/93/93 91/91/91 92/92/92
f 94/94/94 93/93/93 92/92/92
f 95/95/95 93/93/93 94/94/94
f 96/96/96 95/95/95 94/94/94
f 97/97/97 95/95/95 96/96/96
f 98/98/98 97/97/97 96/96/96
f 99/99/99 97/97/97 98/98/98
f 100/100/100 99/99/99 98/98/98
f 101/101/101 99/99/99 100/100/100
f 102/102/102 101/101/101 100/100/100
f 105/105/105 104/104/104 103/103/103
f 103/103/103 104/104/104 106/106/106
f 107/107/107 104/104/104 105/105/105
f 106/106/106 104/104/104 108/108/108
f 109/109/109 104/104/104 107/107/107
f 108/108/108 104/104/104 110/110/110
f 111/111/111 104/104/104 109/109/109
f 110/110/110 104/104/104 112/112/112
f 113/113/113 104/104/104 111/111/111
f 112/112/112 104/104/104 114/114/114
f 115/115/115 104/104/104 113/113/113
f 114/114/114 104/104/104 116/116/116
f 117/117/117 104/104/104 115/115/115
f 116/116/116 104/104/104 118/118/118
f 119/119/119 104/104/104 117/117/117
f 118/118/118 104/104/104 120/120/120
f 121/121/121 104/104/104 119/119/119
f 120/120/120 104/104/104 122/122/122
f 123/123/123 104/104/104 121/121/121
f 122/122/122 104/104/104 123/123/123
