g Rim_Purple_1
v 3.250892 23.64346 16.05831
v 2.765374 24.59634 16.05831
v 2.853968 24.66071 15.43605
v 3.355041 23.6773 15.43605
v 3.418188 22.58718 16.05831
v 3.527696 22.58718 15.43605
v 3.25089 21.5309 16.05831
v 3.418188 22.58718 16.05831
v 3.355038 21.49706 15.43605
v 2.765372 20.57802 16.05831
v 2.853967 20.51365 15.43605
v 2.009161 19.82181 16.05831
v 2.073528 19.73322 15.43605
v 1.056278 19.33629 16.05831
v 1.090118 19.23214 15.43605
v 5.263228E-09 19.16899 16.05831
v 3.978423E-08 19.05948 15.43605
v -1.056278 19.33629 16.05831
v -1.090118 19.23214 15.43605
v -2.009161 19.82181 16.05831
v -2.073528 19.73322 15.43605
v -2.765373 20.57802 16.05831
v -2.853967 20.51365 15.43605
v -3.25089 21.5309 16.05831
v -3.355039 21.49706 15.43605
v -3.418188 22.58718 16.05831
v -3.527696 22.58718 15.43605
v -3.25089 23.64346 16.05831
v -3.418188 22.58718 16.05831
v -3.355039 23.6773 15.43605
v -2.765373 24.59634 16.05831
v -2.853968 24.66071 15.43605
v 2.765374 24.59634 16.05831
v 2.073529 25.44115 15.43605
v 2.853968 24.66071 15.43605
v 2.009162 25.35256 16.05831
v 1.090119 25.94222 15.43605
v 1.056279 25.83807 16.05831
v 1.056279 25.83807 16.05831
v 1.449177E-07 26.11488 15.43605
v 1.090119 25.94222 15.43605
v 2.233942E-07 26.00537 16.05831
v -1.090119 25.94222 15.43605
v -1.056278 25.83807 16.05831
v -1.056278 25.83807 16.05831
v -2.073529 25.44115 15.43605
v -1.090119 25.94222 15.43605
v -2.009161 25.35256 16.05831
v -2.853968 24.66071 15.43605
v -2.765373 24.59634 16.05831
v 3.355041 23.6773 13.58636
v 2.853968 24.66071 15.43605
v 2.853968 24.66071 13.58635
v 3.355041 23.6773 15.43605
v 3.527696 22.58718 13.58636
v 3.527696 22.58718 15.43605
v 2.853968 24.66071 13.58635
v 2.853968 24.66071 15.43605
v 2.073529 25.44115 15.43605
v 2.073529 25.44115 13.58636
v 1.090119 25.94222 15.43605
v 1.090119 25.94222 13.58636
v 1.090119 25.94222 13.58636
v 1.090119 25.94222 15.43605
v 1.449177E-07 26.11488 15.43605
v 1.449177E-07 26.11488 13.58636
v -1.090119 25.94222 15.43605
v -1.090119 25.94222 13.58636
v -1.090119 25.94222 13.58636
v -1.090119 25.94222 15.43605
v -2.073529 25.44115 15.43605
v -2.073529 25.44115 13.58636
v -2.853968 24.66071 15.43605
v -2.853968 24.66071 13.58635
v -2.853968 24.66071 13.58635
v -2.853968 24.66071 15.43605
v -3.355039 23.6773 15.43605
v -3.355039 23.6773 13.58636
v -3.527696 22.58718 15.43605
v -3.527696 22.58718 13.58636
v -3.527696 22.58718 13.58636
v -3.527696 22.58718 15.43605
v -3.355039 21.49706 15.43605
v -3.355039 21.49706 13.58636
v -2.853967 20.51365 15.43605
v -2.853967 20.51365 13.58636
v -2.073528 19.73322 15.43605
v -2.073528 19.73322 13.58636
v -1.090118 19.23214 15.43605
v -1.090118 19.23214 13.58635
v 3.978423E-08 19.05948 15.43605
v 3.978423E-08 19.05948 13.58636
v 1.090118 19.23214 15.43605
v 1.090118 19.23214 13.58635
v 2.073528 19.73322 15.43605
v 2.073528 19.73322 13.58636
v 2.853967 20.51365 15.43605
v 2.853967 20.51365 13.58636
v 3.355038 21.49706 15.43605
v 3.355038 21.49706 13.58636
v 3.527696 22.58718 15.43605
v 3.527696 22.58718 13.58636
v 2.853968 24.66071 13.58635
v 1.127385E-07 22.58718 13.58636
v 3.355041 23.6773 13.58636
v 2.073529 25.44115 13.58636
v 3.527696 22.58718 13.58636
v 1.090119 25.94222 13.58636
v 3.355038 21.49706 13.58636
v 1.449177E-07 26.11488 13.58636
v 2.853967 20.51365 13.58636
v -1.090119 25.94222 13.58636
v 2.073528 19.73322 13.58636
v -2.073529 25.44115 13.58636
v 1.090118 19.23214 13.58635
v -2.853968 24.66071 13.58635
v 3.978423E-08 19.05948 13.58636
v -3.355039 23.6773 13.58636
v -1.090118 19.23214 13.58635
v -3.527696 22.58718 13.58636
v -2.073528 19.73322 13.58636
v -3.355039 21.49706 13.58636
v -2.853967 20.51365 13.58636
vt 0.6667571 0.5664105
vt 0.6667571 0.5664105
vt 0.6667571 0.5647113
vt 0.6667571 0.5647113
vt 0.6667571 0.5664105
vt 0.6667571 0.5647113
vt 0.6667571 0.5680746
vt 0.6667571 0.5680746
vt 0.6667571 0.5656419
vt 0.6667571 0.5680746
vt 0.6667571 0.5656419
vt 0.6667571 0.5680746
vt 0.6667571 0.5656419
vt 0.6667571 0.5680746
vt 0.6667571 0.5656419
vt 0.6667571 0.5680746
vt 0.6667571 0.5656419
vt 0.6667571 0.5680746
vt 0.6667571 0.5656418
vt 0.6667571 0.5680747
vt 0.6667571 0.5656418
vt 0.6667571 0.5680746
vt 0.6667571 0.5656419
vt 0.6667571 0.5680746
vt 0.6667571 0.5656419
vt 0.6667571 0.5680746
vt 0.6667571 0.5647113
vt 0.6667571 0.5664105
vt 0.6667571 0.5664105
vt 0.6667571 0.5647113
vt 0.6667571 0.5664105
vt 0.6667571 0.5647112
vt 0.6667571 0.5722167
vt 0.6667571 0.5702026
vt 0.6667571 0.5702026
vt 0.6667571 0.5722167
vt 0.6667571 0.5706931
vt 0.6667571 0.5728363
vt 0.6667571 0.5666081
vt 0.6667571 0.5657104
vt 0.6667571 0.5657104
vt 0.6667571 0.5666081
vt 0.6667571 0.5657104
vt 0.6667571 0.5666081
vt 0.6667571 0.5728363
vt 0.6667571 0.5706931
vt 0.6667571 0.570693
vt 0.6667571 0.5728363
vt 0.6667571 0.5702026
vt 0.6667571 0.5722167
vt 0.7564299 0.553023
vt 0.7564299 0.5683178
vt 0.7564299 0.553023
vt 0.7564299 0.5683178
vt 0.7564299 0.553023
vt 0.7564299 0.5683178
vt 0.8524343 0.555679
vt 0.8524343 0.573809
vt 0.8524343 0.573809
vt 0.8524343 0.555679
vt 0.8524343 0.5742996
vt 0.8524343 0.5550092
vt 0.950681 0.5612372
vt 0.950681 0.569317
vt 0.950681 0.5693169
vt 0.950681 0.5612372
vt 0.950681 0.5693169
vt 0.950681 0.5612372
vt 0.8524343 0.5550092
vt 0.8524343 0.5742996
vt 0.8524343 0.5742996
vt 0.8524343 0.5550092
vt 0.8524343 0.573809
vt 0.8524343 0.555679
vt 0.7564299 0.553023
vt 0.7564299 0.5683178
vt 0.7564299 0.5683178
vt 0.7564299 0.553023
vt 0.7564299 0.5683178
vt 0.7564299 0.553023
vt 0.6667571 0.5487773
vt 0.6667571 0.5706747
vt 0.6667571 0.5706747
vt 0.6667571 0.5487773
vt 0.6667571 0.5706747
vt 0.6667571 0.5487773
vt 0.6667571 0.5706747
vt 0.6667571 0.5487773
vt 0.6667571 0.5706747
vt 0.6667571 0.5487773
vt 0.6667571 0.5706747
vt 0.6667571 0.5487773
vt 0.6667571 0.5706747
vt 0.6667571 0.5487773
vt 0.6667571 0.5706747
vt 0.6667571 0.5487773
vt 0.6667571 0.5706747
vt 0.6667571 0.5487773
vt 0.6667571 0.5706747
vt 0.6667571 0.5487773
vt 0.6667571 0.5706747
vt 0.6667571 0.5487773
vt 0.5711214 0.5783645
vt 0.5711214 0.578651
vt 0.5711214 0.5778195
vt 0.5711214 0.5789374
vt 0.5711214 0.577356
vt 0.5711214 0.5794824
vt 0.5711214 0.5770191
vt 0.5711214 0.5799459
vt 0.5711214 0.5768421
vt 0.5711214 0.5802828
vt 0.5711214 0.5768421
vt 0.5711214 0.5804598
vt 0.5711214 0.5770191
vt 0.5711214 0.5804598
vt 0.5711214 0.577356
vt 0.5711214 0.5802828
vt 0.5711214 0.5778195
vt 0.5711214 0.5799459
vt 0.5711214 0.5783645
vt 0.5711214 0.5794824
vt 0.5711214 0.5789374
vn 0.9360172 0.3041295 0.1771355
vn 0.7962236 0.5784897 0.1771372
vn 0.8081416 0.5871495 0.04650609
vn 0.9500277 0.308682 0.04650558
vn 0.9841866 -1.041651E-06 0.1771349
vn 0.9989181 -1.126934E-06 0.04650507
vn 0.9360169 -0.3041305 0.1771352
vn 0.9841866 -1.041651E-06 0.1771349
vn 0.9500276 -0.3086825 0.04650516
vn 0.7962232 -0.5784909 0.1771354
vn 0.8081416 -0.5871493 0.04650518
vn 0.5784906 -0.7962236 0.1771346
vn 0.587149 -0.8081419 0.04650503
vn 0.3041298 -0.9360172 0.1771346
vn 0.3086826 -0.9500276 0.04650505
vn -1.553845E-07 -0.9841871 0.1771323
vn 0 -0.9989181 0.04650436
vn -0.3041305 -0.9360176 0.1771323
vn -0.3086827 -0.9500275 0.0465044
vn -0.5784907 -0.7962232 0.1771356
vn -0.587149 -0.8081419 0.04650531
vn -0.796223 -0.5784908 0.1771365
vn -0.8081416 -0.5871494 0.04650548
vn -0.9360169 -0.3041302 0.1771355
vn -0.9500277 -0.3086822 0.04650522
vn -0.9841866 0 0.1771351
vn -0.9989181 0 0.04650514
vn -0.9360172 0.3041297 0.1771355
vn -0.9841866 0 0.1771351
vn -0.9500276 0.3086823 0.04650527
vn -0.7962239 0.5784895 0.1771362
vn -0.8081421 0.5871487 0.04650547
vn 0.7962236 0.5784897 0.1771372
vn 0.587149 0.8081418 0.04650562
vn 0.8081416 0.5871495 0.04650609
vn 0.5784896 0.7962238 0.1771369
vn 0.3086826 0.9500276 0.0465047
vn 0.3041301 0.9360175 0.1771335
vn 0.3041301 0.9360175 0.1771335
vn 0 0.9989181 0.046505
vn 0.3086826 0.9500276 0.0465047
vn 0 0.9841867 0.1771346
vn -0.3086825 0.9500275 0.0465056
vn -0.3041299 0.9360169 0.1771369
vn -0.3041299 0.9360169 0.1771369
vn -0.5871491 0.8081418 0.04650562
vn -0.3086825 0.9500275 0.0465056
vn -0.5784897 0.7962236 0.1771369
vn -0.8081421 0.5871487 0.04650547
vn -0.7962239 0.5784895 0.1771362
vn 0.6925076 0.2250086 -0.6854227
vn 0.8081416 0.5871495 0.04650609
vn 0.5890809 0.4279924 -0.6854241
vn 0.9500277 0.308682 0.04650558
vn 0.7281452 -8.495339E-07 -0.6854228
vn 0.9989181 -1.126934E-06 0.04650507
vn 0.5890809 0.4279924 -0.6854241
vn 0.8081416 0.5871495 0.04650609
vn 0.587149 0.8081418 0.04650562
vn 0.4279926 0.5890814 -0.6854235
vn 0.3086826 0.9500276 0.0465047
vn 0.2250091 0.6925066 -0.6854236
vn 0.2250091 0.6925066 -0.6854236
vn 0.3086826 0.9500276 0.0465047
vn 0 0.9989181 0.046505
vn 0 0.7281451 -0.6854231
vn -0.3086825 0.9500275 0.0465056
vn -0.2250091 0.6925066 -0.6854236
vn -0.2250091 0.6925066 -0.6854236
vn -0.3086825 0.9500275 0.0465056
vn -0.5871491 0.8081418 0.04650562
vn -0.4279927 0.5890815 -0.6854234
vn -0.8081421 0.5871487 0.04650547
vn -0.589082 0.4279924 -0.6854232
vn -0.589082 0.4279924 -0.6854232
vn -0.8081421 0.5871487 0.04650547
vn -0.9500276 0.3086823 0.04650527
vn -0.6925073 0.2250084 -0.6854231
vn -0.9989181 0 0.04650514
vn -0.7281449 0 -0.6854231
vn -0.7281449 0 -0.6854231
vn -0.9989181 0 0.04650514
vn -0.9500277 -0.3086822 0.04650522
vn -0.6925075 -0.2250088 -0.6854228
vn -0.8081416 -0.5871494 0.04650548
vn -0.589082 -0.4279929 -0.6854228
vn -0.587149 -0.8081419 0.04650531
vn -0.4279926 -0.5890818 -0.6854232
vn -0.3086827 -0.9500275 0.0465044
vn -0.2250089 -0.692506 -0.6854243
vn 0 -0.9989181 0.04650436
vn 0 -0.7281456 -0.6854224
vn 0.3086826 -0.9500276 0.04650505
vn 0.225009 -0.6925061 -0.6854241
vn 0.587149 -0.8081419 0.04650503
vn 0.4279923 -0.5890811 -0.685424
vn 0.8081416 -0.5871493 0.04650518
vn 0.5890809 -0.4279922 -0.6854243
vn 0.9500276 -0.3086825 0.04650516
vn 0.6925073 -0.2250091 -0.6854229
vn 0.9989181 -1.126934E-06 0.04650507
vn 0.7281452 -8.495339E-07 -0.6854228
vn 0.5890809 0.4279924 -0.6854241
vn 0 0 -1
vn 0.6925076 0.2250086 -0.6854227
vn 0.4279926 0.5890814 -0.6854235
vn 0.7281452 -8.495339E-07 -0.6854228
vn 0.2250091 0.6925066 -0.6854236
vn 0.6925073 -0.2250091 -0.6854229
vn 0 0.7281451 -0.6854231
vn 0.5890809 -0.4279922 -0.6854243
vn -0.2250091 0.6925066 -0.6854236
vn 0.4279923 -0.5890811 -0.685424
vn -0.4279927 0.5890815 -0.6854234
vn 0.225009 -0.6925061 -0.6854241
vn -0.589082 0.4279924 -0.6854232
vn 0 -0.7281456 -0.6854224
vn -0.6925073 0.2250084 -0.6854231
vn -0.2250089 -0.692506 -0.6854243
vn -0.7281449 0 -0.6854231
vn -0.4279926 -0.5890818 -0.6854232
vn -0.6925075 -0.2250088 -0.6854228
vn -0.589082 -0.4279929 -0.6854228
g Rim_Purple_1_0
f 3/3/3 2/2/2 1/1/1
f 4/4/4 3/3/3 1/1/1
f 1/1/1 5/5/5 4/4/4
f 5/5/5 6/6/6 4/4/4
f 6/6/6 8/8/8 7/7/7
f 9/9/9 6/6/6 7/7/7
f 9/9/9 7/7/7 10/10/10
f 11/11/11 9/9/9 10/10/10
f 11/11/11 10/10/10 12/12/12
f 13/13/13 11/11/11 12/12/12
f 13/13/13 12/12/12 14/14/14
f 15/15/15 13/13/13 14/14/14
f 15/15/15 14/14/14 16/16/16
f 17/17/17 15/15/15 16/16/16
f 17/17/17 16/16/16 18/18/18
f 19/19/19 17/17/17 18/18/18
f 19/19/19 18/18/18 20/20/20
f 21/21/21 19/19/19 20/20/20
f 21/21/21 20/20/20 22/22/22
f 23/23/23 21/21/21 22/22/22
f 23/23/23 22/22/22 24/24/24
f 25/25/25 23/23/23 24/24/24
f 25/25/25 24/24/24 26/26/26
f 27/27/27 25/25/25 26/26/26
f 27/27/27 29/29/29 28/28/28
f 30/30/30 27/27/27 28/28/28
f 30/30/30 28/28/28 31/31/31
f 32/32/32 30/30/30 31/31/31
f 35/35/35 34/34/34 33/33/33
f 34/34/34 36/36/36 33/33/33
f 34/34/34 37/37/37 36/36/36
f 37/37/37 38/38/38 36/36/36
f 41/41/41 40/40/40 39/39/39
f 40/40/40 42/42/42 39/39/39
f 40/40/40 43/43/43 42/42/42
f 43/43/43 44/44/44 42/42/42
f 47/47/47 46/46/46 45/45/45
f 46/46/46 48/48/48 45/45/45
f 46/46/46 49/49/49 48/48/48
f 49/49/49 50/50/50 48/48/48
f 53/53/53 52/52/52 51/51/51
f 52/52/52 54/54/54 51/51/51
f 51/51/51 54/54/54 55/55/55
f 54/54/54 56/56/56 55/55/55
f 59/59/59 58/58/58 57/57/57
f 60/60/60 59/59/59 57/57/57
f 61/61/61 59/59/59 60/60/60
f 62/62/62 61/61/61 60/60/60
f 65/65/65 64/64/64 63/63/63
f 66/66/66 65/65/65 63/63/63
f 67/67/67 65/65/65 66/66/66
f 68/68/68 67/67/67 66/66/66
f 71/71/71 70/70/70 69/69/69
f 72/72/72 71/71/71 69/69/69
f 73/73/73 71/71/71 72/72/72
f 74/74/74 73/73/73 72/72/72
f 77/77/77 76/76/76 75/75/75
f 78/78/78 77/77/77 75/75/75
f 79/79/79 77/77/77 78/78/78
f 80/80/80 79/79/79 78/78/78
f 83/83/83 82/82/82 81/81/81
f 84/84/84 83/83/83 81/81/81
f 85/85/85 83/83/83 84/84/84
f 86/86/86 85/85/85 84/84/84
f 87/87/87 85/85/85 86/86/86
f 88/88/88 87/87/87 86/86/86
f 89/89/89 87/87/87 88/88/88
f 90/90/90 89/89/89 88/88/88
f 91/91/91 89/89/89 90/90/90
f 92/92/92 91/91/91 90/90/90
f 93/93/93 91/91/91 92/92/92
f 94/94/94 93/93/93 92/92/92
f 95/95/95 93/93/93 94/94/94
f 96/96/96 95/95/95 94/94/94
f 97/97/97 95/95/95 96/96/96
f 98/98/98 97/97/97 96/96/96
f 99/99/99 97/97/97 98/98/98
f 100/100/100 99/99/99 98/98/98
f 101/101/101 99/99/99 100/100/100
f 102/102/102 101/101/101 100/100/100
f 105/105/105 104/104/104 103/103/103
f 103/103/103 104/104/104 106/106/106
f 107/107/107 104/104/104 105/105/105
f 106/106/106 104/104/104 108/108/108
f 109/109/109 104/104/104 107/107/107
f 108/108/108 104/104/104 110/110/110
f 111/111/111 104/104/104 109/109/109
f 110/110/110 104/104/104 112/112/112
f 113/113/113 104/104/104 111/111/111
f 112/112/112 104/104/104 114/114/114
f 115/115/115 104/104/104 113/113/113
f 114/114/114 104/104/104 116/116/116
f 117/117/117 104/104/104 115/115/115
f 116/116/116 104/104/104 118/118/118
f 119/119/119 104/104/104 117/117/117
f 118/118/118 104/104/104 120/120/120
f 121/121/121 104/104/104 119/119/119
f 120/120/120 104/104/104 122/122/122
f 123/123/123 104/104/104 121/121/121
f 122/122/122 104/104/104 123/123/123
