g Rim_Silver_4
v 3.250892 5.681484 16.05831
v 2.765374 6.634367 16.05831
v 2.853968 6.698734 15.43605
v 3.355041 5.715324 15.43605
v 3.418188 4.625207 16.05831
v 3.527696 4.625207 15.43605
v 3.25089 3.568927 16.05831
v 3.418188 4.625207 16.05831
v 3.355038 3.535088 15.43605
v 2.765372 2.616046 16.05831
v 2.853967 2.55168 15.43605
v 2.009161 1.859834 16.05831
v 2.073528 1.77124 15.43605
v 1.056278 1.374316 16.05831
v 1.090118 1.270169 15.43605
v 3.625318E-09 1.207019 16.05831
v 3.814632E-08 1.097509 15.43605
v -1.056278 1.374316 16.05831
v -1.090118 1.270169 15.43605
v -2.009161 1.859834 16.05831
v -2.073528 1.77124 15.43605
v -2.765373 2.616046 16.05831
v -2.853967 2.55168 15.43605
v -3.25089 3.568927 16.05831
v -3.355039 3.535088 15.43605
v -3.418188 4.625207 16.05831
v -3.527696 4.625207 15.43605
v -3.25089 5.681484 16.05831
v -3.418188 4.625207 16.05831
v -3.355039 5.715324 15.43605
v -2.765373 6.634367 16.05831
v -2.853968 6.698734 15.43605
v 2.765374 6.634367 16.05831
v 2.073529 7.479173 15.43605
v 2.853968 6.698734 15.43605
v 2.009162 7.39058 16.05831
v 1.090119 7.980247 15.43605
v 1.056279 7.876097 16.05831
v 1.056279 7.876097 16.05831
v 1.432798E-07 8.152905 15.43605
v 1.090119 7.980247 15.43605
v 2.217563E-07 8.043396 16.05831
v -1.090119 7.980247 15.43605
v -1.056278 7.876097 16.05831
v -1.056278 7.876097 16.05831
v -2.073529 7.479173 15.43605
v -1.090119 7.980247 15.43605
v -2.009161 7.39058 16.05831
v -2.853968 6.698734 15.43605
v -2.765373 6.634367 16.05831
v 3.355041 5.715326 13.58636
v 2.853968 6.698734 15.43605
v 2.853968 6.698734 13.58635
v 3.355041 5.715324 15.43605
v 3.527696 4.625207 13.58636
v 3.527696 4.625207 15.43605
v 2.853968 6.698734 13.58635
v 2.853968 6.698734 15.43605
v 2.073529 7.479173 15.43605
v 2.073529 7.479173 13.58636
v 2.073529 7.479173 13.58636
v 2.073529 7.479173 15.43605
v 1.090119 7.980247 15.43605
v 1.090119 7.980247 13.58636
v 1.090119 7.980247 13.58636
v 1.090119 7.980247 15.43605
v 1.432798E-07 8.152905 15.43605
v 1.432798E-07 8.152905 13.58636
v -1.090119 7.980247 15.43605
v -1.090119 7.980247 13.58636
v -1.090119 7.980247 13.58636
v -1.090119 7.980247 15.43605
v -2.073529 7.479173 15.43605
v -2.073529 7.479173 13.58636
v -2.853968 6.698734 15.43605
v -2.853968 6.698734 13.58635
v -2.853968 6.698734 13.58635
v -2.853968 6.698734 15.43605
v -3.355039 5.715324 15.43605
v -3.355039 5.715324 13.58636
v -3.527696 4.625207 15.43605
v -3.527696 4.625207 13.58636
v -3.527696 4.625207 13.58636
v -3.527696 4.625207 15.43605
v -3.355039 3.535088 15.43605
v -3.355039 3.535088 13.58636
v -2.853967 2.55168 15.43605
v -2.853967 2.55168 13.58636
v -2.073528 1.77124 15.43605
v -2.073528 1.77124 13.58636
v -1.090118 1.270169 15.43605
v -1.090118 1.270169 13.58635
v 3.814632E-08 1.097509 15.43605
v 3.814632E-08 1.097509 13.58636
v 1.090118 1.270169 15.43605
v 1.090118 1.270169 13.58635
v 2.073528 1.77124 15.43605
v 2.073528 1.77124 13.58636
v 2.853967 2.55168 15.43605
v 2.853967 2.55168 13.58636
v 3.355038 3.535088 15.43605
v 3.355038 3.535088 13.58636
v 3.527696 4.625207 15.43605
v 3.527696 4.625207 13.58636
v 2.853968 6.698734 13.58635
v 1.111006E-07 4.625207 13.58636
v 3.355041 5.715326 13.58636
v 2.073529 7.479173 13.58636
v 3.527696 4.625207 13.58636
v 1.090119 7.980247 13.58636
v 3.355038 3.535088 13.58636
v 1.432798E-07 8.152905 13.58636
v 2.853967 2.55168 13.58636
v -1.090119 7.980247 13.58636
v 2.073528 1.77124 13.58636
v -2.073529 7.479173 13.58636
v 1.090118 1.270169 13.58635
v -2.853968 6.698734 13.58635
v 3.814632E-08 1.097509 13.58636
v -3.355039 5.715324 13.58636
v -1.090118 1.270169 13.58635
v -3.527696 4.625207 13.58636
v -2.073528 1.77124 13.58636
v -3.355039 3.535088 13.58636
v -2.853967 2.55168 13.58636
vt 0.6570777 0.8065012
vt 0.6570777 0.8065012
vt 0.6570777 0.8048019
vt 0.6570777 0.8048019
vt 0.6570777 0.8065012
vt 0.6570777 0.8048019
vt 0.6570777 0.8081652
vt 0.6570777 0.8081652
vt 0.6570777 0.8057325
vt 0.6570777 0.8081652
vt 0.6570777 0.8057325
vt 0.6570777 0.8081652
vt 0.6570777 0.8057325
vt 0.6570777 0.8081652
vt 0.6570777 0.8057325
vt 0.6570777 0.8081652
vt 0.6570777 0.8057325
vt 0.6570777 0.8081652
vt 0.6570777 0.8057324
vt 0.6570777 0.8081653
vt 0.6570777 0.8057324
vt 0.6570777 0.8081652
vt 0.6570777 0.8057325
vt 0.6570777 0.8081652
vt 0.6570777 0.8057325
vt 0.6570777 0.8081652
vt 0.6570777 0.8048019
vt 0.6570777 0.8065012
vt 0.6570777 0.8065012
vt 0.6570777 0.8048019
vt 0.6570777 0.8065012
vt 0.6570777 0.8048018
vt 0.6570777 0.8123074
vt 0.6570777 0.8102932
vt 0.6570777 0.8102932
vt 0.6570777 0.8123074
vt 0.6570777 0.8107837
vt 0.6570777 0.8129269
vt 0.6570777 0.8066987
vt 0.6570777 0.805801
vt 0.6570777 0.805801
vt 0.6570777 0.8066987
vt 0.6570777 0.805801
vt 0.6570777 0.8066987
vt 0.6570777 0.8129269
vt 0.6570777 0.8107837
vt 0.6570777 0.8107836
vt 0.6570777 0.8129269
vt 0.6570777 0.8102932
vt 0.6570777 0.8123074
vt 0.7517969 0.7945399
vt 0.7517969 0.8098347
vt 0.7517969 0.7945399
vt 0.7517969 0.8098347
vt 0.7517969 0.7945399
vt 0.7517969 0.8098347
vt 0.8478013 0.7971959
vt 0.8478013 0.815326
vt 0.8478013 0.815326
vt 0.8478013 0.7971959
vt 0.8478013 0.7965262
vt 0.8478013 0.8158165
vt 0.8478013 0.8158165
vt 0.8478013 0.7965262
vt 0.9408309 0.8027542
vt 0.9408309 0.8108339
vt 0.9408309 0.8108338
vt 0.9408309 0.8027542
vt 0.9408309 0.8108338
vt 0.9408309 0.8027542
vt 0.8478013 0.7965262
vt 0.8478013 0.8158165
vt 0.8478013 0.8158165
vt 0.8478013 0.7965262
vt 0.8478013 0.815326
vt 0.8478013 0.7971959
vt 0.7517969 0.7945399
vt 0.7517969 0.8098347
vt 0.7517969 0.8098347
vt 0.7517969 0.7945399
vt 0.7517969 0.8098347
vt 0.7517969 0.7945399
vt 0.6570777 0.788868
vt 0.6570777 0.8107653
vt 0.6570777 0.8107653
vt 0.6570777 0.788868
vt 0.6570777 0.8107653
vt 0.6570777 0.788868
vt 0.6570777 0.8107653
vt 0.6570777 0.788868
vt 0.6570777 0.8107653
vt 0.6570777 0.788868
vt 0.6570777 0.8107653
vt 0.6570777 0.788868
vt 0.6570777 0.8107653
vt 0.6570777 0.788868
vt 0.6570777 0.8107653
vt 0.6570777 0.788868
vt 0.6570777 0.8107653
vt 0.6570777 0.788868
vt 0.6570777 0.8107653
vt 0.6570777 0.788868
vt 0.6570777 0.8107653
vt 0.6570777 0.788868
vt 0.6570777 0.8198814
vt 0.6570777 0.8201679
vt 0.6570777 0.8193365
vt 0.6570777 0.8204544
vt 0.6570777 0.8188729
vt 0.6570777 0.8209994
vt 0.6570777 0.818536
vt 0.6570777 0.8214629
vt 0.6570777 0.818359
vt 0.6570777 0.8217998
vt 0.6570777 0.818359
vt 0.6570777 0.8219768
vt 0.6570777 0.818536
vt 0.6570777 0.8219768
vt 0.6570777 0.8188729
vt 0.6570777 0.8217998
vt 0.6570777 0.8193365
vt 0.6570777 0.8214629
vt 0.6570777 0.8198814
vt 0.6570777 0.8209994
vt 0.6570777 0.8204544
vn 0.936017 0.3041302 0.1771355
vn 0.7962232 0.5784909 0.1771352
vn 0.8081414 0.5871499 0.04650526
vn 0.9500277 0.3086822 0.04650534
vn 0.9841865 -1.047407E-06 0.1771354
vn 0.9989181 -1.133195E-06 0.04650521
vn 0.9360167 -0.304131 0.1771355
vn 0.9841865 -1.047407E-06 0.1771354
vn 0.9500275 -0.3086826 0.0465052
vn 0.7962229 -0.5784913 0.1771356
vn 0.8081416 -0.5871494 0.04650522
vn 0.5784906 -0.7962236 0.1771348
vn 0.5871493 -0.8081416 0.04650507
vn 0.3041306 -0.9360169 0.1771353
vn 0.3086831 -0.9500274 0.04650521
vn -1.496293E-07 -0.9841864 0.1771363
vn 0 -0.9989181 0.04650545
vn -0.3041308 -0.9360169 0.1771353
vn -0.3086832 -0.9500274 0.04650519
vn -0.5784903 -0.7962236 0.1771349
vn -0.5871492 -0.8081418 0.04650509
vn -0.7962228 -0.5784912 0.1771357
vn -0.8081416 -0.5871494 0.04650528
vn -0.9360168 -0.3041307 0.1771356
vn -0.9500276 -0.3086823 0.04650529
vn -0.9841865 0 0.1771355
vn -0.9989181 0 0.04650524
vn -0.9360169 0.3041304 0.1771357
vn -0.9841865 0 0.1771355
vn -0.9500276 0.3086824 0.04650531
vn -0.7962235 0.5784904 0.1771359
vn -0.8081418 0.5871491 0.04650535
vn 0.7962232 0.5784909 0.1771352
vn 0.5871495 0.8081416 0.04650522
vn 0.8081414 0.5871499 0.04650526
vn 0.5784898 0.7962239 0.1771354
vn 0.308683 0.9500274 0.04650545
vn 0.3041306 0.9360168 0.1771362
vn 0.3041306 0.9360168 0.1771362
vn 0 0.9989181 0.04650562
vn 0.308683 0.9500274 0.04650545
vn 0 0.9841862 0.1771368
vn -0.308683 0.9500274 0.0465056
vn -0.3041305 0.9360167 0.1771368
vn -0.3041305 0.9360167 0.1771368
vn -0.5871495 0.8081415 0.04650546
vn -0.308683 0.9500274 0.0465056
vn -0.5784898 0.7962238 0.1771363
vn -0.8081418 0.5871491 0.04650535
vn -0.7962235 0.5784904 0.1771359
vn 0.6925075 0.2250085 -0.6854228
vn 0.8081414 0.5871499 0.04650526
vn 0.589081 0.4279927 -0.6854237
vn 0.9500277 0.3086822 0.04650534
vn 0.7281445 -8.495332E-07 -0.6854237
vn 0.9989181 -1.133195E-06 0.04650521
vn 0.589081 0.4279927 -0.6854237
vn 0.8081414 0.5871499 0.04650526
vn 0.5871495 0.8081416 0.04650522
vn 0.4279931 0.5890813 -0.6854233
vn 0.4279931 0.5890813 -0.6854233
vn 0.5871495 0.8081416 0.04650522
vn 0.308683 0.9500274 0.04650545
vn 0.2250095 0.6925066 -0.6854234
vn 0.2250095 0.6925066 -0.6854234
vn 0.308683 0.9500274 0.04650545
vn 0 0.9989181 0.04650562
vn 0 0.7281447 -0.6854235
vn -0.308683 0.9500274 0.0465056
vn -0.2250095 0.6925066 -0.6854234
vn -0.2250095 0.6925066 -0.6854234
vn -0.308683 0.9500274 0.0465056
vn -0.5871495 0.8081415 0.04650546
vn -0.427993 0.5890813 -0.6854234
vn -0.8081418 0.5871491 0.04650535
vn -0.5890815 0.4279923 -0.6854237
vn -0.5890815 0.4279923 -0.6854237
vn -0.8081418 0.5871491 0.04650535
vn -0.9500276 0.3086824 0.04650531
vn -0.6925071 0.2250085 -0.6854234
vn -0.9989181 0 0.04650524
vn -0.7281446 0 -0.6854236
vn -0.7281446 0 -0.6854236
vn -0.9989181 0 0.04650524
vn -0.9500276 -0.3086823 0.04650529
vn -0.6925069 -0.2250087 -0.6854235
vn -0.8081416 -0.5871494 0.04650528
vn -0.5890818 -0.4279928 -0.6854231
vn -0.5871492 -0.8081418 0.04650509
vn -0.4279928 -0.5890815 -0.6854233
vn -0.3086832 -0.9500274 0.04650519
vn -0.2250094 -0.6925061 -0.6854241
vn 0 -0.9989181 0.04650545
vn 0 -0.7281452 -0.6854228
vn 0.3086831 -0.9500274 0.04650521
vn 0.2250094 -0.6925061 -0.685424
vn 0.5871493 -0.8081416 0.04650507
vn 0.4279926 -0.5890816 -0.6854234
vn 0.8081416 -0.5871494 0.04650522
vn 0.5890812 -0.4279926 -0.6854237
vn 0.9500275 -0.3086826 0.0465052
vn 0.6925069 -0.2250089 -0.6854234
vn 0.9989181 -1.133195E-06 0.04650521
vn 0.7281445 -8.495332E-07 -0.6854237
vn 0.589081 0.4279927 -0.6854237
vn 0 0 -1
vn 0.6925075 0.2250085 -0.6854228
vn 0.4279931 0.5890813 -0.6854233
vn 0.7281445 -8.495332E-07 -0.6854237
vn 0.2250095 0.6925066 -0.6854234
vn 0.6925069 -0.2250089 -0.6854234
vn 0 0.7281447 -0.6854235
vn 0.5890812 -0.4279926 -0.6854237
vn -0.2250095 0.6925066 -0.6854234
vn 0.4279926 -0.5890816 -0.6854234
vn -0.427993 0.5890813 -0.6854234
vn 0.2250094 -0.6925061 -0.685424
vn -0.5890815 0.4279923 -0.6854237
vn 0 -0.7281452 -0.6854228
vn -0.6925071 0.2250085 -0.6854234
vn -0.2250094 -0.6925061 -0.6854241
vn -0.7281446 0 -0.6854236
vn -0.4279928 -0.5890815 -0.6854233
vn -0.6925069 -0.2250087 -0.6854235
vn -0.5890818 -0.4279928 -0.6854231
g Rim_Silver_4_0
f 3/3/3 2/2/2 1/1/1
f 4/4/4 3/3/3 1/1/1
f 1/1/1 5/5/5 4/4/4
f 5/5/5 6/6/6 4/4/4
f 6/6/6 8/8/8 7/7/7
f 9/9/9 6/6/6 7/7/7
f 9/9/9 7/7/7 10/10/10
f 11/11/11 9/9/9 10/10/10
f 11/11/11 10/10/10 12/12/12
f 13/13/13 11/11/11 12/12/12
f 13/13/13 12/12/12 14/14/14
f 15/15/15 13/13/13 14/14/14
f 15/15/15 14/14/14 16/16/16
f 17/17/17 15/15/15 16/16/16
f 17/17/17 16/16/16 18/18/18
f 19/19/19 17/17/17 18/18/18
f 19/19/19 18/18/18 20/20/20
f 21/21/21 19/19/19 20/20/20
f 21/21/21 20/20/20 22/22/22
f 23/23/23 21/21/21 22/22/22
f 23/23/23 22/22/22 24/24/24
f 25/25/25 23/23/23 24/24/24
f 25/25/25 24/24/24 26/26/26
f 27/27/27 25/25/25 26/26/26
f 27/27/27 29/29/29 28/28/28
f 30/30/30 27/27/27 28/28/28
f 30/30/30 28/28/28 31/31/31
f 32/32/32 30/30/30 31/31/31
f 35/35/35 34/34/34 33/33/33
f 34/34/34 36/36/36 33/33/33
f 34/34/34 37/37/37 36/36/36
f 37/37/37 38/38/38 36/36/36
f 41/41/41 40/40/40 39/39/39
f 40/40/40 42/42/42 39/39/39
f 40/40/40 43/43/43 42/42/42
f 43/43/43 44/44/44 42/42/42
f 47/47/47 46/46/46 45/45/45
f 46/46/46 48/48/48 45/45/45
f 46/46/46 49/49/49 48/48/48
f 49/49/49 50/50/50 48/48/48
f 53/53/53 52/52/52 51/51/51
f 52/52/52 54/54/54 51/51/51
f 51/51/51 54/54/54 55/55/55
f 54/54/54 56/56/56 55/55/55
f 59/59/59 58/58/58 57/57/57
f 60/60/60 59/59/59 57/57/57
f 63/63/63 62/62/62 61/61/61
f 64/64/64 63/63/63 61/61/61
f 67/67/67 66/66/66 65/65/65
f 68/68/68 67/67/67 65/65/65
f 69/69/69 67/67/67 68/68/68
f 70/70/70 69/69/69 68/68/68
f 73/73/73 72/72/72 71/71/71
f 74/74/74 73/73/73 71/71/71
f 75/75/75 73/73/73 74/74/74
f 76/76/76 75/75/75 74/74/74
f 79/79/79 78/78/78 77/77/77
f 80/80/80 79/79/79 77/77/77
f 81/81/81 79/79/79 80/80/80
f 82/82/82 81/81/81 80/80/80
f 85/85/85 84/84/84 83/83/83
f 86/86/86 85/85/85 83/83/83
f 87/87/87 85/85/85 86/86/86
f 88/88/88 87/87/87 86/86/86
f 89/89/89 87/87/87 88/88/88
f 90/90/90 89/89/89 88/88/88
f 91/91/91 89/89/89 90/90/90
f 92/92/92 91/91/91 90/90/90
f 93/93/93 91/91/91 92/92/92
f 94/94/94 93/93/93 92/92/92
f 95/95/95 93/93/93 94/94/94
f 96/96/96 95/95/95 94/94/94
f 97/97/97 95/95/95 96/96/96
f 98/98/98 97/97/97 96/96/96
f 99/99/99 97/97/97 98/98/98
f 100/100/100 99/99/99 98/98/98
f 101/101/101 99/99/99 100/100/100
f 102/102/102 101/101/101 100/100/100
f 103/103/103 101/101/101 102/102/102
f 104/104/104 103/103/103 102/102/102
f 107/107/107 106/106/106 105/105/105
f 105/105/105 106/106/106 108/108/108
f 109/109/109 106/106/106 107/107/107
f 108/108/108 106/106/106 110/110/110
f 111/111/111 106/106/106 109/109/109
f 110/110/110 106/106/106 112/112/112
f 113/113/113 106/106/106 111/111/111
f 112/112/112 106/106/106 114/114/114
f 115/115/115 106/106/106 113/113/113
f 114/114/114 106/106/106 116/116/116
f 117/117/117 106/106/106 115/115/115
f 116/116/116 106/106/106 118/118/118
f 119/119/119 106/106/106 117/117/117
f 118/118/118 106/106/106 120/120/120
f 121/121/121 106/106/106 119/119/119
f 120/120/120 106/106/106 122/122/122
f 123/123/123 106/106/106 121/121/121
f 122/122/122 106/106/106 124/124/124
f 125/125/125 106/106/106 123/123/123
f 124/124/124 106/106/106 125/125/125
