g Rim_Silver_1
v 3.250892 23.64346 16.05831
v 2.765374 24.59634 16.05831
v 2.853968 24.66071 15.43605
v 3.355041 23.6773 15.43605
v 3.418188 22.58718 16.05831
v 3.527696 22.58718 15.43605
v 3.25089 21.5309 16.05831
v 3.418188 22.58718 16.05831
v 3.355038 21.49706 15.43605
v 2.765372 20.57802 16.05831
v 2.853967 20.51365 15.43605
v 2.009161 19.82181 16.05831
v 2.073528 19.73322 15.43605
v 1.056278 19.33629 16.05831
v 1.090118 19.23214 15.43605
v 5.263228E-09 19.16899 16.05831
v 3.978423E-08 19.05948 15.43605
v -1.056278 19.33629 16.05831
v -1.090118 19.23214 15.43605
v -2.009161 19.82181 16.05831
v -2.073528 19.73322 15.43605
v -2.765373 20.57802 16.05831
v -2.853967 20.51365 15.43605
v -3.25089 21.5309 16.05831
v -3.355039 21.49706 15.43605
v -3.418188 22.58718 16.05831
v -3.527696 22.58718 15.43605
v -3.25089 23.64346 16.05831
v -3.418188 22.58718 16.05831
v -3.355039 23.6773 15.43605
v -2.765373 24.59634 16.05831
v -2.853968 24.66071 15.43605
v 2.765374 24.59634 16.05831
v 2.073529 25.44115 15.43605
v 2.853968 24.66071 15.43605
v 2.009162 25.35256 16.05831
v 1.090119 25.94222 15.43605
v 1.056279 25.83807 16.05831
v 1.056279 25.83807 16.05831
v 1.449177E-07 26.11488 15.43605
v 1.090119 25.94222 15.43605
v 2.233942E-07 26.00537 16.05831
v -1.090119 25.94222 15.43605
v -1.056278 25.83807 16.05831
v -1.056278 25.83807 16.05831
v -2.073529 25.44115 15.43605
v -1.090119 25.94222 15.43605
v -2.009161 25.35256 16.05831
v -2.853968 24.66071 15.43605
v -2.765373 24.59634 16.05831
v 3.355041 23.6773 13.58636
v 2.853968 24.66071 15.43605
v 2.853968 24.66071 13.58635
v 3.355041 23.6773 15.43605
v 3.527696 22.58718 13.58636
v 3.527696 22.58718 15.43605
v 2.853968 24.66071 13.58635
v 2.853968 24.66071 15.43605
v 2.073529 25.44115 15.43605
v 2.073529 25.44115 13.58636
v 2.073529 25.44115 13.58636
v 2.073529 25.44115 15.43605
v 1.090119 25.94222 15.43605
v 1.090119 25.94222 13.58636
v 1.090119 25.94222 13.58636
v 1.090119 25.94222 15.43605
v 1.449177E-07 26.11488 15.43605
v 1.449177E-07 26.11488 13.58636
v -1.090119 25.94222 15.43605
v -1.090119 25.94222 13.58636
v -1.090119 25.94222 13.58636
v -1.090119 25.94222 15.43605
v -2.073529 25.44115 15.43605
v -2.073529 25.44115 13.58636
v -2.853968 24.66071 15.43605
v -2.853968 24.66071 13.58635
v -2.853968 24.66071 13.58635
v -2.853968 24.66071 15.43605
v -3.355039 23.6773 15.43605
v -3.355039 23.6773 13.58636
v -3.527696 22.58718 15.43605
v -3.527696 22.58718 13.58636
v -3.527696 22.58718 13.58636
v -3.527696 22.58718 15.43605
v -3.355039 21.49706 15.43605
v -3.355039 21.49706 13.58636
v -2.853967 20.51365 15.43605
v -2.853967 20.51365 13.58636
v -2.073528 19.73322 15.43605
v -2.073528 19.73322 13.58636
v -1.090118 19.23214 15.43605
v -1.090118 19.23214 13.58635
v 3.978423E-08 19.05948 15.43605
v 3.978423E-08 19.05948 13.58636
v 1.090118 19.23214 15.43605
v 1.090118 19.23214 13.58635
v 2.073528 19.73322 15.43605
v 2.073528 19.73322 13.58636
v 2.853967 20.51365 15.43605
v 2.853967 20.51365 13.58636
v 3.355038 21.49706 15.43605
v 3.355038 21.49706 13.58636
v 3.527696 22.58718 15.43605
v 3.527696 22.58718 13.58636
v 2.853968 24.66071 13.58635
v 1.127385E-07 22.58718 13.58636
v 3.355041 23.6773 13.58636
v 2.073529 25.44115 13.58636
v 3.527696 22.58718 13.58636
v 1.090119 25.94222 13.58636
v 3.355038 21.49706 13.58636
v 1.449177E-07 26.11488 13.58636
v 2.853967 20.51365 13.58636
v -1.090119 25.94222 13.58636
v 2.073528 19.73322 13.58636
v -2.073529 25.44115 13.58636
v 1.090118 19.23214 13.58635
v -2.853968 24.66071 13.58635
v 3.978423E-08 19.05948 13.58636
v -3.355039 23.6773 13.58636
v -1.090118 19.23214 13.58635
v -3.527696 22.58718 13.58636
v -2.073528 19.73322 13.58636
v -3.355039 21.49706 13.58636
v -2.853967 20.51365 13.58636
vt 0.6570777 0.8065012
vt 0.6570777 0.8065012
vt 0.6570777 0.8048019
vt 0.6570777 0.8048019
vt 0.6570777 0.8065012
vt 0.6570777 0.8048019
vt 0.6570777 0.8081652
vt 0.6570777 0.8081652
vt 0.6570777 0.8057325
vt 0.6570777 0.8081652
vt 0.6570777 0.8057325
vt 0.6570777 0.8081652
vt 0.6570777 0.8057325
vt 0.6570777 0.8081652
vt 0.6570777 0.8057325
vt 0.6570777 0.8081652
vt 0.6570777 0.8057325
vt 0.6570777 0.8081652
vt 0.6570777 0.8057324
vt 0.6570777 0.8081653
vt 0.6570777 0.8057324
vt 0.6570777 0.8081652
vt 0.6570777 0.8057325
vt 0.6570777 0.8081652
vt 0.6570777 0.8057325
vt 0.6570777 0.8081652
vt 0.6570777 0.8048019
vt 0.6570777 0.8065012
vt 0.6570777 0.8065012
vt 0.6570777 0.8048019
vt 0.6570777 0.8065012
vt 0.6570777 0.8048018
vt 0.6570777 0.8123074
vt 0.6570777 0.8102932
vt 0.6570777 0.8102932
vt 0.6570777 0.8123074
vt 0.6570777 0.8107837
vt 0.6570777 0.8129269
vt 0.6570777 0.8066987
vt 0.6570777 0.805801
vt 0.6570777 0.805801
vt 0.6570777 0.8066987
vt 0.6570777 0.805801
vt 0.6570777 0.8066987
vt 0.6570777 0.8129269
vt 0.6570777 0.8107837
vt 0.6570777 0.8107836
vt 0.6570777 0.8129269
vt 0.6570777 0.8102932
vt 0.6570777 0.8123074
vt 0.7517969 0.7945399
vt 0.7517969 0.8098347
vt 0.7517969 0.7945399
vt 0.7517969 0.8098347
vt 0.7517969 0.7945399
vt 0.7517969 0.8098347
vt 0.8478013 0.7971959
vt 0.8478013 0.815326
vt 0.8478013 0.815326
vt 0.8478013 0.7971959
vt 0.8478013 0.7965262
vt 0.8478013 0.8158165
vt 0.8478013 0.8158165
vt 0.8478013 0.7965262
vt 0.9408309 0.8027542
vt 0.9408309 0.8108339
vt 0.9408309 0.8108338
vt 0.9408309 0.8027542
vt 0.9408309 0.8108338
vt 0.9408309 0.8027542
vt 0.8478013 0.7965262
vt 0.8478013 0.8158165
vt 0.8478013 0.8158165
vt 0.8478013 0.7965262
vt 0.8478013 0.815326
vt 0.8478013 0.7971959
vt 0.7517969 0.7945399
vt 0.7517969 0.8098347
vt 0.7517969 0.8098347
vt 0.7517969 0.7945399
vt 0.7517969 0.8098347
vt 0.7517969 0.7945399
vt 0.6570777 0.788868
vt 0.6570777 0.8107653
vt 0.6570777 0.8107653
vt 0.6570777 0.788868
vt 0.6570777 0.8107653
vt 0.6570777 0.788868
vt 0.6570777 0.8107653
vt 0.6570777 0.788868
vt 0.6570777 0.8107653
vt 0.6570777 0.788868
vt 0.6570777 0.8107653
vt 0.6570777 0.788868
vt 0.6570777 0.8107653
vt 0.6570777 0.788868
vt 0.6570777 0.8107653
vt 0.6570777 0.788868
vt 0.6570777 0.8107653
vt 0.6570777 0.788868
vt 0.6570777 0.8107653
vt 0.6570777 0.788868
vt 0.6570777 0.8107653
vt 0.6570777 0.788868
vt 0.6570777 0.8198814
vt 0.6570777 0.8201679
vt 0.6570777 0.8193365
vt 0.6570777 0.8204544
vt 0.6570777 0.8188729
vt 0.6570777 0.8209994
vt 0.6570777 0.818536
vt 0.6570777 0.8214629
vt 0.6570777 0.818359
vt 0.6570777 0.8217998
vt 0.6570777 0.818359
vt 0.6570777 0.8219768
vt 0.6570777 0.818536
vt 0.6570777 0.8219768
vt 0.6570777 0.8188729
vt 0.6570777 0.8217998
vt 0.6570777 0.8193365
vt 0.6570777 0.8214629
vt 0.6570777 0.8198814
vt 0.6570777 0.8209994
vt 0.6570777 0.8204544
vn 0.9274412 0.3019789 0.2205938
vn 0.786478 0.5789874 0.2150024
vn 0.8084872 0.5864274 0.04951115
vn 0.9499304 0.3085646 0.04919561
vn 0.97577 -0.002760436 0.2187812
vn 0.9987938 0.0003861656 0.04909831
vn 0.9276429 -0.3077536 0.2115805
vn 0.97577 -0.002760436 0.2187812
vn 0.9501432 -0.3078881 0.04932369
vn 0.7897488 -0.5786185 0.2037089
vn 0.8083698 -0.5866845 0.04837002
vn 0.5778121 -0.7905567 0.2028622
vn 0.5868123 -0.8082642 0.04858289
vn 0.3042836 -0.9298868 0.2066933
vn 0.308402 -0.9499579 0.04968166
vn -0.001476323 -0.9783208 0.2070898
vn 0.0001950336 -0.9987978 0.0490212
vn -0.3049672 -0.9302702 0.2039424
vn -0.3083488 -0.9499955 0.04929148
vn -0.576967 -0.7916912 0.2008335
vn -0.5869557 -0.8081539 0.04868536
vn -0.7930958 -0.5755413 0.1993775
vn -0.8079951 -0.5871173 0.04936573
vn -0.9305423 -0.3058344 0.201386
vn -0.9500768 -0.3082791 0.04814749
vn -0.9786004 -0.002143689 0.2057588
vn -0.998737 0.0002406145 0.05024296
vn -0.9296965 0.3067774 0.2038431
vn -0.9786004 -0.002143689 0.2057588
vn -0.9500707 0.3081529 0.04906844
vn -0.7922007 0.5766495 0.1997334
vn -0.8081251 0.5870132 0.04847128
vn 0.786478 0.5789874 0.2150024
vn 0.5876378 0.8076847 0.04824267
vn 0.8084872 0.5864274 0.04951115
vn 0.5712192 0.7944874 0.2061516
vn 0.3086787 0.9499009 0.04904873
vn 0.3023173 0.9315122 0.2022109
vn 0.3023173 0.9315122 0.2022109
vn 0.0002101485 0.998772 0.04954141
vn 0.3086787 0.9499009 0.04904873
vn -0.002957021 0.9798481 0.1997224
vn -0.308617 0.9499716 0.04805914
vn -0.3031518 0.9323048 0.1972481
vn -0.3031518 0.9323048 0.1972481
vn -0.587073 0.8080018 0.04978465
vn -0.308617 0.9499716 0.04805914
vn -0.5750717 0.793738 0.1981731
vn -0.8081251 0.5870132 0.04847128
vn -0.7922007 0.5766495 0.1997334
vn 0.6923889 0.2250445 -0.6855309
vn 0.8084872 0.5864274 0.04951115
vn 0.5863844 0.4265364 -0.6886363
vn 0.9499304 0.3085646 0.04919561
vn 0.7270436 -0.0005383284 -0.6865911
vn 0.9987938 0.0003861656 0.04909831
vn 0.5863844 0.4265364 -0.6886363
vn 0.8084872 0.5864274 0.04951115
vn 0.5876378 0.8076847 0.04824267
vn 0.4232208 0.5834944 -0.6931222
vn 0.4232208 0.5834944 -0.6931222
vn 0.5876378 0.8076847 0.04824267
vn 0.3086787 0.9499009 0.04904873
vn 0.2220908 0.6832646 -0.6955754
vn 0.2220908 0.6832646 -0.6955754
vn 0.3086787 0.9499009 0.04904873
vn 0.0002101485 0.998772 0.04954141
vn 0.002078892 0.7172531 -0.6968096
vn -0.308617 0.9499716 0.04805914
vn -0.2209484 0.6791718 -0.6999339
vn -0.2209484 0.6791718 -0.6999339
vn -0.308617 0.9499716 0.04805914
vn -0.587073 0.8080018 0.04978465
vn -0.4226916 0.5784823 -0.6976318
vn -0.8081251 0.5870132 0.04847128
vn -0.5799633 0.4211826 -0.6973147
vn -0.5799633 0.4211826 -0.6973147
vn -0.8081251 0.5870132 0.04847128
vn -0.9500707 0.3081529 0.04906844
vn -0.6838996 0.2216937 -0.695078
vn -0.998737 0.0002406145 0.05024296
vn -0.7199656 0.0001534382 -0.6940097
vn -0.7199656 0.0001534382 -0.6940097
vn -0.998737 0.0002406145 0.05024296
vn -0.9500768 -0.3082791 0.04814749
vn -0.6826537 -0.2214382 -0.6963828
vn -0.8079951 -0.5871173 0.04936573
vn -0.5794682 -0.4211039 -0.6977738
vn -0.5869557 -0.8081539 0.04868536
vn -0.4214104 -0.5803866 -0.6968247
vn -0.3083488 -0.9499955 0.04929148
vn -0.2221491 -0.6839876 -0.6948459
vn 0.0001950336 -0.9987978 0.0490212
vn -0.00016352 -0.7207968 -0.6931465
vn 0.308402 -0.9499579 0.04968166
vn 0.2226121 -0.6851607 -0.6935406
vn 0.5868123 -0.8082642 0.04858289
vn 0.4223623 -0.581449 -0.6953611
vn 0.8083698 -0.5866845 0.04837002
vn 0.5818183 -0.4229538 -0.6946924
vn 0.9501432 -0.3078881 0.04932369
vn 0.6879045 -0.2241752 -0.6903136
vn 0.9987938 0.0003861656 0.04909831
vn 0.7270436 -0.0005383284 -0.6865911
vn 0.5863844 0.4265364 -0.6886363
vn -0.0004711149 -0.000329091 -0.9999999
vn 0.6923889 0.2250445 -0.6855309
vn 0.4232208 0.5834944 -0.6931222
vn 0.7270436 -0.0005383284 -0.6865911
vn 0.2220908 0.6832646 -0.6955754
vn 0.6879045 -0.2241752 -0.6903136
vn 0.002078892 0.7172531 -0.6968096
vn 0.5818183 -0.4229538 -0.6946924
vn -0.2209484 0.6791718 -0.6999339
vn 0.4223623 -0.581449 -0.6953611
vn -0.4226916 0.5784823 -0.6976318
vn 0.2226121 -0.6851607 -0.6935406
vn -0.5799633 0.4211826 -0.6973147
vn -0.00016352 -0.7207968 -0.6931465
vn -0.6838996 0.2216937 -0.695078
vn -0.2221491 -0.6839876 -0.6948459
vn -0.7199656 0.0001534382 -0.6940097
vn -0.4214104 -0.5803866 -0.6968247
vn -0.6826537 -0.2214382 -0.6963828
vn -0.5794682 -0.4211039 -0.6977738
g Rim_Silver_1_0
f 3/3/3 2/2/2 1/1/1
f 4/4/4 3/3/3 1/1/1
f 1/1/1 5/5/5 4/4/4
f 5/5/5 6/6/6 4/4/4
f 6/6/6 8/8/8 7/7/7
f 9/9/9 6/6/6 7/7/7
f 9/9/9 7/7/7 10/10/10
f 11/11/11 9/9/9 10/10/10
f 11/11/11 10/10/10 12/12/12
f 13/13/13 11/11/11 12/12/12
f 13/13/13 12/12/12 14/14/14
f 15/15/15 13/13/13 14/14/14
f 15/15/15 14/14/14 16/16/16
f 17/17/17 15/15/15 16/16/16
f 17/17/17 16/16/16 18/18/18
f 19/19/19 17/17/17 18/18/18
f 19/19/19 18/18/18 20/20/20
f 21/21/21 19/19/19 20/20/20
f 21/21/21 20/20/20 22/22/22
f 23/23/23 21/21/21 22/22/22
f 23/23/23 22/22/22 24/24/24
f 25/25/25 23/23/23 24/24/24
f 25/25/25 24/24/24 26/26/26
f 27/27/27 25/25/25 26/26/26
f 27/27/27 29/29/29 28/28/28
f 30/30/30 27/27/27 28/28/28
f 30/30/30 28/28/28 31/31/31
f 32/32/32 30/30/30 31/31/31
f 35/35/35 34/34/34 33/33/33
f 34/34/34 36/36/36 33/33/33
f 34/34/34 37/37/37 36/36/36
f 37/37/37 38/38/38 36/36/36
f 41/41/41 40/40/40 39/39/39
f 40/40/40 42/42/42 39/39/39
f 40/40/40 43/43/43 42/42/42
f 43/43/43 44/44/44 42/42/42
f 47/47/47 46/46/46 45/45/45
f 46/46/46 48/48/48 45/45/45
f 46/46/46 49/49/49 48/48/48
f 49/49/49 50/50/50 48/48/48
f 53/53/53 52/52/52 51/51/51
f 52/52/52 54/54/54 51/51/51
f 51/51/51 54/54/54 55/55/55
f 54/54/54 56/56/56 55/55/55
f 59/59/59 58/58/58 57/57/57
f 60/60/60 59/59/59 57/57/57
f 63/63/63 62/62/62 61/61/61
f 64/64/64 63/63/63 61/61/61
f 67/67/67 66/66/66 65/65/65
f 68/68/68 67/67/67 65/65/65
f 69/69/69 67/67/67 68/68/68
f 70/70/70 69/69/69 68/68/68
f 73/73/73 72/72/72 71/71/71
f 74/74/74 73/73/73 71/71/71
f 75/75/75 73/73/73 74/74/74
f 76/76/76 75/75/75 74/74/74
f 79/79/79 78/78/78 77/77/77
f 80/80/80 79/79/79 77/77/77
f 81/81/81 79/79/79 80/80/80
f 82/82/82 81/81/81 80/80/80
f 85/85/85 84/84/84 83/83/83
f 86/86/86 85/85/85 83/83/83
f 87/87/87 85/85/85 86/86/86
f 88/88/88 87/87/87 86/86/86
f 89/89/89 87/87/87 88/88/88
f 90/90/90 89/89/89 88/88/88
f 91/91/91 89/89/89 90/90/90
f 92/92/92 91/91/91 90/90/90
f 93/93/93 91/91/91 92/92/92
f 94/94/94 93/93/93 92/92/92
f 95/95/95 93/93/93 94/94/94
f 96/96/96 95/95/95 94/94/94
f 97/97/97 95/95/95 96/96/96
f 98/98/98 97/97/97 96/96/96
f 99/99/99 97/97/97 98/98/98
f 100/100/100 99/99/99 98/98/98
f 101/101/101 99/99/99 100/100/100
f 102/102/102 101/101/101 100/100/100
f 103/103/103 101/101/101 102/102/102
f 104/104/104 103/103/103 102/102/102
f 107/107/107 106/106/106 105/105/105
f 105/105/105 106/106/106 108/108/108
f 109/109/109 106/106/106 107/107/107
f 108/108/108 106/106/106 110/110/110
f 111/111/111 106/106/106 109/109/109
f 110/110/110 106/106/106 112/112/112
f 113/113/113 106/106/106 111/111/111
f 112/112/112 106/106/106 114/114/114
f 115/115/115 106/106/106 113/113/113
f 114/114/114 106/106/106 116/116/116
f 117/117/117 106/106/106 115/115/115
f 116/116/116 106/106/106 118/118/118
f 119/119/119 106/106/106 117/117/117
f 118/118/118 106/106/106 120/120/120
f 121/121/121 106/106/106 119/119/119
f 120/120/120 106/106/106 122/122/122
f 123/123/123 106/106/106 121/121/121
f 122/122/122 106/106/106 124/124/124
f 125/125/125 106/106/106 123/123/123
f 124/124/124 106/106/106 125/125/125
