g RocketRight
v 3 3.867738 11.98898
v 5.075379 3.867738 11.98898
v 3 3.867738 8.471969
v 3 8.132261 8.471969
v 5.07538 8.132261 11.98898
v 3 8.132261 11.98898
v 3.388736 7.643724 11.98898
v 4.767207 7.643724 11.98898
v 4.767207 4.356276 11.98898
v 3.388736 4.356276 11.98898
v 5.075379 3.528879 11.98898
v 5.491721 3.528879 11.98898
v 3.416342 3.528879 8.471969
v 3 3.528879 8.471969
v 3 8.471121 8.471969
v 3.416342 8.471121 8.471969
v 5.491721 8.471121 11.98898
v 5.075379 8.471121 11.98898
v 5.075379 3.867738 11.98898
v 5.075379 3.528879 11.98898
v 3 3.528879 8.471969
v 3 3.867738 8.471969
v 3 8.132261 8.471969
v 3 8.471121 8.471969
v 5.075379 8.471121 11.98898
v 5.07538 8.132261 11.98898
v 5.07538 8.132261 11.98898
v 5.075379 8.471121 11.98898
v 5.491721 8.471121 11.98898
v 5.491721 3.528879 11.98898
v 5.075379 3.867738 11.98898
v 5.075379 3.528879 11.98898
v 3.416342 3.528879 8.471969
v 5.491721 3.528879 11.98898
v 5.491721 8.471121 11.98898
v 3.416342 8.471121 8.471969
v 3.416342 3.528879 8.471969
v 3 3.867738 8.471969
v 3 3.528879 8.471969
v 3 8.132261 8.471969
v 3.416342 8.471121 8.471969
v 3 8.471121 8.471969
v 3.76162 5.709442 12.00911
v 3.911955 5.786041 12.00911
v 4.078602 5.273154 12.00911
v 3.642314 5.590136 12.00911
v 4.078602 5.812435 12.00911
v 3.565715 5.439801 12.00911
v 4.245249 5.786041 12.00911
v 3.539321 5.273154 12.00911
v 4.395585 5.709442 12.00911
v 3.565715 5.106506 12.00911
v 4.51489 5.590134 12.00911
v 3.642314 4.956172 12.00911
v 4.591489 5.439795 12.00911
v 3.76162 4.836866 12.00911
v 4.617883 5.273149 12.00911
v 3.911955 4.760262 12.00911
v 4.591489 5.106502 12.00911
v 4.078602 4.733868 12.00911
v 4.51489 4.956167 12.00911
v 4.245249 4.760262 12.00911
v 4.395585 4.836861 12.00911
v 3.761621 6.391194 12.00911
v 4.078602 6.827482 12.00911
v 3.911955 6.314595 12.00911
v 3.642314 6.5105 12.00911
v 4.078602 6.2882 12.00911
v 3.565715 6.660834 12.00911
v 4.245249 6.314595 12.00911
v 3.539321 6.827482 12.00911
v 4.395585 6.391194 12.00911
v 3.565715 6.994128 12.00911
v 4.51489 6.5105 12.00911
v 3.642314 7.144464 12.00911
v 4.591489 6.660835 12.00911
v 3.761621 7.263769 12.00911
v 4.617883 6.827482 12.00911
v 3.911956 7.340368 12.00911
v 4.591489 6.994128 12.00911
v 4.078602 7.366763 12.00911
v 4.51489 7.144464 12.00911
v 4.245249 7.340368 12.00911
v 4.395585 7.263769 12.00911
v 3 8.132261 11.98898
v 3.388736 7.643724 11.98898
v 3.388736 4.356276 11.98898
v 3 3.867738 11.98898
v 5.07538 8.132261 11.98898
v 4.767207 4.356276 11.98898
v 4.767207 7.643724 11.98898
v 5.075379 3.867738 11.98898
vt 0.2576392 0.9143614
vt 0.2576392 0.919911
vt 0.2576392 0.9143614
vt 0.2409327 0.9143614
vt 0.2409327 0.919911
vt 0.2409327 0.9143614
vt 0.1146093 0.894039
vt 0.1146093 0.930301
vt 0.1516695 0.930301
vt 0.1516695 0.894039
vt 0.8437894 0.5845275
vt 0.8437894 0.5905663
vt 0.8437894 0.555619
vt 0.8437894 0.5495802
vt 0.8425175 0.5495802
vt 0.8425175 0.555619
vt 0.8425175 0.5905663
vt 0.8425175 0.5845275
vt 0.5433408 0.5822554
vt 0.5433408 0.5822554
vt 0.5433408 0.56186
vt 0.5433408 0.56186
vt 0.5569376 0.56186
vt 0.5569376 0.56186
vt 0.5569376 0.5822554
vt 0.5569376 0.5822554
vt 0.9293537 0.5703114
vt 0.929193 0.5703114
vt 0.929193 0.5755773
vt 0.9322973 0.5755773
vt 0.9321365 0.5703114
vt 0.9322973 0.5703114
vt 0.9499683 0.5725873
vt 0.9499683 0.5929827
vt 0.9635651 0.5929827
vt 0.9635651 0.5725873
vt 0.6387247 0.581886
vt 0.6397259 0.5458946
vt 0.6387247 0.5458946
vt 0.6570553 0.5458946
vt 0.6580564 0.581886
vt 0.6580564 0.5458946
vt 0.04886633 0.9181385
vt 0.05020726 0.9207702
vt 0.0412288 0.9233099
vt 0.04677778 0.91605
vt 0.05066931 0.9236875
vt 0.04414606 0.914709
vt 0.05020726 0.9266047
vt 0.0412288 0.914247
vt 0.04886633 0.9292365
vt 0.03831154 0.914709
vt 0.04677778 0.931325
vt 0.03567985 0.91605
vt 0.04414606 0.9326659
vt 0.0335913 0.9181385
vt 0.0412288 0.9331279
vt 0.03225037 0.9207702
vt 0.03831154 0.9326659
vt 0.03178835 0.9236875
vt 0.03567985 0.931325
vt 0.03225037 0.9266047
vt 0.0335913 0.9292365
vt 0.04886633 0.9181385
vt 0.0412288 0.9233099
vt 0.05020726 0.9207702
vt 0.04677778 0.91605
vt 0.05066931 0.9236875
vt 0.04414606 0.914709
vt 0.05020726 0.9266047
vt 0.0412288 0.914247
vt 0.04886633 0.9292365
vt 0.03831154 0.914709
vt 0.04677778 0.931325
vt 0.03567985 0.91605
vt 0.04414606 0.9326659
vt 0.0335913 0.9181385
vt 0.0412288 0.9331279
vt 0.03225037 0.9207702
vt 0.03831154 0.9326659
vt 0.03178835 0.9236875
vt 0.03567985 0.931325
vt 0.03225037 0.9266047
vt 0.0335913 0.9292365
vt 0.02554592 0.8935069
vt 0.0277068 0.8960227
vt 0.05733401 0.8960227
vt 0.05949485 0.8935069
vt 0.02554592 0.9191403
vt 0.05733401 0.9166244
vt 0.0277068 0.9166244
vt 0.05949485 0.9191403
vn 0 -0.9566728 0.2911651
vn -0.2291485 -0.4635647 0.8559199
vn -0.4408256 -0.4581524 -0.771861
vn -0.4408257 0.4581519 -0.7718612
vn -0.2291484 0.4635644 0.85592
vn 0 0.9566728 0.2911651
vn 0 0 1
vn 0 0 1
vn 0 0 1
vn 0 0 1
vn -0.4920848 -0.8097959 0.3195043
vn 0.883953 -0.04919293 -0.4649809
vn 0.8331395 -0.09400465 -0.5450154
vn -0.7178351 -0.5826424 0.3811042
vn -0.7178354 0.5826421 0.3811046
vn 0.8331395 0.09400465 -0.5450154
vn 0.8839529 0.04919292 -0.464981
vn -0.492085 0.8097957 0.3195048
vn -0.2291485 -0.4635647 0.8559199
vn -0.4920848 -0.8097959 0.3195043
vn -0.7178351 -0.5826424 0.3811042
vn -0.4408256 -0.4581524 -0.771861
vn -0.4408257 0.4581519 -0.7718612
vn -0.7178354 0.5826421 0.3811046
vn -0.492085 0.8097957 0.3195048
vn -0.2291484 0.4635644 0.85592
vn -0.2291484 0.4635644 0.85592
vn -0.492085 0.8097957 0.3195048
vn 0.8839529 0.04919292 -0.464981
vn 0.883953 -0.04919293 -0.4649809
vn -0.2291485 -0.4635647 0.8559199
vn -0.4920848 -0.8097959 0.3195043
vn 0.8331395 -0.09400465 -0.5450154
vn 0.883953 -0.04919293 -0.4649809
vn 0.8839529 0.04919292 -0.464981
vn 0.8331395 0.09400465 -0.5450154
vn 0.8331395 -0.09400465 -0.5450154
vn -0.4408256 -0.4581524 -0.771861
vn -0.7178351 -0.5826424 0.3811042
vn -0.4408257 0.4581519 -0.7718612
vn 0.8331395 0.09400465 -0.5450154
vn -0.7178354 0.5826421 0.3811046
vn 1.086642E-06 0 1
vn -1.086639E-06 0 1
vn -2.173236E-07 0 1
vn 0 0 1
vn 0 0 1
vn 0 0 1
vn 1.086636E-06 0 1
vn 0 0 1
vn -3.259914E-06 0 1
vn 0 0 1
vn 0 0 1
vn -1.086645E-06 0 1
vn 2.173267E-06 0 1
vn 0 0 1
vn 0 0 1
vn -1.08666E-06 0 1
vn 0 0 1
vn 0 0 1
vn -1.086647E-06 0 1
vn 1.086632E-06 0 1
vn -2.173265E-06 0 1
vn 0 0 1
vn 0 0 1
vn -4.346582E-06 2.152791E-06 1
vn 0 1.330515E-06 1
vn -4.34658E-06 0 1
vn 0 3.483279E-06 1
vn 0 0 1
vn 0 0 1
vn 0 0 1
vn 0 -3.48327E-06 1
vn 0 0 1
vn 0 -1.330491E-06 1
vn 0 0 1
vn 0 0 1
vn 0 0 1
vn 0 -2.152787E-06 1
vn 0 0 1
vn 4.346587E-06 0 1
vn 0 0 1
vn 4.346552E-06 0 1
vn 0 0 1
vn 0 0.9566728 0.2911651
vn 0 0 1
vn 0 0 1
vn 0 -0.9566728 0.2911651
vn -0.2291484 0.4635644 0.85592
vn 0 0 1
vn 0 0 1
vn -0.2291485 -0.4635647 0.8559199
g RocketRight_0
f 3/3/3 2/2/2 1/1/1
f 6/6/6 5/5/5 4/4/4
f 9/9/9 8/8/8 7/7/7
f 10/10/10 9/9/9 7/7/7
f 13/13/13 12/12/12 11/11/11
f 14/14/14 13/13/13 11/11/11
f 17/17/17 16/16/16 15/15/15
f 18/18/18 17/17/17 15/15/15
f 21/21/21 20/20/20 19/19/19
f 22/22/22 21/21/21 19/19/19
f 25/25/25 24/24/24 23/23/23
f 26/26/26 25/25/25 23/23/23
f 29/29/29 28/28/28 27/27/27
f 29/29/29 27/27/27 30/30/30
f 27/27/27 31/31/31 30/30/30
f 31/31/31 32/32/32 30/30/30
f 35/35/35 34/34/34 33/33/33
f 36/36/36 35/35/35 33/33/33
f 39/39/39 38/38/38 37/37/37
f 38/38/38 40/40/40 37/37/37
f 40/40/40 41/41/41 37/37/37
f 40/40/40 42/42/42 41/41/41
f 45/45/45 44/44/44 43/43/43
f 45/45/45 43/43/43 46/46/46
f 45/45/45 47/47/47 44/44/44
f 45/45/45 46/46/46 48/48/48
f 45/45/45 49/49/49 47/47/47
f 45/45/45 48/48/48 50/50/50
f 45/45/45 51/51/51 49/49/49
f 45/45/45 50/50/50 52/52/52
f 45/45/45 53/53/53 51/51/51
f 45/45/45 52/52/52 54/54/54
f 45/45/45 55/55/55 53/53/53
f 45/45/45 54/54/54 56/56/56
f 45/45/45 57/57/57 55/55/55
f 45/45/45 56/56/56 58/58/58
f 45/45/45 59/59/59 57/57/57
f 45/45/45 58/58/58 60/60/60
f 45/45/45 61/61/61 59/59/59
f 45/45/45 60/60/60 62/62/62
f 45/45/45 63/63/63 61/61/61
f 45/45/45 62/62/62 63/63/63
f 66/66/66 65/65/65 64/64/64
f 64/64/64 65/65/65 67/67/67
f 68/68/68 65/65/65 66/66/66
f 67/67/67 65/65/65 69/69/69
f 70/70/70 65/65/65 68/68/68
f 69/69/69 65/65/65 71/71/71
f 72/72/72 65/65/65 70/70/70
f 71/71/71 65/65/65 73/73/73
f 74/74/74 65/65/65 72/72/72
f 73/73/73 65/65/65 75/75/75
f 76/76/76 65/65/65 74/74/74
f 75/75/75 65/65/65 77/77/77
f 78/78/78 65/65/65 76/76/76
f 77/77/77 65/65/65 79/79/79
f 80/80/80 65/65/65 78/78/78
f 79/79/79 65/65/65 81/81/81
f 82/82/82 65/65/65 80/80/80
f 81/81/81 65/65/65 83/83/83
f 84/84/84 65/65/65 82/82/82
f 83/83/83 65/65/65 84/84/84
f 87/87/87 86/86/86 85/85/85
f 88/88/88 87/87/87 85/85/85
f 85/85/85 86/86/86 89/89/89
f 90/90/90 87/87/87 88/88/88
f 86/86/86 91/91/91 89/89/89
f 92/92/92 90/90/90 88/88/88
f 89/89/89 91/91/91 92/92/92
f 91/91/91 90/90/90 92/92/92
