g Rock2
v 1.809976 2.010566 -7.73431
v 2.628771 -2.748146E-09 -7.894443
v 2.469915 -2.748146E-09 -6.338034
v 1.875915 2.265097 -6.784006
v 0.9422819 -2.748146E-09 -5.412474
v 1.468718 1.726216 -8.709145
v 1.769072 -2.748147E-09 -9.397047
v 0.7215466 2.252562 -6.086062
v -0.6030426 -2.748146E-09 -5.733811
v -0.3289685 2.027086 -6.286022
v -1.43637 -2.748147E-09 -6.729589
v 0.6636017 2.358415 -6.460554
v 1.655831 2.385577 -6.996537
v 1.528425 2.160213 -7.793288
v 0.2237433 1.495048 -8.719175
v 0.1800409 -2.748146E-09 -9.350073
v 0.4706982 2.06633 -7.475216
v 1.217013 1.936882 -8.46306
v -0.7681592 1.548364 -7.869445
v -1.19484 -2.748146E-09 -8.207086
v -0.7446851 1.773571 -7.006066
v 0.3213666 1.74971 -8.436687
v -0.4121557 1.992972 -7.190217
v -0.1850494 2.210073 -6.490202
v -0.5231134 1.82628 -7.768721
vt 0.7430702 0.2551146
vt 0.7340823 0.2256647
vt 0.6983448 0.2445177
vt 0.7181859 0.2669361
vt 0.6752985 0.3159275
vt 0.7686222 0.2555481
vt 0.7847795 0.2335667
vt 0.7018173 0.3115866
vt 0.7114986 0.3727488
vt 0.7223657 0.3441037
vt 0.7508169 0.3797738
vt 0.7202883 0.3039539
vt 0.727627 0.280634
vt 0.7429907 0.2761888
vt 0.7883642 0.3005998
vt 0.8172659 0.2982388
vt 0.7448695 0.3027733
vt 0.7580915 0.2751405
vt 0.7742153 0.3374898
vt 0.7976645 0.3586243
vt 0.7508017 0.3500185
vt 0.7721588 0.3011321
vt 0.7491585 0.3304063
vt 0.7319241 0.3287583
vt 0.7606086 0.3237151
vn 0.9013196 0.3827801 -0.2027373
vn 0.9146451 0.3396626 -0.2192117
vn 0.7761875 0.3398258 0.531085
vn 0.7516051 0.3961959 0.5273694
vn 0.2037677 0.3029413 0.9309701
vn 0.5216396 0.4470833 -0.7266421
vn 0.4631909 0.4168315 -0.7821162
vn 0.1957304 0.3670783 0.909364
vn -0.4799775 0.3091002 0.821023
vn -0.4613338 0.36257 0.8097618
vn -0.9127386 0.3360306 0.2323611
vn -0.1063709 0.9936562 -0.03650604
vn 0.04590653 0.9899426 -0.1338145
vn -0.004779818 0.9558459 -0.2938295
vn -0.344046 0.4066037 -0.8463485
vn -0.3176789 0.3689053 -0.8734924
vn -0.1619871 0.9530638 -0.2557923
vn -0.06376561 0.9066861 -0.4169584
vn -0.8073263 0.3863415 -0.4460545
vn -0.8008952 0.3432642 -0.4906491
vn -0.891261 0.3869691 0.2364506
vn -0.2308154 0.8693216 -0.4370402
vn -0.3044485 0.9295005 -0.2081823
vn -0.2848395 0.9579341 -0.03505276
vn -0.3443928 0.8736411 -0.3437222
g Rock2_0
f 3/3/3 2/2/2 1/1/1
f 4/4/4 3/3/3 1/1/1
f 5/5/5 3/3/3 4/4/4
f 1/1/1 2/2/2 6/6/6
f 2/2/2 7/7/7 6/6/6
f 8/8/8 5/5/5 4/4/4
f 9/9/9 5/5/5 8/8/8
f 10/10/10 9/9/9 8/8/8
f 11/11/11 9/9/9 10/10/10
f 8/8/8 4/4/4 12/12/12
f 10/10/10 8/8/8 12/12/12
f 4/4/4 1/1/1 13/13/13
f 4/4/4 13/13/13 12/12/12
f 1/1/1 14/14/14 13/13/13
f 1/1/1 6/6/6 14/14/14
f 6/6/6 7/7/7 15/15/15
f 7/7/7 16/16/16 15/15/15
f 13/13/13 14/14/14 17/17/17
f 12/12/12 13/13/13 17/17/17
f 6/6/6 18/18/18 14/14/14
f 6/6/6 15/15/15 18/18/18
f 14/14/14 18/18/18 17/17/17
f 15/15/15 16/16/16 19/19/19
f 16/16/16 20/20/20 19/19/19
f 20/20/20 11/11/11 21/21/21
f 21/21/21 11/11/11 10/10/10
f 19/19/19 20/20/20 21/21/21
f 15/15/15 22/22/22 18/18/18
f 18/18/18 22/22/22 17/17/17
f 15/15/15 19/19/19 22/22/22
f 12/12/12 17/17/17 23/23/23
f 17/17/17 22/22/22 23/23/23
f 21/21/21 10/10/10 23/23/23
f 24/24/24 10/10/10 12/12/12
f 10/10/10 24/24/24 23/23/23
f 24/24/24 12/12/12 23/23/23
f 19/19/19 21/21/21 25/25/25
f 19/19/19 25/25/25 22/22/22
f 21/21/21 23/23/23 25/25/25
f 22/22/22 25/25/25 23/23/23
