g Rock1
v 6.735324 2.09606 -7.304935
v 7.400038 1.594877E-08 -6.87997
v 3.596455 1.594877E-08 -5.842472
v 4.065269 2.750397 -6.612979
v 2.115776 1.594877E-08 -7.593711
v 6.740415 1.815364 -8.930154
v 7.122518 1.594877E-08 -9.422091
v 2.903738 2.735176 -7.940008
v 3.349468 2.863708 -8.054256
v 2.50339 1.594877E-08 -9.484778
v 3.203098 2.461391 -9.218767
v 5.857224 1.594877E-08 -11.05505
v 5.499573 1.880103 -10.49953
v 4.296123 2.896689 -6.904047
v 6.603617 2.351861 -7.475682
v 6.438388 2.124587 -8.912024
v 5.406783 2.217562 -10.1915
v 3.466844 2.683584 -9.068952
vt 0.7686222 0.2555481
vt 0.7895085 0.2250719
vt 0.6924562 0.2373681
vt 0.7181859 0.2669361
vt 0.6665788 0.31755
vt 0.7883642 0.3005998
vt 0.8259856 0.2976885
vt 0.7018173 0.3115866
vt 0.7202883 0.3039539
vt 0.7072257 0.3813512
vt 0.7223657 0.3441037
vt 0.8039763 0.3654917
vt 0.7742153 0.3374898
vt 0.727627 0.280634
vt 0.7580915 0.2751405
vt 0.7721588 0.3011321
vt 0.7606086 0.3237151
vt 0.7319241 0.3287583
vn 0.5702588 0.3261162 0.7539582
vn 0.6207477 0.3028862 0.7231406
vn -0.1855385 0.3080507 0.9331025
vn -0.1660928 0.3576642 0.9189611
vn -0.9019665 0.3117276 0.2988018
vn 0.8944822 0.3282007 -0.3036211
vn 0.8820874 0.3003815 -0.3628949
vn -0.8828737 0.371786 0.2868962
vn 0.08486446 0.9896639 -0.1155998
vn -0.6976789 0.2490618 -0.6717235
vn -0.6811936 0.2998819 -0.6678668
vn 0.0435528 0.3051212 -0.9513171
vn -0.04913113 0.3240018 -0.9447799
vn 0.1720353 0.9850882 0.002264892
vn 0.3053043 0.9515919 -0.03552696
vn 0.3020516 0.9326848 -0.1971395
vn 0.1791424 0.9291433 -0.3234201
vn 0.06738681 0.969453 -0.2358385
g Rock1_0
f 3/3/3 2/2/2 1/1/1
f 4/4/4 3/3/3 1/1/1
f 5/5/5 3/3/3 4/4/4
f 1/1/1 2/2/2 6/6/6
f 2/2/2 7/7/7 6/6/6
f 8/8/8 5/5/5 4/4/4
f 8/8/8 4/4/4 9/9/9
f 10/10/10 5/5/5 8/8/8
f 11/11/11 10/10/10 8/8/8
f 11/11/11 8/8/8 9/9/9
f 12/12/12 10/10/10 11/11/11
f 7/7/7 12/12/12 13/13/13
f 6/6/6 7/7/7 13/13/13
f 13/13/13 12/12/12 11/11/11
f 4/4/4 1/1/1 14/14/14
f 4/4/4 14/14/14 9/9/9
f 1/1/1 15/15/15 14/14/14
f 1/1/1 6/6/6 15/15/15
f 14/14/14 15/15/15 9/9/9
f 6/6/6 16/16/16 15/15/15
f 6/6/6 13/13/13 16/16/16
f 15/15/15 16/16/16 9/9/9
f 13/13/13 17/17/17 16/16/16
f 13/13/13 11/11/11 17/17/17
f 9/9/9 16/16/16 17/17/17
f 18/18/18 11/11/11 9/9/9
f 18/18/18 9/9/9 17/17/17
f 11/11/11 18/18/18 17/17/17
