g Rondels_Yellow
v 25.98141 5.395461 0.4089026
v 26.35544 5.395461 -0.3251611
v 28.48577 5.395461 1.22262
v 25.85253 5.395461 1.22262
v 26.93799 5.395461 -0.9077179
v 25.98141 5.395461 2.036335
v 27.67206 5.395461 -1.281743
v 26.35544 5.395461 2.7704
v 28.48577 5.395461 -1.410622
v 26.938 5.395461 3.352955
v 29.29949 5.395461 -1.281743
v 27.67206 5.395461 3.72698
v 30.03355 5.395461 -0.9077179
v 28.48577 5.395461 3.855862
v 30.61611 5.395461 -0.3251611
v 29.29949 5.395461 3.72698
v 30.99014 5.395461 0.4089026
v 30.03355 5.395461 3.352957
v 31.11901 5.395461 1.22262
v 30.61611 5.395461 2.7704
v 30.99014 5.395461 2.036337
v -25.98141 5.395461 0.4089026
v -28.48577 5.395461 1.22262
v -26.35544 5.395461 -0.3251611
v -25.85253 5.395461 1.22262
v -26.93799 5.395461 -0.9077179
v -25.98141 5.395461 2.036335
v -27.67206 5.395461 -1.281743
v -26.35544 5.395461 2.7704
v -28.48577 5.395461 -1.410622
v -26.938 5.395461 3.352955
v -29.29949 5.395461 -1.281743
v -27.67206 5.395461 3.72698
v -30.03355 5.395461 -0.9077179
v -28.48577 5.395461 3.855862
v -30.61611 5.395461 -0.3251611
v -29.29949 5.395461 3.72698
v -30.99014 5.395461 0.4089026
v -30.03355 5.395461 3.352957
v -31.11901 5.395461 1.22262
v -30.61611 5.395461 2.7704
v -30.99014 5.395461 2.036337
v 24.53632 5.395461 -0.06063598
v 25.12617 5.395461 -1.218278
v 26.35544 5.395461 -0.3251611
v 25.98141 5.395461 0.4089026
v 26.93799 5.395461 -0.9077179
v 24.33307 5.395461 1.22262
v 26.04488 5.395461 -2.136987
v 25.85253 5.395461 1.22262
v 27.67206 5.395461 -1.281743
v 24.53632 5.395461 2.505874
v 27.20252 5.395461 -2.726834
v 25.98141 5.395461 2.036335
v 28.48577 5.395461 -1.410622
v 25.12617 5.395461 3.663516
v 28.48577 5.395461 -2.930081
v 26.35544 5.395461 2.7704
v 29.29949 5.395461 -1.281743
v 26.04488 5.395461 4.582223
v 29.76903 5.395461 -2.726834
v 26.938 5.395461 3.352955
v 30.03355 5.395461 -0.9077179
v 27.20252 5.395461 5.172071
v 30.92667 5.395461 -2.136986
v 27.67206 5.395461 3.72698
v 30.61611 5.395461 -0.3251611
v 28.48577 5.395461 5.375319
v 31.84538 5.395461 -1.218277
v 28.48577 5.395461 3.855862
v 30.99014 5.395461 0.4089026
v 29.76903 5.395461 5.172071
v 32.43522 5.395461 -0.06063537
v 29.29949 5.395461 3.72698
v 31.11901 5.395461 1.22262
v 30.92667 5.395461 4.582224
v 32.63847 5.395461 1.22262
v 30.03355 5.395461 3.352957
v 30.99014 5.395461 2.036337
v 31.84538 5.395461 3.663516
v 32.43522 5.395461 2.505874
v 30.61611 5.395461 2.7704
v -24.53632 5.395461 -0.06063598
v -25.98141 5.395461 0.4089026
v -26.35544 5.395461 -0.3251611
v -25.12617 5.395461 -1.218278
v -24.33307 5.395461 1.22262
v -26.93799 5.395461 -0.9077179
v -25.85253 5.395461 1.22262
v -26.04488 5.395461 -2.136987
v -24.53632 5.395461 2.505874
v -27.67206 5.395461 -1.281743
v -25.98141 5.395461 2.036335
v -27.20252 5.395461 -2.726834
v -25.12617 5.395461 3.663516
v -28.48577 5.395461 -1.410622
v -26.35544 5.395461 2.7704
v -28.48577 5.395461 -2.930081
v -26.04488 5.395461 4.582223
v -29.29949 5.395461 -1.281743
v -26.938 5.395461 3.352955
v -29.76903 5.395461 -2.726834
v -27.20252 5.395461 5.172071
v -30.03355 5.395461 -0.9077179
v -27.67206 5.395461 3.72698
v -30.92667 5.395461 -2.136986
v -28.48577 5.395461 5.375319
v -30.61611 5.395461 -0.3251611
v -28.48577 5.395461 3.855862
v -31.84538 5.395461 -1.218277
v -29.76903 5.395461 5.172071
v -30.99014 5.395461 0.4089026
v -29.29949 5.395461 3.72698
v -32.43522 5.395461 -0.06063537
v -30.92667 5.395461 4.582224
v -31.11901 5.395461 1.22262
v -30.03355 5.395461 3.352957
v -32.63847 5.395461 1.22262
v -31.84538 5.395461 3.663516
v -30.99014 5.395461 2.036337
v -30.61611 5.395461 2.7704
v -32.43522 5.395461 2.505874
vt 0.06292909 0.9616659
vt 0.05924755 0.9688911
vt 0.03827912 0.9515831
vt 0.0641976 0.9536567
vt 0.05351359 0.9746251
vt 0.06292909 0.9456474
vt 0.04628831 0.9783067
vt 0.05924767 0.9384221
vt 0.03827912 0.9795752
vt 0.05351359 0.9326881
vt 0.0302698 0.9783067
vt 0.04628831 0.9290066
vt 0.02304453 0.9746251
vt 0.03827912 0.9277381
vt 0.01731056 0.9688911
vt 0.0302698 0.9290066
vt 0.01362902 0.9616659
vt 0.02304453 0.9326881
vt 0.01236051 0.9536567
vt 0.01731056 0.9384221
vt 0.01362902 0.9456474
vt 0.06292909 0.9616659
vt 0.03827912 0.9515831
vt 0.05924755 0.9688911
vt 0.0641976 0.9536567
vt 0.05351359 0.9746251
vt 0.06292909 0.9456474
vt 0.04628831 0.9783067
vt 0.05924767 0.9384221
vt 0.03827912 0.9795752
vt 0.05351359 0.9326881
vt 0.0302698 0.9783067
vt 0.04628831 0.9290066
vt 0.02304453 0.9746251
vt 0.03827912 0.9277381
vt 0.01731056 0.9688911
vt 0.0302698 0.9290066
vt 0.01362902 0.9616659
vt 0.02304453 0.9326881
vt 0.01236051 0.9536567
vt 0.01731056 0.9384221
vt 0.01362902 0.9456474
vt 0.03932595 0.8020933
vt 0.03815645 0.8043883
vt 0.03571939 0.8026178
vt 0.036461 0.8011624
vt 0.0345645 0.8037726
vt 0.0397287 0.7995492
vt 0.03633511 0.8062099
vt 0.03671646 0.7995492
vt 0.03310925 0.8045142
vt 0.03932595 0.7970052
vt 0.03403997 0.8073792
vt 0.036461 0.7979359
vt 0.03149599 0.8047696
vt 0.03815645 0.7947101
vt 0.03149599 0.8077821
vt 0.03571939 0.7964808
vt 0.02988273 0.8045142
vt 0.03633511 0.7928886
vt 0.02895194 0.8073792
vt 0.0345645 0.7953258
vt 0.02842748 0.8037726
vt 0.03403997 0.7917193
vt 0.02665681 0.8062099
vt 0.03310925 0.7945842
vt 0.02727258 0.8026178
vt 0.03149599 0.7913163
vt 0.02483547 0.8043883
vt 0.03149599 0.7943288
vt 0.02653092 0.8011624
vt 0.02895194 0.7917193
vt 0.02366596 0.8020933
vt 0.02988273 0.7945842
vt 0.02627552 0.7995492
vt 0.02665681 0.7928886
vt 0.02326304 0.7995492
vt 0.02842748 0.7953258
vt 0.02653092 0.7979359
vt 0.02483547 0.7947101
vt 0.02366596 0.7970052
vt 0.02727258 0.7964808
vt 0.03932595 0.8020933
vt 0.036461 0.8011624
vt 0.03571939 0.8026178
vt 0.03815645 0.8043883
vt 0.0397287 0.7995492
vt 0.0345645 0.8037726
vt 0.03671646 0.7995492
vt 0.03633511 0.8062099
vt 0.03932595 0.7970052
vt 0.03310925 0.8045142
vt 0.036461 0.7979359
vt 0.03403997 0.8073792
vt 0.03815645 0.7947101
vt 0.03149599 0.8047696
vt 0.03571939 0.7964808
vt 0.03149599 0.8077821
vt 0.03633511 0.7928886
vt 0.02988273 0.8045142
vt 0.0345645 0.7953258
vt 0.02895194 0.8073792
vt 0.03403997 0.7917193
vt 0.02842748 0.8037726
vt 0.03310925 0.7945842
vt 0.02665681 0.8062099
vt 0.03149599 0.7913163
vt 0.02727258 0.8026178
vt 0.03149599 0.7943288
vt 0.02483547 0.8043883
vt 0.02895194 0.7917193
vt 0.02653092 0.8011624
vt 0.02988273 0.7945842
vt 0.02366596 0.8020933
vt 0.02665681 0.7928886
vt 0.02627552 0.7995492
vt 0.02842748 0.7953258
vt 0.02326304 0.7995492
vt 0.02483547 0.7947101
vt 0.02653092 0.7979359
vt 0.02727258 0.7964808
vt 0.02366596 0.7970052
vn 0 1 0
vn 0 1 0
vn 0 1 0
vn 0 1 0
vn 0 1 0
vn 0 1 0
vn 0 1 0
vn 0 1 0
vn 0 1 0
vn 0 1 0
vn 0 1 0
vn 0 1 0
vn 0 1 0
vn 0 1 0
vn 0 1 0
vn 0 1 0
vn 0 1 0
vn 0 1 0
vn 0 1 0
vn 0 1 0
vn 0 1 0
vn 0 1 0
vn 0 1 0
vn 0 1 0
vn 0 1 0
vn 0 1 0
vn 0 1 0
vn 0 1 0
vn 0 1 0
vn 0 1 0
vn 0 1 0
vn 0 1 0
vn 0 1 0
vn 0 1 0
vn 0 1 0
vn 0 1 0
vn 0 1 0
vn 0 1 0
vn 0 1 0
vn 0 1 0
vn 0 1 0
vn 0 1 0
vn 0 1 0
vn 0 1 0
vn 0 1 0
vn 0 1 0
vn 0 1 0
vn 0 1 0
vn 0 1 0
vn 0 1 0
vn 0 1 0
vn 0 1 0
vn 0 1 0
vn 0 1 0
vn 0 1 0
vn 0 1 0
vn 0 1 0
vn 0 1 0
vn 0 1 0
vn 0 1 0
vn 0 1 0
vn 0 1 0
vn 0 1 0
vn 0 1 0
vn 0 1 0
vn 0 1 0
vn 0 1 0
vn 0 1 0
vn 0 1 0
vn 0 1 0
vn 0 1 0
vn 0 1 0
vn 0 1 0
vn 0 1 0
vn 0 1 0
vn 0 1 0
vn 0 1 0
vn 0 1 0
vn 0 1 0
vn 0 1 0
vn 0 1 0
vn 0 1 0
vn 0 1 0
vn 0 1 0
vn 0 1 0
vn 0 1 0
vn 0 1 0
vn 0 1 0
vn 0 1 0
vn 0 1 0
vn 0 1 0
vn 0 1 0
vn 0 1 0
vn 0 1 0
vn 0 1 0
vn 0 1 0
vn 0 1 0
vn 0 1 0
vn 0 1 0
vn 0 1 0
vn 0 1 0
vn 0 1 0
vn 0 1 0
vn 0 1 0
vn 0 1 0
vn 0 1 0
vn 0 1 0
vn 0 1 0
vn 0 1 0
vn 0 1 0
vn 0 1 0
vn 0 1 0
vn 0 1 0
vn 0 1 0
vn 0 1 0
vn 0 1 0
vn 0 1 0
vn 0 1 0
vn 0 1 0
vn 0 1 0
vn 0 1 0
vn 0 1 0
g Rondels_Yellow_0
f 3/3/3 2/2/2 1/1/1
f 3/3/3 1/1/1 4/4/4
f 3/3/3 5/5/5 2/2/2
f 3/3/3 4/4/4 6/6/6
f 3/3/3 7/7/7 5/5/5
f 3/3/3 6/6/6 8/8/8
f 3/3/3 9/9/9 7/7/7
f 3/3/3 8/8/8 10/10/10
f 3/3/3 11/11/11 9/9/9
f 3/3/3 10/10/10 12/12/12
f 3/3/3 13/13/13 11/11/11
f 3/3/3 12/12/12 14/14/14
f 3/3/3 15/15/15 13/13/13
f 3/3/3 14/14/14 16/16/16
f 3/3/3 17/17/17 15/15/15
f 3/3/3 16/16/16 18/18/18
f 3/3/3 19/19/19 17/17/17
f 3/3/3 18/18/18 20/20/20
f 3/3/3 21/21/21 19/19/19
f 3/3/3 20/20/20 21/21/21
f 24/24/24 23/23/23 22/22/22
f 22/22/22 23/23/23 25/25/25
f 26/26/26 23/23/23 24/24/24
f 25/25/25 23/23/23 27/27/27
f 28/28/28 23/23/23 26/26/26
f 27/27/27 23/23/23 29/29/29
f 30/30/30 23/23/23 28/28/28
f 29/29/29 23/23/23 31/31/31
f 32/32/32 23/23/23 30/30/30
f 31/31/31 23/23/23 33/33/33
f 34/34/34 23/23/23 32/32/32
f 33/33/33 23/23/23 35/35/35
f 36/36/36 23/23/23 34/34/34
f 35/35/35 23/23/23 37/37/37
f 38/38/38 23/23/23 36/36/36
f 37/37/37 23/23/23 39/39/39
f 40/40/40 23/23/23 38/38/38
f 39/39/39 23/23/23 41/41/41
f 42/42/42 23/23/23 40/40/40
f 41/41/41 23/23/23 42/42/42
f 45/45/45 44/44/44 43/43/43
f 46/46/46 45/45/45 43/43/43
f 45/45/45 47/47/47 44/44/44
f 46/46/46 43/43/43 48/48/48
f 47/47/47 49/49/49 44/44/44
f 50/50/50 46/46/46 48/48/48
f 47/47/47 51/51/51 49/49/49
f 50/50/50 48/48/48 52/52/52
f 51/51/51 53/53/53 49/49/49
f 54/54/54 50/50/50 52/52/52
f 51/51/51 55/55/55 53/53/53
f 54/54/54 52/52/52 56/56/56
f 55/55/55 57/57/57 53/53/53
f 58/58/58 54/54/54 56/56/56
f 55/55/55 59/59/59 57/57/57
f 58/58/58 56/56/56 60/60/60
f 59/59/59 61/61/61 57/57/57
f 62/62/62 58/58/58 60/60/60
f 59/59/59 63/63/63 61/61/61
f 62/62/62 60/60/60 64/64/64
f 63/63/63 65/65/65 61/61/61
f 66/66/66 62/62/62 64/64/64
f 63/63/63 67/67/67 65/65/65
f 66/66/66 64/64/64 68/68/68
f 67/67/67 69/69/69 65/65/65
f 70/70/70 66/66/66 68/68/68
f 67/67/67 71/71/71 69/69/69
f 70/70/70 68/68/68 72/72/72
f 71/71/71 73/73/73 69/69/69
f 74/74/74 70/70/70 72/72/72
f 71/71/71 75/75/75 73/73/73
f 74/74/74 72/72/72 76/76/76
f 75/75/75 77/77/77 73/73/73
f 78/78/78 74/74/74 76/76/76
f 75/75/75 79/79/79 77/77/77
f 78/78/78 76/76/76 80/80/80
f 79/79/79 81/81/81 77/77/77
f 82/82/82 78/78/78 80/80/80
f 82/82/82 80/80/80 81/81/81
f 79/79/79 82/82/82 81/81/81
f 85/85/85 84/84/84 83/83/83
f 86/86/86 85/85/85 83/83/83
f 83/83/83 84/84/84 87/87/87
f 88/88/88 85/85/85 86/86/86
f 84/84/84 89/89/89 87/87/87
f 90/90/90 88/88/88 86/86/86
f 87/87/87 89/89/89 91/91/91
f 92/92/92 88/88/88 90/90/90
f 89/89/89 93/93/93 91/91/91
f 94/94/94 92/92/92 90/90/90
f 91/91/91 93/93/93 95/95/95
f 96/96/96 92/92/92 94/94/94
f 93/93/93 97/97/97 95/95/95
f 98/98/98 96/96/96 94/94/94
f 95/95/95 97/97/97 99/99/99
f 100/100/100 96/96/96 98/98/98
f 97/97/97 101/101/101 99/99/99
f 102/102/102 100/100/100 98/98/98
f 99/99/99 101/101/101 103/103/103
f 104/104/104 100/100/100 102/102/102
f 101/101/101 105/105/105 103/103/103
f 106/106/106 104/104/104 102/102/102
f 103/103/103 105/105/105 107/107/107
f 108/108/108 104/104/104 106/106/106
f 105/105/105 109/109/109 107/107/107
f 110/110/110 108/108/108 106/106/106
f 107/107/107 109/109/109 111/111/111
f 112/112/112 108/108/108 110/110/110
f 109/109/109 113/113/113 111/111/111
f 114/114/114 112/112/112 110/110/110
f 111/111/111 113/113/113 115/115/115
f 116/116/116 112/112/112 114/114/114
f 113/113/113 117/117/117 115/115/115
f 118/118/118 116/116/116 114/114/114
f 115/115/115 117/117/117 119/119/119
f 120/120/120 116/116/116 118/118/118
f 117/117/117 121/121/121 119/119/119
f 122/122/122 120/120/120 118/118/118
f 119/119/119 121/121/121 122/122/122
f 121/121/121 120/120/120 122/122/122
