g Rope
v 5.302059 21.76901 -9.938094
v 9.883585 22.26162 -3.185035
v 9.986518 22.59829 -3.279125
v 5.404995 22.10569 -10.03219
v 5.30206 22.44237 -9.938094
v 9.883585 22.93497 -3.185035
v 5.053557 22.58182 -9.710941
v 9.635083 23.07443 -2.957882
v 4.805055 22.44237 -9.483788
v 9.38658 22.93497 -2.730729
v 4.702123 22.10569 -9.389698
v 9.283647 22.59829 -2.636638
v 9.38658 22.26162 -2.730729
v 4.805055 21.76901 -9.483788
v 9.635083 22.12216 -2.957882
v 5.053557 21.62955 -9.710941
v 5.053557 21.62955 -9.710941
v 9.635083 22.12216 -2.957882
v 9.883585 22.26162 -3.185035
v 5.302059 21.76901 -9.938094
v 5.302059 21.76901 -9.938094
v 3.020975 21.76154 -12.15643
v 2.882461 21.62208 -11.84956
v 5.053557 21.62955 -9.710941
v 3.020975 21.76154 -12.15643
v -0.0138871 22.09822 -13.08311
v -0.0138871 21.76155 -12.94372
v 3.078349 22.09822 -12.28353
v 5.302059 21.76901 -9.938094
v 5.404995 22.10569 -10.03219
v 5.30206 22.44237 -9.938094
v 3.020975 22.4349 -12.15643
v -0.0138871 22.4349 -12.94372
v -0.0138871 22.57436 -12.60718
v 2.882461 22.57436 -11.84956
v 5.053557 22.58182 -9.710941
v -0.0138871 22.4349 -12.27065
v 2.74395 22.4349 -11.5427
v 4.805055 22.44237 -9.483788
v 2.686576 22.09822 -11.41559
v -0.0138871 22.09822 -12.13125
v 4.702123 22.10569 -9.389698
v -0.0138871 21.76154 -12.27065
v 2.743949 21.76154 -11.5427
v 4.805055 21.76901 -9.483788
v 5.053557 21.62955 -9.710941
v 2.882461 21.62208 -11.84956
v -0.0138871 21.62208 -12.60718
v -0.0138871 21.62208 -12.60718
v 2.882461 21.62208 -11.84956
v 3.020975 21.76154 -12.15643
v -0.0138871 21.76155 -12.94372
v -9.831685 22.59829 -3.188457
v -9.728751 22.26162 -3.094367
v -5.329834 21.76901 -9.938094
v -5.43277 22.10569 -10.03219
v -5.329834 22.44237 -9.938094
v -9.728751 22.93497 -3.094367
v -5.081332 22.58182 -9.710941
v -9.480249 23.07443 -2.867214
v -4.832829 22.44237 -9.483788
v -9.231747 22.93497 -2.64006
v -4.729897 22.10569 -9.389698
v -9.128814 22.59829 -2.54597
v -9.231747 22.26162 -2.64006
v -4.832829 21.76901 -9.483788
v -9.480249 22.12216 -2.867214
v -5.081332 21.62955 -9.710941
v -5.081332 21.62955 -9.710941
v -5.329834 21.76901 -9.938094
v -9.728751 22.26162 -3.094367
v -9.480249 22.12216 -2.867214
v -5.329834 21.76901 -9.938094
v -5.081332 21.62955 -9.710941
v -2.910235 21.62208 -11.84956
v -3.048749 21.76154 -12.15643
v -0.0138871 21.76155 -12.94372
v -0.0138871 22.09822 -13.08311
v -3.048749 21.76154 -12.15643
v -3.106124 22.09822 -12.28353
v -5.329834 21.76901 -9.938094
v -5.43277 22.10569 -10.03219
v -5.329834 22.44237 -9.938094
v -3.048749 22.4349 -12.15643
v -0.0138871 22.4349 -12.94372
v -0.0138871 22.57436 -12.60718
v -2.910235 22.57436 -11.84956
v -5.081332 22.58182 -9.710941
v -0.0138871 22.4349 -12.27065
v -2.771725 22.4349 -11.5427
v -4.832829 22.44237 -9.483788
v -2.71435 22.09822 -11.41559
v -0.0138871 22.09822 -12.13125
v -4.729897 22.10569 -9.389698
v -0.0138871 21.76154 -12.27065
v -2.771724 21.76154 -11.5427
v -4.832829 21.76901 -9.483788
v -5.081332 21.62955 -9.710941
v -2.910235 21.62208 -11.84956
v -0.0138871 21.62208 -12.60718
v -3.048749 21.76154 -12.15643
v -2.910235 21.62208 -11.84956
v -0.0138871 21.62208 -12.60718
v -0.0138871 21.76155 -12.94372
vt 0.4572913 0.3251023
vt 0.4572913 0.5766445
vt 0.4732029 0.5766445
vt 0.4732029 0.3251023
vt 0.4893114 0.3251023
vt 0.4893114 0.5766445
vt 0.5054595 0.3251023
vt 0.5054595 0.5766445
vt 0.5215294 0.3251023
vt 0.5215294 0.5766445
vt 0.5373465 0.3251023
vt 0.5373465 0.5766445
vt 0.5528225 0.5766445
vt 0.5528225 0.3251023
vt 0.5681702 0.5766445
vt 0.5681702 0.3251023
vt 0.4764774 0.3624337
vt 0.4764774 0.4100816
vt 0.4889344 0.4099212
vt 0.4889345 0.3622733
vt 0.4714079 0.3630502
vt 0.4714079 0.4104829
vt 0.4903546 0.4087788
vt 0.4913312 0.36335
vt 0.5622579 0.460283
vt 0.547217 0.5735985
vt 0.5622581 0.5735985
vt 0.547217 0.4602831
vt 0.5622579 0.3445846
vt 0.547217 0.3445846
vt 0.5322929 0.3445846
vt 0.5322929 0.460283
vt 0.5322928 0.5735985
vt 0.5177844 0.5735985
vt 0.5177844 0.460283
vt 0.5177844 0.3445846
vt 0.5034831 0.5735985
vt 0.5034831 0.460283
vt 0.5034831 0.3445846
vt 0.4890352 0.460283
vt 0.4890352 0.5735985
vt 0.4890352 0.3445846
vt 0.4743971 0.5735985
vt 0.4743971 0.460283
vt 0.4743971 0.3445846
vt 0.4596338 0.3445846
vt 0.4596338 0.460283
vt 0.4596338 0.5735985
vt 0.4910605 0.4092044
vt 0.4913706 0.3639128
vt 0.4713688 0.3630502
vt 0.4713688 0.4104829
vt 0.4732029 0.5766445
vt 0.4572913 0.5766445
vt 0.4572913 0.3251023
vt 0.4732029 0.3251023
vt 0.4893114 0.3251023
vt 0.4893114 0.5766445
vt 0.5054595 0.3251023
vt 0.5054595 0.5766445
vt 0.5215294 0.3251023
vt 0.5215294 0.5766445
vt 0.5373465 0.3251023
vt 0.5373465 0.5766445
vt 0.5528225 0.5766445
vt 0.5528225 0.3251023
vt 0.5681702 0.5766445
vt 0.5681702 0.3251023
vt 0.4764774 0.3624337
vt 0.4889345 0.3622733
vt 0.4889344 0.4099212
vt 0.4764774 0.4100816
vt 0.4913311 0.3630502
vt 0.4714079 0.36335
vt 0.4723845 0.4087788
vt 0.4913311 0.4104829
vt 0.4780266 0.3226667
vt 0.4932027 0.3226667
vt 0.4780266 0.4472615
vt 0.4932028 0.4472616
vt 0.4780266 0.5734518
vt 0.4932028 0.5734518
vt 0.5084201 0.5734518
vt 0.5084201 0.4472616
vt 0.5084201 0.3226667
vt 0.5233687 0.3226667
vt 0.5233688 0.4472615
vt 0.5233688 0.5734518
vt 0.5383148 0.3226667
vt 0.5383147 0.4472615
vt 0.5383147 0.5734518
vt 0.5535349 0.4472615
vt 0.5535349 0.3226667
vt 0.5535349 0.5734518
vt 0.5687054 0.3226667
vt 0.5687054 0.4472615
vt 0.5687054 0.5734518
vt 0.5756983 0.5734518
vt 0.5756983 0.4472615
vt 0.5756983 0.3226667
vt 0.4913706 0.3630503
vt 0.4713687 0.3639129
vt 0.4716789 0.4092044
vt 0.4913705 0.4104829
vn 0.5926127 -0.6899972 -0.4155887
vn 0.606177 -0.7094403 -0.3595049
vn 0.826968 0.01406292 -0.5620732
vn 0.7936636 -0.01064989 -0.6082636
vn 0.562381 0.682017 -0.4675259
vn 0.539522 0.7301446 -0.4192909
vn -0.005577601 0.9986118 -0.05237709
vn -0.07076255 0.9971865 -0.02473231
vn -0.581165 0.7105963 0.3966109
vn -0.6220581 0.6890849 0.3717602
vn -0.799086 -0.01033441 0.6011279
vn -0.827944 0.01508094 0.5606079
vn -0.582795 -0.6799515 0.4449897
vn -0.5295412 -0.7243387 0.4414968
vn 0.01219301 -0.9978422 0.0645155
vn 0.05620898 -0.9983233 0.01382643
vn 0.05620898 -0.9983233 0.01382643
vn 0.01219301 -0.9978422 0.0645155
vn 0.606177 -0.7094403 -0.3595049
vn 0.5926127 -0.6899972 -0.4155887
vn 0.5926127 -0.6899972 -0.4155887
vn 0.3653092 -0.671306 -0.6449013
vn 0.04118704 -0.9973707 -0.05962535
vn 0.05620898 -0.9983233 0.01382643
vn 0.3653092 -0.671306 -0.6449013
vn -2.286967E-07 -1.283911E-07 -1
vn -1.729368E-07 -0.6725927 -0.7400128
vn 0.4863285 -0.0003050135 -0.8737759
vn 0.5926127 -0.6899972 -0.4155887
vn 0.7936636 -0.01064989 -0.6082636
vn 0.562381 0.682017 -0.4675259
vn 0.3642724 0.6709115 -0.6458974
vn -1.331813E-07 0.6725931 -0.7400125
vn 0 0.997474 -0.07103097
vn 0.03916218 0.9973665 -0.06104553
vn -0.005577601 0.9986118 -0.05237709
vn 0 0.7444542 0.6676736
vn -0.335628 0.7437008 0.5781548
vn -0.581165 0.7105963 0.3966109
vn -0.5067428 -0.0003084759 0.8620973
vn -2.706475E-07 -3.765184E-06 1
vn -0.799086 -0.01033441 0.6011279
vn -1.41976E-07 -0.7444586 0.6676686
vn -0.3336825 -0.7439047 0.579018
vn -0.5295412 -0.7243387 0.4414968
vn 0.05620898 -0.9983233 0.01382643
vn 0.04118704 -0.9973707 -0.05962535
vn 0 -0.9974743 -0.07102894
vn 0 -0.9974743 -0.07102894
vn 0.04118704 -0.9973707 -0.05962535
vn 0.3653092 -0.671306 -0.6449013
vn -1.729368E-07 -0.6725927 -0.7400128
vn -0.8406727 0.01397842 -0.5413631
vn -0.6142856 -0.7102892 -0.3437186
vn -0.6022391 -0.6867973 -0.4069613
vn -0.8040906 -0.0106957 -0.5944106
vn -0.5727745 0.6792667 -0.4588313
vn -0.5477931 0.7321605 -0.4048009
vn 0.00160654 0.9985151 -0.05445165
vn 0.07684223 0.9967925 -0.0223573
vn 0.5875748 0.7116706 0.3850724
vn 0.6350945 0.6839477 0.3589854
vn 0.8101388 -0.01028816 0.5861478
vn 0.8416123 0.01516992 0.539869
vn 0.5970598 -0.6756808 0.4324063
vn 0.5358174 -0.7260646 0.4309638
vn -0.006830878 -0.9977011 0.06742236
vn -0.06057077 -0.9980913 0.01204257
vn -0.06057077 -0.9980913 0.01204257
vn -0.6022391 -0.6867973 -0.4069613
vn -0.6142856 -0.7102892 -0.3437186
vn -0.006830878 -0.9977011 0.06742236
vn -0.6022391 -0.6867973 -0.4069613
vn -0.06057077 -0.9980913 0.01204257
vn -0.0411871 -0.9973708 -0.05962478
vn -0.3653094 -0.6713063 -0.6449008
vn -1.729368E-07 -0.6725927 -0.7400128
vn -2.286967E-07 -1.283911E-07 -1
vn -0.3653094 -0.6713063 -0.6449008
vn -0.4863289 -0.000305189 -0.8737758
vn -0.6022391 -0.6867973 -0.4069613
vn -0.8040906 -0.0106957 -0.5944106
vn -0.5727745 0.6792667 -0.4588313
vn -0.3642728 0.6709115 -0.6458972
vn -1.331813E-07 0.6725931 -0.7400125
vn 0 0.997474 -0.07103097
vn -0.03916224 0.9973665 -0.06104369
vn 0.00160654 0.9985151 -0.05445165
vn 0 0.7444542 0.6676736
vn 0.3356275 0.7437001 0.5781559
vn 0.5875748 0.7116706 0.3850724
vn 0.5067422 -0.0003081451 0.8620976
vn -2.706475E-07 -3.765184E-06 1
vn 0.8101388 -0.01028816 0.5861478
vn -1.41976E-07 -0.7444586 0.6676686
vn 0.3336821 -0.7439047 0.5790182
vn 0.5358174 -0.7260646 0.4309638
vn -0.06057077 -0.9980913 0.01204257
vn -0.0411871 -0.9973708 -0.05962478
vn 0 -0.9974743 -0.07102894
vn -0.3653094 -0.6713063 -0.6449008
vn -0.0411871 -0.9973708 -0.05962478
vn 0 -0.9974743 -0.07102894
vn -1.729368E-07 -0.6725927 -0.7400128
g Rope_0
f 3/3/3 2/2/2 1/1/1
f 1/1/1 4/4/4 3/3/3
f 3/3/3 4/4/4 5/5/5
f 5/5/5 6/6/6 3/3/3
f 5/5/5 7/7/7 6/6/6
f 7/7/7 8/8/8 6/6/6
f 7/7/7 9/9/9 8/8/8
f 9/9/9 10/10/10 8/8/8
f 10/10/10 9/9/9 11/11/11
f 11/11/11 12/12/12 10/10/10
f 13/13/13 12/12/12 11/11/11
f 11/11/11 14/14/14 13/13/13
f 15/15/15 13/13/13 14/14/14
f 14/14/14 16/16/16 15/15/15
f 19/19/19 18/18/18 17/17/17
f 17/17/17 20/20/20 19/19/19
f 23/23/23 22/22/22 21/21/21
f 21/21/21 24/24/24 23/23/23
f 27/27/27 26/26/26 25/25/25
f 26/26/26 28/28/28 25/25/25
f 25/25/25 28/28/28 29/29/29
f 28/28/28 30/30/30 29/29/29
f 31/31/31 30/30/30 28/28/28
f 32/32/32 28/28/28 26/26/26
f 28/28/28 32/32/32 31/31/31
f 26/26/26 33/33/33 32/32/32
f 32/32/32 33/33/33 34/34/34
f 31/31/31 32/32/32 35/35/35
f 34/34/34 35/35/35 32/32/32
f 35/35/35 36/36/36 31/31/31
f 35/35/35 34/34/34 37/37/37
f 36/36/36 35/35/35 38/38/38
f 37/37/37 38/38/38 35/35/35
f 38/38/38 39/39/39 36/36/36
f 40/40/40 38/38/38 37/37/37
f 38/38/38 40/40/40 39/39/39
f 37/37/37 41/41/41 40/40/40
f 42/42/42 39/39/39 40/40/40
f 41/41/41 43/43/43 40/40/40
f 40/40/40 44/44/44 42/42/42
f 43/43/43 44/44/44 40/40/40
f 44/44/44 45/45/45 42/42/42
f 46/46/46 45/45/45 44/44/44
f 44/44/44 47/47/47 46/46/46
f 47/47/47 44/44/44 43/43/43
f 43/43/43 48/48/48 47/47/47
f 51/51/51 50/50/50 49/49/49
f 49/49/49 52/52/52 51/51/51
f 55/55/55 54/54/54 53/53/53
f 53/53/53 56/56/56 55/55/55
f 53/53/53 57/57/57 56/56/56
f 57/57/57 53/53/53 58/58/58
f 59/59/59 57/57/57 58/58/58
f 58/58/58 60/60/60 59/59/59
f 61/61/61 59/59/59 60/60/60
f 60/60/60 62/62/62 61/61/61
f 63/63/63 61/61/61 62/62/62
f 63/63/63 62/62/62 64/64/64
f 63/63/63 64/64/64 65/65/65
f 65/65/65 66/66/66 63/63/63
f 66/66/66 65/65/65 67/67/67
f 67/67/67 68/68/68 66/66/66
f 71/71/71 70/70/70 69/69/69
f 69/69/69 72/72/72 71/71/71
f 75/75/75 74/74/74 73/73/73
f 73/73/73 76/76/76 75/75/75
f 79/79/79 78/78/78 77/77/77
f 78/78/78 79/79/79 80/80/80
f 81/81/81 80/80/80 79/79/79
f 80/80/80 81/81/81 82/82/82
f 80/80/80 82/82/82 83/83/83
f 78/78/78 80/80/80 84/84/84
f 83/83/83 84/84/84 80/80/80
f 84/84/84 85/85/85 78/78/78
f 84/84/84 86/86/86 85/85/85
f 83/83/83 87/87/87 84/84/84
f 84/84/84 87/87/87 86/86/86
f 87/87/87 83/83/83 88/88/88
f 87/87/87 89/89/89 86/86/86
f 88/88/88 90/90/90 87/87/87
f 87/87/87 90/90/90 89/89/89
f 90/90/90 88/88/88 91/91/91
f 89/89/89 90/90/90 92/92/92
f 91/91/91 92/92/92 90/90/90
f 92/92/92 93/93/93 89/89/89
f 92/92/92 91/91/91 94/94/94
f 92/92/92 95/95/95 93/93/93
f 94/94/94 96/96/96 92/92/92
f 95/95/95 92/92/92 96/96/96
f 96/96/96 94/94/94 97/97/97
f 96/96/96 97/97/97 98/98/98
f 98/98/98 99/99/99 96/96/96
f 95/95/95 96/96/96 99/99/99
f 99/99/99 100/100/100 95/95/95
f 103/103/103 102/102/102 101/101/101
f 101/101/101 104/104/104 103/103/103
