g RotorRear
v 2.855618 -2.074728 3.058385
v 1.090749 -3.356981 -3.058387
v 1.090749 -3.356981 3.058385
v 2.855618 -2.074728 -3.058387
v 3.529737 -2.259917E-07 3.058385
v 3.529737 -2.259917E-07 -3.058387
v 2.855617 2.074728 3.058385
v 2.855617 2.074728 -3.058387
v 1.090749 3.35698 3.058385
v 1.090749 3.35698 -3.058387
v -1.090749 3.35698 3.058385
v -1.090749 3.35698 -3.058387
v -2.855618 2.074728 3.058385
v -2.855618 2.074728 -3.058387
v -3.529738 7.918407E-08 3.058385
v -1.525879E-07 -2.259917E-07 -3.058387
v 1.090749 3.35698 -3.058387
v 2.855617 2.074728 -3.058387
v 3.529737 -2.259917E-07 -3.058387
v 2.855618 -2.074728 -3.058387
v 1.090749 -3.356981 -3.058387
v -1.09075 -3.356981 -3.058387
v -2.855618 -2.074728 -3.058387
v -3.529738 7.918407E-08 -3.058387
v -3.529738 7.918407E-08 -3.058387
v -2.855618 -2.074728 3.058385
v -2.855618 -2.074728 -3.058387
v -1.09075 -3.356981 3.058385
v -1.09075 -3.356981 -3.058387
v 1.090749 -3.356981 3.058385
v 1.090749 -3.356981 -3.058387
v 10.58581 -0.950475 -1.145189
v 5.964942 2.294291 -1.145189
v 10.58581 0.9504746 -1.145189
v 5.964942 -2.294291 -1.145189
v 1.398885 -0.950475 -1.145189
v 1.398885 0.9504746 -1.145189
v -10.58581 -0.950475 -1.145189
v -10.58581 0.9504746 -1.145189
v -5.964942 2.294291 -1.145189
v -5.964942 -2.294291 -1.145189
v -1.398885 -0.950475 -1.145189
v -1.398885 0.9504746 -1.145189
v 10.58581 -0.950475 -2.207386
v 5.964942 -2.294291 -1.145189
v 10.58581 -0.950475 -1.145189
v 10.58581 0.9504746 -1.145189
v 5.964942 -2.294291 -2.207386
v 1.398885 -0.950475 -1.145189
v 10.58581 0.9504746 -2.207386
v 5.964942 2.294291 -2.207386
v 5.964942 2.294291 -1.145189
v 1.398885 0.9504746 -1.145189
v 1.398885 0.9504746 -2.207386
v 1.398885 -0.950475 -2.207386
v -10.58581 -0.950475 -2.207386
v -10.58581 -0.950475 -1.145189
v -5.964942 -2.294291 -1.145189
v -10.58581 0.9504746 -1.145189
v -5.964942 -2.294291 -2.207386
v -1.398885 -0.950475 -1.145189
v -10.58581 0.9504746 -2.207386
v -5.964942 2.294291 -2.207386
v -5.964942 2.294291 -1.145189
v -1.398885 0.9504746 -1.145189
v -1.398885 0.9504746 -2.207386
v -1.398885 -0.950475 -2.207386
vt 0.3093485 0.9614123
vt 0.3017219 0.9410687
vt 0.3020512 0.9615298
vt 0.3090193 0.9409512
vt 0.3166458 0.9612949
vt 0.3163166 0.9408338
vt 0.323943 0.9611776
vt 0.3236138 0.9407164
vt 0.3312404 0.96106
vt 0.3309111 0.9405991
vt 0.3385376 0.9609427
vt 0.3382084 0.9404815
vt 0.3458349 0.9608253
vt 0.3455057 0.9403642
vt 0.3531322 0.9607077
vt 0.3416763 0.9291935
vt 0.3322357 0.9362875
vt 0.3298691 0.9293835
vt 0.3320124 0.922407
vt 0.3378469 0.9180229
vt 0.3451442 0.9179055
vt 0.3511168 0.9220997
vt 0.3534835 0.9290034
vt 0.3513403 0.9359799
vt 0.3528028 0.9402467
vt 0.3604294 0.9605904
vt 0.3601003 0.9401292
vt 0.3677267 0.9604729
vt 0.3673975 0.9400119
vt 0.375024 0.9603555
vt 0.3746947 0.9398944
vt 0.2770193 0.9078966
vt 0.3140007 0.9593913
vt 0.269986 0.9280488
vt 0.3309777 0.9107467
vt 0.3744113 0.9418864
vt 0.3673783 0.9620388
vt 0.3681078 0.9622521
vt 0.3751217 0.942102
vt 0.331099 0.9108077
vt 0.3141682 0.9594466
vt 0.2707265 0.9283547
vt 0.2777404 0.9082046
vt 0.2797055 0.9579079
vt 0.3309461 0.9746662
vt 0.2722071 0.9664476
vt 0.2650412 0.9371248
vt 0.328018 0.9636536
vt 0.3770547 0.9410585
vt 0.2738591 0.9407691
vt 0.3158707 0.9137363
vt 0.3134689 0.901895
vt 0.3725528 0.9124541
vt 0.3649913 0.9194272
vt 0.3681121 0.9371491
vt 0.2816111 0.9589295
vt 0.2741094 0.9674607
vt 0.3328082 0.9757069
vt 0.2669585 0.9381573
vt 0.3298932 0.9646952
vt 0.3789303 0.9421353
vt 0.2757723 0.9418019
vt 0.3177799 0.9147916
vt 0.3153749 0.9029565
vt 0.3744323 0.9135319
vt 0.3668761 0.9205034
vt 0.369994 0.9382249
vn 0.809017 -0.5877852 0
vn 0.3010998 -0.9266901 -0.2249097
vn 0.309017 -0.9510565 0
vn 0.7882897 -0.572726 -0.2249097
vn 1 0 0
vn 0.9743795 0 -0.2249097
vn 0.8090171 0.5877852 0
vn 0.7882897 0.5727258 -0.2249097
vn 0.3090169 0.9510565 0
vn 0.3010998 0.9266901 -0.2249097
vn -0.3090171 0.9510565 0
vn -0.3010998 0.9266901 -0.2249098
vn -0.8090169 0.5877853 0
vn -0.7882896 0.5727261 -0.2249098
vn -1 0 0
vn 0 0 -1
vn 0.3010998 0.9266901 -0.2249097
vn 0.7882897 0.5727258 -0.2249097
vn 0.9743795 0 -0.2249097
vn 0.7882897 -0.572726 -0.2249097
vn 0.3010998 -0.9266901 -0.2249097
vn -0.3010998 -0.9266901 -0.2249098
vn -0.7882897 -0.572726 -0.2249097
vn -0.9743795 0 -0.2249097
vn -0.9743795 0 -0.2249097
vn -0.8090171 -0.5877852 0
vn -0.7882897 -0.572726 -0.2249097
vn -0.309017 -0.9510565 0
vn -0.3010998 -0.9266901 -0.2249098
vn 0.309017 -0.9510565 0
vn 0.3010998 -0.9266901 -0.2249097
vn 0.1844692 -0.2627023 0.9470789
vn 0 0.3712261 0.9285425
vn 0.1844692 0.2627023 0.9470789
vn 0 -0.3712261 0.9285425
vn -0.1863172 -0.2621867 0.9468601
vn -0.1863172 0.2621867 0.9468601
vn -0.1844693 -0.2627023 0.9470789
vn -0.1844693 0.2627023 0.9470789
vn 0 0.3712261 0.9285425
vn 0 -0.3712261 0.9285425
vn 0.1863172 -0.2621867 0.94686
vn 0.1863172 0.2621867 0.94686
vn 0.1844693 -0.2627023 -0.9470789
vn 0 -0.3712261 0.9285425
vn 0.1844692 -0.2627023 0.9470789
vn 0.1844692 0.2627023 0.9470789
vn 0 -0.3712261 -0.9285425
vn -0.1863172 -0.2621867 0.9468601
vn 0.1844693 0.2627023 -0.9470789
vn 0 0.3712261 -0.9285425
vn 0 0.3712261 0.9285425
vn -0.1863172 0.2621867 0.9468601
vn -0.1863172 0.2621867 -0.9468601
vn -0.1863172 -0.2621867 -0.9468601
vn -0.1844693 -0.2627023 -0.9470789
vn -0.1844693 -0.2627023 0.9470789
vn 0 -0.3712261 0.9285425
vn -0.1844693 0.2627023 0.9470789
vn 0 -0.3712261 -0.9285425
vn 0.1863172 -0.2621867 0.94686
vn -0.1844693 0.2627023 -0.9470789
vn 0 0.3712261 -0.9285425
vn 0 0.3712261 0.9285425
vn 0.1863172 0.2621867 0.94686
vn 0.1863172 0.2621867 -0.94686
vn 0.1863172 -0.2621867 -0.94686
g RotorRear_0
f 3/3/3 2/2/2 1/1/1
f 2/2/2 4/4/4 1/1/1
f 1/1/1 4/4/4 5/5/5
f 4/4/4 6/6/6 5/5/5
f 5/5/5 6/6/6 7/7/7
f 6/6/6 8/8/8 7/7/7
f 7/7/7 8/8/8 9/9/9
f 8/8/8 10/10/10 9/9/9
f 9/9/9 10/10/10 11/11/11
f 10/10/10 12/12/12 11/11/11
f 11/11/11 12/12/12 13/13/13
f 12/12/12 14/14/14 13/13/13
f 13/13/13 14/14/14 15/15/15
f 12/12/12 16/16/16 14/14/14
f 17/17/17 16/16/16 12/12/12
f 18/18/18 16/16/16 17/17/17
f 19/19/19 16/16/16 18/18/18
f 20/20/20 16/16/16 19/19/19
f 21/21/21 16/16/16 20/20/20
f 22/22/22 16/16/16 21/21/21
f 23/23/23 16/16/16 22/22/22
f 24/24/24 16/16/16 23/23/23
f 14/14/14 16/16/16 24/24/24
f 14/14/14 25/25/25 15/15/15
f 15/15/15 25/25/25 26/26/26
f 25/25/25 27/27/27 26/26/26
f 26/26/26 27/27/27 28/28/28
f 27/27/27 29/29/29 28/28/28
f 28/28/28 29/29/29 30/30/30
f 29/29/29 31/31/31 30/30/30
f 34/34/34 33/33/33 32/32/32
f 33/33/33 35/35/35 32/32/32
f 36/36/36 35/35/35 33/33/33
f 37/37/37 36/36/36 33/33/33
f 40/40/40 39/39/39 38/38/38
f 41/41/41 40/40/40 38/38/38
f 41/41/41 42/42/42 40/40/40
f 42/42/42 43/43/43 40/40/40
f 46/46/46 45/45/45 44/44/44
f 46/46/46 44/44/44 47/47/47
f 45/45/45 48/48/48 44/44/44
f 45/45/45 49/49/49 48/48/48
f 44/44/44 50/50/50 47/47/47
f 44/44/44 48/48/48 50/50/50
f 50/50/50 51/51/51 47/47/47
f 48/48/48 51/51/51 50/50/50
f 51/51/51 52/52/52 47/47/47
f 53/53/53 52/52/52 51/51/51
f 54/54/54 53/53/53 51/51/51
f 49/49/49 53/53/53 54/54/54
f 54/54/54 51/51/51 48/48/48
f 55/55/55 49/49/49 54/54/54
f 49/49/49 55/55/55 48/48/48
f 55/55/55 54/54/54 48/48/48
f 58/58/58 57/57/57 56/56/56
f 56/56/56 57/57/57 59/59/59
f 60/60/60 58/58/58 56/56/56
f 61/61/61 58/58/58 60/60/60
f 62/62/62 56/56/56 59/59/59
f 60/60/60 56/56/56 62/62/62
f 63/63/63 62/62/62 59/59/59
f 63/63/63 60/60/60 62/62/62
f 64/64/64 63/63/63 59/59/59
f 64/64/64 65/65/65 63/63/63
f 65/65/65 66/66/66 63/63/63
f 65/65/65 61/61/61 66/66/66
f 63/63/63 66/66/66 60/60/60
f 61/61/61 67/67/67 66/66/66
f 67/67/67 61/61/61 60/60/60
f 66/66/66 67/67/67 60/60/60
