g RotorRH
v -0.1265436 -1.154158 -1.086189
v -0.1503863 -2.498165 -0.4150513
v -0.1461285 -1.382381 -0.5042749
v -0.2559357 -2.380428 -1.303694
v -1.340789 -0.3070038 -1.086189
v -4.3558 -6.629458 -1.261658
v -2.447 -0.8517438 -1.303694
v -1.548211 -0.4041498 -0.5042749
v -5.019589 -6.166338 -1.261658
v -0.1503863 -2.498165 -0.4150513
v -2.593939 -0.7933209 -0.4150513
v -0.1461285 -1.382381 -0.5042749
v -1.311517 1.00801 -1.086189
v -2.462122 1.423847 -0.5007886
v -1.514407 1.114288 -0.5042749
v -2.312732 1.475675 -1.389431
v -0.06078186 1.800301 -1.086189
v -4.72594 7.025241 -1.261658
v -0.05581848 2.905348 -1.389431
v -0.07017883 2.02915 -0.5042749
v -4.0422 7.458366 -1.261658
v -2.462122 1.423847 -0.5007886
v 0.05487488 3.018266 -0.5007886
v -1.514407 1.114288 -0.5042749
v 0.4692865 -0.1254184 -0.6615258
v -0.1427399 -0.4355652 -0.6615258
v -0.1427399 -0.4355652 1.979119
v 0.4692865 -0.1254184 1.979119
v 0.15914 0.4866098 1.979119
v 0.15914 0.4866098 -0.6615258
v -0.4528863 0.176463 -0.6615258
v -0.4528863 0.176463 1.979119
v -0.1427399 -0.4355652 1.979119
v -0.1427399 -0.4355652 -0.6615258
v 1.311511 -0.3660358 -1.086189
v 2.541786 -0.9076422 -0.4150513
v 1.514416 -0.4723346 -0.5042749
v 2.392399 -0.9594659 -1.303694
v 0.06078064 -1.158338 -1.086189
v 4.725944 -6.383275 -1.261658
v 0.1354803 -2.389136 -1.303694
v 0.07018005 -1.38719 -0.5042749
v 4.042204 -6.8164 -1.261658
v 2.541786 -0.9076422 -0.4150513
v 0.02479187 -2.502061 -0.4150513
v 1.514416 -0.4723346 -0.5042749
v 0.1265497 1.796132 -1.086189
v 0.06520691 3.018035 -0.5007886
v 0.14612 2.024336 -0.5042749
v 0.1707611 2.900304 -1.389431
v 1.340788 0.9489691 -1.086189
v 4.355805 7.271421 -1.261658
v 2.361825 1.371621 -1.389431
v 1.54821 1.046114 -0.5042749
v 5.019594 6.8083 -1.261658
v 0.06520691 3.018035 -0.5007886
v 2.508757 1.313193 -0.5007886
v 0.14612 2.024336 -0.5042749
v 1.282202 1.061262 -1.086189
v 2.39809 1.810735 -0.4150513
v 1.480578 1.175787 -0.5042749
v 2.361928 1.656804 -1.303694
v 1.282211 -0.4192993 -1.086189
v 8.192548 0.7256745 -1.261658
v 2.361928 -1.014832 -1.303694
v 1.480568 -0.5338238 -0.5042749
v 8.192548 -0.08370513 -1.261658
v 2.39809 1.810735 -0.4150513
v 2.39809 -1.168766 -0.4150513
v 1.480578 1.175787 -0.5042749
v -1.712647 1.722765 -1.979119
v 0.0009783935 2.432571 -1.979119
v 0.0009783935 2.432571 0.2379028
v -1.712647 1.722765 0.2379028
v -2.422454 0.009140015 -1.979119
v -2.422454 0.009140015 0.2379028
v -1.712647 -1.704485 -1.979119
v -1.712647 -1.704485 0.2379028
v 0.0009783935 -2.414291 -1.979119
v 0.0009783935 -2.414291 0.2379028
v 1.714604 -1.704485 -1.979119
v 1.714604 -1.704485 0.2379028
v 2.424411 0.009140015 -1.979119
v 0.0009783935 0.009140015 -1.979119
v 0.0009783935 -2.414291 -1.979119
v -1.712647 -1.704485 -1.979119
v -2.422454 0.009140015 -1.979119
v -1.712647 1.722765 -1.979119
v 0.0009783935 2.432571 -1.979119
v 1.714604 1.722765 -1.979119
v 2.424411 0.009140015 0.2379028
v 0.0009783935 0.009140015 0.2379028
v 0.0009783935 -2.414291 0.2379028
v -1.712647 -1.704485 0.2379028
v -2.422454 0.009140015 0.2379028
v -1.712647 1.722765 0.2379028
v 0.0009783935 2.432571 0.2379028
v 1.714604 1.722765 0.2379028
v 1.714604 1.722765 -1.979119
v 1.714604 1.722765 0.2379028
v 0.0009783935 2.432571 -1.979119
v 0.0009783935 2.432571 0.2379028
v -1.28221 -0.4192993 -1.086189
v -2.249219 -1.168769 -0.5007886
v -1.480565 -0.5338238 -0.5042749
v -2.213062 -1.014837 -1.389431
v -1.28221 1.061262 -1.086189
v -8.192548 -0.08370666 -1.261658
v -2.213064 1.656798 -1.389431
v -1.480565 1.175787 -0.5042749
v -8.192548 0.7256735 -1.261658
v -2.249219 -1.168769 -0.5007886
v -2.249219 1.810734 -0.5007886
v -1.480565 -0.5338238 -0.5042749
vt 0.9752781 0.664231
vt 0.9853909 0.6596952
vt 0.9798249 0.6653365
vt 0.98033 0.6589861
vt 0.9650044 0.6597195
vt 0.9809702 0.6252709
vt 0.9657991 0.6540555
vt 0.9593673 0.6562607
vt 0.9797738 0.6295357
vt 0.9496064 0.641906
vt 0.9617754 0.6516596
vt 0.9501145 0.6491836
vt 0.9765033 0.66504
vt 0.9860787 0.6607514
vt 0.9813594 0.6659895
vt 0.9808232 0.6598579
vt 0.9652407 0.6609167
vt 0.9805943 0.6234872
vt 0.9656652 0.6554875
vt 0.9590371 0.6568578
vt 0.9795957 0.6280026
vt 0.9478973 0.6437952
vt 0.9615097 0.6530136
vt 0.9494743 0.6506661
vt 0.9892806 0.9692416
vt 0.9962949 0.9691701
vt 0.9965704 0.9961656
vt 0.9895561 0.9962372
vt 0.9825419 0.9963087
vt 0.9822664 0.9693133
vt 0.9752521 0.9693849
vt 0.9755276 0.9963803
vt 0.9685132 0.9964519
vt 0.9682377 0.9694564
vt 0.9761189 0.6637607
vt 0.9860427 0.6592007
vt 0.9805703 0.6648397
vt 0.9810398 0.6585325
vt 0.9660778 0.6595
vt 0.9805706 0.6250275
vt 0.9666827 0.6538332
vt 0.9606065 0.6563573
vt 0.9795527 0.6292811
vt 0.9498857 0.6431059
vt 0.9626069 0.6516657
vt 0.9513304 0.6506118
vt 0.9761707 0.6628402
vt 0.9857503 0.6593015
vt 0.9805614 0.6642496
vt 0.9807777 0.6581978
vt 0.9659328 0.6584311
vt 0.9808241 0.6234998
vt 0.9663511 0.6533583
vt 0.9600992 0.6551308
vt 0.9796904 0.6278341
vt 0.9491217 0.6427052
vt 0.9621655 0.6512773
vt 0.9508981 0.6493922
vt 0.975595 0.6647255
vt 0.9870142 0.6590294
vt 0.9804471 0.6651212
vt 0.9813607 0.6587526
vt 0.9638306 0.6598192
vt 0.9811433 0.6215971
vt 0.9652206 0.6543028
vt 0.9581848 0.6568319
vt 0.9802587 0.6264455
vt 0.9473462 0.6414343
vt 0.9607986 0.6518067
vt 0.9477317 0.6499997
vt 0.7348433 0.2382394
vt 0.7492835 0.2386321
vt 0.7497529 0.221372
vt 0.7353126 0.2209794
vt 0.7204031 0.2378467
vt 0.7208723 0.2205867
vt 0.7059629 0.2374541
vt 0.7064322 0.220194
vt 0.6915227 0.2370615
vt 0.691992 0.2198013
vt 0.6770825 0.2366688
vt 0.6775517 0.2194088
vt 0.6626424 0.2362762
vt 0.6693885 0.2539033
vt 0.6870155 0.2471573
vt 0.6866231 0.2615974
vt 0.6761346 0.2715307
vt 0.6616943 0.2711379
vt 0.6517612 0.2606494
vt 0.6521538 0.2462093
vt 0.6631116 0.2190161
vt 0.6708058 0.2017815
vt 0.6880403 0.2094757
vt 0.688433 0.1950354
vt 0.6784997 0.1845468
vt 0.6640595 0.1841543
vt 0.6535712 0.1940874
vt 0.6531784 0.2085277
vt 0.6482021 0.2358835
vt 0.6486714 0.2186234
vt 0.6337618 0.2354909
vt 0.6342311 0.2182307
vt 0.9764298 0.6638464
vt 0.9861852 0.6602157
vt 0.98108 0.6651494
vt 0.9808867 0.6587284
vt 0.9654955 0.6596512
vt 0.9807112 0.6217697
vt 0.9654382 0.6539484
vt 0.958767 0.6564628
vt 0.9790928 0.6263307
vt 0.9467654 0.6433522
vt 0.9609042 0.6521001
vt 0.9486859 0.6504029
vn 0.340867 0.1383325 -0.9298783
vn 0.158119 -0.2506402 0.95508
vn 0.4059745 0.05593351 0.9121711
vn 0.2439508 -0.1412909 -0.9594398
vn 0.01215931 0.3676688 -0.9298773
vn -0.4053508 -0.7809803 0.4751426
vn -0.2168147 0.1801833 -0.9594402
vn -0.08764306 0.400326 0.9121721
vn -0.5930666 -0.6500083 0.4751434
vn 0.158119 -0.2506402 0.95508
vn -0.2898144 0.06188124 0.9550803
vn 0.4059745 0.05593351 0.9121711
vn 0.06129676 -0.4694815 -0.880812
vn -0.2937581 -0.05317923 0.9543993
vn -0.1290758 -0.3404201 0.9313719
vn -0.2213692 -0.1633063 -0.9614192
vn 0.3982805 -0.2560149 -0.8808116
vn -0.559979 0.6691375 0.4885472
vn 0.2422354 0.1303674 -0.9614189
vn 0.3629342 -0.0287521 0.9313711
vn -0.3657141 0.7921963 0.488547
vn -0.2937581 -0.05317923 0.9543993
vn 0.1735953 0.2428686 0.9544001
vn -0.1290758 -0.3404201 0.9313719
vn 0.9503738 -0.3111103 0
vn -0.3111133 -0.9503728 0
vn -0.3111133 -0.9503728 0
vn 0.9503738 -0.3111103 0
vn 0.3111133 0.9503728 0
vn 0.3111133 0.9503728 0
vn -0.9503738 0.3111103 0
vn -0.9503738 0.3111103 0
vn -0.3111133 -0.9503728 0
vn -0.3111133 -0.9503728 0
vn 0.004206399 0.3678437 -0.9298781
vn 0.2922788 0.04892388 0.955081
vn 0.105369 0.3960313 0.9121714
vn 0.2246194 0.1703573 -0.9594396
vn -0.3343768 0.1533621 -0.9298775
vn 0.5635474 -0.6757599 0.4751452
vn -0.2499915 -0.1302955 -0.9594412
vn -0.4030812 0.07394391 0.9121721
vn 0.3701878 -0.7982463 0.4751461
vn 0.2922788 0.04892388 0.955081
vn -0.1691139 -0.2433557 0.9550803
vn 0.105369 0.3960313 0.9121714
vn -0.4092725 -0.2380383 -0.8808143
vn -0.162616 0.2503534 0.9544
vn -0.3638528 -0.01257202 0.9313716
vn -0.2361917 0.1410178 -0.9614195
vn -0.08212081 -0.4662879 -0.8808131
vn 0.4006214 0.7751347 0.4885373
vn 0.2138814 -0.1729954 -0.9614195
vn 0.1138037 -0.3458282 0.9313708
vn 0.5892128 0.643553 0.4885363
vn -0.162616 0.2503534 0.9544
vn 0.2910957 -0.06619855 0.9544008
vn -0.3638528 -0.01257202 0.9313716
vn -0.3084924 0.2004009 -0.9298774
vn 0.1150793 0.2730924 0.9550798
vn -0.2781725 0.300943 0.9121696
vn -0.02371203 0.2809162 -0.9594393
vn -0.3084915 -0.200404 -0.929877
vn 0.872436 0.1144468 0.4751391
vn -0.02371096 -0.2809158 -0.9594395
vn -0.2781706 -0.3009428 0.9121702
vn 0.8724355 -0.1144461 0.4751405
vn 0.1150793 0.2730924 0.9550798
vn 0.1150803 -0.2730923 0.9550797
vn -0.2781725 0.300943 0.9121696
vn -0.654272 0.6542717 -0.3792845
vn 0 0.92528 -0.3792848
vn 0 0.92528 0.3792848
vn -0.6542717 0.6542719 0.3792846
vn -0.9252801 0 -0.3792845
vn -0.9252801 0 0.3792844
vn -0.6542718 -0.6542718 -0.3792847
vn -0.6542714 -0.6542721 0.3792847
vn -2.702682E-07 -0.9252801 -0.3792846
vn 3.005511E-07 -0.9252801 0.3792846
vn 0.6542718 -0.6542718 -0.3792848
vn 0.6542717 -0.6542717 0.3792849
vn 0.9252801 0 -0.3792844
vn -1.881236E-07 0 -1
vn -2.702682E-07 -0.9252801 -0.3792846
vn -0.6542718 -0.6542718 -0.3792847
vn -0.9252801 0 -0.3792845
vn -0.654272 0.6542717 -0.3792845
vn 0 0.92528 -0.3792848
vn 0.6542722 0.6542714 -0.3792845
vn 0.9252801 0 0.3792845
vn 1.881236E-07 0 1
vn 3.005511E-07 -0.9252801 0.3792846
vn -0.6542714 -0.6542721 0.3792847
vn -0.9252801 0 0.3792844
vn -0.6542717 0.6542719 0.3792846
vn 0 0.92528 0.3792848
vn 0.6542719 0.6542717 0.3792848
vn 0.6542722 0.6542714 -0.3792845
vn 0.6542719 0.6542717 0.3792848
vn 0 0.92528 -0.3792848
vn 0 0.92528 0.3792848
vn 0.4294082 -0.1994523 -0.8808106
vn -0.1122734 -0.276614 0.9544
vn 0.2185035 -0.2912101 0.9313715
vn 0.01949596 -0.2743956 -0.9614193
vn 0.4294076 0.1994528 -0.8808108
vn -0.8649324 -0.1149794 0.4885404
vn 0.01949628 0.2743953 -0.9614193
vn 0.2185032 0.2912101 0.9313716
vn -0.8649319 0.1149797 0.4885413
vn -0.1122734 -0.276614 0.9544
vn -0.112273 0.2766138 0.9544001
vn 0.2185035 -0.2912101 0.9313715
g RotorRH_0
f 3/3/3 2/2/2 1/1/1
f 2/2/2 4/4/4 1/1/1
f 1/1/1 4/4/4 5/5/5
f 2/2/2 6/6/6 4/4/4
f 4/4/4 7/7/7 5/5/5
f 4/4/4 6/6/6 7/7/7
f 5/5/5 7/7/7 8/8/8
f 6/6/6 9/9/9 7/7/7
f 9/9/9 6/6/6 10/10/10
f 7/7/7 11/11/11 8/8/8
f 7/7/7 9/9/9 11/11/11
f 11/11/11 9/9/9 10/10/10
f 8/8/8 11/11/11 12/12/12
f 11/11/11 10/10/10 12/12/12
f 15/15/15 14/14/14 13/13/13
f 14/14/14 16/16/16 13/13/13
f 13/13/13 16/16/16 17/17/17
f 14/14/14 18/18/18 16/16/16
f 16/16/16 19/19/19 17/17/17
f 16/16/16 18/18/18 19/19/19
f 17/17/17 19/19/19 20/20/20
f 18/18/18 21/21/21 19/19/19
f 18/18/18 22/22/22 21/21/21
f 19/19/19 23/23/23 20/20/20
f 19/19/19 21/21/21 23/23/23
f 22/22/22 23/23/23 21/21/21
f 24/24/24 20/20/20 23/23/23
f 22/22/22 24/24/24 23/23/23
f 27/27/27 26/26/26 25/25/25
f 28/28/28 27/27/27 25/25/25
f 29/29/29 28/28/28 25/25/25
f 30/30/30 29/29/29 25/25/25
f 30/30/30 31/31/31 29/29/29
f 31/31/31 32/32/32 29/29/29
f 32/32/32 31/31/31 33/33/33
f 31/31/31 34/34/34 33/33/33
f 37/37/37 36/36/36 35/35/35
f 36/36/36 38/38/38 35/35/35
f 35/35/35 38/38/38 39/39/39
f 36/36/36 40/40/40 38/38/38
f 38/38/38 41/41/41 39/39/39
f 38/38/38 40/40/40 41/41/41
f 39/39/39 41/41/41 42/42/42
f 40/40/40 43/43/43 41/41/41
f 43/43/43 40/40/40 44/44/44
f 41/41/41 45/45/45 42/42/42
f 41/41/41 43/43/43 45/45/45
f 45/45/45 43/43/43 44/44/44
f 42/42/42 45/45/45 46/46/46
f 45/45/45 44/44/44 46/46/46
f 49/49/49 48/48/48 47/47/47
f 48/48/48 50/50/50 47/47/47
f 47/47/47 50/50/50 51/51/51
f 48/48/48 52/52/52 50/50/50
f 50/50/50 53/53/53 51/51/51
f 50/50/50 52/52/52 53/53/53
f 51/51/51 53/53/53 54/54/54
f 52/52/52 55/55/55 53/53/53
f 52/52/52 56/56/56 55/55/55
f 53/53/53 57/57/57 54/54/54
f 53/53/53 55/55/55 57/57/57
f 56/56/56 57/57/57 55/55/55
f 58/58/58 54/54/54 57/57/57
f 56/56/56 58/58/58 57/57/57
f 61/61/61 60/60/60 59/59/59
f 60/60/60 62/62/62 59/59/59
f 59/59/59 62/62/62 63/63/63
f 60/60/60 64/64/64 62/62/62
f 62/62/62 65/65/65 63/63/63
f 62/62/62 64/64/64 65/65/65
f 63/63/63 65/65/65 66/66/66
f 64/64/64 67/67/67 65/65/65
f 67/67/67 64/64/64 68/68/68
f 65/65/65 69/69/69 66/66/66
f 65/65/65 67/67/67 69/69/69
f 69/69/69 67/67/67 68/68/68
f 66/66/66 69/69/69 70/70/70
f 69/69/69 68/68/68 70/70/70
f 73/73/73 72/72/72 71/71/71
f 74/74/74 73/73/73 71/71/71
f 74/74/74 71/71/71 75/75/75
f 76/76/76 74/74/74 75/75/75
f 76/76/76 75/75/75 77/77/77
f 78/78/78 76/76/76 77/77/77
f 78/78/78 77/77/77 79/79/79
f 80/80/80 78/78/78 79/79/79
f 80/80/80 79/79/79 81/81/81
f 82/82/82 80/80/80 81/81/81
f 82/82/82 81/81/81 83/83/83
f 84/84/84 83/83/83 81/81/81
f 84/84/84 81/81/81 85/85/85
f 84/84/84 85/85/85 86/86/86
f 84/84/84 86/86/86 87/87/87
f 84/84/84 87/87/87 88/88/88
f 84/84/84 88/88/88 89/89/89
f 84/84/84 89/89/89 90/90/90
f 84/84/84 90/90/90 83/83/83
f 91/91/91 82/82/82 83/83/83
f 92/92/92 82/82/82 91/91/91
f 92/92/92 93/93/93 82/82/82
f 92/92/92 94/94/94 93/93/93
f 92/92/92 95/95/95 94/94/94
f 92/92/92 96/96/96 95/95/95
f 92/92/92 97/97/97 96/96/96
f 92/92/92 98/98/98 97/97/97
f 92/92/92 91/91/91 98/98/98
f 91/91/91 83/83/83 99/99/99
f 100/100/100 91/91/91 99/99/99
f 100/100/100 99/99/99 101/101/101
f 102/102/102 100/100/100 101/101/101
f 105/105/105 104/104/104 103/103/103
f 104/104/104 106/106/106 103/103/103
f 103/103/103 106/106/106 107/107/107
f 104/104/104 108/108/108 106/106/106
f 106/106/106 109/109/109 107/107/107
f 106/106/106 108/108/108 109/109/109
f 107/107/107 109/109/109 110/110/110
f 108/108/108 111/111/111 109/109/109
f 108/108/108 112/112/112 111/111/111
f 109/109/109 113/113/113 110/110/110
f 109/109/109 111/111/111 113/113/113
f 112/112/112 113/113/113 111/111/111
f 114/114/114 110/110/110 113/113/113
f 112/112/112 114/114/114 113/113/113
