g RotorLH
v 2.422454 0.09083801 0.2379028
v -0.0009783935 0.09083801 0.2379028
v 1.712647 1.804463 0.2379028
v -0.1265497 1.87783 -1.086189
v -0.14612 2.106034 -0.5042749
v -0.06520691 3.099733 -0.5007886
v -0.1707611 2.982002 -1.389431
v -1.340788 1.030667 -1.086189
v -4.355805 7.353119 -1.261658
v -2.361825 1.453319 -1.389431
v -1.54821 1.127812 -0.5042749
v -5.019594 6.889998 -1.261658
v -0.06520691 3.099733 -0.5007886
v -2.508757 1.39489 -0.5007886
v -0.14612 2.106034 -0.5042749
v 1.28221 -0.3376013 -1.086189
v 1.480565 -0.4521258 -0.5042749
v 2.249219 -1.087071 -0.5007886
v 2.213062 -0.9331393 -1.389431
v 1.28221 1.14296 -1.086189
v 8.192548 -0.002008667 -1.261658
v 2.213064 1.738496 -1.389431
v 1.480565 1.257485 -0.5042749
v 8.192548 0.8073715 -1.261658
v 2.249219 -1.087071 -0.5007886
v 2.249219 1.892431 -0.5007886
v 1.480565 -0.4521258 -0.5042749
v -1.282202 1.14296 -1.086189
v -1.480578 1.257485 -0.5042749
v -2.39809 1.892433 -0.4150513
v -2.361928 1.738502 -1.303694
v -1.282211 -0.3376013 -1.086189
v -8.192548 0.8073724 -1.261658
v -2.361928 -0.9331344 -1.303694
v -1.480568 -0.4521258 -0.5042749
v -8.192548 -0.002007141 -1.261658
v -2.39809 1.892433 -0.4150513
v -2.39809 -1.087068 -0.4150513
v -1.480578 1.257485 -0.5042749
v -1.311511 -0.2843378 -1.086189
v -1.514416 -0.3906366 -0.5042749
v -2.541786 -0.8259442 -0.4150513
v -2.392399 -0.8777679 -1.303694
v -0.06078064 -1.07664 -1.086189
v -4.725944 -6.301577 -1.261658
v -0.1354803 -2.307438 -1.303694
v -0.07018005 -1.305493 -0.5042749
v -4.042204 -6.734701 -1.261658
v -2.541786 -0.8259442 -0.4150513
v -0.02479187 -2.420363 -0.4150513
v -1.514416 -0.3906366 -0.5042749
v 1.311517 1.089708 -1.086189
v 1.514407 1.195986 -0.5042749
v 2.462122 1.505545 -0.5007886
v 2.312732 1.557373 -1.389431
v 0.06078186 1.881999 -1.086189
v 4.72594 7.106939 -1.261658
v 0.05581848 2.987046 -1.389431
v 0.07017883 2.110847 -0.5042749
v 4.0422 7.540064 -1.261658
v 2.462122 1.505545 -0.5007886
v -0.05487488 3.099964 -0.5007886
v 1.514407 1.195986 -0.5042749
v 0.1265436 -1.07246 -1.086189
v 0.1461285 -1.300683 -0.5042749
v 0.1503863 -2.416467 -0.4150513
v 0.2559357 -2.29873 -1.303694
v 1.340789 -0.2253058 -1.086189
v 4.3558 -6.54776 -1.261658
v 2.447 -0.7700458 -1.303694
v 1.548211 -0.3224518 -0.5042749
v 5.019589 -6.084641 -1.261658
v 0.1503863 -2.416467 -0.4150513
v 2.593939 -0.7116229 -0.4150513
v 0.1461285 -1.300683 -0.5042749
v -0.4692865 -0.1254184 -0.6615258
v 0.1427399 -0.4355652 1.979119
v 0.1427399 -0.4355652 -0.6615258
v -0.4692865 -0.1254184 1.979119
v -0.15914 0.4866098 1.979119
v -0.15914 0.4866098 -0.6615258
v 0.4528863 0.176463 -0.6615258
v 0.4528863 0.176463 1.979119
v 0.1427399 -0.4355652 1.979119
v 0.1427399 -0.4355652 -0.6615258
v 1.712647 1.804463 -1.979119
v -0.0009783935 2.514269 0.2379028
v -0.0009783935 2.514269 -1.979119
v 1.712647 1.804463 0.2379028
v 2.422454 0.09083801 -1.979119
v 2.422454 0.09083801 0.2379028
v 1.712647 -1.622787 -1.979119
v 1.712647 -1.622787 0.2379028
v -0.0009783935 -2.332594 -1.979119
v -0.0009783935 -2.332594 0.2379028
v -1.714604 -1.622787 -1.979119
v -1.714604 -1.622787 0.2379028
v -2.424411 0.09083801 -1.979119
v -0.0009783935 0.09083801 -1.979119
v -0.0009783935 -2.332594 -1.979119
v 1.712647 -1.622787 -1.979119
v 2.422454 0.09083801 -1.979119
v 1.712647 1.804463 -1.979119
v -0.0009783935 2.514269 -1.979119
v -1.714604 1.804463 -1.979119
v -2.424411 0.09083801 0.2379028
v -0.0009783935 0.09083801 0.2379028
v -0.0009783935 -2.332594 0.2379028
v 1.712647 -1.622787 0.2379028
v 2.422454 0.09083801 0.2379028
v 1.712647 1.804463 0.2379028
v -0.0009783935 2.514269 0.2379028
v -1.714604 1.804463 0.2379028
v -1.714604 1.804463 -1.979119
v -1.714604 1.804463 0.2379028
v -0.0009783935 2.514269 -1.979119
v -0.0009783935 2.514269 0.2379028
vt 0 0
vt 0 0
vt 0 0
vt 0.9764159 0.6623258
vt 0.9808722 0.6635113
vt 0.9858042 0.6583072
vt 0.9807822 0.6574563
vt 0.9659681 0.6584401
vt 0.979074 0.6228005
vt 0.9661294 0.6533526
vt 0.9599751 0.6554391
vt 0.9781609 0.6271865
vt 0.9483833 0.6435844
vt 0.9618438 0.651486
vt 0.9504955 0.6501729
vt 0.9762908 0.6642195
vt 0.980883 0.6657137
vt 0.9861881 0.6609955
vt 0.9809557 0.6592904
vt 0.9655396 0.6595755
vt 0.9823096 0.6223558
vt 0.9657183 0.6538752
vt 0.9589487 0.6561114
vt 0.9805039 0.6268461
vt 0.9474999 0.6425154
vt 0.9612646 0.6518409
vt 0.949127 0.6496394
vt 0.9759831 0.6651195
vt 0.9808421 0.6654194
vt 0.9872876 0.6591991
vt 0.9816298 0.659034
vt 0.9641241 0.6604466
vt 0.9806787 0.62189
vt 0.965405 0.6549039
vt 0.9584204 0.6575713
vt 0.97989 0.6267549
vt 0.9472799 0.6423907
vt 0.9609345 0.6524955
vt 0.9478346 0.650947
vt 0.9755244 0.6637686
vt 0.9799437 0.6649718
vt 0.9855721 0.6594886
vt 0.9805898 0.6586803
vt 0.9656065 0.6592283
vt 0.9810598 0.6251753
vt 0.96637 0.6535806
vt 0.9602256 0.6559336
vt 0.979923 0.6293987
vt 0.9498803 0.6423867
vt 0.9623566 0.6512996
vt 0.9511141 0.6499302
vt 0.9754148 0.66291
vt 0.980014 0.6638643
vt 0.9845511 0.6589438
vt 0.9795722 0.6580383
vt 0.9647691 0.658873
vt 0.9797521 0.6235114
vt 0.9652314 0.6537239
vt 0.9589248 0.6549525
vt 0.978755 0.6277866
vt 0.9484931 0.6424312
vt 0.9613138 0.6513304
vt 0.949915 0.6489705
vt 0.9758646 0.6642852
vt 0.9804562 0.6651869
vt 0.985765 0.6593028
vt 0.9806775 0.6588202
vt 0.9653999 0.6602365
vt 0.979813 0.62511
vt 0.9659411 0.6545428
vt 0.9596141 0.6570326
vt 0.978808 0.6294239
vt 0.9492225 0.6431277
vt 0.9618145 0.6523288
vt 0.9500548 0.6503754
vt 0.9892806 0.9692416
vt 0.9965704 0.9961656
vt 0.9962949 0.9691701
vt 0.9895561 0.9962372
vt 0.9825419 0.9963087
vt 0.9822664 0.9693133
vt 0.9752521 0.9693849
vt 0.9755276 0.9963803
vt 0.9685132 0.9964519
vt 0.9682377 0.9694564
vt 0.7352486 0.2375683
vt 0.7500671 0.2206209
vt 0.7496906 0.2378832
vt 0.735625 0.220306
vt 0.7208064 0.2372534
vt 0.7211828 0.219991
vt 0.7063642 0.2369385
vt 0.7067407 0.2196761
vt 0.6919222 0.2366236
vt 0.6922986 0.2193613
vt 0.6774801 0.2363087
vt 0.6778565 0.2190463
vt 0.663038 0.2359937
vt 0.6698788 0.2535844
vt 0.6874694 0.2467435
vt 0.6871547 0.2611855
vt 0.6767198 0.271175
vt 0.6622777 0.2708601
vt 0.6522882 0.2604253
vt 0.652603 0.2459832
vt 0.6634143 0.2187314
vt 0.6710155 0.2014557
vt 0.6882913 0.2090569
vt 0.6886061 0.1946148
vt 0.6786168 0.1841799
vt 0.6641745 0.1838651
vt 0.6537399 0.1938545
vt 0.6534248 0.2082966
vt 0.6485959 0.2356788
vt 0.6489723 0.2184165
vt 0.6341537 0.235364
vt 0.6345301 0.2181015
vn 0.8268875 0 0.5623674
vn -1.003326E-06 0 1
vn 0.5846972 0.584698 0.5623677
vn 0.4092736 -0.2380381 -0.8808138
vn 0.3638553 -0.01257208 0.9313707
vn 0.1626156 0.2503534 0.9544
vn 0.236192 0.1410179 -0.9614195
vn 0.08212126 -0.4662879 -0.8808131
vn -0.4006251 0.775133 0.4885371
vn -0.2138835 -0.1729953 -0.961419
vn -0.1138023 -0.3458281 0.931371
vn -0.5892164 0.6435505 0.4885354
vn 0.1626156 0.2503534 0.9544
vn -0.2910984 -0.06619842 0.9544001
vn 0.3638553 -0.01257208 0.9313707
vn -0.4294032 -0.1994527 -0.8808131
vn -0.2185124 -0.2912098 0.9313695
vn 0.1122723 -0.2766143 0.9544001
vn -0.01949478 -0.2743956 -0.9614193
vn -0.4294023 0.1994528 -0.8808134
vn 0.8649331 -0.1149793 0.488539
vn -0.01949466 0.2743953 -0.9614193
vn -0.2185117 0.2912093 0.9313698
vn 0.8649328 0.1149803 0.4885395
vn 0.1122723 -0.2766143 0.9544001
vn 0.1122723 0.2766138 0.9544002
vn -0.2185124 -0.2912098 0.9313695
vn 0.308491 0.2004012 -0.9298778
vn 0.2781684 0.3009438 0.9121706
vn -0.1150794 0.2730924 0.9550797
vn 0.02371128 0.2809162 -0.9594394
vn 0.3084901 -0.200404 -0.9298774
vn -0.8724355 0.1144468 0.4751402
vn 0.02371041 -0.2809158 -0.9594395
vn 0.2781665 -0.3009431 0.9121714
vn -0.8724352 -0.1144461 0.4751409
vn -0.1150794 0.2730924 0.9550797
vn -0.1150802 -0.2730923 0.9550797
vn 0.2781684 0.3009438 0.9121706
vn -0.004207632 0.3678437 -0.9298781
vn -0.1053676 0.3960313 0.9121716
vn -0.2922781 0.04892406 0.9550811
vn -0.224619 0.1703574 -0.9594398
vn 0.3343755 0.1533624 -0.929878
vn -0.5635433 -0.6757625 0.4751463
vn 0.2499921 -0.130295 -0.9594411
vn 0.4030821 0.07394411 0.9121716
vn -0.3701824 -0.7982485 0.4751466
vn -0.2922781 0.04892406 0.9550811
vn 0.169115 -0.2433552 0.9550803
vn -0.1053676 0.3960313 0.9121716
vn -0.06129584 -0.4694817 -0.880812
vn 0.1290752 -0.3404205 0.9313718
vn 0.2937587 -0.05317939 0.9543992
vn 0.2213696 -0.1633065 -0.961419
vn -0.3982788 -0.2560153 -0.8808122
vn 0.5599852 0.6691345 0.4885444
vn -0.2422345 0.1303674 -0.9614192
vn -0.3629336 -0.02875235 0.9313713
vn 0.3657219 0.7921941 0.4885447
vn 0.2937587 -0.05317939 0.9543992
vn -0.1735942 0.2428686 0.9544003
vn 0.1290752 -0.3404205 0.9313718
vn -0.3408684 0.1383322 -0.9298779
vn -0.4059749 0.05593325 0.912171
vn -0.1581184 -0.2506404 0.9550801
vn -0.2439504 -0.1412912 -0.9594399
vn -0.01216067 0.367669 -0.9298772
vn 0.4053562 -0.7809784 0.4751413
vn 0.2168148 0.1801836 -0.9594401
vn 0.08764289 0.4003262 0.912172
vn 0.5930709 -0.6500059 0.4751413
vn -0.1581184 -0.2506404 0.9550801
vn 0.2898148 0.06188152 0.9550802
vn -0.4059749 0.05593325 0.912171
vn -0.9503738 -0.3111103 0
vn 0.3111133 -0.9503728 0
vn 0.3111133 -0.9503728 0
vn -0.9503738 -0.3111103 0
vn -0.3111133 0.9503728 0
vn -0.3111133 0.9503728 0
vn 0.9503738 0.3111103 0
vn 0.9503738 0.3111103 0
vn 0.3111133 -0.9503728 0
vn 0.3111133 -0.9503728 0
vn 0.6542717 0.654272 -0.3792847
vn -5.859608E-07 0.9252801 0.3792845
vn 0 0.9252801 -0.3792845
vn 0.5846972 0.584698 0.5623677
vn 0.9252801 0 -0.3792844
vn 0.8268875 0 0.5623674
vn 0.654272 -0.6542717 -0.3792845
vn 0.6542714 -0.6542722 0.3792848
vn 0 -0.92528 -0.3792847
vn -1.15678E-06 -0.92528 0.3792847
vn -0.6542718 -0.6542718 -0.3792847
vn -0.6542718 -0.6542718 0.3792848
vn -0.92528 0 -0.3792847
vn 0 0 -1
vn 0 -0.92528 -0.3792847
vn 0.654272 -0.6542717 -0.3792845
vn 0.9252801 0 -0.3792844
vn 0.6542717 0.654272 -0.3792847
vn 0 0.9252801 -0.3792845
vn -0.6542718 0.6542718 -0.3792847
vn -0.92528 0 0.3792847
vn -1.003326E-06 0 1
vn -1.15678E-06 -0.92528 0.3792847
vn 0.6542714 -0.6542722 0.3792848
vn 0.8268875 0 0.5623674
vn 0.5846972 0.584698 0.5623677
vn -5.859608E-07 0.9252801 0.3792845
vn -0.6542718 0.6542718 0.3792847
vn -0.6542718 0.6542718 -0.3792847
vn -0.6542718 0.6542718 0.3792847
vn 0 0.9252801 -0.3792845
vn -5.859608E-07 0.9252801 0.3792845
g RotorLH_0
f 3/3/3 2/2/2 1/1/1
f 6/6/6 5/5/5 4/4/4
f 7/7/7 6/6/6 4/4/4
f 7/7/7 4/4/4 8/8/8
f 9/9/9 6/6/6 7/7/7
f 10/10/10 7/7/7 8/8/8
f 9/9/9 7/7/7 10/10/10
f 10/10/10 8/8/8 11/11/11
f 12/12/12 9/9/9 10/10/10
f 13/13/13 9/9/9 12/12/12
f 14/14/14 10/10/10 11/11/11
f 12/12/12 10/10/10 14/14/14
f 14/14/14 13/13/13 12/12/12
f 11/11/11 15/15/15 14/14/14
f 15/15/15 13/13/13 14/14/14
f 18/18/18 17/17/17 16/16/16
f 19/19/19 18/18/18 16/16/16
f 19/19/19 16/16/16 20/20/20
f 21/21/21 18/18/18 19/19/19
f 22/22/22 19/19/19 20/20/20
f 21/21/21 19/19/19 22/22/22
f 22/22/22 20/20/20 23/23/23
f 24/24/24 21/21/21 22/22/22
f 25/25/25 21/21/21 24/24/24
f 26/26/26 22/22/22 23/23/23
f 24/24/24 22/22/22 26/26/26
f 26/26/26 25/25/25 24/24/24
f 23/23/23 27/27/27 26/26/26
f 27/27/27 25/25/25 26/26/26
f 30/30/30 29/29/29 28/28/28
f 31/31/31 30/30/30 28/28/28
f 31/31/31 28/28/28 32/32/32
f 33/33/33 30/30/30 31/31/31
f 34/34/34 31/31/31 32/32/32
f 33/33/33 31/31/31 34/34/34
f 34/34/34 32/32/32 35/35/35
f 36/36/36 33/33/33 34/34/34
f 33/33/33 36/36/36 37/37/37
f 38/38/38 34/34/34 35/35/35
f 36/36/36 34/34/34 38/38/38
f 36/36/36 38/38/38 37/37/37
f 38/38/38 35/35/35 39/39/39
f 37/37/37 38/38/38 39/39/39
f 42/42/42 41/41/41 40/40/40
f 43/43/43 42/42/42 40/40/40
f 43/43/43 40/40/40 44/44/44
f 45/45/45 42/42/42 43/43/43
f 46/46/46 43/43/43 44/44/44
f 45/45/45 43/43/43 46/46/46
f 46/46/46 44/44/44 47/47/47
f 48/48/48 45/45/45 46/46/46
f 45/45/45 48/48/48 49/49/49
f 50/50/50 46/46/46 47/47/47
f 48/48/48 46/46/46 50/50/50
f 48/48/48 50/50/50 49/49/49
f 50/50/50 47/47/47 51/51/51
f 49/49/49 50/50/50 51/51/51
f 54/54/54 53/53/53 52/52/52
f 55/55/55 54/54/54 52/52/52
f 55/55/55 52/52/52 56/56/56
f 57/57/57 54/54/54 55/55/55
f 58/58/58 55/55/55 56/56/56
f 57/57/57 55/55/55 58/58/58
f 58/58/58 56/56/56 59/59/59
f 60/60/60 57/57/57 58/58/58
f 61/61/61 57/57/57 60/60/60
f 62/62/62 58/58/58 59/59/59
f 60/60/60 58/58/58 62/62/62
f 62/62/62 61/61/61 60/60/60
f 59/59/59 63/63/63 62/62/62
f 63/63/63 61/61/61 62/62/62
f 66/66/66 65/65/65 64/64/64
f 67/67/67 66/66/66 64/64/64
f 67/67/67 64/64/64 68/68/68
f 69/69/69 66/66/66 67/67/67
f 70/70/70 67/67/67 68/68/68
f 69/69/69 67/67/67 70/70/70
f 70/70/70 68/68/68 71/71/71
f 72/72/72 69/69/69 70/70/70
f 69/69/69 72/72/72 73/73/73
f 74/74/74 70/70/70 71/71/71
f 72/72/72 70/70/70 74/74/74
f 72/72/72 74/74/74 73/73/73
f 74/74/74 71/71/71 75/75/75
f 73/73/73 74/74/74 75/75/75
f 78/78/78 77/77/77 76/76/76
f 77/77/77 79/79/79 76/76/76
f 79/79/79 80/80/80 76/76/76
f 80/80/80 81/81/81 76/76/76
f 82/82/82 81/81/81 80/80/80
f 83/83/83 82/82/82 80/80/80
f 82/82/82 83/83/83 84/84/84
f 85/85/85 82/82/82 84/84/84
f 88/88/88 87/87/87 86/86/86
f 87/87/87 89/89/89 86/86/86
f 86/86/86 89/89/89 90/90/90
f 89/89/89 91/91/91 90/90/90
f 90/90/90 91/91/91 92/92/92
f 91/91/91 93/93/93 92/92/92
f 92/92/92 93/93/93 94/94/94
f 93/93/93 95/95/95 94/94/94
f 94/94/94 95/95/95 96/96/96
f 95/95/95 97/97/97 96/96/96
f 96/96/96 97/97/97 98/98/98
f 98/98/98 99/99/99 96/96/96
f 96/96/96 99/99/99 100/100/100
f 100/100/100 99/99/99 101/101/101
f 101/101/101 99/99/99 102/102/102
f 102/102/102 99/99/99 103/103/103
f 103/103/103 99/99/99 104/104/104
f 104/104/104 99/99/99 105/105/105
f 105/105/105 99/99/99 98/98/98
f 97/97/97 106/106/106 98/98/98
f 97/97/97 107/107/107 106/106/106
f 108/108/108 107/107/107 97/97/97
f 109/109/109 107/107/107 108/108/108
f 110/110/110 107/107/107 109/109/109
f 111/111/111 107/107/107 110/110/110
f 112/112/112 107/107/107 111/111/111
f 113/113/113 107/107/107 112/112/112
f 106/106/106 107/107/107 113/113/113
f 98/98/98 106/106/106 114/114/114
f 106/106/106 115/115/115 114/114/114
f 114/114/114 115/115/115 116/116/116
f 115/115/115 117/117/117 116/116/116
