g RotorBack
v 2.855618 -2.074728 3.058386
v 2.855618 -2.074728 -3.058386
v 1.090749 -3.356981 -3.058386
v 1.090749 -3.356981 3.058386
v 1.090749 -3.356981 3.058386
v 1.090749 -3.356981 -3.058386
v -1.090749 -3.356981 -3.058386
v -1.090749 -3.356981 3.058386
v -1.090749 -3.356981 3.058386
v -1.090749 -3.356981 -3.058386
v -2.855618 -2.074728 -3.058386
v -2.855618 -2.074728 3.058386
v -2.855618 -2.074728 3.058386
v -2.855618 -2.074728 -3.058386
v -3.529738 1.525879E-07 -3.058386
v -3.529738 1.525879E-07 3.058386
v -3.529738 1.525879E-07 3.058386
v -3.529738 1.525879E-07 -3.058386
v -2.855618 2.074728 -3.058386
v -2.855618 2.074728 3.058386
v -2.855618 2.074728 3.058386
v -2.855618 2.074728 -3.058386
v -1.090749 3.35698 -3.058386
v -1.090749 3.35698 3.058386
v -1.090749 3.35698 3.058386
v -1.090749 3.35698 -3.058386
v 1.090749 3.356981 -3.058386
v 1.090749 3.356981 3.058386
v 1.090749 3.356981 3.058386
v 1.090749 3.356981 -3.058386
v 2.855618 2.074728 -3.058386
v 2.855618 2.074728 3.058386
v 2.855618 2.074728 3.058386
v 2.855618 2.074728 -3.058386
v 3.529737 -1.525879E-07 -3.058386
v 3.529737 -1.525879E-07 3.058386
v 3.529737 -1.525879E-07 3.058386
v 3.529737 -1.525879E-07 -3.058386
v 2.855618 -2.074728 -3.058386
v 2.855618 -2.074728 3.058386
v -10.58581 0.9504749 -2.207385
v -10.58581 -0.950475 -2.207385
v -5.964942 -2.294291 -2.207385
v -5.964942 2.294291 -2.207385
v -1.398885 0.9504749 -2.207385
v -1.398885 -0.950475 -2.207385
v -10.58581 -0.950475 -2.207385
v -10.58581 -0.950475 -1.145188
v -5.964942 -2.294291 -1.145188
v -5.964942 -2.294291 -2.207385
v -1.398885 -0.950475 -1.145188
v -1.398885 -0.950475 -2.207385
v -10.58581 -0.950475 -1.145188
v -10.58581 0.9504749 -1.145188
v -5.964942 2.294291 -1.145188
v -5.964942 -2.294291 -1.145188
v -1.398885 -0.950475 -1.145188
v -1.398885 0.9504749 -1.145188
v -10.58581 0.9504749 -1.145188
v -10.58581 0.9504749 -2.207385
v -5.964942 2.294291 -2.207385
v -5.964942 2.294291 -1.145188
v -1.398885 0.9504749 -1.145188
v -1.398885 0.9504749 -2.207385
v -1.398885 0.9504749 -2.207385
v -1.398885 -0.950475 -2.207385
v -1.398885 -0.950475 -1.145188
v -1.398885 0.9504749 -1.145188
v -10.58581 0.9504749 -1.145188
v -10.58581 -0.950475 -1.145188
v -10.58581 -0.950475 -2.207385
v -10.58581 0.9504749 -2.207385
v 10.58581 0.9504749 -2.207385
v 5.964942 -2.294291 -2.207385
v 10.58581 -0.950475 -2.207385
v 5.964942 2.294291 -2.207385
v 1.398885 0.9504749 -2.207385
v 1.398885 -0.950475 -2.207385
v 10.58581 -0.950475 -2.207385
v 5.964942 -2.294291 -1.145188
v 10.58581 -0.950475 -1.145188
v 5.964942 -2.294291 -2.207385
v 1.398885 -0.950475 -1.145188
v 1.398885 -0.950475 -2.207385
v 10.58581 -0.950475 -1.145188
v 5.964942 2.294291 -1.145188
v 10.58581 0.9504749 -1.145188
v 5.964942 -2.294291 -1.145188
v 1.398885 -0.950475 -1.145188
v 1.398885 0.9504749 -1.145188
v 10.58581 0.9504749 -1.145188
v 5.964942 2.294291 -2.207385
v 10.58581 0.9504749 -2.207385
v 5.964942 2.294291 -1.145188
v 1.398885 0.9504749 -1.145188
v 1.398885 0.9504749 -2.207385
v 1.398885 0.9504749 -2.207385
v 1.398885 0.9504749 -1.145188
v 1.398885 -0.950475 -1.145188
v 1.398885 -0.950475 -2.207385
v 10.58581 0.9504749 -1.145188
v 10.58581 0.9504749 -2.207385
v 10.58581 -0.950475 -2.207385
v 10.58581 -0.950475 -1.145188
v 2.855618 -2.074728 -3.058386
v 4.529953E-08 -1.525879E-07 -3.058386
v 1.090749 -3.356981 -3.058386
v 3.529737 -1.525879E-07 -3.058386
v -1.090749 -3.356981 -3.058386
v 2.855618 2.074728 -3.058386
v -2.855618 -2.074728 -3.058386
v 1.090749 3.356981 -3.058386
v -3.529738 1.525879E-07 -3.058386
v -1.090749 3.35698 -3.058386
v -2.855618 2.074728 -3.058386
vt 0.5780331 0.9269111
vt 0.5974267 0.9203804
vt 0.5950974 0.9134637
vt 0.5757039 0.9199945
vt 0.5989952 0.9891604
vt 0.6183889 0.9826295
vt 0.6160597 0.975713
vt 0.5966661 0.9822437
vt 0.5966661 0.9822437
vt 0.6160597 0.975713
vt 0.6137307 0.9687965
vt 0.5943369 0.9753271
vt 0.5943369 0.9753271
vt 0.6137307 0.9687965
vt 0.6114014 0.9618798
vt 0.5920079 0.9684106
vt 0.5920079 0.9684106
vt 0.6114014 0.9618798
vt 0.6090723 0.9549633
vt 0.5896786 0.961494
vt 0.5896786 0.961494
vt 0.6090723 0.9549633
vt 0.6067432 0.9480467
vt 0.5873495 0.9545774
vt 0.5873495 0.9545774
vt 0.6067432 0.9480467
vt 0.6044139 0.9411302
vt 0.5850204 0.9476609
vt 0.5850204 0.9476609
vt 0.6044139 0.9411302
vt 0.6020849 0.9342135
vt 0.5826912 0.9407442
vt 0.5826912 0.9407442
vt 0.6020849 0.9342135
vt 0.5997558 0.927297
vt 0.5803621 0.9338276
vt 0.5803621 0.9338276
vt 0.5997558 0.927297
vt 0.5974267 0.9203804
vt 0.5780331 0.9269111
vt 0.5872421 0.8921146
vt 0.5692481 0.894029
vt 0.5529677 0.9398476
vt 0.6043141 0.9390479
vt 0.5879066 0.9856725
vt 0.569934 0.984802
vt 0.5692481 0.894029
vt 0.5625831 0.8848293
vt 0.5415841 0.9402602
vt 0.5529677 0.9398476
vt 0.5641475 0.9926549
vt 0.569934 0.984802
vt 0.6372993 0.9891345
vt 0.6586344 0.9893119
vt 0.6741485 0.9375757
vt 0.6226489 0.9371468
vt 0.6381576 0.8860257
vt 0.6594929 0.8862033
vt 0.5927421 0.8843227
vt 0.5872421 0.8921146
vt 0.6043141 0.9390479
vt 0.6163882 0.9393145
vt 0.5930383 0.9945812
vt 0.5879066 0.9856725
vt 0.5879066 0.9856725
vt 0.569934 0.984802
vt 0.5641475 0.9926549
vt 0.5930383 0.9945812
vt 0.5927421 0.8843227
vt 0.5625831 0.8848293
vt 0.5692481 0.894029
vt 0.5872421 0.8921146
vt 0.5718446 0.9846833
vt 0.6051289 0.9362163
vt 0.5898079 0.982394
vt 0.5537896 0.9381027
vt 0.5692189 0.8911223
vt 0.5872065 0.8916202
vt 0.5898079 0.982394
vt 0.616505 0.935557
vt 0.5966698 0.9914531
vt 0.6051289 0.9362163
vt 0.5928305 0.8836436
vt 0.5872065 0.8916202
vt 0.6595532 0.8854215
vt 0.6226475 0.9369705
vt 0.6382098 0.8852263
vt 0.6741673 0.9374412
vt 0.6586107 0.98857
vt 0.6372672 0.9883751
vt 0.5665055 0.9925908
vt 0.5537896 0.9381027
vt 0.5718446 0.9846833
vt 0.5417071 0.9380801
vt 0.5639044 0.8823157
vt 0.5692189 0.8911223
vt 0.5692189 0.8911223
vt 0.5639044 0.8823157
vt 0.5928305 0.8836436
vt 0.5872065 0.8916202
vt 0.5665055 0.9925908
vt 0.5718446 0.9846833
vt 0.5898079 0.982394
vt 0.5966698 0.9914531
vt 0.6280302 0.9408783
vt 0.6185513 0.9479208
vt 0.6303593 0.9477949
vt 0.6220806 0.9366517
vt 0.6281782 0.9547595
vt 0.6147826 0.9367296
vt 0.6223199 0.959112
vt 0.6089242 0.9410821
vt 0.6150221 0.9591899
vt 0.6067432 0.9480467
vt 0.6090723 0.9549633
vn 0.5877852 -0.809017 0
vn 0.5877852 -0.809017 0
vn 0.5877852 -0.809017 0
vn 0.5877852 -0.809017 0
vn 0 -1 0
vn 0 -1 0
vn 0 -1 0
vn 0 -1 0
vn -0.5877854 -0.809017 0
vn -0.5877854 -0.809017 0
vn -0.5877854 -0.809017 0
vn -0.5877854 -0.809017 0
vn -0.9510565 -0.3090169 0
vn -0.9510565 -0.3090169 0
vn -0.9510565 -0.3090169 0
vn -0.9510565 -0.3090169 0
vn -0.9510565 0.309017 0
vn -0.9510565 0.309017 0
vn -0.9510565 0.309017 0
vn -0.9510565 0.309017 0
vn -0.5877852 0.8090171 0
vn -0.5877852 0.8090171 0
vn -0.5877852 0.8090171 0
vn -0.5877852 0.8090171 0
vn -1.398928E-07 1 0
vn -1.398928E-07 1 0
vn -1.398928E-07 1 0
vn -1.398928E-07 1 0
vn 0.5877853 0.8090169 0
vn 0.5877853 0.8090169 0
vn 0.5877853 0.8090169 0
vn 0.5877853 0.8090169 0
vn 0.9510565 0.3090169 0
vn 0.9510565 0.3090169 0
vn 0.9510565 0.3090169 0
vn 0.9510565 0.3090169 0
vn 0.9510565 -0.3090169 0
vn 0.9510565 -0.3090169 0
vn 0.9510565 -0.3090169 0
vn 0.9510565 -0.3090169 0
vn 0 0 -1
vn 0 0 -1
vn 0 0 -1
vn 0 0 -1
vn 0 0 -1
vn 0 0 -1
vn -0.2792461 -0.9602196 0
vn -0.2792461 -0.9602196 0
vn 0 -1 0
vn 0 -1 0
vn 0.2823323 -0.9593166 0
vn 0.2823323 -0.9593166 0
vn 0 0 1
vn 0 0 1
vn 0 0 1
vn 0 0 1
vn 0 0 1
vn 0 0 1
vn -0.2792461 0.9602196 0
vn -0.2792461 0.9602196 0
vn 0 1 0
vn 0 1 0
vn 0.2823323 0.9593166 0
vn 0.2823323 0.9593166 0
vn 1 0 0
vn 1 0 0
vn 1 0 0
vn 1 0 0
vn -1 0 0
vn -1 0 0
vn -1 0 0
vn -1 0 0
vn 0 0 -1
vn 0 0 -1
vn 0 0 -1
vn 0 0 -1
vn 0 0 -1
vn 0 0 -1
vn 0.2792461 -0.9602196 0
vn 0 -1 0
vn 0.2792461 -0.9602196 0
vn 0 -1 0
vn -0.2823323 -0.9593166 0
vn -0.2823323 -0.9593166 0
vn 0 0 1
vn 0 0 1
vn 0 0 1
vn 0 0 1
vn 0 0 1
vn 0 0 1
vn 0.2792461 0.9602196 0
vn 0 1 0
vn 0.2792461 0.9602196 0
vn 0 1 0
vn -0.2823323 0.9593166 0
vn -0.2823323 0.9593166 0
vn -1 0 0
vn -1 0 0
vn -1 0 0
vn -1 0 0
vn 1 0 0
vn 1 0 0
vn 1 0 0
vn 1 0 0
vn 0 0 -1
vn 0 0 -1
vn 0 0 -1
vn 0 0 -1
vn 0 0 -1
vn 0 0 -1
vn 0 0 -1
vn 0 0 -1
vn 0 0 -1
vn 0 0 -1
vn 0 0 -1
g RotorBack_0
f 3/3/3 2/2/2 1/1/1
f 4/4/4 3/3/3 1/1/1
f 7/7/7 6/6/6 5/5/5
f 8/8/8 7/7/7 5/5/5
f 11/11/11 10/10/10 9/9/9
f 12/12/12 11/11/11 9/9/9
f 15/15/15 14/14/14 13/13/13
f 16/16/16 15/15/15 13/13/13
f 19/19/19 18/18/18 17/17/17
f 20/20/20 19/19/19 17/17/17
f 23/23/23 22/22/22 21/21/21
f 24/24/24 23/23/23 21/21/21
f 27/27/27 26/26/26 25/25/25
f 28/28/28 27/27/27 25/25/25
f 31/31/31 30/30/30 29/29/29
f 32/32/32 31/31/31 29/29/29
f 35/35/35 34/34/34 33/33/33
f 36/36/36 35/35/35 33/33/33
f 39/39/39 38/38/38 37/37/37
f 40/40/40 39/39/39 37/37/37
f 43/43/43 42/42/42 41/41/41
f 44/44/44 43/43/43 41/41/41
f 44/44/44 45/45/45 43/43/43
f 45/45/45 46/46/46 43/43/43
f 49/49/49 48/48/48 47/47/47
f 50/50/50 49/49/49 47/47/47
f 51/51/51 49/49/49 50/50/50
f 52/52/52 51/51/51 50/50/50
f 55/55/55 54/54/54 53/53/53
f 56/56/56 55/55/55 53/53/53
f 56/56/56 57/57/57 55/55/55
f 57/57/57 58/58/58 55/55/55
f 61/61/61 60/60/60 59/59/59
f 62/62/62 61/61/61 59/59/59
f 62/62/62 63/63/63 61/61/61
f 63/63/63 64/64/64 61/61/61
f 67/67/67 66/66/66 65/65/65
f 68/68/68 67/67/67 65/65/65
f 71/71/71 70/70/70 69/69/69
f 72/72/72 71/71/71 69/69/69
f 75/75/75 74/74/74 73/73/73
f 74/74/74 76/76/76 73/73/73
f 77/77/77 76/76/76 74/74/74
f 78/78/78 77/77/77 74/74/74
f 81/81/81 80/80/80 79/79/79
f 80/80/80 82/82/82 79/79/79
f 80/80/80 83/83/83 82/82/82
f 83/83/83 84/84/84 82/82/82
f 87/87/87 86/86/86 85/85/85
f 86/86/86 88/88/88 85/85/85
f 89/89/89 88/88/88 86/86/86
f 90/90/90 89/89/89 86/86/86
f 93/93/93 92/92/92 91/91/91
f 92/92/92 94/94/94 91/91/91
f 95/95/95 94/94/94 92/92/92
f 96/96/96 95/95/95 92/92/92
f 99/99/99 98/98/98 97/97/97
f 100/100/100 99/99/99 97/97/97
f 103/103/103 102/102/102 101/101/101
f 104/104/104 103/103/103 101/101/101
f 107/107/107 106/106/106 105/105/105
f 105/105/105 106/106/106 108/108/108
f 109/109/109 106/106/106 107/107/107
f 108/108/108 106/106/106 110/110/110
f 111/111/111 106/106/106 109/109/109
f 110/110/110 106/106/106 112/112/112
f 113/113/113 106/106/106 111/111/111
f 112/112/112 106/106/106 114/114/114
f 115/115/115 106/106/106 113/113/113
f 114/114/114 106/106/106 115/115/115
