g RotorRhBroken
v -1.341276 0.9755054 -1.839171
v -0.5114594 1.578401 -1.839171
v -0.5114594 1.578401 1.036844
v -1.341276 0.9755054 1.036844
v -1.658237 0 -1.839171
v -1.658237 0 1.036844
v -1.341276 -0.9755054 -1.839171
v -1.341276 -0.9755054 1.036844
v -0.5114618 -1.578401 -1.839171
v -0.5114618 -1.578401 1.036844
v 0.5142462 -1.578401 -1.839171
v 0.5142462 -1.578401 1.036844
v 1.344061 -0.9755054 -1.839171
v 1.344061 -0.9755054 1.036844
v 1.661021 0 -1.839171
v 0.001392193 0 1.036844
v -0.5114618 -1.578401 1.036844
v -1.341276 -0.9755054 1.036844
v -1.658237 0 1.036844
v -1.341276 0.9755054 1.036844
v -0.5114594 1.578401 1.036844
v 0.5142462 1.578401 1.036844
v 1.344061 0.9755054 1.036844
v 1.661021 0 1.036844
v 1.661021 0 1.036844
v 1.344061 0.9755054 -1.839171
v 1.344061 0.9755054 1.036844
v 0.5142462 1.578401 -1.839171
v 0.5142462 1.578401 1.036844
v -0.5114594 1.578401 -1.839171
v -0.5114594 1.578401 1.036844
v 4.196807 -0.5215991 3.291848
v 2.760462 1.259056 1.201999
v 4.196807 0.5215991 3.291848
v 2.760462 -1.259061 1.201999
v 0.7624615 -0.5215991 0.4890275
v 0.7624615 0.5215991 0.4890275
v 4.677203 0.5215991 2.961693
v 3.240857 -1.259061 0.871851
v 4.677203 -0.5215991 2.961693
v 3.240857 1.259056 0.871851
v 0.8810406 0.5215991 -0.08168292
v 0.8810406 -0.5215991 -0.08168292
v -3.141401 -0.5215991 3.825534
v -3.141401 0.5215991 3.825534
v -2.505556 1.259056 1.37071
v -2.505556 -1.259061 1.37071
v -1.163261 -0.5215991 0.2841594
v -1.163261 0.5215991 0.2841594
v -3.705668 0.5215991 3.679379
v -3.705668 -0.5215991 3.679379
v -3.069814 -1.259061 1.22454
v -3.069814 1.259056 1.22454
v -1.536196 0.5215991 -0.1638167
v -1.536196 -0.5215991 -0.1638167
v 0.7624615 -0.5215991 0.4890275
v 0.8810406 0.5215991 -0.08168292
v 0.7624615 0.5215991 0.4890275
v 2.760462 1.259056 1.201999
v 0.8810406 -0.5215991 -0.08168292
v 3.240857 1.259056 0.871851
v 2.760462 -1.259061 1.201999
v 3.240857 -1.259061 0.871851
v 4.196807 0.5215991 3.291848
v 4.677203 0.5215991 2.961693
v 4.677203 -0.5215991 2.961693
v 4.196807 -0.5215991 3.291848
v -1.163261 -0.5215991 0.2841594
v -1.163261 0.5215991 0.2841594
v -1.536196 0.5215991 -0.1638167
v -2.505556 1.259056 1.37071
v -1.536196 -0.5215991 -0.1638167
v -3.069814 1.259056 1.22454
v -2.505556 -1.259061 1.37071
v -3.069814 -1.259061 1.22454
v -3.141401 0.5215991 3.825534
v -3.705668 0.5215991 3.679379
v -3.705668 -0.5215991 3.679379
v -3.141401 -0.5215991 3.825534
vt 0.5780331 0.9269111
vt 0.5757039 0.9199945
vt 0.5950975 0.9134637
vt 0.5974267 0.9203804
vt 0.5803621 0.9338276
vt 0.5997558 0.927297
vt 0.5826913 0.9407442
vt 0.6020849 0.9342135
vt 0.5850204 0.9476609
vt 0.604414 0.9411301
vt 0.5873495 0.9545774
vt 0.6067433 0.9480467
vt 0.5896786 0.961494
vt 0.6090724 0.9549633
vt 0.5920078 0.9684106
vt 0.6185513 0.9479208
vt 0.6089243 0.9410821
vt 0.6147826 0.9367296
vt 0.6220806 0.9366516
vt 0.6280302 0.9408782
vt 0.6303594 0.9477949
vt 0.6281782 0.9547595
vt 0.6223199 0.959112
vt 0.6150221 0.9591899
vt 0.6114014 0.9618798
vt 0.5943369 0.9753271
vt 0.6137305 0.9687965
vt 0.5966661 0.9822437
vt 0.6160596 0.975713
vt 0.5989952 0.9891604
vt 0.6183889 0.9826296
vt 0.5704499 0.8926345
vt 0.5361755 0.9403673
vt 0.552456 0.8945488
vt 0.587522 0.9395677
vt 0.5711144 0.9861923
vt 0.5531418 0.9853218
vt 0.6372993 0.9891345
vt 0.6741485 0.9375757
vt 0.6586344 0.9893119
vt 0.6226489 0.9371468
vt 0.6381576 0.8860257
vt 0.6594929 0.8862033
vt 0.5550525 0.9852031
vt 0.5730158 0.9829137
vt 0.5883368 0.936736
vt 0.5369974 0.9386225
vt 0.5524266 0.891642
vt 0.5704143 0.8921399
vt 0.6595532 0.8854215
vt 0.6382098 0.8852263
vt 0.6226475 0.9369705
vt 0.6741673 0.9374412
vt 0.6586107 0.98857
vt 0.6372672 0.9883751
vt 0.6495971 0.9700883
vt 0.6328478 0.9750106
vt 0.6369271 0.9694745
vt 0.6249665 0.9377832
vt 0.6532149 0.9763685
vt 0.6169413 0.9380742
vt 0.6611639 0.9372194
vt 0.6696758 0.9374076
vt 0.6364436 0.9054828
vt 0.6317449 0.8989973
vt 0.6530061 0.8986402
vt 0.6491287 0.9041332
vt 0.6364229 0.9034336
vt 0.6491036 0.9037846
vt 0.6530683 0.8981614
vt 0.6617383 0.9352233
vt 0.6326765 0.8972254
vt 0.669758 0.9347585
vt 0.6255459 0.9365532
vt 0.6170281 0.9365373
vt 0.6509375 0.9677769
vt 0.655775 0.9741632
vt 0.6345102 0.9749653
vt 0.638274 0.9693909
vn -0.8090165 0.5877859 0
vn -0.3090168 0.9510565 0
vn -0.3010997 0.9266901 0.2249097
vn -0.7882892 0.5727267 0.2249095
vn -1 0 0
vn -0.9743795 0 0.2249097
vn -0.8090171 -0.5877851 0
vn -0.7882898 -0.5727258 0.2249096
vn -0.3090168 -0.9510565 0
vn -0.3010997 -0.9266902 0.2249096
vn 0.3090169 -0.9510565 0
vn 0.3010998 -0.9266901 0.2249097
vn 0.8090171 -0.587785 0
vn 0.7882899 -0.5727258 0.2249096
vn 1 0 0
vn 0 0 1
vn -0.3010997 -0.9266902 0.2249096
vn -0.7882898 -0.5727258 0.2249096
vn -0.9743795 0 0.2249097
vn -0.7882892 0.5727267 0.2249095
vn -0.3010997 0.9266901 0.2249097
vn 0.3011001 0.92669 0.2249096
vn 0.7882899 0.5727258 0.2249096
vn 0.9743795 0 0.2249097
vn 0.9743795 0 0.2249097
vn 0.8090171 0.587785 0
vn 0.7882899 0.5727258 0.2249096
vn 0.3090173 0.9510565 0
vn 0.3011001 0.92669 0.2249096
vn -0.3090168 0.9510565 0
vn -0.3010997 0.9266901 0.2249097
vn -0.6760226 -0.2627027 0.6884625
vn -0.5872389 0.4365212 0.6816156
vn -0.6760228 0.262703 0.6884623
vn -0.5872388 -0.4365216 0.6816154
vn -0.5133162 -0.2742517 0.8131989
vn -0.5133158 0.274252 0.8131991
vn 0.8849925 0.2626981 -0.3844187
vn 0.6109881 -0.3102247 -0.7283228
vn 0.8849927 -0.2626979 -0.3844185
vn 0.6109882 0.3102242 -0.728323
vn 0.2020012 0.1992024 -0.9589128
vn 0.202001 -0.1992022 -0.958913
vn 0.870574 -0.2626932 0.4160447
vn 0.870574 0.2626935 0.4160444
vn 0.8011411 0.4389096 0.4068553
vn 0.8011411 -0.4389101 0.406855
vn 0.7822023 -0.2507187 0.5703506
vn 0.782202 0.2507189 0.5703508
vn -0.9630799 0.2626912 -0.05890939
vn -0.96308 -0.2626909 -0.05890904
vn -0.8371999 -0.326305 -0.4388864
vn -0.8372 0.3263045 -0.4388869
vn -0.487848 0.2055909 -0.8483729
vn -0.4878479 -0.2055908 -0.8483731
vn -0.5133162 -0.2742517 0.8131989
vn 0.2020012 0.1992024 -0.9589128
vn -0.5133158 0.274252 0.8131991
vn -0.5872389 0.4365212 0.6816156
vn 0.202001 -0.1992022 -0.958913
vn 0.6109882 0.3102242 -0.728323
vn -0.5872388 -0.4365216 0.6816154
vn 0.6109881 -0.3102247 -0.7283228
vn -0.6760228 0.262703 0.6884623
vn 0.8849925 0.2626981 -0.3844187
vn 0.8849927 -0.2626979 -0.3844185
vn -0.6760226 -0.2627027 0.6884625
vn 0.7822023 -0.2507187 0.5703506
vn 0.782202 0.2507189 0.5703508
vn -0.487848 0.2055909 -0.8483729
vn 0.8011411 0.4389096 0.4068553
vn -0.4878479 -0.2055908 -0.8483731
vn -0.8372 0.3263045 -0.4388869
vn 0.8011411 -0.4389101 0.406855
vn -0.8371999 -0.326305 -0.4388864
vn 0.870574 0.2626935 0.4160444
vn -0.9630799 0.2626912 -0.05890939
vn -0.96308 -0.2626909 -0.05890904
vn 0.870574 -0.2626932 0.4160447
g RotorRhBroken_0
f 3/3/3 2/2/2 1/1/1
f 4/4/4 3/3/3 1/1/1
f 4/4/4 1/1/1 5/5/5
f 6/6/6 4/4/4 5/5/5
f 6/6/6 5/5/5 7/7/7
f 8/8/8 6/6/6 7/7/7
f 8/8/8 7/7/7 9/9/9
f 10/10/10 8/8/8 9/9/9
f 10/10/10 9/9/9 11/11/11
f 12/12/12 10/10/10 11/11/11
f 12/12/12 11/11/11 13/13/13
f 14/14/14 12/12/12 13/13/13
f 14/14/14 13/13/13 15/15/15
f 16/16/16 12/12/12 14/14/14
f 16/16/16 17/17/17 12/12/12
f 16/16/16 18/18/18 17/17/17
f 16/16/16 19/19/19 18/18/18
f 16/16/16 20/20/20 19/19/19
f 16/16/16 21/21/21 20/20/20
f 16/16/16 22/22/22 21/21/21
f 16/16/16 23/23/23 22/22/22
f 16/16/16 24/24/24 23/23/23
f 16/16/16 14/14/14 24/24/24
f 25/25/25 14/14/14 15/15/15
f 25/25/25 15/15/15 26/26/26
f 27/27/27 25/25/25 26/26/26
f 27/27/27 26/26/26 28/28/28
f 29/29/29 27/27/27 28/28/28
f 29/29/29 28/28/28 30/30/30
f 31/31/31 29/29/29 30/30/30
f 34/34/34 33/33/33 32/32/32
f 33/33/33 35/35/35 32/32/32
f 36/36/36 35/35/35 33/33/33
f 37/37/37 36/36/36 33/33/33
f 40/40/40 39/39/39 38/38/38
f 39/39/39 41/41/41 38/38/38
f 42/42/42 41/41/41 39/39/39
f 43/43/43 42/42/42 39/39/39
f 46/46/46 45/45/45 44/44/44
f 47/47/47 46/46/46 44/44/44
f 47/47/47 48/48/48 46/46/46
f 48/48/48 49/49/49 46/46/46
f 52/52/52 51/51/51 50/50/50
f 53/53/53 52/52/52 50/50/50
f 53/53/53 54/54/54 52/52/52
f 54/54/54 55/55/55 52/52/52
f 58/58/58 57/57/57 56/56/56
f 57/57/57 58/58/58 59/59/59
f 57/57/57 60/60/60 56/56/56
f 61/61/61 57/57/57 59/59/59
f 56/56/56 60/60/60 62/62/62
f 60/60/60 63/63/63 62/62/62
f 61/61/61 59/59/59 64/64/64
f 65/65/65 61/61/61 64/64/64
f 62/62/62 63/63/63 66/66/66
f 65/65/65 64/64/64 66/66/66
f 67/67/67 62/62/62 66/66/66
f 64/64/64 67/67/67 66/66/66
f 70/70/70 69/69/69 68/68/68
f 69/69/69 70/70/70 71/71/71
f 72/72/72 70/70/70 68/68/68
f 70/70/70 73/73/73 71/71/71
f 72/72/72 68/68/68 74/74/74
f 75/75/75 72/72/72 74/74/74
f 71/71/71 73/73/73 76/76/76
f 73/73/73 77/77/77 76/76/76
f 75/75/75 74/74/74 78/78/78
f 76/76/76 77/77/77 78/78/78
f 74/74/74 79/79/79 78/78/78
f 79/79/79 76/76/76 78/78/78
