g RotorLH
v 5.80929 0.5215988 0.4967185
v 3.273433 -1.259062 0.4967185
v 5.80929 -0.5215994 0.4967185
v 3.273433 1.259056 0.4967185
v 0.7676569 0.5215988 0.4967185
v 0.7676569 -0.5215994 0.4967185
v 1.342669 0.9755051 -1.438007
v 0.5128546 1.5784 1.438007
v 0.5128546 1.5784 -1.438007
v 1.342669 0.9755051 1.438007
v 1.659629 -2.804994E-07 -1.438007
v 1.659629 -2.804994E-07 1.438007
v 1.342669 -0.9755057 -1.438007
v 1.342669 -0.9755057 1.438007
v 0.5128546 -1.578401 -1.438007
v 0.5128546 -1.578401 1.438007
v -0.5128534 -1.578401 -1.438007
v -0.5128534 -1.578401 1.438007
v -1.342668 -0.9755057 -1.438007
v -1.342668 -0.9755057 1.438007
v -1.659631 -2.804994E-07 -1.438007
v 6.234145E-07 -2.804994E-07 1.438007
v 0.5128546 -1.578401 1.438007
v 1.342669 -0.9755057 1.438007
v 1.659629 -2.804994E-07 1.438007
v 1.342669 0.9755051 1.438007
v 0.5128546 1.5784 1.438007
v -0.5128534 1.5784 1.438007
v -1.342668 0.9755051 1.438007
v -1.659631 -2.804994E-07 1.438007
v -1.659631 -2.804994E-07 1.438007
v -1.342668 0.9755051 -1.438007
v -1.342668 0.9755051 1.438007
v -0.5128534 1.5784 -1.438007
v -0.5128534 1.5784 1.438007
v 0.5128546 1.5784 -1.438007
v 0.5128546 1.5784 1.438007
v -5.809289 0.5215988 0.4967185
v -5.809289 -0.5215994 0.4967185
v -3.273434 -1.259062 0.4967185
v -3.273434 1.259056 0.4967185
v -0.7676556 0.5215988 0.4967185
v -0.7676556 -0.5215994 0.4967185
v 5.80929 0.5215988 1.079612
v 3.273433 1.259056 0.4967185
v 5.80929 0.5215988 0.4967185
v 5.80929 -0.5215994 0.4967185
v 3.273433 1.259056 1.079612
v 0.7676569 0.5215988 0.4967185
v 5.80929 -0.5215994 1.079612
v 3.273433 -1.259062 1.079612
v 3.273433 -1.259062 0.4967185
v 0.7676569 -0.5215994 0.4967185
v 0.7676569 -0.5215994 1.079612
v 0.7676569 0.5215988 1.079612
v -5.809289 0.5215988 1.079612
v -5.809289 0.5215988 0.4967185
v -3.273434 1.259056 0.4967185
v -5.809289 -0.5215994 0.4967185
v -3.273434 1.259056 1.079612
v -0.7676556 0.5215988 0.4967185
v -5.809289 -0.5215994 1.079612
v -3.273434 -1.259062 1.079612
v -3.273434 -1.259062 0.4967185
v -0.7676556 -0.5215994 0.4967185
v -0.7676556 -0.5215994 1.079612
v -0.7676556 0.5215988 1.079612
vt 0.2770193 0.9078966
vt 0.3140007 0.9593913
vt 0.269986 0.9280488
vt 0.3309777 0.9107467
vt 0.3744113 0.9418864
vt 0.3673783 0.9620388
vt 0.3093485 0.9614123
vt 0.3017219 0.9410687
vt 0.3020512 0.9615298
vt 0.3090193 0.9409512
vt 0.3166458 0.9612949
vt 0.3163166 0.9408338
vt 0.323943 0.9611776
vt 0.3236138 0.9407164
vt 0.3312404 0.96106
vt 0.3309111 0.9405991
vt 0.3385376 0.9609427
vt 0.3382084 0.9404815
vt 0.3458349 0.9608253
vt 0.3455057 0.9403642
vt 0.3531322 0.9607077
vt 0.3416763 0.9291935
vt 0.3322357 0.9362875
vt 0.3298691 0.9293835
vt 0.3320124 0.922407
vt 0.3378469 0.9180229
vt 0.3451442 0.9179055
vt 0.3511168 0.9220997
vt 0.3534835 0.9290034
vt 0.3513403 0.9359799
vt 0.3528028 0.9402467
vt 0.3604294 0.9605904
vt 0.3601003 0.9401292
vt 0.3677267 0.9604729
vt 0.3673975 0.9400119
vt 0.375024 0.9603555
vt 0.3746947 0.9398944
vt 0.3681078 0.9622521
vt 0.3751217 0.942102
vt 0.331099 0.9108077
vt 0.3141682 0.9594466
vt 0.2707265 0.9283547
vt 0.2777404 0.9082046
vt 0.2786484 0.9554155
vt 0.3288169 0.9751526
vt 0.2706617 0.9635004
vt 0.2652293 0.9338075
vt 0.3265404 0.9639872
vt 0.3768188 0.9443095
vt 0.2738181 0.9379631
vt 0.317344 0.913443
vt 0.3156414 0.901481
vt 0.3740036 0.91549
vt 0.3660459 0.9220073
vt 0.3681211 0.9398819
vt 0.281094 0.957699
vt 0.273351 0.9660118
vt 0.3317893 0.975937
vt 0.2670429 0.9365155
vt 0.3291911 0.9648461
vt 0.3788547 0.943701
vt 0.2757486 0.9404112
vt 0.318513 0.9146159
vt 0.3164482 0.9027168
vt 0.3751782 0.9149804
vt 0.3674254 0.9217325
vt 0.370034 0.939536
vn 0.1844623 0.2626954 -0.9470822
vn 0 -0.3712161 -0.9285465
vn 0.1844626 -0.2626951 -0.9470822
vn 0 0.3712157 -0.9285467
vn -0.1863103 0.2621799 -0.9468634
vn -0.1863107 -0.2621797 -0.9468634
vn 0.8090171 0.5877851 0
vn 0.3010997 0.9266901 0.2249097
vn 0.3090169 0.9510565 0
vn 0.7882898 0.5727257 0.2249097
vn 1 0 0
vn 0.9743795 0 0.2249097
vn 0.8090171 -0.5877851 0
vn 0.7882898 -0.5727257 0.2249097
vn 0.3090169 -0.9510565 0
vn 0.3010997 -0.9266901 0.2249097
vn -0.3090169 -0.9510565 0
vn -0.3010997 -0.9266901 0.2249097
vn -0.8090165 -0.5877859 0
vn -0.7882892 -0.5727265 0.2249099
vn -1 0 0
vn 0 0 1
vn 0.3010997 -0.9266901 0.2249097
vn 0.7882898 -0.5727257 0.2249097
vn 0.9743795 0 0.2249097
vn 0.7882898 0.5727257 0.2249097
vn 0.3010997 0.9266901 0.2249097
vn -0.3010997 0.9266901 0.2249097
vn -0.7882892 0.5727265 0.2249098
vn -0.9743797 0 0.2249096
vn -0.9743797 0 0.2249096
vn -0.8090165 0.5877859 0
vn -0.7882892 0.5727265 0.2249098
vn -0.3090169 0.9510565 0
vn -0.3010997 0.9266901 0.2249097
vn 0.3090169 0.9510565 0
vn 0.3010997 0.9266901 0.2249097
vn -0.1844625 0.2626953 -0.9470822
vn -0.1844628 -0.2626951 -0.9470822
vn 0 -0.371216 -0.9285465
vn 0 0.3712157 -0.9285467
vn 0.1863103 0.26218 -0.9468634
vn 0.1863106 -0.2621797 -0.9468634
vn 0.1844622 0.2626954 0.9470822
vn 0 0.3712157 -0.9285467
vn 0.1844623 0.2626954 -0.9470822
vn 0.1844626 -0.2626951 -0.9470822
vn 0 0.3712157 0.9285467
vn -0.1863103 0.2621799 -0.9468634
vn 0.1844626 -0.2626952 0.9470823
vn 0 -0.3712161 0.9285465
vn 0 -0.3712161 -0.9285465
vn -0.1863107 -0.2621797 -0.9468634
vn -0.1863107 -0.2621797 0.9468634
vn -0.1863103 0.2621799 0.9468634
vn -0.1844624 0.2626954 0.9470822
vn -0.1844625 0.2626953 -0.9470822
vn 0 0.3712157 -0.9285467
vn -0.1844628 -0.2626951 -0.9470822
vn 0 0.3712157 0.9285467
vn 0.1863103 0.26218 -0.9468634
vn -0.1844628 -0.2626951 0.9470822
vn 0 -0.371216 0.9285465
vn 0 -0.371216 -0.9285465
vn 0.1863106 -0.2621797 -0.9468634
vn 0.1863105 -0.2621797 0.9468634
vn 0.1863102 0.26218 0.9468634
g RotorLH_0
f 3/3/3 2/2/2 1/1/1
f 2/2/2 4/4/4 1/1/1
f 5/5/5 4/4/4 2/2/2
f 6/6/6 5/5/5 2/2/2
f 9/9/9 8/8/8 7/7/7
f 8/8/8 10/10/10 7/7/7
f 7/7/7 10/10/10 11/11/11
f 10/10/10 12/12/12 11/11/11
f 11/11/11 12/12/12 13/13/13
f 12/12/12 14/14/14 13/13/13
f 13/13/13 14/14/14 15/15/15
f 14/14/14 16/16/16 15/15/15
f 15/15/15 16/16/16 17/17/17
f 16/16/16 18/18/18 17/17/17
f 17/17/17 18/18/18 19/19/19
f 18/18/18 20/20/20 19/19/19
f 19/19/19 20/20/20 21/21/21
f 18/18/18 22/22/22 20/20/20
f 23/23/23 22/22/22 18/18/18
f 24/24/24 22/22/22 23/23/23
f 25/25/25 22/22/22 24/24/24
f 26/26/26 22/22/22 25/25/25
f 27/27/27 22/22/22 26/26/26
f 28/28/28 22/22/22 27/27/27
f 29/29/29 22/22/22 28/28/28
f 30/30/30 22/22/22 29/29/29
f 20/20/20 22/22/22 30/30/30
f 20/20/20 31/31/31 21/21/21
f 21/21/21 31/31/31 32/32/32
f 31/31/31 33/33/33 32/32/32
f 32/32/32 33/33/33 34/34/34
f 33/33/33 35/35/35 34/34/34
f 34/34/34 35/35/35 36/36/36
f 35/35/35 37/37/37 36/36/36
f 40/40/40 39/39/39 38/38/38
f 41/41/41 40/40/40 38/38/38
f 41/41/41 42/42/42 40/40/40
f 42/42/42 43/43/43 40/40/40
f 46/46/46 45/45/45 44/44/44
f 46/46/46 44/44/44 47/47/47
f 45/45/45 48/48/48 44/44/44
f 45/45/45 49/49/49 48/48/48
f 44/44/44 50/50/50 47/47/47
f 44/44/44 48/48/48 50/50/50
f 50/50/50 51/51/51 47/47/47
f 48/48/48 51/51/51 50/50/50
f 51/51/51 52/52/52 47/47/47
f 53/53/53 52/52/52 51/51/51
f 54/54/54 53/53/53 51/51/51
f 49/49/49 53/53/53 54/54/54
f 54/54/54 51/51/51 48/48/48
f 55/55/55 49/49/49 54/54/54
f 49/49/49 55/55/55 48/48/48
f 55/55/55 54/54/54 48/48/48
f 58/58/58 57/57/57 56/56/56
f 56/56/56 57/57/57 59/59/59
f 60/60/60 58/58/58 56/56/56
f 61/61/61 58/58/58 60/60/60
f 62/62/62 56/56/56 59/59/59
f 60/60/60 56/56/56 62/62/62
f 63/63/63 62/62/62 59/59/59
f 63/63/63 60/60/60 62/62/62
f 64/64/64 63/63/63 59/59/59
f 64/64/64 65/65/65 63/63/63
f 65/65/65 66/66/66 63/63/63
f 65/65/65 61/61/61 66/66/66
f 63/63/63 66/66/66 60/60/60
f 61/61/61 67/67/67 66/66/66
f 67/67/67 61/61/61 60/60/60
f 66/66/66 67/67/67 60/60/60
