g RotorFrontLvl5
v 4.355253 3.19992 -2.553889
v 4.355253 3.128028 2.641454
v 1.663558 5.083471 2.668513
v 1.663558 5.155364 -2.526829
v -1.663559 5.08347 2.668513
v -1.663559 5.155363 -2.526829
v -1.663559 5.155363 -2.526829
v -1.663559 5.08347 2.668513
v -4.355254 3.128027 2.641454
v -4.355254 3.19992 -2.553889
v -5.383389 -0.03594682 2.597671
v -5.383389 0.0359458 -2.597672
v -5.383389 0.0359458 -2.597672
v -5.383389 -0.03594682 2.597671
v -4.355253 -3.199921 2.553888
v -4.355253 -3.128028 -2.641454
v -1.663558 -5.155364 2.526829
v -1.663558 -5.083471 -2.668514
v 1.663559 -5.155363 2.526829
v 1.663559 -5.08347 -2.668514
v 4.355253 -3.19992 2.553888
v 4.355253 -3.128027 -2.641454
v 5.383389 -0.0359465 2.597671
v 5.383389 0.03594612 -2.597672
v 5.383389 0.03594612 -2.597672
v 5.383389 -0.0359465 2.597671
v 4.355253 3.128028 2.641454
v 4.355253 3.19992 -2.553889
v -19.91151 1.453908 -0.2999142
v -19.91151 -1.445053 -0.3400297
v -11.21983 -3.494382 -0.3683881
v -11.21983 3.503237 -0.2715558
v -2.63125 1.453908 -0.2999142
v -2.63125 -1.445053 -0.3400297
v 19.91151 1.453908 -0.2999142
v 11.21983 -3.494382 -0.3683881
v 19.91151 -1.445053 -0.3400297
v 11.21983 3.503237 -0.2715558
v 2.63125 1.453908 -0.2999142
v 2.63125 -1.445053 -0.3400297
v -19.91151 1.431492 1.319945
v -19.91151 1.453908 -0.2999142
v -11.21983 3.503237 -0.2715558
v -19.91151 -1.445053 -0.3400297
v -11.21983 3.480822 1.348304
v -2.63125 1.453908 -0.2999142
v -19.91151 -1.467468 1.27983
v -11.21983 -3.516797 1.251471
v -11.21983 -3.494382 -0.3683881
v -2.63125 -1.445053 -0.3400297
v -2.63125 -1.467468 1.27983
v -2.63125 1.431492 1.319945
v 19.91151 1.431492 1.319945
v 11.21983 3.503237 -0.2715558
v 19.91151 1.453908 -0.2999142
v 19.91151 -1.445053 -0.3400297
v 11.21983 3.480822 1.348304
v 2.63125 1.453908 -0.2999142
v 19.91151 -1.467468 1.27983
v 11.21983 -3.516797 1.251471
v 11.21983 -3.494382 -0.3683881
v 2.63125 -1.445053 -0.3400297
v 2.63125 -1.467468 1.27983
v 2.63125 1.431492 1.319945
v 4.355253 3.128028 2.641454
v 4.529953E-08 -0.0359465 2.597671
v 1.663558 5.083471 2.668513
v 5.383389 -0.0359465 2.597671
v -1.663559 5.08347 2.668513
v 4.355253 -3.19992 2.553888
v -4.355254 3.128027 2.641454
v 1.663559 -5.155363 2.526829
v -5.383389 -0.03594682 2.597671
v -1.663558 -5.155364 2.526829
v -4.355253 -3.199921 2.553888
vt 0.3021056 0.9036792
vt 0.3029135 0.9036921
vt 0.2804151 0.9033346
vt 0.2757065 0.9032598
vt 0.2784939 0.903304
vt 0.2717113 0.9031963
vt 0.2717113 0.9031963
vt 0.2784939 0.903304
vt 0.2978844 0.9036121
vt 0.2916172 0.9035125
vt 0.3311558 0.9041408
vt 0.3278101 0.9040877
vt 0.3278101 0.9040877
vt 0.3311558 0.9041408
vt 0.3656099 0.9046882
vt 0.3664624 0.9047018
vt 0.3880952 0.9050456
vt 0.3928305 0.9051208
vt 0.3900252 0.9050763
vt 0.3968579 0.9051848
vt 0.370659 0.9047686
vt 0.3770008 0.9048693
vt 0.3373854 0.9042398
vt 0.3408185 0.9042944
vt 0.3408185 0.9042944
vt 0.3373854 0.9042398
vt 0.3029135 0.9036921
vt 0.3021056 0.9036792
vt 0.2389007 0.9428615
vt 0.2423019 0.9676244
vt 0.3189045 0.9751614
vt 0.3105564 0.9150093
vt 0.3855036 0.9205721
vt 0.390465 0.9495801
vt 0.3893059 0.945519
vt 0.3079491 0.9743263
vt 0.3848325 0.970117
vt 0.3189132 0.9145832
vt 0.2438157 0.916864
vt 0.2375192 0.9456239
vt 0.3887682 0.9463371
vt 0.4009322 0.9391907
vt 0.3279634 0.8925315
vt 0.394638 0.9819037
vt 0.3256559 0.9085593
vt 0.2481216 0.9102342
vt 0.387015 0.9716455
vt 0.3145798 0.9803094
vt 0.3114346 0.9969777
vt 0.239409 0.9431592
vt 0.25082 0.9399415
vt 0.2559139 0.9189009
vt 0.2519525 0.9452678
vt 0.312823 0.8908106
vt 0.239793 0.938251
vt 0.2460372 0.9809024
vt 0.3151186 0.9068156
vt 0.3926187 0.9076132
vt 0.2536777 0.9705628
vt 0.3261273 0.9784627
vt 0.3292488 0.9951029
vt 0.4013925 0.9404224
vt 0.3899651 0.9373512
vt 0.3848518 0.9163859
vt 0.7963055 0.96658
vt 0.7478334 0.9352435
vt 0.7686076 0.9890812
vt 0.8054619 0.9321038
vt 0.7329659 0.9910028
vt 0.7926058 0.8988261
vt 0.7030236 0.9716097
vt 0.7626532 0.8794574
vt 0.6901946 0.9383341
vt 0.7270426 0.8813877
vt 0.6993685 0.9038758
vn 0.8090171 0.5877289 0.008132939
vn 0.7473749 0.5376501 0.3903373
vn 0.2854716 0.8732102 0.3949808
vn 0.3090169 0.9509656 0.01315942
vn -0.2854718 0.8732102 0.3949808
vn -0.3090171 0.9509655 0.01315942
vn -0.3090171 0.9509655 0.01315942
vn -0.2854718 0.8732102 0.3949808
vn -0.747375 0.53765 0.3903373
vn -0.8090171 0.5877289 0.008132945
vn -0.9238061 -0.005297526 0.3828242
vn -1 0 0
vn -1 0 0
vn -0.9238061 -0.005297526 0.3828242
vn -0.7473748 -0.548245 0.3753109
vn -0.809017 -0.5877289 -0.008132948
vn -0.2854717 -0.8838052 0.3706674
vn -0.3090169 -0.9509656 -0.01315942
vn 0.2854718 -0.8838051 0.3706674
vn 0.309017 -0.9509655 -0.01315942
vn 0.7473748 -0.5482451 0.3753108
vn 0.809017 -0.587729 -0.00813295
vn 0.9238061 -0.005297563 0.3828241
vn 1 0 0
vn 1 0 0
vn 0.9238061 -0.005297563 0.3828241
vn 0.7473749 0.5376501 0.3903373
vn 0.8090171 0.5877289 0.008132939
vn -0.154335 0.2841839 -0.9462665
vn -0.154335 -0.2578915 -0.9537676
vn 0 -0.3458095 -0.9383048
vn 0 0.3716403 -0.9283767
vn 0.1559335 0.2837411 -0.9461372
vn 0.1559335 -0.2574524 -0.9536263
vn 0.154335 0.2841839 -0.9462665
vn 0 -0.3458095 -0.9383048
vn 0.154335 -0.2578914 -0.9537677
vn 0 0.3716403 -0.9283767
vn -0.1559335 0.2837411 -0.9461372
vn -0.1559335 -0.2574524 -0.9536263
vn -0.154335 0.2578915 0.9537676
vn -0.154335 0.2841839 -0.9462665
vn 0 0.3716403 -0.9283767
vn -0.154335 -0.2578915 -0.9537676
vn 0 0.3458094 0.9383048
vn 0.1559335 0.2837411 -0.9461372
vn -0.154335 -0.2841839 0.9462665
vn 0 -0.3716404 0.9283767
vn 0 -0.3458095 -0.9383048
vn 0.1559335 -0.2574524 -0.9536263
vn 0.1559335 -0.2837411 0.9461372
vn 0.1559336 0.2574524 0.9536263
vn 0.154335 0.2578915 0.9537676
vn 0 0.3716403 -0.9283767
vn 0.154335 0.2841839 -0.9462665
vn 0.154335 -0.2578914 -0.9537677
vn 0 0.3458094 0.9383048
vn -0.1559335 0.2837411 -0.9461372
vn 0.154335 -0.2841839 0.9462665
vn 0 -0.3716404 0.9283767
vn 0 -0.3458095 -0.9383048
vn -0.1559335 -0.2574524 -0.9536263
vn -0.1559335 -0.2837411 0.9461372
vn -0.1559336 0.2574525 0.9536263
vn 0.7473749 0.5376501 0.3903373
vn 0 -0.01383658 0.9999043
vn 0.2854716 0.8732102 0.3949808
vn 0.9238061 -0.005297563 0.3828241
vn -0.2854718 0.8732102 0.3949808
vn 0.7473748 -0.5482451 0.3753108
vn -0.747375 0.53765 0.3903373
vn 0.2854718 -0.8838051 0.3706674
vn -0.9238061 -0.005297526 0.3828242
vn -0.2854717 -0.8838052 0.3706674
vn -0.7473748 -0.548245 0.3753109
g RotorFrontLvl5_0
f 3/3/3 2/2/2 1/1/1
f 4/4/4 3/3/3 1/1/1
f 5/5/5 3/3/3 4/4/4
f 6/6/6 5/5/5 4/4/4
f 9/9/9 8/8/8 7/7/7
f 10/10/10 9/9/9 7/7/7
f 11/11/11 9/9/9 10/10/10
f 12/12/12 11/11/11 10/10/10
f 15/15/15 14/14/14 13/13/13
f 16/16/16 15/15/15 13/13/13
f 17/17/17 15/15/15 16/16/16
f 18/18/18 17/17/17 16/16/16
f 19/19/19 17/17/17 18/18/18
f 20/20/20 19/19/19 18/18/18
f 21/21/21 19/19/19 20/20/20
f 22/22/22 21/21/21 20/20/20
f 23/23/23 21/21/21 22/22/22
f 24/24/24 23/23/23 22/22/22
f 27/27/27 26/26/26 25/25/25
f 28/28/28 27/27/27 25/25/25
f 31/31/31 30/30/30 29/29/29
f 32/32/32 31/31/31 29/29/29
f 32/32/32 33/33/33 31/31/31
f 33/33/33 34/34/34 31/31/31
f 37/37/37 36/36/36 35/35/35
f 36/36/36 38/38/38 35/35/35
f 39/39/39 38/38/38 36/36/36
f 40/40/40 39/39/39 36/36/36
f 43/43/43 42/42/42 41/41/41
f 41/41/41 42/42/42 44/44/44
f 45/45/45 43/43/43 41/41/41
f 46/46/46 43/43/43 45/45/45
f 47/47/47 41/41/41 44/44/44
f 45/45/45 41/41/41 47/47/47
f 48/48/48 47/47/47 44/44/44
f 48/48/48 45/45/45 47/47/47
f 49/49/49 48/48/48 44/44/44
f 49/49/49 50/50/50 48/48/48
f 50/50/50 51/51/51 48/48/48
f 50/50/50 46/46/46 51/51/51
f 48/48/48 51/51/51 45/45/45
f 46/46/46 52/52/52 51/51/51
f 52/52/52 46/46/46 45/45/45
f 51/51/51 52/52/52 45/45/45
f 55/55/55 54/54/54 53/53/53
f 55/55/55 53/53/53 56/56/56
f 54/54/54 57/57/57 53/53/53
f 54/54/54 58/58/58 57/57/57
f 53/53/53 59/59/59 56/56/56
f 53/53/53 57/57/57 59/59/59
f 59/59/59 60/60/60 56/56/56
f 57/57/57 60/60/60 59/59/59
f 60/60/60 61/61/61 56/56/56
f 62/62/62 61/61/61 60/60/60
f 63/63/63 62/62/62 60/60/60
f 58/58/58 62/62/62 63/63/63
f 63/63/63 60/60/60 57/57/57
f 64/64/64 58/58/58 63/63/63
f 58/58/58 64/64/64 57/57/57
f 64/64/64 63/63/63 57/57/57
f 67/67/67 66/66/66 65/65/65
f 65/65/65 66/66/66 68/68/68
f 69/69/69 66/66/66 67/67/67
f 68/68/68 66/66/66 70/70/70
f 71/71/71 66/66/66 69/69/69
f 70/70/70 66/66/66 72/72/72
f 73/73/73 66/66/66 71/71/71
f 72/72/72 66/66/66 74/74/74
f 75/75/75 66/66/66 73/73/73
f 74/74/74 66/66/66 75/75/75
