g Sand
v 4.666692 -2.316497 -14.3626
v 8.975185 -3.383836 -14.57222
v 12.57413 -3.523779 -13.3701
v 12.21756 -1.785355 -8.876575
v 15.6575 -3.523779 -10.62609
v 12.21756 -1.785355 -8.876575
v 15.6575 -3.523779 -10.62609
v 16.93917 -3.383836 -7.292607
v 15.10173 -2.316497 -1.220703E-06
v 16.84291 -3.523779 -3.159797
v -3.313894 -3.064873 -15.67546
v -1.71137 -3.523779 -16.84041
v 1.412194 -3.523779 -16.84041
v 3.017976 -3.064873 -15.75023
v 4.666692 -2.316497 -14.3626
v -4.66669 -2.316497 -14.3626
v -13.46042 -2.316497 -9.530713
v -11.57595 -3.16224 -12.65668
v -8.505279 -3.16224 -14.17805
v -4.66669 -2.316497 -14.3626
v -16.34459 -2.316497 -0.6541388
v -18.12073 -3.095837 -2.466699
v -16.11851 -3.095837 -8.628912
v -13.46042 -2.316497 -9.530713
v -18.12073 -3.095837 -2.466699
v -18.28021 -3.444158 -5.279725
v -17.64285 -3.444158 -7.241331
v -16.11851 -3.095837 -8.628912
v 12.21756 -1.785355 -8.876575
v 9.804995 -0.1290753 -7.123745
v 3.745174 -0.1290753 -11.52646
v 4.666692 -2.316497 -14.3626
v 15.10173 -2.316497 -1.220703E-06
v -3.745173 -0.1290753 -11.52646
v -4.66669 -2.316497 -14.3626
v 12.11964 -0.1290753 -1.220703E-06
v 12.21756 -2.316497 8.876574
v -9.804993 -0.1290753 -7.123741
v -13.46042 -2.316497 -9.530713
v 9.804994 -0.1290753 7.123743
v 4.666694 -2.316497 14.3626
v -12.11963 -0.1290753 0
v -16.34459 -2.316497 -0.6541388
v 3.745176 -0.1290753 11.52645
v -4.66669 -2.316497 14.3626
v -9.804992 -0.1290753 7.123743
v -12.21756 -2.316497 8.876575
v -3.745171 -0.1290753 11.52646
v -6.059816 1.640539 -4.402715
v -7.490346 1.640539 -6.103515E-07
v 1.733601E-06 2.316497 -1.220703E-06
v -2.314643 1.640539 -7.123742
v -6.059815 1.640539 4.402712
v -2.314642 1.640539 7.123743
v 2.314645 1.640539 -7.123744
v 2.314646 1.640539 7.123743
v 6.059819 1.640539 -4.402715
v 6.059819 1.640539 4.402712
v 7.490347 1.640539 -1.220703E-06
vt 0.5846661 0.156248
vt 0.4844696 0.07570255
vt 0.3831196 0.04346856
vt 0.3230397 0.1557182
vt 0.2679585 0.05465823
vt 0.3230397 0.1557182
vt 0.2679585 0.05465823
vt 0.1838464 0.1089543
vt 0.1110316 0.3090346
vt 0.11772 0.2041078
vt 0.7809339 0.2537232
vt 0.7639059 0.2008783
vt 0.6931871 0.1492818
vt 0.6388133 0.1474375
vt 0.5846661 0.156248
vt 0.795978 0.3104213
vt 0.9152122 0.5650706
vt 0.9182013 0.4587871
vt 0.8738245 0.3736216
vt 0.795978 0.3104213
vt 0.8338019 0.8136711
vt 0.8979613 0.7975898
vt 0.9544771 0.6250087
vt 0.9152122 0.5650706
vt 0.8979613 0.7975898
vt 0.9480647 0.7365396
vt 0.9660553 0.6816022
vt 0.9544771 0.6250087
vt 0.3230397 0.1557182
vt 0.3493082 0.2367048
vt 0.559272 0.2371299
vt 0.5846661 0.156248
vt 0.1110316 0.3090346
vt 0.7288569 0.3608591
vt 0.795978 0.3104213
vt 0.1791648 0.3597463
vt 0.02962143 0.5576353
vt 0.7932872 0.5606322
vt 0.9152122 0.5650706
vt 0.1138304 0.5592566
vt 0.1099051 0.8065631
vt 0.7279528 0.7601423
vt 0.8338019 0.8136711
vt 0.1782608 0.7590293
vt 0.3212171 0.9607366
vt 0.5578094 0.8831837
vt 0.5828434 0.9612663
vt 0.3478456 0.8827585
vt 0.6640218 0.5615438
vt 0.623643 0.684848
vt 0.4542489 0.5615675
vt 0.6242016 0.4380775
vt 0.5184886 0.7608917
vt 0.3887239 0.760629
vt 0.5193924 0.3616086
vt 0.2839146 0.6841601
vt 0.3896278 0.3613459
vt 0.2440945 0.5606937
vt 0.2844734 0.4373896
vn 0.1841441 0.91856 -0.3497692
vn 0.1905873 0.8616965 -0.4702717
vn 0.2056765 0.9170952 -0.3415168
vn 0.2131144 0.9167849 -0.3377686
vn 0.2894929 0.9002094 -0.3252951
vn 0.3442426 0.9352661 -0.08230726
vn 0.369119 0.9117458 -0.180196
vn 0.3517266 0.9332857 -0.07256879
vn 0.3671655 0.929139 -0.04347748
vn 0.6184751 0.7847353 0.04097698
vn -0.002532087 0.8927314 -0.4505821
vn -0.002532088 0.8927314 -0.4505821
vn -0.002532087 0.8927314 -0.4505821
vn -0.002532087 0.8927314 -0.4505821
vn -0.002532088 0.8927314 -0.4505821
vn -0.002532087 0.8927314 -0.4505821
vn -0.2046751 0.9011188 -0.382221
vn -0.2046752 0.9011188 -0.382221
vn -0.2046752 0.9011188 -0.3822211
vn -0.2046752 0.9011188 -0.382221
vn -0.3113613 0.9448912 -0.1011674
vn -0.3113613 0.9448912 -0.1011674
vn -0.3113613 0.9448912 -0.1011674
vn -0.3113613 0.9448912 -0.1011674
vn -0.3070953 0.9464334 -0.0997813
vn -0.3070953 0.9464334 -0.09978129
vn -0.3070953 0.9464334 -0.09978129
vn -0.3070953 0.9464334 -0.0997813
vn 0.4335359 0.8442943 -0.3149823
vn 0.3757744 0.8855821 -0.273016
vn 0.1366091 0.8735605 -0.4671509
vn 0.1510119 0.8211016 -0.5504431
vn 0.5701678 0.8211016 0.02647547
vn -0.1392272 0.8755428 -0.4626453
vn -0.1609167 0.8317823 -0.5312665
vn 0.4865015 0.8735604 0.01443465
vn 0.4785019 0.8063337 0.347652
vn -0.3419971 0.9006403 -0.2681139
vn -0.3768164 0.8822025 -0.2823618
vn 0.4054486 0.8653535 0.2945757
vn 0.1827714 0.8063338 0.5625126
vn -0.4414054 0.8970789 0.02026906
vn -0.4762054 0.8793155 -0.005730706
vn 0.1548676 0.8653535 0.4766333
vn -0.1827713 0.8063338 0.5625125
vn -0.3908455 0.8728963 0.2920476
vn -0.4522187 0.826248 0.3358757
vn -0.1548675 0.8653536 0.4766332
vn -0.2298363 0.9587967 -0.1669859
vn -0.2840933 0.9587967 0
vn 0 1 0
vn -0.08778969 0.9587967 -0.2701887
vn -0.2298362 0.9587967 0.1669858
vn -0.08778968 0.9587967 0.2701887
vn 0.08778961 0.9587967 -0.2701887
vn 0.08778971 0.9587967 0.2701887
vn 0.2298362 0.9587967 -0.1669858
vn 0.2298362 0.9587967 0.1669857
vn 0.2840932 0.9587967 0
g Sand_0
f 3/3/3 2/2/2 1/1/1
f 4/4/4 3/3/3 1/1/1
f 4/4/4 5/5/5 3/3/3
f 8/8/8 7/7/7 6/6/6
f 9/9/9 8/8/8 6/6/6
f 9/9/9 10/10/10 8/8/8
f 13/13/13 12/12/12 11/11/11
f 11/11/11 14/14/14 13/13/13
f 11/11/11 15/15/15 14/14/14
f 11/11/11 16/16/16 15/15/15
f 19/19/19 18/18/18 17/17/17
f 20/20/20 19/19/19 17/17/17
f 23/23/23 22/22/22 21/21/21
f 24/24/24 23/23/23 21/21/21
f 27/27/27 26/26/26 25/25/25
f 28/28/28 27/27/27 25/25/25
f 31/31/31 30/30/30 29/29/29
f 32/32/32 31/31/31 29/29/29
f 29/29/29 30/30/30 33/33/33
f 34/34/34 31/31/31 32/32/32
f 35/35/35 34/34/34 32/32/32
f 30/30/30 36/36/36 33/33/33
f 33/33/33 36/36/36 37/37/37
f 38/38/38 34/34/34 35/35/35
f 39/39/39 38/38/38 35/35/35
f 36/36/36 40/40/40 37/37/37
f 37/37/37 40/40/40 41/41/41
f 42/42/42 38/38/38 39/39/39
f 43/43/43 42/42/42 39/39/39
f 40/40/40 44/44/44 41/41/41
f 41/41/41 44/44/44 45/45/45
f 46/46/46 42/42/42 43/43/43
f 47/47/47 46/46/46 43/43/43
f 45/45/45 48/48/48 47/47/47
f 44/44/44 48/48/48 45/45/45
f 48/48/48 46/46/46 47/47/47
f 38/38/38 49/49/49 34/34/34
f 42/42/42 50/50/50 38/38/38
f 50/50/50 49/49/49 38/38/38
f 50/50/50 51/51/51 49/49/49
f 49/49/49 51/51/51 52/52/52
f 49/49/49 52/52/52 34/34/34
f 53/53/53 51/51/51 50/50/50
f 53/53/53 50/50/50 42/42/42
f 46/46/46 53/53/53 42/42/42
f 34/34/34 52/52/52 31/31/31
f 54/54/54 53/53/53 46/46/46
f 48/48/48 54/54/54 46/46/46
f 54/54/54 51/51/51 53/53/53
f 52/52/52 55/55/55 31/31/31
f 52/52/52 51/51/51 55/55/55
f 31/31/31 55/55/55 30/30/30
f 56/56/56 54/54/54 48/48/48
f 56/56/56 51/51/51 54/54/54
f 44/44/44 56/56/56 48/48/48
f 55/55/55 57/57/57 30/30/30
f 55/55/55 51/51/51 57/57/57
f 30/30/30 57/57/57 36/36/36
f 58/58/58 56/56/56 44/44/44
f 58/58/58 51/51/51 56/56/56
f 40/40/40 58/58/58 44/44/44
f 36/36/36 59/59/59 40/40/40
f 57/57/57 59/59/59 36/36/36
f 57/57/57 51/51/51 59/59/59
f 59/59/59 58/58/58 40/40/40
f 59/59/59 51/51/51 58/58/58
