g Sash_Lvl8
v -1.255151 6.171793 0.3963359
v -1.238365 6.225656 -0.5260109
v 0.02234744 6.76369 -0.457805
v 0.02234744 6.768097 0.6910439
v 0.02234744 5.235788 0.9431425
v -1.08893 5.179497 0.5539139
v 0.6706312 5.758976 0.6374995
v 0.02234744 4.388819 1.240908
v 1.067838 5.179497 0.5539139
v 0.4250596 3.99717 1.188379
v 1.374021 3.994462 0.7492359
v 1.268041 4.671679 0.1778939
v 1.393806 3.219238 0.8126647
v 1.57432 3.971749 -0.3973589
v 1.644723 3.215085 -0.3710295
v 1.207226 4.672508 -0.5920654
v 0.8851267 4.260652 -1.1605
v 0.9908189 5.130982 -0.7068477
v 0.02234744 5.130624 -0.708204
v 0.02234744 6.224966 -0.5276729
v 0.2890128 6.225148 -0.5272346
v -1.238365 6.225656 -0.5260109
v 0.02234744 6.76369 -0.457805
vt 0.721828 0.1473396
vt 0.7237785 0.1759998
vt 0.7617823 0.1769568
vt 0.7620226 0.1466332
vt 0.7401557 0.09488406
vt 0.7112408 0.1124783
vt 0.7666219 0.104324
vt 0.7253585 0.06494196
vt 0.7688354 0.08185916
vt 0.732254 0.0469981
vt 0.7600473 0.0413701
vt 0.778677 0.06512739
vt 0.7568536 0.01404692
vt 0.796055 0.04049474
vt 0.796235 0.01306593
vt 0.8031602 0.06702754
vt 0.8250273 0.05507834
vt 0.8078991 0.08362512
vt 0.8320439 0.09842325
vt 0.8153656 0.132582
vt 0.8081893 0.1275221
vt 0.8452759 0.1501281
vt 0.8074187 0.1498698
vn -0.4568353 0.7642207 0.4552671
vn -0.382371 0.8907325 -0.2457395
vn -0.3965485 0.9041409 -0.1589921
vn -0.3874911 0.7422966 0.5466685
vn 0.09841373 0.2452284 0.9644573
vn -0.3335941 0.1475841 0.9310928
vn 0.3294964 0.1374172 0.9341032
vn 0.3047298 0.287263 0.9080857
vn 0.4284249 0.2679547 0.8629324
vn 0.383117 0.2626208 0.8855798
vn 0.713715 0.2115803 0.667716
vn 0.9433259 0.3145629 0.1057656
vn 0.9249687 0.07790572 0.3719725
vn 0.9818179 0.14863 -0.1180788
vn 0.9960173 0.06891495 0.05657048
vn 0.8411794 0.3106401 -0.4426285
vn 0.4967181 0.3198867 -0.8068108
vn 0.09306142 0.3174614 -0.9436936
vn 0.0005731638 0.2228713 -0.9748477
vn -0.0001253716 0.1549277 -0.9879259
vn 0.001371771 0.1610174 -0.9869506
vn -0.382371 0.8907325 -0.2457395
vn -0.3965485 0.9041409 -0.1589921
g Sash_Lvl8_0
f 3/3/3 2/2/2 1/1/1
f 4/4/4 3/3/3 1/1/1
f 4/4/4 1/1/1 5/5/5
f 1/1/1 6/6/6 5/5/5
f 7/7/7 4/4/4 5/5/5
f 8/8/8 5/5/5 6/6/6
f 9/9/9 7/7/7 5/5/5
f 5/5/5 8/8/8 10/10/10
f 9/9/9 5/5/5 10/10/10
f 10/10/10 11/11/11 9/9/9
f 12/12/12 9/9/9 11/11/11
f 13/13/13 11/11/11 10/10/10
f 14/14/14 12/12/12 11/11/11
f 11/11/11 13/13/13 14/14/14
f 13/13/13 15/15/15 14/14/14
f 12/12/12 14/14/14 16/16/16
f 17/17/17 14/14/14 15/15/15
f 17/17/17 16/16/16 14/14/14
f 17/17/17 18/18/18 16/16/16
f 17/17/17 19/19/19 18/18/18
f 19/19/19 20/20/20 18/18/18
f 20/20/20 21/21/21 18/18/18
f 22/22/22 20/20/20 19/19/19
f 21/21/21 20/20/20 23/23/23
f 23/23/23 20/20/20 22/22/22
