g ScarfTeeth
v -0.0007402038 10.72427 4.428802
v -0.001872864 9.234601 4.286065
v 0.7940379 9.507867 4.578172
v -0.001350708 7.341412 4.965589
v -0.7500163 9.589251 4.652881
v -0.0007402038 10.72427 4.428802
v -2.263518 9.424571 4.440129
v -2.840113 7.498121 4.375017
v -2.882654 9.858677 4.011887
v -1.426363 9.334717 4.043355
v -1.782964 10.71267 3.842771
v 2.263518 9.424571 4.440129
v 2.882654 9.858677 4.011887
v 2.840113 7.498121 4.375017
v 1.426363 9.334717 4.043355
v 1.782964 10.71267 3.842771
v -0.001343842 9.352297 5.030816
v -0.001350708 7.341412 4.965589
v -0.7500163 9.589251 4.652881
v 0.7940379 9.507867 4.578172
v -0.0007402038 10.72427 4.428802
v -2.840113 7.498121 4.375017
v -2.287969 9.309015 3.694299
v -2.882654 9.858677 4.011887
v -1.426363 9.334717 4.043355
v -1.782964 10.71267 3.842771
v 2.840113 7.498121 4.375017
v 2.882654 9.858677 4.011887
v 2.287969 9.309015 3.694299
v 1.426363 9.334717 4.043355
v 1.782964 10.71267 3.842771
vt 0.8653857 0.8604732
vt 0.8660438 0.9129974
vt 0.8970328 0.9036139
vt 0.8667002 0.9847037
vt 0.8364548 0.9024233
vt 0.8653857 0.8604732
vt 0.8660438 0.9129974
vt 0.8667002 0.9847037
vt 0.8364548 0.9024233
vt 0.8970328 0.9036139
vt 0.8653857 0.8604732
vt 0.8660438 0.9129974
vt 0.8364548 0.9024233
vt 0.8667002 0.9847037
vt 0.8970328 0.9036139
vt 0.8653857 0.8604732
vt 0.8660438 0.9129974
vt 0.8667002 0.9847037
vt 0.8364548 0.9024233
vt 0.8970328 0.9036139
vt 0.8653857 0.8604732
vt 0.8667002 0.9847037
vt 0.8660438 0.9129974
vt 0.8364548 0.9024233
vt 0.8970328 0.9036139
vt 0.8653857 0.8604732
vt 0.8667002 0.9847037
vt 0.8364548 0.9024233
vt 0.8660438 0.9129974
vt 0.8970328 0.9036139
vt 0.8653857 0.8604732
vn 0.04676717 0.9871637 -0.1527109
vn -0.05813583 -0.1985106 -0.978373
vn 0.9982505 0.05808128 -0.01105875
vn 0.04967161 -0.9850663 0.1648546
vn -0.9963009 0.08537393 -0.009787104
vn 0.04676717 0.9871637 -0.1527109
vn 0.009160964 0.114878 0.9933374
vn -0.1764615 -0.9717934 0.1564575
vn -0.9199667 0.3908185 -0.03036807
vn 0.9673118 -0.2534797 0.007489286
vn 0.3814086 0.9115521 -0.1536239
vn -0.009161055 0.114878 0.9933374
vn 0.9199667 0.3908185 -0.03036814
vn 0.1764599 -0.9717936 0.1564579
vn -0.9673117 -0.2534798 0.007489718
vn -0.3814085 0.9115522 -0.1536238
vn 0.04704705 0.1132721 0.9924495
vn 0.04967161 -0.9850663 0.1648546
vn -0.9963009 0.08537393 -0.009787104
vn 0.9982505 0.05808128 -0.01105875
vn 0.04676717 0.9871637 -0.1527109
vn -0.1764615 -0.9717934 0.1564575
vn -0.05770179 -0.1899166 -0.9801032
vn -0.9199667 0.3908185 -0.03036807
vn 0.9673118 -0.2534797 0.007489286
vn 0.3814086 0.9115521 -0.1536239
vn 0.1764599 -0.9717936 0.1564579
vn 0.9199667 0.3908185 -0.03036814
vn 0.05770155 -0.1899167 -0.9801032
vn -0.9673117 -0.2534798 0.007489718
vn -0.3814085 0.9115522 -0.1536238
g ScarfTeeth_0
f 3/3/3 2/2/2 1/1/1
f 4/4/4 2/2/2 3/3/3
f 5/5/5 2/2/2 4/4/4
f 6/6/6 2/2/2 5/5/5
f 9/9/9 8/8/8 7/7/7
f 8/8/8 10/10/10 7/7/7
f 11/11/11 9/9/9 7/7/7
f 10/10/10 11/11/11 7/7/7
f 14/14/14 13/13/13 12/12/12
f 15/15/15 14/14/14 12/12/12
f 13/13/13 16/16/16 12/12/12
f 16/16/16 15/15/15 12/12/12
f 19/19/19 18/18/18 17/17/17
f 18/18/18 20/20/20 17/17/17
f 21/21/21 19/19/19 17/17/17
f 20/20/20 21/21/21 17/17/17
f 24/24/24 23/23/23 22/22/22
f 22/22/22 23/23/23 25/25/25
f 26/26/26 23/23/23 24/24/24
f 25/25/25 23/23/23 26/26/26
f 29/29/29 28/28/28 27/27/27
f 29/29/29 27/27/27 30/30/30
f 29/29/29 31/31/31 28/28/28
f 29/29/29 30/30/30 31/31/31
