g Scarf
v 2.986215 10.23787 2.480814
v 3.613678 7.792387 4.103253
v 3.068895 9.674479 1.991334
v 4.83287 12.71014 -0.4147051
v 7.768569 15.06844 -0.9444373
v 4.639672 13.10198 0.2210587
v 7.592408 7.973714 6.159737
v 9.734028 9.528049 4.697789
v 7.693069 7.471043 5.649689
v 5.887304 7.555852 6.440089
v 5.987964 7.053182 5.930038
v 4.743342 7.621232 6.283578
v 4.666498 7.099274 5.79191
v 2.80939 8.162108 4.819427
v 9.734028 9.528049 4.697789
v 7.062248 10.43837 3.626109
v 7.162908 9.935701 3.11606
v 5.3884 9.840498 3.064719
v 5.287738 10.34317 3.57477
v 4.163558 9.437388 3.388365
v 4.240402 9.959347 3.880032
v 2.80939 8.162108 4.819427
v 7.935674 12.26993 1.735486
v 7.768569 15.06844 -0.9444373
v 8.128872 11.87809 1.099721
v 7.085321 10.46982 3.195787
v 7.27852 10.07797 2.560022
v 6.112989 9.448534 3.917484
v 6.195668 8.885147 3.428006
v 3.613678 7.792387 4.103253
v 0.8777046 7.991748 2.267429
v 0.96006 9.416494 2.259037
v 2.856084 8.961972 2.536223
v 2.477314 7.608285 2.501281
v 0.7099542 7.464593 1.596538
v 3.789827 8.227499 3.831371
v 2.652337 6.99896 1.8805
v 0.6183654 7.801733 0.8679879
v 3.265081 6.988636 3.593953
v 3.214315 7.64332 5.385803
v 3.246295 7.171755 1.252173
v 0.6945273 8.666025 0.8103296
v 2.779541 6.495786 4.905374
v 1.466675 7.55164 6.288952
v 1.305118 6.418438 5.667328
v 3.608911 6.24653 3.207316
v 3.019327 5.648067 4.799755
v 1.228956 5.554144 5.724987
v 3.665231 7.953877 1.244626
v 0.8706572 9.745585 1.547875
v 4.540483 6.153761 3.047277
v 3.742811 5.344078 5.201752
v 1.320545 5.217006 6.453536
v 3.435866 9.130643 1.922892
v 0.96006 9.416494 2.259037
v 2.856084 8.961972 2.536223
v 5.128226 6.803102 3.273873
v 4.226509 5.887807 5.709366
v 1.488295 5.744161 7.124427
v 4.699166 8.136946 3.675152
v 3.789827 8.227499 3.831371
v 3.920532 7.346587 5.778207
v 1.556078 7.222548 7.000113
v 3.214315 7.64332 5.385803
v 1.466675 7.55164 6.288952
v 1.305118 6.418438 5.667328
v 1.466675 7.55164 6.288952
v -0.429349 8.006161 6.011766
v -0.2944912 6.801901 5.433475
v 1.228956 5.554144 5.724987
v -1.363092 8.740633 4.716618
v -0.7134265 6.019779 5.441024
v 1.320545 5.217006 6.453536
v -1.082258 7.421549 4.340804
v -0.78758 9.324812 3.162185
v -1.307385 5.846982 6.06935
v 1.488295 5.744161 7.124427
v -0.5967185 7.9144 3.029384
v 0.96006 9.416494 2.259037
v 0.8777046 7.991748 2.267429
v -1.67 6.77221 4.114207
v -1.080416 7.370672 2.521769
v 0.7099542 7.464593 1.596538
v -1.482408 6.456308 6.69013
v 1.556078 7.222548 7.000113
v -2.601573 6.864977 4.274247
v -1.803901 7.67466 2.119771
v 0.6183654 7.801733 0.8679879
v -1.009131 7.83749 6.625099
v 1.466675 7.55164 6.288952
v -0.429349 8.006161 6.011766
v -2.945403 7.607084 4.660883
v -2.043687 8.522378 2.225389
v 0.6945273 8.666025 0.8103296
v -2.272431 8.831185 4.872838
v -1.363092 8.740633 4.716618
v -1.493797 9.621545 2.769783
v 0.8706572 9.745585 1.547875
v -0.78758 9.324812 3.162185
v 0.96006 9.416494 2.259037
v 4.83287 12.71014 -0.4147051
v 4.639672 13.10198 0.2210587
v 3.357825 11.4108 1.483097
v 3.551025 11.01896 0.8473325
v 3.551025 11.01896 0.8473325
v 3.357825 11.4108 1.483097
v 2.986215 10.23787 2.480814
v 3.068895 9.674479 1.991334
v 2.80939 8.162108 4.819427
v 4.240402 9.959347 3.880032
v 4.390053 8.154202 4.43821
v 4.743342 7.621232 6.283578
v 5.887304 7.555852 6.440089
v 5.708758 8.342093 4.336185
v 5.287738 10.34317 3.57477
v 7.592408 7.973714 6.159737
v 7.449235 8.595513 4.22488
v 7.062248 10.43837 3.626109
v 9.734028 9.528049 4.697789
v 7.693069 7.471043 5.649689
v 9.734028 9.528049 4.697789
v 7.498765 8.348184 3.973918
v 5.987964 7.053182 5.930038
v 7.162908 9.935701 3.11606
v 5.758288 8.094764 4.085226
v 4.666498 7.099274 5.79191
v 5.3884 9.840498 3.064719
v 4.352245 7.897381 4.196292
v 2.80939 8.162108 4.819427
v 4.163558 9.437388 3.388365
v 3.613678 7.792387 4.103253
v 2.986215 10.23787 2.480814
v 4.623777 9.139897 2.567642
v 6.112989 9.448534 3.917484
v 7.085321 10.46982 3.195787
v 5.429414 10.45493 1.520681
v 3.357825 11.4108 1.483097
v 7.935674 12.26993 1.735486
v 6.499675 12.19953 0.1614249
v 4.639672 13.10198 0.2210587
v 7.768569 15.06844 -0.9444373
v 8.128872 11.87809 1.099721
v 7.768569 15.06844 -0.9444373
v 6.594736 12.00673 -0.151392
v 7.27852 10.07797 2.560022
v 4.83287 12.71014 -0.4147051
v 5.524475 10.26213 1.207866
v 6.195668 8.885147 3.428006
v 3.551025 11.01896 0.8473325
v 4.664459 8.862693 2.326804
v 3.613678 7.792387 4.103253
v 3.068895 9.674479 1.991334
vt 0.2409423 0.6218671
vt 0.2238179 0.6119494
vt 0.1671707 0.6017152
vt 0.1992489 0.5972725
vt 0.2320767 0.6102532
vt 0.2728958 0.644933
vt 0.2395848 0.635203
vt 0.2879642 0.6513445
vt 0.2436072 0.6097221
vt 0.2111044 0.6232531
vt 0.2151268 0.5977722
vt 0.1925848 0.6157548
vt 0.1937954 0.5894112
vt 0.1555284 0.5842978
vt 0.2942733 0.6449045
vt 0.2499709 0.6156309
vt 0.2316491 0.6353146
vt 0.2035319 0.6196288
vt 0.2218537 0.5999451
vt 0.1829561 0.6075014
vt 0.2037937 0.58957
vt 0.1541938 0.5794334
vt 0.2395848 0.635203
vt 0.2879642 0.6513445
vt 0.2436072 0.6097221
vt 0.2111044 0.6232531
vt 0.2151268 0.5977722
vt 0.1925848 0.6157548
vt 0.1937954 0.5894112
vt 0.1555284 0.5842978
vt 0.0279776 0.6052473
vt 0.01094651 0.6052473
vt 0.01094651 0.5713392
vt 0.0279776 0.5713392
vt 0.04522023 0.6052473
vt 0.01094651 0.529807
vt 0.04522023 0.5713392
vt 0.06172617 0.6052473
vt 0.0279776 0.529807
vt 0.01094653 0.4885581
vt 0.06172617 0.5713392
vt 0.07956101 0.6052473
vt 0.0279776 0.4885581
vt 0.01094651 0.4510848
vt 0.0279776 0.4510848
vt 0.04522023 0.529807
vt 0.04522023 0.4885581
vt 0.04522023 0.4510848
vt 0.07956101 0.5713392
vt 0.0972497 0.6052473
vt 0.06172617 0.529807
vt 0.06172617 0.4885581
vt 0.06172617 0.4510848
vt 0.0972497 0.5713392
vt 0.1134364 0.6052473
vt 0.1134364 0.5713392
vt 0.07956104 0.529807
vt 0.07956104 0.4885581
vt 0.07956101 0.4510848
vt 0.0972497 0.529807
vt 0.1134364 0.529807
vt 0.0972497 0.4885581
vt 0.09724969 0.4510848
vt 0.1134364 0.4885581
vt 0.1134365 0.4510848
vt 0.02841748 0.4514031
vt 0.01141792 0.451403
vt 0.01141794 0.4887727
vt 0.02841747 0.4887727
vt 0.04565604 0.4514031
vt 0.01141794 0.5303088
vt 0.04565604 0.4887727
vt 0.06214917 0.451403
vt 0.02841747 0.5303088
vt 0.01141792 0.5715555
vt 0.06214917 0.4887727
vt 0.0800093 0.451403
vt 0.02841747 0.5715555
vt 0.01141792 0.6055655
vt 0.02841747 0.6055655
vt 0.04565604 0.5303088
vt 0.04565604 0.5715555
vt 0.04565604 0.6055655
vt 0.0800093 0.4887727
vt 0.09770645 0.4514031
vt 0.06214919 0.5303088
vt 0.06214917 0.5715555
vt 0.06214917 0.6055655
vt 0.09770645 0.4887727
vt 0.1138428 0.4514031
vt 0.1138428 0.4887727
vt 0.0800093 0.5303088
vt 0.0800093 0.5715555
vt 0.0800093 0.6055655
vt 0.09770645 0.5303088
vt 0.1138428 0.5303088
vt 0.09770645 0.5715555
vt 0.09770645 0.6055655
vt 0.1138428 0.5715555
vt 0.1138428 0.6055655
vt 0.1992489 0.5972725
vt 0.2728958 0.644933
vt 0.2510013 0.6337597
vt 0.1802448 0.5965345
vt 0.1802448 0.5965345
vt 0.2510013 0.6337597
vt 0.2409423 0.6218671
vt 0.1671707 0.6017152
vt 0.3139553 0.6105191
vt 0.2965744 0.7307302
vt 0.3536217 0.6548769
vt 0.4354068 0.6039901
vt 0.4747052 0.6334476
vt 0.3850835 0.6896122
vt 0.3225978 0.7724888
vt 0.5137774 0.700393
vt 0.4269402 0.7351822
vt 0.3859449 0.8173923
vt 0.5103068 0.8251402
vt 0.177726 0.746762
vt 0.2741545 0.6903868
vt 0.1603826 0.6899948
vt 0.118811 0.7579759
vt 0.1774555 0.6348513
vt 0.1121049 0.6899939
vt 0.07566474 0.7479864
vt 0.118388 0.6238838
vt 0.07458768 0.6903377
vt 0.02291442 0.6911979
vt 0.07515945 0.63412
vt 0.3139553 0.6105191
vt 0.2965744 0.7307302
vt 0.3536217 0.6548769
vt 0.4354068 0.6039901
vt 0.4747052 0.6334476
vt 0.3850835 0.6896122
vt 0.3225978 0.7724888
vt 0.5137774 0.700393
vt 0.4269402 0.7351822
vt 0.3859449 0.8173923
vt 0.5103068 0.8251402
vt 0.177726 0.746762
vt 0.2741545 0.6903868
vt 0.1603826 0.6899948
vt 0.118811 0.7579759
vt 0.1774555 0.6348513
vt 0.1121049 0.6899939
vt 0.07566474 0.7479864
vt 0.118388 0.6238838
vt 0.07458768 0.6903377
vt 0.02291442 0.6911979
vt 0.07515945 0.63412
vn -0.9764441 -0.2041047 0.06998683
vn -0.9764441 -0.2041047 0.06998683
vn -0.9764441 -0.2041047 0.06998684
vn -0.5818932 0.6013845 -0.5474824
vn -0.5818933 0.6013845 -0.5474825
vn -0.5818932 0.6013844 -0.5474825
vn 0.4753011 -0.5779381 0.6633825
vn 0.7011344 -0.4337929 0.5658924
vn 0.4811206 -0.5750557 0.6616902
vn 0.1075718 -0.6869394 0.718709
vn 0.1280635 -0.684377 0.7177938
vn -0.3272362 -0.6370463 0.6979172
vn -0.3858809 -0.6141586 0.6884077
vn -0.6082228 -0.4949783 0.620533
vn 0.4609556 0.6758525 -0.5751029
vn 0.1957285 0.7175016 -0.6684921
vn 0.2022047 0.7171853 -0.6669022
vn -0.1685202 0.694405 -0.6995732
vn -0.1888271 0.6909822 -0.6977736
vn -0.6385969 0.5643257 -0.5231927
vn -0.5892788 0.5844192 -0.5578572
vn -0.8124064 0.4587004 -0.359986
vn 0.9558184 -0.005591807 0.2939046
vn 0.9636568 0.212533 0.1618495
vn 0.9611518 0.02843883 0.2745513
vn 0.8655044 -0.2485711 0.4348729
vn 0.8821443 -0.2192488 0.4168351
vn 0.6589922 -0.4527259 0.6006401
vn 0.6261749 -0.471262 0.6211419
vn 0.4229161 -0.5581536 0.7138674
vn 0.1217203 -0.337964 0.9332548
vn 0.1997805 0.5177486 0.8318799
vn -0.1519261 0.6156098 0.7732678
vn -0.5514952 -0.2225592 0.8039405
vn -0.1013736 -0.9947573 -0.01347235
vn -0.3948436 0.7997316 0.4522476
vn -0.3481176 -0.9327624 -0.09363886
vn -0.193783 -0.4025439 -0.8946544
vn -0.9932351 0.03641251 0.1102644
vn -0.3535063 0.9341992 -0.04801177
vn 0.2259366 -0.5220115 -0.8224699
vn -0.1186002 0.3499314 -0.9292373
vn -0.7211702 0.2443947 -0.6482167
vn 0.04219415 0.9401712 -0.3380795
vn -0.1419381 0.2722832 -0.9516909
vn -0.4584629 -0.8271115 -0.3251127
vn -0.4082665 -0.711356 -0.5720936
vn -0.1901151 -0.6680987 -0.719375
vn 0.5790055 0.2238126 -0.7840028
vn -0.03044827 0.8021509 -0.5963445
vn 0.4921009 -0.7648247 -0.4157881
vn 0.3388804 -0.9377586 0.07595252
vn -0.04399555 -0.9539121 0.2968433
vn 0.5160107 0.7149195 -0.4718296
vn 0.1997805 0.5177486 0.8318799
vn -0.1519261 0.6156098 0.7732678
vn 0.9937317 -0.03847475 -0.1049617
vn 0.7381138 -0.2483904 0.627288
vn 0.1410889 -0.2795264 0.9497151
vn 0.8502862 0.5174134 0.09641982
vn -0.3948436 0.7997316 0.4522476
vn 0.6413735 0.333766 0.6908258
vn 0.1848765 0.2969963 0.9368105
vn -0.3535063 0.9341992 -0.04801177
vn 0.04219415 0.9401712 -0.3380795
vn -0.1419381 0.2722832 -0.9516909
vn 0.04219415 0.9401712 -0.3380795
vn 0.4868298 0.8585053 -0.1611376
vn 0.4997047 0.1569709 -0.851854
vn -0.1901151 -0.6680987 -0.719375
vn 0.6429058 0.7129168 0.2800389
vn 0.05188098 -0.7571782 -0.6511448
vn -0.04399555 -0.9539121 0.2968433
vn 0.9735292 -0.1065219 -0.2022225
vn 0.5093454 0.5674933 0.6469302
vn -0.4677449 -0.8574339 0.2145267
vn 0.1410889 -0.2795264 0.9497151
vn 0.7318479 -0.3158565 0.6038486
vn 0.1997805 0.5177486 0.8318799
vn 0.1217203 -0.337964 0.9332548
vn 0.1577304 -0.8884729 -0.4309723
vn 0.112029 -0.9785846 -0.17269
vn -0.1013736 -0.9947573 -0.01347235
vn -0.5209606 -0.1545424 0.839474
vn 0.1848765 0.2969963 0.9368105
vn -0.7387533 -0.6422549 -0.2043338
vn -0.5806887 -0.4416871 -0.6838955
vn -0.193783 -0.4025439 -0.8946544
vn -0.3232873 0.4053919 0.8550688
vn 0.04219415 0.9401712 -0.3380795
vn 0.4868298 0.8585053 -0.1611376
vn -0.9710211 0.1108732 0.2117198
vn -0.7495998 0.3244683 -0.576906
vn -0.1186002 0.3499314 -0.9292373
vn -0.6918184 0.63594 0.3420056
vn 0.6429058 0.7129168 0.2800389
vn -0.5202876 0.7947863 -0.312435
vn -0.03044827 0.8021509 -0.5963445
vn 0.5093454 0.5674933 0.6469302
vn 0.1997805 0.5177486 0.8318799
vn -0.8417624 0.3062682 -0.4445626
vn -0.8417624 0.3062682 -0.4445626
vn -0.8417624 0.3062682 -0.4445626
vn -0.8417624 0.3062682 -0.4445626
vn -0.9527911 0.07222476 -0.2949116
vn -0.9527911 0.07222476 -0.2949116
vn -0.9527911 0.07222477 -0.2949117
vn -0.9527911 0.07222476 -0.2949116
vn 0.1634283 0.7310436 0.66247
vn 0.1075297 0.3316448 0.9372562
vn 0.07202507 0.7216637 0.6884868
vn -0.03107611 0.9494424 0.3123992
vn -0.108361 0.9373286 0.3311693
vn -0.04916736 0.7100707 0.7024117
vn 0.02133527 0.3334607 0.9425225
vn -0.2190121 0.918077 0.3304064
vn -0.2097718 0.6780492 0.7044466
vn -0.09279916 0.3080864 0.9468216
vn -0.3939953 0.622314 0.6763822
vn 0.2399673 -0.842348 -0.4825616
vn 0.5087219 -0.5655064 -0.6491567
vn 0.2548918 -0.6656189 -0.701414
vn 0.08848371 -0.8713499 -0.4826178
vn 0.1599776 -0.4542647 -0.8763851
vn 0.04952336 -0.7102915 -0.7021634
vn -0.01658484 -0.8862284 -0.4629515
vn 0.0059413 -0.4875975 -0.8730483
vn -0.1251834 -0.7237362 -0.6786274
vn -0.3654013 -0.7085291 -0.6037121
vn -0.1056126 -0.4905089 -0.8650127
vn -0.09831088 0.7791672 0.6190585
vn 0.2867723 0.5438192 0.788684
vn -0.1212517 0.7334571 0.6688339
vn -0.5074837 0.7447489 0.4333699
vn -0.5265326 0.7039145 0.4767262
vn -0.1621029 0.671089 0.7234377
vn 0.2480584 0.5045867 0.8269579
vn -0.5708677 0.6379521 0.5168437
vn -0.2171925 0.5742023 0.7893791
vn 0.2170121 0.431977 0.8753866
vn -0.2841456 0.4516721 0.8457265
vn 0.4557213 -0.6169282 -0.6416522
vn 0.321789 -0.351127 -0.8792961
vn 0.2322067 -0.5450258 -0.8056221
vn 0.3980909 -0.7077881 -0.583575
vn -0.0496314 -0.4854505 -0.8728543
vn 0.1621727 -0.6715079 -0.7230332
vn 0.3657371 -0.7677503 -0.5261139
vn -0.09547531 -0.5816011 -0.8078517
vn 0.1032282 -0.7590848 -0.6427552
vn 0.0219632 -0.8620304 -0.5063804
vn -0.1437753 -0.639675 -0.7550792
g Scarf_0
f 3/3/3 2/2/2 1/1/1
f 6/6/6 5/5/5 4/4/4
f 9/9/9 8/8/8 7/7/7
f 9/9/9 7/7/7 10/10/10
f 11/11/11 9/9/9 10/10/10
f 11/11/11 10/10/10 12/12/12
f 13/13/13 11/11/11 12/12/12
f 13/13/13 12/12/12 14/14/14
f 17/17/17 16/16/16 15/15/15
f 17/17/17 18/18/18 16/16/16
f 18/18/18 19/19/19 16/16/16
f 18/18/18 20/20/20 19/19/19
f 20/20/20 21/21/21 19/19/19
f 20/20/20 22/22/22 21/21/21
f 25/25/25 24/24/24 23/23/23
f 25/25/25 23/23/23 26/26/26
f 27/27/27 25/25/25 26/26/26
f 27/27/27 26/26/26 28/28/28
f 29/29/29 27/27/27 28/28/28
f 29/29/29 28/28/28 30/30/30
f 33/33/33 32/32/32 31/31/31
f 34/34/34 33/33/33 31/31/31
f 34/34/34 31/31/31 35/35/35
f 36/36/36 33/33/33 34/34/34
f 37/37/37 34/34/34 35/35/35
f 37/37/37 35/35/35 38/38/38
f 39/39/39 36/36/36 34/34/34
f 39/39/39 34/34/34 37/37/37
f 40/40/40 36/36/36 39/39/39
f 41/41/41 37/37/37 38/38/38
f 41/41/41 38/38/38 42/42/42
f 43/43/43 40/40/40 39/39/39
f 44/44/44 40/40/40 43/43/43
f 45/45/45 44/44/44 43/43/43
f 46/46/46 39/39/39 37/37/37
f 43/43/43 39/39/39 46/46/46
f 46/46/46 37/37/37 41/41/41
f 45/45/45 43/43/43 47/47/47
f 47/47/47 43/43/43 46/46/46
f 48/48/48 45/45/45 47/47/47
f 49/49/49 41/41/41 42/42/42
f 49/49/49 42/42/42 50/50/50
f 51/51/51 46/46/46 41/41/41
f 47/47/47 46/46/46 51/51/51
f 51/51/51 41/41/41 49/49/49
f 48/48/48 47/47/47 52/52/52
f 52/52/52 47/47/47 51/51/51
f 53/53/53 48/48/48 52/52/52
f 54/54/54 49/49/49 50/50/50
f 54/54/54 50/50/50 55/55/55
f 56/56/56 54/54/54 55/55/55
f 57/57/57 51/51/51 49/49/49
f 52/52/52 51/51/51 57/57/57
f 57/57/57 49/49/49 54/54/54
f 53/53/53 52/52/52 58/58/58
f 58/58/58 52/52/52 57/57/57
f 59/59/59 53/53/53 58/58/58
f 60/60/60 54/54/54 56/56/56
f 60/60/60 57/57/57 54/54/54
f 58/58/58 57/57/57 60/60/60
f 61/61/61 60/60/60 56/56/56
f 59/59/59 58/58/58 62/62/62
f 62/62/62 58/58/58 60/60/60
f 62/62/62 60/60/60 61/61/61
f 63/63/63 59/59/59 62/62/62
f 64/64/64 62/62/62 61/61/61
f 63/63/63 62/62/62 64/64/64
f 65/65/65 63/63/63 64/64/64
f 68/68/68 67/67/67 66/66/66
f 69/69/69 68/68/68 66/66/66
f 69/69/69 66/66/66 70/70/70
f 71/71/71 68/68/68 69/69/69
f 72/72/72 69/69/69 70/70/70
f 72/72/72 70/70/70 73/73/73
f 74/74/74 71/71/71 69/69/69
f 74/74/74 69/69/69 72/72/72
f 75/75/75 71/71/71 74/74/74
f 76/76/76 72/72/72 73/73/73
f 76/76/76 73/73/73 77/77/77
f 78/78/78 75/75/75 74/74/74
f 79/79/79 75/75/75 78/78/78
f 80/80/80 79/79/79 78/78/78
f 81/81/81 74/74/74 72/72/72
f 78/78/78 74/74/74 81/81/81
f 81/81/81 72/72/72 76/76/76
f 80/80/80 78/78/78 82/82/82
f 82/82/82 78/78/78 81/81/81
f 83/83/83 80/80/80 82/82/82
f 84/84/84 76/76/76 77/77/77
f 84/84/84 77/77/77 85/85/85
f 86/86/86 81/81/81 76/76/76
f 82/82/82 81/81/81 86/86/86
f 86/86/86 76/76/76 84/84/84
f 83/83/83 82/82/82 87/87/87
f 87/87/87 82/82/82 86/86/86
f 88/88/88 83/83/83 87/87/87
f 89/89/89 84/84/84 85/85/85
f 89/89/89 85/85/85 90/90/90
f 91/91/91 89/89/89 90/90/90
f 92/92/92 86/86/86 84/84/84
f 87/87/87 86/86/86 92/92/92
f 92/92/92 84/84/84 89/89/89
f 88/88/88 87/87/87 93/93/93
f 93/93/93 87/87/87 92/92/92
f 94/94/94 88/88/88 93/93/93
f 95/95/95 89/89/89 91/91/91
f 95/95/95 92/92/92 89/89/89
f 93/93/93 92/92/92 95/95/95
f 96/96/96 95/95/95 91/91/91
f 94/94/94 93/93/93 97/97/97
f 97/97/97 93/93/93 95/95/95
f 97/97/97 95/95/95 96/96/96
f 98/98/98 94/94/94 97/97/97
f 99/99/99 97/97/97 96/96/96
f 98/98/98 97/97/97 99/99/99
f 100/100/100 98/98/98 99/99/99
f 103/103/103 102/102/102 101/101/101
f 104/104/104 103/103/103 101/101/101
f 107/107/107 106/106/106 105/105/105
f 108/108/108 107/107/107 105/105/105
f 111/111/111 110/110/110 109/109/109
f 111/111/111 109/109/109 112/112/112
f 111/111/111 112/112/112 113/113/113
f 111/111/111 114/114/114 110/110/110
f 114/114/114 111/111/111 113/113/113
f 114/114/114 115/115/115 110/110/110
f 114/114/114 113/113/113 116/116/116
f 114/114/114 117/117/117 115/115/115
f 117/117/117 114/114/114 116/116/116
f 117/117/117 118/118/118 115/115/115
f 117/117/117 116/116/116 119/119/119
f 117/117/117 119/119/119 118/118/118
f 122/122/122 121/121/121 120/120/120
f 122/122/122 120/120/120 123/123/123
f 122/122/122 124/124/124 121/121/121
f 125/125/125 122/122/122 123/123/123
f 122/122/122 125/125/125 124/124/124
f 125/125/125 123/123/123 126/126/126
f 125/125/125 127/127/127 124/124/124
f 128/128/128 125/125/125 126/126/126
f 125/125/125 128/128/128 127/127/127
f 128/128/128 126/126/126 129/129/129
f 128/128/128 130/130/130 127/127/127
f 128/128/128 129/129/129 130/130/130
f 133/133/133 132/132/132 131/131/131
f 133/133/133 131/131/131 134/134/134
f 133/133/133 134/134/134 135/135/135
f 133/133/133 136/136/136 132/132/132
f 136/136/136 133/133/133 135/135/135
f 136/136/136 137/137/137 132/132/132
f 136/136/136 135/135/135 138/138/138
f 136/136/136 139/139/139 137/137/137
f 139/139/139 136/136/136 138/138/138
f 139/139/139 140/140/140 137/137/137
f 139/139/139 138/138/138 141/141/141
f 139/139/139 141/141/141 140/140/140
f 144/144/144 143/143/143 142/142/142
f 144/144/144 142/142/142 145/145/145
f 144/144/144 146/146/146 143/143/143
f 147/147/147 144/144/144 145/145/145
f 144/144/144 147/147/147 146/146/146
f 147/147/147 145/145/145 148/148/148
f 147/147/147 149/149/149 146/146/146
f 150/150/150 147/147/147 148/148/148
f 147/147/147 150/150/150 149/149/149
f 150/150/150 148/148/148 151/151/151
f 150/150/150 152/152/152 149/149/149
f 150/150/150 151/151/151 152/152/152
