g SlashesBad
v -0.1599255 3.702499 -9.750175
v -7.034681 2.923329 -4.050254
v -2.419685 3.446383 -8.269861
v -0.931836 4.635819 -6.793965
v 3.475788 1.930763 -8.566074
v 5.090487 0.2199456 -11.73059
v 5.839689 1.344286 -9.178691
v 7.971097 -3.940965 -12.4146
v 9.01923 -3.530333 -10.13687
v 9.178301 -7.83957 -12.51173
v 10.35116 -7.83957 -10.24087
v 15.405 -5.883225 7.162477
v 15.78114 -7.83957 8.819909
v 15.24771 -7.83957 12.51173
v 13.62724 -1.710452 10.35509
v 14.04035 -1.546138 7.161443
v 13.88437 -1.608231 5.889266
v 11.15612 1.317551 3.735923
v 10.64464 2.439216 7.161443
v 8.038458 4.660932 2.436985
v 8.255392 4.988754 5.124796
v 2.317965 6.45935 1.29143
v 5.39403 5.725346 1.291212
v 0.71996 6.36634 0.2503605
v -13.63812 -1.671251 1.290845
v -15.53684 -7.83957 1.291746
v -14.4252 -7.83957 -1.749826
v -15.78114 -7.83957 3.076691
v -14.35794 -1.384903 7.161446
v -9.474983 4.045512 7.161446
v -11.93765 0.778847 4.310084
v -12.13149 0.7644231 8.834616
v -8.205398 4.690087 10.96911
v -8.421922 5.017148 8.151347
v -4.474847 6.328661 9.520496
v -0.1599247 7.83957 10.47581
v -4.765606 5.970126 11.22874
vt 0.5520214 0.7415612
vt 0.5530082 0.7420883
vt 0.5523458 0.7417344
vt 0.5520214 0.7418798
vt 0.5513239 0.7414504
vt 0.5512194 0.7409309
vt 0.5511308 0.7413863
vt 0.550724 0.7405378
vt 0.5505847 0.7409232
vt 0.5499673 0.7401425
vt 0.5497239 0.7405252
vt 0.5490805 0.7436398
vt 0.5486855 0.7439408
vt 0.5487931 0.7446114
vt 0.5501111 0.7440904
vt 0.5500633 0.7436398
vt 0.5500764 0.7434503
vt 0.550469 0.7432749
vt 0.5505539 0.7436407
vt 0.5509177 0.7430745
vt 0.5508953 0.7434688
vt 0.551641 0.7429121
vt 0.5513765 0.7428942
vt 0.5517926 0.7427272
vt 0.5538667 0.7427651
vt 0.5551934 0.7425464
vt 0.5550084 0.7420009
vt 0.5552614 0.7428789
vt 0.5539476 0.7436398
vt 0.5532595 0.743641
vt 0.5536165 0.7432154
vt 0.553637 0.7438846
vt 0.5530846 0.7441356
vt 0.5531121 0.7437697
vt 0.5525911 0.7439364
vt 0.5520214 0.7440483
vt 0.5526298 0.7441498
vn 0.1824478 0.9468868 -0.2647982
vn -0.3700863 0.8693452 -0.3275287
vn -0.3700863 0.8693452 -0.3275286
vn -0.2087079 0.927402 -0.3104295
vn 0.3869843 0.8818271 -0.2694889
vn 0.6069195 0.6888076 -0.3964755
vn 0.5557552 0.7428302 -0.373282
vn 0.7813379 0.4367066 -0.4458682
vn 0.776961 0.4446157 -0.4457001
vn 0.8539345 0.2749943 -0.4417852
vn 0.8539345 0.2749943 -0.4417852
vn 0.9452295 0.2977844 0.1336621
vn 0.944804 0.2976555 0.1369176
vn 0.9448041 0.2976554 0.1369176
vn 0.9254966 0.3529735 0.1373525
vn 0.8695434 0.4931505 0.02639813
vn 0.7751663 0.6216974 -0.1122924
vn 0.7588208 0.641875 -0.1103962
vn 0.7599365 0.6431351 -0.09420064
vn 0.6147423 0.7835248 -0.09044763
vn 0.7026861 0.7040561 -0.1026509
vn 0.2696877 0.9392419 -0.2123514
vn 0.3070383 0.9502108 -0.05317011
vn 0.2121735 0.8892978 -0.4051319
vn -0.9062444 0.3961294 -0.1476565
vn -0.939178 0.2889532 -0.1856092
vn -0.9022948 0.277694 -0.3297727
vn -0.9476533 0.2915275 -0.1302493
vn -0.8424606 0.5305983 -0.09341123
vn -0.7409484 0.6670595 0.0776346
vn -0.7379621 0.6635659 -0.1228508
vn -0.7365943 0.6633595 0.1318452
vn -0.5583547 0.8182455 0.1368001
vn -0.6362413 0.7594665 0.1356753
vn -0.3541455 0.9255007 0.1342735
vn -0.3541455 0.9255007 0.1342735
vn -0.3541455 0.9255007 0.1342735
g SlashesBad_0
f 3/3/3 2/2/2 1/1/1
f 2/2/2 4/4/4 1/1/1
f 5/5/5 1/1/1 4/4/4
f 1/1/1 5/5/5 6/6/6
f 5/5/5 7/7/7 6/6/6
f 6/6/6 7/7/7 8/8/8
f 7/7/7 9/9/9 8/8/8
f 8/8/8 9/9/9 10/10/10
f 9/9/9 11/11/11 10/10/10
f 14/14/14 13/13/13 12/12/12
f 12/12/12 15/15/15 14/14/14
f 12/12/12 16/16/16 15/15/15
f 17/17/17 16/16/16 12/12/12
f 16/16/16 17/17/17 18/18/18
f 15/15/15 16/16/16 19/19/19
f 18/18/18 19/19/19 16/16/16
f 18/18/18 20/20/20 19/19/19
f 20/20/20 21/21/21 19/19/19
f 21/21/21 20/20/20 22/22/22
f 20/20/20 23/23/23 22/22/22
f 24/24/24 22/22/22 23/23/23
f 27/27/27 26/26/26 25/25/25
f 25/25/25 26/26/26 28/28/28
f 29/29/29 25/25/25 28/28/28
f 25/25/25 29/29/29 30/30/30
f 31/31/31 25/25/25 30/30/30
f 30/30/30 29/29/29 32/32/32
f 32/32/32 33/33/33 30/30/30
f 33/33/33 34/34/34 30/30/30
f 35/35/35 34/34/34 33/33/33
f 33/33/33 36/36/36 35/35/35
f 33/33/33 37/37/37 36/36/36
