g SmallFinRHBroken2
v -15.68266 6.194628 -22.24767
v -17.09317 7.579816 -26.44367
v -16.70428 9.114794 -25.77201
v -15.38366 7.488167 -21.61218
v -13.58246 4.918007 -19.39972
v -13.09801 8.089172 -26.51623
v -15.58302 8.942775 -26.52375
v -10.36584 7.152508 -26.51451
v -13.31123 5.978617 -18.77988
v -10.28036 3.76787 -14.62675
v -10.50844 2.962954 -14.86182
v -7.50426 6.615832 -28.087
v -3.374533 5.317527 -28.50059
v -7.206614 7.246008 -30.68099
v -7.509047 5.906973 -31.00541
v -3.683584 4.246125 -28.80139
v -3.683584 4.246125 -28.80139
v -7.509047 5.906973 -31.00541
v -8.073192 5.429598 -28.43514
v -10.50844 2.962954 -14.86182
v -10.8038 5.836808 -26.82302
v -13.58246 4.918007 -19.39972
v -13.59731 6.657818 -26.83504
v -15.68266 6.194628 -22.24767
v -17.09317 7.579816 -26.44367
v -15.76478 7.473633 -27.59139
v -16.70428 9.114794 -25.77201
v -17.09317 7.579816 -26.44367
v -15.76478 7.473633 -27.59139
v -15.58302 8.942775 -26.52375
v -15.58302 8.942775 -26.52375
v -15.76478 7.473633 -27.59139
v -13.59731 6.657818 -26.83504
v -13.09801 8.089172 -26.51623
v -13.09801 8.089172 -26.51623
v -13.59731 6.657818 -26.83504
v -10.8038 5.836808 -26.82302
v -10.36584 7.152508 -26.51451
v -10.36584 7.152508 -26.51451
v -10.8038 5.836808 -26.82302
v -8.073192 5.429598 -28.43514
v -7.50426 6.615832 -28.087
v -7.50426 6.615832 -28.087
v -8.073192 5.429598 -28.43514
v -7.509047 5.906973 -31.00541
v -7.206614 7.246008 -30.68099
vt 0.1211221 0.6951419
vt 0.09531066 0.6656651
vt 0.08821437 0.6774845
vt 0.1131049 0.7032886
vt 0.135602 0.723099
vt 0.07099766 0.7025714
vt 0.07922281 0.683392
vt 0.06256083 0.7232968
vt 0.1278702 0.7294682
vt 0.1487917 0.7679437
vt 0.1548369 0.7647786
vt 0.04170041 0.7393435
vt 0.0248968 0.7693858
vt 0.02211011 0.7319967
vt 0.01094729 0.7331648
vt 0.01586477 0.770198
vt 0.1981112 0.7630417
vt 0.1912397 0.7588261
vt 0.190329 0.7633287
vt 0.1863683 0.7867488
vt 0.1856117 0.7658496
vt 0.1808354 0.7785565
vt 0.1806969 0.7655802
vt 0.177061 0.7733997
vt 0.1744683 0.7659097
vt 0.1768105 0.7640638
vt 0.2024843 0.757105
vt 0.2024843 0.7744706
vt 0.2198498 0.7744706
vt 0.2198498 0.757105
vt 0.2024843 0.757105
vt 0.2024843 0.7744706
vt 0.2198498 0.7744706
vt 0.2198498 0.757105
vt 0.2024843 0.757105
vt 0.2024843 0.7744706
vt 0.2198498 0.7744706
vt 0.2198498 0.757105
vt 0.2024843 0.757105
vt 0.2024843 0.7744706
vt 0.2198498 0.7744706
vt 0.2198498 0.757105
vt 0.2024843 0.757105
vt 0.2024843 0.7744706
vt 0.2198498 0.7744706
vt 0.2198498 0.757105
vn -0.5730107 -0.8186358 -0.03865461
vn -0.7441717 -0.6455317 -0.1717475
vn -0.3730178 0.8849484 0.2787904
vn -0.02168844 0.9077103 0.4190366
vn -0.3430859 -0.9250241 -0.1631636
vn 0.339877 0.9402826 0.01877143
vn 0.2421456 0.9665895 -0.08408399
vn 0.3007306 0.9334432 0.1955626
vn 0.2351559 0.9189238 0.3166715
vn 0.2176975 0.9192555 0.3279894
vn -0.3646717 -0.9195102 -0.1466822
vn 0.2602927 0.9403579 0.2190316
vn 0.3534504 0.9161403 0.1891028
vn 0.3029435 0.9396991 0.1587161
vn -0.2738509 -0.907455 -0.3186395
vn -0.2298262 -0.9301336 -0.2864114
vn -0.2298262 -0.9301336 -0.2864114
vn -0.2738509 -0.907455 -0.3186395
vn -0.3227871 -0.9097878 -0.2609494
vn -0.3646717 -0.9195102 -0.1466822
vn -0.2830278 -0.9170025 -0.2810722
vn -0.3430859 -0.9250241 -0.1631636
vn -0.2294919 -0.8631829 -0.4497207
vn -0.5730107 -0.8186358 -0.03865461
vn -0.7441717 -0.6455317 -0.1717475
vn -0.2628761 -0.7497234 -0.6072981
vn -0.3730178 0.8849484 0.2787904
vn -0.7441717 -0.6455317 -0.1717475
vn -0.2628761 -0.7497234 -0.6072981
vn 0.2421456 0.9665895 -0.08408399
vn 0.2421456 0.9665895 -0.08408399
vn -0.2628761 -0.7497234 -0.6072981
vn -0.2294919 -0.8631829 -0.4497207
vn 0.339877 0.9402826 0.01877143
vn 0.339877 0.9402826 0.01877143
vn -0.2294919 -0.8631829 -0.4497207
vn -0.2830278 -0.9170025 -0.2810722
vn 0.3007306 0.9334432 0.1955626
vn 0.3007306 0.9334432 0.1955626
vn -0.2830278 -0.9170025 -0.2810722
vn -0.3227871 -0.9097878 -0.2609494
vn 0.2602927 0.9403579 0.2190316
vn 0.2602927 0.9403579 0.2190316
vn -0.3227871 -0.9097878 -0.2609494
vn -0.2738509 -0.907455 -0.3186395
vn 0.3029435 0.9396991 0.1587161
g SmallFinRHBroken2_0
f 3/3/3 2/2/2 1/1/1
f 4/4/4 3/3/3 1/1/1
f 4/4/4 1/1/1 5/5/5
f 3/3/3 4/4/4 6/6/6
f 7/7/7 3/3/3 6/6/6
f 6/6/6 4/4/4 8/8/8
f 9/9/9 4/4/4 5/5/5
f 4/4/4 9/9/9 8/8/8
f 10/10/10 9/9/9 5/5/5
f 8/8/8 9/9/9 10/10/10
f 11/11/11 10/10/10 5/5/5
f 12/12/12 8/8/8 10/10/10
f 12/12/12 10/10/10 13/13/13
f 13/13/13 14/14/14 12/12/12
f 14/14/14 13/13/13 15/15/15
f 13/13/13 16/16/16 15/15/15
f 19/19/19 18/18/18 17/17/17
f 17/17/17 20/20/20 19/19/19
f 20/20/20 21/21/21 19/19/19
f 20/20/20 22/22/22 21/21/21
f 21/21/21 22/22/22 23/23/23
f 22/22/22 24/24/24 23/23/23
f 23/23/23 24/24/24 25/25/25
f 26/26/26 23/23/23 25/25/25
f 29/29/29 28/28/28 27/27/27
f 30/30/30 29/29/29 27/27/27
f 33/33/33 32/32/32 31/31/31
f 34/34/34 33/33/33 31/31/31
f 37/37/37 36/36/36 35/35/35
f 38/38/38 37/37/37 35/35/35
f 41/41/41 40/40/40 39/39/39
f 42/42/42 41/41/41 39/39/39
f 45/45/45 44/44/44 43/43/43
f 46/46/46 45/45/45 43/43/43
