g SpikeOpult_projectile
v -0.5375004 -0.6427258 -0.8503174
v -0.1715102 -1.696815 -0.8820153
v 0.04337681 -0.6078638 -1.00057
v 0.04337681 -0.6078638 -1.00057
v -0.1715102 -1.696815 -0.8820153
v 0.4639378 -0.8158057 -0.6249414
v 0.4639378 -0.8158057 -0.6249414
v -0.1715102 -1.696815 -0.8820153
v 0.3036208 -1.058616 -0.09907104
v 0.3036208 -1.058616 -0.09907104
v -0.1715102 -1.696815 -0.8820153
v -0.2772565 -1.093484 0.05118042
v -0.2772565 -1.093484 0.05118042
v -0.1715102 -1.696815 -0.8820153
v -0.6978177 -0.8855383 -0.3244348
v -0.6978177 -0.8855383 -0.3244348
v -0.1715102 -1.696815 -0.8820153
v -0.5375004 -0.6427258 -0.8503174
v -0.8880597 1.073835 -0.4819885
v -0.4664612 1.317252 -0.4819885
v -0.9326495 1.151069 0.3664972
v -0.5110512 1.394491 0.3664972
v -0.7193576 0.7816504 1.105345
v -0.2977602 1.025051 1.105345
v -0.329657 0.1066577 1.452357
v 0.091942 0.3500708 1.452357
v 0.08760384 -0.6160522 1.274986
v 0.5092008 -0.3726416 1.274986
v 0.3730425 -1.110451 0.6409625
v 0.794642 -0.8670367 0.6409625
v 0.1541194 1.157305 0.9816162
v -0.03344596 1.482181 0.3318762
v -0.5110512 1.394491 0.3664972
v 0.4968178 0.5637341 1.286777
v 0.5092008 -0.3726416 1.274986
v 0.005765495 1.414248 -0.4142761
v -0.4664612 1.317252 -0.4819885
v 0.8637488 -0.07181641 1.130785
v 0.794642 -0.8670367 0.6409625
v 0.2567772 0.9794983 -0.9718164
v -0.1810224 0.8228528 -1.116009
v 1.11476 -0.5065832 0.5732324
v 0.8392291 -0.9442712 -0.207511
v 0.6237091 0.3439429 -1.127802
v 0.2362381 0.1001428 -1.293393
v 1.153972 -0.5744946 -0.1729077
v 0.6259401 -0.5748486 -0.9463891
v 0.4716641 1.353149 -0.2869861
v 0.65797 1.030452 -0.7008154
v 0.9303176 0.5587353 -0.8165979
v 0.4425598 1.40356 0.2668243
v 0.5817755 1.162429 0.7490777
v 0.8361345 0.7218689 0.9755554
v 1.108484 0.2501453 0.8597931
v 1.294793 -0.07255249 0.4459656
v 0.9741724 0.9696032 -0.335697
v 0.8750399 1.141311 -0.1155115
v 1.167236 0.8042737 0.07949219
v 1.119084 0.7186072 -0.397312
v 0.8595511 1.168123 0.1791565
v 0.9336264 1.039822 0.4357593
v 1.068971 0.805404 0.5562738
v 1.213881 0.5544091 0.4946753
v 1.254426 0.4841895 -0.276792
v 1.313015 0.3827002 0.2744891
v 1.18468 0.1181689 -0.5901037
v 1.328505 0.3558777 -0.02018799
v 1.323895 -0.1229626 -0.1078442
v 0.9664075 -0.249624 -0.8226416
v -0.1853611 -0.1432629 -1.293393
v -0.602621 0.5794433 -1.116009
v -0.1810224 0.8228528 -1.116009
v -0.8880597 1.073835 -0.4819885
v -0.4664612 1.317252 -0.4819885
v 0.2043415 -0.8182495 -0.9463891
v 0.8392291 -0.9442712 -0.207511
v 0.4176324 -1.187679 -0.207511
v 0.794642 -0.8670367 0.6409625
v 0.3730425 -1.110451 0.6409625
v -0.5902376 -0.3569275 -1.127802
v -0.2475378 -0.9504998 -0.8226416
v 0.4176324 -1.187679 -0.207511
v -0.9571679 0.2786243 -0.9718164
v -0.602621 0.5794433 -1.116009
v -0.05997346 -1.275372 -0.1729077
v 0.3730425 -1.110451 0.6409625
v -1.208179 0.7133838 -0.4142761
v -0.8880597 1.073835 -0.4819885
v -0.0991852 -1.207454 0.5732324
v 0.08760384 -0.6160522 1.274986
v -1.24739 0.7812951 0.3318762
v -0.9326495 1.151069 0.3664972
v -0.3501959 -0.7726916 1.130785
v -0.329657 0.1066577 1.452357
v -1.059826 0.4564319 0.9816162
v -0.7193576 0.7816504 1.105345
v -0.7171277 -0.137135 1.286777
v -1.388212 0.2793518 -0.2869861
v -1.417315 0.329762 0.2668243
v -1.278097 0.08863159 0.7490777
v -1.023737 -0.3519348 0.9755554
v -0.751389 -0.8236499 0.8597931
v -0.5650826 -1.146345 0.4459656
v -1.2019 -0.0433374 -0.7008154
v -0.5359794 -1.196755 -0.1078442
v -0.9295547 -0.5150671 -0.8165979
v -0.6751935 -0.9556256 -0.5901037
v -1.06759 -0.7628015 0.4946753
v -0.968457 -0.9345019 0.2744891
v -1.260654 -0.5974719 0.07949219
v -0.9529715 -0.9613239 -0.02018799
v -1.2125 -0.5117993 0.5562738
v -1.027045 -0.8330224 -0.276792
v -1.347842 -0.2773792 0.4357593
v -1.162387 -0.5986023 -0.397312
v -1.42192 -0.1490796 0.1791565
v -1.3073 -0.3476013 -0.335697
v -1.406434 -0.1759021 -0.1155115
v 0.7048468 0.8136328 0.8324536
v 1.605775 0.2278735 1.370558
v 0.4229855 0.3867419 1.228688
v 1.088426 0.6067957 0.3541467
v 0.5247062 -0.2469959 1.146621
v 1.190146 -0.02692871 0.2720801
v 0.9082873 -0.4538257 0.668327
v -1.276086 0.2847534 -0.08975708
v -1.691715 0.02995117 -1.188245
v -0.994227 0.7116492 -0.4859912
v -1.174364 -0.3489819 -0.1718286
v -0.6106457 0.5048108 -0.964309
v -0.7907866 -0.5558105 -0.6501257
v -0.5089251 -0.1289148 -1.046381
v -0.07200693 1.244094 -0.4859912
v 0.8671069 1.50728 -1.188245
v 0.4386227 1.274745 -0.08975708
v -0.08467335 0.8084815 -0.964309
v 0.9365918 0.8697839 -0.1718286
v 0.4132924 0.4035327 -1.046381
v 0.9239252 0.4341821 -0.6501257
v -0.4992311 -0.1457043 1.228688
v -0.9530466 -1.249462 1.370558
v -1.009864 -0.176355 0.8324548
v -0.001265633 -0.5506579 1.146621
v -1.022531 -0.6119592 0.3541467
v -0.01393185 -0.9862646 0.668327
v -0.5245633 -1.016917 0.2720801
v 0.1920856 1.358685 -0.008875732
v 0.07823433 2.008246 0.995827
v -0.4333076 1.32114 0.1528931
v 0.6448758 1.134797 0.3955353
v -0.6059114 1.05973 0.719065
v 0.472272 0.8733875 0.9617169
v -0.1531208 0.8358435 1.12348
v 0.5141754 -0.31995 -0.9411609
v 1.645191 -0.7057959 -0.8135192
v 0.8593826 0.2028845 -0.7793909
v 0.4816667 -0.82401 -0.5367554
v 1.172078 0.2216699 -0.2132165
v 0.7943653 -0.805249 0.02942627
v 1.13957 -0.2824048 0.1911938
v -0.8803033 1.063075 0.1528943
v -1.73113 0.9636182 0.995827
v -1.225508 0.5402393 -0.008875732
v -0.5676065 1.081847 0.719065
v -1.258017 0.03616577 0.3955353
v -0.600116 0.5777722 1.12348
v -0.9453219 0.05493652 0.9617169
vt 0.409231 0.6832563
vt 0.4416767 0.6282175
vt 0.3809245 0.6282176
vt 0.3809245 0.6282176
vt 0.4416767 0.6282175
vt 0.409231 0.5781785
vt 0.409231 0.5781785
vt 0.4416767 0.6282175
vt 0.474008 0.5781785
vt 0.474008 0.5781785
vt 0.4416767 0.6282175
vt 0.5024294 0.6282175
vt 0.5024294 0.6282175
vt 0.4416767 0.6282175
vt 0.474008 0.6832563
vt 0.474008 0.6832563
vt 0.4416767 0.6282175
vt 0.409231 0.6832563
vt 0.5943674 0.01157628
vt 0.5914207 0.05694272
vt 0.6601281 0.01157628
vt 0.660422 0.05694272
vt 0.7349982 0.01157628
vt 0.7339065 0.05694272
vt 0.8187502 0.01157628
vt 0.8208973 0.05694275
vt 0.8928818 0.01157628
vt 0.8936465 0.05694275
vt 0.9598034 0.01157628
vt 0.9618629 0.05694272
vt 0.74179 0.0973881
vt 0.6841769 0.1430893
vt 0.6506514 0.119709
vt 0.8142477 0.0963894
vt 0.905969 0.116175
vt 0.6636809 0.2148961
vt 0.6228384 0.2158165
vt 0.8731046 0.1404773
vt 0.9364332 0.211468
vt 0.6874208 0.2864462
vt 0.6544056 0.3114125
vt 0.8955792 0.2116826
vt 0.9075332 0.307893
vt 0.7454138 0.3325055
vt 0.7358703 0.3744151
vt 0.8738338 0.2838545
vt 0.8280077 0.3744151
vt 0.7015448 0.2136466
vt 0.7175559 0.2616903
vt 0.7567345 0.2914659
vt 0.7153686 0.1651348
vt 0.7541441 0.1345199
vt 0.802924 0.1338445
vt 0.8425345 0.1633751
vt 0.8576934 0.2114825
vt 0.7486534 0.2363327
vt 0.7406492 0.2121826
vt 0.7796003 0.2113216
vt 0.7682812 0.2509335
vt 0.7477359 0.1878484
vt 0.7670563 0.1727765
vt 0.7910759 0.1724446
vt 0.8108065 0.1869758
vt 0.7920123 0.250603
vt 0.8185614 0.2111028
vt 0.8046796 0.2907977
vt 0.8112268 0.235463
vt 0.8430189 0.2599479
vt 0.8171439 0.3315011
vt 0.7368805 0.423605
vt 0.657138 0.423605
vt 0.6559087 0.3744151
vt 0.5776836 0.423605
vt 0.5763429 0.3744151
vt 0.8286238 0.423605
vt 0.908152 0.3744151
vt 0.9082305 0.423605
vt 0.9877514 0.3744151
vt 0.9877224 0.423605
vt 0.7476492 0.464913
vt 0.8192267 0.4638694
vt 0.9102538 0.4841796
vt 0.6908866 0.5121319
vt 0.6572582 0.487886
vt 0.8773515 0.5093966
vt 0.9424573 0.5791523
vt 0.6687758 0.583824
vt 0.6278552 0.5837647
vt 0.9015568 0.580409
vt 0.9152967 0.6747149
vt 0.6909491 0.65459
vt 0.6578105 0.6784894
vt 0.8814727 0.6517938
vt 0.8370208 0.7356578
vt 0.7501982 0.6981649
vt 0.7378418 0.7371101
vt 0.8235275 0.6970922
vt 0.7068226 0.5843691
vt 0.7218623 0.6322359
vt 0.7617324 0.6615781
vt 0.8109255 0.6608605
vt 0.8499185 0.6303587
vt 0.8635423 0.5820687
vt 0.7216986 0.5362429
vt 0.8472614 0.534399
vt 0.7600843 0.5056512
vt 0.8079901 0.5049481
vt 0.8172815 0.608109
vt 0.8242985 0.5839313
vt 0.7852114 0.5849649
vt 0.8162131 0.559974
vt 0.7978828 0.6231446
vt 0.7965277 0.5454834
vt 0.773666 0.6234983
vt 0.7727369 0.5458312
vt 0.753831 0.609041
vt 0.7534848 0.560893
vt 0.7461064 0.5850764
vt 0.5024294 0.6282175
vt 0.4416768 0.6282176
vt 0.474008 0.6832563
vt 0.474008 0.5781785
vt 0.4092308 0.6832563
vt 0.4092308 0.5781785
vt 0.3809245 0.6282176
vt 0.4092308 0.5781786
vt 0.4416768 0.6282175
vt 0.474008 0.5781786
vt 0.3809245 0.6282177
vt 0.5024294 0.6282176
vt 0.409231 0.6832563
vt 0.474008 0.6832564
vt 0.3809245 0.6282176
vt 0.4416768 0.6282176
vt 0.409231 0.5781785
vt 0.409231 0.6832563
vt 0.474008 0.5781785
vt 0.4740081 0.6832563
vt 0.5024293 0.6282175
vt 0.474008 0.6832564
vt 0.4416769 0.6282175
vt 0.4092308 0.6832563
vt 0.5024293 0.6282176
vt 0.3809245 0.6282176
vt 0.474008 0.5781786
vt 0.409231 0.5781785
vt 0.3955365 0.6722366
vt 0.4437585 0.6304131
vt 0.383727 0.6085452
vt 0.4548343 0.6901476
vt 0.4326827 0.570679
vt 0.4988532 0.6530799
vt 0.4870437 0.5893884
vt 0.474008 0.5781786
vt 0.4416769 0.6282176
vt 0.5024294 0.6282176
vt 0.409231 0.5781786
vt 0.474008 0.6832563
vt 0.3809245 0.6282176
vt 0.409231 0.6832563
vt 0.4740081 0.6832563
vt 0.4416768 0.6282176
vt 0.4092309 0.6832563
vt 0.5024293 0.6282176
vt 0.3809245 0.6282176
vt 0.4740081 0.5781786
vt 0.409231 0.5781786
vn -0.2468356 -0.05661258 -0.9674022
vn -0.2468356 -0.05661258 -0.9674022
vn -0.2468356 -0.05661258 -0.9674022
vn 0.5949218 -0.2020955 -0.7779624
vn 0.5949218 -0.2020955 -0.7779624
vn 0.5949219 -0.2020955 -0.7779623
vn 0.8136664 -0.5809809 -0.02020163
vn 0.8136664 -0.580981 -0.02020163
vn 0.8136664 -0.5809809 -0.02020163
vn 0.1906625 -0.8143795 0.5481185
vn 0.1906625 -0.8143795 0.5481185
vn 0.1906625 -0.8143795 0.5481185
vn -0.6510872 -0.6689042 0.3586818
vn -0.6510872 -0.6689042 0.3586818
vn -0.6510872 -0.6689042 0.3586819
vn -0.8698413 -0.2900167 -0.3990819
vn -0.8698413 -0.2900168 -0.399082
vn -0.8698413 -0.2900168 -0.3990819
vn -0.5916108 0.6962489 -0.4064897
vn -0.3095191 0.8645459 -0.3959271
vn -0.6252601 0.7545061 0.1994255
vn -0.3396055 0.9166554 0.2107391
vn -0.4743845 0.4932154 0.7291762
vn -0.1856408 0.6499914 0.7369184
vn -0.1966507 0.01216332 0.9803981
vn 0.09353608 0.1664297 0.981607
vn 0.1018666 -0.5048995 0.8571462
vn 0.391331 -0.3493429 0.8513633
vn 0.3071605 -0.8604736 0.4064942
vn 0.5939657 -0.7003166 0.3959309
vn 0.1235384 0.7372305 0.664251
vn -0.01660089 0.9799781 0.1984117
vn -0.3396055 0.9166554 0.2107391
vn 0.3738341 0.3037255 0.8763554
vn 0.391331 -0.3493429 0.8513633
vn 0.006924544 0.9392342 -0.3432072
vn -0.3095191 0.8645459 -0.3959271
vn 0.6386603 -0.1549586 0.7537248
vn 0.5939657 -0.7003166 0.3959309
vn 0.185127 0.6305713 -0.7537293
vn -0.1068831 0.5135722 -0.8513634
vn 0.8168623 -0.4636263 0.3432005
vn 0.6240473 -0.7524328 -0.2107363
vn 0.4499504 0.1718848 -0.8763562
vn 0.1909068 -0.002193745 -0.9816057
vn 0.8403826 -0.5043668 -0.1984219
vn 0.4700983 -0.4857688 -0.73691
vn 0.325666 0.9104474 -0.2550043
vn 0.460359 0.67717 -0.5740299
vn 0.6630764 0.3260379 -0.6738167
vn 0.310482 0.9367685 0.1614487
vn 0.4205733 0.7460806 0.5162188
vn 0.6139057 0.4112231 0.6738067
vn 0.816615 0.06009752 0.5740456
vn 0.9513042 -0.1731892 0.2550016
vn 0.691285 0.6444528 -0.3268116
vn 0.6155278 0.7756696 -0.1395071
vn 0.866026 0.499999 5.339009E-06
vn 0.8076182 0.4429577 -0.3892832
vn 0.6092917 0.7864751 0.1010967
vn 0.6749433 0.6727604 0.3030594
vn 0.7874157 0.477948 0.3892842
vn 0.9037551 0.2764471 0.3268082
vn 0.9200974 0.2481433 -0.3030604
vn 0.9795123 0.1452307 0.1395121
vn 0.8564093 -0.008827394 -0.5162219
vn 0.9857563 0.1344154 -0.1010792
vn 0.9665036 -0.1995143 -0.1614465
vn 0.7002394 -0.2616136 -0.6642463
vn -0.0878016 -0.1763829 -0.9803979
vn -0.386319 0.3406773 -0.8571444
vn -0.1068831 0.5135722 -0.8513634
vn -0.5916108 0.6962489 -0.4064897
vn -0.3095191 0.8645459 -0.3959271
vn 0.1899315 -0.6574469 -0.7291704
vn 0.6240473 -0.7524328 -0.2107363
vn 0.3408047 -0.9187385 -0.1994285
vn 0.5939657 -0.7003166 0.3959309
vn 0.3071605 -0.8604736 0.4064942
vn -0.3580184 -0.3311197 -0.8730306
vn -0.1117281 -0.7577078 -0.6429585
vn 0.3408047 -0.9187385 -0.1994285
vn -0.6248829 0.1311008 -0.7696323
vn -0.386319 0.3406773 -0.8571444
vn 0.0199101 -0.9857033 -0.1673102
vn 0.3071605 -0.8604736 0.4064942
vn -0.8103912 0.4524236 -0.3722619
vn -0.5916108 0.6962489 -0.4064897
vn -0.01339206 -0.9280325 0.3722585
vn 0.1018666 -0.5048995 0.8571462
vn -0.8436907 0.5100942 0.1673018
vn -0.6252601 0.7545061 0.1994255
vn -0.1989015 -0.6067175 0.7696311
vn -0.1966507 0.01216332 0.9803981
vn -0.7120543 0.282092 0.6429641
vn -0.4743845 0.4932154 0.7291762
vn -0.4657699 -0.1444863 0.8730304
vn -0.9425542 0.1580237 -0.2943128
vn -0.9709771 0.2072635 0.1193532
vn -0.8723983 0.03651753 0.4874296
vn -0.6844833 -0.2889709 0.6693119
vn -0.4789928 -0.644882 0.5955611
vn -0.3344223 -0.8952875 0.2943164
vn -0.7979858 -0.09237514 -0.5955548
vn -0.306002 -0.9445208 -0.119346
vn -0.5924965 -0.4482883 -0.6693172
vn -0.4045726 -0.7737848 -0.4874197
vn -0.7091305 -0.6135441 0.3474154
vn -0.6239053 -0.7611572 0.1771492
vn -0.8660263 -0.4999985 1.213537E-06
vn -0.6050036 -0.7938995 -0.06078088
vn -0.8281123 -0.4074613 0.3849744
vn -0.6596337 -0.6992772 -0.2754903
vn -0.9354069 -0.2216246 0.2754932
vn -0.7669377 -0.5134236 -0.3849711
vn -0.9900383 -0.1270024 0.06078399
vn -0.8859151 -0.3073458 -0.3474089
vn -0.9711316 -0.1597495 -0.1771544
vn 0.2924131 0.8508148 0.4365875
vn 0.7891461 0.04736624 0.6123764
vn -0.07465817 0.2948542 0.9526212
vn 0.7919523 0.5814574 -0.1863301
vn 0.05780815 -0.5304387 0.84575
vn 0.9244249 -0.243862 -0.2932063
vn 0.557355 -0.7998118 0.2228371
vn -0.9244264 0.2438566 0.2932058
vn -0.7891468 -0.04736019 -0.6123761
vn -0.5573524 0.7998147 -0.2228332
vn -0.7919544 -0.5814557 0.1863266
vn -0.05781541 0.5304582 -0.8457373
vn -0.2924098 -0.8508165 -0.4365865
vn 0.07465181 -0.2948695 -0.952617
vn -0.4139801 0.882589 -0.2228387
vn 0.435589 0.65974 -0.6123769
vn 0.2510272 0.9225069 0.2932003
vn -0.4304816 0.3153034 -0.845736
vn 0.8995304 0.3951279 0.1863301
vn 0.2180353 -0.2120862 -0.9526174
vn 0.8830357 -0.1721748 -0.4365819
vn -0.218021 0.2120838 0.9526213
vn -0.4355953 -0.6597416 0.6123707
vn -0.883031 0.172173 0.4365921
vn 0.4304725 -0.3152834 0.8457481
vn -0.8995322 -0.3951236 -0.1863307
vn 0.4139852 -0.8825864 0.2228397
vn -0.2510193 -0.9225068 -0.2932075
vn 0.2560171 0.8247582 -0.5042114
vn 0.05801575 0.8995188 0.4330127
vn -0.5584429 0.7758698 -0.2935433
vn 0.8456944 0.5331942 0.02246894
vn -0.783221 0.4354241 0.4438138
vn 0.6209068 0.1927494 0.7598174
vn -0.1935502 0.1438618 0.9704855
vn 0.02780703 -0.2395374 -0.9704888
vn 0.8080155 -0.3995189 -0.4330076
vn 0.4773687 0.4413564 -0.7598181
vn -0.01453466 -0.8960015 -0.4438132
vn 0.8846069 0.4657955 -0.02247207
vn 0.3926997 -0.8715621 0.2935415
vn 0.8422703 -0.1906539 0.5042142
vn -0.3926995 0.8715617 -0.2935425
vn -0.8080144 0.3995153 0.4330131
vn -0.8422666 0.1906587 -0.5042183
vn 0.01452442 0.8959987 0.4438191
vn -0.8846061 -0.4657977 0.0224665
vn -0.02781224 0.2395488 0.9704859
vn -0.477377 -0.4413476 0.7598181
g SpikeOpult_projectile_0
f 3/3/3 2/2/2 1/1/1
f 6/6/6 5/5/5 4/4/4
f 9/9/9 8/8/8 7/7/7
f 12/12/12 11/11/11 10/10/10
f 15/15/15 14/14/14 13/13/13
f 18/18/18 17/17/17 16/16/16
f 21/21/21 20/20/20 19/19/19
f 21/21/21 22/22/22 20/20/20
f 23/23/23 22/22/22 21/21/21
f 23/23/23 24/24/24 22/22/22
f 25/25/25 24/24/24 23/23/23
f 25/25/25 26/26/26 24/24/24
f 27/27/27 26/26/26 25/25/25
f 27/27/27 28/28/28 26/26/26
f 29/29/29 28/28/28 27/27/27
f 29/29/29 30/30/30 28/28/28
f 26/26/26 31/31/31 24/24/24
f 24/24/24 31/31/31 32/32/32
f 24/24/24 32/32/32 33/33/33
f 26/26/26 34/34/34 31/31/31
f 35/35/35 34/34/34 26/26/26
f 33/33/33 32/32/32 36/36/36
f 33/33/33 36/36/36 37/37/37
f 35/35/35 38/38/38 34/34/34
f 39/39/39 38/38/38 35/35/35
f 37/37/37 36/36/36 40/40/40
f 37/37/37 40/40/40 41/41/41
f 39/39/39 42/42/42 38/38/38
f 43/43/43 42/42/42 39/39/39
f 41/41/41 40/40/40 44/44/44
f 41/41/41 44/44/44 45/45/45
f 43/43/43 46/46/46 42/42/42
f 47/47/47 46/46/46 43/43/43
f 32/32/32 48/48/48 36/36/36
f 36/36/36 49/49/49 40/40/40
f 36/36/36 48/48/48 49/49/49
f 40/40/40 50/50/50 44/44/44
f 40/40/40 49/49/49 50/50/50
f 32/32/32 51/51/51 48/48/48
f 31/31/31 51/51/51 32/32/32
f 31/31/31 52/52/52 51/51/51
f 34/34/34 52/52/52 31/31/31
f 34/34/34 53/53/53 52/52/52
f 38/38/38 53/53/53 34/34/34
f 38/38/38 54/54/54 53/53/53
f 42/42/42 54/54/54 38/38/38
f 42/42/42 55/55/55 54/54/54
f 46/46/46 55/55/55 42/42/42
f 48/48/48 56/56/56 49/49/49
f 51/51/51 57/57/57 48/48/48
f 48/48/48 57/57/57 56/56/56
f 57/57/57 58/58/58 56/56/56
f 56/56/56 58/58/58 59/59/59
f 49/49/49 56/56/56 59/59/59
f 60/60/60 58/58/58 57/57/57
f 51/51/51 60/60/60 57/57/57
f 52/52/52 60/60/60 51/51/51
f 49/49/49 59/59/59 50/50/50
f 52/52/52 61/61/61 60/60/60
f 61/61/61 58/58/58 60/60/60
f 53/53/53 61/61/61 52/52/52
f 53/53/53 62/62/62 61/61/61
f 62/62/62 58/58/58 61/61/61
f 54/54/54 62/62/62 53/53/53
f 54/54/54 63/63/63 62/62/62
f 63/63/63 58/58/58 62/62/62
f 55/55/55 63/63/63 54/54/54
f 50/50/50 59/59/59 64/64/64
f 59/59/59 58/58/58 64/64/64
f 55/55/55 65/65/65 63/63/63
f 65/65/65 58/58/58 63/63/63
f 50/50/50 64/64/64 66/66/66
f 44/44/44 50/50/50 66/66/66
f 64/64/64 58/58/58 67/67/67
f 67/67/67 58/58/58 65/65/65
f 66/66/66 64/64/64 67/67/67
f 68/68/68 65/65/65 55/55/55
f 68/68/68 67/67/67 65/65/65
f 66/66/66 67/67/67 68/68/68
f 46/46/46 68/68/68 55/55/55
f 44/44/44 66/66/66 69/69/69
f 69/69/69 66/66/66 68/68/68
f 69/69/69 68/68/68 46/46/46
f 45/45/45 44/44/44 69/69/69
f 47/47/47 69/69/69 46/46/46
f 45/45/45 69/69/69 47/47/47
f 70/70/70 45/45/45 47/47/47
f 71/71/71 45/45/45 70/70/70
f 71/71/71 72/72/72 45/45/45
f 73/73/73 72/72/72 71/71/71
f 73/73/73 74/74/74 72/72/72
f 70/70/70 47/47/47 75/75/75
f 75/75/75 47/47/47 76/76/76
f 75/75/75 76/76/76 77/77/77
f 77/77/77 76/76/76 78/78/78
f 77/77/77 78/78/78 79/79/79
f 80/80/80 70/70/70 75/75/75
f 80/80/80 75/75/75 81/81/81
f 81/81/81 75/75/75 82/82/82
f 83/83/83 70/70/70 80/80/80
f 83/83/83 84/84/84 70/70/70
f 81/81/81 82/82/82 85/85/85
f 85/85/85 82/82/82 86/86/86
f 87/87/87 84/84/84 83/83/83
f 87/87/87 88/88/88 84/84/84
f 85/85/85 86/86/86 89/89/89
f 89/89/89 86/86/86 90/90/90
f 91/91/91 88/88/88 87/87/87
f 91/91/91 92/92/92 88/88/88
f 89/89/89 90/90/90 93/93/93
f 93/93/93 90/90/90 94/94/94
f 95/95/95 92/92/92 91/91/91
f 95/95/95 96/96/96 92/92/92
f 97/97/97 94/94/94 96/96/96
f 93/93/93 94/94/94 97/97/97
f 97/97/97 96/96/96 95/95/95
f 98/98/98 87/87/87 83/83/83
f 99/99/99 91/91/91 87/87/87
f 99/99/99 87/87/87 98/98/98
f 100/100/100 95/95/95 91/91/91
f 100/100/100 91/91/91 99/99/99
f 101/101/101 97/97/97 95/95/95
f 101/101/101 95/95/95 100/100/100
f 102/102/102 93/93/93 97/97/97
f 102/102/102 97/97/97 101/101/101
f 103/103/103 89/89/89 93/93/93
f 103/103/103 93/93/93 102/102/102
f 98/98/98 83/83/83 104/104/104
f 104/104/104 83/83/83 80/80/80
f 105/105/105 89/89/89 103/103/103
f 105/105/105 85/85/85 89/89/89
f 104/104/104 80/80/80 106/106/106
f 106/106/106 80/80/80 81/81/81
f 107/107/107 81/81/81 85/85/85
f 107/107/107 85/85/85 105/105/105
f 106/106/106 81/81/81 107/107/107
f 108/108/108 102/102/102 101/101/101
f 109/109/109 103/103/103 102/102/102
f 109/109/109 102/102/102 108/108/108
f 108/108/108 110/110/110 109/109/109
f 109/109/109 110/110/110 111/111/111
f 111/111/111 103/103/103 109/109/109
f 111/111/111 105/105/105 103/103/103
f 112/112/112 110/110/110 108/108/108
f 108/108/108 101/101/101 112/112/112
f 112/112/112 101/101/101 100/100/100
f 113/113/113 105/105/105 111/111/111
f 113/113/113 107/107/107 105/105/105
f 111/111/111 110/110/110 113/113/113
f 112/112/112 100/100/100 114/114/114
f 114/114/114 110/110/110 112/112/112
f 114/114/114 100/100/100 99/99/99
f 115/115/115 107/107/107 113/113/113
f 115/115/115 106/106/106 107/107/107
f 113/113/113 110/110/110 115/115/115
f 114/114/114 99/99/99 116/116/116
f 116/116/116 110/110/110 114/114/114
f 116/116/116 99/99/99 98/98/98
f 117/117/117 106/106/106 115/115/115
f 115/115/115 110/110/110 117/117/117
f 117/117/117 104/104/104 106/106/106
f 116/116/116 98/98/98 118/118/118
f 118/118/118 110/110/110 116/116/116
f 118/118/118 98/98/98 104/104/104
f 118/118/118 104/104/104 117/117/117
f 117/117/117 110/110/110 118/118/118
f 121/121/121 120/120/120 119/119/119
f 119/119/119 120/120/120 122/122/122
f 123/123/123 120/120/120 121/121/121
f 122/122/122 120/120/120 124/124/124
f 125/125/125 120/120/120 123/123/123
f 124/124/124 120/120/120 125/125/125
f 128/128/128 127/127/127 126/126/126
f 126/126/126 127/127/127 129/129/129
f 130/130/130 127/127/127 128/128/128
f 129/129/129 127/127/127 131/131/131
f 132/132/132 127/127/127 130/130/130
f 131/131/131 127/127/127 132/132/132
f 135/135/135 134/134/134 133/133/133
f 133/133/133 134/134/134 136/136/136
f 137/137/137 134/134/134 135/135/135
f 136/136/136 134/134/134 138/138/138
f 139/139/139 134/134/134 137/137/137
f 138/138/138 134/134/134 139/139/139
f 142/142/142 141/141/141 140/140/140
f 140/140/140 141/141/141 143/143/143
f 144/144/144 141/141/141 142/142/142
f 143/143/143 141/141/141 145/145/145
f 146/146/146 141/141/141 144/144/144
f 145/145/145 141/141/141 146/146/146
f 149/149/149 148/148/148 147/147/147
f 147/147/147 148/148/148 150/150/150
f 151/151/151 148/148/148 149/149/149
f 150/150/150 148/148/148 152/152/152
f 153/153/153 148/148/148 151/151/151
f 152/152/152 148/148/148 153/153/153
f 156/156/156 155/155/155 154/154/154
f 154/154/154 155/155/155 157/157/157
f 158/158/158 155/155/155 156/156/156
f 157/157/157 155/155/155 159/159/159
f 160/160/160 155/155/155 158/158/158
f 159/159/159 155/155/155 160/160/160
f 163/163/163 162/162/162 161/161/161
f 161/161/161 162/162/162 164/164/164
f 165/165/165 162/162/162 163/163/163
f 164/164/164 162/162/162 166/166/166
f 167/167/167 162/162/162 165/165/165
f 166/166/166 162/162/162 167/167/167
