g StaffTotem_Brown
v -7.104403 8.877086 10.55808
v -6.885172 8.877086 10.32692
v -6.885172 8.405786 10.16347
v -7.149805 8.405786 10.4425
v -7.149805 9.348388 10.4425
v -6.885172 9.348388 10.16347
v -6.885172 8.877086 10.32692
v -7.104403 8.877086 10.55808
v -6.885172 9.348388 10.16347
v -6.885172 9.348388 9.056171
v -6.885172 8.877086 8.832968
v -6.885172 8.877086 10.32692
v -7.166403 8.405786 8.759638
v -6.885172 8.405786 9.056171
v -6.885172 8.877086 8.832968
v -7.104403 8.877086 8.601809
v -7.104403 8.877086 8.601809
v -6.885172 8.877086 8.832968
v -6.885172 9.348388 9.056171
v -7.166403 9.348388 8.759638
v -6.885172 8.405786 10.16347
v -6.885172 8.405786 9.056171
v -7.166403 8.405786 8.759638
v -7.149805 8.405786 10.4425
v -7.98143 8.405786 8.759638
v -7.98143 8.405786 10.4425
v -6.885172 8.877086 10.32692
v -6.885172 8.877086 8.832968
v -6.885172 8.405786 9.056171
v -6.885172 8.405786 10.16347
v -7.149805 9.348388 10.4425
v -6.885172 9.348388 9.056171
v -6.885172 9.348388 10.16347
v -7.166403 9.348388 8.759638
v -7.98143 9.348388 8.759638
v -7.98143 9.348388 10.4425
v -7.98143 8.877086 10.55808
v -7.104403 8.877086 10.55808
v -7.149805 8.405786 10.4425
v -7.98143 8.405786 10.4425
v -7.98143 9.348388 10.4425
v -7.149805 9.348388 10.4425
v -7.104403 8.877086 10.55808
v -7.98143 8.877086 10.55808
v -7.98143 8.877086 8.601809
v -7.104403 8.877086 8.601809
v -7.166403 9.348388 8.759638
v -7.98143 9.348388 8.759638
v -7.98143 8.405786 8.759638
v -7.166403 8.405786 8.759638
v -7.104403 8.877086 8.601809
v -7.98143 8.877086 8.601809
v -11.31368 7.547091 11.48873
v -11.75326 7.782645 11.25422
v -11.3384 7.782645 11.72324
v -11.65799 7.533055 10.74565
v -11.3384 7.782645 11.72324
v -8.019101 7.782645 11.72324
v -8.04382 7.547091 11.48873
v -11.31368 7.547091 11.48873
v -8.019101 7.782645 11.72324
v -7.604241 7.782645 11.25422
v -8.04382 7.547091 11.48873
v -7.699514 7.533055 10.74565
v -11.25248 10.43064 11.48873
v -8.105021 10.43064 11.48873
v -8.019101 10.19509 11.72324
v -11.3384 10.19509 11.72324
v -11.3384 10.19509 11.72324
v -11.75326 10.19509 11.25422
v -11.75326 10.43064 10.92257
v -11.25248 10.43064 11.48873
v -8.105021 10.43064 11.48873
v -7.604241 10.43064 10.92257
v -7.604241 10.19509 11.25422
v -8.019101 10.19509 11.72324
v -11.3384 10.19509 11.72324
v -8.019101 10.19509 11.72324
v -8.019101 7.782645 11.72324
v -11.3384 7.782645 11.72324
v -11.75326 7.782645 11.25422
v -11.75326 10.19509 11.25422
v -11.3384 10.19509 11.72324
v -11.3384 7.782645 11.72324
v -8.019101 7.782645 11.72324
v -8.019101 10.19509 11.72324
v -7.604241 10.19509 11.25422
v -7.604241 7.782645 11.25422
v -11.75326 7.782645 11.25422
v -11.65799 7.533055 10.74565
v -11.65799 7.533055 8.852747
v -11.75326 7.868752 8.222944
v -11.75326 10.19509 11.25422
v -11.75326 10.10898 8.222944
v -11.75326 10.43064 8.675834
v -11.75326 10.43064 10.92257
v -7.604241 10.19509 11.25422
v -7.604241 10.43064 10.92257
v -7.604241 10.43064 8.675834
v -7.604241 10.10898 8.222944
v -7.604241 7.782645 11.25422
v -7.604241 7.868752 8.222944
v -7.699514 7.533055 8.852747
v -7.699514 7.533055 10.74565
v -11.28105 7.547091 8.074157
v -8.07645 7.547091 8.074157
v -8.019101 7.868752 7.753921
v -11.3384 7.868752 7.753921
v -11.75326 7.868752 8.222944
v -11.65799 7.533055 8.852747
v -11.28105 7.547091 8.074157
v -11.3384 7.868752 7.753921
v -8.07645 7.547091 8.074157
v -7.699514 7.533055 8.852747
v -7.604241 7.868752 8.222944
v -8.019101 7.868752 7.753921
v -11.22107 10.43064 8.074157
v -11.75326 10.43064 8.675834
v -11.75326 10.10898 8.222944
v -11.3384 10.10898 7.753921
v -11.3384 10.10898 7.753921
v -8.019101 10.10898 7.753921
v -8.13643 10.43064 8.074157
v -11.22107 10.43064 8.074157
v -8.019101 10.10898 7.753921
v -7.604241 10.10898 8.222944
v -7.604241 10.43064 8.675834
v -8.13643 10.43064 8.074157
v -11.3384 7.868752 7.753921
v -8.019101 7.868752 7.753921
v -8.019101 10.10898 7.753921
v -11.3384 10.10898 7.753921
v -11.75326 10.43064 10.92257
v -11.75326 10.43064 8.675834
v -11.22107 10.43064 8.074157
v -11.25248 10.43064 11.48873
v -8.105021 10.43064 11.48873
v -8.13643 10.43064 8.074157
v -7.604241 10.43064 10.92257
v -7.604241 10.43064 8.675834
v -8.04382 7.547091 11.48873
v -7.699514 7.533055 10.74565
v -7.699514 7.533055 8.852747
v -8.07645 7.547091 8.074157
v -11.31368 7.547091 11.48873
v -11.28105 7.547091 8.074157
v -11.65799 7.533055 8.852747
v -11.65799 7.533055 10.74565
v -11.3384 7.868752 7.753921
v -11.3384 10.10898 7.753921
v -11.75326 10.10898 8.222944
v -11.75326 7.868752 8.222944
v -7.604241 7.868752 8.222944
v -7.604241 10.10898 8.222944
v -8.019101 10.10898 7.753921
v -8.019101 7.868752 7.753921
v -12.2531 8.877086 10.55808
v -12.2077 8.405786 10.4425
v -12.47233 8.405786 10.16347
v -12.47233 8.877086 10.32692
v -12.2077 9.348388 10.4425
v -12.2531 8.877086 10.55808
v -12.47233 8.877086 10.32692
v -12.47233 9.348388 10.16347
v -12.47233 9.348388 10.16347
v -12.47233 8.877086 10.32692
v -12.47233 8.877086 8.832968
v -12.47233 9.348388 9.056171
v -12.1911 8.405786 8.759638
v -12.2531 8.877086 8.601809
v -12.47233 8.877086 8.832968
v -12.47233 8.405786 9.056171
v -12.2531 8.877086 8.601809
v -12.1911 9.348388 8.759638
v -12.47233 9.348388 9.056171
v -12.47233 8.877086 8.832968
v -12.47233 8.405786 10.16347
v -12.1911 8.405786 8.759638
v -12.47233 8.405786 9.056171
v -12.2077 8.405786 10.4425
v -11.37607 8.405786 8.759638
v -11.37607 8.405786 10.4425
v -12.47233 8.877086 10.32692
v -12.47233 8.405786 10.16347
v -12.47233 8.405786 9.056171
v -12.47233 8.877086 8.832968
v -12.2077 9.348388 10.4425
v -12.47233 9.348388 10.16347
v -12.47233 9.348388 9.056171
v -12.1911 9.348388 8.759638
v -11.37607 9.348388 8.759638
v -11.37607 9.348388 10.4425
v -11.37607 8.877086 10.55808
v -11.37607 8.405786 10.4425
v -12.2077 8.405786 10.4425
v -12.2531 8.877086 10.55808
v -11.37607 9.348388 10.4425
v -11.37607 8.877086 10.55808
v -12.2531 8.877086 10.55808
v -12.2077 9.348388 10.4425
v -11.37607 8.877086 8.601809
v -11.37607 9.348388 8.759638
v -12.1911 9.348388 8.759638
v -12.2531 8.877086 8.601809
v -11.37607 8.405786 8.759638
v -11.37607 8.877086 8.601809
v -12.2531 8.877086 8.601809
v -12.1911 8.405786 8.759638
vt 0.2682215 0.4183952
vt 0.2847428 0.4392971
vt 0.301853 0.4212948
vt 0.2903571 0.4121928
vt 0.2903571 0.4121928
vt 0.301853 0.4212948
vt 0.2847428 0.4396671
vt 0.2682215 0.4194823
vt 0.301853 0.4212948
vt 0.3506826 0.4212948
vt 0.3672455 0.4403841
vt 0.2847428 0.4396671
vt 0.3596897 0.4121928
vt 0.3506826 0.4212948
vt 0.3672455 0.4392971
vt 0.3829762 0.4183952
vt 0.3829762 0.4194823
vt 0.3672455 0.4403841
vt 0.3506826 0.4212948
vt 0.3596897 0.4121928
vt 0.301853 0.4212948
vt 0.3506826 0.4212948
vt 0.3596897 0.4121928
vt 0.2903571 0.4121928
vt 0.3596897 0.3723364
vt 0.2903571 0.3723364
vt 0.2847428 0.4392971
vt 0.3672455 0.4392971
vt 0.3506826 0.4212948
vt 0.301853 0.4212948
vt 0.2906848 0.4333598
vt 0.3510104 0.4333598
vt 0.3021808 0.4333598
vt 0.3600174 0.4333598
vt 0.3600174 0.4333598
vt 0.2906848 0.4333598
vt 0.2682215 0.3723364
vt 0.2682215 0.4183952
vt 0.2903571 0.4121928
vt 0.2903571 0.3723364
vt 0.2903571 0.3711052
vt 0.2903571 0.4121928
vt 0.2682215 0.4194823
vt 0.2682215 0.3711052
vt 0.3829762 0.3711052
vt 0.3829762 0.4194823
vt 0.3596897 0.4121928
vt 0.3596897 0.3711052
vt 0.3596897 0.3723364
vt 0.3596897 0.4121928
vt 0.3829762 0.4183952
vt 0.3829762 0.3723364
vt 0.0191695 0.4162468
vt 0.004060501 0.40596
vt 0.01815926 0.4057288
vt 0.01304077 0.4162468
vt 0.01815926 0.4057288
vt 0.1288912 0.4057272
vt 0.1278811 0.4162468
vt 0.0191695 0.4162468
vt 0.1288912 0.4057272
vt 0.1429901 0.4059606
vt 0.1278811 0.4162468
vt 0.1340097 0.4162468
vt 0.01976986 0.3063048
vt 0.1272804 0.3063048
vt 0.1284333 0.3115059
vt 0.01861775 0.3115059
vt 0.01861775 0.3115059
vt 0.00451445 0.3111068
vt 0.01351851 0.3063048
vt 0.01976986 0.3063048
vt 0.1272804 0.3063048
vt 0.133532 0.3063048
vt 0.1425356 0.3111072
vt 0.1284333 0.3115059
vt 0.01861775 0.3115059
vt 0.1284333 0.3115059
vt 0.1288912 0.4057272
vt 0.01815926 0.4057288
vt 0.004060501 0.40596
vt 0.00451445 0.3111068
vt 0.01861775 0.3115059
vt 0.01815926 0.4057288
vt 0.1288912 0.4057272
vt 0.1284333 0.3115059
vt 0.1425356 0.3111072
vt 0.1429901 0.4059606
vt 0.325461 0.4373043
vt 0.3267641 0.4379134
vt 0.3406631 0.4379134
vt 0.3428347 0.4373043
vt 0.325461 0.428929
vt 0.3428347 0.428929
vt 0.340663 0.4283298
vt 0.3267641 0.4283298
vt 0.325461 0.4373043
vt 0.3267641 0.4379134
vt 0.3406631 0.4379134
vt 0.3428347 0.4373043
vt 0.325461 0.428929
vt 0.3428347 0.428929
vt 0.340663 0.4283298
vt 0.3267641 0.4283298
vt 0.3360009 0.4251676
vt 0.3360009 0.4297597
vt 0.3376796 0.4298501
vt 0.3376796 0.4250772
vt 0.3375501 0.4242381
vt 0.3360009 0.4249007
vt 0.3360009 0.4251676
vt 0.3376796 0.4250772
vt 0.3360009 0.4297597
vt 0.3360009 0.4300267
vt 0.3375501 0.4306891
vt 0.3376796 0.4298501
vt 0.3547603 0.425142
vt 0.3547603 0.4248802
vt 0.3540437 0.424217
vt 0.3539394 0.4250572
vt 0.3539394 0.4250572
vt 0.3539391 0.4298701
vt 0.3547603 0.4297853
vt 0.3547603 0.425142
vt 0.3539391 0.4298701
vt 0.3540439 0.4307103
vt 0.3547603 0.4300472
vt 0.3547603 0.4297853
vt 0.3376796 0.4250772
vt 0.3376796 0.4298501
vt 0.3539391 0.4298701
vt 0.3539394 0.4250572
vt 0.3250749 0.4432607
vt 0.3512843 0.4432608
vt 0.3524328 0.4421297
vt 0.323994 0.4421965
vt 0.323994 0.4355077
vt 0.3524329 0.4355743
vt 0.3250749 0.4344434
vt 0.3512843 0.4344435
vt 0.3597475 0.3639124
vt 0.3931211 0.33062
vt 0.3931367 0.2244226
vt 0.3623458 0.2004167
vt 0.1918699 0.363878
vt 0.1893293 0.2003832
vt 0.1585248 0.2243771
vt 0.1585081 0.3305746
vt 0.3376796 0.4250772
vt 0.3539394 0.4250572
vt 0.3540437 0.424217
vt 0.3375501 0.4242381
vt 0.3375501 0.4306891
vt 0.3540439 0.4307103
vt 0.3539391 0.4298701
vt 0.3376796 0.4298501
vt 0.2682215 0.4183952
vt 0.2903571 0.4121928
vt 0.301853 0.4212948
vt 0.2847428 0.4392971
vt 0.2903571 0.4121928
vt 0.2682215 0.4194823
vt 0.2847428 0.4396671
vt 0.301853 0.4212948
vt 0.301853 0.4212948
vt 0.2847428 0.4396671
vt 0.3672455 0.4403841
vt 0.3506826 0.4212948
vt 0.3596897 0.4121928
vt 0.3829762 0.4183952
vt 0.3672455 0.4392971
vt 0.3506826 0.4212948
vt 0.3829762 0.4194823
vt 0.3596897 0.4121928
vt 0.3506826 0.4212948
vt 0.3672455 0.4403841
vt 0.301853 0.4212948
vt 0.3596897 0.4121928
vt 0.3506826 0.4212948
vt 0.2903571 0.4121928
vt 0.3596897 0.3723364
vt 0.2903571 0.3723364
vt 0.2847428 0.4392971
vt 0.301853 0.4212948
vt 0.3506826 0.4212948
vt 0.3672455 0.4392971
vt 0.2906848 0.4333598
vt 0.3021808 0.4333598
vt 0.3510104 0.4333598
vt 0.3600174 0.4333598
vt 0.3600174 0.4333598
vt 0.2906848 0.4333598
vt 0.2682215 0.3723364
vt 0.2903571 0.3723364
vt 0.2903571 0.4121928
vt 0.2682215 0.4183952
vt 0.2903571 0.3711052
vt 0.2682215 0.3711052
vt 0.2682215 0.4194823
vt 0.2903571 0.4121928
vt 0.3829762 0.3711052
vt 0.3596897 0.3711052
vt 0.3596897 0.4121928
vt 0.3829762 0.4194823
vt 0.3596897 0.3723364
vt 0.3829762 0.3723364
vt 0.3829762 0.4183952
vt 0.3596897 0.4121928
vn 0.663015 -0.2180786 0.7161375
vn 0.663015 -0.2180786 0.7161375
vn 0.663015 -0.2180786 0.7161375
vn 0.663015 -0.2180786 0.7161375
vn 0.6630144 0.218079 0.7161379
vn 0.6630144 0.218079 0.7161379
vn 0.6630144 0.218079 0.7161379
vn 0.6630144 0.218079 0.7161379
vn 1 9.862497E-07 0
vn 1 9.862497E-07 0
vn 1 0 0
vn 1 0 0
vn 0.6497908 -0.2918538 -0.7018499
vn 0.6497907 -0.2918538 -0.70185
vn 0.6497907 -0.2918538 -0.70185
vn 0.6497908 -0.2918538 -0.7018499
vn 0.6497905 0.2918547 -0.7018498
vn 0.6497905 0.2918548 -0.7018498
vn 0.6497905 0.2918548 -0.7018498
vn 0.6497905 0.2918548 -0.7018498
vn 0 -1 3.970138E-07
vn 0 -1 3.970138E-07
vn 0 -1 1.745674E-07
vn 0 -1 1.757292E-07
vn 0 -1 1.431715E-07
vn 0 -1 1.431715E-07
vn 1 0 0
vn 1 0 0
vn 1 -9.862492E-07 0
vn 1 -9.862493E-07 0
vn 0 1 0
vn 0 1 -2.233203E-07
vn 0 1 -2.233203E-07
vn 0 1 0
vn 0 1 0
vn 0 1 0
vn 0 -0.2105063 0.9775925
vn 0 -0.2105062 0.9775925
vn 0 -0.2105063 0.9775925
vn 0 -0.2105063 0.9775925
vn 0 0.210506 0.9775926
vn 0 0.210506 0.9775926
vn 0 0.210506 0.9775926
vn 0 0.210506 0.9775926
vn 0 0.2820983 -0.9593855
vn 0 0.2820982 -0.9593855
vn 0 0.2820983 -0.9593855
vn 0 0.2820983 -0.9593855
vn 0 -0.2820983 -0.9593855
vn 0 -0.2820983 -0.9593855
vn 0 -0.2820983 -0.9593855
vn 0 -0.2820983 -0.9593855
vn -0.5770483 -0.6751981 0.4594811
vn -0.5664228 -0.7400571 0.3626026
vn -0.5786934 -0.5703335 0.5829525
vn -0.5579646 -0.7693887 0.3109924
vn 0 -0.6581545 0.752883
vn 0 -0.6581545 0.752883
vn 0 -0.6581545 0.752883
vn 0 -0.6581545 0.752883
vn 0.5786934 -0.5703303 0.5829557
vn 0.5664213 -0.7400586 0.3626018
vn 0.5770477 -0.6751979 0.459482
vn 0.5579627 -0.7693909 0.3109908
vn 0 0.658152 0.7528852
vn 0 0.658152 0.7528852
vn 0 0.658152 0.7528852
vn 0 0.658152 0.7528852
vn -0.5295741 0.659513 0.5334736
vn -0.5295741 0.659513 0.5334736
vn -0.5295739 0.659513 0.5334736
vn -0.529574 0.659513 0.5334736
vn 0.5295732 0.6595132 0.533474
vn 0.5295732 0.6595133 0.5334739
vn 0.5295732 0.6595132 0.5334741
vn 0.5295733 0.6595132 0.533474
vn 0 0 1
vn 0 0 1
vn 0 0 1
vn 0 0 1
vn -0.7045099 0 0.7096943
vn -0.7045099 0 0.7096943
vn -0.7045099 0 0.7096943
vn -0.7045099 0 0.7096943
vn 0.7045094 0 0.7096946
vn 0.7045094 0 0.7096946
vn 0.7045094 0 0.7096946
vn 0.7045094 0 0.7096946
vn -0.9999295 -0.01186477 -0.0002362933
vn -0.9505282 -0.3105768 -0.006185306
vn -0.9505282 -0.3105768 -0.006185305
vn -0.999943 -0.01067477 -0.0002125937
vn -1 -1.515224E-07 0
vn -1 -1.329862E-07 0
vn -1 -3.300723E-06 0
vn -1 -3.300724E-06 0
vn 1 0 0
vn 1 -1.031476E-06 0
vn 1 -1.031476E-06 0
vn 1 0 0
vn 0.9999295 -0.01186491 -0.0002362893
vn 0.999943 -0.01067491 -0.0002125904
vn 0.950527 -0.3105804 -0.006185198
vn 0.950527 -0.3105804 -0.006185196
vn 0 -0.658147 -0.7528894
vn 0 -0.658147 -0.7528894
vn 0 -0.6581471 -0.7528893
vn 0 -0.6581471 -0.7528893
vn -0.5887976 -0.7008142 -0.4027117
vn -0.5918437 -0.7302228 -0.3413146
vn -0.5850299 -0.6782456 -0.4446605
vn -0.5646887 -0.5979445 -0.5688488
vn 0.5850291 -0.6782469 -0.4446594
vn 0.5918426 -0.7302244 -0.341313
vn 0.5887967 -0.7008158 -0.4027104
vn 0.5646883 -0.5979452 -0.5688485
vn -0.5295737 0.6595147 -0.5334716
vn -0.5295737 0.6595147 -0.5334716
vn -0.5295738 0.6595147 -0.5334716
vn -0.5295738 0.6595147 -0.5334716
vn 0 0.6581461 -0.7528902
vn 0 0.6581461 -0.7528903
vn 0 0.6581461 -0.7528903
vn 0 0.6581461 -0.7528902
vn 0.5295748 0.6595132 -0.5334726
vn 0.5295747 0.6595131 -0.5334726
vn 0.5295748 0.6595131 -0.5334726
vn 0.5295748 0.6595131 -0.5334726
vn 0 0 -1
vn 0 0 -1
vn 0 0 -1
vn 0 0 -1
vn 0 1 -4.135958E-07
vn 0 1 -4.135958E-07
vn 0 1 0
vn 0 1 0
vn 0 1 0
vn 0 1 0
vn 0 1 0
vn 0 1 0
vn -0.001044334 -0.9999995 7.5228E-06
vn -0.03890342 -0.9992429 0.0002723077
vn -0.03890342 -0.9992429 0.0002723076
vn -0.00102333 -0.9999995 7.375902E-06
vn 0.001044337 -0.9999995 7.522824E-06
vn 0.001023332 -0.9999995 7.375914E-06
vn 0.03890342 -0.9992429 0.0002723076
vn 0.03890342 -0.9992429 0.0002723076
vn -0.7045075 0 -0.7096966
vn -0.7045075 0 -0.7096966
vn -0.7045075 0 -0.7096966
vn -0.7045075 0 -0.7096966
vn 0.7045069 0 -0.7096971
vn 0.7045069 0 -0.7096971
vn 0.7045069 0 -0.7096971
vn 0.7045069 0 -0.7096971
vn -0.6630163 -0.2180778 0.7161366
vn -0.6630163 -0.2180778 0.7161366
vn -0.6630163 -0.2180778 0.7161366
vn -0.6630163 -0.2180778 0.7161366
vn -0.6630157 0.218079 0.7161367
vn -0.6630157 0.2180789 0.7161367
vn -0.6630157 0.218079 0.7161367
vn -0.6630157 0.218079 0.7161367
vn -1 1.479375E-06 0
vn -1 0 0
vn -1 0 0
vn -1 1.479375E-06 0
vn -0.6497912 -0.2918548 -0.7018491
vn -0.6497912 -0.2918548 -0.7018491
vn -0.6497912 -0.2918548 -0.7018491
vn -0.6497912 -0.2918548 -0.7018491
vn -0.6497909 0.2918561 -0.7018489
vn -0.6497909 0.2918561 -0.7018489
vn -0.6497908 0.2918561 -0.7018489
vn -0.6497909 0.2918561 -0.7018489
vn 0 -1 3.970154E-07
vn 0 -1 0
vn 0 -1 3.970154E-07
vn 0 -1 0
vn 0 -1 0
vn 0 -1 0
vn -1 0 0
vn -1 -1.479374E-06 0
vn -1 -1.479374E-06 0
vn -1 0 0
vn 0 1 -3.80369E-07
vn 0 1 0
vn 0 1 0
vn 0 1 -3.82366E-07
vn 0 1 -4.363325E-07
vn 0 1 -4.363325E-07
vn 0 -0.2105062 0.9775925
vn 0 -0.2105062 0.9775925
vn 0 -0.2105062 0.9775925
vn 0 -0.2105063 0.9775925
vn 0 0.210506 0.9775926
vn 0 0.210506 0.9775926
vn 0 0.210506 0.9775926
vn 0 0.210506 0.9775926
vn 0 0.2820981 -0.9593855
vn 0 0.2820981 -0.9593855
vn 0 0.2820981 -0.9593855
vn 0 0.2820981 -0.9593855
vn 0 -0.2820985 -0.9593854
vn 0 -0.2820985 -0.9593854
vn 0 -0.2820984 -0.9593854
vn 0 -0.2820985 -0.9593854
g StaffTotem_Brown_0
f 3/3/3 2/2/2 1/1/1
f 4/4/4 3/3/3 1/1/1
f 7/7/7 6/6/6 5/5/5
f 8/8/8 7/7/7 5/5/5
f 11/11/11 10/10/10 9/9/9
f 12/12/12 11/11/11 9/9/9
f 15/15/15 14/14/14 13/13/13
f 16/16/16 15/15/15 13/13/13
f 19/19/19 18/18/18 17/17/17
f 20/20/20 19/19/19 17/17/17
f 23/23/23 22/22/22 21/21/21
f 24/24/24 23/23/23 21/21/21
f 25/25/25 23/23/23 24/24/24
f 26/26/26 25/25/25 24/24/24
f 29/29/29 28/28/28 27/27/27
f 30/30/30 29/29/29 27/27/27
f 33/33/33 32/32/32 31/31/31
f 32/32/32 34/34/34 31/31/31
f 31/31/31 34/34/34 35/35/35
f 36/36/36 31/31/31 35/35/35
f 39/39/39 38/38/38 37/37/37
f 40/40/40 39/39/39 37/37/37
f 43/43/43 42/42/42 41/41/41
f 44/44/44 43/43/43 41/41/41
f 47/47/47 46/46/46 45/45/45
f 48/48/48 47/47/47 45/45/45
f 51/51/51 50/50/50 49/49/49
f 52/52/52 51/51/51 49/49/49
f 55/55/55 54/54/54 53/53/53
f 54/54/54 56/56/56 53/53/53
f 59/59/59 58/58/58 57/57/57
f 60/60/60 59/59/59 57/57/57
f 63/63/63 62/62/62 61/61/61
f 63/63/63 64/64/64 62/62/62
f 67/67/67 66/66/66 65/65/65
f 68/68/68 67/67/67 65/65/65
f 71/71/71 70/70/70 69/69/69
f 72/72/72 71/71/71 69/69/69
f 75/75/75 74/74/74 73/73/73
f 76/76/76 75/75/75 73/73/73
f 79/79/79 78/78/78 77/77/77
f 80/80/80 79/79/79 77/77/77
f 83/83/83 82/82/82 81/81/81
f 84/84/84 83/83/83 81/81/81
f 87/87/87 86/86/86 85/85/85
f 88/88/88 87/87/87 85/85/85
f 91/91/91 90/90/90 89/89/89
f 92/92/92 91/91/91 89/89/89
f 92/92/92 89/89/89 93/93/93
f 94/94/94 92/92/92 93/93/93
f 94/94/94 93/93/93 95/95/95
f 93/93/93 96/96/96 95/95/95
f 99/99/99 98/98/98 97/97/97
f 100/100/100 99/99/99 97/97/97
f 100/100/100 97/97/97 101/101/101
f 102/102/102 100/100/100 101/101/101
f 102/102/102 101/101/101 103/103/103
f 101/101/101 104/104/104 103/103/103
f 107/107/107 106/106/106 105/105/105
f 108/108/108 107/107/107 105/105/105
f 111/111/111 110/110/110 109/109/109
f 111/111/111 109/109/109 112/112/112
f 115/115/115 114/114/114 113/113/113
f 116/116/116 115/115/115 113/113/113
f 119/119/119 118/118/118 117/117/117
f 120/120/120 119/119/119 117/117/117
f 123/123/123 122/122/122 121/121/121
f 124/124/124 123/123/123 121/121/121
f 127/127/127 126/126/126 125/125/125
f 128/128/128 127/127/127 125/125/125
f 131/131/131 130/130/130 129/129/129
f 132/132/132 131/131/131 129/129/129
f 135/135/135 134/134/134 133/133/133
f 136/136/136 135/135/135 133/133/133
f 136/136/136 137/137/137 135/135/135
f 137/137/137 138/138/138 135/135/135
f 137/137/137 139/139/139 138/138/138
f 139/139/139 140/140/140 138/138/138
f 143/143/143 142/142/142 141/141/141
f 144/144/144 143/143/143 141/141/141
f 144/144/144 141/141/141 145/145/145
f 146/146/146 144/144/144 145/145/145
f 146/146/146 145/145/145 147/147/147
f 145/145/145 148/148/148 147/147/147
f 151/151/151 150/150/150 149/149/149
f 152/152/152 151/151/151 149/149/149
f 155/155/155 154/154/154 153/153/153
f 156/156/156 155/155/155 153/153/153
f 159/159/159 158/158/158 157/157/157
f 160/160/160 159/159/159 157/157/157
f 163/163/163 162/162/162 161/161/161
f 164/164/164 163/163/163 161/161/161
f 167/167/167 166/166/166 165/165/165
f 168/168/168 167/167/167 165/165/165
f 171/171/171 170/170/170 169/169/169
f 172/172/172 171/171/171 169/169/169
f 175/175/175 174/174/174 173/173/173
f 176/176/176 175/175/175 173/173/173
f 179/179/179 178/178/178 177/177/177
f 178/178/178 180/180/180 177/177/177
f 178/178/178 181/181/181 180/180/180
f 181/181/181 182/182/182 180/180/180
f 185/185/185 184/184/184 183/183/183
f 186/186/186 185/185/185 183/183/183
f 189/189/189 188/188/188 187/187/187
f 190/190/190 189/189/189 187/187/187
f 190/190/190 187/187/187 191/191/191
f 187/187/187 192/192/192 191/191/191
f 195/195/195 194/194/194 193/193/193
f 196/196/196 195/195/195 193/193/193
f 199/199/199 198/198/198 197/197/197
f 200/200/200 199/199/199 197/197/197
f 203/203/203 202/202/202 201/201/201
f 204/204/204 203/203/203 201/201/201
f 207/207/207 206/206/206 205/205/205
f 208/208/208 207/207/207 205/205/205
