g Stake1
v 0.6393002 0.2118559 -0.08696884
v 0.1605874 0.04079407 6.754958
v -0.7204102 0.2118559 -0.08696884
v 0.6393002 -0.3694074 -0.08696777
v -0.2333184 0.04079407 6.754958
v -0.7204102 -0.3694074 -0.08696777
v -0.2333184 -0.1820673 6.754958
v 0.1605874 -0.1820673 6.754958
v -0.03636551 -0.1820673 6.894898
v -0.03636551 0.04079407 6.894898
v -0.03290149 -6.806681E-07 1.288107
v 1.70491 -0.5563295 -0.4458989
v -1.70491 -0.5563295 -0.4458989
v -1.968661 -6.806681E-07 -0.4458989
v -1.968661 -0.5304163 -1.582505
v 1.968661 -6.806681E-07 -0.4458989
v 1.968661 -0.5304163 -1.582505
v -1.70491 0.5563295 -0.4458989
v 1.70491 0.5563295 -0.4458989
v 1.968661 0.5304163 -1.582505
v -1.968661 0.5304163 -1.582505
v -2.273213 -6.806681E-07 -1.582505
v -1.968661 -6.806681E-07 -2.719112
v 2.273213 -6.806681E-07 -1.582505
v 1.968661 -6.806681E-07 -2.719112
v -1.70491 -0.4593545 -2.719112
v 1.70491 0.4593545 -2.719112
v 1.70491 -0.4593545 -2.719112
v -1.70491 0.4593545 -2.719112
v 1.136607 -6.806681E-07 -3.551166
v -1.136607 -6.806681E-07 -3.551166
v 0.9843303 0.2652085 -3.551166
v -0.9843303 -0.2652085 -3.551166
v -0.9843303 0.2652085 -3.551166
v 0.9843303 -0.2652085 -3.551166
v -0.5883509 -6.806681E-07 -3.778261
v 0.5883509 -6.806681E-07 -3.778261
v -0.5095267 -0.1372816 -3.778261
v 0.5095267 0.1372816 -3.778261
v 0.5095267 -0.1372816 -3.778261
v 0 -6.806681E-07 -3.855719
v -0.5095267 0.1372816 -3.778261
vt 0.8 0.2
vt 0.8 0.2
vt 0.8 0.2
vt 0.8 0.2
vt 0.8 0.2
vt 0.8 0.2
vt 0.8 0.2
vt 0.8 0.2
vt 0.8 0.2
vt 0.8 0.2
vt 0.8 0.2
vt 0.8 0.2
vt 0.8 0.2
vt 0.8 0.2
vt 0.8 0.2
vt 0.8 0.2
vt 0.8 0.2
vt 0.8 0.2
vt 0.8 0.2
vt 0.8 0.2
vt 0.8 0.2
vt 0.8 0.2
vt 0.8 0.2
vt 0.8 0.2
vt 0.8 0.2
vt 0.8 0.2
vt 0.8 0.2
vt 0.8 0.2
vt 0.8 0.2
vt 0.8 0.2
vt 0.8 0.2
vt 0.8 0.2
vt 0.8 0.2
vt 0.8 0.2
vt 0.8 0.2
vt 0.8 0.2
vt 0.8 0.2
vt 0.8 0.2
vt 0.8 0.2
vt 0.8 0.2
vt 0.8 0.2
vt 0.8 0.2
vn 0.4264529 0.9029899 0.0524144
vn 0.4098403 0.9103466 0.05744638
vn -0.4267243 0.9028303 0.052952
vn 0.4258694 -0.9031402 0.05452608
vn -0.4095759 0.9104353 0.0579223
vn -0.4261402 -0.9029799 0.05506252
vn -0.4100245 -0.9100919 0.06010495
vn 0.4102894 -0.9100039 0.05962835
vn 0 -0.3560159 0.93448
vn 0 0.3560159 0.93448
vn -0.001355701 0 0.9999992
vn 0.1543644 -0.9752812 0.1581083
vn -0.1532464 -0.9758258 0.1558184
vn -0.871105 0 0.4910967
vn -0.1580481 -0.9867178 -0.03753182
vn 0.8662205 0 0.4996617
vn 0.1580481 -0.9867178 -0.03753183
vn -0.1532467 0.9758257 0.1558188
vn 0.1543647 0.9752811 0.1581088
vn 0.1580485 0.9867178 -0.0375318
vn -0.1580485 0.9867178 -0.0375318
vn -1 0 0
vn -0.9049555 0 -0.4255062
vn 1 0 0
vn 0.9049555 0 -0.4255062
vn -0.1313054 -0.9783287 -0.1600993
vn 0.1313058 0.9783287 -0.1600995
vn 0.1313054 -0.9783287 -0.1600993
vn -0.1313058 0.9783287 -0.1600995
vn 0.6687453 0 -0.7434916
vn -0.6687454 0 -0.7434915
vn 0.08575127 0.942326 -0.3235248
vn -0.08575088 -0.9423262 -0.3235244
vn -0.08575127 0.942326 -0.3235247
vn 0.08575088 -0.9423262 -0.3235244
vn -0.3465319 -1.591759E-07 -0.9380383
vn 0.3465319 -1.598419E-07 -0.9380383
vn -0.05858085 -0.7842243 -0.6177059
vn 0.05858124 0.7842235 -0.6177069
vn 0.05858085 -0.7842243 -0.6177059
vn 0 -4.565399E-07 -1
vn -0.05858124 0.7842235 -0.6177069
g Stake1_0
f 3/3/3 2/2/2 1/1/1
f 4/4/4 1/1/1 2/2/2
f 3/3/3 5/5/5 2/2/2
f 6/6/6 5/5/5 3/3/3
f 4/4/4 7/7/7 6/6/6
f 6/6/6 7/7/7 5/5/5
f 4/4/4 8/8/8 7/7/7
f 4/4/4 2/2/2 8/8/8
f 7/7/7 8/8/8 9/9/9
f 5/5/5 7/7/7 9/9/9
f 9/9/9 8/8/8 2/2/2
f 2/2/2 5/5/5 10/10/10
f 9/9/9 2/2/2 10/10/10
f 5/5/5 9/9/9 10/10/10
f 13/13/13 12/12/12 11/11/11
f 14/14/14 13/13/13 11/11/11
f 15/15/15 12/12/12 13/13/13
f 15/15/15 13/13/13 14/14/14
f 12/12/12 16/16/16 11/11/11
f 15/15/15 17/17/17 12/12/12
f 17/17/17 16/16/16 12/12/12
f 18/18/18 14/14/14 11/11/11
f 16/16/16 19/19/19 11/11/11
f 19/19/19 18/18/18 11/11/11
f 20/20/20 19/19/19 16/16/16
f 20/20/20 18/18/18 19/19/19
f 21/21/21 14/14/14 18/18/18
f 20/20/20 21/21/21 18/18/18
f 15/15/15 14/14/14 22/22/22
f 21/21/21 22/22/22 14/14/14
f 23/23/23 15/15/15 22/22/22
f 23/23/23 22/22/22 21/21/21
f 17/17/17 24/24/24 16/16/16
f 20/20/20 16/16/16 24/24/24
f 25/25/25 20/20/20 24/24/24
f 25/25/25 24/24/24 17/17/17
f 26/26/26 17/17/17 15/15/15
f 23/23/23 26/26/26 15/15/15
f 27/27/27 21/21/21 20/20/20
f 25/25/25 27/27/27 20/20/20
f 25/25/25 17/17/17 28/28/28
f 26/26/26 28/28/28 17/17/17
f 23/23/23 21/21/21 29/29/29
f 27/27/27 29/29/29 21/21/21
f 30/30/30 27/27/27 25/25/25
f 30/30/30 25/25/25 28/28/28
f 31/31/31 26/26/26 23/23/23
f 31/31/31 23/23/23 29/29/29
f 32/32/32 29/29/29 27/27/27
f 30/30/30 32/32/32 27/27/27
f 33/33/33 28/28/28 26/26/26
f 31/31/31 33/33/33 26/26/26
f 31/31/31 29/29/29 34/34/34
f 32/32/32 34/34/34 29/29/29
f 30/30/30 28/28/28 35/35/35
f 33/33/33 35/35/35 28/28/28
f 36/36/36 33/33/33 31/31/31
f 34/34/34 36/36/36 31/31/31
f 37/37/37 32/32/32 30/30/30
f 35/35/35 37/37/37 30/30/30
f 35/35/35 33/33/33 38/38/38
f 36/36/36 38/38/38 33/33/33
f 34/34/34 32/32/32 39/39/39
f 37/37/37 39/39/39 32/32/32
f 35/35/35 38/38/38 40/40/40
f 35/35/35 40/40/40 37/37/37
f 40/40/40 38/38/38 41/41/41
f 40/40/40 41/41/41 37/37/37
f 36/36/36 41/41/41 38/38/38
f 37/37/37 41/41/41 39/39/39
f 34/34/34 42/42/42 36/36/36
f 34/34/34 39/39/39 42/42/42
f 42/42/42 41/41/41 36/36/36
f 42/42/42 39/39/39 41/41/41
