g SteelHeadStripeGold
v -5.628506 15.8458 0.915641
v -6.225754 15.86178 2.634154
v -5.081747 15.84528 2.310555
v -6.836415 15.86229 1.056861
v -5.506204 15.84597 -0.6296423
v -6.713098 15.86246 -0.8856888
v -4.574008 15.84369 -3.149737
v -5.498042 15.86021 -3.949074
v -1.666813 15.83819 -4.805136
v -1.666817 15.85476 -6.223527
v -5.081746 19.08394 2.310555
v -6.225754 19.06744 2.634154
v -6.836415 19.06693 1.056861
v -5.628506 19.08342 0.9156408
v -6.713098 19.06675 -0.8856888
v -5.506204 19.08324 -0.6296423
v -5.498042 19.069 -3.949074
v -4.574009 19.08552 -3.149737
v -1.666813 19.09102 -4.805136
v -1.666817 19.07446 -6.223527
v 1.666813 19.09102 -4.805136
v 1.666817 19.07446 -6.223527
v 5.498042 19.069 -3.949074
v 4.574008 19.08552 -3.149737
v 5.506204 19.08324 -0.6296422
v 6.713098 19.06675 -0.8856888
v 5.628506 19.08342 0.9156408
v 6.836415 19.06693 1.056861
v 5.081746 19.08394 2.310555
v 6.225754 19.06744 2.634154
v -5.081747 15.84528 2.310555
v -6.225754 19.06744 2.634154
v -5.081746 19.08394 2.310555
v -6.225754 15.86178 2.634154
v -6.836415 19.06693 1.056861
v -6.836415 15.86229 1.056861
v -6.713098 19.06675 -0.8856888
v -6.713098 15.86246 -0.8856888
v -5.498042 19.069 -3.949074
v -5.498042 15.86021 -3.949074
v -1.666817 19.07446 -6.223527
v -1.666817 15.85476 -6.223527
v 1.666817 15.85476 -6.223527
v 1.666817 19.07446 -6.223527
v 1.666813 15.83819 -4.805136
v -1.666813 15.83819 -4.805136
v 5.498042 15.86021 -3.949074
v 4.574009 15.8437 -3.149737
v 6.713098 15.86246 -0.8856888
v 5.506204 15.84597 -0.6296423
v 6.836415 15.86229 1.056861
v 5.628506 15.8458 0.9156408
v 6.225754 15.86177 2.634154
v 5.081747 15.84528 2.310555
v 5.498042 15.86021 -3.949074
v 1.666817 19.07446 -6.223527
v 1.666817 15.85476 -6.223527
v 5.498042 19.069 -3.949074
v 6.713098 15.86246 -0.8856888
v 6.713098 19.06675 -0.8856888
v 6.836415 15.86229 1.056861
v 6.836415 19.06693 1.056861
v 6.225754 15.86177 2.634154
v 6.225754 19.06744 2.634154
v 5.081747 15.84528 2.310555
v 5.081746 19.08394 2.310555
v 0.9893734 21.55499 -4.460275
v 0.983629 19.00456 -6.117168
v 1.600058 19.00456 -6.117168
v 1.609403 21.55499 -4.460275
v 0.9897712 23.10983 -2.034934
v 1.61005 23.10983 -2.034934
v 1.626623 21.96831 -1.749467
v 1.62597 20.66903 -3.787935
v 1.616529 19.00455 -4.883149
v 1.61005 23.10983 -2.034934
v 0.9862956 23.57822 0.9749271
v 0.9897712 23.10983 -2.034934
v 1.604396 23.57822 0.9749271
v 0.984911 22.27757 4.562839
v 1.620911 22.37193 0.7808808
v 1.626623 21.96831 -1.749467
v 1.618636 21.30565 3.802889
v 1.602144 22.27757 4.562839
v 0.9850173 20.63707 5.629833
v 1.61881 19.96882 4.613747
v 1.602316 20.63707 5.629833
v 1.619331 18.5488 5.091538
v 0.9853345 19.03626 5.955476
v 1.602832 19.03626 5.955476
v 0.9954772 18.5488 5.091538
v -1.049716 18.5488 5.091538
v -1.03902 19.03626 5.955476
v -1.619331 18.5488 5.091538
v -1.602832 19.03626 5.955476
v -1.602316 20.63707 5.629833
v -1.038686 20.63707 5.629833
v -1.602144 22.27757 4.562839
v -1.038574 22.27757 4.562839
v -1.604396 23.57822 0.9749271
v -1.040034 23.57822 0.9749271
v -1.61005 23.10983 -2.034934
v -1.043699 23.10983 -2.034934
v -1.61881 19.96882 4.613747
v -1.602832 19.03626 5.955476
v -1.619331 18.5488 5.091538
v -1.602316 20.63707 5.629833
v -1.618636 21.30565 3.802889
v -1.602144 22.27757 4.562839
v -1.620911 22.37193 0.7808808
v -1.604396 23.57822 0.9749271
v -1.626623 21.96831 -1.749467
v -1.61005 23.10983 -2.034934
v -1.62597 20.66903 -3.787935
v -1.61005 23.10983 -2.034934
v -1.626623 21.96831 -1.749467
v -1.609403 21.55499 -4.460275
v -1.616529 19.00455 -4.883149
v -1.600058 19.00456 -6.117168
v -1.04328 21.55499 -4.460275
v -1.037222 19.00456 -6.117168
v 0.983629 19.00456 -6.117168
v 0.9893734 21.55499 -4.460275
v 0.9897712 23.10983 -2.034934
v -1.043699 23.10983 -2.034934
v 0.9862956 23.57822 0.9749271
v -1.043699 23.10983 -2.034934
v 0.9897712 23.10983 -2.034934
v -1.040034 23.57822 0.9749271
v 0.984911 22.27757 4.562839
v -1.038574 22.27757 4.562839
v 0.9850173 20.63707 5.629833
v -1.038686 20.63707 5.629833
v 0.9853345 19.03626 5.955476
v -1.03902 19.03626 5.955476
v -1.609403 21.55499 -4.460275
v -1.600058 19.00456 -6.117168
v -1.037222 19.00456 -6.117168
v -1.04328 21.55499 -4.460275
v -1.043699 23.10983 -2.034934
v -1.61005 23.10983 -2.034934
vt 0.3758526 0.4188071
vt 0.391863 0.4188071
vt 0.391863 0.4188071
vt 0.3758526 0.4188071
vt 0.3660584 0.4188071
vt 0.3660584 0.4188071
vt 0.3292095 0.4188071
vt 0.3292095 0.4188071
vt 0.2914437 0.4188071
vt 0.3119597 0.4188071
vt 0.01406518 0.4533139
vt 0.01201382 0.4483291
vt 0.02201223 0.4456683
vt 0.02290744 0.4509315
vt 0.03432593 0.4462057
vt 0.03270292 0.4514645
vt 0.05374452 0.4515001
vt 0.04867762 0.4555263
vt 0.05917108 0.4681939
vt 0.0681622 0.4681938
vt 0.05917108 0.4827195
vt 0.06816214 0.4827195
vt 0.05374455 0.4994132
vt 0.04867762 0.4953869
vt 0.03270286 0.4994488
vt 0.03432596 0.5047076
vt 0.02290735 0.4999817
vt 0.0220122 0.5052449
vt 0.01406515 0.4975993
vt 0.01201382 0.502584
vt 0.391863 0.4188071
vt 0.3918623 0.5528067
vt 0.3918623 0.5528067
vt 0.391863 0.4188071
vt 0.3758522 0.5528067
vt 0.3758526 0.4188071
vt 0.3660584 0.5528067
vt 0.3660584 0.4188071
vt 0.3292095 0.5528067
vt 0.3292095 0.4188071
vt 0.3119598 0.5528067
vt 0.3119597 0.4188071
vt 0.3119597 0.4188071
vt 0.3119598 0.5528067
vt 0.2914437 0.4188071
vt 0.2914437 0.4188071
vt 0.3292095 0.4188071
vt 0.3292095 0.4188071
vt 0.3660584 0.4188071
vt 0.3660584 0.4188071
vt 0.3758526 0.4188071
vt 0.3758526 0.4188071
vt 0.391863 0.4188071
vt 0.391863 0.4188071
vt 0.3292095 0.4188071
vt 0.3119598 0.5528067
vt 0.3119597 0.4188071
vt 0.3292095 0.5528067
vt 0.3660584 0.4188071
vt 0.3660584 0.5528067
vt 0.3758526 0.4188071
vt 0.3758522 0.5528067
vt 0.391863 0.4188071
vt 0.3918623 0.5528067
vt 0.391863 0.4188071
vt 0.3918623 0.5528067
vt 0.3364334 0.5269948
vt 0.4010479 0.5269948
vt 0.4010479 0.5528067
vt 0.3364334 0.5528067
vt 0.2953801 0.5269948
vt 0.2953801 0.5528067
vt 0.2953801 0.5528067
vt 0.3364334 0.5528067
vt 0.4010479 0.5528067
vt 0.3343195 0.5528067
vt 0.4177167 0.5269948
vt 0.3343195 0.5269948
vt 0.4177167 0.5528067
vt 0.5173435 0.5269948
vt 0.4177167 0.5528067
vt 0.3343195 0.5528067
vt 0.5173435 0.5528067
vt 0.5173435 0.5528067
vt 0.5438226 0.5269948
vt 0.5438224 0.5528067
vt 0.5438224 0.5528067
vt 0.5871081 0.5528067
vt 0.5871084 0.5269948
vt 0.5871081 0.5528067
vt 0.5871084 0.5269948
vt 0.5871098 0.4423749
vt 0.5871098 0.4423749
vt 0.5871102 0.4188071
vt 0.5871102 0.4188071
vt 0.5438235 0.4188071
vt 0.5438234 0.4423749
vt 0.5173435 0.4188071
vt 0.5173435 0.4423749
vt 0.4177167 0.4188071
vt 0.4177167 0.4423749
vt 0.3343195 0.4188071
vt 0.3343195 0.4423749
vt 0.5438235 0.4188071
vt 0.5871102 0.4188071
vt 0.5871102 0.4188071
vt 0.5438235 0.4188071
vt 0.5173435 0.4188071
vt 0.5173435 0.4188071
vt 0.4177167 0.4188071
vt 0.4177167 0.4188071
vt 0.3343195 0.4188071
vt 0.3343195 0.4188071
vt 0.3364334 0.4188071
vt 0.2953801 0.4188071
vt 0.2953801 0.4188071
vt 0.3364334 0.4188071
vt 0.4010479 0.4188071
vt 0.4010479 0.4188071
vt 0.733891 0.05835673
vt 0.7873271 0.05835673
vt 0.7873271 0.1429766
vt 0.733891 0.1429766
vt 0.7062751 0.1429766
vt 0.7062751 0.05835673
vt 0.805658 0.1429766
vt 0.7321429 0.05835673
vt 0.7321429 0.1429766
vt 0.805658 0.05835673
vt 0.8880486 0.1429766
vt 0.8880486 0.05835673
vt 0.9054009 0.1429766
vt 0.9054015 0.05835673
vt 0.941198 0.1429766
vt 0.9411992 0.05835673
vt 0.3364334 0.4188071
vt 0.4010479 0.4188071
vt 0.4010479 0.4423749
vt 0.3364334 0.4423749
vt 0.2953801 0.4423749
vt 0.2953801 0.4188071
vn -0.01334801 -0.9999093 0.001844959
vn -0.3754738 -0.5574822 0.7404277
vn 0.1831173 -0.706683 0.6834231
vn -0.6954365 -0.7105638 0.1070845
vn -0.01347827 -0.9999056 -0.002689919
vn -0.6905603 -0.7065693 -0.154552
vn -0.01082852 -0.9999102 -0.007890273
vn -0.5272984 -0.7214197 -0.4488988
vn -0.004154106 -0.9999244 -0.01157057
vn -0.1855873 -0.7154005 -0.6736167
vn 0.183117 0.7066829 0.6834233
vn -0.3754739 0.5574819 0.7404277
vn -0.6954369 0.7105635 0.1070844
vn -0.0133487 0.9999092 0.001844858
vn -0.6905604 0.7065691 -0.1545521
vn -0.01347856 0.9999056 -0.002690119
vn -0.5272981 0.7214202 -0.4488982
vn -0.01082761 0.9999102 -0.007889017
vn -0.004153389 0.9999245 -0.01156821
vn -0.185587 0.7154014 -0.6736158
vn 0.004153333 0.9999245 -0.01156795
vn 0.185587 0.7154015 -0.6736157
vn 0.5272979 0.7214205 -0.448898
vn 0.01082707 0.9999102 -0.00788858
vn 0.01347756 0.9999056 -0.002690247
vn 0.69056 0.7065695 -0.1545523
vn 0.0133479 0.9999093 0.001844642
vn 0.6954366 0.7105638 0.1070843
vn -0.1831173 0.7066828 0.6834233
vn 0.3754736 0.5574819 0.7404279
vn 0.1831173 -0.706683 0.6834231
vn -0.3754739 0.5574819 0.7404277
vn 0.183117 0.7066829 0.6834233
vn -0.3754738 -0.5574822 0.7404277
vn -0.6954369 0.7105635 0.1070844
vn -0.6954365 -0.7105638 0.1070845
vn -0.6905604 0.7065691 -0.1545521
vn -0.6905603 -0.7065693 -0.154552
vn -0.5272981 0.7214202 -0.4488982
vn -0.5272984 -0.7214197 -0.4488988
vn -0.185587 0.7154014 -0.6736158
vn -0.1855873 -0.7154005 -0.6736167
vn 0.1855873 -0.7154008 -0.6736165
vn 0.185587 0.7154015 -0.6736157
vn 0.004153994 -0.9999244 -0.01157007
vn -0.004154106 -0.9999244 -0.01157057
vn 0.5272981 -0.72142 -0.4488986
vn 0.01082784 -0.9999102 -0.007889771
vn 0.6905602 -0.7065694 -0.1545521
vn 0.01347794 -0.9999056 -0.00269011
vn 0.6954367 -0.7105638 0.1070844
vn 0.01334826 -0.9999093 0.001844767
vn 0.3754738 -0.5574822 0.7404277
vn -0.1831173 -0.7066831 0.6834232
vn 0.5272981 -0.72142 -0.4488986
vn 0.185587 0.7154015 -0.6736157
vn 0.1855873 -0.7154008 -0.6736165
vn 0.5272979 0.7214205 -0.448898
vn 0.6905602 -0.7065694 -0.1545521
vn 0.69056 0.7065695 -0.1545523
vn 0.6954367 -0.7105638 0.1070844
vn 0.6954366 0.7105638 0.1070843
vn 0.3754738 -0.5574822 0.7404277
vn 0.3754736 0.5574819 0.7404279
vn -0.1831173 -0.7066831 0.6834232
vn -0.1831173 0.7066828 0.6834233
vn 0 0.7092426 -0.7049645
vn 0 0.5447829 -0.8385772
vn 0.7016551 0.3859895 -0.5989092
vn 0.7099044 0.4985354 -0.4974919
vn 0 0.9351091 -0.35436
vn 0.7097713 0.6589136 -0.2491138
vn 0.9999032 0.0132662 -0.004207657
vn 0.9998939 0.008854112 -0.01156632
vn 0.9998754 0.005261444 -0.01488281
vn 0.7097713 0.6589136 -0.2491138
vn 0 0.9953284 0.09654751
vn 0 0.9351091 -0.35436
vn 0.7133605 0.6974369 0.06854536
vn 0 0.7832281 0.6217344
vn 0.9999062 0.01346213 0.002558276
vn 0.9999032 0.0132662 -0.004207657
vn 0.9999125 0.01015711 0.008474888
vn 0.72083 0.5427202 0.4311137
vn 0 0.3789615 0.9254124
vn 0.9998944 0.005890814 0.01328376
vn 0.7081627 0.2678391 0.6532747
vn 0.7057631 -0.6117032 0.3573761
vn 0 -0.4152358 0.9097139
vn 0.5230803 -0.349083 0.777514
vn 0 -0.8709293 0.4914083
vn 0 -0.8709295 0.4914079
vn 0 -0.415236 0.9097137
vn -0.7057624 -0.6117041 0.3573758
vn -0.5230798 -0.3490835 0.7775142
vn -0.7081628 0.267839 0.6532747
vn 0 0.3789615 0.9254124
vn -0.7208303 0.5427198 0.4311136
vn 0 0.783228 0.6217345
vn -0.7133614 0.6974361 0.06854527
vn 0 0.9953284 0.09654748
vn -0.7097716 0.6589132 -0.2491138
vn 0 0.9351091 -0.3543601
vn -0.9998944 0.00589077 0.01328379
vn -0.5230798 -0.3490835 0.7775142
vn -0.7057624 -0.6117041 0.3573758
vn -0.7081628 0.267839 0.6532747
vn -0.9999125 0.01015711 0.008474888
vn -0.7208303 0.5427198 0.4311136
vn -0.9999062 0.01346213 0.002558276
vn -0.7133614 0.6974361 0.06854527
vn -0.9999032 0.0132662 -0.004207657
vn -0.7097716 0.6589132 -0.2491138
vn -0.9998939 0.008854112 -0.01156632
vn -0.7097716 0.6589132 -0.2491138
vn -0.9999032 0.0132662 -0.004207657
vn -0.7099044 0.4985354 -0.4974919
vn -0.9998754 0.005261444 -0.01488281
vn -0.7016551 0.3859895 -0.5989092
vn 0 0.7092425 -0.7049645
vn 0 0.5447829 -0.8385772
vn 0 0.5447829 -0.8385772
vn 0 0.7092426 -0.7049645
vn 0 0.9351091 -0.35436
vn 0 0.9351091 -0.3543601
vn 0 0.9953284 0.09654751
vn 0 0.9351091 -0.3543601
vn 0 0.9351091 -0.35436
vn 0 0.9953284 0.09654748
vn 0 0.7832281 0.6217344
vn 0 0.783228 0.6217345
vn 0 0.3789615 0.9254124
vn 0 0.3789615 0.9254124
vn 0 -0.4152358 0.9097139
vn 0 -0.415236 0.9097137
vn -0.7099044 0.4985354 -0.4974919
vn -0.7016551 0.3859895 -0.5989092
vn 0 0.5447829 -0.8385772
vn 0 0.7092425 -0.7049645
vn 0 0.9351091 -0.3543601
vn -0.7097716 0.6589132 -0.2491138
g SteelHeadStripeGold_0
f 3/3/3 2/2/2 1/1/1
f 2/2/2 4/4/4 1/1/1
f 1/1/1 4/4/4 5/5/5
f 4/4/4 6/6/6 5/5/5
f 5/5/5 6/6/6 7/7/7
f 6/6/6 8/8/8 7/7/7
f 9/9/9 7/7/7 8/8/8
f 10/10/10 9/9/9 8/8/8
f 13/13/13 12/12/12 11/11/11
f 14/14/14 13/13/13 11/11/11
f 15/15/15 13/13/13 14/14/14
f 16/16/16 15/15/15 14/14/14
f 17/17/17 15/15/15 16/16/16
f 18/18/18 17/17/17 16/16/16
f 18/18/18 19/19/19 17/17/17
f 19/19/19 20/20/20 17/17/17
f 19/19/19 21/21/21 20/20/20
f 21/21/21 22/22/22 20/20/20
f 22/22/22 21/21/21 23/23/23
f 21/21/21 24/24/24 23/23/23
f 23/23/23 24/24/24 25/25/25
f 26/26/26 23/23/23 25/25/25
f 26/26/26 25/25/25 27/27/27
f 28/28/28 26/26/26 27/27/27
f 28/28/28 27/27/27 29/29/29
f 30/30/30 28/28/28 29/29/29
f 33/33/33 32/32/32 31/31/31
f 32/32/32 34/34/34 31/31/31
f 34/34/34 32/32/32 35/35/35
f 36/36/36 34/34/34 35/35/35
f 36/36/36 35/35/35 37/37/37
f 38/38/38 36/36/36 37/37/37
f 38/38/38 37/37/37 39/39/39
f 40/40/40 38/38/38 39/39/39
f 39/39/39 41/41/41 40/40/40
f 41/41/41 42/42/42 40/40/40
f 43/43/43 42/42/42 41/41/41
f 44/44/44 43/43/43 41/41/41
f 43/43/43 45/45/45 42/42/42
f 45/45/45 46/46/46 42/42/42
f 45/45/45 43/43/43 47/47/47
f 48/48/48 45/45/45 47/47/47
f 47/47/47 49/49/49 48/48/48
f 49/49/49 50/50/50 48/48/48
f 49/49/49 51/51/51 50/50/50
f 51/51/51 52/52/52 50/50/50
f 51/51/51 53/53/53 52/52/52
f 53/53/53 54/54/54 52/52/52
f 57/57/57 56/56/56 55/55/55
f 56/56/56 58/58/58 55/55/55
f 59/59/59 55/55/55 58/58/58
f 60/60/60 59/59/59 58/58/58
f 61/61/61 59/59/59 60/60/60
f 62/62/62 61/61/61 60/60/60
f 63/63/63 61/61/61 62/62/62
f 64/64/64 63/63/63 62/62/62
f 63/63/63 64/64/64 65/65/65
f 64/64/64 66/66/66 65/65/65
f 69/69/69 68/68/68 67/67/67
f 70/70/70 69/69/69 67/67/67
f 67/67/67 71/71/71 70/70/70
f 71/71/71 72/72/72 70/70/70
f 70/70/70 72/72/72 73/73/73
f 74/74/74 70/70/70 73/73/73
f 70/70/70 74/74/74 69/69/69
f 74/74/74 75/75/75 69/69/69
f 78/78/78 77/77/77 76/76/76
f 77/77/77 79/79/79 76/76/76
f 77/77/77 80/80/80 79/79/79
f 76/76/76 79/79/79 81/81/81
f 82/82/82 76/76/76 81/81/81
f 81/81/81 79/79/79 83/83/83
f 80/80/80 84/84/84 79/79/79
f 79/79/79 84/84/84 83/83/83
f 80/80/80 85/85/85 84/84/84
f 83/83/83 84/84/84 86/86/86
f 85/85/85 87/87/87 84/84/84
f 84/84/84 87/87/87 86/86/86
f 86/86/86 87/87/87 88/88/88
f 85/85/85 89/89/89 87/87/87
f 87/87/87 90/90/90 88/88/88
f 89/89/89 90/90/90 87/87/87
f 88/88/88 90/90/90 91/91/91
f 90/90/90 89/89/89 91/91/91
f 91/91/91 89/89/89 92/92/92
f 89/89/89 93/93/93 92/92/92
f 92/92/92 93/93/93 94/94/94
f 93/93/93 95/95/95 94/94/94
f 96/96/96 95/95/95 93/93/93
f 97/97/97 96/96/96 93/93/93
f 98/98/98 96/96/96 97/97/97
f 99/99/99 98/98/98 97/97/97
f 100/100/100 98/98/98 99/99/99
f 101/101/101 100/100/100 99/99/99
f 102/102/102 100/100/100 101/101/101
f 103/103/103 102/102/102 101/101/101
f 106/106/106 105/105/105 104/104/104
f 105/105/105 107/107/107 104/104/104
f 104/104/104 107/107/107 108/108/108
f 107/107/107 109/109/109 108/108/108
f 108/108/108 109/109/109 110/110/110
f 109/109/109 111/111/111 110/110/110
f 110/110/110 111/111/111 112/112/112
f 111/111/111 113/113/113 112/112/112
f 116/116/116 115/115/115 114/114/114
f 115/115/115 117/117/117 114/114/114
f 118/118/118 114/114/114 117/117/117
f 119/119/119 118/118/118 117/117/117
f 122/122/122 121/121/121 120/120/120
f 123/123/123 122/122/122 120/120/120
f 123/123/123 120/120/120 124/124/124
f 120/120/120 125/125/125 124/124/124
f 128/128/128 127/127/127 126/126/126
f 127/127/127 129/129/129 126/126/126
f 126/126/126 129/129/129 130/130/130
f 129/129/129 131/131/131 130/130/130
f 130/130/130 131/131/131 132/132/132
f 131/131/131 133/133/133 132/132/132
f 132/132/132 133/133/133 134/134/134
f 133/133/133 135/135/135 134/134/134
f 138/138/138 137/137/137 136/136/136
f 139/139/139 138/138/138 136/136/136
f 139/139/139 136/136/136 140/140/140
f 136/136/136 141/141/141 140/140/140
