g Stripe_402
v 2.205322 16.32748 -4.795733
v 2.075303 16.35748 -4.348654
v 3.775903 17.17808 -3.777942
v 3.773867 17.15211 -4.165032
v 3.809072 19.0765 -4.312152
v 3.809072 19.23956 -3.396537
v 3.775903 17.17808 -3.777942
v 3.809072 19.80022 -3.182681
v 2.244266 18.94418 -4.955564
v 2.075303 16.35748 -4.348654
v 2.113361 18.89286 -4.519047
v 3.809072 19.82743 -4.041292
v 3.809072 20.73248 -2.653122
v 2.214066 19.85791 -4.655454
v 2.077978 19.69043 -4.245266
v 3.809072 21.00684 -3.346802
v 3.809072 21.56054 -1.269269
v 2.245145 21.28934 -3.873654
v 2.098219 21.00865 -3.55612
v 2.245141 22.51274 -1.866424
v 2.096372 22.12207 -1.715941
v 3.809072 22.06257 -1.596955
v 3.809072 21.83381 0.46249
v 3.809072 22.39843 0.579724
v 3.809072 21.17138 2.527675
v 2.245145 22.78127 0.6991799
v 2.144456 22.3688 0.655733
v 2.245141 21.79585 3.700941
v 2.147341 21.4939 3.429801
v 3.809072 21.53435 3.172394
v 3.809072 20.11818 3.075057
v 2.214614 20.23765 4.575587
v 2.076421 20.0686 4.165831
v 3.809072 20.19759 3.927352
v 3.809072 19.4466 3.326067
v 2.237161 19.22623 4.934867
v 2.100253 19.17139 4.499012
v 3.809072 19.31971 4.241108
v 3.819807 18.41076 3.702069
v 3.82326 18.38725 4.08932
v 2.283256 18.5891 4.964336
v 2.146553 18.61626 4.51707
v 2.146553 18.61626 4.51707
v 3.819807 18.41076 3.702069
v -2.205322 16.32748 -4.795733
v -3.775903 17.17808 -3.777942
v -2.075303 16.35748 -4.348654
v -3.773867 17.15211 -4.165032
v -3.809072 19.0765 -4.312152
v -3.809072 19.23956 -3.396537
v -3.775903 17.17808 -3.777942
v -3.809072 19.80022 -3.182681
v -2.244266 18.94418 -4.955564
v -2.075303 16.35748 -4.348654
v -2.113361 18.89286 -4.519047
v -3.809072 19.82743 -4.041292
v -3.809072 20.73248 -2.653122
v -2.214066 19.85791 -4.655454
v -2.077978 19.69043 -4.245266
v -3.809072 21.00684 -3.346802
v -3.809072 21.56054 -1.269269
v -2.245145 21.28934 -3.873654
v -2.098219 21.00865 -3.55612
v -2.245141 22.51274 -1.866424
v -2.096372 22.12207 -1.715941
v -3.809072 22.06257 -1.596955
v -3.809072 21.83381 0.46249
v -3.809072 22.39843 0.579724
v -3.809072 21.17138 2.527675
v -2.245145 22.78127 0.6991799
v -2.144456 22.3688 0.655733
v -2.245141 21.79585 3.700941
v -2.147341 21.4939 3.429801
v -3.809072 21.53435 3.172394
v -3.809072 20.11818 3.075057
v -2.214614 20.23765 4.575587
v -2.076421 20.0686 4.165831
v -3.809072 20.19759 3.927352
v -3.809072 19.4466 3.326067
v -2.237161 19.22623 4.934867
v -2.100253 19.17139 4.499012
v -3.809072 19.31971 4.241108
v -3.819807 18.41076 3.702069
v -3.82326 18.38725 4.08932
v -2.283256 18.5891 4.964336
v -2.146553 18.61626 4.51707
v -2.146553 18.61626 4.51707
v -3.819807 18.41076 3.702069
v -1.795776 21.59995 0.7994301
v -3.198742 21.22117 0.7964678
v -5.730173 25.08391 1.192561
v -3.224221 26.12013 1.301113
v -3.142417 26.23207 0.4135996
v -5.553134 25.2005 0.3273225
v -1.717164 21.84575 -0.03563233
v -3.142417 26.23207 0.4135996
v -5.553134 25.2005 0.3273225
v -3.069705 21.48059 -0.03848669
v 1.795776 21.59995 0.7994301
v 5.730173 25.08391 1.192561
v 3.198742 21.22117 0.7964678
v 3.224221 26.12013 1.301113
v 3.142417 26.23207 0.4135996
v 5.553134 25.2005 0.3273225
v 1.717164 21.84575 -0.03563233
v 3.069705 21.48059 -0.03848669
v 5.553134 25.2005 0.3273225
v 3.142417 26.23207 0.4135996
vt 0.3580215 0.8036674
vt 0.3520052 0.8107774
vt 0.3802333 0.8385717
vt 0.383849 0.8317585
vt 0.4203082 0.8197742
vt 0.4301715 0.8352343
vt 0.3869755 0.8394099
vt 0.444732 0.832719
vt 0.4077208 0.7885679
vt 0.3555163 0.7943261
vt 0.4056918 0.7799611
vt 0.4355293 0.8179776
vt 0.4692711 0.8277989
vt 0.4253955 0.7848469
vt 0.4241148 0.7756011
vt 0.462202 0.8147562
vt 0.5055716 0.8266149
vt 0.4563274 0.7817414
vt 0.4561439 0.7732497
vt 0.5013534 0.7816176
vt 0.5018179 0.7729881
vt 0.5029421 0.8148482
vt 0.5448306 0.8277432
vt 0.5469276 0.8164562
vt 0.5926453 0.8324128
vt 0.5509552 0.7841374
vt 0.5517676 0.7758112
vt 0.6119703 0.7891672
vt 0.6129994 0.7818882
vt 0.6008056 0.8205334
vt 0.6181013 0.8426335
vt 0.6448568 0.7983704
vt 0.6473778 0.7893815
vt 0.6292482 0.8294207
vt 0.6332938 0.8479168
vt 0.6638522 0.8060752
vt 0.6667269 0.7975837
vt 0.6466486 0.8353651
vt 0.6445994 0.8465167
vt 0.6503844 0.8400052
vt 0.6819739 0.8152573
vt 0.6851645 0.8059039
vt 0.6857889 0.8238674
vt 0.6521159 0.8474481
vt 0.5644753 0.9852391
vt 0.5637269 0.9438539
vt 0.5554988 0.9826051
vt 0.5704786 0.9476144
vt 0.6074539 0.9377224
vt 0.6070996 0.9193966
vt 0.5688069 0.9395336
vt 0.6202747 0.9135419
vt 0.6144255 0.9706208
vt 0.5675688 0.9943688
vt 0.6175165 0.9788918
vt 0.6209493 0.9308989
vt 0.6427788 0.9039379
vt 0.6313891 0.9638979
vt 0.6355238 0.9722302
vt 0.6445445 0.9186507
vt 0.6722446 0.8839248
vt 0.6589122 0.9489024
vt 0.66366 0.9558991
vt 0.695803 0.9224882
vt 0.701315 0.9290991
vt 0.677188 0.8949276
vt 0.7020826 0.8594658
vt 0.7107107 0.8670537
vt 0.7357864 0.8259742
vt 0.7338356 0.8899729
vt 0.739584 0.8960071
vt 0.778002 0.8472048
vt 0.7833597 0.8521851
vt 0.7495962 0.8299734
vt 0.7485234 0.8019981
vt 0.7973428 0.8189058
vt 0.8050163 0.8241889
vt 0.7655421 0.8049619
vt 0.7566414 0.7882401
vt 0.8069013 0.8007135
vt 0.8145552 0.8053644
vt 0.7749406 0.7892342
vt 0.7661574 0.7820319
vt 0.7747641 0.7832846
vt 0.814855 0.7819932
vt 0.8232999 0.7871001
vt 0.8122404 0.7729261
vt 0.7712843 0.7764706
vt 0.6771724 0.9995449
vt 0.6596639 0.9636948
vt 0.7419338 0.8966097
vt 0.7761601 0.9491315
vt 0.8101774 0.9296603
vt 0.7718776 0.8729351
vt 0.6771724 0.9995449
vt 0.7761601 0.9491315
vt 0.7419338 0.8966097
vt 0.6596639 0.9636948
vt 0.6771724 0.9995449
vt 0.7419338 0.8966097
vt 0.6596639 0.9636948
vt 0.7761601 0.9491315
vt 0.8101774 0.9296603
vt 0.7718776 0.8729351
vt 0.6771724 0.9995449
vt 0.6596639 0.9636948
vt 0.7419338 0.8966097
vt 0.7761601 0.9491315
vn -0.1066436 -0.6678888 -0.736581
vn -0.5120926 -0.8459215 -0.1489226
vn 0.8348013 -0.5455966 0.07369718
vn 0.8180574 -0.448954 -0.3594754
vn 0.833155 0.06842583 -0.5487901
vn 0.9999629 -0.008603569 0.0004670415
vn 0.8348013 -0.5455966 0.07369718
vn 1 0 0
vn -0.4421375 0.1115648 -0.8899818
vn -0.5120926 -0.8459215 -0.1489226
vn -0.9581547 0.02777045 -0.2849008
vn 0.8202472 0.2352212 -0.5214071
vn 1 0 0
vn -0.4432071 0.3597129 -0.8210809
vn -0.9541055 0.1107604 -0.2782351
vn 0.824055 0.3941494 -0.4069148
vn 1 0 0
vn -0.447629 0.6259083 -0.6386449
vn -0.947786 0.227023 -0.223969
vn -0.4682703 0.835205 -0.2883671
vn -0.9508457 0.2932419 -0.0995069
vn 0.8088925 0.5554264 -0.1928581
vn 1 0 0
vn 0.7999449 0.5972798 0.0578362
vn 1 0 0
vn -0.5041735 0.8594537 0.084548
vn -0.9638018 0.2651937 0.02753672
vn -0.5056196 0.6715146 0.5416796
vn -0.9687967 0.1959041 0.151837
vn 0.8259171 0.4368989 0.356343
vn 1 0 0
vn -0.4434185 0.3726225 0.8151886
vn -0.9589294 0.1183392 0.2577792
vn 0.8246315 0.2349093 0.5145876
vn 0.9999802 0.006262122 -0.0006023382
vn -0.4186791 0.1085772 0.90162
vn -0.9558461 0.009816082 0.2937037
vn 0.8439869 0.08290532 0.5299177
vn 0.6588395 -0.751743 -0.02851393
vn 0.6979162 -0.5506678 0.4579062
vn -0.3765913 -0.6402197 0.6695504
vn -0.7116762 -0.6817466 0.1695246
vn -0.7116762 -0.6817466 0.1695246
vn 0.6588395 -0.751743 -0.02851393
vn 0.1066436 -0.6678888 -0.736581
vn -0.8348013 -0.5455966 0.07369718
vn 0.5120926 -0.8459215 -0.1489226
vn -0.8180574 -0.448954 -0.3594754
vn -0.833155 0.06842583 -0.5487901
vn -0.9999629 -0.008603569 0.0004670415
vn -0.8348013 -0.5455966 0.07369718
vn -1 0 0
vn 0.4421375 0.1115648 -0.8899818
vn 0.5120926 -0.8459215 -0.1489226
vn 0.9581547 0.02777045 -0.2849008
vn -0.8202472 0.2352212 -0.5214071
vn -1 0 0
vn 0.4432071 0.3597129 -0.8210809
vn 0.9541055 0.1107604 -0.2782351
vn -0.824055 0.3941494 -0.4069148
vn -1 0 0
vn 0.447629 0.6259083 -0.6386449
vn 0.947786 0.227023 -0.223969
vn 0.4682703 0.835205 -0.2883671
vn 0.9508457 0.2932419 -0.0995069
vn -0.8088925 0.5554264 -0.1928581
vn -1 0 0
vn -0.7999449 0.5972798 0.0578362
vn -1 0 0
vn 0.5041735 0.8594537 0.084548
vn 0.9638018 0.2651937 0.02753672
vn 0.5056196 0.6715146 0.5416796
vn 0.9687967 0.1959041 0.151837
vn -0.8259171 0.4368989 0.356343
vn -1 0 0
vn 0.4434185 0.3726225 0.8151886
vn 0.9589294 0.1183392 0.2577792
vn -0.8246315 0.2349093 0.5145876
vn -0.9999802 0.006262122 -0.0006023382
vn 0.4186791 0.1085772 0.90162
vn 0.9558461 0.009816082 0.2937037
vn -0.8439869 0.08290532 0.5299177
vn -0.6588395 -0.751743 -0.02851393
vn -0.6979162 -0.5506678 0.4579062
vn 0.3765913 -0.6402197 0.6695504
vn 0.7116762 -0.6817466 0.1695246
vn 0.7116762 -0.6817466 0.1695246
vn -0.6588395 -0.751743 -0.02851393
vn 0.008698291 -0.1024197 0.9947032
vn 0.008698291 -0.1024197 0.9947032
vn -0.2738284 0.58801 0.7610928
vn -0.2738284 0.58801 0.7610928
vn -0.2791639 0.7064965 -0.6503308
vn -0.2791639 0.7064965 -0.6503308
vn -0.01151071 0.09453775 -0.9954547
vn -0.2791639 0.7064965 -0.6503308
vn -0.2791639 0.7064965 -0.6503308
vn -0.01151071 0.09453775 -0.9954547
vn -0.008698291 -0.1024197 0.9947032
vn 0.2738284 0.58801 0.7610928
vn -0.008698291 -0.1024197 0.9947032
vn 0.2738284 0.58801 0.7610928
vn 0.2791639 0.7064965 -0.6503308
vn 0.2791639 0.7064965 -0.6503308
vn 0.01151071 0.09453775 -0.9954547
vn 0.01151071 0.09453775 -0.9954547
vn 0.2791639 0.7064965 -0.6503308
vn 0.2791639 0.7064965 -0.6503308
g Stripe_402_0
f 3/3/3 2/2/2 1/1/1
f 4/4/4 3/3/3 1/1/1
f 4/4/4 1/1/1 5/5/5
f 5/5/5 6/6/6 4/4/4
f 6/6/6 7/7/7 4/4/4
f 8/8/8 6/6/6 5/5/5
f 1/1/1 9/9/9 5/5/5
f 1/1/1 10/10/10 9/9/9
f 10/10/10 11/11/11 9/9/9
f 12/12/12 8/8/8 5/5/5
f 5/5/5 9/9/9 12/12/12
f 13/13/13 8/8/8 12/12/12
f 9/9/9 11/11/11 14/14/14
f 9/9/9 14/14/14 12/12/12
f 11/11/11 15/15/15 14/14/14
f 16/16/16 13/13/13 12/12/12
f 12/12/12 14/14/14 16/16/16
f 17/17/17 13/13/13 16/16/16
f 14/14/14 15/15/15 18/18/18
f 14/14/14 18/18/18 16/16/16
f 15/15/15 19/19/19 18/18/18
f 18/18/18 19/19/19 20/20/20
f 16/16/16 18/18/18 20/20/20
f 19/19/19 21/21/21 20/20/20
f 22/22/22 17/17/17 16/16/16
f 22/22/22 16/16/16 20/20/20
f 23/23/23 17/17/17 22/22/22
f 24/24/24 23/23/23 22/22/22
f 24/24/24 22/22/22 20/20/20
f 25/25/25 23/23/23 24/24/24
f 20/20/20 21/21/21 26/26/26
f 26/26/26 24/24/24 20/20/20
f 21/21/21 27/27/27 26/26/26
f 26/26/26 27/27/27 28/28/28
f 24/24/24 26/26/26 28/28/28
f 27/27/27 29/29/29 28/28/28
f 30/30/30 25/25/25 24/24/24
f 30/30/30 24/24/24 28/28/28
f 31/31/31 25/25/25 30/30/30
f 28/28/28 29/29/29 32/32/32
f 30/30/30 28/28/28 32/32/32
f 29/29/29 33/33/33 32/32/32
f 34/34/34 31/31/31 30/30/30
f 34/34/34 30/30/30 32/32/32
f 35/35/35 31/31/31 34/34/34
f 32/32/32 33/33/33 36/36/36
f 34/34/34 32/32/32 36/36/36
f 33/33/33 37/37/37 36/36/36
f 38/38/38 35/35/35 34/34/34
f 38/38/38 34/34/34 36/36/36
f 39/39/39 35/35/35 38/38/38
f 40/40/40 39/39/39 38/38/38
f 36/36/36 37/37/37 41/41/41
f 36/36/36 41/41/41 38/38/38
f 41/41/41 40/40/40 38/38/38
f 37/37/37 42/42/42 41/41/41
f 41/41/41 43/43/43 40/40/40
f 43/43/43 44/44/44 40/40/40
f 47/47/47 46/46/46 45/45/45
f 46/46/46 48/48/48 45/45/45
f 45/45/45 48/48/48 49/49/49
f 50/50/50 49/49/49 48/48/48
f 51/51/51 50/50/50 48/48/48
f 50/50/50 52/52/52 49/49/49
f 53/53/53 45/45/45 49/49/49
f 54/54/54 45/45/45 53/53/53
f 55/55/55 54/54/54 53/53/53
f 52/52/52 56/56/56 49/49/49
f 53/53/53 49/49/49 56/56/56
f 52/52/52 57/57/57 56/56/56
f 55/55/55 53/53/53 58/58/58
f 58/58/58 53/53/53 56/56/56
f 59/59/59 55/55/55 58/58/58
f 57/57/57 60/60/60 56/56/56
f 58/58/58 56/56/56 60/60/60
f 57/57/57 61/61/61 60/60/60
f 59/59/59 58/58/58 62/62/62
f 62/62/62 58/58/58 60/60/60
f 63/63/63 59/59/59 62/62/62
f 63/63/63 62/62/62 64/64/64
f 62/62/62 60/60/60 64/64/64
f 65/65/65 63/63/63 64/64/64
f 61/61/61 66/66/66 60/60/60
f 60/60/60 66/66/66 64/64/64
f 61/61/61 67/67/67 66/66/66
f 67/67/67 68/68/68 66/66/66
f 66/66/66 68/68/68 64/64/64
f 67/67/67 69/69/69 68/68/68
f 65/65/65 64/64/64 70/70/70
f 68/68/68 70/70/70 64/64/64
f 71/71/71 65/65/65 70/70/70
f 71/71/71 70/70/70 72/72/72
f 70/70/70 68/68/68 72/72/72
f 73/73/73 71/71/71 72/72/72
f 69/69/69 74/74/74 68/68/68
f 68/68/68 74/74/74 72/72/72
f 69/69/69 75/75/75 74/74/74
f 73/73/73 72/72/72 76/76/76
f 72/72/72 74/74/74 76/76/76
f 77/77/77 73/73/73 76/76/76
f 75/75/75 78/78/78 74/74/74
f 74/74/74 78/78/78 76/76/76
f 75/75/75 79/79/79 78/78/78
f 77/77/77 76/76/76 80/80/80
f 76/76/76 78/78/78 80/80/80
f 81/81/81 77/77/77 80/80/80
f 79/79/79 82/82/82 78/78/78
f 78/78/78 82/82/82 80/80/80
f 79/79/79 83/83/83 82/82/82
f 83/83/83 84/84/84 82/82/82
f 81/81/81 80/80/80 85/85/85
f 85/85/85 80/80/80 82/82/82
f 84/84/84 85/85/85 82/82/82
f 86/86/86 81/81/81 85/85/85
f 87/87/87 85/85/85 84/84/84
f 88/88/88 87/87/87 84/84/84
f 91/91/91 90/90/90 89/89/89
f 92/92/92 91/91/91 89/89/89
f 91/91/91 92/92/92 93/93/93
f 94/94/94 91/91/91 93/93/93
f 97/97/97 96/96/96 95/95/95
f 98/98/98 97/97/97 95/95/95
f 101/101/101 100/100/100 99/99/99
f 100/100/100 102/102/102 99/99/99
f 102/102/102 100/100/100 103/103/103
f 100/100/100 104/104/104 103/103/103
f 107/107/107 106/106/106 105/105/105
f 108/108/108 107/107/107 105/105/105
