g Stripe_301
v 0.8462589 15.77792 -5.37044
v -1.038662 15.81253 -4.879074
v 0.8442253 15.81331 -4.86867
v -1.03663 15.77714 -5.380843
v -1.006055 18.39964 -5.571549
v -1.007378 18.3391 -5.081634
v -1.038662 15.81253 -4.879074
v -1.028572 19.22539 -4.760079
v 0.8150093 18.40127 -5.549823
v 0.8442253 15.81331 -4.86867
v 0.8136869 18.34072 -5.059907
v -1.031408 19.423 -5.220446
v -0.9952263 20.69907 -3.963825
v 0.8392422 19.4794 -5.213
v 0.8420797 19.28178 -4.752635
v -1.006761 21.03027 -4.320204
v -0.9937481 22.00804 -1.883049
v 0.8143033 21.16837 -4.335564
v 0.8258374 20.83718 -3.979185
v 0.8143063 22.61188 -2.082788
v 0.8273199 22.15092 -1.913898
v -1.006761 22.469 -2.05194
v -1.000909 22.44002 0.7208471
v -1.006761 22.9267 0.7696084
v -1.002959 21.39287 3.826083
v 0.8143033 22.92873 0.7966655
v 0.8201544 22.44205 0.7479042
v 0.8143063 21.766 4.165632
v 0.8178396 21.40972 3.861325
v -1.006493 21.74916 4.130391
v -1.025088 19.72799 4.649132
v 0.8388032 19.92746 5.147274
v 0.8433288 19.728 4.687392
v -1.029615 19.92745 5.109015
v -1.002873 18.66639 5.026552
v 0.8143033 18.73406 5.550506
v 0.8181902 18.66936 5.061332
v -1.00676 18.7311 5.515726
v -0.976974 17.27563 4.816989
v 0.783721 17.24371 5.335561
v 0.7870515 17.27575 4.83358
v -0.09496122 16.04436 4.825284
v -0.09829076 16.01232 5.327264
v -0.9803045 17.24358 5.31897
v -0.09496122 16.04436 4.825284
v 1.160368 26.6218 0.4665166
v 1.183011 26.51947 1.379658
v -0.1915881 26.67985 1.388763
v -0.1890703 26.77313 0.4744555
v -1.472486 26.57034 0.4496702
v -1.498024 26.48793 1.358225
v -0.132418 21.62394 0.8220118
v 1.183011 26.51947 1.379658
v 0.7054146 21.57018 0.8221297
v -0.1915881 26.67985 1.388763
v -0.9289473 21.5351 0.8169338
v -1.498024 26.48793 1.358225
v -0.1314571 21.86563 -0.02880227
v 0.6762622 21.81381 -0.02868952
v 1.160368 26.6218 0.4665166
v -0.1890703 26.77313 0.4744555
v -0.8993583 21.77999 -0.03369756
v -1.472486 26.57034 0.4496702
vt 0.787772 0.047628
vt 0.800896 0.104319
vt 0.802828 0.048263
vt 0.785831 0.103962
vt 0.708229 0.100101
vt 0.707604 0.114413
vt 0.784589 0.119197
vt 0.676447 0.114987
vt 0.710003 0.046175
vt 0.787535 0.032361
vt 0.710523 0.031792
vt 0.677145 0.100061
vt 0.622903 0.111394
vt 0.677487 0.044059
vt 0.678201 0.029123
vt 0.623609 0.097351
vt 0.545166 0.110839
vt 0.622299 0.043155
vt 0.622494 0.029257
vt 0.544629 0.041973
vt 0.544522 0.027786
vt 0.545056 0.096419
vt 0.461693 0.11111
vt 0.461544 0.096985
vt 0.35818 0.110928
vt 0.46023 0.04272
vt 0.459784 0.028467
vt 0.356306 0.044057
vt 0.356351 0.03119
vt 0.357688 0.097971
vt 0.298236 0.115506
vt 0.296108 0.044269
vt 0.295691 0.029188
vt 0.297896 0.100426
vt 0.260882 0.114309
vt 0.260161 0.046323
vt 0.258487 0.032324
vt 0.26167 0.100174
vt 0.214863 0.113856
vt 0.217092 0.049054
vt 0.212389 0.035611
vt 0.173483 0.062061
vt 0.181142 0.075714
vt 0.218617 0.100156
vt 0.174377 0.089838
vt 0.436411 0.837676
vt 0.439903 0.876997
vt 0.471031 0.874063
vt 0.471871 0.834314
vt 0.505818 0.83881
vt 0.500653 0.877761
vt 0.513702 0.854206
vt 0.631055 0.851244
vt 0.517729 0.832077
vt 0.626947 0.882238
vt 0.507141 0.874488
vt 0.616711 0.910281
vt 0.513702 0.854206
vt 0.517729 0.832077
vt 0.631055 0.851244
vt 0.626947 0.882238
vt 0.507141 0.874488
vt 0.616711 0.910281
vn 0.5838569 -0.6110581 -0.5345269
vn -0.7113145 -0.7012421 0.04786455
vn 0.7113272 -0.7008836 0.05268667
vn -0.5758212 -0.613529 -0.5403813
vn -0.7105572 0.08210848 -0.6988325
vn -0.9999776 -0.00548814 -0.003837796
vn -0.7113145 -0.7012421 0.04786455
vn -0.9999303 -0.008011458 0.00868167
vn 0.7151236 0.08161054 -0.6942174
vn 0.7113272 -0.7008836 0.05268667
vn 0.9999819 -0.005625113 -0.002143272
vn -0.7166537 0.2725307 -0.641977
vn -0.9998103 -0.007470977 0.01799265
vn 0.7022137 0.2767163 -0.6559909
vn 0.9999652 -0.003615251 -0.007518182
vn -0.7418565 0.459904 -0.4879929
vn -0.9997546 -0.02066688 0.007968447
vn 0.6936176 0.4938446 -0.5244161
vn 0.9997645 0.0189418 -0.01059575
vn 0.6875594 0.6818488 -0.2496883
vn 0.9997576 0.020698 -0.007508436
vn -0.742205 0.6293806 -0.2302431
vn -0.9998924 -0.0146451 -0.0008421433
vn -0.7307299 0.6792182 0.06852965
vn -0.9999568 -0.002078906 -0.009057151
vn 0.7027476 0.7078993 0.07088177
vn 0.9998909 0.01470542 0.001367785
vn 0.7227346 0.5285359 0.445314
vn 0.9999268 0.01194936 0.001886665
vn -0.7395026 0.5144772 0.4341071
vn -0.9999313 -0.007767167 -0.008771813
vn 0.6993243 0.2817088 0.6569517
vn 0.999975 -0.001517586 0.00692161
vn -0.7189632 0.2742086 0.6386718
vn -0.9998054 -0.01912143 -0.004864698
vn 0.7068611 0.049959 0.7055859
vn 0.9997416 -0.01997112 0.01085346
vn -0.4868004 -0.009179094 0.8734651
vn -0.9491061 -0.3138979 -0.02580121
vn 0.6584353 -0.2828702 0.6974578
vn 0.9485509 -0.3163806 -0.01242107
vn 0.000507092 -0.9979684 -0.06370948
vn -0.05733907 -0.5779122 0.8140821
vn -0.8623272 -0.3144602 0.3968709
vn 0.000507092 -0.9979684 -0.06370948
vn 0.08474866 0.7717031 -0.6303111
vn 0.07589947 0.6220324 0.779304
vn -0.01682706 0.6252075 0.7802772
vn -0.01138357 0.7716637 -0.6359291
vn -0.1069289 0.7645226 -0.6356663
vn -0.1098391 0.622977 0.7744901
vn -0.004434373 -0.1107765 0.9938354
vn 0.07589947 0.6220324 0.779304
vn -0.006743833 -0.1113856 0.9937544
vn -0.01682706 0.6252075 0.7802772
vn -0.002124887 -0.1101668 0.9939108
vn -0.1098391 0.622977 0.7744901
vn 0.003077846 0.1015974 -0.9948208
vn 0.005993715 0.1019695 -0.9947694
vn 0.08474866 0.7717031 -0.6303111
vn -0.01138357 0.7716637 -0.6359291
vn 0.0001619493 0.1012244 -0.9948636
vn -0.1069289 0.7645226 -0.6356663
g Stripe_301_0
f 3/3/3 2/2/2 1/1/1
f 2/2/2 4/4/4 1/1/1
f 1/1/1 4/4/4 5/5/5
f 6/6/6 5/5/5 4/4/4
f 7/7/7 6/6/6 4/4/4
f 6/6/6 8/8/8 5/5/5
f 9/9/9 1/1/1 5/5/5
f 10/10/10 1/1/1 9/9/9
f 11/11/11 10/10/10 9/9/9
f 8/8/8 12/12/12 5/5/5
f 9/9/9 5/5/5 12/12/12
f 8/8/8 13/13/13 12/12/12
f 11/11/11 9/9/9 14/14/14
f 14/14/14 9/9/9 12/12/12
f 15/15/15 11/11/11 14/14/14
f 13/13/13 16/16/16 12/12/12
f 14/14/14 12/12/12 16/16/16
f 13/13/13 17/17/17 16/16/16
f 15/15/15 14/14/14 18/18/18
f 18/18/18 14/14/14 16/16/16
f 19/19/19 15/15/15 18/18/18
f 19/19/19 18/18/18 20/20/20
f 18/18/18 16/16/16 20/20/20
f 21/21/21 19/19/19 20/20/20
f 17/17/17 22/22/22 16/16/16
f 16/16/16 22/22/22 20/20/20
f 17/17/17 23/23/23 22/22/22
f 23/23/23 24/24/24 22/22/22
f 22/22/22 24/24/24 20/20/20
f 23/23/23 25/25/25 24/24/24
f 21/21/21 20/20/20 26/26/26
f 24/24/24 26/26/26 20/20/20
f 27/27/27 21/21/21 26/26/26
f 27/27/27 26/26/26 28/28/28
f 26/26/26 24/24/24 28/28/28
f 29/29/29 27/27/27 28/28/28
f 25/25/25 30/30/30 24/24/24
f 24/24/24 30/30/30 28/28/28
f 25/25/25 31/31/31 30/30/30
f 29/29/29 28/28/28 32/32/32
f 28/28/28 30/30/30 32/32/32
f 33/33/33 29/29/29 32/32/32
f 31/31/31 34/34/34 30/30/30
f 30/30/30 34/34/34 32/32/32
f 31/31/31 35/35/35 34/34/34
f 33/33/33 32/32/32 36/36/36
f 32/32/32 34/34/34 36/36/36
f 37/37/37 33/33/33 36/36/36
f 35/35/35 38/38/38 34/34/34
f 34/34/34 38/38/38 36/36/36
f 35/35/35 39/39/39 38/38/38
f 37/37/37 36/36/36 40/40/40
f 40/40/40 36/36/36 38/38/38
f 41/41/41 37/37/37 40/40/40
f 41/41/41 40/40/40 42/42/42
f 40/40/40 43/43/43 42/42/42
f 38/38/38 43/43/43 40/40/40
f 39/39/39 44/44/44 38/38/38
f 38/38/38 44/44/44 43/43/43
f 39/39/39 45/45/45 44/44/44
f 45/45/45 43/43/43 44/44/44
f 48/48/48 47/47/47 46/46/46
f 49/49/49 48/48/48 46/46/46
f 49/49/49 50/50/50 48/48/48
f 50/50/50 51/51/51 48/48/48
f 54/54/54 53/53/53 52/52/52
f 53/53/53 55/55/55 52/52/52
f 52/52/52 55/55/55 56/56/56
f 55/55/55 57/57/57 56/56/56
f 60/60/60 59/59/59 58/58/58
f 61/61/61 60/60/60 58/58/58
f 61/61/61 58/58/58 62/62/62
f 63/63/63 61/61/61 62/62/62
