g Stripe_420
v -1.61881 35.51314 4.369769
v -1.602832 34.58058 5.711498
v -1.619331 34.09312 4.84756
v -1.602316 36.18139 5.385855
v -1.618635 36.84997 3.55891
v 1.602316 36.18139 5.385855
v 1.602832 34.58058 5.711498
v -1.619331 34.09312 4.84756
v 1.619331 34.09312 4.84756
v 1.61881 35.51314 4.369769
v 1.619331 34.09312 4.84756
v 1.618635 36.84997 3.55891
v 1.602143 37.82189 4.318861
v -1.602143 37.82189 4.318861
v 1.604395 39.12254 0.7309495
v 1.620911 37.91626 0.5369024
v -1.604395 39.12254 0.7309495
v -1.620911 37.91626 0.5369024
v 1.610049 38.65416 -2.27891
v 1.626623 37.51264 -1.993443
v -1.610049 38.65416 -2.27891
v -1.626623 37.51264 -1.993443
v 1.609402 37.09932 -4.704253
v 1.625968 36.21335 -4.031912
v 1.616529 34.54888 -5.127126
v 1.600058 34.54888 -6.361145
v -1.609402 37.09932 -4.704253
v -1.625968 36.21335 -4.031912
v -1.600058 34.54888 -6.361145
v -1.616529 34.54888 -5.127126
v -6.668341 31.0116 2.705021
v -5.443007 30.99393 2.358418
v -6.028635 30.99449 0.8643395
v -7.322414 31.01215 1.015599
v -7.19033 31.01233 -1.065045
v -5.897639 30.99467 -0.7907965
v -4.899174 30.99224 -3.490045
v -6.668342 34.44516 2.705021
v -5.443007 30.99393 2.358418
v -5.443006 34.46283 2.358418
v -7.322414 34.4446 1.015599
v -5.888897 31.00993 -4.346206
v -1.785306 30.98634 -5.263125
v -6.028635 34.46227 0.8643395
v -5.443006 34.46283 2.358418
v -7.19033 34.44442 -1.065045
v -5.897639 34.46208 -0.7907965
v -4.899174 34.46452 -3.490045
v -5.888897 34.44683 -4.346206
v -1.785306 34.47041 -5.263125
v -1.78531 34.45267 -6.78235
v 1.785306 34.47041 -5.263125
v -1.78531 31.00409 -6.78235
v 1.785306 30.98634 -5.263125
v 1.78531 31.00409 -6.78235
v 1.78531 34.45267 -6.78235
v 5.888897 31.00993 -4.346206
v 4.899175 30.99224 -3.490045
v 5.888897 34.44683 -4.346206
v 4.899174 34.46452 -3.490045
v 7.19033 34.44442 -1.065045
v 5.897639 34.46208 -0.7907965
v 6.028635 34.46227 0.8643395
v 7.19033 31.01233 -1.065045
v 5.897639 30.99467 -0.7907965
v 6.028635 30.99449 0.8643395
v 7.322414 34.4446 1.015599
v 7.322414 31.01215 1.015599
v 6.668342 34.44516 2.705021
v 5.443006 34.46283 2.358418
v 6.668341 31.0116 2.705021
v 5.443007 30.99393 2.358418
v 5.443007 30.99393 2.358418
v 5.443006 34.46283 2.358418
vt 0.2858968 0.7674336
vt 0.3153632 0.7898872
vt 0.3184657 0.7684846
vt 0.283852 0.7911815
vt 0.2474886 0.7687387
vt 0.2840652 0.8550306
vt 0.3155844 0.8561144
vt 0.335314 0.7904111
vt 0.3355314 0.855458
vt 0.2862682 0.8787644
vt 0.3188294 0.8774956
vt 0.247851 0.8777158
vt 0.2482188 0.854704
vt 0.2480098 0.7917485
vt 0.1758211 0.8555767
vt 0.1747237 0.8791748
vt 0.1756068 0.7913583
vt 0.1743531 0.7677673
vt 0.1182624 0.8559834
vt 0.1157373 0.8789057
vt 0.118048 0.7913334
vt 0.1153706 0.7684282
vt 0.06328481 0.8558583
vt 0.06120425 0.8773658
vt 0.01860726 0.878388
vt 0.003496408 0.8572118
vt 0.06307209 0.7918226
vt 0.06084973 0.7703294
vt 0.003276765 0.7908651
vt 0.01824605 0.7695892
vt 0.02731085 0.9708343
vt 0.02858406 0.9962068
vt 0.06063145 0.9930274
vt 0.05994225 0.9695816
vt 0.09643686 0.9704133
vt 0.09698176 0.9947936
vt 0.1587095 0.9934445
vt 0.02760035 0.9051981
vt 0.003504992 0.9702385
vt 0.003790975 0.9055834
vt 0.06021965 0.9067394
vt 0.1586625 0.9704372
vt 0.2356324 0.997091
vt 0.06111562 0.8832998
vt 0.02909702 0.8798383
vt 0.09671974 0.9062287
vt 0.09747952 0.8818547
vt 0.1591929 0.8837481
vt 0.1589431 0.9067534
vt 0.2361448 0.8807786
vt 0.2433907 0.9069461
vt 0.3129261 0.8811164
vt 0.2431087 0.9709885
vt 0.3124142 0.9974295
vt 0.3051682 0.9712615
vt 0.3054503 0.9072189
vt 0.389616 0.9714543
vt 0.3893667 0.9944601
vt 0.3898966 0.9077702
vt 0.389849 0.8847629
vt 0.4521217 0.9077939
vt 0.4515769 0.8834139
vt 0.4879272 0.8851796
vt 0.4518388 0.9719781
vt 0.4510797 0.9963523
vt 0.487444 0.9949072
vt 0.4886164 0.9086257
vt 0.4883396 0.9714683
vt 0.5212477 0.9073728
vt 0.5199744 0.8820003
vt 0.5209587 0.9730088
vt 0.5194618 0.9983687
vt 0.5447683 0.9726229
vt 0.5450531 0.907968
vn -0.9998899 0.0053453 0.01384815
vn -0.6209815 -0.1438812 0.7705064
vn -0.4466447 -0.7755539 0.4461217
vn -0.7077028 0.3085625 0.6355674
vn -0.9999127 0.01014288 0.008469665
vn 0.7077404 0.2269716 0.6690199
vn 0.6224349 -0.4773466 0.6202539
vn -0.4466447 -0.7755539 0.4461217
vn 0.7060081 -0.6109409 0.358195
vn 0.9998899 0.0053453 0.01384815
vn 0.7060081 -0.6109409 0.358195
vn 0.9999127 0.01014287 0.008469664
vn 0.5691579 0.5837824 0.5790142
vn -0.5691739 0.6961946 0.4374403
vn 0.7121395 0.6903151 0.1277592
vn 0.9999049 0.013692 0.001656243
vn -0.7122682 0.7018312 0.01034798
vn -0.9999049 0.013692 0.001656243
vn 0.7089453 0.6756388 -0.202259
vn 0.9998986 0.01313164 -0.005518542
vn -0.7090502 0.641169 -0.2935137
vn -0.9998986 0.01313164 -0.005518542
vn 0.8001701 0.4529599 -0.393135
vn 0.9998782 0.009041101 -0.01272254
vn 0.9998692 0.005326065 -0.01527126
vn 0.444699 0.4868047 -0.7518403
vn -0.800058 0.3934699 -0.4528672
vn -0.9998782 0.0090411 -0.01272254
vn -0.702165 0.3860823 -0.5982515
vn -0.9998692 0.005326065 -0.01527126
vn -0.2746841 -0.8001229 0.5332466
vn 0.2375057 -0.4469893 0.8624336
vn -0.01333865 -0.9999094 0.001839711
vn -0.8080827 -0.559182 0.1852504
vn -0.5943296 -0.7978589 -0.1009628
vn -0.01313013 -0.9999107 -0.002511538
vn -0.01162094 -0.9999108 -0.006573177
vn -0.3754742 0.557482 0.7404275
vn 0.2375057 -0.4469893 0.8624336
vn 0.1831235 0.706681 0.6834236
vn -0.8263716 0.5591753 0.06658041
vn -0.598564 -0.6169201 -0.5110094
vn -0.005531596 -0.9999186 -0.01150101
vn -0.01333865 0.9999094 0.001839191
vn 0.1831235 0.706681 0.6834236
vn -0.5806857 0.7978724 -0.1618757
vn -0.01312827 0.9999107 -0.002511446
vn -0.01161948 0.999911 -0.006571863
vn -0.4119872 0.8404742 -0.351951
vn -0.005530595 0.9999186 -0.01149955
vn -0.2094269 0.6103341 -0.7639586
vn 0.004147951 0.9999248 -0.01154483
vn -0.1446899 -0.836548 -0.5284432
vn 0.004148702 -0.9999248 -0.01154633
vn 0.1462734 -0.5637985 -0.8128563
vn 0.2901674 0.5637546 -0.773294
vn 0.598564 -0.6169201 -0.5110094
vn 0.01162094 -0.9999108 -0.00657318
vn 0.4119872 0.8404742 -0.351951
vn 0.01161948 0.999911 -0.006571864
vn 0.5806857 0.7978724 -0.1618757
vn 0.01312827 0.9999107 -0.002511446
vn 0.01333865 0.9999094 0.001839192
vn 0.5943296 -0.7978589 -0.1009628
vn 0.01313014 -0.9999107 -0.002511535
vn 0.01333865 -0.9999094 0.001839711
vn 0.8263716 0.5591753 0.06658041
vn 0.8080827 -0.559182 0.1852504
vn 0.3754742 0.557482 0.7404275
vn -0.1831235 0.706681 0.6834236
vn 0.2746841 -0.8001229 0.5332466
vn -0.2375057 -0.4469893 0.8624336
vn -0.2375057 -0.4469893 0.8624336
vn -0.1831235 0.706681 0.6834236
g Stripe_420_0
f 3/3/3 2/2/2 1/1/1
f 4/4/4 1/1/1 2/2/2
f 1/1/1 4/4/4 5/5/5
f 4/4/4 2/2/2 6/6/6
f 2/2/2 7/7/7 6/6/6
f 2/2/2 8/8/8 7/7/7
f 8/8/8 9/9/9 7/7/7
f 10/10/10 6/6/6 7/7/7
f 7/7/7 11/11/11 10/10/10
f 6/6/6 10/10/10 12/12/12
f 4/4/4 6/6/6 13/13/13
f 12/12/12 13/13/13 6/6/6
f 5/5/5 4/4/4 14/14/14
f 14/14/14 4/4/4 13/13/13
f 15/15/15 13/13/13 12/12/12
f 13/13/13 15/15/15 14/14/14
f 16/16/16 15/15/15 12/12/12
f 5/5/5 14/14/14 17/17/17
f 15/15/15 17/17/17 14/14/14
f 17/17/17 18/18/18 5/5/5
f 15/15/15 16/16/16 19/19/19
f 15/15/15 19/19/19 17/17/17
f 20/20/20 19/19/19 16/16/16
f 18/18/18 17/17/17 21/21/21
f 19/19/19 21/21/21 17/17/17
f 21/21/21 22/22/22 18/18/18
f 19/19/19 20/20/20 23/23/23
f 19/19/19 23/23/23 21/21/21
f 20/20/20 24/24/24 23/23/23
f 23/23/23 24/24/24 25/25/25
f 25/25/25 26/26/26 23/23/23
f 22/22/22 21/21/21 27/27/27
f 23/23/23 27/27/27 21/21/21
f 27/27/27 23/23/23 26/26/26
f 27/27/27 28/28/28 22/22/22
f 29/29/29 27/27/27 26/26/26
f 30/30/30 28/28/28 27/27/27
f 27/27/27 29/29/29 30/30/30
f 33/33/33 32/32/32 31/31/31
f 31/31/31 34/34/34 33/33/33
f 33/33/33 34/34/34 35/35/35
f 35/35/35 36/36/36 33/33/33
f 37/37/37 36/36/36 35/35/35
f 34/34/34 31/31/31 38/38/38
f 38/38/38 31/31/31 39/39/39
f 39/39/39 40/40/40 38/38/38
f 38/38/38 41/41/41 34/34/34
f 35/35/35 34/34/34 41/41/41
f 42/42/42 37/37/37 35/35/35
f 43/43/43 37/37/37 42/42/42
f 44/44/44 41/41/41 38/38/38
f 38/38/38 45/45/45 44/44/44
f 41/41/41 46/46/46 35/35/35
f 44/44/44 46/46/46 41/41/41
f 42/42/42 35/35/35 46/46/46
f 47/47/47 46/46/46 44/44/44
f 46/46/46 47/47/47 48/48/48
f 48/48/48 49/49/49 46/46/46
f 46/46/46 49/49/49 42/42/42
f 49/49/49 48/48/48 50/50/50
f 49/49/49 50/50/50 51/51/51
f 49/49/49 51/51/51 42/42/42
f 51/51/51 50/50/50 52/52/52
f 42/42/42 53/53/53 43/43/43
f 42/42/42 51/51/51 53/53/53
f 43/43/43 53/53/53 54/54/54
f 53/53/53 51/51/51 55/55/55
f 53/53/53 55/55/55 54/54/54
f 52/52/52 56/56/56 51/51/51
f 51/51/51 56/56/56 55/55/55
f 57/57/57 54/54/54 55/55/55
f 56/56/56 57/57/57 55/55/55
f 57/57/57 58/58/58 54/54/54
f 59/59/59 56/56/56 52/52/52
f 56/56/56 59/59/59 57/57/57
f 52/52/52 60/60/60 59/59/59
f 61/61/61 59/59/59 60/60/60
f 57/57/57 59/59/59 61/61/61
f 60/60/60 62/62/62 61/61/61
f 61/61/61 62/62/62 63/63/63
f 58/58/58 57/57/57 64/64/64
f 61/61/61 64/64/64 57/57/57
f 64/64/64 65/65/65 58/58/58
f 66/66/66 65/65/65 64/64/64
f 61/61/61 63/63/63 67/67/67
f 64/64/64 61/61/61 67/67/67
f 64/64/64 68/68/68 66/66/66
f 67/67/67 68/68/68 64/64/64
f 69/69/69 67/67/67 63/63/63
f 68/68/68 67/67/67 69/69/69
f 63/63/63 70/70/70 69/69/69
f 68/68/68 71/71/71 66/66/66
f 69/69/69 71/71/71 68/68/68
f 66/66/66 71/71/71 72/72/72
f 73/73/73 71/71/71 69/69/69
f 73/73/73 69/69/69 74/74/74
