g SunTemple_combo420_piece_4
v -10.81862 -0.4435815 -7.577401
v -9.853656 -0.4449536 -8.150264
v -10.81862 0.5057935 -7.577401
v -9.017582 -0.446145 -8.64661
v -7.027816 -0.4489771 -9.827857
v -8.360641 0.700603 -9.03661
v -1.207125 -0.4543091 -12.0529
v -0.1099708 -0.4543091 -12.0529
v -0.08387545 0.4638013 -12.0529
v -13.20951 5.866004 -1.549512
v -13.45217 3.571042 2.272884
v -13.45217 -0.4394897 2.272884
v -13.20951 -0.4391528 -1.549512
v -12.93742 0.3987769 3.602442
v -12.25056 2.983411 5.37656
v -12.25056 -0.4405102 5.37656
v -13.45217 -0.4394897 2.272884
v -13.45217 3.571042 2.272884
v -13.21344 2.971809 2.889493
v -11.07534 -0.4719458 1.995003
v -13.45217 -0.4394897 2.272884
v -12.25056 -0.4405102 5.37656
v -9.999467 -0.4729712 4.739806
v -10.83468 -0.471604 -1.045684
v -13.20951 -0.4391528 -1.549512
v -13.45217 -0.4394897 2.272884
v -11.07534 -0.4719458 1.995003
v -9.00038 -0.4760815 -6.00453
v -10.81862 -0.4435815 -7.577401
v -13.20951 -0.4391528 -1.549512
v -10.83468 -0.471604 -1.045684
v -9.999467 -0.4729712 4.739806
v -12.25056 -0.4405102 5.37656
v -12.25056 2.983411 5.37656
v -10.00193 2.959116 4.7372
v -10.81862 -0.4435815 -7.577401
v -9.00038 -0.4760815 -6.00453
v -8.346882 -0.4611401 -6.380927
v -9.853656 -0.4449536 -8.150264
v -13.20951 -0.4391528 -1.549512
v -10.81862 -0.4435815 -7.577401
v -10.81862 0.5057935 -7.577401
v -11.46733 1.017122 -5.941891
v -12.44743 3.529065 -3.470859
v -13.20951 5.866004 -1.549512
v -7.820348 -0.4622339 -6.654831
v -5.832498 -0.4655298 -7.810864
v -7.027816 -0.4489771 -9.827857
v -9.017582 -0.446145 -8.64661
v -1.095949 -0.4706104 -9.245136
v -0.002002438 -0.4706104 -9.245136
v -0.1099708 -0.4543091 -12.0529
v -1.207125 -0.4543091 -12.0529
v -13.20951 5.866004 -1.549512
v -10.95194 5.866004 -1.043486
v -11.19108 3.571042 1.924224
v -13.45217 3.571042 2.272884
v -12.93742 0.3987769 3.602442
v -10.75298 0.3987769 2.75672
v -10.00193 2.959116 4.7372
v -12.25056 2.983411 5.37656
v -13.21344 2.971809 2.889493
v -11.029 2.971809 2.04377
v -10.75298 0.3987769 2.75672
v -12.93742 0.3987769 3.602442
v -13.45217 3.571042 2.272884
v -11.19108 3.571042 1.924224
v -11.029 2.971809 2.04377
v -13.21344 2.971809 2.889493
v -9.853656 -0.4449536 -8.150264
v -8.346882 -0.4611401 -6.380927
v -9.132026 0.5057935 -6.138462
v -10.81862 0.5057935 -7.577401
v -12.44743 3.529065 -3.470859
v -10.27002 3.529065 -2.607211
v -10.95194 5.866004 -1.043486
v -13.20951 5.866004 -1.549512
v -11.46733 1.017122 -5.941891
v -9.28991 1.017122 -5.078246
v -10.27002 3.529065 -2.607211
v -12.44743 3.529065 -3.470859
v -10.81862 0.5057935 -7.577401
v -9.132026 0.5057935 -6.138462
v -9.28991 1.017122 -5.078246
v -11.46733 1.017122 -5.941891
v -8.360641 0.700603 -9.03661
v -7.164866 0.7006006 -7.022374
v -7.820348 -0.4622339 -6.654831
v -9.017582 -0.446145 -8.64661
v -7.027816 -0.4489771 -9.827857
v -5.832498 -0.4655298 -7.810864
v -7.164866 0.7006006 -7.022374
v -8.360641 0.700603 -9.03661
v -0.08387545 0.4638013 -12.0529
v 0.0320212 0.4638013 -9.228378
v -1.095949 -0.4706104 -9.245136
v -1.207125 -0.4543091 -12.0529
v -0.1099708 -0.4543091 -12.0529
v -0.002002438 -0.4706104 -9.245136
v 0.0320212 0.4638013 -9.228378
v -0.08387545 0.4638013 -12.0529
vt 0.1586625 0.9704372
vt 0.1694716 0.9705077
vt 0.1587047 0.9608617
vt 0.1788369 0.9705689
vt 0.2011254 0.9707144
vt 0.1862467 0.9590413
vt 0.2627181 0.9710747
vt 0.273098 0.9711204
vt 0.2733858 0.9618407
vt 0.09671974 0.9062287
vt 0.06011867 0.9296137
vt 0.05994225 0.9695816
vt 0.09643686 0.9704133
vt 0.04600204 0.9613911
vt 0.02746799 0.9352068
vt 0.02731085 0.9708343
vt 0.05994225 0.9695816
vt 0.06011867 0.9296137
vt 0.05361073 0.9355333
vt 0.06063145 0.9930274
vt 0.05994225 0.9695816
vt 0.02731085 0.9708343
vt 0.02858406 0.9962068
vt 0.09698176 0.9947936
vt 0.09643686 0.9704133
vt 0.05994225 0.9695816
vt 0.06063145 0.9930274
vt 0.1587095 0.9934445
vt 0.1586625 0.9704372
vt 0.09643686 0.9704133
vt 0.09698176 0.9947936
vt 0.003504992 0.9702385
vt 0.02731085 0.9708343
vt 0.02746799 0.9352068
vt 0.003657918 0.9356648
vt 0.1586625 0.9704372
vt 0.1587095 0.9934445
vt 0.1675518 0.9938636
vt 0.1694716 0.9705077
vt 0.09643686 0.9704133
vt 0.1586625 0.9704372
vt 0.1587047 0.9608617
vt 0.1418444 0.9556382
vt 0.1164488 0.9300396
vt 0.09671974 0.9062287
vt 0.1745967 0.9941976
vt 0.2013011 0.9954635
vt 0.2011254 0.9707144
vt 0.1788369 0.9705689
vt 0.2611398 0.9972035
vt 0.2739071 0.9972597
vt 0.273098 0.9711204
vt 0.2627181 0.9710747
vt 0.3194633 0.8605171
vt 0.3194633 0.8742141
vt 0.3331603 0.8742141
vt 0.3331603 0.8605171
vt 0.3194633 0.8605171
vt 0.3194633 0.8742141
vt 0.3331603 0.8742141
vt 0.3331603 0.8605171
vt 0.3194633 0.8605171
vt 0.3194633 0.8742141
vt 0.3331603 0.8742141
vt 0.3331603 0.8605171
vt 0.3194633 0.8605171
vt 0.3194633 0.8742141
vt 0.3331603 0.8742141
vt 0.3331603 0.8605171
vt 0.3194633 0.8605171
vt 0.3194633 0.8742141
vt 0.3331603 0.8742141
vt 0.3331603 0.8605171
vt 0.3194633 0.8605171
vt 0.3194633 0.8742141
vt 0.3331603 0.8742141
vt 0.3331603 0.8605171
vt 0.3194633 0.8605171
vt 0.3194633 0.8742141
vt 0.3331603 0.8742141
vt 0.3331603 0.8605171
vt 0.3194633 0.8605171
vt 0.3194633 0.8742141
vt 0.3331603 0.8742141
vt 0.3331603 0.8605171
vt 0.3194633 0.8605171
vt 0.3194633 0.8742141
vt 0.3331603 0.8742141
vt 0.3331603 0.8605171
vt 0.3194633 0.8605171
vt 0.3194633 0.8742141
vt 0.3331603 0.8742141
vt 0.3331603 0.8605171
vt 0.3194633 0.8605171
vt 0.3194633 0.8742141
vt 0.3331603 0.8742141
vt 0.3331603 0.8605171
vt 0.3194633 0.8605171
vt 0.3194633 0.8742141
vt 0.3331603 0.8742141
vt 0.3331603 0.8605171
vn -0.5104831 0 -0.8598878
vn -0.510483 0 -0.8598878
vn -0.5104831 0 -0.8598878
vn -0.5104823 5.883531E-07 -0.8598883
vn -0.5104822 5.883531E-07 -0.8598883
vn -0.5104821 5.88353E-07 -0.8598883
vn 0 0 -1
vn 0 0 -1
vn 0 0 -1
vn -0.9979911 0 -0.06335457
vn -0.9979911 0 -0.06335458
vn -0.9979911 0 -0.06335457
vn -0.9979911 0 -0.06335457
vn -0.9325489 0 0.3610435
vn -0.9325489 0 0.3610435
vn -0.9325489 0 0.3610435
vn -0.9325489 0 0.3610435
vn -0.9325489 0 0.3610435
vn -0.9325489 0 0.3610435
vn -0.01308777 -0.9999031 0.004746778
vn -0.01308777 -0.9999031 0.004746777
vn -0.01308777 -0.9999031 0.004746778
vn -0.01308777 -0.9999031 0.004746777
vn -0.01360837 -0.9999069 -0.001057208
vn -0.01360836 -0.9999069 -0.001057208
vn -0.01360836 -0.9999069 -0.001057208
vn -0.01360836 -0.9999069 -0.001057208
vn -0.01334773 -0.9999015 -0.004322602
vn -0.01334773 -0.9999015 -0.004322602
vn -0.01334773 -0.9999015 -0.004322602
vn -0.01334773 -0.9999015 -0.004322602
vn 0.2728441 0.0004636832 0.9620581
vn 0.2728441 0.0004636832 0.9620581
vn 0.2728442 0.0004636832 0.9620581
vn 0.2728442 0.0004636832 0.9620581
vn -0.0001009344 -0.9998953 -0.01446524
vn -0.0001009344 -0.9998953 -0.01446524
vn -0.0001009344 -0.9998953 -0.01446524
vn -0.0001009344 -0.9998953 -0.01446524
vn -0.9295502 6.264369E-07 -0.3686954
vn -0.9295502 6.264369E-07 -0.3686954
vn -0.9295502 6.264369E-07 -0.3686953
vn -0.9295502 6.264369E-07 -0.3686953
vn -0.9295502 6.264369E-07 -0.3686954
vn -0.9295502 6.264369E-07 -0.3686954
vn -0.004682803 -0.9999747 -0.005347517
vn -0.004682802 -0.9999747 -0.005347517
vn -0.004682802 -0.9999747 -0.005347517
vn -0.004682802 -0.9999747 -0.005347517
vn 0 -0.9999832 -0.005805704
vn 0 -0.9999832 -0.005805705
vn 0 -0.9999832 -0.005805705
vn 0 -0.9999832 -0.005805705
vn -0.01946664 0.8289585 0.5589712
vn -0.01946664 0.8289585 0.5589712
vn 0.01713212 0.7971462 0.6035433
vn 0.01695764 0.7973062 0.6033367
vn -0.2473614 0.6153258 -0.7484561
vn -0.2473614 0.6153258 -0.748456
vn -0.2473614 0.6153258 -0.748456
vn -0.2473614 0.6153258 -0.748456
vn 0.321279 0.3459692 0.8815243
vn 0.3235486 0.3405836 0.8827905
vn 0.3460896 0.2848202 0.8939236
vn 0.3460896 0.2848202 0.8939236
vn 0.01695764 0.7973062 0.6033367
vn 0.01713212 0.7971462 0.6035433
vn 0.3235486 0.3405836 0.8827905
vn 0.321279 0.3459692 0.8815243
vn 0.5161135 0.6879517 -0.5102443
vn 0.5161136 0.6879517 -0.5102443
vn 0.5161135 0.6879517 -0.5102443
vn 0.5161136 0.6879517 -0.5102443
vn 0.2434841 0.6836836 -0.6879623
vn 0.2435562 0.683997 -0.6876252
vn 0.2300144 0.6264104 -0.7447841
vn 0.2300144 0.6264104 -0.7447841
vn 0.2367606 0.7979224 -0.5543143
vn 0.2385479 0.7912257 -0.5630779
vn 0.2435562 0.683997 -0.6876252
vn 0.2434841 0.6836836 -0.6879623
vn 0.1796527 0.9363949 -0.3014785
vn 0.1796527 0.9363949 -0.3014785
vn 0.2385479 0.7912257 -0.5630779
vn 0.2367606 0.7979224 -0.5543143
vn -0.7168449 0.5485231 0.4304138
vn -0.7168449 0.5485231 0.4304137
vn -0.7168448 0.5485231 0.4304137
vn -0.7168448 0.5485231 0.4304137
vn 0.5163608 0.8009812 -0.3029864
vn 0.5163608 0.8009812 -0.3029864
vn 0.5163608 0.8009811 -0.3029863
vn 0.5163608 0.8009811 -0.3029863
vn -0.6352935 0.7717686 0.02784644
vn -0.6352935 0.7717686 0.02784645
vn -0.6352935 0.7717686 0.02784645
vn -0.6352935 0.7717686 0.02784645
vn 0.998694 -0.0320502 -0.03978765
vn 0.998694 -0.0320502 -0.03978766
vn 0.998694 -0.0320502 -0.03978766
vn 0.998694 -0.0320502 -0.03978766
g SunTemple_combo420_piece_4_0
f 3/3/3 2/2/2 1/1/1
f 6/6/6 5/5/5 4/4/4
f 9/9/9 8/8/8 7/7/7
f 12/12/12 11/11/11 10/10/10
f 13/13/13 12/12/12 10/10/10
f 16/16/16 15/15/15 14/14/14
f 14/14/14 17/17/17 16/16/16
f 18/18/18 17/17/17 14/14/14
f 14/14/14 19/19/19 18/18/18
f 22/22/22 21/21/21 20/20/20
f 23/23/23 22/22/22 20/20/20
f 26/26/26 25/25/25 24/24/24
f 27/27/27 26/26/26 24/24/24
f 30/30/30 29/29/29 28/28/28
f 31/31/31 30/30/30 28/28/28
f 34/34/34 33/33/33 32/32/32
f 35/35/35 34/34/34 32/32/32
f 38/38/38 37/37/37 36/36/36
f 39/39/39 38/38/38 36/36/36
f 42/42/42 41/41/41 40/40/40
f 40/40/40 43/43/43 42/42/42
f 40/40/40 44/44/44 43/43/43
f 40/40/40 45/45/45 44/44/44
f 48/48/48 47/47/47 46/46/46
f 49/49/49 48/48/48 46/46/46
f 52/52/52 51/51/51 50/50/50
f 53/53/53 52/52/52 50/50/50
f 56/56/56 55/55/55 54/54/54
f 57/57/57 56/56/56 54/54/54
f 60/60/60 59/59/59 58/58/58
f 61/61/61 60/60/60 58/58/58
f 64/64/64 63/63/63 62/62/62
f 65/65/65 64/64/64 62/62/62
f 68/68/68 67/67/67 66/66/66
f 69/69/69 68/68/68 66/66/66
f 72/72/72 71/71/71 70/70/70
f 73/73/73 72/72/72 70/70/70
f 76/76/76 75/75/75 74/74/74
f 77/77/77 76/76/76 74/74/74
f 80/80/80 79/79/79 78/78/78
f 81/81/81 80/80/80 78/78/78
f 84/84/84 83/83/83 82/82/82
f 85/85/85 84/84/84 82/82/82
f 88/88/88 87/87/87 86/86/86
f 89/89/89 88/88/88 86/86/86
f 92/92/92 91/91/91 90/90/90
f 93/93/93 92/92/92 90/90/90
f 96/96/96 95/95/95 94/94/94
f 97/97/97 96/96/96 94/94/94
f 100/100/100 99/99/99 98/98/98
f 101/101/101 100/100/100 98/98/98
