g SunTemple_combo401_piece_1
v -2.062816 6.713454 -10.44089
v -2.03038 5.404231 -10.89007
v 1.103327 6.808911 -10.42829
v -2.012109 4.666743 -11.1431
v -1.644189 4.66707 -11.13871
v 0.5222315 -0.5064111 -9.743785
v 0.5096127 -0.02957275 -9.77761
v 0.5001334 -0.5772168 -10.74747
v 1.628607 5.335581 11.10102
v 1.64773 6.267095 10.78627
v 1.659868 5.925991 9.857235
v 1.655458 5.304951 10.11334
v -1.820329 10.94589 1.622071
v -2.996048 20.8433 2.716451
v -0.3831762 21.22715 2.777525
v -0.2430083 11.12128 1.644526
v -0.3831762 21.22715 2.777525
v -2.996048 20.8433 2.716451
v -2.944972 21.00813 0.8993404
v -0.3781406 21.41371 0.948911
v -1.765202 11.43516 -0.07829315
v -0.2395296 11.60531 -0.0659194
v -0.3781406 21.41371 0.948911
v -2.944972 21.00813 0.8993404
v -0.1924573 13.72288 1.566274
v -2.013521 13.72086 1.539217
v -2.013521 12.80546 -4.10388
v 0.5150594 13.00385 -4.146713
v -2.012109 4.666743 -11.1431
v -2.073259 -0.5782812 -10.76169
v 0.5001334 -0.5772168 -10.74747
v -1.644189 4.66707 -11.13871
v -2.05698 6.354094 -9.508871
v -2.014756 4.545657 -10.16327
v -2.012109 4.666743 -11.1431
v -2.03038 5.404231 -10.89007
v -2.062816 6.713454 -10.44089
v -2.013521 12.80546 -4.10388
v -2.013521 13.72086 1.539217
v -2.001819 12.74749 1.441694
v -1.960703 11.85273 -3.862874
v -2.013521 13.72086 1.539217
v -2.012985 11.36577 8.260781
v -2.005919 10.65319 7.652166
v -2.001819 12.74749 1.441694
v -2.05923 7.722353 10.21803
v -2.013519 5.329651 11.03145
v -2.005745 5.200237 10.0531
v -2.050177 7.32344 9.298264
v -2.012985 11.36577 8.260781
v -2.05923 7.722353 10.21803
v -2.050177 7.32344 9.298264
v -2.005919 10.65319 7.652166
v 0.5001334 -0.5772168 -10.74747
v -2.073259 -0.5782812 -10.76169
v -2.077325 -0.5074853 -9.758147
v 0.5222315 -0.5064111 -9.743785
v -2.073259 -0.5782812 -10.76169
v -2.012109 4.666743 -11.1431
v -2.014756 4.545657 -10.16327
v -2.077325 -0.5074853 -9.758147
v -2.013519 5.329651 11.03145
v -1.960609 2.354612 10.63794
v -1.953948 2.418706 9.633978
v -2.005745 5.200237 10.0531
v -0.1921863 11.38262 8.296024
v -2.012985 11.36577 8.260781
v -2.013521 13.72086 1.539217
v -0.1924573 13.72288 1.566274
v -1.643115 7.722358 10.22655
v -2.05923 7.722353 10.21803
v -2.012985 11.36577 8.260781
v -0.1921863 11.38262 8.296024
v -1.643115 7.722358 10.22655
v 1.64773 6.267095 10.78627
v 1.628607 5.335581 11.10102
v -2.013519 5.329651 11.03145
v -2.05923 7.722353 10.21803
v -2.013519 5.329651 11.03145
v 1.628607 5.335581 11.10102
v -0.3616858 0.1225635 10.65298
v -1.960609 2.354612 10.63794
v -1.960609 2.354612 10.63794
v -0.3616858 0.1225635 10.65298
v -0.4714579 0.02948486 9.581572
v -1.953948 2.418706 9.633978
v -2.03038 5.404231 -10.89007
v -2.032872 5.079541 -9.94388
v 1.111259 6.445149 -9.501155
v 1.103327 6.808911 -10.42829
v 0.5150594 13.00385 -4.146713
v 0.5853935 12.05392 -3.908154
v -0.1632444 12.75513 1.467299
v -0.1924573 13.72288 1.566274
v 0.5001334 -0.5772168 -10.74747
v 0.5096127 -0.02957275 -9.77761
v -1.652794 4.540584 -10.16676
v -1.644189 4.66707 -11.13871
v -0.1924573 13.72288 1.566274
v -0.1632444 12.75513 1.467299
v -0.176474 10.67367 7.69113
v -0.1921863 11.38262 8.296024
v -0.1921863 11.38262 8.296024
v -0.176474 10.67367 7.69113
v -1.623168 7.325161 9.312345
v -1.643115 7.722358 10.22655
v -1.643115 7.722358 10.22655
v -1.623168 7.325161 9.312345
v 1.659868 5.925991 9.857235
v 1.64773 6.267095 10.78627
v 1.628607 5.335581 11.10102
v 1.655458 5.304951 10.11334
v -0.4714579 0.02948486 9.581572
v -0.3616858 0.1225635 10.65298
v -1.644189 4.66707 -11.13871
v -1.652794 4.540584 -10.16676
v -2.032872 5.079541 -9.94388
v -2.03038 5.404231 -10.89007
v 1.103327 6.808911 -10.42829
v 1.111259 6.445149 -9.501155
v -2.05698 6.354094 -9.508871
v -2.062816 6.713454 -10.44089
v -2.013521 12.80546 -4.10388
v -1.960703 11.85273 -3.862874
v 0.5853935 12.05392 -3.908154
v 0.5150594 13.00385 -4.146713
v -2.996048 20.8433 2.716451
v -1.820329 10.94589 1.622071
v -1.765202 11.43516 -0.07829315
v -2.944972 21.00813 0.8993404
v -0.3781406 21.41371 0.948911
v -0.2395296 11.60531 -0.0659194
v -0.2430083 11.12128 1.644526
v -0.3831762 21.22715 2.777525
vt 0.6771449 0.1000606
vt 0.6970286 0.1000864
vt 0.6774349 0.05266786
vt 0.7082292 0.100101
vt 0.7084084 0.09465345
vt 0.3194633 0.8605171
vt 0.3263118 0.8742142
vt 0.3331603 0.8605171
vt 0.2601606 0.04632258
vt 0.2741901 0.04552096
vt 0.2707876 0.03128736
vt 0.2584866 0.03232443
vt 0.5071405 0.8744878
vt 0.6167113 0.910281
vt 0.6269467 0.8822384
vt 0.5137024 0.8542061
vt 0.4710312 0.8740625
vt 0.5006534 0.8777609
vt 0.5058184 0.8388097
vt 0.4718714 0.8343137
vt 0.5071405 0.8744878
vt 0.5137024 0.8542061
vt 0.6269467 0.8822384
vt 0.6167113 0.910281
vt 0.4608868 0.06985253
vt 0.4615439 0.09698462
vt 0.5450559 0.09641922
vt 0.5447593 0.05861932
vt 0.7082292 0.100101
vt 0.7858315 0.1039618
vt 0.7871574 0.06546543
vt 0.7084084 0.09465345
vt 0.6764466 0.1149871
vt 0.7076042 0.1144134
vt 0.7082292 0.100101
vt 0.6970286 0.1000864
vt 0.6771449 0.1000606
vt 0.5450559 0.09641922
vt 0.4615439 0.09698462
vt 0.4616928 0.11111
vt 0.5451664 0.1108387
vt 0.4615439 0.09698462
vt 0.3576883 0.0979709
vt 0.3581802 0.1109282
vt 0.4616928 0.11111
vt 0.2978958 0.1004256
vt 0.2616696 0.1001738
vt 0.2608816 0.1143088
vt 0.2982365 0.1155056
vt 0.3576883 0.0979709
vt 0.2978958 0.1004256
vt 0.2982365 0.1155056
vt 0.3581802 0.1109282
vt 0.7871574 0.06546543
vt 0.7858315 0.1039618
vt 0.8008964 0.1043191
vt 0.8022296 0.06562284
vt 0.7858315 0.1039618
vt 0.7082292 0.100101
vt 0.7076042 0.1144134
vt 0.7845886 0.1191968
vt 0.2616696 0.1001738
vt 0.2186173 0.1001562
vt 0.2148628 0.113856
vt 0.2608816 0.1143088
vt 0.356997 0.07101396
vt 0.3576883 0.0979709
vt 0.4615439 0.09698462
vt 0.4608868 0.06985253
vt 0.2976968 0.09417224
vt 0.2978958 0.1004256
vt 0.3576883 0.0979709
vt 0.356997 0.07101396
vt 0.2976968 0.09417224
vt 0.2741901 0.04552096
vt 0.2601606 0.04632258
vt 0.2616696 0.1001738
vt 0.2978958 0.1004256
vt 0.2616696 0.1001738
vt 0.2601606 0.04632258
vt 0.1846492 0.07800129
vt 0.2186173 0.1001562
vt 0.2186173 0.1001562
vt 0.1846492 0.07800129
vt 0.1768341 0.09129575
vt 0.2148628 0.113856
vt 0.3194633 0.8605171
vt 0.3194633 0.8742142
vt 0.3331603 0.8742142
vt 0.3331603 0.8605171
vt 0.3194633 0.8605171
vt 0.3194633 0.8742142
vt 0.3331603 0.8742142
vt 0.3331603 0.8605171
vt 0.3194633 0.8605171
vt 0.3194633 0.8742142
vt 0.3331603 0.8742142
vt 0.3331603 0.8605171
vt 0.3194633 0.8605171
vt 0.3194633 0.8742142
vt 0.3331603 0.8742142
vt 0.3331603 0.8605171
vt 0.3194633 0.8605171
vt 0.3194633 0.8742142
vt 0.3331603 0.8742142
vt 0.3331603 0.8605171
vt 0.3194633 0.8605171
vt 0.3194633 0.8742142
vt 0.3331603 0.8742142
vt 0.3331603 0.8605171
vt 0.3194633 0.8605171
vt 0.3194633 0.8742142
vt 0.3331603 0.8742142
vt 0.3331603 0.8605171
vt 0.3194633 0.8605171
vt 0.3194633 0.8742142
vt 0.3331603 0.8742142
vt 0.3331603 0.8605171
vt 0.3194633 0.8605171
vt 0.3194633 0.8742142
vt 0.3331603 0.8742142
vt 0.3331603 0.8605171
vt 0.3194633 0.8605171
vt 0.3194633 0.8742142
vt 0.3331603 0.8742142
vt 0.3331603 0.8605171
vt 0.3194633 0.8605171
vt 0.3194633 0.8742142
vt 0.3331603 0.8742142
vt 0.3331603 0.8605171
vt 0.3194633 0.8605171
vt 0.3194633 0.8742142
vt 0.3331603 0.8742142
vt 0.3331603 0.8605171
vn -0.006015543 0.3243833 -0.9459066
vn -0.006015544 0.3243833 -0.9459066
vn -0.006015543 0.3243833 -0.9459066
vn 0.01100078 0.3247456 -0.9457375
vn 0.01100078 0.3247455 -0.9457375
vn 0.9994111 0.02476329 -0.02375103
vn 0.9186762 0.3858543 -0.08456081
vn 0.9173839 0.3888109 -0.08504642
vn 0.9997383 -0.007166295 0.02172625
vn 0.9997383 -0.007166294 0.02172625
vn 0.9997383 -0.007166294 0.02172625
vn 0.9997383 -0.007166293 0.02172625
vn -0.004998077 -0.1109901 0.9938089
vn -0.03750446 0.1023499 0.9940411
vn -0.04127584 0.1275494 0.990973
vn -0.004998077 -0.1109901 0.9938089
vn -0.04127584 0.1275494 0.990973
vn -0.03750446 0.1023499 0.9940411
vn -0.03426355 0.3254357 -0.9449432
vn -0.03786775 0.3481259 -0.9366827
vn 0.0006636652 0.1023087 -0.9947524
vn 0.000663665 0.1023087 -0.9947524
vn -0.03786775 0.3481259 -0.9366827
vn -0.03426355 0.3254357 -0.9449432
vn -0.04606422 0.9883416 -0.1451168
vn -0.04606422 0.9883416 -0.1451168
vn -0.04606422 0.9883416 -0.1451168
vn -0.04606422 0.9883416 -0.1451168
vn 0.006342804 -0.07220728 -0.9973694
vn 0.006342804 -0.07220728 -0.9973694
vn 0.006342804 -0.07220729 -0.9973694
vn 0.006342804 -0.07220728 -0.9973694
vn -0.9997346 -0.02268072 -0.004031914
vn -0.9997346 -0.02268072 -0.004031914
vn -0.9997346 -0.02268072 -0.004031914
vn -0.9997346 -0.02268072 -0.004031915
vn -0.9997346 -0.02268072 -0.004031914
vn -0.9994423 -0.03334816 0.001760425
vn -0.9994423 -0.03334816 0.001760425
vn -0.9994423 -0.03334815 0.001760426
vn -0.9994423 -0.03334816 0.001760425
vn -0.9999472 -0.0096291 -0.003588554
vn -0.9999472 -0.009629098 -0.003588554
vn -0.9999472 -0.009629099 -0.003588554
vn -0.9999472 -0.009629099 -0.003588554
vn -0.9997749 -0.02100416 -0.00301695
vn -0.9997749 -0.02100416 -0.00301695
vn -0.9997749 -0.02100416 -0.00301695
vn -0.9997749 -0.02100416 -0.003016949
vn -0.9998796 0.005471546 -0.01452495
vn -0.9998796 0.005471546 -0.01452495
vn -0.9998796 0.005471545 -0.01452495
vn -0.9998796 0.005471545 -0.01452495
vn 2.36021E-05 -0.9975209 0.07037096
vn 2.36021E-05 -0.9975209 0.07037096
vn 2.360209E-05 -0.9975209 0.07037096
vn 2.360209E-05 -0.9975209 0.07037096
vn -0.9999259 0.01177716 -0.003085361
vn -0.9999259 0.01177716 -0.00308536
vn -0.9999259 0.01177716 -0.00308536
vn -0.9999259 0.01177716 -0.00308536
vn -0.9998288 -0.01723863 -0.006712607
vn -0.9998288 -0.01723863 -0.006712607
vn -0.9998288 -0.01723863 -0.006712609
vn -0.9998288 -0.01723863 -0.006712608
vn -0.0105296 0.9440813 0.3295444
vn -0.0105296 0.9440813 0.3295444
vn -0.0105296 0.9440813 0.3295445
vn -0.0105296 0.9440813 0.3295445
vn -0.02079621 0.4730974 0.8807646
vn -0.02079621 0.4730974 0.8807646
vn -0.02079621 0.4730974 0.8807646
vn -0.0207962 0.4730974 0.8807646
vn -0.01885768 0.3211467 0.9468417
vn -0.01885768 0.3211467 0.9468417
vn -0.01885769 0.3211468 0.9468417
vn -0.01885768 0.3211467 0.9468417
vn -0.01885769 0.3211468 0.9468417
vn -0.05403822 -0.08942946 0.9945261
vn -0.05403822 -0.08942946 0.9945261
vn -0.05403822 -0.08942946 0.9945261
vn -0.05403822 -0.08942946 0.9945261
vn -0.8308201 -0.554378 0.04902021
vn -0.8308201 -0.554378 0.04902022
vn -0.8308201 -0.5543781 0.04902022
vn -0.8308201 -0.554378 0.04902022
vn 0.4208038 -0.8510765 -0.3139951
vn 0.4208038 -0.8510765 -0.3139951
vn 0.4208038 -0.8510765 -0.3139951
vn 0.4208038 -0.8510765 -0.3139951
vn 0.9906496 0.06033166 0.1223664
vn 0.9906496 0.06033166 0.1223664
vn 0.9972478 0.04056337 0.06205899
vn 0.9972574 0.04052176 0.06193229
vn 0.9173839 0.3888109 -0.08504642
vn 0.9186762 0.3858543 -0.08456081
vn 0.9116474 0.4065634 -0.0600423
vn 0.9116938 0.4064091 -0.06038206
vn 0.9972574 0.04052176 0.06193229
vn 0.9972478 0.04056337 0.06205899
vn 0.9913883 -0.09290268 0.09229443
vn 0.9911489 -0.09438355 0.09335633
vn 0.9911489 -0.09438355 0.09335633
vn 0.9913883 -0.09290268 0.09229443
vn 0.9356762 -0.2744374 0.2217977
vn 0.9356762 -0.2744374 0.2217977
vn 0.4220781 0.8440731 -0.3307426
vn 0.4220781 0.8440731 -0.3307426
vn 0.4220781 0.8440731 -0.3307426
vn 0.4220781 0.8440731 -0.3307426
vn 0.9312322 -0.3640912 -0.0156272
vn 0.9312322 -0.3640912 -0.0156272
vn 0.9312322 -0.3640911 -0.01562719
vn 0.9312322 -0.3640912 -0.0156272
vn 0.9116938 0.4064091 -0.06038206
vn 0.9116474 0.4065634 -0.0600423
vn 0.8699481 0.4788969 0.1176773
vn 0.8699481 0.4788969 0.1176773
vn -0.02859102 0.9315319 0.3625339
vn -0.02859103 0.9315319 0.3625339
vn -0.02859103 0.9315319 0.3625339
vn -0.02859103 0.9315319 0.362534
vn 0.002395944 -0.2442589 -0.9697071
vn 0.002395944 -0.2442589 -0.9697071
vn 0.002395944 -0.2442589 -0.9697071
vn 0.002395944 -0.2442589 -0.9697071
vn -0.9920922 -0.1145666 -0.05125807
vn -0.9920922 -0.1145666 -0.05125807
vn -0.9920922 -0.1145666 -0.05125807
vn -0.9920922 -0.1145666 -0.05125807
vn 0.9998971 0.01346293 0.004956571
vn 0.9998971 0.01346292 0.00495657
vn 0.9998971 0.01346293 0.004956571
vn 0.9998971 0.01346293 0.004956571
g SunTemple_combo401_piece_1_0
f 3/3/3 2/2/2 1/1/1
f 5/5/5 4/4/4 2/2/2
f 8/8/8 7/7/7 6/6/6
f 11/11/11 10/10/10 9/9/9
f 12/12/12 11/11/11 9/9/9
f 15/15/15 14/14/14 13/13/13
f 16/16/16 15/15/15 13/13/13
f 19/19/19 18/18/18 17/17/17
f 20/20/20 19/19/19 17/17/17
f 23/23/23 22/22/22 21/21/21
f 24/24/24 23/23/23 21/21/21
f 27/27/27 26/26/26 25/25/25
f 28/28/28 27/27/27 25/25/25
f 31/31/31 30/30/30 29/29/29
f 32/32/32 31/31/31 29/29/29
f 35/35/35 34/34/34 33/33/33
f 33/33/33 36/36/36 35/35/35
f 33/33/33 37/37/37 36/36/36
f 40/40/40 39/39/39 38/38/38
f 41/41/41 40/40/40 38/38/38
f 44/44/44 43/43/43 42/42/42
f 45/45/45 44/44/44 42/42/42
f 48/48/48 47/47/47 46/46/46
f 49/49/49 48/48/48 46/46/46
f 52/52/52 51/51/51 50/50/50
f 53/53/53 52/52/52 50/50/50
f 56/56/56 55/55/55 54/54/54
f 57/57/57 56/56/56 54/54/54
f 60/60/60 59/59/59 58/58/58
f 61/61/61 60/60/60 58/58/58
f 64/64/64 63/63/63 62/62/62
f 65/65/65 64/64/64 62/62/62
f 68/68/68 67/67/67 66/66/66
f 69/69/69 68/68/68 66/66/66
f 72/72/72 71/71/71 70/70/70
f 73/73/73 72/72/72 70/70/70
f 76/76/76 75/75/75 74/74/74
f 74/74/74 77/77/77 76/76/76
f 74/74/74 78/78/78 77/77/77
f 81/81/81 80/80/80 79/79/79
f 82/82/82 81/81/81 79/79/79
f 85/85/85 84/84/84 83/83/83
f 86/86/86 85/85/85 83/83/83
f 89/89/89 88/88/88 87/87/87
f 90/90/90 89/89/89 87/87/87
f 93/93/93 92/92/92 91/91/91
f 94/94/94 93/93/93 91/91/91
f 97/97/97 96/96/96 95/95/95
f 98/98/98 97/97/97 95/95/95
f 101/101/101 100/100/100 99/99/99
f 102/102/102 101/101/101 99/99/99
f 105/105/105 104/104/104 103/103/103
f 106/106/106 105/105/105 103/103/103
f 109/109/109 108/108/108 107/107/107
f 110/110/110 109/109/109 107/107/107
f 113/113/113 112/112/112 111/111/111
f 114/114/114 113/113/113 111/111/111
f 117/117/117 116/116/116 115/115/115
f 118/118/118 117/117/117 115/115/115
f 121/121/121 120/120/120 119/119/119
f 122/122/122 121/121/121 119/119/119
f 125/125/125 124/124/124 123/123/123
f 126/126/126 125/125/125 123/123/123
f 129/129/129 128/128/128 127/127/127
f 130/130/130 129/129/129 127/127/127
f 133/133/133 132/132/132 131/131/131
f 134/134/134 133/133/133 131/131/131
