g SunTemple_combo420_piece_3
v -0.1099708 -0.4543091 -12.0529
v 0.9871835 -0.4543091 -12.0529
v -0.08387545 0.4638013 -12.0529
v 10.98148 0.4967358 -7.166809
v 8.781391 0.4769653 -6.109583
v 10.81862 0.4571948 -7.577401
v -0.01174498 -0.4706104 -9.258372
v 1.082201 -0.4706104 -9.258372
v 0.9871835 -0.4543091 -12.0529
v -0.1099708 -0.4543091 -12.0529
v 11.07534 -0.4719458 1.995003
v 9.999467 -0.4729712 4.739806
v 12.25056 -0.4405102 5.37656
v 13.45217 -0.4394897 2.272884
v 10.83468 -0.471604 -1.045684
v 11.07534 -0.4719458 1.995003
v 13.45217 -0.4394897 2.272884
v 13.20951 -0.4391528 -1.549512
v 9.000381 -0.4760815 -6.00453
v 10.83468 -0.471604 -1.045684
v 13.20951 -0.4391528 -1.549512
v 10.81862 -0.4435815 -7.577401
v 9.999467 -0.4729712 4.739806
v 10.05447 3.943906 4.715827
v 12.25056 4.053864 5.37656
v 12.25056 -0.4405102 5.37656
v 13.45217 4.68883 2.272884
v 13.45217 -0.4394897 2.272884
v 12.25056 -0.4405102 5.37656
v 12.25056 4.053864 5.37656
v 13.20951 2.260154 -1.549512
v 13.20951 -0.4391528 -1.549512
v 13.37654 0.5305786 1.081669
v 13.45217 -0.4394897 2.272884
v 13.45217 4.68883 2.272884
v 10.81862 0.4571948 -7.577401
v 10.81862 -0.4435815 -7.577401
v 13.20951 -0.4391528 -1.549512
v 10.98148 0.4967358 -7.166809
v 13.20951 2.260154 -1.549512
v 12.42274 4.016423 -3.533102
v 10.81862 -0.4435815 -7.577401
v 10.81862 0.4571948 -7.577401
v 9.318149 0.5042309 -8.468176
v 9.324034 -0.4457105 -8.464682
v 10.81862 -0.4435815 -7.577401
v 9.324034 -0.4457105 -8.464682
v 7.863335 -0.4619604 -6.631026
v 9.000381 -0.4760815 -6.00453
v 0.9871835 -0.4543091 -12.0529
v 1.082201 -0.4706104 -9.258372
v 0.01253612 0.4638013 -9.254849
v -0.08387545 0.4638013 -12.0529
v -0.08387545 0.4638013 -12.0529
v 0.01253612 0.4638013 -9.254849
v -0.01174498 -0.4706104 -9.258372
v -0.1099708 -0.4543091 -12.0529
v 12.25056 4.053864 5.37656
v 10.05447 3.943906 4.715827
v 10.97263 4.68883 1.890542
v 13.45217 4.68883 2.272884
v 13.37654 0.5305786 1.081669
v 10.81296 0.5305786 1.244411
v 10.73383 2.260154 -0.9945996
v 13.20951 2.260154 -1.549512
v 13.45217 4.68883 2.272884
v 10.97263 4.68883 1.890542
v 10.81296 0.5305786 1.244411
v 13.37654 0.5305786 1.081669
v 12.42274 4.016423 -3.533102
v 10.03497 4.016423 -2.586017
v 8.781391 0.4769653 -6.109583
v 10.98148 0.4967358 -7.166809
v 13.20951 2.260154 -1.549512
v 10.73383 2.260154 -0.9945996
v 10.03497 4.016423 -2.586017
v 12.42274 4.016423 -3.533102
v 9.318149 0.5042309 -8.468176
v 8.006846 0.5042309 -6.259343
v 7.863335 -0.4619604 -6.631026
v 9.324034 -0.4457105 -8.464682
v 10.81862 0.4571948 -7.577401
v 8.781391 0.4769653 -6.109583
v 8.006846 0.5042309 -6.259343
v 9.318149 0.5042309 -8.468176
vt 0.273098 0.9711204
vt 0.2834779 0.9711661
vt 0.2733858 0.9618407
vt 0.3194633 0.8605171
vt 0.3263118 0.8742141
vt 0.3331603 0.8605171
vt 0.2739071 0.9972597
vt 0.2866744 0.9973161
vt 0.2834779 0.9711661
vt 0.273098 0.9711204
vt 0.487444 0.9949072
vt 0.5194618 0.9983687
vt 0.5209587 0.9730088
vt 0.4883396 0.9714683
vt 0.4510797 0.9963523
vt 0.487444 0.9949072
vt 0.4883396 0.9714683
vt 0.4518388 0.9719781
vt 0.3893667 0.9944601
vt 0.4510797 0.9963523
vt 0.4518388 0.9719781
vt 0.389616 0.9714543
vt 0.5447683 0.9726229
vt 0.5449608 0.9289273
vt 0.5211646 0.9262429
vt 0.5209587 0.9730088
vt 0.4885647 0.9203605
vt 0.4883396 0.9714683
vt 0.5209587 0.9730088
vt 0.5211646 0.9262429
vt 0.4519599 0.9445001
vt 0.4518388 0.9719781
vt 0.4770078 0.9617808
vt 0.4883396 0.9714683
vt 0.4885647 0.9203605
vt 0.389656 0.9623689
vt 0.389616 0.9714543
vt 0.4518388 0.9719781
vt 0.3938962 0.9619994
vt 0.4519599 0.9445001
vt 0.4315631 0.9264624
vt 0.389616 0.9714543
vt 0.389656 0.9623689
vt 0.3728503 0.961821
vt 0.372874 0.971416
vt 0.389616 0.9714543
vt 0.372874 0.971416
vt 0.374201 0.9950453
vt 0.3893667 0.9944601
vt 0.3194633 0.8605171
vt 0.3194633 0.8742141
vt 0.3331603 0.8742141
vt 0.3331603 0.8605171
vt 0.3194633 0.8605171
vt 0.3194633 0.8742141
vt 0.3331603 0.8742141
vt 0.3331603 0.8605171
vt 0.3194633 0.8605171
vt 0.3194633 0.8742141
vt 0.3331603 0.8742141
vt 0.3331603 0.8605171
vt 0.3194633 0.8605171
vt 0.3194633 0.8742141
vt 0.3331603 0.8742141
vt 0.3331603 0.8605171
vt 0.3194633 0.8605171
vt 0.3194633 0.8742141
vt 0.3331603 0.8742141
vt 0.3331603 0.8605171
vt 0.3194633 0.8605171
vt 0.3194633 0.8742141
vt 0.3331603 0.8742141
vt 0.3331603 0.8605171
vt 0.3194633 0.8605171
vt 0.3194633 0.8742141
vt 0.3331603 0.8742141
vt 0.3331603 0.8605171
vt 0.3194633 0.8605171
vt 0.3194633 0.8742141
vt 0.3331603 0.8742141
vt 0.3331603 0.8605171
vt 0.3194633 0.8605171
vt 0.3194633 0.8742141
vt 0.3331603 0.8742141
vt 0.3331603 0.8605171
vn 0 0 -1
vn 0 0 -1
vn 0 0 -1
vn -0.2669461 0.7518886 -0.6028293
vn -0.2736535 0.7361327 -0.6190496
vn -0.04622658 0.9959144 -0.07757373
vn 0 -0.9999831 -0.005833185
vn 0 -0.9999831 -0.005833186
vn 0 -0.9999831 -0.005833185
vn 0 -0.9999831 -0.005833186
vn 0.01308777 -0.9999031 0.004746778
vn 0.01308777 -0.9999031 0.004746777
vn 0.01308777 -0.9999031 0.004746778
vn 0.01308777 -0.9999031 0.004746777
vn 0.01360837 -0.9999069 -0.001057205
vn 0.01360836 -0.9999069 -0.001057205
vn 0.01360836 -0.9999069 -0.001057205
vn 0.01360836 -0.9999069 -0.001057205
vn 0.01334774 -0.9999015 -0.004322613
vn 0.01334774 -0.9999015 -0.004322613
vn 0.01334774 -0.9999015 -0.004322613
vn 0.01334774 -0.9999015 -0.004322613
vn -0.2802032 0.004312576 0.9599311
vn -0.2802031 0.004312577 0.9599311
vn -0.2802031 0.004312576 0.9599311
vn -0.2802032 0.004312576 0.9599311
vn 0.9325491 -1.281861E-07 0.3610431
vn 0.9325491 -1.281861E-07 0.3610432
vn 0.9325491 -1.281861E-07 0.3610431
vn 0.9325491 -1.281861E-07 0.3610431
vn 0.9979911 3.686676E-07 -0.06335465
vn 0.9979911 3.686676E-07 -0.06335465
vn 0.9979911 3.686676E-07 -0.06335465
vn 0.9979911 3.686676E-07 -0.06335465
vn 0.9979911 3.686676E-07 -0.06335465
vn 0.9295503 0 -0.3686953
vn 0.9295503 0 -0.3686953
vn 0.9295503 0 -0.3686952
vn 0.9295503 0 -0.3686953
vn 0.9295503 0 -0.3686953
vn 0.9295503 0 -0.3686953
vn 0.5104831 0 -0.8598878
vn 0.5104831 0 -0.8598878
vn 0.5104831 0 -0.8598878
vn 0.5104831 0 -0.8598878
vn 0.002365145 -0.9999248 -0.01203313
vn 0.002365145 -0.9999248 -0.01203314
vn 0.002365145 -0.9999248 -0.01203314
vn 0.002365145 -0.9999248 -0.01203313
vn 0.6542188 0.7560359 -0.02018969
vn 0.6542188 0.7560359 -0.02018969
vn 0.6542188 0.7560359 -0.02018969
vn 0.6542188 0.7560358 -0.02018969
vn -0.9990251 0.02710067 0.03484793
vn -0.9990251 0.02710067 0.03484793
vn -0.9990251 0.02710067 0.03484793
vn -0.9990251 0.02710066 0.03484792
vn -0.0682456 0.97681 0.2029402
vn -0.0682456 0.97681 0.2029402
vn -0.0682456 0.97681 0.2029402
vn -0.0682456 0.97681 0.2029402
vn 0.08179833 0.8144941 0.5743763
vn 0.08179832 0.8144941 0.5743763
vn 0.1365975 0.7817921 0.6083932
vn 0.136985 0.7815447 0.6086239
vn 0.04249192 0.2143843 -0.9758247
vn 0.04249192 0.2143843 -0.9758246
vn 0.04249192 0.2143843 -0.9758246
vn 0.04249193 0.2143843 -0.9758246
vn -0.2744174 0.7342889 -0.6208984
vn -0.2744174 0.7342889 -0.6208984
vn -0.2736535 0.7361327 -0.6190496
vn -0.2669461 0.7518886 -0.6028293
vn 0.136985 0.7815447 0.6086239
vn 0.1365975 0.7817921 0.6083932
vn 0.1987631 0.7391073 0.6435943
vn 0.1987632 0.7391073 0.6435943
vn -0.8136616 0.1655233 -0.5572762
vn -0.8136617 0.1655233 -0.5572762
vn -0.8136617 0.1655233 -0.5572762
vn -0.8136617 0.1655233 -0.5572762
vn 0.02478075 0.999545 0.01719438
vn 0.02478075 0.999545 0.01719438
vn 0.02478075 0.999545 0.01719438
vn 0.02478075 0.999545 0.01719438
g SunTemple_combo420_piece_3_0
f 3/3/3 2/2/2 1/1/1
f 6/6/6 5/5/5 4/4/4
f 9/9/9 8/8/8 7/7/7
f 10/10/10 9/9/9 7/7/7
f 13/13/13 12/12/12 11/11/11
f 14/14/14 13/13/13 11/11/11
f 17/17/17 16/16/16 15/15/15
f 18/18/18 17/17/17 15/15/15
f 21/21/21 20/20/20 19/19/19
f 22/22/22 21/21/21 19/19/19
f 25/25/25 24/24/24 23/23/23
f 26/26/26 25/25/25 23/23/23
f 29/29/29 28/28/28 27/27/27
f 30/30/30 29/29/29 27/27/27
f 33/33/33 32/32/32 31/31/31
f 34/34/34 32/32/32 33/33/33
f 33/33/33 35/35/35 34/34/34
f 38/38/38 37/37/37 36/36/36
f 36/36/36 39/39/39 38/38/38
f 39/39/39 40/40/40 38/38/38
f 39/39/39 41/41/41 40/40/40
f 44/44/44 43/43/43 42/42/42
f 45/45/45 44/44/44 42/42/42
f 48/48/48 47/47/47 46/46/46
f 49/49/49 48/48/48 46/46/46
f 52/52/52 51/51/51 50/50/50
f 53/53/53 52/52/52 50/50/50
f 56/56/56 55/55/55 54/54/54
f 57/57/57 56/56/56 54/54/54
f 60/60/60 59/59/59 58/58/58
f 61/61/61 60/60/60 58/58/58
f 64/64/64 63/63/63 62/62/62
f 65/65/65 64/64/64 62/62/62
f 68/68/68 67/67/67 66/66/66
f 69/69/69 68/68/68 66/66/66
f 72/72/72 71/71/71 70/70/70
f 73/73/73 72/72/72 70/70/70
f 76/76/76 75/75/75 74/74/74
f 77/77/77 76/76/76 74/74/74
f 80/80/80 79/79/79 78/78/78
f 81/81/81 80/80/80 78/78/78
f 84/84/84 83/83/83 82/82/82
f 85/85/85 84/84/84 82/82/82
