g SunTemple_combo401_piece_2
v -1.643115 7.722358 10.22655
v 1.677606 7.722373 10.29455
v 1.64773 6.267095 10.78627
v -0.3616858 0.1225635 10.65298
v -0.1965815 -0.1079175 10.65453
v -0.1899224 -0.04381592 9.650567
v -0.2984457 0.1107593 9.641568
v 1.628613 11.39946 8.331264
v -0.1921863 11.38263 8.296025
v -0.1924573 13.72288 1.566274
v 1.628607 13.72491 1.593331
v 1.677606 7.722373 10.29455
v -1.643115 7.722358 10.22655
v -0.1921863 11.38263 8.296025
v 1.628613 11.39946 8.331264
v 1.628607 5.335581 11.10102
v 1.567442 2.354866 10.67113
v -0.1965815 -0.1079175 10.65453
v -0.3616858 0.1225635 10.65298
v 1.678484 6.826247 -10.426
v 1.630019 4.669981 -11.09964
v 1.627374 4.548892 -10.11982
v 1.684159 6.431013 -9.50527
v 1.628607 13.72491 1.593331
v 1.628613 13.09121 -4.165576
v 1.65464 12.1693 -3.827795
v 1.640309 12.75156 1.495808
v 1.628613 11.39946 8.331264
v 1.628607 13.72491 1.593331
v 1.640309 12.75156 1.495808
v 1.635679 10.6869 7.72265
v 1.628613 13.09121 -4.165576
v 1.628607 10.20419 -8.671127
v 1.651675 9.541801 -7.958371
v 1.65464 12.1693 -3.827795
v 1.64773 6.267095 10.78627
v 1.677606 7.722373 10.29455
v 1.686658 7.323445 9.374784
v 1.661044 5.910278 9.809468
v 1.677606 7.722373 10.29455
v 1.628613 11.39946 8.331264
v 1.635679 10.6869 7.72265
v 1.686658 7.323445 9.374784
v 1.628607 10.20419 -8.671127
v 1.678484 6.826247 -10.426
v 1.684159 6.431013 -9.50527
v 1.651675 9.541801 -7.958371
v 1.630019 4.669981 -11.09964
v 1.692518 -0.5767187 -10.74088
v 1.688451 -0.5059277 -9.737341
v 1.627374 4.548892 -10.11982
v 1.567442 2.354866 10.67113
v 1.628607 5.335581 11.10102
v 1.634452 5.207883 10.13
v 1.574103 2.41896 9.667163
v -0.1899224 -0.04381592 9.650567
v -0.1965815 -0.1079175 10.65453
v 1.567442 2.354866 10.67113
v 1.574103 2.41896 9.667163
v 2.349506 21.10998 0.9421095
v 2.366022 20.9064 2.759317
v -0.3831762 21.22715 2.777525
v -0.3745243 21.42185 0.9591709
v -0.2648361 11.11532 1.644024
v -0.3831762 21.22715 2.777525
v 2.366022 20.9064 2.759317
v 1.410829 11.00782 1.644259
v -0.257741 11.61166 -0.05794352
v 1.387804 11.50593 -0.05773113
v 2.349506 21.10998 0.9421095
v -0.3745243 21.42185 0.9591709
v 1.628613 13.09121 -4.165576
v 1.628607 13.72491 1.593331
v -0.1924573 13.72288 1.566274
v 0.5150594 13.00385 -4.146713
v 1.628613 13.09121 -4.165576
v 0.5150594 13.00385 -4.146713
v -1.532757 9.964448 -8.644464
v 1.628607 10.20419 -8.671127
v 1.103327 6.808911 -10.42829
v 1.678484 6.826247 -10.426
v 1.628607 10.20419 -8.671127
v -1.532757 9.964448 -8.644464
v 1.630019 4.669981 -11.09964
v 1.678484 6.826247 -10.426
v 1.103327 6.808911 -10.42829
v -1.644189 4.66707 -11.13871
v -2.03038 5.404231 -10.89007
v 0.5001335 -0.5772168 -10.74747
v 1.692518 -0.5767187 -10.74088
v 1.630019 4.669981 -11.09964
v -1.644189 4.66707 -11.13871
v 1.692518 -0.5767187 -10.74088
v 0.5001335 -0.5772168 -10.74747
v 0.5053349 -0.5032398 -9.69652
v 1.688451 -0.5059277 -9.737341
v -0.3616858 0.1225635 10.65298
v -0.2984457 0.1107593 9.641568
v 1.634452 5.207883 10.13
v 1.628607 5.335581 11.10102
v -0.1921863 11.38263 8.296025
v -0.1759793 10.60271 7.630112
v -0.170867 12.65725 1.456114
v -0.1924573 13.72288 1.566274
v -1.643115 7.722358 10.22655
v -1.622006 7.285984 9.220078
v -0.1759793 10.60271 7.630112
v -0.1921863 11.38263 8.296025
v 1.64773 6.267095 10.78627
v 1.661044 5.910278 9.809468
v -1.622006 7.285984 9.220078
v -1.643115 7.722358 10.22655
v -0.1924573 13.72288 1.566274
v -0.170867 12.65725 1.456114
v 0.5692399 11.99519 -3.780697
v 0.5150594 13.00385 -4.146713
v 0.5150594 13.00385 -4.146713
v 0.5692399 11.99519 -3.780697
v -1.472512 9.244775 -7.862619
v -1.532757 9.964448 -8.644464
v -1.532757 9.964448 -8.644464
v -1.472512 9.244775 -7.862619
v 1.123176 6.38436 -9.417538
v 1.103327 6.808911 -10.42829
v 1.103327 6.808911 -10.42829
v 1.123176 6.38436 -9.417538
v -2.031718 5.060793 -9.844062
v -2.03038 5.404231 -10.89007
v -2.03038 5.404231 -10.89007
v -2.031718 5.060793 -9.844062
v -1.649343 4.530034 -10.06787
v -1.644189 4.66707 -11.13871
v -1.644189 4.66707 -11.13871
v -1.649343 4.530034 -10.06787
v 0.5053349 -0.5032398 -9.69652
v 0.5001335 -0.5772168 -10.74747
v -0.2648361 11.11532 1.644024
v -0.257741 11.61166 -0.05794352
v -0.3745243 21.42185 0.9591709
v -0.3831762 21.22715 2.777525
v 2.366022 20.9064 2.759317
v 2.349506 21.10998 0.9421095
v 1.387804 11.50593 -0.05773113
v 1.410829 11.00782 1.644259
vt 0.2976968 0.09417224
vt 0.2961079 0.04426861
vt 0.2741901 0.04552096
vt 0.1846492 0.07800129
vt 0.1811416 0.07571357
vt 0.1743769 0.08983803
vt 0.1768341 0.09129575
vt 0.3563056 0.04405701
vt 0.356997 0.07101396
vt 0.4608868 0.06985253
vt 0.4602298 0.04272044
vt 0.2961079 0.04426861
vt 0.2976968 0.09417224
vt 0.356997 0.07101396
vt 0.3563056 0.04405701
vt 0.2601606 0.04632258
vt 0.217092 0.04905361
vt 0.1811416 0.07571357
vt 0.1846492 0.07800129
vt 0.6774875 0.04405856
vt 0.7100034 0.04617453
vt 0.7105227 0.03179193
vt 0.678201 0.02912331
vt 0.4602298 0.04272044
vt 0.5446286 0.04197276
vt 0.5445225 0.0277859
vt 0.4597842 0.02846706
vt 0.3563056 0.04405701
vt 0.4602298 0.04272044
vt 0.4597842 0.02846706
vt 0.3563505 0.0311898
vt 0.5446286 0.04197276
vt 0.6222988 0.04315472
vt 0.6224939 0.029257
vt 0.5445225 0.0277859
vt 0.2741901 0.04552096
vt 0.2961079 0.04426861
vt 0.2956906 0.02918786
vt 0.2707876 0.03128736
vt 0.2961079 0.04426861
vt 0.3563056 0.04405701
vt 0.3563505 0.0311898
vt 0.2956906 0.02918786
vt 0.6222988 0.04315472
vt 0.6774875 0.04405856
vt 0.678201 0.02912331
vt 0.6224939 0.029257
vt 0.7100034 0.04617453
vt 0.7877718 0.0476281
vt 0.787535 0.03236145
vt 0.7105227 0.03179193
vt 0.217092 0.04905361
vt 0.2601606 0.04632258
vt 0.2584866 0.03232443
vt 0.2123888 0.03561103
vt 0.173483 0.06206125
vt 0.1811416 0.07571357
vt 0.217092 0.04905361
vt 0.2123888 0.03561103
vt 0.4364113 0.8376762
vt 0.4399034 0.8769968
vt 0.4710312 0.8740625
vt 0.4718714 0.8343137
vt 0.5137024 0.8542061
vt 0.6269467 0.8822384
vt 0.6310549 0.8512437
vt 0.517729 0.8320767
vt 0.5137024 0.8542061
vt 0.517729 0.8320767
vt 0.6310549 0.8512437
vt 0.6269467 0.8822384
vt 0.5446286 0.04197276
vt 0.4602298 0.04272044
vt 0.4608868 0.06985253
vt 0.5447593 0.05861932
vt 0.5446286 0.04197276
vt 0.5447593 0.05861932
vt 0.6234357 0.09019731
vt 0.6222988 0.04315472
vt 0.6774349 0.05266786
vt 0.6774875 0.04405856
vt 0.6222988 0.04315472
vt 0.6234357 0.09019731
vt 0.7100034 0.04617453
vt 0.6774875 0.04405856
vt 0.6774349 0.05266786
vt 0.7084084 0.09465345
vt 0.6970286 0.1000864
vt 0.7871574 0.06546543
vt 0.7877718 0.0476281
vt 0.7100034 0.04617453
vt 0.7084084 0.09465345
vt 0.7877718 0.0476281
vt 0.7871574 0.06546543
vt 0.8022296 0.06562284
vt 0.8028277 0.04826283
vt 0.3194633 0.8605171
vt 0.3194633 0.8742142
vt 0.3331603 0.8742142
vt 0.3331603 0.8605171
vt 0.3194633 0.8605171
vt 0.3194633 0.8742142
vt 0.3331603 0.8742142
vt 0.3331603 0.8605171
vt 0.3194633 0.8605171
vt 0.3194633 0.8742142
vt 0.3331603 0.8742142
vt 0.3331603 0.8605171
vt 0.3194633 0.8605171
vt 0.3194633 0.8742142
vt 0.3331603 0.8742142
vt 0.3331603 0.8605171
vt 0.3194633 0.8605171
vt 0.3194633 0.8742142
vt 0.3331603 0.8742142
vt 0.3331603 0.8605171
vt 0.3194633 0.8605171
vt 0.3194633 0.8742142
vt 0.3331603 0.8742142
vt 0.3331603 0.8605171
vt 0.3194633 0.8605171
vt 0.3194633 0.8742142
vt 0.3331603 0.8742142
vt 0.3331603 0.8605171
vt 0.3194633 0.8605171
vt 0.3194633 0.8742142
vt 0.3331603 0.8742142
vt 0.3331603 0.8605171
vt 0.3194633 0.8605171
vt 0.3194633 0.8742142
vt 0.3331603 0.8742142
vt 0.3331603 0.8605171
vt 0.3194633 0.8605171
vt 0.3194633 0.8742142
vt 0.3331603 0.8742142
vt 0.3331603 0.8605171
vt 0.3194633 0.8605171
vt 0.3194633 0.8742142
vt 0.3331603 0.8742142
vt 0.3331603 0.8605171
vt 0.3194633 0.8605171
vt 0.3194633 0.8742142
vt 0.3331603 0.8742142
vt 0.3331603 0.8605171
vn -0.01939505 0.3204036 0.9470825
vn -0.01939505 0.3204036 0.9470826
vn -0.01939505 0.3204035 0.9470826
vn -0.8138218 -0.5795019 -0.04326349
vn -0.8138217 -0.5795019 -0.04326349
vn -0.8138217 -0.5795019 -0.04326349
vn -0.8138217 -0.579502 -0.0432635
vn -0.01049156 0.9448513 0.3273316
vn -0.01049156 0.9448513 0.3273315
vn -0.01049156 0.9448513 0.3273316
vn -0.01049156 0.9448513 0.3273316
vn -0.01924811 0.4715452 0.8816319
vn -0.01924811 0.4715452 0.8816317
vn -0.01924811 0.4715452 0.8816319
vn -0.01924811 0.4715452 0.8816319
vn 0.1372557 -0.1266011 0.9824118
vn 0.1372558 -0.1266011 0.9824118
vn 0.1372558 -0.1266011 0.9824118
vn 0.1372558 -0.1266011 0.9824118
vn 0.9996917 -0.02350903 -0.007980539
vn 0.9996917 -0.02350904 -0.00798054
vn 0.9996917 -0.02350904 -0.00798054
vn 0.9996917 -0.02350903 -0.007980539
vn 0.9998037 0.01979213 -0.0008781385
vn 0.9998037 0.01979213 -0.0008781384
vn 0.9998037 0.01979213 -0.0008781384
vn 0.9998037 0.01979213 -0.0008781384
vn 0.9999472 0.009618493 0.003613651
vn 0.9999472 0.009618494 0.00361365
vn 0.9999472 0.009618494 0.003613651
vn 0.9999472 0.009618493 0.00361365
vn 0.9996667 0.02160314 -0.01413842
vn 0.9996667 0.02160314 -0.01413841
vn 0.9996667 0.02160314 -0.01413841
vn 0.9996667 0.02160314 -0.01413841
vn 0.9997562 -0.01376142 0.01727328
vn 0.9997562 -0.01376142 0.01727328
vn 0.9997562 -0.01376142 0.01727328
vn 0.9997562 -0.01376142 0.01727328
vn 0.9998981 0.01428008 0.0001597317
vn 0.9998981 0.01428008 0.0001597317
vn 0.9998981 0.01428008 0.0001597317
vn 0.9998981 0.01428008 0.0001597317
vn 0.9998426 0.0162799 -0.007052817
vn 0.9998426 0.0162799 -0.007052817
vn 0.9998426 0.0162799 -0.007052817
vn 0.9998426 0.0162799 -0.007052817
vn 0.999918 0.01226083 0.003694515
vn 0.999918 0.01226083 0.003694516
vn 0.999918 0.01226083 0.003694516
vn 0.999918 0.01226083 0.003694516
vn 0.9997299 -0.02214505 0.007043973
vn 0.9997299 -0.02214505 0.007043972
vn 0.9997299 -0.02214505 0.007043972
vn 0.9997299 -0.02214505 0.007043972
vn 0.8126593 -0.5818731 -0.03175858
vn 0.8126593 -0.581873 -0.03175858
vn 0.8126593 -0.581873 -0.03175858
vn 0.8126593 -0.5818731 -0.03175858
vn 0.03220224 0.32695 -0.9444928
vn 0.01811864 0.1036229 0.9944516
vn 0.02083198 0.1272412 0.991653
vn 0.03430397 0.344794 -0.9380513
vn -0.006743763 -0.1113857 0.9937544
vn 0.02083198 0.1272412 0.991653
vn 0.01811864 0.1036229 0.9944516
vn -0.006743764 -0.1113857 0.9937544
vn 0.006015334 0.1030735 -0.9946556
vn 0.006015336 0.1030735 -0.9946556
vn 0.03220224 0.32695 -0.9444928
vn 0.03430397 0.344794 -0.9380513
vn -0.02989718 0.9924595 -0.1188713
vn -0.02989718 0.9924595 -0.1188713
vn -0.02989718 0.9924595 -0.1188713
vn -0.02989718 0.9924595 -0.1188713
vn -0.07003266 0.8404716 -0.537311
vn -0.07003266 0.8404715 -0.537311
vn -0.07003266 0.8404715 -0.537311
vn -0.07003266 0.8404716 -0.537311
vn -0.03768989 0.4638918 -0.8850898
vn -0.03768989 0.4638918 -0.8850898
vn -0.03768991 0.4638918 -0.8850898
vn -0.0376899 0.4638918 -0.8850898
vn 0.005665192 0.3057516 -0.9520944
vn 0.005665191 0.3057515 -0.9520944
vn 0.005665193 0.3057516 -0.9520944
vn 0.005665192 0.3057516 -0.9520944
vn 0.005665192 0.3057515 -0.9520944
vn 0.01024917 -0.06915911 -0.9975531
vn 0.01024917 -0.0691591 -0.9975531
vn 0.01024917 -0.0691591 -0.9975531
vn 0.01024917 -0.06915911 -0.9975531
vn 9.339663E-05 -0.9975266 0.07028993
vn 9.339662E-05 -0.9975266 0.07028993
vn 9.339664E-05 -0.9975266 0.07028994
vn 9.339663E-05 -0.9975266 0.07028993
vn -0.9313073 0.3596253 -0.05776173
vn -0.9313072 0.3596253 -0.05776173
vn -0.9313073 0.3596253 -0.05776173
vn -0.9313073 0.3596253 -0.05776172
vn -0.9909099 0.09834034 -0.0917969
vn -0.9911487 0.0969025 -0.09074229
vn -0.9975681 -0.03345663 -0.06114249
vn -0.997577 -0.03342097 -0.06101788
vn -0.9351079 0.276335 -0.2218383
vn -0.9351079 0.276335 -0.2218383
vn -0.9911487 0.0969025 -0.09074229
vn -0.9909099 0.09834034 -0.0917969
vn -0.4214393 -0.8445111 0.3304389
vn -0.4214393 -0.8445111 0.330439
vn -0.4214393 -0.8445112 0.3304389
vn -0.4214393 -0.8445112 0.3304389
vn -0.997577 -0.03342097 -0.06101788
vn -0.9975681 -0.03345663 -0.06114249
vn -0.9926685 0.05577644 0.1072296
vn -0.9925694 0.05611718 0.1079667
vn -0.9925694 0.05611718 0.1079667
vn -0.9926685 0.05577644 0.1072296
vn -0.9286838 0.1605517 0.3343194
vn -0.9286838 0.1605517 0.3343194
vn -0.7959896 -0.5257313 -0.3000118
vn -0.7959896 -0.5257314 -0.3000118
vn -0.7959896 -0.5257314 -0.3000118
vn -0.7959896 -0.5257313 -0.3000118
vn -0.4147229 0.8512295 0.3215794
vn -0.4147229 0.8512294 0.3215795
vn -0.4147229 0.8512294 0.3215795
vn -0.4147229 0.8512294 0.3215795
vn -0.867761 -0.4840731 -0.1125345
vn -0.867761 -0.4840732 -0.1125345
vn -0.916408 -0.3995031 -0.02436549
vn -0.9165197 -0.3992615 -0.02412295
vn -0.9165197 -0.3992615 -0.02412295
vn -0.916408 -0.3995031 -0.02436549
vn -0.9221805 -0.3865897 -0.01146903
vn -0.9221805 -0.3865897 -0.01146903
vn -0.9999164 -0.01108349 -0.006648468
vn -0.9999164 -0.01108349 -0.006648468
vn -0.9999164 -0.01108349 -0.006648468
vn -0.9999164 -0.01108349 -0.006648469
vn 0.9950672 -0.09454753 -0.03003194
vn 0.9950672 -0.09454753 -0.03003193
vn 0.9950672 -0.09454754 -0.03003194
vn 0.9950672 -0.09454753 -0.03003193
g SunTemple_combo401_piece_2_0
f 3/3/3 2/2/2 1/1/1
f 6/6/6 5/5/5 4/4/4
f 7/7/7 6/6/6 4/4/4
f 10/10/10 9/9/9 8/8/8
f 11/11/11 10/10/10 8/8/8
f 14/14/14 13/13/13 12/12/12
f 15/15/15 14/14/14 12/12/12
f 18/18/18 17/17/17 16/16/16
f 19/19/19 18/18/18 16/16/16
f 22/22/22 21/21/21 20/20/20
f 23/23/23 22/22/22 20/20/20
f 26/26/26 25/25/25 24/24/24
f 27/27/27 26/26/26 24/24/24
f 30/30/30 29/29/29 28/28/28
f 31/31/31 30/30/30 28/28/28
f 34/34/34 33/33/33 32/32/32
f 35/35/35 34/34/34 32/32/32
f 38/38/38 37/37/37 36/36/36
f 39/39/39 38/38/38 36/36/36
f 42/42/42 41/41/41 40/40/40
f 43/43/43 42/42/42 40/40/40
f 46/46/46 45/45/45 44/44/44
f 47/47/47 46/46/46 44/44/44
f 50/50/50 49/49/49 48/48/48
f 51/51/51 50/50/50 48/48/48
f 54/54/54 53/53/53 52/52/52
f 55/55/55 54/54/54 52/52/52
f 58/58/58 57/57/57 56/56/56
f 59/59/59 58/58/58 56/56/56
f 62/62/62 61/61/61 60/60/60
f 63/63/63 62/62/62 60/60/60
f 66/66/66 65/65/65 64/64/64
f 67/67/67 66/66/66 64/64/64
f 70/70/70 69/69/69 68/68/68
f 71/71/71 70/70/70 68/68/68
f 74/74/74 73/73/73 72/72/72
f 75/75/75 74/74/74 72/72/72
f 78/78/78 77/77/77 76/76/76
f 79/79/79 78/78/78 76/76/76
f 82/82/82 81/81/81 80/80/80
f 83/83/83 82/82/82 80/80/80
f 86/86/86 85/85/85 84/84/84
f 84/84/84 87/87/87 86/86/86
f 87/87/87 88/88/88 86/86/86
f 91/91/91 90/90/90 89/89/89
f 92/92/92 91/91/91 89/89/89
f 95/95/95 94/94/94 93/93/93
f 96/96/96 95/95/95 93/93/93
f 99/99/99 98/98/98 97/97/97
f 100/100/100 99/99/99 97/97/97
f 103/103/103 102/102/102 101/101/101
f 104/104/104 103/103/103 101/101/101
f 107/107/107 106/106/106 105/105/105
f 108/108/108 107/107/107 105/105/105
f 111/111/111 110/110/110 109/109/109
f 112/112/112 111/111/111 109/109/109
f 115/115/115 114/114/114 113/113/113
f 116/116/116 115/115/115 113/113/113
f 119/119/119 118/118/118 117/117/117
f 120/120/120 119/119/119 117/117/117
f 123/123/123 122/122/122 121/121/121
f 124/124/124 123/123/123 121/121/121
f 127/127/127 126/126/126 125/125/125
f 128/128/128 127/127/127 125/125/125
f 131/131/131 130/130/130 129/129/129
f 132/132/132 131/131/131 129/129/129
f 135/135/135 134/134/134 133/133/133
f 136/136/136 135/135/135 133/133/133
f 139/139/139 138/138/138 137/137/137
f 140/140/140 139/139/139 137/137/137
f 143/143/143 142/142/142 141/141/141
f 144/144/144 143/143/143 141/141/141
