g SunTemple_combo420_piece_2
v 10.81862 0.4571948 -7.577401
v 8.696143 0.4769653 -6.228223
v 10.98148 0.4967358 -7.166809
v -0.75873 5.881159 -12.0529
v 3.279832 5.881159 -12.0529
v 3.279824 5.913762 -9.261895
v -0.954022 5.913762 -9.261895
v 3.279832 -0.4543091 -12.0529
v 9.324034 -0.4457105 -8.464682
v 9.318149 0.5042309 -8.468176
v 3.279832 5.881159 -12.0529
v 10.81862 5.870432 -7.577401
v 10.81862 0.4571948 -7.577401
v 10.81862 5.870432 -7.577401
v 10.81862 0.4571948 -7.577401
v 10.98148 0.4967358 -7.166809
v 12.42274 4.016423 -3.533102
v 13.20951 5.866004 -1.549512
v 13.20951 2.260154 -1.549512
v 0.9871835 -0.4543091 -12.0529
v 3.279832 -0.4543091 -12.0529
v 3.279832 5.881159 -12.0529
v -0.75873 5.881159 -12.0529
v -0.08387545 0.4638013 -12.0529
v -1.663393 4.896096 -12.0529
v 13.20951 2.260154 -1.549512
v 13.37654 0.5305786 1.081669
v 13.45217 4.68883 2.272884
v 13.20951 5.866004 -1.549512
v 13.45217 5.86634 2.272884
v 13.45217 5.86634 2.272884
v 13.45217 4.68883 2.272884
v 12.25056 4.053864 5.37656
v 12.25056 5.867356 5.37656
v 0.9647867 -0.4706104 -9.626191
v 3.279824 -0.4869116 -9.261895
v 3.279832 -0.4543091 -12.0529
v 0.9871835 -0.4543091 -12.0529
v 10.81862 5.870432 -7.577401
v 9.00038 5.902927 -6.00453
v 3.279824 5.913762 -9.261895
v 3.279832 5.881159 -12.0529
v 10.83468 5.898449 -1.045684
v 9.00038 5.902927 -6.00453
v 10.81862 5.870432 -7.577401
v 13.20951 5.866004 -1.549512
v 11.07534 5.898791 1.995003
v 10.83468 5.898449 -1.045684
v 13.20951 5.866004 -1.549512
v 13.45217 5.86634 2.272884
v 9.999465 5.899822 4.739806
v 11.07534 5.898791 1.995003
v 13.45217 5.86634 2.272884
v 12.25056 5.867356 5.37656
v 9.947949 3.811345 4.693609
v 9.999465 5.899822 4.739806
v 12.25056 5.867356 5.37656
v 12.25056 4.053864 5.37656
v 9.324034 -0.4457105 -8.464682
v 3.279832 -0.4543091 -12.0529
v 3.279824 -0.4869116 -9.261895
v 8.052387 -0.4619629 -6.413061
v 2.947469 14.46029 1.749949
v 2.943332 12.07083 8.341379
v -1.470474E-16 12.07083 8.341379
v 2.064856E-16 14.46029 1.749949
v 2.943332 12.07083 8.341379
v 2.94365 9.057024 10.30158
v -1.134377 9.057029 10.30158
v -1.470474E-16 12.07083 8.341379
v 2.94365 9.057024 10.30158
v 2.944598 6.116155 10.89982
v 1.989182 6.116155 10.89982
v -1.134377 9.057029 10.30158
v 2.939501 6.057912 -11.27909
v 2.954631 6.043713 -8.995481
v 2.987101 9.115745 -7.000007
v 2.956667 10.74337 -8.235179
v 2.988304 11.5027 -3.255093
v 2.957856 13.5998 -3.77953
v 2.956667 10.74337 -8.235179
v 2.987101 9.115745 -7.000007
v 2.977811 12.2442 1.393461
v 2.947469 14.46029 1.749949
v 2.957856 13.5998 -3.77953
v 2.988304 11.5027 -3.255093
v 2.97363 10.28531 6.945258
v 2.943332 12.07083 8.341379
v 2.947469 14.46029 1.749949
v 2.977811 12.2442 1.393461
v 2.973951 7.829368 8.434905
v 2.94365 9.057024 10.30158
v 2.943332 12.07083 8.341379
v 2.97363 10.28531 6.945258
v 2.974908 5.220627 9.312665
v 2.944598 6.116155 10.89982
v 2.94365 9.057024 10.30158
v 2.973951 7.829368 8.434905
v 1.989182 6.116155 10.89982
v 2.944598 6.116155 10.89982
v 2.974908 5.220627 9.312665
v 1.593091 5.238733 9.433384
v 2.957856 13.5998 -3.77953
v 2.947469 14.46029 1.749949
v 2.064856E-16 14.46029 1.749949
v 0.5149273 13.5998 -3.77953
v 2.956667 10.74337 -8.235179
v 2.957856 13.5998 -3.77953
v 0.5149273 13.5998 -3.77953
v -1.347531 10.74337 -8.235177
v -1.125364 6.057912 -11.27909
v 2.939501 6.057912 -11.27909
v 0.5368389 7.710002 -9.9335
v -1.347531 10.74337 -8.235177
v 2.956667 10.74337 -8.235179
v -1.125364 6.057912 -11.27909
v -1.146898 5.264372 -10.16019
v 2.954631 6.043713 -8.995481
v 2.939501 6.057912 -11.27909
v -1.470474E-16 12.07083 8.341379
v -3.180675E-07 11.05092 7.531763
v -2.052393E-09 13.13627 1.62152
v 2.064856E-16 14.46029 1.749949
v -1.134377 9.057029 10.30158
v -1.134377 8.545774 9.053113
v -3.180675E-07 11.05092 7.531763
v -1.470474E-16 12.07083 8.341379
v 1.989182 6.116155 10.89982
v 1.593091 5.238733 9.433384
v -1.134377 8.545774 9.053113
v -1.134377 9.057029 10.30158
v 2.064856E-16 14.46029 1.749949
v -2.052393E-09 13.13627 1.62152
v 0.5149274 12.34326 -3.303367
v 0.5149273 13.5998 -3.77953
v 0.5149273 13.5998 -3.77953
v 0.5149274 12.34326 -3.303367
v -1.347734 9.829778 -7.265521
v -1.347531 10.74337 -8.235177
v 0.5368389 7.710002 -9.9335
v 0.5151023 6.954206 -8.791841
v -1.146898 5.264372 -10.16019
v -1.125364 6.057912 -11.27909
v -1.347531 10.74337 -8.235177
v -1.347734 9.829778 -7.265521
v 0.5151023 6.954206 -8.791841
v 0.5368389 7.710002 -9.9335
v 13.45217 4.68883 2.272884
v 11.12121 4.68883 1.913452
v 9.947949 3.811345 4.693609
v 12.25056 4.053864 5.37656
v 13.37654 0.5305786 1.081669
v 10.96657 0.5305786 1.234659
v 11.12121 4.68883 1.913452
v 13.45217 4.68883 2.272884
v 13.20951 2.260154 -1.549512
v 10.88218 2.260154 -1.027851
v 10.96657 0.5305786 1.234659
v 13.37654 0.5305786 1.081669
v 12.42274 4.016423 -3.533102
v 10.17805 4.016423 -2.642769
v 10.88218 2.260154 -1.027851
v 13.20951 2.260154 -1.549512
v 10.98148 0.4967358 -7.166809
v 8.696143 0.4769653 -6.228223
v 10.17805 4.016423 -2.642769
v 12.42274 4.016423 -3.533102
v 9.318149 0.5042309 -8.468176
v 8.085424 0.5042309 -6.3917
v 8.696143 0.4769653 -6.228223
v 10.81862 0.4571948 -7.577401
v 9.324034 -0.4457105 -8.464682
v 8.052387 -0.4619629 -6.413061
v 8.085424 0.5042309 -6.3917
v 9.318149 0.5042309 -8.468176
v -0.08387545 0.4638013 -12.0529
v -0.08387545 0.4638013 -9.638074
v 0.9647867 -0.4706104 -9.626191
v 0.9871835 -0.4543091 -12.0529
v -1.663393 4.896096 -12.0529
v -1.663393 4.896096 -9.638074
v -0.08387545 0.4638013 -9.638074
v -0.08387545 0.4638013 -12.0529
v -0.75873 5.881159 -12.0529
v -0.75873 5.881159 -9.638075
v -1.663393 4.896096 -9.638074
v -1.663393 4.896096 -12.0529
vt 0.3194633 0.8605171
vt 0.3263118 0.8742141
vt 0.3331603 0.8605171
vt 0.2672424 0.907051
vt 0.3054503 0.9072189
vt 0.3129261 0.8811164
vt 0.2633685 0.8808984
vt 0.3051682 0.9712615
vt 0.372874 0.971416
vt 0.3728503 0.961821
vt 0.3054503 0.9072189
vt 0.3898966 0.9077702
vt 0.389656 0.9623689
vt 0.3898966 0.9077702
vt 0.389656 0.9623689
vt 0.3938962 0.9619994
vt 0.4315631 0.9264624
vt 0.4521217 0.9077939
vt 0.4519599 0.9445001
vt 0.2834779 0.9711661
vt 0.3051682 0.9712615
vt 0.3054503 0.9072189
vt 0.2672424 0.907051
vt 0.2733858 0.9618407
vt 0.2586397 0.9169709
vt 0.4519599 0.9445001
vt 0.4770078 0.9617808
vt 0.4885647 0.9203605
vt 0.4521217 0.9077939
vt 0.4886164 0.9086257
vt 0.4886164 0.9086257
vt 0.4885647 0.9203605
vt 0.5211646 0.9262429
vt 0.5212477 0.9073728
vt 0.2866744 0.9973161
vt 0.3124142 0.9974295
vt 0.3051682 0.9712615
vt 0.2834779 0.9711661
vt 0.3898966 0.9077702
vt 0.389849 0.8847629
vt 0.3129261 0.8811164
vt 0.3054503 0.9072189
vt 0.4515769 0.8834139
vt 0.389849 0.8847629
vt 0.3898966 0.9077702
vt 0.4521217 0.9077939
vt 0.4879272 0.8851796
vt 0.4515769 0.8834139
vt 0.4521217 0.9077939
vt 0.4886164 0.9086257
vt 0.5199744 0.8820003
vt 0.4879272 0.8851796
vt 0.4886164 0.9086257
vt 0.5212477 0.9073728
vt 0.5449608 0.9289273
vt 0.5450531 0.907968
vt 0.5212477 0.9073728
vt 0.5211646 0.9262429
vt 0.372874 0.971416
vt 0.3051682 0.9712615
vt 0.3124142 0.9974295
vt 0.374201 0.9950453
vt 0.1758211 0.8555767
vt 0.2482188 0.854704
vt 0.2481143 0.8232262
vt 0.175714 0.8234675
vt 0.2482188 0.854704
vt 0.2840652 0.8550306
vt 0.2839175 0.8108035
vt 0.2481143 0.8232262
vt 0.2840652 0.8550306
vt 0.3155844 0.8561144
vt 0.3155485 0.8453702
vt 0.2839175 0.8108035
vt 0.003496408 0.8572118
vt 0.01860726 0.878388
vt 0.06120425 0.8773658
vt 0.06328481 0.8558583
vt 0.1157373 0.8789057
vt 0.1182624 0.8559834
vt 0.06328481 0.8558583
vt 0.06120425 0.8773658
vt 0.1747237 0.8791748
vt 0.1758211 0.8555767
vt 0.1182624 0.8559834
vt 0.1157373 0.8789057
vt 0.247851 0.8777158
vt 0.2482188 0.854704
vt 0.1758211 0.8555767
vt 0.1747237 0.8791748
vt 0.2862682 0.8787644
vt 0.2840652 0.8550306
vt 0.2482188 0.854704
vt 0.247851 0.8777158
vt 0.3188294 0.8774956
vt 0.3155844 0.8561144
vt 0.2840652 0.8550306
vt 0.2862682 0.8787644
vt 0.3155485 0.8453702
vt 0.3155844 0.8561144
vt 0.3355314 0.855458
vt 0.335481 0.8403744
vt 0.1182624 0.8559834
vt 0.1758211 0.8555767
vt 0.175714 0.8234675
vt 0.1181739 0.8292859
vt 0.06328481 0.8558583
vt 0.1182624 0.8559834
vt 0.1181739 0.8292859
vt 0.06312998 0.809248
vt 0.003344543 0.8113384
vt 0.003496408 0.8572118
vt 0.02981562 0.823175
vt 0.06312998 0.809248
vt 0.06328481 0.8558583
vt 0.3194633 0.8605171
vt 0.3194633 0.8742141
vt 0.3331603 0.8742141
vt 0.3331603 0.8605171
vt 0.3194633 0.8605171
vt 0.3194633 0.8742141
vt 0.3331603 0.8742141
vt 0.3331603 0.8605171
vt 0.3194633 0.8605171
vt 0.3194633 0.8742141
vt 0.3331603 0.8742141
vt 0.3331603 0.8605171
vt 0.3194633 0.8605171
vt 0.3194633 0.8742141
vt 0.3331603 0.8742141
vt 0.3331603 0.8605171
vt 0.3194633 0.8605171
vt 0.3194633 0.8742141
vt 0.3331603 0.8742141
vt 0.3331603 0.8605171
vt 0.3194633 0.8605171
vt 0.3194633 0.8742141
vt 0.3331603 0.8742141
vt 0.3331603 0.8605171
vt 0.3194633 0.8605171
vt 0.3194633 0.8742141
vt 0.3331603 0.8742141
vt 0.3331603 0.8605171
vt 0.3194633 0.8605171
vt 0.3194633 0.8742141
vt 0.3331603 0.8742141
vt 0.3331603 0.8605171
vt 0.3194633 0.8605171
vt 0.3194633 0.8742141
vt 0.3331603 0.8742141
vt 0.3331603 0.8605171
vt 0.3194633 0.8605171
vt 0.3194633 0.8742141
vt 0.3331603 0.8742141
vt 0.3331603 0.8605171
vt 0.3194633 0.8605171
vt 0.3194633 0.8742141
vt 0.3331603 0.8742141
vt 0.3331603 0.8605171
vt 0.3194633 0.8605171
vt 0.3194633 0.8742141
vt 0.3331603 0.8742141
vt 0.3331603 0.8605171
vt 0.3194633 0.8605171
vt 0.3194633 0.8742141
vt 0.3331603 0.8742141
vt 0.3331603 0.8605171
vt 0.3194633 0.8605171
vt 0.3194633 0.8742141
vt 0.3331603 0.8742141
vt 0.3331603 0.8605171
vt 0.3194633 0.8605171
vt 0.3194633 0.8742141
vt 0.3331603 0.8742141
vt 0.3331603 0.8605171
vt 0.3194633 0.8605171
vt 0.3194633 0.8742141
vt 0.3331603 0.8742141
vt 0.3331603 0.8605171
vt 0.3194633 0.8605171
vt 0.3194633 0.8742141
vt 0.3331603 0.8742141
vt 0.3331603 0.8605171
vt 0.3194633 0.8605171
vt 0.3194633 0.8742141
vt 0.3331603 0.8742141
vt 0.3331603 0.8605171
vn 0.04128344 -0.9959764 0.07954048
vn 0.253413 -0.7428946 0.6195882
vn 0.247387 -0.7575661 0.604064
vn 0 0.9999318 -0.01168058
vn 0 0.9999318 -0.01168058
vn 0 0.9999318 -0.01168058
vn 0 0.9999318 -0.01168058
vn 0.5104828 0 -0.8598879
vn 0.5104828 0 -0.8598879
vn 0.5104828 0 -0.8598879
vn 0.5104828 0 -0.8598879
vn 0.5104828 0 -0.8598879
vn 0.5104828 0 -0.8598879
vn 0.9295503 0 -0.3686953
vn 0.9295503 0 -0.3686952
vn 0.9295503 0 -0.3686952
vn 0.9295503 0 -0.3686952
vn 0.9295503 0 -0.3686953
vn 0.9295503 0 -0.3686953
vn 0 0 -1
vn 0 0 -1
vn 0 0 -1
vn 0 0 -1
vn 0 0 -1
vn 0 0 -1
vn 0.9979911 -3.987459E-07 -0.06335454
vn 0.9979911 -3.987459E-07 -0.06335454
vn 0.9979911 -3.987459E-07 -0.06335454
vn 0.9979911 -3.987459E-07 -0.06335454
vn 0.9979911 -3.987459E-07 -0.06335454
vn 0.9325493 -2.154519E-07 0.3610429
vn 0.9325492 -2.154519E-07 0.3610429
vn 0.9325492 -2.154519E-07 0.3610429
vn 0.9325492 -2.154519E-07 0.3610429
vn -0.00279573 -0.9999521 -0.009384232
vn -0.00279573 -0.9999521 -0.009384232
vn -0.00279573 -0.9999521 -0.009384232
vn -0.00279573 -0.9999521 -0.009384232
vn 0.008306557 0.9998999 -0.01145496
vn 0.008306556 0.9998999 -0.01145496
vn 0.008306556 0.9998999 -0.01145496
vn 0.008306556 0.9998999 -0.01145496
vn 0.01334578 0.9999017 -0.004321771
vn 0.01334578 0.9999017 -0.004321771
vn 0.01334578 0.9999017 -0.004321771
vn 0.01334578 0.9999017 -0.004321771
vn 0.01360632 0.9999069 -0.001057017
vn 0.01360632 0.9999069 -0.001057017
vn 0.01360632 0.9999069 -0.001057017
vn 0.01360632 0.9999069 -0.001057017
vn 0.01308776 0.9999031 0.004746801
vn 0.01308776 0.9999031 0.004746801
vn 0.01308776 0.9999031 0.004746801
vn 0.01308775 0.9999031 0.004746801
vn -0.2780195 -0.007701461 0.9605446
vn -0.2780195 -0.007701461 0.9605446
vn -0.2780195 -0.00770146 0.9605445
vn -0.2780195 -0.007701461 0.9605445
vn 0.007874046 -0.9999368 -0.008020223
vn 0.007874047 -0.9999368 -0.008020223
vn 0.007874047 -0.9999368 -0.008020224
vn 0.007874046 -0.9999368 -0.008020223
vn 0 0.9401333 0.3408069
vn 0 0.9401333 0.3408069
vn 0 0.9401333 0.3408069
vn 0 0.9401333 0.3408069
vn 2.47592E-07 0.5452278 0.838288
vn 2.47592E-07 0.5452277 0.838288
vn 2.47592E-07 0.5452277 0.8382879
vn 2.475921E-07 0.5452278 0.838288
vn 0 0.199342 0.9799299
vn 0 0.199342 0.9799299
vn 0 0.199342 0.9799299
vn 0 0.199342 0.9799299
vn 0.9999241 0.00154478 -0.01222699
vn 0.9999241 0.00154478 -0.01222699
vn 0.9999241 0.00154478 -0.01222699
vn 0.9999241 0.00154478 -0.01222699
vn 0.9998885 0.01244627 -0.008249791
vn 0.9998885 0.01244627 -0.008249792
vn 0.9998885 0.01244627 -0.008249793
vn 0.9998885 0.01244627 -0.008249791
vn 0.9999008 0.01408626 -0.0001657915
vn 0.9999008 0.01408626 -0.0001657915
vn 0.9999008 0.01408626 -0.0001657915
vn 0.9999008 0.01408626 -0.0001657915
vn 0.9999037 0.01283874 0.005282376
vn 0.9999037 0.01283874 0.005282377
vn 0.9999037 0.01283874 0.005282378
vn 0.9999037 0.01283874 0.005282377
vn 0.999904 0.007475547 0.01166737
vn 0.999904 0.007475547 0.01166737
vn 0.999904 0.007475547 0.01166737
vn 0.999904 0.007475547 0.01166737
vn 0.9998797 0.004306206 0.01489998
vn 0.9998797 0.004306206 0.01489998
vn 0.9998797 0.004306206 0.01489998
vn 0.9998797 0.004306205 0.01489998
vn 0.01913512 -0.8656375 0.5003055
vn 0.01913512 -0.8656375 0.5003055
vn 0.01913512 -0.8656375 0.5003055
vn 0.01913512 -0.8656375 0.5003055
vn 0 0.9881071 -0.1537677
vn 0 0.9881071 -0.1537676
vn 0 0.9881071 -0.1537677
vn 0 0.9881071 -0.1537677
vn -1.750207E-07 0.8418584 -0.5396984
vn -1.750207E-07 0.8418585 -0.5396984
vn -1.750207E-07 0.8418585 -0.5396984
vn -1.750207E-07 0.8418585 -0.5396984
vn -0.03446045 0.5433097 -0.8388247
vn -0.03446045 0.5433097 -0.8388247
vn -0.03446045 0.5433098 -0.8388247
vn -0.03446045 0.5433097 -0.8388247
vn -0.03446045 0.5433098 -0.8388247
vn 0.1247847 -0.9654075 -0.2289481
vn 0.1247847 -0.9654075 -0.2289482
vn 0.1247847 -0.9654075 -0.2289482
vn 0.1247847 -0.9654075 -0.2289482
vn -0.9932352 0.09316542 -0.06931277
vn -0.9933558 0.09233379 -0.06869406
vn -0.9990295 -0.005881884 -0.04365008
vn -0.999036 -0.005862524 -0.0435064
vn -0.9442366 0.264176 -0.1965407
vn -0.9442366 0.264176 -0.1965407
vn -0.9933558 0.09233379 -0.06869406
vn -0.9932352 0.09316542 -0.06931277
vn -0.6983932 -0.5907473 0.4040601
vn -0.6983933 -0.5907472 0.4040601
vn -0.6983932 -0.5907472 0.4040601
vn -0.6983933 -0.5907472 0.4040601
vn -0.999036 -0.005862524 -0.0435064
vn -0.9990295 -0.005881884 -0.04365008
vn -0.9907132 0.09259 0.09957042
vn -0.9904821 0.09340592 0.1010967
vn -0.9904821 0.09340592 0.1010967
vn -0.9907132 0.09259 0.09957042
vn -0.936896 0.193902 0.2909088
vn -0.936896 0.193902 0.2909089
vn -0.7899737 0.512701 0.3362725
vn -0.7899737 0.512701 0.3362725
vn -0.7899737 0.512701 0.3362724
vn -0.7899738 0.5127009 0.3362724
vn -0.8701936 -0.3820521 -0.311126
vn -0.8701936 -0.3820521 -0.311126
vn -0.8701936 -0.3820521 -0.3111261
vn -0.8701935 -0.382052 -0.311126
vn 0.09823651 -0.9726722 -0.2103765
vn 0.09823652 -0.9726723 -0.2103765
vn 0.09823652 -0.9726722 -0.2103765
vn 0.09823651 -0.9726722 -0.2103765
vn -0.04245656 -0.2180606 0.9750113
vn -0.04245656 -0.2180607 0.9750113
vn -0.04245657 -0.2180606 0.9750113
vn -0.04245656 -0.2180606 0.9750113
vn -0.1365246 -0.7832136 -0.6065785
vn -0.1361394 -0.7834581 -0.6063493
vn -0.08153076 -0.8158429 -0.5724972
vn -0.08153076 -0.8158429 -0.5724972
vn -0.1980882 -0.7411855 -0.6414086
vn -0.1980882 -0.7411855 -0.6414086
vn -0.1361394 -0.7834581 -0.6063493
vn -0.1365246 -0.7832136 -0.6065785
vn 0.247387 -0.7575661 0.604064
vn 0.253413 -0.7428946 0.6195882
vn 0.2541924 -0.7409475 0.6215972
vn 0.2541924 -0.7409475 0.6215971
vn -0.02555694 -0.9994878 -0.01926301
vn -0.02555694 -0.9994878 -0.01926301
vn -0.02555694 -0.9994878 -0.01926301
vn -0.02555694 -0.9994878 -0.01926301
vn 0.8548755 -0.01694899 0.5185562
vn 0.8548754 -0.01694898 0.5185563
vn 0.8548755 -0.01694898 0.5185563
vn 0.8548755 -0.01694898 0.5185563
vn -0.8969814 -0.4420666 -0.001317275
vn -0.8967653 -0.4425045 -0.001322816
vn -0.6580272 -0.7529735 -0.005579256
vn -0.6580272 -0.7529735 -0.005579256
vn -0.9419736 -0.335687 0
vn -0.9419736 -0.335687 0
vn -0.8967653 -0.4425045 -0.001322816
vn -0.8969814 -0.4420666 -0.001317275
vn -0.7365249 0.6764104 0
vn -0.7365249 0.6764105 0
vn -0.7365249 0.6764104 0
vn -0.7365249 0.6764104 0
g SunTemple_combo420_piece_2_0
f 3/3/3 2/2/2 1/1/1
f 6/6/6 5/5/5 4/4/4
f 7/7/7 6/6/6 4/4/4
f 10/10/10 9/9/9 8/8/8
f 10/10/10 8/8/8 11/11/11
f 10/10/10 11/11/11 12/12/12
f 12/12/12 13/13/13 10/10/10
f 16/16/16 15/15/15 14/14/14
f 14/14/14 17/17/17 16/16/16
f 14/14/14 18/18/18 17/17/17
f 19/19/19 17/17/17 18/18/18
f 22/22/22 21/21/21 20/20/20
f 20/20/20 23/23/23 22/22/22
f 20/20/20 24/24/24 23/23/23
f 24/24/24 25/25/25 23/23/23
f 28/28/28 27/27/27 26/26/26
f 26/26/26 29/29/29 28/28/28
f 29/29/29 30/30/30 28/28/28
f 33/33/33 32/32/32 31/31/31
f 34/34/34 33/33/33 31/31/31
f 37/37/37 36/36/36 35/35/35
f 38/38/38 37/37/37 35/35/35
f 41/41/41 40/40/40 39/39/39
f 42/42/42 41/41/41 39/39/39
f 45/45/45 44/44/44 43/43/43
f 46/46/46 45/45/45 43/43/43
f 49/49/49 48/48/48 47/47/47
f 50/50/50 49/49/49 47/47/47
f 53/53/53 52/52/52 51/51/51
f 54/54/54 53/53/53 51/51/51
f 57/57/57 56/56/56 55/55/55
f 58/58/58 57/57/57 55/55/55
f 61/61/61 60/60/60 59/59/59
f 62/62/62 61/61/61 59/59/59
f 65/65/65 64/64/64 63/63/63
f 66/66/66 65/65/65 63/63/63
f 69/69/69 68/68/68 67/67/67
f 70/70/70 69/69/69 67/67/67
f 73/73/73 72/72/72 71/71/71
f 74/74/74 73/73/73 71/71/71
f 77/77/77 76/76/76 75/75/75
f 78/78/78 77/77/77 75/75/75
f 81/81/81 80/80/80 79/79/79
f 82/82/82 81/81/81 79/79/79
f 85/85/85 84/84/84 83/83/83
f 86/86/86 85/85/85 83/83/83
f 89/89/89 88/88/88 87/87/87
f 90/90/90 89/89/89 87/87/87
f 93/93/93 92/92/92 91/91/91
f 94/94/94 93/93/93 91/91/91
f 97/97/97 96/96/96 95/95/95
f 98/98/98 97/97/97 95/95/95
f 101/101/101 100/100/100 99/99/99
f 102/102/102 101/101/101 99/99/99
f 105/105/105 104/104/104 103/103/103
f 106/106/106 105/105/105 103/103/103
f 109/109/109 108/108/108 107/107/107
f 110/110/110 109/109/109 107/107/107
f 113/113/113 112/112/112 111/111/111
f 112/112/112 113/113/113 114/114/114
f 114/114/114 115/115/115 112/112/112
f 118/118/118 117/117/117 116/116/116
f 119/119/119 118/118/118 116/116/116
f 122/122/122 121/121/121 120/120/120
f 123/123/123 122/122/122 120/120/120
f 126/126/126 125/125/125 124/124/124
f 127/127/127 126/126/126 124/124/124
f 130/130/130 129/129/129 128/128/128
f 131/131/131 130/130/130 128/128/128
f 134/134/134 133/133/133 132/132/132
f 135/135/135 134/134/134 132/132/132
f 138/138/138 137/137/137 136/136/136
f 139/139/139 138/138/138 136/136/136
f 142/142/142 141/141/141 140/140/140
f 143/143/143 142/142/142 140/140/140
f 146/146/146 145/145/145 144/144/144
f 147/147/147 146/146/146 144/144/144
f 150/150/150 149/149/149 148/148/148
f 151/151/151 150/150/150 148/148/148
f 154/154/154 153/153/153 152/152/152
f 155/155/155 154/154/154 152/152/152
f 158/158/158 157/157/157 156/156/156
f 159/159/159 158/158/158 156/156/156
f 162/162/162 161/161/161 160/160/160
f 163/163/163 162/162/162 160/160/160
f 166/166/166 165/165/165 164/164/164
f 167/167/167 166/166/166 164/164/164
f 170/170/170 169/169/169 168/168/168
f 171/171/171 170/170/170 168/168/168
f 174/174/174 173/173/173 172/172/172
f 175/175/175 174/174/174 172/172/172
f 178/178/178 177/177/177 176/176/176
f 179/179/179 178/178/178 176/176/176
f 182/182/182 181/181/181 180/180/180
f 183/183/183 182/182/182 180/180/180
f 186/186/186 185/185/185 184/184/184
f 187/187/187 186/186/186 184/184/184
