g SuperMonkeyHead
v -6.458923 12.90096 0.376469
v -3.053162 13.30341 2.067057
v -3.580997 13.04935 1.318207
v -6.089907 12.65474 1.944261
v -6.960757 13.16039 1.640653
v -4.137956 16.61655 0.267345
v -7.095375 14.73106 -0.451332
v -3.580997 13.04935 1.318207
v -4.272983 16.21319 -0.319938
v -7.508133 15.07731 0.736846
v -7.290461 15.7681 0.34163
v -4.272983 16.21319 -0.319938
v 6.637198 12.92874 0.437197
v 3.687968 12.99996 1.210241
v 3.103785 13.2335 1.914223
v 6.16779 12.66913 1.975726
v 7.03245 13.20249 1.732688
v 4.168932 16.58632 0.201258
v 7.257375 14.77757 -0.349651
v 3.687968 12.99996 1.210241
v 4.357935 16.18894 -0.372953
v 7.564415 15.13525 0.863503
v 7.341524 15.81905 0.453002
v 4.357935 16.18894 -0.372953
v 5.564931 18.94248 -1.749877
v 5.400735 13.55026 1.486614
v 5.791867 18.98955 1.004289
v 5.110703 14.05596 -1.377828
v 4.242403 18.75499 -3.611524
v 3.405907 12.00513 0.45969
v 3.797268 14.26834 -3.1244
v 1.566723 18.65748 -5.023192
v 2.896208 12.54959 -1.108912
v -3.421119 12.00368 0.461211
v 1.566723 14.18651 -4.258019
v -1.580903 18.656 -5.043051
v -2.951777 12.55325 -1.02651
v -1.580903 14.18651 -4.258019
v -4.353833 18.75092 -3.666449
v -3.801933 14.2684 -3.124385
v -5.656166 18.937 -1.821873
v -5.210797 14.05479 -1.377651
v -5.797649 18.98469 0.931256
v -5.486257 13.51716 1.497838
v 1.565508 11.58729 3.265981
v 3.823684 12.23457 2.785722
v 5.400735 13.55026 1.486614
v 4.550228 13.52141 3.399899
v 5.791867 18.98955 1.004289
v 4.909673 19.00594 3.443353
v 5.391837 20.34203 0.9316846
v 4.643157 19.98539 3.196445
v 4.669628 21.59094 0.80113
v 3.492022 12.60775 3.447853
v 1.373038 13.48074 4.617908
v 1.565503 12.03135 4.051162
v 1.565503 18.96166 5.063974
v -1.582121 11.59659 3.279612
v -1.582124 12.04695 4.053486
v -1.404464 13.48287 4.618016
v -3.857559 12.26736 2.778756
v -5.486257 13.51716 1.497838
v -1.582121 18.95895 5.032187
v -3.572194 12.64811 3.550692
v -4.587022 13.52298 3.407005
v -4.879495 19.00156 3.388452
v -5.797649 18.98469 0.931256
v -4.594877 19.95749 3.114538
v -5.362322 20.33726 0.8634042
v -1.636926 20.40144 4.537171
v -4.030568 20.85837 2.654215
v -4.606931 21.58656 0.741713
v 1.618727 20.40371 4.564181
v -1.582121 21.73114 3.777412
v 1.565508 21.73287 3.798193
v -1.582124 22.79375 0.694208
v 4.094658 20.90658 2.756236
v 1.565503 22.7956 0.7189389
v 1.565508 22.50601 -1.912899
v -4.342382 21.25103 -1.750517
v -1.582124 22.37541 -1.884704
v -5.150373 20.13448 -1.845119
v -5.362322 20.33726 0.8634042
v -5.656166 18.937 -1.821873
v -5.797649 18.98469 0.931256
v -4.353833 18.75092 -3.666449
v -4.214238 19.58035 -3.5168
v -1.580903 18.656 -5.043051
v -3.810767 20.38658 -3.152049
v -1.582124 21.0604 -3.957909
v -1.636317 19.89201 -4.636367
v 1.566723 18.65748 -5.023192
v 1.619336 19.96005 -4.633899
v 1.565503 21.18663 -3.971948
v 4.168519 19.58445 -3.461238
v 4.242403 18.75499 -3.611524
v 5.564931 18.94248 -1.749877
v 3.831668 20.39045 -3.099465
v 5.099167 20.14011 -1.77649
v 4.334002 21.25645 -1.689472
v 5.391837 20.34203 0.9316846
v 5.791867 18.98955 1.004289
v 1.350895 13.55726 4.721494
v 1.074999 14.98516 4.945321
v 2.803757 15.21003 4.614646
v 2.230024 13.1887 4.296709
v 1.210146 16.10009 4.945307
v 2.882213 13.16736 4.035044
v 1.889334 16.76573 4.917954
v 3.663394 13.3542 3.803371
v 2.753136 17.29638 4.461115
v 4.287949 13.95806 3.669309
v 3.788116 17.27408 4.043023
v 4.608744 15.25861 3.522851
v 4.375883 16.65551 3.812958
v -1.355065 13.55726 4.733583
v -2.807926 15.21003 4.616868
v -1.079167 14.98516 4.947547
v -2.234193 13.1887 4.298934
v -1.214317 16.10009 4.947531
v -2.886381 13.16736 4.037269
v -1.893503 16.76573 4.920179
v -3.677244 13.3542 3.805595
v -2.757305 17.29638 4.46334
v -4.29212 13.95806 3.671534
v -3.792286 17.27408 4.045248
v -4.612912 15.25861 3.525075
v -4.380051 16.65551 3.815183
vt 0.062833 0.213308
vt 0.082685 0.310882
vt 0.058671 0.291467
vt 0.07343 0.249566
vt 0.084149 0.2351
vt 0.176553 0.267172
vt 0.132974 0.189307
vt 0.02164 0.170732
vt 0.098572 0.129501
vt 0.121916 0.219262
vt 0.141075 0.220108
vt 0.184211 0.248205
vt 0.062833 0.213308
vt 0.058671 0.291467
vt 0.082685 0.310882
vt 0.07343 0.249566
vt 0.084149 0.2351
vt 0.176553 0.267172
vt 0.132974 0.189307
vt 0.02164 0.170732
vt 0.098572 0.129501
vt 0.121916 0.219262
vt 0.141075 0.220108
vt 0.184211 0.248205
vt 0.565346 0.165353
vt 0.493063 0.321767
vt 0.609609 0.273696
vt 0.478186 0.225663
vt 0.526278 0.112571
vt 0.411401 0.313302
vt 0.458205 0.184796
vt 0.456203 0.06198
vt 0.415212 0.232796
vt 0.243707 0.245672
vt 0.413875 0.15305
vt 0.375791 0.032806
vt 0.295605 0.190097
vt 0.352571 0.130314
vt 0.287892 0.025448
vt 0.299629 0.123268
vt 0.227284 0.039953
vt 0.256105 0.139522
vt 0.129662 0.088045
vt 0.176219 0.197797
vt 0.338674 0.343133
vt 0.382205 0.365785
vt 0.437097 0.407523
vt 0.38321 0.410959
vt 0.401309 0.55857
vt 0.359674 0.529447
vt 0.3599376 0.590382
vt 0.3380358 0.5477637
vt 0.321045 0.620288
vt 0.368571 0.377077
vt 0.315553 0.393278
vt 0.330152 0.358074
vt 0.282283 0.492783
vt 0.276564 0.314987
vt 0.270258 0.332336
vt 0.253143 0.36811
vt 0.228082 0.301858
vt 0.160926 0.294867
vt 0.212831 0.463248
vt 0.22955 0.320609
vt 0.196244 0.333669
vt 0.127477 0.437922
vt 0.077031 0.430536
vt 0.1324309 0.4660563
vt 0.08648419 0.4821183
vt 0.2024861 0.4919725
vt 0.137088 0.492505
vt 0.095371 0.53061
vt 0.2704392 0.519721
vt 0.192761 0.518976
vt 0.259305 0.545045
vt 0.169855 0.57121
vt 0.317694 0.564983
vt 0.239442 0.598531
vt 0.200237 0.686963
vt 0.070381 0.638243
vt 0.135509 0.660871
vt 0.04125515 0.6380012
vt 0.06298746 0.5259578
vt 0.010273 0.637744
vt 0.02854 0.521009
vt 0.026099 0.700905
vt 0.04543424 0.6909565
vt 0.087081 0.765582
vt 0.063611 0.681604
vt 0.115722 0.710493
vt 0.1018438 0.7371869
vt 0.167998 0.794555
vt 0.175043 0.7646378
vt 0.181666 0.736513
vt 0.2480978 0.7701316
vt 0.254664 0.791759
vt 0.309309 0.754817
vt 0.241925 0.7498
vt 0.2872935 0.7338076
vt 0.266597 0.714057
vt 0.34794 0.6389193
vt 0.376549 0.658738
vt 0.342207 0.787504
vt 0.333884 0.823185
vt 0.3761 0.829253
vt 0.367116 0.777095
vt 0.337258 0.851194
vt 0.384397 0.776665
vt 0.35515 0.867981
vt 0.405326 0.781386
vt 0.378394 0.881213
vt 0.420459 0.796925
vt 0.405607 0.880306
vt 0.428786 0.829469
vt 0.420497 0.86461
vt 0.342207 0.787504
vt 0.3761 0.829253
vt 0.333884 0.823185
vt 0.367116 0.777095
vt 0.337258 0.851194
vt 0.384397 0.776665
vt 0.35515 0.867981
vt 0.405326 0.781386
vt 0.378394 0.881213
vt 0.420459 0.796925
vt 0.405607 0.880306
vt 0.428786 0.829469
vt 0.420497 0.86461
vn 0.0274171 -0.5868037 -0.809265
vn -0.07317968 0.2602296 0.9627696
vn 0.2550415 -0.732991 -0.6306172
vn 0.02744739 -0.9269627 0.3741482
vn -0.3061206 0.3296676 0.8930898
vn -0.1637082 0.6243492 0.7637981
vn -0.07430811 -0.2468879 -0.9661908
vn 0.2550415 -0.732991 -0.6306172
vn 0.1051147 -0.003332244 -0.9944546
vn -0.3377674 0.3688864 0.8659307
vn -0.3975514 0.862671 -0.3126525
vn 0.1051147 -0.003332244 -0.9944546
vn 0.03681567 -0.5826716 -0.8118734
vn -0.1980704 -0.7343829 -0.6491916
vn 0.007667745 0.262362 0.9649391
vn -0.02572763 -0.9290366 0.3690922
vn 0.2415861 0.3349325 0.9107449
vn 0.09835058 0.6237324 0.7754258
vn 0.1341871 -0.2438169 -0.9604931
vn -0.1980704 -0.7343829 -0.6491916
vn -0.04721833 -0.001462136 -0.9988835
vn 0.2738325 0.3759157 0.8852701
vn 0.3881526 0.8751754 -0.2888001
vn -0.04721833 -0.001462136 -0.9988835
vn 0.9509172 -0.03074578 -0.3079143
vn 0.9673524 -0.2346168 0.09583417
vn 0.9939849 0.002193284 0.1094961
vn 0.9096688 -0.271195 -0.3145725
vn 0.6363414 -0.0715194 -0.768085
vn 0.2225165 -0.9459507 -0.2359313
vn 0.6092964 -0.2734001 -0.7443187
vn 0.2135887 -0.07066248 -0.9743648
vn 0.1440699 -0.9051061 -0.4000333
vn -0.2164333 -0.9476867 -0.2346199
vn 0.1499487 -0.5453452 -0.8246902
vn -0.205055 -0.07398865 -0.9759498
vn -0.1478481 -0.9052096 -0.3984174
vn -0.1491619 -0.5470347 -0.8237134
vn -0.6270245 -0.07943794 -0.7749388
vn -0.5945815 -0.2893414 -0.7501695
vn -0.952059 -0.02668624 -0.3047482
vn -0.9100624 -0.2738472 -0.3111175
vn -0.9918155 0.01811371 0.1263878
vn -0.9670018 -0.2285841 0.1125025
vn 0.0431519 -0.9989544 -0.01510009
vn 0.5312995 -0.8183339 0.219204
vn 0.9673524 -0.2346168 0.09583417
vn 0.6488818 -0.1155062 0.752071
vn 0.9939849 0.002193284 0.1094961
vn 0.6679869 0.009007947 0.7441185
vn 0.8957315 0.4358095 0.08794942
vn 0.6339255 0.4076416 0.6572418
vn 0.5374537 0.8383738 0.09095595
vn 0.4527196 -0.5135061 0.7289421
vn 0.2023142 -0.1219096 0.9717031
vn 0.155195 -0.5679346 0.8083099
vn 0.2179682 0.008694774 0.9759172
vn -0.04717796 -0.9988052 -0.0127476
vn -0.1511402 -0.569962 0.8076509
vn -0.206505 -0.1142024 0.9717579
vn -0.5200617 -0.8244048 0.2233663
vn -0.9670018 -0.2285841 0.1125025
vn -0.2258096 0.01433835 0.9740659
vn -0.4434254 -0.5088552 0.7378621
vn -0.6520995 -0.103017 0.7511016
vn -0.6684998 0.02355525 0.7433392
vn -0.9918155 0.01811371 0.1263878
vn -0.6373167 0.419933 0.6461298
vn -0.8822404 0.4586779 0.1061432
vn -0.2192195 0.4233876 0.8790254
vn -0.4949864 0.7293857 0.4722128
vn -0.5362467 0.8392222 0.09025352
vn 0.2019296 0.4178726 0.8857804
vn -0.1812979 0.8277964 0.5309277
vn 0.169044 0.8299054 0.5316778
vn -0.1858559 0.9763678 0.1102883
vn 0.4804315 0.7375207 0.4746039
vn 0.1750557 0.9780964 0.1126175
vn 0.1731485 0.9296204 -0.3253082
vn -0.516174 0.8023437 -0.2996818
vn -0.1906811 0.9251343 -0.3282793
vn -0.8514637 0.44399 -0.2790744
vn -0.8822404 0.4586779 0.1061432
vn -0.952059 -0.02668624 -0.3047482
vn -0.9918155 0.01811371 0.1263878
vn -0.6270245 -0.07943794 -0.7749388
vn -0.5652432 0.3725206 -0.7360222
vn -0.205055 -0.07398865 -0.9759498
vn -0.4473637 0.6505206 -0.6137497
vn -0.1758492 0.7210514 -0.6701955
vn -0.1835926 0.3936337 -0.9007477
vn 0.2135887 -0.07066248 -0.9743648
vn 0.1883877 0.385924 -0.9030907
vn 0.1577619 0.7237902 -0.6717432
vn 0.5873803 0.3415184 -0.7337231
vn 0.6363414 -0.0715194 -0.768085
vn 0.9509172 -0.03074578 -0.3079143
vn 0.4833106 0.6284496 -0.6094767
vn 0.8618955 0.4148831 -0.2915618
vn 0.5325875 0.7945609 -0.2915877
vn 0.8957315 0.4358095 0.08794942
vn 0.9939849 0.002193284 0.1094961
vn 0.2757147 -0.1813399 0.9439795
vn 0.1970366 -0.07761554 0.9773189
vn 0.3660293 -0.07773177 0.9273512
vn 0.3453469 -0.2406993 0.9070829
vn 0.1683956 -0.0639245 0.9836445
vn 0.3404239 -0.2445436 0.9079152
vn 0.3133968 -0.0009326963 0.9496217
vn 0.3632587 -0.2267738 0.9036686
vn 0.395174 0.07694923 0.9153777
vn 0.4656562 -0.1109217 0.8779867
vn 0.394352 0.06577729 0.9166023
vn 0.517773 -0.06304159 0.8531922
vn 0.4707428 -0.02282918 0.8819751
vn -0.2798965 -0.1794416 0.9431112
vn -0.3664911 -0.07694398 0.9272345
vn -0.1966059 -0.07371714 0.9777075
vn -0.3499991 -0.2416959 0.9050325
vn -0.1683964 -0.06392458 0.9836444
vn -0.338359 -0.2448198 0.9086123
vn -0.3133972 -0.0009340082 0.9496216
vn -0.3627259 -0.2253739 0.9042326
vn -0.3951732 0.07694758 0.9153782
vn -0.4668151 -0.1092392 0.8775822
vn -0.3943518 0.06577553 0.9166026
vn -0.5177727 -0.06304099 0.8531924
vn -0.4707428 -0.02283029 0.8819751
g SuperMonkeyHead_0
f 3/3/3 2/2/2 1/1/1
f 2/2/2 4/4/4 1/1/1
f 4/4/4 2/2/2 5/5/5
f 4/4/4 5/5/5 1/1/1
f 5/5/5 2/2/2 6/6/6
f 7/7/7 1/1/1 5/5/5
f 1/1/1 7/7/7 8/8/8
f 7/7/7 9/9/9 8/8/8
f 10/10/10 5/5/5 6/6/6
f 10/10/10 7/7/7 5/5/5
f 6/6/6 11/11/11 10/10/10
f 10/10/10 11/11/11 7/7/7
f 6/6/6 12/12/12 11/11/11
f 12/12/12 7/7/7 11/11/11
f 15/15/15 14/14/14 13/13/13
f 16/16/16 15/15/15 13/13/13
f 15/15/15 16/16/16 17/17/17
f 17/17/17 16/16/16 13/13/13
f 15/15/15 17/17/17 18/18/18
f 13/13/13 19/19/19 17/17/17
f 19/19/19 13/13/13 20/20/20
f 21/21/21 19/19/19 20/20/20
f 17/17/17 22/22/22 18/18/18
f 19/19/19 22/22/22 17/17/17
f 23/23/23 18/18/18 22/22/22
f 23/23/23 22/22/22 19/19/19
f 24/24/24 18/18/18 23/23/23
f 19/19/19 24/24/24 23/23/23
f 27/27/27 26/26/26 25/25/25
f 26/26/26 28/28/28 25/25/25
f 25/25/25 28/28/28 29/29/29
f 26/26/26 30/30/30 28/28/28
f 28/28/28 31/31/31 29/29/29
f 29/29/29 31/31/31 32/32/32
f 33/33/33 31/31/31 28/28/28
f 30/30/30 33/33/33 28/28/28
f 30/30/30 34/34/34 33/33/33
f 31/31/31 35/35/35 32/32/32
f 31/31/31 33/33/33 35/35/35
f 32/32/32 35/35/35 36/36/36
f 33/33/33 37/37/37 35/35/35
f 34/34/34 37/37/37 33/33/33
f 35/35/35 38/38/38 36/36/36
f 37/37/37 38/38/38 35/35/35
f 36/36/36 38/38/38 39/39/39
f 38/38/38 40/40/40 39/39/39
f 37/37/37 40/40/40 38/38/38
f 39/39/39 40/40/40 41/41/41
f 40/40/40 37/37/37 42/42/42
f 40/40/40 42/42/42 41/41/41
f 37/37/37 34/34/34 42/42/42
f 41/41/41 42/42/42 43/43/43
f 42/42/42 44/44/44 43/43/43
f 34/34/34 44/44/44 42/42/42
f 34/34/34 30/30/30 45/45/45
f 30/30/30 46/46/46 45/45/45
f 30/30/30 47/47/47 46/46/46
f 47/47/47 48/48/48 46/46/46
f 48/48/48 47/47/47 49/49/49
f 50/50/50 48/48/48 49/49/49
f 49/49/49 51/51/51 50/50/50
f 51/51/51 52/52/52 50/50/50
f 51/51/51 53/53/53 52/52/52
f 48/48/48 54/54/54 46/46/46
f 55/55/55 48/48/48 50/50/50
f 54/54/54 48/48/48 55/55/55
f 46/46/46 54/54/54 56/56/56
f 45/45/45 46/46/46 56/56/56
f 56/56/56 54/54/54 55/55/55
f 57/57/57 50/50/50 52/52/52
f 57/57/57 55/55/55 50/50/50
f 58/58/58 34/34/34 45/45/45
f 56/56/56 59/59/59 45/45/45
f 59/59/59 58/58/58 45/45/45
f 55/55/55 60/60/60 56/56/56
f 60/60/60 59/59/59 56/56/56
f 58/58/58 61/61/61 34/34/34
f 62/62/62 34/34/34 61/61/61
f 60/60/60 55/55/55 63/63/63
f 55/55/55 57/57/57 63/63/63
f 59/59/59 64/64/64 58/58/58
f 64/64/64 61/61/61 58/58/58
f 60/60/60 65/65/65 59/59/59
f 65/65/65 64/64/64 59/59/59
f 64/64/64 65/65/65 61/61/61
f 65/65/65 62/62/62 61/61/61
f 65/65/65 60/60/60 63/63/63
f 62/62/62 65/65/65 66/66/66
f 66/66/66 65/65/65 63/63/63
f 67/67/67 62/62/62 66/66/66
f 66/66/66 68/68/68 67/67/67
f 68/68/68 66/66/66 63/63/63
f 68/68/68 69/69/69 67/67/67
f 70/70/70 63/63/63 57/57/57
f 70/70/70 68/68/68 63/63/63
f 68/68/68 71/71/71 69/69/69
f 71/71/71 68/68/68 70/70/70
f 71/71/71 72/72/72 69/69/69
f 73/73/73 70/70/70 57/57/57
f 73/73/73 57/57/57 52/52/52
f 74/74/74 71/71/71 70/70/70
f 74/74/74 70/70/70 73/73/73
f 72/72/72 71/71/71 74/74/74
f 73/73/73 52/52/52 75/75/75
f 75/75/75 74/74/74 73/73/73
f 76/76/76 72/72/72 74/74/74
f 76/76/76 74/74/74 75/75/75
f 52/52/52 77/77/77 75/75/75
f 53/53/53 77/77/77 52/52/52
f 75/75/75 77/77/77 78/78/78
f 78/78/78 76/76/76 75/75/75
f 77/77/77 53/53/53 78/78/78
f 76/76/76 78/78/78 79/79/79
f 78/78/78 53/53/53 79/79/79
f 80/80/80 72/72/72 76/76/76
f 81/81/81 76/76/76 79/79/79
f 81/81/81 80/80/80 76/76/76
f 80/80/80 82/82/82 72/72/72
f 82/82/82 83/83/83 72/72/72
f 82/82/82 84/84/84 83/83/83
f 84/84/84 85/85/85 83/83/83
f 84/84/84 82/82/82 86/86/86
f 82/82/82 87/87/87 86/86/86
f 82/82/82 80/80/80 87/87/87
f 88/88/88 86/86/86 87/87/87
f 89/89/89 80/80/80 81/81/81
f 80/80/80 89/89/89 87/87/87
f 90/90/90 89/89/89 81/81/81
f 87/87/87 89/89/89 90/90/90
f 90/90/90 81/81/81 79/79/79
f 91/91/91 88/88/88 87/87/87
f 91/91/91 87/87/87 90/90/90
f 92/92/92 88/88/88 91/91/91
f 93/93/93 91/91/91 90/90/90
f 93/93/93 92/92/92 91/91/91
f 94/94/94 90/90/90 79/79/79
f 94/94/94 93/93/93 90/90/90
f 93/93/93 95/95/95 92/92/92
f 95/95/95 96/96/96 92/92/92
f 96/96/96 95/95/95 97/97/97
f 94/94/94 98/98/98 93/93/93
f 94/94/94 79/79/79 98/98/98
f 98/98/98 95/95/95 93/93/93
f 95/95/95 99/99/99 97/97/97
f 95/95/95 98/98/98 99/99/99
f 79/79/79 100/100/100 98/98/98
f 98/98/98 100/100/100 99/99/99
f 53/53/53 100/100/100 79/79/79
f 100/100/100 53/53/53 99/99/99
f 53/53/53 101/101/101 99/99/99
f 99/99/99 101/101/101 97/97/97
f 101/101/101 102/102/102 97/97/97
f 105/105/105 104/104/104 103/103/103
f 105/105/105 103/103/103 106/106/106
f 104/104/104 105/105/105 107/107/107
f 106/106/106 108/108/108 105/105/105
f 105/105/105 109/109/109 107/107/107
f 108/108/108 110/110/110 105/105/105
f 105/105/105 111/111/111 109/109/109
f 105/105/105 110/110/110 112/112/112
f 105/105/105 113/113/113 111/111/111
f 105/105/105 112/112/112 114/114/114
f 105/105/105 115/115/115 113/113/113
f 105/105/105 114/114/114 115/115/115
f 118/118/118 117/117/117 116/116/116
f 116/116/116 117/117/117 119/119/119
f 117/117/117 118/118/118 120/120/120
f 121/121/121 119/119/119 117/117/117
f 122/122/122 117/117/117 120/120/120
f 123/123/123 121/121/121 117/117/117
f 124/124/124 117/117/117 122/122/122
f 123/123/123 117/117/117 125/125/125
f 126/126/126 117/117/117 124/124/124
f 125/125/125 117/117/117 127/127/127
f 128/128/128 117/117/117 126/126/126
f 127/127/127 117/117/117 128/128/128
