g SwivelLegs_Silver
v 6.20432 0.9532061 5.634326
v 4.714568 0.9532061 5.002808
v 5.710417 0.9532061 5.002808
v 4.220665 0.9532061 5.634326
v 6.20432 0.9532061 6.365675
v 4.220665 0.9532061 6.365675
v 4.714568 0.9532061 6.997193
v 5.710417 0.9532061 6.997193
v 3.809857 0.1391922 5.308695
v 4.370148 0.8916312 4.586038
v 3.809857 0.8916312 5.308695
v 4.370148 0.1391922 4.586038
v 6.054839 0.8916312 4.586038
v 6.054839 0.1391922 4.586038
v 6.61513 0.8916312 5.308695
v 6.61513 0.1391922 5.308695
v 6.61513 0.8916312 6.691306
v 6.61513 0.1391922 6.691306
v 6.054839 0.8916312 7.413962
v 6.054839 0.1391922 7.413962
v 4.370148 0.8916312 7.413962
v 4.370148 0.1391922 7.413962
v 3.809857 0.8916312 6.691306
v 3.809857 0.1391922 6.691306
v 3.809857 0.8916312 5.308695
v 3.809857 0.1391922 5.308695
v 4.496803 5.202418E-07 7.307428
v 3.809857 0.1391922 6.691306
v 4.370148 0.1391922 7.413962
v 3.936512 5.202418E-07 6.61318
v 3.936514 5.202418E-07 5.386819
v 3.809857 0.1391922 5.308695
v 4.370148 0.1391922 4.586038
v 4.496804 5.202418E-07 4.692572
v 5.928184 5.202418E-07 4.692572
v 4.370148 0.1391922 4.586038
v 6.054839 0.1391922 4.586038
v 6.61513 0.1391922 5.308695
v 6.488472 5.202418E-07 5.386819
v 6.488472 5.202418E-07 6.613181
v 6.61513 0.1391922 5.308695
v 6.61513 0.1391922 6.691306
v 6.054839 0.1391922 7.413962
v 5.928184 5.202418E-07 7.307428
v 6.054839 0.1391922 7.413962
v 4.370148 0.1391922 7.413962
v 6.559099 0.9532061 5.343256
v 6.054839 0.8916312 4.586038
v 6.61513 0.8916312 5.308695
v 5.998812 0.9532061 4.633166
v 4.426178 0.9532061 4.633166
v 4.370148 0.8916312 4.586038
v 3.809857 0.8916312 5.308695
v 3.865885 0.9532061 5.343256
v 4.714568 0.9532061 5.002808
v 5.710417 0.9532061 5.002808
v 4.220665 0.9532061 5.634326
v 6.20432 0.9532061 5.634326
v 4.220665 0.9532061 6.365675
v 6.559099 0.9532061 6.656744
v 6.20432 0.9532061 6.365675
v 5.710417 0.9532061 6.997193
v 3.865885 0.9532061 6.656745
v 3.809857 0.8916312 5.308695
v 3.809857 0.8916312 6.691306
v 4.370148 0.8916312 7.413962
v 4.426178 0.9532061 7.366835
v 4.714568 0.9532061 6.997193
v 5.998812 0.9532061 7.366835
v 4.370148 0.8916312 7.413962
v 6.054839 0.8916312 7.413962
v 6.61513 0.8916312 6.691306
v 6.61513 0.8916312 5.308695
v 6.054839 0.8916312 7.413962
v 4.955077 0.2998352 5.643618
v 1.432547 5.524033 5.496
v 1.110321 5.371789 5.643618
v 5.277303 0.4520798 5.496
v 1.754773 5.676278 5.643618
v 5.599529 0.6043243 5.643618
v 1.888243 5.739339 6
v 5.732999 0.6673862 6
v 1.754773 5.676278 6.356382
v 5.599529 0.6043243 6.356382
v 1.432547 5.524033 6.504
v 5.277303 0.4520798 6.504
v 1.110321 5.371789 6.356382
v 4.955077 0.2998352 6.356382
v 0.9768503 5.308727 6
v 4.821607 0.2367734 6
v 1.110321 5.371789 5.643618
v 4.955077 0.2998352 5.643618
v -6.20432 0.9532061 5.634326
v -5.710417 0.9532061 5.002808
v -4.714568 0.9532061 5.002808
v -4.220665 0.9532061 5.634326
v -6.20432 0.9532061 6.365675
v -4.220665 0.9532061 6.365675
v -4.714568 0.9532061 6.997193
v -5.710417 0.9532061 6.997193
v -3.809857 0.1391922 5.308695
v -3.809857 0.8916312 5.308695
v -4.370148 0.8916312 4.586038
v -4.370148 0.1391922 4.586038
v -6.054839 0.8916312 4.586038
v -6.054839 0.1391922 4.586038
v -6.61513 0.8916312 5.308695
v -6.61513 0.1391922 5.308695
v -6.61513 0.8916312 6.691306
v -6.61513 0.1391922 6.691306
v -6.054839 0.8916312 7.413962
v -6.054839 0.1391922 7.413962
v -4.370148 0.8916312 7.413962
v -4.370148 0.1391922 7.413962
v -3.809857 0.8916312 6.691306
v -3.809857 0.1391922 6.691306
v -3.809857 0.8916312 5.308695
v -3.809857 0.1391922 5.308695
v -4.496803 5.202418E-07 7.307428
v -4.370148 0.1391922 7.413962
v -3.809857 0.1391922 6.691306
v -3.936512 5.202418E-07 6.61318
v -3.936514 5.202418E-07 5.386819
v -3.809857 0.1391922 5.308695
v -4.370148 0.1391922 4.586038
v -4.496804 5.202418E-07 4.692572
v -5.928184 5.202418E-07 4.692572
v -4.370148 0.1391922 4.586038
v -6.054839 0.1391922 4.586038
v -6.61513 0.1391922 5.308695
v -6.488472 5.202418E-07 5.386819
v -6.488472 5.202418E-07 6.613181
v -6.61513 0.1391922 5.308695
v -6.61513 0.1391922 6.691306
v -6.054839 0.1391922 7.413962
v -5.928184 5.202418E-07 7.307428
v -6.054839 0.1391922 7.413962
v -4.370148 0.1391922 7.413962
v -6.559099 0.9532061 5.343256
v -6.61513 0.8916312 5.308695
v -6.054839 0.8916312 4.586038
v -5.998812 0.9532061 4.633166
v -4.426178 0.9532061 4.633166
v -4.370148 0.8916312 4.586038
v -3.809857 0.8916312 5.308695
v -3.865885 0.9532061 5.343256
v -4.714568 0.9532061 5.002808
v -5.710417 0.9532061 5.002808
v -4.220665 0.9532061 5.634326
v -6.20432 0.9532061 5.634326
v -4.220665 0.9532061 6.365675
v -6.559099 0.9532061 6.656744
v -6.20432 0.9532061 6.365675
v -5.710417 0.9532061 6.997193
v -3.865885 0.9532061 6.656745
v -3.809857 0.8916312 5.308695
v -3.809857 0.8916312 6.691306
v -4.370148 0.8916312 7.413962
v -4.426178 0.9532061 7.366835
v -4.714568 0.9532061 6.997193
v -5.998812 0.9532061 7.366835
v -4.370148 0.8916312 7.413962
v -6.054839 0.8916312 7.413962
v -6.61513 0.8916312 6.691306
v -6.61513 0.8916312 5.308695
v -6.054839 0.8916312 7.413962
v -4.955077 0.2998352 5.643618
v -1.110321 5.371789 5.643618
v -1.432547 5.524033 5.496
v -5.277303 0.4520798 5.496
v -1.754773 5.676278 5.643618
v -5.599529 0.6043243 5.643618
v -1.888243 5.739339 6
v -5.732999 0.6673862 6
v -1.754773 5.676278 6.356382
v -5.599529 0.6043243 6.356382
v -1.432547 5.524033 6.504
v -5.277303 0.4520798 6.504
v -1.110321 5.371789 6.356382
v -4.955077 0.2998352 6.356382
v -0.9768503 5.308727 6
v -4.821607 0.2367734 6
v -1.110321 5.371789 5.643618
v -4.955077 0.2998352 5.643618
vt 0.02990417 0.5730506
vt 0.04496258 0.5780694
vt 0.03492297 0.5780694
vt 0.04998137 0.5730506
vt 0.02990417 0.5630109
vt 0.04998137 0.5630109
vt 0.04496258 0.5579922
vt 0.03492297 0.5579922
vt 0.03602694 0.5473343
vt 0.03687923 0.57366
vt 0.03602694 0.57366
vt 0.03687923 0.5473343
vt 0.04028891 0.57366
vt 0.04028891 0.5473343
vt 0.04199348 0.57366
vt 0.04199345 0.5473343
vt 0.04540314 0.57366
vt 0.04540314 0.5473343
vt 0.04710771 0.57366
vt 0.04710771 0.5473343
vt 0.0505174 0.57366
vt 0.0505174 0.5473343
vt 0.05222197 0.57366
vt 0.05222197 0.5473343
vt 0.05563159 0.57366
vt 0.05563159 0.5473343
vt 0.04593539 0.5855469
vt 0.05116523 0.5823001
vt 0.05020094 0.5855469
vt 0.05020094 0.5812812
vt 0.05020094 0.5661453
vt 0.05116522 0.5652353
vt 0.05020094 0.5618794
vt 0.04593537 0.5618794
vt 0.03079902 0.5618794
vt 0.04689974 0.5609697
vt 0.0298348 0.5609697
vt 0.02653345 0.5618794
vt 0.02653345 0.566145
vt 0.02653345 0.5812814
vt 0.02556923 0.5652352
vt 0.02556923 0.5823001
vt 0.02653345 0.5855469
vt 0.03079906 0.5855469
vt 0.02983471 0.5865657
vt 0.04689957 0.5865657
vt 0.1262992 0.5694627
vt 0.1305139 0.574612
vt 0.1262992 0.5741438
vt 0.1309827 0.5741438
vt 0.148782 0.5741438
vt 0.1492486 0.574612
vt 0.1534634 0.5741438
vt 0.1534634 0.5694607
vt 0.1445652 0.5699285
vt 0.1351973 0.5699285
vt 0.1492482 0.5652456
vt 0.1305143 0.5652455
vt 0.1492482 0.5558777
vt 0.1262992 0.5516632
vt 0.1305143 0.5558776
vt 0.1351974 0.5511947
vt 0.1534634 0.5516626
vt 0.1539317 0.5699289
vt 0.1539317 0.5511937
vt 0.1534634 0.5469795
vt 0.1487799 0.5469795
vt 0.1445652 0.5511947
vt 0.1309787 0.5469795
vt 0.1492487 0.5465112
vt 0.1305139 0.5465112
vt 0.1258309 0.5511941
vt 0.1258309 0.5699289
vt 0.1262992 0.5469795
vt 0.1887966 0.5650463
vt 0.134612 0.5700457
vt 0.134612 0.5650463
vt 0.1887965 0.5700457
vt 0.134612 0.575045
vt 0.1887965 0.575045
vt 0.134612 0.5800444
vt 0.1887965 0.5800444
vt 0.134612 0.5850438
vt 0.1887965 0.5850438
vt 0.134612 0.5900432
vt 0.1887965 0.5900432
vt 0.134612 0.5950426
vt 0.1887965 0.5950426
vt 0.1346121 0.600042
vt 0.1887965 0.600042
vt 0.1346121 0.6050414
vt 0.1887966 0.6050414
vt 0.02990417 0.5730506
vt 0.03492297 0.5780694
vt 0.04496258 0.5780694
vt 0.04998137 0.5730506
vt 0.02990417 0.5630109
vt 0.04998137 0.5630109
vt 0.04496258 0.5579922
vt 0.03492297 0.5579922
vt 0.03602694 0.5473343
vt 0.03602694 0.57366
vt 0.03687923 0.57366
vt 0.03687923 0.5473343
vt 0.04028891 0.57366
vt 0.04028891 0.5473343
vt 0.04199348 0.57366
vt 0.04199345 0.5473343
vt 0.04540314 0.57366
vt 0.04540314 0.5473343
vt 0.04710771 0.57366
vt 0.04710771 0.5473343
vt 0.0505174 0.57366
vt 0.0505174 0.5473343
vt 0.05222197 0.57366
vt 0.05222197 0.5473343
vt 0.05563159 0.57366
vt 0.05563159 0.5473343
vt 0.04593539 0.5855469
vt 0.05020094 0.5855469
vt 0.05116523 0.5823001
vt 0.05020094 0.5812812
vt 0.05020094 0.5661453
vt 0.05116522 0.5652353
vt 0.05020094 0.5618794
vt 0.04593537 0.5618794
vt 0.03079902 0.5618794
vt 0.04689974 0.5609697
vt 0.0298348 0.5609697
vt 0.02653345 0.5618794
vt 0.02653345 0.566145
vt 0.02653345 0.5812814
vt 0.02556923 0.5652352
vt 0.02556923 0.5823001
vt 0.02653345 0.5855469
vt 0.03079906 0.5855469
vt 0.02983471 0.5865657
vt 0.04689957 0.5865657
vt 0.1262992 0.5694627
vt 0.1262992 0.5741438
vt 0.1305139 0.574612
vt 0.1309827 0.5741438
vt 0.148782 0.5741438
vt 0.1492486 0.574612
vt 0.1534634 0.5741438
vt 0.1534634 0.5694607
vt 0.1445652 0.5699285
vt 0.1351973 0.5699285
vt 0.1492482 0.5652456
vt 0.1305143 0.5652455
vt 0.1492482 0.5558777
vt 0.1262992 0.5516632
vt 0.1305143 0.5558776
vt 0.1351974 0.5511947
vt 0.1534634 0.5516626
vt 0.1539317 0.5699289
vt 0.1539317 0.5511937
vt 0.1534634 0.5469795
vt 0.1487799 0.5469795
vt 0.1445652 0.5511947
vt 0.1309787 0.5469795
vt 0.1492487 0.5465112
vt 0.1305139 0.5465112
vt 0.1258309 0.5511941
vt 0.1258309 0.5699289
vt 0.1262992 0.5469795
vt 0.1887966 0.5650463
vt 0.134612 0.5650463
vt 0.134612 0.5700457
vt 0.1887965 0.5700457
vt 0.134612 0.575045
vt 0.1887965 0.575045
vt 0.134612 0.5800444
vt 0.1887965 0.5800444
vt 0.134612 0.5850438
vt 0.1887965 0.5850438
vt 0.134612 0.5900432
vt 0.1887965 0.5900432
vt 0.134612 0.5950426
vt 0.1887965 0.5950426
vt 0.1346121 0.600042
vt 0.1887965 0.600042
vt 0.1346121 0.6050414
vt 0.1887966 0.6050414
vn 0 1 0
vn 0 1 0
vn 0 1 0
vn 0 1 0
vn 0 1 0
vn 0 1 0
vn 0 1 0
vn 0 1 0
vn -0.8672423 -0.4037736 -0.2913035
vn -0.3874607 0.3997957 -0.830685
vn -0.8675944 0.4036674 -0.2904005
vn -0.3866498 -0.3995965 -0.8311585
vn 0.3874606 0.3997962 -0.8306848
vn 0.3866496 -0.399597 -0.8311585
vn 0.8675911 0.4036744 -0.2904008
vn 0.867241 -0.4037763 -0.2913034
vn 0.867591 0.4036748 0.2904007
vn 0.8672408 -0.4037767 0.2913035
vn 0.3874603 0.3997949 0.8306856
vn 0.3866493 -0.399598 0.831158
vn -0.3874605 0.3997941 0.8306859
vn -0.3866497 -0.3995973 0.8311582
vn -0.8675944 0.4036675 0.2904006
vn -0.8672423 -0.4037736 0.2913033
vn -0.8675944 0.4036674 -0.2904005
vn -0.8672423 -0.4037736 -0.2913035
vn -0.1931982 -0.8733003 0.4472371
vn -0.8672423 -0.4037736 0.2913033
vn -0.3866497 -0.3995973 0.8311582
vn -0.343637 -0.9323607 0.112325
vn -0.3436371 -0.9323607 -0.1123252
vn -0.8672423 -0.4037736 -0.2913035
vn -0.3866498 -0.3995965 -0.8311585
vn -0.1931983 -0.8732999 -0.4472379
vn 0.193198 -0.8733002 -0.4472373
vn -0.3866498 -0.3995965 -0.8311585
vn 0.3866496 -0.399597 -0.8311585
vn 0.867241 -0.4037763 -0.2913034
vn 0.3436346 -0.9323618 -0.1123246
vn 0.3436344 -0.9323619 0.1123245
vn 0.867241 -0.4037763 -0.2913034
vn 0.8672408 -0.4037767 0.2913035
vn 0.3866493 -0.399598 0.831158
vn 0.1931976 -0.8733008 0.4472363
vn 0.3866493 -0.399598 0.831158
vn -0.3866497 -0.3995973 0.8311582
vn 0.3441765 0.9322574 -0.1115285
vn 0.3874606 0.3997962 -0.8306848
vn 0.8675911 0.4036744 -0.2904008
vn 0.1452243 0.9313195 -0.3339968
vn -0.1452245 0.9313193 -0.3339974
vn -0.3874607 0.3997957 -0.830685
vn -0.8675944 0.4036674 -0.2904005
vn -0.3441828 0.932255 -0.1115294
vn 0 1 0
vn 0 1 0
vn 0 1 0
vn 0 1 0
vn 0 1 0
vn 0.3441763 0.9322575 0.1115283
vn 0 1 0
vn 0 1 0
vn -0.3441828 0.932255 0.1115294
vn -0.8675944 0.4036674 -0.2904005
vn -0.8675944 0.4036675 0.2904006
vn -0.3874605 0.3997941 0.8306859
vn -0.1452246 0.9313188 0.3339988
vn 0 1 0
vn 0.1452243 0.9313191 0.333998
vn -0.3874605 0.3997941 0.8306859
vn 0.3874603 0.3997949 0.8306856
vn 0.867591 0.4036748 0.2904007
vn 0.8675911 0.4036744 -0.2904008
vn 0.3874603 0.3997949 0.8306856
vn -0.5677954 -0.430413 -0.7016787
vn 0 0 -1
vn -0.5677954 -0.430413 -0.7016787
vn 0 0 -1
vn 0.5677957 0.4304132 -0.7016783
vn 0.5677957 0.4304132 -0.7016783
vn 0.796913 0.604094 0
vn 0.796913 0.604094 0
vn 0.5677957 0.4304132 0.7016783
vn 0.5677957 0.4304132 0.7016783
vn 0 0 1
vn 0 0 1
vn -0.5677954 -0.430413 0.7016787
vn -0.5677954 -0.430413 0.7016787
vn -0.796913 -0.604094 0
vn -0.796913 -0.604094 0
vn -0.5677954 -0.430413 -0.7016787
vn -0.5677954 -0.430413 -0.7016787
vn 0 1 0
vn 0 1 0
vn 0 1 0
vn 0 1 0
vn 0 1 0
vn 0 1 0
vn 0 1 0
vn 0 1 0
vn 0.8672423 -0.4037736 -0.2913035
vn 0.8675944 0.4036674 -0.2904005
vn 0.3874607 0.3997957 -0.830685
vn 0.3866498 -0.3995965 -0.8311585
vn -0.3874606 0.3997962 -0.8306848
vn -0.3866496 -0.399597 -0.8311585
vn -0.8675911 0.4036744 -0.2904008
vn -0.867241 -0.4037763 -0.2913034
vn -0.867591 0.4036748 0.2904007
vn -0.8672408 -0.4037767 0.2913035
vn -0.3874603 0.3997949 0.8306856
vn -0.3866493 -0.399598 0.831158
vn 0.3874605 0.3997941 0.8306859
vn 0.3866497 -0.3995973 0.8311582
vn 0.8675944 0.4036675 0.2904006
vn 0.8672423 -0.4037736 0.2913033
vn 0.8675944 0.4036674 -0.2904005
vn 0.8672423 -0.4037736 -0.2913035
vn 0.1931982 -0.8733003 0.4472371
vn 0.3866497 -0.3995973 0.8311582
vn 0.8672423 -0.4037736 0.2913033
vn 0.343637 -0.9323607 0.112325
vn 0.3436371 -0.9323607 -0.1123252
vn 0.8672423 -0.4037736 -0.2913035
vn 0.3866498 -0.3995965 -0.8311585
vn 0.1931983 -0.8732999 -0.4472379
vn -0.193198 -0.8733002 -0.4472373
vn 0.3866498 -0.3995965 -0.8311585
vn -0.3866496 -0.399597 -0.8311585
vn -0.867241 -0.4037763 -0.2913034
vn -0.3436346 -0.9323618 -0.1123246
vn -0.3436344 -0.9323619 0.1123245
vn -0.867241 -0.4037763 -0.2913034
vn -0.8672408 -0.4037767 0.2913035
vn -0.3866493 -0.399598 0.831158
vn -0.1931976 -0.8733008 0.4472363
vn -0.3866493 -0.399598 0.831158
vn 0.3866497 -0.3995973 0.8311582
vn -0.3441765 0.9322574 -0.1115285
vn -0.8675911 0.4036744 -0.2904008
vn -0.3874606 0.3997962 -0.8306848
vn -0.1452243 0.9313195 -0.3339968
vn 0.1452245 0.9313193 -0.3339974
vn 0.3874607 0.3997957 -0.830685
vn 0.8675944 0.4036674 -0.2904005
vn 0.3441828 0.932255 -0.1115294
vn 0 1 0
vn 0 1 0
vn 0 1 0
vn 0 1 0
vn 0 1 0
vn -0.3441763 0.9322575 0.1115283
vn 0 1 0
vn 0 1 0
vn 0.3441828 0.932255 0.1115294
vn 0.8675944 0.4036674 -0.2904005
vn 0.8675944 0.4036675 0.2904006
vn 0.3874605 0.3997941 0.8306859
vn 0.1452246 0.9313188 0.3339988
vn 0 1 0
vn -0.1452243 0.9313191 0.333998
vn 0.3874605 0.3997941 0.8306859
vn -0.3874603 0.3997949 0.8306856
vn -0.867591 0.4036748 0.2904007
vn -0.8675911 0.4036744 -0.2904008
vn -0.3874603 0.3997949 0.8306856
vn 0.5677954 -0.430413 -0.7016787
vn 0.5677954 -0.430413 -0.7016787
vn 0 0 -1
vn 0 0 -1
vn -0.5677957 0.4304132 -0.7016783
vn -0.5677957 0.4304132 -0.7016783
vn -0.796913 0.604094 0
vn -0.796913 0.604094 0
vn -0.5677957 0.4304132 0.7016783
vn -0.5677957 0.4304132 0.7016783
vn 0 0 1
vn 0 0 1
vn 0.5677954 -0.430413 0.7016787
vn 0.5677954 -0.430413 0.7016787
vn 0.796913 -0.604094 0
vn 0.796913 -0.604094 0
vn 0.5677954 -0.430413 -0.7016787
vn 0.5677954 -0.430413 -0.7016787
g SwivelLegs_Silver_0
f 3/3/3 2/2/2 1/1/1
f 2/2/2 4/4/4 1/1/1
f 1/1/1 4/4/4 5/5/5
f 4/4/4 6/6/6 5/5/5
f 5/5/5 6/6/6 7/7/7
f 8/8/8 5/5/5 7/7/7
f 11/11/11 10/10/10 9/9/9
f 10/10/10 12/12/12 9/9/9
f 12/12/12 10/10/10 13/13/13
f 14/14/14 12/12/12 13/13/13
f 13/13/13 15/15/15 14/14/14
f 15/15/15 16/16/16 14/14/14
f 16/16/16 15/15/15 17/17/17
f 18/18/18 16/16/16 17/17/17
f 17/17/17 19/19/19 18/18/18
f 19/19/19 20/20/20 18/18/18
f 20/20/20 19/19/19 21/21/21
f 22/22/22 20/20/20 21/21/21
f 21/21/21 23/23/23 22/22/22
f 23/23/23 24/24/24 22/22/22
f 24/24/24 23/23/23 25/25/25
f 26/26/26 24/24/24 25/25/25
f 29/29/29 28/28/28 27/27/27
f 28/28/28 30/30/30 27/27/27
f 30/30/30 28/28/28 31/31/31
f 28/28/28 32/32/32 31/31/31
f 32/32/32 33/33/33 31/31/31
f 33/33/33 34/34/34 31/31/31
f 34/34/34 35/35/35 31/31/31
f 35/35/35 34/34/34 36/36/36
f 37/37/37 35/35/35 36/36/36
f 37/37/37 38/38/38 35/35/35
f 38/38/38 39/39/39 35/35/35
f 35/35/35 39/39/39 31/31/31
f 31/31/31 39/39/39 30/30/30
f 39/39/39 40/40/40 30/30/30
f 40/40/40 39/39/39 41/41/41
f 42/42/42 40/40/40 41/41/41
f 42/42/42 43/43/43 40/40/40
f 43/43/43 44/44/44 40/40/40
f 30/30/30 40/40/40 44/44/44
f 27/27/27 30/30/30 44/44/44
f 27/27/27 44/44/44 45/45/45
f 46/46/46 27/27/27 45/45/45
f 49/49/49 48/48/48 47/47/47
f 48/48/48 50/50/50 47/47/47
f 50/50/50 48/48/48 51/51/51
f 48/48/48 52/52/52 51/51/51
f 52/52/52 53/53/53 51/51/51
f 53/53/53 54/54/54 51/51/51
f 51/51/51 55/55/55 50/50/50
f 55/55/55 51/51/51 54/54/54
f 55/55/55 56/56/56 50/50/50
f 57/57/57 55/55/55 54/54/54
f 56/56/56 58/58/58 50/50/50
f 58/58/58 47/47/47 50/50/50
f 59/59/59 57/57/57 54/54/54
f 47/47/47 58/58/58 60/60/60
f 58/58/58 61/61/61 60/60/60
f 61/61/61 62/62/62 60/60/60
f 63/63/63 59/59/59 54/54/54
f 63/63/63 54/54/54 64/64/64
f 65/65/65 63/63/63 64/64/64
f 65/65/65 66/66/66 63/63/63
f 66/66/66 67/67/67 63/63/63
f 59/59/59 63/63/63 67/67/67
f 68/68/68 59/59/59 67/67/67
f 62/62/62 68/68/68 67/67/67
f 69/69/69 62/62/62 67/67/67
f 62/62/62 69/69/69 60/60/60
f 67/67/67 70/70/70 69/69/69
f 70/70/70 71/71/71 69/69/69
f 60/60/60 72/72/72 47/47/47
f 72/72/72 60/60/60 69/69/69
f 72/72/72 73/73/73 47/47/47
f 74/74/74 72/72/72 69/69/69
f 77/77/77 76/76/76 75/75/75
f 76/76/76 78/78/78 75/75/75
f 76/76/76 79/79/79 78/78/78
f 79/79/79 80/80/80 78/78/78
f 79/79/79 81/81/81 80/80/80
f 81/81/81 82/82/82 80/80/80
f 81/81/81 83/83/83 82/82/82
f 83/83/83 84/84/84 82/82/82
f 83/83/83 85/85/85 84/84/84
f 85/85/85 86/86/86 84/84/84
f 85/85/85 87/87/87 86/86/86
f 87/87/87 88/88/88 86/86/86
f 87/87/87 89/89/89 88/88/88
f 89/89/89 90/90/90 88/88/88
f 89/89/89 91/91/91 90/90/90
f 91/91/91 92/92/92 90/90/90
f 95/95/95 94/94/94 93/93/93
f 96/96/96 95/95/95 93/93/93
f 96/96/96 93/93/93 97/97/97
f 98/98/98 96/96/96 97/97/97
f 98/98/98 97/97/97 99/99/99
f 97/97/97 100/100/100 99/99/99
f 103/103/103 102/102/102 101/101/101
f 104/104/104 103/103/103 101/101/101
f 103/103/103 104/104/104 105/105/105
f 104/104/104 106/106/106 105/105/105
f 107/107/107 105/105/105 106/106/106
f 108/108/108 107/107/107 106/106/106
f 107/107/107 108/108/108 109/109/109
f 108/108/108 110/110/110 109/109/109
f 111/111/111 109/109/109 110/110/110
f 112/112/112 111/111/111 110/110/110
f 111/111/111 112/112/112 113/113/113
f 112/112/112 114/114/114 113/113/113
f 115/115/115 113/113/113 114/114/114
f 116/116/116 115/115/115 114/114/114
f 115/115/115 116/116/116 117/117/117
f 116/116/116 118/118/118 117/117/117
f 121/121/121 120/120/120 119/119/119
f 122/122/122 121/121/121 119/119/119
f 121/121/121 122/122/122 123/123/123
f 124/124/124 121/121/121 123/123/123
f 125/125/125 124/124/124 123/123/123
f 126/126/126 125/125/125 123/123/123
f 127/127/127 126/126/126 123/123/123
f 126/126/126 127/127/127 128/128/128
f 127/127/127 129/129/129 128/128/128
f 130/130/130 129/129/129 127/127/127
f 131/131/131 130/130/130 127/127/127
f 131/131/131 127/127/127 123/123/123
f 131/131/131 123/123/123 122/122/122
f 132/132/132 131/131/131 122/122/122
f 131/131/131 132/132/132 133/133/133
f 132/132/132 134/134/134 133/133/133
f 135/135/135 134/134/134 132/132/132
f 136/136/136 135/135/135 132/132/132
f 132/132/132 122/122/122 136/136/136
f 122/122/122 119/119/119 136/136/136
f 136/136/136 119/119/119 137/137/137
f 119/119/119 138/138/138 137/137/137
f 141/141/141 140/140/140 139/139/139
f 142/142/142 141/141/141 139/139/139
f 141/141/141 142/142/142 143/143/143
f 144/144/144 141/141/141 143/143/143
f 145/145/145 144/144/144 143/143/143
f 146/146/146 145/145/145 143/143/143
f 147/147/147 143/143/143 142/142/142
f 143/143/143 147/147/147 146/146/146
f 148/148/148 147/147/147 142/142/142
f 147/147/147 149/149/149 146/146/146
f 150/150/150 148/148/148 142/142/142
f 139/139/139 150/150/150 142/142/142
f 149/149/149 151/151/151 146/146/146
f 150/150/150 139/139/139 152/152/152
f 153/153/153 150/150/150 152/152/152
f 154/154/154 153/153/153 152/152/152
f 151/151/151 155/155/155 146/146/146
f 146/146/146 155/155/155 156/156/156
f 155/155/155 157/157/157 156/156/156
f 158/158/158 157/157/157 155/155/155
f 159/159/159 158/158/158 155/155/155
f 155/155/155 151/151/151 159/159/159
f 151/151/151 160/160/160 159/159/159
f 160/160/160 154/154/154 159/159/159
f 154/154/154 161/161/161 159/159/159
f 161/161/161 154/154/154 152/152/152
f 162/162/162 159/159/159 161/161/161
f 163/163/163 162/162/162 161/161/161
f 164/164/164 152/152/152 139/139/139
f 152/152/152 164/164/164 161/161/161
f 165/165/165 164/164/164 139/139/139
f 164/164/164 166/166/166 161/161/161
f 169/169/169 168/168/168 167/167/167
f 170/170/170 169/169/169 167/167/167
f 171/171/171 169/169/169 170/170/170
f 172/172/172 171/171/171 170/170/170
f 173/173/173 171/171/171 172/172/172
f 174/174/174 173/173/173 172/172/172
f 175/175/175 173/173/173 174/174/174
f 176/176/176 175/175/175 174/174/174
f 177/177/177 175/175/175 176/176/176
f 178/178/178 177/177/177 176/176/176
f 179/179/179 177/177/177 178/178/178
f 180/180/180 179/179/179 178/178/178
f 181/181/181 179/179/179 180/180/180
f 182/182/182 181/181/181 180/180/180
f 183/183/183 181/181/181 182/182/182
f 184/184/184 183/183/183 182/182/182
