g SwivelLegs_Blue
v 6.20432 -5.830252 -0.0494342
v 4.714568 -5.830252 -0.6809521
v 5.710417 -5.830252 -0.6809521
v 4.220665 -5.830252 -0.0494342
v 6.20432 -5.830252 0.6819153
v 4.220665 -5.830252 0.6819153
v 4.714568 -5.830252 1.313433
v 5.710417 -5.830252 1.313433
v 3.809857 -6.644266 -0.3750647
v 4.370148 -5.891827 -1.097722
v 3.809857 -5.891827 -0.3750647
v 4.370148 -6.644266 -1.097722
v 6.054839 -5.891827 -1.097722
v 6.054839 -6.644266 -1.097722
v 6.61513 -5.891827 -0.3750647
v 6.61513 -6.644266 -0.3750647
v 6.61513 -5.891827 1.007546
v 6.61513 -6.644266 1.007546
v 6.054839 -5.891827 1.730203
v 6.054839 -6.644266 1.730203
v 4.370148 -5.891827 1.730203
v 4.370148 -6.644266 1.730203
v 3.809857 -5.891827 1.007546
v 3.809857 -6.644266 1.007546
v 3.809857 -5.891827 -0.3750647
v 3.809857 -6.644266 -0.3750647
v 4.496803 -6.783457 1.623668
v 3.809857 -6.644266 1.007546
v 4.370148 -6.644266 1.730203
v 3.936512 -6.783457 0.9294208
v 3.936514 -6.783457 -0.2969409
v 3.809857 -6.644266 -0.3750647
v 4.370148 -6.644266 -1.097722
v 4.496804 -6.783457 -0.9911878
v 5.928184 -6.783457 -0.9911878
v 4.370148 -6.644266 -1.097722
v 6.054839 -6.644266 -1.097722
v 6.61513 -6.644266 -0.3750647
v 6.488472 -6.783457 -0.2969403
v 6.488472 -6.783457 0.9294214
v 6.61513 -6.644266 -0.3750647
v 6.61513 -6.644266 1.007546
v 6.054839 -6.644266 1.730203
v 5.928184 -6.783457 1.623668
v 6.054839 -6.644266 1.730203
v 4.370148 -6.644266 1.730203
v 6.559099 -5.830252 -0.3405041
v 6.054839 -5.891827 -1.097722
v 6.61513 -5.891827 -0.3750647
v 5.998812 -5.830252 -1.050593
v 4.426178 -5.830252 -1.050593
v 4.370148 -5.891827 -1.097722
v 3.809857 -5.891827 -0.3750647
v 3.865885 -5.830252 -0.3405041
v 4.714568 -5.830252 -0.6809521
v 5.710417 -5.830252 -0.6809521
v 4.220665 -5.830252 -0.0494342
v 6.20432 -5.830252 -0.0494342
v 4.220665 -5.830252 0.6819153
v 6.559099 -5.830252 0.9729846
v 6.20432 -5.830252 0.6819153
v 5.710417 -5.830252 1.313433
v 3.865885 -5.830252 0.9729852
v 3.809857 -5.891827 -0.3750647
v 3.809857 -5.891827 1.007546
v 4.370148 -5.891827 1.730203
v 4.426178 -5.830252 1.683075
v 4.714568 -5.830252 1.313433
v 5.998812 -5.830252 1.683075
v 4.370148 -5.891827 1.730203
v 6.054839 -5.891827 1.730203
v 6.61513 -5.891827 1.007546
v 6.61513 -5.891827 -0.3750647
v 6.054839 -5.891827 1.730203
v 4.955077 -6.483623 -0.0401416
v 1.432547 -1.259425 -0.18776
v 1.110321 -1.411669 -0.0401416
v 5.277303 -6.331378 -0.18776
v 1.754773 -1.10718 -0.0401416
v 5.599529 -6.179134 -0.0401416
v 1.888243 -1.044119 0.3162402
v 5.732999 -6.116072 0.3162402
v 1.754773 -1.10718 0.6726221
v 5.599529 -6.179134 0.6726221
v 1.432547 -1.259425 0.8202404
v 5.277303 -6.331378 0.8202404
v 1.110321 -1.411669 0.6726221
v 4.955077 -6.483623 0.6726221
v 0.9768503 -1.474731 0.3162402
v 4.821607 -6.546684 0.3162402
v 1.110321 -1.411669 -0.0401416
v 4.955077 -6.483623 -0.0401416
v -6.20432 -5.830252 -0.0494342
v -5.710417 -5.830252 -0.6809521
v -4.714568 -5.830252 -0.6809521
v -4.220665 -5.830252 -0.0494342
v -6.20432 -5.830252 0.6819153
v -4.220665 -5.830252 0.6819153
v -4.714568 -5.830252 1.313433
v -5.710417 -5.830252 1.313433
v -3.809857 -6.644266 -0.3750647
v -3.809857 -5.891827 -0.3750647
v -4.370148 -5.891827 -1.097722
v -4.370148 -6.644266 -1.097722
v -6.054839 -5.891827 -1.097722
v -6.054839 -6.644266 -1.097722
v -6.61513 -5.891827 -0.3750647
v -6.61513 -6.644266 -0.3750647
v -6.61513 -5.891827 1.007546
v -6.61513 -6.644266 1.007546
v -6.054839 -5.891827 1.730203
v -6.054839 -6.644266 1.730203
v -4.370148 -5.891827 1.730203
v -4.370148 -6.644266 1.730203
v -3.809857 -5.891827 1.007546
v -3.809857 -6.644266 1.007546
v -3.809857 -5.891827 -0.3750647
v -3.809857 -6.644266 -0.3750647
v -4.496803 -6.783457 1.623668
v -4.370148 -6.644266 1.730203
v -3.809857 -6.644266 1.007546
v -3.936512 -6.783457 0.9294208
v -3.936514 -6.783457 -0.2969409
v -3.809857 -6.644266 -0.3750647
v -4.370148 -6.644266 -1.097722
v -4.496804 -6.783457 -0.9911878
v -5.928184 -6.783457 -0.9911878
v -4.370148 -6.644266 -1.097722
v -6.054839 -6.644266 -1.097722
v -6.61513 -6.644266 -0.3750647
v -6.488472 -6.783457 -0.2969403
v -6.488472 -6.783457 0.9294214
v -6.61513 -6.644266 -0.3750647
v -6.61513 -6.644266 1.007546
v -6.054839 -6.644266 1.730203
v -5.928184 -6.783457 1.623668
v -6.054839 -6.644266 1.730203
v -4.370148 -6.644266 1.730203
v -6.559099 -5.830252 -0.3405041
v -6.61513 -5.891827 -0.3750647
v -6.054839 -5.891827 -1.097722
v -5.998812 -5.830252 -1.050593
v -4.426178 -5.830252 -1.050593
v -4.370148 -5.891827 -1.097722
v -3.809857 -5.891827 -0.3750647
v -3.865885 -5.830252 -0.3405041
v -4.714568 -5.830252 -0.6809521
v -5.710417 -5.830252 -0.6809521
v -4.220665 -5.830252 -0.0494342
v -6.20432 -5.830252 -0.0494342
v -4.220665 -5.830252 0.6819153
v -6.559099 -5.830252 0.9729846
v -6.20432 -5.830252 0.6819153
v -5.710417 -5.830252 1.313433
v -3.865885 -5.830252 0.9729852
v -3.809857 -5.891827 -0.3750647
v -3.809857 -5.891827 1.007546
v -4.370148 -5.891827 1.730203
v -4.426178 -5.830252 1.683075
v -4.714568 -5.830252 1.313433
v -5.998812 -5.830252 1.683075
v -4.370148 -5.891827 1.730203
v -6.054839 -5.891827 1.730203
v -6.61513 -5.891827 1.007546
v -6.61513 -5.891827 -0.3750647
v -6.054839 -5.891827 1.730203
v -4.955077 -6.483623 -0.0401416
v -1.110321 -1.411669 -0.0401416
v -1.432547 -1.259425 -0.18776
v -5.277303 -6.331378 -0.18776
v -1.754773 -1.10718 -0.0401416
v -5.599529 -6.179134 -0.0401416
v -1.888243 -1.044119 0.3162402
v -5.732999 -6.116072 0.3162402
v -1.754773 -1.10718 0.6726221
v -5.599529 -6.179134 0.6726221
v -1.432547 -1.259425 0.8202404
v -5.277303 -6.331378 0.8202404
v -1.110321 -1.411669 0.6726221
v -4.955077 -6.483623 0.6726221
v -0.9768503 -1.474731 0.3162402
v -4.821607 -6.546684 0.3162402
v -1.110321 -1.411669 -0.0401416
v -4.955077 -6.483623 -0.0401416
vt 0.5218878 0.4585055
vt 0.5369463 0.4635243
vt 0.5269067 0.4635243
vt 0.5419651 0.4585055
vt 0.5218878 0.4484658
vt 0.5419651 0.4484658
vt 0.5369463 0.4434471
vt 0.5269067 0.4434471
vt 0.5280106 0.4327891
vt 0.5288629 0.4591148
vt 0.5280106 0.4591148
vt 0.5288629 0.4327891
vt 0.5322726 0.4591148
vt 0.5322726 0.4327891
vt 0.5339772 0.4591148
vt 0.5339772 0.4327891
vt 0.5373868 0.4591148
vt 0.5373868 0.4327891
vt 0.5390914 0.4591148
vt 0.5390914 0.4327891
vt 0.5425011 0.4591148
vt 0.5425011 0.4327891
vt 0.5442057 0.4591148
vt 0.5442057 0.4327891
vt 0.5476153 0.4591148
vt 0.5476153 0.4327891
vt 0.5379191 0.4710018
vt 0.5431489 0.467755
vt 0.5421847 0.4710018
vt 0.5421847 0.4667361
vt 0.5421847 0.4516002
vt 0.5431489 0.4506902
vt 0.5421847 0.4473343
vt 0.537919 0.4473343
vt 0.5227827 0.4473343
vt 0.5388834 0.4464246
vt 0.5218185 0.4464246
vt 0.5185171 0.4473343
vt 0.5185171 0.4515999
vt 0.5185171 0.4667363
vt 0.5175529 0.4506901
vt 0.5175529 0.467755
vt 0.5185171 0.4710018
vt 0.5227827 0.4710018
vt 0.5218184 0.4720206
vt 0.5388833 0.4720206
vt 0.6182829 0.4549176
vt 0.6224976 0.4600669
vt 0.6182829 0.4595987
vt 0.6229664 0.4595987
vt 0.6407657 0.4595987
vt 0.6412323 0.4600669
vt 0.6454471 0.4595987
vt 0.6454471 0.4549156
vt 0.6365489 0.4553834
vt 0.627181 0.4553834
vt 0.6412319 0.4507005
vt 0.622498 0.4507004
vt 0.6412319 0.4413326
vt 0.6182829 0.4371181
vt 0.622498 0.4413325
vt 0.6271811 0.4366496
vt 0.6454471 0.4371175
vt 0.6459154 0.4553838
vt 0.6459154 0.4366486
vt 0.6454471 0.4324344
vt 0.6407635 0.4324344
vt 0.6365489 0.4366496
vt 0.6229624 0.4324344
vt 0.6412324 0.4319661
vt 0.6224976 0.4319661
vt 0.6178145 0.436649
vt 0.6178145 0.4553838
vt 0.6182829 0.4324344
vt 0.6807802 0.4505012
vt 0.6265957 0.4555006
vt 0.6265957 0.4505012
vt 0.6807802 0.4555006
vt 0.6265957 0.4604999
vt 0.6807802 0.4604999
vt 0.6265957 0.4654993
vt 0.6807802 0.4654993
vt 0.6265957 0.4704987
vt 0.6807802 0.4704987
vt 0.6265957 0.4754981
vt 0.6807802 0.4754981
vt 0.6265957 0.4804975
vt 0.6807802 0.4804975
vt 0.6265957 0.4854969
vt 0.6807802 0.4854969
vt 0.6265957 0.4904963
vt 0.6807802 0.4904963
vt 0.5218878 0.4585055
vt 0.5269067 0.4635243
vt 0.5369463 0.4635243
vt 0.5419651 0.4585055
vt 0.5218878 0.4484658
vt 0.5419651 0.4484658
vt 0.5369463 0.4434471
vt 0.5269067 0.4434471
vt 0.5280106 0.4327891
vt 0.5280106 0.4591148
vt 0.5288629 0.4591148
vt 0.5288629 0.4327891
vt 0.5322726 0.4591148
vt 0.5322726 0.4327891
vt 0.5339772 0.4591148
vt 0.5339772 0.4327891
vt 0.5373868 0.4591148
vt 0.5373868 0.4327891
vt 0.5390914 0.4591148
vt 0.5390914 0.4327891
vt 0.5425011 0.4591148
vt 0.5425011 0.4327891
vt 0.5442057 0.4591148
vt 0.5442057 0.4327891
vt 0.5476153 0.4591148
vt 0.5476153 0.4327891
vt 0.5379191 0.4710018
vt 0.5421847 0.4710018
vt 0.5431489 0.467755
vt 0.5421847 0.4667361
vt 0.5421847 0.4516002
vt 0.5431489 0.4506902
vt 0.5421847 0.4473343
vt 0.537919 0.4473343
vt 0.5227827 0.4473343
vt 0.5388834 0.4464246
vt 0.5218185 0.4464246
vt 0.5185171 0.4473343
vt 0.5185171 0.4515999
vt 0.5185171 0.4667363
vt 0.5175529 0.4506901
vt 0.5175529 0.467755
vt 0.5185171 0.4710018
vt 0.5227827 0.4710018
vt 0.5218184 0.4720206
vt 0.5388833 0.4720206
vt 0.6182829 0.4549176
vt 0.6182829 0.4595987
vt 0.6224976 0.4600669
vt 0.6229664 0.4595987
vt 0.6407657 0.4595987
vt 0.6412323 0.4600669
vt 0.6454471 0.4595987
vt 0.6454471 0.4549156
vt 0.6365489 0.4553834
vt 0.627181 0.4553834
vt 0.6412319 0.4507005
vt 0.622498 0.4507004
vt 0.6412319 0.4413326
vt 0.6182829 0.4371181
vt 0.622498 0.4413325
vt 0.6271811 0.4366496
vt 0.6454471 0.4371175
vt 0.6459154 0.4553838
vt 0.6459154 0.4366486
vt 0.6454471 0.4324344
vt 0.6407635 0.4324344
vt 0.6365489 0.4366496
vt 0.6229624 0.4324344
vt 0.6412324 0.4319661
vt 0.6224976 0.4319661
vt 0.6178145 0.436649
vt 0.6178145 0.4553838
vt 0.6182829 0.4324344
vt 0.6807802 0.4505012
vt 0.6265957 0.4505012
vt 0.6265957 0.4555006
vt 0.6807802 0.4555006
vt 0.6265957 0.4604999
vt 0.6807802 0.4604999
vt 0.6265957 0.4654993
vt 0.6807802 0.4654993
vt 0.6265957 0.4704987
vt 0.6807802 0.4704987
vt 0.6265957 0.4754981
vt 0.6807802 0.4754981
vt 0.6265957 0.4804975
vt 0.6807802 0.4804975
vt 0.6265957 0.4854969
vt 0.6807802 0.4854969
vt 0.6265957 0.4904963
vt 0.6807802 0.4904963
vn 0 1 0
vn 0 1 1.12709E-07
vn 0 1 1.127094E-07
vn 0 1 0
vn 0 1 0
vn 0 1 1.052586E-07
vn 0 1 2.043815E-07
vn 0 1 0
vn -0.9556559 -0.1360731 -0.2611626
vn -0.3121386 0.05741782 -0.9482999
vn -0.9635 0.06649141 -0.2593194
vn -0.3177521 -0.118369 -0.9407563
vn 0.3121383 0.05741836 -0.9482999
vn 0.317752 -0.1183696 -0.9407563
vn 0.9635 0.06649321 -0.2593192
vn 0.9556556 -0.1360749 -0.2611626
vn 0.9634999 0.06649309 0.2593194
vn 0.9556556 -0.1360749 0.2611628
vn 0.3121381 0.05741801 0.9483
vn 0.3177517 -0.1183698 0.9407564
vn -0.3121386 0.05741765 0.9482999
vn -0.3177517 -0.1183693 0.9407564
vn -0.9635 0.0664915 0.2593194
vn -0.9556558 -0.1360732 0.2611631
vn -0.9635 0.06649141 -0.2593194
vn -0.9556559 -0.1360731 -0.2611626
vn -0.04169818 -0.9862433 0.1599543
vn -0.9556558 -0.1360732 0.2611631
vn -0.3177517 -0.1183693 0.9407564
vn -0.07735861 -0.9968172 0.01926932
vn -0.07735842 -0.9968172 -0.01926951
vn -0.9556559 -0.1360731 -0.2611626
vn -0.3177521 -0.118369 -0.9407563
vn -0.04169812 -0.9862432 -0.1599552
vn 0.04169824 -0.9862432 -0.1599552
vn -0.3177521 -0.118369 -0.9407563
vn 0.317752 -0.1183696 -0.9407563
vn 0.9556556 -0.1360749 -0.2611626
vn 0.07735835 -0.9968172 -0.01926946
vn 0.0773584 -0.9968172 0.01926934
vn 0.9556556 -0.1360749 -0.2611626
vn 0.9556556 -0.1360749 0.2611628
vn 0.3177517 -0.1183698 0.9407564
vn 0.04169822 -0.9862433 0.1599542
vn 0.3177517 -0.1183698 0.9407564
vn -0.3177517 -0.1183693 0.9407564
vn 0.193879 0.9799039 -0.04689543
vn 0.3121383 0.05741836 -0.9482999
vn 0.9635 0.06649321 -0.2593192
vn 0.0562023 0.9738926 -0.2199421
vn -0.05620141 0.9738923 -0.2199433
vn -0.3121386 0.05741782 -0.9482999
vn -0.9635 0.06649141 -0.2593194
vn -0.1938807 0.9799036 -0.04689576
vn 0 1 1.12709E-07
vn 0 1 1.127094E-07
vn 0 1 0
vn 0 1 0
vn 0 1 1.052586E-07
vn 0.1938792 0.9799039 0.04689474
vn 0 1 0
vn 0 1 0
vn -0.193881 0.9799036 0.04689546
vn -0.9635 0.06649141 -0.2593194
vn -0.9635 0.0664915 0.2593194
vn -0.3121386 0.05741765 0.9482999
vn -0.05620151 0.9738922 0.2199438
vn 0 1 2.043815E-07
vn 0.05620217 0.9738925 0.2199426
vn -0.3121386 0.05741765 0.9482999
vn 0.3121381 0.05741801 0.9483
vn 0.9634999 0.06649309 0.2593194
vn 0.9635 0.06649321 -0.2593192
vn 0.3121381 0.05741801 0.9483
vn -0.5500659 -0.4169733 -0.7235751
vn -0.04101681 -0.03109249 -0.9986746
vn -0.5897258 -0.4470373 -0.6725928
vn 0.04101663 0.03109234 -0.9986746
vn 0.5500662 0.4169735 -0.7235745
vn 0.589726 0.4470374 -0.6725926
vn 0.7969131 0.6040939 0
vn 0.796913 0.604094 0
vn 0.5500661 0.4169736 0.7235746
vn 0.589726 0.4470374 0.6725926
vn -0.04101677 -0.03109245 0.9986746
vn 0.0410166 0.03109238 0.9986746
vn -0.5897258 -0.4470373 0.6725928
vn -0.5500659 -0.4169734 0.723575
vn -0.796913 -0.604094 0
vn -0.796913 -0.604094 0
vn -0.5897258 -0.4470373 -0.6725928
vn -0.5500659 -0.4169733 -0.7235751
vn 0 1 0
vn 0 1 0
vn 0 1 0
vn 0 1 0
vn 0 1 0
vn 0 1 0
vn 0 1 0
vn 0 1 0
vn 0.9556559 -0.1360731 -0.2611626
vn 0.9635 0.06649144 -0.2593194
vn 0.3121387 0.05741792 -0.9482999
vn 0.317752 -0.1183689 -0.9407563
vn -0.3121383 0.05741846 -0.9482999
vn -0.317752 -0.1183695 -0.9407563
vn -0.9635 0.06649317 -0.2593191
vn -0.9556557 -0.1360749 -0.2611625
vn -0.9634999 0.06649309 0.2593194
vn -0.9556556 -0.1360749 0.2611627
vn -0.3121382 0.05741816 0.9483
vn -0.3177517 -0.1183699 0.9407564
vn 0.3121386 0.05741769 0.9482999
vn 0.3177517 -0.1183693 0.9407564
vn 0.9635 0.06649147 0.2593194
vn 0.9556558 -0.1360732 0.261163
vn 0.9635 0.06649144 -0.2593194
vn 0.9556559 -0.1360731 -0.2611626
vn 0.04169818 -0.9862433 0.1599543
vn 0.3177517 -0.1183693 0.9407564
vn 0.9556558 -0.1360732 0.261163
vn 0.07735861 -0.9968172 0.01926939
vn 0.07735842 -0.9968172 -0.0192695
vn 0.9556559 -0.1360731 -0.2611626
vn 0.317752 -0.1183689 -0.9407563
vn 0.04169811 -0.9862431 -0.1599558
vn -0.04169826 -0.9862431 -0.1599557
vn 0.317752 -0.1183689 -0.9407563
vn -0.317752 -0.1183695 -0.9407563
vn -0.9556557 -0.1360749 -0.2611625
vn -0.07735835 -0.9968172 -0.01926942
vn -0.07735837 -0.9968172 0.01926944
vn -0.9556557 -0.1360749 -0.2611625
vn -0.9556556 -0.1360749 0.2611627
vn -0.3177517 -0.1183699 0.9407564
vn -0.04169819 -0.9862433 0.1599542
vn -0.3177517 -0.1183699 0.9407564
vn 0.3177517 -0.1183693 0.9407564
vn -0.1938795 0.9799039 -0.0468954
vn -0.9635 0.06649317 -0.2593191
vn -0.3121383 0.05741846 -0.9482999
vn -0.05620232 0.9738926 -0.2199425
vn 0.05620145 0.9738922 -0.2199437
vn 0.3121387 0.05741792 -0.9482999
vn 0.9635 0.06649144 -0.2593194
vn 0.1938806 0.9799036 -0.04689592
vn 0 1 0
vn 0 1 0
vn 0 1 0
vn 0 1 0
vn 0 1 0
vn -0.1938796 0.9799039 0.04689531
vn 0 1 0
vn 0 1 0
vn 0.1938808 0.9799036 0.04689551
vn 0.9635 0.06649144 -0.2593194
vn 0.9635 0.06649147 0.2593194
vn 0.3121386 0.05741769 0.9482999
vn 0.05620148 0.9738923 0.2199436
vn 0 1 0
vn -0.05620216 0.9738925 0.2199427
vn 0.3121386 0.05741769 0.9482999
vn -0.3121382 0.05741816 0.9483
vn -0.9634999 0.06649309 0.2593194
vn -0.9635 0.06649317 -0.2593191
vn -0.3121382 0.05741816 0.9483
vn 0.5500658 -0.4169732 -0.7235752
vn 0.5897258 -0.4470372 -0.672593
vn 0.04101682 -0.03109246 -0.9986746
vn -0.04101659 0.03109233 -0.9986746
vn -0.5500662 0.4169735 -0.7235746
vn -0.589726 0.4470375 -0.6725926
vn -0.7969131 0.604094 0
vn -0.7969131 0.604094 0
vn -0.5500661 0.4169736 0.7235746
vn -0.589726 0.4470374 0.6725926
vn 0.0410166 -0.03109235 0.9986746
vn -0.04101676 0.03109246 0.9986746
vn 0.5897257 -0.4470372 0.672593
vn 0.5500658 -0.4169733 0.7235751
vn 0.7969131 -0.604094 0
vn 0.7969131 -0.604094 0
vn 0.5897258 -0.4470372 -0.672593
vn 0.5500658 -0.4169732 -0.7235752
g SwivelLegs_Blue_0
f 3/3/3 2/2/2 1/1/1
f 2/2/2 4/4/4 1/1/1
f 1/1/1 4/4/4 5/5/5
f 4/4/4 6/6/6 5/5/5
f 5/5/5 6/6/6 7/7/7
f 8/8/8 5/5/5 7/7/7
f 11/11/11 10/10/10 9/9/9
f 10/10/10 12/12/12 9/9/9
f 12/12/12 10/10/10 13/13/13
f 14/14/14 12/12/12 13/13/13
f 13/13/13 15/15/15 14/14/14
f 15/15/15 16/16/16 14/14/14
f 16/16/16 15/15/15 17/17/17
f 18/18/18 16/16/16 17/17/17
f 17/17/17 19/19/19 18/18/18
f 19/19/19 20/20/20 18/18/18
f 20/20/20 19/19/19 21/21/21
f 22/22/22 20/20/20 21/21/21
f 21/21/21 23/23/23 22/22/22
f 23/23/23 24/24/24 22/22/22
f 24/24/24 23/23/23 25/25/25
f 26/26/26 24/24/24 25/25/25
f 29/29/29 28/28/28 27/27/27
f 28/28/28 30/30/30 27/27/27
f 30/30/30 28/28/28 31/31/31
f 28/28/28 32/32/32 31/31/31
f 32/32/32 33/33/33 31/31/31
f 33/33/33 34/34/34 31/31/31
f 34/34/34 35/35/35 31/31/31
f 35/35/35 34/34/34 36/36/36
f 37/37/37 35/35/35 36/36/36
f 37/37/37 38/38/38 35/35/35
f 38/38/38 39/39/39 35/35/35
f 35/35/35 39/39/39 31/31/31
f 31/31/31 39/39/39 30/30/30
f 39/39/39 40/40/40 30/30/30
f 40/40/40 39/39/39 41/41/41
f 42/42/42 40/40/40 41/41/41
f 42/42/42 43/43/43 40/40/40
f 43/43/43 44/44/44 40/40/40
f 30/30/30 40/40/40 44/44/44
f 27/27/27 30/30/30 44/44/44
f 27/27/27 44/44/44 45/45/45
f 46/46/46 27/27/27 45/45/45
f 49/49/49 48/48/48 47/47/47
f 48/48/48 50/50/50 47/47/47
f 50/50/50 48/48/48 51/51/51
f 48/48/48 52/52/52 51/51/51
f 52/52/52 53/53/53 51/51/51
f 53/53/53 54/54/54 51/51/51
f 51/51/51 55/55/55 50/50/50
f 55/55/55 51/51/51 54/54/54
f 55/55/55 56/56/56 50/50/50
f 57/57/57 55/55/55 54/54/54
f 56/56/56 58/58/58 50/50/50
f 58/58/58 47/47/47 50/50/50
f 59/59/59 57/57/57 54/54/54
f 47/47/47 58/58/58 60/60/60
f 58/58/58 61/61/61 60/60/60
f 61/61/61 62/62/62 60/60/60
f 63/63/63 59/59/59 54/54/54
f 63/63/63 54/54/54 64/64/64
f 65/65/65 63/63/63 64/64/64
f 65/65/65 66/66/66 63/63/63
f 66/66/66 67/67/67 63/63/63
f 59/59/59 63/63/63 67/67/67
f 68/68/68 59/59/59 67/67/67
f 62/62/62 68/68/68 67/67/67
f 69/69/69 62/62/62 67/67/67
f 62/62/62 69/69/69 60/60/60
f 67/67/67 70/70/70 69/69/69
f 70/70/70 71/71/71 69/69/69
f 60/60/60 72/72/72 47/47/47
f 72/72/72 60/60/60 69/69/69
f 72/72/72 73/73/73 47/47/47
f 74/74/74 72/72/72 69/69/69
f 77/77/77 76/76/76 75/75/75
f 76/76/76 78/78/78 75/75/75
f 76/76/76 79/79/79 78/78/78
f 79/79/79 80/80/80 78/78/78
f 79/79/79 81/81/81 80/80/80
f 81/81/81 82/82/82 80/80/80
f 81/81/81 83/83/83 82/82/82
f 83/83/83 84/84/84 82/82/82
f 83/83/83 85/85/85 84/84/84
f 85/85/85 86/86/86 84/84/84
f 85/85/85 87/87/87 86/86/86
f 87/87/87 88/88/88 86/86/86
f 87/87/87 89/89/89 88/88/88
f 89/89/89 90/90/90 88/88/88
f 89/89/89 91/91/91 90/90/90
f 91/91/91 92/92/92 90/90/90
f 95/95/95 94/94/94 93/93/93
f 96/96/96 95/95/95 93/93/93
f 96/96/96 93/93/93 97/97/97
f 98/98/98 96/96/96 97/97/97
f 98/98/98 97/97/97 99/99/99
f 97/97/97 100/100/100 99/99/99
f 103/103/103 102/102/102 101/101/101
f 104/104/104 103/103/103 101/101/101
f 103/103/103 104/104/104 105/105/105
f 104/104/104 106/106/106 105/105/105
f 107/107/107 105/105/105 106/106/106
f 108/108/108 107/107/107 106/106/106
f 107/107/107 108/108/108 109/109/109
f 108/108/108 110/110/110 109/109/109
f 111/111/111 109/109/109 110/110/110
f 112/112/112 111/111/111 110/110/110
f 111/111/111 112/112/112 113/113/113
f 112/112/112 114/114/114 113/113/113
f 115/115/115 113/113/113 114/114/114
f 116/116/116 115/115/115 114/114/114
f 115/115/115 116/116/116 117/117/117
f 116/116/116 118/118/118 117/117/117
f 121/121/121 120/120/120 119/119/119
f 122/122/122 121/121/121 119/119/119
f 121/121/121 122/122/122 123/123/123
f 124/124/124 121/121/121 123/123/123
f 125/125/125 124/124/124 123/123/123
f 126/126/126 125/125/125 123/123/123
f 127/127/127 126/126/126 123/123/123
f 126/126/126 127/127/127 128/128/128
f 127/127/127 129/129/129 128/128/128
f 130/130/130 129/129/129 127/127/127
f 131/131/131 130/130/130 127/127/127
f 131/131/131 127/127/127 123/123/123
f 131/131/131 123/123/123 122/122/122
f 132/132/132 131/131/131 122/122/122
f 131/131/131 132/132/132 133/133/133
f 132/132/132 134/134/134 133/133/133
f 135/135/135 134/134/134 132/132/132
f 136/136/136 135/135/135 132/132/132
f 132/132/132 122/122/122 136/136/136
f 122/122/122 119/119/119 136/136/136
f 136/136/136 119/119/119 137/137/137
f 119/119/119 138/138/138 137/137/137
f 141/141/141 140/140/140 139/139/139
f 142/142/142 141/141/141 139/139/139
f 141/141/141 142/142/142 143/143/143
f 144/144/144 141/141/141 143/143/143
f 145/145/145 144/144/144 143/143/143
f 146/146/146 145/145/145 143/143/143
f 147/147/147 143/143/143 142/142/142
f 143/143/143 147/147/147 146/146/146
f 148/148/148 147/147/147 142/142/142
f 147/147/147 149/149/149 146/146/146
f 150/150/150 148/148/148 142/142/142
f 139/139/139 150/150/150 142/142/142
f 149/149/149 151/151/151 146/146/146
f 150/150/150 139/139/139 152/152/152
f 153/153/153 150/150/150 152/152/152
f 154/154/154 153/153/153 152/152/152
f 151/151/151 155/155/155 146/146/146
f 146/146/146 155/155/155 156/156/156
f 155/155/155 157/157/157 156/156/156
f 158/158/158 157/157/157 155/155/155
f 159/159/159 158/158/158 155/155/155
f 155/155/155 151/151/151 159/159/159
f 151/151/151 160/160/160 159/159/159
f 160/160/160 154/154/154 159/159/159
f 154/154/154 161/161/161 159/159/159
f 161/161/161 154/154/154 152/152/152
f 162/162/162 159/159/159 161/161/161
f 163/163/163 162/162/162 161/161/161
f 164/164/164 152/152/152 139/139/139
f 152/152/152 164/164/164 161/161/161
f 165/165/165 164/164/164 139/139/139
f 164/164/164 166/166/166 161/161/161
f 169/169/169 168/168/168 167/167/167
f 170/170/170 169/169/169 167/167/167
f 171/171/171 169/169/169 170/170/170
f 172/172/172 171/171/171 170/170/170
f 173/173/173 171/171/171 172/172/172
f 174/174/174 173/173/173 172/172/172
f 175/175/175 173/173/173 174/174/174
f 176/176/176 175/175/175 174/174/174
f 177/177/177 175/175/175 176/176/176
f 178/178/178 177/177/177 176/176/176
f 179/179/179 177/177/177 178/178/178
f 180/180/180 179/179/179 178/178/178
f 181/181/181 179/179/179 180/180/180
f 182/182/182 181/181/181 180/180/180
f 183/183/183 181/181/181 182/182/182
f 184/184/184 183/183/183 182/182/182
