g SwordB
v 1.240401 -1.422671 -1.80829
v 0.9035674 -0.6894324 -1.211526
v 0.7220513 -0.8693531 -1.194597
v -0.7818909 1.285951 1.149922
v -0.9563856 1.029305 1.161251
v -0.6453522 1.227704 1.289794
v 0.9423949 -0.7059949 -1.171751
v 0.9440466 -1.039415 -1.226867
v -0.7718689 0.9505944 1.350273
v 1.240401 -1.422671 -1.80829
v 0.9035674 -0.6894324 -1.211526
v -1.436291 1.95577 2.397115
v -1.623456 2.274509 2.393283
v -1.602262 2.026571 2.227091
v -1.496285 2.220261 2.523559
v -1.845976 2.299217 2.620789
v -1.718806 2.244968 2.751064
v -2.028176 2.047518 2.693832
v -1.901005 1.993269 2.824109
v -1.860682 1.716864 2.669648
v -1.987853 1.771112 2.539371
v -1.634717 1.681654 2.476665
v -1.800688 1.752455 2.306641
v -0.9967505 1.383915 1.317735
v -0.4223621 1.683846 1.198414
v -0.7842603 1.29327 1.535413
v -0.5004578 1.717159 1.118411
v -0.3641376 1.59808 1.105862
v -0.4422327 1.631394 1.02586
v -0.7818909 1.285951 1.149922
v -0.6453522 1.227704 1.289794
v -0.4422327 1.631394 1.02586
v -0.5004578 1.717159 1.118411
v -0.9967505 1.383915 1.317735
v -0.7818909 1.285951 1.149922
v -0.9563856 1.029305 1.161251
v -1.248793 1.035731 1.418779
v -1.129597 0.8056102 1.289318
v -1.354665 0.3709117 1.391658
v -1.427977 0.435836 1.490258
v -0.7842603 1.29327 1.535413
v -0.4223621 1.683846 1.198414
v -0.3641376 1.59808 1.105862
v -0.6453522 1.227704 1.289794
v -0.7718689 0.9505944 1.350273
v -1.036303 0.9450866 1.636458
v -0.9930585 0.7473644 1.429191
v -1.27657 0.3375987 1.47166
v -1.349882 0.4025231 1.570261
v 1.240401 -1.422671 -1.80829
v 0.7220513 -0.8693531 -1.194597
v 0.6188906 -1.0827 -1.097398
v -1.129597 0.8056102 1.289318
v -0.9563856 1.029305 1.161251
v -0.9930585 0.7473644 1.429191
v 0.6577178 -1.099263 -1.057622
v -0.7718689 0.9505944 1.350273
v 0.9440466 -1.039415 -1.226867
v 1.240401 -1.422671 -1.80829
v 0.6188906 -1.0827 -1.097398
v -1.036303 0.9450866 1.636458
v -1.427977 0.435836 1.490258
v -1.248793 1.035731 1.418779
v -1.349882 0.4025231 1.570261
v -1.27657 0.3375987 1.47166
v -1.354665 0.3709117 1.391658
v -1.129597 0.8056102 1.289318
v -0.9930585 0.7473644 1.429191
v -1.805655 2.02281 2.466327
v -1.800688 1.752455 2.306641
v -1.602262 2.026571 2.227091
v -1.623456 2.274509 2.393283
v -1.987853 1.771112 2.539371
v -1.845976 2.299217 2.620789
v -2.028176 2.047518 2.693832
v -1.496285 2.220261 2.523559
v -1.436291 1.95577 2.397115
v -1.678484 1.968562 2.596603
v -1.718806 2.244968 2.751064
v -1.634717 1.681654 2.476665
v -1.901005 1.993269 2.824109
v -1.860682 1.716864 2.669648
v -1.436291 1.95577 2.397115
v -1.602262 2.026571 2.227091
v -0.9967505 1.383915 1.317735
v -1.800688 1.752455 2.306641
v -0.7842603 1.29327 1.535413
v -1.248793 1.035731 1.418779
v -1.036303 0.9450866 1.636458
v -1.634717 1.681654 2.476665
vt 0.8378397 0.2765781
vt 0.8509014 0.2884438
vt 0.8508072 0.2765781
vt 0.8729404 0.2834533
vt 0.8729404 0.2765781
vt 0.8729404 0.2834533
vt 0.8509014 0.2884438
vt 0.8508072 0.2765781
vt 0.8729404 0.2765781
vt 0.8378397 0.2765781
vt 0.8509014 0.2884438
vt 0.8853965 0.2883175
vt 0.8835205 0.2877671
vt 0.8853965 0.2883175
vt 0.8835205 0.2877671
vt 0.8816444 0.2882393
vt 0.8816444 0.2882393
vt 0.8816444 0.2891838
vt 0.8816444 0.2891838
vt 0.8835205 0.289656
vt 0.8835205 0.289656
vt 0.8853965 0.2891056
vt 0.8853965 0.2891056
vt 0.8836397 0.2869191
vt 0.8836397 0.2905399
vt 0.8836397 0.2869191
vt 0.8836397 0.2905399
vt 0.8836397 0.290414
vt 0.8836397 0.290414
vt 0.8836397 0.2870921
vt 0.8836397 0.2870921
vt 0.9248438 0.2915446
vt 0.9260878 0.2915882
vt 0.9272632 0.2896008
vt 0.9248362 0.2902873
vt 0.9249535 0.2889081
vt 0.9272632 0.2882153
vt 0.9248362 0.2875288
vt 0.9248438 0.2862716
vt 0.9260878 0.2862279
vt 0.9272569 0.2896008
vt 0.9260812 0.2915882
vt 0.9248372 0.2915446
vt 0.9248297 0.2902873
vt 0.9249957 0.2889081
vt 0.9272568 0.2882153
vt 0.9248297 0.2875288
vt 0.9248372 0.2862716
vt 0.9260812 0.2862279
vt 0.8704776 0.2765781
vt 0.8834448 0.2765781
vt 0.883539 0.2897216
vt 0.9055778 0.2838121
vt 0.9055778 0.2765781
vt 0.9055778 0.2838121
vt 0.883539 0.2897216
vt 0.9055778 0.2765781
vt 0.8834448 0.2765781
vt 0.8704776 0.2765781
vt 0.883539 0.2897216
vt 0.8836397 0.286928
vt 0.8836397 0.2905487
vt 0.8836397 0.286928
vt 0.8836397 0.2905487
vt 0.8836397 0.2904229
vt 0.8836397 0.2904229
vt 0.8836397 0.287101
vt 0.8836397 0.287101
vt 0.9261526 0.288627
vt 0.9253193 0.2893811
vt 0.9269859 0.2893811
vt 0.9281499 0.288627
vt 0.9241553 0.288627
vt 0.9271512 0.2878729
vt 0.925154 0.2878729
vt 0.9281499 0.288627
vt 0.9269859 0.2893811
vt 0.9261526 0.288627
vt 0.9271512 0.2878729
vt 0.9253193 0.2893811
vt 0.925154 0.2878729
vt 0.9241553 0.288627
vt 0.9568368 0.3337641
vt 0.9568368 0.3337641
vt 0.9149342 0.3337641
vt 0.9568368 0.3337641
vt 0.9149342 0.3337641
vt 0.9149342 0.3337641
vt 0.9149342 0.3337641
vt 0.9568368 0.3337641
vn 0.4744984 -0.5442529 -0.6918382
vn 0.06729539 0.6860538 -0.7244319
vn -0.6435633 0.2565934 -0.7211007
vn -0.08081768 0.3493159 -0.9335132
vn -0.6183808 0.2295078 -0.7516192
vn 0.9820094 -0.1060383 0.156248
vn 0.9353728 0.3145612 0.1616452
vn 0.6954345 -0.3161354 0.6453134
vn 0.7138436 -0.338882 0.6128509
vn 0.4744984 -0.5442529 -0.6918382
vn 0.06729539 0.6860538 -0.7244319
vn 0.9256217 0.07563484 0.3708151
vn -0.1308774 0.7154836 -0.6862612
vn -0.2156432 0.5623636 -0.7982764
vn 0.8901021 0.2799487 0.3596486
vn -0.5887455 0.7827716 -0.2016116
vn 0.4233502 0.3510265 0.8351976
vn -0.9624293 0.2665454 -0.05180041
vn 0.04966647 -0.1651997 0.9850088
vn 0.1520083 -0.7396917 0.6555529
vn -0.8689708 -0.3041569 -0.3903565
vn 0.351227 -0.7178634 0.6010922
vn -0.7899209 -0.230973 -0.5680461
vn -0.5047281 0.5929624 -0.6274113
vn 0.6133387 0.7128469 0.3400955
vn 0.7501011 0.05618092 0.6589324
vn 0.02389253 0.9642963 -0.2637458
vn 0.9945765 -0.09610157 0.03977668
vn 0.02987686 0.3154254 -0.94848
vn -0.08081768 0.3493159 -0.9335132
vn 0.9820094 -0.1060383 0.156248
vn 0.02987686 0.3154254 -0.94848
vn 0.02389253 0.9642963 -0.2637458
vn -0.5047281 0.5929624 -0.6274113
vn -0.08081768 0.3493159 -0.9335132
vn -0.6183808 0.2295078 -0.7516192
vn -0.873531 0.08347952 -0.479557
vn -0.5864942 -0.3492517 -0.7307857
vn -0.5213348 -0.4460472 -0.7274971
vn -0.9286619 -0.3516116 0.1181369
vn 0.7501011 0.05618092 0.6589324
vn 0.6133387 0.7128469 0.3400955
vn 0.9945765 -0.09610157 0.03977668
vn 0.9820094 -0.1060383 0.156248
vn 0.7138436 -0.338882 0.6128509
vn 0.3828679 -0.4511339 0.8061579
vn 0.4783608 -0.8018043 0.358163
vn 0.443365 -0.8575733 0.2607596
vn -0.3392152 -0.6030598 0.7219778
vn 0.4744984 -0.5442529 -0.6918382
vn -0.6435633 0.2565934 -0.7211007
vn -0.783416 -0.4891628 -0.3833786
vn -0.5864942 -0.3492517 -0.7307857
vn -0.6183808 0.2295078 -0.7516192
vn 0.4783608 -0.8018043 0.358163
vn 0.08489175 -0.8603373 0.5026063
vn 0.7138436 -0.338882 0.6128509
vn 0.6954345 -0.3161354 0.6453134
vn 0.4744984 -0.5442529 -0.6918382
vn -0.783416 -0.4891628 -0.3833786
vn 0.3828679 -0.4511339 0.8061579
vn -0.9286619 -0.3516116 0.1181369
vn -0.873531 0.08347952 -0.479557
vn -0.3392152 -0.6030598 0.7219778
vn 0.443365 -0.8575733 0.2607596
vn -0.5213348 -0.4460472 -0.7274971
vn -0.5864942 -0.3492517 -0.7307857
vn 0.4783608 -0.8018043 0.358163
vn -0.6694384 0.2855726 -0.6857846
vn -0.7899209 -0.230973 -0.5680461
vn -0.2156432 0.5623636 -0.7982764
vn -0.1308774 0.7154836 -0.6862612
vn -0.8689708 -0.3041569 -0.3903565
vn -0.5887455 0.7827716 -0.2016116
vn -0.9624293 0.2665454 -0.05180041
vn 0.8901021 0.2799487 0.3596486
vn 0.9256217 0.07563484 0.3708151
vn 0.6694384 -0.2855725 0.6857848
vn 0.4233502 0.3510265 0.8351976
vn 0.351227 -0.7178634 0.6010922
vn 0.04966647 -0.1651997 0.9850088
vn 0.1520083 -0.7396917 0.6555529
vn 0.9256217 0.07563484 0.3708151
vn -0.2156432 0.5623636 -0.7982764
vn -0.5047281 0.5929624 -0.6274113
vn -0.7899209 -0.230973 -0.5680461
vn 0.7501011 0.05618092 0.6589324
vn -0.873531 0.08347952 -0.479557
vn 0.3828679 -0.4511339 0.8061579
vn 0.351227 -0.7178634 0.6010922
g SwordB_0
f 3/3/3 2/2/2 1/1/1
f 4/4/4 2/2/2 3/3/3
f 5/5/5 4/4/4 3/3/3
f 2/2/2 4/4/4 6/6/6
f 7/7/7 2/2/2 6/6/6
f 8/8/8 7/7/7 6/6/6
f 9/9/9 8/8/8 6/6/6
f 10/10/10 7/7/7 8/8/8
f 10/10/10 11/11/11 7/7/7
f 14/14/14 13/13/13 12/12/12
f 13/13/13 15/15/15 12/12/12
f 13/13/13 16/16/16 15/15/15
f 16/16/16 17/17/17 15/15/15
f 16/16/16 18/18/18 17/17/17
f 18/18/18 19/19/19 17/17/17
f 19/19/19 18/18/18 20/20/20
f 18/18/18 21/21/21 20/20/20
f 20/20/20 21/21/21 22/22/22
f 21/21/21 23/23/23 22/22/22
f 26/26/26 25/25/25 24/24/24
f 25/25/25 27/27/27 24/24/24
f 25/25/25 28/28/28 27/27/27
f 28/28/28 29/29/29 27/27/27
f 29/29/29 28/28/28 30/30/30
f 28/28/28 31/31/31 30/30/30
f 34/34/34 33/33/33 32/32/32
f 35/35/35 34/34/34 32/32/32
f 34/34/34 35/35/35 36/36/36
f 36/36/36 37/37/37 34/34/34
f 38/38/38 37/37/37 36/36/36
f 38/38/38 39/39/39 37/37/37
f 39/39/39 40/40/40 37/37/37
f 43/43/43 42/42/42 41/41/41
f 44/44/44 43/43/43 41/41/41
f 44/44/44 41/41/41 45/45/45
f 41/41/41 46/46/46 45/45/45
f 46/46/46 47/47/47 45/45/45
f 47/47/47 46/46/46 48/48/48
f 46/46/46 49/49/49 48/48/48
f 52/52/52 51/51/51 50/50/50
f 52/52/52 53/53/53 51/51/51
f 53/53/53 54/54/54 51/51/51
f 53/53/53 52/52/52 55/55/55
f 52/52/52 56/56/56 55/55/55
f 55/55/55 56/56/56 57/57/57
f 56/56/56 58/58/58 57/57/57
f 56/56/56 59/59/59 58/58/58
f 60/60/60 59/59/59 56/56/56
f 63/63/63 62/62/62 61/61/61
f 62/62/62 64/64/64 61/61/61
f 65/65/65 64/64/64 62/62/62
f 66/66/66 65/65/65 62/62/62
f 65/65/65 66/66/66 67/67/67
f 68/68/68 65/65/65 67/67/67
f 71/71/71 70/70/70 69/69/69
f 69/69/69 72/72/72 71/71/71
f 73/73/73 69/69/69 70/70/70
f 69/69/69 74/74/74 72/72/72
f 75/75/75 69/69/69 73/73/73
f 69/69/69 75/75/75 74/74/74
f 78/78/78 77/77/77 76/76/76
f 78/78/78 76/76/76 79/79/79
f 80/80/80 77/77/77 78/78/78
f 79/79/79 81/81/81 78/78/78
f 80/80/80 78/78/78 82/82/82
f 82/82/82 78/78/78 81/81/81
f 85/85/85 84/84/84 83/83/83
f 86/86/86 84/84/84 85/85/85
f 87/87/87 85/85/85 83/83/83
f 88/88/88 86/86/86 85/85/85
f 87/87/87 83/83/83 89/89/89
f 86/86/86 88/88/88 90/90/90
f 88/88/88 89/89/89 90/90/90
f 83/83/83 90/90/90 89/89/89
