g SwordA
v -1.304201 -0.8653767 -0.002972693
v -0.4175945 -0.6872249 -0.0250546
v -0.6065441 -0.4024604 -0.07547666
v 1.455104 0.6166081 -0.08793209
v 1.265767 0.8398747 -0.1187365
v 1.455104 0.6166081 0.08779299
v -0.4175945 -0.6872249 0.0249161
v -0.764815 -0.5074775 0.07533754
v 1.265767 0.8398747 0.1187372
v -1.304201 -0.8653767 -0.002972693
v -0.4175945 -0.6872249 -0.0250546
v 2.526689 1.496819 0.1067328
v 2.782551 1.516269 -0.08190427
v 2.52669 1.496819 -0.1068713
v 2.782552 1.516269 0.08176516
v 2.904978 1.762521 -0.08190427
v 2.904979 1.762521 0.08176516
v 2.75293 1.991672 -0.08190396
v 2.75293 1.991672 0.08176547
v 2.478455 1.97457 0.08176486
v 2.478455 1.974567 -0.08190427
v 2.361098 1.746379 0.1067325
v 2.361099 1.746379 -0.1068716
v 1.67697 0.8844426 -0.1368072
v 1.799492 0.4609563 0.05018465
v 1.67697 0.8844426 0.1366681
v 1.799492 0.4609563 -0.05032377
v 1.658524 0.379345 0.05018496
v 1.658524 0.379345 -0.05032346
v 1.455104 0.6166081 -0.08793209
v 1.455104 0.6166081 0.08779299
v 1.658524 0.379345 -0.05032346
v 1.799492 0.4609563 -0.05032377
v 1.67697 0.8844426 -0.1368072
v 1.455104 0.6166081 -0.08793209
v 1.265767 0.8398747 -0.1187365
v 1.466636 1.201435 -0.1368072
v 1.133632 1.101095 -0.08793209
v 0.9940729 1.380732 -0.05032346
v 1.124053 1.478903 -0.05032346
v 1.67697 0.8844426 0.1366681
v 1.799492 0.4609563 0.05018465
v 1.658524 0.379345 0.05018496
v 1.455104 0.6166081 0.08779299
v 1.265767 0.8398747 0.1187372
v 1.466636 1.201435 0.1366681
v 1.133632 1.101095 0.08779269
v 0.9940729 1.380732 0.05018496
v 1.124053 1.478903 0.05018496
v -1.304201 -0.8653767 -0.002972693
v -0.6065441 -0.4024604 -0.07547666
v -0.7954937 -0.1176973 -0.0250546
v 1.133632 1.101095 -0.08793209
v 1.265767 0.8398747 -0.1187365
v 1.133632 1.101095 0.08779269
v -0.7954937 -0.1176973 0.0249161
v 1.265767 0.8398747 0.1187372
v -0.764815 -0.5074775 0.07533754
v -1.304201 -0.8653767 -0.002972693
v -0.7954937 -0.1176973 -0.0250546
v 1.466636 1.201435 0.1366681
v 1.124053 1.478903 -0.05032346
v 1.466636 1.201435 -0.1368072
v 1.124053 1.478903 0.05018496
v 0.9940729 1.380732 0.05018496
v 0.9940729 1.380732 -0.05032346
v 1.133632 1.101095 -0.08793209
v 1.133632 1.101095 0.08779269
v 2.630503 1.745419 -0.08190427
v 2.361099 1.746379 -0.1068716
v 2.52669 1.496819 -0.1068713
v 2.782551 1.516269 -0.08190427
v 2.478455 1.974567 -0.08190427
v 2.904978 1.762521 -0.08190427
v 2.75293 1.991672 -0.08190396
v 2.782552 1.516269 0.08176516
v 2.526689 1.496819 0.1067328
v 2.630503 1.745419 0.08176486
v 2.904979 1.762521 0.08176516
v 2.361098 1.746379 0.1067325
v 2.75293 1.991672 0.08176547
v 2.478455 1.97457 0.08176486
v 2.526689 1.496819 0.1067328
v 2.52669 1.496819 -0.1068713
v 1.67697 0.8844426 -0.1368072
v 2.361099 1.746379 -0.1068716
v 1.67697 0.8844426 0.1366681
v 1.466636 1.201435 -0.1368072
v 1.466636 1.201435 0.1366681
v 2.361098 1.746379 0.1067325
vt 0.8999188 0.2841638
vt 0.9076818 0.2960625
vt 0.9076259 0.2841638
vt 0.9207803 0.2942612
vt 0.9207803 0.2841638
vt 0.9207803 0.2942612
vt 0.9076818 0.2960625
vt 0.9076259 0.2841638
vt 0.9207803 0.2841638
vt 0.8999188 0.2841638
vt 0.9076818 0.2960625
vt 0.8490689 0.3118583
vt 0.845519 0.3108169
vt 0.8490689 0.3118583
vt 0.845519 0.3108169
vt 0.8419692 0.3117104
vt 0.8419692 0.3117104
vt 0.8419692 0.3134975
vt 0.8419692 0.3134975
vt 0.845519 0.314391
vt 0.845519 0.314391
vt 0.8490689 0.3133495
vt 0.8490689 0.3133495
vt 0.8664905 0.3081901
vt 0.8664905 0.3175262
vt 0.8664905 0.3081901
vt 0.8664905 0.3175262
vt 0.8664905 0.3172018
vt 0.8664905 0.3172018
vt 0.8664905 0.3086363
vt 0.8664905 0.3086363
vt 0.8828949 0.31901
vt 0.8858318 0.3191129
vt 0.8886067 0.314421
vt 0.8828769 0.3160417
vt 0.8831538 0.3127856
vt 0.8886067 0.3111502
vt 0.8828769 0.3095295
vt 0.8828949 0.3065612
vt 0.8858317 0.3064583
vt 0.8885916 0.314421
vt 0.885816 0.3191129
vt 0.8828793 0.31901
vt 0.8828613 0.3160417
vt 0.8832536 0.3127856
vt 0.8885916 0.3111502
vt 0.8828613 0.3095295
vt 0.8828793 0.3065612
vt 0.885816 0.3064583
vt 0.9101041 0.2841638
vt 0.9178109 0.2841638
vt 0.9178668 0.2960625
vt 0.9309653 0.2942612
vt 0.9309653 0.2841638
vt 0.9309653 0.2942612
vt 0.9178668 0.2960625
vt 0.9309653 0.2841638
vt 0.9178109 0.2841638
vt 0.9101041 0.2841638
vt 0.9178668 0.2960625
vt 0.8664905 0.308213
vt 0.8664905 0.317549
vt 0.8664905 0.308213
vt 0.8664905 0.317549
vt 0.8664905 0.3172246
vt 0.8664905 0.3172246
vt 0.8664905 0.3086592
vt 0.8664905 0.3086592
vt 0.8853925 0.3123412
vt 0.8827074 0.314771
vt 0.8880776 0.314771
vt 0.8918279 0.3123412
vt 0.8789572 0.3123412
vt 0.8886102 0.3099114
vt 0.8821748 0.3099114
vt 0.8918279 0.3123412
vt 0.8880776 0.314771
vt 0.8853925 0.3123412
vt 0.8886102 0.3099114
vt 0.8827074 0.314771
vt 0.8821748 0.3099114
vt 0.8789572 0.3123412
vt 0.9021533 0.332931
vt 0.9021533 0.332931
vt 0.8951054 0.332931
vt 0.9021533 0.332931
vt 0.8951054 0.332931
vt 0.8951054 0.332931
vt 0.8951054 0.332931
vt 0.9021533 0.332931
vn -0.8332537 -0.5528891 -0.001381063
vn 0.2796468 -0.7087441 -0.6476724
vn -0.043733 -0.02901822 -0.9986217
vn -0.1019669 -0.5992435 -0.7940466
vn -0.08357037 -0.05545166 -0.9949579
vn -0.1032768 -0.5979808 0.7948288
vn 0.2771577 -0.7101537 0.6471981
vn -0.04746759 -0.03149626 0.9983761
vn -0.08377162 -0.05558525 0.9949334
vn -0.8332537 -0.5528891 -0.001381063
vn 0.2796468 -0.7087441 -0.6476724
vn 0.159296 -0.4981264 0.8523467
vn 0.3389423 -0.5510117 -0.7625642
vn 0.1592094 -0.4980609 -0.8524012
vn 0.3389422 -0.5510118 0.7625642
vn 0.6533864 0.04071201 -0.7559291
vn 0.6533864 0.04071201 0.7559291
vn 0.2914347 0.5862057 -0.7559291
vn 0.2914346 0.5862056 0.7559291
vn -0.3759781 0.5264375 0.7625641
vn -0.375978 0.5264376 -0.7625641
vn -0.3970647 0.3403599 0.8523467
vn -0.3970381 0.3402545 -0.8524012
vn 0.2864698 -0.1976172 -0.9374872
vn 0.7376509 -0.5119047 0.4402552
vn 0.2855369 -0.1965865 0.9379886
vn 0.7376503 -0.511906 -0.4402548
vn -0.1477622 -0.6774978 0.7205298
vn -0.1477623 -0.6774983 -0.7205292
vn -0.1019669 -0.5992435 -0.7940466
vn -0.1032768 -0.5979808 0.7948288
vn -0.1477623 -0.6774983 -0.7205292
vn 0.7376503 -0.511906 -0.4402548
vn 0.2864698 -0.1976172 -0.9374872
vn -0.1019669 -0.5992435 -0.7940466
vn -0.08357037 -0.05545166 -0.9949579
vn -0.07075369 0.3407512 -0.9374874
vn -0.5917672 0.1389296 -0.7940467
vn -0.6816685 0.1271458 -0.720529
vn -0.1849976 0.8786078 -0.4402547
vn 0.2855369 -0.1965865 0.9379886
vn 0.7376509 -0.5119047 0.4402552
vn -0.1477622 -0.6774978 0.7205298
vn -0.1032768 -0.5979808 0.7948288
vn -0.08377162 -0.05558525 0.9949334
vn -0.07016648 0.339491 0.9379886
vn -0.5911126 0.1372322 0.794829
vn -0.6816676 0.1271462 0.7205298
vn -0.1849962 0.8786079 0.4402551
vn -0.8332537 -0.5528891 -0.001381063
vn -0.043733 -0.02901822 -0.9986217
vn -0.5443556 0.5331017 -0.6476725
vn -0.5917672 0.1389296 -0.7940467
vn -0.08357037 -0.05545166 -0.9949579
vn -0.5911126 0.1372322 0.794829
vn -0.5466217 0.531356 0.6471982
vn -0.08377162 -0.05558525 0.9949334
vn -0.04746759 -0.03149626 0.9983761
vn -0.8332537 -0.5528891 -0.001381063
vn -0.5443556 0.5331017 -0.6476725
vn -0.07016648 0.339491 0.9379886
vn -0.1849976 0.8786078 -0.4402547
vn -0.07075369 0.3407512 -0.9374874
vn -0.1849962 0.8786079 0.4402551
vn -0.6816676 0.1271462 0.7205298
vn -0.6816685 0.1271458 -0.720529
vn -0.5917672 0.1389296 -0.7940467
vn -0.5911126 0.1372322 0.794829
vn 1.062464E-07 0 -1
vn -0.3970381 0.3402545 -0.8524012
vn 0.1592094 -0.4980609 -0.8524012
vn 0.3389423 -0.5510117 -0.7625642
vn -0.375978 0.5264376 -0.7625641
vn 0.6533864 0.04071201 -0.7559291
vn 0.2914347 0.5862057 -0.7559291
vn 0.3389422 -0.5510118 0.7625642
vn 0.159296 -0.4981264 0.8523467
vn 0 0 1
vn 0.6533864 0.04071201 0.7559291
vn -0.3970647 0.3403599 0.8523467
vn 0.2914346 0.5862056 0.7559291
vn -0.3759781 0.5264375 0.7625641
vn 0.159296 -0.4981264 0.8523467
vn 0.1592094 -0.4980609 -0.8524012
vn 0.2864698 -0.1976172 -0.9374872
vn -0.3970381 0.3402545 -0.8524012
vn 0.2855369 -0.1965865 0.9379886
vn -0.07075369 0.3407512 -0.9374874
vn -0.07016648 0.339491 0.9379886
vn -0.3970647 0.3403599 0.8523467
g SwordA_0
f 3/3/3 2/2/2 1/1/1
f 4/4/4 2/2/2 3/3/3
f 5/5/5 4/4/4 3/3/3
f 2/2/2 4/4/4 6/6/6
f 7/7/7 2/2/2 6/6/6
f 8/8/8 7/7/7 6/6/6
f 9/9/9 8/8/8 6/6/6
f 10/10/10 7/7/7 8/8/8
f 10/10/10 11/11/11 7/7/7
f 14/14/14 13/13/13 12/12/12
f 13/13/13 15/15/15 12/12/12
f 13/13/13 16/16/16 15/15/15
f 16/16/16 17/17/17 15/15/15
f 16/16/16 18/18/18 17/17/17
f 18/18/18 19/19/19 17/17/17
f 19/19/19 18/18/18 20/20/20
f 18/18/18 21/21/21 20/20/20
f 20/20/20 21/21/21 22/22/22
f 21/21/21 23/23/23 22/22/22
f 26/26/26 25/25/25 24/24/24
f 25/25/25 27/27/27 24/24/24
f 25/25/25 28/28/28 27/27/27
f 28/28/28 29/29/29 27/27/27
f 29/29/29 28/28/28 30/30/30
f 28/28/28 31/31/31 30/30/30
f 34/34/34 33/33/33 32/32/32
f 35/35/35 34/34/34 32/32/32
f 34/34/34 35/35/35 36/36/36
f 36/36/36 37/37/37 34/34/34
f 38/38/38 37/37/37 36/36/36
f 38/38/38 39/39/39 37/37/37
f 39/39/39 40/40/40 37/37/37
f 43/43/43 42/42/42 41/41/41
f 44/44/44 43/43/43 41/41/41
f 44/44/44 41/41/41 45/45/45
f 41/41/41 46/46/46 45/45/45
f 46/46/46 47/47/47 45/45/45
f 47/47/47 46/46/46 48/48/48
f 46/46/46 49/49/49 48/48/48
f 52/52/52 51/51/51 50/50/50
f 52/52/52 53/53/53 51/51/51
f 53/53/53 54/54/54 51/51/51
f 53/53/53 52/52/52 55/55/55
f 52/52/52 56/56/56 55/55/55
f 55/55/55 56/56/56 57/57/57
f 56/56/56 58/58/58 57/57/57
f 56/56/56 59/59/59 58/58/58
f 60/60/60 59/59/59 56/56/56
f 63/63/63 62/62/62 61/61/61
f 62/62/62 64/64/64 61/61/61
f 65/65/65 64/64/64 62/62/62
f 66/66/66 65/65/65 62/62/62
f 65/65/65 66/66/66 67/67/67
f 68/68/68 65/65/65 67/67/67
f 71/71/71 70/70/70 69/69/69
f 69/69/69 72/72/72 71/71/71
f 73/73/73 69/69/69 70/70/70
f 69/69/69 74/74/74 72/72/72
f 75/75/75 69/69/69 73/73/73
f 69/69/69 75/75/75 74/74/74
f 78/78/78 77/77/77 76/76/76
f 78/78/78 76/76/76 79/79/79
f 80/80/80 77/77/77 78/78/78
f 79/79/79 81/81/81 78/78/78
f 80/80/80 78/78/78 82/82/82
f 82/82/82 78/78/78 81/81/81
f 85/85/85 84/84/84 83/83/83
f 86/86/86 84/84/84 85/85/85
f 87/87/87 85/85/85 83/83/83
f 88/88/88 86/86/86 85/85/85
f 87/87/87 83/83/83 89/89/89
f 86/86/86 88/88/88 90/90/90
f 88/88/88 89/89/89 90/90/90
f 83/83/83 90/90/90 89/89/89
