g SwordHandles
v -9.382419 9.519077 -2.005803
v -9.382419 9.519077 0.9302357
v -10.41933 9.519077 0.9302357
v -10.41933 9.519077 -2.005803
v -10.41933 8.482167 0.9302357
v -9.382419 8.482167 0.9302357
v -9.382419 8.482167 -2.005803
v -10.41933 8.482167 -2.005803
v -9.382419 8.482167 -2.005803
v -9.382419 8.482167 0.9302357
v -9.382419 9.519077 0.9302357
v -9.382419 9.519077 -2.005803
v -10.41933 9.519077 -2.005803
v -10.41933 9.519077 0.9302357
v -10.41933 8.482167 0.9302357
v -10.41933 8.482167 -2.005803
v -10.41933 9.519077 -2.005803
v -10.73283 9.832574 -2.908906
v -9.068922 9.832574 -2.908906
v -9.382419 9.519077 -2.005803
v -9.382419 9.519077 -2.005803
v -9.068922 9.832574 -2.908906
v -9.068922 8.168671 -2.908906
v -9.382419 8.482167 -2.005803
v -9.382419 8.482167 -2.005803
v -9.068922 8.168671 -2.908906
v -10.73283 8.168671 -2.908906
v -10.41933 8.482167 -2.005803
v -10.41933 8.482167 -2.005803
v -10.73283 8.168671 -2.908906
v -10.73283 9.832574 -2.908906
v -10.41933 9.519077 -2.005803
v -11.76362 8.317026 3.145565
v -11.76362 9.684217 3.145565
v -10.89793 9.684217 3.145565
v -10.89793 8.317026 3.145565
v -9.900874 8.317026 3.842804
v -9.900874 9.684217 3.842804
v -8.903817 8.317026 3.145565
v -8.903817 9.684217 3.145565
v -8.038123 8.317026 3.145565
v -8.038123 9.684217 3.145565
v -8.903817 9.684217 3.145565
v -9.900874 9.684217 3.842804
v -10.89793 9.684217 3.145565
v -8.038123 9.684217 1.521248
v -8.038123 9.684217 3.145565
v -11.76362 9.684217 1.521248
v -11.76362 9.684217 3.145565
v -8.038123 8.317026 1.521248
v -8.038123 9.684217 1.521248
v -11.76362 9.684217 1.521248
v -11.76362 8.317026 1.521248
v -11.76362 8.317026 1.521248
v -11.76362 8.317026 3.145565
v -10.89793 8.317026 3.145565
v -8.903817 8.317026 3.145565
v -9.900874 8.317026 3.842804
v -8.038123 8.317026 1.521248
v -8.038123 8.317026 3.145565
v -8.038123 8.317026 3.145565
v -8.038123 9.684217 3.145565
v -8.038123 9.684217 1.521248
v -8.038123 8.317026 1.521248
v -11.76362 8.317026 1.521248
v -11.76362 9.684217 1.521248
v -11.76362 9.684217 3.145565
v -11.76362 8.317026 3.145565
v -10.41933 9.519077 1.666518
v -9.382419 9.519077 0.9302357
v -9.382419 9.519077 1.666518
v -10.41933 9.519077 0.9302357
v -10.41933 8.482167 0.9302357
v -10.41933 8.482167 1.666518
v -9.382419 8.482167 1.666518
v -9.382419 8.482167 0.9302357
v -9.382419 9.519077 0.9302357
v -9.382419 9.519077 1.666518
v 9.382419 9.519077 -2.005803
v 10.41933 9.519077 -2.005803
v 10.41933 9.519077 0.9302357
v 9.382419 9.519077 0.9302357
v 10.41933 8.482167 0.9302357
v 10.41933 8.482167 -2.005803
v 9.382419 8.482167 -2.005803
v 9.382419 8.482167 0.9302357
v 9.382419 8.482167 -2.005803
v 9.382419 9.519077 -2.005803
v 9.382419 9.519077 0.9302357
v 9.382419 8.482167 0.9302357
v 10.41933 9.519077 -2.005803
v 10.41933 8.482167 -2.005803
v 10.41933 8.482167 0.9302357
v 10.41933 9.519077 0.9302357
v 10.41933 9.519077 -2.005803
v 9.382419 9.519077 -2.005803
v 9.068922 9.832574 -2.908906
v 10.73283 9.832574 -2.908906
v 9.382419 9.519077 -2.005803
v 9.382419 8.482167 -2.005803
v 9.068922 8.168671 -2.908906
v 9.068922 9.832574 -2.908906
v 9.382419 8.482167 -2.005803
v 10.41933 8.482167 -2.005803
v 10.73283 8.168671 -2.908906
v 9.068922 8.168671 -2.908906
v 10.41933 8.482167 -2.005803
v 10.41933 9.519077 -2.005803
v 10.73283 9.832574 -2.908906
v 10.73283 8.168671 -2.908906
v 11.76362 8.317026 3.145565
v 10.89793 9.684217 3.145565
v 11.76362 9.684217 3.145565
v 10.89793 8.317026 3.145565
v 9.900874 8.317026 3.842804
v 9.900874 9.684217 3.842804
v 8.903817 8.317026 3.145565
v 8.903817 9.684217 3.145565
v 8.038123 8.317026 3.145565
v 8.038123 9.684217 3.145565
v 8.903817 9.684217 3.145565
v 10.89793 9.684217 3.145565
v 9.900874 9.684217 3.842804
v 8.038123 9.684217 1.521248
v 8.038123 9.684217 3.145565
v 11.76362 9.684217 1.521248
v 11.76362 9.684217 3.145565
v 8.038123 8.317026 1.521248
v 11.76362 8.317026 1.521248
v 11.76362 9.684217 1.521248
v 8.038123 9.684217 1.521248
v 11.76362 8.317026 1.521248
v 10.89793 8.317026 3.145565
v 11.76362 8.317026 3.145565
v 8.903817 8.317026 3.145565
v 9.900874 8.317026 3.842804
v 8.038123 8.317026 1.521248
v 8.038123 8.317026 3.145565
v 8.038123 8.317026 3.145565
v 8.038123 8.317026 1.521248
v 8.038123 9.684217 1.521248
v 8.038123 9.684217 3.145565
v 11.76362 8.317026 1.521248
v 11.76362 8.317026 3.145565
v 11.76362 9.684217 3.145565
v 11.76362 9.684217 1.521248
v 10.41933 9.519077 1.666518
v 9.382419 9.519077 1.666518
v 9.382419 9.519077 0.9302357
v 10.41933 9.519077 0.9302357
v 10.41933 8.482167 0.9302357
v 10.41933 8.482167 1.666518
v 9.382419 8.482167 1.666518
v 9.382419 8.482167 0.9302357
v 9.382419 9.519077 0.9302357
v 9.382419 9.519077 1.666518
v -10.73283 9.832574 -2.908906
v -9.900874 9.000623 -3.320498
v -9.068922 9.832574 -2.908906
v -10.73283 8.168671 -2.908906
v -9.068922 8.168671 -2.908906
v 10.73283 9.832574 -2.908906
v 9.068922 9.832574 -2.908906
v 9.900874 9.000623 -3.320498
v 10.73283 8.168671 -2.908906
v 9.068922 8.168671 -2.908906
vt 0.01448635 0.08259095
vt 0.0144864 0.1433993
vt 0.02681607 0.1433993
vt 0.02681609 0.08259095
vt 0.05951975 0.1433993
vt 0.07137831 0.1433993
vt 0.07137831 0.08259095
vt 0.05951976 0.08259095
vt 0.08251468 0.08259095
vt 0.08251468 0.1433993
vt 0.09625935 0.1433993
vt 0.09625935 0.08259095
vt 0.0375926 0.08259095
vt 0.03759258 0.1433993
vt 0.05035452 0.1433993
vt 0.05035453 0.08259095
vt 0.02122875 0.1569622
vt 0.02040134 0.1593763
vt 0.02472318 0.1593691
vt 0.02388781 0.1569578
vt 0.0499897 0.1604099
vt 0.04757565 0.1595825
vt 0.04758278 0.1639043
vt 0.04999407 0.1630689
vt 0.0239029 0.166105
vt 0.0247303 0.1636909
vt 0.02040846 0.1636981
vt 0.02124385 0.1661094
vt 0.04084688 0.163084
vt 0.04326093 0.1639114
vt 0.0432538 0.1595896
vt 0.04084249 0.160425
vt 0.01232665 0.251656
vt 0.01232665 0.2778889
vt 0.02893709 0.2778889
vt 0.02893709 0.251656
vt 0.05228161 0.251656
vt 0.05228161 0.2778889
vt 0.07562615 0.251656
vt 0.07562615 0.2778889
vt 0.0922365 0.251656
vt 0.0922365 0.2778889
vt 0.02499489 0.2248528
vt 0.05081198 0.2429066
vt 0.07662912 0.2248528
vt 0.00257922 0.1806153
vt 0.002579261 0.2248528
vt 0.09904485 0.1806153
vt 0.09904485 0.2248528
vt 0.01470537 0.2518024
vt 0.01470537 0.2780352
vt 0.0272281 0.2780352
vt 0.0272281 0.2518024
vt 0.00257922 0.1806153
vt 0.00257922 0.2248528
vt 0.02499489 0.2248528
vt 0.0766291 0.2248528
vt 0.05081198 0.2429066
vt 0.09904485 0.1806153
vt 0.09904477 0.2248528
vt 0.0563364 0.2775074
vt 0.07188548 0.2775074
vt 0.07188548 0.2514291
vt 0.05633642 0.2514291
vt 0.0718855 0.2514291
vt 0.05633637 0.2514291
vt 0.05633637 0.2775074
vt 0.07188551 0.2775074
vt 0.03333813 0.1664462
vt 0.01186257 0.1567467
vt 0.01186257 0.1664462
vt 0.03333813 0.1567467
vt 0.05481356 0.1567467
vt 0.05481356 0.1664462
vt 0.07628906 0.1664462
vt 0.07628906 0.1567467
vt 0.09776458 0.1567467
vt 0.09776458 0.1664462
vt 0.01448635 0.0104147
vt 0.02681609 0.0104147
vt 0.02681607 0.07122308
vt 0.0144864 0.07122308
vt 0.05951975 0.07122308
vt 0.05951976 0.0104147
vt 0.07137831 0.0104147
vt 0.07137831 0.07122308
vt 0.08251468 0.0104147
vt 0.09625935 0.0104147
vt 0.09625935 0.07122308
vt 0.08251468 0.07122308
vt 0.0375926 0.0104147
vt 0.05035453 0.0104147
vt 0.05035452 0.07122308
vt 0.03759258 0.07122308
vt 0.02122875 0.1569622
vt 0.02388781 0.1569578
vt 0.02472318 0.1593691
vt 0.02040134 0.1593763
vt 0.0499897 0.1604099
vt 0.04999407 0.1630689
vt 0.04758278 0.1639043
vt 0.04757565 0.1595825
vt 0.0239029 0.166105
vt 0.02124385 0.1661094
vt 0.02040846 0.1636981
vt 0.0247303 0.1636909
vt 0.04084688 0.163084
vt 0.04084249 0.160425
vt 0.0432538 0.1595896
vt 0.04326093 0.1639114
vt 0.01232665 0.251656
vt 0.02893709 0.2778889
vt 0.01232665 0.2778889
vt 0.02893709 0.251656
vt 0.05228161 0.251656
vt 0.05228161 0.2778889
vt 0.07562615 0.251656
vt 0.07562615 0.2778889
vt 0.0922365 0.251656
vt 0.0922365 0.2778889
vt 0.02499489 0.2248528
vt 0.07662912 0.2248528
vt 0.05081198 0.2429066
vt 0.00257922 0.1806153
vt 0.002579261 0.2248528
vt 0.09904485 0.1806153
vt 0.09904485 0.2248528
vt 0.01470537 0.2518024
vt 0.0272281 0.2518024
vt 0.0272281 0.2780352
vt 0.01470537 0.2780352
vt 0.00257922 0.1806153
vt 0.02499489 0.2248528
vt 0.00257922 0.2248528
vt 0.0766291 0.2248528
vt 0.05081198 0.2429066
vt 0.09904485 0.1806153
vt 0.09904477 0.2248528
vt 0.0563364 0.2775074
vt 0.05633642 0.2514291
vt 0.07188548 0.2514291
vt 0.07188548 0.2775074
vt 0.0718855 0.2514291
vt 0.07188551 0.2775074
vt 0.05633637 0.2775074
vt 0.05633637 0.2514291
vt 0.03333813 0.1664462
vt 0.01186257 0.1664462
vt 0.01186257 0.1567467
vt 0.03333813 0.1567467
vt 0.05481356 0.1567467
vt 0.05481356 0.1664462
vt 0.07628906 0.1664462
vt 0.07628906 0.1567467
vt 0.09776458 0.1567467
vt 0.09776458 0.1664462
vt 0.03528341 0.2601401
vt 0.03983301 0.2646747
vt 0.0443676 0.2601251
vt 0.03529839 0.2692243
vt 0.0443826 0.2692093
vt 0.03528341 0.2601401
vt 0.0443676 0.2601251
vt 0.03983301 0.2646747
vt 0.03529839 0.2692243
vt 0.0443826 0.2692093
vn 0.6982768 0.6982773 0.1575391
vn 0.7071065 0.707107 0
vn -0.7071065 0.707107 0
vn -0.6982767 0.6982773 0.1575393
vn -0.7071065 -0.707107 0
vn 0.7071065 -0.707107 0
vn 0.6982767 -0.6982773 0.157539
vn -0.6982767 -0.6982773 0.1575391
vn 0.6982767 -0.6982773 0.157539
vn 0.7071065 -0.707107 0
vn 0.7071065 0.707107 0
vn 0.6982768 0.6982773 0.1575391
vn -0.6982767 0.6982773 0.1575393
vn -0.7071065 0.707107 0
vn -0.7071065 -0.707107 0
vn -0.6982767 -0.6982773 0.1575391
vn -0.6982767 0.6982773 0.1575393
vn -0.7065594 0.7065596 -0.03933737
vn 0.7065592 0.7065598 -0.0393377
vn 0.6982768 0.6982773 0.1575391
vn 0.6982768 0.6982773 0.1575391
vn 0.7065592 0.7065598 -0.0393377
vn 0.7065591 -0.7065598 -0.03933809
vn 0.6982767 -0.6982773 0.157539
vn 0.6982767 -0.6982773 0.157539
vn 0.7065591 -0.7065598 -0.03933809
vn -0.7065592 -0.7065598 -0.0393378
vn -0.6982767 -0.6982773 0.1575391
vn -0.6982767 -0.6982773 0.1575391
vn -0.7065592 -0.7065598 -0.0393378
vn -0.7065594 0.7065596 -0.03933737
vn -0.6982767 0.6982773 0.1575393
vn -0.8499403 -0.2690875 0.4529828
vn -0.8499403 0.2690875 0.4529828
vn -0.1293873 0.9293922 0.3456722
vn -0.1293873 -0.929392 0.3456724
vn 0 -0.2977116 0.9546559
vn 0 0.2977116 0.9546559
vn 0.1293873 -0.929392 0.3456724
vn 0.1293873 0.9293922 0.3456723
vn 0.8499401 -0.2690875 0.4529831
vn 0.8499401 0.2690875 0.4529831
vn 0.1293873 0.9293922 0.3456723
vn 0 0.2977116 0.9546559
vn -0.1293873 0.9293922 0.3456722
vn 0.3404613 0.5237559 -0.780875
vn 0.8499401 0.2690875 0.4529831
vn -0.3404613 0.523756 -0.780875
vn -0.8499403 0.2690875 0.4529828
vn 0.3404614 -0.5237559 -0.780875
vn 0.3404613 0.5237559 -0.780875
vn -0.3404613 0.523756 -0.780875
vn -0.3404613 -0.5237561 -0.7808749
vn -0.3404613 -0.5237561 -0.7808749
vn -0.8499403 -0.2690875 0.4529828
vn -0.1293873 -0.929392 0.3456724
vn 0.1293873 -0.929392 0.3456724
vn 0 -0.2977116 0.9546559
vn 0.3404614 -0.5237559 -0.780875
vn 0.8499401 -0.2690875 0.4529831
vn 0.8499401 -0.2690875 0.4529831
vn 0.8499401 0.2690875 0.4529831
vn 0.3404613 0.5237559 -0.780875
vn 0.3404614 -0.5237559 -0.780875
vn -0.3404613 -0.5237561 -0.7808749
vn -0.3404613 0.523756 -0.780875
vn -0.8499403 0.2690875 0.4529828
vn -0.8499403 -0.2690875 0.4529828
vn -0.7071062 0.7071072 0
vn 0.7071065 0.707107 0
vn 0.7071062 0.7071072 0
vn -0.7071065 0.707107 0
vn -0.7071065 -0.707107 0
vn -0.7071062 -0.7071072 0
vn 0.7071062 -0.7071072 0
vn 0.7071065 -0.707107 0
vn 0.7071065 0.707107 0
vn 0.7071062 0.7071072 0
vn -0.6982767 0.6982773 0.1575391
vn 0.6982767 0.6982773 0.1575392
vn 0.7071065 0.707107 0
vn -0.7071065 0.707107 0
vn 0.7071065 -0.707107 0
vn 0.6982767 -0.6982773 0.1575391
vn -0.6982767 -0.6982773 0.157539
vn -0.7071065 -0.707107 0
vn -0.6982767 -0.6982773 0.157539
vn -0.6982767 0.6982773 0.1575391
vn -0.7071065 0.707107 0
vn -0.7071065 -0.707107 0
vn 0.6982767 0.6982773 0.1575392
vn 0.6982767 -0.6982773 0.1575391
vn 0.7071065 -0.707107 0
vn 0.7071065 0.707107 0
vn 0.6982767 0.6982773 0.1575392
vn -0.6982767 0.6982773 0.1575391
vn -0.7065592 0.7065598 -0.03933781
vn 0.7065593 0.7065596 -0.03933752
vn -0.6982767 0.6982773 0.1575391
vn -0.6982767 -0.6982773 0.157539
vn -0.7065592 -0.7065598 -0.03933818
vn -0.7065592 0.7065598 -0.03933781
vn -0.6982767 -0.6982773 0.157539
vn 0.6982767 -0.6982773 0.1575391
vn 0.7065592 -0.7065598 -0.03933787
vn -0.7065592 -0.7065598 -0.03933818
vn 0.6982767 -0.6982773 0.1575391
vn 0.6982767 0.6982773 0.1575392
vn 0.7065593 0.7065596 -0.03933752
vn 0.7065592 -0.7065598 -0.03933787
vn 0.8499403 -0.2690875 0.4529828
vn 0.1293873 0.929392 0.3456724
vn 0.8499403 0.2690875 0.4529828
vn 0.1293873 -0.929392 0.3456724
vn 0 -0.2977116 0.9546559
vn 0 0.2977116 0.9546559
vn -0.1293873 -0.929392 0.3456724
vn -0.1293873 0.929392 0.3456724
vn -0.8499401 -0.2690875 0.4529831
vn -0.8499401 0.2690875 0.4529831
vn -0.1293873 0.929392 0.3456724
vn 0.1293873 0.929392 0.3456724
vn 0 0.2977116 0.9546559
vn -0.3404614 0.5237559 -0.780875
vn -0.8499401 0.2690875 0.4529831
vn 0.3404613 0.5237561 -0.7808749
vn 0.8499403 0.2690875 0.4529828
vn -0.3404614 -0.5237559 -0.780875
vn 0.3404613 -0.5237561 -0.7808749
vn 0.3404613 0.5237561 -0.7808749
vn -0.3404614 0.5237559 -0.780875
vn 0.3404613 -0.5237561 -0.7808749
vn 0.1293873 -0.929392 0.3456724
vn 0.8499403 -0.2690875 0.4529828
vn -0.1293873 -0.929392 0.3456724
vn 0 -0.2977116 0.9546559
vn -0.3404614 -0.5237559 -0.780875
vn -0.8499401 -0.2690875 0.4529831
vn -0.8499401 -0.2690875 0.4529831
vn -0.3404614 -0.5237559 -0.780875
vn -0.3404614 0.5237559 -0.780875
vn -0.8499401 0.2690875 0.4529831
vn 0.3404613 -0.5237561 -0.7808749
vn 0.8499403 -0.2690875 0.4529828
vn 0.8499403 0.2690875 0.4529828
vn 0.3404613 0.5237561 -0.7808749
vn 0.7071062 0.7071072 0
vn -0.7071062 0.7071072 0
vn -0.7071065 0.707107 0
vn 0.7071065 0.707107 0
vn 0.7071065 -0.707107 0
vn 0.7071062 -0.7071072 0
vn -0.7071062 -0.7071072 0
vn -0.7071065 -0.707107 0
vn -0.7071065 0.707107 0
vn -0.7071062 0.7071072 0
vn -0.7065594 0.7065596 -0.03933737
vn 0 0 -1
vn 0.7065592 0.7065598 -0.0393377
vn -0.7065592 -0.7065598 -0.0393378
vn 0.7065591 -0.7065598 -0.03933809
vn 0.7065593 0.7065596 -0.03933752
vn -0.7065592 0.7065598 -0.03933781
vn 0 0 -1
vn 0.7065592 -0.7065598 -0.03933787
vn -0.7065592 -0.7065598 -0.03933818
g SwordHandles_0
f 3/3/3 2/2/2 1/1/1
f 4/4/4 3/3/3 1/1/1
f 7/7/7 6/6/6 5/5/5
f 8/8/8 7/7/7 5/5/5
f 11/11/11 10/10/10 9/9/9
f 12/12/12 11/11/11 9/9/9
f 15/15/15 14/14/14 13/13/13
f 16/16/16 15/15/15 13/13/13
f 19/19/19 18/18/18 17/17/17
f 20/20/20 19/19/19 17/17/17
f 23/23/23 22/22/22 21/21/21
f 24/24/24 23/23/23 21/21/21
f 27/27/27 26/26/26 25/25/25
f 28/28/28 27/27/27 25/25/25
f 31/31/31 30/30/30 29/29/29
f 32/32/32 31/31/31 29/29/29
f 35/35/35 34/34/34 33/33/33
f 36/36/36 35/35/35 33/33/33
f 36/36/36 37/37/37 35/35/35
f 37/37/37 38/38/38 35/35/35
f 37/37/37 39/39/39 38/38/38
f 39/39/39 40/40/40 38/38/38
f 39/39/39 41/41/41 40/40/40
f 41/41/41 42/42/42 40/40/40
f 45/45/45 44/44/44 43/43/43
f 45/45/45 43/43/43 46/46/46
f 43/43/43 47/47/47 46/46/46
f 48/48/48 45/45/45 46/46/46
f 48/48/48 49/49/49 45/45/45
f 52/52/52 51/51/51 50/50/50
f 53/53/53 52/52/52 50/50/50
f 56/56/56 55/55/55 54/54/54
f 56/56/56 54/54/54 57/57/57
f 56/56/56 57/57/57 58/58/58
f 54/54/54 59/59/59 57/57/57
f 59/59/59 60/60/60 57/57/57
f 63/63/63 62/62/62 61/61/61
f 64/64/64 63/63/63 61/61/61
f 67/67/67 66/66/66 65/65/65
f 68/68/68 67/67/67 65/65/65
f 71/71/71 70/70/70 69/69/69
f 70/70/70 72/72/72 69/69/69
f 69/69/69 72/72/72 73/73/73
f 74/74/74 69/69/69 73/73/73
f 75/75/75 74/74/74 73/73/73
f 76/76/76 75/75/75 73/73/73
f 76/76/76 77/77/77 75/75/75
f 77/77/77 78/78/78 75/75/75
f 81/81/81 80/80/80 79/79/79
f 82/82/82 81/81/81 79/79/79
f 85/85/85 84/84/84 83/83/83
f 86/86/86 85/85/85 83/83/83
f 89/89/89 88/88/88 87/87/87
f 90/90/90 89/89/89 87/87/87
f 93/93/93 92/92/92 91/91/91
f 94/94/94 93/93/93 91/91/91
f 97/97/97 96/96/96 95/95/95
f 98/98/98 97/97/97 95/95/95
f 101/101/101 100/100/100 99/99/99
f 102/102/102 101/101/101 99/99/99
f 105/105/105 104/104/104 103/103/103
f 106/106/106 105/105/105 103/103/103
f 109/109/109 108/108/108 107/107/107
f 110/110/110 109/109/109 107/107/107
f 113/113/113 112/112/112 111/111/111
f 112/112/112 114/114/114 111/111/111
f 115/115/115 114/114/114 112/112/112
f 116/116/116 115/115/115 112/112/112
f 117/117/117 115/115/115 116/116/116
f 118/118/118 117/117/117 116/116/116
f 119/119/119 117/117/117 118/118/118
f 120/120/120 119/119/119 118/118/118
f 123/123/123 122/122/122 121/121/121
f 121/121/121 122/122/122 124/124/124
f 125/125/125 121/121/121 124/124/124
f 122/122/122 126/126/126 124/124/124
f 127/127/127 126/126/126 122/122/122
f 130/130/130 129/129/129 128/128/128
f 131/131/131 130/130/130 128/128/128
f 134/134/134 133/133/133 132/132/132
f 132/132/132 133/133/133 135/135/135
f 135/135/135 133/133/133 136/136/136
f 137/137/137 132/132/132 135/135/135
f 138/138/138 137/137/137 135/135/135
f 141/141/141 140/140/140 139/139/139
f 142/142/142 141/141/141 139/139/139
f 145/145/145 144/144/144 143/143/143
f 146/146/146 145/145/145 143/143/143
f 149/149/149 148/148/148 147/147/147
f 150/150/150 149/149/149 147/147/147
f 150/150/150 147/147/147 151/151/151
f 147/147/147 152/152/152 151/151/151
f 152/152/152 153/153/153 151/151/151
f 153/153/153 154/154/154 151/151/151
f 155/155/155 154/154/154 153/153/153
f 156/156/156 155/155/155 153/153/153
f 159/159/159 158/158/158 157/157/157
f 157/157/157 158/158/158 160/160/160
f 161/161/161 158/158/158 159/159/159
f 160/160/160 158/158/158 161/161/161
f 164/164/164 163/163/163 162/162/162
f 164/164/164 162/162/162 165/165/165
f 164/164/164 166/166/166 163/163/163
f 164/164/164 165/165/165 166/166/166
