g SwordGroundLVL3
v 3.072677 5.300575 -1.186054
v 4.290258 5.268701 1.15796
v 3.72949 -2.049168 1.130559
v 2.585466 -2.018394 -1.032501
v 3.260057 -4.823113 0.4889776
v 2.555315 -4.278534 -0.9227142
v 2.699812 -6.689413 -0.543269
v 3.72949 -2.049168 1.130559
v 4.290258 5.268701 1.15796
v 3.52702 5.266451 -1.370949
v 3.039809 -2.052518 -1.217396
v 2.847572 -4.300485 -1.041649
v 3.260057 -4.823113 0.4889776
v 2.699812 -6.689413 -0.543269
v 3.039809 -2.052518 -1.217396
v 3.52702 5.266451 -1.370949
v 3.072677 5.300575 -1.186054
v 2.585466 -2.018394 -1.032501
v 2.555315 -4.278534 -0.9227142
v 2.847572 -4.300485 -1.041649
v 2.699812 -6.689413 -0.543269
v -3.641425 5.284218 -1.192762
v -3.229921 -2.019331 1.318324
v -4.788705 5.151317 1.182947
v -2.151157 -1.892551 -0.8745617
v -2.399238 -4.719877 0.7320123
v -1.808646 -4.12348 -0.7107654
v -1.61218 -6.520057 -0.2691711
v -3.229921 -2.019331 1.318324
v -4.090931 5.183258 -1.364601
v -4.788705 5.151317 1.182947
v -2.600663 -1.993511 -1.0464
v -2.097793 -4.188423 -0.8213012
v -2.399238 -4.719877 0.7320123
v -1.61218 -6.520057 -0.2691711
v -2.600663 -1.993511 -1.0464
v -3.641425 5.284218 -1.192762
v -4.090931 5.183258 -1.364601
v -2.151157 -1.892551 -0.8745617
v -1.808646 -4.12348 -0.7107654
v -2.097793 -4.188423 -0.8213012
v -1.61218 -6.520057 -0.2691711
v -4.679623 10.17029 -0.56987
v -4.083407 7.29825 -0.4400897
v -4.447106 7.265759 0.5300391
v -5.043304 10.1378 0.3998419
v -5.39473 7.052896 0.1656042
v -5.03108 7.085378 -0.8041723
v -5.626605 9.957479 -0.9359448
v -5.990285 9.925003 0.03362305
v -5.626605 9.957479 -0.9359448
v -5.03108 7.085378 -0.8041723
v -4.083407 7.29825 -0.4400897
v -4.679623 10.17029 -0.56987
v -5.043304 10.1378 0.3998419
v -4.447106 7.265759 0.5300391
v -5.39473 7.052896 0.1656042
v -5.990285 9.925003 0.03362305
v -5.043304 10.1378 0.3998419
v -5.050303 11.07571 0.7671069
v -4.466223 11.12796 -0.800481
v -4.679623 10.17029 -0.56987
v -4.679623 10.17029 -0.56987
v -4.466223 11.12796 -0.800481
v -5.987772 10.78622 -1.371699
v -5.626605 9.957479 -0.9359448
v -5.626605 9.957479 -0.9359448
v -5.987772 10.78622 -1.371699
v -6.571396 10.73407 0.1856195
v -5.990285 9.925003 0.03362305
v -5.990285 9.925003 0.03362305
v -6.571396 10.73407 0.1856195
v -5.050303 11.07571 0.7671069
v -5.043304 10.1378 0.3998419
v -5.518943 5.043317 1.344429
v -4.361043 5.303382 1.787074
v -4.079734 5.328516 1.036442
v -5.237634 5.06845 0.593797
v -4.782433 4.465539 -0.2427228
v -3.624533 4.725605 0.1999225
v -4.589644 5.126343 -1.135272
v -3.432059 5.38646 -0.7038928
v -4.308335 5.151476 -1.885905
v -3.150435 5.411542 -1.443259
v -3.432059 5.38646 -0.7038928
v -3.624533 4.725605 0.1999225
v -4.079734 5.328516 1.036442
v -3.456105 6.883557 -1.510989
v -3.150435 5.411542 -1.443259
v -4.666738 6.775434 1.716614
v -4.361043 5.303382 1.787074
v -4.612869 6.623601 -1.958632
v -3.456105 6.883557 -1.510989
v -4.666738 6.775434 1.716614
v -5.823527 6.515503 1.268588
v -5.823527 6.515503 1.268588
v -5.518943 5.043317 1.344429
v -5.237634 5.06845 0.593797
v -4.589644 5.126343 -1.135272
v -4.782433 4.465539 -0.2427228
v -4.612869 6.623601 -1.958632
v -4.308335 5.151476 -1.885905
v -4.308335 5.151476 -1.885905
v -3.150435 5.411542 -1.443259
v -3.456105 6.883557 -1.510989
v -4.612869 6.623601 -1.958632
v -5.823527 6.515503 1.268588
v -4.666738 6.775434 1.716614
v -4.361043 5.303382 1.787074
v -5.518943 5.043317 1.344429
v -4.351978 6.807656 0.5496216
v -4.083407 7.29825 -0.4400897
v -3.988277 6.840145 -0.4203308
v -4.447106 7.265759 0.5300391
v -5.39473 7.052896 0.1656042
v -5.299478 6.594808 0.1845544
v -4.935818 6.627287 -0.7851196
v -5.03108 7.085378 -0.8041723
v -4.083407 7.29825 -0.4400897
v -3.988277 6.840145 -0.4203308
v 3.450117 10.26631 -0.4522369
v 3.84054 10.26049 0.5075507
v 3.645827 7.331499 0.5719342
v 3.255376 7.337328 -0.3882733
v 4.603594 7.259583 0.1799512
v 4.797613 10.18858 0.1137384
v 4.407192 10.1944 -0.8459161
v 4.213199 7.265406 -0.779906
v 4.407192 10.1944 -0.8459161
v 3.450117 10.26631 -0.4522369
v 3.255376 7.337328 -0.3882733
v 4.213199 7.265406 -0.779906
v 3.84054 10.26049 0.5075507
v 4.797613 10.18858 0.1137384
v 4.603594 7.259583 0.1799512
v 3.645827 7.331499 0.5719342
v 3.84054 10.26049 0.5075507
v 3.450117 10.26631 -0.4522369
v 3.101858 11.19098 -0.6515149
v 3.729176 11.1813 0.9004846
v 3.450117 10.26631 -0.4522369
v 4.407192 10.1944 -0.8459161
v 4.640063 11.0752 -1.266582
v 3.101858 11.19098 -0.6515149
v 4.407192 10.1944 -0.8459161
v 4.797613 10.18858 0.1137384
v 5.266633 11.06582 0.2748138
v 4.640063 11.0752 -1.266582
v 4.797613 10.18858 0.1137384
v 3.84054 10.26049 0.5075507
v 3.729176 11.1813 0.9004846
v 5.266633 11.06582 0.2748138
v 5.032445 5.258031 1.299496
v 3.56008 5.350449 1.032818
v 3.862088 5.345932 1.775775
v 4.730437 5.262548 0.5565393
v 4.339706 4.623373 -0.2856378
v 3.169349 4.711274 0.1906409
v 4.034765 5.272953 -1.154853
v 2.864408 5.361252 -0.6899561
v 3.732756 5.277469 -1.897811
v 2.562399 5.36537 -1.421532
v 2.864408 5.361252 -0.6899561
v 3.56008 5.350449 1.032818
v 3.169349 4.711274 0.1906409
v 2.662266 6.866626 -1.455538
v 2.562399 5.36537 -1.421532
v 3.961905 6.84726 1.739052
v 3.862088 5.345932 1.775775
v 3.831349 6.778814 -1.936866
v 5.131008 6.759437 1.257377
v 3.961905 6.84726 1.739052
v 2.662266 6.866626 -1.455538
v 5.131008 6.759437 1.257377
v 4.730437 5.262548 0.5565393
v 5.032445 5.258031 1.299496
v 4.034765 5.272953 -1.154853
v 4.339706 4.623373 -0.2856378
v 3.831349 6.778814 -1.936866
v 3.732756 5.277469 -1.897811
v 3.732756 5.277469 -1.897811
v 3.831349 6.778814 -1.936866
v 2.662266 6.866626 -1.455538
v 2.562399 5.36537 -1.421532
v 5.131008 6.759437 1.257377
v 5.032445 5.258031 1.299496
v 3.862088 5.345932 1.775775
v 3.961905 6.84726 1.739052
v 3.614707 6.864335 0.5810016
v 3.224258 6.87016 -0.3790295
v 3.255376 7.337328 -0.3882733
v 3.645827 7.331499 0.5719342
v 4.603594 7.259583 0.1799512
v 4.572331 6.792429 0.1883862
v 4.181931 6.798251 -0.7713714
v 4.213199 7.265406 -0.779906
v 3.255376 7.337328 -0.3882733
v 3.224258 6.87016 -0.3790295
v -5.050303 11.07571 0.7671069
v -5.602641 11.33358 -0.3201465
v -4.466223 11.12796 -0.800481
v -6.571396 10.73407 0.1856195
v -5.987772 10.78622 -1.371699
v 3.729176 11.1813 0.9004846
v 3.101858 11.19098 -0.6515149
v 4.211952 11.53884 -0.1916632
v 5.266633 11.06582 0.2748138
v 4.640063 11.0752 -1.266582
vt 0.1389809 0.2874599
vt 0.1938099 0.2874599
vt 0.1938338 0.4101826
vt 0.1390048 0.4101826
vt 0.1769769 0.457602
vt 0.1440953 0.4486315
vt 0.153194 0.4898596
vt 0.1938338 0.4101826
vt 0.1938099 0.2874598
vt 0.1389809 0.2874598
vt 0.1390049 0.4101826
vt 0.1440952 0.4486313
vt 0.1769769 0.457602
vt 0.153194 0.4898597
vt 0.1310746 0.4102124
vt 0.1310746 0.2873195
vt 0.1180128 0.2873195
vt 0.1180128 0.4102125
vt 0.1201738 0.4487146
vt 0.1283813 0.4487146
vt 0.1241667 0.4899999
vt 0.1389809 0.2874599
vt 0.1938338 0.4101826
vt 0.1938099 0.2874599
vt 0.1390048 0.4101826
vt 0.1769769 0.457602
vt 0.1440953 0.4486315
vt 0.153194 0.4898596
vt 0.1938338 0.4101826
vt 0.1389809 0.2874598
vt 0.1938099 0.2874598
vt 0.1390049 0.4101826
vt 0.1440952 0.4486313
vt 0.1769769 0.457602
vt 0.153194 0.4898597
vt 0.1310746 0.4102124
vt 0.1180128 0.2873195
vt 0.1310746 0.2873195
vt 0.1180128 0.4102125
vt 0.1201738 0.4487146
vt 0.1283813 0.4487146
vt 0.1241667 0.4899999
vt 0.01448635 0.08259095
vt 0.0144864 0.1433993
vt 0.02681607 0.1433993
vt 0.02681609 0.08259095
vt 0.05951975 0.1433993
vt 0.07137831 0.1433993
vt 0.07137831 0.08259095
vt 0.05951976 0.08259095
vt 0.08251468 0.08259095
vt 0.08251468 0.1433993
vt 0.09625935 0.1433993
vt 0.09625935 0.08259095
vt 0.0375926 0.08259095
vt 0.03759258 0.1433993
vt 0.05035452 0.1433993
vt 0.05035453 0.08259095
vt 0.02122875 0.1569622
vt 0.02040134 0.1593763
vt 0.02472318 0.1593691
vt 0.02388781 0.1569578
vt 0.0499897 0.1604099
vt 0.04757565 0.1595825
vt 0.04758278 0.1639043
vt 0.04999407 0.1630689
vt 0.0239029 0.166105
vt 0.0247303 0.1636909
vt 0.02040846 0.1636981
vt 0.02124385 0.1661094
vt 0.04084688 0.163084
vt 0.04326093 0.1639114
vt 0.0432538 0.1595896
vt 0.04084249 0.160425
vt 0.01232665 0.251656
vt 0.01232665 0.2778889
vt 0.02893709 0.2778889
vt 0.02893709 0.251656
vt 0.05228161 0.251656
vt 0.05228161 0.2778889
vt 0.07562615 0.251656
vt 0.07562615 0.2778889
vt 0.0922365 0.251656
vt 0.0922365 0.2778889
vt 0.02499489 0.2248528
vt 0.05081198 0.2429066
vt 0.07662912 0.2248528
vt 0.00257922 0.1806153
vt 0.002579261 0.2248528
vt 0.09904485 0.1806153
vt 0.09904485 0.2248528
vt 0.01470537 0.2518024
vt 0.01470537 0.2780352
vt 0.0272281 0.2780352
vt 0.0272281 0.2518024
vt 0.00257922 0.1806153
vt 0.00257922 0.2248528
vt 0.02499489 0.2248528
vt 0.0766291 0.2248528
vt 0.05081198 0.2429066
vt 0.09904485 0.1806153
vt 0.09904477 0.2248528
vt 0.0563364 0.2775074
vt 0.07188548 0.2775074
vt 0.07188548 0.2514291
vt 0.05633642 0.2514291
vt 0.0718855 0.2514291
vt 0.05633637 0.2514291
vt 0.05633637 0.2775074
vt 0.07188551 0.2775074
vt 0.03333813 0.1664462
vt 0.01186257 0.1567467
vt 0.01186257 0.1664462
vt 0.03333813 0.1567467
vt 0.05481356 0.1567467
vt 0.05481356 0.1664462
vt 0.07628906 0.1664462
vt 0.07628906 0.1567467
vt 0.09776458 0.1567467
vt 0.09776458 0.1664462
vt 0.01448635 0.0104147
vt 0.02681609 0.0104147
vt 0.02681607 0.07122308
vt 0.0144864 0.07122308
vt 0.05951975 0.07122308
vt 0.05951976 0.0104147
vt 0.07137831 0.0104147
vt 0.07137831 0.07122308
vt 0.08251468 0.0104147
vt 0.09625935 0.0104147
vt 0.09625935 0.07122308
vt 0.08251468 0.07122308
vt 0.0375926 0.0104147
vt 0.05035453 0.0104147
vt 0.05035452 0.07122308
vt 0.03759258 0.07122308
vt 0.02122875 0.1569622
vt 0.02388781 0.1569578
vt 0.02472318 0.1593691
vt 0.02040134 0.1593763
vt 0.0499897 0.1604099
vt 0.04999407 0.1630689
vt 0.04758278 0.1639043
vt 0.04757565 0.1595825
vt 0.0239029 0.166105
vt 0.02124385 0.1661094
vt 0.02040846 0.1636981
vt 0.0247303 0.1636909
vt 0.04084688 0.163084
vt 0.04084249 0.160425
vt 0.0432538 0.1595896
vt 0.04326093 0.1639114
vt 0.01232665 0.251656
vt 0.02893709 0.2778889
vt 0.01232665 0.2778889
vt 0.02893709 0.251656
vt 0.05228161 0.251656
vt 0.05228161 0.2778889
vt 0.07562615 0.251656
vt 0.07562615 0.2778889
vt 0.0922365 0.251656
vt 0.0922365 0.2778889
vt 0.02499489 0.2248528
vt 0.07662912 0.2248528
vt 0.05081198 0.2429066
vt 0.00257922 0.1806153
vt 0.002579261 0.2248528
vt 0.09904485 0.1806153
vt 0.09904485 0.2248528
vt 0.01470537 0.2518024
vt 0.0272281 0.2518024
vt 0.0272281 0.2780352
vt 0.01470537 0.2780352
vt 0.00257922 0.1806153
vt 0.02499489 0.2248528
vt 0.00257922 0.2248528
vt 0.0766291 0.2248528
vt 0.05081198 0.2429066
vt 0.09904485 0.1806153
vt 0.09904477 0.2248528
vt 0.0563364 0.2775074
vt 0.05633642 0.2514291
vt 0.07188548 0.2514291
vt 0.07188548 0.2775074
vt 0.0718855 0.2514291
vt 0.07188551 0.2775074
vt 0.05633637 0.2775074
vt 0.05633637 0.2514291
vt 0.03333813 0.1664462
vt 0.01186257 0.1664462
vt 0.01186257 0.1567467
vt 0.03333813 0.1567467
vt 0.05481356 0.1567467
vt 0.05481356 0.1664462
vt 0.07628906 0.1664462
vt 0.07628906 0.1567467
vt 0.09776458 0.1567467
vt 0.09776458 0.1664462
vt 0.03528341 0.2601401
vt 0.03983301 0.2646747
vt 0.0443676 0.2601251
vt 0.03529839 0.2692243
vt 0.0443826 0.2692093
vt 0.03528341 0.2601401
vt 0.0443676 0.2601251
vt 0.03983301 0.2646747
vt 0.03529839 0.2692243
vt 0.0443826 0.2692093
vn -0.9561542 0.06833468 0.2847797
vn 0.3756484 -0.01891037 0.9265693
vn 0.371211 -0.0730984 0.9256667
vn -0.9557139 0.06061284 0.2879878
vn 0.3295804 -0.3540562 0.8752262
vn -0.9522699 0.02247265 0.304429
vn 0.2439993 -0.6501305 0.7195794
vn 0.371211 -0.0730984 0.9256667
vn 0.3756484 -0.01891037 0.9265693
vn 0.8832101 -0.06981277 -0.4637524
vn 0.8841375 -0.07757121 -0.4607424
vn 0.8882341 -0.1157604 -0.4445668
vn 0.3295804 -0.3540562 0.8752262
vn 0.2439993 -0.6501305 0.7195794
vn 0.8841375 -0.07757121 -0.4607424
vn 0.8832101 -0.06981277 -0.4637524
vn -0.9561542 0.06833468 0.2847797
vn -0.9557139 0.06061284 0.2879878
vn -0.9522699 0.02247265 0.304429
vn 0.8882341 -0.1157604 -0.4445668
vn 0.2439993 -0.6501305 0.7195794
vn 0.9440478 0.206133 0.2574546
vn -0.336213 -0.09743428 0.9367323
vn -0.3480213 -0.0443557 0.9364368
vn 0.9447454 0.1985153 0.2608599
vn -0.2576014 -0.3713636 0.8920374
vn 0.9469475 0.1607324 0.2783084
vn -0.1358179 -0.6571732 0.741402
vn -0.336213 -0.09743428 0.9367323
vn -0.8757398 -0.2025934 -0.4382189
vn -0.3480213 -0.0443557 0.9364368
vn -0.8755242 -0.2103195 -0.4349978
vn -0.8739676 -0.2482475 -0.4177962
vn -0.2576014 -0.3713636 0.8920374
vn -0.1358179 -0.6571732 0.741402
vn -0.8755242 -0.2103195 -0.4349978
vn 0.9440478 0.206133 0.2574546
vn -0.8757398 -0.2025934 -0.4382189
vn 0.9447454 0.1985153 0.2608599
vn 0.9469475 0.1607324 0.2783084
vn -0.8739676 -0.2482475 -0.4177962
vn -0.1358179 -0.6571732 0.741402
vn 0.9153129 0.01113579 -0.4025892
vn 0.8944432 0.1673476 -0.414688
vn 0.3983759 0.1230316 0.9089334
vn 0.4253113 -0.03263594 0.9044585
vn -0.8944752 -0.1673681 0.4146107
vn -0.3983242 -0.123043 -0.9089544
vn -0.361171 -0.2757341 -0.8908009
vn -0.8513331 -0.3195122 0.4161057
vn -0.361171 -0.2757341 -0.8908009
vn -0.3983242 -0.123043 -0.9089544
vn 0.8944432 0.1673476 -0.414688
vn 0.9153129 0.01113579 -0.4025892
vn 0.4253113 -0.03263594 0.9044585
vn 0.3983759 0.1230316 0.9089334
vn -0.8944752 -0.1673681 0.4146107
vn -0.8513331 -0.3195122 0.4161057
vn 0.4253113 -0.03263594 0.9044585
vn 0.3900969 0.1614114 0.9065157
vn 0.8859055 0.2058372 -0.4156953
vn 0.9153129 0.01113579 -0.4025892
vn 0.9153129 0.01113579 -0.4025892
vn 0.8859055 0.2058372 -0.4156953
vn -0.406078 -0.08445176 -0.9099278
vn -0.361171 -0.2757341 -0.8908009
vn -0.361171 -0.2757341 -0.8908009
vn -0.406078 -0.08445176 -0.9099278
vn -0.9017377 -0.1287358 0.4126695
vn -0.8513331 -0.3195122 0.4161057
vn -0.8513331 -0.3195122 0.4161057
vn -0.9017377 -0.1287358 0.4126695
vn 0.3900969 0.1614114 0.9065157
vn 0.4253113 -0.03263594 0.9044585
vn -0.4521028 -0.5249895 0.7211027
vn 0.03988191 -0.4144892 0.90918
vn 0.8744552 -0.1513618 0.4608879
vn -0.8247938 -0.5330154 -0.1887057
vn -0.07824689 -0.9949642 -0.06263782
vn 0.4660726 -0.8727095 0.1454461
vn -0.734027 -0.524906 -0.4309038
vn 0.9650886 -0.1435073 0.2191111
vn 0.1441408 -0.4717196 -0.8698874
vn 0.6361255 -0.3612192 -0.6818102
vn 0.9650886 -0.1435073 0.2191111
vn 0.4660726 -0.8727095 0.1454461
vn 0.8744552 -0.1513618 0.4608879
vn 0.4395227 0.8821157 -0.1693863
vn 0.6361255 -0.3612192 -0.6818102
vn 0.2006096 0.860804 0.467731
vn 0.03988191 -0.4144892 0.90918
vn -0.517646 0.6673094 -0.5354819
vn 0.4395227 0.8821157 -0.1693863
vn 0.2006096 0.860804 0.467731
vn -0.7565919 0.6459646 0.1014813
vn -0.7565919 0.6459646 0.1014813
vn -0.4521028 -0.5249895 0.7211027
vn -0.8247938 -0.5330154 -0.1887057
vn -0.734027 -0.524906 -0.4309038
vn -0.07824689 -0.9949642 -0.06263782
vn -0.517646 0.6673094 -0.5354819
vn 0.1441408 -0.4717196 -0.8698874
vn 0.1441408 -0.4717196 -0.8698874
vn 0.6361255 -0.3612192 -0.6818102
vn 0.4395227 0.8821157 -0.1693863
vn -0.517646 0.6673094 -0.5354819
vn -0.7565919 0.6459646 0.1014813
vn 0.2006096 0.860804 0.467731
vn 0.03988191 -0.4144892 0.90918
vn -0.4521028 -0.5249895 0.7211027
vn 0.3983522 0.123037 0.9089431
vn 0.8944432 0.1673476 -0.414688
vn 0.8944516 0.1673529 -0.4146678
vn 0.3983759 0.1230316 0.9089334
vn -0.8944752 -0.1673681 0.4146107
vn -0.8944936 -0.1673799 0.4145665
vn -0.3982785 -0.1230533 -0.9089731
vn -0.3983242 -0.123043 -0.9089544
vn 0.8944432 0.1673476 -0.414688
vn 0.8944516 0.1673529 -0.4146678
vn -0.9186601 -0.1047817 -0.3808993
vn -0.3926139 -0.1126428 0.9127792
vn -0.3870805 0.04509607 0.9209425
vn -0.9196473 0.05305678 -0.389145
vn 0.9196792 -0.05307665 0.3890669
vn 0.8977697 -0.2097024 0.3873427
vn 0.3715755 -0.2018487 -0.9061946
vn 0.3870305 -0.04511232 -0.9209627
vn 0.3715755 -0.2018487 -0.9061946
vn -0.9186601 -0.1047817 -0.3808993
vn -0.9196473 0.05305678 -0.389145
vn 0.3870305 -0.04511232 -0.9209627
vn -0.3926139 -0.1126428 0.9127792
vn 0.8977697 -0.2097024 0.3873427
vn 0.9196792 -0.05307665 0.3890669
vn -0.3870805 0.04509607 0.9209425
vn -0.3926139 -0.1126428 0.9127792
vn -0.9186601 -0.1047817 -0.3808993
vn -0.916473 0.09239566 -0.3892819
vn -0.3841875 0.08429705 0.9193987
vn -0.9186601 -0.1047817 -0.3808993
vn 0.3715755 -0.2018487 -0.9061946
vn 0.3894123 -0.005812305 -0.9210452
vn -0.916473 0.09239566 -0.3892819
vn 0.3715755 -0.2018487 -0.9061946
vn 0.8977697 -0.2097024 0.3873427
vn 0.9215443 -0.01377108 0.3880291
vn 0.3894123 -0.005812305 -0.9210452
vn 0.8977697 -0.2097024 0.3873427
vn -0.3926139 -0.1126428 0.9127792
vn -0.3841875 0.08429705 0.9193987
vn 0.9215443 -0.01377108 0.3880291
vn 0.538616 -0.4753445 0.6956583
vn -0.8329966 -0.2810636 0.476571
vn 0.04133869 -0.4379959 0.898026
vn 0.8845323 -0.4100606 -0.22238
vn 0.211692 -0.9729998 -0.09196705
vn -0.3384831 -0.9316782 0.1319275
vn 0.7870867 -0.4086033 -0.4621017
vn -0.9302671 -0.2798342 0.2372678
vn -0.1015008 -0.4657712 -0.8790646
vn -0.5987781 -0.4284227 -0.676697
vn -0.9302671 -0.2798342 0.2372678
vn -0.8329966 -0.2810636 0.476571
vn -0.3384831 -0.9316782 0.1319275
vn -0.5602236 0.8173155 -0.1347033
vn -0.5987781 -0.4284227 -0.676697
vn -0.3037507 0.8135245 0.4958966
vn 0.04133869 -0.4379959 0.898026
vn 0.4072058 0.7448245 -0.5286019
vn 0.6637313 0.7410058 0.1018387
vn -0.3037507 0.8135245 0.4958966
vn -0.5602236 0.8173155 -0.1347033
vn 0.6637313 0.7410058 0.1018387
vn 0.8845323 -0.4100606 -0.22238
vn 0.538616 -0.4753445 0.6956583
vn 0.7870867 -0.4086033 -0.4621017
vn 0.211692 -0.9729998 -0.09196705
vn 0.4072058 0.7448245 -0.5286019
vn -0.1015008 -0.4657712 -0.8790646
vn -0.1015008 -0.4657712 -0.8790646
vn 0.4072058 0.7448245 -0.5286019
vn -0.5602236 0.8173155 -0.1347033
vn -0.5987781 -0.4284227 -0.676697
vn 0.6637313 0.7410058 0.1018387
vn 0.538616 -0.4753445 0.6956583
vn 0.04133869 -0.4379959 0.898026
vn -0.3037507 0.8135245 0.4958966
vn -0.3870577 0.0451036 0.9209517
vn -0.9196557 0.05306191 -0.3891246
vn -0.9196473 0.05305678 -0.389145
vn -0.3870805 0.04509607 0.9209425
vn 0.9196792 -0.05307665 0.3890669
vn 0.9196974 -0.05308796 0.3890223
vn 0.3869864 -0.04512677 -0.9209805
vn 0.3870305 -0.04511232 -0.9209627
vn -0.9196473 0.05305678 -0.389145
vn -0.9196557 0.05306191 -0.3891246
vn 0.3900969 0.1614114 0.9065157
vn -0.2031232 0.9781922 -0.04337074
vn 0.8859055 0.2058372 -0.4156953
vn -0.9017377 -0.1287358 0.4126695
vn -0.406078 -0.08445176 -0.9099278
vn -0.3841875 0.08429705 0.9193987
vn -0.916473 0.09239566 -0.3892819
vn 0.06640664 0.9975731 -0.02092924
vn 0.9215443 -0.01377108 0.3880291
vn 0.3894123 -0.005812305 -0.9210452
g SwordGroundLVL3_0
f 3/3/3 2/2/2 1/1/1
f 4/4/4 3/3/3 1/1/1
f 5/5/5 3/3/3 4/4/4
f 6/6/6 5/5/5 4/4/4
f 7/7/7 5/5/5 6/6/6
f 10/10/10 9/9/9 8/8/8
f 11/11/11 10/10/10 8/8/8
f 12/12/12 11/11/11 8/8/8
f 13/13/13 12/12/12 8/8/8
f 14/14/14 12/12/12 13/13/13
f 17/17/17 16/16/16 15/15/15
f 18/18/18 17/17/17 15/15/15
f 19/19/19 18/18/18 15/15/15
f 20/20/20 19/19/19 15/15/15
f 21/21/21 19/19/19 20/20/20
f 24/24/24 23/23/23 22/22/22
f 23/23/23 25/25/25 22/22/22
f 23/23/23 26/26/26 25/25/25
f 26/26/26 27/27/27 25/25/25
f 26/26/26 28/28/28 27/27/27
f 31/31/31 30/30/30 29/29/29
f 30/30/30 32/32/32 29/29/29
f 32/32/32 33/33/33 29/29/29
f 33/33/33 34/34/34 29/29/29
f 33/33/33 35/35/35 34/34/34
f 38/38/38 37/37/37 36/36/36
f 37/37/37 39/39/39 36/36/36
f 39/39/39 40/40/40 36/36/36
f 40/40/40 41/41/41 36/36/36
f 40/40/40 42/42/42 41/41/41
f 45/45/45 44/44/44 43/43/43
f 46/46/46 45/45/45 43/43/43
f 49/49/49 48/48/48 47/47/47
f 50/50/50 49/49/49 47/47/47
f 53/53/53 52/52/52 51/51/51
f 54/54/54 53/53/53 51/51/51
f 57/57/57 56/56/56 55/55/55
f 58/58/58 57/57/57 55/55/55
f 61/61/61 60/60/60 59/59/59
f 62/62/62 61/61/61 59/59/59
f 65/65/65 64/64/64 63/63/63
f 66/66/66 65/65/65 63/63/63
f 69/69/69 68/68/68 67/67/67
f 70/70/70 69/69/69 67/67/67
f 73/73/73 72/72/72 71/71/71
f 74/74/74 73/73/73 71/71/71
f 77/77/77 76/76/76 75/75/75
f 78/78/78 77/77/77 75/75/75
f 78/78/78 79/79/79 77/77/77
f 79/79/79 80/80/80 77/77/77
f 79/79/79 81/81/81 80/80/80
f 81/81/81 82/82/82 80/80/80
f 81/81/81 83/83/83 82/82/82
f 83/83/83 84/84/84 82/82/82
f 87/87/87 86/86/86 85/85/85
f 87/87/87 85/85/85 88/88/88
f 85/85/85 89/89/89 88/88/88
f 90/90/90 87/87/87 88/88/88
f 90/90/90 91/91/91 87/87/87
f 94/94/94 93/93/93 92/92/92
f 95/95/95 94/94/94 92/92/92
f 98/98/98 97/97/97 96/96/96
f 98/98/98 96/96/96 99/99/99
f 98/98/98 99/99/99 100/100/100
f 96/96/96 101/101/101 99/99/99
f 101/101/101 102/102/102 99/99/99
f 105/105/105 104/104/104 103/103/103
f 106/106/106 105/105/105 103/103/103
f 109/109/109 108/108/108 107/107/107
f 110/110/110 109/109/109 107/107/107
f 113/113/113 112/112/112 111/111/111
f 112/112/112 114/114/114 111/111/111
f 111/111/111 114/114/114 115/115/115
f 116/116/116 111/111/111 115/115/115
f 117/117/117 116/116/116 115/115/115
f 118/118/118 117/117/117 115/115/115
f 118/118/118 119/119/119 117/117/117
f 119/119/119 120/120/120 117/117/117
f 123/123/123 122/122/122 121/121/121
f 124/124/124 123/123/123 121/121/121
f 127/127/127 126/126/126 125/125/125
f 128/128/128 127/127/127 125/125/125
f 131/131/131 130/130/130 129/129/129
f 132/132/132 131/131/131 129/129/129
f 135/135/135 134/134/134 133/133/133
f 136/136/136 135/135/135 133/133/133
f 139/139/139 138/138/138 137/137/137
f 140/140/140 139/139/139 137/137/137
f 143/143/143 142/142/142 141/141/141
f 144/144/144 143/143/143 141/141/141
f 147/147/147 146/146/146 145/145/145
f 148/148/148 147/147/147 145/145/145
f 151/151/151 150/150/150 149/149/149
f 152/152/152 151/151/151 149/149/149
f 155/155/155 154/154/154 153/153/153
f 154/154/154 156/156/156 153/153/153
f 157/157/157 156/156/156 154/154/154
f 158/158/158 157/157/157 154/154/154
f 159/159/159 157/157/157 158/158/158
f 160/160/160 159/159/159 158/158/158
f 161/161/161 159/159/159 160/160/160
f 162/162/162 161/161/161 160/160/160
f 165/165/165 164/164/164 163/163/163
f 163/163/163 164/164/164 166/166/166
f 167/167/167 163/163/163 166/166/166
f 164/164/164 168/168/168 166/166/166
f 169/169/169 168/168/168 164/164/164
f 172/172/172 171/171/171 170/170/170
f 173/173/173 172/172/172 170/170/170
f 176/176/176 175/175/175 174/174/174
f 174/174/174 175/175/175 177/177/177
f 177/177/177 175/175/175 178/178/178
f 179/179/179 174/174/174 177/177/177
f 180/180/180 179/179/179 177/177/177
f 183/183/183 182/182/182 181/181/181
f 184/184/184 183/183/183 181/181/181
f 187/187/187 186/186/186 185/185/185
f 188/188/188 187/187/187 185/185/185
f 191/191/191 190/190/190 189/189/189
f 192/192/192 191/191/191 189/189/189
f 192/192/192 189/189/189 193/193/193
f 189/189/189 194/194/194 193/193/193
f 194/194/194 195/195/195 193/193/193
f 195/195/195 196/196/196 193/193/193
f 197/197/197 196/196/196 195/195/195
f 198/198/198 197/197/197 195/195/195
f 201/201/201 200/200/200 199/199/199
f 199/199/199 200/200/200 202/202/202
f 203/203/203 200/200/200 201/201/201
f 202/202/202 200/200/200 203/203/203
f 206/206/206 205/205/205 204/204/204
f 206/206/206 204/204/204 207/207/207
f 206/206/206 208/208/208 205/205/205
f 206/206/206 207/207/207 208/208/208
