g Tail_Dark
v 0.5788007 4.571312 -4.829167
v 0.5961394 6.835792 -1.164652
v -0.3782918 6.835792 -1.135686
v 0.5696086 5.673068 -1.153621
v -0.4113319 4.571312 -4.830059
v -0.4048445 5.673083 -1.124643
v 0.5574895 3.62299 -4.81811
v 0.9625782 3.952237 -8.490382
v -0.4378553 3.62299 -4.819046
v -0.004814796 3.952237 -8.548661
v 0.9943301 3.045722 -8.492889
v 0.03706379 3.045729 -8.551169
v 1.489747 4.040692 -10.22735
v 1.455191 3.134184 -10.14714
v 0.6009486 3.134191 -10.55474
v 0.5949846 4.040699 -10.67966
v 2.126333 2.759708 -12.04922
v 2.470772 2.759701 -11.09847
v 2.191363 3.666209 -12.04061
v 2.547735 3.666209 -11.13548
v 3.623137 2.089099 -11.18503
v 3.652391 2.995607 -11.15397
v 4.250792 1.433924 -10.48503
v 3.947014 2.089107 -12.11611
v 3.623137 2.089099 -11.18503
v 3.955157 2.995615 -12.08807
v 4.292229 2.332626 -10.46582
v 4.35532 0.8459644 -9.122425
v 4.359458 1.751305 -9.115143
v 5.146084 2.332626 -10.90115
v 5.116914 1.43392 -10.89722
v 4.250792 1.433924 -10.48503
v 5.215347 0.8459607 -9.26119
v 4.35532 0.8459644 -9.122425
v 5.197552 1.751309 -9.2711
vt 0.2146834 0.8136186
vt 0.2146834 0.8362716
vt 0.2146834 0.8362684
vt 0.2146834 0.8337672
vt 0.2146834 0.8135601
vt 0.2146834 0.8340682
vt 0.2146834 0.8112372
vt 0.2146834 0.7923205
vt 0.2146834 0.8115929
vt 0.2146834 0.7927284
vt 0.2146834 0.7912192
vt 0.2146834 0.7920588
vt 0.2146834 0.7457461
vt 0.2146834 0.7452811
vt 0.2146834 0.7461157
vt 0.2146834 0.7461004
vt 0.2146834 0.736519
vt 0.2146834 0.7364794
vt 0.2146834 0.7372851
vt 0.2146834 0.7374396
vt 0.2146834 0.7264179
vt 0.2146834 0.7294629
vt 0.2146834 0.7187249
vt 0.2146834 0.72853
vt 0.2146834 0.7277788
vt 0.2146834 0.7296126
vt 0.2146834 0.7219393
vt 0.2146834 0.7097378
vt 0.2146834 0.7124835
vt 0.2146834 0.7224857
vt 0.2146834 0.7213939
vt 0.2146834 0.7204633
vt 0.2146834 0.7146541
vt 0.2146834 0.7118393
vt 0.2146834 0.7156485
vn 0.7288408 0.6488718 -0.2185325
vn 0.5096553 0.7316833 -0.452649
vn -0.5217662 0.7287705 -0.4434565
vn 0.7657986 -0.5628464 0.3110569
vn -0.7351449 0.6185839 -0.2773375
vn -0.7909786 -0.5316726 0.3027824
vn 0.6155264 -0.7304748 0.2958611
vn 0.6766697 0.7346898 0.04846435
vn -0.6654612 -0.7149923 0.2143532
vn -0.7208649 0.6655019 -0.1935487
vn 0.6302654 -0.7575876 0.1697836
vn -0.6724509 -0.7384676 -0.04975364
vn 0.4940512 0.8427563 0.2137175
vn 0.4813096 -0.8003486 0.3574676
vn -0.7132886 -0.5830175 -0.3889859
vn -0.6279036 0.6415578 -0.4406139
vn -0.452364 -0.5349553 -0.7135752
vn -0.04796875 -0.8202292 0.5700203
vn -0.1949352 0.5861912 -0.7863715
vn 0.46889 0.8119203 0.3477463
vn -0.5429738 -0.7974284 0.263225
vn 0.2449579 0.7792463 0.5768629
vn -0.6654834 -0.732566 -0.143105
vn 0.1407477 -0.5498555 -0.8233159
vn -0.5429738 -0.7974284 0.263225
vn 0.448073 0.5339214 -0.7170485
vn -0.2906021 0.8017825 0.5222024
vn -0.5913495 -0.7754102 0.2214604
vn -0.5689901 0.5536405 0.6080564
vn 0.8302194 0.5220197 -0.1955276
vn 0.6434485 -0.5919076 -0.4854065
vn -0.6654834 -0.732566 -0.143105
vn 0.6119064 -0.7853878 0.09346951
vn -0.5913495 -0.7754102 0.2214604
vn 0.7537355 0.4919549 0.4357329
g Tail_Dark_0
f 3/3/3 2/2/2 1/1/1
f 2/2/2 4/4/4 1/1/1
f 5/5/5 3/3/3 1/1/1
f 6/6/6 3/3/3 5/5/5
f 4/4/4 6/6/6 7/7/7
f 4/4/4 7/7/7 1/1/1
f 5/5/5 1/1/1 8/8/8
f 8/8/8 1/1/1 7/7/7
f 9/9/9 6/6/6 5/5/5
f 6/6/6 9/9/9 7/7/7
f 10/10/10 5/5/5 8/8/8
f 9/9/9 5/5/5 10/10/10
f 11/11/11 7/7/7 9/9/9
f 11/11/11 8/8/8 7/7/7
f 12/12/12 9/9/9 10/10/10
f 12/12/12 11/11/11 9/9/9
f 8/8/8 13/13/13 10/10/10
f 11/11/11 14/14/14 8/8/8
f 14/14/14 13/13/13 8/8/8
f 11/11/11 12/12/12 15/15/15
f 14/14/14 11/11/11 15/15/15
f 12/12/12 10/10/10 16/16/16
f 13/13/13 16/16/16 10/10/10
f 15/15/15 12/12/12 16/16/16
f 14/14/14 15/15/15 17/17/17
f 14/14/14 18/18/18 13/13/13
f 18/18/18 14/14/14 17/17/17
f 15/15/15 16/16/16 19/19/19
f 17/17/17 15/15/15 19/19/19
f 13/13/13 20/20/20 16/16/16
f 18/18/18 20/20/20 13/13/13
f 20/20/20 19/19/19 16/16/16
f 18/18/18 21/21/21 20/20/20
f 21/21/21 22/22/22 20/20/20
f 20/20/20 22/22/22 19/19/19
f 21/21/21 23/23/23 22/22/22
f 18/18/18 17/17/17 24/24/24
f 25/25/25 18/18/18 24/24/24
f 17/17/17 19/19/19 26/26/26
f 22/22/22 26/26/26 19/19/19
f 24/24/24 17/17/17 26/26/26
f 23/23/23 27/27/27 22/22/22
f 22/22/22 27/27/27 26/26/26
f 23/23/23 28/28/28 27/27/27
f 28/28/28 29/29/29 27/27/27
f 27/27/27 30/30/30 26/26/26
f 24/24/24 26/26/26 30/30/30
f 27/27/27 29/29/29 30/30/30
f 25/25/25 24/24/24 31/31/31
f 31/31/31 24/24/24 30/30/30
f 32/32/32 25/25/25 31/31/31
f 32/32/32 31/31/31 33/33/33
f 31/31/31 30/30/30 33/33/33
f 34/34/34 32/32/32 33/33/33
f 29/29/29 35/35/35 30/30/30
f 30/30/30 35/35/35 33/33/33
f 34/34/34 33/33/33 35/35/35
f 29/29/29 34/34/34 35/35/35
