g Tail
v 1.714975 3.299129 -8.919565
v 3.874184 3.083356 -9.099383
v 4.039618 4.149869 -9.1354
v 1.813791 4.369599 -8.973164
v 0.1872147 3.663985 -7.581012
v 0.06756568 4.671786 -7.684486
v 3.518549 4.158457 -7.899164
v 2.074382 4.374501 -7.767893
v 0.9469299 4.685164 -6.88348
v 2.126414 3.304057 -7.673524
v 3.378569 3.091549 -7.924264
v 3.874184 3.083356 -9.099383
v 1.152902 3.677365 -6.779986
v 1.714975 3.299129 -8.919565
v 0.1872147 3.663985 -7.581012
v 3.378569 3.091549 -7.924264
v 5.469206 2.710115 -7.838927
v 3.874184 3.083356 -9.099383
v 4.287257 2.684561 -7.103796
v 5.178571 3.158502 -6.861984
v 4.373889 3.742293 -6.927749
v 3.518549 4.158457 -7.899164
v 5.178571 3.158502 -6.861984
v 4.039618 4.149869 -9.1354
v 5.555839 3.767839 -7.662884
v 5.178571 3.158502 -6.861984
v 5.469206 2.710115 -7.838927
v 3.874184 3.083356 -9.099383
v -0.4306382 4.688348 -3.767407
v -0.6235864 5.513439 -1.255907
v 0.64908 5.50671 -1.28182
v 0.7033357 4.686727 -3.753962
v 0.1872147 3.663985 -7.581012
v 0.6845027 7.019841 -1.293059
v 1.152902 3.677365 -6.779986
v 0.5880859 5.835854 -3.82531
v -0.5897677 7.02316 -1.263263
v 0.9469299 4.685164 -6.88348
v -0.6380866 5.836915 -3.778895
v -0.6235864 5.513439 -1.255907
v 0.06756568 4.671786 -7.684486
v -0.4306382 4.688348 -3.767407
v 0.1872147 3.663985 -7.581012
vt 0.2215895 0.8083258
vt 0.2215895 0.8739518
vt 0.2301015 0.8739518
vt 0.2301015 0.8083258
vt 0.2215895 0.7400666
vt 0.2301015 0.7400666
vt 0.2388669 0.8588991
vt 0.2388669 0.8083258
vt 0.2388669 0.7551194
vt 0.2465012 0.8083258
vt 0.2465012 0.8588991
vt 0.2551557 0.8739518
vt 0.2465012 0.7551194
vt 0.2551557 0.8083258
vt 0.2551557 0.7400666
vt 0.2467655 0.9366597
vt 0.2554201 0.9438955
vt 0.2554201 0.9366597
vt 0.2467655 0.9438955
vt 0.2388754 0.9461854
vt 0.2391313 0.9438955
vt 0.2391313 0.9366597
vt 0.2388754 0.9461854
vt 0.2303658 0.9366597
vt 0.2303658 0.9438955
vt 0.2388754 0.9461854
vt 0.2218538 0.9438955
vt 0.2218538 0.9366597
vt 0.2554201 0.9056479
vt 0.2554203 0.8947521
vt 0.2467654 0.8947521
vt 0.2467655 0.9056479
vt 0.2554201 0.9214422
vt 0.2391314 0.8947521
vt 0.2467655 0.9214422
vt 0.2391313 0.9056479
vt 0.2303658 0.8947521
vt 0.2391313 0.9214422
vt 0.2303658 0.9056479
vt 0.2218538 0.8947521
vt 0.2303658 0.9214422
vt 0.2218538 0.9056479
vt 0.2218538 0.9214422
vn -0.3634667 -0.6313308 -0.6850645
vn 0.1540903 -0.5814673 -0.798844
vn 0.3335049 0.6169093 -0.7128798
vn -0.2101821 0.6033604 -0.7692721
vn -0.7413801 -0.6468276 -0.1788008
vn -0.7631087 0.4827503 -0.429671
vn 0.02887577 0.8997889 0.4353692
vn 0.3176478 0.8741603 0.3673467
vn 0.5571776 0.8272527 -0.07215277
vn 0.05611086 -0.8471823 0.5283311
vn -0.2886521 -0.887829 0.3583847
vn 0.1540903 -0.5814673 -0.798844
vn 0.3907767 -0.8268796 0.40443
vn -0.3634667 -0.6313308 -0.6850645
vn -0.7413801 -0.6468276 -0.1788008
vn -0.2886521 -0.887829 0.3583847
vn 0.5189524 -0.6495303 -0.5556965
vn 0.1540903 -0.5814673 -0.798844
vn -0.4056236 -0.8643624 0.2972323
vn 0.5110331 -0.1675216 0.8430787
vn -0.1813063 0.7843723 0.5932015
vn 0.02887577 0.8997889 0.4353692
vn 0.5110331 -0.1675216 0.8430787
vn 0.3335049 0.6169093 -0.7128798
vn 0.7096941 0.6111757 -0.3504263
vn 0.5110331 -0.1675216 0.8430787
vn 0.5189524 -0.6495303 -0.5556965
vn 0.1540903 -0.5814673 -0.798844
vn -0.7224602 -0.6803215 0.123345
vn -0.7806841 -0.5988157 0.1787518
vn 0.7928657 -0.5811294 0.1834466
vn 0.6801016 -0.6867372 0.25662
vn -0.7413801 -0.6468276 -0.1788008
vn 0.5617386 0.7475604 -0.3544056
vn 0.3907767 -0.8268796 0.40443
vn 0.6571773 0.7137581 -0.2422133
vn -0.5932446 0.7211462 -0.3577832
vn 0.5571776 0.8272527 -0.07215277
vn -0.7500547 0.5858763 -0.3068666
vn -0.7806841 -0.5988157 0.1787518
vn -0.7631087 0.4827503 -0.429671
vn -0.7224602 -0.6803215 0.123345
vn -0.7413801 -0.6468276 -0.1788008
g Tail_0
f 3/3/3 2/2/2 1/1/1
f 4/4/4 3/3/3 1/1/1
f 1/1/1 5/5/5 4/4/4
f 5/5/5 6/6/6 4/4/4
f 7/7/7 3/3/3 4/4/4
f 4/4/4 6/6/6 8/8/8
f 8/8/8 7/7/7 4/4/4
f 6/6/6 9/9/9 8/8/8
f 8/8/8 10/10/10 7/7/7
f 10/10/10 8/8/8 9/9/9
f 10/10/10 11/11/11 7/7/7
f 12/12/12 11/11/11 10/10/10
f 13/13/13 10/10/10 9/9/9
f 14/14/14 12/12/12 10/10/10
f 14/14/14 10/10/10 13/13/13
f 15/15/15 14/14/14 13/13/13
f 18/18/18 17/17/17 16/16/16
f 17/17/17 19/19/19 16/16/16
f 17/17/17 20/20/20 19/19/19
f 16/16/16 19/19/19 21/21/21
f 22/22/22 16/16/16 21/21/21
f 19/19/19 23/23/23 21/21/21
f 22/22/22 21/21/21 24/24/24
f 21/21/21 25/25/25 24/24/24
f 21/21/21 26/26/26 25/25/25
f 25/25/25 23/23/23 27/27/27
f 24/24/24 25/25/25 28/28/28
f 25/25/25 27/27/27 28/28/28
f 31/31/31 30/30/30 29/29/29
f 32/32/32 31/31/31 29/29/29
f 32/32/32 29/29/29 33/33/33
f 34/34/34 31/31/31 32/32/32
f 35/35/35 32/32/32 33/33/33
f 36/36/36 34/34/34 32/32/32
f 36/36/36 32/32/32 35/35/35
f 37/37/37 34/34/34 36/36/36
f 38/38/38 36/36/36 35/35/35
f 39/39/39 37/37/37 36/36/36
f 39/39/39 36/36/36 38/38/38
f 40/40/40 37/37/37 39/39/39
f 41/41/41 39/39/39 38/38/38
f 42/42/42 40/40/40 39/39/39
f 41/41/41 43/43/43 39/39/39
f 43/43/43 42/42/42 39/39/39
