g TailDark
v 5.674661 3.144693 -8.601546
v 5.714538 2.424135 -10.00514
v 4.532605 2.523582 -9.295475
v 3.874126 2.827071 -11.78549
v 3.378525 2.834459 -10.61036
v 2.123221 3.046813 -10.35946
v 5.778447 3.455939 -9.985171
v 5.674661 3.144693 -8.601546
v 1.714922 3.042753 -11.6055
v 1.031461 3.290011 -9.465654
v 4.039578 3.893605 -11.82078
v 0.1404426 3.277201 -10.26668
v 0.08418354 3.870115 -7.064664
v 1.813756 4.113256 -11.65836
v 3.518524 3.901345 -10.58453
v 4.60108 3.548506 -9.27387
v 5.674661 3.144693 -8.601546
v -1.063952 3.838957 -7.306532
v 0.02017561 4.285072 -10.36946
v 2.070318 4.117325 -10.45309
v -0.899348 4.705506 -3.542478
v 0.227222 4.703858 -3.529049
v 0.5174878 5.522132 -1.216946
v -0.7585769 5.528863 -1.190996
v -1.105533 5.854085 -3.55321
v -0.6896713 7.038597 -1.202863
v -1.034367 4.816926 -7.372505
v 0.1152912 5.853037 -3.599615
v 0.5868533 7.035276 -1.232351
v 0.8224324 4.297884 -9.568449
v 2.123221 3.046813 -10.35946
v 3.378525 2.834459 -10.61036
v 4.532605 2.523582 -9.295475
v 5.674661 3.144693 -8.601546
v 1.031461 3.290011 -9.465654
v 0.08418354 3.870115 -7.064664
v 0.1130385 4.848086 -7.130668
v 0.227222 4.703858 -3.529049
v 0.5174878 5.522132 -1.216946
vt 0.5687301 0.215941
vt 0.5653013 0.2381923
vt 0.5750799 0.2359751
vt 0.5664537 0.2900922
vt 0.57587 0.287629
vt 0.5771189 0.3163763
vt 0.5558975 0.2413872
vt 0.5606259 0.2139041
vt 0.5671125 0.3188539
vt 0.5780299 0.3444402
vt 0.5568187 0.2900469
vt 0.5675126 0.3462396
vt 0.5793403 0.3858194
vt 0.5570163 0.3208301
vt 0.5470536 0.2890012
vt 0.5458838 0.2409453
vt 0.5507458 0.2163026
vt 0.5682769 0.3868441
vt 0.5575279 0.350035
vt 0.5464776 0.3196264
vt 0.569133 0.414323
vt 0.5801474 0.4133652
vt 0.5809848 0.4419464
vt 0.5700213 0.4428347
vt 0.5584676 0.4221997
vt 0.5587496 0.4522728
vt 0.5581957 0.3932159
vt 0.5474461 0.4222793
vt 0.5480215 0.4522822
vt 0.5465751 0.349485
vt 0.5364929 0.3171043
vt 0.5372207 0.2872216
vt 0.5372036 0.2319588
vt 0.5417043 0.2168489
vt 0.5366312 0.345415
vt 0.5367578 0.3870903
vt 0.5468916 0.3933632
vt 0.536688 0.4146989
vt 0.5366157 0.443345
vn 0.496188 0.02254813 0.8679222
vn 0.5090198 -0.752417 -0.4180522
vn -0.4312213 -0.8246071 0.3661573
vn 0.2076416 -0.6219108 -0.7550576
vn -0.3070679 -0.8868323 0.3453082
vn 0.0968076 -0.8374652 0.5378479
vn 0.7203819 0.5780457 -0.3832924
vn 0.496188 0.02254813 0.8679222
vn -0.3449827 -0.6240502 -0.701105
vn 0.3821828 -0.8216082 0.4229614
vn 0.3859332 0.5951728 -0.7048582
vn -0.6562666 -0.6828986 -0.3208795
vn 0.5683966 -0.784325 0.2485146
vn -0.2166146 0.6148438 -0.7583174
vn -0.0176906 0.9112982 0.4113668
vn -0.2641021 0.82482 0.4999221
vn 0.496188 0.02254813 0.8679222
vn -0.714629 -0.6988368 0.03053644
vn -0.6434597 0.5752643 -0.5050056
vn 0.2780017 0.8732166 0.4002595
vn -0.6747315 -0.7013317 0.2299375
vn 0.6966901 -0.7021325 0.1470814
vn 0.8263502 -0.5597578 0.06177865
vn -0.743044 -0.5976647 0.3011356
vn -0.7386598 0.647613 -0.1870268
vn -0.5576701 0.7660605 -0.3196175
vn -0.7366813 0.6275718 -0.2519016
vn 0.6409214 0.6975935 -0.3202861
vn 0.5692673 0.6943043 -0.4403137
vn 0.4962631 0.858563 0.1288119
vn 0.0968076 -0.8374652 0.5378479
vn -0.3070679 -0.8868323 0.3453082
vn -0.4312213 -0.8246071 0.3661573
vn 0.496188 0.02254813 0.8679222
vn 0.3821828 -0.8216082 0.4229614
vn 0.5683966 -0.784325 0.2485146
vn 0.6180528 0.7763658 -0.1235594
vn 0.6966901 -0.7021325 0.1470814
vn 0.8263502 -0.5597578 0.06177865
g TailDark_0
f 3/3/3 2/2/2 1/1/1
f 2/2/2 3/3/3 4/4/4
f 3/3/3 5/5/5 4/4/4
f 4/4/4 5/5/5 6/6/6
f 2/2/2 4/4/4 7/7/7
f 2/2/2 7/7/7 8/8/8
f 9/9/9 4/4/4 6/6/6
f 9/9/9 6/6/6 10/10/10
f 4/4/4 11/11/11 7/7/7
f 11/11/11 4/4/4 9/9/9
f 12/12/12 9/9/9 10/10/10
f 12/12/12 10/10/10 13/13/13
f 14/14/14 11/11/11 9/9/9
f 9/9/9 12/12/12 14/14/14
f 7/7/7 11/11/11 15/15/15
f 15/15/15 11/11/11 14/14/14
f 16/16/16 7/7/7 15/15/15
f 16/16/16 17/17/17 7/7/7
f 18/18/18 12/12/12 13/13/13
f 12/12/12 19/19/19 14/14/14
f 12/12/12 18/18/18 19/19/19
f 20/20/20 15/15/15 14/14/14
f 14/14/14 19/19/19 20/20/20
f 18/18/18 13/13/13 21/21/21
f 13/13/13 22/22/22 21/21/21
f 22/22/22 23/23/23 21/21/21
f 23/23/23 24/24/24 21/21/21
f 21/21/21 24/24/24 25/25/25
f 18/18/18 21/21/21 25/25/25
f 24/24/24 26/26/26 25/25/25
f 18/18/18 27/27/27 19/19/19
f 27/27/27 18/18/18 25/25/25
f 25/25/25 26/26/26 28/28/28
f 27/27/27 25/25/25 28/28/28
f 26/26/26 29/29/29 28/28/28
f 19/19/19 30/30/30 20/20/20
f 19/19/19 27/27/27 30/30/30
f 20/20/20 31/31/31 15/15/15
f 31/31/31 20/20/20 30/30/30
f 31/31/31 32/32/32 15/15/15
f 16/16/16 15/15/15 32/32/32
f 33/33/33 16/16/16 32/32/32
f 33/33/33 34/34/34 16/16/16
f 35/35/35 31/31/31 30/30/30
f 36/36/36 35/35/35 30/30/30
f 27/27/27 37/37/37 30/30/30
f 37/37/37 36/36/36 30/30/30
f 37/37/37 27/27/27 28/28/28
f 36/36/36 37/37/37 38/38/38
f 37/37/37 28/28/28 38/38/38
f 28/28/28 29/29/29 38/38/38
f 29/29/29 39/39/39 38/38/38
