g Tail
v -3.572194 5.731989 -11.67681
v -3.106636 5.948886 -11.33898
v -2.466374 5.921595 -11.84788
v -2.547934 5.710537 -12.43913
v -2.633627 5.918235 -13.03653
v -4.037671 5.930689 -12.01531
v -3.839205 5.777344 -10.74497
v -4.320088 5.983528 -10.86644
v -3.974889 6.435824 -10.0735
v -4.483387 6.414164 -10.86155
v -4.318892 6.842419 -10.86649
v -4.128104 6.360376 -12.01185
v -4.318892 6.842419 -10.86649
v -2.633029 6.347679 -13.03656
v -4.036475 6.78958 -12.01536
v -3.837431 7.051457 -10.74504
v -3.974889 6.435824 -10.0735
v -3.57042 7.006104 -11.67688
v -0.6719475 5.84721 -12.62715
v -0.9817699 5.640059 -12.11778
v -1.291014 5.84813 -11.60843
v -0.6713495 6.276656 -12.62717
v -1.290416 6.277575 -11.60845
v -2.632431 6.777125 -13.03658
v -0.6707516 6.706101 -12.6272
v -2.467253 6.352147 -11.84982
v -1.289819 6.707021 -11.60848
v -3.106636 5.948886 -11.33898
v -2.54616 6.984651 -12.43921
v -0.9799959 6.914173 -12.11785
v -2.465178 6.780486 -11.84793
v -3.10544 6.807777 -11.33903
v -2.941829 6.376905 -11.34352
v -3.10544 6.807777 -11.33903
v -3.30778 5.98434 -10.60279
v -3.572194 5.731989 -11.67681
v -3.839205 5.777344 -10.74497
v -3.974889 6.435824 -10.0735
v -3.196177 6.414134 -10.60821
v -3.306584 6.843231 -10.60284
v -3.306584 6.843231 -10.60284
v -3.57042 7.006104 -11.67688
v -3.837431 7.051457 -10.74504
v -3.974889 6.435824 -10.0735
v 0.5543034 6.773043 -6.756464
v 0.5551009 6.773165 -4.624079
v -0.01031868 6.981561 -4.624079
v 0.5545031 6.343719 -4.624079
v 0.5537055 6.343596 -6.756439
v 0.5539051 5.914274 -4.624079
v -0.0300416 6.981468 -6.754731
v 0.5689428 6.77292 -8.567353
v -0.6149648 6.774671 -6.752978
v -0.5763164 6.774733 -4.62408
v -0.6155627 6.345224 -6.752954
v -0.5769143 6.345287 -4.624079
v -0.6381763 6.774608 -8.433898
v -0.6161606 5.91578 -6.752929
v -0.5775122 5.915843 -4.624079
v -0.01209261 5.707448 -4.624079
v -0.03181553 5.707355 -6.75466
v 0.5531076 5.914152 -6.756415
v -0.6387742 6.345162 -8.433874
v -0.0343276 6.981376 -8.500637
v 0.568345 6.343474 -8.567329
v -0.6393721 5.915718 -8.433849
v -0.7482793 6.774696 -9.58711
v 0.4329785 6.773037 -9.847954
v -0.03610153 5.707262 -8.500565
v -0.7488772 6.345251 -9.587085
v -0.8583821 6.774785 -10.74032
v -0.1573613 6.981478 -9.717543
v 0.5677471 5.91403 -8.567306
v -0.7494751 5.915805 -9.587061
v 0.4323806 6.343591 -9.847929
v -0.280395 6.981581 -10.93445
v -0.1591353 5.707365 -9.717472
v -0.85898 6.345339 -10.7403
v 0.297014 6.773154 -11.12855
v 0.4317827 5.914146 -9.847906
v -0.8595779 5.915894 -10.74027
v -0.9799959 6.914173 -12.11785
v -1.289819 6.707021 -11.60848
v -1.290416 6.277575 -11.60845
v -1.291014 5.84813 -11.60843
v -0.6707516 6.706101 -12.6272
v -0.9817699 5.640059 -12.11778
v 0.296416 6.343709 -11.12853
v -0.6713495 6.276656 -12.62717
v 0.2958181 5.914264 -11.12851
v -0.6719475 5.84721 -12.62715
v -0.282169 5.707468 -10.93438
vt 0.8635719 0.3329019
vt 0.8635719 0.3334541
vt 0.8635719 0.3182482
vt 0.8635719 0.3180969
vt 0.8635719 0.3179455
vt 0.8635719 0.3323496
vt 0.863572 0.3439785
vt 0.8635719 0.3425309
vt 0.8635719 0.3491508
vt 0.8635719 0.3425309
vt 0.8635719 0.3425309
vt 0.8635719 0.3323496
vt 0.8635719 0.3425309
vt 0.8635719 0.3179455
vt 0.8635719 0.3323496
vt 0.863572 0.3439785
vt 0.8635719 0.3491508
vt 0.8635719 0.3329019
vt 0.8635719 0.3024389
vt 0.8635719 0.3022828
vt 0.8635719 0.3021266
vt 0.8635719 0.3024389
vt 0.8635719 0.3021266
vt 0.8635719 0.3179455
vt 0.8635719 0.3024389
vt 0.8635719 0.3182482
vt 0.8635719 0.3021266
vt 0.8635719 0.3334541
vt 0.8635719 0.3180969
vt 0.8635719 0.3022828
vt 0.8635719 0.3182482
vt 0.8635719 0.3334541
vt 0.8635719 0.3334541
vt 0.8635719 0.3334541
vt 0.8635719 0.3451523
vt 0.8635719 0.3329019
vt 0.863572 0.3439785
vt 0.8635719 0.3491508
vt 0.8635719 0.3451523
vt 0.8635719 0.3451523
vt 0.8635719 0.3451523
vt 0.8635719 0.3329019
vt 0.863572 0.3439785
vt 0.8635719 0.3491508
vt 0.9061428 0.5839697
vt 0.9061428 0.6180551
vt 0.9061428 0.6181142
vt 0.9061428 0.6180551
vt 0.9061428 0.5839697
vt 0.9061428 0.6180551
vt 0.9061428 0.5839245
vt 0.9061428 0.5498842
vt 0.9061428 0.5838794
vt 0.9061428 0.6181734
vt 0.9061428 0.5838794
vt 0.9061428 0.6181734
vt 0.9061428 0.5495853
vt 0.9061428 0.5838794
vt 0.9061428 0.6181734
vt 0.9061428 0.6181142
vt 0.9061428 0.5839245
vt 0.9061428 0.5839697
vt 0.9061428 0.5495853
vt 0.9061428 0.5497347
vt 0.9061428 0.5498842
vt 0.9061428 0.5495853
vt 0.9061428 0.5152913
vt 0.9061428 0.5157988
vt 0.9061428 0.5497347
vt 0.9061428 0.5152913
vt 0.9061428 0.4809974
vt 0.9061428 0.5155451
vt 0.9061428 0.5498842
vt 0.9061428 0.5152913
vt 0.9061428 0.5157988
vt 0.9061428 0.4813554
vt 0.9061428 0.5155451
vt 0.9061428 0.4809974
vt 0.9061428 0.4817135
vt 0.9061428 0.5157988
vt 0.9061428 0.4809974
vt 0.9061428 0.4640531
vt 0.9061428 0.4642093
vt 0.9061428 0.4642093
vt 0.9061428 0.4642093
vt 0.9061428 0.463897
vt 0.9061428 0.4640531
vt 0.9061428 0.4817135
vt 0.9061428 0.463897
vt 0.9061428 0.4817135
vt 0.9061428 0.463897
vt 0.9061428 0.4813554
vn -0.1037154 -0.9934471 -0.0480191
vn 0.4988655 -0.7916956 0.3526347
vn 0.07081142 -0.786257 0.6138286
vn -0.05761128 -0.9906328 -0.1238049
vn -0.1494046 -0.5825322 -0.7989584
vn -0.6139224 -0.6125364 -0.497894
vn -0.09809199 -0.9691254 0.2262168
vn -0.7378863 -0.6745784 0.02162715
vn -0.2229994 0.009734203 0.9747699
vn -0.9987015 0.006090895 -0.05057871
vn -0.7234494 0.689715 -0.03023396
vn -0.7930492 -0.002295276 -0.6091532
vn -0.7234494 0.689715 -0.03023396
vn -0.1770252 8.218413E-05 -0.9842063
vn -0.60377 0.6029204 -0.521487
vn -0.07937505 0.9850988 0.1525777
vn -0.2229994 0.009734203 0.9747699
vn -0.08512008 0.991106 -0.1022911
vn 0.4310023 -0.6042861 -0.6701309
vn 0.06403406 -0.9939268 -0.0894947
vn -0.35381 -0.7829543 0.5116649
vn 0.5457693 -0.0008064978 -0.837935
vn -0.5676916 0.0008809211 0.8232408
vn -0.1263436 0.5928891 -0.7953111
vn 0.4452042 0.5757544 -0.6857843
vn 0.1528259 -0.001365444 0.9882522
vn -0.359618 0.7808525 0.5108269
vn 0.4988655 -0.7916956 0.3526347
vn -0.00432253 0.9915804 -0.1294194
vn 0.08194197 0.9899923 -0.1148943
vn 0.1302472 0.7943236 0.5933681
vn 0.5247869 0.7969913 0.2990042
vn 0.8280505 -0.004156811 0.5606381
vn 0.5247869 0.7969913 0.2990042
vn 0.5604938 -0.7038365 0.4364183
vn -0.1037154 -0.9934471 -0.0480191
vn -0.09809199 -0.9691254 0.2262168
vn -0.2229994 0.009734203 0.9747699
vn 0.8682945 0.003931888 0.4960335
vn 0.5772755 0.7213218 0.382685
vn 0.5772755 0.7213218 0.382685
vn -0.08512008 0.991106 -0.1022911
vn -0.07937505 0.9850988 0.1525777
vn -0.2229994 0.009734203 0.9747699
vn 0.7396381 0.6730033 0.001405555
vn 0.7432964 0.6689607 -0.001389309
vn 0.003533966 0.9999926 0.001528638
vn 0.999999 -0.001392254 -0.0003739414
vn 0.9999928 -0.001392076 0.003510334
vn 0.7414575 -0.6709985 -0.001313116
vn 0.003665363 0.9999919 0.001686922
vn 0.7431079 0.6684967 -0.03004798
vn -0.7347677 0.6782347 0.01068255
vn -0.7387092 0.6739119 0.01230965
vn -0.9998672 0.001392742 0.01623487
vn -0.9998343 0.001392572 0.01815135
vn -0.7148879 0.6984698 0.03278859
vn -0.7366536 -0.6761847 0.01075853
vn -0.740604 -0.6718275 0.01238497
vn 0.0007552886 -0.9999985 0.001640972
vn 0.0008840675 -0.999998 0.001799654
vn 0.7377631 -0.6750581 0.001482028
vn -0.9988946 0.00139339 0.04698692
vn 0.02132716 0.9997725 0.0003419124
vn 0.9992298 -0.001393453 -0.0392146
vn -0.7168293 -0.6964736 0.03286724
vn -0.7168505 0.693786 0.06918347
vn 0.7303253 0.6787571 -0.07690115
vn 0.01854313 -0.999828 0.0004548434
vn -0.9954722 0.001391324 0.09504286
vn -0.6632694 0.7297895 0.1657738
vn 0.01039034 0.9999443 -0.001882768
vn 0.7412428 -0.6705675 -0.02997226
vn -0.718779 -0.69178 0.06926099
vn 0.99441 -0.001390457 -0.105579
vn 0.05429732 0.9971034 -0.05326044
vn 0.007605904 -0.9999695 -0.001770468
vn -0.9659463 0.00135957 0.2587388
vn 0.7212254 0.6272007 -0.2940288
vn 0.7284316 -0.6807976 -0.07682463
vn -0.658353 -0.7242559 0.2049995
vn 0.08194197 0.9899923 -0.1148943
vn -0.359618 0.7808525 0.5108269
vn -0.5676916 0.0008809211 0.8232408
vn -0.35381 -0.7829543 0.5116649
vn 0.4452042 0.5757544 -0.6857843
vn 0.06403406 -0.9939268 -0.0894947
vn 0.9294026 -0.001314736 -0.369065
vn 0.5457693 -0.0008064978 -0.837935
vn 0.7394338 -0.6144798 -0.2750495
vn 0.4310023 -0.6042861 -0.6701309
vn 0.08271973 -0.996483 -0.01338274
g Tail_0
f 3/3/3 2/2/2 1/1/1
f 4/4/4 3/3/3 1/1/1
f 4/4/4 1/1/1 5/5/5
f 1/1/1 6/6/6 5/5/5
f 6/6/6 1/1/1 7/7/7
f 8/8/8 6/6/6 7/7/7
f 7/7/7 9/9/9 8/8/8
f 9/9/9 10/10/10 8/8/8
f 6/6/6 8/8/8 10/10/10
f 9/9/9 11/11/11 10/10/10
f 12/12/12 6/6/6 10/10/10
f 5/5/5 6/6/6 12/12/12
f 12/12/12 10/10/10 13/13/13
f 14/14/14 5/5/5 12/12/12
f 15/15/15 12/12/12 13/13/13
f 14/14/14 12/12/12 15/15/15
f 15/15/15 13/13/13 16/16/16
f 16/16/16 13/13/13 17/17/17
f 18/18/18 15/15/15 16/16/16
f 4/4/4 5/5/5 19/19/19
f 19/19/19 5/5/5 14/14/14
f 20/20/20 4/4/4 19/19/19
f 20/20/20 21/21/21 4/4/4
f 21/21/21 3/3/3 4/4/4
f 22/22/22 19/19/19 14/14/14
f 3/3/3 21/21/21 23/23/23
f 24/24/24 14/14/14 15/15/15
f 22/22/22 14/14/14 24/24/24
f 15/15/15 18/18/18 24/24/24
f 25/25/25 22/22/22 24/24/24
f 26/26/26 3/3/3 23/23/23
f 26/26/26 23/23/23 27/27/27
f 28/28/28 3/3/3 26/26/26
f 24/24/24 29/29/29 25/25/25
f 18/18/18 29/29/29 24/24/24
f 29/29/29 30/30/30 25/25/25
f 27/27/27 30/30/30 29/29/29
f 31/31/31 29/29/29 18/18/18
f 31/31/31 27/27/27 29/29/29
f 31/31/31 26/26/26 27/27/27
f 32/32/32 31/31/31 18/18/18
f 33/33/33 26/26/26 31/31/31
f 33/33/33 28/28/28 26/26/26
f 34/34/34 33/33/33 31/31/31
f 35/35/35 28/28/28 33/33/33
f 36/36/36 28/28/28 35/35/35
f 37/37/37 36/36/36 35/35/35
f 37/37/37 35/35/35 38/38/38
f 39/39/39 35/35/35 33/33/33
f 35/35/35 39/39/39 38/38/38
f 39/39/39 33/33/33 34/34/34
f 39/39/39 40/40/40 38/38/38
f 41/41/41 39/39/39 34/34/34
f 34/34/34 42/42/42 41/41/41
f 42/42/42 43/43/43 41/41/41
f 41/41/41 43/43/43 44/44/44
f 47/47/47 46/46/46 45/45/45
f 46/46/46 48/48/48 45/45/45
f 48/48/48 49/49/49 45/45/45
f 48/48/48 50/50/50 49/49/49
f 51/51/51 47/47/47 45/45/45
f 45/45/45 49/49/49 52/52/52
f 51/51/51 45/45/45 52/52/52
f 47/47/47 51/51/51 53/53/53
f 54/54/54 47/47/47 53/53/53
f 53/53/53 55/55/55 54/54/54
f 55/55/55 56/56/56 54/54/54
f 53/53/53 51/51/51 57/57/57
f 53/53/53 57/57/57 55/55/55
f 55/55/55 58/58/58 56/56/56
f 58/58/58 59/59/59 56/56/56
f 60/60/60 59/59/59 58/58/58
f 50/50/50 60/60/60 61/61/61
f 61/61/61 60/60/60 58/58/58
f 50/50/50 62/62/62 49/49/49
f 62/62/62 50/50/50 61/61/61
f 55/55/55 63/63/63 58/58/58
f 57/57/57 63/63/63 55/55/55
f 51/51/51 64/64/64 57/57/57
f 64/64/64 51/51/51 52/52/52
f 49/49/49 65/65/65 52/52/52
f 49/49/49 62/62/62 65/65/65
f 61/61/61 58/58/58 66/66/66
f 63/63/63 66/66/66 58/58/58
f 57/57/57 67/67/67 63/63/63
f 57/57/57 64/64/64 67/67/67
f 64/64/64 52/52/52 68/68/68
f 52/52/52 65/65/65 68/68/68
f 62/62/62 61/61/61 69/69/69
f 69/69/69 61/61/61 66/66/66
f 63/63/63 70/70/70 66/66/66
f 67/67/67 70/70/70 63/63/63
f 67/67/67 71/71/71 70/70/70
f 64/64/64 72/72/72 67/67/67
f 72/72/72 64/64/64 68/68/68
f 67/67/67 72/72/72 71/71/71
f 62/62/62 73/73/73 65/65/65
f 73/73/73 62/62/62 69/69/69
f 70/70/70 74/74/74 66/66/66
f 69/69/69 66/66/66 74/74/74
f 65/65/65 75/75/75 68/68/68
f 65/65/65 73/73/73 75/75/75
f 72/72/72 68/68/68 76/76/76
f 72/72/72 76/76/76 71/71/71
f 73/73/73 69/69/69 77/77/77
f 77/77/77 69/69/69 74/74/74
f 70/70/70 78/78/78 74/74/74
f 71/71/71 78/78/78 70/70/70
f 68/68/68 79/79/79 76/76/76
f 68/68/68 75/75/75 79/79/79
f 73/73/73 80/80/80 75/75/75
f 80/80/80 73/73/73 77/77/77
f 77/77/77 74/74/74 81/81/81
f 78/78/78 81/81/81 74/74/74
f 71/71/71 76/76/76 82/82/82
f 82/82/82 76/76/76 79/79/79
f 83/83/83 71/71/71 82/82/82
f 83/83/83 84/84/84 71/71/71
f 84/84/84 78/78/78 71/71/71
f 84/84/84 85/85/85 78/78/78
f 85/85/85 81/81/81 78/78/78
f 86/86/86 82/82/82 79/79/79
f 81/81/81 85/85/85 87/87/87
f 75/75/75 88/88/88 79/79/79
f 79/79/79 88/88/88 86/86/86
f 75/75/75 80/80/80 88/88/88
f 88/88/88 89/89/89 86/86/86
f 88/88/88 90/90/90 89/89/89
f 80/80/80 90/90/90 88/88/88
f 90/90/90 91/91/91 89/89/89
f 87/87/87 91/91/91 90/90/90
f 92/92/92 81/81/81 87/87/87
f 92/92/92 87/87/87 90/90/90
f 90/90/90 80/80/80 92/92/92
f 92/92/92 77/77/77 81/81/81
f 80/80/80 77/77/77 92/92/92
