g Tail
v 5.469157 2.715444 -7.837117
v 5.178541 3.16316 -6.859861
v 5.555809 3.773045 -7.660344
v 3.874126 3.089582 -9.097296
v 4.039577 4.156117 -9.132578
v 1.714922 3.305266 -8.917303
v 4.373868 3.74701 -6.925212
v 5.178541 3.16316 -6.859861
v 1.813755 4.375771 -8.970162
v 0.187184 3.669222 -7.57848
v 3.518523 4.163859 -7.896329
v 0.06755 4.677095 -7.681256
v 2.07436 4.379836 -7.764892
v -0.638037 5.839535 -3.774891
v -0.430607 4.690958 -3.76416
v -0.623512 5.514316 -1.252286
v -0.589669 7.024046 -1.264155
v 0.946924 4.689905 -6.880251
v 0.588135 5.838487 -3.821297
v 0.6846009 7.020726 -1.293642
v 2.126376 3.309325 -7.671264
v 3.378525 3.096971 -7.922166
v 1.152881 3.682032 -6.777456
v 0.703367 4.68931 -3.75073
v 0.6491539 5.507584 -1.278236
v -0.430607 4.690958 -3.76416
v -0.623512 5.514316 -1.252286
v 0.187184 3.669222 -7.57848
v 1.714922 3.305266 -8.917303
v 3.874126 3.089582 -9.097296
v 5.469157 2.715444 -7.837117
v 4.287216 2.689401 -7.10199
v 5.178541 3.16316 -6.859861
vt 0.2264423 0.9382587
vt 0.2389694 0.9445782
vt 0.2327067 0.9382587
vt 0.2264423 0.9306716
vt 0.2327067 0.9306716
vt 0.2264423 0.9220546
vt 0.2391577 0.9382587
vt 0.2389694 0.9445782
vt 0.2327067 0.9220546
vt 0.2264423 0.9147147
vt 0.2391577 0.9306716
vt 0.2327067 0.9147147
vt 0.2391577 0.9220546
vt 0.2327067 0.8981531
vt 0.2264423 0.8981531
vt 0.2264423 0.8867281
vt 0.2327067 0.8867281
vt 0.2391577 0.9147147
vt 0.2391577 0.8981531
vt 0.2391578 0.8867281
vt 0.2447762 0.9220546
vt 0.2447762 0.9306716
vt 0.2447762 0.9147147
vt 0.2447762 0.8981531
vt 0.2447761 0.8867281
vt 0.2511456 0.8981531
vt 0.2511457 0.8867281
vt 0.2511456 0.9147147
vt 0.2511456 0.9220546
vt 0.2511456 0.9306716
vt 0.2511456 0.9382587
vt 0.2447762 0.9382587
vt 0.2389694 0.9445782
vn 0.5189353 -0.6491545 -0.5561516
vn 0.5110402 -0.1681121 0.8429569
vn 0.7096999 0.611406 -0.3500122
vn 0.1540715 -0.5809175 -0.7992477
vn 0.3335065 0.6173964 -0.7124571
vn -0.363485 -0.6308513 -0.6854963
vn -0.1812869 0.7839651 0.5937456
vn 0.5110402 -0.1681121 0.8429569
vn -0.2101813 0.6038957 -0.7688524
vn -0.7413927 -0.6466919 -0.1792389
vn 0.02889531 0.8994871 0.4359908
vn -0.763106 0.4830595 -0.4293282
vn 0.3176663 0.8739011 0.3679469
vn -0.7500488 0.5861005 -0.3064525
vn -0.7224697 -0.6803948 0.1228834
vn -0.7806916 -0.5989265 0.1783472
vn -0.593237 0.7214032 -0.3572775
vn 0.5571902 0.8272933 -0.07158776
vn 0.6571861 0.7139148 -0.2417276
vn 0.5617464 0.7477962 -0.3538952
vn 0.05610346 -0.8475482 0.5277445
vn -0.2886626 -0.8880718 0.3577742
vn 0.3907683 -0.8271652 0.4038538
vn 0.6800936 -0.6869252 0.2561373
vn 0.7928583 -0.581269 0.1830356
vn -0.7224697 -0.6803948 0.1228834
vn -0.7806916 -0.5989265 0.1783472
vn -0.7413927 -0.6466919 -0.1792389
vn -0.363485 -0.6308513 -0.6854963
vn 0.1540715 -0.5809175 -0.7992477
vn 0.5189353 -0.6491545 -0.5561516
vn -0.4056347 -0.8645609 0.2966397
vn 0.5110402 -0.1681121 0.8429569
g Tail_0
f 3/3/3 2/2/2 1/1/1
f 3/3/3 1/1/1 4/4/4
f 5/5/5 3/3/3 4/4/4
f 5/5/5 4/4/4 6/6/6
f 7/7/7 3/3/3 5/5/5
f 7/7/7 8/8/8 3/3/3
f 9/9/9 5/5/5 6/6/6
f 6/6/6 10/10/10 9/9/9
f 11/11/11 7/7/7 5/5/5
f 11/11/11 5/5/5 9/9/9
f 10/10/10 12/12/12 9/9/9
f 13/13/13 11/11/11 9/9/9
f 9/9/9 12/12/12 13/13/13
f 12/12/12 10/10/10 14/14/14
f 10/10/10 15/15/15 14/14/14
f 15/15/15 16/16/16 14/14/14
f 16/16/16 17/17/17 14/14/14
f 12/12/12 18/18/18 13/13/13
f 12/12/12 14/14/14 18/18/18
f 14/14/14 17/17/17 19/19/19
f 14/14/14 19/19/19 18/18/18
f 17/17/17 20/20/20 19/19/19
f 13/13/13 21/21/21 11/11/11
f 21/21/21 13/13/13 18/18/18
f 11/11/11 22/22/22 7/7/7
f 21/21/21 22/22/22 11/11/11
f 18/18/18 19/19/19 23/23/23
f 23/23/23 21/21/21 18/18/18
f 19/19/19 20/20/20 24/24/24
f 19/19/19 24/24/24 23/23/23
f 20/20/20 25/25/25 24/24/24
f 24/24/24 25/25/25 26/26/26
f 25/25/25 27/27/27 26/26/26
f 24/24/24 26/26/26 28/28/28
f 23/23/23 24/24/24 28/28/28
f 28/28/28 29/29/29 23/23/23
f 29/29/29 21/21/21 23/23/23
f 29/29/29 30/30/30 21/21/21
f 30/30/30 22/22/22 21/21/21
f 30/30/30 31/31/31 22/22/22
f 22/22/22 32/32/32 7/7/7
f 31/31/31 32/32/32 22/22/22
f 32/32/32 33/33/33 7/7/7
f 31/31/31 8/8/8 32/32/32
