g TempleBaseRed
v 3.391782 1.597112 20.08196
v 3.391782 -0.08922499 20.10805
v 0 -0.089227 20.10805
v 0 1.597112 20.08196
v -3.391782 -0.08922499 20.10805
v 3.422423 1.58064 18.36447
v -3.391782 1.597112 20.08196
v 0 1.58064 18.36447
v 3.856832 7.770791 13.12225
v -3.422423 1.58064 18.36447
v 0 7.770791 13.12225
v 3.856832 7.770791 11.90837
v -3.856832 7.770791 13.12225
v 0 7.770791 11.90837
v -3.856832 7.770791 11.90837
vt 0.8347306 0.8917443
vt 0.8102616 0.8918481
vt 0.8104748 0.9421268
vt 0.834944 0.9420229
vt 0.8106884 0.9924055
vt 0.8590401 0.8911862
vt 0.8351575 0.9923015
vt 0.8592548 0.9419197
vt 0.9796636 0.8842357
vt 0.8594707 0.992653
vt 0.9799057 0.9414076
vt 0.9976581 0.8841589
vt 0.980149 0.9985794
vt 0.9979002 0.9413312
vt 0.9981434 0.9985032
vn 0 0.727616 0.6859847
vn 0 0.01547177 0.9998803
vn 0 0.01547177 0.9998803
vn 0 0.7237558 0.6900563
vn 0 0.01547177 0.9998803
vn 0 0.7392693 0.6734098
vn 0 0.727616 0.6859847
vn 0 0.7427682 0.6695488
vn 0 0.7280369 0.6855379
vn 0 0.7392693 0.6734099
vn 0 0.7256631 0.6880501
vn 0 1 0
vn 0 0.7280369 0.6855379
vn 0 1 0
vn 0 1 0
g TempleBaseRed_0
f 3/3/3 2/2/2 1/1/1
f 4/4/4 3/3/3 1/1/1
f 5/5/5 3/3/3 4/4/4
f 1/1/1 6/6/6 4/4/4
f 7/7/7 5/5/5 4/4/4
f 6/6/6 8/8/8 4/4/4
f 4/4/4 8/8/8 7/7/7
f 6/6/6 9/9/9 8/8/8
f 8/8/8 10/10/10 7/7/7
f 9/9/9 11/11/11 8/8/8
f 8/8/8 11/11/11 10/10/10
f 9/9/9 12/12/12 11/11/11
f 11/11/11 13/13/13 10/10/10
f 12/12/12 14/14/14 11/11/11
f 11/11/11 14/14/14 13/13/13
f 14/14/14 15/15/15 13/13/13
