g TestubeGold
v 0.5654135 1.153674 0.5203474
v 0.6569214 1.069946 0.4772816
v 0.6110367 1.101146 0.5051148
v 0.6288638 1.153674 0.4568964
v 0.480596 1.270397 0.5052539
v 0.7086905 1.095823 0.3523597
v 0.6894571 1.06894 0.4143341
v 0.7118371 1.153673 0.2940522
v 0.6436242 1.270397 0.2723133
v 0.5709967 1.270397 0.4148535
v 0.3878332 1.374493 0.4738313
v 0.5528159 1.374494 0.2571119
v 0.4990692 1.374493 0.3625953
v 0.3014084 1.4634 0.4148536
v 0.4461658 1.4634 0.2399537
v 0.4148532 1.4634 0.3014088
v 0.2760016 1.517712 0.3164631
v 0.3775049 1.504226 0.2297681
v 0.2836023 1.534929 0.2696205
v 0.3204221 1.534929 0.2328003
v -0.328258 2.074872 -0.3282581
v 0 2.074872 -0.4642261
v 0.3282577 2.074872 -0.3282581
v -0.4642258 2.074872 -3.814697E-08
v 0.4642258 2.074872 -3.814697E-08
v -0.328258 2.074872 0.3282574
v 0.3282577 2.074872 0.3282574
v 0 2.074872 0.464226
v -0.328258 1.499729 0.3282576
v -0.328258 2.074872 0.3282574
v 0 2.074872 0.464226
v 0 1.499729 0.4642262
v 0.3282577 2.074872 0.3282574
v 0.3282577 1.499729 0.3282576
v 0.4642258 2.074872 -3.814697E-08
v 0.4642258 1.499729 -3.814697E-08
v 0.3282577 2.074872 -0.3282581
v 0.3282577 1.499729 -0.3282575
v 0 2.074872 -0.4642261
v 0 1.499729 -0.4642261
v -0.328258 2.074872 -0.3282581
v -0.328258 1.499729 -0.3282575
v -0.4642258 2.074872 -3.814697E-08
v -0.4642258 1.499729 -3.814697E-08
v -0.328258 2.074872 0.3282574
v -0.328258 1.499729 0.3282576
v -0.4642258 1.499729 -3.814697E-08
v -0.4642258 2.074872 -3.814697E-08
v -0.3150781 2.521979 -0.3150781
v 0 2.521979 -0.445587
v 0.3150775 2.521979 -0.3150781
v -0.445587 2.521979 -3.814697E-08
v 0.4455872 2.521979 -3.814697E-08
v -0.3150781 2.521979 0.315078
v 0.3150775 2.521979 0.315078
v 0 2.52198 0.4455871
v 0.2384094 1.995259 -0.2384095
v 0.3150775 2.521979 -0.3150781
v 0 2.521979 -0.445587
v 0 1.995259 -0.3371619
v 0.3371619 1.995259 -3.814697E-08
v -0.3150781 2.521979 -0.3150781
v 0.4455872 2.521979 -3.814697E-08
v -0.2384094 1.995259 -0.2384095
v 0.2384094 1.995259 0.2384093
v -0.445587 2.521979 -3.814697E-08
v 0.3150775 2.521979 0.315078
v -0.3371619 1.995259 -3.814697E-08
v 0 1.995259 0.3371618
v -0.3150781 2.521979 0.315078
v 0 2.52198 0.4455871
v -0.2384094 1.995259 0.2384094
v 0.1649292 -2.393379 -0.5076001
v 0 -2.52198 -3.814697E-08
v 0.4317905 -2.393379 -0.3137147
v -0.1649295 -2.393379 -0.5076001
v 0.5337225 -2.393379 -3.814697E-08
v 0.2476123 -2.064043 -0.7620727
v -0.2476126 -2.064043 -0.7620727
v 0.648258 -2.064044 -0.4709875
v -0.4317908 -2.393379 -0.3137147
v -0.6482579 -2.064044 -0.4709876
v 0.2450537 1.089516 -0.7541986
v 0.6415594 1.089516 -0.46612
v -0.245054 1.089516 -0.7541986
v 0.8012909 -2.064043 -3.814697E-08
v 0.4317905 -2.393378 0.3137147
v 0.7930111 1.089516 4.185303E-08
v -0.8012909 -2.064043 1.185303E-08
v -0.6415594 1.089516 -0.4661199
v -0.5337225 -2.393379 -8.146971E-09
v 0.1895142 1.370891 -0.5832654
v -0.1895145 1.370891 -0.5832654
v 0.4961551 1.370891 -0.3604779
v -0.4961551 1.370891 -0.3604779
v 0.6415594 1.089515 0.4661201
v 0.6132813 1.370891 -3.814697E-08
v 0.648258 -2.064044 0.4709863
v 0.1649292 -2.39338 0.5076001
v 0.1025644 1.558901 -0.315661
v -0.1025644 1.558901 -0.315661
v 0 1.655071 -4.814697E-08
v 0.2685175 1.558901 -0.1950891
v -0.2685175 1.558901 -0.1950892
v 0.3319055 1.558901 -3.814697E-08
v -0.3319055 1.558901 -1.814697E-08
v 0.4961551 1.370891 0.3604774
v -0.6132814 1.370891 1.853027E-09
v -0.2685175 1.558901 0.195089
v -0.7930111 1.089516 1.185303E-08
v -0.4961551 1.370891 0.360478
v -0.6482579 -2.064043 0.4709876
v 0.2685175 1.558901 0.1950891
v 0.2450537 1.089515 0.7541981
v -0.1025644 1.558901 0.3156611
v -0.6415594 1.089515 0.4661201
v -0.4317905 -2.393379 0.3137146
v 0.1895142 1.370891 0.5832655
v 0.1025644 1.558901 0.3156611
v -0.1895142 1.370891 0.5832655
v -0.2450537 1.089516 0.7541987
v -0.2476123 -2.064044 0.7620726
v -0.1649292 -2.39338 0.5076001
v 0.2476123 -2.064043 0.7620727
vt 0.947292 0.59245
vt 0.947292 0.59245
vt 0.947292 0.59245
vt 0.947292 0.59245
vt 0.947292 0.59245
vt 0.947292 0.59245
vt 0.947292 0.59245
vt 0.947292 0.59245
vt 0.947292 0.59245
vt 0.947292 0.59245
vt 0.947292 0.59245
vt 0.947292 0.59245
vt 0.947292 0.59245
vt 0.947292 0.59245
vt 0.947292 0.59245
vt 0.947292 0.59245
vt 0.947292 0.59245
vt 0.947292 0.59245
vt 0.947292 0.59245
vt 0.947292 0.59245
vt 0.808737 0.563313
vt 0.808737 0.563313
vt 0.808737 0.563313
vt 0.808737 0.563313
vt 0.808737 0.563313
vt 0.808737 0.563313
vt 0.808737 0.563313
vt 0.808737 0.563313
vt 0.818911 0.409891
vt 0.818911 0.409891
vt 0.818911 0.409891
vt 0.818911 0.409891
vt 0.818911 0.409891
vt 0.818911 0.409891
vt 0.818911 0.409891
vt 0.818911 0.409891
vt 0.818911 0.409891
vt 0.818911 0.409891
vt 0.818911 0.409891
vt 0.818911 0.409891
vt 0.818911 0.409891
vt 0.818911 0.409891
vt 0.818911 0.409891
vt 0.818911 0.409891
vt 0.818911 0.414212
vt 0.818911 0.414212
vt 0.818911 0.414212
vt 0.818911 0.414212
vt 0.822387 0.952776
vt 0.822387 0.952776
vt 0.822387 0.952776
vt 0.822387 0.952776
vt 0.822387 0.952776
vt 0.822387 0.952776
vt 0.822387 0.952776
vt 0.822387 0.952776
vt 0.817901 0.755072
vt 0.817901 0.755072
vt 0.817901 0.755072
vt 0.817901 0.755072
vt 0.817901 0.755072
vt 0.817901 0.755072
vt 0.817901 0.755072
vt 0.817901 0.755072
vt 0.817901 0.755072
vt 0.817901 0.755072
vt 0.817901 0.755072
vt 0.817901 0.755072
vt 0.817901 0.755072
vt 0.817901 0.755072
vt 0.817901 0.755072
vt 0.817901 0.755072
vt 0.661008 0.412171
vt 0.661008 0.379437
vt 0.661008 0.412171
vt 0.661008 0.412171
vt 0.661008 0.412171
vt 0.661008 0.428537
vt 0.661008 0.428537
vt 0.661008 0.428537
vt 0.661008 0.412171
vt 0.661008 0.428537
vt 0.661008 0.674916
vt 0.661008 0.674916
vt 0.661008 0.674916
vt 0.661008 0.428537
vt 0.661008 0.412171
vt 0.661008 0.674916
vt 0.661008 0.428537
vt 0.661008 0.674916
vt 0.661008 0.412171
vt 0.661008 0.873857
vt 0.661008 0.873857
vt 0.661008 0.873857
vt 0.661008 0.873857
vt 0.661008 0.674916
vt 0.661008 0.873857
vt 0.661008 0.428537
vt 0.661008 0.412171
vt 0.661008 0.961167
vt 0.661008 0.961167
vt 0.661008 0.961168
vt 0.661008 0.961167
vt 0.661008 0.961167
vt 0.661008 0.961167
vt 0.661008 0.961167
vt 0.661008 0.873857
vt 0.661008 0.873857
vt 0.661008 0.961167
vt 0.661008 0.674916
vt 0.661008 0.873857
vt 0.661008 0.428537
vt 0.661008 0.961167
vt 0.661008 0.674916
vt 0.661008 0.961167
vt 0.661008 0.674916
vt 0.661008 0.412171
vt 0.661008 0.873857
vt 0.661008 0.961167
vt 0.661008 0.873857
vt 0.661008 0.674916
vt 0.661008 0.428537
vt 0.661008 0.412171
vt 0.661008 0.428537
vn 0.6124809 0.4997379 0.6124779
vn 0.7978536 0.3810948 0.4671148
vn 0.654458 0.378652 0.654452
vn 0.7353251 0.4765421 0.4818761
vn 0.5634371 0.6042162 0.5634371
vn 0.8246616 0.3786523 0.4201853
vn 0.8246612 0.3786521 0.4201861
vn 0.7790566 0.4852867 0.3969478
vn 0.7318029 0.5704669 0.3728699
vn 0.6655067 0.5841467 0.4646218
vn 0.4950562 0.7140292 0.4950572
vn 0.6498668 0.6841278 0.3311229
vn 0.5702819 0.7000668 0.4297499
vn 0.4316212 0.7920893 0.4316222
vn 0.5586888 0.7789947 0.2846649
vn 0.4730159 0.7935009 0.3828999
vn 0.3727938 0.8497346 0.3727948
vn 0.469751 0.849736 0.239338
vn 0.3727938 0.8497346 0.3727948
vn 0.3832399 0.8508028 0.3595299
vn 0 1 0
vn 0 1 0
vn 0 1 0
vn 0 1 0
vn 0 1 0
vn 0 1 0
vn 0 1 0
vn 0 1 0
vn -0.3826829 0 0.9238797
vn 0 1 0
vn 0 1 0
vn -0.3826829 0 0.9238797
vn 0 1 0
vn 0.9238801 0 0.3826821
vn 0 1 0
vn 0.9238801 0 -0.3826821
vn 0 1 0
vn 0.3826821 0 -0.9238801
vn 0 1 0
vn -0.3826821 0 -0.9238801
vn 0 1 0
vn -0.9238806 0 -0.3826809
vn 0 1 0
vn -0.9238805 0 0.3826812
vn 0 1 0
vn -0.3826829 0 0.9238797
vn -0.9238805 0 0.3826812
vn 0 1 0
vn -0.375944 -0.186832 -0.9076121
vn 0.3759449 -0.186832 -0.9076118
vn 0.3759449 -0.186832 -0.9076118
vn -0.9076121 -0.186832 -0.375944
vn 0.9076118 -0.186832 0.3759449
vn -0.9076121 -0.186832 0.375944
vn 0.3759449 -0.186832 0.9076118
vn -0.375944 -0.186832 0.9076121
vn 0.3759449 -0.186832 -0.9076118
vn 0.3759449 -0.186832 -0.9076118
vn 0.3759449 -0.186832 -0.9076118
vn 0.3759449 -0.186832 -0.9076118
vn 0.9076118 -0.186832 0.3759449
vn -0.375944 -0.186832 -0.9076121
vn 0.9076118 -0.186832 0.3759449
vn -0.375944 -0.186832 -0.9076121
vn 0.3759449 -0.186832 0.9076118
vn -0.9076121 -0.186832 -0.375944
vn 0.3759449 -0.186832 0.9076118
vn -0.9076121 -0.186832 -0.375944
vn -0.375944 -0.186832 0.9076121
vn -0.9076121 -0.186832 0.375944
vn -0.375944 -0.186832 0.9076121
vn -0.9076121 -0.186832 0.375944
vn 0.144354 -0.9693738 -0.198687
vn 0.144354 -0.9693738 -0.198687
vn 0.144354 -0.9693738 -0.198687
vn 0 -0.9693736 -0.2455909
vn 0.2335709 -0.9693735 0.07589296
vn 0.4651141 -0.6114262 -0.6401772
vn 0 -0.6114258 -0.7913017
vn 0.4651141 -0.6114262 -0.6401772
vn -0.144354 -0.9693738 -0.198687
vn -0.4651141 -0.6114262 -0.6401772
vn 0.5877829 0.002497 -0.8090149
vn 0.5877829 0.002497 -0.8090149
vn 0 0.002497 -0.9999969
vn 0.7525718 -0.6114269 0.2445259
vn 0.144357 -0.9693737 0.1986849
vn 0.9510536 0.002496999 0.3090158
vn -0.7525728 -0.6114259 -0.244525
vn -0.587784 0.002497 -0.809014
vn -0.2335709 -0.9693736 -0.07589097
vn 0.5023541 0.5191951 -0.691431
vn 0 0.519196 -0.8546551
vn 0.5023541 0.5191951 -0.691431
vn -0.5023541 0.5191951 -0.691431
vn 0.587784 0.002497 0.809014
vn 0.8128254 0.5191957 0.2641039
vn 0.4651157 -0.6114256 0.6401766
vn 0 -0.9693738 0.24559
vn 0.3379 0.818244 -0.465081
vn 0 0.8182441 -0.5748711
vn 0.2771739 0.9565898 -0.09005998
vn 0.3379 0.818244 -0.465081
vn -0.3378999 0.8182447 -0.4650798
vn 0.5467349 0.8182439 0.177645
vn -0.546735 0.8182441 -0.177644
vn 0.5023548 0.5191948 0.6914307
vn -0.812826 0.519195 -0.264103
vn -0.5467337 0.8182447 0.1776449
vn -0.9510536 0.002496999 -0.3090158
vn -0.812826 0.519195 0.264103
vn -0.7525728 -0.6114259 0.244525
vn 0.337902 0.8182439 0.4650799
vn 1E-06 0.002497 0.9999969
vn -0.3379002 0.8182444 0.4650802
vn -0.9510536 0.002496999 0.3090158
vn -0.2335709 -0.9693736 0.07589196
vn 9.999999E-07 0.519195 0.8546559
vn 0 0.8182449 0.5748699
vn -0.5023541 0.5191951 0.691431
vn -0.5877829 0.002497 0.8090149
vn -0.4651149 -0.6114259 0.6401769
vn -0.144355 -0.9693738 0.198686
vn 0 -0.6114258 0.7913017
g TestubeGold_0
f 3/3/3 2/2/2 1/1/1
f 2/2/2 4/4/4 1/1/1
f 1/1/1 4/4/4 5/5/5
f 6/6/6 4/4/4 2/2/2
f 2/2/2 7/7/7 6/6/6
f 6/6/6 8/8/8 4/4/4
f 8/8/8 9/9/9 4/4/4
f 4/4/4 10/10/10 5/5/5
f 9/9/9 10/10/10 4/4/4
f 5/5/5 10/10/10 11/11/11
f 9/9/9 12/12/12 10/10/10
f 10/10/10 13/13/13 11/11/11
f 12/12/12 13/13/13 10/10/10
f 11/11/11 13/13/13 14/14/14
f 12/12/12 15/15/15 13/13/13
f 13/13/13 16/16/16 14/14/14
f 15/15/15 16/16/16 13/13/13
f 17/17/17 14/14/14 16/16/16
f 15/15/15 18/18/18 16/16/16
f 19/19/19 17/17/17 16/16/16
f 18/18/18 20/20/20 16/16/16
f 16/16/16 20/20/20 19/19/19
f 23/23/23 22/22/22 21/21/21
f 21/21/21 24/24/24 23/23/23
f 24/24/24 25/25/25 23/23/23
f 24/24/24 26/26/26 25/25/25
f 26/26/26 27/27/27 25/25/25
f 26/26/26 28/28/28 27/27/27
f 31/31/31 30/30/30 29/29/29
f 32/32/32 31/31/31 29/29/29
f 33/33/33 31/31/31 32/32/32
f 34/34/34 33/33/33 32/32/32
f 35/35/35 33/33/33 34/34/34
f 36/36/36 35/35/35 34/34/34
f 37/37/37 35/35/35 36/36/36
f 38/38/38 37/37/37 36/36/36
f 39/39/39 37/37/37 38/38/38
f 40/40/40 39/39/39 38/38/38
f 41/41/41 39/39/39 40/40/40
f 42/42/42 41/41/41 40/40/40
f 43/43/43 41/41/41 42/42/42
f 44/44/44 43/43/43 42/42/42
f 47/47/47 46/46/46 45/45/45
f 48/48/48 47/47/47 45/45/45
f 51/51/51 50/50/50 49/49/49
f 49/49/49 52/52/52 51/51/51
f 52/52/52 53/53/53 51/51/51
f 52/52/52 54/54/54 53/53/53
f 54/54/54 55/55/55 53/53/53
f 54/54/54 56/56/56 55/55/55
f 59/59/59 58/58/58 57/57/57
f 60/60/60 59/59/59 57/57/57
f 57/57/57 58/58/58 61/61/61
f 62/62/62 59/59/59 60/60/60
f 58/58/58 63/63/63 61/61/61
f 64/64/64 62/62/62 60/60/60
f 61/61/61 63/63/63 65/65/65
f 66/66/66 62/62/62 64/64/64
f 63/63/63 67/67/67 65/65/65
f 68/68/68 66/66/66 64/64/64
f 65/65/65 67/67/67 69/69/69
f 70/70/70 66/66/66 68/68/68
f 67/67/67 71/71/71 69/69/69
f 72/72/72 70/70/70 68/68/68
f 69/69/69 71/71/71 72/72/72
f 71/71/71 70/70/70 72/72/72
f 75/75/75 74/74/74 73/73/73
f 73/73/73 74/74/74 76/76/76
f 77/77/77 74/74/74 75/75/75
f 73/73/73 78/78/78 75/75/75
f 76/76/76 79/79/79 73/73/73
f 79/79/79 78/78/78 73/73/73
f 75/75/75 80/80/80 77/77/77
f 78/78/78 80/80/80 75/75/75
f 76/76/76 74/74/74 81/81/81
f 82/82/82 79/79/79 76/76/76
f 81/81/81 82/82/82 76/76/76
f 83/83/83 78/78/78 79/79/79
f 84/84/84 80/80/80 78/78/78
f 83/83/83 84/84/84 78/78/78
f 85/85/85 79/79/79 82/82/82
f 85/85/85 83/83/83 79/79/79
f 80/80/80 86/86/86 77/77/77
f 87/87/87 74/74/74 77/77/77
f 77/77/77 86/86/86 87/87/87
f 84/84/84 88/88/88 80/80/80
f 88/88/88 86/86/86 80/80/80
f 89/89/89 82/82/82 81/81/81
f 90/90/90 85/85/85 82/82/82
f 90/90/90 82/82/82 89/89/89
f 81/81/81 74/74/74 91/91/91
f 91/91/91 89/89/89 81/81/81
f 83/83/83 92/92/92 84/84/84
f 85/85/85 93/93/93 83/83/83
f 93/93/93 92/92/92 83/83/83
f 84/84/84 94/94/94 88/88/88
f 92/92/92 94/94/94 84/84/84
f 90/90/90 95/95/95 85/85/85
f 95/95/95 93/93/93 85/85/85
f 88/88/88 96/96/96 86/86/86
f 94/94/94 97/97/97 88/88/88
f 88/88/88 97/97/97 96/96/96
f 96/96/96 98/98/98 86/86/86
f 86/86/86 98/98/98 87/87/87
f 87/87/87 98/98/98 99/99/99
f 99/99/99 74/74/74 87/87/87
f 92/92/92 100/100/100 94/94/94
f 93/93/93 101/101/101 92/92/92
f 101/101/101 100/100/100 92/92/92
f 101/101/101 102/102/102 100/100/100
f 100/100/100 102/102/102 103/103/103
f 100/100/100 103/103/103 94/94/94
f 94/94/94 103/103/103 97/97/97
f 104/104/104 102/102/102 101/101/101
f 104/104/104 101/101/101 93/93/93
f 95/95/95 104/104/104 93/93/93
f 103/103/103 105/105/105 97/97/97
f 103/103/103 102/102/102 105/105/105
f 106/106/106 104/104/104 95/95/95
f 106/106/106 102/102/102 104/104/104
f 97/97/97 105/105/105 107/107/107
f 97/97/97 107/107/107 96/96/96
f 108/108/108 106/106/106 95/95/95
f 108/108/108 95/95/95 90/90/90
f 109/109/109 102/102/102 106/106/106
f 109/109/109 106/106/106 108/108/108
f 110/110/110 108/108/108 90/90/90
f 110/110/110 90/90/90 89/89/89
f 111/111/111 109/109/109 108/108/108
f 111/111/111 108/108/108 110/110/110
f 110/110/110 89/89/89 112/112/112
f 112/112/112 89/89/89 91/91/91
f 105/105/105 113/113/113 107/107/107
f 105/105/105 102/102/102 113/113/113
f 96/96/96 107/107/107 114/114/114
f 96/96/96 114/114/114 98/98/98
f 115/115/115 102/102/102 109/109/109
f 115/115/115 109/109/109 111/111/111
f 116/116/116 111/111/111 110/110/110
f 116/116/116 110/110/110 112/112/112
f 117/117/117 112/112/112 91/91/91
f 91/91/91 74/74/74 117/117/117
f 107/107/107 113/113/113 118/118/118
f 107/107/107 118/118/118 114/114/114
f 113/113/113 102/102/102 119/119/119
f 119/119/119 102/102/102 115/115/115
f 113/113/113 119/119/119 118/118/118
f 120/120/120 115/115/115 111/111/111
f 119/119/119 115/115/115 120/120/120
f 118/118/118 119/119/119 120/120/120
f 120/120/120 111/111/111 116/116/116
f 118/118/118 120/120/120 121/121/121
f 114/114/114 118/118/118 121/121/121
f 121/121/121 120/120/120 116/116/116
f 116/116/116 112/112/112 122/122/122
f 122/122/122 112/112/112 117/117/117
f 121/121/121 116/116/116 122/122/122
f 117/117/117 74/74/74 123/123/123
f 123/123/123 122/122/122 117/117/117
f 123/123/123 74/74/74 99/99/99
f 114/114/114 121/121/121 124/124/124
f 121/121/121 122/122/122 124/124/124
f 124/124/124 122/122/122 123/123/123
f 99/99/99 124/124/124 123/123/123
f 114/114/114 124/124/124 98/98/98
f 98/98/98 124/124/124 99/99/99
