g Thigh1
v -5.18992 4.494688 -1.63423
v -4.760209 4.494688 -2.406809
v -2.959645 4.739507 -0.4393399
v -2.532742 4.768509 -1.211453
v -5.18992 4.494688 -1.63423
v -2.959645 4.739507 -0.4393399
v -2.851614 2.693562 -0.3105487
v -3.855548 1.764264 -0.8894855
v -4.696166 2.775741 -1.361218
v -3.426503 1.771156 -1.661952
v -3.855548 1.764264 -0.8894855
v -2.424709 2.722564 -1.082659
v -2.851614 2.693562 -0.3105487
v -2.424709 2.722564 -1.082659
v -2.532742 4.768509 -1.211453
v -4.760209 4.494688 -2.406809
v -3.426503 1.771156 -1.661952
v -4.266489 2.776057 -2.133815
v -4.696166 2.775741 -1.361218
v -3.855548 1.764264 -0.8894855
v -3.426503 1.771156 -1.661952
v -4.266489 2.776057 -2.133815
v -5.18992 4.494688 -1.63423
v -4.760209 4.494688 -2.406809
v -5.855242 4.187918 -3.147016
v -6.396114 4.187918 -2.102746
v -5.141922 4.477399 -1.453145
v -4.601049 4.477399 -2.497416
v -6.396114 4.187918 -2.102746
v -5.855242 4.187918 -3.147016
v -5.860761 4.64462 -3.015714
v -6.292055 4.64462 -2.18301
v -5.141922 4.477399 -1.453145
v -4.860665 4.875453 -2.49772
v -4.601049 4.477399 -2.497416
v -5.291958 4.875453 -1.665016
vt 0.6965683 0.5832012
vt 0.5969634 0.5847158
vt 0.6964127 0.8683106
vt 0.5970038 0.8695713
vt 0.3121106 0.4076234
vt 0.409796 0.4170778
vt 0.4157654 0.3380679
vt 0.3710767 0.3021804
vt 0.333885 0.3412414
vt 0.7384257 0.9563026
vt 0.77385 0.9576494
vt 0.7409909 0.9099469
vt 0.7763636 0.9112238
vt 0.415721 0.3384948
vt 0.4097516 0.4175048
vt 0.312155 0.4069303
vt 0.3710999 0.3017534
vt 0.3339277 0.3405606
vt 0.7747039 0.9196068
vt 0.7763426 0.8790273
vt 0.7409185 0.8793041
vt 0.7392636 0.9196193
vt 0.7738871 0.9885689
vt 0.7384468 0.9885689
vt 0.7390078 0.961735
vt 0.78895 0.9621796
vt 0.7894841 0.902198
vt 0.7395418 0.9017534
vt 0.6933 0.8779914
vt 0.6042584 0.8779914
vt 0.6208621 0.8960796
vt 0.6767844 0.8960796
vt 0.6933 0.9750571
vt 0.6208621 0.9638248
vt 0.6042584 0.9750571
vt 0.6767844 0.9638248
vn -0.8842179 0.108436 0.4543131
vn 0.1229119 0.4618869 -0.878381
vn -0.2936979 0.8872555 0.3556953
vn 0.2670828 0.7033132 -0.6588001
vn -0.8842179 0.108436 0.4543131
vn -0.2936979 0.8872555 0.3556953
vn -0.1863033 -0.3426116 0.9208195
vn -0.1650433 -0.7427384 0.6489225
vn -0.8319454 -0.5464562 -0.09618977
vn 0.09410209 -0.7044514 -0.7034864
vn -0.1650433 -0.7427384 0.6489225
vn 0.7295575 -0.5502416 -0.4061773
vn -0.1863033 -0.3426116 0.9208195
vn 0.7295575 -0.5502416 -0.4061773
vn 0.2670828 0.7033132 -0.6588001
vn 0.1229119 0.4618869 -0.878381
vn 0.09410209 -0.7044514 -0.7034864
vn -0.5817515 -0.424523 -0.6937906
vn -0.8319454 -0.5464562 -0.09618977
vn -0.1650433 -0.7427384 0.6489225
vn 0.09410209 -0.7044514 -0.7034864
vn -0.5817515 -0.424523 -0.6937906
vn -0.8842179 0.108436 0.4543131
vn 0.1229119 0.4618869 -0.878381
vn 0.1100059 -0.5418601 -0.8332384
vn -0.9742281 -0.2255003 0.005398856
vn 0.05882727 -0.38585 0.9206841
vn 0.9912429 0.1320071 0.003413492
vn -0.9742281 -0.2255003 0.005398856
vn 0.1100059 -0.5418601 -0.8332384
vn -0.5416535 0.5186375 -0.6615335
vn -0.6224675 0.7281184 0.2870153
vn 0.05882727 -0.38585 0.9206841
vn 0.3380113 0.8349196 -0.4343475
vn 0.9912429 0.1320071 0.003413492
vn 0.3042766 0.7857109 0.5385854
g Thigh1_0
f 3/3/3 2/2/2 1/1/1
f 3/3/3 4/4/4 2/2/2
f 7/7/7 6/6/6 5/5/5
f 5/5/5 8/8/8 7/7/7
f 9/9/9 8/8/8 5/5/5
f 12/12/12 11/11/11 10/10/10
f 12/12/12 13/13/13 11/11/11
f 16/16/16 15/15/15 14/14/14
f 14/14/14 17/17/17 16/16/16
f 16/16/16 17/17/17 18/18/18
f 21/21/21 20/20/20 19/19/19
f 21/21/21 19/19/19 22/22/22
f 23/23/23 22/22/22 19/19/19
f 22/22/22 23/23/23 24/24/24
f 27/27/27 26/26/26 25/25/25
f 25/25/25 28/28/28 27/27/27
f 31/31/31 30/30/30 29/29/29
f 29/29/29 32/32/32 31/31/31
f 32/32/32 29/29/29 33/33/33
f 30/30/30 31/31/31 34/34/34
f 34/34/34 31/31/31 32/32/32
f 34/34/34 35/35/35 30/30/30
f 36/36/36 33/33/33 35/35/35
f 33/33/33 36/36/36 32/32/32
f 32/32/32 36/36/36 34/34/34
f 35/35/35 34/34/34 36/36/36
