g Thorn
v -1.684435 2.090516 -2.917525
v -4.125673E-16 -4.64722 0
v 1.684433 2.090516 -2.917525
v 1.684433 2.090516 -2.917525
v -4.125673E-16 -4.64722 0
v 3.368868 2.090516 -5.020004E-07
v 3.368868 2.090516 -5.020004E-07
v -4.125673E-16 -4.64722 0
v 1.684434 2.090516 2.917525
v 1.684434 2.090516 2.917525
v -4.125673E-16 -4.64722 0
v -1.684434 2.090516 2.917525
v -1.684434 2.090516 2.917525
v -4.125673E-16 -4.64722 0
v -3.368868 2.090516 0
v -3.368868 2.090516 0
v -4.125673E-16 -4.64722 0
v -1.684435 2.090516 -2.917525
v 3.368868 2.090516 -5.020004E-07
v 1.684434 2.090516 2.917525
v -2.007997E-07 4.64722 1.004E-07
v -1.684434 2.090516 2.917525
v -3.368868 2.090516 0
v -1.684435 2.090516 -2.917525
v 1.684433 2.090516 -2.917525
v 3.368868 2.090516 -5.020004E-07
vt 0.3786524 0.6673769
vt 0.4908988 0.01518026
vt 0.2350916 0.6660843
vt 0.2350916 0.6660843
vt 0.4908988 0.01518026
vt 0.03322417 0.6796931
vt 0.9631339 0.6660055
vt 0.4908988 0.01518026
vt 0.7610309 0.6583428
vt 0.7610309 0.6583428
vt 0.4908988 0.01518026
vt 0.6175457 0.6638606
vt 0.6175457 0.6638606
vt 0.4908988 0.01518026
vt 0.4981182 0.6673554
vt 0.4981182 0.6673554
vt 0.4908988 0.01518026
vt 0.3786524 0.6673769
vt 0.9631339 0.6660055
vt 0.7610309 0.6583428
vt 0.5017633 0.9966366
vt 0.6175457 0.6638606
vt 0.4981182 0.6673554
vt 0.3786524 0.6673769
vt 0.2350916 0.6660843
vt 0.03322417 0.6796931
vn -1.895076E-07 -0.3973597 -0.9176629
vn -1.895075E-07 -0.3973597 -0.9176629
vn -1.895076E-07 -0.3973597 -0.9176629
vn 0.7947194 -0.3973597 -0.4588316
vn 0.7947193 -0.3973596 -0.4588316
vn 0.7947194 -0.3973597 -0.4588316
vn 0.7947195 -0.3973597 0.4588313
vn 0.7947195 -0.3973597 0.4588313
vn 0.7947195 -0.3973597 0.4588313
vn 0 -0.3973598 0.9176629
vn 0 -0.3973598 0.9176629
vn 0 -0.3973598 0.9176629
vn -0.7947195 -0.3973597 0.4588315
vn -0.7947195 -0.3973597 0.4588315
vn -0.7947195 -0.3973597 0.4588315
vn -0.7947195 -0.3973598 -0.4588314
vn -0.7947195 -0.3973598 -0.4588313
vn -0.7947195 -0.3973597 -0.4588313
vn 0.6045382 0.7965761 0
vn 0.3022691 0.7965761 0.5235454
vn 0 1 0
vn -0.302269 0.7965762 0.5235454
vn -0.6045381 0.7965761 0
vn -0.3022691 0.7965762 -0.5235453
vn 0.3022691 0.7965761 -0.5235455
vn 0.6045382 0.7965761 0
g Thorn_0
f 3/3/3 2/2/2 1/1/1
f 6/6/6 5/5/5 4/4/4
f 9/9/9 8/8/8 7/7/7
f 12/12/12 11/11/11 10/10/10
f 15/15/15 14/14/14 13/13/13
f 18/18/18 17/17/17 16/16/16
f 21/21/21 20/20/20 19/19/19
f 22/22/22 20/20/20 21/21/21
f 23/23/23 22/22/22 21/21/21
f 23/23/23 21/21/21 24/24/24
f 21/21/21 25/25/25 24/24/24
f 21/21/21 26/26/26 25/25/25
