g thrustFoot03
v -0.2731594 -0.006253079 -0.3736274
v 0.2544154 -0.006253079 -0.3736274
v 0.2544154 -0.006253079 -0.004984209
v -0.2731597 -0.006253079 -0.004984133
v 0.1972494 -2.159658 0.03837608
v -0.2201817 -2.159489 0.03851432
v -0.2104089 -2.164501 0.3852679
v 0.187475 -2.164671 0.3851297
v 0.2544154 -0.006253079 -0.004984209
v 0.2544154 -0.006253079 -0.3736274
v 0.2544152 -0.5708844 -0.2162962
v 0.2544162 -0.5708844 0.1487209
v -0.2731597 -0.006253079 -0.004984133
v 0.1728599 -0.6522492 0.130207
v 0.1728587 -0.6472369 -0.1776047
v -0.2731592 -0.5708844 0.1487218
v -0.2731594 -0.006253079 -0.3736274
v 0.1874751 -1.39669 0.3851297
v 0.1972494 -1.391678 0.03837623
v -0.1959743 -0.6520782 0.1303441
v 0.187475 -2.164671 0.3851297
v 0.1972494 -2.159658 0.03837608
v -0.2104089 -2.164501 0.3852679
v -0.2104085 -1.396519 0.3852679
v -0.2201817 -2.159489 0.03851432
v -0.2201814 -1.391507 0.03851425
v 0.1972494 -2.159658 0.03837608
v 0.1972494 -1.391678 0.03837623
v -0.1959743 -0.647066 -0.1774666
v 0.1728587 -0.6472369 -0.1776047
v -0.2731592 -0.5708844 -0.2162957
v 0.2544152 -0.5708844 -0.2162962
v 0.2544154 -0.006253079 -0.3736274
v -0.1127749 -0.3816193 0.1501279
v -0.1488876 -0.3174741 0.1293093
v -0.04778351 -0.4199933 0.1625827
v 0.0286753 -0.4223175 0.1633379
v 0.09611297 -0.3879718 0.1521893
v 0.136459 -0.3261508 0.1321256
v 0.1389036 -0.2534259 0.1085232
v 0.1027921 -0.1892853 0.08770546
v 0.03779892 -0.1509064 0.07524986
v -0.03865997 -0.1485825 0.07449455
v -0.1060966 -0.1829327 0.08564323
v -0.146443 -0.2447492 0.1057067
v -0.04385315 -0.1434308 0.01846374
v -0.1060966 -0.1829327 0.08564323
v -0.1216943 -0.1830792 0.0313311
v -0.03865997 -0.1485825 0.07449455
v 0.04440032 -0.1461164 0.01933395
v 0.03779892 -0.1509064 0.07524986
v 0.1194186 -0.1904083 0.03371071
v 0.1027921 -0.1892853 0.08770546
v 0.1611019 -0.2644464 0.05774048
v 0.1389036 -0.2534259 0.1085232
v 0.1582803 -0.3483917 0.08498466
v 0.136459 -0.3261508 0.1321256
v 0.1117107 -0.4197443 0.1081434
v 0.09611297 -0.3879718 0.1521893
v 0.03386879 -0.4593927 0.1210107
v 0.0286753 -0.4223175 0.1633379
v -0.0543837 -0.4567124 0.1201398
v -0.04778351 -0.4199933 0.1625827
v -0.1294024 -0.4124152 0.1057639
v -0.1127749 -0.3816193 0.1501279
v -0.1710857 -0.3383722 0.08173393
v -0.1488876 -0.3174741 0.1293093
v -0.168264 -0.2544318 0.05448997
v -0.146443 -0.2447492 0.1057067
v -0.1216943 -0.1830792 0.0313311
v -0.1060966 -0.1829327 0.08564323
vt 0.08282432 0.5469813
vt 0.01438298 0.546968
vt 0.01437546 0.6062878
vt 0.08281679 0.6063012
vt 0.4761378 0.5551332
vt 0.3959201 0.5551368
vt 0.3977797 0.62178
vt 0.4742411 0.6217754
vt 0.6579331 0.6871716
vt 0.6579331 0.6412629
vt 0.5821548 0.6412629
vt 0.5821548 0.6871716
vt 0.6579331 0.7498044
vt 0.5597868 0.6871716
vt 0.5597868 0.6412629
vt 0.5821548 0.7498044
vt 0.6579331 0.7964947
vt 0.4677767 0.6871716
vt 0.4677767 0.6412629
vt 0.5597868 0.7498044
vt 0.3859181 0.6871716
vt 0.3859181 0.6412629
vt 0.3859181 0.7498045
vt 0.4677766 0.7498045
vt 0.3859181 0.7964948
vt 0.4677766 0.7964947
vt 0.3859181 0.8473229
vt 0.4677766 0.8473229
vt 0.5597868 0.7964948
vt 0.5597868 0.8473231
vt 0.5821548 0.7964947
vt 0.5821548 0.8473229
vt 0.6579332 0.8473229
vt 0.7102941 0.7356572
vt 0.7264275 0.7638534
vt 0.7104557 0.7031769
vt 0.7268772 0.6751133
vt 0.7551594 0.6590256
vt 0.7877066 0.6592463
vt 0.8157836 0.6757184
vt 0.8318614 0.7040232
vt 0.8316302 0.7365702
vt 0.815155 0.7646263
vt 0.7868695 0.7806581
vt 0.7543893 0.7803683
vt 0.7825027 0.6023927
vt 0.7823164 0.6202886
vt 0.7988419 0.6023927
vt 0.7681613 0.6202886
vt 0.761484 0.6023927
vt 0.7499514 0.6202886
vt 0.7325919 0.6023927
vt 0.7325919 0.6202886
vt 0.7069631 0.6023927
vt 0.7069631 0.6202886
vt 0.6799476 0.6023927
vt 0.6799476 0.6202886
vt 0.6527252 0.6023927
vt 0.6527252 0.6202886
vt 0.6264824 0.6023927
vt 0.6264824 0.6202886
vt 0.5971488 0.6023927
vt 0.6075788 0.6202886
vt 0.5747072 0.6023927
vt 0.5815105 0.6202886
vt 0.5502031 0.6023927
vt 0.5651003 0.6202886
vt 0.5259153 0.6023927
vt 0.5372656 0.6202886
vt 0.5004239 0.6023927
vt 0.5003945 0.6202886
vn -0.4741566 0.3085994 -0.8245859
vn 0.4741559 0.3085996 -0.8245863
vn 0.5124494 0.5831442 0.6303477
vn -0.5124495 0.5831439 0.6303481
vn 0.6152378 -0.3179249 -0.7213918
vn -0.6155097 -0.3178108 -0.7212102
vn -0.6100228 -0.3326637 0.7191712
vn 0.6102928 -0.3328409 0.71886
vn 0.5124494 0.5831442 0.6303477
vn 0.4741559 0.3085996 -0.8245863
vn 0.6181758 -0.2661054 -0.7396259
vn 0.5215538 0.1390939 0.8418043
vn -0.5124495 0.5831439 0.6303481
vn 0.6766654 0.1368523 0.7234607
vn 0.5217638 -0.3190845 -0.7911685
vn -0.5203717 0.1421445 0.8420262
vn -0.4741566 0.3085994 -0.8245859
vn 0.6027841 0.1346976 0.7864527
vn 0.676771 -0.09107117 -0.7305389
vn -0.6767436 0.1402682 0.7227331
vn 0.6102928 -0.3328409 0.71886
vn 0.6152378 -0.3179249 -0.7213918
vn -0.6100228 -0.3326637 0.7191712
vn -0.6023756 0.1347598 0.786755
vn -0.6155097 -0.3178108 -0.7212102
vn -0.6770914 -0.09117632 -0.7302289
vn 0.6152378 -0.3179249 -0.7213918
vn 0.676771 -0.09107117 -0.7305389
vn -0.5239018 -0.3154351 -0.7912191
vn 0.5217638 -0.3190845 -0.7911685
vn -0.6176481 -0.2636721 -0.7409371
vn 0.6181758 -0.2661054 -0.7396259
vn 0.4741559 0.3085996 -0.8245863
vn -0.5922598 -0.3482602 0.726597
vn -0.4969728 0.1548637 0.8538356
vn -0.1898399 -0.3638055 0.9119245
vn 0.1183914 -0.2175056 0.9688523
vn 0.295047 -0.02066258 0.9552593
vn 0.3677377 0.1791949 0.9125011
vn 0.359871 0.3669304 0.8578199
vn 0.2802113 0.5350246 0.7970134
vn 0.1248733 0.6711497 0.730729
vn -0.1183974 0.7450246 0.6564452
vn -0.4485562 0.6879269 0.5705733
vn -0.7772462 0.4038122 0.4825185
vn -0.2084627 0.9719733 0.1086793
vn -0.4485562 0.6879269 0.5705733
vn -0.6260006 0.7593009 0.177723
vn -0.1183974 0.7450246 0.6564452
vn 0.2649495 0.957577 0.1133497
vn 0.1248733 0.6711497 0.730729
vn 0.6673375 0.7199824 0.1904887
vn 0.2802113 0.5350246 0.7970134
vn 0.8909391 0.3228207 0.3193968
vn 0.359871 0.3669304 0.8578199
vn 0.8758072 -0.1274539 0.4655292
vn 0.3677377 0.1791949 0.9125011
vn 0.6260065 -0.5102137 0.5897437
vn 0.295047 -0.02066258 0.9552593
vn 0.2084564 -0.7228873 0.6587715
vn 0.1183914 -0.2175056 0.9688523
vn -0.2649275 -0.7084823 0.6541149
vn -0.1898399 -0.3638055 0.9119245
vn -0.6673547 -0.470874 0.5769881
vn -0.5922598 -0.3482602 0.726597
vn -0.8909442 -0.07372359 0.4480883
vn -0.4969728 0.1548637 0.8538356
vn -0.8758022 0.376556 0.3019536
vn -0.7772462 0.4038122 0.4825185
vn -0.6260006 0.7593009 0.177723
vn -0.4485562 0.6879269 0.5705733
g thrustFoot03_0
f 3/3/3 2/2/2 1/1/1
f 4/4/4 3/3/3 1/1/1
f 7/7/7 6/6/6 5/5/5
f 8/8/8 7/7/7 5/5/5
f 11/11/11 10/10/10 9/9/9
f 12/12/12 11/11/11 9/9/9
f 9/9/9 13/13/13 12/12/12
f 12/12/12 14/14/14 11/11/11
f 14/14/14 15/15/15 11/11/11
f 13/13/13 16/16/16 12/12/12
f 13/13/13 17/17/17 16/16/16
f 14/14/14 18/18/18 15/15/15
f 18/18/18 19/19/19 15/15/15
f 20/20/20 14/14/14 12/12/12
f 16/16/16 20/20/20 12/12/12
f 18/18/18 21/21/21 19/19/19
f 21/21/21 22/22/22 19/19/19
f 23/23/23 21/21/21 18/18/18
f 24/24/24 18/18/18 14/14/14
f 24/24/24 23/23/23 18/18/18
f 20/20/20 24/24/24 14/14/14
f 25/25/25 23/23/23 24/24/24
f 26/26/26 25/25/25 24/24/24
f 26/26/26 24/24/24 20/20/20
f 27/27/27 25/25/25 26/26/26
f 28/28/28 27/27/27 26/26/26
f 29/29/29 26/26/26 20/20/20
f 28/28/28 26/26/26 29/29/29
f 29/29/29 20/20/20 16/16/16
f 30/30/30 28/28/28 29/29/29
f 31/31/31 29/29/29 16/16/16
f 30/30/30 29/29/29 31/31/31
f 17/17/17 31/31/31 16/16/16
f 32/32/32 30/30/30 31/31/31
f 32/32/32 31/31/31 17/17/17
f 33/33/33 32/32/32 17/17/17
f 36/36/36 35/35/35 34/34/34
f 37/37/37 35/35/35 36/36/36
f 38/38/38 35/35/35 37/37/37
f 39/39/39 35/35/35 38/38/38
f 40/40/40 35/35/35 39/39/39
f 41/41/41 35/35/35 40/40/40
f 42/42/42 35/35/35 41/41/41
f 43/43/43 35/35/35 42/42/42
f 44/44/44 35/35/35 43/43/43
f 45/45/45 35/35/35 44/44/44
f 48/48/48 47/47/47 46/46/46
f 47/47/47 49/49/49 46/46/46
f 46/46/46 49/49/49 50/50/50
f 49/49/49 51/51/51 50/50/50
f 50/50/50 51/51/51 52/52/52
f 51/51/51 53/53/53 52/52/52
f 52/52/52 53/53/53 54/54/54
f 53/53/53 55/55/55 54/54/54
f 54/54/54 55/55/55 56/56/56
f 55/55/55 57/57/57 56/56/56
f 56/56/56 57/57/57 58/58/58
f 57/57/57 59/59/59 58/58/58
f 58/58/58 59/59/59 60/60/60
f 59/59/59 61/61/61 60/60/60
f 60/60/60 61/61/61 62/62/62
f 61/61/61 63/63/63 62/62/62
f 62/62/62 63/63/63 64/64/64
f 63/63/63 65/65/65 64/64/64
f 64/64/64 65/65/65 66/66/66
f 65/65/65 67/67/67 66/66/66
f 66/66/66 67/67/67 68/68/68
f 67/67/67 69/69/69 68/68/68
f 68/68/68 69/69/69 70/70/70
f 69/69/69 71/71/71 70/70/70
