g TopWingRedTips
v -7.173986 7.621566 4.95854
v -7.173986 6.333817 4.95854
v -7.196937 6.333817 14.64148
v -18.5767 6.333817 13.45544
v -18.5767 6.333817 6.144584
v -18.5767 7.621566 6.144584
v -18.5767 7.621566 13.45544
v -17.41565 7.621566 4.95854
v -18.23665 7.621566 5.305926
v -17.41565 7.621566 14.64148
v -18.23665 7.621566 14.2941
v -7.196937 7.621566 14.64148
v -7.196937 6.333817 14.64148
v -17.41565 6.333817 14.64148
v -7.173986 7.621566 4.95854
v -7.196937 6.333817 14.64148
v -7.173986 6.333817 4.95854
v -17.41565 6.333817 4.95854
v -7.196937 6.333817 14.64148
v -17.41565 6.333817 14.64148
v -18.5767 6.333817 13.45544
v -18.23665 6.333817 14.2941
v -18.5767 6.333817 6.144584
v -18.23665 6.333817 5.305926
v 18.37262 6.333817 13.45544
v 18.37262 7.621566 13.45544
v 18.37262 6.333817 6.144584
v 18.37262 7.621566 6.144584
v 17.21156 7.621566 4.95854
v 18.03256 7.621566 5.305926
v 17.21156 7.621566 14.64148
v 18.03256 7.621566 14.2941
v 6.465251 7.621566 4.95854
v 6.465251 6.333817 4.95854
v 17.21156 6.333817 4.95854
v 6.465251 7.621566 14.64148
v 17.21156 6.333817 14.64148
v 6.46525 6.333817 14.64148
v 17.21156 6.333817 14.64148
v 6.46525 6.333817 14.64148
v 18.37262 6.333817 13.45544
v 18.03256 6.333817 14.2941
v 18.37262 6.333817 6.144584
v 18.03256 6.333817 5.305926
v -17.41565 6.333817 4.95854
v -17.41565 7.621566 4.95854
v -18.23665 7.621566 5.305926
v -18.23665 6.333817 5.305926
v -18.5767 7.621566 6.144584
v -18.5767 6.333817 6.144584
v -18.5767 6.333817 13.45544
v -18.5767 7.621566 13.45544
v -18.23665 7.621566 14.2941
v -18.23665 6.333817 14.2941
v -17.41565 7.621566 14.64148
v -17.41565 6.333817 14.64148
v 18.03256 6.333817 5.305926
v 17.21156 7.621566 4.95854
v 17.21156 6.333817 4.95854
v 18.03256 7.621566 5.305926
v 18.37262 6.333817 6.144584
v 18.37262 7.621566 6.144584
v 18.37262 7.621566 13.45544
v 18.37262 6.333817 13.45544
v 18.03256 6.333817 14.2941
v 18.03256 7.621566 14.2941
v 17.21156 6.333817 14.64148
v 17.21156 7.621566 14.64148
vt 0.2818172 0.6827879
vt 0.2866955 0.6772168
vt 0.5272187 0.6761282
vt 0.05483549 0.9838087
vt 0.2452148 0.9831324
vt 0.2513506 0.9817252
vt 0.04872742 0.9822958
vt 0.2826102 0.9521091
vt 0.2728556 0.9721243
vt 0.01685628 0.9529787
vt 0.02710668 0.9729323
vt 0.01606534 0.684144
vt 0.01115238 0.6793212
vt 0.01186677 0.9411501
vt 0.2818172 0.6827879
vt 0.5272187 0.6761282
vt 0.2866955 0.6772168
vt 0.2874083 0.938525
vt 0.5272187 0.6761282
vt 0.527926 0.9353864
vt 0.4985501 0.9649215
vt 0.5193538 0.9562392
vt 0.3169766 0.9654194
vt 0.2961255 0.956849
vt 0.05218136 0.0110217
vt 0.04587194 0.01252505
vt 0.2425641 0.01066044
vt 0.2484967 0.01207414
vt 0.279929 0.04153004
vt 0.2700572 0.02156308
vt 0.01417613 0.04200351
vt 0.02430701 0.02200037
vt 0.2807611 0.3241219
vt 0.2857462 0.3292221
vt 0.2849983 0.05503812
vt 0.01500791 0.3247182
vt 0.009445965 0.05391476
vt 0.01019725 0.329262
vt 0.5255293 0.05686194
vt 0.5262731 0.3295059
vt 0.4959925 0.02748626
vt 0.5168453 0.03605509
vt 0.3144206 0.02798083
vt 0.2936136 0.03666481
vt 0.2874083 0.938525
vt 0.2826102 0.9521091
vt 0.2728556 0.9721243
vt 0.2731022 0.9675767
vt 0.2513506 0.9817252
vt 0.2452148 0.9831324
vt 0.05483549 0.9838087
vt 0.04872742 0.9822958
vt 0.02710668 0.9729323
vt 0.02694343 0.9689344
vt 0.01685628 0.9529787
vt 0.01186677 0.9411501
vt 0.2705357 0.02606353
vt 0.279929 0.04153004
vt 0.2849983 0.05503812
vt 0.2700572 0.02156308
vt 0.2425641 0.01066044
vt 0.2484967 0.01207414
vt 0.04587194 0.01252505
vt 0.05218136 0.0110217
vt 0.02437192 0.02604786
vt 0.02430701 0.02200037
vt 0.009445965 0.05391476
vt 0.01417613 0.04200351
vn 0.8171402 0.4085711 -0.4066344
vn 0.4085701 -0.4085714 -0.816174
vn 0.576893 -0.5768948 0.578262
vn -0.7798854 -0.6071614 0.1520981
vn -0.6875241 -0.7136746 -0.1340862
vn -0.8745673 0.453916 -0.1705648
vn -0.5374132 0.8367807 0.1048097
vn -0.06714217 0.8615082 -0.5032847
vn -0.5741805 0.3365512 -0.7463578
vn -0.1578787 0.6077356 0.7782878
vn -0.7549211 0.3365517 0.5628739
vn 0.4080859 0.8161741 0.4090544
vn 0.576893 -0.5768948 0.578262
vn -0.108739 -0.8371562 0.536046
vn 0.8171402 0.4085711 -0.4066344
vn 0.576893 -0.5768948 0.578262
vn 0.4085701 -0.4085714 -0.816174
vn -0.1342844 -0.8615082 -0.4896644
vn 0.576893 -0.5768948 0.578262
vn -0.108739 -0.8371562 0.536046
vn -0.7798854 -0.6071614 0.1520981
vn -0.574178 -0.3365517 0.7463595
vn -0.6875241 -0.7136746 -0.1340862
vn -0.7549213 -0.3365512 -0.5628741
vn 0.5374131 -0.8367807 0.10481
vn 0.7798852 0.6071615 0.1520986
vn 0.8745671 -0.453916 -0.1705654
vn 0.687524 0.7136747 -0.1340867
vn 0.1391542 0.7141991 -0.6859706
vn 0.754921 0.3365511 -0.5628745
vn 0.0874801 0.8979834 0.431246
vn 0.5741784 0.3365515 0.7463594
vn -0.6666664 0.6666669 -0.3333333
vn -0.3333334 -0.6666666 -0.6666667
vn 0.08748136 -0.8979835 -0.4312455
vn -0.4082482 0.4082486 0.8164965
vn 0.1391522 -0.7141989 0.6859713
vn -0.8164967 -0.408248 0.4082483
vn 0.1391522 -0.7141989 0.6859713
vn -0.8164967 -0.408248 0.4082483
vn 0.5374131 -0.8367807 0.10481
vn 0.7549208 -0.3365515 0.5628744
vn 0.8745671 -0.453916 -0.1705654
vn 0.5741808 -0.3365511 -0.7463577
vn -0.1342844 -0.8615082 -0.4896644
vn -0.06714217 0.8615082 -0.5032847
vn -0.5741805 0.3365512 -0.7463578
vn -0.7549213 -0.3365512 -0.5628741
vn -0.8745673 0.453916 -0.1705648
vn -0.6875241 -0.7136746 -0.1340862
vn -0.7798854 -0.6071614 0.1520981
vn -0.5374132 0.8367807 0.1048097
vn -0.7549211 0.3365517 0.5628739
vn -0.574178 -0.3365517 0.7463595
vn -0.1578787 0.6077356 0.7782878
vn -0.108739 -0.8371562 0.536046
vn 0.5741808 -0.3365511 -0.7463577
vn 0.1391542 0.7141991 -0.6859706
vn 0.08748136 -0.8979835 -0.4312455
vn 0.754921 0.3365511 -0.5628745
vn 0.8745671 -0.453916 -0.1705654
vn 0.687524 0.7136747 -0.1340867
vn 0.7798852 0.6071615 0.1520986
vn 0.5374131 -0.8367807 0.10481
vn 0.7549208 -0.3365515 0.5628744
vn 0.5741784 0.3365515 0.7463594
vn 0.1391522 -0.7141989 0.6859713
vn 0.0874801 0.8979834 0.431246
g TopWingRedTips_0
f 3/3/3 2/2/2 1/1/1
f 6/6/6 5/5/5 4/4/4
f 6/6/6 4/4/4 7/7/7
f 6/6/6 7/7/7 8/8/8
f 8/8/8 9/9/9 6/6/6
f 8/8/8 7/7/7 10/10/10
f 7/7/7 11/11/11 10/10/10
f 10/10/10 12/12/12 8/8/8
f 10/10/10 13/13/13 12/12/12
f 13/13/13 10/10/10 14/14/14
f 12/12/12 15/15/15 8/8/8
f 15/15/15 12/12/12 16/16/16
f 8/8/8 15/15/15 17/17/17
f 17/17/17 18/18/18 8/8/8
f 18/18/18 17/17/17 19/19/19
f 19/19/19 20/20/20 18/18/18
f 18/18/18 20/20/20 21/21/21
f 20/20/20 22/22/22 21/21/21
f 21/21/21 23/23/23 18/18/18
f 23/23/23 24/24/24 18/18/18
f 27/27/27 26/26/26 25/25/25
f 27/27/27 28/28/28 26/26/26
f 26/26/26 28/28/28 29/29/29
f 28/28/28 30/30/30 29/29/29
f 31/31/31 26/26/26 29/29/29
f 31/31/31 32/32/32 26/26/26
f 31/31/31 29/29/29 33/33/33
f 34/34/34 33/33/33 29/29/29
f 29/29/29 35/35/35 34/34/34
f 33/33/33 36/36/36 31/31/31
f 36/36/36 37/37/37 31/31/31
f 37/37/37 36/36/36 38/38/38
f 38/38/38 36/36/36 33/33/33
f 33/33/33 34/34/34 38/38/38
f 39/39/39 34/34/34 35/35/35
f 39/39/39 40/40/40 34/34/34
f 41/41/41 39/39/39 35/35/35
f 41/41/41 42/42/42 39/39/39
f 35/35/35 43/43/43 41/41/41
f 35/35/35 44/44/44 43/43/43
f 47/47/47 46/46/46 45/45/45
f 47/47/47 45/45/45 48/48/48
f 49/49/49 47/47/47 48/48/48
f 48/48/48 50/50/50 49/49/49
f 53/53/53 52/52/52 51/51/51
f 51/51/51 54/54/54 53/53/53
f 53/53/53 54/54/54 55/55/55
f 54/54/54 56/56/56 55/55/55
f 59/59/59 58/58/58 57/57/57
f 58/58/58 60/60/60 57/57/57
f 61/61/61 57/57/57 60/60/60
f 60/60/60 62/62/62 61/61/61
f 65/65/65 64/64/64 63/63/63
f 63/63/63 66/66/66 65/65/65
f 67/67/67 65/65/65 66/66/66
f 67/67/67 66/66/66 68/68/68
