g Tounge
v 0.1462159 3.643266 1.890195
v -3.695488E-08 3.670914 0.3634845
v 0.1462159 3.643266 0.3634845
v -3.695488E-08 3.670914 1.890195
v -0.146216 3.643266 0.3634845
v -0.146216 3.643266 1.890195
v 0.1462159 3.643266 1.890195
v 0.1462159 3.643266 0.3634845
v 0.1462159 3.483188 0.3634845
v 0.1462159 3.483188 1.890195
v -3.695488E-08 3.455542 0.3634845
v -3.695488E-08 3.455542 1.890195
v -0.146216 3.483188 1.890195
v -0.146216 3.483188 0.3634845
v -0.146216 3.643266 0.3634845
v -0.146216 3.643266 1.890195
v -0.3200701 3.453158 2.286939
v -0.146216 3.483188 1.890195
v -0.146216 3.643266 1.890195
v -0.3200701 3.673296 2.286939
v -3.695488E-08 3.670914 1.890195
v -0.3444749 3.677652 2.5295
v -0.3444749 3.448803 2.5295
v -1.907349E-08 3.718889 2.286939
v 0.1462159 3.643266 1.890195
v 0.3200701 3.673296 2.286939
v -1.907349E-08 3.725048 2.5295
v 0.3444749 3.677652 2.5295
v -0.3182533 3.668941 2.761998
v -0.3182533 3.457513 2.761998
v -1.907349E-08 3.712729 2.761998
v 0.3182532 3.668941 2.761998
v -0.2435805 3.644137 2.9591
v -0.2435805 3.482318 2.9591
v -1.907349E-08 3.677652 2.9591
v 0.2435805 3.644137 2.9591
v -0.1318249 3.607015 3.090801
v -0.1318249 3.519439 3.090801
v -1.907349E-08 3.563227 3.137047
v -1.907349E-08 3.625154 3.090801
v 0.1318248 3.607015 3.090801
v 0.3200701 3.673296 2.286939
v 0.1462159 3.643266 1.890195
v 0.1462159 3.483188 1.890195
v 0.3200701 3.453158 2.286939
v -3.695488E-08 3.455542 1.890195
v 0.3444749 3.448803 2.5295
v 0.3444749 3.677652 2.5295
v -1.907349E-08 3.407567 2.286939
v -0.146216 3.483188 1.890195
v -0.3200701 3.453158 2.286939
v -1.907349E-08 3.401407 2.5295
v -0.3444749 3.448803 2.5295
v 0.3182533 3.457513 2.761998
v 0.3182532 3.668941 2.761998
v -1.907349E-08 3.413726 2.761998
v -0.3182533 3.457513 2.761998
v 0.2435805 3.482318 2.9591
v 0.2435805 3.644137 2.9591
v -1.907349E-08 3.448803 2.9591
v -0.2435805 3.482318 2.9591
v 0.1318248 3.519439 3.090801
v 0.1318248 3.607015 3.090801
v -1.907349E-08 3.563227 3.137047
v -1.907349E-08 3.501302 3.090801
v -0.1318249 3.519439 3.090801
vt 0.03568703 0.9661486
vt 0.0347984 0.9712449
vt 0.03568703 0.9712449
vt 0.0347984 0.9661486
vt 0.03390977 0.9712449
vt 0.03390977 0.9661486
vt 0.03568703 0.9661486
vt 0.03568703 0.9712449
vt 0.03568703 0.9712449
vt 0.03568703 0.9661486
vt 0.0347984 0.9712449
vt 0.0347984 0.9661486
vt 0.03390977 0.9661486
vt 0.03390977 0.9712449
vt 0.03390977 0.9712449
vt 0.03390977 0.9661486
vt 0.0215618 0.9760793
vt 0.02194038 0.9770397
vt 0.02227688 0.976992
vt 0.02195874 0.976023
vt 0.02350225 0.9768183
vt 0.02183646 0.9754915
vt 0.02142382 0.9755501
vt 0.02340414 0.9758183
vt 0.0245882 0.9766644
vt 0.02468511 0.9756367
vt 0.02333903 0.9752787
vt 0.02467068 0.97509
vt 0.0217762 0.9744025
vt 0.02139497 0.9744565
vt 0.02316439 0.9742059
vt 0.02439466 0.9740316
vt 0.02190942 0.9734533
vt 0.02161765 0.9734946
vt 0.0229719 0.9733027
vt 0.0239135 0.9731693
vt 0.02221584 0.9727881
vt 0.02205795 0.9728104
vt 0.02264887 0.9725084
vt 0.02279085 0.9727066
vt 0.02330047 0.9726344
vt 0.02468511 0.9756367
vt 0.0245882 0.9766644
vt 0.0242517 0.9767122
vt 0.02428818 0.975693
vt 0.02302636 0.9768858
vt 0.02425805 0.9751484
vt 0.02467068 0.97509
vt 0.02284278 0.9758978
vt 0.02194038 0.9770397
vt 0.0215618 0.9760793
vt 0.02275544 0.9753613
vt 0.02142382 0.9755501
vt 0.02401343 0.9740857
vt 0.02439466 0.9740316
vt 0.02262521 0.9742823
vt 0.02139497 0.9744565
vt 0.02362174 0.9732106
vt 0.0239135 0.9731693
vt 0.02255923 0.9733611
vt 0.02161765 0.9734946
vt 0.02314258 0.9726568
vt 0.02330047 0.9726344
vt 0.02264887 0.9725084
vt 0.02256751 0.9727383
vt 0.02205795 0.9728104
vn 0.7460532 0.6587518 -0.09721498
vn 1.299482E-06 1 0
vn 0.7889137 0.614504 0
vn 8.910144E-06 0.9992254 -0.03935252
vn -0.7889015 0.6145197 0
vn -0.7459601 0.6588537 -0.09723921
vn 0.7460532 0.6587518 -0.09721498
vn 0.7889137 0.614504 0
vn 0.7889616 -0.6144425 0
vn 0.7459589 -0.6588454 -0.09730376
vn 4.578565E-06 -1 0
vn 3.106264E-05 -0.9992257 -0.03934326
vn -0.7459587 -0.6588553 -0.09723843
vn -0.7889582 -0.6144469 0
vn -0.7889015 0.6145197 0
vn -0.7459601 0.6588537 -0.09723921
vn -0.6788913 -0.7001076 -0.2212598
vn -0.7459587 -0.6588553 -0.09723843
vn -0.7459601 0.6588537 -0.09723921
vn -0.6788912 0.7001077 -0.2212594
vn 8.910144E-06 0.9992254 -0.03935252
vn -0.6444281 0.7646043 0.009628868
vn -0.6444279 -0.7646044 0.009628306
vn 1.380187E-07 0.9964765 -0.08387306
vn 0.7460532 0.6587518 -0.09721498
vn 0.6788824 0.7001097 -0.2212805
vn 0 0.9999374 0.01119308
vn 0.644428 0.7646044 0.009628118
vn -0.6254036 0.757593 0.1868776
vn -0.6254035 -0.7575932 0.1868768
vn 0 0.9945346 0.1044077
vn 0.6257989 0.7573072 0.186713
vn -0.5712013 0.7200524 0.3940222
vn -0.5712012 -0.7200527 0.3940217
vn 0 0.9715326 0.2369059
vn 0.5720153 0.7198147 0.3932751
vn -0.4453781 0.6339858 0.6322186
vn -0.4453766 -0.6339877 0.6322177
vn -1.323621E-05 1.753486E-05 1
vn 0 0.8970363 0.4419569
vn 0.4430022 0.6358303 0.6320354
vn 0.6788824 0.7001097 -0.2212805
vn 0.7460532 0.6587518 -0.09721498
vn 0.7459589 -0.6588454 -0.09730376
vn 0.6788806 -0.700112 -0.2212783
vn 3.106264E-05 -0.9992257 -0.03934326
vn 0.6444279 -0.7646044 0.009628857
vn 0.644428 0.7646044 0.009628118
vn 5.267516E-07 -0.996476 -0.08387753
vn -0.7459587 -0.6588553 -0.09723843
vn -0.6788913 -0.7001076 -0.2212598
vn 0 -0.9999374 0.01119319
vn -0.6444279 -0.7646044 0.009628306
vn 0.6253644 -0.757678 0.1866638
vn 0.6257989 0.7573072 0.186713
vn 2.930129E-05 -0.9945463 0.1042965
vn -0.6254035 -0.7575932 0.1868768
vn 0.5710698 -0.720048 0.394221
vn 0.5720153 0.7198147 0.3932751
vn -0.0002008575 -0.9716402 0.2364642
vn -0.5712012 -0.7200527 0.3940217
vn 0.4434082 -0.6325271 0.635058
vn 0.4430022 0.6358303 0.6320354
vn -1.323621E-05 1.753486E-05 1
vn -0.001046116 -0.8966581 0.4427223
vn -0.4453766 -0.6339877 0.6322177
g Tounge_0
f 3/3/3 2/2/2 1/1/1
f 2/2/2 4/4/4 1/1/1
f 2/2/2 5/5/5 4/4/4
f 5/5/5 6/6/6 4/4/4
f 9/9/9 8/8/8 7/7/7
f 10/10/10 9/9/9 7/7/7
f 11/11/11 9/9/9 10/10/10
f 12/12/12 11/11/11 10/10/10
f 12/12/12 13/13/13 11/11/11
f 13/13/13 14/14/14 11/11/11
f 14/14/14 13/13/13 15/15/15
f 13/13/13 16/16/16 15/15/15
f 19/19/19 18/18/18 17/17/17
f 20/20/20 19/19/19 17/17/17
f 21/21/21 19/19/19 20/20/20
f 20/20/20 17/17/17 22/22/22
f 17/17/17 23/23/23 22/22/22
f 24/24/24 21/21/21 20/20/20
f 20/20/20 22/22/22 24/24/24
f 25/25/25 21/21/21 24/24/24
f 26/26/26 25/25/25 24/24/24
f 24/24/24 27/27/27 26/26/26
f 22/22/22 27/27/27 24/24/24
f 27/27/27 28/28/28 26/26/26
f 22/22/22 23/23/23 29/29/29
f 22/22/22 29/29/29 27/27/27
f 23/23/23 30/30/30 29/29/29
f 27/27/27 31/31/31 28/28/28
f 29/29/29 31/31/31 27/27/27
f 31/31/31 32/32/32 28/28/28
f 29/29/29 30/30/30 33/33/33
f 29/29/29 33/33/33 31/31/31
f 30/30/30 34/34/34 33/33/33
f 31/31/31 35/35/35 32/32/32
f 33/33/33 35/35/35 31/31/31
f 35/35/35 36/36/36 32/32/32
f 33/33/33 34/34/34 37/37/37
f 33/33/33 37/37/37 35/35/35
f 34/34/34 38/38/38 37/37/37
f 37/37/37 38/38/38 39/39/39
f 35/35/35 40/40/40 36/36/36
f 37/37/37 40/40/40 35/35/35
f 37/37/37 39/39/39 40/40/40
f 40/40/40 41/41/41 36/36/36
f 40/40/40 39/39/39 41/41/41
f 44/44/44 43/43/43 42/42/42
f 45/45/45 44/44/44 42/42/42
f 46/46/46 44/44/44 45/45/45
f 45/45/45 42/42/42 47/47/47
f 42/42/42 48/48/48 47/47/47
f 49/49/49 46/46/46 45/45/45
f 45/45/45 47/47/47 49/49/49
f 50/50/50 46/46/46 49/49/49
f 51/51/51 50/50/50 49/49/49
f 49/49/49 52/52/52 51/51/51
f 47/47/47 52/52/52 49/49/49
f 52/52/52 53/53/53 51/51/51
f 47/47/47 48/48/48 54/54/54
f 47/47/47 54/54/54 52/52/52
f 48/48/48 55/55/55 54/54/54
f 52/52/52 56/56/56 53/53/53
f 54/54/54 56/56/56 52/52/52
f 56/56/56 57/57/57 53/53/53
f 54/54/54 55/55/55 58/58/58
f 54/54/54 58/58/58 56/56/56
f 55/55/55 59/59/59 58/58/58
f 56/56/56 60/60/60 57/57/57
f 58/58/58 60/60/60 56/56/56
f 60/60/60 61/61/61 57/57/57
f 58/58/58 59/59/59 62/62/62
f 58/58/58 62/62/62 60/60/60
f 59/59/59 63/63/63 62/62/62
f 62/62/62 63/63/63 64/64/64
f 60/60/60 65/65/65 61/61/61
f 62/62/62 65/65/65 60/60/60
f 62/62/62 64/64/64 65/65/65
f 65/65/65 66/66/66 61/61/61
f 65/65/65 64/64/64 66/66/66
