g Triangle1
v -0.6442865 -0.01918092 -2.047885
v -1.125736 -0.01918092 -2.189722
v -0.7461222 0.2659273 -2.469311
v -0.6929308 -0.2659273 -2.251858
v 1.273891 -0.01918092 -0.03253509
v -1.227572 0.2659273 -2.611148
v 1.689773 0.2659273 0.08998517
v 1.368206 -0.01918092 0.3577676
v 1.524463 -0.2659273 0.07786683
v -0.8429244 0.154007 -2.872573
v 2.137015 -0.1667942 0.2583267
v 1.610318 -0.2659273 0.4331588
v -1.131194 -0.2659273 -2.380971
v -0.8429242 -0.1667942 -2.872573
v 2.137015 0.154007 0.2583267
v 1.784089 0.2659273 0.480288
v 2.222869 0.154007 0.6136184
v -1.281187 -0.1667942 -3.001687
v 2.22287 -0.1667942 0.6136186
v 1.958105 0.154007 0.865617
v -1.281187 0.154007 -3.001686
v -1.612134 -0.1667942 -2.686697
v 1.958106 -0.1667942 0.865617
v 1.493234 0.2659273 0.7571185
v -1.612135 0.154007 -2.686697
v 1.345553 -0.2659273 0.6851572
v -2.39713 0.154007 1.918043
v -1.462141 -0.2659273 -2.065981
v -1.591131 0.2659273 -2.265119
v -1.489294 -0.01918092 -1.843692
v -2.371045 -0.2659273 1.0192
v -2.833604 -0.1667942 1.459456
v -2.833604 0.154007 1.459456
v -2.5896 0.2659273 1.124079
v -2.39713 -0.1667942 1.918042
v -2.275551 -0.01918092 0.8251739
v -2.181236 -0.01918092 1.215476
v -2.28519 -0.2659273 1.374492
v -2.495284 0.2659273 1.514381
v -2.747749 -0.1667942 1.814748
v -2.747749 0.154007 1.81475
v -1.934571 -0.2659273 1.477786
v -2.110115 0.2659273 1.627853
v -1.796067 -0.01918092 1.328948
v 1.077351 -0.01918092 0.6345982
vt 0.8 0.2
vt 0.8 0.2
vt 0.8 0.2
vt 0.8 0.2
vt 0.8 0.2
vt 0.8 0.2
vt 0.8 0.2
vt 0.8 0.2
vt 0.8 0.2
vt 0.8 0.2
vt 0.8 0.2
vt 0.8 0.2
vt 0.8 0.2
vt 0.8 0.2
vt 0.8 0.2
vt 0.8 0.2
vt 0.8 0.2
vt 0.8 0.2
vt 0.8 0.2
vt 0.8 0.2
vt 0.8 0.2
vt 0.8 0.2
vt 0.8 0.2
vt 0.8 0.2
vt 0.8 0.2
vt 0.8 0.2
vt 0.8 0.2
vt 0.8 0.2
vt 0.8 0.2
vt 0.8 0.2
vt 0.8 0.2
vt 0.8 0.2
vt 0.8 0.2
vt 0.8 0.2
vt 0.8 0.2
vt 0.8 0.2
vt 0.8 0.2
vt 0.8 0.2
vt 0.8 0.2
vt 0.8 0.2
vt 0.8 0.2
vt 0.8 0.2
vt 0.8 0.2
vt 0.8 0.2
vt 0.8 0.2
vn -0.6744809 0.2531838 0.6935226
vn 0.2210406 0.4667407 0.856326
vn 0.0796105 0.9964843 -0.02610281
vn 0.0335054 -0.9994385 -0.0003379982
vn -0.723533 0.2326666 0.6498971
vn 0.01458354 0.9966806 0.0800954
vn 0.05160679 0.9945983 -0.0900607
vn -0.8945955 0.3618447 -0.2622351
vn 0.03064404 -0.9978777 -0.05745374
vn 0.6504387 0.2911961 -0.7015229
vn 0.7005239 -0.3813196 -0.6032094
vn -0.06044685 -0.9979949 -0.01876919
vn 0.007232263 -0.9970667 0.07619622
vn 0.6226594 -0.4050867 -0.6694775
vn 0.7315979 0.2682819 -0.6267292
vn -0.06994945 0.99733 -0.02098125
vn 0.7437807 0.6312398 0.2198334
vn -0.1575062 -0.7418492 -0.6518064
vn 0.6432337 -0.7418495 0.1894986
vn 0.2726951 0.2742407 0.9221873
vn -0.1839833 0.5749234 -0.7972535
vn -0.8596555 -0.4050876 -0.3112819
vn 0.260462 -0.3787126 0.8881083
vn -0.004693063 0.9950317 0.09944803
vn -0.9175426 0.2106772 -0.3372397
vn -0.00500202 -0.9980755 0.06180893
vn 0.1793719 0.2823834 0.9423828
vn -0.05249108 -0.998529 0.01358256
vn -0.1275428 0.991768 0.01135286
vn 0.8893515 0.3485011 0.2959745
vn -0.04551246 -0.9982787 -0.03698913
vn -0.8986685 -0.3813206 -0.2167708
vn -0.9552261 0.1904092 -0.2264675
vn -0.1230945 0.9894044 -0.07698486
vn 0.1738135 -0.3787123 0.9090466
vn 0.9064983 0.3478532 0.2392885
vn 0.6495271 0.4703572 -0.5973931
vn 0.04698381 -0.9970157 -0.0612551
vn 0.0555797 0.9966503 -0.05999222
vn -0.485728 -0.74185 0.4623062
vn -0.5870826 0.5732127 0.5716303
vn 0.02294534 -0.999517 0.02095803
vn 0.04751895 0.9958918 0.07708085
vn -0.1990058 0.2445177 -0.9490036
vn -0.2551728 0.2221835 -0.9410214
g Triangle1_0
f 3/3/3 2/2/2 1/1/1
f 2/2/2 4/4/4 1/1/1
f 5/5/5 3/3/3 1/1/1
f 5/5/5 1/1/1 4/4/4
f 3/3/3 6/6/6 2/2/2
f 5/5/5 7/7/7 3/3/3
f 8/8/8 7/7/7 5/5/5
f 5/5/5 4/4/4 9/9/9
f 9/9/9 8/8/8 5/5/5
f 10/10/10 6/6/6 3/3/3
f 7/7/7 10/10/10 3/3/3
f 11/11/11 9/9/9 4/4/4
f 9/9/9 12/12/12 8/8/8
f 12/12/12 9/9/9 11/11/11
f 2/2/2 13/13/13 4/4/4
f 11/11/11 4/4/4 14/14/14
f 14/14/14 4/4/4 13/13/13
f 7/7/7 15/15/15 10/10/10
f 15/15/15 11/11/11 14/14/14
f 15/15/15 14/14/14 10/10/10
f 16/16/16 15/15/15 7/7/7
f 8/8/8 16/16/16 7/7/7
f 17/17/17 11/11/11 15/15/15
f 16/16/16 17/17/17 15/15/15
f 10/10/10 14/14/14 18/18/18
f 14/14/14 13/13/13 18/18/18
f 17/17/17 19/19/19 11/11/11
f 12/12/12 11/11/11 19/19/19
f 20/20/20 17/17/17 16/16/16
f 20/20/20 19/19/19 17/17/17
f 10/10/10 18/18/18 21/21/21
f 10/10/10 21/21/21 6/6/6
f 13/13/13 22/22/22 18/18/18
f 21/21/21 18/18/18 22/22/22
f 23/23/23 12/12/12 19/19/19
f 20/20/20 23/23/23 19/19/19
f 20/20/20 16/16/16 24/24/24
f 24/24/24 16/16/16 8/8/8
f 6/6/6 21/21/21 25/25/25
f 21/21/21 22/22/22 25/25/25
f 8/8/8 12/12/12 26/26/26
f 23/23/23 26/26/26 12/12/12
f 27/27/27 23/23/23 20/20/20
f 27/27/27 20/20/20 24/24/24
f 13/13/13 28/28/28 22/22/22
f 28/28/28 13/13/13 2/2/2
f 2/2/2 6/6/6 29/29/29
f 6/6/6 25/25/25 29/29/29
f 28/28/28 2/2/2 30/30/30
f 2/2/2 29/29/29 30/30/30
f 22/22/22 28/28/28 31/31/31
f 30/30/30 31/31/31 28/28/28
f 25/25/25 22/22/22 32/32/32
f 22/22/22 31/31/31 32/32/32
f 29/29/29 25/25/25 33/33/33
f 25/25/25 32/32/32 33/33/33
f 30/30/30 29/29/29 34/34/34
f 29/29/29 33/33/33 34/34/34
f 27/27/27 35/35/35 23/23/23
f 35/35/35 26/26/26 23/23/23
f 30/30/30 36/36/36 31/31/31
f 30/30/30 34/34/34 36/36/36
f 37/37/37 31/31/31 36/36/36
f 34/34/34 37/37/37 36/36/36
f 32/32/32 31/31/31 38/38/38
f 37/37/37 38/38/38 31/31/31
f 33/33/33 39/39/39 34/34/34
f 34/34/34 39/39/39 37/37/37
f 33/33/33 32/32/32 40/40/40
f 32/32/32 38/38/38 40/40/40
f 38/38/38 35/35/35 40/40/40
f 33/33/33 40/40/40 41/41/41
f 33/33/33 41/41/41 39/39/39
f 41/41/41 40/40/40 35/35/35
f 39/39/39 41/41/41 27/27/27
f 41/41/41 35/35/35 27/27/27
f 38/38/38 42/42/42 35/35/35
f 35/35/35 42/42/42 26/26/26
f 42/42/42 38/38/38 37/37/37
f 39/39/39 27/27/27 43/43/43
f 37/37/37 39/39/39 43/43/43
f 27/27/27 24/24/24 43/43/43
f 37/37/37 43/43/43 44/44/44
f 42/42/42 37/37/37 44/44/44
f 44/44/44 43/43/43 24/24/24
f 42/42/42 45/45/45 26/26/26
f 42/42/42 44/44/44 45/45/45
f 44/44/44 24/24/24 45/45/45
f 8/8/8 26/26/26 45/45/45
f 24/24/24 8/8/8 45/45/45
