g Triangle_Blue
v 0.2126009 10.69119 1.789652
v 0 10.73069 1.716133
v 0 11.10138 1.827107
v 0.2420265 11.05583 1.911885
v 0.477312 10.93569 2.135512
v 0.2420265 11.05583 1.911885
v 0.4166427 10.58701 1.983585
v 0.608529 10.43427 2.26788
v 0.6985806 10.75956 2.46334
v 0.8019004 10.57961 2.826756
v 0.6981288 10.25763 2.571987
v 0.3844924 10.20895 2.687268
v 0.9011822 10.80338 2.40395
v 0.4402387 10.49975 2.946946
v 0 10.48105 2.981761
v 0 10.19273 2.71746
v 0.4951953 10.39847 3.157627
v 0 10.38995 3.173484
v 0.4951954 10.02783 2.947315
v 0 10.01931 2.963171
v 0.8913442 10.42807 3.102534
v 0.8913444 10.05743 2.892221
v 1.099578 10.11318 2.788439
v 1.099578 10.48383 2.998752
v 1.090599 10.60345 2.7761
v 1.090599 10.2328 2.565787
v 0.9011824 10.43274 2.193637
v 0.6143984 11.01473 2.010548
v 0.6143984 10.64409 1.800235
v 0.3133176 10.79796 1.513826
v 0.3133176 11.1686 1.724139
v 0.2420265 11.05583 1.911885
v 0 10.8573 1.40337
v 0 11.22795 1.613683
v -0.2126009 10.69119 1.789652
v -0.2420265 11.05583 1.911885
v 0 11.10138 1.827107
v 0 10.73069 1.716133
v -0.4166427 10.58701 1.983585
v -0.2420265 11.05583 1.911885
v -0.477312 10.93569 2.135512
v -0.608529 10.43427 2.26788
v -0.6985806 10.75956 2.46334
v -0.6981288 10.25763 2.571987
v -0.8019004 10.57961 2.826756
v -0.3844924 10.20895 2.687268
v -0.9011822 10.80338 2.40395
v -0.4402387 10.49975 2.946946
v 0 10.48105 2.981761
v 0 10.19273 2.71746
v -0.4951953 10.39847 3.157627
v 0 10.38995 3.173484
v -0.4951954 10.02783 2.947315
v 0 10.01931 2.963171
v -0.8913442 10.42807 3.102534
v -0.8913444 10.05743 2.892221
v -1.099578 10.11318 2.788439
v -1.099578 10.48383 2.998752
v -1.090599 10.60345 2.7761
v -1.090599 10.2328 2.565787
v -0.9011824 10.43274 2.193637
v -0.6143984 11.01473 2.010548
v -0.6143984 10.64409 1.800235
v -0.3133176 10.79796 1.513826
v -0.3133176 11.1686 1.724139
v -0.2420265 11.05583 1.911885
v 0 10.8573 1.40337
v 0 11.22795 1.613683
vt 0.03170588 0.03258008
vt 0.03107065 0.03204662
vt 0.03104833 0.03212053
vt 0.03175839 0.03241283
vt 0.03241911 0.03317803
vt 0.03175839 0.03241283
vt 0.03234115 0.03311348
vt 0.03287166 0.03433329
vt 0.03302481 0.03429693
vt 0.03329581 0.03551364
vt 0.0334022 0.0355531
vt 0.03224077 0.03576159
vt 0.03394383 0.03407848
vt 0.03229436 0.03594184
vt 0.03110149 0.03605723
vt 0.03107935 0.03597003
vt 0.03261593 0.03702348
vt 0.03109532 0.03708285
vt 0.03266951 0.03720379
vt 0.0310823 0.03730845
vt 0.03386148 0.03681046
vt 0.03425669 0.03709906
vt 0.03463277 0.03648412
vt 0.03453022 0.03640658
vt 0.0345225 0.03553611
vt 0.03500884 0.03586918
vt 0.03409698 0.03404206
vt 0.03304413 0.03253561
vt 0.03318512 0.03221488
vt 0.03212592 0.03124225
vt 0.03207343 0.0314095
vt 0.03175839 0.03241283
vt 0.03106674 0.03026968
vt 0.03106999 0.03097206
vt 0.03170588 0.03258008
vt 0.03175839 0.03241283
vt 0.03104833 0.03212053
vt 0.03107065 0.03204662
vt 0.03234115 0.03311348
vt 0.03175839 0.03241283
vt 0.03241911 0.03317803
vt 0.03287166 0.03433329
vt 0.03302481 0.03429693
vt 0.0334022 0.0355531
vt 0.03329581 0.03551364
vt 0.03224077 0.03576159
vt 0.03394383 0.03407848
vt 0.03229436 0.03594184
vt 0.03110149 0.03605723
vt 0.03107935 0.03597003
vt 0.03261593 0.03702348
vt 0.03109532 0.03708285
vt 0.03266951 0.03720379
vt 0.0310823 0.03730845
vt 0.03386148 0.03681046
vt 0.03425669 0.03709906
vt 0.03463277 0.03648412
vt 0.03453022 0.03640658
vt 0.0345225 0.03553611
vt 0.03500884 0.03586918
vt 0.03409698 0.03404206
vt 0.03304413 0.03253561
vt 0.03318512 0.03221488
vt 0.03212592 0.03124225
vt 0.03207343 0.0314095
vt 0.03175839 0.03241283
vt 0.03106674 0.03026968
vt 0.03106999 0.03097206
vn -0.5838624 -0.2147145 0.7829447
vn 0 -0.2881896 0.9575734
vn 0 0.3699063 0.929069
vn -0.4192607 0.3443913 0.840009
vn -0.6166098 0.3582982 0.7010098
vn -0.4192607 0.3443913 0.840009
vn -0.7943584 -0.1211436 0.5952469
vn -0.9025608 -0.01248349 0.4303813
vn -0.680035 0.4736379 0.5596602
vn -0.4693757 0.8603398 0.198751
vn -0.8688871 0.4518121 -0.2022401
vn -0.2119013 0.6705722 -0.7109367
vn 0.7855839 0.5939628 -0.1733961
vn -0.1641738 0.9548517 -0.247599
vn 0 0.9485469 -0.3166368
vn 0 0.675504 -0.7373564
vn 0.0744164 -0.002609419 0.9972239
vn 1.267259E-07 -0.05033426 0.9987324
vn 0.09005177 -0.4915084 0.8662046
vn 1.161684E-07 -0.4935137 0.869738
vn 0.2514167 -0.02607538 0.9675277
vn 0.2866485 -0.4728029 0.8332407
vn 0.8838165 -0.230881 0.4068935
vn 0.8488724 0.003704715 0.5285848
vn 0.878949 0.4752488 -0.03984196
vn 0.9587129 0.1403441 -0.2473322
vn 0.8764531 0.237622 -0.4187671
vn 0.7336937 0.6058939 -0.3075483
vn 0.7947881 0.2995087 -0.5278317
vn 0.5897647 0.3985495 -0.7023787
vn 0.549065 0.6868592 -0.4761849
vn -0.4192607 0.3443913 0.840009
vn 0 0.4935124 -0.8697388
vn 0 0.7764842 -0.6301368
vn 0.5838624 -0.2147146 0.7829446
vn 0.4192606 0.3443911 0.8400091
vn 0 0.3699063 0.929069
vn 0 -0.2881896 0.9575734
vn 0.7943587 -0.1211436 0.5952465
vn 0.4192606 0.3443911 0.8400091
vn 0.6166102 0.3582981 0.7010096
vn 0.9025608 -0.01248344 0.4303813
vn 0.6800351 0.4736378 0.5596601
vn 0.8688872 0.4518119 -0.2022399
vn 0.4693757 0.8603396 0.1987512
vn 0.2119015 0.670572 -0.7109367
vn -0.7855839 0.5939628 -0.173396
vn 0.1641739 0.9548516 -0.2475992
vn 0 0.9485469 -0.3166368
vn 0 0.675504 -0.7373564
vn -0.07441627 -0.002609109 0.9972239
vn 1.267259E-07 -0.05033426 0.9987324
vn -0.09005165 -0.4915084 0.8662046
vn 1.161684E-07 -0.4935137 0.869738
vn -0.2514167 -0.02607511 0.9675277
vn -0.2866486 -0.4728029 0.8332407
vn -0.8838165 -0.230881 0.4068936
vn -0.8488723 0.003704714 0.528585
vn -0.8789489 0.4752489 -0.03984172
vn -0.9587129 0.1403443 -0.2473321
vn -0.876453 0.237622 -0.4187671
vn -0.7336938 0.6058937 -0.3075485
vn -0.7947881 0.2995087 -0.5278318
vn -0.5897647 0.3985496 -0.7023786
vn -0.5490651 0.6868591 -0.4761849
vn 0.4192606 0.3443911 0.8400091
vn 0 0.4935124 -0.8697388
vn 0 0.7764842 -0.6301368
g Triangle_Blue_0
f 3/3/3 2/2/2 1/1/1
f 4/4/4 3/3/3 1/1/1
f 6/6/6 1/1/1 5/5/5
f 1/1/1 7/7/7 5/5/5
f 5/5/5 7/7/7 8/8/8
f 9/9/9 5/5/5 8/8/8
f 9/9/9 8/8/8 10/10/10
f 8/8/8 11/11/11 10/10/10
f 10/10/10 11/11/11 12/12/12
f 5/5/5 9/9/9 13/13/13
f 9/9/9 10/10/10 13/13/13
f 14/14/14 10/10/10 12/12/12
f 14/14/14 12/12/12 15/15/15
f 12/12/12 16/16/16 15/15/15
f 14/14/14 15/15/15 17/17/17
f 14/14/14 17/17/17 10/10/10
f 15/15/15 18/18/18 17/17/17
f 17/17/17 18/18/18 19/19/19
f 18/18/18 20/20/20 19/19/19
f 17/17/17 19/19/19 21/21/21
f 17/17/17 21/21/21 10/10/10
f 19/19/19 22/22/22 21/21/21
f 21/21/21 22/22/22 23/23/23
f 10/10/10 21/21/21 24/24/24
f 24/24/24 21/21/21 23/23/23
f 25/25/25 10/10/10 24/24/24
f 24/24/24 23/23/23 25/25/25
f 10/10/10 25/25/25 13/13/13
f 23/23/23 26/26/26 25/25/25
f 25/25/25 26/26/26 27/27/27
f 13/13/13 25/25/25 27/27/27
f 13/13/13 27/27/27 28/28/28
f 27/27/27 29/29/29 28/28/28
f 28/28/28 5/5/5 13/13/13
f 28/28/28 29/29/29 30/30/30
f 5/5/5 28/28/28 31/31/31
f 31/31/31 28/28/28 30/30/30
f 32/32/32 5/5/5 31/31/31
f 31/31/31 30/30/30 33/33/33
f 3/3/3 32/32/32 31/31/31
f 34/34/34 31/31/31 33/33/33
f 34/34/34 3/3/3 31/31/31
f 37/37/37 36/36/36 35/35/35
f 38/38/38 37/37/37 35/35/35
f 35/35/35 40/40/40 39/39/39
f 40/40/40 41/41/41 39/39/39
f 39/39/39 41/41/41 42/42/42
f 41/41/41 43/43/43 42/42/42
f 42/42/42 43/43/43 44/44/44
f 43/43/43 45/45/45 44/44/44
f 44/44/44 45/45/45 46/46/46
f 43/43/43 41/41/41 47/47/47
f 45/45/45 43/43/43 47/47/47
f 45/45/45 48/48/48 46/46/46
f 46/46/46 48/48/48 49/49/49
f 50/50/50 46/46/46 49/49/49
f 49/49/49 48/48/48 51/51/51
f 51/51/51 48/48/48 45/45/45
f 52/52/52 49/49/49 51/51/51
f 52/52/52 51/51/51 53/53/53
f 54/54/54 52/52/52 53/53/53
f 53/53/53 51/51/51 55/55/55
f 55/55/55 51/51/51 45/45/45
f 56/56/56 53/53/53 55/55/55
f 56/56/56 55/55/55 57/57/57
f 55/55/55 45/45/45 58/58/58
f 55/55/55 58/58/58 57/57/57
f 45/45/45 59/59/59 58/58/58
f 57/57/57 58/58/58 59/59/59
f 59/59/59 45/45/45 47/47/47
f 60/60/60 57/57/57 59/59/59
f 60/60/60 59/59/59 61/61/61
f 59/59/59 47/47/47 61/61/61
f 61/61/61 47/47/47 62/62/62
f 63/63/63 61/61/61 62/62/62
f 41/41/41 62/62/62 47/47/47
f 63/63/63 62/62/62 64/64/64
f 62/62/62 41/41/41 65/65/65
f 62/62/62 65/65/65 64/64/64
f 41/41/41 66/66/66 65/65/65
f 64/64/64 65/65/65 67/67/67
f 66/66/66 37/37/37 65/65/65
f 65/65/65 68/68/68 67/67/67
f 37/37/37 68/68/68 65/65/65
