g Trigger_Double
v 4.450038 2.476947 -3.253252
v 4.450038 3.303855 -3.253252
v 3.925188 3.303855 -3.556273
v 3.925188 2.476947 -3.556273
v 3.328354 3.303855 -3.451035
v 3.328354 2.476947 -3.451035
v 2.938799 3.303855 -2.98678
v 2.938799 2.476947 -2.98678
v 2.938799 3.303855 -2.380739
v 2.938799 2.476947 -2.380739
v 3.328354 3.303855 -1.916485
v 3.328354 2.476947 -1.916485
v 3.925188 3.303855 -1.811247
v 3.925188 2.476947 -1.811247
v 4.450038 3.303855 -2.114268
v 4.450038 2.476947 -2.114268
v 4.657313 3.303855 -2.68376
v 4.657313 2.476947 -2.68376
v 4.450038 3.303855 -3.253252
v 4.450038 2.476947 -3.253252
v 3.099185 1.218698 -2.283348
v 2.950965 1.128674 -2.283348
v 2.950967 1.128674 -3.084171
v 3.099185 1.218698 -3.084172
v 3.274296 1.349806 -2.283348
v 3.274297 1.349806 -3.084172
v 3.401195 1.515181 -2.283348
v 3.401196 1.515181 -3.084172
v 3.478055 1.663405 -2.283348
v 3.478057 1.663405 -3.084172
v 3.478055 2.890402 -2.283348
v 3.478057 2.890402 -3.084172
v 2.950965 1.128674 -2.283348
v 1.747505 1.137778 -2.283348
v 1.747505 1.137778 -3.084171
v 2.950967 1.128674 -3.084171
v 3.445854 0.6393273 -2.283348
v 3.090752 0.4790763 -3.084171
v 3.090751 0.4790763 -2.283348
v 3.445858 0.6393273 -3.084171
v 3.75079 0.8733127 -2.283348
v 3.750791 0.8733127 -3.084171
v 3.984775 1.178248 -2.283348
v 3.984775 1.178248 -3.084171
v 4.131865 1.533354 -2.283348
v 4.131865 1.533354 -3.084171
v 4.131865 2.890402 -2.283348
v 4.131865 2.890402 -3.084171
v 3.090751 0.4790763 -2.283348
v 3.090752 0.4790763 -3.084171
v 1.747505 0.5081564 -3.084171
v 1.747505 0.5081564 -2.283348
v 4.131865 1.533354 -2.283348
v 3.478055 2.890402 -2.283348
v 4.131865 2.890402 -2.283348
v 3.478055 1.663405 -2.283348
v 3.984775 1.178248 -2.283348
v 3.401195 1.515181 -2.283348
v 3.75079 0.8733127 -2.283348
v 3.274296 1.349806 -2.283348
v 3.445854 0.6393273 -2.283348
v 3.099185 1.218698 -2.283348
v 3.090751 0.4790763 -2.283348
v 2.950965 1.128674 -2.283348
v 1.747505 1.137778 -2.283348
v 1.747505 0.5081564 -2.283348
v 3.478057 2.890402 -3.084172
v 4.131865 1.533354 -3.084171
v 4.131865 2.890402 -3.084171
v 3.478057 1.663405 -3.084172
v 3.401196 1.515181 -3.084172
v 3.984775 1.178248 -3.084171
v 3.274297 1.349806 -3.084172
v 3.750791 0.8733127 -3.084171
v 3.099185 1.218698 -3.084172
v 3.445858 0.6393273 -3.084171
v 2.950967 1.128674 -3.084171
v 3.090752 0.4790763 -3.084171
v 1.747505 1.137778 -3.084171
v 1.747505 0.5081564 -3.084171
v -4.450037 2.476947 -3.253252
v -3.925188 3.303855 -3.556273
v -4.450037 3.303855 -3.253252
v -3.925188 2.476947 -3.556273
v -3.328352 3.303855 -3.451035
v -3.328352 2.476947 -3.451035
v -2.938797 3.303855 -2.98678
v -2.938797 2.476947 -2.98678
v -2.938797 3.303855 -2.380739
v -2.938797 2.476947 -2.380739
v -3.328352 3.303855 -1.916485
v -3.328352 2.476947 -1.916485
v -3.925188 3.303855 -1.811247
v -3.925188 2.476947 -1.811247
v -4.450037 3.303855 -2.114268
v -4.450037 2.476947 -2.114268
v -4.657314 3.303855 -2.68376
v -4.657314 2.476947 -2.68376
v -4.450037 3.303855 -3.253252
v -4.450037 2.476947 -3.253252
v -3.099187 1.218698 -2.283348
v -2.950964 1.128674 -3.084171
v -2.950964 1.128674 -2.283348
v -3.099187 1.218698 -3.084172
v -3.274297 1.349806 -2.283348
v -3.274297 1.349806 -3.084172
v -3.401194 1.515181 -2.283348
v -3.401194 1.515181 -3.084172
v -3.478057 1.663405 -2.283348
v -3.478057 1.663405 -3.084172
v -3.478057 2.890402 -2.283348
v -3.478057 2.890402 -3.084172
v -2.950964 1.128674 -2.283348
v -2.950964 1.128674 -3.084171
v -1.747502 1.137778 -3.084171
v -1.747502 1.137778 -2.283348
v -3.445857 0.6393273 -2.283348
v -3.09075 0.4790763 -2.283348
v -3.09075 0.4790763 -3.084171
v -3.445857 0.6393273 -3.084171
v -3.75079 0.8733127 -2.283348
v -3.75079 0.8733127 -3.084171
v -3.984775 1.178248 -2.283348
v -3.984775 1.178248 -3.084171
v -4.131863 1.533354 -2.283348
v -4.131866 1.533354 -3.084171
v -4.131863 2.890402 -2.283348
v -4.131866 2.890402 -3.084171
v -3.09075 0.4790763 -2.283348
v -1.747502 0.5081564 -2.283348
v -1.747502 0.5081564 -3.084171
v -3.09075 0.4790763 -3.084171
v -4.131863 1.533354 -2.283348
v -4.131863 2.890402 -2.283348
v -3.478057 2.890402 -2.283348
v -3.478057 1.663405 -2.283348
v -3.984775 1.178248 -2.283348
v -3.401194 1.515181 -2.283348
v -3.75079 0.8733127 -2.283348
v -3.274297 1.349806 -2.283348
v -3.445857 0.6393273 -2.283348
v -3.099187 1.218698 -2.283348
v -3.09075 0.4790763 -2.283348
v -2.950964 1.128674 -2.283348
v -1.747502 1.137778 -2.283348
v -1.747502 0.5081564 -2.283348
v -3.478057 2.890402 -3.084172
v -4.131866 2.890402 -3.084171
v -4.131866 1.533354 -3.084171
v -3.478057 1.663405 -3.084172
v -3.401194 1.515181 -3.084172
v -3.984775 1.178248 -3.084171
v -3.274297 1.349806 -3.084172
v -3.75079 0.8733127 -3.084171
v -3.099187 1.218698 -3.084172
v -3.445857 0.6393273 -3.084171
v -2.950964 1.128674 -3.084171
v -3.09075 0.4790763 -3.084171
v -1.747502 1.137778 -3.084171
v -1.747502 0.5081564 -3.084171
v 3.925188 2.476947 -3.556273
v 3.77134 2.476947 -2.68376
v 4.450038 2.476947 -3.253252
v 3.328354 2.476947 -3.451035
v 4.657313 2.476947 -2.68376
v 2.938799 2.476947 -2.98678
v 4.450038 2.476947 -2.114268
v 2.938799 2.476947 -2.380739
v 3.925188 2.476947 -1.811247
v 3.328354 2.476947 -1.916485
v 4.450038 3.303855 -3.253252
v 3.77134 3.303855 -2.68376
v 3.925188 3.303855 -3.556273
v 4.657313 3.303855 -2.68376
v 3.328354 3.303855 -3.451035
v 4.450038 3.303855 -2.114268
v 2.938799 3.303855 -2.98678
v 3.925188 3.303855 -1.811247
v 2.938799 3.303855 -2.380739
v 3.328354 3.303855 -1.916485
v -3.925188 2.476947 -3.556273
v -4.450037 2.476947 -3.253252
v -3.771342 2.476947 -2.68376
v -3.328352 2.476947 -3.451035
v -4.657314 2.476947 -2.68376
v -2.938797 2.476947 -2.98678
v -4.450037 2.476947 -2.114268
v -2.938797 2.476947 -2.380739
v -3.925188 2.476947 -1.811247
v -3.328352 2.476947 -1.916485
v -4.450037 3.303855 -3.253252
v -3.925188 3.303855 -3.556273
v -3.771342 3.303855 -2.68376
v -4.657314 3.303855 -2.68376
v -3.328352 3.303855 -3.451035
v -4.450037 3.303855 -2.114268
v -2.938797 3.303855 -2.98678
v -3.925188 3.303855 -1.811247
v -2.938797 3.303855 -2.380739
v -3.328352 3.303855 -1.916485
vt 0.6247392 0.6581826
vt 0.6247392 0.7118136
vt 0.6277741 0.7118136
vt 0.6277741 0.6581826
vt 0.630809 0.7118136
vt 0.630809 0.6581826
vt 0.6338438 0.7118136
vt 0.6338438 0.6581826
vt 0.6368787 0.7118136
vt 0.6368787 0.6581826
vt 0.6399136 0.7118136
vt 0.6399136 0.6581826
vt 0.6429485 0.7118136
vt 0.6429485 0.6581826
vt 0.6459835 0.7118136
vt 0.6459835 0.6581826
vt 0.6490182 0.7118136
vt 0.6490182 0.6581826
vt 0.6520532 0.7118136
vt 0.6520532 0.6581826
vt 0.05441201 0.9063055
vt 0.05477896 0.9063055
vt 0.05477896 0.8993464
vt 0.05441201 0.8993464
vt 0.0538776 0.9063054
vt 0.0538776 0.8993464
vt 0.0532035 0.9063054
vt 0.0532035 0.8993464
vt 0.05259931 0.9063054
vt 0.05259931 0.8993464
vt 0.04359278 0.9063054
vt 0.04359278 0.8993464
vt 0.05477896 0.9063055
vt 0.05474186 0.9063055
vt 0.05474186 0.8993465
vt 0.05477896 0.8993464
vt 0.3523774 0.9213424
vt 0.3526172 0.9275714
vt 0.3526172 0.9213424
vt 0.3523774 0.9275714
vt 0.3520273 0.9213424
vt 0.3520273 0.9275714
vt 0.3515711 0.9213424
vt 0.3515711 0.9275714
vt 0.3510398 0.9213424
vt 0.3510398 0.9275714
vt 0.3473446 0.9213424
vt 0.3473446 0.9275714
vt 0.3526172 0.9213424
vt 0.3526172 0.9275714
vt 0.3525737 0.9275714
vt 0.3525737 0.9213424
vt 0.04342212 0.9331337
vt 0.03887025 0.9385062
vt 0.03720662 0.9331337
vt 0.05413923 0.9385062
vt 0.04431583 0.9327823
vt 0.05516353 0.9380026
vt 0.04508327 0.9322234
vt 0.05630635 0.9371713
vt 0.04567216 0.931495
vt 0.05721236 0.936024
vt 0.04607548 0.9306467
vt 0.05783445 0.9350529
vt 0.05777154 0.9255508
vt 0.04600228 0.9261913
vt 0.05400199 0.9381767
vt 0.03885479 0.9250727
vt 0.04108964 0.9250727
vt 0.03900751 0.9381766
vt 0.03800162 0.9376907
vt 0.03853343 0.9249485
vt 0.03687935 0.9368883
vt 0.03825751 0.924751
vt 0.03598965 0.9357812
vt 0.03804578 0.9244935
vt 0.03537872 0.9348441
vt 0.03790075 0.9241937
vt 0.03544053 0.9256744
vt 0.03792708 0.9226189
vt 0.6247392 0.6581826
vt 0.6277741 0.7118136
vt 0.6247392 0.7118136
vt 0.6277741 0.6581826
vt 0.630809 0.7118136
vt 0.630809 0.6581826
vt 0.6338438 0.7118136
vt 0.6338438 0.6581826
vt 0.6368787 0.7118136
vt 0.6368787 0.6581826
vt 0.6399136 0.7118136
vt 0.6399136 0.6581826
vt 0.6429485 0.7118136
vt 0.6429485 0.6581826
vt 0.6459835 0.7118136
vt 0.6459835 0.6581826
vt 0.6490182 0.7118136
vt 0.6490182 0.6581826
vt 0.6520532 0.7118136
vt 0.6520532 0.6581826
vt 0.05441201 0.9063055
vt 0.05477896 0.8993464
vt 0.05477896 0.9063055
vt 0.05441201 0.8993464
vt 0.0538776 0.9063054
vt 0.0538776 0.8993464
vt 0.0532035 0.9063054
vt 0.0532035 0.8993464
vt 0.05259931 0.9063054
vt 0.05259931 0.8993464
vt 0.04359278 0.9063054
vt 0.04359278 0.8993464
vt 0.05477896 0.9063055
vt 0.05477896 0.8993464
vt 0.05474186 0.8993465
vt 0.05474186 0.9063055
vt 0.3523774 0.9213424
vt 0.3526172 0.9213424
vt 0.3526172 0.9275714
vt 0.3523774 0.9275714
vt 0.3520273 0.9213424
vt 0.3520273 0.9275714
vt 0.3515711 0.9213424
vt 0.3515711 0.9275714
vt 0.3510398 0.9213424
vt 0.3510398 0.9275714
vt 0.3473446 0.9213424
vt 0.3473446 0.9275714
vt 0.3526172 0.9213424
vt 0.3525737 0.9213424
vt 0.3525737 0.9275714
vt 0.3526172 0.9275714
vt 0.04342212 0.9331337
vt 0.03720662 0.9331337
vt 0.03887025 0.9385062
vt 0.05413923 0.9385062
vt 0.04431583 0.9327823
vt 0.05516353 0.9380026
vt 0.04508327 0.9322234
vt 0.05630635 0.9371713
vt 0.04567216 0.931495
vt 0.05721236 0.936024
vt 0.04607548 0.9306467
vt 0.05783445 0.9350529
vt 0.05777154 0.9255508
vt 0.04600228 0.9261913
vt 0.05400199 0.9381767
vt 0.04108964 0.9250727
vt 0.03885479 0.9250727
vt 0.03900751 0.9381766
vt 0.03800162 0.9376907
vt 0.03853343 0.9249485
vt 0.03687935 0.9368883
vt 0.03825751 0.924751
vt 0.03598965 0.9357812
vt 0.03804578 0.9244935
vt 0.03537872 0.9348441
vt 0.03790075 0.9241937
vt 0.03544053 0.9256744
vt 0.03792708 0.9226189
vt 0.5609568 0.6838208
vt 0.5605603 0.6859783
vt 0.5623094 0.6846018
vt 0.5594186 0.6840921
vt 0.5628437 0.6860695
vt 0.5584146 0.6852886
vt 0.5623094 0.6875373
vt 0.5584146 0.6868505
vt 0.5609568 0.6883183
vt 0.5594186 0.688047
vt 0.7698305 0.6928413
vt 0.7514224 0.6764339
vt 0.7555952 0.7010601
vt 0.7754525 0.677395
vt 0.7394074 0.6982057
vt 0.7698305 0.6619488
vt 0.7288415 0.6856138
vt 0.7555952 0.65373
vt 0.7288415 0.6691763
vt 0.7394074 0.6565844
vt 0.5609568 0.6838208
vt 0.5623094 0.6846018
vt 0.5605603 0.6859783
vt 0.5594186 0.6840921
vt 0.5628437 0.6860695
vt 0.5584146 0.6852886
vt 0.5623094 0.6875373
vt 0.5584146 0.6868505
vt 0.5609568 0.6883183
vt 0.5594186 0.688047
vt 0.7698305 0.6928413
vt 0.7555952 0.7010601
vt 0.7514224 0.6764339
vt 0.7754525 0.677395
vt 0.7394074 0.6982057
vt 0.7698305 0.6619488
vt 0.7288415 0.6856138
vt 0.7555952 0.65373
vt 0.7288415 0.6691763
vt 0.7394074 0.6565844
vn 0.7071181 -0.3846154 -0.5933421
vn 0.7071181 0.3846154 -0.5933421
vn 0.1602905 0.3846159 -0.9090531
vn 0.1602905 -0.3846159 -0.9090531
vn -0.4615388 0.3846154 -0.7994078
vn -0.4615388 -0.3846154 -0.7994078
vn -0.8674087 0.3846152 -0.3157108
vn -0.8674087 -0.3846152 -0.3157108
vn -0.8674087 0.3846151 0.3157109
vn -0.8674087 -0.3846151 0.3157109
vn -0.4615387 0.3846152 0.799408
vn -0.4615387 -0.3846152 0.799408
vn 0.1602903 0.3846157 0.9090533
vn 0.1602903 -0.3846155 0.9090533
vn 0.7071179 0.3846153 0.5933424
vn 0.707118 -0.3846153 0.5933424
vn 0.9230765 0.3846166 0
vn 0.9230765 -0.3846166 0
vn 0.7071181 0.3846154 -0.5933421
vn 0.7071181 -0.3846154 -0.5933421
vn -0.3486666 0.5098078 0.7864653
vn -0.04097551 0.6844564 0.7279013
vn -0.0409759 0.6844548 -0.7279028
vn -0.3486665 0.5098063 -0.7864664
vn -0.4307326 0.4387642 0.7886415
vn -0.430732 0.4387629 -0.7886426
vn -0.5012806 0.3257053 0.8016444
vn -0.5012797 0.3257046 -0.8016454
vn -0.6865126 0.03836878 0.7261049
vn -0.686511 0.03836864 -0.7261063
vn -0.7583029 0 0.6519024
vn -0.7583016 0 -0.6519038
vn -0.04097551 0.6844564 0.7279013
vn 0.005793413 0.7658324 0.6430142
vn 0.005793251 0.7658321 -0.6430146
vn -0.0409759 0.6844548 -0.7279028
vn 0.443127 -0.7418934 0.5032224
vn 0.06530609 -0.8455589 -0.5298729
vn 0.06530602 -0.8455593 0.5298722
vn 0.4431278 -0.7418944 -0.5032199
vn 0.6061875 -0.6061851 0.5148556
vn 0.6061883 -0.6061861 -0.5148535
vn 0.7522115 -0.4342891 0.4955512
vn 0.752212 -0.4342895 -0.4955499
vn 0.8343276 -0.07167654 0.5465892
vn 0.8343287 -0.07167658 -0.5465878
vn 0.789534 0 0.6137067
vn 0.7895353 0 -0.6137051
vn 0.06530602 -0.8455593 0.5298722
vn 0.06530609 -0.8455589 -0.5298729
vn -0.01718144 -0.7936262 -0.6081631
vn -0.0171813 -0.7936264 0.6081629
vn 0.8343276 -0.07167654 0.5465892
vn -0.7583029 0 0.6519024
vn 0.789534 0 0.6137067
vn -0.6865126 0.03836878 0.7261049
vn 0.7522115 -0.4342891 0.4955512
vn -0.5012806 0.3257053 0.8016444
vn 0.6061875 -0.6061851 0.5148556
vn -0.4307326 0.4387642 0.7886415
vn 0.443127 -0.7418934 0.5032224
vn -0.3486666 0.5098078 0.7864653
vn 0.06530602 -0.8455593 0.5298722
vn -0.04097551 0.6844564 0.7279013
vn 0.005793413 0.7658324 0.6430142
vn -0.0171813 -0.7936264 0.6081629
vn -0.7583016 0 -0.6519038
vn 0.8343287 -0.07167658 -0.5465878
vn 0.7895353 0 -0.6137051
vn -0.686511 0.03836864 -0.7261063
vn -0.5012797 0.3257046 -0.8016454
vn 0.752212 -0.4342895 -0.4955499
vn -0.430732 0.4387629 -0.7886426
vn 0.6061883 -0.6061861 -0.5148535
vn -0.3486665 0.5098063 -0.7864664
vn 0.4431278 -0.7418944 -0.5032199
vn -0.0409759 0.6844548 -0.7279028
vn 0.06530609 -0.8455589 -0.5298729
vn 0.005793251 0.7658321 -0.6430146
vn -0.01718144 -0.7936262 -0.6081631
vn -0.7071176 -0.3846154 -0.5933428
vn -0.1602903 0.3846154 -0.9090533
vn -0.7071177 0.3846152 -0.5933427
vn -0.1602903 -0.3846155 -0.9090533
vn 0.4615383 0.3846156 -0.7994081
vn 0.4615383 -0.3846155 -0.7994081
vn 0.8674086 0.3846164 -0.3157097
vn 0.8674086 -0.3846163 -0.3157097
vn 0.8674086 0.3846161 0.3157099
vn 0.8674086 -0.3846163 0.3157099
vn 0.4615384 0.3846153 0.7994082
vn 0.4615383 -0.3846154 0.7994081
vn -0.1602902 0.3846153 0.9090534
vn -0.1602901 -0.3846154 0.9090533
vn -0.7071175 0.3846152 0.593343
vn -0.7071174 -0.3846154 0.5933431
vn -0.9230769 0.3846155 0
vn -0.9230769 -0.3846155 0
vn -0.7071177 0.3846152 -0.5933427
vn -0.7071176 -0.3846154 -0.5933428
vn 0.3486644 0.5098085 0.7864658
vn 0.0409758 0.6844563 -0.7279014
vn 0.04097553 0.6844567 0.7279011
vn 0.3486643 0.5098069 -0.7864668
vn 0.4307344 0.4387594 0.7886432
vn 0.4307339 0.4387586 -0.7886438
vn 0.5012831 0.3257065 0.8016424
vn 0.5012814 0.3257054 -0.8016438
vn 0.6865131 0.03837001 0.7261043
vn 0.6865103 0.03836983 -0.7261071
vn 0.7583042 0 0.6519009
vn 0.7583016 0 -0.6519039
vn 0.04097553 0.6844567 0.7279011
vn 0.0409758 0.6844563 -0.7279014
vn -0.005793293 0.7658321 -0.6430146
vn -0.005793324 0.7658322 0.6430144
vn -0.443127 -0.7418941 0.5032213
vn -0.06530592 -0.8455588 0.529873
vn -0.06530582 -0.845559 -0.5298728
vn -0.4431267 -0.7418944 -0.5032209
vn -0.6061885 -0.6061854 0.5148542
vn -0.6061886 -0.6061857 -0.5148537
vn -0.752212 -0.4342892 0.4955502
vn -0.7522119 -0.4342892 -0.4955504
vn -0.8343273 -0.07167608 0.5465898
vn -0.8343297 -0.07167612 -0.5465864
vn -0.789534 0 0.6137068
vn -0.7895365 0 -0.6137037
vn -0.06530592 -0.8455588 0.529873
vn 0.01718136 -0.7936262 0.608163
vn 0.01718139 -0.7936264 -0.6081629
vn -0.06530582 -0.845559 -0.5298728
vn -0.8343273 -0.07167608 0.5465898
vn -0.789534 0 0.6137068
vn 0.7583042 0 0.6519009
vn 0.6865131 0.03837001 0.7261043
vn -0.752212 -0.4342892 0.4955502
vn 0.5012831 0.3257065 0.8016424
vn -0.6061885 -0.6061854 0.5148542
vn 0.4307344 0.4387594 0.7886432
vn -0.443127 -0.7418941 0.5032213
vn 0.3486644 0.5098085 0.7864658
vn -0.06530592 -0.8455588 0.529873
vn 0.04097553 0.6844567 0.7279011
vn -0.005793324 0.7658322 0.6430144
vn 0.01718136 -0.7936262 0.608163
vn 0.7583016 0 -0.6519039
vn -0.7895365 0 -0.6137037
vn -0.8343297 -0.07167612 -0.5465864
vn 0.6865103 0.03836983 -0.7261071
vn 0.5012814 0.3257054 -0.8016438
vn -0.7522119 -0.4342892 -0.4955504
vn 0.4307339 0.4387586 -0.7886438
vn -0.6061886 -0.6061857 -0.5148537
vn 0.3486643 0.5098069 -0.7864668
vn -0.4431267 -0.7418944 -0.5032209
vn 0.0409758 0.6844563 -0.7279014
vn -0.06530582 -0.845559 -0.5298728
vn -0.005793293 0.7658321 -0.6430146
vn 0.01718139 -0.7936264 -0.6081629
vn 0.1602905 -0.3846159 -0.9090531
vn 0 -1 0
vn 0.7071181 -0.3846154 -0.5933421
vn -0.4615388 -0.3846154 -0.7994078
vn 0.9230765 -0.3846166 0
vn -0.8674087 -0.3846152 -0.3157108
vn 0.707118 -0.3846153 0.5933424
vn -0.8674087 -0.3846151 0.3157109
vn 0.1602903 -0.3846155 0.9090533
vn -0.4615387 -0.3846152 0.799408
vn 0.7071181 0.3846154 -0.5933421
vn 0 1 0
vn 0.1602905 0.3846159 -0.9090531
vn 0.9230765 0.3846166 0
vn -0.4615388 0.3846154 -0.7994078
vn 0.7071179 0.3846153 0.5933424
vn -0.8674087 0.3846152 -0.3157108
vn 0.1602903 0.3846157 0.9090533
vn -0.8674087 0.3846151 0.3157109
vn -0.4615387 0.3846152 0.799408
vn -0.1602903 -0.3846155 -0.9090533
vn -0.7071176 -0.3846154 -0.5933428
vn 0 -1 0
vn 0.4615383 -0.3846155 -0.7994081
vn -0.9230769 -0.3846155 0
vn 0.8674086 -0.3846163 -0.3157097
vn -0.7071174 -0.3846154 0.5933431
vn 0.8674086 -0.3846163 0.3157099
vn -0.1602901 -0.3846154 0.9090533
vn 0.4615383 -0.3846154 0.7994081
vn -0.7071177 0.3846152 -0.5933427
vn -0.1602903 0.3846154 -0.9090533
vn 0 1 0
vn -0.9230769 0.3846155 0
vn 0.4615383 0.3846156 -0.7994081
vn -0.7071175 0.3846152 0.593343
vn 0.8674086 0.3846164 -0.3157097
vn -0.1602902 0.3846153 0.9090534
vn 0.8674086 0.3846161 0.3157099
vn 0.4615384 0.3846153 0.7994082
g Trigger_Double_0
f 3/3/3 2/2/2 1/1/1
f 4/4/4 3/3/3 1/1/1
f 5/5/5 3/3/3 4/4/4
f 6/6/6 5/5/5 4/4/4
f 7/7/7 5/5/5 6/6/6
f 8/8/8 7/7/7 6/6/6
f 9/9/9 7/7/7 8/8/8
f 10/10/10 9/9/9 8/8/8
f 11/11/11 9/9/9 10/10/10
f 12/12/12 11/11/11 10/10/10
f 13/13/13 11/11/11 12/12/12
f 14/14/14 13/13/13 12/12/12
f 15/15/15 13/13/13 14/14/14
f 16/16/16 15/15/15 14/14/14
f 17/17/17 15/15/15 16/16/16
f 18/18/18 17/17/17 16/16/16
f 19/19/19 17/17/17 18/18/18
f 20/20/20 19/19/19 18/18/18
f 23/23/23 22/22/22 21/21/21
f 24/24/24 23/23/23 21/21/21
f 24/24/24 21/21/21 25/25/25
f 26/26/26 24/24/24 25/25/25
f 26/26/26 25/25/25 27/27/27
f 28/28/28 26/26/26 27/27/27
f 28/28/28 27/27/27 29/29/29
f 30/30/30 28/28/28 29/29/29
f 30/30/30 29/29/29 31/31/31
f 32/32/32 30/30/30 31/31/31
f 35/35/35 34/34/34 33/33/33
f 36/36/36 35/35/35 33/33/33
f 39/39/39 38/38/38 37/37/37
f 38/38/38 40/40/40 37/37/37
f 37/37/37 40/40/40 41/41/41
f 40/40/40 42/42/42 41/41/41
f 41/41/41 42/42/42 43/43/43
f 42/42/42 44/44/44 43/43/43
f 43/43/43 44/44/44 45/45/45
f 44/44/44 46/46/46 45/45/45
f 45/45/45 46/46/46 47/47/47
f 46/46/46 48/48/48 47/47/47
f 51/51/51 50/50/50 49/49/49
f 52/52/52 51/51/51 49/49/49
f 55/55/55 54/54/54 53/53/53
f 54/54/54 56/56/56 53/53/53
f 53/53/53 56/56/56 57/57/57
f 56/56/56 58/58/58 57/57/57
f 57/57/57 58/58/58 59/59/59
f 58/58/58 60/60/60 59/59/59
f 59/59/59 60/60/60 61/61/61
f 60/60/60 62/62/62 61/61/61
f 61/61/61 62/62/62 63/63/63
f 62/62/62 64/64/64 63/63/63
f 63/63/63 64/64/64 65/65/65
f 66/66/66 63/63/63 65/65/65
f 69/69/69 68/68/68 67/67/67
f 68/68/68 70/70/70 67/67/67
f 71/71/71 70/70/70 68/68/68
f 72/72/72 71/71/71 68/68/68
f 73/73/73 71/71/71 72/72/72
f 74/74/74 73/73/73 72/72/72
f 75/75/75 73/73/73 74/74/74
f 76/76/76 75/75/75 74/74/74
f 77/77/77 75/75/75 76/76/76
f 78/78/78 77/77/77 76/76/76
f 79/79/79 77/77/77 78/78/78
f 80/80/80 79/79/79 78/78/78
f 83/83/83 82/82/82 81/81/81
f 82/82/82 84/84/84 81/81/81
f 82/82/82 85/85/85 84/84/84
f 85/85/85 86/86/86 84/84/84
f 85/85/85 87/87/87 86/86/86
f 87/87/87 88/88/88 86/86/86
f 87/87/87 89/89/89 88/88/88
f 89/89/89 90/90/90 88/88/88
f 89/89/89 91/91/91 90/90/90
f 91/91/91 92/92/92 90/90/90
f 91/91/91 93/93/93 92/92/92
f 93/93/93 94/94/94 92/92/92
f 93/93/93 95/95/95 94/94/94
f 95/95/95 96/96/96 94/94/94
f 95/95/95 97/97/97 96/96/96
f 97/97/97 98/98/98 96/96/96
f 97/97/97 99/99/99 98/98/98
f 99/99/99 100/100/100 98/98/98
f 103/103/103 102/102/102 101/101/101
f 102/102/102 104/104/104 101/101/101
f 101/101/101 104/104/104 105/105/105
f 104/104/104 106/106/106 105/105/105
f 105/105/105 106/106/106 107/107/107
f 106/106/106 108/108/108 107/107/107
f 107/107/107 108/108/108 109/109/109
f 108/108/108 110/110/110 109/109/109
f 109/109/109 110/110/110 111/111/111
f 110/110/110 112/112/112 111/111/111
f 115/115/115 114/114/114 113/113/113
f 116/116/116 115/115/115 113/113/113
f 119/119/119 118/118/118 117/117/117
f 120/120/120 119/119/119 117/117/117
f 120/120/120 117/117/117 121/121/121
f 122/122/122 120/120/120 121/121/121
f 122/122/122 121/121/121 123/123/123
f 124/124/124 122/122/122 123/123/123
f 124/124/124 123/123/123 125/125/125
f 126/126/126 124/124/124 125/125/125
f 126/126/126 125/125/125 127/127/127
f 128/128/128 126/126/126 127/127/127
f 131/131/131 130/130/130 129/129/129
f 132/132/132 131/131/131 129/129/129
f 135/135/135 134/134/134 133/133/133
f 136/136/136 135/135/135 133/133/133
f 136/136/136 133/133/133 137/137/137
f 138/138/138 136/136/136 137/137/137
f 138/138/138 137/137/137 139/139/139
f 140/140/140 138/138/138 139/139/139
f 140/140/140 139/139/139 141/141/141
f 142/142/142 140/140/140 141/141/141
f 142/142/142 141/141/141 143/143/143
f 144/144/144 142/142/142 143/143/143
f 144/144/144 143/143/143 145/145/145
f 143/143/143 146/146/146 145/145/145
f 149/149/149 148/148/148 147/147/147
f 150/150/150 149/149/149 147/147/147
f 150/150/150 151/151/151 149/149/149
f 151/151/151 152/152/152 149/149/149
f 151/151/151 153/153/153 152/152/152
f 153/153/153 154/154/154 152/152/152
f 153/153/153 155/155/155 154/154/154
f 155/155/155 156/156/156 154/154/154
f 155/155/155 157/157/157 156/156/156
f 157/157/157 158/158/158 156/156/156
f 157/157/157 159/159/159 158/158/158
f 159/159/159 160/160/160 158/158/158
f 163/163/163 162/162/162 161/161/161
f 161/161/161 162/162/162 164/164/164
f 165/165/165 162/162/162 163/163/163
f 164/164/164 162/162/162 166/166/166
f 167/167/167 162/162/162 165/165/165
f 166/166/166 162/162/162 168/168/168
f 169/169/169 162/162/162 167/167/167
f 168/168/168 162/162/162 170/170/170
f 170/170/170 162/162/162 169/169/169
f 173/173/173 172/172/172 171/171/171
f 171/171/171 172/172/172 174/174/174
f 175/175/175 172/172/172 173/173/173
f 174/174/174 172/172/172 176/176/176
f 177/177/177 172/172/172 175/175/175
f 176/176/176 172/172/172 178/178/178
f 179/179/179 172/172/172 177/177/177
f 178/178/178 172/172/172 180/180/180
f 180/180/180 172/172/172 179/179/179
f 183/183/183 182/182/182 181/181/181
f 183/183/183 181/181/181 184/184/184
f 183/183/183 185/185/185 182/182/182
f 183/183/183 184/184/184 186/186/186
f 183/183/183 187/187/187 185/185/185
f 183/183/183 186/186/186 188/188/188
f 183/183/183 189/189/189 187/187/187
f 183/183/183 188/188/188 190/190/190
f 183/183/183 190/190/190 189/189/189
f 193/193/193 192/192/192 191/191/191
f 193/193/193 191/191/191 194/194/194
f 193/193/193 195/195/195 192/192/192
f 193/193/193 194/194/194 196/196/196
f 193/193/193 197/197/197 195/195/195
f 193/193/193 196/196/196 198/198/198
f 193/193/193 199/199/199 197/197/197
f 193/193/193 198/198/198 200/200/200
f 193/193/193 200/200/200 199/199/199
