g Trigger_Single
v 4.450035 9.260406 2.430508
v 4.450035 10.08731 2.430508
v 3.925188 10.08731 2.127487
v 3.925188 9.260406 2.127487
v 3.328354 10.08731 2.232725
v 3.328354 9.260406 2.232725
v 2.938798 10.08731 2.696979
v 2.938798 9.260406 2.696979
v 2.938798 10.08731 3.30302
v 2.938798 9.260406 3.30302
v 3.328354 10.08731 3.767275
v 3.328354 9.260406 3.767275
v 3.925188 10.08731 3.872513
v 3.925188 9.260406 3.872513
v 4.450035 10.08731 3.569492
v 4.450035 9.260406 3.569492
v 4.657313 10.08731 3
v 4.657313 9.260406 3
v 4.450035 10.08731 2.430508
v 4.450035 9.260406 2.430508
v 3.099187 8.002156 3.400412
v 2.950965 7.912132 3.400412
v 2.950966 7.912132 2.599589
v 3.099188 8.002156 2.599588
v 3.274296 8.133264 3.400412
v 3.274296 8.133264 2.599588
v 3.401193 8.298638 3.400412
v 3.401193 8.298638 2.599588
v 3.478055 8.446863 3.400412
v 3.478056 8.446863 2.599588
v 3.478055 9.67386 3.400412
v 3.478056 9.67386 2.599588
v 2.950965 7.912132 3.400412
v 1.747502 7.921237 3.400412
v 1.747502 7.921237 2.599589
v 2.950966 7.912132 2.599589
v 3.445855 7.422785 3.400412
v 3.090749 7.262535 2.599589
v 3.090748 7.262535 3.400412
v 3.445856 7.422785 2.599589
v 3.75079 7.656771 3.400412
v 3.75079 7.656771 2.599589
v 3.984775 7.961707 3.400412
v 3.984776 7.961707 2.599589
v 4.131865 8.316813 3.400412
v 4.131866 8.316813 2.599589
v 4.131865 9.67386 3.400412
v 4.131866 9.67386 2.599589
v 3.090748 7.262535 3.400412
v 3.090749 7.262535 2.599589
v 1.747502 7.291615 2.599589
v 1.747502 7.291615 3.400412
v 4.131865 8.316813 3.400412
v 3.478055 9.67386 3.400412
v 4.131865 9.67386 3.400412
v 3.478055 8.446863 3.400412
v 3.984775 7.961707 3.400412
v 3.401193 8.298638 3.400412
v 3.75079 7.656771 3.400412
v 3.274296 8.133264 3.400412
v 3.445855 7.422785 3.400412
v 3.099187 8.002156 3.400412
v 3.090748 7.262535 3.400412
v 2.950965 7.912132 3.400412
v 1.747502 7.921237 3.400412
v 1.747502 7.291615 3.400412
v 3.478056 9.67386 2.599588
v 4.131866 8.316813 2.599589
v 4.131866 9.67386 2.599589
v 3.478056 8.446863 2.599588
v 3.401193 8.298638 2.599588
v 3.984776 7.961707 2.599589
v 3.274296 8.133264 2.599588
v 3.75079 7.656771 2.599589
v 3.099188 8.002156 2.599588
v 3.445856 7.422785 2.599589
v 2.950966 7.912132 2.599589
v 3.090749 7.262535 2.599589
v 1.747502 7.921237 2.599589
v 1.747502 7.291615 2.599589
v 3.925188 9.260406 2.127487
v 3.771341 9.260406 3
v 4.450035 9.260406 2.430508
v 3.328354 9.260406 2.232725
v 4.657313 9.260406 3
v 2.938798 9.260406 2.696979
v 4.450035 9.260406 3.569492
v 2.938798 9.260406 3.30302
v 3.925188 9.260406 3.872513
v 3.328354 9.260406 3.767275
v 4.450035 10.08731 2.430508
v 3.771341 10.08731 3
v 3.925188 10.08731 2.127487
v 4.657313 10.08731 3
v 3.328354 10.08731 2.232725
v 4.450035 10.08731 3.569492
v 2.938798 10.08731 2.696979
v 3.925188 10.08731 3.872513
v 2.938798 10.08731 3.30302
v 3.328354 10.08731 3.767275
vt 0.6247392 0.6581826
vt 0.6247392 0.7118136
vt 0.6277741 0.7118136
vt 0.6277741 0.6581826
vt 0.630809 0.7118136
vt 0.630809 0.6581826
vt 0.6338438 0.7118136
vt 0.6338438 0.6581826
vt 0.6368787 0.7118136
vt 0.6368787 0.6581826
vt 0.6399136 0.7118136
vt 0.6399136 0.6581826
vt 0.6429485 0.7118136
vt 0.6429485 0.6581826
vt 0.6459835 0.7118136
vt 0.6459835 0.6581826
vt 0.6490182 0.7118136
vt 0.6490182 0.6581826
vt 0.6520532 0.7118136
vt 0.6520532 0.6581826
vt 0.1555721 0.9023675
vt 0.1559391 0.9023675
vt 0.1559391 0.8954084
vt 0.1555721 0.8954084
vt 0.1550377 0.9023674
vt 0.1550377 0.8954084
vt 0.1543636 0.9023674
vt 0.1543636 0.8954084
vt 0.1537594 0.9023674
vt 0.1537594 0.8954084
vt 0.1447529 0.9023674
vt 0.1447529 0.8954084
vt 0.1559391 0.9023675
vt 0.155902 0.9023675
vt 0.155902 0.8954084
vt 0.1559391 0.8954084
vt 0.363137 0.9159042
vt 0.3633768 0.9221333
vt 0.3633768 0.9159042
vt 0.363137 0.9221333
vt 0.3627869 0.9159042
vt 0.3627869 0.9221333
vt 0.3623307 0.9159042
vt 0.3623307 0.9221333
vt 0.3617994 0.9159042
vt 0.3617994 0.9221333
vt 0.3581042 0.9159042
vt 0.3581042 0.9221333
vt 0.3633768 0.9159042
vt 0.3633768 0.9221333
vt 0.3633333 0.9221331
vt 0.3633333 0.9159042
vt 0.04521734 0.9181551
vt 0.04066546 0.9235276
vt 0.03900184 0.9181551
vt 0.05593444 0.9235276
vt 0.04611105 0.9178036
vt 0.05695873 0.9230241
vt 0.04687849 0.9172448
vt 0.05810156 0.9221927
vt 0.04746738 0.9165163
vt 0.05900757 0.9210454
vt 0.0478707 0.915668
vt 0.05962966 0.9200743
vt 0.05956675 0.9105722
vt 0.0477975 0.9112127
vt 0.0557972 0.9231981
vt 0.04065 0.910094
vt 0.04288486 0.910094
vt 0.0408027 0.923198
vt 0.03979681 0.9227121
vt 0.04032864 0.9099699
vt 0.03867455 0.9219097
vt 0.04005273 0.9097724
vt 0.03778486 0.9208026
vt 0.039841 0.9095149
vt 0.03717393 0.9198655
vt 0.03969596 0.9092151
vt 0.03723574 0.9106958
vt 0.03972229 0.9076403
vt 0.5609568 0.6838208
vt 0.5605603 0.6859783
vt 0.5623094 0.6846018
vt 0.5594186 0.6840921
vt 0.5628437 0.6860695
vt 0.5584146 0.6852886
vt 0.5623094 0.6875373
vt 0.5584146 0.6868505
vt 0.5609568 0.6883183
vt 0.5594186 0.688047
vt 0.7698305 0.6928413
vt 0.7514224 0.6764339
vt 0.7555952 0.7010601
vt 0.7754525 0.677395
vt 0.7394074 0.6982057
vt 0.7698305 0.6619488
vt 0.7288415 0.6856138
vt 0.7555952 0.65373
vt 0.7288415 0.6691763
vt 0.7394074 0.6565844
vn 0.7071179 -0.3846154 -0.5933425
vn 0.7071179 0.3846152 -0.5933425
vn 0.1602906 0.3846151 -0.9090534
vn 0.1602906 -0.3846153 -0.9090533
vn -0.4615387 0.3846155 -0.799408
vn -0.4615385 -0.3846154 -0.7994081
vn -0.8674087 0.3846154 -0.3157105
vn -0.8674086 -0.3846154 -0.3157107
vn -0.8674088 0.3846155 0.3157103
vn -0.8674086 -0.3846154 0.3157108
vn -0.4615386 0.3846158 0.7994078
vn -0.4615383 -0.3846155 0.7994081
vn 0.1602903 0.3846155 0.9090533
vn 0.1602902 -0.3846154 0.9090533
vn 0.707118 0.3846153 0.5933424
vn 0.7071178 -0.3846155 0.5933424
vn 0.9230769 0.3846154 1.827949E-07
vn 0.9230769 -0.3846154 1.827949E-07
vn 0.7071179 0.3846152 -0.5933425
vn 0.7071179 -0.3846154 -0.5933425
vn -0.3486664 0.5098065 0.7864662
vn -0.04097575 0.6844578 0.7279001
vn -0.04097609 0.6844571 -0.7279007
vn -0.3486657 0.5098049 -0.7864676
vn -0.4307344 0.4387586 0.7886436
vn -0.4307337 0.4387574 -0.7886446
vn -0.5012821 0.325706 0.8016433
vn -0.5012809 0.3257051 -0.8016444
vn -0.6865118 0.03836996 0.7261057
vn -0.68651 0.03836984 -0.7261073
vn -0.7583027 0 0.6519026
vn -0.7583012 0 -0.6519043
vn -0.04097575 0.6844578 0.7279001
vn 0.005793444 0.765833 0.6430135
vn 0.005793091 0.7658329 -0.6430136
vn -0.04097609 0.6844571 -0.7279007
vn 0.4431264 -0.7418948 0.5032207
vn 0.06530573 -0.8455585 -0.5298734
vn 0.06530578 -0.8455587 0.5298732
vn 0.4431266 -0.7418952 -0.5032199
vn 0.6061879 -0.6061866 0.5148534
vn 0.6061882 -0.606187 -0.5148525
vn 0.752211 -0.4342895 0.4955513
vn 0.7522115 -0.4342898 -0.4955506
vn 0.8343272 -0.07167643 0.5465899
vn 0.8343283 -0.07167646 -0.5465882
vn 0.7895338 0 0.6137071
vn 0.7895352 0 -0.6137053
vn 0.06530578 -0.8455587 0.5298732
vn 0.06530573 -0.8455585 -0.5298734
vn -0.01718165 -0.7936263 -0.6081629
vn -0.01718132 -0.7936264 0.6081628
vn 0.8343272 -0.07167643 0.5465899
vn -0.7583027 0 0.6519026
vn 0.7895338 0 0.6137071
vn -0.6865118 0.03836996 0.7261057
vn 0.752211 -0.4342895 0.4955513
vn -0.5012821 0.325706 0.8016433
vn 0.6061879 -0.6061866 0.5148534
vn -0.4307344 0.4387586 0.7886436
vn 0.4431264 -0.7418948 0.5032207
vn -0.3486664 0.5098065 0.7864662
vn 0.06530578 -0.8455587 0.5298732
vn -0.04097575 0.6844578 0.7279001
vn 0.005793444 0.765833 0.6430135
vn -0.01718132 -0.7936264 0.6081628
vn -0.7583012 0 -0.6519043
vn 0.8343283 -0.07167646 -0.5465882
vn 0.7895352 0 -0.6137053
vn -0.68651 0.03836984 -0.7261073
vn -0.5012809 0.3257051 -0.8016444
vn 0.7522115 -0.4342898 -0.4955506
vn -0.4307337 0.4387574 -0.7886446
vn 0.6061882 -0.606187 -0.5148525
vn -0.3486657 0.5098049 -0.7864676
vn 0.4431266 -0.7418952 -0.5032199
vn -0.04097609 0.6844571 -0.7279007
vn 0.06530573 -0.8455585 -0.5298734
vn 0.005793091 0.7658329 -0.6430136
vn -0.01718165 -0.7936263 -0.6081629
vn 0.1602906 -0.3846153 -0.9090533
vn 0 -1 0
vn 0.7071179 -0.3846154 -0.5933425
vn -0.4615385 -0.3846154 -0.7994081
vn 0.9230769 -0.3846154 1.827949E-07
vn -0.8674086 -0.3846154 -0.3157107
vn 0.7071178 -0.3846155 0.5933424
vn -0.8674086 -0.3846154 0.3157108
vn 0.1602902 -0.3846154 0.9090533
vn -0.4615383 -0.3846155 0.7994081
vn 0.7071179 0.3846152 -0.5933425
vn 0 1 -3.440877E-07
vn 0.1602906 0.3846151 -0.9090534
vn 0.9230769 0.3846154 1.827949E-07
vn -0.4615387 0.3846155 -0.799408
vn 0.707118 0.3846153 0.5933424
vn -0.8674087 0.3846154 -0.3157105
vn 0.1602903 0.3846155 0.9090533
vn -0.8674088 0.3846155 0.3157103
vn -0.4615386 0.3846158 0.7994078
g Trigger_Single_0
f 3/3/3 2/2/2 1/1/1
f 4/4/4 3/3/3 1/1/1
f 5/5/5 3/3/3 4/4/4
f 6/6/6 5/5/5 4/4/4
f 7/7/7 5/5/5 6/6/6
f 8/8/8 7/7/7 6/6/6
f 9/9/9 7/7/7 8/8/8
f 10/10/10 9/9/9 8/8/8
f 11/11/11 9/9/9 10/10/10
f 12/12/12 11/11/11 10/10/10
f 13/13/13 11/11/11 12/12/12
f 14/14/14 13/13/13 12/12/12
f 15/15/15 13/13/13 14/14/14
f 16/16/16 15/15/15 14/14/14
f 17/17/17 15/15/15 16/16/16
f 18/18/18 17/17/17 16/16/16
f 19/19/19 17/17/17 18/18/18
f 20/20/20 19/19/19 18/18/18
f 23/23/23 22/22/22 21/21/21
f 24/24/24 23/23/23 21/21/21
f 24/24/24 21/21/21 25/25/25
f 26/26/26 24/24/24 25/25/25
f 26/26/26 25/25/25 27/27/27
f 28/28/28 26/26/26 27/27/27
f 28/28/28 27/27/27 29/29/29
f 30/30/30 28/28/28 29/29/29
f 30/30/30 29/29/29 31/31/31
f 32/32/32 30/30/30 31/31/31
f 35/35/35 34/34/34 33/33/33
f 36/36/36 35/35/35 33/33/33
f 39/39/39 38/38/38 37/37/37
f 38/38/38 40/40/40 37/37/37
f 37/37/37 40/40/40 41/41/41
f 40/40/40 42/42/42 41/41/41
f 41/41/41 42/42/42 43/43/43
f 42/42/42 44/44/44 43/43/43
f 43/43/43 44/44/44 45/45/45
f 44/44/44 46/46/46 45/45/45
f 45/45/45 46/46/46 47/47/47
f 46/46/46 48/48/48 47/47/47
f 51/51/51 50/50/50 49/49/49
f 52/52/52 51/51/51 49/49/49
f 55/55/55 54/54/54 53/53/53
f 54/54/54 56/56/56 53/53/53
f 53/53/53 56/56/56 57/57/57
f 56/56/56 58/58/58 57/57/57
f 57/57/57 58/58/58 59/59/59
f 58/58/58 60/60/60 59/59/59
f 59/59/59 60/60/60 61/61/61
f 60/60/60 62/62/62 61/61/61
f 61/61/61 62/62/62 63/63/63
f 62/62/62 64/64/64 63/63/63
f 63/63/63 64/64/64 65/65/65
f 66/66/66 63/63/63 65/65/65
f 69/69/69 68/68/68 67/67/67
f 68/68/68 70/70/70 67/67/67
f 71/71/71 70/70/70 68/68/68
f 72/72/72 71/71/71 68/68/68
f 73/73/73 71/71/71 72/72/72
f 74/74/74 73/73/73 72/72/72
f 75/75/75 73/73/73 74/74/74
f 76/76/76 75/75/75 74/74/74
f 77/77/77 75/75/75 76/76/76
f 78/78/78 77/77/77 76/76/76
f 79/79/79 77/77/77 78/78/78
f 80/80/80 79/79/79 78/78/78
f 83/83/83 82/82/82 81/81/81
f 81/81/81 82/82/82 84/84/84
f 85/85/85 82/82/82 83/83/83
f 84/84/84 82/82/82 86/86/86
f 87/87/87 82/82/82 85/85/85
f 86/86/86 82/82/82 88/88/88
f 89/89/89 82/82/82 87/87/87
f 88/88/88 82/82/82 90/90/90
f 90/90/90 82/82/82 89/89/89
f 93/93/93 92/92/92 91/91/91
f 91/91/91 92/92/92 94/94/94
f 95/95/95 92/92/92 93/93/93
f 94/94/94 92/92/92 96/96/96
f 97/97/97 92/92/92 95/95/95
f 96/96/96 92/92/92 98/98/98
f 99/99/99 92/92/92 97/97/97
f 98/98/98 92/92/92 100/100/100
f 100/100/100 92/92/92 99/99/99
