g Trojan4
v 3.477472 -0.2786011 2.110456
v 3.477472 -0.03243164 2.110456
v -2.84005 -0.2786011 2.110456
v 3.477472 -0.03243164 2.804538
v 3.477472 -0.2786011 2.804538
v -2.84005 -0.03243164 2.110456
v -2.84005 -0.2786011 2.804538
v -2.84005 -0.03243164 2.804538
v -1.692689 -0.2786011 -1.501573
v -1.692689 -0.09671386 -1.501573
v -1.692689 -0.2786011 -0.8641555
v 4.653153 -0.09671386 -1.501573
v 4.653153 -0.2786011 -1.501573
v 4.653153 -0.09671386 -0.8641555
v 4.653153 -0.2786011 -0.8641555
v -1.692689 -0.09671386 -0.8641555
v -4.653153 -0.2786011 2.110456
v -4.653153 0.0997583 2.110456
v 1.692701 -0.2786011 2.110456
v -4.653153 0.0997583 0.9347766
v -4.653153 -0.2786011 0.9347766
v 1.692701 0.0997583 2.110456
v 1.692701 -0.2786011 0.9347766
v 1.692701 0.0997583 0.9347766
v -2.160135 -0.2786011 3.399461
v -2.160135 0.06139892 3.399461
v -2.160135 -0.2786011 4.589306
v 4.171548 0.06139892 3.399461
v 4.171548 -0.2786011 3.399461
v 4.171549 0.06139892 4.589306
v 4.171549 -0.2786011 4.589306
v -2.160135 0.06139892 4.589306
v -2.84005 -0.2786011 -0.8641555
v -2.84005 0.1611133 -0.8641555
v -2.84005 -0.2786011 0.2548615
v 3.477472 0.1611133 -0.8641555
v 3.477472 -0.2786011 -0.8641555
v 3.477472 0.1611133 0.2548615
v 3.477472 -0.2786011 0.2548615
v -2.84005 0.1611133 0.2548615
v 2.259294 -0.1486011 -0.2616882
v 2.259294 0.2786011 -0.2616882
v 2.942755 -0.1486011 -1.635788
v 2.259294 0.2786011 -4.589306
v 2.259294 -0.1486011 -4.589306
v 2.942755 0.2786011 -1.635788
v 3.084916 -0.1486011 -2.615028
v 2.863795 0.2786011 -3.625852
v 2.863795 -0.1486011 -3.625852
v 3.084916 0.2786011 -2.615028
vt 0.2931309 0.4447677
vt 0.2931309 0.4447677
vt 0.08511013 0.4447677
vt 0.2931309 0.4219133
vt 0.2931309 0.4219133
vt 0.08511013 0.4447677
vt 0.08511013 0.4219133
vt 0.08511013 0.4219133
vt 0.1120994 0.5270153
vt 0.1120994 0.5270153
vt 0.1120994 0.5060266
vt 0.3210527 0.5270153
vt 0.3210527 0.5270153
vt 0.3210527 0.5060266
vt 0.3210527 0.5060266
vt 0.1120994 0.5060266
vt 0.09231043 0.785749
vt 0.09231043 0.785749
vt 0.3012642 0.785749
vt 0.09231043 0.8244613
vt 0.09231043 0.8244613
vt 0.3012642 0.785749
vt 0.3012642 0.8244613
vt 0.3012642 0.8244613
vt 0.1010238 0.8102066
vt 0.1010238 0.8102066
vt 0.1010238 0.7710279
vt 0.3095108 0.8102066
vt 0.3095108 0.8102066
vt 0.3095108 0.7710279
vt 0.3095108 0.7710279
vt 0.1010238 0.7710279
vt 0.1520115 0.8836958
vt 0.1520115 0.8836958
vt 0.1520116 0.8468492
vt 0.3600323 0.8836958
vt 0.3600323 0.8836958
vt 0.3600323 0.8468492
vt 0.3600323 0.8468492
vt 0.1520116 0.8468492
vt 0.7795981 0.114994
vt 0.7795981 0.114994
vt 0.8021027 0.1602398
vt 0.779598 0.257492
vt 0.779598 0.257492
vt 0.8021027 0.1602398
vt 0.8067838 0.1924838
vt 0.7995027 0.2257678
vt 0.7995027 0.2257678
vt 0.8067838 0.1924838
vn 0.109209 0 -0.9940188
vn 0.03669999 0.9418432 -0.3340427
vn -0.109209 0 -0.9940188
vn 0.03669999 0.9418432 0.3340428
vn 0.109209 0 0.9940188
vn -0.03669999 0.9418432 -0.3340428
vn -0.109209 0 0.9940188
vn -0.03669999 0.9418432 0.3340427
vn -0.09994367 0 -0.9949932
vn -0.02755179 0.9612514 -0.2742931
vn -0.0999436 0 0.9949932
vn 0.0275518 0.9612514 -0.274293
vn 0.0999436 0 -0.9949932
vn 0.02755179 0.9612514 0.2742931
vn 0.09994367 0 0.9949932
vn -0.0275518 0.9612514 0.274293
vn -0.1821674 0 0.9832675
vn -0.05666517 0.9503899 0.3058562
vn 0.1821674 0 0.9832676
vn -0.05666517 0.9503899 -0.3058562
vn -0.1821674 0 -0.9832676
vn 0.05666517 0.9503899 0.3058562
vn 0.1821674 0 -0.9832675
vn 0.05666517 0.9503899 -0.3058562
vn -0.1846865 0 -0.9827975
vn -0.05156289 0.9602354 -0.2743886
vn -0.1846865 0 0.9827975
vn 0.05156289 0.9602354 -0.2743887
vn 0.1846865 0 -0.9827975
vn 0.05156294 0.9602354 0.2743889
vn 0.1846865 0 0.9827975
vn -0.0515629 0.9602354 0.2743888
vn -0.1744141 0 -0.9846724
vn -0.06464501 0.9287762 -0.3649599
vn -0.1744141 0 0.9846724
vn 0.06464501 0.9287762 -0.3649599
vn 0.1744141 0 -0.9846724
vn 0.06464501 0.9287762 0.3649599
vn 0.1744141 0 0.9846724
vn -0.06464501 0.9287762 0.3649599
vn -0.9742551 0 0.2254483
vn -0.808982 0.557228 0.1872031
vn 0.9436141 0 0.3310479
vn -0.8952461 0.4155198 -0.1608653
vn -0.9842368 0 -0.1768558
vn 0.2046719 0.9761933 0.071805
vn 0.9992138 0 -0.03964594
vn 0.3965169 0.9029277 -0.165819
vn 0.9225775 0 -0.3858117
vn 0.7994218 0.5999323 -0.03171876
g Trojan4_0
f 3/3/3 2/2/2 1/1/1
f 1/1/1 2/2/2 4/4/4
f 1/1/1 4/4/4 5/5/5
f 3/3/3 6/6/6 2/2/2
f 6/6/6 4/4/4 2/2/2
f 7/7/7 6/6/6 3/3/3
f 5/5/5 8/8/8 7/7/7
f 5/5/5 4/4/4 8/8/8
f 6/6/6 8/8/8 4/4/4
f 7/7/7 8/8/8 6/6/6
f 11/11/11 10/10/10 9/9/9
f 9/9/9 10/10/10 12/12/12
f 9/9/9 12/12/12 13/13/13
f 13/13/13 12/12/12 14/14/14
f 10/10/10 14/14/14 12/12/12
f 13/13/13 14/14/14 15/15/15
f 11/11/11 16/16/16 10/10/10
f 15/15/15 16/16/16 11/11/11
f 10/10/10 16/16/16 14/14/14
f 15/15/15 14/14/14 16/16/16
f 19/19/19 18/18/18 17/17/17
f 17/17/17 18/18/18 20/20/20
f 17/17/17 20/20/20 21/21/21
f 19/19/19 22/22/22 18/18/18
f 20/20/20 18/18/18 22/22/22
f 23/23/23 22/22/22 19/19/19
f 21/21/21 24/24/24 23/23/23
f 21/21/21 20/20/20 24/24/24
f 20/20/20 22/22/22 24/24/24
f 23/23/23 24/24/24 22/22/22
f 27/27/27 26/26/26 25/25/25
f 25/25/25 26/26/26 28/28/28
f 25/25/25 28/28/28 29/29/29
f 29/29/29 28/28/28 30/30/30
f 26/26/26 30/30/30 28/28/28
f 29/29/29 30/30/30 31/31/31
f 27/27/27 32/32/32 26/26/26
f 31/31/31 32/32/32 27/27/27
f 26/26/26 32/32/32 30/30/30
f 31/31/31 30/30/30 32/32/32
f 35/35/35 34/34/34 33/33/33
f 33/33/33 34/34/34 36/36/36
f 33/33/33 36/36/36 37/37/37
f 37/37/37 36/36/36 38/38/38
f 34/34/34 38/38/38 36/36/36
f 37/37/37 38/38/38 39/39/39
f 35/35/35 40/40/40 34/34/34
f 39/39/39 40/40/40 35/35/35
f 34/34/34 40/40/40 38/38/38
f 39/39/39 38/38/38 40/40/40
f 43/43/43 42/42/42 41/41/41
f 41/41/41 42/42/42 44/44/44
f 41/41/41 44/44/44 45/45/45
f 43/43/43 46/46/46 42/42/42
f 46/46/46 44/44/44 42/42/42
f 47/47/47 46/46/46 43/43/43
f 45/45/45 44/44/44 48/48/48
f 46/46/46 48/48/48 44/44/44
f 45/45/45 48/48/48 49/49/49
f 47/47/47 50/50/50 46/46/46
f 49/49/49 50/50/50 47/47/47
f 46/46/46 50/50/50 48/48/48
f 49/49/49 48/48/48 50/50/50
