g Trojan2
v 2.545469 0.5532446 0.3361903
v 1.008589 0.5532446 0.3361903
v 2.545469 0.5532446 -1.136656
v 1.008589 0.5532446 -1.136656
v 4.050332 0.5532446 1.745
v 2.545469 0.5532446 1.745
v 4.050332 0.5532446 0.3361903
v 2.545469 0.5532446 0.3361903
v 4.050332 0.5532421 -1.136656
v 2.545469 0.5532421 -1.136656
v 4.050332 0.5532421 -2.70556
v 2.545469 0.5532421 -2.70556
v 2.545469 0.5532421 -4.114371
v 2.545469 0.5532421 -2.70556
v 1.008588 0.5532421 -4.114371
v 1.008589 0.5532421 -2.70556
v 1.008589 0.5532421 1.745
v -0.5283009 0.5532421 1.745
v 1.008589 0.5532421 0.3361903
v -0.5283009 0.5532421 0.3361903
v -4.050332 0.5532421 2.897668
v -4.050332 0.5532421 1.745
v -2.769592 0.5532421 2.897668
v -2.769592 0.5532421 1.744999
v -0.5283009 -0.5532446 -1.136656
v -0.5283009 -0.1632446 -1.136656
v 1.008589 -0.5532446 -2.70556
v 1.008589 -0.1632446 -2.70556
v 1.008589 -0.5532446 -2.70556
v 1.008589 -0.1632446 -2.70556
v -0.5283009 -0.5532446 -2.70556
v -0.5283009 -0.1632446 -2.70556
v -0.5283009 -0.1632446 -1.136656
v -0.5283009 -0.5532446 -1.136656
v -0.5283009 -0.5532446 -1.136656
v -0.5283009 -0.3632446 -1.136656
v 1.008589 -0.5532446 -1.136656
v 1.008589 -0.3632446 -1.136656
v 1.008589 -0.3632446 -2.70556
v 1.008589 -0.5532446 -2.70556
v 2.545469 -0.5532446 0.3361903
v 2.545469 0.5532446 0.3361903
v 2.545469 -0.5532446 -1.136656
v 2.545469 0.5532446 -1.136656
v 2.545469 -0.5532446 -1.136656
v 2.545469 0.5532446 -1.136656
v 1.008589 -0.5532446 -1.136656
v 1.008589 0.5532446 -1.136656
v 1.008589 -0.5532446 -1.136656
v 1.008589 0.5532446 -1.136656
v 1.008589 -0.5532446 0.3361903
v 1.008589 0.5532446 0.3361903
v 1.008589 -0.5532446 0.3361903
v 1.008589 0.5532446 0.3361903
v 2.545469 -0.5532446 0.3361903
v 2.545469 0.5532446 0.3361903
v 4.050332 -0.5532446 1.745
v 4.050332 0.5532446 1.745
v 4.050332 -0.5532446 0.3361903
v 4.050332 0.5532446 0.3361903
v 4.050332 -0.5532446 0.3361903
v 4.050332 0.5532446 0.3361903
v 2.545469 -0.5532446 0.3361903
v 2.545469 0.5532446 0.3361903
v 2.545469 -0.5532446 1.745
v 2.545469 0.5532446 1.745
v 4.050332 -0.5532446 1.745
v 4.050332 0.5532446 1.745
v 2.545469 -0.5532446 -4.114371
v 2.545469 0.5532421 -4.114371
v 1.008588 -0.5532446 -4.114371
v 1.008588 0.5532421 -4.114371
v 1.008589 -0.5532446 -2.70556
v 1.008589 0.5532421 -2.70556
v 2.545469 -0.5532446 -2.70556
v 2.545469 0.5532421 -2.70556
v 2.545469 -0.5532446 -2.70556
v 2.545469 0.5532421 -2.70556
v 2.545469 -0.5532446 -4.114371
v 2.545469 0.5532421 -4.114371
v 1.008589 -0.5532446 1.745
v 1.008589 0.5532421 1.745
v 1.008589 -0.5532446 0.3361903
v 1.008589 0.5532421 0.3361903
v -0.5283009 -0.5532446 0.3361903
v -0.5283009 0.5532421 0.3361903
v -0.5283009 -0.5532446 0.3361903
v -0.5283009 0.5532421 0.3361903
v -0.5283009 -0.5532446 1.745
v -0.5283009 0.5532421 1.745
v 1.008589 -0.5532446 1.745
v 1.008589 0.5532421 1.745
v -4.050332 -0.5532446 2.897668
v -4.050332 0.5532421 2.897668
v -2.769592 -0.5532446 2.897668
v -2.769592 0.5532421 2.897668
v -2.769592 -0.5532446 2.897668
v -2.769592 0.5532421 2.897668
v -2.769592 -0.5532446 1.744999
v -2.769592 0.5532421 1.744999
v -4.050332 -0.5532446 1.745
v -4.050332 0.5532421 1.745
v -4.050332 -0.5532446 2.897668
v -4.050332 0.5532421 2.897668
v 4.050332 -0.5532446 -1.136656
v 4.050332 0.5532421 -1.136656
v 4.050332 -0.5532446 -2.70556
v 2.545469 0.5532421 -1.136656
v 4.050332 0.5532421 -2.70556
v 2.545469 -0.5532446 -1.136656
v 2.545469 -0.5532446 -2.70556
v 2.545469 0.5532421 -2.70556
v -2.769592 -0.5532446 4.114371
v -2.769592 0.5532421 4.114371
v -1.488855 -0.5532446 4.114371
v -2.769592 0.5532421 2.897668
v -2.769592 -0.5532446 2.897668
v -1.488855 0.5532421 4.114371
v -1.488855 -0.5532446 2.897668
v -1.488855 0.5532421 2.897668
vt 0.76787 0.5055618
vt 0.7323914 0.5055618
vt 0.76787 0.5395622
vt 0.7323914 0.5395622
vt 0.8026094 0.4730397
vt 0.76787 0.4730397
vt 0.8026094 0.5055618
vt 0.76787 0.5055618
vt 0.8026094 0.5395622
vt 0.76787 0.5395622
vt 0.8026094 0.57578
vt 0.76787 0.57578
vt 0.76787 0.6083021
vt 0.76787 0.57578
vt 0.7323914 0.6083021
vt 0.7323914 0.57578
vt 0.7323914 0.4730397
vt 0.6969126 0.4730397
vt 0.7323914 0.5055618
vt 0.6969126 0.5055618
vt 0.6156073 0.4464306
vt 0.6156073 0.4730397
vt 0.6451729 0.4464306
vt 0.6451729 0.4730397
vt 0.8154678 0.183332
vt 0.8156435 0.1887225
vt 0.7361389 0.1833392
vt 0.7363147 0.1887296
vt 0.7361389 0.1833392
vt 0.7363147 0.1887296
vt 0.7751868 0.1466939
vt 0.7753626 0.1520844
vt 0.8156435 0.1887225
vt 0.8154678 0.183332
vt 0.6969126 0.5395622
vt 0.6969126 0.5395622
vt 0.7323914 0.5395622
vt 0.7323914 0.5395622
vt 0.7323914 0.57578
vt 0.7323914 0.57578
vt 0.8026094 0.4730397
vt 0.76787 0.4730397
vt 0.8026094 0.5055618
vt 0.76787 0.5055618
vt 0.8026094 0.5395622
vt 0.76787 0.5395622
vt 0.8026094 0.57578
vt 0.76787 0.57578
vt 0.76787 0.6083021
vt 0.76787 0.57578
vt 0.7323914 0.6083021
vt 0.7323914 0.57578
vt 0.7323914 0.4730397
vt 0.6969126 0.4730397
vt 0.7323914 0.5055618
vt 0.6969126 0.5055618
vt 0.6451729 0.4183433
vt 0.6451729 0.4464306
vt 0.6747385 0.4183433
vt 0.6747385 0.4464306
vt 0.76787 0.5055618
vt 0.76787 0.5055618
vt 0.76787 0.5395622
vt 0.76787 0.5395622
vt 0.7323914 0.5395622
vt 0.7323914 0.5395622
vt 0.7323914 0.5055618
vt 0.7323914 0.5055618
vt 0.8026094 0.57578
vt 0.8026094 0.57578
vt 0.76787 0.57578
vt 0.76787 0.57578
vt 0.76787 0.5395622
vt 0.76787 0.5395622
vt 0.8026094 0.5395622
vt 0.8026094 0.5395622
vt 0.76787 0.6083021
vt 0.76787 0.6083021
vt 0.7323914 0.6083021
vt 0.7323914 0.6083021
vt 0.7323914 0.57578
vt 0.7323914 0.57578
vt 0.76787 0.57578
vt 0.76787 0.57578
vt 0.76787 0.6083021
vt 0.76787 0.6083021
vt 0.7323914 0.4730397
vt 0.7323914 0.4730397
vt 0.7323914 0.5055618
vt 0.7323914 0.5055618
vt 0.6969126 0.5055618
vt 0.6969126 0.5055618
vt 0.6969126 0.4730397
vt 0.6969126 0.4730397
vt 0.7323914 0.4730397
vt 0.7323914 0.4730397
vt 0.6156073 0.4464306
vt 0.6156073 0.4464306
vt 0.6451729 0.4464306
vt 0.6451729 0.4464306
vt 0.6451729 0.4730397
vt 0.6451729 0.4730397
vt 0.6156073 0.4730397
vt 0.6156073 0.4730397
vt 0.8026094 0.4730397
vt 0.8026094 0.4730397
vt 0.8026094 0.5055618
vt 0.76787 0.4730397
vt 0.8026094 0.5055618
vt 0.76787 0.4730397
vt 0.76787 0.5055618
vt 0.76787 0.5055618
vt 0.6451729 0.4183433
vt 0.6451729 0.4183433
vt 0.6747385 0.4183433
vt 0.6451729 0.4464306
vt 0.6451729 0.4464306
vt 0.6747385 0.4183433
vt 0.6747385 0.4464306
vt 0.6747385 0.4464306
vn 0.4988737 0.6929207 0.5205631
vn -0.4988737 0.6929206 0.5205631
vn 0.4988737 0.6929206 -0.5205631
vn -0.4988737 0.6929207 -0.5205631
vn 0.500582 0.6808087 0.5347121
vn -0.5005821 0.6808087 0.5347122
vn 0.5005821 0.6808087 -0.5347122
vn -0.500582 0.6808087 -0.5347121
vn 0.5150446 0.7004799 0.4940212
vn -0.5150447 0.7004799 0.494021
vn 0.5150447 0.7004799 -0.494021
vn -0.5150446 0.7004799 -0.4940212
vn 0.492705 0.6843544 -0.537495
vn 0.492705 0.6843544 0.537495
vn -0.4927051 0.6843542 -0.5374951
vn -0.492705 0.6843542 0.5374953
vn 0.4927028 0.684355 0.5374964
vn -0.4927028 0.684355 0.5374963
vn 0.4927028 0.684355 -0.5374963
vn -0.4927028 0.684355 -0.5374964
vn -0.5289353 0.6122339 0.5877048
vn -0.5289354 0.6122341 -0.5877047
vn 0.5289354 0.6122341 0.5877048
vn 0.5289353 0.6122341 -0.5877048
vn 0 0 1
vn 0 0.893075 0.4499077
vn 1 0 0
vn 0.4478889 0.8940892 0
vn 1 0 0
vn 0.4478889 0.8940892 0
vn -0.7143577 0 -0.6997806
vn -0.2391205 0.9423122 -0.2342411
vn 0 0.893075 0.4499077
vn 0 0 1
vn 0 0 1
vn 0 0.9725922 0.2325173
vn 0.7143577 0 0.6997806
vn 0.1218156 0.9853534 0.1193299
vn 0.2430292 0.970019 0
vn 1 0 0
vn 0.6919059 0 0.7219877
vn 0.4988737 0.6929207 0.5205631
vn 0.6919059 0 -0.7219878
vn 0.4988737 0.6929206 -0.5205631
vn 0.6919059 0 -0.7219878
vn 0.4988737 0.6929206 -0.5205631
vn -0.6919059 0 -0.7219877
vn -0.4988737 0.6929207 -0.5205631
vn -0.6919059 0 -0.7219877
vn -0.4988737 0.6929207 -0.5205631
vn -0.6919059 0 0.7219878
vn -0.4988737 0.6929206 0.5205631
vn -0.6919059 0 0.7219878
vn -0.4988737 0.6929206 0.5205631
vn 0.6919059 0 0.7219877
vn 0.4988737 0.6929207 0.5205631
vn 0.6834247 0 0.7300211
vn 0.500582 0.6808087 0.5347121
vn 0.6834245 0 -0.7300211
vn 0.5005821 0.6808087 -0.5347122
vn 0.6834245 0 -0.7300211
vn 0.5005821 0.6808087 -0.5347122
vn -0.6834247 0 -0.7300211
vn -0.500582 0.6808087 -0.5347121
vn -0.6834245 0 0.7300211
vn -0.5005821 0.6808087 0.5347122
vn 0.6834247 0 0.7300211
vn 0.500582 0.6808087 0.5347121
vn 0.6757256 0 -0.7371534
vn 0.492705 0.6843544 -0.537495
vn -0.6757256 0 -0.7371531
vn -0.4927051 0.6843542 -0.5374951
vn -0.6757255 0 0.7371534
vn -0.492705 0.6843542 0.5374953
vn 0.6757255 0 0.7371532
vn 0.492705 0.6843544 0.537495
vn 0.6757255 0 0.7371532
vn 0.492705 0.6843544 0.537495
vn 0.6757256 0 -0.7371534
vn 0.492705 0.6843544 -0.537495
vn 0.675723 0 0.7371557
vn 0.4927028 0.684355 0.5374964
vn 0.675723 0 -0.7371557
vn 0.4927028 0.684355 -0.5374963
vn -0.675723 0 -0.7371557
vn -0.4927028 0.684355 -0.5374964
vn -0.675723 0 -0.7371557
vn -0.4927028 0.684355 -0.5374964
vn -0.675723 0 0.7371557
vn -0.4927028 0.684355 0.5374963
vn 0.675723 0 0.7371557
vn 0.4927028 0.684355 0.5374964
vn -0.6689653 0 0.7432935
vn -0.5289353 0.6122339 0.5877048
vn 0.6689656 0 0.7432933
vn 0.5289354 0.6122341 0.5877048
vn 0.6689656 0 0.7432933
vn 0.5289354 0.6122341 0.5877048
vn 0.6689653 0 -0.7432936
vn 0.5289353 0.6122341 -0.5877048
vn -0.6689656 0 -0.7432934
vn -0.5289354 0.6122341 -0.5877047
vn -0.6689653 0 0.7432935
vn -0.5289353 0.6122339 0.5877048
vn 0.7216825 0 0.6922241
vn 0.5150446 0.7004799 0.4940212
vn 0.7216824 0 -0.6922243
vn -0.5150447 0.7004799 0.494021
vn 0.5150447 0.7004799 -0.494021
vn -0.7216824 0 0.6922243
vn -0.7216825 0 -0.6922241
vn -0.5150446 0.7004799 -0.4940212
vn -0.6887503 0 0.7249986
vn -0.5385545 0.6233663 0.5668982
vn 0.6887504 0 0.7249985
vn -0.5385545 0.6233662 -0.5668981
vn -0.6887504 0 -0.7249985
vn 0.5385545 0.6233662 0.5668981
vn 0.6887503 0 -0.7249986
vn 0.5385545 0.6233663 -0.5668982
g Trojan2_0
f 3/3/3 2/2/2 1/1/1
f 3/3/3 4/4/4 2/2/2
f 7/7/7 6/6/6 5/5/5
f 7/7/7 8/8/8 6/6/6
f 11/11/11 10/10/10 9/9/9
f 11/11/11 12/12/12 10/10/10
f 15/15/15 14/14/14 13/13/13
f 15/15/15 16/16/16 14/14/14
f 19/19/19 18/18/18 17/17/17
f 19/19/19 20/20/20 18/18/18
f 23/23/23 22/22/22 21/21/21
f 23/23/23 24/24/24 22/22/22
f 27/27/27 26/26/26 25/25/25
f 27/27/27 28/28/28 26/26/26
f 31/31/31 30/30/30 29/29/29
f 31/31/31 32/32/32 30/30/30
f 30/30/30 32/32/32 33/33/33
f 34/34/34 32/32/32 31/31/31
f 34/34/34 33/33/33 32/32/32
f 37/37/37 36/36/36 35/35/35
f 37/37/37 38/38/38 36/36/36
f 39/39/39 36/36/36 38/38/38
f 40/40/40 38/38/38 37/37/37
f 40/40/40 39/39/39 38/38/38
f 43/43/43 42/42/42 41/41/41
f 43/43/43 44/44/44 42/42/42
f 47/47/47 46/46/46 45/45/45
f 47/47/47 48/48/48 46/46/46
f 51/51/51 50/50/50 49/49/49
f 51/51/51 52/52/52 50/50/50
f 55/55/55 54/54/54 53/53/53
f 55/55/55 56/56/56 54/54/54
f 59/59/59 58/58/58 57/57/57
f 59/59/59 60/60/60 58/58/58
f 63/63/63 62/62/62 61/61/61
f 63/63/63 64/64/64 62/62/62
f 65/65/65 64/64/64 63/63/63
f 65/65/65 66/66/66 64/64/64
f 67/67/67 66/66/66 65/65/65
f 67/67/67 68/68/68 66/66/66
f 71/71/71 70/70/70 69/69/69
f 71/71/71 72/72/72 70/70/70
f 73/73/73 72/72/72 71/71/71
f 73/73/73 74/74/74 72/72/72
f 75/75/75 74/74/74 73/73/73
f 75/75/75 76/76/76 74/74/74
f 79/79/79 78/78/78 77/77/77
f 79/79/79 80/80/80 78/78/78
f 83/83/83 82/82/82 81/81/81
f 83/83/83 84/84/84 82/82/82
f 85/85/85 84/84/84 83/83/83
f 85/85/85 86/86/86 84/84/84
f 89/89/89 88/88/88 87/87/87
f 89/89/89 90/90/90 88/88/88
f 91/91/91 90/90/90 89/89/89
f 91/91/91 92/92/92 90/90/90
f 95/95/95 94/94/94 93/93/93
f 95/95/95 96/96/96 94/94/94
f 99/99/99 98/98/98 97/97/97
f 99/99/99 100/100/100 98/98/98
f 101/101/101 100/100/100 99/99/99
f 101/101/101 102/102/102 100/100/100
f 103/103/103 102/102/102 101/101/101
f 103/103/103 104/104/104 102/102/102
f 107/107/107 106/106/106 105/105/105
f 105/105/105 106/106/106 108/108/108
f 107/107/107 109/109/109 106/106/106
f 105/105/105 108/108/108 110/110/110
f 111/111/111 109/109/109 107/107/107
f 110/110/110 108/108/108 112/112/112
f 111/111/111 112/112/112 109/109/109
f 110/110/110 112/112/112 111/111/111
f 115/115/115 114/114/114 113/113/113
f 113/113/113 114/114/114 116/116/116
f 113/113/113 116/116/116 117/117/117
f 115/115/115 118/118/118 114/114/114
f 118/118/118 116/116/116 114/114/114
f 119/119/119 118/118/118 115/115/115
f 117/117/117 120/120/120 119/119/119
f 117/117/117 116/116/116 120/120/120
f 118/118/118 120/120/120 116/116/116
f 119/119/119 120/120/120 118/118/118
