g TruckerHat
v -5.276096 5.458276 4.540988
v -3.413695 3.382628 6.824871
v -5.616329 1.19391 4.908143
v -3.011438 5.870033 6.453231
v -3.880445 7.958765 4.138428
v -2.530136 8.293686 4.828328
v 0 3.673597 7.235413
v 0 8.581055 5.26779
v 0 5.869396 6.858716
v 3.011438 5.870033 6.453231
v 2.530136 8.293686 4.828328
v 3.880445 7.958765 4.138428
v 3.413695 3.382628 6.824871
v 5.276096 5.458276 4.540988
v 5.616329 1.19391 4.908143
v -4.256249 8.119925 2.869165
v -2.530136 8.293686 4.828328
v -3.880445 7.958765 4.138428
v -2.936902 8.724639 3.264713
v -4.632054 8.29947 0.7470154
v 0 8.581055 5.26779
v -2.843683 9.001164 0.5805408
v 0 9.109841 3.484445
v -2.948945 8.84031 -1.84201
v -4.491378 8.254282 -1.381337
v 2.936902 8.724639 3.264713
v 2.530136 8.293686 4.828328
v 0 9.499829 0.5805408
v -3.210453 7.898442 -4.021852
v -3.793354 8.007957 -2.858433
v 0 9.14008 -2.041138
v 0 7.953362 -4.696827
v 3.210453 7.898442 -4.021852
v 4.256249 8.119925 2.869165
v 3.880445 7.958765 4.138428
v 4.632054 8.29947 0.7470154
v 2.843683 9.001164 0.5805408
v 2.948945 8.84031 -1.84201
v 4.491378 8.254282 -1.381337
v 3.793354 8.007957 -2.858433
v -3.437231 3.336575 11.66323
v 0 2.161143 12.02899
v -3.433337 1.773219 11.51829
v 0 3.615618 12.19503
v 3.437231 3.336575 11.66323
v 3.433337 1.773219 11.51829
v -6.010918 0 3.07922
v -5.616329 1.19391 4.908143
v -5.601424 0 4.763964
v -5.678063 5.441391 2.770494
v -5.276096 5.458276 4.540988
v -3.880445 7.958765 4.138428
v -4.256249 8.119925 2.869165
v -6.420411 0 1.394476
v -6.08003 5.424506 1
v -5.769628 5.441964 -0.88578
v -4.632054 8.29947 0.7470154
v -6.135477 0 -0.9104614
v -4.491378 8.254282 -1.381337
v -3.793354 8.007957 -2.858433
v -5.293194 0.01943604 -3.987685
v -4.901875 5.500181 -3.543846
v -3.210453 7.898442 -4.021852
v -3.35997 5.504746 -5.499272
v -3.662994 0 -5.645118
v 0 0 -6.778201
v 0 5.50618 -6.28422
v 0 7.953362 -4.696827
v 3.662994 0 -5.645118
v 3.210453 7.898442 -4.021852
v 3.35997 5.504746 -5.499272
v 4.901875 5.500181 -3.543846
v 5.293194 0.01943604 -3.987685
v 3.793354 8.007957 -2.858433
v 5.769628 5.441964 -0.88578
v 4.491378 8.254282 -1.381337
v 6.135477 0 -0.9104614
v 4.632054 8.29947 0.7470154
v 6.08003 5.424506 1
v 6.420411 0 1.394476
v 4.256249 8.119925 2.869165
v 5.678063 5.441391 2.770494
v 3.880445 7.958765 4.138428
v 5.276096 5.458276 4.540988
v 6.010918 0 3.07922
v 5.616329 1.19391 4.908143
v 5.601424 0 4.763964
v -5.616329 1.19391 4.908143
v -5.619832 0 8.115846
v -5.601424 0 4.763964
v -5.634876 1.219362 8.25337
v -4.771742 2.408202 10.53657
v -4.766065 1.009639 10.3892
v -3.433337 1.773219 11.51829
v -3.437231 3.336575 11.66323
v -5.601424 0 4.763964
v -5.619832 0 8.115846
v -4.766065 1.009639 10.3892
v -4.679414 1.012515 5.807483
v -3.292521 1.773219 6.851002
v -3.433337 1.773219 11.51829
v 0 2.161143 12.02899
v 0 2.161143 7.361706
v 3.292521 1.773219 6.851002
v 3.433337 1.773219 11.51829
v 4.766065 1.009639 10.3892
v 4.679414 1.012515 5.807483
v 5.601424 0 4.763964
v 5.619832 0 8.115846
v -4.771742 2.408202 10.53657
v -5.634876 1.219362 8.25337
v -5.616329 1.19391 4.908143
v -3.437231 3.336575 11.66323
v -3.413695 3.382628 6.824871
v 0 3.673597 7.235413
v 0 3.615618 12.19503
v 3.437231 3.336575 11.66323
v 3.413695 3.382628 6.824871
v 5.616329 1.19391 4.908143
v 4.771742 2.408202 10.53657
v 5.634876 1.219362 8.25337
v 5.616329 1.19391 4.908143
v 5.601424 0 4.763964
v 5.619832 0 8.115846
v 5.634876 1.219362 8.25337
v 4.771742 2.408202 10.53657
v 4.766065 1.009639 10.3892
v 3.433337 1.773219 11.51829
v 3.437231 3.336575 11.66323
v 0.1999568 9.945239 -0.9415796
v -0.2277562 10.16584 -0.4300726
v -0.4645495 9.818723 -0.9928176
v 0.4673221 10.11695 -0.3422217
v -0.8616906 9.86392 -0.444696
v 0.07018152 10.16215 0.2058997
v -0.5943248 10.03563 0.1546625
v 0.7947186 8.766231 -1.253026
v 0.5742092 9.432944 -1.242801
v -0.5767499 9.213811 -1.331547
v -0.5342941 8.513196 -1.3555
v 1.329449 9.109658 -0.05430908
v -1.264619 9.292097 -0.3821734
v -1.328576 8.603589 -0.2592572
v 1.037299 9.730366 -0.2046832
v 0.5351675 9.200051 1.041934
v -0.8015281 9.589514 0.655946
v -0.7938451 8.947017 0.9394592
v 0.3494308 9.80865 0.7446911
v -0.4645495 9.818723 -0.9928176
v 0.1999568 9.945239 -0.9415796
v -0.8616906 9.86392 -0.444696
v 0.4673221 10.11695 -0.3422217
v -0.5943248 10.03563 0.1546625
v 0.07018152 10.16215 0.2058997
vt 0.02724367 0.862929
vt 0.1006646 0.7768409
vt 0.01383078 0.6860632
vt 0.1165226 0.8800067
vt 0.08226404 0.9666374
vt 0.1354969 0.9805285
vt 0.2352417 0.788909
vt 0.2352417 0.9924471
vt 0.2352417 0.8799803
vt 0.3539607 0.8800067
vt 0.3349865 0.9805285
vt 0.3882193 0.9666374
vt 0.3698187 0.7768409
vt 0.4432397 0.862929
vt 0.4566525 0.6860632
vt 0.4953271 0.5981324
vt 0.589306 0.5004902
vt 0.515788 0.5265723
vt 0.5671594 0.5956938
vt 0.4748663 0.7150503
vt 0.7270604 0.4861212
vt 0.5722349 0.7450752
vt 0.7270604 0.5958341
vt 0.5665038 0.8674494
vt 0.4825254 0.8254786
vt 0.8869613 0.5956938
vt 0.8648149 0.5004902
vt 0.7270604 0.7601983
vt 0.5522659 0.9533888
vt 0.5205296 0.8955975
vt 0.7270604 0.8870006
vt 0.7270604 0.9905096
vt 0.901855 0.9533888
vt 0.9587938 0.5981324
vt 0.9383331 0.5265723
vt 0.9792546 0.7150503
vt 0.881886 0.7450752
vt 0.8876171 0.8674494
vt 0.9715955 0.8254786
vt 0.9335912 0.8955975
vt 0.9781317 0.4160526
vt 0.9364108 0.3991937
vt 0.9781316 0.4043987
vt 0.9364123 0.4095506
vt 0.894693 0.4160526
vt 0.894693 0.4043987
vt 0.9415279 0.0918712
vt 0.9860214 0.149233
vt 0.994651 0.1109133
vt 0.8754692 0.2581064
vt 0.9297571 0.2798313
vt 0.8891774 0.3663314
vt 0.8478127 0.3528699
vt 0.8874596 0.07296282
vt 0.8220401 0.2361463
vt 0.7641525 0.2202232
vt 0.7789918 0.3317219
vt 0.8135881 0.04932037
vt 0.7180817 0.3121548
vt 0.6588542 0.2871724
vt 0.7094631 0.02286884
vt 0.6796424 0.1990647
vt 0.6152977 0.2729194
vt 0.6051481 0.184385
vt 0.6301914 0.008833945
vt 0.4995795 0.0002930164
vt 0.4993258 0.177845
vt 0.4991882 0.2741119
vt 0.3689436 0.008460611
vt 0.3830826 0.2725876
vt 0.3934853 0.1840825
vt 0.3189492 0.1985492
vt 0.2896322 0.02226892
vt 0.3394855 0.286716
vt 0.2343791 0.2194661
vt 0.2801868 0.3115291
vt 0.185432 0.04842284
vt 0.2192211 0.330922
vt 0.1764461 0.2352238
vt 0.1114935 0.07185408
vt 0.1503401 0.3518731
vt 0.1229545 0.257031
vt 0.1089369 0.3652162
vt 0.06860471 0.2786008
vt 0.05737129 0.09060776
vt 0.012714 0.1478422
vt 0.004193991 0.1094979
vt 0.8144152 0.443911
vt 0.8216256 0.4155985
vt 0.8216852 0.4439111
vt 0.8145722 0.4155985
vt 0.807267 0.3961339
vt 0.8122282 0.3893747
vt 0.7959723 0.3783616
vt 0.7959723 0.3864879
vt 0.8081765 0.4498488
vt 0.8083358 0.4208283
vt 0.8009437 0.4010668
vt 0.8001935 0.4407349
vt 0.7881853 0.4316407
vt 0.7894045 0.3912316
vt 0.7596776 0.3867796
vt 0.7596776 0.4271888
vt 0.7311699 0.4316408
vt 0.7299505 0.3912316
vt 0.7184116 0.4010669
vt 0.7191617 0.440735
vt 0.7111788 0.4498488
vt 0.7110193 0.4208283
vt 0.4057466 0.4630959
vt 0.4360795 0.5439174
vt 0.4354278 0.6614783
vt 0.3588484 0.4230434
vt 0.3580214 0.5930361
vt 0.2380551 0.5784653
vt 0.238055 0.4042175
vt 0.1172615 0.4230434
vt 0.1180887 0.5930362
vt 0.04068232 0.6614784
vt 0.07036346 0.4630959
vt 0.0400306 0.5439174
vt 0.7193473 0.4439111
vt 0.7121856 0.4439111
vt 0.7120286 0.4155985
vt 0.7191903 0.4155985
vt 0.7264955 0.3961339
vt 0.7215342 0.3893747
vt 0.7377901 0.3783616
vt 0.7377901 0.3864879
vt 0.4103315 0.3498767
vt 0.4004835 0.325525
vt 0.3843085 0.3462285
vt 0.4265036 0.3291844
vt 0.3744684 0.3218647
vt 0.4166549 0.3048213
vt 0.3906408 0.3011654
vt 0.5487677 0.4010508
vt 0.563982 0.3916295
vt 0.5659129 0.3588184
vt 0.5501637 0.3503249
vt 0.5920403 0.4275648
vt 0.5952834 0.3440944
vt 0.5947555 0.326206
vt 0.5914416 0.4096822
vt 0.6365799 0.403367
vt 0.6227089 0.3621508
vt 0.6379235 0.3527244
vt 0.6207959 0.3949307
vt 0.580379 0.3675174
vt 0.5787549 0.3834358
vt 0.5949789 0.3609719
vt 0.5917163 0.3928027
vt 0.6079447 0.3703389
vt 0.6063157 0.386252
vn -0.8372194 0.2464367 0.4881932
vn -0.534618 0.7477831 0.3937055
vn -0.9403591 0.2382997 0.2427715
vn -0.4047761 0.3372527 0.8499511
vn -0.6581101 0.5729988 0.4884295
vn -0.2984127 0.6932029 0.6560638
vn 0 0.9246873 0.3807274
vn 0 0.7218602 0.6920389
vn 0 0.3664984 0.9304187
vn 0.4047761 0.3372527 0.8499511
vn 0.2984126 0.6932029 0.6560638
vn 0.6581101 0.5729989 0.4884295
vn 0.5346181 0.7477831 0.3937055
vn 0.8372194 0.2464367 0.4881932
vn 0.9403591 0.2382997 0.2427715
vn -0.7241641 0.6601192 0.1995718
vn -0.2984127 0.6932029 0.6560638
vn -0.6581101 0.5729988 0.4884295
vn -0.2382438 0.9549388 0.1770082
vn -0.7463986 0.664436 0.03760118
vn 0 0.7218602 0.6920389
vn -0.2251391 0.974156 0.01823596
vn 0 0.982951 0.1838679
vn -0.1968057 0.9519275 -0.2347374
vn -0.7646281 0.6103969 -0.2067837
vn 0.2382438 0.9549388 0.1770082
vn 0.2984126 0.6932029 0.6560638
vn 0 0.999907 0.01364143
vn -0.3440681 0.693468 -0.633024
vn -0.7408658 0.5363417 -0.4042963
vn 0 0.9646775 -0.2634336
vn 0 0.7284666 -0.6850812
vn 0.3440681 0.693468 -0.6330239
vn 0.7241642 0.6601191 0.1995717
vn 0.6581101 0.5729989 0.4884295
vn 0.7463985 0.6644361 0.03760123
vn 0.2251391 0.974156 0.0182361
vn 0.1968057 0.9519275 -0.2347372
vn 0.7646281 0.610397 -0.2067836
vn 0.7408659 0.5363417 -0.4042961
vn -0.3110735 0.9122388 0.2665587
vn 0 -0.9350008 0.3546458
vn 0.06213529 -0.9436933 0.3249338
vn 0 0.9460227 0.3241004
vn 0.3110735 0.9122388 0.2665587
vn -0.06213522 -0.9436933 0.3249338
vn -0.9741569 0.07454583 0.2132163
vn -0.9403591 0.2382997 0.2427715
vn -0.7398176 -0.6677636 0.08222976
vn -0.9508489 0.2238758 0.2139297
vn -0.8372194 0.2464367 0.4881932
vn -0.6581101 0.5729988 0.4884295
vn -0.7241641 0.6601192 0.1995718
vn -0.9970255 0.06799819 0.03628088
vn -0.9785082 0.2038337 0.03120126
vn -0.9586126 0.1775136 -0.2226002
vn -0.7463986 0.664436 0.03760118
vn -0.971866 0.07072269 -0.2246658
vn -0.7646281 0.6103969 -0.2067837
vn -0.7408658 0.5363417 -0.4042963
vn -0.8810973 0.08223379 -0.4657309
vn -0.8740621 0.1728583 -0.4540214
vn -0.3440681 0.693468 -0.633024
vn -0.4476859 0.208351 -0.8695788
vn -0.4797117 0.0740833 -0.8742931
vn 0 0.06548387 -0.9978536
vn 0 0.216749 -0.9762274
vn 0 0.7284666 -0.6850812
vn 0.4797117 0.07408331 -0.8742931
vn 0.3440681 0.693468 -0.6330239
vn 0.4476858 0.208351 -0.8695788
vn 0.8740621 0.1728583 -0.4540214
vn 0.8810973 0.08223378 -0.4657309
vn 0.7408659 0.5363417 -0.4042961
vn 0.9586126 0.1775136 -0.2226001
vn 0.7646281 0.610397 -0.2067836
vn 0.971866 0.07072265 -0.2246657
vn 0.7463985 0.6644361 0.03760123
vn 0.9785082 0.2038337 0.03120127
vn 0.9970255 0.06799816 0.03628088
vn 0.7241642 0.6601191 0.1995717
vn 0.9508489 0.2238757 0.2139296
vn 0.6581101 0.5729989 0.4884295
vn 0.8372194 0.2464367 0.4881932
vn 0.9741569 0.07454583 0.2132163
vn 0.9403591 0.2382997 0.2427715
vn 0.7398177 -0.6677634 0.08222964
vn -0.9403591 0.2382997 0.2427715
vn 0.06543885 -0.9886701 0.1350892
vn -0.7398176 -0.6677636 0.08222976
vn -0.9716988 0.1948791 0.1335047
vn -0.7541555 0.6423577 0.1364771
vn 0.1363529 -0.9524251 0.2725699
vn 0.06213529 -0.9436933 0.3249338
vn -0.3110735 0.9122388 0.2665587
vn -0.7398176 -0.6677636 0.08222976
vn 0.06543885 -0.9886701 0.1350892
vn 0.1363529 -0.9524251 0.2725699
vn 0.6523334 -0.7578594 0.01049528
vn 0.267802 -0.9634565 0.005814702
vn 0.06213529 -0.9436933 0.3249338
vn 0 -0.9350008 0.3546458
vn 0 -0.9999986 0.001736185
vn -0.267802 -0.9634565 0.005814661
vn -0.06213522 -0.9436933 0.3249338
vn -0.136353 -0.9524251 0.2725699
vn -0.6523334 -0.7578594 0.01049521
vn 0.7398177 -0.6677634 0.08222964
vn -0.06543872 -0.9886701 0.135089
vn -0.7541555 0.6423577 0.1364771
vn -0.9716988 0.1948791 0.1335047
vn -0.9403591 0.2382997 0.2427715
vn -0.3110735 0.9122388 0.2665587
vn -0.534618 0.7477831 0.3937055
vn 0 0.9246873 0.3807274
vn 0 0.9460227 0.3241004
vn 0.3110735 0.9122388 0.2665587
vn 0.5346181 0.7477831 0.3937055
vn 0.9403591 0.2382997 0.2427715
vn 0.7541556 0.6423578 0.136477
vn 0.9716988 0.1948792 0.1335047
vn 0.9403591 0.2382997 0.2427715
vn 0.7398177 -0.6677634 0.08222964
vn -0.06543872 -0.9886701 0.135089
vn 0.9716988 0.1948792 0.1335047
vn 0.7541556 0.6423578 0.136477
vn -0.136353 -0.9524251 0.2725699
vn -0.06213522 -0.9436933 0.3249338
vn 0.3110735 0.9122388 0.2665587
vn 0.2482892 0.6953743 -0.6743938
vn -0.1681878 0.9649559 -0.2014274
vn -0.3824649 0.5752843 -0.7230273
vn 0.5020734 0.8583685 -0.1054786
vn -0.7594337 0.618186 -0.2027471
vn 0.1251043 0.9012692 0.4148044
vn -0.5056489 0.7811787 0.3661683
vn 0.5219453 0.1853961 -0.8325871
vn 0.4582941 0.3501294 -0.8169308
vn -0.4282325 0.1813413 -0.8852866
vn -0.4242242 0.005252121 -0.9055419
vn 0.9026398 0.4298929 0.02082274
vn -0.9580634 0.2416382 -0.1540304
vn -0.989701 0.06960451 -0.1250883
vn 0.8149905 0.5792154 -0.01731724
vn 0.337164 0.4942459 0.8012748
vn -0.6013681 0.4707233 0.6455819
vn -0.6090086 0.3141017 0.7283191
vn 0.2851602 0.6395118 0.7139386
vn -0.3824649 0.5752843 -0.7230273
vn 0.2482892 0.6953743 -0.6743938
vn -0.7594337 0.618186 -0.2027471
vn 0.5020734 0.8583685 -0.1054786
vn -0.5056489 0.7811787 0.3661683
vn 0.1251043 0.9012692 0.4148044
g TruckerHat_0
f 3/3/3 2/2/2 1/1/1
f 2/2/2 4/4/4 1/1/1
f 1/1/1 4/4/4 5/5/5
f 4/4/4 6/6/6 5/5/5
f 4/4/4 2/2/2 7/7/7
f 6/6/6 4/4/4 8/8/8
f 9/9/9 4/4/4 7/7/7
f 4/4/4 9/9/9 8/8/8
f 10/10/10 9/9/9 7/7/7
f 9/9/9 10/10/10 8/8/8
f 10/10/10 11/11/11 8/8/8
f 11/11/11 10/10/10 12/12/12
f 13/13/13 10/10/10 7/7/7
f 10/10/10 14/14/14 12/12/12
f 10/10/10 13/13/13 14/14/14
f 13/13/13 15/15/15 14/14/14
f 18/18/18 17/17/17 16/16/16
f 17/17/17 19/19/19 16/16/16
f 16/16/16 19/19/19 20/20/20
f 17/17/17 21/21/21 19/19/19
f 19/19/19 22/22/22 20/20/20
f 21/21/21 23/23/23 19/19/19
f 19/19/19 23/23/23 22/22/22
f 20/20/20 22/22/22 24/24/24
f 25/25/25 20/20/20 24/24/24
f 23/23/23 21/21/21 26/26/26
f 21/21/21 27/27/27 26/26/26
f 23/23/23 28/28/28 22/22/22
f 22/22/22 28/28/28 24/24/24
f 25/25/25 24/24/24 29/29/29
f 30/30/30 25/25/25 29/29/29
f 24/24/24 31/31/31 29/29/29
f 28/28/28 31/31/31 24/24/24
f 31/31/31 32/32/32 29/29/29
f 32/32/32 31/31/31 33/33/33
f 26/26/26 27/27/27 34/34/34
f 27/27/27 35/35/35 34/34/34
f 26/26/26 34/34/34 36/36/36
f 23/23/23 26/26/26 37/37/37
f 28/28/28 23/23/23 37/37/37
f 37/37/37 26/26/26 36/36/36
f 31/31/31 28/28/28 38/38/38
f 28/28/28 37/37/37 38/38/38
f 37/37/37 36/36/36 38/38/38
f 31/31/31 38/38/38 33/33/33
f 36/36/36 39/39/39 38/38/38
f 38/38/38 39/39/39 33/33/33
f 39/39/39 40/40/40 33/33/33
f 43/43/43 42/42/42 41/41/41
f 42/42/42 44/44/44 41/41/41
f 44/44/44 42/42/42 45/45/45
f 42/42/42 46/46/46 45/45/45
f 49/49/49 48/48/48 47/47/47
f 50/50/50 47/47/47 48/48/48
f 51/51/51 50/50/50 48/48/48
f 51/51/51 52/52/52 50/50/50
f 52/52/52 53/53/53 50/50/50
f 54/54/54 47/47/47 50/50/50
f 50/50/50 53/53/53 55/55/55
f 55/55/55 54/54/54 50/50/50
f 55/55/55 56/56/56 54/54/54
f 53/53/53 57/57/57 55/55/55
f 56/56/56 55/55/55 57/57/57
f 56/56/56 58/58/58 54/54/54
f 59/59/59 56/56/56 57/57/57
f 59/59/59 60/60/60 56/56/56
f 61/61/61 58/58/58 56/56/56
f 60/60/60 62/62/62 56/56/56
f 62/62/62 61/61/61 56/56/56
f 60/60/60 63/63/63 62/62/62
f 62/62/62 64/64/64 61/61/61
f 63/63/63 64/64/64 62/62/62
f 64/64/64 65/65/65 61/61/61
f 66/66/66 65/65/65 64/64/64
f 67/67/67 64/64/64 63/63/63
f 67/67/67 66/66/66 64/64/64
f 68/68/68 67/67/67 63/63/63
f 66/66/66 67/67/67 69/69/69
f 67/67/67 68/68/68 70/70/70
f 67/67/67 71/71/71 69/69/69
f 71/71/71 67/67/67 70/70/70
f 69/69/69 71/71/71 72/72/72
f 71/71/71 70/70/70 72/72/72
f 73/73/73 69/69/69 72/72/72
f 70/70/70 74/74/74 72/72/72
f 73/73/73 72/72/72 75/75/75
f 72/72/72 74/74/74 75/75/75
f 74/74/74 76/76/76 75/75/75
f 77/77/77 73/73/73 75/75/75
f 75/75/75 76/76/76 78/78/78
f 77/77/77 75/75/75 79/79/79
f 79/79/79 75/75/75 78/78/78
f 80/80/80 77/77/77 79/79/79
f 78/78/78 81/81/81 79/79/79
f 80/80/80 79/79/79 82/82/82
f 81/81/81 82/82/82 79/79/79
f 81/81/81 83/83/83 82/82/82
f 83/83/83 84/84/84 82/82/82
f 85/85/85 80/80/80 82/82/82
f 82/82/82 84/84/84 86/86/86
f 85/85/85 82/82/82 86/86/86
f 86/86/86 87/87/87 85/85/85
f 90/90/90 89/89/89 88/88/88
f 89/89/89 91/91/91 88/88/88
f 92/92/92 91/91/91 89/89/89
f 93/93/93 92/92/92 89/89/89
f 93/93/93 94/94/94 92/92/92
f 94/94/94 95/95/95 92/92/92
f 98/98/98 97/97/97 96/96/96
f 99/99/99 98/98/98 96/96/96
f 99/99/99 100/100/100 98/98/98
f 100/100/100 101/101/101 98/98/98
f 102/102/102 101/101/101 100/100/100
f 103/103/103 102/102/102 100/100/100
f 102/102/102 103/103/103 104/104/104
f 105/105/105 102/102/102 104/104/104
f 105/105/105 104/104/104 106/106/106
f 104/104/104 107/107/107 106/106/106
f 106/106/106 107/107/107 108/108/108
f 109/109/109 106/106/106 108/108/108
f 112/112/112 111/111/111 110/110/110
f 110/110/110 113/113/113 112/112/112
f 113/113/113 114/114/114 112/112/112
f 114/114/114 113/113/113 115/115/115
f 113/113/113 116/116/116 115/115/115
f 116/116/116 117/117/117 115/115/115
f 117/117/117 118/118/118 115/115/115
f 118/118/118 117/117/117 119/119/119
f 117/117/117 120/120/120 119/119/119
f 121/121/121 119/119/119 120/120/120
f 124/124/124 123/123/123 122/122/122
f 125/125/125 124/124/124 122/122/122
f 125/125/125 126/126/126 124/124/124
f 126/126/126 127/127/127 124/124/124
f 128/128/128 127/127/127 126/126/126
f 129/129/129 128/128/128 126/126/126
f 132/132/132 131/131/131 130/130/130
f 130/130/130 131/131/131 133/133/133
f 134/134/134 131/131/131 132/132/132
f 133/133/133 131/131/131 135/135/135
f 136/136/136 131/131/131 134/134/134
f 135/135/135 131/131/131 136/136/136
f 139/139/139 138/138/138 137/137/137
f 140/140/140 139/139/139 137/137/137
f 137/137/137 138/138/138 141/141/141
f 142/142/142 139/139/139 140/140/140
f 143/143/143 142/142/142 140/140/140
f 138/138/138 144/144/144 141/141/141
f 141/141/141 144/144/144 145/145/145
f 146/146/146 142/142/142 143/143/143
f 147/147/147 146/146/146 143/143/143
f 145/145/145 148/148/148 147/147/147
f 144/144/144 148/148/148 145/145/145
f 148/148/148 146/146/146 147/147/147
f 139/139/139 149/149/149 138/138/138
f 149/149/149 150/150/150 138/138/138
f 138/138/138 150/150/150 144/144/144
f 151/151/151 149/149/149 139/139/139
f 142/142/142 151/151/151 139/139/139
f 150/150/150 152/152/152 144/144/144
f 144/144/144 152/152/152 148/148/148
f 153/153/153 151/151/151 142/142/142
f 146/146/146 153/153/153 142/142/142
f 152/152/152 154/154/154 148/148/148
f 154/154/154 153/153/153 146/146/146
f 148/148/148 154/154/154 146/146/146
