g Trunk2
v 11.52413 28.5 -3.744416
v 9.80301 34.5 -7.122303
v 9.80301 28.5 -7.122303
v 11.52413 34.5 -3.744416
v 12.11718 28.5 1.439963E-07
v 12.11718 34.5 1.439963E-07
v 11.52412 34.5 3.744414
v 11.52412 28.5 3.744414
v 9.803003 28.5 7.1223
v 9.803003 34.5 7.1223
v 9.80301 28.5 -7.122303
v 9.80301 34.5 -7.122303
v 7.122304 34.5 -9.803007
v 7.122304 28.5 -9.803007
v 3.744417 34.5 -11.52413
v 3.744417 28.5 -11.52413
v 3.744417 28.5 -11.52413
v 3.744417 34.5 -11.52413
v 1.499806E-06 34.5 -12.11718
v 1.499806E-06 28.5 -12.11718
v -3.744414 34.5 -11.52413
v -3.744414 28.5 -11.52413
v -3.744414 28.5 -11.52413
v -3.744414 34.5 -11.52413
v -7.1223 34.5 -9.803005
v -7.1223 28.5 -9.803005
v -9.803003 34.5 -7.1223
v -9.803003 28.5 -7.1223
v -9.803003 28.5 -7.1223
v -9.803003 34.5 -7.1223
v -11.52412 34.5 -3.744414
v -11.52412 28.5 -3.744414
v -12.11718 34.5 1.439963E-07
v -12.11718 28.5 1.439963E-07
v -11.52412 34.5 3.744415
v -11.52412 28.5 3.744415
v -9.803002 34.5 7.1223
v -9.803002 28.5 7.1223
v -9.803002 28.5 7.1223
v -9.803002 34.5 7.1223
v -7.122298 34.5 9.803003
v -7.122298 28.5 9.803003
v -3.744413 34.5 11.52412
v -3.744413 28.5 11.52412
v -3.744413 28.5 11.52412
v -3.744413 34.5 11.52412
v 1.138686E-06 34.5 12.11718
v 1.138686E-06 28.5 12.11718
v 3.744415 34.5 11.52412
v 3.744415 28.5 11.52412
v 3.744415 28.5 11.52412
v 3.744415 34.5 11.52412
v 7.1223 34.5 9.803002
v 7.1223 28.5 9.803002
v 9.803003 34.5 7.1223
v 9.803003 28.5 7.1223
v 6.862103 34.5 4.985609
v 6.862103 19 4.985609
v 8.066886 19 2.621089
v 8.066886 34.5 2.621089
v 8.482025 19 -1.117671E-07
v 4.98561 34.5 6.862101
v 4.98561 19 6.862101
v 8.482025 34.5 -1.117671E-07
v 8.066891 19 -2.621091
v 2.621091 34.5 8.066885
v 2.621091 19 8.066885
v 8.066891 34.5 -2.621091
v 6.862108 19 -4.985612
v 1.200531E-06 34.5 8.482024
v 1.200531E-06 19 8.482024
v 6.862108 34.5 -4.985612
v 4.985613 19 -6.862105
v -2.621089 34.5 8.066885
v -2.621089 19 8.066885
v 4.985613 34.5 -6.862105
v 2.621092 19 -8.06689
v -4.985609 34.5 6.862102
v -4.985609 19 6.862102
v 2.621092 34.5 -8.06689
v 1.453315E-06 19 -8.482027
v -6.862101 34.5 4.985609
v -6.862101 19 4.985609
v 1.453315E-06 34.5 -8.482027
v -2.621089 19 -8.066888
v -8.066885 34.5 2.62109
v -8.066885 19 2.62109
v -2.621089 34.5 -8.066888
v -4.985609 19 -6.862103
v -8.482023 34.5 -1.117671E-07
v -8.482023 19 -1.117671E-07
v -4.985609 34.5 -6.862103
v -6.862101 19 -4.98561
v -8.066885 34.5 -2.62109
v -8.066885 19 -2.62109
v -6.862101 34.5 -4.98561
v -11.52412 34.5 3.744415
v -12.11718 34.5 1.439963E-07
v -9.803002 34.5 7.1223
v -11.52412 34.5 -3.744414
v -9.803003 34.5 -7.1223
v -7.122298 34.5 9.803003
v -7.1223 34.5 -9.803005
v -3.744414 34.5 -11.52413
v -3.744413 34.5 11.52412
v 1.499806E-06 34.5 -12.11718
v 1.138686E-06 34.5 12.11718
v 3.744417 34.5 -11.52413
v 3.744415 34.5 11.52412
v 7.122304 34.5 -9.803007
v 7.1223 34.5 9.803002
v 9.80301 34.5 -7.122303
v 9.803003 34.5 7.1223
v 11.52413 34.5 -3.744416
v 11.52412 34.5 3.744414
v 12.11718 34.5 1.439963E-07
vt 0.5242704 0.4179842
vt 0.5242704 0.4179842
vt 0.5242704 0.4179842
vt 0.5242704 0.4179842
vt 0.5242704 0.4179842
vt 0.5242704 0.4179842
vt 0.5242704 0.4179842
vt 0.5242704 0.4179842
vt 0.5242704 0.4179842
vt 0.5242704 0.4179842
vt 0.6394201 0.4699388
vt 0.6394201 0.4699388
vt 0.6394201 0.4699388
vt 0.6394201 0.4699388
vt 0.6394201 0.4699388
vt 0.6394201 0.4699388
vt 0.7310476 0.4519918
vt 0.7310476 0.4519918
vt 0.7310476 0.4519918
vt 0.7310476 0.4519918
vt 0.7310476 0.4519918
vt 0.7310476 0.4519918
vt 0.6394201 0.4699388
vt 0.6394201 0.4699388
vt 0.6394201 0.4699388
vt 0.6394201 0.4699388
vt 0.6394201 0.4699388
vt 0.6394201 0.4699388
vt 0.5242704 0.4179842
vt 0.5242704 0.4179842
vt 0.5242704 0.4179842
vt 0.5242704 0.4179842
vt 0.5242704 0.4179842
vt 0.5242704 0.4179842
vt 0.5242704 0.4179842
vt 0.5242704 0.4179842
vt 0.5242704 0.4179842
vt 0.5242704 0.4179842
vt 0.6354796 0.4563241
vt 0.6354796 0.4619988
vt 0.6354796 0.4619988
vt 0.6354796 0.4563241
vt 0.6354796 0.4619988
vt 0.6354796 0.4563241
vt 0.7310476 0.4519918
vt 0.7310476 0.4519918
vt 0.7310476 0.4519918
vt 0.7310476 0.4519918
vt 0.7310476 0.4519918
vt 0.7310476 0.4519918
vt 0.6354796 0.4563241
vt 0.6354796 0.4619988
vt 0.6354796 0.4619988
vt 0.6354796 0.4563241
vt 0.6354796 0.4619988
vt 0.6354796 0.4563241
vt 0.534281 0.4571154
vt 0.534281 0.4571154
vt 0.5344446 0.4574366
vt 0.5344446 0.4574366
vt 0.534501 0.4577926
vt 0.5340261 0.4568605
vt 0.5340261 0.4568605
vt 0.534501 0.4577926
vt 0.5344446 0.4581486
vt 0.5337049 0.4566969
vt 0.5337049 0.4566969
vt 0.5344446 0.4581486
vt 0.534281 0.4584697
vt 0.533349 0.4566405
vt 0.533349 0.4566405
vt 0.534281 0.4584697
vt 0.5340261 0.4587246
vt 0.532993 0.4566969
vt 0.532993 0.4566969
vt 0.5340261 0.4587246
vt 0.5337049 0.4588882
vt 0.5326718 0.4568605
vt 0.5326718 0.4568605
vt 0.5337049 0.4588882
vt 0.533349 0.4589446
vt 0.5324169 0.4571154
vt 0.5324169 0.4571154
vt 0.533349 0.4589446
vt 0.532993 0.4588882
vt 0.5322533 0.4574366
vt 0.5322533 0.4574366
vt 0.532993 0.4588882
vt 0.5326718 0.4587246
vt 0.5321969 0.4577926
vt 0.5321969 0.4577926
vt 0.5326718 0.4587246
vt 0.5324169 0.4584697
vt 0.5322533 0.4581486
vt 0.5322533 0.4581486
vt 0.5324169 0.4584697
vt 0.5317681 0.4573075
vt 0.5316876 0.457816
vt 0.5320018 0.4568487
vt 0.5317681 0.4583246
vt 0.5320018 0.4587834
vt 0.5323659 0.4564846
vt 0.5323659 0.4591475
vt 0.5328247 0.4593813
vt 0.5328247 0.4562508
vt 0.5333332 0.4594618
vt 0.5333332 0.4561703
vt 0.5338418 0.4593813
vt 0.5338418 0.4562508
vt 0.5343006 0.4591475
vt 0.5343006 0.4564846
vt 0.5346647 0.4587834
vt 0.5346647 0.4568487
vt 0.5348985 0.4583246
vt 0.5348985 0.4573075
vt 0.534979 0.457816
vn 0.9510569 0 -0.3090159
vn 0.5685072 0.7114729 -0.4130446
vn 0.809017 0 -0.5877852
vn 0.6683205 0.711473 -0.2171497
vn 1 0 0
vn 0.7027137 0.7114728 0
vn 0.6683203 0.7114729 0.2171503
vn 0.9510565 0 0.3090168
vn 0.809017 0 0.5877852
vn 0.5685072 0.7114729 0.4130446
vn 0.809017 0 -0.5877852
vn 0.5685072 0.7114729 -0.4130446
vn 0.4130446 0.7114729 -0.5685072
vn 0.5877852 0 -0.8090171
vn 0.2171503 0.7114729 -0.6683203
vn 0.3090168 0 -0.9510565
vn 0.3090168 0 -0.9510565
vn 0.2171503 0.7114729 -0.6683203
vn 0 0.7114729 -0.7027135
vn 0 0 -1
vn -0.2171505 0.7114729 -0.6683202
vn -0.3090171 0 -0.9510565
vn -0.3090171 0 -0.9510565
vn -0.2171505 0.7114729 -0.6683202
vn -0.4130448 0.7114729 -0.568507
vn -0.5877855 0 -0.8090168
vn -0.5685073 0.7114729 -0.4130446
vn -0.8090171 0 -0.5877851
vn -0.8090171 0 -0.5877851
vn -0.5685073 0.7114729 -0.4130446
vn -0.6683203 0.7114729 -0.2171504
vn -0.9510565 0 -0.3090169
vn -0.7027135 0.7114729 0
vn -1 0 0
vn -0.6683202 0.7114729 0.2171504
vn -0.9510565 0 0.3090171
vn -0.5685071 0.7114729 0.4130447
vn -0.8090169 0 0.5877854
vn -0.8090169 0 0.5877854
vn -0.5685071 0.7114729 0.4130447
vn -0.4130446 0.7114729 0.5685072
vn -0.5877852 0 0.8090171
vn -0.2171503 0.7114729 0.6683203
vn -0.3090168 0 0.9510565
vn -0.3090168 0 0.9510565
vn -0.2171503 0.7114729 0.6683203
vn 0 0.7114729 0.7027135
vn 0 0 1
vn 0.2171503 0.7114729 0.6683203
vn 0.3090169 0 0.9510565
vn 0.3090169 0 0.9510565
vn 0.2171503 0.7114729 0.6683203
vn 0.4130447 0.7114729 0.5685072
vn 0.5877852 0 0.809017
vn 0.5685072 0.7114729 0.4130446
vn 0.809017 0 0.5877852
vn -0.5685071 0.7114729 -0.4130447
vn -0.8090169 0 -0.5877854
vn -0.9510565 0 -0.309017
vn -0.6683202 0.7114729 -0.2171504
vn -1 0 0
vn -0.4130447 0.7114729 -0.5685072
vn -0.5877852 0 -0.809017
vn -0.7027137 0.7114729 0
vn -0.9510569 0 0.3090158
vn -0.2171504 0.7114729 -0.6683202
vn -0.309017 0 -0.9510565
vn -0.6683205 0.711473 0.2171496
vn -0.809017 0 0.5877854
vn 0 0.7114729 -0.7027135
vn 0 0 -1
vn -0.5685071 0.711473 0.4130447
vn -0.5877851 0 0.8090171
vn 0.2171503 0.7114729 -0.6683203
vn 0.3090168 0 -0.9510565
vn -0.4130446 0.7114729 0.5685073
vn -0.3090168 0 0.9510565
vn 0.4130446 0.7114729 -0.5685072
vn 0.5877852 0 -0.8090171
vn -0.2171502 0.7114729 0.6683203
vn 0 0 1
vn 0.5685071 0.7114729 -0.4130448
vn 0.8090168 0 -0.5877854
vn 0 0.7114729 0.7027135
vn 0.3090172 0 0.9510565
vn 0.6683203 0.711473 -0.2171503
vn 0.9510565 0 -0.3090169
vn 0.2171506 0.7114729 0.6683202
vn 0.5877855 0 0.8090168
vn 0.7027135 0.7114729 0
vn 1 0 0
vn 0.4130449 0.7114729 0.5685071
vn 0.809017 0 0.5877852
vn 0.6683203 0.7114729 0.2171502
vn 0.9510565 0 0.3090168
vn 0.5685072 0.7114729 0.4130446
vn -0.6683202 0.7114729 0.2171504
vn -0.7027135 0.7114729 0
vn -0.5685071 0.7114729 0.4130447
vn -0.6683203 0.7114729 -0.2171504
vn -0.5685073 0.7114729 -0.4130446
vn -0.4130446 0.7114729 0.5685072
vn -0.4130448 0.7114729 -0.568507
vn -0.2171505 0.7114729 -0.6683202
vn -0.2171503 0.7114729 0.6683203
vn 0 0.7114729 -0.7027135
vn 0 0.7114729 0.7027135
vn 0.2171503 0.7114729 -0.6683203
vn 0.2171503 0.7114729 0.6683203
vn 0.4130446 0.7114729 -0.5685072
vn 0.4130447 0.7114729 0.5685072
vn 0.5685072 0.7114729 -0.4130446
vn 0.5685072 0.7114729 0.4130446
vn 0.6683205 0.711473 -0.2171497
vn 0.6683203 0.7114729 0.2171503
vn 0.7027137 0.7114728 0
g Trunk2_0
f 3/3/3 2/2/2 1/1/1
f 2/2/2 4/4/4 1/1/1
f 1/1/1 4/4/4 5/5/5
f 4/4/4 6/6/6 5/5/5
f 5/5/5 6/6/6 7/7/7
f 8/8/8 5/5/5 7/7/7
f 8/8/8 7/7/7 9/9/9
f 7/7/7 10/10/10 9/9/9
f 13/13/13 12/12/12 11/11/11
f 14/14/14 13/13/13 11/11/11
f 15/15/15 13/13/13 14/14/14
f 16/16/16 15/15/15 14/14/14
f 19/19/19 18/18/18 17/17/17
f 20/20/20 19/19/19 17/17/17
f 21/21/21 19/19/19 20/20/20
f 22/22/22 21/21/21 20/20/20
f 25/25/25 24/24/24 23/23/23
f 26/26/26 25/25/25 23/23/23
f 27/27/27 25/25/25 26/26/26
f 28/28/28 27/27/27 26/26/26
f 31/31/31 30/30/30 29/29/29
f 32/32/32 31/31/31 29/29/29
f 33/33/33 31/31/31 32/32/32
f 34/34/34 33/33/33 32/32/32
f 35/35/35 33/33/33 34/34/34
f 36/36/36 35/35/35 34/34/34
f 37/37/37 35/35/35 36/36/36
f 38/38/38 37/37/37 36/36/36
f 41/41/41 40/40/40 39/39/39
f 42/42/42 41/41/41 39/39/39
f 43/43/43 41/41/41 42/42/42
f 44/44/44 43/43/43 42/42/42
f 47/47/47 46/46/46 45/45/45
f 48/48/48 47/47/47 45/45/45
f 49/49/49 47/47/47 48/48/48
f 50/50/50 49/49/49 48/48/48
f 53/53/53 52/52/52 51/51/51
f 54/54/54 53/53/53 51/51/51
f 55/55/55 53/53/53 54/54/54
f 56/56/56 55/55/55 54/54/54
f 59/59/59 58/58/58 57/57/57
f 60/60/60 59/59/59 57/57/57
f 61/61/61 59/59/59 60/60/60
f 57/57/57 58/58/58 62/62/62
f 58/58/58 63/63/63 62/62/62
f 64/64/64 61/61/61 60/60/60
f 65/65/65 61/61/61 64/64/64
f 62/62/62 63/63/63 66/66/66
f 63/63/63 67/67/67 66/66/66
f 68/68/68 65/65/65 64/64/64
f 69/69/69 65/65/65 68/68/68
f 66/66/66 67/67/67 70/70/70
f 67/67/67 71/71/71 70/70/70
f 72/72/72 69/69/69 68/68/68
f 73/73/73 69/69/69 72/72/72
f 70/70/70 71/71/71 74/74/74
f 71/71/71 75/75/75 74/74/74
f 76/76/76 73/73/73 72/72/72
f 77/77/77 73/73/73 76/76/76
f 74/74/74 75/75/75 78/78/78
f 75/75/75 79/79/79 78/78/78
f 80/80/80 77/77/77 76/76/76
f 81/81/81 77/77/77 80/80/80
f 78/78/78 79/79/79 82/82/82
f 79/79/79 83/83/83 82/82/82
f 84/84/84 81/81/81 80/80/80
f 85/85/85 81/81/81 84/84/84
f 82/82/82 83/83/83 86/86/86
f 83/83/83 87/87/87 86/86/86
f 88/88/88 85/85/85 84/84/84
f 89/89/89 85/85/85 88/88/88
f 86/86/86 87/87/87 90/90/90
f 87/87/87 91/91/91 90/90/90
f 92/92/92 89/89/89 88/88/88
f 93/93/93 89/89/89 92/92/92
f 90/90/90 91/91/91 94/94/94
f 91/91/91 95/95/95 94/94/94
f 95/95/95 93/93/93 96/96/96
f 96/96/96 93/93/93 92/92/92
f 94/94/94 95/95/95 96/96/96
f 82/82/82 86/86/86 97/97/97
f 97/97/97 86/86/86 98/98/98
f 86/86/86 90/90/90 98/98/98
f 99/99/99 82/82/82 97/97/97
f 98/98/98 90/90/90 100/100/100
f 90/90/90 94/94/94 100/100/100
f 78/78/78 82/82/82 99/99/99
f 100/100/100 94/94/94 101/101/101
f 94/94/94 96/96/96 101/101/101
f 102/102/102 78/78/78 99/99/99
f 101/101/101 96/96/96 103/103/103
f 96/96/96 92/92/92 103/103/103
f 74/74/74 78/78/78 102/102/102
f 103/103/103 92/92/92 104/104/104
f 105/105/105 74/74/74 102/102/102
f 92/92/92 88/88/88 104/104/104
f 70/70/70 74/74/74 105/105/105
f 104/104/104 88/88/88 106/106/106
f 107/107/107 70/70/70 105/105/105
f 88/88/88 84/84/84 106/106/106
f 66/66/66 70/70/70 107/107/107
f 106/106/106 84/84/84 108/108/108
f 109/109/109 66/66/66 107/107/107
f 84/84/84 80/80/80 108/108/108
f 62/62/62 66/66/66 109/109/109
f 108/108/108 80/80/80 110/110/110
f 111/111/111 62/62/62 109/109/109
f 80/80/80 76/76/76 110/110/110
f 57/57/57 62/62/62 111/111/111
f 110/110/110 76/76/76 112/112/112
f 113/113/113 57/57/57 111/111/111
f 76/76/76 72/72/72 112/112/112
f 60/60/60 57/57/57 113/113/113
f 112/112/112 72/72/72 114/114/114
f 115/115/115 60/60/60 113/113/113
f 72/72/72 68/68/68 114/114/114
f 64/64/64 60/60/60 115/115/115
f 114/114/114 68/68/68 116/116/116
f 116/116/116 64/64/64 115/115/115
f 68/68/68 64/64/64 116/116/116
