g Turbine_R
v 3.810189 -0.09814346 8.947693
v 8.287862 4.481306 7.770456
v 9.926823 -0.09814133 7.770456
v 3.810189 -0.09814346 8.947693
v 9.926823 -0.09814133 7.770456
v 8.287862 -4.677582 7.770456
v 3.810184 -6.353784 7.770456
v -0.6674945 -4.677591 7.770456
v -2.306427 -0.09814133 7.770456
v -0.6674945 4.481306 7.770456
v 3.810184 6.1575 7.770456
v 8.287862 4.481306 7.770456
v -3.337389 -0.09814133 5.24722
v -0.6674945 4.481306 7.770456
v -2.306427 -0.09814133 7.770456
v -1.422206 5.253169 5.24722
v 3.810184 6.1575 7.770456
v -0.2104559 4.01387 -7.171575
v -1.682094 -0.09814072 -7.171575
v -0.5703656 -0.09813888 -8.865843
v 0.6033942 3.181525 -8.865843
v 3.810184 5.518973 -7.171575
v 3.810184 4.381966 -8.865843
v 3.810184 7.211877 5.24722
v 8.287862 4.481306 7.770456
v 7.830821 4.013862 -7.171575
v 7.016983 3.181525 -8.865843
v 9.042559 5.253169 5.24722
v 9.926823 -0.09814133 7.770456
v 10.95776 -0.09813919 5.24722
v 9.302465 -0.09814163 -7.171575
v 8.190734 -0.09814499 -8.865843
v -1.682094 -0.09814072 -7.171575
v 0.6033844 -3.377804 -8.865843
v -0.5703656 -0.09813888 -8.865843
v -0.2104559 -4.210147 -7.171575
v 3.810184 -4.578252 -8.865843
v -1.422216 -5.449452 5.24722
v -3.337389 -0.09814133 5.24722
v -2.306427 -0.09814133 7.770456
v -0.6674945 -4.677591 7.770456
v 3.810184 -7.408163 5.24722
v 3.810184 -6.353784 7.770456
v 3.810184 -5.715248 -7.171575
v 7.016983 -3.37781 -8.865843
v 9.042559 -5.449452 5.24722
v 8.287862 -4.677582 7.770456
v 9.926823 -0.09814133 7.770456
v 10.95776 -0.09813919 5.24722
v 7.830794 -4.210147 -7.171575
v 8.190734 -0.09814499 -8.865843
v 9.302465 -0.09814163 -7.171575
v -8.910546 -1.865589 -2.188333
v -0.05816833 -1.881868 3.077856
v 0.7676202 -1.881868 -5.749141
v -8.91052 -1.863688 -8.431069
v -8.91052 -1.863688 -8.431069
v 0.7676202 -1.881868 -5.749141
v 0.7676202 -0.6353505 -5.749141
v -8.91052 -0.6353505 -8.431069
v -8.910546 -1.865589 -2.188333
v -8.910546 -0.6353505 -2.188333
v -0.05816833 -0.6353505 3.077856
v -0.05816833 -1.881868 3.077856
v 3.774002 -2.988366 -8.446655
v 3.774002 -0.09814376 -11.68186
v 1.775721 -2.141839 -8.446655
v 5.772282 -2.141839 -8.446655
v 0.9480035 -0.09814376 -8.446655
v 6.599994 -0.09814376 -8.446655
v 1.775721 1.945552 -8.446655
v 5.772282 1.945552 -8.446655
v 3.774002 2.792078 -8.446655
v 3.842476 2.910284 7.848605
v 3.842476 -0.09814346 11.68186
v 1.762469 2.029136 7.848605
v 5.922484 2.029136 7.848605
v 0.9009015 -0.09814346 7.848605
v 6.78405 -0.09814346 7.848605
v 1.762469 -2.225424 7.848605
v 5.922484 -2.225424 7.848605
v 3.842476 -3.106573 7.848605
v -0.5703656 -0.09813888 -8.865843
v 3.810189 -0.09814346 -9.270816
v 0.6033942 3.181525 -8.865843
v 0.6033844 -3.377804 -8.865843
v 3.810184 4.381966 -8.865843
v 3.810184 -4.578252 -8.865843
v 7.016983 3.181525 -8.865843
v 7.016983 -3.37781 -8.865843
v 8.190734 -0.09814499 -8.865843
vt 0.9743926 0.7586541
vt 0.9608066 0.7586542
vt 0.9608065 0.7586542
vt 0.9743926 0.7586541
vt 0.9608065 0.7586542
vt 0.9608066 0.7586542
vt 0.9608066 0.7586542
vt 0.9608066 0.7586542
vt 0.9608066 0.7586542
vt 0.9608066 0.7586542
vt 0.9608066 0.7586542
vt 0.9608066 0.7586542
vt 0.9276431 0.8270394
vt 0.9466895 0.8056158
vt 0.9466895 0.8270394
vt 0.9276431 0.8056158
vt 0.9466895 0.7632693
vt 0.7509258 0.8056158
vt 0.7509258 0.8270394
vt 0.7189994 0.8270394
vt 0.7189994 0.8056158
vt 0.7509258 0.7632692
vt 0.7189994 0.7632692
vt 0.9276431 0.7632693
vt 0.9466895 0.7209228
vt 0.7509258 0.7209227
vt 0.7189994 0.7209227
vt 0.9276431 0.7209228
vt 0.9466895 0.6994994
vt 0.9276431 0.6994994
vt 0.7509258 0.6994994
vt 0.7189994 0.6994994
vt 0.7509259 0.6999085
vt 0.7189994 0.721332
vt 0.7189994 0.6999085
vt 0.7509259 0.721332
vt 0.7189994 0.7636786
vt 0.9276432 0.721332
vt 0.9276432 0.6999085
vt 0.9466898 0.6999085
vt 0.9466898 0.721332
vt 0.9276432 0.7636786
vt 0.9466898 0.7636786
vt 0.7509259 0.7636786
vt 0.7189994 0.806025
vt 0.9276432 0.806025
vt 0.9466898 0.806025
vt 0.9466898 0.8274486
vt 0.9276432 0.8274486
vt 0.7509259 0.806025
vt 0.7189994 0.8274486
vt 0.7509259 0.8274486
vt 0.8668434 0.3769049
vt 0.7147092 0.448521
vt 0.7147092 0.2714631
vt 0.8668434 0.2959266
vt 0.8797537 0.2824957
vt 0.7147092 0.2489839
vt 0.7147092 0.2714631
vt 0.8668434 0.2959266
vt 0.8797537 0.3886348
vt 0.8668434 0.3769049
vt 0.7147092 0.448521
vt 0.7242917 0.4673289
vt 0.8500493 0.6618941
vt 0.95319 0.6618941
vt 0.8500493 0.6618941
vt 0.8500493 0.6618941
vt 0.8500494 0.6618941
vt 0.8500493 0.6618941
vt 0.8500494 0.6618941
vt 0.8500493 0.6618941
vt 0.8500493 0.6618941
vt 0.8500493 0.6618941
vt 0.95319 0.6618941
vt 0.8500493 0.6618941
vt 0.8500493 0.6618941
vt 0.8500494 0.6618941
vt 0.8500493 0.6618941
vt 0.8500494 0.6618941
vt 0.8500493 0.6618941
vt 0.8500493 0.6618941
vt 0.9805139 0.6860235
vt 0.9805139 0.6996261
vt 0.9805139 0.6860235
vt 0.9805139 0.6860235
vt 0.9805139 0.6860235
vt 0.9805139 0.6860235
vt 0.9805139 0.6860235
vt 0.9805139 0.6860235
vt 0.9805139 0.6860235
vn 0 0 1
vn 0.4935128 0.4819163 0.7240177
vn 0.6877728 0 0.725926
vn 0 0 1
vn 0.6877728 0 0.725926
vn 0.4935132 -0.4819159 0.7240178
vn 2.750865E-07 -0.6827579 0.7306447
vn -0.4935123 -0.4819154 0.7240188
vn -0.6877707 3.275483E-07 0.725928
vn -0.4935127 0.4819154 0.7240184
vn 0 0.6827582 0.7306445
vn 0.4935128 0.4819163 0.7240177
vn -0.9991031 5.794479E-07 -0.04234361
vn -0.4935127 0.4819154 0.7240184
vn -0.6877707 3.275483E-07 0.725928
vn -0.7135878 0.6990709 -0.04574136
vn 0 0.6827582 0.7306445
vn -0.7035145 0.6874186 -0.1803411
vn -0.9846841 6.024484E-07 -0.1743483
vn -0.5930169 5.293194E-07 -0.80519
vn -0.4260997 0.415066 -0.8038403
vn 4.123185E-07 0.9840637 -0.1778162
vn 0 0.5876821 -0.8090919
vn 3.415745E-07 0.99905 -0.04357854
vn 0.4935128 0.4819163 0.7240177
vn 0.7035145 0.6874188 -0.1803408
vn 0.4261 0.4150666 -0.8038398
vn 0.7135872 0.6990715 -0.04574179
vn 0.6877728 0 0.725926
vn 0.9991031 -1.158897E-06 -0.04234494
vn 0.9846842 -1.514012E-06 -0.174348
vn 0.5930182 -1.186071E-06 -0.805189
vn -0.9846841 6.024484E-07 -0.1743483
vn -0.4260997 -0.4150662 -0.8038402
vn -0.5930169 5.293194E-07 -0.80519
vn -0.7035143 -0.6874188 -0.1803416
vn -2.768313E-07 -0.5876831 -0.8090913
vn -0.713588 -0.6990707 -0.04574168
vn -0.9991031 5.794479E-07 -0.04234361
vn -0.6877707 3.275483E-07 0.725928
vn -0.4935123 -0.4819154 0.7240188
vn 0 -0.99905 -0.04357883
vn 2.750865E-07 -0.6827579 0.7306447
vn 0 -0.9840636 -0.1778166
vn 0.4261019 -0.4150672 -0.8038385
vn 0.7135875 -0.6990712 -0.0457423
vn 0.4935132 -0.4819159 0.7240178
vn 0.6877728 0 0.725926
vn 0.9991031 -1.158897E-06 -0.04234494
vn 0.7035139 -0.6874192 -0.1803411
vn 0.5930182 -1.186071E-06 -0.805189
vn 0.9846842 -1.514012E-06 -0.174348
vn -0.1473035 -0.9826989 0.11227
vn -0.1249769 -0.9703276 0.2069905
vn 0.03945232 -0.988068 -0.1488795
vn -0.07364451 -0.9773687 -0.1983101
vn -0.07364451 -0.9773687 -0.1983101
vn 0.03945232 -0.988068 -0.1488795
vn 0.04124015 0.9880038 -0.1488212
vn -0.07197419 0.9775749 -0.197906
vn -0.1473035 -0.9826989 0.11227
vn -0.1455542 0.9829442 0.1124039
vn -0.1234029 0.9704334 0.2074382
vn -0.1249769 -0.9703276 0.2069905
vn -4.44256E-07 -0.7232656 -0.6905699
vn -0.3332335 -0.804495 -0.4916739
vn -0.5114267 -0.5114263 -0.6905693
vn 0.5114264 -0.5114264 -0.6905694
vn -0.7232662 1.175972E-07 -0.6905694
vn 0.7232664 1.045308E-07 -0.690569
vn -0.5114258 0.5114265 -0.6905696
vn 0.511426 0.5114266 -0.6905696
vn 0 0.7232658 -0.6905698
vn -1.15294E-07 0.9502311 0.3115458
vn -0.261126 0.6304138 0.731021
vn -0.671915 0.6719146 0.3115463
vn 0.6719147 0.6719151 0.3115459
vn -0.9502309 0 0.3115466
vn 0.9502311 0 0.311546
vn -0.6719152 -0.6719144 0.3115464
vn 0.6719151 -0.6719147 0.311546
vn 0 -0.950231 0.3115462
vn -0.5930169 5.293194E-07 -0.80519
vn 1.249388E-07 0 -1
vn -0.4260997 0.415066 -0.8038403
vn -0.4260997 -0.4150662 -0.8038402
vn 0 0.5876821 -0.8090919
vn -2.768313E-07 -0.5876831 -0.8090913
vn 0.4261 0.4150666 -0.8038398
vn 0.4261019 -0.4150672 -0.8038385
vn 0.5930182 -1.186071E-06 -0.805189
g Turbine_R_0
f 3/3/3 2/2/2 1/1/1
f 6/6/6 5/5/5 4/4/4
f 7/7/7 6/6/6 4/4/4
f 8/8/8 7/7/7 4/4/4
f 9/9/9 8/8/8 4/4/4
f 10/10/10 9/9/9 4/4/4
f 11/11/11 10/10/10 4/4/4
f 12/12/12 11/11/11 4/4/4
f 15/15/15 14/14/14 13/13/13
f 14/14/14 16/16/16 13/13/13
f 14/14/14 17/17/17 16/16/16
f 13/13/13 16/16/16 18/18/18
f 19/19/19 13/13/13 18/18/18
f 20/20/20 19/19/19 18/18/18
f 21/21/21 20/20/20 18/18/18
f 21/21/21 18/18/18 22/22/22
f 18/18/18 16/16/16 22/22/22
f 23/23/23 21/21/21 22/22/22
f 17/17/17 24/24/24 16/16/16
f 16/16/16 24/24/24 22/22/22
f 17/17/17 25/25/25 24/24/24
f 23/23/23 22/22/22 26/26/26
f 22/22/22 24/24/24 26/26/26
f 27/27/27 23/23/23 26/26/26
f 25/25/25 28/28/28 24/24/24
f 24/24/24 28/28/28 26/26/26
f 25/25/25 29/29/29 28/28/28
f 29/29/29 30/30/30 28/28/28
f 28/28/28 30/30/30 31/31/31
f 26/26/26 28/28/28 31/31/31
f 27/27/27 26/26/26 31/31/31
f 32/32/32 27/27/27 31/31/31
f 35/35/35 34/34/34 33/33/33
f 34/34/34 36/36/36 33/33/33
f 34/34/34 37/37/37 36/36/36
f 36/36/36 38/38/38 33/33/33
f 38/38/38 39/39/39 33/33/33
f 40/40/40 39/39/39 38/38/38
f 41/41/41 40/40/40 38/38/38
f 41/41/41 38/38/38 42/42/42
f 42/42/42 38/38/38 36/36/36
f 43/43/43 41/41/41 42/42/42
f 37/37/37 44/44/44 36/36/36
f 44/44/44 42/42/42 36/36/36
f 37/37/37 45/45/45 44/44/44
f 43/43/43 42/42/42 46/46/46
f 46/46/46 42/42/42 44/44/44
f 47/47/47 43/43/43 46/46/46
f 47/47/47 46/46/46 48/48/48
f 46/46/46 49/49/49 48/48/48
f 45/45/45 50/50/50 44/44/44
f 50/50/50 46/46/46 44/44/44
f 46/46/46 50/50/50 49/49/49
f 45/45/45 51/51/51 50/50/50
f 50/50/50 52/52/52 49/49/49
f 51/51/51 52/52/52 50/50/50
f 55/55/55 54/54/54 53/53/53
f 56/56/56 55/55/55 53/53/53
f 59/59/59 58/58/58 57/57/57
f 60/60/60 59/59/59 57/57/57
f 60/60/60 57/57/57 61/61/61
f 60/60/60 62/62/62 59/59/59
f 62/62/62 60/60/60 61/61/61
f 62/62/62 63/63/63 59/59/59
f 62/62/62 61/61/61 64/64/64
f 63/63/63 62/62/62 64/64/64
f 67/67/67 66/66/66 65/65/65
f 65/65/65 66/66/66 68/68/68
f 69/69/69 66/66/66 67/67/67
f 68/68/68 66/66/66 70/70/70
f 71/71/71 66/66/66 69/69/69
f 70/70/70 66/66/66 72/72/72
f 73/73/73 66/66/66 71/71/71
f 72/72/72 66/66/66 73/73/73
f 76/76/76 75/75/75 74/74/74
f 74/74/74 75/75/75 77/77/77
f 78/78/78 75/75/75 76/76/76
f 77/77/77 75/75/75 79/79/79
f 80/80/80 75/75/75 78/78/78
f 79/79/79 75/75/75 81/81/81
f 82/82/82 75/75/75 80/80/80
f 81/81/81 75/75/75 82/82/82
f 85/85/85 84/84/84 83/83/83
f 83/83/83 84/84/84 86/86/86
f 87/87/87 84/84/84 85/85/85
f 86/86/86 84/84/84 88/88/88
f 89/89/89 84/84/84 87/87/87
f 88/88/88 84/84/84 90/90/90
f 91/91/91 84/84/84 89/89/89
f 90/90/90 84/84/84 91/91/91
