g TwinGoldStripes
v 2.161386 18.65138 -5.187053
v 2.163574 14.15033 -4.410406
v 4.213507 14.23492 -3.257921
v 4.20623 18.73551 -4.014282
v 4.205685 19.68799 -3.791243
v 2.159415 20.00584 -4.792738
v 4.205573 20.48553 -3.234571
v 2.158104 21.27613 -4.105577
v 4.202824 21.63558 -1.814604
v 2.153588 22.63887 -1.996745
v 4.199224 22.0896 0.7667763
v 2.149294 22.94636 0.706039
v 4.201839 21.12369 2.941504
v 2.153379 21.85725 3.861511
v 2.157025 20.47977 4.675905
v 4.204062 20.1798 3.704347
v 4.200546 18.96338 3.993947
v 2.155275 18.93715 5.056983
v 3.942402 18.68498 -3.188583
v 4.213507 14.23492 -3.257921
v 3.92333 15.01617 -2.582903
v 4.20623 18.73551 -4.014282
v 3.943575 19.42529 -3.012406
v 4.205685 19.68799 -3.791243
v 3.944551 20.04569 -2.578701
v 4.205573 20.48553 -3.234571
v 3.945996 20.95886 -1.456534
v 4.202824 21.63558 -1.814604
v 3.946581 21.32269 0.6041231
v 4.199224 22.0896 0.7667763
v 3.945363 20.55796 2.329496
v 4.201839 21.12369 2.941504
v 3.944206 19.82429 2.919002
v 4.204062 20.1798 3.704347
v 3.94275 18.84158 3.148358
v 4.200546 18.96338 3.993947
v 2.263398 18.82004 4.021206
v 2.155275 18.93715 5.056983
v 2.263398 20.07059 3.716741
v 2.157025 20.47977 4.675905
v 2.263398 21.16027 3.084906
v 2.153379 21.85725 3.861511
v 2.263398 22.02617 0.5542518
v 2.149294 22.94636 0.706039
v 2.263398 21.78265 -1.606088
v 2.153588 22.63887 -1.996745
v 2.263398 20.69485 -3.293876
v 2.158104 21.27613 -4.105577
v 2.263397 19.68627 -3.834724
v 2.159415 20.00584 -4.792738
v 2.263398 18.6159 -4.151536
v 2.161386 18.65138 -5.187053
v 2.263398 14.94651 -3.513527
v 2.163574 14.15033 -4.410406
v -2.161386 18.65138 -5.187053
v -4.213507 14.23492 -3.257921
v -2.163574 14.15033 -4.410406
v -4.20623 18.73551 -4.014282
v -4.205685 19.68799 -3.791243
v -2.159415 20.00584 -4.792738
v -4.205573 20.48553 -3.234571
v -2.158104 21.27613 -4.105577
v -4.202824 21.63558 -1.814604
v -2.153588 22.63887 -1.996745
v -4.199224 22.0896 0.7667763
v -2.149294 22.94636 0.706039
v -4.201839 21.12369 2.941504
v -2.153379 21.85725 3.861511
v -2.157025 20.47977 4.675905
v -4.204062 20.1798 3.704347
v -2.155275 18.93715 5.056983
v -4.200546 18.96338 3.993947
v -3.942402 18.68498 -3.188583
v -3.92333 15.01617 -2.582903
v -4.213507 14.23492 -3.257921
v -4.20623 18.73551 -4.014282
v -3.943575 19.42529 -3.012406
v -4.205685 19.68799 -3.791243
v -3.944551 20.04569 -2.578701
v -4.205573 20.48553 -3.234571
v -3.945996 20.95886 -1.456534
v -4.202824 21.63558 -1.814604
v -3.946581 21.32269 0.6041231
v -4.199224 22.0896 0.7667763
v -3.945363 20.55796 2.329496
v -4.201839 21.12369 2.941504
v -3.944206 19.82429 2.919002
v -4.204062 20.1798 3.704347
v -3.94275 18.84158 3.148358
v -4.200546 18.96338 3.993947
v -2.155275 18.93715 5.056983
v -2.263398 18.82004 4.021206
v -2.263398 20.07059 3.716741
v -2.157025 20.47977 4.675905
v -2.263398 21.16027 3.084906
v -2.153379 21.85725 3.861511
v -2.263398 22.02617 0.5542518
v -2.149294 22.94636 0.706039
v -2.263398 21.78265 -1.606088
v -2.153588 22.63887 -1.996745
v -2.263398 20.69485 -3.293876
v -2.158104 21.27613 -4.105577
v -2.263397 19.68627 -3.834724
v -2.159415 20.00584 -4.792738
v -2.263398 18.6159 -4.151536
v -2.161386 18.65138 -5.187053
v -2.263398 14.94651 -3.513527
v -2.163574 14.15033 -4.410406
vt 0.755137 0.5712252
vt 0.755137 0.5712252
vt 0.755137 0.5437958
vt 0.755137 0.5437955
vt 0.755137 0.5437958
vt 0.755137 0.5712252
vt 0.755137 0.5437956
vt 0.755137 0.571225
vt 0.7410125 0.5331295
vt 0.7410125 0.5712252
vt 0.6919525 0.5288543
vt 0.6919525 0.5712252
vt 0.6491176 0.530426
vt 0.6491176 0.5712252
vt 0.6167233 0.5712252
vt 0.6167232 0.538676
vt 0.6017722 0.5467822
vt 0.6017722 0.5712253
vt 0.6919526 0.5288542
vt 0.6919526 0.5288542
vt 0.6919526 0.5288542
vt 0.6919526 0.5288542
vt 0.6919526 0.5288542
vt 0.6919526 0.5288542
vt 0.6919526 0.5288542
vt 0.6919526 0.5288542
vt 0.6919526 0.5288542
vt 0.6919526 0.5288542
vt 0.6919526 0.5288542
vt 0.6919526 0.5288542
vt 0.6919526 0.5288542
vt 0.6919526 0.5288542
vt 0.6919526 0.5288542
vt 0.6919526 0.5288542
vt 0.6919526 0.5288543
vt 0.6919526 0.5288542
vt 0.6919526 0.5288542
vt 0.6919526 0.5288542
vt 0.6919526 0.5288542
vt 0.6919526 0.5288542
vt 0.6919526 0.5288542
vt 0.6919526 0.5288542
vt 0.6919526 0.5288543
vt 0.6919526 0.5288543
vt 0.6919526 0.5288543
vt 0.6919526 0.5288543
vt 0.6919526 0.5288543
vt 0.6919526 0.5288543
vt 0.6919526 0.5288543
vt 0.6919526 0.5288543
vt 0.6919526 0.5288543
vt 0.6919526 0.5288543
vt 0.6919526 0.5288542
vt 0.6919526 0.5288542
vt 0.755137 0.5712252
vt 0.755137 0.5437958
vt 0.755137 0.5712252
vt 0.755137 0.5437955
vt 0.755137 0.5437958
vt 0.755137 0.5712252
vt 0.755137 0.5437956
vt 0.755137 0.571225
vt 0.7410125 0.5331295
vt 0.7410125 0.5712252
vt 0.6919525 0.5288543
vt 0.6919525 0.5712252
vt 0.6491176 0.530426
vt 0.6491176 0.5712252
vt 0.6167233 0.5712252
vt 0.6167232 0.538676
vt 0.6017722 0.5712253
vt 0.6017722 0.5467822
vt 0.6919526 0.5288542
vt 0.6919526 0.5288542
vt 0.6919526 0.5288542
vt 0.6919526 0.5288542
vt 0.6919526 0.5288542
vt 0.6919526 0.5288542
vt 0.6919526 0.5288542
vt 0.6919526 0.5288542
vt 0.6919526 0.5288542
vt 0.6919526 0.5288542
vt 0.6919526 0.5288542
vt 0.6919526 0.5288542
vt 0.6919526 0.5288542
vt 0.6919526 0.5288542
vt 0.6919526 0.5288542
vt 0.6919526 0.5288542
vt 0.6919526 0.5288543
vt 0.6919526 0.5288542
vt 0.6919526 0.5288542
vt 0.6919526 0.5288542
vt 0.6919526 0.5288542
vt 0.6919526 0.5288542
vt 0.6919526 0.5288542
vt 0.6919526 0.5288542
vt 0.6919526 0.5288543
vt 0.6919526 0.5288543
vt 0.6919526 0.5288543
vt 0.6919526 0.5288543
vt 0.6919526 0.5288543
vt 0.6919526 0.5288543
vt 0.6919526 0.5288543
vt 0.6919526 0.5288543
vt 0.6919526 0.5288543
vt 0.6919526 0.5288543
vt 0.6919526 0.5288542
vt 0.6919526 0.5288542
vn -0.5612906 0.03852768 -0.8267215
vn -0.5455768 -0.1401406 -0.8262606
vn 0.9356188 -0.06053172 -0.3477838
vn 0.9340501 0.0213682 -0.3565021
vn 0.9278848 0.1416664 -0.3449064
vn -0.5633247 0.3235977 -0.7602301
vn 0.9309584 0.2479499 -0.2680246
vn -0.5732831 0.5562147 -0.6016409
vn 0.926751 0.3529331 -0.1287278
vn -0.5929359 0.7460612 -0.3030177
vn 0.9206313 0.3879344 0.04409983
vn -0.6076542 0.7890118 0.09064727
vn 0.9263232 0.2944612 0.2349851
vn -0.5971249 0.6301777 0.4963043
vn -0.5721294 0.3347531 0.7487378
vn 0.9227213 0.1486864 0.355637
vn 0.8012059 -0.4599641 0.382756
vn -0.3673501 -0.6237077 0.6899585
vn 0.9502558 -0.009095568 0.3113376
vn 0.9356188 -0.06053172 -0.3477838
vn 0.9448618 0.05252608 0.3232293
vn 0.9340501 0.0213682 -0.3565021
vn 0.952178 -0.1258386 0.2784274
vn 0.9278848 0.1416664 -0.3449064
vn 0.9483688 -0.2166163 0.2316761
vn 0.9309584 0.2479499 -0.2680246
vn 0.9479617 -0.289728 0.1320083
vn 0.926751 0.3529331 -0.1287278
vn 0.9507177 -0.3080441 -0.0352813
vn 0.9206313 0.3879344 0.04409983
vn 0.9546177 -0.2373482 -0.1799186
vn 0.9263232 0.2944612 0.2349851
vn 0.9578105 -0.1274741 -0.2575835
vn 0.9227213 0.1486864 0.355637
vn 0.6934891 -0.7120171 -0.1100209
vn 0.8012059 -0.4599641 0.382756
vn -0.6717461 -0.7406493 0.01399223
vn -0.3673501 -0.6237077 0.6899585
vn -0.9947023 -0.03902881 -0.09509981
vn -0.5721294 0.3347531 0.7487378
vn -0.9943326 -0.08467093 -0.06429347
vn -0.5971249 0.6301777 0.4963043
vn -0.992773 -0.1193117 -0.01290865
vn -0.6076542 0.7890118 0.09064727
vn -0.9931987 -0.110285 0.03733111
vn -0.5929359 0.7460612 -0.3030177
vn -0.9943164 -0.07370439 0.07682874
vn -0.5732831 0.5562147 -0.6016409
vn -0.9946992 -0.03980111 0.09481193
vn -0.5633247 0.3235977 -0.7602301
vn -0.9952143 -0.006411825 0.0975045
vn -0.5612906 0.03852768 -0.8267215
vn -0.9951066 0.01659825 0.09740331
vn -0.5455768 -0.1401406 -0.8262606
vn 0.5612906 0.03852768 -0.8267215
vn -0.9356188 -0.06053172 -0.3477838
vn 0.5455768 -0.1401406 -0.8262606
vn -0.9340501 0.0213682 -0.3565021
vn -0.9278848 0.1416664 -0.3449064
vn 0.5633247 0.3235977 -0.7602301
vn -0.9309584 0.2479499 -0.2680246
vn 0.5732831 0.5562147 -0.6016409
vn -0.926751 0.3529331 -0.1287278
vn 0.5929359 0.7460612 -0.3030177
vn -0.9206313 0.3879344 0.04409983
vn 0.6076542 0.7890118 0.09064727
vn -0.9263232 0.2944612 0.2349851
vn 0.5971249 0.6301777 0.4963043
vn 0.5721294 0.3347531 0.7487378
vn -0.9227213 0.1486864 0.355637
vn 0.3673501 -0.6237077 0.6899585
vn -0.8012059 -0.4599641 0.382756
vn -0.9502558 -0.009095568 0.3113376
vn -0.9448618 0.05252608 0.3232293
vn -0.9356188 -0.06053172 -0.3477838
vn -0.9340501 0.0213682 -0.3565021
vn -0.952178 -0.1258386 0.2784274
vn -0.9278848 0.1416664 -0.3449064
vn -0.9483688 -0.2166163 0.2316761
vn -0.9309584 0.2479499 -0.2680246
vn -0.9479617 -0.289728 0.1320083
vn -0.926751 0.3529331 -0.1287278
vn -0.9507177 -0.3080441 -0.0352813
vn -0.9206313 0.3879344 0.04409983
vn -0.9546177 -0.2373482 -0.1799186
vn -0.9263232 0.2944612 0.2349851
vn -0.9578105 -0.1274741 -0.2575835
vn -0.9227213 0.1486864 0.355637
vn -0.6934891 -0.7120171 -0.1100209
vn -0.8012059 -0.4599641 0.382756
vn 0.3673501 -0.6237077 0.6899585
vn 0.6717461 -0.7406493 0.01399223
vn 0.9947023 -0.03902881 -0.09509981
vn 0.5721294 0.3347531 0.7487378
vn 0.9943326 -0.08467093 -0.06429347
vn 0.5971249 0.6301777 0.4963043
vn 0.992773 -0.1193117 -0.01290865
vn 0.6076542 0.7890118 0.09064727
vn 0.9931987 -0.110285 0.03733111
vn 0.5929359 0.7460612 -0.3030177
vn 0.9943164 -0.07370439 0.07682874
vn 0.5732831 0.5562147 -0.6016409
vn 0.9946992 -0.03980111 0.09481193
vn 0.5633247 0.3235977 -0.7602301
vn 0.9952143 -0.006411825 0.0975045
vn 0.5612906 0.03852768 -0.8267215
vn 0.9951066 0.01659825 0.09740331
vn 0.5455768 -0.1401406 -0.8262606
g TwinGoldStripes_0
f 3/3/3 2/2/2 1/1/1
f 4/4/4 3/3/3 1/1/1
f 4/4/4 1/1/1 5/5/5
f 1/1/1 6/6/6 5/5/5
f 5/5/5 6/6/6 7/7/7
f 6/6/6 8/8/8 7/7/7
f 7/7/7 8/8/8 9/9/9
f 8/8/8 10/10/10 9/9/9
f 9/9/9 10/10/10 11/11/11
f 10/10/10 12/12/12 11/11/11
f 11/11/11 12/12/12 13/13/13
f 12/12/12 14/14/14 13/13/13
f 14/14/14 15/15/15 13/13/13
f 15/15/15 16/16/16 13/13/13
f 16/16/16 15/15/15 17/17/17
f 15/15/15 18/18/18 17/17/17
f 21/21/21 20/20/20 19/19/19
f 20/20/20 22/22/22 19/19/19
f 19/19/19 22/22/22 23/23/23
f 22/22/22 24/24/24 23/23/23
f 23/23/23 24/24/24 25/25/25
f 24/24/24 26/26/26 25/25/25
f 25/25/25 26/26/26 27/27/27
f 26/26/26 28/28/28 27/27/27
f 27/27/27 28/28/28 29/29/29
f 28/28/28 30/30/30 29/29/29
f 29/29/29 30/30/30 31/31/31
f 30/30/30 32/32/32 31/31/31
f 31/31/31 32/32/32 33/33/33
f 32/32/32 34/34/34 33/33/33
f 33/33/33 34/34/34 35/35/35
f 34/34/34 36/36/36 35/35/35
f 35/35/35 36/36/36 37/37/37
f 36/36/36 38/38/38 37/37/37
f 37/37/37 38/38/38 39/39/39
f 38/38/38 40/40/40 39/39/39
f 39/39/39 40/40/40 41/41/41
f 40/40/40 42/42/42 41/41/41
f 41/41/41 42/42/42 43/43/43
f 42/42/42 44/44/44 43/43/43
f 43/43/43 44/44/44 45/45/45
f 44/44/44 46/46/46 45/45/45
f 45/45/45 46/46/46 47/47/47
f 46/46/46 48/48/48 47/47/47
f 47/47/47 48/48/48 49/49/49
f 48/48/48 50/50/50 49/49/49
f 49/49/49 50/50/50 51/51/51
f 50/50/50 52/52/52 51/51/51
f 51/51/51 52/52/52 53/53/53
f 52/52/52 54/54/54 53/53/53
f 57/57/57 56/56/56 55/55/55
f 56/56/56 58/58/58 55/55/55
f 55/55/55 58/58/58 59/59/59
f 60/60/60 55/55/55 59/59/59
f 60/60/60 59/59/59 61/61/61
f 62/62/62 60/60/60 61/61/61
f 62/62/62 61/61/61 63/63/63
f 64/64/64 62/62/62 63/63/63
f 64/64/64 63/63/63 65/65/65
f 66/66/66 64/64/64 65/65/65
f 66/66/66 65/65/65 67/67/67
f 68/68/68 66/66/66 67/67/67
f 69/69/69 68/68/68 67/67/67
f 70/70/70 69/69/69 67/67/67
f 69/69/69 70/70/70 71/71/71
f 70/70/70 72/72/72 71/71/71
f 75/75/75 74/74/74 73/73/73
f 76/76/76 75/75/75 73/73/73
f 76/76/76 73/73/73 77/77/77
f 78/78/78 76/76/76 77/77/77
f 78/78/78 77/77/77 79/79/79
f 80/80/80 78/78/78 79/79/79
f 80/80/80 79/79/79 81/81/81
f 82/82/82 80/80/80 81/81/81
f 82/82/82 81/81/81 83/83/83
f 84/84/84 82/82/82 83/83/83
f 84/84/84 83/83/83 85/85/85
f 86/86/86 84/84/84 85/85/85
f 86/86/86 85/85/85 87/87/87
f 88/88/88 86/86/86 87/87/87
f 88/88/88 87/87/87 89/89/89
f 90/90/90 88/88/88 89/89/89
f 91/91/91 90/90/90 89/89/89
f 92/92/92 91/91/91 89/89/89
f 91/91/91 92/92/92 93/93/93
f 94/94/94 91/91/91 93/93/93
f 94/94/94 93/93/93 95/95/95
f 96/96/96 94/94/94 95/95/95
f 96/96/96 95/95/95 97/97/97
f 98/98/98 96/96/96 97/97/97
f 98/98/98 97/97/97 99/99/99
f 100/100/100 98/98/98 99/99/99
f 100/100/100 99/99/99 101/101/101
f 102/102/102 100/100/100 101/101/101
f 102/102/102 101/101/101 103/103/103
f 104/104/104 102/102/102 103/103/103
f 104/104/104 103/103/103 105/105/105
f 106/106/106 104/104/104 105/105/105
f 106/106/106 105/105/105 107/107/107
f 108/108/108 106/106/106 107/107/107
