g UltraVisionHead
v -2.214534 18.95895 4.729328
v -4.587022 13.52298 3.407005
v -4.879495 19.00156 3.388452
v 4.909673 19.00594 3.443353
v 4.550228 13.52141 3.399899
v 2.197916 18.96166 4.761115
v 1.373038 13.48074 4.617908
v 1.565503 12.03135 4.051162
v -1.582124 12.04695 4.053486
v -0.01571327 13.78601 4.617962
v -1.404464 13.48287 4.618016
v 5.791867 18.98955 1.004289
v 4.550228 13.52141 3.399899
v 4.909673 19.00594 3.443353
v 5.400735 13.55026 1.486614
v 5.564931 18.94248 -1.749877
v 3.823684 12.23457 2.785722
v 3.492022 12.60775 3.447853
v 1.565503 12.03135 4.051162
v 5.110703 14.05596 -1.377828
v 4.242403 18.75499 -3.611524
v 1.565508 11.58729 3.265981
v -1.582124 12.04695 4.053486
v 3.405907 12.00513 0.45969
v -3.421119 12.00368 0.461211
v -1.582121 11.59659 3.279612
v -3.572194 12.64811 3.550692
v -3.857559 12.26736 2.778756
v -4.587022 13.52298 3.407005
v -5.486257 13.51716 1.497838
v -4.879495 19.00156 3.388452
v -5.797649 18.98469 0.931256
v -5.210797 14.05479 -1.377651
v -5.656166 18.937 -1.821873
v 2.896208 12.54959 -1.108912
v -2.951777 12.55325 -1.02651
v -3.801933 14.2684 -3.124385
v -4.353833 18.75092 -3.666449
v -1.580903 14.18651 -4.258019
v -1.580903 18.656 -5.043051
v 1.566723 14.18651 -4.258019
v 1.566723 18.65748 -5.023192
v 3.797268 14.26834 -3.1244
v -1.582124 12.04695 4.053486
v -3.572194 12.64811 3.550692
v -4.587022 13.52298 3.407005
v -1.404464 13.48287 4.618016
v 1.373038 13.48074 4.617908
v 4.550228 13.52141 3.399899
v 3.492022 12.60775 3.447853
v 1.565503 12.03135 4.051162
v 4.909673 19.00594 3.443353
v 5.391837 20.34203 0.9316846
v 5.791867 18.98955 1.004289
v 4.643157 19.98539 3.196445
v 2.197916 18.96166 4.761115
v 4.669628 21.59094 0.80113
v 1.618727 20.40371 4.564181
v -1.636926 20.40144 4.537171
v -2.214534 18.95895 4.729328
v -4.594877 19.95749 3.114538
v -4.879495 19.00156 3.388452
v -5.797649 18.98469 0.931256
v -5.362322 20.33726 0.8634042
v -4.030568 20.85837 2.654215
v -4.606931 21.58656 0.741713
v -1.582121 21.73114 3.777412
v 1.565508 21.73287 3.798193
v 4.094658 20.90658 2.756236
v -1.582124 22.79375 0.694208
v 1.565503 22.7956 0.7189389
v 1.565508 22.50601 -1.912899
v -4.342382 21.25103 -1.750517
v -1.582124 22.37541 -1.884704
v -5.150373 20.13448 -1.845119
v -5.362322 20.33726 0.8634042
v -5.656166 18.937 -1.821873
v -5.797649 18.98469 0.931256
v -4.353833 18.75092 -3.666449
v -4.214238 19.58035 -3.5168
v -1.580903 18.656 -5.043051
v -3.810767 20.38658 -3.152049
v -1.582124 21.0604 -3.957909
v -1.636317 19.89201 -4.636367
v 1.566723 18.65748 -5.023192
v 1.619336 19.96005 -4.633899
v 1.565503 21.18663 -3.971948
v 4.168519 19.58445 -3.461238
v 4.242403 18.75499 -3.611524
v 5.564931 18.94248 -1.749877
v 3.831668 20.39045 -3.099465
v 5.099167 20.14011 -1.77649
v 4.334002 21.25645 -1.689472
v 5.391837 20.34203 0.9316846
v 5.791867 18.98955 1.004289
v -2.214534 18.95895 4.729328
v -1.404464 13.48287 4.618016
v -4.587022 13.52298 3.407005
v -0.01571327 13.78601 4.617962
v 2.197916 18.96166 4.761115
v 1.373038 13.48074 4.617908
v 4.550228 13.52141 3.399899
vt 0.1131165 0.3929474
vt 0.1131165 0.3929474
vt 0.1131165 0.3929474
vt 0.1131165 0.3929474
vt 0.1131165 0.3929474
vt 0.1131165 0.3929474
vt 0.3247976 0.3815581
vt 0.3478407 0.3473169
vt 0.2737336 0.310216
vt 0.29217 0.3650525
vt 0.2595426 0.3485469
vt 0.1218305 0.3985698
vt 0.1218305 0.3985698
vt 0.1218305 0.3985698
vt 0.1218305 0.3985698
vt 0.1218305 0.3985698
vt 0.1218305 0.3985698
vt 0.1218305 0.3985698
vt 0.1218305 0.3985698
vt 0.1218305 0.3985698
vt 0.1218305 0.3985698
vt 0.1218305 0.3985698
vt 0.1218305 0.3985698
vt 0.1218305 0.3985698
vt 0.1218305 0.3985698
vt 0.1218305 0.3985698
vt 0.1218305 0.3985698
vt 0.1218305 0.3985698
vt 0.1218305 0.3985698
vt 0.1218305 0.3985698
vt 0.1218305 0.3985698
vt 0.1218305 0.3985698
vt 0.1218305 0.3985698
vt 0.1218305 0.3985698
vt 0.1218305 0.3985698
vt 0.1218305 0.3985698
vt 0.1218305 0.3985698
vt 0.1218305 0.3985698
vt 0.1218305 0.3985698
vt 0.1218305 0.3985698
vt 0.1218305 0.3985698
vt 0.1218305 0.3985698
vt 0.1218305 0.3985698
vt 0.1048901 0.4101792
vt 0.1048901 0.4101792
vt 0.1048901 0.4101792
vt 0.1048901 0.4101792
vt 0.1048901 0.4101792
vt 0.1048901 0.4101792
vt 0.1048901 0.4101792
vt 0.1048901 0.4101792
vt 0.359674 0.529447
vt 0.3599376 0.590382
vt 0.401309 0.55857
vt 0.3380358 0.5477637
vt 0.3192615 0.5176142
vt 0.321045 0.620288
vt 0.2704392 0.519721
vt 0.2024861 0.4919725
vt 0.1728606 0.4553561
vt 0.1324309 0.4660563
vt 0.127477 0.437922
vt 0.077031 0.430536
vt 0.08648419 0.4821183
vt 0.137088 0.492505
vt 0.095371 0.53061
vt 0.192761 0.518976
vt 0.259305 0.545045
vt 0.317694 0.564983
vt 0.169855 0.57121
vt 0.239442 0.598531
vt 0.200237 0.686963
vt 0.070381 0.638243
vt 0.135509 0.660871
vt 0.04125515 0.6380012
vt 0.06298746 0.5259578
vt 0.010273 0.637744
vt 0.02854 0.521009
vt 0.026099 0.700905
vt 0.04543424 0.6909565
vt 0.087081 0.765582
vt 0.063611 0.681604
vt 0.115722 0.710493
vt 0.1018438 0.7371869
vt 0.167998 0.794555
vt 0.175043 0.7646378
vt 0.181666 0.736513
vt 0.2480978 0.7701316
vt 0.254664 0.791759
vt 0.309309 0.754817
vt 0.241925 0.7498
vt 0.2872935 0.7338076
vt 0.266597 0.714057
vt 0.34794 0.6389193
vt 0.376549 0.658738
vt 0.2571717 0.4640347
vt 0.2571717 0.4640347
vt 0.2571717 0.4640347
vt 0.2571717 0.4640347
vt 0.2571717 0.4640347
vt 0.2571717 0.4640347
vt 0.2571717 0.4640347
vn -0.2157666 0.05465781 0.9749141
vn -0.6032389 -0.2206815 0.7664219
vn -0.7285283 0.1609477 0.6658396
vn 0.7299076 0.1415944 0.6687197
vn 0.6066912 -0.2343172 0.7596192
vn 0.2057981 0.0470869 0.977461
vn 0.132892 -0.2161069 0.9672835
vn 0.1903701 -0.6239958 0.7578842
vn -0.1189391 -0.5266463 0.8417227
vn 0.003202524 -0.1425976 0.9897755
vn -0.1555106 -0.1932472 0.9687477
vn 0.9834853 0.1253903 0.1305148
vn 0.6066912 -0.2343172 0.7596192
vn 0.7299076 0.1415944 0.6687197
vn 0.8593272 -0.5053353 0.07869526
vn 0.930697 0.0901356 -0.354512
vn 0.5198694 -0.8182796 0.2452637
vn 0.4981222 -0.5925133 0.6330894
vn 0.1903701 -0.6239958 0.7578842
vn 0.7868367 -0.4785933 -0.3896618
vn 0.6532444 0.050737 -0.7554453
vn 0.1706946 -0.954724 0.2436501
vn -0.1189391 -0.5266463 0.8417227
vn 0.3169971 -0.934759 -0.1604316
vn -0.3103101 -0.9377924 -0.1557342
vn -0.1721093 -0.9558518 0.2381716
vn -0.4908509 -0.5971495 0.6344116
vn -0.5086226 -0.826603 0.240895
vn -0.6032389 -0.2206815 0.7664219
vn -0.85383 -0.51318 0.08729654
vn -0.7285283 0.1609477 0.6658396
vn -0.9780318 0.1459939 0.1487935
vn -0.7780916 -0.4895009 -0.3936527
vn -0.9312143 0.1061204 -0.3486809
vn 0.2818559 -0.8588568 -0.4276941
vn -0.2747803 -0.8615189 -0.4269438
vn -0.5394462 -0.5103831 -0.6697066
vn -0.6410419 0.06070153 -0.7651016
vn -0.2096962 -0.5641864 -0.7985744
vn -0.2269869 0.05856301 -0.9721354
vn 0.2133035 -0.5594778 -0.8009283
vn 0.2381054 0.05455869 -0.9697057
vn 0.5536112 -0.499132 -0.6666198
vn -0.1189391 -0.5266463 0.8417227
vn -0.4908509 -0.5971495 0.6344116
vn -0.6032389 -0.2206815 0.7664219
vn -0.1555106 -0.1932472 0.9687477
vn 0.132892 -0.2161069 0.9672835
vn 0.6066912 -0.2343172 0.7596192
vn 0.4981222 -0.5925133 0.6330894
vn 0.1903701 -0.6239958 0.7578842
vn 0.7299076 0.1415944 0.6687197
vn 0.8920208 0.437092 0.1151067
vn 0.9834853 0.1253903 0.1305148
vn 0.662627 0.4382643 0.6073301
vn 0.2057981 0.0470869 0.977461
vn 0.6336931 0.7652342 0.1133565
vn 0.2192819 0.3772583 0.8997731
vn -0.2388367 0.3843792 0.8917453
vn -0.2157666 0.05465781 0.9749141
vn -0.6607862 0.451984 0.5992263
vn -0.7285283 0.1609477 0.6658396
vn -0.9780318 0.1459939 0.1487935
vn -0.8779632 0.4594666 0.1344287
vn -0.550744 0.6666516 0.5022516
vn -0.6260208 0.770453 0.1204156
vn -0.2332938 0.7582118 0.6088423
vn 0.214555 0.7601765 0.6132683
vn 0.5446031 0.6685608 0.506393
vn -0.207504 0.9729523 0.1015173
vn 0.1929362 0.9756455 0.1043618
vn 0.1957148 0.9157691 -0.350803
vn -0.584152 0.7263377 -0.3622154
vn -0.2096171 0.9115886 -0.3536479
vn -0.8280587 0.4437497 -0.3426443
vn -0.8779632 0.4594666 0.1344287
vn -0.9312143 0.1061204 -0.3486809
vn -0.9780318 0.1459939 0.1487935
vn -0.6410419 0.06070153 -0.7651016
vn -0.5790023 0.4044128 -0.7079596
vn -0.2269869 0.05856301 -0.9721354
vn -0.4832862 0.6091539 -0.6287813
vn -0.2180434 0.6744086 -0.705429
vn -0.2169199 0.3961675 -0.8921867
vn 0.2381054 0.05455869 -0.9697057
vn 0.2238755 0.3836023 -0.8959514
vn 0.211033 0.6697549 -0.7119645
vn 0.6037098 0.3734092 -0.7043436
vn 0.6532444 0.050737 -0.7554453
vn 0.930697 0.0901356 -0.354512
vn 0.5178084 0.5850402 -0.6241814
vn 0.8399259 0.4131286 -0.3519223
vn 0.6084579 0.7077916 -0.3589012
vn 0.8920208 0.437092 0.1151067
vn 0.9834853 0.1253903 0.1305148
vn -0.2157666 0.05465781 0.9749141
vn -0.1555106 -0.1932472 0.9687477
vn -0.6032389 -0.2206815 0.7664219
vn 0.003202524 -0.1425976 0.9897755
vn 0.2057981 0.0470869 0.977461
vn 0.132892 -0.2161069 0.9672835
vn 0.6066912 -0.2343172 0.7596192
g UltraVisionHead_0
f 3/3/3 2/2/2 1/1/1
f 6/6/6 5/5/5 4/4/4
f 9/9/9 8/8/8 7/7/7
f 7/7/7 10/10/10 9/9/9
f 10/10/10 11/11/11 9/9/9
f 14/14/14 13/13/13 12/12/12
f 13/13/13 15/15/15 12/12/12
f 12/12/12 15/15/15 16/16/16
f 15/15/15 13/13/13 17/17/17
f 13/13/13 18/18/18 17/17/17
f 17/17/17 18/18/18 19/19/19
f 15/15/15 20/20/20 16/16/16
f 16/16/16 20/20/20 21/21/21
f 22/22/22 17/17/17 19/19/19
f 19/19/19 23/23/23 22/22/22
f 24/24/24 15/15/15 17/17/17
f 15/15/15 24/24/24 20/20/20
f 24/24/24 17/17/17 22/22/22
f 25/25/25 24/24/24 22/22/22
f 23/23/23 26/26/26 22/22/22
f 26/26/26 25/25/25 22/22/22
f 23/23/23 27/27/27 26/26/26
f 27/27/27 28/28/28 26/26/26
f 26/26/26 28/28/28 25/25/25
f 27/27/27 29/29/29 28/28/28
f 29/29/29 30/30/30 28/28/28
f 30/30/30 25/25/25 28/28/28
f 30/30/30 29/29/29 31/31/31
f 32/32/32 30/30/30 31/31/31
f 33/33/33 30/30/30 32/32/32
f 25/25/25 30/30/30 33/33/33
f 34/34/34 33/33/33 32/32/32
f 24/24/24 35/35/35 20/20/20
f 24/24/24 25/25/25 35/35/35
f 36/36/36 25/25/25 33/33/33
f 25/25/25 36/36/36 35/35/35
f 37/37/37 33/33/33 34/34/34
f 37/37/37 36/36/36 33/33/33
f 38/38/38 37/37/37 34/34/34
f 39/39/39 37/37/37 38/38/38
f 36/36/36 37/37/37 39/39/39
f 40/40/40 39/39/39 38/38/38
f 36/36/36 39/39/39 41/41/41
f 41/41/41 39/39/39 40/40/40
f 35/35/35 36/36/36 41/41/41
f 42/42/42 41/41/41 40/40/40
f 35/35/35 43/43/43 20/20/20
f 43/43/43 35/35/35 41/41/41
f 43/43/43 41/41/41 42/42/42
f 20/20/20 43/43/43 21/21/21
f 21/21/21 43/43/43 42/42/42
f 46/46/46 45/45/45 44/44/44
f 47/47/47 46/46/46 44/44/44
f 50/50/50 49/49/49 48/48/48
f 51/51/51 50/50/50 48/48/48
f 54/54/54 53/53/53 52/52/52
f 53/53/53 55/55/55 52/52/52
f 56/56/56 52/52/52 55/55/55
f 53/53/53 57/57/57 55/55/55
f 58/58/58 56/56/56 55/55/55
f 58/58/58 59/59/59 56/56/56
f 59/59/59 60/60/60 56/56/56
f 59/59/59 61/61/61 60/60/60
f 61/61/61 62/62/62 60/60/60
f 62/62/62 61/61/61 63/63/63
f 61/61/61 64/64/64 63/63/63
f 61/61/61 65/65/65 64/64/64
f 65/65/65 61/61/61 59/59/59
f 65/65/65 66/66/66 64/64/64
f 67/67/67 65/65/65 59/59/59
f 67/67/67 59/59/59 58/58/58
f 66/66/66 65/65/65 67/67/67
f 58/58/58 55/55/55 68/68/68
f 68/68/68 67/67/67 58/58/58
f 57/57/57 69/69/69 55/55/55
f 55/55/55 69/69/69 68/68/68
f 70/70/70 67/67/67 68/68/68
f 70/70/70 66/66/66 67/67/67
f 68/68/68 69/69/69 71/71/71
f 69/69/69 57/57/57 71/71/71
f 71/71/71 70/70/70 68/68/68
f 71/71/71 57/57/57 72/72/72
f 70/70/70 71/71/71 72/72/72
f 73/73/73 66/66/66 70/70/70
f 74/74/74 70/70/70 72/72/72
f 74/74/74 73/73/73 70/70/70
f 73/73/73 75/75/75 66/66/66
f 75/75/75 76/76/76 66/66/66
f 75/75/75 77/77/77 76/76/76
f 77/77/77 78/78/78 76/76/76
f 77/77/77 75/75/75 79/79/79
f 75/75/75 80/80/80 79/79/79
f 75/75/75 73/73/73 80/80/80
f 81/81/81 79/79/79 80/80/80
f 82/82/82 73/73/73 74/74/74
f 73/73/73 82/82/82 80/80/80
f 83/83/83 82/82/82 74/74/74
f 80/80/80 82/82/82 83/83/83
f 83/83/83 74/74/74 72/72/72
f 84/84/84 81/81/81 80/80/80
f 84/84/84 80/80/80 83/83/83
f 85/85/85 81/81/81 84/84/84
f 86/86/86 84/84/84 83/83/83
f 86/86/86 85/85/85 84/84/84
f 87/87/87 83/83/83 72/72/72
f 87/87/87 86/86/86 83/83/83
f 86/86/86 88/88/88 85/85/85
f 88/88/88 89/89/89 85/85/85
f 89/89/89 88/88/88 90/90/90
f 87/87/87 91/91/91 86/86/86
f 87/87/87 72/72/72 91/91/91
f 91/91/91 88/88/88 86/86/86
f 88/88/88 92/92/92 90/90/90
f 88/88/88 91/91/91 92/92/92
f 72/72/72 93/93/93 91/91/91
f 91/91/91 93/93/93 92/92/92
f 57/57/57 93/93/93 72/72/72
f 93/93/93 57/57/57 92/92/92
f 57/57/57 94/94/94 92/92/92
f 92/92/92 94/94/94 90/90/90
f 94/94/94 95/95/95 90/90/90
f 98/98/98 97/97/97 96/96/96
f 97/97/97 99/99/99 96/96/96
f 99/99/99 100/100/100 96/96/96
f 99/99/99 101/101/101 100/100/100
f 100/100/100 101/101/101 102/102/102
