g water
v 6.348511E-18 8.285389 -3.547813E-18
v 8.556609 8.226756 11.77717
v 4.498477 8.226756 13.84489
v 1.286119E-07 8.226756 14.55738
v 11.77717 8.226756 8.556609
v -4.498474 8.226756 13.84489
v 13.84489 8.226756 4.498476
v -8.556609 8.226756 11.77717
v 14.55738 8.226756 -1.286119E-07
v -11.77716 8.226756 8.556609
v 13.84488 8.226756 -4.498474
v -13.84489 8.226756 4.498474
v 11.77716 8.226756 -8.556609
v -14.55738 8.226756 -1.286119E-07
v 8.556609 8.226756 -11.77716
v -13.84488 8.226756 -4.498474
v 4.498474 8.226756 -13.84488
v -11.77716 8.226756 -8.556609
v 1.286119E-07 8.226756 -14.55738
v -8.556609 8.226756 -11.77716
v -4.498474 8.226756 -13.84488
vt 0.5 0.5
vt 0.7927216 0.09710302
vt 0.6538929 0.02636633
vt 0.5 0.001992006
vt 0.9028969 0.2072784
vt 0.3461072 0.02636633
vt 0.9736337 0.3461071
vt 0.2072784 0.09710302
vt 0.998008 0.5
vt 0.09710341 0.2072784
vt 0.9736334 0.6538928
vt 0.02636641 0.3461072
vt 0.9028966 0.7927216
vt 0.001992032 0.5
vt 0.7927216 0.9028966
vt 0.0263665 0.6538928
vt 0.6538928 0.9736335
vt 0.09710341 0.7927216
vt 0.5 0.998008
vt 0.2072784 0.9028966
vt 0.3461072 0.9736335
vn 0 1 0
vn 0.002367406 0.9999919 0.003258455
vn 0.001244619 0.9999919 0.003830543
vn 0 0.9999919 0.004027671
vn 0.003258455 0.9999919 0.002367406
vn -0.001244619 0.9999919 0.003830544
vn 0.003830543 0.9999919 0.001244618
vn -0.002367407 0.9999919 0.003258454
vn 0.004027672 0.9999919 0
vn -0.003258457 0.9999919 0.002367406
vn 0.003830545 0.9999919 -0.001244623
vn -0.003830543 0.9999919 0.001244623
vn 0.003258457 0.9999919 -0.002367407
vn -0.004027671 0.9999919 0
vn 0.002367408 0.9999919 -0.003258456
vn -0.003830544 0.9999919 -0.001244623
vn 0.001244622 0.9999919 -0.003830544
vn -0.003258456 0.9999919 -0.002367408
vn 0 0.9999919 -0.004027672
vn -0.002367408 0.9999919 -0.003258456
vn -0.001244622 0.9999919 -0.003830544
g water_0
f 3/3/3 2/2/2 1/1/1
f 4/4/4 3/3/3 1/1/1
f 2/2/2 5/5/5 1/1/1
f 6/6/6 4/4/4 1/1/1
f 5/5/5 7/7/7 1/1/1
f 8/8/8 6/6/6 1/1/1
f 7/7/7 9/9/9 1/1/1
f 10/10/10 8/8/8 1/1/1
f 9/9/9 11/11/11 1/1/1
f 12/12/12 10/10/10 1/1/1
f 11/11/11 13/13/13 1/1/1
f 14/14/14 12/12/12 1/1/1
f 13/13/13 15/15/15 1/1/1
f 16/16/16 14/14/14 1/1/1
f 15/15/15 17/17/17 1/1/1
f 18/18/18 16/16/16 1/1/1
f 17/17/17 19/19/19 1/1/1
f 20/20/20 18/18/18 1/1/1
f 19/19/19 21/21/21 1/1/1
f 21/21/21 20/20/20 1/1/1
