g WeaponSpikes
v -5.30303 13.58712 22.88863
v -3.587917 13.48198 18.45249
v -4.164607 12.30001 18.45249
v -4.01592 14.72554 18.45249
v -5.30303 13.58712 22.88863
v -5.197892 15.30223 18.45249
v -4.01592 14.72554 18.45249
v -6.441454 14.87423 18.45249
v -5.30303 13.58712 22.88863
v -7.018145 13.69226 18.45249
v -6.441454 14.87423 18.45249
v -6.590139 12.4487 18.45249
v -5.30303 13.58712 22.88863
v -5.408168 11.872 18.45249
v -6.590139 12.4487 18.45249
v -4.164607 12.30001 18.45249
v -11.08223 13.58712 21.63279
v -8.604972 13.48886 17.94227
v -9.130661 12.38425 17.82348
v -8.995124 14.65103 17.85411
v -11.08223 13.58712 21.63279
v -10.07256 15.18997 17.61063
v -8.995124 14.65103 17.85411
v -11.20615 14.78998 17.35446
v -11.08223 13.58712 21.63279
v -11.73184 13.68537 17.23566
v -11.20615 14.78998 17.35446
v -11.34168 12.52321 17.32383
v -11.08223 13.58712 21.63279
v -10.26424 11.98427 17.56731
v -11.34168 12.52321 17.32383
v -9.130661 12.38425 17.82348
v 5.30303 13.58712 22.88863
v 4.164607 12.30001 18.45249
v 3.587917 13.48198 18.45249
v 4.01592 14.72554 18.45249
v 5.30303 13.58712 22.88863
v 4.01592 14.72554 18.45249
v 5.197892 15.30223 18.45249
v 6.441454 14.87423 18.45249
v 5.30303 13.58712 22.88863
v 6.441454 14.87423 18.45249
v 7.018145 13.69226 18.45249
v 6.590139 12.4487 18.45249
v 5.30303 13.58712 22.88863
v 6.590139 12.4487 18.45249
v 5.408168 11.872 18.45249
v 4.164607 12.30001 18.45249
v 11.08223 13.58712 21.63279
v 9.130661 12.38425 17.82348
v 8.604972 13.48886 17.94227
v 8.995124 14.65103 17.85411
v 11.08223 13.58712 21.63279
v 8.995124 14.65103 17.85411
v 10.07256 15.18997 17.61063
v 11.20615 14.78998 17.35446
v 11.08223 13.58712 21.63279
v 11.20615 14.78998 17.35446
v 11.73184 13.68537 17.23566
v 11.34168 12.52321 17.32383
v 11.08223 13.58712 21.63279
v 11.34168 12.52321 17.32383
v 10.26424 11.98427 17.56731
v 9.130661 12.38425 17.82348
vt 0.4502656 0.4697346
vt 0.4962637 0.4691594
vt 0.4829748 0.4366037
vt 0.4825509 0.5018585
vt 0.4424289 0.4775713
vt 0.4417673 0.5230322
vt 0.474714 0.5096952
vt 0.4091064 0.5091099
vt 0.4341798 0.4697346
vt 0.3876238 0.4683427
vt 0.4008572 0.5012732
vt 0.4016005 0.4357125
vt 0.4424289 0.4614854
vt 0.4427736 0.4143476
vt 0.4098496 0.4274634
vt 0.4751381 0.4283545
vt 0.4502656 0.4697346
vt 0.4962637 0.4691594
vt 0.4829748 0.4366037
vt 0.4825509 0.5018585
vt 0.4424289 0.4775713
vt 0.4417673 0.5230322
vt 0.474714 0.5096952
vt 0.4091064 0.5091099
vt 0.4341798 0.4697346
vt 0.3876238 0.4683427
vt 0.4008572 0.5012732
vt 0.4016005 0.4357125
vt 0.4424289 0.4614854
vt 0.4427736 0.4143476
vt 0.4098496 0.4274634
vt 0.4751381 0.4283545
vt 0.4502656 0.4697346
vt 0.4829748 0.4366037
vt 0.4962637 0.4691594
vt 0.4825509 0.5018585
vt 0.4424289 0.4775713
vt 0.474714 0.5096952
vt 0.4417673 0.5230322
vt 0.4091064 0.5091099
vt 0.4341798 0.4697346
vt 0.4008572 0.5012732
vt 0.3876238 0.4683427
vt 0.4016005 0.4357125
vt 0.4424289 0.4614854
vt 0.4098496 0.4274634
vt 0.4427736 0.4143476
vt 0.4751381 0.4283545
vt 0.4502656 0.4697346
vt 0.4829748 0.4366037
vt 0.4962637 0.4691594
vt 0.4825509 0.5018585
vt 0.4424289 0.4775713
vt 0.474714 0.5096952
vt 0.4417673 0.5230322
vt 0.4091064 0.5091099
vt 0.4341798 0.4697346
vt 0.4008572 0.5012732
vt 0.3876238 0.4683427
vt 0.4016005 0.4357125
vt 0.4424289 0.4614854
vt 0.4098496 0.4274634
vt 0.4427736 0.4143476
vt 0.4751381 0.4283545
vn -3.583869E-07 0 1
vn 0.9307421 -0.057055 0.361198
vn 0.61779 -0.698478 0.3611981
vn 0.6984788 0.6177897 0.3611972
vn -3.583869E-07 0 1
vn 0.0570549 0.9307424 0.3611972
vn 0.6984788 0.6177897 0.3611972
vn -0.6177898 0.6984786 0.3611972
vn -3.583869E-07 0 1
vn -0.9307421 0.05705478 0.3611979
vn -0.6177898 0.6984786 0.3611972
vn -0.698478 -0.6177901 0.3611981
vn -3.583869E-07 0 1
vn -0.05705544 -0.9307417 0.3611988
vn -0.698478 -0.6177901 0.3611981
vn 0.61779 -0.698478 0.3611981
vn -0.2204236 9.896569E-07 0.9754042
vn 0.828234 -0.05705507 0.5574704
vn 0.5229787 -0.6984794 0.4884873
vn 0.6016839 0.6177889 0.5062739
vn -0.2204236 9.896569E-07 0.9754042
vn -0.02396426 0.9307421 0.3648902
vn 0.6016839 0.6177889 0.5062739
vn -0.6822119 0.6984776 0.2161391
vn -0.2204236 9.896569E-07 0.9754042
vn -0.987466 0.05705499 0.1471583
vn -0.6822119 0.6984776 0.2161391
vn -0.7609147 -0.6177897 0.1983548
vn -0.2204236 9.896569E-07 0.9754042
vn -0.1352668 -0.9307421 0.3397382
vn -0.7609147 -0.6177897 0.1983548
vn 0.5229787 -0.6984794 0.4884873
vn 3.583869E-07 1.897342E-07 1
vn -0.61779 -0.6984779 0.3611982
vn -0.9307421 -0.057055 0.361198
vn -0.6984788 0.6177897 0.3611971
vn 3.583869E-07 1.897342E-07 1
vn -0.6984788 0.6177897 0.3611971
vn -0.05705487 0.9307424 0.3611969
vn 0.6177899 0.6984785 0.3611973
vn 3.583869E-07 1.897342E-07 1
vn 0.6177899 0.6984785 0.3611973
vn 0.9307421 0.05705473 0.3611981
vn 0.698478 -0.61779 0.3611981
vn 3.583869E-07 1.897342E-07 1
vn 0.698478 -0.61779 0.3611981
vn 0.05705544 -0.9307417 0.3611991
vn -0.61779 -0.6984779 0.3611982
vn 0.2204233 8.931046E-07 0.9754043
vn -0.5229785 -0.6984792 0.4884876
vn -0.828234 -0.05705506 0.5574703
vn -0.6016842 0.6177886 0.506274
vn 0.2204233 8.931046E-07 0.9754043
vn -0.6016842 0.6177886 0.506274
vn 0.02396381 0.930742 0.3648904
vn 0.6822116 0.6984777 0.2161393
vn 0.2204233 8.931046E-07 0.9754043
vn 0.6822116 0.6984777 0.2161393
vn 0.987466 0.05705498 0.1471584
vn 0.7609146 -0.6177898 0.1983548
vn 0.2204233 8.931046E-07 0.9754043
vn 0.7609146 -0.6177898 0.1983548
vn 0.1352667 -0.930742 0.3397385
vn -0.5229785 -0.6984792 0.4884876
g WeaponSpikes_0
f 3/3/3 2/2/2 1/1/1
f 2/2/2 4/4/4 1/1/1
f 7/7/7 6/6/6 5/5/5
f 6/6/6 8/8/8 5/5/5
f 11/11/11 10/10/10 9/9/9
f 10/10/10 12/12/12 9/9/9
f 15/15/15 14/14/14 13/13/13
f 14/14/14 16/16/16 13/13/13
f 19/19/19 18/18/18 17/17/17
f 18/18/18 20/20/20 17/17/17
f 23/23/23 22/22/22 21/21/21
f 22/22/22 24/24/24 21/21/21
f 27/27/27 26/26/26 25/25/25
f 26/26/26 28/28/28 25/25/25
f 31/31/31 30/30/30 29/29/29
f 30/30/30 32/32/32 29/29/29
f 35/35/35 34/34/34 33/33/33
f 36/36/36 35/35/35 33/33/33
f 39/39/39 38/38/38 37/37/37
f 40/40/40 39/39/39 37/37/37
f 43/43/43 42/42/42 41/41/41
f 44/44/44 43/43/43 41/41/41
f 47/47/47 46/46/46 45/45/45
f 48/48/48 47/47/47 45/45/45
f 51/51/51 50/50/50 49/49/49
f 52/52/52 51/51/51 49/49/49
f 55/55/55 54/54/54 53/53/53
f 56/56/56 55/55/55 53/53/53
f 59/59/59 58/58/58 57/57/57
f 60/60/60 59/59/59 57/57/57
f 63/63/63 62/62/62 61/61/61
f 64/64/64 63/63/63 61/61/61
