g Wings_yellow
v 16.17709 5.980893 -3.193893
v 7.24709 6.777695 -5.04701
v 7.24709 5.980929 -5.04701
v 16.17711 6.777655 -3.193893
v 16.08529 6.777655 5.905411
v 5.54585 6.777696 6.75456
v 16.08528 5.980894 5.90541
v 5.54585 5.98093 6.75456
v 7.24709 5.980929 -5.04701
v 16.17709 5.980893 -3.193893
v 17.21078 5.980892 -2.805693
v 17.63895 5.980892 -1.868501
v 17.21078 5.980892 -2.805693
v 17.65103 5.980893 4.720784
v 17.14708 5.980893 5.61464
v 17.14708 5.980893 5.61464
v 17.21079 6.777654 -2.805693
v 17.63896 6.777653 -1.868501
v 17.63895 5.980892 -1.868501
v 17.65103 5.980893 4.720784
v 17.65104 6.777654 4.720785
v 17.14709 6.777654 5.614641
v -16.17709 5.980893 -3.193893
v -7.24709 5.980929 -5.04701
v -7.24709 6.777695 -5.04701
v -16.17711 6.777655 -3.193893
v -16.08529 6.777655 5.905411
v -5.54585 6.777696 6.75456
v -16.08528 5.980894 5.90541
v -5.54585 5.98093 6.75456
v -7.24709 5.980929 -5.04701
v -16.17709 5.980893 -3.193893
v -17.21078 5.980892 -2.805693
v -17.63895 5.980892 -1.868501
v -17.21078 5.980892 -2.805693
v -17.65103 5.980893 4.720784
v -17.14708 5.980893 5.61464
v -17.14708 5.980893 5.61464
v -17.21079 6.777654 -2.805693
v -17.63896 6.777653 -1.868501
v -17.63895 5.980892 -1.868501
v -17.65103 5.980893 4.720784
v -17.65104 6.777654 4.720785
v -17.14709 6.777654 5.614641
vt 0.4322949 0.6939934
vt 0.4465359 0.8232834
vt 0.4574439 0.8204214
vt 0.4221049 0.6981624
vt 0.2953109 0.6976514
vt 0.2813049 0.8447324
vt 0.2847509 0.6944914
vt 0.2703689 0.8424114
vt 0.1122279 0.7897454
vt 0.1595439 0.6713664
vt 0.4226869 0.6775824
vt 0.1813569 0.6544844
vt 0.1674129 0.6580884
vt 0.2720759 0.6704124
vt 0.2831469 0.6795314
vt 0.2934659 0.6772394
vt 0.4158739 0.6849494
vt 0.4037539 0.6788813
vt 0.4062429 0.6687514
vt 0.3097629 0.6677164
vt 0.3123049 0.6776554
vt 0.3006279 0.6842034
vt 0.4322949 0.6939934
vt 0.4574439 0.8204214
vt 0.4465359 0.8232834
vt 0.4221049 0.6981624
vt 0.2953109 0.6976514
vt 0.2813049 0.8447324
vt 0.2847509 0.6944914
vt 0.2703689 0.8424114
vt 0.1122279 0.7897454
vt 0.1595439 0.6713664
vt 0.4226869 0.6775824
vt 0.1813569 0.6544844
vt 0.1674129 0.6580884
vt 0.2720759 0.6704124
vt 0.2831469 0.6795314
vt 0.2934659 0.6772394
vt 0.4158739 0.6849494
vt 0.4037539 0.6788813
vt 0.4062429 0.6687514
vt 0.3097629 0.6677164
vt 0.3123049 0.6776554
vt 0.3006279 0.6842034
vn 0.1788852 -0.7080475 -0.6831315
vn 0.1436779 0.7071059 -0.6923566
vn 0.09086468 -0.8944274 -0.437885
vn 0.2139102 0.7080445 -0.6729899
vn 0.1044753 0.8583719 0.5022774
vn 0.07183195 0.4472124 0.8915387
vn 0.07291541 -0.8583732 0.5078177
vn 0.05678436 -0.7071069 0.7048228
vn 0.09086468 -0.8944274 -0.437885
vn 0.1788852 -0.7080475 -0.6831315
vn 0.6585249 -0.2610912 -0.7058161
vn 0.533307 -0.8378518 -0.1165671
vn 0.6585249 -0.2610912 -0.7058161
vn 0.8126864 -0.5661296 0.1379786
vn 0.5935856 -0.2614525 0.7611167
vn 0.5935856 -0.2614525 0.7611167
vn 0.6000299 0.475775 -0.6431192
vn 0.7750328 0.6087915 -0.169402
vn 0.533307 -0.8378518 -0.1165671
vn 0.8126864 -0.5661296 0.1379786
vn 0.7762087 0.5661129 0.2775178
vn 0.5407328 0.4763174 0.6933468
vn -0.1788852 -0.7080475 -0.6831315
vn -0.09086468 -0.8944274 -0.437885
vn -0.1436779 0.7071059 -0.6923567
vn -0.2139102 0.7080445 -0.6729899
vn -0.1044753 0.8583719 0.5022774
vn -0.07183195 0.4472124 0.8915387
vn -0.0729154 -0.8583732 0.5078177
vn -0.05678436 -0.7071069 0.7048228
vn -0.09086468 -0.8944274 -0.437885
vn -0.1788852 -0.7080475 -0.6831315
vn -0.6585249 -0.2610912 -0.7058161
vn -0.533307 -0.8378518 -0.1165671
vn -0.6585249 -0.2610912 -0.7058161
vn -0.8126864 -0.5661296 0.1379786
vn -0.5935856 -0.2614525 0.7611167
vn -0.5935856 -0.2614525 0.7611167
vn -0.6000299 0.475775 -0.6431192
vn -0.7750328 0.6087915 -0.169402
vn -0.533307 -0.8378518 -0.1165671
vn -0.8126864 -0.5661296 0.1379786
vn -0.7762087 0.5661129 0.2775178
vn -0.5407327 0.4763174 0.6933468
g Wings_yellow_0
f 3/3/3 2/2/2 1/1/1
f 2/2/2 4/4/4 1/1/1
f 4/4/4 2/2/2 5/5/5
f 5/5/5 2/2/2 6/6/6
f 7/7/7 5/5/5 6/6/6
f 6/6/6 8/8/8 7/7/7
f 7/7/7 8/8/8 9/9/9
f 7/7/7 9/9/9 10/10/10
f 4/4/4 11/11/11 1/1/1
f 12/12/12 7/7/7 10/10/10
f 10/10/10 13/13/13 12/12/12
f 7/7/7 12/12/12 14/14/14
f 14/14/14 15/15/15 7/7/7
f 5/5/5 7/7/7 16/16/16
f 4/4/4 17/17/17 11/11/11
f 11/11/11 17/17/17 18/18/18
f 18/18/18 17/17/17 4/4/4
f 4/4/4 5/5/5 18/18/18
f 18/18/18 19/19/19 11/11/11
f 20/20/20 19/19/19 18/18/18
f 18/18/18 21/21/21 20/20/20
f 20/20/20 21/21/21 16/16/16
f 21/21/21 18/18/18 5/5/5
f 16/16/16 22/22/22 5/5/5
f 16/16/16 21/21/21 22/22/22
f 5/5/5 22/22/22 21/21/21
f 25/25/25 24/24/24 23/23/23
f 23/23/23 26/26/26 25/25/25
f 27/27/27 25/25/25 26/26/26
f 28/28/28 25/25/25 27/27/27
f 27/27/27 29/29/29 28/28/28
f 29/29/29 30/30/30 28/28/28
f 31/31/31 30/30/30 29/29/29
f 29/29/29 32/32/32 31/31/31
f 33/33/33 26/26/26 23/23/23
f 34/34/34 32/32/32 29/29/29
f 34/34/34 35/35/35 32/32/32
f 29/29/29 36/36/36 34/34/34
f 29/29/29 37/37/37 36/36/36
f 38/38/38 29/29/29 27/27/27
f 39/39/39 26/26/26 33/33/33
f 40/40/40 39/39/39 33/33/33
f 26/26/26 39/39/39 40/40/40
f 26/26/26 40/40/40 27/27/27
f 33/33/33 41/41/41 40/40/40
f 40/40/40 41/41/41 42/42/42
f 42/42/42 43/43/43 40/40/40
f 43/43/43 42/42/42 38/38/38
f 40/40/40 43/43/43 27/27/27
f 27/27/27 44/44/44 38/38/38
f 43/43/43 38/38/38 44/44/44
f 43/43/43 44/44/44 27/27/27
