g Yellow_Glove_R
v -12.31907 8.670577 1.258572
v -12.76677 8.901517 1.480274
v -13.21041 10.42507 1.760113
v -12.29291 11.30209 1.750561
v -10.07698 10.09155 0.09142509
v -9.939543 10.87906 0.5698535
v -10.34073 12.68631 0.5349861
v -14.17149 10.84614 0.7692091
v -14.34034 10.25688 0.8967146
v -12.54037 12.87159 0.3843665
v -10.44275 12.85988 -2.096354
v -14.10328 13.04988 0.8211603
v -13.92211 13.55142 -1.865426
v -14.41123 11.00834 0.5435451
v -14.24334 12.95433 0.6396213
v -14.11546 13.34111 -1.871448
v -14.40597 12.76229 -4.273843
v -12.72329 13.56175 -2.00369
v -10.17722 12.644 -4.08468
v -14.35822 12.98785 -4.437406
v -14.54016 10.93828 -4.319776
v -12.85713 12.76696 -4.435722
v -14.51789 10.6 -4.4584
v -12.85614 10.56776 -4.673246
v -10.07821 10.80052 -4.364748
v -10.34792 9.423555 -4.00914
v -14.38588 10.77176 -2.42076
v -14.56591 11.01746 -2.421061
v -14.55114 11.04948 -0.8703639
v -12.82975 8.996758 -4.377054
v -12.21299 8.77602 -2.001406
v -10.46046 9.221468 -1.992193
v -10.07698 10.09155 0.09142509
v -12.31907 8.670577 1.258572
v -14.40073 10.77047 -0.8336226
v -14.41123 11.00834 0.5435451
v -14.17149 10.84614 0.7692091
v -13.27971 8.845769 1.672587
v -14.05095 8.76195 1.961735
v -14.05583 9.652792 1.966134
v -13.5481 10.1166 1.842405
v -14.51522 10.03502 1.069402
v -14.77815 9.701448 1.329042
v -14.05095 8.76195 1.961735
v -13.27971 8.845769 1.672587
v -12.76677 8.901517 1.480274
v -14.17149 10.84614 0.7692091
v -14.34034 10.25688 0.8967146
v -12.31907 8.670577 1.258572
v -14.94351 12.87331 0.5407815
v -15.05627 13.0651 -0.8846452
v -14.43345 13.34983 -1.00024
v -14.24334 12.95433 0.6396213
v -14.41123 11.00834 0.5435451
v -14.89786 11.0307 0.5458289
v -14.98055 11.05324 -0.7812462
v -14.55114 11.04948 -0.8703639
v -14.11546 13.34111 -1.871448
v -14.42821 13.32723 -2.516082
v -15.07005 13.0843 -1.10572
v -15.02738 13.06474 -2.54048
v -14.40597 12.76229 -4.273843
v -14.9713 13.0562 -2.753999
v -14.9264 12.76681 -4.308865
v -14.8752 11.00664 -4.344509
v -14.54016 10.93828 -4.319776
v -14.92012 11.04348 -2.677337
v -14.56591 11.01746 -2.421061
v -15.01454 11.05829 -0.9940423
v -14.98492 11.04524 -2.463679
v -15.3845 11.05307 0.5481127
v -16.29235 10.83221 0.4526825
v -16.84473 12.09366 0.2091353
v -15.64367 12.79229 0.4419417
v -16.738 12.08705 -0.5722166
v -15.67909 12.78036 -0.7690501
v -15.05627 13.0651 -0.8846452
v -14.94351 12.87331 0.5407815
v -14.89786 11.0307 0.5458289
v -16.738 12.08705 -0.5722166
v -16.17339 10.84015 -0.5639554
v -15.40996 11.05699 -0.6921286
v -15.67909 12.78036 -0.7690501
v -14.98055 11.05324 -0.7812462
v -15.05627 13.0651 -0.8846452
v -14.9713 13.0562 -2.753999
v -15.51439 12.78517 -2.991916
v -14.9264 12.76681 -4.308865
v -15.44684 12.77133 -4.343887
v -16.55612 12.06915 -3.450021
v -16.42848 12.06125 -4.384468
v -16.17339 10.84015 -0.5639554
v -16.738 12.08705 -0.5722166
v -16.84473 12.09366 0.2091353
v -16.29235 10.83221 0.4526825
v -15.3845 11.05307 0.5481127
v -15.40996 11.05699 -0.6921286
v -14.89786 11.0307 0.5458289
v -14.98055 11.05324 -0.7812462
v -17.07895 12.06477 -1.439372
v -16.91797 12.05481 -2.617884
v -15.62655 12.80224 -2.564878
v -15.70666 12.81877 -1.2112
v -15.02738 13.06474 -2.54048
v -15.07005 13.0843 -1.10572
v -15.47794 11.0671 -1.117721
v -16.51907 10.85134 -1.415025
v -17.07895 12.06477 -1.439372
v -15.70666 12.81877 -1.2112
v -15.01454 11.05829 -0.9940423
v -15.07005 13.0843 -1.10572
v -14.98055 11.05324 -0.7812462
v -14.55114 11.04948 -0.8703639
v -15.05627 13.0651 -0.8846452
v -14.43345 13.34983 -1.00024
v -16.91797 12.05481 -2.617884
v -16.3803 10.8606 -2.600963
v -15.40394 11.07302 -2.506297
v -15.62655 12.80224 -2.564878
v -14.98492 11.04524 -2.463679
v -15.02738 13.06474 -2.54048
v -15.07005 13.0843 -1.10572
v -14.43345 13.34983 -1.00024
v -14.55114 11.04948 -0.8703639
v -15.01454 11.05829 -0.9940423
v -15.27433 11.0695 -2.933612
v -16.01891 10.85723 -3.429064
v -16.55612 12.06915 -3.450021
v -15.51439 12.78517 -2.991916
v -14.92012 11.04348 -2.677337
v -14.9713 13.0562 -2.753999
v -16.3803 10.8606 -2.600963
v -16.91797 12.05481 -2.617884
v -17.07895 12.06477 -1.439372
v -16.51907 10.85134 -1.415025
v -15.40394 11.07302 -2.506297
v -15.47794 11.0671 -1.117721
v -14.98492 11.04524 -2.463679
v -15.01454 11.05829 -0.9940423
v -15.27433 11.0695 -2.933612
v -14.92012 11.04348 -2.677337
v -14.8752 11.00664 -4.344509
v -15.21024 11.075 -4.369242
v -14.9264 12.76681 -4.308865
v -15.44684 12.77133 -4.343887
v -16.42848 12.06125 -4.384468
v -16.01891 10.85723 -3.429064
v -15.90656 10.86473 -4.389146
v -16.55612 12.06915 -3.450021
v -16.42848 12.06125 -4.384468
v -14.98492 11.04524 -2.463679
v -14.56591 11.01746 -2.421061
v -15.02738 13.06474 -2.54048
v -14.42821 13.32723 -2.516082
v -14.9713 13.0562 -2.753999
v -14.42821 13.32723 -2.516082
v -14.56591 11.01746 -2.421061
v -14.92012 11.04348 -2.677337
v -12.76677 8.901517 1.480274
v -13.5481 10.1166 1.842405
v -13.21041 10.42507 1.760113
v -14.34034 10.25688 0.8967146
v -13.27971 8.845769 1.672587
v -14.51522 10.03502 1.069402
vt 0.530755 0.107026
vt 0.5354035 0.1165801
vt 0.5555798 0.1256365
vt 0.5746304 0.1062311
vt 0.5272425 0.04986401
vt 0.5645001 0.05280288
vt 0.5988836 0.04904416
vt 0.5764396 0.1449575
vt 0.5639498 0.1430315
vt 0.613287 0.1107603
vt 0.6510223 0.03322819
vt 0.6128671 0.1462031
vt 0.6667827 0.1252037
vt 0.5777923 0.156047
vt 0.6205964 0.1553854
vt 0.6699821 0.1399053
vt 0.7281244 0.1490444
vt 0.6666281 0.1061837
vt 0.7008595 0.02356771
vt 0.7248667 0.1364208
vt 0.7554566 0.1466074
vt 0.7205787 0.1007206
vt 0.752633 0.1346781
vt 0.7415712 0.09022656
vt 0.7282068 0.01658824
vt 0.7639065 0.01501891
vt 0.7931592 0.1320811
vt 0.7939847 0.1429957
vt 0.8295937 0.1386401
vt 0.7656668 0.08106247
vt 0.8074305 0.06999192
vt 0.8093695 0.0133758
vt 0.8627145 0.01920019
vt 0.8693236 0.0836191
vt 0.825426 0.1278918
vt 0.8532864 0.1337284
vt 0.8560504 0.1199894
vt 0.8855626 0.7867652
vt 0.9005729 0.7868254
vt 0.8984483 0.7711038
vt 0.8888447 0.763883
vt 0.9044849 0.7586849
vt 0.9045704 0.7622755
vt 0.9126496 0.7744369
vt 0.9223492 0.769871
vt 0.5764396 0.1449575
vt 0.5658646 0.1563695
vt 0.5636194 0.1430316
vt 0.5777923 0.156047
vt 0.9657489 0.4360281
vt 0.9657489 0.4360281
vt 0.9657489 0.4360281
vt 0.9657489 0.4360281
vt 0.9657489 0.4360281
vt 0.9657489 0.4360281
vt 0.9657489 0.4360281
vt 0.9657489 0.4360281
vt 0.9657489 0.4360281
vt 0.9657489 0.4360281
vt 0.9657489 0.4360281
vt 0.9657489 0.4360281
vt 0.9657489 0.4360281
vt 0.9657489 0.4360281
vt 0.9657489 0.4360281
vt 0.9657489 0.4360281
vt 0.9657489 0.4360281
vt 0.9657489 0.4360281
vt 0.9657489 0.4360281
vt 0.9657489 0.4360281
vt 0.9657489 0.4360281
vt 0.9407346 0.7128422
vt 0.9633469 0.7045979
vt 0.9636524 0.6916307
vt 0.9350863 0.6981416
vt 0.9608468 0.675494
vt 0.9343177 0.6730058
vt 0.9199561 0.6715435
vt 0.9207145 0.7016014
vt 0.9280727 0.7172956
vt 0.8697407 0.4973389
vt 0.8687725 0.486596
vt 0.8608876 0.4858603
vt 0.8574384 0.4991724
vt 0.8568832 0.4845161
vt 0.8506365 0.4993509
vt 0.9134911 0.6276838
vt 0.9256781 0.6189131
vt 0.9061199 0.5911969
vt 0.9178377 0.5887245
vt 0.9518236 0.602291
vt 0.9448511 0.581695
vt 0.9224035 0.485624
vt 0.9521399 0.484577
vt 0.9524726 0.4674412
vt 0.9223003 0.4635494
vt 0.9021024 0.4641477
vt 0.9058222 0.4902109
vt 0.8937734 0.4653032
vt 0.8973558 0.4925886
vt 0.9716418 0.651697
vt 0.9647459 0.6249321
vt 0.9306114 0.6311057
vt 0.9362094 0.6617263
vt 0.9159577 0.6337801
vt 0.920902 0.6659037
vt 0.8575833 0.4858629
vt 0.86726 0.4858826
vt 0.8712312 0.4959032
vt 0.8580171 0.4991523
vt 0.8533707 0.4850525
vt 0.8519677 0.5000468
vt 0.9488263 0.4404675
vt 0.9488263 0.4404676
vt 0.9488263 0.4404676
vt 0.9488263 0.4404676
vt 0.8646389 0.4984762
vt 0.863659 0.4875073
vt 0.8570338 0.4867214
vt 0.8551374 0.5010839
vt 0.8542731 0.4857009
vt 0.8508956 0.5016209
vt 0.9488263 0.4404676
vt 0.9488263 0.4404676
vt 0.9488263 0.4404675
vt 0.9488263 0.4404675
vt 0.8573839 0.4861304
vt 0.8654653 0.4856854
vt 0.8687117 0.4968059
vt 0.8572684 0.5004527
vt 0.8535193 0.4855534
vt 0.8514498 0.5015682
vt 0.9306731 0.5264938
vt 0.9575239 0.5255892
vt 0.9579172 0.5011736
vt 0.9304858 0.501971
vt 0.9101496 0.5270807
vt 0.9079925 0.4985537
vt 0.9016863 0.5269243
vt 0.8986286 0.4975578
vt 0.9086301 0.5373649
vt 0.9010187 0.5331455
vt 0.9023415 0.5675451
vt 0.9095789 0.5675327
vt 0.9026655 0.5787846
vt 0.9102713 0.5788321
vt 0.9248135 0.5759186
vt 0.9255396 0.5464678
vt 0.9248523 0.5667797
vt 0.9534252 0.5466017
vt 0.9523814 0.5664486
vt 0.9488263 0.4404676
vt 0.9488263 0.4404675
vt 0.9488263 0.4404676
vt 0.9488263 0.4404676
vt 0.9488263 0.4404676
vt 0.9488263 0.4404676
vt 0.9488263 0.4404675
vt 0.9488263 0.4404676
vt 0.951439 0.4379929
vt 0.951439 0.4379929
vt 0.951439 0.4379929
vt 0.951439 0.4379929
vt 0.951439 0.4379929
vt 0.951439 0.4379929
vn -0.09193854 -0.814229 0.5732176
vn 0.2406096 -0.9247026 0.2950119
vn -0.1365992 0.2479749 0.9590876
vn 0.1210051 0.1612121 0.9794735
vn 0.4540033 -0.6975148 0.5543953
vn 0.4056438 -0.2196929 0.8872362
vn 0.2171914 0.7052304 0.6748911
vn -0.8720659 -0.2988852 0.387516
vn -0.8913843 0.1874334 -0.4126776
vn 0.1471846 0.9077662 0.3928067
vn 0.224701 0.9709825 0.08186833
vn -0.4728092 0.530522 0.7035608
vn -0.4080977 0.9127783 0.01708655
vn -0.5590343 -0.5632132 0.6084994
vn -0.4557693 0.7427896 0.4904465
vn -0.1288037 0.9912042 -0.0303955
vn -0.4394741 0.7143139 -0.5446265
vn 0.1358493 0.9901195 -0.03476229
vn 0.1865433 0.6655082 -0.7227036
vn -0.7881401 0.3996296 -0.4681147
vn -0.8123125 -0.5131842 -0.277111
vn 0.03933664 0.6262862 -0.7786002
vn -0.6686875 -0.1899486 -0.7188717
vn 0.04745791 -0.04595058 -0.9978157
vn 0.115131 -0.05987468 -0.9915442
vn 0.2237057 -0.7253844 -0.6509787
vn -0.814485 -0.5784333 0.04504681
vn -0.5369276 -0.8428741 -0.03566577
vn -0.696072 -0.7178676 0.01224757
vn -0.3221421 -0.785866 -0.5278628
vn -0.1430362 -0.9893322 0.02761161
vn 0.2435792 -0.9610226 0.1307851
vn 0.4540033 -0.6975148 0.5543953
vn -0.09193854 -0.814229 0.5732176
vn -0.7659768 -0.641138 0.0471332
vn -0.5590343 -0.5632132 0.6084994
vn -0.8720659 -0.2988852 0.387516
vn 0.2190552 -0.9470968 0.2345686
vn -0.4328368 -0.8972206 0.08744998
vn -0.2282046 0.3319823 0.9152652
vn -0.1023076 0.3972858 0.9119743
vn -0.8835421 0.2098242 -0.4187211
vn -0.9171085 0.118274 0.3806877
vn -0.4328368 -0.8972206 0.08744998
vn 0.2190552 -0.9470968 0.2345686
vn 0.2406096 -0.9247026 0.2950119
vn -0.8720659 -0.2988852 0.387516
vn -0.8913843 0.1874334 -0.4126776
vn -0.09193854 -0.814229 0.5732176
vn -0.1725011 0.5258471 0.8329034
vn -0.3632555 0.6572198 -0.6603844
vn -0.1720418 0.9790068 0.1093035
vn -0.4557693 0.7427896 0.4904465
vn -0.5590343 -0.5632132 0.6084994
vn -0.0263401 -0.835243 0.5492498
vn -0.1438957 -0.7209449 -0.6778883
vn -0.696072 -0.7178676 0.01224757
vn -0.1288037 0.9912042 -0.0303955
vn -0.2078162 0.9668897 -0.1481098
vn -0.4014577 0.654369 0.6408066
vn -0.2319917 0.6337717 -0.7379113
vn -0.4394741 0.7143139 -0.5446265
vn -0.5140085 0.7094236 0.4821965
vn -0.0294362 0.6604746 -0.7502712
vn -0.06368402 -0.6964123 -0.7148106
vn -0.8123125 -0.5131842 -0.277111
vn -0.4462128 -0.6741915 0.5885234
vn -0.5369276 -0.8428741 -0.03566577
vn -0.1927033 -0.6859082 0.7017089
vn 0.02370996 -0.7195937 -0.6939905
vn -0.004231823 -0.5680517 0.822982
vn -0.4618803 -0.7231478 0.5135404
vn -0.8451165 0.06443713 0.5306843
vn -0.4190578 0.7927283 0.4426877
vn -0.6723987 0.3493412 -0.6525648
vn -0.4029672 0.4267139 -0.8096498
vn -0.3632555 0.6572198 -0.6603844
vn -0.1725011 0.5258471 0.8329034
vn -0.0263401 -0.835243 0.5492498
vn -0.6723987 0.3493412 -0.6525648
vn -0.4250773 -0.8329969 -0.3541544
vn -0.06304356 -0.7278865 -0.6827933
vn -0.4029672 0.4267139 -0.8096498
vn -0.1438957 -0.7209449 -0.6778883
vn -0.3632555 0.6572198 -0.6603844
vn -0.5140085 0.7094236 0.4821965
vn -0.5387151 0.6267724 0.5629762
vn -0.0294362 0.6604746 -0.7502712
vn -0.2885904 0.7499728 -0.5951943
vn -0.9287377 0.14703 0.3403358
vn -0.5388283 0.16681 -0.8257352
vn -0.4250773 -0.8329969 -0.3541544
vn -0.6723987 0.3493412 -0.6525648
vn -0.8451165 0.06443713 0.5306843
vn -0.4618803 -0.7231478 0.5135404
vn -0.004231823 -0.5680517 0.822982
vn -0.06304356 -0.7278865 -0.6827933
vn -0.0263401 -0.835243 0.5492498
vn -0.1438957 -0.7209449 -0.6778883
vn -0.8710404 0.2294551 0.4343258
vn -0.4894028 0.1776898 -0.8537629
vn -0.2747903 0.6096971 -0.7434781
vn -0.4254586 0.6377535 0.6420711
vn -0.2319917 0.6337717 -0.7379113
vn -0.4014577 0.654369 0.6408066
vn -0.1358854 -0.7133158 0.6875432
vn -0.2728031 -0.9067599 0.3215043
vn -0.8710404 0.2294551 0.4343258
vn -0.4254586 0.6377535 0.6420711
vn -0.1927033 -0.6859082 0.7017089
vn -0.4014577 0.654369 0.6408066
vn -0.1438957 -0.7209449 -0.6778883
vn -0.696072 -0.7178676 0.01224757
vn -0.3632555 0.6572198 -0.6603844
vn -0.1720418 0.9790068 0.1093035
vn -0.4894028 0.1776898 -0.8537629
vn -0.5735519 -0.6776737 -0.4602136
vn 0.1397512 -0.7005072 -0.699828
vn -0.2747903 0.6096971 -0.7434781
vn 0.02370996 -0.7195937 -0.6939905
vn -0.2319917 0.6337717 -0.7379113
vn -0.4014577 0.654369 0.6408066
vn -0.1720418 0.9790068 0.1093035
vn -0.696072 -0.7178676 0.01224757
vn -0.1927033 -0.6859082 0.7017089
vn -0.3401684 -0.7337889 0.5880811
vn -0.3062619 -0.911176 0.2756122
vn -0.9287377 0.14703 0.3403358
vn -0.5387151 0.6267724 0.5629762
vn -0.4462128 -0.6741915 0.5885234
vn -0.5140085 0.7094236 0.4821965
vn -0.5735519 -0.6776737 -0.4602136
vn -0.4894028 0.1776898 -0.8537629
vn -0.8710404 0.2294551 0.4343258
vn -0.2728031 -0.9067599 0.3215043
vn 0.1397512 -0.7005072 -0.699828
vn -0.1358854 -0.7133158 0.6875432
vn 0.02370996 -0.7195937 -0.6939905
vn -0.1927033 -0.6859082 0.7017089
vn -0.3401684 -0.7337889 0.5880811
vn -0.4462128 -0.6741915 0.5885234
vn -0.06368402 -0.6964123 -0.7148106
vn 0.1133597 -0.575273 -0.8100682
vn -0.0294362 0.6604746 -0.7502712
vn -0.2885904 0.7499728 -0.5951943
vn -0.5388283 0.16681 -0.8257352
vn -0.3062619 -0.911176 0.2756122
vn -0.5792459 -0.6708245 -0.4631076
vn -0.9287377 0.14703 0.3403358
vn -0.5388283 0.16681 -0.8257352
vn 0.02370996 -0.7195937 -0.6939905
vn -0.5369276 -0.8428741 -0.03566577
vn -0.2319917 0.6337717 -0.7379113
vn -0.2078162 0.9668897 -0.1481098
vn -0.5140085 0.7094236 0.4821965
vn -0.2078162 0.9668897 -0.1481098
vn -0.5369276 -0.8428741 -0.03566577
vn -0.4462128 -0.6741915 0.5885234
vn 0.2406096 -0.9247026 0.2950119
vn -0.1023076 0.3972858 0.9119743
vn -0.1365992 0.2479749 0.9590876
vn -0.8913843 0.1874334 -0.4126776
vn 0.2190552 -0.9470968 0.2345686
vn -0.8835421 0.2098242 -0.4187211
g Yellow_Glove_R_0
f 3/3/3 2/2/2 1/1/1
f 4/4/4 3/3/3 1/1/1
f 4/4/4 1/1/1 5/5/5
f 5/5/5 6/6/6 4/4/4
f 4/4/4 6/6/6 7/7/7
f 3/3/3 4/4/4 8/8/8
f 8/8/8 9/9/9 3/3/3
f 7/7/7 10/10/10 4/4/4
f 7/7/7 11/11/11 10/10/10
f 12/12/12 8/8/8 4/4/4
f 10/10/10 12/12/12 4/4/4
f 13/13/13 12/12/12 10/10/10
f 12/12/12 14/14/14 8/8/8
f 12/12/12 15/15/15 14/14/14
f 15/15/15 12/12/12 13/13/13
f 13/13/13 16/16/16 15/15/15
f 17/17/17 16/16/16 13/13/13
f 11/11/11 18/18/18 10/10/10
f 10/10/10 18/18/18 13/13/13
f 11/11/11 19/19/19 18/18/18
f 13/13/13 20/20/20 17/17/17
f 21/21/21 17/17/17 20/20/20
f 13/13/13 18/18/18 22/22/22
f 19/19/19 22/22/22 18/18/18
f 22/22/22 20/20/20 13/13/13
f 20/20/20 23/23/23 21/21/21
f 20/20/20 22/22/22 23/23/23
f 22/22/22 19/19/19 24/24/24
f 23/23/23 22/22/22 24/24/24
f 24/24/24 19/19/19 25/25/25
f 24/24/24 25/25/25 26/26/26
f 23/23/23 27/27/27 21/21/21
f 21/21/21 27/27/27 28/28/28
f 29/29/29 28/28/28 27/27/27
f 23/23/23 24/24/24 30/30/30
f 26/26/26 30/30/30 24/24/24
f 23/23/23 30/30/30 27/27/27
f 30/30/30 26/26/26 31/31/31
f 27/27/27 30/30/30 31/31/31
f 31/31/31 26/26/26 32/32/32
f 31/31/31 32/32/32 33/33/33
f 33/33/33 34/34/34 31/31/31
f 27/27/27 35/35/35 29/29/29
f 35/35/35 27/27/27 31/31/31
f 31/31/31 34/34/34 35/35/35
f 36/36/36 29/29/29 35/35/35
f 35/35/35 34/34/34 37/37/37
f 35/35/35 37/37/37 36/36/36
f 40/40/40 39/39/39 38/38/38
f 38/38/38 41/41/41 40/40/40
f 40/40/40 41/41/41 42/42/42
f 42/42/42 43/43/43 40/40/40
f 43/43/43 44/44/44 40/40/40
f 44/44/44 43/43/43 42/42/42
f 42/42/42 45/45/45 44/44/44
f 48/48/48 47/47/47 46/46/46
f 49/49/49 46/46/46 47/47/47
f 52/52/52 51/51/51 50/50/50
f 52/52/52 50/50/50 53/53/53
f 54/54/54 53/53/53 50/50/50
f 50/50/50 55/55/55 54/54/54
f 54/54/54 55/55/55 56/56/56
f 56/56/56 57/57/57 54/54/54
f 52/52/52 53/53/53 58/58/58
f 52/52/52 58/58/58 59/59/59
f 59/59/59 60/60/60 52/52/52
f 59/59/59 61/61/61 60/60/60
f 58/58/58 62/62/62 59/59/59
f 62/62/62 63/63/63 59/59/59
f 62/62/62 64/64/64 63/63/63
f 65/65/65 64/64/64 62/62/62
f 62/62/62 66/66/66 65/65/65
f 67/67/67 65/65/65 66/66/66
f 66/66/66 68/68/68 67/67/67
f 68/68/68 57/57/57 69/69/69
f 69/69/69 70/70/70 68/68/68
f 73/73/73 72/72/72 71/71/71
f 71/71/71 74/74/74 73/73/73
f 74/74/74 75/75/75 73/73/73
f 76/76/76 75/75/75 74/74/74
f 77/77/77 76/76/76 74/74/74
f 77/77/77 74/74/74 78/78/78
f 71/71/71 78/78/78 74/74/74
f 71/71/71 79/79/79 78/78/78
f 82/82/82 81/81/81 80/80/80
f 80/80/80 83/83/83 82/82/82
f 83/83/83 84/84/84 82/82/82
f 83/83/83 85/85/85 84/84/84
f 88/88/88 87/87/87 86/86/86
f 88/88/88 89/89/89 87/87/87
f 89/89/89 90/90/90 87/87/87
f 89/89/89 91/91/91 90/90/90
f 94/94/94 93/93/93 92/92/92
f 92/92/92 95/95/95 94/94/94
f 96/96/96 95/95/95 92/92/92
f 92/92/92 97/97/97 96/96/96
f 98/98/98 96/96/96 97/97/97
f 97/97/97 99/99/99 98/98/98
f 102/102/102 101/101/101 100/100/100
f 102/102/102 100/100/100 103/103/103
f 104/104/104 102/102/102 103/103/103
f 104/104/104 103/103/103 105/105/105
f 108/108/108 107/107/107 106/106/106
f 106/106/106 109/109/109 108/108/108
f 109/109/109 106/106/106 110/110/110
f 110/110/110 111/111/111 109/109/109
f 114/114/114 113/113/113 112/112/112
f 114/114/114 115/115/115 113/113/113
f 118/118/118 117/117/117 116/116/116
f 116/116/116 119/119/119 118/118/118
f 119/119/119 120/120/120 118/118/118
f 119/119/119 121/121/121 120/120/120
f 124/124/124 123/123/123 122/122/122
f 122/122/122 125/125/125 124/124/124
f 128/128/128 127/127/127 126/126/126
f 126/126/126 129/129/129 128/128/128
f 129/129/129 126/126/126 130/130/130
f 130/130/130 131/131/131 129/129/129
f 134/134/134 133/133/133 132/132/132
f 132/132/132 135/135/135 134/134/134
f 135/135/135 132/132/132 136/136/136
f 136/136/136 137/137/137 135/135/135
f 137/137/137 136/136/136 138/138/138
f 138/138/138 139/139/139 137/137/137
f 142/142/142 141/141/141 140/140/140
f 140/140/140 143/143/143 142/142/142
f 142/142/142 143/143/143 144/144/144
f 145/145/145 144/144/144 143/143/143
f 146/146/146 145/145/145 143/143/143
f 143/143/143 140/140/140 147/147/147
f 143/143/143 148/148/148 146/146/146
f 147/147/147 148/148/148 143/143/143
f 148/148/148 147/147/147 149/149/149
f 149/149/149 150/150/150 148/148/148
f 153/153/153 152/152/152 151/151/151
f 154/154/154 152/152/152 153/153/153
f 157/157/157 156/156/156 155/155/155
f 155/155/155 158/158/158 157/157/157
f 161/161/161 160/160/160 159/159/159
f 160/160/160 161/161/161 162/162/162
f 160/160/160 163/163/163 159/159/159
f 162/162/162 159/159/159 163/163/163
f 160/160/160 162/162/162 164/164/164
f 163/163/163 164/164/164 162/162/162
